<?xml version="1.0" encoding="utf-8" standalone="no"?>
<!DOCTYPE svg PUBLIC "-//W3C//DTD SVG 1.1//EN"
  "http://www.w3.org/Graphics/SVG/1.1/DTD/svg11.dtd">
<!-- Created with matplotlib (http://matplotlib.org/) -->
<svg height="345pt" version="1.1" viewBox="0 0 460 345" width="460pt" xmlns="http://www.w3.org/2000/svg" xmlns:xlink="http://www.w3.org/1999/xlink">
 <defs>
  <style type="text/css">
*{stroke-linecap:butt;stroke-linejoin:round;}
  </style>
 </defs>
 <g id="figure_1">
  <g id="patch_1">
   <path d="M 0 345.6 
L 460.8 345.6 
L 460.8 0 
L 0 0 
z
" style="fill:#ffffff;"/>
  </g>
  <g id="axes_1">
   <g id="patch_2">
    <path clip-path="url(#p74095bacee)" d="M 252.038881 295.488 
L 220.281119 295.488 
L 149.940767 144.642628 
L 149.940767 53.568 
L 322.379233 53.568 
L 322.379233 144.642628 
z
" style="fill:#ffffff;stroke:#000000;stroke-linejoin:miter;"/>
   </g>
   <g id="patch_3">
    <path clip-path="url(#p74095bacee)" d="M 236.16 295.488 
Q 236.16 295.488 252.038881 295.488 
M 254.67904 289.826161 
Q 236.16 295.488 236.16 295.488 
" style="fill:#ffffff;stroke:#ff0000;stroke-linejoin:miter;"/>
   </g>
   <g id="patch_4">
    <path clip-path="url(#p74095bacee)" d="M 236.16 295.488 
Q 236.16 295.488 220.281119 295.488 
M 217.64096 289.826161 
Q 236.16 295.488 236.16 295.488 
" style="fill:#ffffff;stroke:#008000;stroke-linejoin:miter;"/>
   </g>
   <g id="patch_5">
    <path clip-path="url(#p74095bacee)" d="M 236.16 289.826161 
Q 236.16 289.826161 254.67904 289.826161 
M 257.758174 283.222937 
Q 236.16 289.826161 236.16 289.826161 
" style="fill:#ffffff;stroke:#ff0000;stroke-linejoin:miter;"/>
   </g>
   <g id="patch_6">
    <path clip-path="url(#p74095bacee)" d="M 236.16 289.826161 
Q 236.16 289.826161 217.64096 289.826161 
M 214.561826 283.222937 
Q 236.16 289.826161 236.16 289.826161 
" style="fill:#ffffff;stroke:#008000;stroke-linejoin:miter;"/>
   </g>
   <g id="patch_7">
    <path clip-path="url(#p74095bacee)" d="M 236.16 283.222937 
Q 236.16 283.222937 257.758174 283.222937 
M 261.349271 275.521804 
Q 236.16 283.222937 236.16 283.222937 
" style="fill:#ffffff;stroke:#ff0000;stroke-linejoin:miter;"/>
   </g>
   <g id="patch_8">
    <path clip-path="url(#p74095bacee)" d="M 236.16 283.222937 
Q 236.16 283.222937 214.561826 283.222937 
M 210.970729 275.521804 
Q 236.16 283.222937 236.16 283.222937 
" style="fill:#ffffff;stroke:#008000;stroke-linejoin:miter;"/>
   </g>
   <g id="patch_9">
    <path clip-path="url(#p74095bacee)" d="M 236.16 275.521804 
Q 236.16 275.521804 261.349271 275.521804 
M 265.537455 266.540214 
Q 236.16 275.521804 236.16 275.521804 
" style="fill:#ffffff;stroke:#ff0000;stroke-linejoin:miter;"/>
   </g>
   <g id="patch_10">
    <path clip-path="url(#p74095bacee)" d="M 236.16 275.521804 
Q 236.16 275.521804 210.970729 275.521804 
M 206.782545 266.540214 
Q 236.16 275.521804 236.16 275.521804 
" style="fill:#ffffff;stroke:#008000;stroke-linejoin:miter;"/>
   </g>
   <g id="patch_11">
    <path clip-path="url(#p74095bacee)" d="M 236.16 266.540214 
Q 236.16 266.540214 265.537455 266.540214 
M 270.422003 256.065269 
Q 236.16 266.540214 236.16 266.540214 
" style="fill:#ffffff;stroke:#ff0000;stroke-linejoin:miter;"/>
   </g>
   <g id="patch_12">
    <path clip-path="url(#p74095bacee)" d="M 236.16 266.540214 
Q 236.16 266.540214 206.782545 266.540214 
M 201.897997 256.065269 
Q 236.16 266.540214 236.16 266.540214 
" style="fill:#ffffff;stroke:#008000;stroke-linejoin:miter;"/>
   </g>
   <g id="patch_13">
    <path clip-path="url(#p74095bacee)" d="M 236.16 256.065269 
Q 236.16 256.065269 270.422003 256.065269 
M 276.118696 243.848669 
Q 236.16 256.065269 236.16 256.065269 
" style="fill:#ffffff;stroke:#ff0000;stroke-linejoin:miter;"/>
   </g>
   <g id="patch_14">
    <path clip-path="url(#p74095bacee)" d="M 236.16 256.065269 
Q 236.16 256.065269 201.897997 256.065269 
M 196.201304 243.848669 
Q 236.16 256.065269 236.16 256.065269 
" style="fill:#ffffff;stroke:#008000;stroke-linejoin:miter;"/>
   </g>
   <g id="patch_15">
    <path clip-path="url(#p74095bacee)" d="M 236.16 243.848669 
Q 236.16 243.848669 276.118696 243.848669 
M 282.762571 229.600833 
Q 236.16 243.848669 236.16 243.848669 
" style="fill:#ffffff;stroke:#ff0000;stroke-linejoin:miter;"/>
   </g>
   <g id="patch_16">
    <path clip-path="url(#p74095bacee)" d="M 236.16 243.848669 
Q 236.16 243.848669 196.201304 243.848669 
M 189.557429 229.600833 
Q 236.16 243.848669 236.16 243.848669 
" style="fill:#ffffff;stroke:#008000;stroke-linejoin:miter;"/>
   </g>
   <g id="patch_17">
    <path clip-path="url(#p74095bacee)" d="M 236.16 229.600833 
Q 236.16 229.600833 282.762571 229.600833 
M 290.511114 212.98403 
Q 236.16 229.600833 236.16 229.600833 
" style="fill:#ffffff;stroke:#ff0000;stroke-linejoin:miter;"/>
   </g>
   <g id="patch_18">
    <path clip-path="url(#p74095bacee)" d="M 236.16 229.600833 
Q 236.16 229.600833 189.557429 229.600833 
M 181.808886 212.98403 
Q 236.16 229.600833 236.16 229.600833 
" style="fill:#ffffff;stroke:#008000;stroke-linejoin:miter;"/>
   </g>
   <g id="patch_19">
    <path clip-path="url(#p74095bacee)" d="M 236.16 212.98403 
Q 236.16 212.98403 290.511114 212.98403 
M 299.547996 193.604375 
Q 236.16 212.98403 236.16 212.98403 
" style="fill:#ffffff;stroke:#ff0000;stroke-linejoin:miter;"/>
   </g>
   <g id="patch_20">
    <path clip-path="url(#p74095bacee)" d="M 236.16 212.98403 
Q 236.16 212.98403 181.808886 212.98403 
M 172.772004 193.604375 
Q 236.16 212.98403 236.16 212.98403 
" style="fill:#ffffff;stroke:#008000;stroke-linejoin:miter;"/>
   </g>
   <g id="patch_21">
    <path clip-path="url(#p74095bacee)" d="M 236.16 193.604375 
Q 236.16 193.604375 299.547996 193.604375 
M 310.087427 171.002493 
Q 236.16 193.604375 236.16 193.604375 
" style="fill:#ffffff;stroke:#ff0000;stroke-linejoin:miter;"/>
   </g>
   <g id="patch_22">
    <path clip-path="url(#p74095bacee)" d="M 236.16 193.604375 
Q 236.16 193.604375 172.772004 193.604375 
M 162.232573 171.002493 
Q 236.16 193.604375 236.16 193.604375 
" style="fill:#ffffff;stroke:#008000;stroke-linejoin:miter;"/>
   </g>
   <g id="patch_23">
    <path clip-path="url(#p74095bacee)" d="M 149.940767 53.568 
L 171.495575 144.642628 
L 171.495575 53.568 
" style="fill:#ffffff;opacity:0.5;stroke:#bf00bf;stroke-linejoin:miter;"/>
   </g>
   <g id="patch_24">
    <path clip-path="url(#p74095bacee)" d="M 171.495575 144.642628 
L 193.050383 53.568 
L 193.050383 144.642628 
" style="fill:#ffffff;opacity:0.5;stroke:#bf00bf;stroke-linejoin:miter;"/>
   </g>
   <g id="patch_25">
    <path clip-path="url(#p74095bacee)" d="M 193.050383 53.568 
L 214.605192 144.642628 
L 214.605192 53.568 
" style="fill:#ffffff;opacity:0.5;stroke:#bf00bf;stroke-linejoin:miter;"/>
   </g>
   <g id="patch_26">
    <path clip-path="url(#p74095bacee)" d="M 214.605192 144.642628 
L 236.16 53.568 
L 236.16 144.642628 
" style="fill:#ffffff;opacity:0.5;stroke:#bf00bf;stroke-linejoin:miter;"/>
   </g>
   <g id="patch_27">
    <path clip-path="url(#p74095bacee)" d="M 236.16 53.568 
L 257.714808 144.642628 
L 257.714808 53.568 
" style="fill:#ffffff;opacity:0.5;stroke:#bf00bf;stroke-linejoin:miter;"/>
   </g>
   <g id="patch_28">
    <path clip-path="url(#p74095bacee)" d="M 257.714808 144.642628 
L 279.269617 53.568 
L 279.269617 144.642628 
" style="fill:#ffffff;opacity:0.5;stroke:#bf00bf;stroke-linejoin:miter;"/>
   </g>
   <g id="patch_29">
    <path clip-path="url(#p74095bacee)" d="M 279.269617 53.568 
L 300.824425 144.642628 
L 300.824425 53.568 
" style="fill:#ffffff;opacity:0.5;stroke:#bf00bf;stroke-linejoin:miter;"/>
   </g>
   <g id="patch_30">
    <path clip-path="url(#p74095bacee)" d="M 300.824425 144.642628 
L 322.379233 53.568 
" style="fill:#ffffff;opacity:0.5;stroke:#bf00bf;stroke-linejoin:miter;"/>
   </g>
  </g>
 </g>
 <defs>
  <clipPath id="p74095bacee">
   <rect height="266.112" width="189.682314" x="141.318843" y="41.472"/>
  </clipPath>
 </defs>
</svg>
