<svg viewBox="0 0 2224 1668" xmlns="http://www.w3.org/2000/svg" fill-rule="evenodd" clip-rule="evenodd" stroke-linejoin="round" stroke-miterlimit="2">
  <g fill="none" stroke="red" stroke-linecap="round" stroke-miterlimit="1.5">
    <path d="M595.342 819.68c-.077-.021 61.038 144.859 62.272 216.69 1.221 71.09-54.063 209.8-55.153 214.92M748.961 722.268c-.074-.021-.229-.175-.123-.28.047-.047 84.647 206.247 89.84 308.802 4.5 88.88-53.11 300.3-53.11 300.3M288.287 1014.4c-.008 0 5.807 12.47 5.986 19.01.189 6.87-4.857 22.2-4.857 22.2M304.99 1004.33c.008-.01 11.059 19.16 11.619 29.23.582 10.44-8.13 33.42-8.13 33.42M324.138 991.446c.009-.008 12.683 27.334 13.243 41.684.568 14.57-9.834 45.75-9.834 45.75M402.667 941.883c-.026-.006 28.083 59.897 27.95 90.577-.106 24.44-22.92 97.33-22.92 97.33M345.556 978.084c-.016-.004 15.482 36.496 16.012 55.566.53 19.07-12.835 58.86-12.835 58.86M372.446 961.231c-.022-.005 22.107 46.609 22.609 71.219.506 24.82-19.573 77.7-19.573 77.7M483.448 890.762c-.037-.01 41.865 92.932 43.002 141.508 1.137 48.57-36.179 149.94-36.179 149.94M439.962 918.138c-.031-.008 35.218 75.51 35.221 114.172.002 32.5-28.543 121.72-28.543 121.72M536.64 857.221c-.044-.012 50.364 114.573 51.595 174.189 1.231 59.62-44.209 183.51-44.209 183.51M664.381 777.138c-.064-.017-.195-.145-.105-.232.04-.039 75.295 169.785 76.302 256.274 1.006 86.48-70.975 261.39-70.263 262.64"/>
  </g>
  <g fill="none" stroke="#000" stroke-linecap="round" stroke-miterlimit="1.5">
    <path d="M257.905 1034.33l502.277-320.325c2.763 0 3.303-.505 3.155-.738-.148-.233-.457-.302-.69-.154L257.37 1033.48c-.233.15-.303.46-.155.69.148.23.457.3.69.16z"/>
    <path d="M762.942 1354.05c-2.76 0-411.131-258.23-492.18-310.15-8.151-5.22-12.994-8.37-13.789-8.99-.195-.16-.261-.29-.276-.33-.041-.11-.038-.2-.023-.27.03-.16.117-.28.277-.36.22-.11.478-.04.618.15l.02.02c.791.62 5.608 3.75 13.712 8.94 79.951 51.21 478.955 301.84 491.861 309.95.898-.86 3.904-3.82 8.657-8.52 51.566-51.06 308.481-307.29 311.531-310.34.19-.19.51-.19.71 0 .19.2.19.51 0 .71-3.05 3.04-259.971 259.28-311.538 310.33-5.164 5.12-8.272 8.18-8.863 8.72-.13.12-.217.17-.235.18-.232.1-.394.02-.482-.04zm.541-.84h.01c-.008 0-.017-.01-.026-.01l.016.01zm-505.849-318.63c-.041.1-.12.2-.228.26.116-.06.189-.15.499-.51z"/>
    <path d="M762.942 714.005c8.445 9.496 320.788 320.695 320.788 320.695.19.2.51.2.7 0 .2-.19.2-.51 0-.71 0 0-312.311-311.171-321.146-320.667-.188-.202-.504-.213-.706-.025-.202.188-.214.505.364.707z"/>
  </g>
  <g fill="none" stroke="#00f" stroke-linecap="round" stroke-miterlimit="1.5">
    <path d="M756.574 717.489s70.836 82.928 84.371 133.923c13.966 52.619-.749 121.195-.573 181.788.177 61.01 8.154 137.12 1.637 184.23-4.867 35.18-41.349 99.37-40.74 98.46M673.604 771.566s56.155 65.73 66.969 106.638c11.567 43.759 2.169 103.945 2.437 155.916.268 51.98 9.799 111.53-.83 155.93-9.938 41.51-63.433 111.23-62.945 110.47M602.161 815.99s47.507 53.729 56.45 87.114c9.766 36.455 1.909 87.744 2.144 131.616.236 43.88 7.588 94.51-.73 131.63-7.537 33.63-49.607 91.69-49.177 91.05M546.296 851.555s35.438 43.977 42.146 70.984c7.532 30.329 2.878 73.979 3.05 110.991.173 37.22 4.212 81.07-2.012 112.31-5.449 27.35-35.664 75.64-35.327 75.11M294.516 1010.63s2.235 5 2.485 7.87c.318 3.66-.809 9.87-.575 14.08.345 6.22 1.287 12.24 1.071 16.43-.161 3.12-2.409 8.79-2.369 8.7M492.882 884.988s28.201 34.126 33.398 55.395c6.051 24.763 2.693 62.107 2.907 93.187.214 31.25 2.769 68.58-1.621 94.31-3.673 21.53-24.99 60.51-24.719 60.08M449.222 912.545s20.945 25.842 24.758 41.911c4.777 20.128 3.541 52.544 3.902 78.854.362 26.32 2.033 58.21-1.733 79.05-3.032 16.78-21.086 46.38-20.866 46.03M412.429 935.912s15.371 20.241 18.112 32.74c3.521 16.053 2.881 42.358 3.013 63.578.135 21.73.827 49.88-2.203 66.81-2.291 12.8-16.143 35.05-15.974 34.77M382.221 954.871s10.232 14.407 11.909 23.163c2.526 13.184 3.206 37.256 3.246 55.946.04 18.69-.82 42.82-3.005 56.22-1.433 8.79-10.248 24.43-10.108 24.19M355.1 972.103s6.922 10.49 8.003 16.967c1.717 10.29 2.275 29.82 2.303 44.78.029 14.96-.693 34.42-2.133 44.99-.905 6.65-6.6 18.63-6.501 18.44M332.356 986.363s4.512 7.84 5.188 12.568c1.153 8.069 1.711 23.859 1.732 35.829.021 11.97-.87 27.92-1.604 36.01-.392 4.32-2.875 12.64-2.801 12.49M312.019 999.973s4.119 5.617 4.736 9.027c1.047 5.8 1.528 17.13 1.548 25.72.019 8.6-.683 20.07-1.433 25.85-.406 3.13-3.135 8.97-3.068 8.85"/>
  </g>
</svg>
