<?xml version="1.0" encoding="UTF-8" standalone="no"?>
<!DOCTYPE svg PUBLIC "-//W3C//DTD SVG 1.1//EN" "http://www.w3.org/Graphics/SVG/1.1/DTD/svg11.dtd">
<svg width="100%" height="100%" viewBox="0 0 612 792" version="1.1" xmlns="http://www.w3.org/2000/svg" xmlns:xlink="http://www.w3.org/1999/xlink" xml:space="preserve" xmlns:serif="http://www.serif.com/" style="fill-rule:evenodd;clip-rule:evenodd;stroke-linejoin:round;stroke-miterlimit:2;">
    <g id="Layer2">
        <path d="M474.959,177.244C474.963,177.242 474.975,177.241 474.974,177.249C474.974,177.252 463.883,173.615 460.171,169.922C456.459,166.228 452.793,155.106 452.704,155.087" style="fill:none;stroke:rgb(237,0,19);stroke-width:1px;stroke-linecap:round;stroke-miterlimit:1.5;"/>
        <path d="M471.356,197.028C471.362,197.025 471.382,197.024 471.381,197.037C471.381,197.043 452.811,190.244 446.419,183.879C440.027,177.514 433.179,158.887 433.03,158.849" style="fill:none;stroke:rgb(237,0,19);stroke-width:1px;stroke-linecap:round;stroke-miterlimit:1.5;"/>
        <path d="M450.441,284.965C450.457,284.956 450.509,284.957 450.509,284.993C450.509,285.009 400.252,264.707 382.48,247C364.707,229.292 344.272,178.868 343.873,178.749" style="fill:none;stroke:rgb(237,0,19);stroke-width:1px;stroke-linecap:round;stroke-miterlimit:1.5;"/>
        <path d="M464.408,224.901C464.416,224.898 464.442,224.901 464.444,224.919C464.445,224.927 438.353,211.757 428.468,201.896C418.584,192.035 405.344,165.837 405.139,165.753" style="fill:none;stroke:rgb(237,0,19);stroke-width:1px;stroke-linecap:round;stroke-miterlimit:1.5;"/>
        <path d="M458.692,251.978C458.705,251.97 458.746,251.969 458.745,251.997C458.745,252.01 419.57,237.57 406.062,224.118C392.554,210.667 378.011,171.372 377.698,171.291" style="fill:none;stroke:rgb(237,0,19);stroke-width:1px;stroke-linecap:round;stroke-miterlimit:1.5;"/>
        <path d="M434.517,360.242C434.543,360.228 434.627,360.226 434.626,360.284C434.625,360.309 355.14,329.952 327.468,302.391C299.797,274.83 269.23,195.091 268.597,194.919" style="fill:none;stroke:rgb(237,0,19);stroke-width:1px;stroke-linecap:round;stroke-miterlimit:1.5;"/>
        <path d="M442.876,324.837C442.895,324.828 442.958,324.833 442.961,324.876C442.963,324.895 380.814,296.373 357.982,273.609C335.151,250.844 306.463,188.464 305.973,188.289" style="fill:none;stroke:rgb(237,0,19);stroke-width:1px;stroke-linecap:round;stroke-miterlimit:1.5;"/>
        <path d="M425.1,403.755C425.132,403.737 425.234,403.734 425.233,403.804C425.232,403.835 328.561,367.467 295.045,334.088C261.528,300.708 224.905,203.733 224.135,203.529" style="fill:none;stroke:rgb(237,0,19);stroke-width:1px;stroke-linecap:round;stroke-miterlimit:1.5;"/>
        <path d="M395.93,527.972C395.976,527.946 396.124,527.944 396.122,528.045C396.122,528.09 255.436,473.958 206.359,425.076C157.282,376.193 102.779,235.057 101.659,234.749" style="fill:none;stroke:rgb(237,0,19);stroke-width:1px;stroke-linecap:round;stroke-miterlimit:1.5;"/>
        <path d="M396.687,538.512C396.687,538.512 327.542,531.833 297.967,514.25C266.329,495.441 236.928,455.492 206.863,425.657C176.798,395.822 136.262,366.811 117.578,335.242C100.051,305.627 94.595,235.534 94.76,236.244" style="fill:none;stroke:rgb(0,41,252);stroke-width:1px;stroke-linecap:round;stroke-miterlimit:1.5;"/>
        <path d="M353.946,622.451C353.946,622.451 273.181,617.138 239.171,597.616C202.789,576.732 169.795,531.003 135.656,497.147C101.517,463.291 55.081,430.779 34.338,394.479C14.879,360.425 11.033,278.518 11.2,279.344" style="fill:none;stroke:rgb(0,41,252);stroke-width:1px;stroke-linecap:round;stroke-miterlimit:1.5;"/>
        <path d="M414.768,468.097C414.768,468.097 347.222,455.615 321.291,440.366C295.8,425.377 279.805,397.068 259.181,376.605C234.637,352.254 201.452,328.666 186.305,302.792C172.097,278.519 168.172,220.774 168.302,221.359" style="fill:none;stroke:rgb(0,41,252);stroke-width:1px;stroke-linecap:round;stroke-miterlimit:1.5;"/>
        <path d="M418.897,419.481C418.897,419.481 377.761,408.658 358.747,395.506C337.936,381.111 315.27,354.259 294.031,333.111C272.675,311.846 244.914,288.688 230.609,267.916C217.665,249.12 208.034,208.038 208.203,208.48" style="fill:none;stroke:rgb(0,41,252);stroke-width:1px;stroke-linecap:round;stroke-miterlimit:1.5;"/>
        <path d="M474.912,179.465C474.912,179.465 469.722,179.385 467.453,177.945C465.05,176.421 462.874,172.805 460.493,170.318C458.094,167.812 454.572,165.306 453.057,162.908C451.714,160.781 451.558,155.762 451.405,155.929" style="fill:none;stroke:rgb(0,41,252);stroke-width:1px;stroke-linecap:round;stroke-miterlimit:1.5;"/>
        <path d="M432.178,368.684C432.178,368.684 397.239,363.198 381.758,353.27C364.215,342.019 344.836,318.923 326.921,301.177C308.906,283.333 284.85,263.713 273.672,246.206C263.869,230.854 259.734,195.75 259.85,196.134" style="fill:none;stroke:rgb(0,41,252);stroke-width:1px;stroke-linecap:round;stroke-miterlimit:1.5;"/>
        <path d="M463.677,228.589C463.677,228.589 452.715,226.164 447.167,221.953C441.266,217.473 434.825,208.114 428.271,201.711C421.72,195.31 412.297,189.425 407.844,183.534C403.436,177.701 401.497,166.244 401.556,166.365" style="fill:none;stroke:rgb(0,41,252);stroke-width:1px;stroke-linecap:round;stroke-miterlimit:1.5;"/>
        <path d="M441.114,329.273C441.114,329.273 415.413,323.771 403.707,315.874C389.698,306.424 372.214,287.439 357.063,272.572C341.912,257.706 322.192,240.659 312.801,226.678C304.815,214.787 300.615,188.384 300.722,188.685" style="fill:none;stroke:rgb(0,41,252);stroke-width:1px;stroke-linecap:round;stroke-miterlimit:1.5;"/>
        <path d="M469.935,200.743C469.935,200.743 463.527,199.841 460.442,197.622C456.553,194.825 451.099,188.404 446.606,183.962C442.228,179.633 436.261,174.848 433.481,170.967C431.091,167.629 429.894,160.593 429.928,160.675" style="fill:none;stroke:rgb(0,41,252);stroke-width:1px;stroke-linecap:round;stroke-miterlimit:1.5;"/>
        <path d="M450.352,289.835C450.352,289.835 428.893,286.84 419.47,280.901C408.194,273.794 394.513,258.9 382.695,247.193C370.593,235.205 353.922,220.226 346.861,208.973C341.275,200.071 340.259,179.427 340.33,179.675" style="fill:none;stroke:rgb(0,41,252);stroke-width:1px;stroke-linecap:round;stroke-miterlimit:1.5;"/>
        <path d="M457.79,257.453C457.79,257.453 442.392,255.005 435.544,250.555C426.861,244.914 415.19,233.084 405.695,223.605C396.199,214.124 383.942,202.103 378.566,193.667C374.503,187.292 373.384,172.807 373.442,172.993" style="fill:none;stroke:rgb(0,41,252);stroke-width:1px;stroke-linecap:round;stroke-miterlimit:1.5;"/>
        <path d="M375.506,617.424C375.568,617.386 375.762,617.371 375.752,617.504C375.747,617.563 195.945,558.225 135.681,498.25C75.417,438.275 15.61,257.966 14.168,257.654" style="fill:none;stroke:rgb(237,0,19);stroke-width:1px;stroke-linecap:round;stroke-miterlimit:1.5;"/>
        <path d="M413.291,460.804C413.346,460.773 295.865,413.232 255.413,372.8C214.961,332.368 170.58,218.213 170.58,218.213" style="fill:none;stroke:rgb(237,0,19);stroke-width:1px;stroke-linecap:round;stroke-miterlimit:1.5;"/>
        <path d="M375.805,620.448C365.34,620.059 9.347,620.303 9.347,620.303" style="fill:none;stroke:black;stroke-width:1px;stroke-linecap:round;stroke-miterlimit:1.5;"/>
        <path d="M481.845,148.873C482.221,147.815 10.666,254.817 10.666,254.817C10.375,254.859 9.478,616.135 9.473,619.998" style="fill:none;stroke:black;stroke-width:1px;stroke-linecap:round;stroke-miterlimit:1.5;"/>
        <path d="M481.885,150.127L375.881,620.52" style="fill:none;stroke:black;stroke-width:1px;stroke-linecap:round;stroke-miterlimit:1.5;"/>
    </g>
    <g id="Layer3">
    </g>
</svg>
