<?xml version="1.0" encoding="UTF-8" standalone="no"?>
<!DOCTYPE svg PUBLIC "-//W3C//DTD SVG 1.1//EN" "http://www.w3.org/Graphics/SVG/1.1/DTD/svg11.dtd">
<svg width="100%" height="100%" viewBox="0 0 2224 1668" version="1.1" xmlns="http://www.w3.org/2000/svg" xmlns:xlink="http://www.w3.org/1999/xlink" xml:space="preserve" xmlns:serif="http://www.serif.com/" style="fill-rule:evenodd;clip-rule:evenodd;stroke-linejoin:round;stroke-miterlimit:2;">
    <g id="Layer3">
        <path d="M595.342,819.68C595.265,819.659 656.38,964.539 657.614,1036.37C658.835,1107.46 603.551,1246.17 602.461,1251.29" style="fill:none;stroke:rgb(237,0,19);stroke-width:1px;stroke-linecap:round;stroke-miterlimit:1.5;"/>
        <path d="M748.961,722.268C748.887,722.247 748.732,722.093 748.838,721.988C748.885,721.941 833.485,928.235 838.678,1030.79C843.178,1119.67 785.568,1331.09 785.568,1331.09" style="fill:none;stroke:rgb(237,0,19);stroke-width:1px;stroke-linecap:round;stroke-miterlimit:1.5;"/>
        <path d="M288.287,1014.4C288.279,1014.4 294.094,1026.87 294.273,1033.41C294.462,1040.28 289.416,1055.61 289.416,1055.61" style="fill:none;stroke:rgb(237,0,19);stroke-width:1px;stroke-linecap:round;stroke-miterlimit:1.5;"/>
        <path d="M304.99,1004.33C304.998,1004.32 316.049,1023.49 316.609,1033.56C317.191,1044 308.479,1066.98 308.479,1066.98" style="fill:none;stroke:rgb(237,0,19);stroke-width:1px;stroke-linecap:round;stroke-miterlimit:1.5;"/>
        <path d="M324.138,991.446C324.147,991.438 336.821,1018.78 337.381,1033.13C337.949,1047.7 327.547,1078.88 327.547,1078.88" style="fill:none;stroke:rgb(237,0,19);stroke-width:1px;stroke-linecap:round;stroke-miterlimit:1.5;"/>
        <path d="M402.667,941.883C402.641,941.877 430.75,1001.78 430.617,1032.46C430.511,1056.9 407.697,1129.79 407.697,1129.79" style="fill:none;stroke:rgb(237,0,19);stroke-width:1px;stroke-linecap:round;stroke-miterlimit:1.5;"/>
        <path d="M345.556,978.084C345.54,978.08 361.038,1014.58 361.568,1033.65C362.098,1052.72 348.733,1092.51 348.733,1092.51" style="fill:none;stroke:rgb(237,0,19);stroke-width:1px;stroke-linecap:round;stroke-miterlimit:1.5;"/>
        <path d="M372.446,961.231C372.424,961.226 394.553,1007.84 395.055,1032.45C395.561,1057.27 375.482,1110.15 375.482,1110.15" style="fill:none;stroke:rgb(237,0,19);stroke-width:1px;stroke-linecap:round;stroke-miterlimit:1.5;"/>
        <path d="M483.448,890.762C483.411,890.752 525.313,983.694 526.45,1032.27C527.587,1080.84 490.271,1182.21 490.271,1182.21" style="fill:none;stroke:rgb(237,0,19);stroke-width:1px;stroke-linecap:round;stroke-miterlimit:1.5;"/>
        <path d="M439.962,918.138C439.931,918.13 475.18,993.648 475.183,1032.31C475.185,1064.81 446.64,1154.03 446.64,1154.03" style="fill:none;stroke:rgb(237,0,19);stroke-width:1px;stroke-linecap:round;stroke-miterlimit:1.5;"/>
        <path d="M536.64,857.221C536.596,857.209 587.004,971.794 588.235,1031.41C589.466,1091.03 544.026,1214.92 544.026,1214.92" style="fill:none;stroke:rgb(237,0,19);stroke-width:1px;stroke-linecap:round;stroke-miterlimit:1.5;"/>
        <path d="M664.381,777.138C664.317,777.121 664.186,776.993 664.276,776.906C664.316,776.867 739.571,946.691 740.578,1033.18C741.584,1119.66 669.603,1294.57 670.315,1295.82" style="fill:none;stroke:rgb(237,0,19);stroke-width:1px;stroke-linecap:round;stroke-miterlimit:1.5;"/>
    </g>
    <g id="Layer1">
        <path d="M257.905,1034.33L763.182,713.957C763.415,713.81 763.485,713.5 763.337,713.267C763.189,713.034 762.88,712.965 762.647,713.113L257.37,1033.48C257.137,1033.63 257.067,1033.94 257.215,1034.17C257.363,1034.4 257.672,1034.47 257.905,1034.33Z"/>
        <path d="M762.942,1354.05C760.735,1352.66 351.811,1095.82 270.762,1043.9C262.611,1038.68 257.768,1035.53 256.973,1034.91C256.778,1034.75 256.712,1034.62 256.697,1034.58C256.656,1034.47 256.659,1034.38 256.674,1034.31C256.704,1034.15 256.791,1034.03 256.951,1033.95C257.171,1033.84 257.429,1033.91 257.569,1034.1L257.589,1034.12C258.38,1034.74 263.197,1037.87 271.301,1043.06C351.252,1094.27 750.256,1344.9 763.162,1353.01C764.06,1352.15 767.066,1349.19 771.819,1344.49C823.385,1293.43 1080.3,1037.2 1083.35,1034.15C1083.54,1033.96 1083.86,1033.96 1084.06,1034.15C1084.25,1034.35 1084.25,1034.66 1084.06,1034.86C1081.01,1037.9 824.089,1294.14 772.522,1345.19C767.358,1350.31 764.25,1353.37 763.659,1353.91C763.529,1354.03 763.442,1354.08 763.424,1354.09C763.192,1354.19 763.03,1354.11 762.942,1354.05ZM763.483,1353.21L763.493,1353.21C763.485,1353.21 763.476,1353.2 763.467,1353.2L763.483,1353.21ZM257.634,1034.58C257.593,1034.68 257.514,1034.78 257.406,1034.84C257.522,1034.78 257.595,1034.69 257.634,1034.58Z"/>
        <path d="M762.552,714.005C771.387,723.501 1083.73,1034.7 1083.73,1034.7C1083.92,1034.9 1084.24,1034.9 1084.43,1034.7C1084.63,1034.51 1084.63,1034.19 1084.43,1033.99C1084.43,1033.99 772.119,722.819 763.284,713.323C763.096,713.121 762.78,713.11 762.578,713.298C762.376,713.486 762.364,713.803 762.552,714.005Z"/>
    </g>
    <g id="Layer2">
        <path d="M756.574,717.489C756.574,717.489 827.41,800.417 840.945,851.412C854.911,904.031 840.196,972.607 840.372,1033.2C840.549,1094.21 848.526,1170.32 842.009,1217.43C837.142,1252.61 800.66,1316.8 801.269,1315.89" style="fill:none;stroke:rgb(0,41,252);stroke-width:1px;stroke-linecap:round;stroke-miterlimit:1.5;"/>
        <path d="M673.604,771.566C673.604,771.566 729.759,837.296 740.573,878.204C752.14,921.963 742.742,982.149 743.01,1034.12C743.278,1086.1 752.809,1145.65 742.18,1190.05C732.242,1231.56 678.747,1301.28 679.235,1300.52" style="fill:none;stroke:rgb(0,41,252);stroke-width:1px;stroke-linecap:round;stroke-miterlimit:1.5;"/>
        <path d="M602.161,815.99C602.161,815.99 649.668,869.719 658.611,903.104C668.377,939.559 660.52,990.848 660.755,1034.72C660.991,1078.6 668.343,1129.23 660.025,1166.35C652.488,1199.98 610.418,1258.04 610.848,1257.4" style="fill:none;stroke:rgb(0,41,252);stroke-width:1px;stroke-linecap:round;stroke-miterlimit:1.5;"/>
        <path d="M546.296,851.555C546.296,851.555 581.734,895.532 588.442,922.539C595.974,952.868 591.32,996.518 591.492,1033.53C591.665,1070.75 595.704,1114.6 589.48,1145.84C584.031,1173.19 553.816,1221.48 554.153,1220.95" style="fill:none;stroke:rgb(0,41,252);stroke-width:1px;stroke-linecap:round;stroke-miterlimit:1.5;"/>
        <path d="M294.516,1010.63C294.516,1010.63 296.751,1015.63 297.001,1018.5C297.319,1022.16 296.192,1028.37 296.426,1032.58C296.771,1038.8 297.713,1044.82 297.497,1049.01C297.336,1052.13 295.088,1057.8 295.128,1057.71" style="fill:none;stroke:rgb(0,41,252);stroke-width:1px;stroke-linecap:round;stroke-miterlimit:1.5;"/>
        <path d="M492.882,884.988C492.882,884.988 521.083,919.114 526.28,940.383C532.331,965.146 528.973,1002.49 529.187,1033.57C529.401,1064.82 531.956,1102.15 527.566,1127.88C523.893,1149.41 502.576,1188.39 502.847,1187.96" style="fill:none;stroke:rgb(0,41,252);stroke-width:1px;stroke-linecap:round;stroke-miterlimit:1.5;"/>
        <path d="M449.222,912.545C449.222,912.545 470.167,938.387 473.98,954.456C478.757,974.584 477.521,1007 477.882,1033.31C478.244,1059.63 479.915,1091.52 476.149,1112.36C473.117,1129.14 455.063,1158.74 455.283,1158.39" style="fill:none;stroke:rgb(0,41,252);stroke-width:1px;stroke-linecap:round;stroke-miterlimit:1.5;"/>
        <path d="M412.429,935.912C412.429,935.912 427.8,956.153 430.541,968.652C434.062,984.705 433.422,1011.01 433.554,1032.23C433.689,1053.96 434.381,1082.11 431.351,1099.04C429.06,1111.84 415.208,1134.09 415.377,1133.81" style="fill:none;stroke:rgb(0,41,252);stroke-width:1px;stroke-linecap:round;stroke-miterlimit:1.5;"/>
        <path d="M382.221,954.871C382.221,954.871 392.453,969.278 394.13,978.034C396.656,991.218 397.336,1015.29 397.376,1033.98C397.416,1052.67 396.556,1076.8 394.371,1090.2C392.938,1098.99 384.123,1114.63 384.263,1114.39" style="fill:none;stroke:rgb(0,41,252);stroke-width:1px;stroke-linecap:round;stroke-miterlimit:1.5;"/>
        <path d="M355.1,972.103C355.1,972.103 362.022,982.593 363.103,989.07C364.82,999.36 365.378,1018.89 365.406,1033.85C365.435,1048.81 364.713,1068.27 363.273,1078.84C362.368,1085.49 356.673,1097.47 356.772,1097.28" style="fill:none;stroke:rgb(0,41,252);stroke-width:1px;stroke-linecap:round;stroke-miterlimit:1.5;"/>
        <path d="M332.356,986.363C332.356,986.363 336.868,994.203 337.544,998.931C338.697,1007 339.255,1022.79 339.276,1034.76C339.297,1046.73 338.406,1062.68 337.672,1070.77C337.28,1075.09 334.797,1083.41 334.871,1083.26" style="fill:none;stroke:rgb(0,41,252);stroke-width:1px;stroke-linecap:round;stroke-miterlimit:1.5;"/>
        <path d="M312.019,999.973C312.019,999.973 316.138,1005.59 316.755,1009C317.802,1014.8 318.283,1026.13 318.303,1034.72C318.322,1043.32 317.62,1054.79 316.87,1060.57C316.464,1063.7 313.735,1069.54 313.802,1069.42" style="fill:none;stroke:rgb(0,41,252);stroke-width:1px;stroke-linecap:round;stroke-miterlimit:1.5;"/>
    </g>
</svg>
