<?xml version="1.0" encoding="UTF-8" standalone="no"?>
<!DOCTYPE svg PUBLIC "-//W3C//DTD SVG 1.1//EN" "http://www.w3.org/Graphics/SVG/1.1/DTD/svg11.dtd">
<svg width="100%" height="100%" viewBox="0 0 2224 1668" version="1.1" xmlns="http://www.w3.org/2000/svg" xmlns:xlink="http://www.w3.org/1999/xlink" xml:space="preserve" xmlns:serif="http://www.serif.com/" style="fill-rule:evenodd;clip-rule:evenodd;stroke-linejoin:round;stroke-miterlimit:2;">
    <g id="Layer3">
        <g transform="matrix(1.03831,0,0,1,-178.688,105.223)">
            <path d="M745.471,714.456C745.397,714.436 805.35,859.841 805.446,931.145C805.541,1002.45 746.046,1142.28 746.046,1142.28" style="fill:none;stroke:rgb(237,0,19);stroke-width:0.98px;stroke-linecap:round;stroke-miterlimit:1.5;"/>
        </g>
        <g transform="matrix(1.00133,0,0,0.998531,-0.704557,-0.469481)">
            <path d="M748.668,723.801C748.594,723.78 748.439,723.626 748.545,723.52C748.592,723.474 838.141,928.87 838.265,1032.78C838.39,1136.69 749.29,1346.97 749.29,1346.97" style="fill:none;stroke:rgb(237,0,19);stroke-width:1px;stroke-linecap:round;stroke-miterlimit:1.5;"/>
        </g>
        <g transform="matrix(0.104085,0,0,0.0847398,207.023,945.895)">
            <path d="M780.751,808.434C780.677,808.413 838.22,955.578 838.265,1032.78C838.311,1110.68 781.027,1275.83 781.027,1275.83" style="fill:none;stroke:rgb(237,0,19);stroke-width:10.54px;stroke-linecap:round;stroke-miterlimit:1.5;"/>
        </g>
        <g transform="matrix(0.172008,0,0,0.113694,172.421,916.135)">
            <path d="M770.714,775.685C770.76,775.638 838.354,944.202 838.265,1032.78C838.176,1121.35 770.179,1307.14 770.179,1307.14" style="fill:none;stroke:rgb(237,0,19);stroke-width:6.86px;stroke-linecap:round;stroke-miterlimit:1.5;"/>
        </g>
        <g transform="matrix(0.192529,0,0,0.158383,175.99,869.558)">
            <path d="M769.481,769.577C769.528,769.53 839.102,943.465 838.265,1032.78C837.428,1122.09 764.458,1305.45 764.458,1305.45" style="fill:none;stroke:rgb(237,0,19);stroke-width:5.67px;stroke-linecap:round;stroke-miterlimit:1.5;"/>
        </g>
        <g transform="matrix(0.341339,0,0,0.309809,144.484,712.492)">
            <path d="M756.38,740.428C756.306,740.407 838.654,933.756 838.265,1032.78C837.876,1131.8 754.046,1334.56 754.046,1334.56" style="fill:none;stroke:rgb(237,0,19);stroke-width:3.07px;stroke-linecap:round;stroke-miterlimit:1.5;"/>
        </g>
        <g transform="matrix(0.219545,0,0,0.201776,177.531,825.256)">
            <path d="M765.332,757.413C765.258,757.392 838.633,940.241 838.265,1032.78C837.897,1125.32 763.124,1312.64 763.124,1312.64" style="fill:none;stroke:rgb(237,0,19);stroke-width:4.74px;stroke-linecap:round;stroke-miterlimit:1.5;"/>
        </g>
        <g transform="matrix(0.291996,0,0,0.25216,150.284,772.028)">
            <path d="M760.836,750.327C760.762,750.306 838.942,936.521 838.265,1032.78C837.589,1129.04 756.778,1327.87 756.778,1327.87" style="fill:none;stroke:rgb(237,0,19);stroke-width:3.67px;stroke-linecap:round;stroke-miterlimit:1.5;"/>
        </g>
        <g transform="matrix(0.503246,0,0,0.473328,104.596,543.426)">
            <path d="M752.817,733.816C752.743,733.795 838.325,931.855 838.265,1032.78C838.206,1133.7 752.461,1339.36 752.461,1339.36" style="fill:none;stroke:rgb(237,0,19);stroke-width:2.05px;stroke-linecap:round;stroke-miterlimit:1.5;"/>
        </g>
        <g transform="matrix(0.416733,0,0,0.386295,125.85,633.354)">
            <path d="M753.749,737.219C753.675,737.198 838.259,932.691 838.265,1032.78C838.272,1132.87 753.789,1337.74 753.789,1337.74" style="fill:none;stroke:rgb(237,0,19);stroke-width:2.49px;stroke-linecap:round;stroke-miterlimit:1.5;"/>
        </g>
        <g transform="matrix(0.59174,0,0,0.577337,92.1998,435.15)">
            <path d="M751.073,731.064C750.999,731.044 838.289,930.761 838.265,1032.78C838.242,1134.8 750.934,1343.17 750.934,1343.17" style="fill:none;stroke:rgb(237,0,19);stroke-width:1.71px;stroke-linecap:round;stroke-miterlimit:1.5;"/>
        </g>
        <g transform="matrix(0.850438,0,0,0.828666,27.6847,177.349)">
            <path d="M748.668,723.801C748.594,723.78 748.439,723.626 748.545,723.52C748.592,723.474 837.95,929.253 838.265,1032.78C838.581,1136.3 749.6,1343.16 750.438,1344.67" style="fill:none;stroke:rgb(237,0,19);stroke-width:1.19px;stroke-linecap:round;stroke-miterlimit:1.5;"/>
        </g>
    </g>
    <g id="Layer1">
        <path d="M258.771,1033.64L763.182,713.957C763.415,713.81 763.485,713.5 763.337,713.267C763.189,713.034 762.88,712.965 762.647,713.113L258.236,1032.8C258.003,1032.95 257.933,1033.26 258.081,1033.49C258.229,1033.72 258.538,1033.79 258.771,1033.64Z"/>
        <path d="M762.942,1354.05C760.736,1352.66 352.033,1095.79 271.028,1043.86C262.882,1038.64 258.042,1035.49 257.247,1034.86C257.052,1034.71 256.986,1034.58 256.971,1034.54C256.931,1034.43 256.934,1034.34 256.948,1034.26C256.978,1034.11 257.065,1033.98 257.225,1033.9C257.445,1033.8 257.704,1033.87 257.843,1034.06L257.863,1034.08C258.654,1034.69 263.468,1037.83 271.568,1043.02C351.475,1094.24 750.263,1344.9 763.162,1353.01C764.06,1352.15 767.066,1349.19 771.819,1344.49C823.385,1293.43 1080.3,1037.2 1083.35,1034.15C1083.54,1033.96 1083.86,1033.96 1084.06,1034.15C1084.25,1034.35 1084.25,1034.66 1084.06,1034.86C1081.01,1037.9 824.089,1294.14 772.522,1345.19C767.358,1350.31 764.25,1353.37 763.659,1353.91C763.529,1354.03 763.442,1354.08 763.424,1354.09C763.192,1354.19 763.03,1354.11 762.942,1354.05ZM763.483,1353.21L763.493,1353.21C763.485,1353.21 763.476,1353.2 763.468,1353.2L763.483,1353.21ZM257.908,1034.53C257.867,1034.64 257.788,1034.74 257.68,1034.8C257.796,1034.73 257.869,1034.64 257.908,1034.53Z"/>
        <path d="M762.552,714.005C771.387,723.501 1083.73,1034.7 1083.73,1034.7C1083.92,1034.9 1084.24,1034.9 1084.43,1034.7C1084.63,1034.51 1084.63,1034.19 1084.43,1033.99C1084.43,1033.99 772.119,722.819 763.284,713.323C763.096,713.121 762.78,713.11 762.578,713.298C762.376,713.486 762.364,713.803 762.552,714.005Z"/>
    </g>
    <g id="Layer2">
        <path d="M756.574,717.489C756.574,717.489 827.41,800.417 840.945,851.412C854.911,904.031 840.196,972.607 840.372,1033.2C840.549,1094.21 856.014,1164.86 842.009,1217.43C828.563,1267.9 755.735,1349.56 756.344,1348.65" style="fill:none;stroke:rgb(0,41,252);stroke-width:1px;stroke-linecap:round;stroke-miterlimit:1.5;"/>
        <g transform="matrix(0.802201,0,0,0.831664,66.6792,174.856)">
            <path d="M756.574,717.489C756.574,717.489 826.575,796.524 840.055,845.712C854.475,898.329 842.76,970.697 843.094,1033.19C843.428,1095.69 856.529,1167.99 842.059,1220.68C828.409,1270.38 755.662,1350.24 756.272,1349.32" style="fill:none;stroke:rgb(0,41,252);stroke-width:1.22px;stroke-linecap:round;stroke-miterlimit:1.5;"/>
        </g>
        <g transform="matrix(0.705607,0,0,0.702041,65.8629,309.379)">
            <path d="M760.053,721.626C760.053,721.626 827.381,798.158 840.055,845.712C853.896,897.639 842.76,970.697 843.094,1033.19C843.428,1095.69 855.772,1168.97 842.059,1220.68C829.48,1268.1 760.203,1344.34 760.812,1343.42" style="fill:none;stroke:rgb(0,41,252);stroke-width:1.42px;stroke-linecap:round;stroke-miterlimit:1.5;"/>
        </g>
        <g transform="matrix(0.553796,0,0,0.584138,124.59,430.004)">
            <path d="M761.482,721.664C761.482,721.664 825.474,796.949 837.586,843.183C851.188,895.105 842.783,969.829 843.094,1033.19C843.406,1096.9 853.57,1173.42 839.461,1225.46C826.837,1272.02 757.836,1346.3 758.445,1345.39" style="fill:none;stroke:rgb(0,41,252);stroke-width:1.76px;stroke-linecap:round;stroke-miterlimit:1.5;"/>
        </g>
        <g transform="matrix(0.0656458,0,0,0.0973676,241.08,931.981)">
            <path d="M814.001,807.769C814.001,807.769 848.048,859.085 851.856,888.589C856.705,926.159 839.535,989.992 843.094,1033.19C848.356,1097.08 865.769,1159.74 859.414,1201.89C854.43,1234.95 804.356,1287.05 804.966,1286.13" style="fill:none;stroke:rgb(0,41,252);stroke-width:12.04px;stroke-linecap:round;stroke-miterlimit:1.5;"/>
        </g>
        <g transform="matrix(0.444687,0,0,0.47679,154.274,540.953)">
            <path d="M761.453,721.565C761.453,721.565 824.87,793.139 836.557,837.748C850.164,889.686 842.614,968.009 843.094,1033.19C843.576,1098.73 853.434,1178.86 839.45,1231C827.338,1276.17 758.582,1346.98 759.191,1346.07" style="fill:none;stroke:rgb(0,41,252);stroke-width:2.17px;stroke-linecap:round;stroke-miterlimit:1.5;"/>
        </g>
        <g transform="matrix(0.360233,0,0,0.390807,174.172,629.535)">
            <path d="M763.533,724.169C763.533,724.169 821.676,790.293 832.262,831.41C845.522,882.914 842.091,965.85 843.094,1033.19C844.097,1100.53 852.047,1183.47 838.282,1235.46C826.812,1278.78 759.893,1346.02 760.502,1345.11" style="fill:none;stroke:rgb(0,41,252);stroke-width:2.66px;stroke-linecap:round;stroke-miterlimit:1.5;"/>
        </g>
        <g transform="matrix(0.278151,0,0,0.315094,199.047,706.679)">
            <path d="M767.146,727.505C767.146,727.505 822.407,791.742 832.262,831.41C844.92,882.358 842.62,965.836 843.094,1033.19C843.579,1102.16 849.359,1192.87 835.173,1245.21C824.016,1286.38 757.365,1348.17 757.975,1347.26" style="fill:none;stroke:rgb(0,41,252);stroke-width:3.36px;stroke-linecap:round;stroke-miterlimit:1.5;"/>
        </g>
        <g transform="matrix(0.229934,0,0,0.263792,203.315,760.074)">
            <path d="M778.075,738.448C778.075,738.448 822.573,793.066 829.868,826.255C840.853,876.238 843.812,967.491 843.986,1038.34C844.161,1109.21 843.273,1201.66 830.915,1251.46C822.468,1285.5 769.228,1338.05 769.837,1337.14" style="fill:none;stroke:rgb(0,41,252);stroke-width:4.04px;stroke-linecap:round;stroke-miterlimit:1.5;"/>
        </g>
        <g transform="matrix(0.163173,0,0,0.211126,227.69,814.626)">
            <path d="M780.825,745.893C780.825,745.893 823.243,795.581 829.868,826.255C840.394,874.997 843.812,967.491 843.986,1038.34C844.161,1109.21 842.574,1202.47 830.915,1251.46C823.288,1283.51 773.424,1333.2 774.033,1332.28" style="fill:none;stroke:rgb(0,41,252);stroke-width:5.3px;stroke-linecap:round;stroke-miterlimit:1.5;"/>
        </g>
        <g transform="matrix(0.122686,0,0,0.168941,235.731,859.343)">
            <path d="M787.585,751.862C787.585,751.862 824.358,798.269 829.868,826.255C839.268,874.002 843.812,967.491 843.986,1038.34C844.161,1109.21 840.456,1204.84 830.915,1251.46C825.575,1277.55 786.13,1318.95 786.739,1318.03" style="fill:none;stroke:rgb(0,41,252);stroke-width:6.77px;stroke-linecap:round;stroke-miterlimit:1.5;"/>
        </g>
        <g transform="matrix(0.109609,0,0,0.121273,225.794,908.802)">
            <path d="M786.657,751.788C786.657,751.788 824.238,798.114 829.868,826.255C839.422,874.015 843.812,967.491 843.986,1038.34C844.161,1109.21 840.596,1204.89 830.915,1251.46C825.479,1277.61 785.294,1318.68 785.903,1317.77" style="fill:none;stroke:rgb(0,41,252);stroke-width:8.65px;stroke-linecap:round;stroke-miterlimit:1.5;"/>
        </g>
    </g>
</svg>
