<?xml version="1.0" encoding="utf-8" standalone="no"?>
<!DOCTYPE svg PUBLIC "-//W3C//DTD SVG 1.1//EN"
  "http://www.w3.org/Graphics/SVG/1.1/DTD/svg11.dtd">
<!-- Created with matplotlib (http://matplotlib.org/) -->
<svg height="345pt" version="1.1" viewBox="0 0 460 345" width="460pt" xmlns="http://www.w3.org/2000/svg" xmlns:xlink="http://www.w3.org/1999/xlink">
 <defs>
  <style type="text/css">
*{stroke-linecap:butt;stroke-linejoin:round;}
  </style>
 </defs>
 <g id="figure_1">
  <g id="patch_1">
   <path d="M 0 345.6 
L 460.8 345.6 
L 460.8 0 
L 0 0 
z
" style="fill:#ffffff;"/>
  </g>
  <g id="axes_1">
   <g id="patch_2">
    <path clip-path="url(#p32505f1b04)" d="M 68.389939 193.174682 
L 68.389939 182.289105 
L 398.487273 155.881318 
L 435.780637 193.174682 
z
" style="fill:#ffffff;stroke:#000000;stroke-linejoin:miter;"/>
   </g>
   <g id="line2d_1">
    <path clip-path="url(#p32505f1b04)" d="M 79.275516 193.174682 
L 79.203127 193.061472 
L 79.131101 192.948262 
L 79.059437 192.835052 
L 78.988137 192.721842 
L 78.917199 192.608632 
L 78.846624 192.495422 
L 78.776412 192.382212 
L 78.706563 192.269002 
L 78.637077 192.155792 
L 78.567954 192.042582 
L 78.499193 191.929372 
L 78.430795 191.816162 
L 78.36276 191.702952 
L 78.295088 191.589742 
L 78.227779 191.476532 
L 78.160833 191.363322 
L 78.094249 191.250112 
L 78.028029 191.136902 
L 77.962171 191.023692 
L 77.896676 190.910482 
L 77.831544 190.797272 
L 77.766775 190.684062 
L 77.702369 190.570852 
L 77.638325 190.457642 
L 77.574645 190.344432 
L 77.511327 190.231222 
L 77.448372 190.118012 
L 77.38578 190.004802 
L 77.323551 189.891592 
L 77.261684 189.778382 
L 77.200181 189.665172 
L 77.13904 189.551962 
L 77.078262 189.438752 
L 77.017847 189.325542 
L 76.957795 189.212332 
L 76.898106 189.099122 
L 76.83878 188.985912 
L 76.779816 188.872702 
L 76.721215 188.759492 
L 76.662977 188.646282 
L 76.605102 188.533072 
L 76.54759 188.419862 
L 76.490441 188.306652 
L 76.433655 188.193442 
L 76.377231 188.080232 
L 76.32117 187.967022 
L 76.265472 187.853812 
L 76.210137 187.740602 
L 76.155165 187.627392 
L 76.100556 187.514182 
L 76.046309 187.400972 
L 75.992426 187.287762 
L 75.938905 187.174552 
L 75.885747 187.061342 
L 75.832952 186.948132 
L 75.78052 186.834922 
L 75.728451 186.721712 
L 75.676744 186.608502 
L 75.6254 186.495292 
L 75.57442 186.382082 
L 75.523802 186.268872 
L 75.473547 186.155662 
L 75.423654 186.042452 
L 75.374125 185.929242 
L 75.324959 185.816032 
L 75.276155 185.702822 
L 75.227714 185.589612 
L 75.179636 185.476402 
L 75.131921 185.363192 
L 75.084569 185.249982 
L 75.037579 185.136772 
L 74.990953 185.023562 
L 74.944689 184.910352 
L 74.898788 184.797142 
L 74.85325 184.683932 
L 74.808075 184.570722 
L 74.763263 184.457512 
L 74.718813 184.344302 
L 74.674727 184.231092 
L 74.631003 184.117882 
L 74.587642 184.004672 
L 74.544644 183.891462 
L 74.502009 183.778252 
L 74.459737 183.665042 
L 74.417827 183.551832 
L 74.37628 183.438622 
L 74.335097 183.325412 
L 74.294276 183.212202 
L 74.253818 183.098992 
L 74.213722 182.985782 
L 74.17399 182.872572 
L 74.134621 182.759362 
L 74.095614 182.646152 
L 74.05697 182.532942 
L 74.018689 182.419732 
L 73.980771 182.306522 
L 73.943216 182.193312 
L 73.906023 182.080102 
L 73.869194 181.966892 
L 73.832727 181.853682 
" style="fill:none;stroke:#ff0000;stroke-linecap:square;stroke-width:1.5;"/>
   </g>
   <g id="line2d_2">
    <path clip-path="url(#p32505f1b04)" d="M 79.275516 193.174682 
L 79.254989 193.057118 
L 79.234877 192.939554 
L 79.215179 192.821989 
L 79.195896 192.704425 
L 79.177027 192.586861 
L 79.158574 192.469297 
L 79.140535 192.351732 
L 79.122911 192.234168 
L 79.105701 192.116604 
L 79.088906 191.99904 
L 79.072526 191.881476 
L 79.05656 191.763911 
L 79.04101 191.646347 
L 79.025873 191.528783 
L 79.011152 191.411219 
L 78.996845 191.293654 
L 78.982953 191.17609 
L 78.969476 191.058526 
L 78.956413 190.940962 
L 78.943765 190.823397 
L 78.931532 190.705833 
L 78.919713 190.588269 
L 78.908309 190.470705 
L 78.89732 190.35314 
L 78.886745 190.235576 
L 78.876586 190.118012 
L 78.86684 190.000448 
L 78.85751 189.882883 
L 78.848594 189.765319 
L 78.840093 189.647755 
L 78.832007 189.530191 
L 78.824335 189.412627 
L 78.817078 189.295062 
L 78.810235 189.177498 
L 78.803808 189.059934 
L 78.797795 188.94237 
L 78.792196 188.824805 
L 78.787013 188.707241 
L 78.782244 188.589677 
L 78.77789 188.472113 
L 78.77395 188.354548 
L 78.770425 188.236984 
L 78.767315 188.11942 
L 78.76462 188.001856 
L 78.762339 187.884291 
L 78.760473 187.766727 
L 78.759021 187.649163 
L 78.757985 187.531599 
L 78.757363 187.414035 
L 78.757155 187.29647 
L 78.757363 187.178906 
L 78.757985 187.061342 
L 78.759021 186.943778 
L 78.760473 186.826213 
L 78.762339 186.708649 
L 78.76462 186.591085 
L 78.767315 186.473521 
L 78.770425 186.355956 
L 78.77395 186.238392 
L 78.77789 186.120828 
L 78.782244 186.003264 
L 78.787013 185.885699 
L 78.792196 185.768135 
L 78.797795 185.650571 
L 78.803808 185.533007 
L 78.810235 185.415442 
L 78.817078 185.297878 
L 78.824335 185.180314 
L 78.832007 185.06275 
L 78.840093 184.945186 
L 78.848594 184.827621 
L 78.85751 184.710057 
L 78.86684 184.592493 
L 78.876586 184.474929 
L 78.886745 184.357364 
L 78.89732 184.2398 
L 78.908309 184.122236 
L 78.919713 184.004672 
L 78.931532 183.887107 
L 78.943765 183.769543 
L 78.956413 183.651979 
L 78.969476 183.534415 
L 78.982953 183.41685 
L 78.996845 183.299286 
L 79.011152 183.181722 
L 79.025873 183.064158 
L 79.04101 182.946593 
L 79.05656 182.829029 
L 79.072526 182.711465 
L 79.088906 182.593901 
L 79.105701 182.476337 
L 79.122911 182.358772 
L 79.140535 182.241208 
L 79.158574 182.123644 
L 79.177027 182.00608 
L 79.195896 181.888515 
L 79.215179 181.770951 
L 79.234877 181.653387 
L 79.254989 181.535823 
L 79.275516 181.418258 
" style="fill:none;stroke:#0000ff;stroke-linecap:square;stroke-width:1.5;"/>
   </g>
   <g id="line2d_3">
    <path clip-path="url(#p32505f1b04)" d="M 91.03194 193.174682 
L 90.944317 193.052415 
L 90.857277 192.930149 
L 90.77082 192.807882 
L 90.684945 192.685615 
L 90.599653 192.563348 
L 90.514943 192.441081 
L 90.430816 192.318814 
L 90.347272 192.196548 
L 90.264311 192.074281 
L 90.181932 191.952014 
L 90.100135 191.829747 
L 90.018922 191.70748 
L 89.938291 191.585214 
L 89.858242 191.462947 
L 89.778777 191.34068 
L 89.699893 191.218413 
L 89.621593 191.096146 
L 89.543875 190.97388 
L 89.46674 190.851613 
L 89.390187 190.729346 
L 89.314217 190.607079 
L 89.23883 190.484812 
L 89.164025 190.362546 
L 89.089803 190.240279 
L 89.016164 190.118012 
L 88.943107 189.995745 
L 88.870633 189.873478 
L 88.798742 189.751212 
L 88.727433 189.628945 
L 88.656707 189.506678 
L 88.586563 189.384411 
L 88.517002 189.262144 
L 88.448024 189.139878 
L 88.379628 189.017611 
L 88.311815 188.895344 
L 88.244585 188.773077 
L 88.177937 188.65081 
L 88.111872 188.528543 
L 88.04639 188.406277 
L 87.98149 188.28401 
L 87.917173 188.161743 
L 87.853438 188.039476 
L 87.790286 187.917209 
L 87.727717 187.794943 
L 87.66573 187.672676 
L 87.604326 187.550409 
L 87.543505 187.428142 
L 87.483266 187.305875 
L 87.42361 187.183609 
L 87.364537 187.061342 
L 87.306046 186.939075 
L 87.248138 186.816808 
L 87.190812 186.694541 
L 87.134069 186.572275 
L 87.077909 186.450008 
L 87.022332 186.327741 
L 86.967337 186.205474 
L 86.912924 186.083207 
L 86.859095 185.960941 
L 86.805848 185.838674 
L 86.753183 185.716407 
L 86.701101 185.59414 
L 86.649602 185.471873 
L 86.598686 185.349606 
L 86.548352 185.22734 
L 86.498601 185.105073 
L 86.449432 184.982806 
L 86.400846 184.860539 
L 86.352843 184.738272 
L 86.305422 184.616006 
L 86.258584 184.493739 
L 86.212329 184.371472 
L 86.166656 184.249205 
L 86.121566 184.126938 
L 86.077058 184.004672 
L 86.033133 183.882405 
L 85.989791 183.760138 
L 85.947031 183.637871 
L 85.904855 183.515604 
L 85.86326 183.393338 
L 85.822249 183.271071 
L 85.78182 183.148804 
L 85.741973 183.026537 
L 85.702709 182.90427 
L 85.664028 182.782004 
L 85.62593 182.659737 
L 85.588414 182.53747 
L 85.551481 182.415203 
L 85.51513 182.292936 
L 85.479362 182.17067 
L 85.444177 182.048403 
L 85.409574 181.926136 
L 85.375554 181.803869 
L 85.342117 181.681602 
L 85.309262 181.559335 
L 85.27699 181.437069 
L 85.2453 181.314802 
L 85.214194 181.192535 
L 85.183669 181.070268 
L 85.153728 180.948001 
" style="fill:none;stroke:#ff0000;stroke-linecap:square;stroke-width:1.5;"/>
   </g>
   <g id="line2d_4">
    <path clip-path="url(#p32505f1b04)" d="M 91.03194 193.174682 
L 91.000328 193.047713 
L 90.969355 192.920743 
L 90.93902 192.793774 
L 90.909325 192.666805 
L 90.880267 192.539835 
L 90.851849 192.412866 
L 90.824069 192.285897 
L 90.796927 192.158927 
L 90.770425 192.031958 
L 90.744561 191.904988 
L 90.719335 191.778019 
L 90.694748 191.65105 
L 90.6708 191.52408 
L 90.64749 191.397111 
L 90.624819 191.270141 
L 90.602787 191.143172 
L 90.581393 191.016203 
L 90.560638 190.889233 
L 90.540521 190.762264 
L 90.521043 190.635295 
L 90.502204 190.508325 
L 90.484003 190.381356 
L 90.466441 190.254386 
L 90.449518 190.127417 
L 90.433233 190.000448 
L 90.417587 189.873478 
L 90.402579 189.746509 
L 90.38821 189.61954 
L 90.37448 189.49257 
L 90.361388 189.365601 
L 90.348935 189.238631 
L 90.337121 189.111662 
L 90.325945 188.984693 
L 90.315408 188.857723 
L 90.305509 188.730754 
L 90.296249 188.603785 
L 90.287628 188.476815 
L 90.279645 188.349846 
L 90.272301 188.222876 
L 90.265595 188.095907 
L 90.259528 187.968938 
L 90.2541 187.841968 
L 90.24931 187.714999 
L 90.245159 187.58803 
L 90.241647 187.46106 
L 90.238773 187.334091 
L 90.236538 187.207121 
L 90.234941 187.080152 
L 90.233983 186.953183 
L 90.233664 186.826213 
L 90.233983 186.699244 
L 90.234941 186.572275 
L 90.236538 186.445305 
L 90.238773 186.318336 
L 90.241647 186.191366 
L 90.245159 186.064397 
L 90.24931 185.937428 
L 90.2541 185.810458 
L 90.259528 185.683489 
L 90.265595 185.55652 
L 90.272301 185.42955 
L 90.279645 185.302581 
L 90.287628 185.175611 
L 90.296249 185.048642 
L 90.305509 184.921673 
L 90.315408 184.794703 
L 90.325945 184.667734 
L 90.337121 184.540765 
L 90.348935 184.413795 
L 90.361388 184.286826 
L 90.37448 184.159856 
L 90.38821 184.032887 
L 90.402579 183.905918 
L 90.417587 183.778948 
L 90.433233 183.651979 
L 90.449518 183.52501 
L 90.466441 183.39804 
L 90.484003 183.271071 
L 90.502204 183.144101 
L 90.521043 183.017132 
L 90.540521 182.890163 
L 90.560638 182.763193 
L 90.581393 182.636224 
L 90.602787 182.509255 
L 90.624819 182.382285 
L 90.64749 182.255316 
L 90.6708 182.128346 
L 90.694748 182.001377 
L 90.719335 181.874408 
L 90.744561 181.747438 
L 90.770425 181.620469 
L 90.796927 181.4935 
L 90.824069 181.36653 
L 90.851849 181.239561 
L 90.880267 181.112591 
L 90.909325 180.985622 
L 90.93902 180.858653 
L 90.969355 180.731683 
L 91.000328 180.604714 
L 91.03194 180.477745 
" style="fill:none;stroke:#0000ff;stroke-linecap:square;stroke-width:1.5;"/>
   </g>
   <g id="line2d_5">
    <path clip-path="url(#p32505f1b04)" d="M 103.728877 193.174682 
L 103.624802 193.042634 
L 103.521548 192.910586 
L 103.419113 192.778538 
L 103.317498 192.64649 
L 103.216703 192.514441 
L 103.116728 192.382393 
L 103.017573 192.250345 
L 102.919238 192.118297 
L 102.821723 191.986249 
L 102.725028 191.854201 
L 102.629153 191.722152 
L 102.534098 191.590104 
L 102.439863 191.458056 
L 102.346449 191.326008 
L 102.253854 191.19396 
L 102.162079 191.061912 
L 102.071124 190.929864 
L 101.980989 190.797815 
L 101.891674 190.665767 
L 101.803179 190.533719 
L 101.715505 190.401671 
L 101.62865 190.269623 
L 101.542615 190.137575 
L 101.4574 190.005527 
L 101.373005 189.873478 
L 101.28943 189.74143 
L 101.206676 189.609382 
L 101.124741 189.477334 
L 101.043626 189.345286 
L 100.963331 189.213238 
L 100.883856 189.081189 
L 100.805202 188.949141 
L 100.727367 188.817093 
L 100.650352 188.685045 
L 100.574157 188.552997 
L 100.498782 188.420949 
L 100.424228 188.288901 
L 100.350493 188.156852 
L 100.277578 188.024804 
L 100.205483 187.892756 
L 100.134209 187.760708 
L 100.063754 187.62866 
L 99.994119 187.496612 
L 99.925305 187.364563 
L 99.85731 187.232515 
L 99.790135 187.100467 
L 99.72378 186.968419 
L 99.658246 186.836371 
L 99.593531 186.704323 
L 99.529636 186.572275 
L 99.466562 186.440226 
L 99.404307 186.308178 
L 99.342872 186.17613 
L 99.282258 186.044082 
L 99.222463 185.912034 
L 99.163488 185.779986 
L 99.105334 185.647938 
L 99.047999 185.515889 
L 98.991484 185.383841 
L 98.93579 185.251793 
L 98.880915 185.119745 
L 98.82686 184.987697 
L 98.773626 184.855649 
L 98.721211 184.7236 
L 98.669617 184.591552 
L 98.618842 184.459504 
L 98.568887 184.327456 
L 98.519753 184.195408 
L 98.471438 184.06336 
L 98.423944 183.931312 
L 98.377269 183.799263 
L 98.331414 183.667215 
L 98.28638 183.535167 
L 98.242165 183.403119 
L 98.198771 183.271071 
L 98.156196 183.139023 
L 98.114442 183.006974 
L 98.073507 182.874926 
L 98.033393 182.742878 
L 97.994098 182.61083 
L 97.955624 182.478782 
L 97.917969 182.346734 
L 97.881135 182.214686 
L 97.84512 182.082637 
L 97.809925 181.950589 
L 97.775551 181.818541 
L 97.741997 181.686493 
L 97.709262 181.554445 
L 97.677348 181.422397 
L 97.646253 181.290349 
L 97.615979 181.1583 
L 97.586524 181.026252 
L 97.55789 180.894204 
L 97.530075 180.762156 
L 97.503081 180.630108 
L 97.476906 180.49806 
L 97.451552 180.366011 
L 97.427017 180.233963 
L 97.403303 180.101915 
L 97.380409 179.969867 
" style="fill:none;stroke:#ff0000;stroke-linecap:square;stroke-width:1.5;"/>
   </g>
   <g id="line2d_6">
    <path clip-path="url(#p32505f1b04)" d="M 103.728877 193.174682 
L 103.685294 193.037555 
L 103.642592 192.900428 
L 103.600769 192.763301 
L 103.559828 192.626174 
L 103.519767 192.489048 
L 103.480586 192.351921 
L 103.442285 192.214794 
L 103.404866 192.077667 
L 103.368326 191.94054 
L 103.332667 191.803413 
L 103.297889 191.666286 
L 103.263991 191.529159 
L 103.230973 191.392032 
L 103.198836 191.254905 
L 103.16758 191.117778 
L 103.137204 190.980651 
L 103.107708 190.843524 
L 103.079093 190.706397 
L 103.051358 190.569271 
L 103.024504 190.432144 
L 102.99853 190.295017 
L 102.973437 190.15789 
L 102.949224 190.020763 
L 102.925892 189.883636 
L 102.90344 189.746509 
L 102.881868 189.609382 
L 102.861177 189.472255 
L 102.841367 189.335128 
L 102.822437 189.198001 
L 102.804387 189.060874 
L 102.787218 188.923747 
L 102.770929 188.78662 
L 102.755521 188.649494 
L 102.740993 188.512367 
L 102.727346 188.37524 
L 102.714579 188.238113 
L 102.702693 188.100986 
L 102.691687 187.963859 
L 102.681562 187.826732 
L 102.672317 187.689605 
L 102.663953 187.552478 
L 102.656469 187.415351 
L 102.649865 187.278224 
L 102.644142 187.141097 
L 102.6393 187.00397 
L 102.635337 186.866844 
L 102.632256 186.729717 
L 102.630055 186.59259 
L 102.628734 186.455463 
L 102.628294 186.318336 
L 102.628734 186.181209 
L 102.630055 186.044082 
L 102.632256 185.906955 
L 102.635337 185.769828 
L 102.6393 185.632701 
L 102.644142 185.495574 
L 102.649865 185.358447 
L 102.656469 185.22132 
L 102.663953 185.084193 
L 102.672317 184.947067 
L 102.681562 184.80994 
L 102.691687 184.672813 
L 102.702693 184.535686 
L 102.714579 184.398559 
L 102.727346 184.261432 
L 102.740993 184.124305 
L 102.755521 183.987178 
L 102.770929 183.850051 
L 102.787218 183.712924 
L 102.804387 183.575797 
L 102.822437 183.43867 
L 102.841367 183.301543 
L 102.861177 183.164417 
L 102.881868 183.02729 
L 102.90344 182.890163 
L 102.925892 182.753036 
L 102.949224 182.615909 
L 102.973437 182.478782 
L 102.99853 182.341655 
L 103.024504 182.204528 
L 103.051358 182.067401 
L 103.079093 181.930274 
L 103.107708 181.793147 
L 103.137204 181.65602 
L 103.16758 181.518893 
L 103.198836 181.381766 
L 103.230973 181.24464 
L 103.263991 181.107513 
L 103.297889 180.970386 
L 103.332667 180.833259 
L 103.368326 180.696132 
L 103.404866 180.559005 
L 103.442285 180.421878 
L 103.480586 180.284751 
L 103.519767 180.147624 
L 103.559828 180.010497 
L 103.600769 179.87337 
L 103.642592 179.736243 
L 103.685294 179.599116 
L 103.728877 179.461989 
" style="fill:none;stroke:#0000ff;stroke-linecap:square;stroke-width:1.5;"/>
   </g>
   <g id="line2d_7">
    <path clip-path="url(#p32505f1b04)" d="M 117.44157 193.174682 
L 117.319727 193.03207 
L 117.19896 192.889458 
L 117.079269 192.746846 
L 116.960655 192.604234 
L 116.843117 192.461622 
L 116.726655 192.31901 
L 116.61127 192.176398 
L 116.496961 192.033786 
L 116.383728 191.891174 
L 116.271572 191.748562 
L 116.160492 191.60595 
L 116.050489 191.463338 
L 115.941562 191.320726 
L 115.833711 191.178114 
L 115.726937 191.035502 
L 115.621239 190.89289 
L 115.516617 190.750278 
L 115.413072 190.607666 
L 115.310603 190.465054 
L 115.209211 190.322442 
L 115.108895 190.17983 
L 115.009655 190.037218 
L 114.911491 189.894606 
L 114.814404 189.751994 
L 114.718394 189.609382 
L 114.623459 189.46677 
L 114.529601 189.324158 
L 114.43682 189.181546 
L 114.345114 189.038934 
L 114.254485 188.896322 
L 114.164933 188.75371 
L 114.076457 188.611098 
L 113.989057 188.468486 
L 113.902733 188.325874 
L 113.817486 188.183262 
L 113.733316 188.04065 
L 113.650221 187.898038 
L 113.568203 187.755426 
L 113.487262 187.612814 
L 113.407396 187.470202 
L 113.328608 187.32759 
L 113.250895 187.184978 
L 113.174259 187.042366 
L 113.098699 186.899754 
L 113.024216 186.757142 
L 112.950808 186.61453 
L 112.878478 186.471918 
L 112.807223 186.329306 
L 112.737045 186.186694 
L 112.667944 186.044082 
L 112.599918 185.90147 
L 112.532969 185.758858 
L 112.467097 185.616246 
L 112.402301 185.473634 
L 112.338581 185.331022 
L 112.275937 185.18841 
L 112.21437 185.045798 
L 112.15388 184.903186 
L 112.094465 184.760574 
L 112.036127 184.617962 
L 111.978866 184.47535 
L 111.92268 184.332738 
L 111.867571 184.190126 
L 111.813539 184.047514 
L 111.760583 183.904902 
L 111.708703 183.76229 
L 111.657899 183.619678 
L 111.608172 183.477066 
L 111.559521 183.334454 
L 111.511947 183.191842 
L 111.465449 183.04923 
L 111.420027 182.906618 
L 111.375682 182.764006 
L 111.332413 182.621394 
L 111.29022 182.478782 
L 111.249104 182.33617 
L 111.209064 182.193558 
L 111.170101 182.050946 
L 111.132214 181.908334 
L 111.095403 181.765722 
L 111.059669 181.62311 
L 111.02501 181.480498 
L 110.991429 181.337886 
L 110.958923 181.195274 
L 110.927495 181.052662 
L 110.897142 180.91005 
L 110.867866 180.767438 
L 110.839666 180.624826 
L 110.812542 180.482214 
L 110.786495 180.339602 
L 110.761524 180.19699 
L 110.73763 180.054378 
L 110.714812 179.911766 
L 110.69307 179.769154 
L 110.672405 179.626542 
L 110.652816 179.48393 
L 110.634303 179.341318 
L 110.616867 179.198706 
L 110.600507 179.056094 
L 110.585224 178.913482 
" style="fill:none;stroke:#ff0000;stroke-linecap:square;stroke-width:1.5;"/>
   </g>
   <g id="line2d_8">
    <path clip-path="url(#p32505f1b04)" d="M 117.44157 193.174682 
L 117.385058 193.026585 
L 117.329687 192.878488 
L 117.275458 192.730391 
L 117.222371 192.582294 
L 117.170426 192.434197 
L 117.119622 192.2861 
L 117.069959 192.138003 
L 117.021439 191.989905 
L 116.97406 191.841808 
L 116.927823 191.693711 
L 116.882727 191.545614 
L 116.838773 191.397517 
L 116.795961 191.24942 
L 116.75429 191.101323 
L 116.713761 190.953226 
L 116.674374 190.805129 
L 116.636128 190.657032 
L 116.599024 190.508935 
L 116.563062 190.360838 
L 116.528241 190.212741 
L 116.494562 190.064643 
L 116.462025 189.916546 
L 116.430629 189.768449 
L 116.400375 189.620352 
L 116.371263 189.472255 
L 116.343292 189.324158 
L 116.316463 189.176061 
L 116.290776 189.027964 
L 116.26623 188.879867 
L 116.242826 188.73177 
L 116.220563 188.583673 
L 116.199443 188.435576 
L 116.179464 188.287478 
L 116.160626 188.139381 
L 116.142931 187.991284 
L 116.126376 187.843187 
L 116.110964 187.69509 
L 116.096693 187.546993 
L 116.083564 187.398896 
L 116.071577 187.250799 
L 116.060731 187.102702 
L 116.051027 186.954605 
L 116.042464 186.806508 
L 116.035044 186.658411 
L 116.028764 186.510314 
L 116.023627 186.362216 
L 116.019631 186.214119 
L 116.016777 186.066022 
L 116.015064 185.917925 
L 116.014494 185.769828 
L 116.015064 185.621731 
L 116.016777 185.473634 
L 116.019631 185.325537 
L 116.023627 185.17744 
L 116.028764 185.029343 
L 116.035044 184.881246 
L 116.042464 184.733149 
L 116.051027 184.585051 
L 116.060731 184.436954 
L 116.071577 184.288857 
L 116.083564 184.14076 
L 116.096693 183.992663 
L 116.110964 183.844566 
L 116.126376 183.696469 
L 116.142931 183.548372 
L 116.160626 183.400275 
L 116.179464 183.252178 
L 116.199443 183.104081 
L 116.220563 182.955984 
L 116.242826 182.807886 
L 116.26623 182.659789 
L 116.290776 182.511692 
L 116.316463 182.363595 
L 116.343292 182.215498 
L 116.371263 182.067401 
L 116.400375 181.919304 
L 116.430629 181.771207 
L 116.462025 181.62311 
L 116.494562 181.475013 
L 116.528241 181.326916 
L 116.563062 181.178819 
L 116.599024 181.030722 
L 116.636128 180.882624 
L 116.674374 180.734527 
L 116.713761 180.58643 
L 116.75429 180.438333 
L 116.795961 180.290236 
L 116.838773 180.142139 
L 116.882727 179.994042 
L 116.927823 179.845945 
L 116.97406 179.697848 
L 117.021439 179.549751 
L 117.069959 179.401654 
L 117.119622 179.253557 
L 117.170426 179.105459 
L 117.222371 178.957362 
L 117.275458 178.809265 
L 117.329687 178.661168 
L 117.385058 178.513071 
L 117.44157 178.364974 
" style="fill:none;stroke:#0000ff;stroke-linecap:square;stroke-width:1.5;"/>
   </g>
   <g id="line2d_9">
    <path clip-path="url(#p32505f1b04)" d="M 132.251278 193.174682 
L 132.110245 193.020661 
L 131.970565 192.86664 
L 131.832238 192.712619 
L 131.695264 192.558598 
L 131.559644 192.404577 
L 131.425376 192.250556 
L 131.292462 192.096535 
L 131.160902 191.942514 
L 131.030694 191.788493 
L 130.90184 191.634472 
L 130.774339 191.480452 
L 130.648191 191.326431 
L 130.523396 191.17241 
L 130.399955 191.018389 
L 130.277867 190.864368 
L 130.157132 190.710347 
L 130.03775 190.556326 
L 129.919722 190.402305 
L 129.803047 190.248284 
L 129.687725 190.094263 
L 129.573756 189.940242 
L 129.46114 189.786221 
L 129.349878 189.6322 
L 129.239969 189.478179 
L 129.131413 189.324158 
L 129.02421 189.170137 
L 128.918361 189.016116 
L 128.813865 188.862095 
L 128.710722 188.708074 
L 128.608932 188.554053 
L 128.508496 188.400032 
L 128.409412 188.246011 
L 128.311682 188.09199 
L 128.215306 187.937969 
L 128.120282 187.783948 
L 128.026612 187.629927 
L 127.934294 187.475906 
L 127.843331 187.321886 
L 127.75372 187.167865 
L 127.665462 187.013844 
L 127.578558 186.859823 
L 127.493007 186.705802 
L 127.40881 186.551781 
L 127.325965 186.39776 
L 127.244474 186.243739 
L 127.164336 186.089718 
L 127.085551 185.935697 
L 127.008119 185.781676 
L 126.932041 185.627655 
L 126.857316 185.473634 
L 126.783944 185.319613 
L 126.711925 185.165592 
L 126.64126 185.011571 
L 126.571947 184.85755 
L 126.503988 184.703529 
L 126.437382 184.549508 
L 126.37213 184.395487 
L 126.308231 184.241466 
L 126.245685 184.087445 
L 126.184492 183.933424 
L 126.124652 183.779403 
L 126.066166 183.625382 
L 126.009032 183.471361 
L 125.953252 183.31734 
L 125.898826 183.163319 
L 125.845752 183.009299 
L 125.794032 182.855278 
L 125.743665 182.701257 
L 125.694651 182.547236 
L 125.64699 182.393215 
L 125.600683 182.239194 
L 125.555729 182.085173 
L 125.512128 181.931152 
L 125.46988 181.777131 
L 125.428986 181.62311 
L 125.389445 181.469089 
L 125.351257 181.315068 
L 125.314422 181.161047 
L 125.27894 181.007026 
L 125.244812 180.853005 
L 125.212037 180.698984 
L 125.180615 180.544963 
L 125.150547 180.390942 
L 125.121831 180.236921 
L 125.094469 180.0829 
L 125.06846 179.928879 
L 125.043804 179.774858 
L 125.020502 179.620837 
L 124.998553 179.466816 
L 124.977957 179.312795 
L 124.958714 179.158774 
L 124.940824 179.004753 
L 124.924288 178.850733 
L 124.909105 178.696712 
L 124.895275 178.542691 
L 124.882798 178.38867 
L 124.871675 178.234649 
L 124.861905 178.080628 
L 124.853488 177.926607 
L 124.846424 177.772586 
" style="fill:none;stroke:#ff0000;stroke-linecap:square;stroke-width:1.5;"/>
   </g>
   <g id="line2d_10">
    <path clip-path="url(#p32505f1b04)" d="M 132.251278 193.174682 
L 132.180802 193.014737 
L 132.111751 192.854792 
L 132.044122 192.694848 
L 131.977918 192.534903 
L 131.913137 192.374958 
L 131.84978 192.215013 
L 131.787847 192.055068 
L 131.727338 191.895123 
L 131.668252 191.735179 
L 131.61059 191.575234 
L 131.554352 191.415289 
L 131.499538 191.255344 
L 131.446147 191.095399 
L 131.39418 190.935454 
L 131.343637 190.775509 
L 131.294518 190.615565 
L 131.246822 190.45562 
L 131.20055 190.295675 
L 131.155702 190.13573 
L 131.112277 189.975785 
L 131.070277 189.81584 
L 131.0297 189.655896 
L 130.990547 189.495951 
L 130.952817 189.336006 
L 130.916512 189.176061 
L 130.88163 189.016116 
L 130.848172 188.856171 
L 130.816137 188.696226 
L 130.785527 188.536282 
L 130.75634 188.376337 
L 130.728577 188.216392 
L 130.702237 188.056447 
L 130.677322 187.896502 
L 130.65383 187.736557 
L 130.631762 187.576612 
L 130.611117 187.416668 
L 130.591897 187.256723 
L 130.5741 187.096778 
L 130.557727 186.936833 
L 130.542777 186.776888 
L 130.529252 186.616943 
L 130.51715 186.456999 
L 130.506472 186.297054 
L 130.497217 186.137109 
L 130.489386 185.977164 
L 130.48298 185.817219 
L 130.477996 185.657274 
L 130.474437 185.497329 
L 130.472301 185.337385 
L 130.47159 185.17744 
L 130.472301 185.017495 
L 130.474437 184.85755 
L 130.477996 184.697605 
L 130.48298 184.53766 
L 130.489386 184.377716 
L 130.497217 184.217771 
L 130.506472 184.057826 
L 130.51715 183.897881 
L 130.529252 183.737936 
L 130.542777 183.577991 
L 130.557727 183.418046 
L 130.5741 183.258102 
L 130.591897 183.098157 
L 130.611117 182.938212 
L 130.631762 182.778267 
L 130.65383 182.618322 
L 130.677322 182.458377 
L 130.702237 182.298433 
L 130.728577 182.138488 
L 130.75634 181.978543 
L 130.785527 181.818598 
L 130.816137 181.658653 
L 130.848172 181.498708 
L 130.88163 181.338763 
L 130.916512 181.178819 
L 130.952817 181.018874 
L 130.990547 180.858929 
L 131.0297 180.698984 
L 131.070277 180.539039 
L 131.112277 180.379094 
L 131.155702 180.21915 
L 131.20055 180.059205 
L 131.246822 179.89926 
L 131.294518 179.739315 
L 131.343637 179.57937 
L 131.39418 179.419425 
L 131.446147 179.25948 
L 131.499538 179.099536 
L 131.554352 178.939591 
L 131.61059 178.779646 
L 131.668252 178.619701 
L 131.727338 178.459756 
L 131.787847 178.299811 
L 131.84978 178.139867 
L 131.913137 177.979922 
L 131.977918 177.819977 
L 132.044122 177.660032 
L 132.111751 177.500087 
L 132.180802 177.340142 
L 132.251278 177.180197 
" style="fill:none;stroke:#0000ff;stroke-linecap:square;stroke-width:1.5;"/>
   </g>
   <g id="line2d_11">
    <path clip-path="url(#p32505f1b04)" d="M 148.245763 193.174682 
L 148.084004 193.008339 
L 147.923898 192.841997 
L 147.765444 192.675654 
L 147.608642 192.509312 
L 147.453493 192.342969 
L 147.299996 192.176626 
L 147.148151 192.010284 
L 146.997958 191.843941 
L 146.849417 191.677598 
L 146.702529 191.511256 
L 146.557293 191.344913 
L 146.413709 191.17857 
L 146.271778 191.012228 
L 146.131498 190.845885 
L 145.992871 190.679543 
L 145.855896 190.5132 
L 145.720574 190.346857 
L 145.586904 190.180515 
L 145.454885 190.014172 
L 145.32452 189.847829 
L 145.195806 189.681487 
L 145.068745 189.515144 
L 144.943336 189.348801 
L 144.819579 189.182459 
L 144.697474 189.016116 
L 144.577022 188.849773 
L 144.458221 188.683431 
L 144.341074 188.517088 
L 144.225578 188.350746 
L 144.111735 188.184403 
L 143.999543 188.01806 
L 143.889004 187.851718 
L 143.780118 187.685375 
L 143.672883 187.519032 
L 143.567301 187.35269 
L 143.463371 187.186347 
L 143.361093 187.020004 
L 143.260468 186.853662 
L 143.161495 186.687319 
L 143.064174 186.520976 
L 142.968505 186.354634 
L 142.874489 186.188291 
L 142.782124 186.021949 
L 142.691412 185.855606 
L 142.602353 185.689263 
L 142.514945 185.522921 
L 142.42919 185.356578 
L 142.345087 185.190235 
L 142.262636 185.023893 
L 142.181837 184.85755 
L 142.102691 184.691207 
L 142.025197 184.524865 
L 141.949355 184.358522 
L 141.875166 184.19218 
L 141.802628 184.025837 
L 141.731743 183.859494 
L 141.66251 183.693152 
L 141.59493 183.526809 
L 141.529001 183.360466 
L 141.464725 183.194124 
L 141.402101 183.027781 
L 141.34113 182.861438 
L 141.28181 182.695096 
L 141.224143 182.528753 
L 141.168128 182.36241 
L 141.113766 182.196068 
L 141.061055 182.029725 
L 141.009997 181.863383 
L 140.960591 181.69704 
L 140.912838 181.530697 
L 140.866736 181.364355 
L 140.822287 181.198012 
L 140.77949 181.031669 
L 140.738345 180.865327 
L 140.698853 180.698984 
L 140.661013 180.532641 
L 140.624825 180.366299 
L 140.590289 180.199956 
L 140.557405 180.033614 
L 140.526174 179.867271 
L 140.496595 179.700928 
L 140.468668 179.534586 
L 140.442394 179.368243 
L 140.417772 179.2019 
L 140.394802 179.035558 
L 140.373484 178.869215 
L 140.353818 178.702872 
L 140.335805 178.53653 
L 140.319444 178.370187 
L 140.304735 178.203844 
L 140.291679 178.037502 
L 140.280274 177.871159 
L 140.270522 177.704817 
L 140.262422 177.538474 
L 140.255975 177.372131 
L 140.251179 177.205789 
L 140.248036 177.039446 
L 140.246545 176.873103 
L 140.246707 176.706761 
L 140.24852 176.540418 
" style="fill:none;stroke:#ff0000;stroke-linecap:square;stroke-width:1.5;"/>
   </g>
   <g id="line2d_12">
    <path clip-path="url(#p32505f1b04)" d="M 148.245763 193.174682 
L 148.160207 193.001942 
L 148.076379 192.829201 
L 147.99428 192.656461 
L 147.913909 192.48372 
L 147.835266 192.31098 
L 147.758352 192.13824 
L 147.683166 191.965499 
L 147.609709 191.792759 
L 147.53798 191.620018 
L 147.467979 191.447278 
L 147.399707 191.274537 
L 147.333164 191.101797 
L 147.268348 190.929056 
L 147.205261 190.756316 
L 147.143903 190.583576 
L 147.084273 190.410835 
L 147.026371 190.238095 
L 146.970198 190.065354 
L 146.915753 189.892614 
L 146.863037 189.719873 
L 146.812049 189.547133 
L 146.762789 189.374393 
L 146.715258 189.201652 
L 146.669455 189.028912 
L 146.625381 188.856171 
L 146.583035 188.683431 
L 146.542417 188.51069 
L 146.503528 188.33795 
L 146.466367 188.16521 
L 146.430935 187.992469 
L 146.397231 187.819729 
L 146.365255 187.646988 
L 146.335008 187.474248 
L 146.306489 187.301507 
L 146.279699 187.128767 
L 146.254637 186.956026 
L 146.231304 186.783286 
L 146.209699 186.610546 
L 146.189822 186.437805 
L 146.171674 186.265065 
L 146.155254 186.092324 
L 146.140562 185.919584 
L 146.127599 185.746843 
L 146.116365 185.574103 
L 146.106858 185.401363 
L 146.099081 185.228622 
L 146.093031 185.055882 
L 146.08871 184.883141 
L 146.086117 184.710401 
L 146.085253 184.53766 
L 146.086117 184.36492 
L 146.08871 184.19218 
L 146.093031 184.019439 
L 146.099081 183.846699 
L 146.106858 183.673958 
L 146.116365 183.501218 
L 146.127599 183.328477 
L 146.140562 183.155737 
L 146.155254 182.982996 
L 146.171674 182.810256 
L 146.189822 182.637516 
L 146.209699 182.464775 
L 146.231304 182.292035 
L 146.254637 182.119294 
L 146.279699 181.946554 
L 146.306489 181.773813 
L 146.335008 181.601073 
L 146.365255 181.428333 
L 146.397231 181.255592 
L 146.430935 181.082852 
L 146.466367 180.910111 
L 146.503528 180.737371 
L 146.542417 180.56463 
L 146.583035 180.39189 
L 146.625381 180.21915 
L 146.669455 180.046409 
L 146.715258 179.873669 
L 146.762789 179.700928 
L 146.812049 179.528188 
L 146.863037 179.355447 
L 146.915753 179.182707 
L 146.970198 179.009966 
L 147.026371 178.837226 
L 147.084273 178.664486 
L 147.143903 178.491745 
L 147.205261 178.319005 
L 147.268348 178.146264 
L 147.333164 177.973524 
L 147.399707 177.800783 
L 147.467979 177.628043 
L 147.53798 177.455303 
L 147.609709 177.282562 
L 147.683166 177.109822 
L 147.758352 176.937081 
L 147.835266 176.764341 
L 147.913909 176.5916 
L 147.99428 176.41886 
L 148.076379 176.24612 
L 148.160207 176.073379 
L 148.245763 175.900639 
" style="fill:none;stroke:#0000ff;stroke-linecap:square;stroke-width:1.5;"/>
   </g>
   <g id="line2d_13">
    <path clip-path="url(#p32505f1b04)" d="M 165.519806 193.174682 
L 165.335665 192.995032 
L 165.153498 192.815382 
L 164.973307 192.635732 
L 164.795091 192.456082 
L 164.61885 192.276432 
L 164.444584 192.096782 
L 164.272294 191.917132 
L 164.101978 191.737482 
L 163.933638 191.557832 
L 163.767273 191.378182 
L 163.602883 191.198532 
L 163.440469 191.018882 
L 163.280029 190.839231 
L 163.121565 190.659581 
L 162.965076 190.479931 
L 162.810562 190.300281 
L 162.658023 190.120631 
L 162.50746 189.940981 
L 162.358871 189.761331 
L 162.212258 189.581681 
L 162.06762 189.402031 
L 161.924957 189.222381 
L 161.78427 189.042731 
L 161.645557 188.863081 
L 161.50882 188.683431 
L 161.374058 188.503781 
L 161.241271 188.324131 
L 161.110459 188.144481 
L 160.981622 187.964831 
L 160.854761 187.785181 
L 160.729875 187.605531 
L 160.606964 187.42588 
L 160.486028 187.24623 
L 160.367067 187.06658 
L 160.250082 186.88693 
L 160.135071 186.70728 
L 160.022036 186.52763 
L 159.910976 186.34798 
L 159.801892 186.16833 
L 159.694782 185.98868 
L 159.589648 185.80903 
L 159.486488 185.62938 
L 159.385304 185.44973 
L 159.286095 185.27008 
L 159.188862 185.09043 
L 159.093603 184.91078 
L 159.00032 184.73113 
L 158.909012 184.55148 
L 158.819679 184.37183 
L 158.732321 184.19218 
L 158.646938 184.012529 
L 158.563531 183.832879 
L 158.482098 183.653229 
L 158.402641 183.473579 
L 158.325159 183.293929 
L 158.249653 183.114279 
L 158.176121 182.934629 
L 158.104565 182.754979 
L 158.034984 182.575329 
L 157.967378 182.395679 
L 157.901747 182.216029 
L 157.838091 182.036379 
L 157.776411 181.856729 
L 157.716705 181.677079 
L 157.658975 181.497429 
L 157.60322 181.317779 
L 157.549441 181.138129 
L 157.497636 180.958479 
L 157.447807 180.778829 
L 157.399952 180.599178 
L 157.354073 180.419528 
L 157.31017 180.239878 
L 157.268241 180.060228 
L 157.228287 179.880578 
L 157.190309 179.700928 
L 157.154306 179.521278 
L 157.120278 179.341628 
L 157.088225 179.161978 
L 157.058148 178.982328 
L 157.030045 178.802678 
L 157.003918 178.623028 
L 156.979766 178.443378 
L 156.957589 178.263728 
L 156.937387 178.084078 
L 156.919161 177.904428 
L 156.902909 177.724778 
L 156.888633 177.545128 
L 156.876332 177.365478 
L 156.866006 177.185827 
L 156.857656 177.006177 
L 156.85128 176.826527 
L 156.84688 176.646877 
L 156.844455 176.467227 
L 156.844005 176.287577 
L 156.84553 176.107927 
L 156.849031 175.928277 
L 156.854507 175.748627 
L 156.861957 175.568977 
L 156.871383 175.389327 
L 156.882785 175.209677 
" style="fill:none;stroke:#ff0000;stroke-linecap:square;stroke-width:1.5;"/>
   </g>
   <g id="line2d_14">
    <path clip-path="url(#p32505f1b04)" d="M 165.519806 193.174682 
L 165.417963 192.988122 
L 165.318177 192.801563 
L 165.220449 192.615003 
L 165.124778 192.428443 
L 165.031165 192.241884 
L 164.939609 192.055324 
L 164.850111 191.868764 
L 164.762669 191.682205 
L 164.677286 191.495645 
L 164.59396 191.309085 
L 164.512691 191.122526 
L 164.43348 190.935966 
L 164.356326 190.749406 
L 164.281229 190.562847 
L 164.20819 190.376287 
L 164.137209 190.189727 
L 164.068284 190.003168 
L 164.001418 189.816608 
L 163.936608 189.630048 
L 163.873857 189.443489 
L 163.813162 189.256929 
L 163.754525 189.070369 
L 163.697946 188.88381 
L 163.643424 188.69725 
L 163.590959 188.51069 
L 163.540552 188.324131 
L 163.492202 188.137571 
L 163.44591 187.951011 
L 163.401675 187.764452 
L 163.359497 187.577892 
L 163.319377 187.391332 
L 163.281315 187.204773 
L 163.24531 187.018213 
L 163.211362 186.831653 
L 163.179472 186.645094 
L 163.149639 186.458534 
L 163.121863 186.271974 
L 163.096145 186.085415 
L 163.072485 185.898855 
L 163.050882 185.712295 
L 163.031336 185.525736 
L 163.013848 185.339176 
L 162.998417 185.152616 
L 162.985044 184.966057 
L 162.973728 184.779497 
L 162.964469 184.592937 
L 162.957268 184.406378 
L 162.952125 184.219818 
L 162.949039 184.033258 
L 162.94801 183.846699 
L 162.949039 183.660139 
L 162.952125 183.473579 
L 162.957268 183.28702 
L 162.964469 183.10046 
L 162.973728 182.9139 
L 162.985044 182.727341 
L 162.998417 182.540781 
L 163.013848 182.354221 
L 163.031336 182.167662 
L 163.050882 181.981102 
L 163.072485 181.794542 
L 163.096145 181.607983 
L 163.121863 181.421423 
L 163.149639 181.234863 
L 163.179472 181.048304 
L 163.211362 180.861744 
L 163.24531 180.675184 
L 163.281315 180.488625 
L 163.319377 180.302065 
L 163.359497 180.115505 
L 163.401675 179.928946 
L 163.44591 179.742386 
L 163.492202 179.555826 
L 163.540552 179.369267 
L 163.590959 179.182707 
L 163.643424 178.996147 
L 163.697946 178.809588 
L 163.754525 178.623028 
L 163.813162 178.436468 
L 163.873857 178.249909 
L 163.936608 178.063349 
L 164.001418 177.876789 
L 164.068284 177.69023 
L 164.137209 177.50367 
L 164.20819 177.31711 
L 164.281229 177.130551 
L 164.356326 176.943991 
L 164.43348 176.757431 
L 164.512691 176.570872 
L 164.59396 176.384312 
L 164.677286 176.197752 
L 164.762669 176.011193 
L 164.850111 175.824633 
L 164.939609 175.638073 
L 165.031165 175.451514 
L 165.124778 175.264954 
L 165.220449 175.078394 
L 165.318177 174.891835 
L 165.417963 174.705275 
L 165.519806 174.518715 
" style="fill:none;stroke:#0000ff;stroke-linecap:square;stroke-width:1.5;"/>
   </g>
   <g id="line2d_15">
    <path clip-path="url(#p32505f1b04)" d="M 184.175773 193.174682 
L 183.967458 192.98066 
L 183.761466 192.786638 
L 183.557799 192.592616 
L 183.356455 192.398594 
L 183.157436 192.204572 
L 182.96074 192.01055 
L 182.766368 191.816528 
L 182.574321 191.622506 
L 182.384597 191.428484 
L 182.197197 191.234462 
L 182.012121 191.04044 
L 181.829369 190.846417 
L 181.648941 190.652395 
L 181.470837 190.458373 
L 181.295057 190.264351 
L 181.121601 190.070329 
L 180.950469 189.876307 
L 180.78166 189.682285 
L 180.615176 189.488263 
L 180.451016 189.294241 
L 180.289179 189.100219 
L 180.129667 188.906197 
L 179.972479 188.712175 
L 179.817614 188.518153 
L 179.665073 188.324131 
L 179.514857 188.130109 
L 179.366964 187.936087 
L 179.221395 187.742065 
L 179.078151 187.548043 
L 178.93723 187.35402 
L 178.798633 187.159998 
L 178.66236 186.965976 
L 178.528411 186.771954 
L 178.396786 186.577932 
L 178.267485 186.38391 
L 178.140508 186.189888 
L 178.015855 185.995866 
L 177.893525 185.801844 
L 177.77352 185.607822 
L 177.655839 185.4138 
L 177.540481 185.219778 
L 177.427448 185.025756 
L 177.316739 184.831734 
L 177.208353 184.637712 
L 177.102291 184.44369 
L 176.998554 184.249668 
L 176.89714 184.055645 
L 176.798051 183.861623 
L 176.701285 183.667601 
L 176.606843 183.473579 
L 176.514725 183.279557 
L 176.424931 183.085535 
L 176.337461 182.891513 
L 176.252315 182.697491 
L 176.169493 182.503469 
L 176.088995 182.309447 
L 176.010821 182.115425 
L 175.934971 181.921403 
L 175.861444 181.727381 
L 175.790242 181.533359 
L 175.721364 181.339337 
L 175.654809 181.145315 
L 175.590579 180.951293 
L 175.528672 180.757271 
L 175.46909 180.563248 
L 175.411831 180.369226 
L 175.356897 180.175204 
L 175.304286 179.981182 
L 175.253999 179.78716 
L 175.206036 179.593138 
L 175.160398 179.399116 
L 175.117083 179.205094 
L 175.076092 179.011072 
L 175.037425 178.81705 
L 175.001082 178.623028 
L 174.967063 178.429006 
L 174.935367 178.234984 
L 174.905996 178.040962 
L 174.878949 177.84694 
L 174.854226 177.652918 
L 174.831826 177.458896 
L 174.811751 177.264874 
L 174.794 177.070851 
L 174.778572 176.876829 
L 174.765469 176.682807 
L 174.754689 176.488785 
L 174.746233 176.294763 
L 174.740102 176.100741 
L 174.736294 175.906719 
L 174.73481 175.712697 
L 174.73565 175.518675 
L 174.738815 175.324653 
L 174.744303 175.130631 
L 174.752115 174.936609 
L 174.762251 174.742587 
L 174.774711 174.548565 
L 174.789494 174.354543 
L 174.806602 174.160521 
L 174.826034 173.966499 
L 174.84779 173.772476 
" style="fill:none;stroke:#ff0000;stroke-linecap:square;stroke-width:1.5;"/>
   </g>
   <g id="line2d_16">
    <path clip-path="url(#p32505f1b04)" d="M 184.175773 193.174682 
L 184.05634 192.973198 
L 183.93932 192.771713 
L 183.824712 192.570229 
L 183.712518 192.368744 
L 183.602736 192.16726 
L 183.495367 191.965775 
L 183.390411 191.764291 
L 183.287867 191.562807 
L 183.187736 191.361322 
L 183.090018 191.159838 
L 182.994713 190.958353 
L 182.901821 190.756869 
L 182.811341 190.555384 
L 182.723274 190.3539 
L 182.63762 190.152415 
L 182.554379 189.950931 
L 182.473551 189.749447 
L 182.395135 189.547962 
L 182.319132 189.346478 
L 182.245542 189.144993 
L 182.174365 188.943509 
L 182.1056 188.742024 
L 182.039249 188.54054 
L 181.97531 188.339056 
L 181.913784 188.137571 
L 181.85467 187.936087 
L 181.79797 187.734602 
L 181.743682 187.533118 
L 181.691807 187.331633 
L 181.642345 187.130149 
L 181.595296 186.928664 
L 181.550659 186.72718 
L 181.508435 186.525696 
L 181.468624 186.324211 
L 181.431226 186.122727 
L 181.396241 185.921242 
L 181.363668 185.719758 
L 181.333508 185.518273 
L 181.305761 185.316789 
L 181.280427 185.115304 
L 181.257505 184.91382 
L 181.236996 184.712336 
L 181.218901 184.510851 
L 181.203217 184.309367 
L 181.189947 184.107882 
L 181.17909 183.906398 
L 181.170645 183.704913 
L 181.164613 183.503429 
L 181.160994 183.301944 
L 181.159787 183.10046 
L 181.160994 182.898976 
L 181.164613 182.697491 
L 181.170645 182.496007 
L 181.17909 182.294522 
L 181.189947 182.093038 
L 181.203217 181.891553 
L 181.218901 181.690069 
L 181.236996 181.488584 
L 181.257505 181.2871 
L 181.280427 181.085616 
L 181.305761 180.884131 
L 181.333508 180.682647 
L 181.363668 180.481162 
L 181.396241 180.279678 
L 181.431226 180.078193 
L 181.468624 179.876709 
L 181.508435 179.675224 
L 181.550659 179.47374 
L 181.595296 179.272256 
L 181.642345 179.070771 
L 181.691807 178.869287 
L 181.743682 178.667802 
L 181.79797 178.466318 
L 181.85467 178.264833 
L 181.913784 178.063349 
L 181.97531 177.861864 
L 182.039249 177.66038 
L 182.1056 177.458896 
L 182.174365 177.257411 
L 182.245542 177.055927 
L 182.319132 176.854442 
L 182.395135 176.652958 
L 182.473551 176.451473 
L 182.554379 176.249989 
L 182.63762 176.048504 
L 182.723274 175.84702 
L 182.811341 175.645536 
L 182.901821 175.444051 
L 182.994713 175.242567 
L 183.090018 175.041082 
L 183.187736 174.839598 
L 183.287867 174.638113 
L 183.390411 174.436629 
L 183.495367 174.235144 
L 183.602736 174.03366 
L 183.712518 173.832176 
L 183.824712 173.630691 
L 183.93932 173.429207 
L 184.05634 173.227722 
L 184.175773 173.026238 
" style="fill:none;stroke:#0000ff;stroke-linecap:square;stroke-width:1.5;"/>
   </g>
   <g id="line2d_17">
    <path clip-path="url(#p32505f1b04)" d="M 204.324218 193.174682 
L 204.089794 192.965138 
L 203.858072 192.755594 
L 203.62905 192.546051 
L 203.402729 192.336507 
L 203.179108 192.126963 
L 202.958188 191.917419 
L 202.739969 191.707875 
L 202.52445 191.498332 
L 202.311632 191.288788 
L 202.101515 191.079244 
L 201.894098 190.8697 
L 201.689382 190.660156 
L 201.487366 190.450612 
L 201.288051 190.241069 
L 201.091437 190.031525 
L 200.897523 189.821981 
L 200.70631 189.612437 
L 200.517797 189.402893 
L 200.331985 189.19335 
L 200.148874 188.983806 
L 199.968464 188.774262 
L 199.790754 188.564718 
L 199.615744 188.355174 
L 199.443435 188.14563 
L 199.273827 187.936087 
L 199.10692 187.726543 
L 198.942713 187.516999 
L 198.781207 187.307455 
L 198.622401 187.097911 
L 198.466296 186.888368 
L 198.312892 186.678824 
L 198.162188 186.46928 
L 198.014185 186.259736 
L 197.868882 186.050192 
L 197.72628 185.840648 
L 197.586379 185.631105 
L 197.449178 185.421561 
L 197.314678 185.212017 
L 197.182879 185.002473 
L 197.05378 184.792929 
L 196.927382 184.583385 
L 196.803685 184.373842 
L 196.682688 184.164298 
L 196.564391 183.954754 
L 196.448796 183.74521 
L 196.335901 183.535666 
L 196.225706 183.326123 
L 196.118213 183.116579 
L 196.013419 182.907035 
L 195.911327 182.697491 
L 195.811935 182.487947 
L 195.715244 182.278403 
L 195.621253 182.06886 
L 195.529963 181.859316 
L 195.441374 181.649772 
L 195.355485 181.440228 
L 195.272297 181.230684 
L 195.191809 181.021141 
L 195.114022 180.811597 
L 195.038936 180.602053 
L 194.96655 180.392509 
L 194.896865 180.182965 
L 194.829881 179.973421 
L 194.765597 179.763878 
L 194.704014 179.554334 
L 194.645131 179.34479 
L 194.588949 179.135246 
L 194.535468 178.925702 
L 194.484687 178.716158 
L 194.436607 178.506615 
L 194.391228 178.297071 
L 194.348549 178.087527 
L 194.308571 177.877983 
L 194.271293 177.668439 
L 194.236716 177.458896 
L 194.20484 177.249352 
L 194.175664 177.039808 
L 194.149189 176.830264 
L 194.125415 176.62072 
L 194.104341 176.411176 
L 194.085968 176.201633 
L 194.070295 175.992089 
L 194.057323 175.782545 
L 194.047052 175.573001 
L 194.039481 175.363457 
L 194.034611 175.153914 
L 194.032442 174.94437 
L 194.032973 174.734826 
L 194.036205 174.525282 
L 194.042137 174.315738 
L 194.05077 174.106194 
L 194.062104 173.896651 
L 194.076138 173.687107 
L 194.092873 173.477563 
L 194.112308 173.268019 
L 194.134445 173.058475 
L 194.159281 172.848932 
L 194.186819 172.639388 
L 194.217057 172.429844 
L 194.249995 172.2203 
" style="fill:none;stroke:#ff0000;stroke-linecap:square;stroke-width:1.5;"/>
   </g>
   <g id="line2d_18">
    <path clip-path="url(#p32505f1b04)" d="M 204.324218 193.174682 
L 204.185787 192.957079 
L 204.050154 192.739476 
L 203.917317 192.521873 
L 203.787276 192.304269 
L 203.660033 192.086666 
L 203.535585 191.869063 
L 203.413934 191.65146 
L 203.29508 191.433857 
L 203.179023 191.216253 
L 203.065762 190.99865 
L 202.955297 190.781047 
L 202.847629 190.563444 
L 202.742758 190.345841 
L 202.640683 190.128237 
L 202.541405 189.910634 
L 202.444923 189.693031 
L 202.351238 189.475428 
L 202.26035 189.257825 
L 202.172258 189.040221 
L 202.086963 188.822618 
L 202.004464 188.605015 
L 201.924762 188.387412 
L 201.847856 188.169809 
L 201.773747 187.952205 
L 201.702434 187.734602 
L 201.633918 187.516999 
L 201.568199 187.299396 
L 201.505276 187.081793 
L 201.44515 186.864189 
L 201.38782 186.646586 
L 201.333287 186.428983 
L 201.281551 186.21138 
L 201.232611 185.993777 
L 201.186467 185.776173 
L 201.143121 185.55857 
L 201.10257 185.340967 
L 201.064817 185.123364 
L 201.02986 184.905761 
L 200.997699 184.688157 
L 200.968335 184.470554 
L 200.941768 184.252951 
L 200.917997 184.035348 
L 200.897023 183.817745 
L 200.878845 183.600141 
L 200.863464 183.382538 
L 200.850879 183.164935 
L 200.841091 182.947332 
L 200.8341 182.729729 
L 200.829905 182.512125 
L 200.828507 182.294522 
L 200.829905 182.076919 
L 200.8341 181.859316 
L 200.841091 181.641713 
L 200.850879 181.424109 
L 200.863464 181.206506 
L 200.878845 180.988903 
L 200.897023 180.7713 
L 200.917997 180.553697 
L 200.941768 180.336093 
L 200.968335 180.11849 
L 200.997699 179.900887 
L 201.02986 179.683284 
L 201.064817 179.465681 
L 201.10257 179.248077 
L 201.143121 179.030474 
L 201.186467 178.812871 
L 201.232611 178.595268 
L 201.281551 178.377665 
L 201.333287 178.160061 
L 201.38782 177.942458 
L 201.44515 177.724855 
L 201.505276 177.507252 
L 201.568199 177.289649 
L 201.633918 177.072045 
L 201.702434 176.854442 
L 201.773747 176.636839 
L 201.847856 176.419236 
L 201.924762 176.201633 
L 202.004464 175.984029 
L 202.086963 175.766426 
L 202.172258 175.548823 
L 202.26035 175.33122 
L 202.351238 175.113617 
L 202.444923 174.896013 
L 202.541405 174.67841 
L 202.640683 174.460807 
L 202.742758 174.243204 
L 202.847629 174.025601 
L 202.955297 173.807997 
L 203.065762 173.590394 
L 203.179023 173.372791 
L 203.29508 173.155188 
L 203.413934 172.937585 
L 203.535585 172.719981 
L 203.660033 172.502378 
L 203.787276 172.284775 
L 203.917317 172.067172 
L 204.050154 171.849569 
L 204.185787 171.631965 
L 204.324218 171.414362 
" style="fill:none;stroke:#0000ff;stroke-linecap:square;stroke-width:1.5;"/>
   </g>
   <g id="line2d_19">
    <path clip-path="url(#p32505f1b04)" d="M 226.084537 193.174682 
L 225.821918 192.948375 
L 225.562406 192.722067 
L 225.306002 192.49576 
L 225.052704 192.269453 
L 224.802515 192.043146 
L 224.555432 191.816838 
L 224.311458 191.590531 
L 224.07059 191.364224 
L 223.83283 191.137916 
L 223.598178 190.911609 
L 223.366633 190.685302 
L 223.138195 190.458994 
L 222.912865 190.232687 
L 222.690642 190.00638 
L 222.471527 189.780072 
L 222.255519 189.553765 
L 222.042618 189.327458 
L 221.832825 189.10115 
L 221.626139 188.874843 
L 221.422561 188.648536 
L 221.22209 188.422228 
L 221.024727 188.195921 
L 220.830471 187.969614 
L 220.639323 187.743306 
L 220.451281 187.516999 
L 220.266348 187.290692 
L 220.084522 187.064384 
L 219.905803 186.838077 
L 219.730191 186.61177 
L 219.557688 186.385462 
L 219.388291 186.159155 
L 219.222002 185.932848 
L 219.05882 185.70654 
L 218.898746 185.480233 
L 218.741779 185.253926 
L 218.58792 185.027618 
L 218.437168 184.801311 
L 218.289524 184.575004 
L 218.144987 184.348696 
L 218.003557 184.122389 
L 217.865235 183.896082 
L 217.73002 183.669774 
L 217.597913 183.443467 
L 217.468913 183.21716 
L 217.34302 182.990852 
L 217.220235 182.764545 
L 217.100558 182.538238 
L 216.983988 182.31193 
L 216.870525 182.085623 
L 216.760169 181.859316 
L 216.652922 181.633008 
L 216.548781 181.406701 
L 216.447748 181.180394 
L 216.349823 180.954087 
L 216.255004 180.727779 
L 216.163294 180.501472 
L 216.07469 180.275165 
L 215.989194 180.048857 
L 215.906806 179.82255 
L 215.827525 179.596243 
L 215.751351 179.369935 
L 215.678285 179.143628 
L 215.608327 178.917321 
L 215.541475 178.691013 
L 215.477731 178.464706 
L 215.417095 178.238399 
L 215.359566 178.012091 
L 215.305144 177.785784 
L 215.25383 177.559477 
L 215.205624 177.333169 
L 215.160524 177.106862 
L 215.118532 176.880555 
L 215.079648 176.654247 
L 215.043871 176.42794 
L 215.011201 176.201633 
L 214.981639 175.975325 
L 214.955185 175.749018 
L 214.931837 175.522711 
L 214.911598 175.296403 
L 214.894465 175.070096 
L 214.88044 174.843789 
L 214.869523 174.617481 
L 214.861713 174.391174 
L 214.85701 174.164867 
L 214.855415 173.938559 
L 214.856927 173.712252 
L 214.861546 173.485945 
L 214.869273 173.259637 
L 214.880108 173.03333 
L 214.89405 172.807023 
L 214.911099 172.580715 
L 214.931256 172.354408 
L 214.95452 172.128101 
L 214.980892 171.901793 
L 215.010371 171.675486 
L 215.042957 171.449179 
L 215.078651 171.222871 
L 215.117453 170.996564 
L 215.159361 170.770257 
L 215.204378 170.543949 
" style="fill:none;stroke:#ff0000;stroke-linecap:square;stroke-width:1.5;"/>
   </g>
   <g id="line2d_20">
    <path clip-path="url(#p32505f1b04)" d="M 226.084537 193.174682 
L 225.92559 192.939671 
L 225.769854 192.704659 
L 225.61733 192.469648 
L 225.468016 192.234636 
L 225.321913 191.999625 
L 225.179021 191.764613 
L 225.03934 191.529602 
L 224.902871 191.294591 
L 224.769612 191.059579 
L 224.639564 190.824568 
L 224.512728 190.589556 
L 224.389103 190.354545 
L 224.268688 190.119533 
L 224.151485 189.884522 
L 224.037492 189.64951 
L 223.926711 189.414499 
L 223.819141 189.179487 
L 223.714782 188.944476 
L 223.613634 188.709465 
L 223.515697 188.474453 
L 223.420971 188.239442 
L 223.329456 188.00443 
L 223.241152 187.769419 
L 223.156059 187.534407 
L 223.074177 187.299396 
L 222.995506 187.064384 
L 222.920047 186.829373 
L 222.847798 186.594361 
L 222.77876 186.35935 
L 222.712934 186.124339 
L 222.650318 185.889327 
L 222.590914 185.654316 
L 222.534721 185.419304 
L 222.481738 185.184293 
L 222.431967 184.949281 
L 222.385407 184.71427 
L 222.342058 184.479258 
L 222.301919 184.244247 
L 222.264992 184.009235 
L 222.231276 183.774224 
L 222.200771 183.539213 
L 222.173477 183.304201 
L 222.149394 183.06919 
L 222.128523 182.834178 
L 222.110862 182.599167 
L 222.096412 182.364155 
L 222.085173 182.129144 
L 222.077146 181.894132 
L 222.072329 181.659121 
L 222.070724 181.424109 
L 222.072329 181.189098 
L 222.077146 180.954087 
L 222.085173 180.719075 
L 222.096412 180.484064 
L 222.110862 180.249052 
L 222.128523 180.014041 
L 222.149394 179.779029 
L 222.173477 179.544018 
L 222.200771 179.309006 
L 222.231276 179.073995 
L 222.264992 178.838983 
L 222.301919 178.603972 
L 222.342058 178.368961 
L 222.385407 178.133949 
L 222.431967 177.898938 
L 222.481738 177.663926 
L 222.534721 177.428915 
L 222.590914 177.193903 
L 222.650318 176.958892 
L 222.712934 176.72388 
L 222.77876 176.488869 
L 222.847798 176.253857 
L 222.920047 176.018846 
L 222.995506 175.783835 
L 223.074177 175.548823 
L 223.156059 175.313812 
L 223.241152 175.0788 
L 223.329456 174.843789 
L 223.420971 174.608777 
L 223.515697 174.373766 
L 223.613634 174.138754 
L 223.714782 173.903743 
L 223.819141 173.668731 
L 223.926711 173.43372 
L 224.037492 173.198709 
L 224.151485 172.963697 
L 224.268688 172.728686 
L 224.389103 172.493674 
L 224.512728 172.258663 
L 224.639564 172.023651 
L 224.769612 171.78864 
L 224.902871 171.553628 
L 225.03934 171.318617 
L 225.179021 171.083605 
L 225.321913 170.848594 
L 225.468016 170.613583 
L 225.61733 170.378571 
L 225.769854 170.14356 
L 225.92559 169.908548 
L 226.084537 169.673537 
" style="fill:none;stroke:#0000ff;stroke-linecap:square;stroke-width:1.5;"/>
   </g>
   <g id="line2d_21">
    <path clip-path="url(#p32505f1b04)" d="M 249.585683 193.174682 
L 249.292611 192.93027 
L 249.003087 192.685858 
L 248.717109 192.441446 
L 248.434678 192.197034 
L 248.155794 191.952623 
L 247.880456 191.708211 
L 247.608665 191.463799 
L 247.340421 191.219387 
L 247.075724 190.974975 
L 246.814574 190.730563 
L 246.55697 190.486151 
L 246.302913 190.241739 
L 246.052403 189.997327 
L 245.80544 189.752915 
L 245.562024 189.508503 
L 245.322154 189.264092 
L 245.085831 189.01968 
L 244.853055 188.775268 
L 244.623826 188.530856 
L 244.398143 188.286444 
L 244.176007 188.042032 
L 243.957418 187.79762 
L 243.742376 187.553208 
L 243.530881 187.308796 
L 243.322932 187.064384 
L 243.11853 186.819972 
L 242.917675 186.57556 
L 242.720367 186.331149 
L 242.526605 186.086737 
L 242.33639 185.842325 
L 242.149722 185.597913 
L 241.966601 185.353501 
L 241.787027 185.109089 
L 241.610999 184.864677 
L 241.438518 184.620265 
L 241.269584 184.375853 
L 241.104197 184.131441 
L 240.942356 183.887029 
L 240.784063 183.642618 
L 240.629316 183.398206 
L 240.478116 183.153794 
L 240.330462 182.909382 
L 240.186356 182.66497 
L 240.045796 182.420558 
L 239.908783 182.176146 
L 239.775317 181.931734 
L 239.645397 181.687322 
L 239.519025 181.44291 
L 239.396199 181.198498 
L 239.276919 180.954087 
L 239.161187 180.709675 
L 239.049002 180.465263 
L 238.940363 180.220851 
L 238.835271 179.976439 
L 238.733726 179.732027 
L 238.635727 179.487615 
L 238.541276 179.243203 
L 238.450371 178.998791 
L 238.363013 178.754379 
L 238.279201 178.509967 
L 238.198937 178.265555 
L 238.122219 178.021144 
L 238.049048 177.776732 
L 237.979424 177.53232 
L 237.913347 177.287908 
L 237.850816 177.043496 
L 237.791832 176.799084 
L 237.736395 176.554672 
L 237.684505 176.31026 
L 237.636161 176.065848 
L 237.591365 175.821436 
L 237.550115 175.577024 
L 237.512411 175.332613 
L 237.478255 175.088201 
L 237.447646 174.843789 
L 237.420583 174.599377 
L 237.397067 174.354965 
L 237.377098 174.110553 
L 237.360675 173.866141 
L 237.347799 173.621729 
L 237.338471 173.377317 
L 237.332688 173.132905 
L 237.330453 172.888493 
L 237.331765 172.644081 
L 237.336623 172.39967 
L 237.345028 172.155258 
L 237.35698 171.910846 
L 237.372478 171.666434 
L 237.391524 171.422022 
L 237.414116 171.17761 
L 237.440255 170.933198 
L 237.46994 170.688786 
L 237.503173 170.444374 
L 237.539952 170.199962 
L 237.580278 169.95555 
L 237.624151 169.711139 
L 237.671571 169.466727 
L 237.722537 169.222315 
L 237.77705 168.977903 
L 237.83511 168.733491 
" style="fill:none;stroke:#ff0000;stroke-linecap:square;stroke-width:1.5;"/>
   </g>
   <g id="line2d_22">
    <path clip-path="url(#p32505f1b04)" d="M 249.585683 193.174682 
L 249.404578 192.92087 
L 249.227131 192.667057 
L 249.053343 192.413245 
L 248.883214 192.159433 
L 248.716744 191.90562 
L 248.553932 191.651808 
L 248.394779 191.397996 
L 248.239284 191.144183 
L 248.087449 190.890371 
L 247.939272 190.636558 
L 247.794753 190.382746 
L 247.653894 190.128934 
L 247.516693 189.875121 
L 247.38315 189.621309 
L 247.253267 189.367497 
L 247.127042 189.113684 
L 247.004476 188.859872 
L 246.885568 188.606059 
L 246.77032 188.352247 
L 246.658729 188.098435 
L 246.550798 187.844622 
L 246.446525 187.59081 
L 246.345911 187.336998 
L 246.248956 187.083185 
L 246.155659 186.829373 
L 246.066021 186.57556 
L 245.980042 186.321748 
L 245.897722 186.067936 
L 245.81906 185.814123 
L 245.744056 185.560311 
L 245.672712 185.306499 
L 245.605026 185.052686 
L 245.540999 184.798874 
L 245.480631 184.545062 
L 245.423921 184.291249 
L 245.37087 184.037437 
L 245.321478 183.783624 
L 245.275744 183.529812 
L 245.233669 183.276 
L 245.195253 183.022187 
L 245.160495 182.768375 
L 245.129396 182.514563 
L 245.101956 182.26075 
L 245.078175 182.006938 
L 245.058052 181.753125 
L 245.041588 181.499313 
L 245.028782 181.245501 
L 245.019635 180.991688 
L 245.014147 180.737876 
L 245.012318 180.484064 
L 245.014147 180.230251 
L 245.019635 179.976439 
L 245.028782 179.722626 
L 245.041588 179.468814 
L 245.058052 179.215002 
L 245.078175 178.961189 
L 245.101956 178.707377 
L 245.129396 178.453565 
L 245.160495 178.199752 
L 245.195253 177.94594 
L 245.233669 177.692128 
L 245.275744 177.438315 
L 245.321478 177.184503 
L 245.37087 176.93069 
L 245.423921 176.676878 
L 245.480631 176.423066 
L 245.540999 176.169253 
L 245.605026 175.915441 
L 245.672712 175.661629 
L 245.744056 175.407816 
L 245.81906 175.154004 
L 245.897722 174.900191 
L 245.980042 174.646379 
L 246.066021 174.392567 
L 246.155659 174.138754 
L 246.248956 173.884942 
L 246.345911 173.63113 
L 246.446525 173.377317 
L 246.550798 173.123505 
L 246.658729 172.869692 
L 246.77032 172.61588 
L 246.885568 172.362068 
L 247.004476 172.108255 
L 247.127042 171.854443 
L 247.253267 171.600631 
L 247.38315 171.346818 
L 247.516693 171.093006 
L 247.653894 170.839194 
L 247.794753 170.585381 
L 247.939272 170.331569 
L 248.087449 170.077756 
L 248.239284 169.823944 
L 248.394779 169.570132 
L 248.553932 169.316319 
L 248.716744 169.062507 
L 248.883214 168.808695 
L 249.053343 168.554882 
L 249.227131 168.30107 
L 249.404578 168.047257 
L 249.585683 167.793445 
" style="fill:none;stroke:#0000ff;stroke-linecap:square;stroke-width:1.5;"/>
   </g>
   <g id="line2d_23">
    <path clip-path="url(#p32505f1b04)" d="M 274.96692 193.174682 
L 274.64096 192.910717 
L 274.319022 192.646752 
L 274.001105 192.382788 
L 273.687209 192.118823 
L 273.377335 191.854858 
L 273.071482 191.590893 
L 272.76965 191.326928 
L 272.471839 191.062963 
L 272.17805 190.798998 
L 271.888282 190.535033 
L 271.602535 190.271069 
L 271.320809 190.007104 
L 271.043105 189.743139 
L 270.769422 189.479174 
L 270.499761 189.215209 
L 270.23412 188.951244 
L 269.972501 188.687279 
L 269.714903 188.423315 
L 269.461327 188.15935 
L 269.211772 187.895385 
L 268.966238 187.63142 
L 268.724725 187.367455 
L 268.487233 187.10349 
L 268.253763 186.839525 
L 268.024314 186.57556 
L 267.798887 186.311596 
L 267.577481 186.047631 
L 267.360096 185.783666 
L 267.146732 185.519701 
L 266.937389 185.255736 
L 266.732068 184.991771 
L 266.530768 184.727806 
L 266.33349 184.463842 
L 266.140232 184.199877 
L 265.950996 183.935912 
L 265.765782 183.671947 
L 265.584588 183.407982 
L 265.407416 183.144017 
L 265.234265 182.880052 
L 265.065135 182.616088 
L 264.900027 182.352123 
L 264.73894 182.088158 
L 264.581874 181.824193 
L 264.42883 181.560228 
L 264.279806 181.296263 
L 264.134805 181.032298 
L 263.993824 180.768333 
L 263.856864 180.504369 
L 263.723926 180.240404 
L 263.59501 179.976439 
L 263.470114 179.712474 
L 263.34924 179.448509 
L 263.232387 179.184544 
L 263.119555 178.920579 
L 263.010745 178.656615 
L 262.905955 178.39265 
L 262.805188 178.128685 
L 262.708441 177.86472 
L 262.615716 177.600755 
L 262.527012 177.33679 
L 262.442329 177.072825 
L 262.361668 176.80886 
L 262.285027 176.544896 
L 262.212408 176.280931 
L 262.143811 176.016966 
L 262.079235 175.753001 
L 262.018679 175.489036 
L 261.962146 175.225071 
L 261.909633 174.961106 
L 261.861142 174.697142 
L 261.816672 174.433177 
L 261.776223 174.169212 
L 261.739796 173.905247 
L 261.70739 173.641282 
L 261.679005 173.377317 
L 261.654642 173.113352 
L 261.634299 172.849387 
L 261.617978 172.585423 
L 261.605679 172.321458 
L 261.5974 172.057493 
L 261.593143 171.793528 
L 261.592907 171.529563 
L 261.596693 171.265598 
L 261.6045 171.001633 
L 261.616328 170.737669 
L 261.632177 170.473704 
L 261.652047 170.209739 
L 261.675939 169.945774 
L 261.703852 169.681809 
L 261.735787 169.417844 
L 261.771743 169.153879 
L 261.81172 168.889914 
L 261.855718 168.62595 
L 261.903737 168.361985 
L 261.955778 168.09802 
L 262.01184 167.834055 
L 262.071924 167.57009 
L 262.136028 167.306125 
L 262.204154 167.04216 
L 262.276301 166.778196 
" style="fill:none;stroke:#ff0000;stroke-linecap:square;stroke-width:1.5;"/>
   </g>
   <g id="line2d_24">
    <path clip-path="url(#p32505f1b04)" d="M 274.96692 193.174682 
L 274.761884 192.900565 
L 274.56099 192.626447 
L 274.364238 192.35233 
L 274.171628 192.078213 
L 273.983161 191.804095 
L 273.798835 191.529978 
L 273.618652 191.255861 
L 273.442611 190.981743 
L 273.270712 190.707626 
L 273.102955 190.433509 
L 272.93934 190.159391 
L 272.779868 189.885274 
L 272.624538 189.611156 
L 272.473349 189.337039 
L 272.326303 189.062922 
L 272.183399 188.788804 
L 272.044637 188.514687 
L 271.910018 188.24057 
L 271.77954 187.966452 
L 271.653205 187.692335 
L 271.531012 187.418218 
L 271.41296 187.1441 
L 271.299051 186.869983 
L 271.189285 186.595865 
L 271.08366 186.321748 
L 270.982177 186.047631 
L 270.884837 185.773513 
L 270.791639 185.499396 
L 270.702583 185.225279 
L 270.617669 184.951161 
L 270.536897 184.677044 
L 270.460267 184.402927 
L 270.38778 184.128809 
L 270.319434 183.854692 
L 270.255231 183.580575 
L 270.19517 183.306457 
L 270.139251 183.03234 
L 270.087474 182.758222 
L 270.03984 182.484105 
L 269.996347 182.209988 
L 269.956997 181.93587 
L 269.921789 181.661753 
L 269.890723 181.387636 
L 269.863799 181.113518 
L 269.841017 180.839401 
L 269.822377 180.565284 
L 269.80788 180.291166 
L 269.797524 180.017049 
L 269.791311 179.742931 
L 269.78924 179.468814 
L 269.791311 179.194697 
L 269.797524 178.920579 
L 269.80788 178.646462 
L 269.822377 178.372345 
L 269.841017 178.098227 
L 269.863799 177.82411 
L 269.890723 177.549993 
L 269.921789 177.275875 
L 269.956997 177.001758 
L 269.996347 176.727641 
L 270.03984 176.453523 
L 270.087474 176.179406 
L 270.139251 175.905288 
L 270.19517 175.631171 
L 270.255231 175.357054 
L 270.319434 175.082936 
L 270.38778 174.808819 
L 270.460267 174.534702 
L 270.536897 174.260584 
L 270.617669 173.986467 
L 270.702583 173.71235 
L 270.791639 173.438232 
L 270.884837 173.164115 
L 270.982177 172.889997 
L 271.08366 172.61588 
L 271.189285 172.341763 
L 271.299051 172.067645 
L 271.41296 171.793528 
L 271.531012 171.519411 
L 271.653205 171.245293 
L 271.77954 170.971176 
L 271.910018 170.697059 
L 272.044637 170.422941 
L 272.183399 170.148824 
L 272.326303 169.874706 
L 272.473349 169.600589 
L 272.624538 169.326472 
L 272.779868 169.052354 
L 272.93934 168.778237 
L 273.102955 168.50412 
L 273.270712 168.230002 
L 273.442611 167.955885 
L 273.618652 167.681768 
L 273.798835 167.40765 
L 273.983161 167.133533 
L 274.171628 166.859416 
L 274.364238 166.585298 
L 274.56099 166.311181 
L 274.761884 166.037063 
L 274.96692 165.762946 
" style="fill:none;stroke:#0000ff;stroke-linecap:square;stroke-width:1.5;"/>
   </g>
   <g id="line2d_25">
    <path clip-path="url(#p32505f1b04)" d="M 302.378656 193.174682 
L 302.017177 192.8896 
L 301.660232 192.604518 
L 301.307821 192.319436 
L 300.959943 192.034354 
L 300.616599 191.749272 
L 300.277789 191.46419 
L 299.943513 191.179108 
L 299.61377 190.894026 
L 299.288561 190.608944 
L 298.967886 190.323862 
L 298.651745 190.03878 
L 298.340137 189.753697 
L 298.033063 189.468615 
L 297.730523 189.183533 
L 297.432516 188.898451 
L 297.139044 188.613369 
L 296.850105 188.328287 
L 296.565699 188.043205 
L 296.285828 187.758123 
L 296.01049 187.473041 
L 295.739686 187.187959 
L 295.473416 186.902877 
L 295.211679 186.617795 
L 294.954477 186.332713 
L 294.701808 186.047631 
L 294.453672 185.762549 
L 294.210071 185.477467 
L 293.971003 185.192385 
L 293.736469 184.907303 
L 293.506468 184.62222 
L 293.281002 184.337138 
L 293.060069 184.052056 
L 292.84367 183.766974 
L 292.631804 183.481892 
L 292.424473 183.19681 
L 292.221675 182.911728 
L 292.023411 182.626646 
L 291.82968 182.341564 
L 291.640484 182.056482 
L 291.455821 181.7714 
L 291.275691 181.486318 
L 291.100096 181.201236 
L 290.929034 180.916154 
L 290.762506 180.631072 
L 290.600512 180.34599 
L 290.443051 180.060908 
L 290.290125 179.775826 
L 290.141732 179.490743 
L 289.997872 179.205661 
L 289.858547 178.920579 
L 289.723755 178.635497 
L 289.593497 178.350415 
L 289.467773 178.065333 
L 289.346582 177.780251 
L 289.229925 177.495169 
L 289.117802 177.210087 
L 289.010213 176.925005 
L 288.907157 176.639923 
L 288.808635 176.354841 
L 288.714647 176.069759 
L 288.625193 175.784677 
L 288.540272 175.499595 
L 288.459885 175.214513 
L 288.384032 174.929431 
L 288.312712 174.644349 
L 288.245927 174.359267 
L 288.183675 174.074184 
L 288.125956 173.789102 
L 288.072772 173.50402 
L 288.024121 173.218938 
L 287.980004 172.933856 
L 287.940421 172.648774 
L 287.905371 172.363692 
L 287.874856 172.07861 
L 287.848874 171.793528 
L 287.827425 171.508446 
L 287.810511 171.223364 
L 287.79813 170.938282 
L 287.790283 170.6532 
L 287.786969 170.368118 
L 287.78819 170.083036 
L 287.793944 169.797954 
L 287.804232 169.512872 
L 287.819053 169.22779 
L 287.838409 168.942707 
L 287.862298 168.657625 
L 287.890721 168.372543 
L 287.923677 168.087461 
L 287.961168 167.802379 
L 288.003192 167.517297 
L 288.049749 167.232215 
L 288.100841 166.947133 
L 288.156466 166.662051 
L 288.216625 166.376969 
L 288.281318 166.091887 
L 288.350545 165.806805 
L 288.424305 165.521723 
L 288.502599 165.236641 
L 288.585427 164.951559 
L 288.672788 164.666477 
" style="fill:none;stroke:#ff0000;stroke-linecap:square;stroke-width:1.5;"/>
   </g>
   <g id="line2d_26">
    <path clip-path="url(#p32505f1b04)" d="M 302.378656 193.174682 
L 302.147775 192.878635 
L 301.921557 192.582589 
L 301.700004 192.286542 
L 301.483116 191.990495 
L 301.270891 191.694448 
L 301.063331 191.398402 
L 300.860435 191.102355 
L 300.662204 190.806308 
L 300.468637 190.510261 
L 300.279733 190.214215 
L 300.095495 189.918168 
L 299.91592 189.622121 
L 299.74101 189.326074 
L 299.570764 189.030028 
L 299.405182 188.733981 
L 299.244265 188.437934 
L 299.088012 188.141887 
L 298.936423 187.845841 
L 298.789498 187.549794 
L 298.647238 187.253747 
L 298.509642 186.9577 
L 298.37671 186.661654 
L 298.248443 186.365607 
L 298.12484 186.06956 
L 298.005901 185.773513 
L 297.891626 185.477467 
L 297.782016 185.18142 
L 297.67707 184.885373 
L 297.576788 184.589326 
L 297.48117 184.29328 
L 297.390217 183.997233 
L 297.303928 183.701186 
L 297.222303 183.405139 
L 297.145343 183.109093 
L 297.073046 182.813046 
L 297.005414 182.516999 
L 296.942447 182.220952 
L 296.884143 181.924906 
L 296.830504 181.628859 
L 296.781529 181.332812 
L 296.737219 181.036765 
L 296.697572 180.740719 
L 296.66259 180.444672 
L 296.632273 180.148625 
L 296.606619 179.852578 
L 296.58563 179.556532 
L 296.569305 179.260485 
L 296.557644 178.964438 
L 296.550648 178.668391 
L 296.548316 178.372345 
L 296.550648 178.076298 
L 296.557644 177.780251 
L 296.569305 177.484204 
L 296.58563 177.188158 
L 296.606619 176.892111 
L 296.632273 176.596064 
L 296.66259 176.300017 
L 296.697572 176.003971 
L 296.737219 175.707924 
L 296.781529 175.411877 
L 296.830504 175.11583 
L 296.884143 174.819784 
L 296.942447 174.523737 
L 297.005414 174.22769 
L 297.073046 173.931643 
L 297.145343 173.635597 
L 297.222303 173.33955 
L 297.303928 173.043503 
L 297.390217 172.747456 
L 297.48117 172.45141 
L 297.576788 172.155363 
L 297.67707 171.859316 
L 297.782016 171.563269 
L 297.891626 171.267223 
L 298.005901 170.971176 
L 298.12484 170.675129 
L 298.248443 170.379082 
L 298.37671 170.083036 
L 298.509642 169.786989 
L 298.647238 169.490942 
L 298.789498 169.194895 
L 298.936423 168.898849 
L 299.088012 168.602802 
L 299.244265 168.306755 
L 299.405182 168.010708 
L 299.570764 167.714662 
L 299.74101 167.418615 
L 299.91592 167.122568 
L 300.095495 166.826521 
L 300.279733 166.530475 
L 300.468637 166.234428 
L 300.662204 165.938381 
L 300.860435 165.642334 
L 301.063331 165.346288 
L 301.270891 165.050241 
L 301.483116 164.754194 
L 301.700004 164.458147 
L 301.921557 164.162101 
L 302.147775 163.866054 
L 302.378656 163.570007 
" style="fill:none;stroke:#0000ff;stroke-linecap:square;stroke-width:1.5;"/>
   </g>
   <g id="line2d_27">
    <path clip-path="url(#p32505f1b04)" d="M 331.983331 193.174682 
L 331.583491 192.866794 
L 331.188739 192.558905 
L 330.799074 192.251016 
L 330.414496 191.943128 
L 330.035005 191.635239 
L 329.660601 191.32735 
L 329.291285 191.019462 
L 328.927056 190.711573 
L 328.567914 190.403685 
L 328.213859 190.095796 
L 327.864891 189.787907 
L 327.521011 189.480019 
L 327.182218 189.17213 
L 326.848512 188.864241 
L 326.519893 188.556353 
L 326.196361 188.248464 
L 325.877917 187.940576 
L 325.564559 187.632687 
L 325.256289 187.324798 
L 324.953106 187.01691 
L 324.655011 186.709021 
L 324.362002 186.401133 
L 324.074081 186.093244 
L 323.791247 185.785355 
L 323.5135 185.477467 
L 323.24084 185.169578 
L 322.973268 184.861689 
L 322.710783 184.553801 
L 322.453385 184.245912 
L 322.201074 183.938024 
L 321.95385 183.630135 
L 321.711713 183.322246 
L 321.474664 183.014358 
L 321.242702 182.706469 
L 321.015827 182.39858 
L 320.794039 182.090692 
L 320.577339 181.782803 
L 320.365726 181.474915 
L 320.159199 181.167026 
L 319.957761 180.859137 
L 319.761409 180.551249 
L 319.570144 180.24336 
L 319.383967 179.935472 
L 319.202877 179.627583 
L 319.026874 179.319694 
L 318.855958 179.011806 
L 318.690129 178.703917 
L 318.529388 178.396028 
L 318.373734 178.08814 
L 318.223167 177.780251 
L 318.077687 177.472363 
L 317.937295 177.164474 
L 317.801989 176.856585 
L 317.671771 176.548697 
L 317.54664 176.240808 
L 317.426596 175.932919 
L 317.31164 175.625031 
L 317.20177 175.317142 
L 317.096988 175.009254 
L 316.997293 174.701365 
L 316.902685 174.393476 
L 316.813165 174.085588 
L 316.728731 173.777699 
L 316.649385 173.46981 
L 316.575126 173.161922 
L 316.505954 172.854033 
L 316.441869 172.546145 
L 316.382872 172.238256 
L 316.328962 171.930367 
L 316.280139 171.622479 
L 316.236403 171.31459 
L 316.197754 171.006702 
L 316.164193 170.698813 
L 316.135718 170.390924 
L 316.112331 170.083036 
L 316.094032 169.775147 
L 316.080819 169.467258 
L 316.072693 169.15937 
L 316.069655 168.851481 
L 316.071704 168.543593 
L 316.07884 168.235704 
L 316.091063 167.927815 
L 316.108374 167.619927 
L 316.130772 167.312038 
L 316.158257 167.004149 
L 316.190829 166.696261 
L 316.228488 166.388372 
L 316.271234 166.080484 
L 316.319068 165.772595 
L 316.371989 165.464706 
L 316.429997 165.156818 
L 316.493092 164.848929 
L 316.561275 164.541041 
L 316.634544 164.233152 
L 316.712901 163.925263 
L 316.796345 163.617375 
L 316.884877 163.309486 
L 316.978495 163.001597 
L 317.077201 162.693709 
L 317.180993 162.38582 
" style="fill:none;stroke:#ff0000;stroke-linecap:square;stroke-width:1.5;"/>
   </g>
   <g id="line2d_28">
    <path clip-path="url(#p32505f1b04)" d="M 331.983331 193.174682 
L 331.724536 192.854952 
L 331.47097 192.535221 
L 331.222632 192.215491 
L 330.979522 191.89576 
L 330.74164 191.57603 
L 330.508987 191.256299 
L 330.281561 190.936569 
L 330.059364 190.616838 
L 329.842395 190.297108 
L 329.630654 189.977377 
L 329.424141 189.657647 
L 329.222857 189.337916 
L 329.0268 189.018186 
L 328.835972 188.698455 
L 328.650372 188.378725 
L 328.47 188.058994 
L 328.294856 187.739264 
L 328.124941 187.419533 
L 327.960253 187.099803 
L 327.800794 186.780072 
L 327.646563 186.460342 
L 327.49756 186.140611 
L 327.353786 185.820881 
L 327.215239 185.50115 
L 327.081921 185.18142 
L 326.953831 184.861689 
L 326.830969 184.541959 
L 326.713335 184.222228 
L 326.600929 183.902498 
L 326.493752 183.582767 
L 326.391802 183.263037 
L 326.295081 182.943306 
L 326.203588 182.623576 
L 326.117323 182.303845 
L 326.036287 181.984115 
L 325.960478 181.664385 
L 325.889898 181.344654 
L 325.824546 181.024924 
L 325.764422 180.705193 
L 325.709526 180.385463 
L 325.659858 180.065732 
L 325.615419 179.746002 
L 325.576208 179.426271 
L 325.542224 179.106541 
L 325.51347 178.78681 
L 325.489943 178.46708 
L 325.471644 178.147349 
L 325.458574 177.827619 
L 325.450731 177.507888 
L 325.448117 177.188158 
L 325.450731 176.868427 
L 325.458574 176.548697 
L 325.471644 176.228966 
L 325.489943 175.909236 
L 325.51347 175.589505 
L 325.542224 175.269775 
L 325.576208 174.950044 
L 325.615419 174.630314 
L 325.659858 174.310583 
L 325.709526 173.990853 
L 325.764422 173.671122 
L 325.824546 173.351392 
L 325.889898 173.031661 
L 325.960478 172.711931 
L 326.036287 172.3922 
L 326.117323 172.07247 
L 326.203588 171.752739 
L 326.295081 171.433009 
L 326.391802 171.113278 
L 326.493752 170.793548 
L 326.600929 170.473817 
L 326.713335 170.154087 
L 326.830969 169.834356 
L 326.953831 169.514626 
L 327.081921 169.194895 
L 327.215239 168.875165 
L 327.353786 168.555434 
L 327.49756 168.235704 
L 327.646563 167.915973 
L 327.800794 167.596243 
L 327.960253 167.276513 
L 328.124941 166.956782 
L 328.294856 166.637052 
L 328.47 166.317321 
L 328.650372 165.997591 
L 328.835972 165.67786 
L 329.0268 165.35813 
L 329.222857 165.038399 
L 329.424141 164.718669 
L 329.630654 164.398938 
L 329.842395 164.079208 
L 330.059364 163.759477 
L 330.281561 163.439747 
L 330.508987 163.120016 
L 330.74164 162.800286 
L 330.979522 162.480555 
L 331.222632 162.160825 
L 331.47097 161.841094 
L 331.724536 161.521364 
L 331.983331 161.201633 
" style="fill:none;stroke:#0000ff;stroke-linecap:square;stroke-width:1.5;"/>
   </g>
   <g id="line2d_29">
    <path clip-path="url(#p32505f1b04)" d="M 363.95638 193.174682 
L 363.515111 192.842162 
L 363.079526 192.509643 
L 362.649627 192.177123 
L 362.225413 191.844603 
L 361.806883 191.512084 
L 361.394039 191.179564 
L 360.986879 190.847044 
L 360.585404 190.514524 
L 360.189614 190.182005 
L 359.79951 189.849485 
L 359.41509 189.516965 
L 359.036355 189.184446 
L 358.663305 188.851926 
L 358.295939 188.519406 
L 357.934259 188.186887 
L 357.578264 187.854367 
L 357.227954 187.521847 
L 356.883328 187.189327 
L 356.544388 186.856808 
L 356.211132 186.524288 
L 355.883561 186.191768 
L 355.561676 185.859249 
L 355.245475 185.526729 
L 354.934959 185.194209 
L 354.630128 184.861689 
L 354.330982 184.52917 
L 354.037521 184.19665 
L 353.749745 183.86413 
L 353.467654 183.531611 
L 353.191247 183.199091 
L 352.920526 182.866571 
L 352.65549 182.534051 
L 352.396138 182.201532 
L 352.142472 181.869012 
L 351.89449 181.536492 
L 351.652193 181.203973 
L 351.415581 180.871453 
L 351.184655 180.538933 
L 350.959413 180.206413 
L 350.739856 179.873894 
L 350.525984 179.541374 
L 350.317796 179.208854 
L 350.115294 178.876335 
L 349.918477 178.543815 
L 349.727345 178.211295 
L 349.541897 177.878776 
L 349.362135 177.546256 
L 349.188057 177.213736 
L 349.019664 176.881216 
L 348.856957 176.548697 
L 348.699934 176.216177 
L 348.548596 175.883657 
L 348.402943 175.551138 
L 348.262975 175.218618 
L 348.128692 174.886098 
L 348.000094 174.553578 
L 347.877181 174.221059 
L 347.759953 173.888539 
L 347.648409 173.556019 
L 347.542551 173.2235 
L 347.442377 172.89098 
L 347.347889 172.55846 
L 347.259085 172.22594 
L 347.175966 171.893421 
L 347.098533 171.560901 
L 347.026784 171.228381 
L 346.96072 170.895862 
L 346.900341 170.563342 
L 346.845647 170.230822 
L 346.796638 169.898303 
L 346.753313 169.565783 
L 346.715674 169.233263 
L 346.68372 168.900743 
L 346.65745 168.568224 
L 346.636866 168.235704 
L 346.621966 167.903184 
L 346.612752 167.570665 
L 346.609222 167.238145 
L 346.611377 166.905625 
L 346.619217 166.573105 
L 346.632742 166.240586 
L 346.651952 165.908066 
L 346.676847 165.575546 
L 346.707427 165.243027 
L 346.743692 164.910507 
L 346.785642 164.577987 
L 346.833276 164.245467 
L 346.886596 163.912948 
L 346.945601 163.580428 
L 347.01029 163.247908 
L 347.080664 162.915389 
L 347.156724 162.582869 
L 347.238468 162.250349 
L 347.325897 161.91783 
L 347.419011 161.58531 
L 347.51781 161.25279 
L 347.622294 160.92027 
L 347.732463 160.587751 
L 347.848317 160.255231 
L 347.969855 159.922711 
" style="fill:none;stroke:#ff0000;stroke-linecap:square;stroke-width:1.5;"/>
   </g>
   <g id="line2d_30">
    <path clip-path="url(#p32505f1b04)" d="M 363.95638 193.174682 
L 363.667439 192.829373 
L 363.384336 192.484064 
L 363.10707 192.138755 
L 362.835641 191.793446 
L 362.570049 191.448137 
L 362.310295 191.102829 
L 362.056377 190.75752 
L 361.808297 190.412211 
L 361.566054 190.066902 
L 361.329648 189.721593 
L 361.09908 189.376284 
L 360.874348 189.030975 
L 360.655454 188.685666 
L 360.442397 188.340357 
L 360.235177 187.995048 
L 360.033794 187.649739 
L 359.838248 187.30443 
L 359.64854 186.959121 
L 359.464669 186.613812 
L 359.286635 186.268504 
L 359.114438 185.923195 
L 358.948078 185.577886 
L 358.787556 185.232577 
L 358.632871 184.887268 
L 358.484022 184.541959 
L 358.341011 184.19665 
L 358.203838 183.851341 
L 358.072501 183.506032 
L 357.947002 183.160723 
L 357.82734 182.815414 
L 357.713514 182.470105 
L 357.605527 182.124796 
L 357.503376 181.779487 
L 357.407062 181.434179 
L 357.316586 181.08887 
L 357.231947 180.743561 
L 357.153145 180.398252 
L 357.08018 180.052943 
L 357.013053 179.707634 
L 356.951762 179.362325 
L 356.896309 179.017016 
L 356.846693 178.671707 
L 356.802914 178.326398 
L 356.764973 177.981089 
L 356.732868 177.63578 
L 356.706601 177.290471 
L 356.686171 176.945162 
L 356.671578 176.599854 
L 356.662822 176.254545 
L 356.659903 175.909236 
L 356.662822 175.563927 
L 356.671578 175.218618 
L 356.686171 174.873309 
L 356.706601 174.528 
L 356.732868 174.182691 
L 356.764973 173.837382 
L 356.802914 173.492073 
L 356.846693 173.146764 
L 356.896309 172.801455 
L 356.951762 172.456146 
L 357.013053 172.110838 
L 357.08018 171.765529 
L 357.153145 171.42022 
L 357.231947 171.074911 
L 357.316586 170.729602 
L 357.407062 170.384293 
L 357.503376 170.038984 
L 357.605527 169.693675 
L 357.713514 169.348366 
L 357.82734 169.003057 
L 357.947002 168.657748 
L 358.072501 168.312439 
L 358.203838 167.96713 
L 358.341011 167.621821 
L 358.484022 167.276513 
L 358.632871 166.931204 
L 358.787556 166.585895 
L 358.948078 166.240586 
L 359.114438 165.895277 
L 359.286635 165.549968 
L 359.464669 165.204659 
L 359.64854 164.85935 
L 359.838248 164.514041 
L 360.033794 164.168732 
L 360.235177 163.823423 
L 360.442397 163.478114 
L 360.655454 163.132805 
L 360.874348 162.787496 
L 361.09908 162.442188 
L 361.329648 162.096879 
L 361.566054 161.75157 
L 361.808297 161.406261 
L 362.056377 161.060952 
L 362.310295 160.715643 
L 362.570049 160.370334 
L 362.835641 160.025025 
L 363.10707 159.679716 
L 363.384336 159.334407 
L 363.667439 158.989098 
L 363.95638 158.643789 
" style="fill:none;stroke:#0000ff;stroke-linecap:square;stroke-width:1.5;"/>
   </g>
   <g id="line2d_31">
    <path clip-path="url(#p32505f1b04)" d="M 398.487273 193.174682 
L 398.00126 192.815561 
L 397.521577 192.45644 
L 397.048225 192.097318 
L 396.581203 191.738197 
L 396.120511 191.379076 
L 395.666151 191.019954 
L 395.21812 190.660833 
L 394.77642 190.301712 
L 394.341051 189.942591 
L 393.912012 189.583469 
L 393.489304 189.224348 
L 393.072926 188.865227 
L 392.662878 188.506105 
L 392.259161 188.146984 
L 391.861775 187.787863 
L 391.470719 187.428742 
L 391.085993 187.06962 
L 390.707598 186.710499 
L 390.335534 186.351378 
L 389.9698 185.992256 
L 389.610396 185.633135 
L 389.257323 185.274014 
L 388.91058 184.914893 
L 388.570168 184.555771 
L 388.236086 184.19665 
L 387.908335 183.837529 
L 387.586914 183.478407 
L 387.271824 183.119286 
L 386.963064 182.760165 
L 386.660635 182.401044 
L 386.364536 182.041922 
L 386.074768 181.682801 
L 385.79133 181.32368 
L 385.514223 180.964558 
L 385.243446 180.605437 
L 384.978999 180.246316 
L 384.720883 179.887195 
L 384.469098 179.528073 
L 384.223643 179.168952 
L 383.984518 178.809831 
L 383.751724 178.450709 
L 383.525261 178.091588 
L 383.305128 177.732467 
L 383.091325 177.373346 
L 382.883853 177.014224 
L 382.682711 176.655103 
L 382.4879 176.295982 
L 382.29942 175.93686 
L 382.117269 175.577739 
L 381.94145 175.218618 
L 381.771961 174.859497 
L 381.608802 174.500375 
L 381.451974 174.141254 
L 381.301476 173.782133 
L 381.157308 173.423011 
L 381.019472 173.06389 
L 380.887965 172.704769 
L 380.762789 172.345648 
L 380.643944 171.986526 
L 380.531429 171.627405 
L 380.425245 171.268284 
L 380.325391 170.909162 
L 380.231867 170.550041 
L 380.144674 170.19092 
L 380.063812 169.831799 
L 379.98928 169.472677 
L 379.921078 169.113556 
L 379.859207 168.754435 
L 379.803667 168.395313 
L 379.754456 168.036192 
L 379.711577 167.677071 
L 379.675028 167.31795 
L 379.644809 166.958828 
L 379.620921 166.599707 
L 379.603363 166.240586 
L 379.592136 165.881464 
L 379.587239 165.522343 
L 379.588673 165.163222 
L 379.596437 164.804101 
L 379.610532 164.444979 
L 379.630957 164.085858 
L 379.657713 163.726737 
L 379.690799 163.367615 
L 379.730215 163.008494 
L 379.775962 162.649373 
L 379.82804 162.290252 
L 379.886448 161.93113 
L 379.951187 161.572009 
L 380.022256 161.212888 
L 380.099655 160.853766 
L 380.183385 160.494645 
L 380.273445 160.135524 
L 380.369836 159.776403 
L 380.472558 159.417281 
L 380.58161 159.05816 
L 380.696992 158.699039 
L 380.818705 158.339917 
L 380.946748 157.980796 
L 381.081122 157.621675 
L 381.221826 157.262554 
" style="fill:none;stroke:#ff0000;stroke-linecap:square;stroke-width:1.5;"/>
   </g>
   <g id="line2d_32">
    <path clip-path="url(#p32505f1b04)" d="M 398.487273 193.174682 
L 398.165775 192.801748 
L 397.850771 192.428815 
L 397.542263 192.055881 
L 397.24025 191.682948 
L 396.944731 191.310014 
L 396.655707 190.93708 
L 396.373179 190.564147 
L 396.097145 190.191213 
L 395.827606 189.818279 
L 395.564562 189.445346 
L 395.308013 189.072412 
L 395.057959 188.699478 
L 394.8144 188.326545 
L 394.577335 187.953611 
L 394.346766 187.580677 
L 394.122691 187.207744 
L 393.905112 186.83481 
L 393.694027 186.461877 
L 393.489437 186.088943 
L 393.291343 185.716009 
L 393.099743 185.343076 
L 392.914638 184.970142 
L 392.736028 184.597208 
L 392.563912 184.224275 
L 392.398292 183.851341 
L 392.239167 183.478407 
L 392.086536 183.105474 
L 391.940401 182.73254 
L 391.80076 182.359606 
L 391.667614 181.986673 
L 391.540964 181.613739 
L 391.420808 181.240806 
L 391.307147 180.867872 
L 391.199981 180.494938 
L 391.09931 180.122005 
L 391.005133 179.749071 
L 390.917452 179.376137 
L 390.836266 179.003204 
L 390.761574 178.63027 
L 390.693378 178.257336 
L 390.631676 177.884403 
L 390.576469 177.511469 
L 390.527757 177.138535 
L 390.48554 176.765602 
L 390.449818 176.392668 
L 390.420591 176.019735 
L 390.397859 175.646801 
L 390.381622 175.273867 
L 390.371879 174.900934 
L 390.368632 174.528 
L 390.371879 174.155066 
L 390.381622 173.782133 
L 390.397859 173.409199 
L 390.420591 173.036265 
L 390.449818 172.663332 
L 390.48554 172.290398 
L 390.527757 171.917465 
L 390.576469 171.544531 
L 390.631676 171.171597 
L 390.693378 170.798664 
L 390.761574 170.42573 
L 390.836266 170.052796 
L 390.917452 169.679863 
L 391.005133 169.306929 
L 391.09931 168.933995 
L 391.199981 168.561062 
L 391.307147 168.188128 
L 391.420808 167.815194 
L 391.540964 167.442261 
L 391.667614 167.069327 
L 391.80076 166.696394 
L 391.940401 166.32346 
L 392.086536 165.950526 
L 392.239167 165.577593 
L 392.398292 165.204659 
L 392.563912 164.831725 
L 392.736028 164.458792 
L 392.914638 164.085858 
L 393.099743 163.712924 
L 393.291343 163.339991 
L 393.489437 162.967057 
L 393.694027 162.594123 
L 393.905112 162.22119 
L 394.122691 161.848256 
L 394.346766 161.475323 
L 394.577335 161.102389 
L 394.8144 160.729455 
L 395.057959 160.356522 
L 395.308013 159.983588 
L 395.564562 159.610654 
L 395.827606 159.237721 
L 396.097145 158.864787 
L 396.373179 158.491853 
L 396.655707 158.11892 
L 396.944731 157.745986 
L 397.24025 157.373052 
L 397.542263 157.000119 
L 397.850771 156.627185 
L 398.165775 156.254252 
L 398.487273 155.881318 
" style="fill:none;stroke:#0000ff;stroke-linecap:square;stroke-width:1.5;"/>
   </g>
  </g>
 </g>
 <defs>
  <clipPath id="p32505f1b04">
   <rect height="41.022701" width="357.12" x="57.6" y="154.01665"/>
  </clipPath>
 </defs>
</svg>
