<?xml version="1.0" encoding="UTF-8" standalone="no"?>
<!DOCTYPE svg PUBLIC "-//W3C//DTD SVG 1.1//EN" "http://www.w3.org/Graphics/SVG/1.1/DTD/svg11.dtd">
<svg width="100%" height="100%" viewBox="0 0 1000 1000" version="1.1" xmlns="http://www.w3.org/2000/svg" xmlns:xlink="http://www.w3.org/1999/xlink" xml:space="preserve" xmlns:serif="http://www.serif.com/" style="fill-rule:evenodd;clip-rule:evenodd;stroke-linecap:round;stroke-linejoin:round;stroke-miterlimit:1.5;">
    <path d="M499.934,3.408C773.818,3.408 993.089,227.927 993.089,502.067C993.089,776.206 773.946,999.678 500.063,999.678" style="fill:none;stroke:black;stroke-width:1px;"/>
    <path d="M27.464,1.533L27.464,0M25.93,0L25.93,1.533" style="fill-rule:nonzero;stroke:rgb(0,0,0);stroke-width:1px;stroke-linecap:butt;stroke-linejoin:miter;stroke-miterlimit:4;"/>
    <path d="M500,501.533L500,1000" style="fill:none;fill-rule:nonzero;stroke:black;stroke-width:1px;stroke-linecap:butt;stroke-linejoin:miter;stroke-miterlimit:4;"/>
    <path d="M500,501.533L792.991,904.801" style="fill:none;fill-rule:nonzero;stroke:rgb(255,0,0);stroke-width:1px;stroke-linecap:butt;stroke-linejoin:miter;stroke-miterlimit:4;"/>
    <path d="M500,501.533L967.968,654.372" style="fill:none;fill-rule:nonzero;stroke:rgb(255,0,0);stroke-width:1px;stroke-linecap:butt;stroke-linejoin:miter;stroke-miterlimit:4;"/>
    <path d="M500,501.533L969.109,349.598" style="fill:none;fill-rule:nonzero;stroke:rgb(255,0,0);stroke-width:1px;stroke-linecap:butt;stroke-linejoin:miter;stroke-miterlimit:4;"/>
    <path d="M500,501.533L791.616,99.97" style="fill:none;fill-rule:nonzero;stroke:rgb(255,0,0);stroke-width:1px;stroke-linecap:butt;stroke-linejoin:miter;stroke-miterlimit:4;"/>
    <path d="M500,501.533L500,3.067" style="fill:none;fill-rule:nonzero;stroke:black;stroke-width:1px;stroke-linecap:butt;stroke-linejoin:miter;stroke-miterlimit:4;"/>
    <path d="M500,501.533L505.466,512.262M505.466,512.262L521.865,544.447M521.865,544.447L542.67,584.081M542.67,584.081L561.457,617.473M561.457,617.473L577.649,642.83M577.649,642.83L592.088,662.728M592.088,662.728L605.648,682.748M605.648,682.748L617.826,704.242M617.826,704.242L627.453,726.502M627.453,726.502L633.587,749.524M633.587,749.524L637.69,774.833M637.69,774.833L640.411,801.454M640.411,801.454L642.031,827.271M642.031,827.271L642.718,849.832M642.718,849.832L642.939,870.094M642.939,870.094L642.984,888.48M642.984,888.48L643.332,978.208" style="fill-rule:nonzero;stroke:rgb(0,0,255);stroke-width:1px;stroke-linecap:butt;stroke-linejoin:miter;stroke-miterlimit:4;"/>
    <path d="M500,501.533L510.728,507M510.728,507L542.913,523.399M542.913,523.399L583.041,543.235M583.041,543.235L617.867,559.207M617.867,559.207L645.871,570.204M645.871,570.204L669.249,577.815M669.249,577.815L691.986,586.041M691.986,586.041L714.472,596.272M714.472,596.272L735.345,608.622M735.345,608.622L753.839,623.641M753.839,623.641L772.035,641.706M772.035,641.706L789.884,661.642M789.884,661.642L806.369,681.577M806.369,681.577L820.186,699.425M820.186,699.425L832.274,715.688M832.274,715.688L843.118,730.536M843.118,730.536L893.863,801.884" style="fill-rule:nonzero;stroke:rgb(0,0,255);stroke-width:1px;stroke-linecap:butt;stroke-linejoin:miter;stroke-miterlimit:4;"/>
    <path d="M500,501.533L511.893,499.65M511.893,499.65L547.57,494M547.57,494L591.693,486.461M591.693,486.461L629.256,478.912M629.256,478.912L658.376,471.348M658.376,471.348L681.762,463.764M681.762,463.764L704.992,457.055M704.992,457.055L729.197,452.115M729.197,452.115L753.343,449.838M753.343,449.838L777.133,451.118M777.133,451.118L802.472,455.037M802.472,455.037L828.63,460.675M828.63,460.675L853.684,467.113M853.684,467.113L875.353,473.431M875.353,473.431L894.693,479.482M894.693,479.482L912.193,485.12M912.193,485.12L993.041,512.699" style="fill-rule:nonzero;stroke:rgb(0,0,255);stroke-width:1px;stroke-linecap:butt;stroke-linejoin:miter;stroke-miterlimit:4;"/>
    <path d="M500,501.533L508.514,493.019M508.514,493.019L534.057,467.477M534.057,467.477L565.322,435.443M565.322,435.443L591.273,407.258M591.273,407.258L610.386,384.022M610.386,384.022L624.849,364.14M624.849,364.14L639.699,345.058M639.699,345.058L656.377,326.834M656.377,326.834L674.573,310.799M674.573,310.799L694.572,297.852M694.572,297.852L717.375,286.129M717.375,286.129L741.852,275.314M741.852,275.314L765.905,265.796M765.905,265.796L787.149,258.171M787.149,258.171L806.352,251.699M806.352,251.699L823.824,245.974M823.824,245.974L904.941,217.61" style="fill-rule:nonzero;stroke:rgb(0,0,255);stroke-width:1px;stroke-linecap:butt;stroke-linejoin:miter;stroke-miterlimit:4;"/>
    <path d="M500,501.533L501.884,489.641M501.884,489.641L507.535,453.963M507.535,453.963L514,409.67M514,409.67L518.428,371.613M518.428,371.613L520.233,341.581M520.233,341.581L520.247,316.996M520.247,316.996L521.045,292.83M521.045,292.83L523.826,268.282M523.826,268.282L529.122,244.615M529.122,244.615L537.691,222.385M537.691,222.385L549.248,199.497M549.248,199.497L562.694,176.361M562.694,176.361L576.558,154.523M576.558,154.523L589.263,135.867M589.263,135.867L600.995,119.344M600.995,119.344L611.765,104.443M611.765,104.443L669.675,33.896" style="fill-rule:nonzero;stroke:rgb(0,0,255);stroke-width:1px;stroke-linecap:butt;stroke-linejoin:miter;stroke-miterlimit:4;"/>
    <path d="M500.063,999.678C500.563,924.731 499.892,134.879 499.934,3.408" style="fill:rgb(0,0,0);stroke:black;stroke-width:1px;"/>
</svg>
