<?xml version="1.0" encoding="utf-8" standalone="no"?>
<!DOCTYPE svg PUBLIC "-//W3C//DTD SVG 1.1//EN"
  "http://www.w3.org/Graphics/SVG/1.1/DTD/svg11.dtd">
<!-- Created with matplotlib (http://matplotlib.org/) -->
<svg height="345pt" version="1.1" viewBox="0 0 460 345" width="460pt" xmlns="http://www.w3.org/2000/svg" xmlns:xlink="http://www.w3.org/1999/xlink">
 <defs>
  <style type="text/css">
*{stroke-linecap:butt;stroke-linejoin:round;}
  </style>
 </defs>
 <g id="figure_1">
  <g id="patch_1">
   <path d="M 0 345.6 
L 460.8 345.6 
L 460.8 0 
L 0 0 
z
" style="fill:#ffffff;"/>
  </g>
  <g id="axes_1">
   <g id="patch_2">
    <path clip-path="url(#p77514201cc)" d="M 68.389939 193.174682 
L 68.389939 182.289105 
L 398.487273 155.881318 
L 435.780637 193.174682 
z
" style="fill:#ffffff;stroke:#000000;stroke-linejoin:miter;"/>
   </g>
   <g id="line2d_1">
    <path clip-path="url(#p77514201cc)" d="M 79.275516 193.174682 
L 79.274972 193.17355 
L 79.273339 193.170154 
L 79.270618 193.164493 
L 79.266808 193.156569 
L 79.261909 193.14638 
L 79.255922 193.133927 
L 79.248846 193.119209 
L 79.240682 193.102228 
L 79.231429 193.082982 
L 79.221088 193.061472 
L 79.209658 193.037698 
L 79.19714 193.01166 
L 79.183533 192.983357 
L 79.168837 192.952791 
L 79.153053 192.91996 
L 79.136181 192.884865 
L 79.118219 192.847505 
L 79.09917 192.807882 
L 79.079031 192.765994 
L 79.057804 192.721842 
L 79.035489 192.675426 
L 79.012085 192.626746 
L 78.987593 192.575801 
L 78.962011 192.522592 
L 78.935342 192.46712 
L 78.907584 192.409382 
L 78.878737 192.349381 
L 78.848801 192.287116 
L 78.817778 192.222586 
L 78.785665 192.155792 
L 78.752464 192.086734 
L 78.718174 192.015412 
L 78.682796 191.941825 
L 78.64633 191.865974 
L 78.608774 191.78786 
L 78.570131 191.70748 
L 78.530398 191.624837 
L 78.489577 191.53993 
L 78.447668 191.452758 
L 78.40467 191.363322 
L 78.360583 191.271622 
L 78.315408 191.177658 
L 78.269144 191.081429 
L 78.221792 190.982936 
L 78.173351 190.88218 
L 78.123822 190.779158 
L 78.073204 190.673873 
L 78.021498 190.566324 
L 77.968702 190.45651 
L 77.914819 190.344432 
L 77.859847 190.23009 
L 77.803786 190.113484 
L 77.746637 189.994613 
L 77.688399 189.873478 
L 77.629072 189.750079 
L 77.568657 189.624416 
L 77.507154 189.496489 
L 77.444562 189.366298 
L 77.380881 189.233842 
L 77.316112 189.099122 
L 77.250254 188.962138 
L 77.183308 188.822889 
L 77.115273 188.681377 
L 77.04615 188.5376 
L 76.975938 188.391559 
L 76.904637 188.243254 
L 76.832248 188.092685 
L 76.758771 187.939851 
L 76.684204 187.784754 
L 76.60855 187.627392 
L 76.531806 187.467766 
L 76.453974 187.305875 
L 76.375054 187.141721 
L 76.295045 186.975302 
L 76.213947 186.806619 
L 76.131761 186.635672 
L 76.048487 186.462461 
L 75.964123 186.286985 
L 75.878672 186.109246 
L 75.792131 185.929242 
L 75.704502 185.746974 
L 75.615785 185.562441 
L 75.525979 185.375645 
L 75.435084 185.186584 
L 75.343101 184.995259 
L 75.250029 184.80167 
L 75.155869 184.605817 
L 75.06062 184.407699 
L 74.964283 184.207318 
L 74.866857 184.004672 
L 74.768343 183.799762 
L 74.66874 183.592587 
L 74.568048 183.383149 
L 74.466268 183.171446 
L 74.363399 182.957479 
L 74.259442 182.741248 
L 74.154396 182.522753 
L 74.048262 182.301993 
L 73.941039 182.078969 
L 73.832727 181.853682 
" style="fill:none;stroke:#ff0000;stroke-linecap:square;stroke-width:1.5;"/>
   </g>
   <g id="line2d_2">
    <path clip-path="url(#p77514201cc)" d="M 79.275516 193.174682 
L 79.275516 193.173506 
L 79.275516 193.16998 
L 79.275516 193.164101 
L 79.275516 193.155872 
L 79.275516 193.145291 
L 79.275516 193.132359 
L 79.275516 193.117076 
L 79.275516 193.099441 
L 79.275516 193.079455 
L 79.275516 193.057118 
L 79.275516 193.032429 
L 79.275516 193.00539 
L 79.275516 192.975999 
L 79.275516 192.944256 
L 79.275516 192.910163 
L 79.275516 192.873718 
L 79.275516 192.834921 
L 79.275516 192.793774 
L 79.275516 192.750275 
L 79.275516 192.704425 
L 79.275516 192.656224 
L 79.275516 192.605671 
L 79.275516 192.552767 
L 79.275516 192.497512 
L 79.275516 192.439906 
L 79.275516 192.379948 
L 79.275516 192.317639 
L 79.275516 192.252979 
L 79.275516 192.185967 
L 79.275516 192.116604 
L 79.275516 192.04489 
L 79.275516 191.970824 
L 79.275516 191.894408 
L 79.275516 191.81564 
L 79.275516 191.73452 
L 79.275516 191.65105 
L 79.275516 191.565228 
L 79.275516 191.477055 
L 79.275516 191.38653 
L 79.275516 191.293654 
L 79.275516 191.198427 
L 79.275516 191.100849 
L 79.275516 191.000919 
L 79.275516 190.898639 
L 79.275516 190.794006 
L 79.275516 190.687023 
L 79.275516 190.577688 
L 79.275516 190.466002 
L 79.275516 190.351965 
L 79.275516 190.235576 
L 79.275516 190.116836 
L 79.275516 189.995745 
L 79.275516 189.872303 
L 79.275516 189.746509 
L 79.275516 189.618364 
L 79.275516 189.487868 
L 79.275516 189.35502 
L 79.275516 189.219821 
L 79.275516 189.082271 
L 79.275516 188.94237 
L 79.275516 188.800117 
L 79.275516 188.655513 
L 79.275516 188.508558 
L 79.275516 188.359251 
L 79.275516 188.207593 
L 79.275516 188.053584 
L 79.275516 187.897224 
L 79.275516 187.738512 
L 79.275516 187.577449 
L 79.275516 187.414035 
L 79.275516 187.248269 
L 79.275516 187.080152 
L 79.275516 186.909684 
L 79.275516 186.736864 
L 79.275516 186.561694 
L 79.275516 186.384172 
L 79.275516 186.204299 
L 79.275516 186.022074 
L 79.275516 185.837498 
L 79.275516 185.650571 
L 79.275516 185.461293 
L 79.275516 185.269663 
L 79.275516 185.075682 
L 79.275516 184.87935 
L 79.275516 184.680666 
L 79.275516 184.479631 
L 79.275516 184.276245 
L 79.275516 184.070508 
L 79.275516 183.862419 
L 79.275516 183.651979 
L 79.275516 183.439188 
L 79.275516 183.224045 
L 79.275516 183.006551 
L 79.275516 182.786706 
L 79.275516 182.56451 
L 79.275516 182.339962 
L 79.275516 182.113063 
L 79.275516 181.883813 
L 79.275516 181.652211 
L 79.275516 181.418258 
" style="fill:none;stroke:#0000ff;stroke-linecap:square;stroke-width:1.5;"/>
   </g>
   <g id="line2d_3">
    <path clip-path="url(#p77514201cc)" d="M 91.03194 193.174682 
L 91.031352 193.173459 
L 91.029588 193.169791 
L 91.026649 193.163678 
L 91.022535 193.155119 
L 91.017244 193.144115 
L 91.010778 193.130666 
L 91.003137 193.114771 
L 90.994319 193.096431 
L 90.984326 193.075646 
L 90.973158 193.052415 
L 90.960813 193.026739 
L 90.947294 192.998618 
L 90.932598 192.968051 
L 90.916727 192.935039 
L 90.89968 192.899582 
L 90.881458 192.861679 
L 90.862059 192.821331 
L 90.841486 192.778538 
L 90.819736 192.733299 
L 90.796811 192.685615 
L 90.772711 192.635486 
L 90.747434 192.582911 
L 90.720982 192.527891 
L 90.693355 192.470425 
L 90.664552 192.410515 
L 90.634573 192.348159 
L 90.603418 192.283357 
L 90.571088 192.21611 
L 90.537582 192.146418 
L 90.502901 192.074281 
L 90.467044 191.999698 
L 90.430011 191.92267 
L 90.391803 191.843197 
L 90.352418 191.761278 
L 90.311859 191.676914 
L 90.270124 191.590104 
L 90.227213 191.50085 
L 90.183126 191.409149 
L 90.137864 191.315004 
L 90.091426 191.218413 
L 90.043812 191.119377 
L 89.995023 191.017896 
L 89.945058 190.913969 
L 89.893918 190.807597 
L 89.841602 190.698779 
L 89.78811 190.587517 
L 89.733443 190.473808 
L 89.6776 190.357655 
L 89.620581 190.239056 
L 89.562387 190.118012 
L 89.503017 189.994522 
L 89.442471 189.868588 
L 89.38075 189.740208 
L 89.317853 189.609382 
L 89.253781 189.476111 
L 89.188533 189.340395 
L 89.122109 189.202234 
L 89.054509 189.061627 
L 88.985734 188.918575 
L 88.915784 188.773077 
L 88.844657 188.625134 
L 88.772355 188.474746 
L 88.698877 188.321913 
L 88.624224 188.166634 
L 88.548395 188.00891 
L 88.471391 187.84874 
L 88.39321 187.686125 
L 88.313855 187.521065 
L 88.233323 187.353559 
L 88.151616 187.183609 
L 88.068733 187.011212 
L 87.984675 186.836371 
L 87.899441 186.659084 
L 87.813031 186.479352 
L 87.725446 186.297174 
L 87.636685 186.112551 
L 87.546748 185.925483 
L 87.455636 185.73597 
L 87.363348 185.544011 
L 87.269884 185.349606 
L 87.175245 185.152757 
L 87.07943 184.953462 
L 86.98244 184.751722 
L 86.884273 184.547536 
L 86.784932 184.340905 
L 86.684414 184.131829 
L 86.582721 183.920308 
L 86.479853 183.706341 
L 86.375808 183.489928 
L 86.270588 183.271071 
L 86.164193 183.049768 
L 86.056621 182.82602 
L 85.947874 182.599826 
L 85.837952 182.371187 
L 85.726854 182.140103 
L 85.61458 181.906573 
L 85.50113 181.670598 
L 85.386505 181.432178 
L 85.270704 181.191312 
L 85.153728 180.948001 
" style="fill:none;stroke:#ff0000;stroke-linecap:square;stroke-width:1.5;"/>
   </g>
   <g id="line2d_4">
    <path clip-path="url(#p77514201cc)" d="M 91.03194 193.174682 
L 91.03194 193.173412 
L 91.03194 193.169603 
L 91.03194 193.163255 
L 91.03194 193.154367 
L 91.03194 193.14294 
L 91.03194 193.128973 
L 91.03194 193.112467 
L 91.03194 193.093422 
L 91.03194 193.071837 
L 91.03194 193.047713 
L 91.03194 193.021049 
L 91.03194 192.991846 
L 91.03194 192.960104 
L 91.03194 192.925822 
L 91.03194 192.889001 
L 91.03194 192.849641 
L 91.03194 192.807741 
L 91.03194 192.763301 
L 91.03194 192.716323 
L 91.03194 192.666805 
L 91.03194 192.614747 
L 91.03194 192.56015 
L 91.03194 192.503014 
L 91.03194 192.443339 
L 91.03194 192.381124 
L 91.03194 192.316369 
L 91.03194 192.249075 
L 91.03194 192.179242 
L 91.03194 192.10687 
L 91.03194 192.031958 
L 91.03194 191.954506 
L 91.03194 191.874516 
L 91.03194 191.791986 
L 91.03194 191.706916 
L 91.03194 191.619307 
L 91.03194 191.529159 
L 91.03194 191.436471 
L 91.03194 191.341244 
L 91.03194 191.243478 
L 91.03194 191.143172 
L 91.03194 191.040327 
L 91.03194 190.934942 
L 91.03194 190.827018 
L 91.03194 190.716555 
L 91.03194 190.603552 
L 91.03194 190.48801 
L 91.03194 190.369929 
L 91.03194 190.249308 
L 91.03194 190.126147 
L 91.03194 190.000448 
L 91.03194 189.872209 
L 91.03194 189.74143 
L 91.03194 189.608112 
L 91.03194 189.472255 
L 91.03194 189.333859 
L 91.03194 189.192922 
L 91.03194 189.049447 
L 91.03194 188.903432 
L 91.03194 188.754878 
L 91.03194 188.603785 
L 91.03194 188.450152 
L 91.03194 188.293979 
L 91.03194 188.135268 
L 91.03194 187.974016 
L 91.03194 187.810226 
L 91.03194 187.643896 
L 91.03194 187.475027 
L 91.03194 187.303618 
L 91.03194 187.12967 
L 91.03194 186.953183 
L 91.03194 186.774156 
L 91.03194 186.59259 
L 91.03194 186.408484 
L 91.03194 186.221839 
L 91.03194 186.032655 
L 91.03194 185.840931 
L 91.03194 185.646668 
L 91.03194 185.449865 
L 91.03194 185.250523 
L 91.03194 185.048642 
L 91.03194 184.844221 
L 91.03194 184.637261 
L 91.03194 184.427762 
L 91.03194 184.215723 
L 91.03194 184.001145 
L 91.03194 183.784027 
L 91.03194 183.56437 
L 91.03194 183.342174 
L 91.03194 183.117438 
L 91.03194 182.890163 
L 91.03194 182.660348 
L 91.03194 182.427994 
L 91.03194 182.193101 
L 91.03194 181.955668 
L 91.03194 181.715696 
L 91.03194 181.473184 
L 91.03194 181.228134 
L 91.03194 180.980543 
L 91.03194 180.730414 
L 91.03194 180.477745 
" style="fill:none;stroke:#0000ff;stroke-linecap:square;stroke-width:1.5;"/>
   </g>
   <g id="line2d_5">
    <path clip-path="url(#p77514201cc)" d="M 103.728877 193.174682 
L 103.728243 193.173362 
L 103.726338 193.1694 
L 103.723164 193.162798 
L 103.71872 193.153554 
L 103.713006 193.14167 
L 103.706023 193.127145 
L 103.69777 193.109979 
L 103.688247 193.090171 
L 103.677455 193.067723 
L 103.665393 193.042634 
L 103.652061 193.014904 
L 103.637459 192.984533 
L 103.621588 192.951521 
L 103.604447 192.915868 
L 103.586037 192.877574 
L 103.566357 192.836639 
L 103.545407 192.793063 
L 103.523187 192.746846 
L 103.499698 192.697988 
L 103.474939 192.64649 
L 103.44891 192.59235 
L 103.421612 192.535569 
L 103.393043 192.476147 
L 103.363206 192.414085 
L 103.332098 192.349381 
L 103.299721 192.282037 
L 103.266074 192.212051 
L 103.231157 192.139425 
L 103.194971 192.064157 
L 103.157515 191.986249 
L 103.11879 191.905699 
L 103.078794 191.822509 
L 103.037529 191.736678 
L 102.994994 191.648206 
L 102.95119 191.557092 
L 102.906116 191.463338 
L 102.859772 191.366943 
L 102.812159 191.267907 
L 102.763275 191.16623 
L 102.713122 191.061912 
L 102.6617 190.954953 
L 102.609008 190.845353 
L 102.555046 190.733112 
L 102.499814 190.61823 
L 102.443312 190.500707 
L 102.385541 190.380543 
L 102.326501 190.257738 
L 102.26619 190.132293 
L 102.20461 190.004206 
L 102.14176 189.873478 
L 102.077641 189.74011 
L 102.012251 189.6041 
L 101.945593 189.46545 
L 101.877664 189.324158 
L 101.808466 189.180226 
L 101.737998 189.033652 
L 101.66626 188.884438 
L 101.593253 188.732582 
L 101.518975 188.578086 
L 101.443429 188.420949 
L 101.366612 188.26117 
L 101.288526 188.098751 
L 101.20917 187.933691 
L 101.128545 187.76599 
L 101.046649 187.595648 
L 100.963484 187.422665 
L 100.87905 187.247041 
L 100.793345 187.068776 
L 100.706371 186.88787 
L 100.618128 186.704323 
L 100.528614 186.518135 
L 100.437831 186.329306 
L 100.345778 186.137836 
L 100.252456 185.943725 
L 100.157864 185.746974 
L 100.062002 185.547581 
L 99.96487 185.345547 
L 99.866469 185.140873 
L 99.766798 184.933557 
L 99.665857 184.7236 
L 99.563647 184.511003 
L 99.460167 184.295764 
L 99.355417 184.077885 
L 99.249398 183.857365 
L 99.142109 183.634203 
L 99.03355 183.408401 
L 98.923721 183.179958 
L 98.812623 182.948873 
L 98.700255 182.715148 
L 98.586618 182.478782 
L 98.47171 182.239775 
L 98.355533 181.998127 
L 98.238087 181.753838 
L 98.11937 181.506907 
L 97.999384 181.257336 
L 97.878129 181.005125 
L 97.755603 180.750272 
L 97.631808 180.492778 
L 97.506743 180.232643 
L 97.380409 179.969867 
" style="fill:none;stroke:#ff0000;stroke-linecap:square;stroke-width:1.5;"/>
   </g>
   <g id="line2d_6">
    <path clip-path="url(#p77514201cc)" d="M 103.728877 193.174682 
L 103.728877 193.173311 
L 103.728877 193.169197 
L 103.728877 193.162341 
L 103.728877 193.152742 
L 103.728877 193.1404 
L 103.728877 193.125316 
L 103.728877 193.10749 
L 103.728877 193.086921 
L 103.728877 193.063609 
L 103.728877 193.037555 
L 103.728877 193.008759 
L 103.728877 192.977219 
L 103.728877 192.942938 
L 103.728877 192.905913 
L 103.728877 192.866147 
L 103.728877 192.823637 
L 103.728877 192.778385 
L 103.728877 192.730391 
L 103.728877 192.679654 
L 103.728877 192.626174 
L 103.728877 192.569952 
L 103.728877 192.510988 
L 103.728877 192.449281 
L 103.728877 192.384831 
L 103.728877 192.317639 
L 103.728877 192.247704 
L 103.728877 192.175027 
L 103.728877 192.099607 
L 103.728877 192.021445 
L 103.728877 191.94054 
L 103.728877 191.856892 
L 103.728877 191.770502 
L 103.728877 191.68137 
L 103.728877 191.589495 
L 103.728877 191.494877 
L 103.728877 191.397517 
L 103.728877 191.297415 
L 103.728877 191.194569 
L 103.728877 191.088982 
L 103.728877 190.980651 
L 103.728877 190.869579 
L 103.728877 190.755763 
L 103.728877 190.639205 
L 103.728877 190.519905 
L 103.728877 190.397862 
L 103.728877 190.273076 
L 103.728877 190.145548 
L 103.728877 190.015278 
L 103.728877 189.882265 
L 103.728877 189.746509 
L 103.728877 189.608011 
L 103.728877 189.46677 
L 103.728877 189.322787 
L 103.728877 189.176061 
L 103.728877 189.026593 
L 103.728877 188.874382 
L 103.728877 188.719428 
L 103.728877 188.561732 
L 103.728877 188.401294 
L 103.728877 188.238113 
L 103.728877 188.072189 
L 103.728877 187.903523 
L 103.728877 187.732114 
L 103.728877 187.557963 
L 103.728877 187.381069 
L 103.728877 187.201433 
L 103.728877 187.019054 
L 103.728877 186.833933 
L 103.728877 186.646069 
L 103.728877 186.455463 
L 103.728877 186.262114 
L 103.728877 186.066022 
L 103.728877 185.867188 
L 103.728877 185.665612 
L 103.728877 185.461293 
L 103.728877 185.254231 
L 103.728877 185.044427 
L 103.728877 184.83188 
L 103.728877 184.616591 
L 103.728877 184.398559 
L 103.728877 184.177784 
L 103.728877 183.954268 
L 103.728877 183.728008 
L 103.728877 183.499006 
L 103.728877 183.267262 
L 103.728877 183.032775 
L 103.728877 182.795545 
L 103.728877 182.555573 
L 103.728877 182.312858 
L 103.728877 182.067401 
L 103.728877 181.819201 
L 103.728877 181.568259 
L 103.728877 181.314574 
L 103.728877 181.058147 
L 103.728877 180.798977 
L 103.728877 180.537065 
L 103.728877 180.27241 
L 103.728877 180.005012 
L 103.728877 179.734872 
L 103.728877 179.461989 
" style="fill:none;stroke:#0000ff;stroke-linecap:square;stroke-width:1.5;"/>
   </g>
   <g id="line2d_7">
    <path clip-path="url(#p77514201cc)" d="M 117.44157 193.174682 
L 117.440884 193.173256 
L 117.438828 193.168978 
L 117.435399 193.161847 
L 117.4306 193.151864 
L 117.424429 193.139029 
L 117.416887 193.123342 
L 117.407974 193.104802 
L 117.397689 193.08341 
L 117.386034 193.059166 
L 117.373007 193.03207 
L 117.358608 193.002122 
L 117.342839 192.969321 
L 117.325698 192.933668 
L 117.307186 192.895163 
L 117.287302 192.853805 
L 117.266048 192.809595 
L 117.243422 192.762533 
L 117.219424 192.712619 
L 117.194056 192.659853 
L 117.167316 192.604234 
L 117.139205 192.545763 
L 117.109723 192.48444 
L 117.078869 192.420265 
L 117.046645 192.353237 
L 117.013048 192.283357 
L 116.978081 192.210625 
L 116.941742 192.135041 
L 116.904033 192.056604 
L 116.864951 191.975315 
L 116.824499 191.891174 
L 116.782675 191.804181 
L 116.73948 191.714335 
L 116.694914 191.621637 
L 116.648976 191.526087 
L 116.601668 191.427685 
L 116.552988 191.326431 
L 116.502936 191.222324 
L 116.451514 191.115365 
L 116.39872 191.005554 
L 116.344555 190.89289 
L 116.289018 190.777374 
L 116.232111 190.659006 
L 116.173832 190.537786 
L 116.114181 190.413714 
L 116.05316 190.286789 
L 115.990767 190.157012 
L 115.927003 190.024383 
L 115.861868 189.888902 
L 115.795361 189.750568 
L 115.727483 189.609382 
L 115.658234 189.465344 
L 115.587614 189.318454 
L 115.515622 189.168711 
L 115.442259 189.016116 
L 115.367525 188.860669 
L 115.29142 188.70237 
L 115.213943 188.541218 
L 115.135095 188.377214 
L 115.054876 188.210358 
L 114.973285 188.04065 
L 114.890324 187.868089 
L 114.805991 187.692677 
L 114.720286 187.514412 
L 114.633211 187.333294 
L 114.544764 187.149325 
L 114.454946 186.962503 
L 114.363756 186.772829 
L 114.271196 186.580303 
L 114.177264 186.384925 
L 114.08196 186.186694 
L 113.985286 185.985611 
L 113.88724 185.781676 
L 113.787823 185.574888 
L 113.687035 185.365249 
L 113.584875 185.152757 
L 113.481344 184.937413 
L 113.376442 184.719216 
L 113.270169 184.498168 
L 113.162524 184.274267 
L 113.053508 184.047514 
L 112.943121 183.817909 
L 112.831363 183.585451 
L 112.718233 183.350141 
L 112.603732 183.111979 
L 112.48786 182.870965 
L 112.370616 182.627098 
L 112.252002 182.38038 
L 112.132015 182.130809 
L 112.010658 181.878385 
L 111.88793 181.62311 
L 111.76383 181.364982 
L 111.638359 181.104002 
L 111.511516 180.84017 
L 111.383302 180.573486 
L 111.253718 180.303949 
L 111.122761 180.03156 
L 110.990434 179.756319 
L 110.856735 179.478225 
L 110.721665 179.19728 
L 110.585224 178.913482 
" style="fill:none;stroke:#ff0000;stroke-linecap:square;stroke-width:1.5;"/>
   </g>
   <g id="line2d_8">
    <path clip-path="url(#p77514201cc)" d="M 117.44157 193.174682 
L 117.44157 193.173201 
L 117.44157 193.168758 
L 117.44157 193.161353 
L 117.44157 193.150987 
L 117.44157 193.137658 
L 117.44157 193.121367 
L 117.44157 193.102115 
L 117.44157 193.0799 
L 117.44157 193.054724 
L 117.44157 193.026585 
L 117.44157 192.995485 
L 117.44157 192.961422 
L 117.44157 192.924398 
L 117.44157 192.884412 
L 117.44157 192.841464 
L 117.44157 192.795554 
L 117.44157 192.746682 
L 117.44157 192.694848 
L 117.44157 192.640052 
L 117.44157 192.582294 
L 117.44157 192.521574 
L 117.44157 192.457892 
L 117.44157 192.391249 
L 117.44157 192.321643 
L 117.44157 192.249075 
L 117.44157 192.173546 
L 117.44157 192.095054 
L 117.44157 192.013601 
L 117.44157 191.929186 
L 117.44157 191.841808 
L 117.44157 191.751469 
L 117.44157 191.658168 
L 117.44157 191.561905 
L 117.44157 191.46268 
L 117.44157 191.360493 
L 117.44157 191.255344 
L 117.44157 191.147233 
L 117.44157 191.03616 
L 117.44157 190.922126 
L 117.44157 190.805129 
L 117.44157 190.68517 
L 117.44157 190.56225 
L 117.44157 190.436367 
L 117.44157 190.307523 
L 117.44157 190.175716 
L 117.44157 190.040948 
L 117.44157 189.903218 
L 117.44157 189.762525 
L 117.44157 189.618871 
L 117.44157 189.472255 
L 117.44157 189.322677 
L 117.44157 189.170137 
L 117.44157 189.014635 
L 117.44157 188.856171 
L 117.44157 188.694745 
L 117.44157 188.530358 
L 117.44157 188.363008 
L 117.44157 188.192696 
L 117.44157 188.019423 
L 117.44157 187.843187 
L 117.44157 187.66399 
L 117.44157 187.48183 
L 117.44157 187.296709 
L 117.44157 187.108626 
L 117.44157 186.91758 
L 117.44157 186.723573 
L 117.44157 186.526604 
L 117.44157 186.326673 
L 117.44157 186.12378 
L 117.44157 185.917925 
L 117.44157 185.709108 
L 117.44157 185.497329 
L 117.44157 185.282589 
L 117.44157 185.064886 
L 117.44157 184.844221 
L 117.44157 184.620595 
L 117.44157 184.394006 
L 117.44157 184.164456 
L 117.44157 183.931943 
L 117.44157 183.696469 
L 117.44157 183.458033 
L 117.44157 183.216634 
L 117.44157 182.972274 
L 117.44157 182.724952 
L 117.44157 182.474668 
L 117.44157 182.221422 
L 117.44157 181.965214 
L 117.44157 181.706044 
L 117.44157 181.443912 
L 117.44157 181.178819 
L 117.44157 180.910763 
L 117.44157 180.639745 
L 117.44157 180.365766 
L 117.44157 180.088824 
L 117.44157 179.808921 
L 117.44157 179.526055 
L 117.44157 179.240228 
L 117.44157 178.951439 
L 117.44157 178.659687 
L 117.44157 178.364974 
" style="fill:none;stroke:#0000ff;stroke-linecap:square;stroke-width:1.5;"/>
   </g>
   <g id="line2d_9">
    <path clip-path="url(#p77514201cc)" d="M 132.251278 193.174682 
L 132.250538 193.173142 
L 132.248316 193.168521 
L 132.244614 193.16082 
L 132.23943 193.150039 
L 132.232766 193.136177 
L 132.224621 193.119235 
L 132.214994 193.099212 
L 132.203887 193.076109 
L 132.191299 193.049925 
L 132.17723 193.020661 
L 132.161679 192.988317 
L 132.144648 192.952892 
L 132.126136 192.914387 
L 132.106143 192.872801 
L 132.084669 192.828135 
L 132.061714 192.780388 
L 132.037278 192.729562 
L 132.011361 192.675654 
L 131.983963 192.618666 
L 131.955084 192.558598 
L 131.924724 192.49545 
L 131.892883 192.429221 
L 131.859561 192.359911 
L 131.824759 192.287521 
L 131.788475 192.212051 
L 131.75071 192.1335 
L 131.711464 192.051869 
L 131.670738 191.967158 
L 131.62853 191.879366 
L 131.584841 191.788493 
L 131.539672 191.694541 
L 131.493021 191.597507 
L 131.44489 191.497394 
L 131.395277 191.3942 
L 131.344183 191.287925 
L 131.291609 191.17857 
L 131.237554 191.066135 
L 131.182017 190.950619 
L 131.125 190.832023 
L 131.066501 190.710347 
L 131.006522 190.58559 
L 130.945062 190.457752 
L 130.882121 190.326835 
L 130.817698 190.192836 
L 130.751795 190.055758 
L 130.684411 189.915599 
L 130.615546 189.772359 
L 130.5452 189.626039 
L 130.473373 189.476639 
L 130.400065 189.324158 
L 130.325276 189.168597 
L 130.249006 189.009955 
L 130.171255 188.848233 
L 130.092023 188.683431 
L 130.01131 188.515548 
L 129.929116 188.344585 
L 129.845441 188.170541 
L 129.760285 187.993417 
L 129.673648 187.813212 
L 129.585531 187.629927 
L 129.495932 187.443562 
L 129.404852 187.254116 
L 129.312292 187.06159 
L 129.21825 186.865983 
L 129.122727 186.667296 
L 129.025724 186.465529 
L 128.927239 186.260681 
L 128.827274 186.052753 
L 128.725827 185.841744 
L 128.6229 185.627655 
L 128.518491 185.410485 
L 128.412602 185.190235 
L 128.305231 184.966905 
L 128.19638 184.740494 
L 128.086048 184.511003 
L 127.974234 184.278431 
L 127.86094 184.042779 
L 127.746165 183.804047 
L 127.629909 183.562234 
L 127.512172 183.31734 
L 127.392953 183.069367 
L 127.272254 182.818313 
L 127.150074 182.564178 
L 127.026413 182.306963 
L 126.901271 182.046668 
L 126.774648 181.783292 
L 126.646544 181.516835 
L 126.516959 181.247299 
L 126.385893 180.974682 
L 126.253346 180.698984 
L 126.119318 180.420206 
L 125.98381 180.138348 
L 125.84682 179.853409 
L 125.708349 179.56539 
L 125.568397 179.27429 
L 125.426965 178.98011 
L 125.284051 178.68285 
L 125.139656 178.382509 
L 124.993781 178.079087 
L 124.846424 177.772586 
" style="fill:none;stroke:#ff0000;stroke-linecap:square;stroke-width:1.5;"/>
   </g>
   <g id="line2d_10">
    <path clip-path="url(#p77514201cc)" d="M 132.251278 193.174682 
L 132.251278 193.173083 
L 132.251278 193.168284 
L 132.251278 193.160287 
L 132.251278 193.149091 
L 132.251278 193.134696 
L 132.251278 193.117102 
L 132.251278 193.096309 
L 132.251278 193.072317 
L 132.251278 193.045127 
L 132.251278 193.014737 
L 132.251278 192.981149 
L 132.251278 192.944362 
L 132.251278 192.904375 
L 132.251278 192.86119 
L 132.251278 192.814806 
L 132.251278 192.765223 
L 132.251278 192.712442 
L 132.251278 192.656461 
L 132.251278 192.597281 
L 132.251278 192.534903 
L 132.251278 192.469325 
L 132.251278 192.400549 
L 132.251278 192.328574 
L 132.251278 192.2534 
L 132.251278 192.175027 
L 132.251278 192.093455 
L 132.251278 192.008684 
L 132.251278 191.920715 
L 132.251278 191.829546 
L 132.251278 191.735179 
L 132.251278 191.637612 
L 132.251278 191.536847 
L 132.251278 191.432883 
L 132.251278 191.32572 
L 132.251278 191.215358 
L 132.251278 191.101797 
L 132.251278 190.985037 
L 132.251278 190.865079 
L 132.251278 190.741921 
L 132.251278 190.615565 
L 132.251278 190.486009 
L 132.251278 190.353255 
L 132.251278 190.217302 
L 132.251278 190.07815 
L 132.251278 189.935799 
L 132.251278 189.790249 
L 132.251278 189.6415 
L 132.251278 189.489553 
L 132.251278 189.334406 
L 132.251278 189.176061 
L 132.251278 189.014517 
L 132.251278 188.849773 
L 132.251278 188.681831 
L 132.251278 188.51069 
L 132.251278 188.336351 
L 132.251278 188.158812 
L 132.251278 187.978074 
L 132.251278 187.794137 
L 132.251278 187.607002 
L 132.251278 187.416668 
L 132.251278 187.223134 
L 132.251278 187.026402 
L 132.251278 186.826471 
L 132.251278 186.623341 
L 132.251278 186.417012 
L 132.251278 186.207485 
L 132.251278 185.994758 
L 132.251278 185.778832 
L 132.251278 185.559708 
L 132.251278 185.337385 
L 132.251278 185.111862 
L 132.251278 184.883141 
L 132.251278 184.651221 
L 132.251278 184.416102 
L 132.251278 184.177784 
L 132.251278 183.936268 
L 132.251278 183.691552 
L 132.251278 183.443638 
L 132.251278 183.192524 
L 132.251278 182.938212 
L 132.251278 182.680701 
L 132.251278 182.419991 
L 132.251278 182.156082 
L 132.251278 181.888974 
L 132.251278 181.618667 
L 132.251278 181.345161 
L 132.251278 181.068457 
L 132.251278 180.788553 
L 132.251278 180.505451 
L 132.251278 180.21915 
L 132.251278 179.929649 
L 132.251278 179.63695 
L 132.251278 179.341052 
L 132.251278 179.041955 
L 132.251278 178.73966 
L 132.251278 178.434165 
L 132.251278 178.125471 
L 132.251278 177.813579 
L 132.251278 177.498488 
L 132.251278 177.180197 
" style="fill:none;stroke:#0000ff;stroke-linecap:square;stroke-width:1.5;"/>
   </g>
   <g id="line2d_11">
    <path clip-path="url(#p77514201cc)" d="M 148.245763 193.174682 
L 148.244963 193.173019 
L 148.242564 193.168028 
L 148.238565 193.159711 
L 148.232967 193.148067 
L 148.22577 193.133096 
L 148.216973 193.114799 
L 148.206576 193.093174 
L 148.19458 193.068223 
L 148.180985 193.039945 
L 148.16579 193.008339 
L 148.148996 192.973408 
L 148.130603 192.935149 
L 148.110609 192.893563 
L 148.089017 192.848651 
L 148.065825 192.800411 
L 148.041033 192.748845 
L 148.014643 192.693952 
L 147.986652 192.635732 
L 147.957062 192.574185 
L 147.925873 192.509312 
L 147.893084 192.441111 
L 147.858696 192.369584 
L 147.822709 192.29473 
L 147.785122 192.216549 
L 147.745935 192.135041 
L 147.705149 192.050206 
L 147.662764 191.962044 
L 147.618779 191.870556 
L 147.573195 191.775741 
L 147.526011 191.677598 
L 147.477228 191.576129 
L 147.426845 191.471333 
L 147.374863 191.363211 
L 147.321282 191.251761 
L 147.266101 191.136985 
L 147.20932 191.018882 
L 147.15094 190.897451 
L 147.090961 190.772694 
L 147.029382 190.644611 
L 146.966204 190.5132 
L 146.901426 190.378462 
L 146.835049 190.240398 
L 146.767073 190.099007 
L 146.697497 189.954289 
L 146.626321 189.806244 
L 146.553546 189.654872 
L 146.479172 189.500173 
L 146.403198 189.342148 
L 146.325625 189.180795 
L 146.246452 189.016116 
L 146.16568 188.84811 
L 146.083308 188.676777 
L 145.999337 188.502117 
L 145.913767 188.324131 
L 145.826597 188.142817 
L 145.737828 187.958177 
L 145.647459 187.77021 
L 145.55549 187.578916 
L 145.461923 187.384295 
L 145.366756 187.186347 
L 145.269989 186.985072 
L 145.171623 186.780471 
L 145.071657 186.572543 
L 144.970092 186.361288 
L 144.866928 186.146706 
L 144.762164 185.928797 
L 144.655801 185.707561 
L 144.547838 185.482998 
L 144.438276 185.255109 
L 144.327114 185.023893 
L 144.214353 184.78935 
L 144.099992 184.55148 
L 143.984032 184.310283 
L 143.866473 184.065759 
L 143.747314 183.817909 
L 143.626556 183.566731 
L 143.504198 183.312227 
L 143.380241 183.054396 
L 143.254684 182.793238 
L 143.127528 182.528753 
L 142.998772 182.260941 
L 142.868417 181.989803 
L 142.736463 181.715338 
L 142.602909 181.437545 
L 142.467755 181.156426 
L 142.331002 180.87198 
L 142.19265 180.584208 
L 142.052698 180.293108 
L 141.911147 179.998682 
L 141.767997 179.700928 
L 141.623246 179.399848 
L 141.476897 179.095441 
L 141.328948 178.787707 
L 141.179399 178.476646 
L 141.028252 178.162259 
L 140.875504 177.844544 
L 140.721157 177.523503 
L 140.565211 177.199135 
L 140.407666 176.87144 
L 140.24852 176.540418 
" style="fill:none;stroke:#ff0000;stroke-linecap:square;stroke-width:1.5;"/>
   </g>
   <g id="line2d_12">
    <path clip-path="url(#p77514201cc)" d="M 148.245763 193.174682 
L 148.245763 193.172955 
L 148.245763 193.167773 
L 148.245763 193.159135 
L 148.245763 193.147044 
L 148.245763 193.131497 
L 148.245763 193.112496 
L 148.245763 193.090039 
L 148.245763 193.064128 
L 148.245763 193.034762 
L 148.245763 193.001942 
L 148.245763 192.965666 
L 148.245763 192.925936 
L 148.245763 192.882751 
L 148.245763 192.836111 
L 148.245763 192.786016 
L 148.245763 192.732467 
L 148.245763 192.675462 
L 148.245763 192.615003 
L 148.245763 192.551089 
L 148.245763 192.48372 
L 148.245763 192.412897 
L 148.245763 192.338618 
L 148.245763 192.260885 
L 148.245763 192.179697 
L 148.245763 192.095054 
L 148.245763 192.006957 
L 148.245763 191.915404 
L 148.245763 191.820397 
L 148.245763 191.721935 
L 148.245763 191.620018 
L 148.245763 191.514647 
L 148.245763 191.40582 
L 148.245763 191.293539 
L 148.245763 191.177803 
L 148.245763 191.058612 
L 148.245763 190.935966 
L 148.245763 190.809866 
L 148.245763 190.68031 
L 148.245763 190.5473 
L 148.245763 190.410835 
L 148.245763 190.270915 
L 148.245763 190.127541 
L 148.245763 189.980711 
L 148.245763 189.830427 
L 148.245763 189.676688 
L 148.245763 189.519495 
L 148.245763 189.358846 
L 148.245763 189.194743 
L 148.245763 189.027184 
L 148.245763 188.856171 
L 148.245763 188.681703 
L 148.245763 188.503781 
L 148.245763 188.322403 
L 148.245763 188.137571 
L 148.245763 187.949284 
L 148.245763 187.757542 
L 148.245763 187.562345 
L 148.245763 187.363694 
L 148.245763 187.161588 
L 148.245763 186.956026 
L 148.245763 186.747011 
L 148.245763 186.53454 
L 148.245763 186.318614 
L 148.245763 186.099234 
L 148.245763 185.876399 
L 148.245763 185.650109 
L 148.245763 185.420364 
L 148.245763 185.187164 
L 148.245763 184.95051 
L 148.245763 184.710401 
L 148.245763 184.466837 
L 148.245763 184.219818 
L 148.245763 183.969344 
L 148.245763 183.715416 
L 148.245763 183.458033 
L 148.245763 183.197195 
L 148.245763 182.932902 
L 148.245763 182.665154 
L 148.245763 182.393952 
L 148.245763 182.119294 
L 148.245763 181.841182 
L 148.245763 181.559615 
L 148.245763 181.274594 
L 148.245763 180.986117 
L 148.245763 180.694186 
L 148.245763 180.3988 
L 148.245763 180.099959 
L 148.245763 179.797663 
L 148.245763 179.491912 
L 148.245763 179.182707 
L 148.245763 178.870047 
L 148.245763 178.553932 
L 148.245763 178.234362 
L 148.245763 177.911337 
L 148.245763 177.584858 
L 148.245763 177.254924 
L 148.245763 176.921535 
L 148.245763 176.584691 
L 148.245763 176.244392 
L 148.245763 175.900639 
" style="fill:none;stroke:#0000ff;stroke-linecap:square;stroke-width:1.5;"/>
   </g>
   <g id="line2d_13">
    <path clip-path="url(#p77514201cc)" d="M 165.519806 193.174682 
L 165.518943 193.172886 
L 165.516351 193.167496 
L 165.512033 193.158514 
L 165.505987 193.145938 
L 165.498214 193.12977 
L 165.488713 193.110008 
L 165.477485 193.086654 
L 165.464529 193.059706 
L 165.449846 193.029166 
L 165.433436 192.995032 
L 165.415298 192.957306 
L 165.395433 192.915986 
L 165.373841 192.871074 
L 165.350521 192.822568 
L 165.325473 192.77047 
L 165.298699 192.714778 
L 165.270196 192.655493 
L 165.239967 192.592616 
L 165.20801 192.526145 
L 165.174325 192.456082 
L 165.138914 192.382425 
L 165.101774 192.305176 
L 165.062908 192.224333 
L 165.022314 192.139898 
L 164.979992 192.051869 
L 164.935944 191.960248 
L 164.890167 191.865033 
L 164.842664 191.766226 
L 164.793433 191.663825 
L 164.742474 191.557832 
L 164.689789 191.448245 
L 164.635375 191.335066 
L 164.579235 191.218293 
L 164.521367 191.097928 
L 164.461771 190.973969 
L 164.400448 190.846417 
L 164.337398 190.715273 
L 164.27262 190.580535 
L 164.206115 190.442205 
L 164.137883 190.300281 
L 164.067923 190.154765 
L 163.996236 190.005655 
L 163.922821 189.852953 
L 163.847679 189.696657 
L 163.770809 189.536769 
L 163.692213 189.373287 
L 163.611888 189.206212 
L 163.529836 189.035545 
L 163.446057 188.861284 
L 163.360551 188.683431 
L 163.273317 188.501984 
L 163.184356 188.316945 
L 163.093667 188.128312 
L 163.001251 187.936087 
L 162.907107 187.740268 
L 162.811236 187.540856 
L 162.713638 187.337852 
L 162.614312 187.131254 
L 162.513259 186.921064 
L 162.410478 186.70728 
L 162.305971 186.489904 
L 162.199735 186.268934 
L 162.091772 186.044372 
L 161.982082 185.816216 
L 161.870665 185.584467 
L 161.75752 185.349126 
L 161.642647 185.110191 
L 161.526047 184.867664 
L 161.40772 184.621543 
L 161.287666 184.37183 
L 161.165884 184.118523 
L 161.042374 183.861623 
L 160.917137 183.601131 
L 160.790173 183.337045 
L 160.661482 183.069367 
L 160.531063 182.798095 
L 160.398916 182.523231 
L 160.265042 182.244773 
L 160.129441 181.962722 
L 159.992112 181.677079 
L 159.853056 181.387842 
L 159.712273 181.095013 
L 159.569762 180.79859 
L 159.425524 180.498574 
L 159.279558 180.194966 
L 159.131865 179.887764 
L 158.982445 179.57697 
L 158.831297 179.262582 
L 158.678421 178.944602 
L 158.523819 178.623028 
L 158.367489 178.297861 
L 158.209431 177.969102 
L 158.049646 177.636749 
L 157.888134 177.300804 
L 157.724894 176.961265 
L 157.559927 176.618133 
L 157.393233 176.271409 
L 157.224811 175.921091 
L 157.054661 175.567181 
L 156.882785 175.209677 
" style="fill:none;stroke:#ff0000;stroke-linecap:square;stroke-width:1.5;"/>
   </g>
   <g id="line2d_14">
    <path clip-path="url(#p77514201cc)" d="M 165.519806 193.174682 
L 165.519806 193.172817 
L 165.519806 193.16722 
L 165.519806 193.157892 
L 165.519806 193.144833 
L 165.519806 193.128042 
L 165.519806 193.107521 
L 165.519806 193.083268 
L 165.519806 193.055284 
L 165.519806 193.023569 
L 165.519806 192.988122 
L 165.519806 192.948945 
L 165.519806 192.906036 
L 165.519806 192.859396 
L 165.519806 192.809025 
L 165.519806 192.754923 
L 165.519806 192.697089 
L 165.519806 192.635525 
L 165.519806 192.570229 
L 165.519806 192.501202 
L 165.519806 192.428443 
L 165.519806 192.351954 
L 165.519806 192.271733 
L 165.519806 192.187781 
L 165.519806 192.100098 
L 165.519806 192.008684 
L 165.519806 191.913539 
L 165.519806 191.814662 
L 165.519806 191.712054 
L 165.519806 191.605715 
L 165.519806 191.495645 
L 165.519806 191.381844 
L 165.519806 191.264311 
L 165.519806 191.143047 
L 165.519806 191.018052 
L 165.519806 190.889326 
L 165.519806 190.756869 
L 165.519806 190.62068 
L 165.519806 190.480761 
L 165.519806 190.33711 
L 165.519806 190.189727 
L 165.519806 190.038614 
L 165.519806 189.88377 
L 165.519806 189.725194 
L 165.519806 189.562887 
L 165.519806 189.396849 
L 165.519806 189.22708 
L 165.519806 189.053579 
L 165.519806 188.876347 
L 165.519806 188.695384 
L 165.519806 188.51069 
L 165.519806 188.322265 
L 165.519806 188.130109 
L 165.519806 187.934221 
L 165.519806 187.734602 
L 165.519806 187.531252 
L 165.519806 187.324171 
L 165.519806 187.113358 
L 165.519806 186.898815 
L 165.519806 186.68054 
L 165.519806 186.458534 
L 165.519806 186.232797 
L 165.519806 186.003328 
L 165.519806 185.770129 
L 165.519806 185.533198 
L 165.519806 185.292536 
L 165.519806 185.048143 
L 165.519806 184.800019 
L 165.519806 184.548163 
L 165.519806 184.292576 
L 165.519806 184.033258 
L 165.519806 183.770209 
L 165.519806 183.503429 
L 165.519806 183.232917 
L 165.519806 182.958675 
L 165.519806 182.680701 
L 165.519806 182.398996 
L 165.519806 182.113559 
L 165.519806 181.824392 
L 165.519806 181.531493 
L 165.519806 181.234863 
L 165.519806 180.934502 
L 165.519806 180.63041 
L 165.519806 180.322586 
L 165.519806 180.011032 
L 165.519806 179.695746 
L 165.519806 179.376729 
L 165.519806 179.053981 
L 165.519806 178.727501 
L 165.519806 178.397291 
L 165.519806 178.063349 
L 165.519806 177.725676 
L 165.519806 177.384272 
L 165.519806 177.039136 
L 165.519806 176.69027 
L 165.519806 176.337672 
L 165.519806 175.981343 
L 165.519806 175.621283 
L 165.519806 175.257491 
L 165.519806 174.889969 
L 165.519806 174.518715 
" style="fill:none;stroke:#0000ff;stroke-linecap:square;stroke-width:1.5;"/>
   </g>
   <g id="line2d_15">
    <path clip-path="url(#p77514201cc)" d="M 184.175773 193.174682 
L 184.17484 193.172742 
L 184.172042 193.166921 
L 184.167378 193.15722 
L 184.160848 193.143639 
L 184.152453 193.126177 
L 184.142193 193.104834 
L 184.130066 193.079611 
L 184.116074 193.050508 
L 184.100217 193.017524 
L 184.082493 192.98066 
L 184.062905 192.939915 
L 184.04145 192.89529 
L 184.01813 192.846785 
L 183.992945 192.794399 
L 183.965894 192.738133 
L 183.936977 192.677986 
L 183.906195 192.613958 
L 183.873547 192.546051 
L 183.839033 192.474263 
L 183.802654 192.398594 
L 183.764409 192.319045 
L 183.724299 192.235615 
L 183.682323 192.148305 
L 183.638481 192.057115 
L 183.592774 191.962044 
L 183.545202 191.863093 
L 183.495763 191.760261 
L 183.444459 191.653549 
L 183.39129 191.542957 
L 183.336255 191.428484 
L 183.279354 191.31013 
L 183.220588 191.187896 
L 183.159956 191.061782 
L 183.097458 190.931787 
L 183.033095 190.797912 
L 182.966867 190.660156 
L 182.898772 190.51852 
L 182.828812 190.373004 
L 182.756987 190.223607 
L 182.683296 190.070329 
L 182.607739 189.913171 
L 182.530317 189.752133 
L 182.451029 189.587214 
L 182.369876 189.418415 
L 182.286857 189.245735 
L 182.201972 189.069175 
L 182.115222 188.888735 
L 182.026606 188.704414 
L 181.936124 188.516213 
L 181.843777 188.324131 
L 181.749565 188.128168 
L 181.653487 187.928326 
L 181.555543 187.724603 
L 181.455733 187.516999 
L 181.354058 187.305515 
L 181.250518 187.09015 
L 181.145111 186.870906 
L 181.03784 186.64778 
L 180.928702 186.420774 
L 180.817699 186.189888 
L 180.704831 185.955121 
L 180.590096 185.716474 
L 180.473497 185.473947 
L 180.355031 185.227539 
L 180.2347 184.97725 
L 180.112504 184.723081 
L 179.988441 184.465032 
L 179.862514 184.203102 
L 179.73472 183.937292 
L 179.605061 183.667601 
L 179.473537 183.39403 
L 179.340147 183.116579 
L 179.204891 182.835247 
L 179.06777 182.550034 
L 178.928783 182.260941 
L 178.78793 181.967968 
L 178.645212 181.671114 
L 178.500628 181.37038 
L 178.354179 181.065766 
L 178.205864 180.757271 
L 178.055683 180.444895 
L 177.903637 180.128639 
L 177.749725 179.808503 
L 177.593948 179.484486 
L 177.436305 179.156589 
L 177.276797 178.824811 
L 177.115423 178.489153 
L 176.952183 178.149614 
L 176.787078 177.806195 
L 176.620107 177.458896 
L 176.45127 177.107716 
L 176.280568 176.752655 
L 176.108 176.393714 
L 175.933567 176.030893 
L 175.757268 175.664192 
L 175.579104 175.293609 
L 175.399074 174.919147 
L 175.217178 174.540804 
L 175.033417 174.15858 
L 174.84779 173.772476 
" style="fill:none;stroke:#ff0000;stroke-linecap:square;stroke-width:1.5;"/>
   </g>
   <g id="line2d_16">
    <path clip-path="url(#p77514201cc)" d="M 184.175773 193.174682 
L 184.175773 193.172667 
L 184.175773 193.166623 
L 184.175773 193.156549 
L 184.175773 193.142445 
L 184.175773 193.124311 
L 184.175773 193.102148 
L 184.175773 193.075955 
L 184.175773 193.045732 
L 184.175773 193.01148 
L 184.175773 192.973198 
L 184.175773 192.930886 
L 184.175773 192.884545 
L 184.175773 192.834173 
L 184.175773 192.779773 
L 184.175773 192.721342 
L 184.175773 192.658882 
L 184.175773 192.592392 
L 184.175773 192.521873 
L 184.175773 192.447323 
L 184.175773 192.368744 
L 184.175773 192.286136 
L 184.175773 192.199497 
L 184.175773 192.108829 
L 184.175773 192.014132 
L 184.175773 191.915404 
L 184.175773 191.812647 
L 184.175773 191.705861 
L 184.175773 191.595044 
L 184.175773 191.480198 
L 184.175773 191.361322 
L 184.175773 191.238417 
L 184.175773 191.111481 
L 184.175773 190.980517 
L 184.175773 190.845522 
L 184.175773 190.706498 
L 184.175773 190.563444 
L 184.175773 190.41636 
L 184.175773 190.265247 
L 184.175773 190.110104 
L 184.175773 189.950931 
L 184.175773 189.787729 
L 184.175773 189.620497 
L 184.175773 189.449235 
L 184.175773 189.273943 
L 184.175773 189.094622 
L 184.175773 188.911271 
L 184.175773 188.723891 
L 184.175773 188.532481 
L 184.175773 188.337041 
L 184.175773 188.137571 
L 184.175773 187.934072 
L 184.175773 187.726543 
L 184.175773 187.514984 
L 184.175773 187.299396 
L 184.175773 187.079778 
L 184.175773 186.85613 
L 184.175773 186.628453 
L 184.175773 186.396745 
L 184.175773 186.161009 
L 184.175773 185.921242 
L 184.175773 185.677446 
L 184.175773 185.42962 
L 184.175773 185.177765 
L 184.175773 184.921879 
L 184.175773 184.661964 
L 184.175773 184.39802 
L 184.175773 184.130045 
L 184.175773 183.858041 
L 184.175773 183.582008 
L 184.175773 183.301944 
L 184.175773 183.017851 
L 184.175773 182.729729 
L 184.175773 182.437576 
L 184.175773 182.141394 
L 184.175773 181.841182 
L 184.175773 181.536941 
L 184.175773 181.22867 
L 184.175773 180.916369 
L 184.175773 180.600038 
L 184.175773 180.279678 
L 184.175773 179.955288 
L 184.175773 179.626868 
L 184.175773 179.294419 
L 184.175773 178.95794 
L 184.175773 178.617431 
L 184.175773 178.272893 
L 184.175773 177.924325 
L 184.175773 177.571727 
L 184.175773 177.215099 
L 184.175773 176.854442 
L 184.175773 176.489755 
L 184.175773 176.121039 
L 184.175773 175.748293 
L 184.175773 175.371517 
L 184.175773 174.990711 
L 184.175773 174.605876 
L 184.175773 174.217011 
L 184.175773 173.824116 
L 184.175773 173.427192 
L 184.175773 173.026238 
" style="fill:none;stroke:#0000ff;stroke-linecap:square;stroke-width:1.5;"/>
   </g>
   <g id="line2d_17">
    <path clip-path="url(#p77514201cc)" d="M 204.324218 193.174682 
L 204.32321 193.172587 
L 204.320188 193.1663 
L 204.315151 193.155823 
L 204.308099 193.141155 
L 204.299032 193.122296 
L 204.28795 193.099246 
L 204.274854 193.072006 
L 204.259743 193.040574 
L 204.242616 193.004952 
L 204.223475 192.965138 
L 204.202319 192.921134 
L 204.179149 192.872939 
L 204.153963 192.820553 
L 204.126763 192.763976 
L 204.097548 192.703209 
L 204.066317 192.63825 
L 204.033073 192.5691 
L 203.997813 192.49576 
L 203.960538 192.418229 
L 203.921249 192.336507 
L 203.879944 192.250594 
L 203.836625 192.16049 
L 203.791291 192.066195 
L 203.743942 191.96771 
L 203.694579 191.865033 
L 203.6432 191.758166 
L 203.589807 191.647108 
L 203.534399 191.531859 
L 203.476975 191.412419 
L 203.417538 191.288788 
L 203.356085 191.160966 
L 203.292617 191.028953 
L 203.227135 190.89275 
L 203.159637 190.752356 
L 203.090125 190.60777 
L 203.018598 190.458994 
L 202.945057 190.306027 
L 202.8695 190.148869 
L 202.791928 189.987521 
L 202.712342 189.821981 
L 202.630741 189.652251 
L 202.547125 189.478329 
L 202.461494 189.300217 
L 202.373848 189.117914 
L 202.284188 188.93142 
L 202.192512 188.740735 
L 202.098822 188.545859 
L 202.003117 188.346793 
L 201.905397 188.143535 
L 201.805662 187.936087 
L 201.703912 187.724447 
L 201.600148 187.508617 
L 201.494369 187.288596 
L 201.386574 187.064384 
L 201.276765 186.835982 
L 201.164942 186.603388 
L 201.051103 186.366603 
L 200.935249 186.125628 
L 200.817381 185.880462 
L 200.697498 185.631105 
L 200.5756 185.377557 
L 200.451687 185.119818 
L 200.325759 184.857888 
L 200.197816 184.591767 
L 200.067859 184.321456 
L 199.935886 184.046953 
L 199.801899 183.76826 
L 199.665897 183.485376 
L 199.52788 183.198301 
L 199.387849 182.907035 
L 199.245802 182.611578 
L 199.101741 182.31193 
L 198.955665 182.008092 
L 198.807574 181.700063 
L 198.657468 181.387842 
L 198.505347 181.071431 
L 198.351211 180.750829 
L 198.195061 180.426036 
L 198.036896 180.097052 
L 197.876715 179.763878 
L 197.71452 179.426512 
L 197.550311 179.084956 
L 197.384086 178.739208 
L 197.215846 178.38927 
L 197.045592 178.035141 
L 196.873323 177.676821 
L 196.699039 177.31431 
L 196.52274 176.947609 
L 196.344426 176.576716 
L 196.164098 176.201633 
L 195.981754 175.822358 
L 195.797396 175.438893 
L 195.611023 175.051237 
L 195.422635 174.65939 
L 195.232232 174.263352 
L 195.039814 173.863124 
L 194.845382 173.458704 
L 194.648935 173.050094 
L 194.450472 172.637292 
L 194.249995 172.2203 
" style="fill:none;stroke:#ff0000;stroke-linecap:square;stroke-width:1.5;"/>
   </g>
   <g id="line2d_18">
    <path clip-path="url(#p77514201cc)" d="M 204.324218 193.174682 
L 204.324218 193.172506 
L 204.324218 193.165978 
L 204.324218 193.155098 
L 204.324218 193.139866 
L 204.324218 193.120281 
L 204.324218 193.096345 
L 204.324218 193.068057 
L 204.324218 193.035416 
L 204.324218 192.998424 
L 204.324218 192.957079 
L 204.324218 192.911382 
L 204.324218 192.861334 
L 204.324218 192.806933 
L 204.324218 192.74818 
L 204.324218 192.685075 
L 204.324218 192.617618 
L 204.324218 192.545809 
L 204.324218 192.469648 
L 204.324218 192.389135 
L 204.324218 192.304269 
L 204.324218 192.215052 
L 204.324218 192.121483 
L 204.324218 192.023561 
L 204.324218 191.921288 
L 204.324218 191.814662 
L 204.324218 191.703685 
L 204.324218 191.588355 
L 204.324218 191.468673 
L 204.324218 191.344639 
L 204.324218 191.216253 
L 204.324218 191.083515 
L 204.324218 190.946425 
L 204.324218 190.804983 
L 204.324218 190.659189 
L 204.324218 190.509043 
L 204.324218 190.354545 
L 204.324218 190.195694 
L 204.324218 190.032492 
L 204.324218 189.864937 
L 204.324218 189.693031 
L 204.324218 189.516772 
L 204.324218 189.336162 
L 204.324218 189.151199 
L 204.324218 188.961884 
L 204.324218 188.768217 
L 204.324218 188.570198 
L 204.324218 188.367827 
L 204.324218 188.161104 
L 204.324218 187.950029 
L 204.324218 187.734602 
L 204.324218 187.514823 
L 204.324218 187.290692 
L 204.324218 187.062208 
L 204.324218 186.829373 
L 204.324218 186.592185 
L 204.324218 186.350646 
L 204.324218 186.104754 
L 204.324218 185.854511 
L 204.324218 185.599915 
L 204.324218 185.340967 
L 204.324218 185.077667 
L 204.324218 184.810015 
L 204.324218 184.538011 
L 204.324218 184.261655 
L 204.324218 183.980947 
L 204.324218 183.695887 
L 204.324218 183.406475 
L 204.324218 183.11271 
L 204.324218 182.814594 
L 204.324218 182.512125 
L 204.324218 182.205305 
L 204.324218 181.894132 
L 204.324218 181.578608 
L 204.324218 181.258731 
L 204.324218 180.934502 
L 204.324218 180.605921 
L 204.324218 180.272988 
L 204.324218 179.935704 
L 204.324218 179.594067 
L 204.324218 179.248077 
L 204.324218 178.897736 
L 204.324218 178.543043 
L 204.324218 178.183998 
L 204.324218 177.8206 
L 204.324218 177.452851 
L 204.324218 177.08075 
L 204.324218 176.704296 
L 204.324218 176.32349 
L 204.324218 175.938333 
L 204.324218 175.548823 
L 204.324218 175.154961 
L 204.324218 174.756747 
L 204.324218 174.354181 
L 204.324218 173.947264 
L 204.324218 173.535993 
L 204.324218 173.120371 
L 204.324218 172.700397 
L 204.324218 172.276071 
L 204.324218 171.847393 
L 204.324218 171.414362 
" style="fill:none;stroke:#0000ff;stroke-linecap:square;stroke-width:1.5;"/>
   </g>
   <g id="line2d_19">
    <path clip-path="url(#p77514201cc)" d="M 226.084537 193.174682 
L 226.083449 193.172419 
L 226.080185 193.16563 
L 226.074745 193.154314 
L 226.067129 193.138473 
L 226.057337 193.118105 
L 226.045369 193.093211 
L 226.031225 193.063792 
L 226.014904 193.029845 
L 225.996408 192.991373 
L 225.975736 192.948375 
L 225.952887 192.90085 
L 225.927863 192.8488 
L 225.900663 192.792223 
L 225.871286 192.73112 
L 225.839734 192.665491 
L 225.806005 192.595335 
L 225.770101 192.520654 
L 225.73202 192.441446 
L 225.691764 192.357713 
L 225.649331 192.269453 
L 225.604722 192.176667 
L 225.557938 192.079355 
L 225.508977 191.977516 
L 225.45784 191.871152 
L 225.404527 191.760261 
L 225.349039 191.644845 
L 225.291374 191.524902 
L 225.231533 191.400433 
L 225.169516 191.271438 
L 225.105323 191.137916 
L 225.038954 190.999869 
L 224.970409 190.857295 
L 224.899688 190.710195 
L 224.826791 190.558569 
L 224.751718 190.402417 
L 224.674469 190.241739 
L 224.595044 190.076535 
L 224.513442 189.906804 
L 224.429665 189.732548 
L 224.343712 189.553765 
L 224.255583 189.370456 
L 224.165277 189.182621 
L 224.072796 188.99026 
L 223.978138 188.793372 
L 223.881305 188.591959 
L 223.782296 188.386019 
L 223.68111 188.175553 
L 223.577749 187.960561 
L 223.472211 187.741043 
L 223.364497 187.516999 
L 223.254608 187.288429 
L 223.142542 187.055332 
L 223.028301 186.817709 
L 222.911883 186.57556 
L 222.793289 186.328886 
L 222.672519 186.077684 
L 222.549573 185.821957 
L 222.424452 185.561704 
L 222.297154 185.296924 
L 222.16768 185.027618 
L 222.03603 184.753787 
L 221.902204 184.475429 
L 221.766202 184.192544 
L 221.628024 183.905134 
L 221.48767 183.613198 
L 221.34514 183.316735 
L 221.200434 183.015746 
L 221.053551 182.710231 
L 220.904493 182.40019 
L 220.753259 182.085623 
L 220.599849 181.76653 
L 220.444263 181.44291 
L 220.2865 181.114765 
L 220.126562 180.782093 
L 219.964447 180.444895 
L 219.800157 180.103171 
L 219.633691 179.756921 
L 219.465048 179.406144 
L 219.29423 179.050842 
L 219.121235 178.691013 
L 218.946065 178.326658 
L 218.768718 177.957777 
L 218.589195 177.58437 
L 218.407497 177.206437 
L 218.223622 176.823978 
L 218.037571 176.436992 
L 217.849344 176.045481 
L 217.658942 175.649443 
L 217.466363 175.248879 
L 217.271608 174.843789 
L 217.074677 174.434172 
L 216.87557 174.02003 
L 216.674287 173.601361 
L 216.470828 173.178167 
L 216.265193 172.750446 
L 216.057382 172.318199 
L 215.847395 171.881426 
L 215.635232 171.440126 
L 215.420893 170.994301 
L 215.204378 170.543949 
" style="fill:none;stroke:#ff0000;stroke-linecap:square;stroke-width:1.5;"/>
   </g>
   <g id="line2d_20">
    <path clip-path="url(#p77514201cc)" d="M 226.084537 193.174682 
L 226.084537 193.172332 
L 226.084537 193.165282 
L 226.084537 193.153531 
L 226.084537 193.13708 
L 226.084537 193.115929 
L 226.084537 193.090078 
L 226.084537 193.059527 
L 226.084537 193.024275 
L 226.084537 192.984323 
L 226.084537 192.939671 
L 226.084537 192.890318 
L 226.084537 192.836266 
L 226.084537 192.777513 
L 226.084537 192.71406 
L 226.084537 192.645906 
L 226.084537 192.573053 
L 226.084537 192.495499 
L 226.084537 192.413245 
L 226.084537 192.326291 
L 226.084537 192.234636 
L 226.084537 192.138282 
L 226.084537 192.037227 
L 226.084537 191.931472 
L 226.084537 191.821016 
L 226.084537 191.705861 
L 226.084537 191.586005 
L 226.084537 191.461449 
L 226.084537 191.332192 
L 226.084537 191.198236 
L 226.084537 191.059579 
L 226.084537 190.916222 
L 226.084537 190.768165 
L 226.084537 190.615407 
L 226.084537 190.45795 
L 226.084537 190.295792 
L 226.084537 190.128934 
L 226.084537 189.957375 
L 226.084537 189.781117 
L 226.084537 189.600158 
L 226.084537 189.414499 
L 226.084537 189.22414 
L 226.084537 189.02908 
L 226.084537 188.82932 
L 226.084537 188.62486 
L 226.084537 188.4157 
L 226.084537 188.20184 
L 226.084537 187.983279 
L 226.084537 187.760018 
L 226.084537 187.532057 
L 226.084537 187.299396 
L 226.084537 187.062034 
L 226.084537 186.819972 
L 226.084537 186.57321 
L 226.084537 186.321748 
L 226.084537 186.065586 
L 226.084537 185.804723 
L 226.084537 185.53916 
L 226.084537 185.268897 
L 226.084537 184.993933 
L 226.084537 184.71427 
L 226.084537 184.429906 
L 226.084537 184.140842 
L 226.084537 183.847078 
L 226.084537 183.548613 
L 226.084537 183.245448 
L 226.084537 182.937583 
L 226.084537 182.625018 
L 226.084537 182.307752 
L 226.084537 181.985787 
L 226.084537 181.659121 
L 226.084537 181.327755 
L 226.084537 180.991688 
L 226.084537 180.650922 
L 226.084537 180.305455 
L 226.084537 179.955288 
L 226.084537 179.600421 
L 226.084537 179.240853 
L 226.084537 178.876585 
L 226.084537 178.507617 
L 226.084537 178.133949 
L 226.084537 177.755581 
L 226.084537 177.372512 
L 226.084537 176.984743 
L 226.084537 176.592274 
L 226.084537 176.195105 
L 226.084537 175.793235 
L 226.084537 175.386665 
L 226.084537 174.975395 
L 226.084537 174.559425 
L 226.084537 174.138754 
L 226.084537 173.713384 
L 226.084537 173.283313 
L 226.084537 172.848541 
L 226.084537 172.40907 
L 226.084537 171.964898 
L 226.084537 171.516026 
L 226.084537 171.062454 
L 226.084537 170.604182 
L 226.084537 170.141209 
L 226.084537 169.673537 
" style="fill:none;stroke:#0000ff;stroke-linecap:square;stroke-width:1.5;"/>
   </g>
   <g id="line2d_21">
    <path clip-path="url(#p77514201cc)" d="M 249.585683 193.174682 
L 249.584508 193.172238 
L 249.580983 193.164906 
L 249.575107 193.152685 
L 249.566882 193.135576 
L 249.556306 193.113579 
L 249.543381 193.086694 
L 249.528105 193.05492 
L 249.510479 193.018259 
L 249.490503 192.976708 
L 249.468177 192.93027 
L 249.443501 192.878944 
L 249.416475 192.822729 
L 249.387098 192.761626 
L 249.355372 192.695635 
L 249.321295 192.624755 
L 249.284868 192.548988 
L 249.246091 192.468332 
L 249.204964 192.382788 
L 249.161487 192.292355 
L 249.11566 192.197034 
L 249.067483 192.096826 
L 249.016955 191.991728 
L 248.964078 191.881743 
L 248.90885 191.76687 
L 248.851272 191.647108 
L 248.791344 191.522458 
L 248.729066 191.392919 
L 248.664438 191.258493 
L 248.59746 191.119178 
L 248.528131 190.974975 
L 248.456453 190.825884 
L 248.382424 190.671904 
L 248.306046 190.513036 
L 248.227317 190.34928 
L 248.146238 190.180636 
L 248.062809 190.007104 
L 247.977029 189.828683 
L 247.8889 189.645374 
L 247.798421 189.457177 
L 247.705591 189.264092 
L 247.610412 189.066118 
L 247.512882 188.863256 
L 247.413002 188.655506 
L 247.310772 188.442868 
L 247.206192 188.225341 
L 247.099262 188.002926 
L 246.989981 187.775623 
L 246.878351 187.543432 
L 246.76437 187.306352 
L 246.64804 187.064384 
L 246.529359 186.817528 
L 246.408328 186.565784 
L 246.284947 186.309152 
L 246.159216 186.047631 
L 246.031135 185.781222 
L 245.900703 185.509925 
L 245.767922 185.233739 
L 245.63279 184.952665 
L 245.495309 184.666703 
L 245.355477 184.375853 
L 245.213295 184.080115 
L 245.068763 183.779488 
L 244.921881 183.473973 
L 244.772648 183.16357 
L 244.621066 182.848279 
L 244.467133 182.528099 
L 244.310851 182.203031 
L 244.152218 181.873075 
L 243.991235 181.538231 
L 243.827902 181.198498 
L 243.662219 180.853878 
L 243.494186 180.504369 
L 243.323803 180.149971 
L 243.151069 179.790686 
L 242.975986 179.426512 
L 242.798552 179.05745 
L 242.618768 178.6835 
L 242.436634 178.304661 
L 242.25215 177.920935 
L 242.065316 177.53232 
L 241.876132 177.138817 
L 241.684598 176.740425 
L 241.490713 176.337145 
L 241.294479 175.928978 
L 241.095894 175.515921 
L 240.894959 175.097977 
L 240.691674 174.675144 
L 240.486039 174.247424 
L 240.278054 173.814815 
L 240.067719 173.377317 
L 239.855034 172.934932 
L 239.639998 172.487658 
L 239.422613 172.035496 
L 239.202877 171.578446 
L 238.980791 171.116507 
L 238.756355 170.64968 
L 238.529569 170.177965 
L 238.300433 169.701362 
L 238.068947 169.219871 
L 237.83511 168.733491 
" style="fill:none;stroke:#ff0000;stroke-linecap:square;stroke-width:1.5;"/>
   </g>
   <g id="line2d_22">
    <path clip-path="url(#p77514201cc)" d="M 249.585683 193.174682 
L 249.585683 193.172144 
L 249.585683 193.16453 
L 249.585683 193.151839 
L 249.585683 193.134072 
L 249.585683 193.111229 
L 249.585683 193.08331 
L 249.585683 193.050314 
L 249.585683 193.012242 
L 249.585683 192.969094 
L 249.585683 192.92087 
L 249.585683 192.867569 
L 249.585683 192.809192 
L 249.585683 192.745739 
L 249.585683 192.67721 
L 249.585683 192.603604 
L 249.585683 192.524922 
L 249.585683 192.441164 
L 249.585683 192.35233 
L 249.585683 192.258419 
L 249.585683 192.159433 
L 249.585683 192.05537 
L 249.585683 191.94623 
L 249.585683 191.832015 
L 249.585683 191.712723 
L 249.585683 191.588355 
L 249.585683 191.458911 
L 249.585683 191.32439 
L 249.585683 191.184793 
L 249.585683 191.04012 
L 249.585683 190.890371 
L 249.585683 190.735545 
L 249.585683 190.575643 
L 249.585683 190.410665 
L 249.585683 190.240611 
L 249.585683 190.065481 
L 249.585683 189.885274 
L 249.585683 189.699991 
L 249.585683 189.509632 
L 249.585683 189.314196 
L 249.585683 189.113684 
L 249.585683 188.908096 
L 249.585683 188.697432 
L 249.585683 188.481691 
L 249.585683 188.260875 
L 249.585683 188.034982 
L 249.585683 187.804012 
L 249.585683 187.567967 
L 249.585683 187.326845 
L 249.585683 187.080647 
L 249.585683 186.829373 
L 249.585683 186.573022 
L 249.585683 186.311596 
L 249.585683 186.045093 
L 249.585683 185.773513 
L 249.585683 185.496858 
L 249.585683 185.215126 
L 249.585683 184.928318 
L 249.585683 184.636434 
L 249.585683 184.339474 
L 249.585683 184.037437 
L 249.585683 183.730324 
L 249.585683 183.418135 
L 249.585683 183.100869 
L 249.585683 182.778527 
L 249.585683 182.451109 
L 249.585683 182.118615 
L 249.585683 181.781045 
L 249.585683 181.438398 
L 249.585683 181.090675 
L 249.585683 180.737876 
L 249.585683 180.380001 
L 249.585683 180.017049 
L 249.585683 179.649021 
L 249.585683 179.275917 
L 249.585683 178.897736 
L 249.585683 178.51448 
L 249.585683 178.126147 
L 249.585683 177.732737 
L 249.585683 177.334252 
L 249.585683 176.93069 
L 249.585683 176.522052 
L 249.585683 176.108338 
L 249.585683 175.689548 
L 249.585683 175.265681 
L 249.585683 174.836738 
L 249.585683 174.402719 
L 249.585683 173.963624 
L 249.585683 173.519452 
L 249.585683 173.070204 
L 249.585683 172.61588 
L 249.585683 172.15648 
L 249.585683 171.692003 
L 249.585683 171.22245 
L 249.585683 170.747821 
L 249.585683 170.268116 
L 249.585683 169.783334 
L 249.585683 169.293476 
L 249.585683 168.798542 
L 249.585683 168.298532 
L 249.585683 167.793445 
" style="fill:none;stroke:#0000ff;stroke-linecap:square;stroke-width:1.5;"/>
   </g>
   <g id="line2d_23">
    <path clip-path="url(#p77514201cc)" d="M 274.96692 193.174682 
L 274.965651 193.172042 
L 274.961844 193.164124 
L 274.955498 193.150925 
L 274.946615 193.132448 
L 274.935193 193.108691 
L 274.921234 193.079655 
L 274.904736 193.045339 
L 274.8857 193.005745 
L 274.864126 192.960871 
L 274.840014 192.910717 
L 274.813363 192.855285 
L 274.784175 192.794573 
L 274.752449 192.728582 
L 274.718184 192.657311 
L 274.681381 192.580761 
L 274.64204 192.498932 
L 274.600161 192.411824 
L 274.555744 192.319436 
L 274.508789 192.221769 
L 274.459295 192.118823 
L 274.407264 192.010597 
L 274.352694 191.897092 
L 274.295586 191.778308 
L 274.23594 191.654245 
L 274.173756 191.524902 
L 274.109034 191.39028 
L 274.041774 191.250378 
L 273.971975 191.105198 
L 273.899639 190.954738 
L 273.824764 190.798998 
L 273.747352 190.63798 
L 273.667401 190.471682 
L 273.584912 190.300105 
L 273.499884 190.123248 
L 273.412319 189.941113 
L 273.322216 189.753697 
L 273.229574 189.561003 
L 273.134395 189.363029 
L 273.036677 189.159777 
L 272.936421 188.951244 
L 272.833627 188.737433 
L 272.728295 188.518342 
L 272.620425 188.293972 
L 272.510016 188.064322 
L 272.39707 187.829394 
L 272.281585 187.589186 
L 272.163562 187.343698 
L 272.043001 187.092932 
L 271.919902 186.836886 
L 271.794265 186.57556 
L 271.66609 186.308956 
L 271.535377 186.037072 
L 271.402125 185.759909 
L 271.266336 185.477467 
L 271.128008 185.189745 
L 270.987142 184.896744 
L 270.843738 184.598464 
L 270.697796 184.294904 
L 270.549316 183.986065 
L 270.398297 183.671947 
L 270.244741 183.352549 
L 270.088646 183.027873 
L 269.930013 182.697917 
L 269.768843 182.362681 
L 269.605134 182.022167 
L 269.438887 181.676373 
L 269.270101 181.325299 
L 269.098778 180.968947 
L 268.924916 180.607315 
L 268.748517 180.240404 
L 268.569579 179.868213 
L 268.388103 179.490743 
L 268.204089 179.107994 
L 268.017537 178.719966 
L 267.828447 178.326658 
L 267.636819 177.928071 
L 267.442652 177.524205 
L 267.245948 177.11506 
L 267.046705 176.700635 
L 266.844924 176.280931 
L 266.640605 175.855947 
L 266.433748 175.425685 
L 266.224353 174.990143 
L 266.01242 174.549321 
L 265.797948 174.103221 
L 265.580938 173.651841 
L 265.361391 173.195181 
L 265.139305 172.733243 
L 264.914681 172.266025 
L 264.687519 171.793528 
L 264.457819 171.315752 
L 264.22558 170.832696 
L 263.990804 170.344361 
L 263.753489 169.850747 
L 263.513637 169.351853 
L 263.271246 168.84768 
L 263.026317 168.338228 
L 262.77885 167.823496 
L 262.528845 167.303486 
L 262.276301 166.778196 
" style="fill:none;stroke:#ff0000;stroke-linecap:square;stroke-width:1.5;"/>
   </g>
   <g id="line2d_24">
    <path clip-path="url(#p77514201cc)" d="M 274.96692 193.174682 
L 274.96692 193.171941 
L 274.96692 193.163717 
L 274.96692 193.150012 
L 274.96692 193.130823 
L 274.96692 193.106153 
L 274.96692 193.076 
L 274.96692 193.040365 
L 274.96692 192.999247 
L 274.96692 192.952647 
L 274.96692 192.900565 
L 274.96692 192.843 
L 274.96692 192.779953 
L 274.96692 192.711424 
L 274.96692 192.637412 
L 274.96692 192.557918 
L 274.96692 192.472942 
L 274.96692 192.382483 
L 274.96692 192.286542 
L 274.96692 192.185118 
L 274.96692 192.078213 
L 274.96692 191.965825 
L 274.96692 191.847954 
L 274.96692 191.724601 
L 274.96692 191.595766 
L 274.96692 191.461449 
L 274.96692 191.321649 
L 274.96692 191.176367 
L 274.96692 191.025602 
L 274.96692 190.869355 
L 274.96692 190.707626 
L 274.96692 190.540414 
L 274.96692 190.36772 
L 274.96692 190.189544 
L 274.96692 190.005885 
L 274.96692 189.816744 
L 274.96692 189.622121 
L 274.96692 189.422015 
L 274.96692 189.216427 
L 274.96692 189.005357 
L 274.96692 188.788804 
L 274.96692 188.566769 
L 274.96692 188.339252 
L 274.96692 188.106252 
L 274.96692 187.86777 
L 274.96692 187.623806 
L 274.96692 187.374359 
L 274.96692 187.11943 
L 274.96692 186.859018 
L 274.96692 186.593124 
L 274.96692 186.321748 
L 274.96692 186.04489 
L 274.96692 185.762549 
L 274.96692 185.474725 
L 274.96692 185.18142 
L 274.96692 184.882632 
L 274.96692 184.578362 
L 274.96692 184.268609 
L 274.96692 183.953374 
L 274.96692 183.632657 
L 274.96692 183.306457 
L 274.96692 182.974775 
L 274.96692 182.637611 
L 274.96692 182.294964 
L 274.96692 181.946835 
L 274.96692 181.593224 
L 274.96692 181.23413 
L 274.96692 180.869554 
L 274.96692 180.499495 
L 274.96692 180.123955 
L 274.96692 179.742931 
L 274.96692 179.356426 
L 274.96692 178.964438 
L 274.96692 178.566968 
L 274.96692 178.164015 
L 274.96692 177.755581 
L 274.96692 177.341663 
L 274.96692 176.922264 
L 274.96692 176.497382 
L 274.96692 176.067018 
L 274.96692 175.631171 
L 274.96692 175.189842 
L 274.96692 174.743031 
L 274.96692 174.290737 
L 274.96692 173.832961 
L 274.96692 173.369703 
L 274.96692 172.900962 
L 274.96692 172.426739 
L 274.96692 171.947034 
L 274.96692 171.461846 
L 274.96692 170.971176 
L 274.96692 170.475024 
L 274.96692 169.973389 
L 274.96692 169.466272 
L 274.96692 168.953672 
L 274.96692 168.43559 
L 274.96692 167.912026 
L 274.96692 167.38298 
L 274.96692 166.848451 
L 274.96692 166.30844 
L 274.96692 165.762946 
" style="fill:none;stroke:#0000ff;stroke-linecap:square;stroke-width:1.5;"/>
   </g>
   <g id="line2d_25">
    <path clip-path="url(#p77514201cc)" d="M 302.378656 193.174682 
L 302.377285 193.171831 
L 302.373174 193.163279 
L 302.366321 193.149025 
L 302.356727 193.129069 
L 302.344391 193.103412 
L 302.329315 193.072053 
L 302.311497 193.034992 
L 302.290938 192.99223 
L 302.267638 192.943766 
L 302.241597 192.8896 
L 302.212815 192.829733 
L 302.181292 192.764164 
L 302.147027 192.692893 
L 302.110021 192.615921 
L 302.070274 192.533248 
L 302.027786 192.444872 
L 301.982556 192.350795 
L 301.934586 192.251016 
L 301.883874 192.145536 
L 301.830421 192.034354 
L 301.774227 191.91747 
L 301.715292 191.794885 
L 301.653616 191.666598 
L 301.589198 191.532609 
L 301.522039 191.392919 
L 301.452139 191.247527 
L 301.379498 191.096434 
L 301.304116 190.939639 
L 301.225993 190.777142 
L 301.145128 190.608944 
L 301.061522 190.435044 
L 300.975175 190.255442 
L 300.886087 190.070139 
L 300.794258 189.879134 
L 300.699687 189.682427 
L 300.602376 189.480019 
L 300.502323 189.271909 
L 300.399529 189.058097 
L 300.293993 188.838584 
L 300.185717 188.613369 
L 300.0747 188.382453 
L 299.960941 188.145835 
L 299.844441 187.903515 
L 299.7252 187.655494 
L 299.603218 187.401771 
L 299.478494 187.142346 
L 299.35103 186.87722 
L 299.220824 186.606392 
L 299.087877 186.329862 
L 298.952189 186.047631 
L 298.81376 185.759698 
L 298.672589 185.466063 
L 298.528678 185.166727 
L 298.382025 184.861689 
L 298.232631 184.55095 
L 298.080496 184.234509 
L 297.925619 183.912366 
L 297.768002 183.584522 
L 297.607643 183.250976 
L 297.444544 182.911728 
L 297.278703 182.566779 
L 297.11012 182.216128 
L 296.938797 181.859775 
L 296.764732 181.497721 
L 296.587927 181.129965 
L 296.40838 180.756508 
L 296.226092 180.377349 
L 296.041063 179.992488 
L 295.853292 179.601926 
L 295.662781 179.205661 
L 295.469528 178.803696 
L 295.273534 178.396028 
L 295.074799 177.982659 
L 294.873323 177.563589 
L 294.669105 177.138817 
L 294.462147 176.708343 
L 294.252447 176.272167 
L 294.040006 175.83029 
L 293.824824 175.382711 
L 293.6069 174.929431 
L 293.386236 174.470449 
L 293.16283 174.005765 
L 292.936684 173.535379 
L 292.707796 173.059292 
L 292.476166 172.577504 
L 292.241796 172.090013 
L 292.004685 171.596821 
L 291.764832 171.097928 
L 291.522238 170.593333 
L 291.276903 170.083036 
L 291.028827 169.567037 
L 290.778009 169.045337 
L 290.524451 168.517935 
L 290.268151 167.984832 
L 290.00911 167.446027 
L 289.747328 166.90152 
L 289.482805 166.351312 
L 289.21554 165.795402 
L 288.945535 165.23379 
L 288.672788 164.666477 
" style="fill:none;stroke:#ff0000;stroke-linecap:square;stroke-width:1.5;"/>
   </g>
   <g id="line2d_26">
    <path clip-path="url(#p77514201cc)" d="M 302.378656 193.174682 
L 302.378656 193.171722 
L 302.378656 193.16284 
L 302.378656 193.148038 
L 302.378656 193.127315 
L 302.378656 193.10067 
L 302.378656 193.068105 
L 302.378656 193.029619 
L 302.378656 192.985212 
L 302.378656 192.934884 
L 302.378656 192.878635 
L 302.378656 192.816466 
L 302.378656 192.748375 
L 302.378656 192.674363 
L 302.378656 192.594431 
L 302.378656 192.508577 
L 302.378656 192.416802 
L 302.378656 192.319107 
L 302.378656 192.215491 
L 302.378656 192.105953 
L 302.378656 191.990495 
L 302.378656 191.869116 
L 302.378656 191.741816 
L 302.378656 191.608595 
L 302.378656 191.469453 
L 302.378656 191.32439 
L 302.378656 191.173406 
L 302.378656 191.016501 
L 302.378656 190.853676 
L 302.378656 190.684929 
L 302.378656 190.510261 
L 302.378656 190.329673 
L 302.378656 190.143163 
L 302.378656 189.950733 
L 302.378656 189.752382 
L 302.378656 189.548109 
L 302.378656 189.337916 
L 302.378656 189.121802 
L 302.378656 188.899767 
L 302.378656 188.671811 
L 302.378656 188.437934 
L 302.378656 188.198136 
L 302.378656 187.952417 
L 302.378656 187.700778 
L 302.378656 187.443217 
L 302.378656 187.179735 
L 302.378656 186.910333 
L 302.378656 186.635009 
L 302.378656 186.353765 
L 302.378656 186.0666 
L 302.378656 185.773513 
L 302.378656 185.474506 
L 302.378656 185.169578 
L 302.378656 184.858729 
L 302.378656 184.541959 
L 302.378656 184.219268 
L 302.378656 183.890656 
L 302.378656 183.556123 
L 302.378656 183.215669 
L 302.378656 182.869295 
L 302.378656 182.516999 
L 302.378656 182.158783 
L 302.378656 181.794645 
L 302.378656 181.424587 
L 302.378656 181.048607 
L 302.378656 180.666707 
L 302.378656 180.278886 
L 302.378656 179.885144 
L 302.378656 179.48548 
L 302.378656 179.079896 
L 302.378656 178.668391 
L 302.378656 178.250966 
L 302.378656 177.827619 
L 302.378656 177.398351 
L 302.378656 176.963162 
L 302.378656 176.522052 
L 302.378656 176.075022 
L 302.378656 175.62207 
L 302.378656 175.163198 
L 302.378656 174.698405 
L 302.378656 174.22769 
L 302.378656 173.751055 
L 302.378656 173.268499 
L 302.378656 172.780022 
L 302.378656 172.285624 
L 302.378656 171.785304 
L 302.378656 171.279065 
L 302.378656 170.766904 
L 302.378656 170.248822 
L 302.378656 169.724819 
L 302.378656 169.194895 
L 302.378656 168.659051 
L 302.378656 168.117285 
L 302.378656 167.569599 
L 302.378656 167.015991 
L 302.378656 166.456463 
L 302.378656 165.891014 
L 302.378656 165.319643 
L 302.378656 164.742352 
L 302.378656 164.15914 
L 302.378656 163.570007 
" style="fill:none;stroke:#0000ff;stroke-linecap:square;stroke-width:1.5;"/>
   </g>
   <g id="line2d_27">
    <path clip-path="url(#p77514201cc)" d="M 331.983331 193.174682 
L 331.981851 193.171603 
L 331.97741 193.162367 
L 331.970009 193.146972 
L 331.959647 193.12542 
L 331.946325 193.09771 
L 331.930043 193.063842 
L 331.910799 193.023817 
L 331.888596 192.977633 
L 331.863432 192.925292 
L 331.835308 192.866794 
L 331.804223 192.802137 
L 331.770177 192.731323 
L 331.733171 192.65435 
L 331.693205 192.57122 
L 331.650278 192.481933 
L 331.604391 192.386487 
L 331.555543 192.284884 
L 331.503735 192.177123 
L 331.448967 192.063204 
L 331.391237 191.943128 
L 331.330548 191.816893 
L 331.266898 191.684501 
L 331.200287 191.545951 
L 331.130716 191.401244 
L 331.058185 191.250378 
L 330.982693 191.093355 
L 330.904241 190.930174 
L 330.822828 190.760835 
L 330.738454 190.585339 
L 330.651121 190.403685 
L 330.560826 190.215873 
L 330.467572 190.021903 
L 330.371356 189.821775 
L 330.272181 189.61549 
L 330.170045 189.403047 
L 330.064948 189.184446 
L 329.956891 188.959687 
L 329.845873 188.72877 
L 329.731895 188.491696 
L 329.614957 188.248464 
L 329.495058 187.999074 
L 329.372199 187.743527 
L 329.246379 187.481822 
L 329.117598 187.213958 
L 328.985858 186.939938 
L 328.851156 186.659759 
L 328.713495 186.373423 
L 328.572872 186.080928 
L 328.42929 185.782276 
L 328.282747 185.477467 
L 328.133243 185.166499 
L 327.980779 184.849374 
L 327.825354 184.526091 
L 327.666969 184.19665 
L 327.505624 183.861051 
L 327.341318 183.519295 
L 327.174052 183.171381 
L 327.003825 182.817309 
L 326.830637 182.457079 
L 326.654489 182.090692 
L 326.475381 181.718147 
L 326.293312 181.339444 
L 326.108283 180.954583 
L 325.920294 180.563564 
L 325.729343 180.166388 
L 325.535433 179.763054 
L 325.338562 179.353562 
L 325.13873 178.937912 
L 324.935938 178.516105 
L 324.730186 178.08814 
L 324.521473 177.654017 
L 324.309799 177.213736 
L 324.095165 176.767298 
L 323.877571 176.314701 
L 323.657016 175.855947 
L 323.433501 175.391035 
L 323.207025 174.919966 
L 322.977589 174.442739 
L 322.745192 173.959353 
L 322.509835 173.46981 
L 322.271517 172.97411 
L 322.030239 172.472251 
L 321.786001 171.964235 
L 321.538802 171.450061 
L 321.288642 170.929729 
L 321.035522 170.40324 
L 320.779442 169.870593 
L 320.520401 169.331787 
L 320.258399 168.786825 
L 319.993438 168.235704 
L 319.725515 167.678426 
L 319.454633 167.114989 
L 319.180789 166.545395 
L 318.903986 165.969644 
L 318.624221 165.387734 
L 318.341497 164.799667 
L 318.055812 164.205442 
L 317.767166 163.605059 
L 317.47556 162.998519 
L 317.180993 162.38582 
" style="fill:none;stroke:#ff0000;stroke-linecap:square;stroke-width:1.5;"/>
   </g>
   <g id="line2d_28">
    <path clip-path="url(#p77514201cc)" d="M 331.983331 193.174682 
L 331.983331 193.171485 
L 331.983331 193.161893 
L 331.983331 193.145906 
L 331.983331 193.123525 
L 331.983331 193.09475 
L 331.983331 193.059579 
L 331.983331 193.018014 
L 331.983331 192.970055 
L 331.983331 192.9157 
L 331.983331 192.854952 
L 331.983331 192.787808 
L 331.983331 192.71427 
L 331.983331 192.634338 
L 331.983331 192.54801 
L 331.983331 192.455289 
L 331.983331 192.356172 
L 331.983331 192.250661 
L 331.983331 192.138755 
L 331.983331 192.020455 
L 331.983331 191.89576 
L 331.983331 191.764671 
L 331.983331 191.627187 
L 331.983331 191.483308 
L 331.983331 191.333035 
L 331.983331 191.176367 
L 331.983331 191.013304 
L 331.983331 190.843847 
L 331.983331 190.667995 
L 331.983331 190.485749 
L 331.983331 190.297108 
L 331.983331 190.102072 
L 331.983331 189.900642 
L 331.983331 189.692817 
L 331.983331 189.478598 
L 331.983331 189.257984 
L 331.983331 189.030975 
L 331.983331 188.797572 
L 331.983331 188.557774 
L 331.983331 188.311581 
L 331.983331 188.058994 
L 331.983331 187.800013 
L 331.983331 187.534636 
L 331.983331 187.262865 
L 331.983331 186.9847 
L 331.983331 186.70014 
L 331.983331 186.409185 
L 331.983331 186.111836 
L 331.983331 185.808092 
L 331.983331 185.497953 
L 331.983331 185.18142 
L 331.983331 184.858492 
L 331.983331 184.52917 
L 331.983331 184.193453 
L 331.983331 183.851341 
L 331.983331 183.502835 
L 331.983331 183.147934 
L 331.983331 182.786639 
L 331.983331 182.418948 
L 331.983331 182.044864 
L 331.983331 181.664385 
L 331.983331 181.277511 
L 331.983331 180.884242 
L 331.983331 180.484579 
L 331.983331 180.078521 
L 331.983331 179.666069 
L 331.983331 179.247222 
L 331.983331 178.82198 
L 331.983331 178.390344 
L 331.983331 177.952314 
L 331.983331 177.507888 
L 331.983331 177.057068 
L 331.983331 176.599854 
L 331.983331 176.136244 
L 331.983331 175.666241 
L 331.983331 175.189842 
L 331.983331 174.707049 
L 331.983331 174.217861 
L 331.983331 173.722279 
L 331.983331 173.220302 
L 331.983331 172.711931 
L 331.983331 172.197165 
L 331.983331 171.676004 
L 331.983331 171.148449 
L 331.983331 170.614499 
L 331.983331 170.074154 
L 331.983331 169.527415 
L 331.983331 168.974281 
L 331.983331 168.414753 
L 331.983331 167.84883 
L 331.983331 167.276513 
L 331.983331 166.6978 
L 331.983331 166.112694 
L 331.983331 165.521192 
L 331.983331 164.923296 
L 331.983331 164.319005 
L 331.983331 163.70832 
L 331.983331 163.09124 
L 331.983331 162.467766 
L 331.983331 161.837897 
L 331.983331 161.201633 
" style="fill:none;stroke:#0000ff;stroke-linecap:square;stroke-width:1.5;"/>
   </g>
   <g id="line2d_29">
    <path clip-path="url(#p77514201cc)" d="M 363.95638 193.174682 
L 363.954781 193.171357 
L 363.949985 193.161381 
L 363.941992 193.144755 
L 363.930801 193.121479 
L 363.916414 193.091552 
L 363.898828 193.054975 
L 363.878046 193.011747 
L 363.854066 192.96187 
L 363.826889 192.905341 
L 363.796515 192.842162 
L 363.762943 192.772333 
L 363.726174 192.695854 
L 363.686208 192.612724 
L 363.643044 192.522944 
L 363.596683 192.426513 
L 363.547125 192.323432 
L 363.494369 192.2137 
L 363.438416 192.097318 
L 363.379266 191.974286 
L 363.316919 191.844603 
L 363.251374 191.70827 
L 363.182632 191.565287 
L 363.110693 191.415653 
L 363.035556 191.259369 
L 362.957222 191.096434 
L 362.875691 190.926849 
L 362.790962 190.750613 
L 362.703036 190.567728 
L 362.611913 190.378191 
L 362.517593 190.182005 
L 362.420075 189.979168 
L 362.31936 189.76968 
L 362.215447 189.553543 
L 362.108338 189.330754 
L 361.998031 189.101316 
L 361.884526 188.865227 
L 361.767825 188.622487 
L 361.647926 188.373098 
L 361.52483 188.117057 
L 361.398536 187.854367 
L 361.269045 187.585026 
L 361.136357 187.309034 
L 361.000472 187.026393 
L 360.861389 186.737101 
L 360.719109 186.441158 
L 360.573631 186.138565 
L 360.424957 185.829322 
L 360.273085 185.513428 
L 360.118015 185.190884 
L 359.959749 184.861689 
L 359.798285 184.525845 
L 359.633624 184.183349 
L 359.465765 183.834204 
L 359.294709 183.478407 
L 359.120456 183.115961 
L 358.943006 182.746864 
L 358.762358 182.371117 
L 358.578513 181.988719 
L 358.391471 181.599671 
L 358.201231 181.203973 
L 358.007794 180.801624 
L 357.81116 180.392625 
L 357.611328 179.976975 
L 357.408299 179.554675 
L 357.202073 179.125724 
L 356.99265 178.690124 
L 356.780029 178.247872 
L 356.564211 177.798971 
L 356.345196 177.343419 
L 356.122983 176.881216 
L 355.897573 176.412364 
L 355.668966 175.93686 
L 355.437161 175.454707 
L 355.202159 174.965903 
L 354.96396 174.470449 
L 354.722563 173.968344 
L 354.47797 173.459589 
L 354.230178 172.944183 
L 353.97919 172.422127 
L 353.725004 171.893421 
L 353.467621 171.358064 
L 353.207041 170.816057 
L 352.943263 170.267399 
L 352.676288 169.712091 
L 352.406116 169.150133 
L 352.132746 168.581524 
L 351.85618 168.006265 
L 351.576415 167.424356 
L 351.293454 166.835796 
L 351.007295 166.240586 
L 350.717939 165.638725 
L 350.425386 165.030214 
L 350.129635 164.415053 
L 349.830687 163.793241 
L 349.528542 163.164778 
L 349.223199 162.529666 
L 348.914659 161.887903 
L 348.602922 161.239489 
L 348.287987 160.584425 
L 347.969855 159.922711 
" style="fill:none;stroke:#ff0000;stroke-linecap:square;stroke-width:1.5;"/>
   </g>
   <g id="line2d_30">
    <path clip-path="url(#p77514201cc)" d="M 363.95638 193.174682 
L 363.95638 193.171229 
L 363.95638 193.16087 
L 363.95638 193.143604 
L 363.95638 193.119433 
L 363.95638 193.088355 
L 363.95638 193.050371 
L 363.95638 193.005481 
L 363.95638 192.953684 
L 363.95638 192.894982 
L 363.95638 192.829373 
L 363.95638 192.756858 
L 363.95638 192.677437 
L 363.95638 192.59111 
L 363.95638 192.497877 
L 363.95638 192.397737 
L 363.95638 192.290691 
L 363.95638 192.176739 
L 363.95638 192.055881 
L 363.95638 191.928117 
L 363.95638 191.793446 
L 363.95638 191.65187 
L 363.95638 191.503387 
L 363.95638 191.347998 
L 363.95638 191.185703 
L 363.95638 191.016501 
L 363.95638 190.840394 
L 363.95638 190.65738 
L 363.95638 190.46746 
L 363.95638 190.270634 
L 363.95638 190.066902 
L 363.95638 189.856263 
L 363.95638 189.638719 
L 363.95638 189.414268 
L 363.95638 189.182911 
L 363.95638 188.944648 
L 363.95638 188.699478 
L 363.95638 188.447403 
L 363.95638 188.188421 
L 363.95638 187.922533 
L 363.95638 187.649739 
L 363.95638 187.370039 
L 363.95638 187.083433 
L 363.95638 186.78992 
L 363.95638 186.489501 
L 363.95638 186.182176 
L 363.95638 185.867945 
L 363.95638 185.546808 
L 363.95638 185.218764 
L 363.95638 184.883815 
L 363.95638 184.541959 
L 363.95638 184.193197 
L 363.95638 183.837529 
L 363.95638 183.474954 
L 363.95638 183.105474 
L 363.95638 182.729087 
L 363.95638 182.345794 
L 363.95638 181.955595 
L 363.95638 181.55849 
L 363.95638 181.154478 
L 363.95638 180.743561 
L 363.95638 180.325737 
L 363.95638 179.901007 
L 363.95638 179.469371 
L 363.95638 179.030828 
L 363.95638 178.58538 
L 363.95638 178.133025 
L 363.95638 177.673764 
L 363.95638 177.207597 
L 363.95638 176.734524 
L 363.95638 176.254545 
L 363.95638 175.767659 
L 363.95638 175.273867 
L 363.95638 174.773169 
L 363.95638 174.265565 
L 363.95638 173.751055 
L 363.95638 173.229638 
L 363.95638 172.701316 
L 363.95638 172.166087 
L 363.95638 171.623952 
L 363.95638 171.074911 
L 363.95638 170.518963 
L 363.95638 169.95611 
L 363.95638 169.38635 
L 363.95638 168.809684 
L 363.95638 168.226112 
L 363.95638 167.635634 
L 363.95638 167.038249 
L 363.95638 166.433959 
L 363.95638 165.822762 
L 363.95638 165.204659 
L 363.95638 164.57965 
L 363.95638 163.947734 
L 363.95638 163.308913 
L 363.95638 162.663185 
L 363.95638 162.010551 
L 363.95638 161.351011 
L 363.95638 160.684565 
L 363.95638 160.011213 
L 363.95638 159.330954 
L 363.95638 158.643789 
" style="fill:none;stroke:#0000ff;stroke-linecap:square;stroke-width:1.5;"/>
   </g>
   <g id="line2d_31">
    <path clip-path="url(#p77514201cc)" d="M 398.487273 193.174682 
L 398.485546 193.171091 
L 398.480367 193.160317 
L 398.471734 193.142361 
L 398.459648 193.117223 
L 398.444109 193.084902 
L 398.425117 193.045398 
L 398.402672 192.998713 
L 398.376774 192.944845 
L 398.347423 192.883794 
L 398.314618 192.815561 
L 398.278361 192.740145 
L 398.23865 192.657547 
L 398.195487 192.567767 
L 398.14887 192.470804 
L 398.0988 192.366659 
L 398.045277 192.255332 
L 397.988301 192.136822 
L 397.927872 192.011129 
L 397.86399 191.878254 
L 397.796655 191.738197 
L 397.725867 191.590957 
L 397.651625 191.436535 
L 397.573931 191.274931 
L 397.492783 191.106144 
L 397.408182 190.930174 
L 397.320129 190.747022 
L 397.228622 190.556688 
L 397.133662 190.359171 
L 397.035249 190.154472 
L 396.933383 189.942591 
L 396.828063 189.723527 
L 396.719291 189.49728 
L 396.607066 189.263851 
L 396.491387 189.02324 
L 396.372256 188.775446 
L 396.249671 188.52047 
L 396.123633 188.258312 
L 395.994142 187.988971 
L 395.861198 187.712447 
L 395.724801 187.428742 
L 395.584951 187.137853 
L 395.441648 186.839783 
L 395.294892 186.53453 
L 395.144682 186.222094 
L 394.99102 185.902476 
L 394.833904 185.575676 
L 394.673336 185.241693 
L 394.509314 184.900528 
L 394.341839 184.55218 
L 394.170911 184.19665 
L 393.99653 183.833937 
L 393.818696 183.464043 
L 393.637409 183.086965 
L 393.452669 182.702705 
L 393.264475 182.311263 
L 393.072829 181.912639 
L 392.877729 181.506832 
L 392.679177 181.093842 
L 392.477171 180.67367 
L 392.271712 180.246316 
L 392.0628 179.811779 
L 391.850435 179.37006 
L 391.634617 178.921158 
L 391.415346 178.465074 
L 391.192622 178.001808 
L 390.966444 177.531359 
L 390.736814 177.053728 
L 390.50373 176.568914 
L 390.267194 176.076918 
L 390.027204 175.577739 
L 389.783761 175.071378 
L 389.536865 174.557835 
L 389.286516 174.037109 
L 389.032714 173.509201 
L 388.775459 172.97411 
L 388.514751 172.431837 
L 388.25059 171.882381 
L 387.982975 171.325743 
L 387.711908 170.761923 
L 387.437387 170.19092 
L 387.159413 169.612735 
L 386.877987 169.027367 
L 386.593107 168.434817 
L 386.304774 167.835084 
L 386.012988 167.228169 
L 385.717749 166.614072 
L 385.419056 165.992792 
L 385.116911 165.36433 
L 384.811313 164.728685 
L 384.502261 164.085858 
L 384.189757 163.435848 
L 383.873799 162.778657 
L 383.554388 162.114282 
L 383.231524 161.442725 
L 382.905207 160.763986 
L 382.575437 160.078064 
L 382.242214 159.38496 
L 381.905538 158.684674 
L 381.565409 157.977205 
L 381.221826 157.262554 
" style="fill:none;stroke:#ff0000;stroke-linecap:square;stroke-width:1.5;"/>
   </g>
   <g id="line2d_32">
    <path clip-path="url(#p77514201cc)" d="M 398.487273 193.174682 
L 398.487273 193.170953 
L 398.487273 193.159765 
L 398.487273 193.141118 
L 398.487273 193.115013 
L 398.487273 193.081449 
L 398.487273 193.040426 
L 398.487273 192.991945 
L 398.487273 192.936005 
L 398.487273 192.872606 
L 398.487273 192.801748 
L 398.487273 192.723432 
L 398.487273 192.637658 
L 398.487273 192.544424 
L 398.487273 192.443732 
L 398.487273 192.335581 
L 398.487273 192.219972 
L 398.487273 192.096904 
L 398.487273 191.966377 
L 398.487273 191.828392 
L 398.487273 191.682948 
L 398.487273 191.530045 
L 398.487273 191.369683 
L 398.487273 191.201863 
L 398.487273 191.026584 
L 398.487273 190.843847 
L 398.487273 190.653651 
L 398.487273 190.455996 
L 398.487273 190.250882 
L 398.487273 190.03831 
L 398.487273 189.818279 
L 398.487273 189.59079 
L 398.487273 189.355842 
L 398.487273 189.113435 
L 398.487273 188.863569 
L 398.487273 188.606245 
L 398.487273 188.341462 
L 398.487273 188.069221 
L 398.487273 187.78952 
L 398.487273 187.502361 
L 398.487273 187.207744 
L 398.487273 186.905668 
L 398.487273 186.596133 
L 398.487273 186.279139 
L 398.487273 185.954687 
L 398.487273 185.622776 
L 398.487273 185.283406 
L 398.487273 184.936578 
L 398.487273 184.582291 
L 398.487273 184.220545 
L 398.487273 183.851341 
L 398.487273 183.474678 
L 398.487273 183.090556 
L 398.487273 182.698976 
L 398.487273 182.299937 
L 398.487273 181.893439 
L 398.487273 181.479483 
L 398.487273 181.058068 
L 398.487273 180.629194 
L 398.487273 180.192862 
L 398.487273 179.749071 
L 398.487273 179.297821 
L 398.487273 178.839113 
L 398.487273 178.372946 
L 398.487273 177.89932 
L 398.487273 177.418236 
L 398.487273 176.929693 
L 398.487273 176.433691 
L 398.487273 175.93023 
L 398.487273 175.419311 
L 398.487273 174.900934 
L 398.487273 174.375097 
L 398.487273 173.841802 
L 398.487273 173.301048 
L 398.487273 172.752836 
L 398.487273 172.197165 
L 398.487273 171.634035 
L 398.487273 171.063446 
L 398.487273 170.485399 
L 398.487273 169.899893 
L 398.487273 169.306929 
L 398.487273 168.706506 
L 398.487273 168.098624 
L 398.487273 167.483283 
L 398.487273 166.860484 
L 398.487273 166.230226 
L 398.487273 165.59251 
L 398.487273 164.947335 
L 398.487273 164.294701 
L 398.487273 163.634608 
L 398.487273 162.967057 
L 398.487273 162.292047 
L 398.487273 161.609579 
L 398.487273 160.919651 
L 398.487273 160.222265 
L 398.487273 159.517421 
L 398.487273 158.805118 
L 398.487273 158.085356 
L 398.487273 157.358135 
L 398.487273 156.623456 
L 398.487273 155.881318 
" style="fill:none;stroke:#0000ff;stroke-linecap:square;stroke-width:1.5;"/>
   </g>
  </g>
 </g>
 <defs>
  <clipPath id="p77514201cc">
   <rect height="41.022701" width="357.12" x="57.6" y="154.01665"/>
  </clipPath>
 </defs>
</svg>
