<?xml version="1.0" encoding="utf-8" standalone="no"?>
<!DOCTYPE svg PUBLIC "-//W3C//DTD SVG 1.1//EN"
  "http://www.w3.org/Graphics/SVG/1.1/DTD/svg11.dtd">
<!-- Created with matplotlib (http://matplotlib.org/) -->
<svg height="460pt" version="1.1" viewBox="0 0 664 460" width="664pt" xmlns="http://www.w3.org/2000/svg" xmlns:xlink="http://www.w3.org/1999/xlink">
 <defs>
  <style type="text/css">
*{stroke-linecap:butt;stroke-linejoin:round;}
  </style>
 </defs>
 <g id="figure_1">
  <g id="patch_1">
   <path d="
M0 460.8
L664.2 460.8
L664.2 0
L0 0
z
" style="fill:#ffffff;"/>
  </g>
  <g id="axes_1">
   <g id="patch_2">
    <path clip-path="url(#pd9953f5ed3)" d="
M143.099 164.208
L125.362 230.4
L143.099 296.592
L546.788 404.761
L546.788 56.0395
z
" style="fill:#ffffff;stroke:#000000;stroke-linejoin:miter;"/>
   </g>
   <g id="line2d_1">
    <path clip-path="url(#pd9953f5ed3)" d="
M143.099 230.4
L143.117 229.738
L143.135 229.076
L143.153 228.414
L143.17 227.752
L143.187 227.09
L143.204 226.428
L143.22 225.767
L143.236 225.105
L143.252 224.443
L143.267 223.781
L143.281 223.119
L143.296 222.457
L143.31 221.795
L143.323 221.133
L143.337 220.471
L143.35 219.809
L143.362 219.147
L143.374 218.485
L143.386 217.823
L143.397 217.162
L143.408 216.5
L143.419 215.838
L143.429 215.176
L143.439 214.514
L143.449 213.852
L143.458 213.19
L143.467 212.528
L143.475 211.866
L143.483 211.204
L143.491 210.542
L143.498 209.88
L143.505 209.218
L143.511 208.557
L143.518 207.895
L143.523 207.233
L143.529 206.571
L143.534 205.909
L143.539 205.247
L143.543 204.585
L143.547 203.923
L143.55 203.261
L143.553 202.599
L143.556 201.937
L143.559 201.275
L143.561 200.613
L143.562 199.951
L143.564 199.29
L143.565 198.628
L143.565 197.966
L143.565 197.304
L143.565 196.642
L143.565 195.98
L143.564 195.318
L143.562 194.656
L143.561 193.994
L143.559 193.332
L143.556 192.67
L143.553 192.008
L143.55 191.346
L143.547 190.685
L143.543 190.023
L143.539 189.361
L143.534 188.699
L143.529 188.037
L143.523 187.375
L143.518 186.713
L143.511 186.051
L143.505 185.389
L143.498 184.727
L143.491 184.065
L143.483 183.403
L143.475 182.741
L143.467 182.08
L143.458 181.418
L143.449 180.756
L143.439 180.094
L143.429 179.432
L143.419 178.77
L143.408 178.108
L143.397 177.446
L143.386 176.784
L143.374 176.122
L143.362 175.46
L143.35 174.798
L143.337 174.136
L143.323 173.475
L143.31 172.813
L143.296 172.151
L143.281 171.489
L143.267 170.827
L143.252 170.165
L143.236 169.503
L143.22 168.841
L143.204 168.179
L143.187 167.517
L143.17 166.855
L143.153 166.193
L143.135 165.531
L143.117 164.87
L143.099 164.208" style="fill:none;stroke:#ff0000;stroke-linecap:square;"/>
   </g>
   <g id="line2d_2">
    <path clip-path="url(#pd9953f5ed3)" d="
M143.099 230.4
L143.117 231.062
L143.135 231.724
L143.153 232.386
L143.17 233.048
L143.187 233.71
L143.204 234.372
L143.22 235.033
L143.236 235.695
L143.252 236.357
L143.267 237.019
L143.281 237.681
L143.296 238.343
L143.31 239.005
L143.323 239.667
L143.337 240.329
L143.35 240.991
L143.362 241.653
L143.374 242.315
L143.386 242.977
L143.397 243.638
L143.408 244.3
L143.419 244.962
L143.429 245.624
L143.439 246.286
L143.449 246.948
L143.458 247.61
L143.467 248.272
L143.475 248.934
L143.483 249.596
L143.491 250.258
L143.498 250.92
L143.505 251.582
L143.511 252.243
L143.518 252.905
L143.523 253.567
L143.529 254.229
L143.534 254.891
L143.539 255.553
L143.543 256.215
L143.547 256.877
L143.55 257.539
L143.553 258.201
L143.556 258.863
L143.559 259.525
L143.561 260.187
L143.562 260.849
L143.564 261.51
L143.565 262.172
L143.565 262.834
L143.565 263.496
L143.565 264.158
L143.565 264.82
L143.564 265.482
L143.562 266.144
L143.561 266.806
L143.559 267.468
L143.556 268.13
L143.553 268.792
L143.55 269.454
L143.547 270.115
L143.543 270.777
L143.539 271.439
L143.534 272.101
L143.529 272.763
L143.523 273.425
L143.518 274.087
L143.511 274.749
L143.505 275.411
L143.498 276.073
L143.491 276.735
L143.483 277.397
L143.475 278.059
L143.467 278.72
L143.458 279.382
L143.449 280.044
L143.439 280.706
L143.429 281.368
L143.419 282.03
L143.408 282.692
L143.397 283.354
L143.386 284.016
L143.374 284.678
L143.362 285.34
L143.35 286.002
L143.337 286.664
L143.323 287.325
L143.31 287.987
L143.296 288.649
L143.281 289.311
L143.267 289.973
L143.252 290.635
L143.236 291.297
L143.22 291.959
L143.204 292.621
L143.187 293.283
L143.17 293.945
L143.153 294.607
L143.135 295.269
L143.117 295.93
L143.099 296.592" style="fill:none;stroke:#ff0000;stroke-linecap:square;"/>
   </g>
   <g id="line2d_3">
    <path clip-path="url(#pd9953f5ed3)" d="
M143.099 230.4
L143.318 229.687
L143.537 228.974
L143.756 228.261
L143.973 227.548
L144.191 226.834
L144.407 226.121
L144.623 225.408
L144.839 224.695
L145.054 223.982
L145.268 223.269
L145.482 222.556
L145.695 221.843
L145.908 221.129
L146.12 220.416
L146.331 219.703
L146.542 218.99
L146.752 218.277
L146.962 217.564
L147.171 216.851
L147.38 216.138
L147.588 215.424
L147.795 214.711
L148.002 213.998
L148.209 213.285
L148.414 212.572
L148.62 211.859
L148.824 211.146
L149.028 210.433
L149.232 209.719
L149.434 209.006
L149.637 208.293
L149.838 207.58
L150.04 206.867
L150.24 206.154
L150.44 205.441
L150.639 204.728
L150.838 204.014
L151.037 203.301
L151.234 202.588
L151.431 201.875
L151.628 201.162
L151.824 200.449
L152.019 199.736
L152.214 199.023
L152.408 198.309
L152.602 197.596
L152.795 196.883
L152.988 196.17
L153.18 195.457
L153.371 194.744
L153.562 194.031
L153.752 193.318
L153.942 192.604
L154.131 191.891
L154.319 191.178
L154.507 190.465
L154.694 189.752
L154.881 189.039
L155.067 188.326
L155.253 187.613
L155.438 186.899
L155.623 186.186
L155.806 185.473
L155.99 184.76
L156.172 184.047
L156.355 183.334
L156.536 182.621
L156.717 181.908
L156.898 181.194
L157.078 180.481
L157.257 179.768
L157.436 179.055
L157.614 178.342
L157.791 177.629
L157.968 176.916
L158.145 176.203
L158.321 175.489
L158.496 174.776
L158.671 174.063
L158.845 173.35
L159.018 172.637
L159.191 171.924
L159.364 171.211
L159.536 170.498
L159.707 169.784
L159.878 169.071
L160.048 168.358
L160.217 167.645
L160.386 166.932
L160.555 166.219
L160.722 165.506
L160.89 164.793
L161.056 164.079
L161.222 163.366
L161.388 162.653
L161.553 161.94
L161.717 161.227
L161.881 160.514
L162.044 159.801
L162.207 159.088" style="fill:none;stroke:#0000ff;stroke-linecap:square;"/>
   </g>
   <g id="line2d_4">
    <path clip-path="url(#pd9953f5ed3)" d="
M143.099 230.4
L143.318 231.113
L143.537 231.826
L143.756 232.539
L143.973 233.252
L144.191 233.966
L144.407 234.679
L144.623 235.392
L144.839 236.105
L145.054 236.818
L145.268 237.531
L145.482 238.244
L145.695 238.957
L145.908 239.671
L146.12 240.384
L146.331 241.097
L146.542 241.81
L146.752 242.523
L146.962 243.236
L147.171 243.949
L147.38 244.662
L147.588 245.376
L147.795 246.089
L148.002 246.802
L148.209 247.515
L148.414 248.228
L148.62 248.941
L148.824 249.654
L149.028 250.367
L149.232 251.081
L149.434 251.794
L149.637 252.507
L149.838 253.22
L150.04 253.933
L150.24 254.646
L150.44 255.359
L150.639 256.072
L150.838 256.786
L151.037 257.499
L151.234 258.212
L151.431 258.925
L151.628 259.638
L151.824 260.351
L152.019 261.064
L152.214 261.777
L152.408 262.491
L152.602 263.204
L152.795 263.917
L152.988 264.63
L153.18 265.343
L153.371 266.056
L153.562 266.769
L153.752 267.482
L153.942 268.196
L154.131 268.909
L154.319 269.622
L154.507 270.335
L154.694 271.048
L154.881 271.761
L155.067 272.474
L155.253 273.187
L155.438 273.901
L155.623 274.614
L155.806 275.327
L155.99 276.04
L156.172 276.753
L156.355 277.466
L156.536 278.179
L156.717 278.892
L156.898 279.606
L157.078 280.319
L157.257 281.032
L157.436 281.745
L157.614 282.458
L157.791 283.171
L157.968 283.884
L158.145 284.597
L158.321 285.311
L158.496 286.024
L158.671 286.737
L158.845 287.45
L159.018 288.163
L159.191 288.876
L159.364 289.589
L159.536 290.302
L159.707 291.016
L159.878 291.729
L160.048 292.442
L160.217 293.155
L160.386 293.868
L160.555 294.581
L160.722 295.294
L160.89 296.007
L161.056 296.721
L161.222 297.434
L161.388 298.147
L161.553 298.86
L161.717 299.573
L161.881 300.286
L162.044 300.999
L162.207 301.712" style="fill:none;stroke:#0000ff;stroke-linecap:square;"/>
   </g>
   <g id="line2d_5">
    <path clip-path="url(#pd9953f5ed3)" d="
M162.207 230.4
L162.245 229.687
L162.283 228.974
L162.32 228.261
L162.356 227.548
L162.391 226.834
L162.426 226.121
L162.459 225.408
L162.492 224.695
L162.524 223.982
L162.556 223.269
L162.586 222.556
L162.616 221.843
L162.645 221.129
L162.674 220.416
L162.701 219.703
L162.728 218.99
L162.754 218.277
L162.779 217.564
L162.804 216.851
L162.827 216.138
L162.85 215.424
L162.872 214.711
L162.894 213.998
L162.914 213.285
L162.934 212.572
L162.953 211.859
L162.971 211.146
L162.989 210.433
L163.005 209.719
L163.021 209.006
L163.036 208.293
L163.051 207.58
L163.064 206.867
L163.077 206.154
L163.089 205.441
L163.1 204.728
L163.111 204.014
L163.121 203.301
L163.129 202.588
L163.138 201.875
L163.145 201.162
L163.152 200.449
L163.157 199.736
L163.162 199.023
L163.167 198.309
L163.17 197.596
L163.173 196.883
L163.175 196.17
L163.176 195.457
L163.176 194.744
L163.176 194.031
L163.175 193.318
L163.173 192.604
L163.17 191.891
L163.167 191.178
L163.162 190.465
L163.157 189.752
L163.152 189.039
L163.145 188.326
L163.138 187.613
L163.129 186.899
L163.121 186.186
L163.111 185.473
L163.1 184.76
L163.089 184.047
L163.077 183.334
L163.064 182.621
L163.051 181.908
L163.036 181.194
L163.021 180.481
L163.005 179.768
L162.989 179.055
L162.971 178.342
L162.953 177.629
L162.934 176.916
L162.914 176.203
L162.894 175.489
L162.872 174.776
L162.85 174.063
L162.827 173.35
L162.804 172.637
L162.779 171.924
L162.754 171.211
L162.728 170.498
L162.701 169.784
L162.674 169.071
L162.645 168.358
L162.616 167.645
L162.586 166.932
L162.556 166.219
L162.524 165.506
L162.492 164.793
L162.459 164.079
L162.426 163.366
L162.391 162.653
L162.356 161.94
L162.32 161.227
L162.283 160.514
L162.245 159.801
L162.207 159.088" style="fill:none;stroke:#ff0000;stroke-linecap:square;"/>
   </g>
   <g id="line2d_6">
    <path clip-path="url(#pd9953f5ed3)" d="
M162.207 230.4
L162.245 231.113
L162.283 231.826
L162.32 232.539
L162.356 233.252
L162.391 233.966
L162.426 234.679
L162.459 235.392
L162.492 236.105
L162.524 236.818
L162.556 237.531
L162.586 238.244
L162.616 238.957
L162.645 239.671
L162.674 240.384
L162.701 241.097
L162.728 241.81
L162.754 242.523
L162.779 243.236
L162.804 243.949
L162.827 244.662
L162.85 245.376
L162.872 246.089
L162.894 246.802
L162.914 247.515
L162.934 248.228
L162.953 248.941
L162.971 249.654
L162.989 250.367
L163.005 251.081
L163.021 251.794
L163.036 252.507
L163.051 253.22
L163.064 253.933
L163.077 254.646
L163.089 255.359
L163.1 256.072
L163.111 256.786
L163.121 257.499
L163.129 258.212
L163.138 258.925
L163.145 259.638
L163.152 260.351
L163.157 261.064
L163.162 261.777
L163.167 262.491
L163.17 263.204
L163.173 263.917
L163.175 264.63
L163.176 265.343
L163.176 266.056
L163.176 266.769
L163.175 267.482
L163.173 268.196
L163.17 268.909
L163.167 269.622
L163.162 270.335
L163.157 271.048
L163.152 271.761
L163.145 272.474
L163.138 273.187
L163.129 273.901
L163.121 274.614
L163.111 275.327
L163.1 276.04
L163.089 276.753
L163.077 277.466
L163.064 278.179
L163.051 278.892
L163.036 279.606
L163.021 280.319
L163.005 281.032
L162.989 281.745
L162.971 282.458
L162.953 283.171
L162.934 283.884
L162.914 284.597
L162.894 285.311
L162.872 286.024
L162.85 286.737
L162.827 287.45
L162.804 288.163
L162.779 288.876
L162.754 289.589
L162.728 290.302
L162.701 291.016
L162.674 291.729
L162.645 292.442
L162.616 293.155
L162.586 293.868
L162.556 294.581
L162.524 295.294
L162.492 296.007
L162.459 296.721
L162.426 297.434
L162.391 298.147
L162.356 298.86
L162.32 299.573
L162.283 300.286
L162.245 300.999
L162.207 301.712" style="fill:none;stroke:#ff0000;stroke-linecap:square;"/>
   </g>
   <g id="line2d_7">
    <path clip-path="url(#pd9953f5ed3)" d="
M162.207 230.4
L162.462 229.632
L162.716 228.863
L162.969 228.095
L163.221 227.327
L163.472 226.559
L163.722 225.79
L163.971 225.022
L164.219 224.254
L164.466 223.485
L164.712 222.717
L164.957 221.949
L165.201 221.181
L165.444 220.412
L165.686 219.644
L165.927 218.876
L166.167 218.107
L166.407 217.339
L166.645 216.571
L166.882 215.803
L167.118 215.034
L167.353 214.266
L167.587 213.498
L167.82 212.729
L168.053 211.961
L168.284 211.193
L168.514 210.425
L168.743 209.656
L168.971 208.888
L169.198 208.12
L169.425 207.351
L169.65 206.583
L169.874 205.815
L170.097 205.047
L170.32 204.278
L170.541 203.51
L170.761 202.742
L170.98 201.973
L171.199 201.205
L171.416 200.437
L171.632 199.669
L171.847 198.9
L172.062 198.132
L172.275 197.364
L172.487 196.595
L172.699 195.827
L172.909 195.059
L173.118 194.291
L173.327 193.522
L173.534 192.754
L173.74 191.986
L173.946 191.217
L174.15 190.449
L174.353 189.681
L174.556 188.913
L174.757 188.144
L174.958 187.376
L175.157 186.608
L175.355 185.84
L175.553 185.071
L175.749 184.303
L175.945 183.535
L176.139 182.766
L176.333 181.998
L176.525 181.23
L176.717 180.462
L176.907 179.693
L177.097 178.925
L177.285 178.157
L177.473 177.388
L177.659 176.62
L177.845 175.852
L178.029 175.084
L178.213 174.315
L178.395 173.547
L178.577 172.779
L178.757 172.01
L178.937 171.242
L179.115 170.474
L179.293 169.706
L179.47 168.937
L179.645 168.169
L179.82 167.401
L179.993 166.632
L180.166 165.864
L180.338 165.096
L180.508 164.328
L180.678 163.559
L180.847 162.791
L181.014 162.023
L181.181 161.254
L181.347 160.486
L181.511 159.718
L181.675 158.95
L181.838 158.181
L181.999 157.413
L182.16 156.645
L182.32 155.876
L182.478 155.108
L182.636 154.34
L182.793 153.572" style="fill:none;stroke:#0000ff;stroke-linecap:square;"/>
   </g>
   <g id="line2d_8">
    <path clip-path="url(#pd9953f5ed3)" d="
M162.207 230.4
L162.462 231.168
L162.716 231.937
L162.969 232.705
L163.221 233.473
L163.472 234.241
L163.722 235.01
L163.971 235.778
L164.219 236.546
L164.466 237.315
L164.712 238.083
L164.957 238.851
L165.201 239.619
L165.444 240.388
L165.686 241.156
L165.927 241.924
L166.167 242.693
L166.407 243.461
L166.645 244.229
L166.882 244.997
L167.118 245.766
L167.353 246.534
L167.587 247.302
L167.82 248.071
L168.053 248.839
L168.284 249.607
L168.514 250.375
L168.743 251.144
L168.971 251.912
L169.198 252.68
L169.425 253.449
L169.65 254.217
L169.874 254.985
L170.097 255.753
L170.32 256.522
L170.541 257.29
L170.761 258.058
L170.98 258.827
L171.199 259.595
L171.416 260.363
L171.632 261.131
L171.847 261.9
L172.062 262.668
L172.275 263.436
L172.487 264.205
L172.699 264.973
L172.909 265.741
L173.118 266.509
L173.327 267.278
L173.534 268.046
L173.74 268.814
L173.946 269.583
L174.15 270.351
L174.353 271.119
L174.556 271.887
L174.757 272.656
L174.958 273.424
L175.157 274.192
L175.355 274.96
L175.553 275.729
L175.749 276.497
L175.945 277.265
L176.139 278.034
L176.333 278.802
L176.525 279.57
L176.717 280.338
L176.907 281.107
L177.097 281.875
L177.285 282.643
L177.473 283.412
L177.659 284.18
L177.845 284.948
L178.029 285.716
L178.213 286.485
L178.395 287.253
L178.577 288.021
L178.757 288.79
L178.937 289.558
L179.115 290.326
L179.293 291.094
L179.47 291.863
L179.645 292.631
L179.82 293.399
L179.993 294.168
L180.166 294.936
L180.338 295.704
L180.508 296.472
L180.678 297.241
L180.847 298.009
L181.014 298.777
L181.181 299.546
L181.347 300.314
L181.511 301.082
L181.675 301.85
L181.838 302.619
L181.999 303.387
L182.16 304.155
L182.32 304.924
L182.478 305.692
L182.636 306.46
L182.793 307.228" style="fill:none;stroke:#0000ff;stroke-linecap:square;"/>
   </g>
   <g id="line2d_9">
    <path clip-path="url(#pd9953f5ed3)" d="
M182.793 230.4
L182.853 229.632
L182.911 228.863
L182.969 228.095
L183.025 227.327
L183.08 226.559
L183.134 225.79
L183.186 225.022
L183.238 224.254
L183.288 223.485
L183.337 222.717
L183.385 221.949
L183.431 221.181
L183.477 220.412
L183.521 219.644
L183.564 218.876
L183.605 218.107
L183.646 217.339
L183.685 216.571
L183.723 215.803
L183.76 215.034
L183.796 214.266
L183.83 213.498
L183.864 212.729
L183.896 211.961
L183.926 211.193
L183.956 210.425
L183.984 209.656
L184.012 208.888
L184.038 208.12
L184.062 207.351
L184.086 206.583
L184.108 205.815
L184.13 205.047
L184.149 204.278
L184.168 203.51
L184.186 202.742
L184.202 201.973
L184.217 201.205
L184.231 200.437
L184.244 199.669
L184.255 198.9
L184.266 198.132
L184.275 197.364
L184.282 196.595
L184.289 195.827
L184.295 195.059
L184.299 194.291
L184.302 193.522
L184.304 192.754
L184.304 191.986
L184.304 191.217
L184.302 190.449
L184.299 189.681
L184.295 188.913
L184.289 188.144
L184.282 187.376
L184.275 186.608
L184.266 185.84
L184.255 185.071
L184.244 184.303
L184.231 183.535
L184.217 182.766
L184.202 181.998
L184.186 181.23
L184.168 180.462
L184.149 179.693
L184.13 178.925
L184.108 178.157
L184.086 177.388
L184.062 176.62
L184.038 175.852
L184.012 175.084
L183.984 174.315
L183.956 173.547
L183.926 172.779
L183.896 172.01
L183.864 171.242
L183.83 170.474
L183.796 169.706
L183.76 168.937
L183.723 168.169
L183.685 167.401
L183.646 166.632
L183.605 165.864
L183.564 165.096
L183.521 164.328
L183.477 163.559
L183.431 162.791
L183.385 162.023
L183.337 161.254
L183.288 160.486
L183.238 159.718
L183.186 158.95
L183.134 158.181
L183.08 157.413
L183.025 156.645
L182.969 155.876
L182.911 155.108
L182.853 154.34
L182.793 153.572" style="fill:none;stroke:#ff0000;stroke-linecap:square;"/>
   </g>
   <g id="line2d_10">
    <path clip-path="url(#pd9953f5ed3)" d="
M182.793 230.4
L182.853 231.168
L182.911 231.937
L182.969 232.705
L183.025 233.473
L183.08 234.241
L183.134 235.01
L183.186 235.778
L183.238 236.546
L183.288 237.315
L183.337 238.083
L183.385 238.851
L183.431 239.619
L183.477 240.388
L183.521 241.156
L183.564 241.924
L183.605 242.693
L183.646 243.461
L183.685 244.229
L183.723 244.997
L183.76 245.766
L183.796 246.534
L183.83 247.302
L183.864 248.071
L183.896 248.839
L183.926 249.607
L183.956 250.375
L183.984 251.144
L184.012 251.912
L184.038 252.68
L184.062 253.449
L184.086 254.217
L184.108 254.985
L184.13 255.753
L184.149 256.522
L184.168 257.29
L184.186 258.058
L184.202 258.827
L184.217 259.595
L184.231 260.363
L184.244 261.131
L184.255 261.9
L184.266 262.668
L184.275 263.436
L184.282 264.205
L184.289 264.973
L184.295 265.741
L184.299 266.509
L184.302 267.278
L184.304 268.046
L184.304 268.814
L184.304 269.583
L184.302 270.351
L184.299 271.119
L184.295 271.887
L184.289 272.656
L184.282 273.424
L184.275 274.192
L184.266 274.96
L184.255 275.729
L184.244 276.497
L184.231 277.265
L184.217 278.034
L184.202 278.802
L184.186 279.57
L184.168 280.338
L184.149 281.107
L184.13 281.875
L184.108 282.643
L184.086 283.412
L184.062 284.18
L184.038 284.948
L184.012 285.716
L183.984 286.485
L183.956 287.253
L183.926 288.021
L183.896 288.79
L183.864 289.558
L183.83 290.326
L183.796 291.094
L183.76 291.863
L183.723 292.631
L183.685 293.399
L183.646 294.168
L183.605 294.936
L183.564 295.704
L183.521 296.472
L183.477 297.241
L183.431 298.009
L183.385 298.777
L183.337 299.546
L183.288 300.314
L183.238 301.082
L183.186 301.85
L183.134 302.619
L183.08 303.387
L183.025 304.155
L182.969 304.924
L182.911 305.692
L182.853 306.46
L182.793 307.228" style="fill:none;stroke:#ff0000;stroke-linecap:square;"/>
   </g>
   <g id="line2d_11">
    <path clip-path="url(#pd9953f5ed3)" d="
M182.793 230.4
L183.086 229.572
L183.378 228.745
L183.668 227.917
L183.957 227.089
L184.244 226.261
L184.53 225.434
L184.815 224.606
L185.098 223.778
L185.38 222.951
L185.66 222.123
L185.939 221.295
L186.216 220.467
L186.492 219.64
L186.766 218.812
L187.039 217.984
L187.311 217.157
L187.581 216.329
L187.85 215.501
L188.117 214.673
L188.383 213.846
L188.647 213.018
L188.91 212.19
L189.171 211.363
L189.431 210.535
L189.69 209.707
L189.947 208.88
L190.203 208.052
L190.457 207.224
L190.71 206.396
L190.961 205.569
L191.211 204.741
L191.459 203.913
L191.707 203.086
L191.952 202.258
L192.196 201.43
L192.439 200.602
L192.68 199.775
L192.92 198.947
L193.158 198.119
L193.395 197.292
L193.631 196.464
L193.865 195.636
L194.097 194.808
L194.329 193.981
L194.558 193.153
L194.787 192.325
L195.013 191.498
L195.239 190.67
L195.463 189.842
L195.685 189.014
L195.906 188.187
L196.126 187.359
L196.344 186.531
L196.561 185.704
L196.776 184.876
L196.99 184.048
L197.202 183.22
L197.413 182.393
L197.623 181.565
L197.831 180.737
L198.038 179.91
L198.243 179.082
L198.447 178.254
L198.649 177.426
L198.85 176.599
L199.049 175.771
L199.247 174.943
L199.444 174.116
L199.639 173.288
L199.832 172.46
L200.025 171.632
L200.215 170.805
L200.405 169.977
L200.593 169.149
L200.779 168.322
L200.964 167.494
L201.148 166.666
L201.33 165.839
L201.51 165.011
L201.69 164.183
L201.867 163.355
L202.044 162.528
L202.219 161.7
L202.392 160.872
L202.564 160.045
L202.735 159.217
L202.904 158.389
L203.072 157.561
L203.238 156.734
L203.403 155.906
L203.566 155.078
L203.728 154.251
L203.888 153.423
L204.047 152.595
L204.205 151.767
L204.361 150.94
L204.516 150.112
L204.669 149.284
L204.821 148.457
L204.971 147.629" style="fill:none;stroke:#0000ff;stroke-linecap:square;"/>
   </g>
   <g id="line2d_12">
    <path clip-path="url(#pd9953f5ed3)" d="
M182.793 230.4
L183.086 231.228
L183.378 232.055
L183.668 232.883
L183.957 233.711
L184.244 234.539
L184.53 235.366
L184.815 236.194
L185.098 237.022
L185.38 237.849
L185.66 238.677
L185.939 239.505
L186.216 240.333
L186.492 241.16
L186.766 241.988
L187.039 242.816
L187.311 243.643
L187.581 244.471
L187.85 245.299
L188.117 246.127
L188.383 246.954
L188.647 247.782
L188.91 248.61
L189.171 249.437
L189.431 250.265
L189.69 251.093
L189.947 251.92
L190.203 252.748
L190.457 253.576
L190.71 254.404
L190.961 255.231
L191.211 256.059
L191.459 256.887
L191.707 257.714
L191.952 258.542
L192.196 259.37
L192.439 260.198
L192.68 261.025
L192.92 261.853
L193.158 262.681
L193.395 263.508
L193.631 264.336
L193.865 265.164
L194.097 265.992
L194.329 266.819
L194.558 267.647
L194.787 268.475
L195.013 269.302
L195.239 270.13
L195.463 270.958
L195.685 271.786
L195.906 272.613
L196.126 273.441
L196.344 274.269
L196.561 275.096
L196.776 275.924
L196.99 276.752
L197.202 277.58
L197.413 278.407
L197.623 279.235
L197.831 280.063
L198.038 280.89
L198.243 281.718
L198.447 282.546
L198.649 283.374
L198.85 284.201
L199.049 285.029
L199.247 285.857
L199.444 286.684
L199.639 287.512
L199.832 288.34
L200.025 289.168
L200.215 289.995
L200.405 290.823
L200.593 291.651
L200.779 292.478
L200.964 293.306
L201.148 294.134
L201.33 294.961
L201.51 295.789
L201.69 296.617
L201.867 297.445
L202.044 298.272
L202.219 299.1
L202.392 299.928
L202.564 300.755
L202.735 301.583
L202.904 302.411
L203.072 303.239
L203.238 304.066
L203.403 304.894
L203.566 305.722
L203.728 306.549
L203.888 307.377
L204.047 308.205
L204.205 309.033
L204.361 309.86
L204.516 310.688
L204.669 311.516
L204.821 312.343
L204.971 313.171" style="fill:none;stroke:#0000ff;stroke-linecap:square;"/>
   </g>
   <g id="line2d_13">
    <path clip-path="url(#pd9953f5ed3)" d="
M204.971 230.4
L205.054 229.572
L205.136 228.745
L205.215 227.917
L205.293 227.089
L205.369 226.261
L205.444 225.434
L205.517 224.606
L205.588 223.778
L205.658 222.951
L205.726 222.123
L205.792 221.295
L205.856 220.467
L205.919 219.64
L205.98 218.812
L206.04 217.984
L206.098 217.157
L206.154 216.329
L206.208 215.501
L206.261 214.673
L206.312 213.846
L206.362 213.018
L206.409 212.19
L206.455 211.363
L206.5 210.535
L206.543 209.707
L206.584 208.88
L206.623 208.052
L206.661 207.224
L206.697 206.396
L206.731 205.569
L206.764 204.741
L206.795 203.913
L206.824 203.086
L206.852 202.258
L206.878 201.43
L206.902 200.602
L206.925 199.775
L206.946 198.947
L206.965 198.119
L206.983 197.292
L206.998 196.464
L207.013 195.636
L207.025 194.808
L207.036 193.981
L207.045 193.153
L207.053 192.325
L207.059 191.498
L207.063 190.67
L207.066 189.842
L207.066 189.014
L207.066 188.187
L207.063 187.359
L207.059 186.531
L207.053 185.704
L207.045 184.876
L207.036 184.048
L207.025 183.22
L207.013 182.393
L206.998 181.565
L206.983 180.737
L206.965 179.91
L206.946 179.082
L206.925 178.254
L206.902 177.426
L206.878 176.599
L206.852 175.771
L206.824 174.943
L206.795 174.116
L206.764 173.288
L206.731 172.46
L206.697 171.632
L206.661 170.805
L206.623 169.977
L206.584 169.149
L206.543 168.322
L206.5 167.494
L206.455 166.666
L206.409 165.839
L206.362 165.011
L206.312 164.183
L206.261 163.355
L206.208 162.528
L206.154 161.7
L206.098 160.872
L206.04 160.045
L205.98 159.217
L205.919 158.389
L205.856 157.561
L205.792 156.734
L205.726 155.906
L205.658 155.078
L205.588 154.251
L205.517 153.423
L205.444 152.595
L205.369 151.767
L205.293 150.94
L205.215 150.112
L205.136 149.284
L205.054 148.457
L204.971 147.629" style="fill:none;stroke:#ff0000;stroke-linecap:square;"/>
   </g>
   <g id="line2d_14">
    <path clip-path="url(#pd9953f5ed3)" d="
M204.971 230.4
L205.054 231.228
L205.136 232.055
L205.215 232.883
L205.293 233.711
L205.369 234.539
L205.444 235.366
L205.517 236.194
L205.588 237.022
L205.658 237.849
L205.726 238.677
L205.792 239.505
L205.856 240.333
L205.919 241.16
L205.98 241.988
L206.04 242.816
L206.098 243.643
L206.154 244.471
L206.208 245.299
L206.261 246.127
L206.312 246.954
L206.362 247.782
L206.409 248.61
L206.455 249.437
L206.5 250.265
L206.543 251.093
L206.584 251.92
L206.623 252.748
L206.661 253.576
L206.697 254.404
L206.731 255.231
L206.764 256.059
L206.795 256.887
L206.824 257.714
L206.852 258.542
L206.878 259.37
L206.902 260.198
L206.925 261.025
L206.946 261.853
L206.965 262.681
L206.983 263.508
L206.998 264.336
L207.013 265.164
L207.025 265.992
L207.036 266.819
L207.045 267.647
L207.053 268.475
L207.059 269.302
L207.063 270.13
L207.066 270.958
L207.066 271.786
L207.066 272.613
L207.063 273.441
L207.059 274.269
L207.053 275.096
L207.045 275.924
L207.036 276.752
L207.025 277.58
L207.013 278.407
L206.998 279.235
L206.983 280.063
L206.965 280.89
L206.946 281.718
L206.925 282.546
L206.902 283.374
L206.878 284.201
L206.852 285.029
L206.824 285.857
L206.795 286.684
L206.764 287.512
L206.731 288.34
L206.697 289.168
L206.661 289.995
L206.623 290.823
L206.584 291.651
L206.543 292.478
L206.5 293.306
L206.455 294.134
L206.409 294.961
L206.362 295.789
L206.312 296.617
L206.261 297.445
L206.208 298.272
L206.154 299.1
L206.098 299.928
L206.04 300.755
L205.98 301.583
L205.919 302.411
L205.856 303.239
L205.792 304.066
L205.726 304.894
L205.658 305.722
L205.588 306.549
L205.517 307.377
L205.444 308.205
L205.369 309.033
L205.293 309.86
L205.215 310.688
L205.136 311.516
L205.054 312.343
L204.971 313.171" style="fill:none;stroke:#ff0000;stroke-linecap:square;"/>
   </g>
   <g id="line2d_15">
    <path clip-path="url(#pd9953f5ed3)" d="
M204.971 230.4
L205.306 229.508
L205.638 228.617
L205.969 227.725
L206.297 226.833
L206.624 225.941
L206.949 225.05
L207.271 224.158
L207.592 223.266
L207.911 222.374
L208.228 221.483
L208.543 220.591
L208.856 219.699
L209.168 218.807
L209.477 217.916
L209.784 217.024
L210.09 216.132
L210.393 215.241
L210.695 214.349
L210.994 213.457
L211.292 212.565
L211.588 211.674
L211.882 210.782
L212.174 209.89
L212.464 208.998
L212.752 208.107
L213.038 207.215
L213.322 206.323
L213.605 205.431
L213.885 204.54
L214.163 203.648
L214.44 202.756
L214.715 201.864
L214.987 200.973
L215.258 200.081
L215.527 199.189
L215.794 198.298
L216.059 197.406
L216.322 196.514
L216.583 195.622
L216.842 194.731
L217.099 193.839
L217.355 192.947
L217.608 192.055
L217.859 191.164
L218.109 190.272
L218.357 189.38
L218.602 188.488
L218.846 187.597
L219.088 186.705
L219.328 185.813
L219.566 184.922
L219.802 184.03
L220.036 183.138
L220.268 182.246
L220.498 181.355
L220.727 180.463
L220.953 179.571
L221.178 178.679
L221.4 177.788
L221.621 176.896
L221.839 176.004
L222.056 175.112
L222.271 174.221
L222.484 173.329
L222.695 172.437
L222.904 171.545
L223.111 170.654
L223.316 169.762
L223.52 168.87
L223.721 167.979
L223.92 167.087
L224.118 166.195
L224.314 165.303
L224.507 164.412
L224.699 163.52
L224.889 162.628
L225.077 161.736
L225.262 160.845
L225.446 159.953
L225.629 159.061
L225.809 158.169
L225.987 157.278
L226.163 156.386
L226.338 155.494
L226.51 154.603
L226.681 153.711
L226.849 152.819
L227.016 151.927
L227.181 151.036
L227.343 150.144
L227.504 149.252
L227.663 148.36
L227.82 147.469
L227.975 146.577
L228.128 145.685
L228.28 144.793
L228.429 143.902
L228.576 143.01
L228.722 142.118
L228.865 141.226" style="fill:none;stroke:#0000ff;stroke-linecap:square;"/>
   </g>
   <g id="line2d_16">
    <path clip-path="url(#pd9953f5ed3)" d="
M204.971 230.4
L205.306 231.292
L205.638 232.183
L205.969 233.075
L206.297 233.967
L206.624 234.859
L206.949 235.75
L207.271 236.642
L207.592 237.534
L207.911 238.426
L208.228 239.317
L208.543 240.209
L208.856 241.101
L209.168 241.993
L209.477 242.884
L209.784 243.776
L210.09 244.668
L210.393 245.559
L210.695 246.451
L210.994 247.343
L211.292 248.235
L211.588 249.126
L211.882 250.018
L212.174 250.91
L212.464 251.802
L212.752 252.693
L213.038 253.585
L213.322 254.477
L213.605 255.369
L213.885 256.26
L214.163 257.152
L214.44 258.044
L214.715 258.936
L214.987 259.827
L215.258 260.719
L215.527 261.611
L215.794 262.502
L216.059 263.394
L216.322 264.286
L216.583 265.178
L216.842 266.069
L217.099 266.961
L217.355 267.853
L217.608 268.745
L217.859 269.636
L218.109 270.528
L218.357 271.42
L218.602 272.312
L218.846 273.203
L219.088 274.095
L219.328 274.987
L219.566 275.878
L219.802 276.77
L220.036 277.662
L220.268 278.554
L220.498 279.445
L220.727 280.337
L220.953 281.229
L221.178 282.121
L221.4 283.012
L221.621 283.904
L221.839 284.796
L222.056 285.688
L222.271 286.579
L222.484 287.471
L222.695 288.363
L222.904 289.255
L223.111 290.146
L223.316 291.038
L223.52 291.93
L223.721 292.821
L223.92 293.713
L224.118 294.605
L224.314 295.497
L224.507 296.388
L224.699 297.28
L224.889 298.172
L225.077 299.064
L225.262 299.955
L225.446 300.847
L225.629 301.739
L225.809 302.631
L225.987 303.522
L226.163 304.414
L226.338 305.306
L226.51 306.197
L226.681 307.089
L226.849 307.981
L227.016 308.873
L227.181 309.764
L227.343 310.656
L227.504 311.548
L227.663 312.44
L227.82 313.331
L227.975 314.223
L228.128 315.115
L228.28 316.007
L228.429 316.898
L228.576 317.79
L228.722 318.682
L228.865 319.574" style="fill:none;stroke:#0000ff;stroke-linecap:square;"/>
   </g>
   <g id="line2d_17">
    <path clip-path="url(#pd9953f5ed3)" d="
M228.865 230.4
L228.973 229.508
L229.079 228.617
L229.182 227.725
L229.284 226.833
L229.383 225.941
L229.48 225.05
L229.575 224.158
L229.667 223.266
L229.758 222.374
L229.846 221.483
L229.932 220.591
L230.016 219.699
L230.098 218.807
L230.177 217.916
L230.254 217.024
L230.33 216.132
L230.403 215.241
L230.473 214.349
L230.542 213.457
L230.609 212.565
L230.673 211.674
L230.735 210.782
L230.795 209.89
L230.853 208.998
L230.908 208.107
L230.962 207.215
L231.013 206.323
L231.062 205.431
L231.109 204.54
L231.153 203.648
L231.196 202.756
L231.236 201.864
L231.274 200.973
L231.31 200.081
L231.344 199.189
L231.376 198.298
L231.405 197.406
L231.432 196.514
L231.457 195.622
L231.48 194.731
L231.501 193.839
L231.519 192.947
L231.536 192.055
L231.55 191.164
L231.562 190.272
L231.572 189.38
L231.579 188.488
L231.585 187.597
L231.588 186.705
L231.589 185.813
L231.588 184.922
L231.585 184.03
L231.579 183.138
L231.572 182.246
L231.562 181.355
L231.55 180.463
L231.536 179.571
L231.519 178.679
L231.501 177.788
L231.48 176.896
L231.457 176.004
L231.432 175.112
L231.405 174.221
L231.376 173.329
L231.344 172.437
L231.31 171.545
L231.274 170.654
L231.236 169.762
L231.196 168.87
L231.153 167.979
L231.109 167.087
L231.062 166.195
L231.013 165.303
L230.962 164.412
L230.908 163.52
L230.853 162.628
L230.795 161.736
L230.735 160.845
L230.673 159.953
L230.609 159.061
L230.542 158.169
L230.473 157.278
L230.403 156.386
L230.33 155.494
L230.254 154.603
L230.177 153.711
L230.098 152.819
L230.016 151.927
L229.932 151.036
L229.846 150.144
L229.758 149.252
L229.667 148.36
L229.575 147.469
L229.48 146.577
L229.383 145.685
L229.284 144.793
L229.182 143.902
L229.079 143.01
L228.973 142.118
L228.865 141.226" style="fill:none;stroke:#ff0000;stroke-linecap:square;"/>
   </g>
   <g id="line2d_18">
    <path clip-path="url(#pd9953f5ed3)" d="
M228.865 230.4
L228.973 231.292
L229.079 232.183
L229.182 233.075
L229.284 233.967
L229.383 234.859
L229.48 235.75
L229.575 236.642
L229.667 237.534
L229.758 238.426
L229.846 239.317
L229.932 240.209
L230.016 241.101
L230.098 241.993
L230.177 242.884
L230.254 243.776
L230.33 244.668
L230.403 245.559
L230.473 246.451
L230.542 247.343
L230.609 248.235
L230.673 249.126
L230.735 250.018
L230.795 250.91
L230.853 251.802
L230.908 252.693
L230.962 253.585
L231.013 254.477
L231.062 255.369
L231.109 256.26
L231.153 257.152
L231.196 258.044
L231.236 258.936
L231.274 259.827
L231.31 260.719
L231.344 261.611
L231.376 262.502
L231.405 263.394
L231.432 264.286
L231.457 265.178
L231.48 266.069
L231.501 266.961
L231.519 267.853
L231.536 268.745
L231.55 269.636
L231.562 270.528
L231.572 271.42
L231.579 272.312
L231.585 273.203
L231.588 274.095
L231.589 274.987
L231.588 275.878
L231.585 276.77
L231.579 277.662
L231.572 278.554
L231.562 279.445
L231.55 280.337
L231.536 281.229
L231.519 282.121
L231.501 283.012
L231.48 283.904
L231.457 284.796
L231.432 285.688
L231.405 286.579
L231.376 287.471
L231.344 288.363
L231.31 289.255
L231.274 290.146
L231.236 291.038
L231.196 291.93
L231.153 292.821
L231.109 293.713
L231.062 294.605
L231.013 295.497
L230.962 296.388
L230.908 297.28
L230.853 298.172
L230.795 299.064
L230.735 299.955
L230.673 300.847
L230.609 301.739
L230.542 302.631
L230.473 303.522
L230.403 304.414
L230.33 305.306
L230.254 306.197
L230.177 307.089
L230.098 307.981
L230.016 308.873
L229.932 309.764
L229.846 310.656
L229.758 311.548
L229.667 312.44
L229.575 313.331
L229.48 314.223
L229.383 315.115
L229.284 316.007
L229.182 316.898
L229.079 317.79
L228.973 318.682
L228.865 319.574" style="fill:none;stroke:#ff0000;stroke-linecap:square;"/>
   </g>
   <g id="line2d_19">
    <path clip-path="url(#pd9953f5ed3)" d="
M228.865 230.4
L229.244 229.439
L229.62 228.479
L229.994 227.518
L230.365 226.557
L230.734 225.596
L231.101 224.636
L231.465 223.675
L231.826 222.714
L232.185 221.754
L232.542 220.793
L232.896 219.832
L233.248 218.871
L233.597 217.911
L233.944 216.95
L234.289 215.989
L234.63 215.029
L234.97 214.068
L235.307 213.107
L235.642 212.146
L235.974 211.186
L236.303 210.225
L236.631 209.264
L236.955 208.304
L237.278 207.343
L237.598 206.382
L237.915 205.422
L238.23 204.461
L238.543 203.5
L238.853 202.539
L239.16 201.579
L239.466 200.618
L239.768 199.657
L240.069 198.697
L240.367 197.736
L240.662 196.775
L240.955 195.814
L241.245 194.854
L241.533 193.893
L241.819 192.932
L242.102 191.972
L242.383 191.011
L242.661 190.05
L242.937 189.089
L243.21 188.129
L243.481 187.168
L243.75 186.207
L244.016 185.247
L244.279 184.286
L244.54 183.325
L244.799 182.364
L245.055 181.404
L245.309 180.443
L245.56 179.482
L245.809 178.522
L246.055 177.561
L246.299 176.6
L246.541 175.639
L246.78 174.679
L247.016 173.718
L247.251 172.757
L247.482 171.797
L247.712 170.836
L247.938 169.875
L248.163 168.914
L248.385 167.954
L248.604 166.993
L248.821 166.032
L249.036 165.072
L249.248 164.111
L249.457 163.15
L249.665 162.19
L249.869 161.229
L250.072 160.268
L250.271 159.307
L250.469 158.347
L250.664 157.386
L250.856 156.425
L251.046 155.465
L251.234 154.504
L251.419 153.543
L251.602 152.582
L251.782 151.622
L251.96 150.661
L252.135 149.7
L252.308 148.74
L252.478 147.779
L252.646 146.818
L252.812 145.857
L252.975 144.897
L253.136 143.936
L253.294 142.975
L253.45 142.015
L253.603 141.054
L253.754 140.093
L253.902 139.132
L254.048 138.172
L254.192 137.211
L254.333 136.25
L254.471 135.29
L254.608 134.329" style="fill:none;stroke:#0000ff;stroke-linecap:square;"/>
   </g>
   <g id="line2d_20">
    <path clip-path="url(#pd9953f5ed3)" d="
M228.865 230.4
L229.244 231.361
L229.62 232.321
L229.994 233.282
L230.365 234.243
L230.734 235.204
L231.101 236.164
L231.465 237.125
L231.826 238.086
L232.185 239.046
L232.542 240.007
L232.896 240.968
L233.248 241.929
L233.597 242.889
L233.944 243.85
L234.289 244.811
L234.63 245.771
L234.97 246.732
L235.307 247.693
L235.642 248.654
L235.974 249.614
L236.303 250.575
L236.631 251.536
L236.955 252.496
L237.278 253.457
L237.598 254.418
L237.915 255.378
L238.23 256.339
L238.543 257.3
L238.853 258.261
L239.16 259.221
L239.466 260.182
L239.768 261.143
L240.069 262.103
L240.367 263.064
L240.662 264.025
L240.955 264.986
L241.245 265.946
L241.533 266.907
L241.819 267.868
L242.102 268.828
L242.383 269.789
L242.661 270.75
L242.937 271.711
L243.21 272.671
L243.481 273.632
L243.75 274.593
L244.016 275.553
L244.279 276.514
L244.54 277.475
L244.799 278.436
L245.055 279.396
L245.309 280.357
L245.56 281.318
L245.809 282.278
L246.055 283.239
L246.299 284.2
L246.541 285.161
L246.78 286.121
L247.016 287.082
L247.251 288.043
L247.482 289.003
L247.712 289.964
L247.938 290.925
L248.163 291.886
L248.385 292.846
L248.604 293.807
L248.821 294.768
L249.036 295.728
L249.248 296.689
L249.457 297.65
L249.665 298.61
L249.869 299.571
L250.072 300.532
L250.271 301.493
L250.469 302.453
L250.664 303.414
L250.856 304.375
L251.046 305.335
L251.234 306.296
L251.419 307.257
L251.602 308.218
L251.782 309.178
L251.96 310.139
L252.135 311.1
L252.308 312.06
L252.478 313.021
L252.646 313.982
L252.812 314.943
L252.975 315.903
L253.136 316.864
L253.294 317.825
L253.45 318.785
L253.603 319.746
L253.754 320.707
L253.902 321.668
L254.048 322.628
L254.192 323.589
L254.333 324.55
L254.471 325.51
L254.608 326.471" style="fill:none;stroke:#0000ff;stroke-linecap:square;"/>
   </g>
   <g id="line2d_21">
    <path clip-path="url(#pd9953f5ed3)" d="
M254.608 230.4
L254.742 229.439
L254.874 228.479
L255.003 227.518
L255.13 226.557
L255.254 225.596
L255.375 224.636
L255.493 223.675
L255.609 222.714
L255.722 221.754
L255.832 220.793
L255.939 219.832
L256.044 218.871
L256.146 217.911
L256.246 216.95
L256.342 215.989
L256.436 215.029
L256.527 214.068
L256.616 213.107
L256.701 212.146
L256.784 211.186
L256.865 210.225
L256.942 209.264
L257.017 208.304
L257.089 207.343
L257.158 206.382
L257.225 205.422
L257.289 204.461
L257.35 203.5
L257.409 202.539
L257.465 201.579
L257.518 200.618
L257.568 199.657
L257.616 198.697
L257.66 197.736
L257.703 196.775
L257.742 195.814
L257.779 194.854
L257.813 193.893
L257.844 192.932
L257.873 191.972
L257.899 191.011
L257.922 190.05
L257.942 189.089
L257.96 188.129
L257.975 187.168
L257.987 186.207
L257.996 185.247
L258.003 184.286
L258.007 183.325
L258.009 182.364
L258.007 181.404
L258.003 180.443
L257.996 179.482
L257.987 178.522
L257.975 177.561
L257.96 176.6
L257.942 175.639
L257.922 174.679
L257.899 173.718
L257.873 172.757
L257.844 171.797
L257.813 170.836
L257.779 169.875
L257.742 168.914
L257.703 167.954
L257.66 166.993
L257.616 166.032
L257.568 165.072
L257.518 164.111
L257.465 163.15
L257.409 162.19
L257.35 161.229
L257.289 160.268
L257.225 159.307
L257.158 158.347
L257.089 157.386
L257.017 156.425
L256.942 155.465
L256.865 154.504
L256.784 153.543
L256.701 152.582
L256.616 151.622
L256.527 150.661
L256.436 149.7
L256.342 148.74
L256.246 147.779
L256.146 146.818
L256.044 145.857
L255.939 144.897
L255.832 143.936
L255.722 142.975
L255.609 142.015
L255.493 141.054
L255.375 140.093
L255.254 139.132
L255.13 138.172
L255.003 137.211
L254.874 136.25
L254.742 135.29
L254.608 134.329" style="fill:none;stroke:#ff0000;stroke-linecap:square;"/>
   </g>
   <g id="line2d_22">
    <path clip-path="url(#pd9953f5ed3)" d="
M254.608 230.4
L254.742 231.361
L254.874 232.321
L255.003 233.282
L255.13 234.243
L255.254 235.204
L255.375 236.164
L255.493 237.125
L255.609 238.086
L255.722 239.046
L255.832 240.007
L255.939 240.968
L256.044 241.929
L256.146 242.889
L256.246 243.85
L256.342 244.811
L256.436 245.771
L256.527 246.732
L256.616 247.693
L256.701 248.654
L256.784 249.614
L256.865 250.575
L256.942 251.536
L257.017 252.496
L257.089 253.457
L257.158 254.418
L257.225 255.378
L257.289 256.339
L257.35 257.3
L257.409 258.261
L257.465 259.221
L257.518 260.182
L257.568 261.143
L257.616 262.103
L257.66 263.064
L257.703 264.025
L257.742 264.986
L257.779 265.946
L257.813 266.907
L257.844 267.868
L257.873 268.828
L257.899 269.789
L257.922 270.75
L257.942 271.711
L257.96 272.671
L257.975 273.632
L257.987 274.593
L257.996 275.553
L258.003 276.514
L258.007 277.475
L258.009 278.436
L258.007 279.396
L258.003 280.357
L257.996 281.318
L257.987 282.278
L257.975 283.239
L257.96 284.2
L257.942 285.161
L257.922 286.121
L257.899 287.082
L257.873 288.043
L257.844 289.003
L257.813 289.964
L257.779 290.925
L257.742 291.886
L257.703 292.846
L257.66 293.807
L257.616 294.768
L257.568 295.728
L257.518 296.689
L257.465 297.65
L257.409 298.61
L257.35 299.571
L257.289 300.532
L257.225 301.493
L257.158 302.453
L257.089 303.414
L257.017 304.375
L256.942 305.335
L256.865 306.296
L256.784 307.257
L256.701 308.218
L256.616 309.178
L256.527 310.139
L256.436 311.1
L256.342 312.06
L256.246 313.021
L256.146 313.982
L256.044 314.943
L255.939 315.903
L255.832 316.864
L255.722 317.825
L255.609 318.785
L255.493 319.746
L255.375 320.707
L255.254 321.668
L255.13 322.628
L255.003 323.589
L254.874 324.55
L254.742 325.51
L254.608 326.471" style="fill:none;stroke:#ff0000;stroke-linecap:square;"/>
   </g>
   <g id="line2d_23">
    <path clip-path="url(#pd9953f5ed3)" d="
M254.608 230.4
L255.034 229.365
L255.457 228.33
L255.878 227.295
L256.295 226.26
L256.71 225.225
L257.121 224.19
L257.53 223.155
L257.935 222.12
L258.337 221.085
L258.737 220.05
L259.133 219.015
L259.526 217.98
L259.917 216.945
L260.304 215.91
L260.688 214.875
L261.07 213.84
L261.448 212.805
L261.823 211.77
L262.195 210.735
L262.564 209.7
L262.931 208.665
L263.294 207.63
L263.654 206.594
L264.011 205.559
L264.365 204.524
L264.717 203.489
L265.065 202.454
L265.41 201.419
L265.752 200.384
L266.091 199.349
L266.427 198.314
L266.76 197.279
L267.09 196.244
L267.417 195.209
L267.741 194.174
L268.062 193.139
L268.38 192.104
L268.695 191.069
L269.007 190.034
L269.316 188.999
L269.622 187.964
L269.925 186.929
L270.225 185.894
L270.522 184.859
L270.816 183.824
L271.107 182.789
L271.395 181.754
L271.68 180.719
L271.961 179.684
L272.24 178.649
L272.516 177.614
L272.789 176.579
L273.059 175.544
L273.326 174.509
L273.589 173.474
L273.85 172.439
L274.108 171.404
L274.363 170.369
L274.614 169.334
L274.863 168.299
L275.109 167.264
L275.351 166.229
L275.591 165.194
L275.828 164.159
L276.061 163.124
L276.292 162.089
L276.52 161.054
L276.744 160.018
L276.966 158.983
L277.184 157.948
L277.4 156.913
L277.613 155.878
L277.822 154.843
L278.029 153.808
L278.232 152.773
L278.433 151.738
L278.63 150.703
L278.825 149.668
L279.016 148.633
L279.204 147.598
L279.39 146.563
L279.572 145.528
L279.752 144.493
L279.928 143.458
L280.102 142.423
L280.272 141.388
L280.439 140.353
L280.604 139.318
L280.765 138.283
L280.923 137.248
L281.079 136.213
L281.231 135.178
L281.38 134.143
L281.526 133.108
L281.67 132.073
L281.81 131.038
L281.947 130.003
L282.081 128.968
L282.213 127.933
L282.341 126.898" style="fill:none;stroke:#0000ff;stroke-linecap:square;"/>
   </g>
   <g id="line2d_24">
    <path clip-path="url(#pd9953f5ed3)" d="
M254.608 230.4
L255.034 231.435
L255.457 232.47
L255.878 233.505
L256.295 234.54
L256.71 235.575
L257.121 236.61
L257.53 237.645
L257.935 238.68
L258.337 239.715
L258.737 240.75
L259.133 241.785
L259.526 242.82
L259.917 243.855
L260.304 244.89
L260.688 245.925
L261.07 246.96
L261.448 247.995
L261.823 249.03
L262.195 250.065
L262.564 251.1
L262.931 252.135
L263.294 253.17
L263.654 254.206
L264.011 255.241
L264.365 256.276
L264.717 257.311
L265.065 258.346
L265.41 259.381
L265.752 260.416
L266.091 261.451
L266.427 262.486
L266.76 263.521
L267.09 264.556
L267.417 265.591
L267.741 266.626
L268.062 267.661
L268.38 268.696
L268.695 269.731
L269.007 270.766
L269.316 271.801
L269.622 272.836
L269.925 273.871
L270.225 274.906
L270.522 275.941
L270.816 276.976
L271.107 278.011
L271.395 279.046
L271.68 280.081
L271.961 281.116
L272.24 282.151
L272.516 283.186
L272.789 284.221
L273.059 285.256
L273.326 286.291
L273.589 287.326
L273.85 288.361
L274.108 289.396
L274.363 290.431
L274.614 291.466
L274.863 292.501
L275.109 293.536
L275.351 294.571
L275.591 295.606
L275.828 296.641
L276.061 297.676
L276.292 298.711
L276.52 299.746
L276.744 300.782
L276.966 301.817
L277.184 302.852
L277.4 303.887
L277.613 304.922
L277.822 305.957
L278.029 306.992
L278.232 308.027
L278.433 309.062
L278.63 310.097
L278.825 311.132
L279.016 312.167
L279.204 313.202
L279.39 314.237
L279.572 315.272
L279.752 316.307
L279.928 317.342
L280.102 318.377
L280.272 319.412
L280.439 320.447
L280.604 321.482
L280.765 322.517
L280.923 323.552
L281.079 324.587
L281.231 325.622
L281.38 326.657
L281.526 327.692
L281.67 328.727
L281.81 329.762
L281.947 330.797
L282.081 331.832
L282.213 332.867
L282.341 333.902" style="fill:none;stroke:#0000ff;stroke-linecap:square;"/>
   </g>
   <g id="line2d_25">
    <path clip-path="url(#pd9953f5ed3)" d="
M282.341 230.4
L282.504 229.365
L282.665 228.33
L282.822 227.295
L282.975 226.26
L283.126 225.225
L283.273 224.19
L283.417 223.155
L283.557 222.12
L283.694 221.085
L283.828 220.05
L283.959 219.015
L284.086 217.98
L284.21 216.945
L284.33 215.91
L284.448 214.875
L284.562 213.84
L284.672 212.805
L284.78 211.77
L284.884 210.735
L284.985 209.7
L285.082 208.665
L285.176 207.63
L285.267 206.594
L285.355 205.559
L285.439 204.524
L285.52 203.489
L285.598 202.454
L285.672 201.419
L285.743 200.384
L285.811 199.349
L285.875 198.314
L285.936 197.279
L285.994 196.244
L286.049 195.209
L286.1 194.174
L286.148 193.139
L286.193 192.104
L286.234 191.069
L286.272 190.034
L286.307 188.999
L286.338 187.964
L286.366 186.929
L286.391 185.894
L286.412 184.859
L286.431 183.824
L286.445 182.789
L286.457 181.754
L286.465 180.719
L286.47 179.684
L286.472 178.649
L286.47 177.614
L286.465 176.579
L286.457 175.544
L286.445 174.509
L286.431 173.474
L286.412 172.439
L286.391 171.404
L286.366 170.369
L286.338 169.334
L286.307 168.299
L286.272 167.264
L286.234 166.229
L286.193 165.194
L286.148 164.159
L286.1 163.124
L286.049 162.089
L285.994 161.054
L285.936 160.018
L285.875 158.983
L285.811 157.948
L285.743 156.913
L285.672 155.878
L285.598 154.843
L285.52 153.808
L285.439 152.773
L285.355 151.738
L285.267 150.703
L285.176 149.668
L285.082 148.633
L284.985 147.598
L284.884 146.563
L284.78 145.528
L284.672 144.493
L284.562 143.458
L284.448 142.423
L284.33 141.388
L284.21 140.353
L284.086 139.318
L283.959 138.283
L283.828 137.248
L283.694 136.213
L283.557 135.178
L283.417 134.143
L283.273 133.108
L283.126 132.073
L282.975 131.038
L282.822 130.003
L282.665 128.968
L282.504 127.933
L282.341 126.898" style="fill:none;stroke:#ff0000;stroke-linecap:square;"/>
   </g>
   <g id="line2d_26">
    <path clip-path="url(#pd9953f5ed3)" d="
M282.341 230.4
L282.504 231.435
L282.665 232.47
L282.822 233.505
L282.975 234.54
L283.126 235.575
L283.273 236.61
L283.417 237.645
L283.557 238.68
L283.694 239.715
L283.828 240.75
L283.959 241.785
L284.086 242.82
L284.21 243.855
L284.33 244.89
L284.448 245.925
L284.562 246.96
L284.672 247.995
L284.78 249.03
L284.884 250.065
L284.985 251.1
L285.082 252.135
L285.176 253.17
L285.267 254.206
L285.355 255.241
L285.439 256.276
L285.52 257.311
L285.598 258.346
L285.672 259.381
L285.743 260.416
L285.811 261.451
L285.875 262.486
L285.936 263.521
L285.994 264.556
L286.049 265.591
L286.1 266.626
L286.148 267.661
L286.193 268.696
L286.234 269.731
L286.272 270.766
L286.307 271.801
L286.338 272.836
L286.366 273.871
L286.391 274.906
L286.412 275.941
L286.431 276.976
L286.445 278.011
L286.457 279.046
L286.465 280.081
L286.47 281.116
L286.472 282.151
L286.47 283.186
L286.465 284.221
L286.457 285.256
L286.445 286.291
L286.431 287.326
L286.412 288.361
L286.391 289.396
L286.366 290.431
L286.338 291.466
L286.307 292.501
L286.272 293.536
L286.234 294.571
L286.193 295.606
L286.148 296.641
L286.1 297.676
L286.049 298.711
L285.994 299.746
L285.936 300.782
L285.875 301.817
L285.811 302.852
L285.743 303.887
L285.672 304.922
L285.598 305.957
L285.52 306.992
L285.439 308.027
L285.355 309.062
L285.267 310.097
L285.176 311.132
L285.082 312.167
L284.985 313.202
L284.884 314.237
L284.78 315.272
L284.672 316.307
L284.562 317.342
L284.448 318.377
L284.33 319.412
L284.21 320.447
L284.086 321.482
L283.959 322.517
L283.828 323.552
L283.694 324.587
L283.557 325.622
L283.417 326.657
L283.273 327.692
L283.126 328.727
L282.975 329.762
L282.822 330.797
L282.665 331.832
L282.504 332.867
L282.341 333.902" style="fill:none;stroke:#ff0000;stroke-linecap:square;"/>
   </g>
   <g id="line2d_27">
    <path clip-path="url(#pd9953f5ed3)" d="
M282.341 230.4
L282.819 229.285
L283.293 228.17
L283.764 227.055
L284.231 225.94
L284.694 224.825
L285.154 223.71
L285.61 222.594
L286.063 221.479
L286.512 220.364
L286.957 219.249
L287.399 218.134
L287.837 217.019
L288.272 215.904
L288.703 214.789
L289.13 213.674
L289.554 212.559
L289.974 211.444
L290.39 210.329
L290.803 209.213
L291.212 208.098
L291.618 206.983
L292.02 205.868
L292.418 204.753
L292.813 203.638
L293.204 202.523
L293.591 201.408
L293.975 200.293
L294.355 199.178
L294.732 198.063
L295.105 196.948
L295.474 195.832
L295.84 194.717
L296.202 193.602
L296.56 192.487
L296.915 191.372
L297.267 190.257
L297.614 189.142
L297.958 188.027
L298.299 186.912
L298.635 185.797
L298.969 184.682
L299.298 183.567
L299.624 182.451
L299.946 181.336
L300.265 180.221
L300.58 179.106
L300.892 177.991
L301.199 176.876
L301.504 175.761
L301.804 174.646
L302.101 173.531
L302.395 172.416
L302.684 171.301
L302.97 170.186
L303.253 169.071
L303.532 167.955
L303.807 166.84
L304.079 165.725
L304.347 164.61
L304.611 163.495
L304.872 162.38
L305.129 161.265
L305.383 160.15
L305.633 159.035
L305.879 157.92
L306.122 156.805
L306.361 155.69
L306.596 154.574
L306.828 153.459
L307.056 152.344
L307.281 151.229
L307.502 150.114
L307.719 148.999
L307.933 147.884
L308.143 146.769
L308.349 145.654
L308.552 144.539
L308.751 143.424
L308.947 142.309
L309.139 141.193
L309.328 140.078
L309.512 138.963
L309.693 137.848
L309.871 136.733
L310.045 135.618
L310.215 134.503
L310.382 133.388
L310.545 132.273
L310.704 131.158
L310.86 130.043
L311.012 128.928
L311.161 127.813
L311.306 126.697
L311.447 125.582
L311.585 124.467
L311.719 123.352
L311.85 122.237
L311.976 121.122
L312.1 120.007
L312.219 118.892" style="fill:none;stroke:#0000ff;stroke-linecap:square;"/>
   </g>
   <g id="line2d_28">
    <path clip-path="url(#pd9953f5ed3)" d="
M282.341 230.4
L282.819 231.515
L283.293 232.63
L283.764 233.745
L284.231 234.86
L284.694 235.975
L285.154 237.09
L285.61 238.206
L286.063 239.321
L286.512 240.436
L286.957 241.551
L287.399 242.666
L287.837 243.781
L288.272 244.896
L288.703 246.011
L289.13 247.126
L289.554 248.241
L289.974 249.356
L290.39 250.471
L290.803 251.587
L291.212 252.702
L291.618 253.817
L292.02 254.932
L292.418 256.047
L292.813 257.162
L293.204 258.277
L293.591 259.392
L293.975 260.507
L294.355 261.622
L294.732 262.737
L295.105 263.852
L295.474 264.968
L295.84 266.083
L296.202 267.198
L296.56 268.313
L296.915 269.428
L297.267 270.543
L297.614 271.658
L297.958 272.773
L298.299 273.888
L298.635 275.003
L298.969 276.118
L299.298 277.233
L299.624 278.349
L299.946 279.464
L300.265 280.579
L300.58 281.694
L300.892 282.809
L301.199 283.924
L301.504 285.039
L301.804 286.154
L302.101 287.269
L302.395 288.384
L302.684 289.499
L302.97 290.614
L303.253 291.729
L303.532 292.845
L303.807 293.96
L304.079 295.075
L304.347 296.19
L304.611 297.305
L304.872 298.42
L305.129 299.535
L305.383 300.65
L305.633 301.765
L305.879 302.88
L306.122 303.995
L306.361 305.11
L306.596 306.226
L306.828 307.341
L307.056 308.456
L307.281 309.571
L307.502 310.686
L307.719 311.801
L307.933 312.916
L308.143 314.031
L308.349 315.146
L308.552 316.261
L308.751 317.376
L308.947 318.491
L309.139 319.607
L309.328 320.722
L309.512 321.837
L309.693 322.952
L309.871 324.067
L310.045 325.182
L310.215 326.297
L310.382 327.412
L310.545 328.527
L310.704 329.642
L310.86 330.757
L311.012 331.872
L311.161 332.987
L311.306 334.103
L311.447 335.218
L311.585 336.333
L311.719 337.448
L311.85 338.563
L311.976 339.678
L312.1 340.793
L312.219 341.908" style="fill:none;stroke:#0000ff;stroke-linecap:square;"/>
   </g>
   <g id="line2d_29">
    <path clip-path="url(#pd9953f5ed3)" d="
M312.219 230.4
L312.414 229.285
L312.605 228.17
L312.792 227.055
L312.975 225.94
L313.154 224.825
L313.329 223.71
L313.5 222.594
L313.667 221.479
L313.83 220.364
L313.99 219.249
L314.145 218.134
L314.296 217.019
L314.444 215.904
L314.588 214.789
L314.727 213.674
L314.863 212.559
L314.995 211.444
L315.123 210.329
L315.246 209.213
L315.366 208.098
L315.482 206.983
L315.595 205.868
L315.703 204.753
L315.807 203.638
L315.907 202.523
L316.004 201.408
L316.096 200.293
L316.185 199.178
L316.269 198.063
L316.35 196.948
L316.427 195.832
L316.499 194.717
L316.568 193.602
L316.633 192.487
L316.694 191.372
L316.751 190.257
L316.804 189.142
L316.853 188.027
L316.899 186.912
L316.94 185.797
L316.977 184.682
L317.011 183.567
L317.04 182.451
L317.066 181.336
L317.087 180.221
L317.105 179.106
L317.119 177.991
L317.129 176.876
L317.135 175.761
L317.137 174.646
L317.135 173.531
L317.129 172.416
L317.119 171.301
L317.105 170.186
L317.087 169.071
L317.066 167.955
L317.04 166.84
L317.011 165.725
L316.977 164.61
L316.94 163.495
L316.899 162.38
L316.853 161.265
L316.804 160.15
L316.751 159.035
L316.694 157.92
L316.633 156.805
L316.568 155.69
L316.499 154.574
L316.427 153.459
L316.35 152.344
L316.269 151.229
L316.185 150.114
L316.096 148.999
L316.004 147.884
L315.907 146.769
L315.807 145.654
L315.703 144.539
L315.595 143.424
L315.482 142.309
L315.366 141.193
L315.246 140.078
L315.123 138.963
L314.995 137.848
L314.863 136.733
L314.727 135.618
L314.588 134.503
L314.444 133.388
L314.296 132.273
L314.145 131.158
L313.99 130.043
L313.83 128.928
L313.667 127.813
L313.5 126.697
L313.329 125.582
L313.154 124.467
L312.975 123.352
L312.792 122.237
L312.605 121.122
L312.414 120.007
L312.219 118.892" style="fill:none;stroke:#ff0000;stroke-linecap:square;"/>
   </g>
   <g id="line2d_30">
    <path clip-path="url(#pd9953f5ed3)" d="
M312.219 230.4
L312.414 231.515
L312.605 232.63
L312.792 233.745
L312.975 234.86
L313.154 235.975
L313.329 237.09
L313.5 238.206
L313.667 239.321
L313.83 240.436
L313.99 241.551
L314.145 242.666
L314.296 243.781
L314.444 244.896
L314.588 246.011
L314.727 247.126
L314.863 248.241
L314.995 249.356
L315.123 250.471
L315.246 251.587
L315.366 252.702
L315.482 253.817
L315.595 254.932
L315.703 256.047
L315.807 257.162
L315.907 258.277
L316.004 259.392
L316.096 260.507
L316.185 261.622
L316.269 262.737
L316.35 263.852
L316.427 264.968
L316.499 266.083
L316.568 267.198
L316.633 268.313
L316.694 269.428
L316.751 270.543
L316.804 271.658
L316.853 272.773
L316.899 273.888
L316.94 275.003
L316.977 276.118
L317.011 277.233
L317.04 278.349
L317.066 279.464
L317.087 280.579
L317.105 281.694
L317.119 282.809
L317.129 283.924
L317.135 285.039
L317.137 286.154
L317.135 287.269
L317.129 288.384
L317.119 289.499
L317.105 290.614
L317.087 291.729
L317.066 292.845
L317.04 293.96
L317.011 295.075
L316.977 296.19
L316.94 297.305
L316.899 298.42
L316.853 299.535
L316.804 300.65
L316.751 301.765
L316.694 302.88
L316.633 303.995
L316.568 305.11
L316.499 306.226
L316.427 307.341
L316.35 308.456
L316.269 309.571
L316.185 310.686
L316.096 311.801
L316.004 312.916
L315.907 314.031
L315.807 315.146
L315.703 316.261
L315.595 317.376
L315.482 318.491
L315.366 319.607
L315.246 320.722
L315.123 321.837
L314.995 322.952
L314.863 324.067
L314.727 325.182
L314.588 326.297
L314.444 327.412
L314.296 328.527
L314.145 329.642
L313.99 330.757
L313.83 331.872
L313.667 332.987
L313.5 334.103
L313.329 335.218
L313.154 336.333
L312.975 337.448
L312.792 338.563
L312.605 339.678
L312.414 340.793
L312.219 341.908" style="fill:none;stroke:#ff0000;stroke-linecap:square;"/>
   </g>
   <g id="line2d_31">
    <path clip-path="url(#pd9953f5ed3)" d="
M312.219 230.4
L312.753 229.199
L313.282 227.997
L313.807 226.796
L314.327 225.595
L314.844 224.393
L315.356 223.192
L315.863 221.991
L316.367 220.789
L316.866 219.588
L317.361 218.387
L317.852 217.185
L318.338 215.984
L318.82 214.783
L319.298 213.581
L319.772 212.38
L320.241 211.179
L320.706 209.977
L321.167 208.776
L321.623 207.575
L322.075 206.373
L322.523 205.172
L322.967 203.971
L323.406 202.769
L323.842 201.568
L324.272 200.367
L324.699 199.165
L325.121 197.964
L325.539 196.763
L325.953 195.561
L326.363 194.36
L326.768 193.159
L327.169 191.957
L327.565 190.756
L327.958 189.555
L328.346 188.353
L328.73 187.152
L329.109 185.951
L329.485 184.749
L329.856 183.548
L330.222 182.347
L330.585 181.145
L330.943 179.944
L331.297 178.743
L331.647 177.541
L331.992 176.34
L332.333 175.139
L332.67 173.937
L333.003 172.736
L333.331 171.535
L333.655 170.333
L333.975 169.132
L334.29 167.931
L334.601 166.729
L334.908 165.528
L335.211 164.327
L335.509 163.125
L335.804 161.924
L336.093 160.723
L336.379 159.521
L336.66 158.32
L336.937 157.119
L337.21 155.917
L337.479 154.716
L337.743 153.515
L338.003 152.313
L338.258 151.112
L338.51 149.911
L338.757 148.709
L339 147.508
L339.238 146.307
L339.473 145.105
L339.703 143.904
L339.929 142.703
L340.15 141.501
L340.367 140.3
L340.58 139.099
L340.789 137.897
L340.993 136.696
L341.193 135.495
L341.389 134.293
L341.581 133.092
L341.768 131.891
L341.951 130.689
L342.13 129.488
L342.304 128.287
L342.475 127.085
L342.641 125.884
L342.802 124.683
L342.96 123.481
L343.113 122.28
L343.262 121.079
L343.406 119.877
L343.546 118.676
L343.683 117.475
L343.814 116.273
L343.942 115.072
L344.065 113.871
L344.184 112.669
L344.299 111.468
L344.409 110.267" style="fill:none;stroke:#0000ff;stroke-linecap:square;"/>
   </g>
   <g id="line2d_32">
    <path clip-path="url(#pd9953f5ed3)" d="
M312.219 230.4
L312.753 231.601
L313.282 232.803
L313.807 234.004
L314.327 235.205
L314.844 236.407
L315.356 237.608
L315.863 238.809
L316.367 240.011
L316.866 241.212
L317.361 242.413
L317.852 243.615
L318.338 244.816
L318.82 246.017
L319.298 247.219
L319.772 248.42
L320.241 249.621
L320.706 250.823
L321.167 252.024
L321.623 253.225
L322.075 254.427
L322.523 255.628
L322.967 256.829
L323.406 258.031
L323.842 259.232
L324.272 260.433
L324.699 261.635
L325.121 262.836
L325.539 264.037
L325.953 265.239
L326.363 266.44
L326.768 267.641
L327.169 268.843
L327.565 270.044
L327.958 271.245
L328.346 272.447
L328.73 273.648
L329.109 274.849
L329.485 276.051
L329.856 277.252
L330.222 278.453
L330.585 279.655
L330.943 280.856
L331.297 282.057
L331.647 283.259
L331.992 284.46
L332.333 285.661
L332.67 286.863
L333.003 288.064
L333.331 289.265
L333.655 290.467
L333.975 291.668
L334.29 292.869
L334.601 294.071
L334.908 295.272
L335.211 296.473
L335.509 297.675
L335.804 298.876
L336.093 300.077
L336.379 301.279
L336.66 302.48
L336.937 303.681
L337.21 304.883
L337.479 306.084
L337.743 307.285
L338.003 308.487
L338.258 309.688
L338.51 310.889
L338.757 312.091
L339 313.292
L339.238 314.493
L339.473 315.695
L339.703 316.896
L339.929 318.097
L340.15 319.299
L340.367 320.5
L340.58 321.701
L340.789 322.903
L340.993 324.104
L341.193 325.305
L341.389 326.507
L341.581 327.708
L341.768 328.909
L341.951 330.111
L342.13 331.312
L342.304 332.513
L342.475 333.715
L342.641 334.916
L342.802 336.117
L342.96 337.319
L343.113 338.52
L343.262 339.721
L343.406 340.923
L343.546 342.124
L343.683 343.325
L343.814 344.527
L343.942 345.728
L344.065 346.929
L344.184 348.131
L344.299 349.332
L344.409 350.533" style="fill:none;stroke:#0000ff;stroke-linecap:square;"/>
   </g>
   <g id="line2d_33">
    <path clip-path="url(#pd9953f5ed3)" d="
M344.409 230.4
L344.637 229.199
L344.861 227.997
L345.08 226.796
L345.294 225.595
L345.504 224.393
L345.709 223.192
L345.91 221.991
L346.106 220.789
L346.297 219.588
L346.484 218.387
L346.666 217.185
L346.844 215.984
L347.017 214.783
L347.185 213.581
L347.349 212.38
L347.508 211.179
L347.662 209.977
L347.812 208.776
L347.958 207.575
L348.098 206.373
L348.234 205.172
L348.366 203.971
L348.492 202.769
L348.615 201.568
L348.732 200.367
L348.845 199.165
L348.954 197.964
L349.057 196.763
L349.157 195.561
L349.251 194.36
L349.341 193.159
L349.426 191.957
L349.507 190.756
L349.583 189.555
L349.655 188.353
L349.721 187.152
L349.784 185.951
L349.841 184.749
L349.894 183.548
L349.943 182.347
L349.987 181.145
L350.026 179.944
L350.06 178.743
L350.09 177.541
L350.116 176.34
L350.136 175.139
L350.153 173.937
L350.164 172.736
L350.171 171.535
L350.173 170.333
L350.171 169.132
L350.164 167.931
L350.153 166.729
L350.136 165.528
L350.116 164.327
L350.09 163.125
L350.06 161.924
L350.026 160.723
L349.987 159.521
L349.943 158.32
L349.894 157.119
L349.841 155.917
L349.784 154.716
L349.721 153.515
L349.655 152.313
L349.583 151.112
L349.507 149.911
L349.426 148.709
L349.341 147.508
L349.251 146.307
L349.157 145.105
L349.057 143.904
L348.954 142.703
L348.845 141.501
L348.732 140.3
L348.615 139.099
L348.492 137.897
L348.366 136.696
L348.234 135.495
L348.098 134.293
L347.958 133.092
L347.812 131.891
L347.662 130.689
L347.508 129.488
L347.349 128.287
L347.185 127.085
L347.017 125.884
L346.844 124.683
L346.666 123.481
L346.484 122.28
L346.297 121.079
L346.106 119.877
L345.91 118.676
L345.709 117.475
L345.504 116.273
L345.294 115.072
L345.08 113.871
L344.861 112.669
L344.637 111.468
L344.409 110.267" style="fill:none;stroke:#ff0000;stroke-linecap:square;"/>
   </g>
   <g id="line2d_34">
    <path clip-path="url(#pd9953f5ed3)" d="
M344.409 230.4
L344.637 231.601
L344.861 232.803
L345.08 234.004
L345.294 235.205
L345.504 236.407
L345.709 237.608
L345.91 238.809
L346.106 240.011
L346.297 241.212
L346.484 242.413
L346.666 243.615
L346.844 244.816
L347.017 246.017
L347.185 247.219
L347.349 248.42
L347.508 249.621
L347.662 250.823
L347.812 252.024
L347.958 253.225
L348.098 254.427
L348.234 255.628
L348.366 256.829
L348.492 258.031
L348.615 259.232
L348.732 260.433
L348.845 261.635
L348.954 262.836
L349.057 264.037
L349.157 265.239
L349.251 266.44
L349.341 267.641
L349.426 268.843
L349.507 270.044
L349.583 271.245
L349.655 272.447
L349.721 273.648
L349.784 274.849
L349.841 276.051
L349.894 277.252
L349.943 278.453
L349.987 279.655
L350.026 280.856
L350.06 282.057
L350.09 283.259
L350.116 284.46
L350.136 285.661
L350.153 286.863
L350.164 288.064
L350.171 289.265
L350.173 290.467
L350.171 291.668
L350.164 292.869
L350.153 294.071
L350.136 295.272
L350.116 296.473
L350.09 297.675
L350.06 298.876
L350.026 300.077
L349.987 301.279
L349.943 302.48
L349.894 303.681
L349.841 304.883
L349.784 306.084
L349.721 307.285
L349.655 308.487
L349.583 309.688
L349.507 310.889
L349.426 312.091
L349.341 313.292
L349.251 314.493
L349.157 315.695
L349.057 316.896
L348.954 318.097
L348.845 319.299
L348.732 320.5
L348.615 321.701
L348.492 322.903
L348.366 324.104
L348.234 325.305
L348.098 326.507
L347.958 327.708
L347.812 328.909
L347.662 330.111
L347.508 331.312
L347.349 332.513
L347.185 333.715
L347.017 334.916
L346.844 336.117
L346.666 337.319
L346.484 338.52
L346.297 339.721
L346.106 340.923
L345.91 342.124
L345.709 343.325
L345.504 344.527
L345.294 345.728
L345.08 346.929
L344.861 348.131
L344.637 349.332
L344.409 350.533" style="fill:none;stroke:#ff0000;stroke-linecap:square;"/>
   </g>
   <g id="line2d_35">
    <path clip-path="url(#pd9953f5ed3)" d="
M344.409 230.4
L345.002 229.106
L345.59 227.811
L346.173 226.517
L346.752 225.223
L347.325 223.929
L347.893 222.634
L348.456 221.34
L349.015 220.046
L349.568 218.752
L350.116 217.457
L350.66 216.163
L351.198 214.869
L351.732 213.575
L352.26 212.28
L352.783 210.986
L353.302 209.692
L353.815 208.398
L354.324 207.103
L354.828 205.809
L355.326 204.515
L355.82 203.221
L356.308 201.926
L356.792 200.632
L357.271 199.338
L357.744 198.044
L358.213 196.749
L358.677 195.455
L359.136 194.161
L359.589 192.867
L360.038 191.572
L360.482 190.278
L360.921 188.984
L361.355 187.69
L361.784 186.395
L362.208 185.101
L362.627 183.807
L363.041 182.512
L363.45 181.218
L363.854 179.924
L364.253 178.63
L364.647 177.335
L365.036 176.041
L365.42 174.747
L365.799 173.453
L366.173 172.158
L366.542 170.864
L366.907 169.57
L367.266 168.276
L367.62 166.981
L367.969 165.687
L368.314 164.393
L368.653 163.099
L368.987 161.804
L369.317 160.51
L369.641 159.216
L369.961 157.922
L370.275 156.627
L370.585 155.333
L370.889 154.039
L371.189 152.745
L371.483 151.45
L371.773 150.156
L372.057 148.862
L372.337 147.568
L372.612 146.273
L372.881 144.979
L373.146 143.685
L373.406 142.391
L373.66 141.096
L373.91 139.802
L374.155 138.508
L374.395 137.214
L374.629 135.919
L374.859 134.625
L375.084 133.331
L375.304 132.036
L375.519 130.742
L375.729 129.448
L375.934 128.154
L376.134 126.859
L376.329 125.565
L376.519 124.271
L376.704 122.977
L376.884 121.682
L377.059 120.388
L377.229 119.094
L377.394 117.8
L377.555 116.505
L377.71 115.211
L377.86 113.917
L378.005 112.623
L378.146 111.328
L378.281 110.034
L378.411 108.74
L378.536 107.446
L378.657 106.151
L378.772 104.857
L378.883 103.563
L378.988 102.269
L379.089 100.974" style="fill:none;stroke:#0000ff;stroke-linecap:square;"/>
   </g>
   <g id="line2d_36">
    <path clip-path="url(#pd9953f5ed3)" d="
M344.409 230.4
L345.002 231.694
L345.59 232.989
L346.173 234.283
L346.752 235.577
L347.325 236.871
L347.893 238.166
L348.456 239.46
L349.015 240.754
L349.568 242.048
L350.116 243.343
L350.66 244.637
L351.198 245.931
L351.732 247.225
L352.26 248.52
L352.783 249.814
L353.302 251.108
L353.815 252.402
L354.324 253.697
L354.828 254.991
L355.326 256.285
L355.82 257.579
L356.308 258.874
L356.792 260.168
L357.271 261.462
L357.744 262.756
L358.213 264.051
L358.677 265.345
L359.136 266.639
L359.589 267.933
L360.038 269.228
L360.482 270.522
L360.921 271.816
L361.355 273.11
L361.784 274.405
L362.208 275.699
L362.627 276.993
L363.041 278.288
L363.45 279.582
L363.854 280.876
L364.253 282.17
L364.647 283.465
L365.036 284.759
L365.42 286.053
L365.799 287.347
L366.173 288.642
L366.542 289.936
L366.907 291.23
L367.266 292.524
L367.62 293.819
L367.969 295.113
L368.314 296.407
L368.653 297.701
L368.987 298.996
L369.317 300.29
L369.641 301.584
L369.961 302.878
L370.275 304.173
L370.585 305.467
L370.889 306.761
L371.189 308.055
L371.483 309.35
L371.773 310.644
L372.057 311.938
L372.337 313.232
L372.612 314.527
L372.881 315.821
L373.146 317.115
L373.406 318.409
L373.66 319.704
L373.91 320.998
L374.155 322.292
L374.395 323.586
L374.629 324.881
L374.859 326.175
L375.084 327.469
L375.304 328.764
L375.519 330.058
L375.729 331.352
L375.934 332.646
L376.134 333.941
L376.329 335.235
L376.519 336.529
L376.704 337.823
L376.884 339.118
L377.059 340.412
L377.229 341.706
L377.394 343
L377.555 344.295
L377.71 345.589
L377.86 346.883
L378.005 348.177
L378.146 349.472
L378.281 350.766
L378.411 352.06
L378.536 353.354
L378.657 354.649
L378.772 355.943
L378.883 357.237
L378.988 358.531
L379.089 359.826" style="fill:none;stroke:#0000ff;stroke-linecap:square;"/>
   </g>
   <g id="line2d_37">
    <path clip-path="url(#pd9953f5ed3)" d="
M379.089 230.4
L379.353 229.106
L379.612 227.811
L379.866 226.517
L380.114 225.223
L380.357 223.929
L380.595 222.634
L380.827 221.34
L381.054 220.046
L381.276 218.752
L381.492 217.457
L381.703 216.163
L381.909 214.869
L382.109 213.575
L382.304 212.28
L382.494 210.986
L382.678 209.692
L382.857 208.398
L383.031 207.103
L383.199 205.809
L383.362 204.515
L383.519 203.221
L383.672 201.926
L383.818 200.632
L383.96 199.338
L384.096 198.044
L384.227 196.749
L384.353 195.455
L384.473 194.161
L384.588 192.867
L384.697 191.572
L384.801 190.278
L384.9 188.984
L384.994 187.69
L385.082 186.395
L385.165 185.101
L385.242 183.807
L385.314 182.512
L385.381 181.218
L385.442 179.924
L385.498 178.63
L385.549 177.335
L385.595 176.041
L385.635 174.747
L385.669 173.453
L385.699 172.158
L385.723 170.864
L385.741 169.57
L385.755 168.276
L385.763 166.981
L385.766 165.687
L385.763 164.393
L385.755 163.099
L385.741 161.804
L385.723 160.51
L385.699 159.216
L385.669 157.922
L385.635 156.627
L385.595 155.333
L385.549 154.039
L385.498 152.745
L385.442 151.45
L385.381 150.156
L385.314 148.862
L385.242 147.568
L385.165 146.273
L385.082 144.979
L384.994 143.685
L384.9 142.391
L384.801 141.096
L384.697 139.802
L384.588 138.508
L384.473 137.214
L384.353 135.919
L384.227 134.625
L384.096 133.331
L383.96 132.036
L383.818 130.742
L383.672 129.448
L383.519 128.154
L383.362 126.859
L383.199 125.565
L383.031 124.271
L382.857 122.977
L382.678 121.682
L382.494 120.388
L382.304 119.094
L382.109 117.8
L381.909 116.505
L381.703 115.211
L381.492 113.917
L381.276 112.623
L381.054 111.328
L380.827 110.034
L380.595 108.74
L380.357 107.446
L380.114 106.151
L379.866 104.857
L379.612 103.563
L379.353 102.269
L379.089 100.974" style="fill:none;stroke:#ff0000;stroke-linecap:square;"/>
   </g>
   <g id="line2d_38">
    <path clip-path="url(#pd9953f5ed3)" d="
M379.089 230.4
L379.353 231.694
L379.612 232.989
L379.866 234.283
L380.114 235.577
L380.357 236.871
L380.595 238.166
L380.827 239.46
L381.054 240.754
L381.276 242.048
L381.492 243.343
L381.703 244.637
L381.909 245.931
L382.109 247.225
L382.304 248.52
L382.494 249.814
L382.678 251.108
L382.857 252.402
L383.031 253.697
L383.199 254.991
L383.362 256.285
L383.519 257.579
L383.672 258.874
L383.818 260.168
L383.96 261.462
L384.096 262.756
L384.227 264.051
L384.353 265.345
L384.473 266.639
L384.588 267.933
L384.697 269.228
L384.801 270.522
L384.9 271.816
L384.994 273.11
L385.082 274.405
L385.165 275.699
L385.242 276.993
L385.314 278.288
L385.381 279.582
L385.442 280.876
L385.498 282.17
L385.549 283.465
L385.595 284.759
L385.635 286.053
L385.669 287.347
L385.699 288.642
L385.723 289.936
L385.741 291.23
L385.755 292.524
L385.763 293.819
L385.766 295.113
L385.763 296.407
L385.755 297.701
L385.741 298.996
L385.723 300.29
L385.699 301.584
L385.669 302.878
L385.635 304.173
L385.595 305.467
L385.549 306.761
L385.498 308.055
L385.442 309.35
L385.381 310.644
L385.314 311.938
L385.242 313.232
L385.165 314.527
L385.082 315.821
L384.994 317.115
L384.9 318.409
L384.801 319.704
L384.697 320.998
L384.588 322.292
L384.473 323.586
L384.353 324.881
L384.227 326.175
L384.096 327.469
L383.96 328.764
L383.818 330.058
L383.672 331.352
L383.519 332.646
L383.362 333.941
L383.199 335.235
L383.031 336.529
L382.857 337.823
L382.678 339.118
L382.494 340.412
L382.304 341.706
L382.109 343
L381.909 344.295
L381.703 345.589
L381.492 346.883
L381.276 348.177
L381.054 349.472
L380.827 350.766
L380.595 352.06
L380.357 353.354
L380.114 354.649
L379.866 355.943
L379.612 357.237
L379.353 358.531
L379.089 359.826" style="fill:none;stroke:#ff0000;stroke-linecap:square;"/>
   </g>
   <g id="line2d_39">
    <path clip-path="url(#pd9953f5ed3)" d="
M379.089 230.4
L379.746 229.006
L380.398 227.611
L381.044 226.217
L381.684 224.823
L382.319 223.428
L382.947 222.034
L383.571 220.639
L384.188 219.245
L384.8 217.851
L385.405 216.456
L386.006 215.062
L386.6 213.668
L387.189 212.273
L387.772 210.879
L388.349 209.484
L388.92 208.09
L389.486 206.696
L390.046 205.301
L390.6 203.907
L391.149 202.513
L391.692 201.118
L392.229 199.724
L392.76 198.33
L393.286 196.935
L393.805 195.541
L394.32 194.146
L394.828 192.752
L395.331 191.358
L395.828 189.963
L396.319 188.569
L396.804 187.175
L397.284 185.78
L397.758 184.386
L398.226 182.991
L398.689 181.597
L399.145 180.203
L399.596 178.808
L400.042 177.414
L400.481 176.02
L400.915 174.625
L401.343 173.231
L401.766 171.837
L402.182 170.442
L402.593 169.048
L402.998 167.653
L403.398 166.259
L403.791 164.865
L404.179 163.47
L404.562 162.076
L404.938 160.682
L405.309 159.287
L405.674 157.893
L406.033 156.499
L406.387 155.104
L406.735 153.71
L407.077 152.315
L407.413 150.921
L407.744 149.527
L408.068 148.132
L408.388 146.738
L408.701 145.344
L409.009 143.949
L409.311 142.555
L409.607 141.16
L409.897 139.766
L410.182 138.372
L410.461 136.977
L410.734 135.583
L411.002 134.189
L411.264 132.794
L411.52 131.4
L411.77 130.006
L412.014 128.611
L412.253 127.217
L412.486 125.822
L412.714 124.428
L412.935 123.034
L413.151 121.639
L413.362 120.245
L413.566 118.851
L413.765 117.456
L413.958 116.062
L414.145 114.667
L414.326 113.273
L414.502 111.879
L414.672 110.484
L414.837 109.09
L414.995 107.696
L415.148 106.301
L415.295 104.907
L415.436 103.513
L415.572 102.118
L415.702 100.724
L415.826 99.3294
L415.944 97.935
L416.057 96.5407
L416.164 95.1463
L416.265 93.7519
L416.361 92.3576
L416.45 90.9632" style="fill:none;stroke:#0000ff;stroke-linecap:square;"/>
   </g>
   <g id="line2d_40">
    <path clip-path="url(#pd9953f5ed3)" d="
M379.089 230.4
L379.746 231.794
L380.398 233.189
L381.044 234.583
L381.684 235.977
L382.319 237.372
L382.947 238.766
L383.571 240.161
L384.188 241.555
L384.8 242.949
L385.405 244.344
L386.006 245.738
L386.6 247.132
L387.189 248.527
L387.772 249.921
L388.349 251.316
L388.92 252.71
L389.486 254.104
L390.046 255.499
L390.6 256.893
L391.149 258.287
L391.692 259.682
L392.229 261.076
L392.76 262.47
L393.286 263.865
L393.805 265.259
L394.32 266.654
L394.828 268.048
L395.331 269.442
L395.828 270.837
L396.319 272.231
L396.804 273.625
L397.284 275.02
L397.758 276.414
L398.226 277.809
L398.689 279.203
L399.145 280.597
L399.596 281.992
L400.042 283.386
L400.481 284.78
L400.915 286.175
L401.343 287.569
L401.766 288.963
L402.182 290.358
L402.593 291.752
L402.998 293.147
L403.398 294.541
L403.791 295.935
L404.179 297.33
L404.562 298.724
L404.938 300.118
L405.309 301.513
L405.674 302.907
L406.033 304.301
L406.387 305.696
L406.735 307.09
L407.077 308.485
L407.413 309.879
L407.744 311.273
L408.068 312.668
L408.388 314.062
L408.701 315.456
L409.009 316.851
L409.311 318.245
L409.607 319.64
L409.897 321.034
L410.182 322.428
L410.461 323.823
L410.734 325.217
L411.002 326.611
L411.264 328.006
L411.52 329.4
L411.77 330.794
L412.014 332.189
L412.253 333.583
L412.486 334.978
L412.714 336.372
L412.935 337.766
L413.151 339.161
L413.362 340.555
L413.566 341.949
L413.765 343.344
L413.958 344.738
L414.145 346.133
L414.326 347.527
L414.502 348.921
L414.672 350.316
L414.837 351.71
L414.995 353.104
L415.148 354.499
L415.295 355.893
L415.436 357.287
L415.572 358.682
L415.702 360.076
L415.826 361.471
L415.944 362.865
L416.057 364.259
L416.164 365.654
L416.265 367.048
L416.361 368.442
L416.45 369.837" style="fill:none;stroke:#0000ff;stroke-linecap:square;"/>
   </g>
   <g id="line2d_41">
    <path clip-path="url(#pd9953f5ed3)" d="
M416.45 230.4
L416.754 229.006
L417.051 227.611
L417.342 226.217
L417.627 224.823
L417.906 223.428
L418.179 222.034
L418.445 220.639
L418.706 219.245
L418.96 217.851
L419.208 216.456
L419.45 215.062
L419.686 213.668
L419.916 212.273
L420.14 210.879
L420.357 209.484
L420.569 208.09
L420.774 206.696
L420.973 205.301
L421.166 203.907
L421.353 202.513
L421.534 201.118
L421.708 199.724
L421.877 198.33
L422.039 196.935
L422.196 195.541
L422.346 194.146
L422.49 192.752
L422.628 191.358
L422.759 189.963
L422.885 188.569
L423.005 187.175
L423.118 185.78
L423.225 184.386
L423.326 182.991
L423.421 181.597
L423.51 180.203
L423.593 178.808
L423.669 177.414
L423.74 176.02
L423.804 174.625
L423.863 173.231
L423.915 171.837
L423.961 170.442
L424 169.048
L424.034 167.653
L424.062 166.259
L424.083 164.865
L424.098 163.47
L424.108 162.076
L424.111 160.682
L424.108 159.287
L424.098 157.893
L424.083 156.499
L424.062 155.104
L424.034 153.71
L424 152.315
L423.961 150.921
L423.915 149.527
L423.863 148.132
L423.804 146.738
L423.74 145.344
L423.669 143.949
L423.593 142.555
L423.51 141.16
L423.421 139.766
L423.326 138.372
L423.225 136.977
L423.118 135.583
L423.005 134.189
L422.885 132.794
L422.759 131.4
L422.628 130.006
L422.49 128.611
L422.346 127.217
L422.196 125.822
L422.039 124.428
L421.877 123.034
L421.708 121.639
L421.534 120.245
L421.353 118.851
L421.166 117.456
L420.973 116.062
L420.774 114.667
L420.569 113.273
L420.357 111.879
L420.14 110.484
L419.916 109.09
L419.686 107.696
L419.45 106.301
L419.208 104.907
L418.96 103.513
L418.706 102.118
L418.445 100.724
L418.179 99.3294
L417.906 97.935
L417.627 96.5407
L417.342 95.1463
L417.051 93.7519
L416.754 92.3576
L416.45 90.9632" style="fill:none;stroke:#ff0000;stroke-linecap:square;"/>
   </g>
   <g id="line2d_42">
    <path clip-path="url(#pd9953f5ed3)" d="
M416.45 230.4
L416.754 231.794
L417.051 233.189
L417.342 234.583
L417.627 235.977
L417.906 237.372
L418.179 238.766
L418.445 240.161
L418.706 241.555
L418.96 242.949
L419.208 244.344
L419.45 245.738
L419.686 247.132
L419.916 248.527
L420.14 249.921
L420.357 251.316
L420.569 252.71
L420.774 254.104
L420.973 255.499
L421.166 256.893
L421.353 258.287
L421.534 259.682
L421.708 261.076
L421.877 262.47
L422.039 263.865
L422.196 265.259
L422.346 266.654
L422.49 268.048
L422.628 269.442
L422.759 270.837
L422.885 272.231
L423.005 273.625
L423.118 275.02
L423.225 276.414
L423.326 277.809
L423.421 279.203
L423.51 280.597
L423.593 281.992
L423.669 283.386
L423.74 284.78
L423.804 286.175
L423.863 287.569
L423.915 288.963
L423.961 290.358
L424 291.752
L424.034 293.147
L424.062 294.541
L424.083 295.935
L424.098 297.33
L424.108 298.724
L424.111 300.118
L424.108 301.513
L424.098 302.907
L424.083 304.301
L424.062 305.696
L424.034 307.09
L424 308.485
L423.961 309.879
L423.915 311.273
L423.863 312.668
L423.804 314.062
L423.74 315.456
L423.669 316.851
L423.593 318.245
L423.51 319.64
L423.421 321.034
L423.326 322.428
L423.225 323.823
L423.118 325.217
L423.005 326.611
L422.885 328.006
L422.759 329.4
L422.628 330.794
L422.49 332.189
L422.346 333.583
L422.196 334.978
L422.039 336.372
L421.877 337.766
L421.708 339.161
L421.534 340.555
L421.353 341.949
L421.166 343.344
L420.973 344.738
L420.774 346.133
L420.569 347.527
L420.357 348.921
L420.14 350.316
L419.916 351.71
L419.686 353.104
L419.45 354.499
L419.208 355.893
L418.96 357.287
L418.706 358.682
L418.445 360.076
L418.179 361.471
L417.906 362.865
L417.627 364.259
L417.342 365.654
L417.051 367.048
L416.754 368.442
L416.45 369.837" style="fill:none;stroke:#ff0000;stroke-linecap:square;"/>
   </g>
   <g id="line2d_43">
    <path clip-path="url(#pd9953f5ed3)" d="
M416.45 230.4
L417.177 228.898
L417.898 227.396
L418.611 225.893
L419.319 224.391
L420.019 222.889
L420.713 221.387
L421.401 219.884
L422.082 218.382
L422.756 216.88
L423.424 215.378
L424.085 213.876
L424.74 212.373
L425.388 210.871
L426.03 209.369
L426.665 207.867
L427.294 206.364
L427.916 204.862
L428.531 203.36
L429.14 201.858
L429.742 200.356
L430.338 198.853
L430.927 197.351
L431.51 195.849
L432.086 194.347
L432.656 192.844
L433.219 191.342
L433.775 189.84
L434.325 188.338
L434.869 186.836
L435.406 185.333
L435.936 183.831
L436.46 182.329
L436.977 180.827
L437.487 179.324
L437.991 177.822
L438.489 176.32
L438.98 174.818
L439.464 173.316
L439.942 171.813
L440.414 170.311
L440.878 168.809
L441.336 167.307
L441.788 165.804
L442.233 164.302
L442.672 162.8
L443.104 161.298
L443.529 159.796
L443.948 158.293
L444.36 156.791
L444.766 155.289
L445.166 153.787
L445.558 152.284
L445.944 150.782
L446.324 149.28
L446.697 147.778
L447.063 146.276
L447.423 144.773
L447.777 143.271
L448.124 141.769
L448.464 140.267
L448.798 138.764
L449.125 137.262
L449.445 135.76
L449.759 134.258
L450.067 132.756
L450.368 131.253
L450.662 129.751
L450.95 128.249
L451.232 126.747
L451.506 125.244
L451.775 123.742
L452.036 122.24
L452.291 120.738
L452.54 119.236
L452.782 117.733
L453.017 116.231
L453.246 114.729
L453.468 113.227
L453.684 111.724
L453.894 110.222
L454.096 108.72
L454.292 107.218
L454.482 105.716
L454.665 104.213
L454.841 102.711
L455.011 101.209
L455.175 99.7066
L455.332 98.2044
L455.482 96.7022
L455.626 95.2
L455.763 93.6977
L455.893 92.1955
L456.017 90.6933
L456.135 89.1911
L456.246 87.6888
L456.35 86.1866
L456.448 84.6844
L456.539 83.1822
L456.624 81.68
L456.702 80.1777" style="fill:none;stroke:#0000ff;stroke-linecap:square;"/>
   </g>
   <g id="line2d_44">
    <path clip-path="url(#pd9953f5ed3)" d="
M416.45 230.4
L417.177 231.902
L417.898 233.404
L418.611 234.907
L419.319 236.409
L420.019 237.911
L420.713 239.413
L421.401 240.916
L422.082 242.418
L422.756 243.92
L423.424 245.422
L424.085 246.924
L424.74 248.427
L425.388 249.929
L426.03 251.431
L426.665 252.933
L427.294 254.436
L427.916 255.938
L428.531 257.44
L429.14 258.942
L429.742 260.444
L430.338 261.947
L430.927 263.449
L431.51 264.951
L432.086 266.453
L432.656 267.956
L433.219 269.458
L433.775 270.96
L434.325 272.462
L434.869 273.964
L435.406 275.467
L435.936 276.969
L436.46 278.471
L436.977 279.973
L437.487 281.476
L437.991 282.978
L438.489 284.48
L438.98 285.982
L439.464 287.484
L439.942 288.987
L440.414 290.489
L440.878 291.991
L441.336 293.493
L441.788 294.996
L442.233 296.498
L442.672 298
L443.104 299.502
L443.529 301.004
L443.948 302.507
L444.36 304.009
L444.766 305.511
L445.166 307.013
L445.558 308.516
L445.944 310.018
L446.324 311.52
L446.697 313.022
L447.063 314.524
L447.423 316.027
L447.777 317.529
L448.124 319.031
L448.464 320.533
L448.798 322.036
L449.125 323.538
L449.445 325.04
L449.759 326.542
L450.067 328.044
L450.368 329.547
L450.662 331.049
L450.95 332.551
L451.232 334.053
L451.506 335.556
L451.775 337.058
L452.036 338.56
L452.291 340.062
L452.54 341.564
L452.782 343.067
L453.017 344.569
L453.246 346.071
L453.468 347.573
L453.684 349.076
L453.894 350.578
L454.096 352.08
L454.292 353.582
L454.482 355.084
L454.665 356.587
L454.841 358.089
L455.011 359.591
L455.175 361.093
L455.332 362.596
L455.482 364.098
L455.626 365.6
L455.763 367.102
L455.893 368.604
L456.017 370.107
L456.135 371.609
L456.246 373.111
L456.35 374.613
L456.448 376.116
L456.539 377.618
L456.624 379.12
L456.702 380.622" style="fill:none;stroke:#0000ff;stroke-linecap:square;"/>
   </g>
   <g id="line2d_45">
    <path clip-path="url(#pd9953f5ed3)" d="
M456.702 230.4
L457.048 228.898
L457.386 227.396
L457.717 225.893
L458.042 224.391
L458.359 222.889
L458.67 221.387
L458.973 219.884
L459.269 218.382
L459.559 216.88
L459.841 215.378
L460.117 213.876
L460.386 212.373
L460.647 210.871
L460.902 209.369
L461.149 207.867
L461.39 206.364
L461.624 204.862
L461.85 203.36
L462.07 201.858
L462.283 200.356
L462.489 198.853
L462.687 197.351
L462.879 195.849
L463.064 194.347
L463.242 192.844
L463.413 191.342
L463.577 189.84
L463.734 188.338
L463.884 186.836
L464.027 185.333
L464.163 183.831
L464.292 182.329
L464.414 180.827
L464.529 179.324
L464.637 177.822
L464.738 176.32
L464.832 174.818
L464.92 173.316
L465 171.813
L465.073 170.311
L465.139 168.809
L465.199 167.307
L465.251 165.804
L465.296 164.302
L465.335 162.8
L465.366 161.298
L465.39 159.796
L465.408 158.293
L465.418 156.791
L465.422 155.289
L465.418 153.787
L465.408 152.284
L465.39 150.782
L465.366 149.28
L465.335 147.778
L465.296 146.276
L465.251 144.773
L465.199 143.271
L465.139 141.769
L465.073 140.267
L465 138.764
L464.92 137.262
L464.832 135.76
L464.738 134.258
L464.637 132.756
L464.529 131.253
L464.414 129.751
L464.292 128.249
L464.163 126.747
L464.027 125.244
L463.884 123.742
L463.734 122.24
L463.577 120.738
L463.413 119.236
L463.242 117.733
L463.064 116.231
L462.879 114.729
L462.687 113.227
L462.489 111.724
L462.283 110.222
L462.07 108.72
L461.85 107.218
L461.624 105.716
L461.39 104.213
L461.149 102.711
L460.902 101.209
L460.647 99.7066
L460.386 98.2044
L460.117 96.7022
L459.841 95.2
L459.559 93.6977
L459.269 92.1955
L458.973 90.6933
L458.67 89.1911
L458.359 87.6888
L458.042 86.1866
L457.717 84.6844
L457.386 83.1822
L457.048 81.68
L456.702 80.1777" style="fill:none;stroke:#ff0000;stroke-linecap:square;"/>
   </g>
   <g id="line2d_46">
    <path clip-path="url(#pd9953f5ed3)" d="
M456.702 230.4
L457.048 231.902
L457.386 233.404
L457.717 234.907
L458.042 236.409
L458.359 237.911
L458.67 239.413
L458.973 240.916
L459.269 242.418
L459.559 243.92
L459.841 245.422
L460.117 246.924
L460.386 248.427
L460.647 249.929
L460.902 251.431
L461.149 252.933
L461.39 254.436
L461.624 255.938
L461.85 257.44
L462.07 258.942
L462.283 260.444
L462.489 261.947
L462.687 263.449
L462.879 264.951
L463.064 266.453
L463.242 267.956
L463.413 269.458
L463.577 270.96
L463.734 272.462
L463.884 273.964
L464.027 275.467
L464.163 276.969
L464.292 278.471
L464.414 279.973
L464.529 281.476
L464.637 282.978
L464.738 284.48
L464.832 285.982
L464.92 287.484
L465 288.987
L465.073 290.489
L465.139 291.991
L465.199 293.493
L465.251 294.996
L465.296 296.498
L465.335 298
L465.366 299.502
L465.39 301.004
L465.408 302.507
L465.418 304.009
L465.422 305.511
L465.418 307.013
L465.408 308.516
L465.39 310.018
L465.366 311.52
L465.335 313.022
L465.296 314.524
L465.251 316.027
L465.199 317.529
L465.139 319.031
L465.073 320.533
L465 322.036
L464.92 323.538
L464.832 325.04
L464.738 326.542
L464.637 328.044
L464.529 329.547
L464.414 331.049
L464.292 332.551
L464.163 334.053
L464.027 335.556
L463.884 337.058
L463.734 338.56
L463.577 340.062
L463.413 341.564
L463.242 343.067
L463.064 344.569
L462.879 346.071
L462.687 347.573
L462.489 349.076
L462.283 350.578
L462.07 352.08
L461.85 353.582
L461.624 355.084
L461.39 356.587
L461.149 358.089
L460.902 359.591
L460.647 361.093
L460.386 362.596
L460.117 364.098
L459.841 365.6
L459.559 367.102
L459.269 368.604
L458.973 370.107
L458.67 371.609
L458.359 373.111
L458.042 374.613
L457.717 376.116
L457.386 377.618
L457.048 379.12
L456.702 380.622" style="fill:none;stroke:#ff0000;stroke-linecap:square;"/>
   </g>
   <g id="line2d_47">
    <path clip-path="url(#pd9953f5ed3)" d="
M456.702 230.4
L457.504 228.782
L458.298 227.163
L459.085 225.545
L459.864 223.926
L460.636 222.308
L461.4 220.689
L462.157 219.071
L462.907 217.453
L463.649 215.834
L464.383 214.216
L465.111 212.597
L465.83 210.979
L466.543 209.361
L467.248 207.742
L467.945 206.124
L468.635 204.505
L469.318 202.887
L469.993 201.268
L470.661 199.65
L471.321 198.032
L471.974 196.413
L472.62 194.795
L473.258 193.176
L473.888 191.558
L474.511 189.94
L475.127 188.321
L475.735 186.703
L476.336 185.084
L476.93 183.466
L477.516 181.847
L478.094 180.229
L478.665 178.611
L479.229 176.992
L479.785 175.374
L480.334 173.755
L480.876 172.137
L481.41 170.518
L481.936 168.9
L482.455 167.282
L482.967 165.663
L483.471 164.045
L483.968 162.426
L484.458 160.808
L484.94 159.19
L485.414 157.571
L485.881 155.953
L486.341 154.334
L486.793 152.716
L487.238 151.097
L487.675 149.479
L488.105 147.861
L488.528 146.242
L488.943 144.624
L489.35 143.005
L489.751 141.387
L490.143 139.768
L490.529 138.15
L490.907 136.532
L491.277 134.913
L491.64 133.295
L491.996 131.676
L492.344 130.058
L492.685 128.44
L493.018 126.821
L493.344 125.203
L493.662 123.584
L493.973 121.966
L494.277 120.347
L494.573 118.729
L494.862 117.111
L495.143 115.492
L495.417 113.874
L495.683 112.255
L495.942 110.637
L496.194 109.019
L496.438 107.4
L496.675 105.782
L496.904 104.163
L497.126 102.545
L497.34 100.926
L497.547 99.308
L497.747 97.6896
L497.939 96.0711
L498.124 94.4527
L498.301 92.8343
L498.471 91.2159
L498.633 89.5975
L498.788 87.979
L498.936 86.3606
L499.076 84.7422
L499.208 83.1238
L499.334 81.5054
L499.451 79.8869
L499.562 78.2685
L499.665 76.6501
L499.76 75.0317
L499.848 73.4133
L499.929 71.7948
L500.002 70.1764
L500.068 68.558" style="fill:none;stroke:#0000ff;stroke-linecap:square;"/>
   </g>
   <g id="line2d_48">
    <path clip-path="url(#pd9953f5ed3)" d="
M456.702 230.4
L457.504 232.018
L458.298 233.637
L459.085 235.255
L459.864 236.874
L460.636 238.492
L461.4 240.111
L462.157 241.729
L462.907 243.347
L463.649 244.966
L464.383 246.584
L465.111 248.203
L465.83 249.821
L466.543 251.439
L467.248 253.058
L467.945 254.676
L468.635 256.295
L469.318 257.913
L469.993 259.532
L470.661 261.15
L471.321 262.768
L471.974 264.387
L472.62 266.005
L473.258 267.624
L473.888 269.242
L474.511 270.86
L475.127 272.479
L475.735 274.097
L476.336 275.716
L476.93 277.334
L477.516 278.953
L478.094 280.571
L478.665 282.189
L479.229 283.808
L479.785 285.426
L480.334 287.045
L480.876 288.663
L481.41 290.282
L481.936 291.9
L482.455 293.518
L482.967 295.137
L483.471 296.755
L483.968 298.374
L484.458 299.992
L484.94 301.61
L485.414 303.229
L485.881 304.847
L486.341 306.466
L486.793 308.084
L487.238 309.703
L487.675 311.321
L488.105 312.939
L488.528 314.558
L488.943 316.176
L489.35 317.795
L489.751 319.413
L490.143 321.032
L490.529 322.65
L490.907 324.268
L491.277 325.887
L491.64 327.505
L491.996 329.124
L492.344 330.742
L492.685 332.36
L493.018 333.979
L493.344 335.597
L493.662 337.216
L493.973 338.834
L494.277 340.453
L494.573 342.071
L494.862 343.689
L495.143 345.308
L495.417 346.926
L495.683 348.545
L495.942 350.163
L496.194 351.781
L496.438 353.4
L496.675 355.018
L496.904 356.637
L497.126 358.255
L497.34 359.874
L497.547 361.492
L497.747 363.11
L497.939 364.729
L498.124 366.347
L498.301 367.966
L498.471 369.584
L498.633 371.203
L498.788 372.821
L498.936 374.439
L499.076 376.058
L499.208 377.676
L499.334 379.295
L499.451 380.913
L499.562 382.531
L499.665 384.15
L499.76 385.768
L499.848 387.387
L499.929 389.005
L500.002 390.624
L500.068 392.242" style="fill:none;stroke:#0000ff;stroke-linecap:square;"/>
   </g>
  </g>
 </g>
 <defs>
  <clipPath id="pd9953f5ed3">
   <rect height="368.64" width="430.08" x="125.3625" y="46.08"/>
  </clipPath>
 </defs>
</svg>
