<?xml version="1.0" encoding="utf-8" standalone="no"?>
<!DOCTYPE svg PUBLIC "-//W3C//DTD SVG 1.1//EN"
  "http://www.w3.org/Graphics/SVG/1.1/DTD/svg11.dtd">
<!-- Created with matplotlib (http://matplotlib.org/) -->
<svg height="345pt" version="1.1" viewBox="0 0 460 345" width="460pt" xmlns="http://www.w3.org/2000/svg" xmlns:xlink="http://www.w3.org/1999/xlink">
 <defs>
  <style type="text/css">
*{stroke-linecap:butt;stroke-linejoin:round;}
  </style>
 </defs>
 <g id="figure_1">
  <g id="patch_1">
   <path d="M 0 345.6 
L 460.8 345.6 
L 460.8 0 
L 0 0 
z
" style="fill:#ffffff;"/>
  </g>
  <g id="axes_1">
   <g id="patch_2">
    <path clip-path="url(#p73e0bd6a3e)" d="M 261.625938 295.488 
L 210.694062 295.488 
L 97.884913 53.568 
L 374.435087 53.568 
z
" style="fill:#ffffff;stroke:#000000;stroke-linejoin:miter;"/>
   </g>
   <g id="line2d_1">
    <path clip-path="url(#p73e0bd6a3e)" d="M 210.694062 295.488 
L 210.714435 295.488 
L 210.775553 295.488 
L 210.877417 295.488 
L 211.020026 295.488 
L 211.203381 295.488 
L 211.427481 295.488 
L 211.692327 295.488 
L 211.997918 295.488 
L 212.344255 295.488 
L 212.731337 295.488 
L 213.159165 295.488 
L 213.627738 295.488 
L 214.137057 295.488 
L 214.687121 295.488 
L 215.277931 295.488 
L 215.909486 295.488 
L 216.581787 295.488 
L 217.294833 295.488 
L 218.048625 295.488 
L 218.843162 295.488 
L 219.678445 295.488 
L 220.554473 295.488 
L 221.471247 295.488 
L 222.428766 295.488 
L 223.427031 295.488 
L 224.466041 295.488 
L 225.545797 295.488 
L 226.666298 295.488 
L 227.827545 295.488 
L 229.029537 295.488 
L 230.272275 295.488 
L 231.555758 295.488 
L 232.879987 295.488 
L 234.244961 295.488 
L 235.650681 295.488 
L 237.097147 295.488 
L 238.584357 295.488 
L 240.112314 295.488 
L 241.681015 295.488 
L 243.290463 295.488 
L 244.940655 295.488 
L 246.631594 295.488 
L 248.363278 295.488 
L 250.135707 295.488 
L 251.948882 295.488 
L 253.802802 295.488 
L 255.697468 295.488 
L 257.632879 295.488 
L 259.609036 295.488 
L 261.625938 295.488 
" style="fill:none;stroke:#ff0000;stroke-linecap:square;stroke-width:1.5;"/>
   </g>
   <g id="line2d_2">
    <path clip-path="url(#p73e0bd6a3e)" d="M 236.16 295.488 
L 236.14812 295.484368 
L 236.11248 295.473472 
L 236.05308 295.455311 
L 235.969919 295.429886 
L 235.862999 295.397198 
L 235.732318 295.357245 
L 235.577878 295.310027 
L 235.399677 295.255546 
L 235.197716 295.1938 
L 234.971995 295.12479 
L 234.722514 295.048516 
L 234.449273 294.964978 
L 234.152272 294.874176 
L 233.83151 294.776109 
L 233.486989 294.670778 
L 233.118707 294.558184 
L 232.726666 294.438324 
L 232.310864 294.311201 
L 231.871302 294.176814 
L 231.40798 294.035162 
L 230.920898 293.886246 
L 230.410056 293.730066 
L 229.875454 293.566621 
L 229.317092 293.395913 
L 228.734969 293.21794 
L 228.129087 293.032703 
L 227.499444 292.840202 
L 226.846041 292.640437 
L 226.168879 292.433408 
L 225.467956 292.219114 
L 224.743273 291.997556 
L 223.99483 291.768734 
L 223.222626 291.532648 
L 222.426663 291.289298 
L 221.60694 291.038683 
L 220.763456 290.780804 
L 219.896213 290.515661 
L 219.005209 290.243254 
L 218.090445 289.963583 
L 217.151921 289.676647 
L 216.189637 289.382447 
L 215.203593 289.080983 
L 214.193789 288.772255 
L 213.160225 288.456263 
L 212.1029 288.133006 
L 211.021816 287.802486 
L 209.916971 287.464701 
L 208.788367 287.119652 
L 207.636002 286.767339 
L 206.459877 286.407761 
" style="fill:none;stroke:#0000ff;stroke-linecap:square;stroke-width:1.5;"/>
   </g>
   <g id="line2d_3">
    <path clip-path="url(#p73e0bd6a3e)" d="M 236.16 295.488 
L 236.17188 295.484368 
L 236.20752 295.473472 
L 236.26692 295.455311 
L 236.350081 295.429886 
L 236.457001 295.397198 
L 236.587682 295.357245 
L 236.742122 295.310027 
L 236.920323 295.255546 
L 237.122284 295.1938 
L 237.348005 295.12479 
L 237.597486 295.048516 
L 237.870727 294.964978 
L 238.167728 294.874176 
L 238.48849 294.776109 
L 238.833011 294.670778 
L 239.201293 294.558184 
L 239.593334 294.438324 
L 240.009136 294.311201 
L 240.448698 294.176814 
L 240.91202 294.035162 
L 241.399102 293.886246 
L 241.909944 293.730066 
L 242.444546 293.566621 
L 243.002908 293.395913 
L 243.585031 293.21794 
L 244.190913 293.032703 
L 244.820556 292.840202 
L 245.473959 292.640437 
L 246.151121 292.433408 
L 246.852044 292.219114 
L 247.576727 291.997556 
L 248.32517 291.768734 
L 249.097374 291.532648 
L 249.893337 291.289298 
L 250.71306 291.038683 
L 251.556544 290.780804 
L 252.423787 290.515661 
L 253.314791 290.243254 
L 254.229555 289.963583 
L 255.168079 289.676647 
L 256.130363 289.382447 
L 257.116407 289.080983 
L 258.126211 288.772255 
L 259.159775 288.456263 
L 260.2171 288.133006 
L 261.298184 287.802486 
L 262.403029 287.464701 
L 263.531633 287.119652 
L 264.683998 286.767339 
L 265.860123 286.407761 
" style="fill:none;stroke:#0000ff;stroke-linecap:square;stroke-width:1.5;"/>
   </g>
   <g id="line2d_4">
    <path clip-path="url(#p73e0bd6a3e)" d="M 206.459877 286.407761 
L 206.483637 286.407761 
L 206.554917 286.407761 
L 206.673718 286.407761 
L 206.840038 286.407761 
L 207.053879 286.407761 
L 207.31524 286.407761 
L 207.624122 286.407761 
L 207.980523 286.407761 
L 208.384445 286.407761 
L 208.835887 286.407761 
L 209.334849 286.407761 
L 209.881331 286.407761 
L 210.475333 286.407761 
L 211.116856 286.407761 
L 211.805899 286.407761 
L 212.542462 286.407761 
L 213.326545 286.407761 
L 214.158149 286.407761 
L 215.037272 286.407761 
L 215.963916 286.407761 
L 216.93808 286.407761 
L 217.959765 286.407761 
L 219.028969 286.407761 
L 220.145694 286.407761 
L 221.309938 286.407761 
L 222.521703 286.407761 
L 223.780989 286.407761 
L 225.087794 286.407761 
L 226.44212 286.407761 
L 227.843966 286.407761 
L 229.293332 286.407761 
L 230.790218 286.407761 
L 232.334624 286.407761 
L 233.926551 286.407761 
L 235.565998 286.407761 
L 237.252965 286.407761 
L 238.987452 286.407761 
L 240.769459 286.407761 
L 242.598987 286.407761 
L 244.476034 286.407761 
L 246.400602 286.407761 
L 248.372691 286.407761 
L 250.392299 286.407761 
L 252.459428 286.407761 
L 254.574076 286.407761 
L 256.736245 286.407761 
L 258.945934 286.407761 
L 261.203144 286.407761 
L 263.507873 286.407761 
L 265.860123 286.407761 
" style="fill:none;stroke:#ff0000;stroke-linecap:square;stroke-width:1.5;"/>
   </g>
   <g id="line2d_5">
    <path clip-path="url(#p73e0bd6a3e)" d="M 236.16 286.407761 
L 236.146145 286.403525 
L 236.104579 286.390817 
L 236.035302 286.369637 
L 235.938315 286.339985 
L 235.813617 286.301861 
L 235.661208 286.255265 
L 235.481089 286.200197 
L 235.273259 286.136657 
L 235.037718 286.064645 
L 234.774467 285.984161 
L 234.483505 285.895205 
L 234.164833 285.797777 
L 233.81845 285.691877 
L 233.444356 285.577505 
L 233.042551 285.454661 
L 232.613036 285.323345 
L 232.15581 285.183557 
L 231.670874 285.035297 
L 231.158227 284.878566 
L 230.617869 284.713362 
L 230.0498 284.539686 
L 229.454021 284.357538 
L 228.830532 284.166918 
L 228.179331 283.967826 
L 227.50042 283.760262 
L 226.793798 283.544226 
L 226.059466 283.319718 
L 225.297423 283.086738 
L 224.507669 282.845286 
L 223.690205 282.595362 
L 222.84503 282.336966 
L 221.972144 282.070098 
L 221.071548 281.794758 
L 220.143241 281.510946 
L 219.187223 281.218663 
L 218.203495 280.917907 
L 217.192056 280.608679 
L 216.152906 280.290979 
L 215.086046 279.964807 
L 213.991475 279.630163 
L 212.869194 279.287047 
L 211.719201 278.935459 
L 210.541499 278.575399 
L 209.336085 278.206867 
L 208.102961 277.829863 
L 206.842126 277.444388 
L 205.553581 277.05044 
L 204.237324 276.64802 
L 202.893358 276.237128 
L 201.52168 275.817764 
" style="fill:none;stroke:#0000ff;stroke-linecap:square;stroke-width:1.5;"/>
   </g>
   <g id="line2d_6">
    <path clip-path="url(#p73e0bd6a3e)" d="M 236.16 286.407761 
L 236.173855 286.403525 
L 236.215421 286.390817 
L 236.284698 286.369637 
L 236.381685 286.339985 
L 236.506383 286.301861 
L 236.658792 286.255265 
L 236.838911 286.200197 
L 237.046741 286.136657 
L 237.282282 286.064645 
L 237.545533 285.984161 
L 237.836495 285.895205 
L 238.155167 285.797777 
L 238.50155 285.691877 
L 238.875644 285.577505 
L 239.277449 285.454661 
L 239.706964 285.323345 
L 240.16419 285.183557 
L 240.649126 285.035297 
L 241.161773 284.878566 
L 241.702131 284.713362 
L 242.2702 284.539686 
L 242.865979 284.357538 
L 243.489468 284.166918 
L 244.140669 283.967826 
L 244.81958 283.760262 
L 245.526202 283.544226 
L 246.260534 283.319718 
L 247.022577 283.086738 
L 247.812331 282.845286 
L 248.629795 282.595362 
L 249.47497 282.336966 
L 250.347856 282.070098 
L 251.248452 281.794758 
L 252.176759 281.510946 
L 253.132777 281.218663 
L 254.116505 280.917907 
L 255.127944 280.608679 
L 256.167094 280.290979 
L 257.233954 279.964807 
L 258.328525 279.630163 
L 259.450806 279.287047 
L 260.600799 278.935459 
L 261.778501 278.575399 
L 262.983915 278.206867 
L 264.217039 277.829863 
L 265.477874 277.444388 
L 266.766419 277.05044 
L 268.082676 276.64802 
L 269.426642 276.237128 
L 270.79832 275.817764 
" style="fill:none;stroke:#0000ff;stroke-linecap:square;stroke-width:1.5;"/>
   </g>
   <g id="line2d_7">
    <path clip-path="url(#p73e0bd6a3e)" d="M 201.52168 275.817764 
L 201.549391 275.817764 
L 201.632523 275.817764 
L 201.771076 275.817764 
L 201.965051 275.817764 
L 202.214446 275.817764 
L 202.519264 275.817764 
L 202.879502 275.817764 
L 203.295162 275.817764 
L 203.766243 275.817764 
L 204.292746 275.817764 
L 204.874669 275.817764 
L 205.512015 275.817764 
L 206.204781 275.817764 
L 206.952969 275.817764 
L 207.756578 275.817764 
L 208.615608 275.817764 
L 209.53006 275.817764 
L 210.499933 275.817764 
L 211.525227 275.817764 
L 212.605942 275.817764 
L 213.742079 275.817764 
L 214.933638 275.817764 
L 216.180617 275.817764 
L 217.483018 275.817764 
L 218.84084 275.817764 
L 220.254083 275.817764 
L 221.722748 275.817764 
L 223.246834 275.817764 
L 224.826342 275.817764 
L 226.46127 275.817764 
L 228.15162 275.817764 
L 229.897392 275.817764 
L 231.698584 275.817764 
L 233.555198 275.817764 
L 235.467234 275.817764 
L 237.43469 275.817764 
L 239.457568 275.817764 
L 241.535867 275.817764 
L 243.669588 275.817764 
L 245.85873 275.817764 
L 248.103293 275.817764 
L 250.403277 275.817764 
L 252.758683 275.817764 
L 255.16951 275.817764 
L 257.635758 275.817764 
L 260.157428 275.817764 
L 262.734519 275.817764 
L 265.367031 275.817764 
L 268.054965 275.817764 
L 270.79832 275.817764 
" style="fill:none;stroke:#ff0000;stroke-linecap:square;stroke-width:1.5;"/>
   </g>
   <g id="line2d_8">
    <path clip-path="url(#p73e0bd6a3e)" d="M 236.16 275.817764 
L 236.143841 275.812824 
L 236.095364 275.798003 
L 236.014569 275.773301 
L 235.901455 275.738719 
L 235.756024 275.694256 
L 235.578275 275.639913 
L 235.368207 275.575689 
L 235.125822 275.501584 
L 234.851118 275.417599 
L 234.544097 275.323733 
L 234.204757 275.219986 
L 233.833099 275.106359 
L 233.429123 274.982851 
L 232.992829 274.849463 
L 232.524217 274.706194 
L 232.023287 274.553044 
L 231.490039 274.390014 
L 230.924473 274.217103 
L 230.326589 274.034311 
L 229.696387 273.841639 
L 229.033866 273.639086 
L 228.339028 273.426653 
L 227.611871 273.204339 
L 226.852397 272.972144 
L 226.060604 272.730069 
L 225.236493 272.478113 
L 224.380065 272.216276 
L 223.491318 271.944559 
L 222.570253 271.662961 
L 221.61687 271.371483 
L 220.631169 271.070124 
L 219.61315 270.758884 
L 218.562813 270.437764 
L 217.480157 270.106763 
L 216.365184 269.765881 
L 215.217893 269.415119 
L 214.038283 269.054476 
L 212.826356 268.683953 
L 211.58211 268.303549 
L 210.305547 267.913264 
L 208.996665 267.513099 
L 207.655465 267.103053 
L 206.281947 266.683127 
L 204.876111 266.253319 
L 203.437957 265.813632 
L 201.967485 265.364063 
L 200.464695 264.904614 
L 198.929587 264.435284 
L 197.362161 263.956074 
L 195.762416 263.466983 
" style="fill:none;stroke:#0000ff;stroke-linecap:square;stroke-width:1.5;"/>
   </g>
   <g id="line2d_9">
    <path clip-path="url(#p73e0bd6a3e)" d="M 236.16 275.817764 
L 236.176159 275.812824 
L 236.224636 275.798003 
L 236.305431 275.773301 
L 236.418545 275.738719 
L 236.563976 275.694256 
L 236.741725 275.639913 
L 236.951793 275.575689 
L 237.194178 275.501584 
L 237.468882 275.417599 
L 237.775903 275.323733 
L 238.115243 275.219986 
L 238.486901 275.106359 
L 238.890877 274.982851 
L 239.327171 274.849463 
L 239.795783 274.706194 
L 240.296713 274.553044 
L 240.829961 274.390014 
L 241.395527 274.217103 
L 241.993411 274.034311 
L 242.623613 273.841639 
L 243.286134 273.639086 
L 243.980972 273.426653 
L 244.708129 273.204339 
L 245.467603 272.972144 
L 246.259396 272.730069 
L 247.083507 272.478113 
L 247.939935 272.216276 
L 248.828682 271.944559 
L 249.749747 271.662961 
L 250.70313 271.371483 
L 251.688831 271.070124 
L 252.70685 270.758884 
L 253.757187 270.437764 
L 254.839843 270.106763 
L 255.954816 269.765881 
L 257.102107 269.415119 
L 258.281717 269.054476 
L 259.493644 268.683953 
L 260.73789 268.303549 
L 262.014453 267.913264 
L 263.323335 267.513099 
L 264.664535 267.103053 
L 266.038053 266.683127 
L 267.443889 266.253319 
L 268.882043 265.813632 
L 270.352515 265.364063 
L 271.855305 264.904614 
L 273.390413 264.435284 
L 274.957839 263.956074 
L 276.557584 263.466983 
" style="fill:none;stroke:#0000ff;stroke-linecap:square;stroke-width:1.5;"/>
   </g>
   <g id="line2d_10">
    <path clip-path="url(#p73e0bd6a3e)" d="M 195.762416 263.466983 
L 195.794734 263.466983 
L 195.891689 263.466983 
L 196.053279 263.466983 
L 196.279505 263.466983 
L 196.570368 263.466983 
L 196.925867 263.466983 
L 197.346002 263.466983 
L 197.830773 263.466983 
L 198.38018 263.466983 
L 198.994223 263.466983 
L 199.672903 263.466983 
L 200.416218 263.466983 
L 201.22417 263.466983 
L 202.096758 263.466983 
L 203.033981 263.466983 
L 204.035842 263.466983 
L 205.102338 263.466983 
L 206.23347 263.466983 
L 207.429239 263.466983 
L 208.689643 263.466983 
L 210.014684 263.466983 
L 211.404361 263.466983 
L 212.858674 263.466983 
L 214.377623 263.466983 
L 215.961208 263.466983 
L 217.60943 263.466983 
L 219.322287 263.466983 
L 221.099781 263.466983 
L 222.941911 263.466983 
L 224.848677 263.466983 
L 226.820079 263.466983 
L 228.856117 263.466983 
L 230.956791 263.466983 
L 233.122102 263.466983 
L 235.352048 263.466983 
L 237.646631 263.466983 
L 240.00585 263.466983 
L 242.429705 263.466983 
L 244.918196 263.466983 
L 247.471323 263.466983 
L 250.089087 263.466983 
L 252.771486 263.466983 
L 255.518522 263.466983 
L 258.330194 263.466983 
L 261.206502 263.466983 
L 264.147446 263.466983 
L 267.153026 263.466983 
L 270.223242 263.466983 
L 273.358095 263.466983 
L 276.557584 263.466983 
" style="fill:none;stroke:#ff0000;stroke-linecap:square;stroke-width:1.5;"/>
   </g>
   <g id="line2d_11">
    <path clip-path="url(#p73e0bd6a3e)" d="M 236.16 263.466983 
L 236.141154 263.461221 
L 236.084617 263.443936 
L 235.990388 263.415128 
L 235.858468 263.374796 
L 235.688856 263.32294 
L 235.481552 263.259561 
L 235.236557 263.184658 
L 234.953871 263.098232 
L 234.633492 263.000283 
L 234.275423 262.89081 
L 233.879662 262.769814 
L 233.446209 262.637294 
L 232.975064 262.493251 
L 232.466229 262.337684 
L 231.919701 262.170594 
L 231.335482 261.99198 
L 230.713572 261.801843 
L 230.05397 261.600182 
L 229.356676 261.386998 
L 228.621691 261.162291 
L 227.849014 260.92606 
L 227.038646 260.678305 
L 226.190586 260.419028 
L 225.304835 260.148226 
L 224.381392 259.865901 
L 223.420258 259.572053 
L 222.421432 259.266681 
L 221.384914 258.949786 
L 220.310705 258.621367 
L 219.198805 258.281425 
L 218.049212 257.92996 
L 216.861929 257.566971 
L 215.636954 257.192458 
L 214.374287 256.806422 
L 213.073928 256.408863 
L 211.735879 255.99978 
L 210.360137 255.579174 
L 208.946704 255.147044 
L 207.49558 254.70339 
L 206.006764 254.248214 
L 204.480256 253.781514 
L 202.916057 253.30329 
L 201.314166 252.813543 
L 199.674584 252.312272 
L 197.99731 251.799478 
L 196.282345 251.275161 
L 194.529688 250.73932 
L 192.73934 250.191955 
L 190.9113 249.633067 
L 189.045568 249.062656 
" style="fill:none;stroke:#0000ff;stroke-linecap:square;stroke-width:1.5;"/>
   </g>
   <g id="line2d_12">
    <path clip-path="url(#p73e0bd6a3e)" d="M 236.16 263.466983 
L 236.178846 263.461221 
L 236.235383 263.443936 
L 236.329612 263.415128 
L 236.461532 263.374796 
L 236.631144 263.32294 
L 236.838448 263.259561 
L 237.083443 263.184658 
L 237.366129 263.098232 
L 237.686508 263.000283 
L 238.044577 262.89081 
L 238.440338 262.769814 
L 238.873791 262.637294 
L 239.344936 262.493251 
L 239.853771 262.337684 
L 240.400299 262.170594 
L 240.984518 261.99198 
L 241.606428 261.801843 
L 242.26603 261.600182 
L 242.963324 261.386998 
L 243.698309 261.162291 
L 244.470986 260.92606 
L 245.281354 260.678305 
L 246.129414 260.419028 
L 247.015165 260.148226 
L 247.938608 259.865901 
L 248.899742 259.572053 
L 249.898568 259.266681 
L 250.935086 258.949786 
L 252.009295 258.621367 
L 253.121195 258.281425 
L 254.270788 257.92996 
L 255.458071 257.566971 
L 256.683046 257.192458 
L 257.945713 256.806422 
L 259.246072 256.408863 
L 260.584121 255.99978 
L 261.959863 255.579174 
L 263.373296 255.147044 
L 264.82442 254.70339 
L 266.313236 254.248214 
L 267.839744 253.781514 
L 269.403943 253.30329 
L 271.005834 252.813543 
L 272.645416 252.312272 
L 274.32269 251.799478 
L 276.037655 251.275161 
L 277.790312 250.73932 
L 279.58066 250.191955 
L 281.4087 249.633067 
L 283.274432 249.062656 
" style="fill:none;stroke:#0000ff;stroke-linecap:square;stroke-width:1.5;"/>
   </g>
   <g id="line2d_13">
    <path clip-path="url(#p73e0bd6a3e)" d="M 189.045568 249.062656 
L 189.08326 249.062656 
L 189.196334 249.062656 
L 189.384792 249.062656 
L 189.648633 249.062656 
L 189.987857 249.062656 
L 190.402464 249.062656 
L 190.892454 249.062656 
L 191.457827 249.062656 
L 192.098583 249.062656 
L 192.814723 249.062656 
L 193.606245 249.062656 
L 194.473151 249.062656 
L 195.415439 249.062656 
L 196.433111 249.062656 
L 197.526166 249.062656 
L 198.694604 249.062656 
L 199.938425 249.062656 
L 201.257629 249.062656 
L 202.652216 249.062656 
L 204.122186 249.062656 
L 205.66754 249.062656 
L 207.288276 249.062656 
L 208.984396 249.062656 
L 210.755898 249.062656 
L 212.602784 249.062656 
L 214.525053 249.062656 
L 216.522705 249.062656 
L 218.59574 249.062656 
L 220.744158 249.062656 
L 222.967959 249.062656 
L 225.267143 249.062656 
L 227.641711 249.062656 
L 230.091661 249.062656 
L 232.616995 249.062656 
L 235.217711 249.062656 
L 237.893811 249.062656 
L 240.645294 249.062656 
L 243.47216 249.062656 
L 246.374409 249.062656 
L 249.352041 249.062656 
L 252.405056 249.062656 
L 255.533454 249.062656 
L 258.737236 249.062656 
L 262.0164 249.062656 
L 265.370948 249.062656 
L 268.800878 249.062656 
L 272.306192 249.062656 
L 275.886889 249.062656 
L 279.542969 249.062656 
L 283.274432 249.062656 
" style="fill:none;stroke:#ff0000;stroke-linecap:square;stroke-width:1.5;"/>
   </g>
   <g id="line2d_14">
    <path clip-path="url(#p73e0bd6a3e)" d="M 236.16 249.062656 
L 236.138021 249.055936 
L 236.072083 249.035777 
L 235.962187 249.002178 
L 235.808332 248.95514 
L 235.610519 248.894663 
L 235.368748 248.820746 
L 235.083018 248.733389 
L 234.753329 248.632593 
L 234.379682 248.518358 
L 233.962077 248.390683 
L 233.500513 248.249569 
L 232.994991 248.095015 
L 232.44551 247.927022 
L 231.85207 247.74559 
L 231.214673 247.550718 
L 230.533317 247.342406 
L 229.808002 247.120655 
L 229.038729 246.885465 
L 228.225497 246.636835 
L 227.368307 246.374766 
L 226.467159 246.099257 
L 225.522052 245.810309 
L 224.532986 245.507921 
L 223.499962 245.192094 
L 222.42298 244.862827 
L 221.302039 244.520121 
L 220.13714 244.163976 
L 218.928282 243.794391 
L 217.675466 243.411367 
L 216.378691 243.014903 
L 215.037958 242.605 
L 213.653266 242.181657 
L 212.224616 241.744875 
L 210.752008 241.294653 
L 209.235441 240.830992 
L 207.674915 240.353891 
L 206.070431 239.863351 
L 204.421989 239.359372 
L 202.729588 238.841953 
L 200.993228 238.311095 
L 199.212911 237.766797 
L 197.388634 237.20906 
L 195.5204 236.637883 
L 193.608206 236.053267 
L 191.652055 235.455211 
L 189.651945 234.843716 
L 187.607876 234.218782 
L 185.519849 233.580408 
L 183.387863 232.928595 
L 181.211919 232.263342 
" style="fill:none;stroke:#0000ff;stroke-linecap:square;stroke-width:1.5;"/>
   </g>
   <g id="line2d_15">
    <path clip-path="url(#p73e0bd6a3e)" d="M 236.16 249.062656 
L 236.181979 249.055936 
L 236.247917 249.035777 
L 236.357813 249.002178 
L 236.511668 248.95514 
L 236.709481 248.894663 
L 236.951252 248.820746 
L 237.236982 248.733389 
L 237.566671 248.632593 
L 237.940318 248.518358 
L 238.357923 248.390683 
L 238.819487 248.249569 
L 239.325009 248.095015 
L 239.87449 247.927022 
L 240.46793 247.74559 
L 241.105327 247.550718 
L 241.786683 247.342406 
L 242.511998 247.120655 
L 243.281271 246.885465 
L 244.094503 246.636835 
L 244.951693 246.374766 
L 245.852841 246.099257 
L 246.797948 245.810309 
L 247.787014 245.507921 
L 248.820038 245.192094 
L 249.89702 244.862827 
L 251.017961 244.520121 
L 252.18286 244.163976 
L 253.391718 243.794391 
L 254.644534 243.411367 
L 255.941309 243.014903 
L 257.282042 242.605 
L 258.666734 242.181657 
L 260.095384 241.744875 
L 261.567992 241.294653 
L 263.084559 240.830992 
L 264.645085 240.353891 
L 266.249569 239.863351 
L 267.898011 239.359372 
L 269.590412 238.841953 
L 271.326772 238.311095 
L 273.107089 237.766797 
L 274.931366 237.20906 
L 276.7996 236.637883 
L 278.711794 236.053267 
L 280.667945 235.455211 
L 282.668055 234.843716 
L 284.712124 234.218782 
L 286.800151 233.580408 
L 288.932137 232.928595 
L 291.108081 232.263342 
" style="fill:none;stroke:#0000ff;stroke-linecap:square;stroke-width:1.5;"/>
   </g>
   <g id="line2d_16">
    <path clip-path="url(#p73e0bd6a3e)" d="M 181.211919 232.263342 
L 181.255878 232.263342 
L 181.387753 232.263342 
L 181.607546 232.263342 
L 181.915255 232.263342 
L 182.310881 232.263342 
L 182.794424 232.263342 
L 183.365884 232.263342 
L 184.025261 232.263342 
L 184.772555 232.263342 
L 185.607766 232.263342 
L 186.530894 232.263342 
L 187.541938 232.263342 
L 188.6409 232.263342 
L 189.827778 232.263342 
L 191.102574 232.263342 
L 192.465286 232.263342 
L 193.915916 232.263342 
L 195.454462 232.263342 
L 197.080925 232.263342 
L 198.795305 232.263342 
L 200.597602 232.263342 
L 202.487816 232.263342 
L 204.465947 232.263342 
L 206.531995 232.263342 
L 208.68596 232.263342 
L 210.927841 232.263342 
L 213.25764 232.263342 
L 215.675356 232.263342 
L 218.180988 232.263342 
L 220.774537 232.263342 
L 223.456004 232.263342 
L 226.225387 232.263342 
L 229.082687 232.263342 
L 232.027904 232.263342 
L 235.061038 232.263342 
L 238.182089 232.263342 
L 241.391057 232.263342 
L 244.687942 232.263342 
L 248.072744 232.263342 
L 251.545463 232.263342 
L 255.106098 232.263342 
L 258.754651 232.263342 
L 262.49112 232.263342 
L 266.315507 232.263342 
L 270.22781 232.263342 
L 274.22803 232.263342 
L 278.316167 232.263342 
L 282.492222 232.263342 
L 286.756193 232.263342 
L 291.108081 232.263342 
" style="fill:none;stroke:#ff0000;stroke-linecap:square;stroke-width:1.5;"/>
   </g>
   <g id="line2d_17">
    <path clip-path="url(#p73e0bd6a3e)" d="M 236.16 232.263342 
L 236.134366 232.255505 
L 236.057465 232.231994 
L 235.929297 232.192809 
L 235.749861 232.13795 
L 235.519158 232.067417 
L 235.237187 231.98121 
L 234.903949 231.879329 
L 234.519444 231.761773 
L 234.083671 231.628544 
L 233.596631 231.479641 
L 233.058324 231.315064 
L 232.468749 231.134813 
L 231.827907 230.938888 
L 231.135797 230.727289 
L 230.39242 230.500016 
L 229.597776 230.257069 
L 228.751864 229.998447 
L 227.854685 229.724152 
L 226.906239 229.434183 
L 225.906525 229.12854 
L 224.855544 228.807223 
L 223.753295 228.470231 
L 222.599779 228.117566 
L 221.394996 227.749227 
L 220.138945 227.365214 
L 218.831627 226.965527 
L 217.473042 226.550165 
L 216.063189 226.11913 
L 214.602069 225.672421 
L 213.089681 225.210037 
L 211.526026 224.73198 
L 209.911104 224.238249 
L 208.244914 223.728844 
L 206.527457 223.203764 
L 204.758733 222.663011 
L 202.938741 222.106584 
L 201.067482 221.534482 
L 199.144955 220.946707 
L 197.171161 220.343258 
L 195.1461 219.724134 
L 193.069771 219.089337 
L 190.942175 218.438865 
L 188.763312 217.77272 
L 186.533181 217.090901 
L 184.251783 216.393407 
L 181.919117 215.68024 
L 179.535184 214.951398 
L 177.099984 214.206883 
L 174.613516 213.446693 
L 172.075781 212.67083 
" style="fill:none;stroke:#0000ff;stroke-linecap:square;stroke-width:1.5;"/>
   </g>
   <g id="line2d_18">
    <path clip-path="url(#p73e0bd6a3e)" d="M 236.16 232.263342 
L 236.185634 232.255505 
L 236.262535 232.231994 
L 236.390703 232.192809 
L 236.570139 232.13795 
L 236.800842 232.067417 
L 237.082813 231.98121 
L 237.416051 231.879329 
L 237.800556 231.761773 
L 238.236329 231.628544 
L 238.723369 231.479641 
L 239.261676 231.315064 
L 239.851251 231.134813 
L 240.492093 230.938888 
L 241.184203 230.727289 
L 241.92758 230.500016 
L 242.722224 230.257069 
L 243.568136 229.998447 
L 244.465315 229.724152 
L 245.413761 229.434183 
L 246.413475 229.12854 
L 247.464456 228.807223 
L 248.566705 228.470231 
L 249.720221 228.117566 
L 250.925004 227.749227 
L 252.181055 227.365214 
L 253.488373 226.965527 
L 254.846958 226.550165 
L 256.256811 226.11913 
L 257.717931 225.672421 
L 259.230319 225.210037 
L 260.793974 224.73198 
L 262.408896 224.238249 
L 264.075086 223.728844 
L 265.792543 223.203764 
L 267.561267 222.663011 
L 269.381259 222.106584 
L 271.252518 221.534482 
L 273.175045 220.946707 
L 275.148839 220.343258 
L 277.1739 219.724134 
L 279.250229 219.089337 
L 281.377825 218.438865 
L 283.556688 217.77272 
L 285.786819 217.090901 
L 288.068217 216.393407 
L 290.400883 215.68024 
L 292.784816 214.951398 
L 295.220016 214.206883 
L 297.706484 213.446693 
L 300.244219 212.67083 
" style="fill:none;stroke:#0000ff;stroke-linecap:square;stroke-width:1.5;"/>
   </g>
   <g id="line2d_19">
    <path clip-path="url(#p73e0bd6a3e)" d="M 172.075781 212.67083 
L 172.127048 212.67083 
L 172.280851 212.67083 
L 172.537187 212.67083 
L 172.896059 212.67083 
L 173.357465 212.67083 
L 173.921407 212.67083 
L 174.587883 212.67083 
L 175.356893 212.67083 
L 176.228439 212.67083 
L 177.202519 212.67083 
L 178.279134 212.67083 
L 179.458283 212.67083 
L 180.739968 212.67083 
L 182.124187 212.67083 
L 183.610941 212.67083 
L 185.200229 212.67083 
L 186.892053 212.67083 
L 188.686411 212.67083 
L 190.583304 212.67083 
L 192.582731 212.67083 
L 194.684694 212.67083 
L 196.889191 212.67083 
L 199.196223 212.67083 
L 201.605789 212.67083 
L 204.117891 212.67083 
L 206.732527 212.67083 
L 209.449698 212.67083 
L 212.269403 212.67083 
L 215.191644 212.67083 
L 218.216419 212.67083 
L 221.343729 212.67083 
L 224.573573 212.67083 
L 227.905953 212.67083 
L 231.340867 212.67083 
L 234.878316 212.67083 
L 238.518299 212.67083 
L 242.260818 212.67083 
L 246.105871 212.67083 
L 250.053459 212.67083 
L 254.103581 212.67083 
L 258.256239 212.67083 
L 262.511431 212.67083 
L 266.869158 212.67083 
L 271.329419 212.67083 
L 275.892216 212.67083 
L 280.557547 212.67083 
L 285.325413 212.67083 
L 290.195813 212.67083 
L 295.168749 212.67083 
L 300.244219 212.67083 
" style="fill:none;stroke:#ff0000;stroke-linecap:square;stroke-width:1.5;"/>
   </g>
   <g id="line2d_20">
    <path clip-path="url(#p73e0bd6a3e)" d="M 236.16 212.67083 
L 236.130104 212.66169 
L 236.040417 212.63427 
L 235.890938 212.588569 
L 235.681668 212.524589 
L 235.412606 212.442329 
L 235.083752 212.341788 
L 234.695108 212.222967 
L 234.246671 212.085867 
L 233.738443 211.930486 
L 233.170424 211.756825 
L 232.542613 211.564884 
L 231.85501 211.354662 
L 231.107616 211.126161 
L 230.30043 210.87938 
L 229.433453 210.614318 
L 228.506684 210.330976 
L 227.520124 210.029355 
L 226.473772 209.709453 
L 225.367629 209.371271 
L 224.201694 209.014809 
L 222.975968 208.640067 
L 221.69045 208.247045 
L 220.345141 207.835742 
L 218.94004 207.40616 
L 217.475148 206.958297 
L 215.950464 206.492155 
L 214.365988 206.007732 
L 212.721721 205.505029 
L 211.017663 204.984046 
L 209.253812 204.444783 
L 207.430171 203.88724 
L 205.546738 203.311416 
L 203.603513 202.717313 
L 201.600497 202.104929 
L 199.537689 201.474266 
L 197.41509 200.825322 
L 195.232699 200.158098 
L 192.990517 199.472594 
L 190.688543 198.76881 
L 188.326778 198.046746 
L 185.905221 197.306402 
L 183.423872 196.547778 
L 180.882733 195.770873 
L 178.281801 194.975689 
L 175.621078 194.162224 
L 172.900564 193.330479 
L 170.120257 192.480454 
L 167.28016 191.612149 
L 164.380271 190.725564 
L 161.42059 189.820699 
" style="fill:none;stroke:#0000ff;stroke-linecap:square;stroke-width:1.5;"/>
   </g>
   <g id="line2d_21">
    <path clip-path="url(#p73e0bd6a3e)" d="M 236.16 212.67083 
L 236.189896 212.66169 
L 236.279583 212.63427 
L 236.429062 212.588569 
L 236.638332 212.524589 
L 236.907394 212.442329 
L 237.236248 212.341788 
L 237.624892 212.222967 
L 238.073329 212.085867 
L 238.581557 211.930486 
L 239.149576 211.756825 
L 239.777387 211.564884 
L 240.46499 211.354662 
L 241.212384 211.126161 
L 242.01957 210.87938 
L 242.886547 210.614318 
L 243.813316 210.330976 
L 244.799876 210.029355 
L 245.846228 209.709453 
L 246.952371 209.371271 
L 248.118306 209.014809 
L 249.344032 208.640067 
L 250.62955 208.247045 
L 251.974859 207.835742 
L 253.37996 207.40616 
L 254.844852 206.958297 
L 256.369536 206.492155 
L 257.954012 206.007732 
L 259.598279 205.505029 
L 261.302337 204.984046 
L 263.066188 204.444783 
L 264.889829 203.88724 
L 266.773262 203.311416 
L 268.716487 202.717313 
L 270.719503 202.104929 
L 272.782311 201.474266 
L 274.90491 200.825322 
L 277.087301 200.158098 
L 279.329483 199.472594 
L 281.631457 198.76881 
L 283.993222 198.046746 
L 286.414779 197.306402 
L 288.896128 196.547778 
L 291.437267 195.770873 
L 294.038199 194.975689 
L 296.698922 194.162224 
L 299.419436 193.330479 
L 302.199743 192.480454 
L 305.03984 191.612149 
L 307.939729 190.725564 
L 310.89941 189.820699 
" style="fill:none;stroke:#0000ff;stroke-linecap:square;stroke-width:1.5;"/>
   </g>
   <g id="line2d_22">
    <path clip-path="url(#p73e0bd6a3e)" d="M 161.42059 189.820699 
L 161.480382 189.820699 
L 161.659756 189.820699 
L 161.958714 189.820699 
L 162.377255 189.820699 
L 162.915378 189.820699 
L 163.573085 189.820699 
L 164.350375 189.820699 
L 165.247248 189.820699 
L 166.263704 189.820699 
L 167.399743 189.820699 
L 168.655365 189.820699 
L 170.03057 189.820699 
L 171.525358 189.820699 
L 173.13973 189.820699 
L 174.873684 189.820699 
L 176.727221 189.820699 
L 178.700342 189.820699 
L 180.793045 189.820699 
L 183.005332 189.820699 
L 185.337201 189.820699 
L 187.788654 189.820699 
L 190.35969 189.820699 
L 193.050308 189.820699 
L 195.86051 189.820699 
L 198.790295 189.820699 
L 201.839663 189.820699 
L 205.008614 189.820699 
L 208.297148 189.820699 
L 211.705265 189.820699 
L 215.232965 189.820699 
L 218.880248 189.820699 
L 222.647115 189.820699 
L 226.533564 189.820699 
L 230.539596 189.820699 
L 234.665212 189.820699 
L 238.91041 189.820699 
L 243.275192 189.820699 
L 247.759556 189.820699 
L 252.363504 189.820699 
L 257.087035 189.820699 
L 261.930149 189.820699 
L 266.892845 189.820699 
L 271.975125 189.820699 
L 277.176988 189.820699 
L 282.498434 189.820699 
L 287.939463 189.820699 
L 293.500075 189.820699 
L 299.18027 189.820699 
L 304.980049 189.820699 
L 310.89941 189.820699 
" style="fill:none;stroke:#ff0000;stroke-linecap:square;stroke-width:1.5;"/>
   </g>
   <g id="line2d_23">
    <path clip-path="url(#p73e0bd6a3e)" d="M 236.16 189.820699 
L 236.125134 189.810039 
L 236.020534 189.77806 
L 235.846202 189.724761 
L 235.602136 189.650143 
L 235.288338 189.554205 
L 234.904806 189.436948 
L 234.451542 189.298371 
L 233.928545 189.138475 
L 233.335814 188.957259 
L 232.673351 188.754724 
L 231.941155 188.530869 
L 231.139225 188.285694 
L 230.267563 188.0192 
L 229.326168 187.731387 
L 228.31504 187.422254 
L 227.234179 187.091802 
L 226.083585 186.74003 
L 224.863257 186.366938 
L 223.573197 185.972527 
L 222.213404 185.556797 
L 220.783878 185.119747 
L 219.284619 184.661377 
L 217.715627 184.181688 
L 216.076902 183.68068 
L 214.368444 183.158352 
L 212.590253 182.614704 
L 210.742329 182.049737 
L 208.824672 181.463451 
L 206.837282 180.855845 
L 204.780159 180.226919 
L 202.653303 179.576674 
L 200.456715 178.905109 
L 198.190393 178.212225 
L 195.854338 177.498022 
L 193.44855 176.762499 
L 190.973029 176.005656 
L 188.427776 175.227494 
L 185.812789 174.428012 
L 183.128069 173.607211 
L 180.373617 172.76509 
L 177.549431 171.90165 
L 174.655512 171.01689 
L 171.691861 170.110811 
L 168.658476 169.183412 
L 165.555359 168.234694 
L 162.382508 167.264656 
L 159.139924 166.273299 
L 155.827608 165.260622 
L 152.445558 164.226626 
L 148.993776 163.17131 
" style="fill:none;stroke:#0000ff;stroke-linecap:square;stroke-width:1.5;"/>
   </g>
   <g id="line2d_24">
    <path clip-path="url(#p73e0bd6a3e)" d="M 236.16 189.820699 
L 236.194866 189.810039 
L 236.299466 189.77806 
L 236.473798 189.724761 
L 236.717864 189.650143 
L 237.031662 189.554205 
L 237.415194 189.436948 
L 237.868458 189.298371 
L 238.391455 189.138475 
L 238.984186 188.957259 
L 239.646649 188.754724 
L 240.378845 188.530869 
L 241.180775 188.285694 
L 242.052437 188.0192 
L 242.993832 187.731387 
L 244.00496 187.422254 
L 245.085821 187.091802 
L 246.236415 186.74003 
L 247.456743 186.366938 
L 248.746803 185.972527 
L 250.106596 185.556797 
L 251.536122 185.119747 
L 253.035381 184.661377 
L 254.604373 184.181688 
L 256.243098 183.68068 
L 257.951556 183.158352 
L 259.729747 182.614704 
L 261.577671 182.049737 
L 263.495328 181.463451 
L 265.482718 180.855845 
L 267.539841 180.226919 
L 269.666697 179.576674 
L 271.863285 178.905109 
L 274.129607 178.212225 
L 276.465662 177.498022 
L 278.87145 176.762499 
L 281.346971 176.005656 
L 283.892224 175.227494 
L 286.507211 174.428012 
L 289.191931 173.607211 
L 291.946383 172.76509 
L 294.770569 171.90165 
L 297.664488 171.01689 
L 300.628139 170.110811 
L 303.661524 169.183412 
L 306.764641 168.234694 
L 309.937492 167.264656 
L 313.180076 166.273299 
L 316.492392 165.260622 
L 319.874442 164.226626 
L 323.326224 163.17131 
" style="fill:none;stroke:#0000ff;stroke-linecap:square;stroke-width:1.5;"/>
   </g>
   <g id="line2d_25">
    <path clip-path="url(#p73e0bd6a3e)" d="M 148.993776 163.17131 
L 149.063509 163.17131 
L 149.272708 163.17131 
L 149.621373 163.17131 
L 150.109504 163.17131 
L 150.7371 163.17131 
L 151.504163 163.17131 
L 152.410692 163.17131 
L 153.456687 163.17131 
L 154.642147 163.17131 
L 155.967074 163.17131 
L 157.431466 163.17131 
L 159.035325 163.17131 
L 160.778649 163.17131 
L 162.66144 163.17131 
L 164.683696 163.17131 
L 166.845419 163.17131 
L 169.146607 163.17131 
L 171.587261 163.17131 
L 174.167381 163.17131 
L 176.886968 163.17131 
L 179.74602 163.17131 
L 182.744538 163.17131 
L 185.882522 163.17131 
L 189.159972 163.17131 
L 192.576888 163.17131 
L 196.13327 163.17131 
L 199.829118 163.17131 
L 203.664432 163.17131 
L 207.639212 163.17131 
L 211.753457 163.17131 
L 216.007169 163.17131 
L 220.400347 163.17131 
L 224.93299 163.17131 
L 229.6051 163.17131 
L 234.416676 163.17131 
L 239.367717 163.17131 
L 244.458225 163.17131 
L 249.688198 163.17131 
L 255.057637 163.17131 
L 260.566543 163.17131 
L 266.214914 163.17131 
L 272.002751 163.17131 
L 277.930055 163.17131 
L 283.996824 163.17131 
L 290.203059 163.17131 
L 296.54876 163.17131 
L 303.033927 163.17131 
L 309.65856 163.17131 
L 316.422659 163.17131 
L 323.326224 163.17131 
" style="fill:none;stroke:#ff0000;stroke-linecap:square;stroke-width:1.5;"/>
   </g>
   <g id="line2d_26">
    <path clip-path="url(#p73e0bd6a3e)" d="M 236.16 163.17131 
L 236.119336 163.158878 
L 235.997345 163.121582 
L 235.794027 163.059421 
L 235.509381 162.972396 
L 235.143408 162.860507 
L 234.696107 162.723753 
L 234.167479 162.562135 
L 233.557524 162.375653 
L 232.866241 162.164307 
L 232.093631 161.928096 
L 231.239693 161.667021 
L 230.304429 161.381082 
L 229.287836 161.070279 
L 228.189917 160.734611 
L 227.01067 160.374079 
L 225.750095 159.988683 
L 224.408193 159.578422 
L 222.984964 159.143297 
L 221.480408 158.683308 
L 219.894524 158.198455 
L 218.227312 157.688737 
L 216.478774 157.154155 
L 214.648908 156.594709 
L 212.737714 156.010399 
L 210.745193 155.401224 
L 208.671345 154.767185 
L 206.516169 154.108282 
L 204.279666 153.424514 
L 201.961836 152.715882 
L 199.562678 151.982386 
L 197.082193 151.224026 
L 194.520381 150.440801 
L 191.877241 149.632712 
L 189.152774 148.799759 
L 186.346979 147.941941 
L 183.459857 147.059259 
L 180.491407 146.151713 
L 177.441631 145.219303 
L 174.310526 144.262028 
L 171.098095 143.27989 
L 167.804336 142.272886 
L 164.42925 141.241019 
L 160.972836 140.184287 
L 157.435095 139.102691 
L 153.816026 137.996231 
L 150.11563 136.864906 
L 146.333907 135.708718 
L 142.470857 134.527664 
L 138.526479 133.321747 
L 134.500773 132.090965 
" style="fill:none;stroke:#0000ff;stroke-linecap:square;stroke-width:1.5;"/>
   </g>
   <g id="line2d_27">
    <path clip-path="url(#p73e0bd6a3e)" d="M 236.16 163.17131 
L 236.200664 163.158878 
L 236.322655 163.121582 
L 236.525973 163.059421 
L 236.810619 162.972396 
L 237.176592 162.860507 
L 237.623893 162.723753 
L 238.152521 162.562135 
L 238.762476 162.375653 
L 239.453759 162.164307 
L 240.226369 161.928096 
L 241.080307 161.667021 
L 242.015571 161.381082 
L 243.032164 161.070279 
L 244.130083 160.734611 
L 245.30933 160.374079 
L 246.569905 159.988683 
L 247.911807 159.578422 
L 249.335036 159.143297 
L 250.839592 158.683308 
L 252.425476 158.198455 
L 254.092688 157.688737 
L 255.841226 157.154155 
L 257.671092 156.594709 
L 259.582286 156.010399 
L 261.574807 155.401224 
L 263.648655 154.767185 
L 265.803831 154.108282 
L 268.040334 153.424514 
L 270.358164 152.715882 
L 272.757322 151.982386 
L 275.237807 151.224026 
L 277.799619 150.440801 
L 280.442759 149.632712 
L 283.167226 148.799759 
L 285.973021 147.941941 
L 288.860143 147.059259 
L 291.828593 146.151713 
L 294.878369 145.219303 
L 298.009474 144.262028 
L 301.221905 143.27989 
L 304.515664 142.272886 
L 307.89075 141.241019 
L 311.347164 140.184287 
L 314.884905 139.102691 
L 318.503974 137.996231 
L 322.20437 136.864906 
L 325.986093 135.708718 
L 329.849143 134.527664 
L 333.793521 133.321747 
L 337.819227 132.090965 
" style="fill:none;stroke:#0000ff;stroke-linecap:square;stroke-width:1.5;"/>
   </g>
   <g id="line2d_28">
    <path clip-path="url(#p73e0bd6a3e)" d="M 134.500773 132.090965 
L 134.582101 132.090965 
L 134.826083 132.090965 
L 135.23272 132.090965 
L 135.802011 132.090965 
L 136.533958 132.090965 
L 137.428559 132.090965 
L 138.485815 132.090965 
L 139.705726 132.090965 
L 141.088291 132.090965 
L 142.633511 132.090965 
L 144.341386 132.090965 
L 146.211916 132.090965 
L 148.245101 132.090965 
L 150.44094 132.090965 
L 152.799434 132.090965 
L 155.320583 132.090965 
L 158.004386 132.090965 
L 160.850845 132.090965 
L 163.859958 132.090965 
L 167.031726 132.090965 
L 170.366148 132.090965 
L 173.863226 132.090965 
L 177.522958 132.090965 
L 181.345345 132.090965 
L 185.330387 132.090965 
L 189.478083 132.090965 
L 193.788434 132.090965 
L 198.26144 132.090965 
L 202.897101 132.090965 
L 207.695417 132.090965 
L 212.656387 132.090965 
L 217.780012 132.090965 
L 223.066292 132.090965 
L 228.515226 132.090965 
L 234.126815 132.090965 
L 239.90106 132.090965 
L 245.837958 132.090965 
L 251.937512 132.090965 
L 258.19972 132.090965 
L 264.624583 132.090965 
L 271.212101 132.090965 
L 277.962274 132.090965 
L 284.875101 132.090965 
L 291.950584 132.090965 
L 299.188721 132.090965 
L 306.589512 132.090965 
L 314.152959 132.090965 
L 321.87906 132.090965 
L 329.767816 132.090965 
L 337.819227 132.090965 
" style="fill:none;stroke:#ff0000;stroke-linecap:square;stroke-width:1.5;"/>
   </g>
   <g id="line2d_29">
    <path clip-path="url(#p73e0bd6a3e)" d="M 236.16 132.090965 
L 236.112575 132.076466 
L 235.970301 132.032969 
L 235.733177 131.960473 
L 235.401203 131.858978 
L 234.97438 131.728485 
L 234.452708 131.568994 
L 233.836186 131.380504 
L 233.124814 131.163016 
L 232.318592 130.916529 
L 231.417522 130.641044 
L 230.421601 130.336561 
L 229.330831 130.003079 
L 228.145211 129.640599 
L 226.864742 129.24912 
L 225.489424 128.828643 
L 224.019255 128.379167 
L 222.454237 127.900693 
L 220.79437 127.393221 
L 219.039653 126.85675 
L 217.190086 126.291281 
L 215.24567 125.696813 
L 213.206405 125.073347 
L 211.072289 124.420883 
L 208.843324 123.73942 
L 206.51951 123.028958 
L 204.100846 122.289498 
L 201.587332 121.52104 
L 198.978969 120.723584 
L 196.275757 119.897129 
L 193.477694 119.041675 
L 190.584782 118.157223 
L 187.597021 117.243773 
L 184.51441 116.301324 
L 181.33695 115.329877 
L 178.064639 114.329431 
L 174.69748 113.299987 
L 171.235471 112.241545 
L 167.678612 111.154104 
L 164.026903 110.037665 
L 160.280345 108.892227 
L 156.438938 107.717791 
L 152.502681 106.514356 
L 148.471574 105.281923 
L 144.345618 104.020492 
L 140.124812 102.730062 
L 135.809157 101.410634 
L 131.398652 100.062207 
L 126.893297 98.684782 
L 122.293093 97.278358 
L 117.59804 95.842937 
" style="fill:none;stroke:#0000ff;stroke-linecap:square;stroke-width:1.5;"/>
   </g>
   <g id="line2d_30">
    <path clip-path="url(#p73e0bd6a3e)" d="M 236.16 132.090965 
L 236.207425 132.076466 
L 236.349699 132.032969 
L 236.586823 131.960473 
L 236.918797 131.858978 
L 237.34562 131.728485 
L 237.867292 131.568994 
L 238.483814 131.380504 
L 239.195186 131.163016 
L 240.001408 130.916529 
L 240.902478 130.641044 
L 241.898399 130.336561 
L 242.989169 130.003079 
L 244.174789 129.640599 
L 245.455258 129.24912 
L 246.830576 128.828643 
L 248.300745 128.379167 
L 249.865763 127.900693 
L 251.52563 127.393221 
L 253.280347 126.85675 
L 255.129914 126.291281 
L 257.07433 125.696813 
L 259.113595 125.073347 
L 261.247711 124.420883 
L 263.476676 123.73942 
L 265.80049 123.028958 
L 268.219154 122.289498 
L 270.732668 121.52104 
L 273.341031 120.723584 
L 276.044243 119.897129 
L 278.842306 119.041675 
L 281.735218 118.157223 
L 284.722979 117.243773 
L 287.80559 116.301324 
L 290.98305 115.329877 
L 294.255361 114.329431 
L 297.62252 113.299987 
L 301.084529 112.241545 
L 304.641388 111.154104 
L 308.293097 110.037665 
L 312.039655 108.892227 
L 315.881062 107.717791 
L 319.817319 106.514356 
L 323.848426 105.281923 
L 327.974382 104.020492 
L 332.195188 102.730062 
L 336.510843 101.410634 
L 340.921348 100.062207 
L 345.426703 98.684782 
L 350.026907 97.278358 
L 354.72196 95.842937 
" style="fill:none;stroke:#0000ff;stroke-linecap:square;stroke-width:1.5;"/>
   </g>
  </g>
 </g>
 <defs>
  <clipPath id="p73e0bd6a3e">
   <rect height="266.112" width="304.205191" x="84.057404" y="41.472"/>
  </clipPath>
 </defs>
</svg>
