<?xml version="1.0" encoding="utf-8" standalone="no"?>
<!DOCTYPE svg PUBLIC "-//W3C//DTD SVG 1.1//EN"
  "http://www.w3.org/Graphics/SVG/1.1/DTD/svg11.dtd">
<!-- Created with matplotlib (http://matplotlib.org/) -->
<svg height="345pt" version="1.1" viewBox="0 0 460 345" width="460pt" xmlns="http://www.w3.org/2000/svg" xmlns:xlink="http://www.w3.org/1999/xlink">
 <defs>
  <style type="text/css">
*{stroke-linecap:butt;stroke-linejoin:round;}
  </style>
 </defs>
 <g id="figure_1">
  <g id="patch_1">
   <path d="M 0 345.6 
L 460.8 345.6 
L 460.8 0 
L 0 0 
z
" style="fill:#ffffff;"/>
  </g>
  <g id="axes_1">
   <g id="patch_2">
    <path clip-path="url(#p656b9baa1d)" d="M 263.530666 295.488 
L 208.789334 295.488 
L 95.980186 53.568 
L 376.339814 53.568 
z
" style="fill:#ffffff;stroke:#000000;stroke-linejoin:miter;"/>
   </g>
   <g id="line2d_1">
    <path clip-path="url(#p656b9baa1d)" d="M 208.789334 295.488 
L 208.811231 295.488 
L 208.87692 295.488 
L 208.986403 295.488 
L 209.139679 295.488 
L 209.336748 295.488 
L 209.577609 295.488 
L 209.862264 295.488 
L 210.190712 295.488 
L 210.562953 295.488 
L 210.978987 295.488 
L 211.438815 295.488 
L 211.942435 295.488 
L 212.489848 295.488 
L 213.081055 295.488 
L 213.716054 295.488 
L 214.394847 295.488 
L 215.117432 295.488 
L 215.883811 295.488 
L 216.693982 295.488 
L 217.547947 295.488 
L 218.445705 295.488 
L 219.387256 295.488 
L 220.3726 295.488 
L 221.401737 295.488 
L 222.474667 295.488 
L 223.59139 295.488 
L 224.751907 295.488 
L 225.956216 295.488 
L 227.204318 295.488 
L 228.496214 295.488 
L 229.831902 295.488 
L 231.211384 295.488 
L 232.634658 295.488 
L 234.101726 295.488 
L 235.612587 295.488 
L 237.167241 295.488 
L 238.765687 295.488 
L 240.407927 295.488 
L 242.09396 295.488 
L 243.823786 295.488 
L 245.597406 295.488 
L 247.414818 295.488 
L 249.276023 295.488 
L 251.181021 295.488 
L 253.129813 295.488 
L 255.122397 295.488 
L 257.158775 295.488 
L 259.238945 295.488 
L 261.362909 295.488 
L 263.530666 295.488 
" style="fill:none;stroke:#ff0000;stroke-linecap:square;stroke-width:1.5;"/>
   </g>
   <g id="line2d_2">
    <path clip-path="url(#p656b9baa1d)" d="M 230.224611 295.488 
L 230.214284 295.484241 
L 230.183304 295.472965 
L 230.13167 295.454172 
L 230.059382 295.427862 
L 229.966441 295.394034 
L 229.852846 295.352689 
L 229.718598 295.303826 
L 229.563696 295.247447 
L 229.38814 295.18355 
L 229.191931 295.112135 
L 228.975069 295.033204 
L 228.737552 294.946755 
L 228.479382 294.852789 
L 228.200559 294.751305 
L 227.901082 294.642305 
L 227.580951 294.525787 
L 227.240167 294.401751 
L 226.878729 294.270199 
L 226.496637 294.131129 
L 226.093892 293.984541 
L 225.670494 293.830437 
L 225.226441 293.668815 
L 224.761736 293.499676 
L 224.276376 293.32302 
L 223.770363 293.138846 
L 223.243697 292.947155 
L 222.696376 292.747947 
L 222.128403 292.541221 
L 221.539775 292.326978 
L 220.930494 292.105218 
L 220.30056 291.875941 
L 219.649971 291.639146 
L 218.97873 291.394834 
L 218.286834 291.143005 
L 217.574285 290.883658 
L 216.841083 290.616794 
L 216.087227 290.342413 
L 215.312717 290.060514 
L 214.517554 289.771099 
L 213.701737 289.474166 
L 212.865266 289.169715 
L 212.008142 288.857748 
L 211.130365 288.538263 
L 210.231933 288.21126 
L 209.312848 287.876741 
L 208.37311 287.534704 
L 207.412718 287.18515 
L 206.431672 286.828079 
L 205.429973 286.46349 
L 204.40762 286.091384 
" style="fill:none;stroke:#0000ff;stroke-linecap:square;stroke-width:1.5;"/>
   </g>
   <g id="line2d_3">
    <path clip-path="url(#p656b9baa1d)" d="M 230.224611 295.488 
L 230.239686 295.484241 
L 230.284911 295.472965 
L 230.360287 295.454172 
L 230.465813 295.427862 
L 230.601489 295.394034 
L 230.767315 295.352689 
L 230.963291 295.303826 
L 231.189418 295.247447 
L 231.445695 295.18355 
L 231.732122 295.112135 
L 232.048699 295.033204 
L 232.395426 294.946755 
L 232.772304 294.852789 
L 233.179332 294.751305 
L 233.61651 294.642305 
L 234.083838 294.525787 
L 234.581317 294.401751 
L 235.108946 294.270199 
L 235.666725 294.131129 
L 236.254654 293.984541 
L 236.872733 293.830437 
L 237.520963 293.668815 
L 238.199343 293.499676 
L 238.907873 293.32302 
L 239.646553 293.138846 
L 240.415384 292.947155 
L 241.214364 292.747947 
L 242.043495 292.541221 
L 242.902776 292.326978 
L 243.792208 292.105218 
L 244.711789 291.875941 
L 245.661521 291.639146 
L 246.641403 291.394834 
L 247.651435 291.143005 
L 248.691618 290.883658 
L 249.76195 290.616794 
L 250.862433 290.342413 
L 251.993066 290.060514 
L 253.15385 289.771099 
L 254.344783 289.474166 
L 255.565867 289.169715 
L 256.817101 288.857748 
L 258.098485 288.538263 
L 259.410019 288.21126 
L 260.751704 287.876741 
L 262.123539 287.534704 
L 263.525524 287.18515 
L 264.957659 286.828079 
L 266.419944 286.46349 
L 267.91238 286.091384 
" style="fill:none;stroke:#0000ff;stroke-linecap:square;stroke-width:1.5;"/>
   </g>
   <g id="line2d_4">
    <path clip-path="url(#p656b9baa1d)" d="M 204.40762 286.091384 
L 204.433022 286.091384 
L 204.509228 286.091384 
L 204.636237 286.091384 
L 204.814051 286.091384 
L 205.042668 286.091384 
L 205.322089 286.091384 
L 205.652313 286.091384 
L 206.033342 286.091384 
L 206.465174 286.091384 
L 206.947811 286.091384 
L 207.481251 286.091384 
L 208.065494 286.091384 
L 208.700542 286.091384 
L 209.386393 286.091384 
L 210.123049 286.091384 
L 210.910508 286.091384 
L 211.74877 286.091384 
L 212.637837 286.091384 
L 213.577707 286.091384 
L 214.568382 286.091384 
L 215.60986 286.091384 
L 216.702142 286.091384 
L 217.845227 286.091384 
L 219.039117 286.091384 
L 220.28381 286.091384 
L 221.579307 286.091384 
L 222.925608 286.091384 
L 224.322713 286.091384 
L 225.770621 286.091384 
L 227.269334 286.091384 
L 228.81885 286.091384 
L 230.41917 286.091384 
L 232.070293 286.091384 
L 233.772221 286.091384 
L 235.524952 286.091384 
L 237.328488 286.091384 
L 239.182827 286.091384 
L 241.087969 286.091384 
L 243.043916 286.091384 
L 245.050666 286.091384 
L 247.108221 286.091384 
L 249.216579 286.091384 
L 251.37574 286.091384 
L 253.585706 286.091384 
L 255.846476 286.091384 
L 258.158049 286.091384 
L 260.520426 286.091384 
L 262.933607 286.091384 
L 265.397591 286.091384 
L 267.91238 286.091384 
" style="fill:none;stroke:#ff0000;stroke-linecap:square;stroke-width:1.5;"/>
   </g>
   <g id="line2d_5">
    <path clip-path="url(#p656b9baa1d)" d="M 229.274427 286.091384 
L 229.262447 286.087023 
L 229.226507 286.073942 
L 229.166607 286.052141 
L 229.082747 286.021618 
L 228.974927 285.982375 
L 228.843147 285.934411 
L 228.687407 285.877726 
L 228.507707 285.812321 
L 228.304047 285.738195 
L 228.076427 285.655348 
L 227.824848 285.56378 
L 227.549308 285.463492 
L 227.249808 285.354483 
L 226.926348 285.236753 
L 226.578928 285.110303 
L 226.207549 284.975132 
L 225.812209 284.83124 
L 225.392909 284.678627 
L 224.949649 284.517294 
L 224.48243 284.34724 
L 223.99125 284.168465 
L 223.47611 283.980969 
L 222.937011 283.784753 
L 222.373951 283.579816 
L 221.786932 283.366159 
L 221.175952 283.14378 
L 220.541012 282.912681 
L 219.882113 282.672861 
L 219.199253 282.424321 
L 218.492434 282.167059 
L 217.761654 281.901077 
L 217.006915 281.626375 
L 216.228215 281.342951 
L 215.425556 281.050807 
L 214.598936 280.749942 
L 213.748357 280.440357 
L 212.873817 280.12205 
L 211.975318 279.795023 
L 211.052859 279.459275 
L 210.106439 279.114807 
L 209.13606 278.761618 
L 208.141721 278.399708 
L 207.123421 278.029077 
L 206.081162 277.649726 
L 205.014943 277.261654 
L 203.924763 276.864861 
L 202.810624 276.459347 
L 201.672525 276.045113 
L 200.510466 275.622158 
L 199.324446 275.190483 
" style="fill:none;stroke:#0000ff;stroke-linecap:square;stroke-width:1.5;"/>
   </g>
   <g id="line2d_6">
    <path clip-path="url(#p656b9baa1d)" d="M 229.274427 286.091384 
L 229.291915 286.087023 
L 229.34438 286.073942 
L 229.431823 286.052141 
L 229.554242 286.021618 
L 229.711638 285.982375 
L 229.904011 285.934411 
L 230.131361 285.877726 
L 230.393687 285.812321 
L 230.690991 285.738195 
L 231.023272 285.655348 
L 231.390529 285.56378 
L 231.792763 285.463492 
L 232.229975 285.354483 
L 232.702163 285.236753 
L 233.209328 285.110303 
L 233.75147 284.975132 
L 234.328589 284.83124 
L 234.940685 284.678627 
L 235.587757 284.517294 
L 236.269807 284.34724 
L 236.986833 284.168465 
L 237.738837 283.980969 
L 238.525817 283.784753 
L 239.347774 283.579816 
L 240.204708 283.366159 
L 241.096619 283.14378 
L 242.023507 282.912681 
L 242.985372 282.672861 
L 243.982214 282.424321 
L 245.014032 282.167059 
L 246.080828 281.901077 
L 247.1826 281.626375 
L 248.319349 281.342951 
L 249.491076 281.050807 
L 250.697779 280.749942 
L 251.939459 280.440357 
L 253.216116 280.12205 
L 254.52775 279.795023 
L 255.87436 279.459275 
L 257.255948 279.114807 
L 258.672512 278.761618 
L 260.124054 278.399708 
L 261.610572 278.029077 
L 263.132067 277.649726 
L 264.688539 277.261654 
L 266.279989 276.864861 
L 267.906414 276.459347 
L 269.567817 276.045113 
L 271.264197 275.622158 
L 272.995554 275.190483 
" style="fill:none;stroke:#0000ff;stroke-linecap:square;stroke-width:1.5;"/>
   </g>
   <g id="line2d_7">
    <path clip-path="url(#p656b9baa1d)" d="M 199.324446 275.190483 
L 199.353915 275.190483 
L 199.44232 275.190483 
L 199.589662 275.190483 
L 199.795941 275.190483 
L 200.061157 275.190483 
L 200.38531 275.190483 
L 200.7684 275.190483 
L 201.210427 275.190483 
L 201.71139 275.190483 
L 202.271291 275.190483 
L 202.890128 275.190483 
L 203.567902 275.190483 
L 204.304613 275.190483 
L 205.100261 275.190483 
L 205.954846 275.190483 
L 206.868368 275.190483 
L 207.840826 275.190483 
L 208.872222 275.190483 
L 209.962554 275.190483 
L 211.111824 275.190483 
L 212.32003 275.190483 
L 213.587173 275.190483 
L 214.913253 275.190483 
L 216.298269 275.190483 
L 217.742223 275.190483 
L 219.245114 275.190483 
L 220.806941 275.190483 
L 222.427706 275.190483 
L 224.107407 275.190483 
L 225.846045 275.190483 
L 227.64362 275.190483 
L 229.500132 275.190483 
L 231.415581 275.190483 
L 233.389966 275.190483 
L 235.423289 275.190483 
L 237.515548 275.190483 
L 239.666745 275.190483 
L 241.876878 275.190483 
L 244.145948 275.190483 
L 246.473955 275.190483 
L 248.860899 275.190483 
L 251.30678 275.190483 
L 253.811597 275.190483 
L 256.375352 275.190483 
L 258.998043 275.190483 
L 261.679672 275.190483 
L 264.420237 275.190483 
L 267.219739 275.190483 
L 270.078178 275.190483 
L 272.995554 275.190483 
" style="fill:none;stroke:#ff0000;stroke-linecap:square;stroke-width:1.5;"/>
   </g>
   <g id="line2d_8">
    <path clip-path="url(#p656b9baa1d)" d="M 228.172129 275.190483 
L 228.158231 275.185424 
L 228.116538 275.170249 
L 228.047049 275.144957 
L 227.949764 275.109548 
L 227.824683 275.064022 
L 227.671807 275.00838 
L 227.491135 274.942621 
L 227.282667 274.866745 
L 227.046404 274.780752 
L 226.782345 274.684642 
L 226.49049 274.578416 
L 226.17084 274.462073 
L 225.823393 274.335613 
L 225.448152 274.199036 
L 225.045114 274.052342 
L 224.614281 273.895532 
L 224.155652 273.728604 
L 223.669227 273.55156 
L 223.155007 273.3644 
L 222.612991 273.167122 
L 222.04318 272.959727 
L 221.445572 272.742216 
L 220.820169 272.514588 
L 220.166971 272.276843 
L 219.485976 272.028981 
L 218.777186 271.771003 
L 218.0406 271.502908 
L 217.276219 271.224696 
L 216.484042 270.936367 
L 215.664069 270.637921 
L 214.8163 270.329358 
L 213.940736 270.010679 
L 213.037376 269.681883 
L 212.106221 269.34297 
L 211.14727 268.99394 
L 210.160523 268.634794 
L 209.14598 268.265531 
L 208.103642 267.88615 
L 207.033508 267.496653 
L 205.935578 267.09704 
L 204.809852 266.687309 
L 203.656331 266.267462 
L 202.475015 265.837498 
L 201.265902 265.397417 
L 200.028994 264.947219 
L 198.76429 264.486904 
L 197.47179 264.016473 
L 196.151495 263.535925 
L 194.803404 263.04526 
L 193.427518 262.544478 
" style="fill:none;stroke:#0000ff;stroke-linecap:square;stroke-width:1.5;"/>
   </g>
   <g id="line2d_9">
    <path clip-path="url(#p656b9baa1d)" d="M 228.172129 275.190483 
L 228.192417 275.185424 
L 228.253282 275.170249 
L 228.354722 275.144957 
L 228.496739 275.109548 
L 228.679333 275.064022 
L 228.902502 275.00838 
L 229.166248 274.942621 
L 229.47057 274.866745 
L 229.815469 274.780752 
L 230.200943 274.684642 
L 230.626994 274.578416 
L 231.093621 274.462073 
L 231.600825 274.335613 
L 232.148605 274.199036 
L 232.736961 274.052342 
L 233.365893 273.895532 
L 234.035402 273.728604 
L 234.745487 273.55156 
L 235.496148 273.3644 
L 236.287386 273.167122 
L 237.119199 272.959727 
L 237.99159 272.742216 
L 238.904556 272.514588 
L 239.858098 272.276843 
L 240.852217 272.028981 
L 241.886913 271.771003 
L 242.962184 271.502908 
L 244.078032 271.224696 
L 245.234456 270.936367 
L 246.431456 270.637921 
L 247.669033 270.329358 
L 248.947186 270.010679 
L 250.265915 269.681883 
L 251.62522 269.34297 
L 253.025102 268.99394 
L 254.46556 268.634794 
L 255.946595 268.265531 
L 257.468205 267.88615 
L 259.030392 267.496653 
L 260.633155 267.09704 
L 262.276495 266.687309 
L 263.96041 266.267462 
L 265.684902 265.837498 
L 267.449971 265.397417 
L 269.255615 264.947219 
L 271.101836 264.486904 
L 272.988633 264.016473 
L 274.916007 263.535925 
L 276.883956 263.04526 
L 278.892482 262.544478 
" style="fill:none;stroke:#0000ff;stroke-linecap:square;stroke-width:1.5;"/>
   </g>
   <g id="line2d_10">
    <path clip-path="url(#p656b9baa1d)" d="M 193.427518 262.544478 
L 193.461704 262.544478 
L 193.564262 262.544478 
L 193.735192 262.544478 
L 193.974493 262.544478 
L 194.282167 262.544478 
L 194.658213 262.544478 
L 195.102631 262.544478 
L 195.615421 262.544478 
L 196.196583 262.544478 
L 196.846116 262.544478 
L 197.564022 262.544478 
L 198.3503 262.544478 
L 199.204949 262.544478 
L 200.127971 262.544478 
L 201.119365 262.544478 
L 202.17913 262.544478 
L 203.307268 262.544478 
L 204.503777 262.544478 
L 205.768659 262.544478 
L 207.101912 262.544478 
L 208.503537 262.544478 
L 209.973535 262.544478 
L 211.511904 262.544478 
L 213.118646 262.544478 
L 214.793759 262.544478 
L 216.537244 262.544478 
L 218.349101 262.544478 
L 220.229331 262.544478 
L 222.177932 262.544478 
L 224.194905 262.544478 
L 226.28025 262.544478 
L 228.433967 262.544478 
L 230.656056 262.544478 
L 232.946517 262.544478 
L 235.30535 262.544478 
L 237.732555 262.544478 
L 240.228132 262.544478 
L 242.792081 262.544478 
L 245.424402 262.544478 
L 248.125095 262.544478 
L 250.89416 262.544478 
L 253.731597 262.544478 
L 256.637406 262.544478 
L 259.611586 262.544478 
L 262.654139 262.544478 
L 265.765064 262.544478 
L 268.94436 262.544478 
L 272.192029 262.544478 
L 275.50807 262.544478 
L 278.892482 262.544478 
" style="fill:none;stroke:#ff0000;stroke-linecap:square;stroke-width:1.5;"/>
   </g>
   <g id="line2d_11">
    <path clip-path="url(#p656b9baa1d)" d="M 226.893367 262.544478 
L 226.877244 262.53861 
L 226.828876 262.521005 
L 226.748263 262.491664 
L 226.635404 262.450587 
L 226.490299 262.397773 
L 226.312949 262.333223 
L 226.103354 262.256937 
L 225.861513 262.168914 
L 225.587427 262.069155 
L 225.281095 261.957659 
L 224.942518 261.834427 
L 224.571695 261.699459 
L 224.168627 261.552754 
L 223.733314 261.394313 
L 223.265755 261.224135 
L 222.76595 261.042221 
L 222.2339 260.848571 
L 221.669605 260.643184 
L 221.073064 260.426061 
L 220.444278 260.197202 
L 219.783247 259.956606 
L 219.08997 259.704274 
L 218.364447 259.440205 
L 217.606679 259.1644 
L 216.816666 258.876859 
L 215.994407 258.577581 
L 215.139903 258.266567 
L 214.253153 257.943816 
L 213.334158 257.60933 
L 212.382917 257.263106 
L 211.399431 256.905147 
L 210.3837 256.535451 
L 209.335723 256.154018 
L 208.2555 255.760849 
L 207.143033 255.355944 
L 205.998319 254.939303 
L 204.821361 254.510925 
L 203.612156 254.07081 
L 202.370707 253.61896 
L 201.097012 253.155373 
L 199.791071 252.680049 
L 198.452885 252.192989 
L 197.082454 251.694193 
L 195.679777 251.18366 
L 194.244855 250.661391 
L 192.777687 250.127386 
L 191.278274 249.581644 
L 189.746615 249.024166 
L 188.182711 248.454952 
L 186.586562 247.874001 
" style="fill:none;stroke:#0000ff;stroke-linecap:square;stroke-width:1.5;"/>
   </g>
   <g id="line2d_12">
    <path clip-path="url(#p656b9baa1d)" d="M 226.893367 262.544478 
L 226.916903 262.53861 
L 226.987511 262.521005 
L 227.105191 262.491664 
L 227.269944 262.450587 
L 227.481768 262.397773 
L 227.740664 262.333223 
L 228.046633 262.256937 
L 228.399673 262.168914 
L 228.799785 262.069155 
L 229.24697 261.957659 
L 229.741227 261.834427 
L 230.282555 261.699459 
L 230.870956 261.552754 
L 231.506429 261.394313 
L 232.188974 261.224135 
L 232.91859 261.042221 
L 233.695279 260.848571 
L 234.51904 260.643184 
L 235.389873 260.426061 
L 236.307779 260.197202 
L 237.272756 259.956606 
L 238.284805 259.704274 
L 239.343926 259.440205 
L 240.45012 259.1644 
L 241.603385 258.876859 
L 242.803722 258.577581 
L 244.051132 258.266567 
L 245.345613 257.943816 
L 246.687167 257.60933 
L 248.075793 257.263106 
L 249.51149 256.905147 
L 250.99426 256.535451 
L 252.524102 256.154018 
L 254.101016 255.760849 
L 255.725002 255.355944 
L 257.39606 254.939303 
L 259.11419 254.510925 
L 260.879392 254.07081 
L 262.691666 253.61896 
L 264.551013 253.155373 
L 266.457431 252.680049 
L 268.410921 252.192989 
L 270.411484 251.694193 
L 272.459118 251.18366 
L 274.553825 250.661391 
L 276.695603 250.127386 
L 278.884454 249.581644 
L 281.120377 249.024166 
L 283.403371 248.454952 
L 285.733438 247.874001 
" style="fill:none;stroke:#0000ff;stroke-linecap:square;stroke-width:1.5;"/>
   </g>
   <g id="line2d_13">
    <path clip-path="url(#p656b9baa1d)" d="M 186.586562 247.874001 
L 186.62622 247.874001 
L 186.745197 247.874001 
L 186.94349 247.874001 
L 187.221102 247.874001 
L 187.578031 247.874001 
L 188.014277 247.874001 
L 188.529841 247.874001 
L 189.124722 247.874001 
L 189.798921 247.874001 
L 190.552437 247.874001 
L 191.385271 247.874001 
L 192.297422 247.874001 
L 193.288891 247.874001 
L 194.359677 247.874001 
L 195.509781 247.874001 
L 196.739202 247.874001 
L 198.047941 247.874001 
L 199.435997 247.874001 
L 200.903371 247.874001 
L 202.450062 247.874001 
L 204.076071 247.874001 
L 205.781397 247.874001 
L 207.566041 247.874001 
L 209.430002 247.874001 
L 211.373281 247.874001 
L 213.395877 247.874001 
L 215.497791 247.874001 
L 217.679022 247.874001 
L 219.939571 247.874001 
L 222.279437 247.874001 
L 224.698621 247.874001 
L 227.197122 247.874001 
L 229.774941 247.874001 
L 232.432077 247.874001 
L 235.168531 247.874001 
L 237.984303 247.874001 
L 240.879391 247.874001 
L 243.853798 247.874001 
L 246.907521 247.874001 
L 250.040563 247.874001 
L 253.252922 247.874001 
L 256.544598 247.874001 
L 259.915592 247.874001 
L 263.365903 247.874001 
L 266.895532 247.874001 
L 270.504478 247.874001 
L 274.192742 247.874001 
L 277.960323 247.874001 
L 281.807222 247.874001 
L 285.733438 247.874001 
" style="fill:none;stroke:#ff0000;stroke-linecap:square;stroke-width:1.5;"/>
   </g>
   <g id="line2d_14">
    <path clip-path="url(#p656b9baa1d)" d="M 225.409891 247.874001 
L 225.391187 247.867193 
L 225.335076 247.84677 
L 225.241557 247.812732 
L 225.11063 247.765079 
L 224.942296 247.70381 
L 224.736555 247.628927 
L 224.493406 247.540427 
L 224.212849 247.438313 
L 223.894885 247.322584 
L 223.539513 247.193239 
L 223.146734 247.050279 
L 222.716547 246.893704 
L 222.248953 246.723513 
L 221.743951 246.539708 
L 221.201541 246.342287 
L 220.621724 246.131251 
L 220.0045 245.906599 
L 219.349867 245.668333 
L 218.657828 245.416451 
L 217.92838 245.150954 
L 217.161526 244.871841 
L 216.357263 244.579114 
L 215.515593 244.272771 
L 214.636516 243.952813 
L 213.720031 243.61924 
L 212.766138 243.272051 
L 211.774838 242.911247 
L 210.746131 242.536828 
L 209.680015 242.148794 
L 208.576493 241.747145 
L 207.435562 241.33188 
L 206.257224 240.903 
L 205.041479 240.460505 
L 203.788326 240.004395 
L 202.497765 239.534669 
L 201.169797 239.051328 
L 199.804422 238.554372 
L 198.401638 238.043801 
L 196.961448 237.519614 
L 195.483849 236.981812 
L 193.968844 236.430395 
L 192.41643 235.865363 
L 190.826609 235.286716 
L 189.199381 234.694453 
L 187.534745 234.088575 
L 185.832701 233.469082 
L 184.09325 232.835973 
L 182.316391 232.18925 
L 180.502125 231.528911 
L 178.650451 230.854957 
" style="fill:none;stroke:#0000ff;stroke-linecap:square;stroke-width:1.5;"/>
   </g>
   <g id="line2d_15">
    <path clip-path="url(#p656b9baa1d)" d="M 225.409891 247.874001 
L 225.437195 247.867193 
L 225.519106 247.84677 
L 225.655626 247.812732 
L 225.846753 247.765079 
L 226.092487 247.70381 
L 226.39283 247.628927 
L 226.74778 247.540427 
L 227.157338 247.438313 
L 227.621504 247.322584 
L 228.140277 247.193239 
L 228.713658 247.050279 
L 229.341647 246.893704 
L 230.024244 246.723513 
L 230.761448 246.539708 
L 231.55326 246.342287 
L 232.39968 246.131251 
L 233.300707 245.906599 
L 234.256342 245.668333 
L 235.266585 245.416451 
L 236.331436 245.150954 
L 237.450894 244.871841 
L 238.624961 244.579114 
L 239.853634 244.272771 
L 241.136916 243.952813 
L 242.474805 243.61924 
L 243.867302 243.272051 
L 245.314407 242.911247 
L 246.81612 242.536828 
L 248.37244 242.148794 
L 249.983368 241.747145 
L 251.648903 241.33188 
L 253.369047 240.903 
L 255.143798 240.460505 
L 256.973157 240.004395 
L 258.857123 239.534669 
L 260.795698 239.051328 
L 262.78888 238.554372 
L 264.836669 238.043801 
L 266.939067 237.519614 
L 269.096072 236.981812 
L 271.307685 236.430395 
L 273.573906 235.865363 
L 275.894734 235.286716 
L 278.27017 234.694453 
L 280.700214 234.088575 
L 283.184865 233.469082 
L 285.724125 232.835973 
L 288.317992 232.18925 
L 290.966466 231.528911 
L 293.669549 230.854957 
" style="fill:none;stroke:#0000ff;stroke-linecap:square;stroke-width:1.5;"/>
   </g>
   <g id="line2d_16">
    <path clip-path="url(#p656b9baa1d)" d="M 178.650451 230.854957 
L 178.696459 230.854957 
L 178.834482 230.854957 
L 179.06452 230.854957 
L 179.386573 230.854957 
L 179.800642 230.854957 
L 180.306726 230.854957 
L 180.904825 230.854957 
L 181.59494 230.854957 
L 182.37707 230.854957 
L 183.251215 230.854957 
L 184.217375 230.854957 
L 185.275551 230.854957 
L 186.425742 230.854957 
L 187.667948 230.854957 
L 189.00217 230.854957 
L 190.428407 230.854957 
L 191.946659 230.854957 
L 193.556926 230.854957 
L 195.259209 230.854957 
L 197.053507 230.854957 
L 198.93982 230.854957 
L 200.918148 230.854957 
L 202.988492 230.854957 
L 205.150851 230.854957 
L 207.405226 230.854957 
L 209.751615 230.854957 
L 212.19002 230.854957 
L 214.72044 230.854957 
L 217.342876 230.854957 
L 220.057326 230.854957 
L 222.863792 230.854957 
L 225.762274 230.854957 
L 228.75277 230.854957 
L 231.835282 230.854957 
L 235.009809 230.854957 
L 238.276351 230.854957 
L 241.634909 230.854957 
L 245.085482 230.854957 
L 248.62807 230.854957 
L 252.262674 230.854957 
L 255.989292 230.854957 
L 259.807927 230.854957 
L 263.718576 230.854957 
L 267.72124 230.854957 
L 271.81592 230.854957 
L 276.002615 230.854957 
L 280.281326 230.854957 
L 284.652052 230.854957 
L 289.114793 230.854957 
L 293.669549 230.854957 
" style="fill:none;stroke:#ff0000;stroke-linecap:square;stroke-width:1.5;"/>
   </g>
   <g id="line2d_17">
    <path clip-path="url(#p656b9baa1d)" d="M 223.688928 230.854957 
L 223.66723 230.847059 
L 223.602136 230.823367 
L 223.493646 230.78388 
L 223.341759 230.728598 
L 223.146477 230.657521 
L 222.907799 230.570649 
L 222.625725 230.467982 
L 222.300254 230.349521 
L 221.931388 230.215264 
L 221.519125 230.065213 
L 221.063467 229.899367 
L 220.564412 229.717726 
L 220.021961 229.52029 
L 219.436115 229.307059 
L 218.806872 229.078034 
L 218.134233 228.833213 
L 217.418198 228.572598 
L 216.658768 228.296187 
L 215.855941 228.003982 
L 215.009718 227.695982 
L 214.120099 227.372188 
L 213.187084 227.032598 
L 212.210672 226.677213 
L 211.190865 226.306034 
L 210.127662 225.919059 
L 209.021063 225.51629 
L 207.871067 225.097726 
L 206.677676 224.663367 
L 205.440889 224.213213 
L 204.160705 223.747265 
L 202.837125 223.265521 
L 201.47015 222.767983 
L 200.059778 222.254649 
L 198.606011 221.725521 
L 197.108847 221.180598 
L 195.568287 220.61988 
L 193.984331 220.043368 
L 192.356979 219.45106 
L 190.686231 218.842957 
L 188.972087 218.21906 
L 187.214547 217.579368 
L 185.413611 216.923881 
L 183.569279 216.252599 
L 181.681551 215.565522 
L 179.750427 214.86265 
L 177.775906 214.143983 
L 175.75799 213.409522 
L 173.696678 212.659266 
L 171.591969 211.893214 
L 169.443865 211.111368 
" style="fill:none;stroke:#0000ff;stroke-linecap:square;stroke-width:1.5;"/>
   </g>
   <g id="line2d_18">
    <path clip-path="url(#p656b9baa1d)" d="M 223.688928 230.854957 
L 223.720603 230.847059 
L 223.815627 230.823367 
L 223.974002 230.78388 
L 224.195726 230.728598 
L 224.4808 230.657521 
L 224.829224 230.570649 
L 225.240997 230.467982 
L 225.71612 230.349521 
L 226.254593 230.215264 
L 226.856416 230.065213 
L 227.521589 229.899367 
L 228.250111 229.717726 
L 229.041983 229.52029 
L 229.897205 229.307059 
L 230.815776 229.078034 
L 231.797698 228.833213 
L 232.842969 228.572598 
L 233.95159 228.296187 
L 235.123561 228.003982 
L 236.358881 227.695982 
L 237.657551 227.372188 
L 239.019571 227.032598 
L 240.444941 226.677213 
L 241.93366 226.306034 
L 243.48573 225.919059 
L 245.101149 225.51629 
L 246.779917 225.097726 
L 248.522036 224.663367 
L 250.327504 224.213213 
L 252.196322 223.747265 
L 254.12849 223.265521 
L 256.124008 222.767983 
L 258.182875 222.254649 
L 260.305093 221.725521 
L 262.490659 221.180598 
L 264.739576 220.61988 
L 267.051843 220.043368 
L 269.427459 219.45106 
L 271.866425 218.842957 
L 274.368741 218.21906 
L 276.934406 217.579368 
L 279.563421 216.923881 
L 282.255786 216.252599 
L 285.011501 215.565522 
L 287.830566 214.86265 
L 290.71298 214.143983 
L 293.658744 213.409522 
L 296.667858 212.659266 
L 299.740322 211.893214 
L 302.876135 211.111368 
" style="fill:none;stroke:#0000ff;stroke-linecap:square;stroke-width:1.5;"/>
   </g>
   <g id="line2d_19">
    <path clip-path="url(#p656b9baa1d)" d="M 169.443865 211.111368 
L 169.497238 211.111368 
L 169.657356 211.111368 
L 169.924221 211.111368 
L 170.297831 211.111368 
L 170.778187 211.111368 
L 171.365289 211.111368 
L 172.059137 211.111368 
L 172.859731 211.111368 
L 173.76707 211.111368 
L 174.781155 211.111368 
L 175.901987 211.111368 
L 177.129563 211.111368 
L 178.463886 211.111368 
L 179.904955 211.111368 
L 181.452769 211.111368 
L 183.107329 211.111368 
L 184.868635 211.111368 
L 186.736687 211.111368 
L 188.711485 211.111368 
L 190.793028 211.111368 
L 192.981317 211.111368 
L 195.276352 211.111368 
L 197.678133 211.111368 
L 200.18666 211.111368 
L 202.801932 211.111368 
L 205.523951 211.111368 
L 208.352715 211.111368 
L 211.288225 211.111368 
L 214.330481 211.111368 
L 217.479482 211.111368 
L 220.73523 211.111368 
L 224.097723 211.111368 
L 227.566962 211.111368 
L 231.142947 211.111368 
L 234.825677 211.111368 
L 238.615154 211.111368 
L 242.511376 211.111368 
L 246.514344 211.111368 
L 250.624058 211.111368 
L 254.840518 211.111368 
L 259.163723 211.111368 
L 263.593675 211.111368 
L 268.130372 211.111368 
L 272.773815 211.111368 
L 277.524004 211.111368 
L 282.380939 211.111368 
L 287.344619 211.111368 
L 292.415045 211.111368 
L 297.592217 211.111368 
L 302.876135 211.111368 
" style="fill:none;stroke:#ff0000;stroke-linecap:square;stroke-width:1.5;"/>
   </g>
   <g id="line2d_20">
    <path clip-path="url(#p656b9baa1d)" d="M 221.692459 211.111368 
L 221.667288 211.102206 
L 221.591773 211.074721 
L 221.465915 211.028913 
L 221.289713 210.964781 
L 221.063169 210.882325 
L 220.786281 210.781546 
L 220.45905 210.662444 
L 220.081476 210.525018 
L 219.653558 210.369269 
L 219.175297 210.195196 
L 218.646693 210.0028 
L 218.067746 209.792081 
L 217.438456 209.563038 
L 216.758822 209.315671 
L 216.028845 209.049981 
L 215.248525 208.765968 
L 214.417862 208.463631 
L 213.536855 208.142971 
L 212.605505 207.803987 
L 211.623812 207.44668 
L 210.591776 207.07105 
L 209.509396 206.677096 
L 208.376673 206.264819 
L 207.193607 205.834218 
L 205.960198 205.385293 
L 204.676446 204.918046 
L 203.34235 204.432475 
L 201.957911 203.92858 
L 200.523129 203.406362 
L 199.038003 202.865821 
L 197.502534 202.306956 
L 195.916723 201.729767 
L 194.280567 201.134255 
L 192.594069 200.52042 
L 190.857227 199.888262 
L 189.070042 199.23778 
L 187.232514 198.568974 
L 185.344643 197.881845 
L 183.406428 197.176393 
L 181.417871 196.452617 
L 179.37897 195.710517 
L 177.289725 194.950095 
L 175.150138 194.171349 
L 172.960207 193.374279 
L 170.719933 192.558886 
L 168.429316 191.725169 
L 166.088355 190.873129 
L 163.697052 190.002766 
L 161.255405 189.114079 
L 158.763415 188.207069 
" style="fill:none;stroke:#0000ff;stroke-linecap:square;stroke-width:1.5;"/>
   </g>
   <g id="line2d_21">
    <path clip-path="url(#p656b9baa1d)" d="M 221.692459 211.111368 
L 221.729205 211.102206 
L 221.839442 211.074721 
L 222.02317 211.028913 
L 222.28039 210.964781 
L 222.6111 210.882325 
L 223.015303 210.781546 
L 223.492996 210.662444 
L 224.044181 210.525018 
L 224.668857 210.369269 
L 225.367024 210.195196 
L 226.138683 210.0028 
L 226.983833 209.792081 
L 227.902474 209.563038 
L 228.894607 209.315671 
L 229.960231 209.049981 
L 231.099346 208.765968 
L 232.311952 208.463631 
L 233.59805 208.142971 
L 234.957639 207.803987 
L 236.390719 207.44668 
L 237.897291 207.07105 
L 239.477354 206.677096 
L 241.130908 206.264819 
L 242.857954 205.834218 
L 244.658491 205.385293 
L 246.532519 204.918046 
L 248.480038 204.432475 
L 250.501049 203.92858 
L 252.595551 203.406362 
L 254.763545 202.865821 
L 257.005029 202.306956 
L 259.320005 201.729767 
L 261.708473 201.134255 
L 264.170431 200.52042 
L 266.705881 199.888262 
L 269.314822 199.23778 
L 271.997255 198.568974 
L 274.753179 197.881845 
L 277.582594 197.176393 
L 280.4855 196.452617 
L 283.461898 195.710517 
L 286.511787 194.950095 
L 289.635167 194.171349 
L 292.832039 193.374279 
L 296.102401 192.558886 
L 299.446256 191.725169 
L 302.863601 190.873129 
L 306.354438 190.002766 
L 309.918766 189.114079 
L 313.556585 188.207069 
" style="fill:none;stroke:#0000ff;stroke-linecap:square;stroke-width:1.5;"/>
   </g>
   <g id="line2d_22">
    <path clip-path="url(#p656b9baa1d)" d="M 158.763415 188.207069 
L 158.825332 188.207069 
L 159.011084 188.207069 
L 159.32067 188.207069 
L 159.754091 188.207069 
L 160.311346 188.207069 
L 160.992436 188.207069 
L 161.797361 188.207069 
L 162.72612 188.207069 
L 163.778713 188.207069 
L 164.955141 188.207069 
L 166.255404 188.207069 
L 167.679501 188.207069 
L 169.227433 188.207069 
L 170.899199 188.207069 
L 172.6948 188.207069 
L 174.614235 188.207069 
L 176.657505 188.207069 
L 178.824609 188.207069 
L 181.115548 188.207069 
L 183.530322 188.207069 
L 186.06893 188.207069 
L 188.731372 188.207069 
L 191.51765 188.207069 
L 194.427761 188.207069 
L 197.461707 188.207069 
L 200.619488 188.207069 
L 203.901103 188.207069 
L 207.306553 188.207069 
L 210.835837 188.207069 
L 214.488956 188.207069 
L 218.265909 188.207069 
L 222.166697 188.207069 
L 226.19132 188.207069 
L 230.339777 188.207069 
L 234.612068 188.207069 
L 239.008194 188.207069 
L 243.528155 188.207069 
L 248.17195 188.207069 
L 252.93958 188.207069 
L 257.831044 188.207069 
L 262.846343 188.207069 
L 267.985476 188.207069 
L 273.248444 188.207069 
L 278.635246 188.207069 
L 284.145883 188.207069 
L 289.780354 188.207069 
L 295.53866 188.207069 
L 301.420801 188.207069 
L 307.426776 188.207069 
L 313.556585 188.207069 
" style="fill:none;stroke:#ff0000;stroke-linecap:square;stroke-width:1.5;"/>
   </g>
   <g id="line2d_23">
    <path clip-path="url(#p656b9baa1d)" d="M 219.37638 188.207069 
L 219.347179 188.196441 
L 219.259575 188.164555 
L 219.113568 188.111413 
L 218.909159 188.037015 
L 218.646348 187.941359 
L 218.325134 187.824447 
L 217.945517 187.686277 
L 217.507497 187.526851 
L 217.011076 187.346169 
L 216.456251 187.144229 
L 215.843024 186.921033 
L 215.171394 186.676579 
L 214.441362 186.410869 
L 213.652927 186.123903 
L 212.80609 185.815679 
L 211.90085 185.486198 
L 210.937207 185.135461 
L 209.915162 184.763467 
L 208.834714 184.370216 
L 207.695864 183.955709 
L 206.498611 183.519944 
L 205.242955 183.062923 
L 203.928897 182.584645 
L 202.556437 182.08511 
L 201.125573 181.564319 
L 199.636307 181.02227 
L 198.088639 180.458965 
L 196.482568 179.874403 
L 194.818095 179.268584 
L 193.095218 178.641508 
L 191.31394 177.993176 
L 189.474258 177.323587 
L 187.576174 176.632741 
L 185.619688 175.920638 
L 183.604799 175.187278 
L 181.531507 174.432662 
L 179.399813 173.656789 
L 177.209716 172.859659 
L 174.961217 172.041272 
L 172.654315 171.201628 
L 170.28901 170.340728 
L 167.865303 169.45857 
L 165.383193 168.555156 
L 162.842681 167.630485 
L 160.243766 166.684558 
L 157.586449 165.717373 
L 154.870729 164.728932 
L 152.096606 163.719234 
L 149.264081 162.688279 
L 146.373153 161.636067 
" style="fill:none;stroke:#0000ff;stroke-linecap:square;stroke-width:1.5;"/>
   </g>
   <g id="line2d_24">
    <path clip-path="url(#p656b9baa1d)" d="M 219.37638 188.207069 
L 219.419008 188.196441 
L 219.546893 188.164555 
L 219.760034 188.111413 
L 220.058431 188.037015 
L 220.442085 187.941359 
L 220.910995 187.824447 
L 221.465161 187.686277 
L 222.104584 187.526851 
L 222.829263 187.346169 
L 223.639199 187.144229 
L 224.534391 186.921033 
L 225.514839 186.676579 
L 226.580544 186.410869 
L 227.731505 186.123903 
L 228.967722 185.815679 
L 230.289196 185.486198 
L 231.695926 185.135461 
L 233.187913 184.763467 
L 234.765156 184.370216 
L 236.427655 183.955709 
L 238.17541 183.519944 
L 240.008422 183.062923 
L 241.926691 182.584645 
L 243.930216 182.08511 
L 246.018997 181.564319 
L 248.193034 181.02227 
L 250.452328 180.458965 
L 252.796879 179.874403 
L 255.226685 179.268584 
L 257.741748 178.641508 
L 260.342068 177.993176 
L 263.027643 177.323587 
L 265.798475 176.632741 
L 268.654564 175.920638 
L 271.595909 175.187278 
L 274.62251 174.432662 
L 277.734368 173.656789 
L 280.931482 172.859659 
L 284.213852 172.041272 
L 287.581479 171.201628 
L 291.034362 170.340728 
L 294.572502 169.45857 
L 298.195897 168.555156 
L 301.90455 167.630485 
L 305.698458 166.684558 
L 309.577623 165.717373 
L 313.542045 164.728932 
L 317.591722 163.719234 
L 321.726657 162.688279 
L 325.946847 161.636067 
" style="fill:none;stroke:#0000ff;stroke-linecap:square;stroke-width:1.5;"/>
   </g>
   <g id="line2d_25">
    <path clip-path="url(#p656b9baa1d)" d="M 146.373153 161.636067 
L 146.444982 161.636067 
L 146.660471 161.636067 
L 147.019618 161.636067 
L 147.522425 161.636067 
L 148.16889 161.636067 
L 148.959014 161.636067 
L 149.892797 161.636067 
L 150.97024 161.636067 
L 152.191341 161.636067 
L 153.556101 161.636067 
L 155.06452 161.636067 
L 156.716598 161.636067 
L 158.512335 161.636067 
L 160.451731 161.636067 
L 162.534785 161.636067 
L 164.761499 161.636067 
L 167.131872 161.636067 
L 169.645904 161.636067 
L 172.303594 161.636067 
L 175.104944 161.636067 
L 178.049953 161.636067 
L 181.13862 161.636067 
L 184.370947 161.636067 
L 187.746932 161.636067 
L 191.266576 161.636067 
L 194.92988 161.636067 
L 198.736842 161.636067 
L 202.687463 161.636067 
L 206.781744 161.636067 
L 211.019683 161.636067 
L 215.401281 161.636067 
L 219.926538 161.636067 
L 224.595454 161.636067 
L 229.408029 161.636067 
L 234.364263 161.636067 
L 239.464156 161.636067 
L 244.707708 161.636067 
L 250.094919 161.636067 
L 255.625788 161.636067 
L 261.300317 161.636067 
L 267.118505 161.636067 
L 273.080351 161.636067 
L 279.185857 161.636067 
L 285.435022 161.636067 
L 291.827845 161.636067 
L 298.364328 161.636067 
L 305.044469 161.636067 
L 311.868269 161.636067 
L 318.835729 161.636067 
L 325.946847 161.636067 
" style="fill:none;stroke:#ff0000;stroke-linecap:square;stroke-width:1.5;"/>
   </g>
   <g id="line2d_26">
    <path clip-path="url(#p656b9baa1d)" d="M 216.689525 161.636067 
L 216.655649 161.623738 
L 216.55402 161.586748 
L 216.38464 161.525098 
L 216.147508 161.438789 
L 215.842623 161.32782 
L 215.469986 161.192192 
L 215.029597 161.031903 
L 214.521456 160.846955 
L 213.945563 160.637347 
L 213.301918 160.403079 
L 212.590521 160.144152 
L 211.811371 159.860565 
L 210.964469 159.552318 
L 210.049816 159.219411 
L 209.06741 158.861844 
L 208.017252 158.479618 
L 206.899342 158.072732 
L 205.713679 157.641186 
L 204.460265 157.184981 
L 203.139098 156.704116 
L 201.75018 156.19859 
L 200.293509 155.668406 
L 198.769086 155.113561 
L 197.176911 154.534057 
L 195.516983 153.929893 
L 193.789304 153.301069 
L 191.993873 152.647585 
L 190.130689 151.969442 
L 188.199753 151.266639 
L 186.201065 150.539176 
L 184.134625 149.787053 
L 182.000433 149.010271 
L 179.798489 148.208828 
L 177.528792 147.382727 
L 175.191344 146.531965 
L 172.786143 145.656543 
L 170.31319 144.756462 
L 167.772485 143.831721 
L 165.164028 142.88232 
L 162.487819 141.90826 
L 159.743858 140.90954 
L 156.932144 139.88616 
L 154.052679 138.83812 
L 151.105461 137.76542 
L 148.090491 136.668061 
L 145.007769 135.546042 
L 141.857295 134.399363 
L 138.639069 133.228025 
L 135.35309 132.032026 
L 131.99936 130.811368 
" style="fill:none;stroke:#0000ff;stroke-linecap:square;stroke-width:1.5;"/>
   </g>
   <g id="line2d_27">
    <path clip-path="url(#p656b9baa1d)" d="M 216.689525 161.636067 
L 216.738977 161.623738 
L 216.887334 161.586748 
L 217.134597 161.525098 
L 217.480764 161.438789 
L 217.925836 161.32782 
L 218.469813 161.192192 
L 219.112694 161.031903 
L 219.854481 160.846955 
L 220.695173 160.637347 
L 221.634769 160.403079 
L 222.673271 160.144152 
L 223.810677 159.860565 
L 225.046988 159.552318 
L 226.382204 159.219411 
L 227.816325 158.861844 
L 229.349351 158.479618 
L 230.981282 158.072732 
L 232.712117 157.641186 
L 234.541858 157.184981 
L 236.470503 156.704116 
L 238.498053 156.19859 
L 240.624509 155.668406 
L 242.849869 155.113561 
L 245.174134 154.534057 
L 247.597304 153.929893 
L 250.119378 153.301069 
L 252.740358 152.647585 
L 255.460242 151.969442 
L 258.279032 151.266639 
L 261.196726 150.539176 
L 264.213325 149.787053 
L 267.32883 149.010271 
L 270.543239 148.208828 
L 273.856553 147.382727 
L 277.268771 146.531965 
L 280.779895 145.656543 
L 284.389924 144.756462 
L 288.098857 143.831721 
L 291.906695 142.88232 
L 295.813439 141.90826 
L 299.819087 140.90954 
L 303.92364 139.88616 
L 308.127098 138.83812 
L 312.429461 137.76542 
L 316.830728 136.668061 
L 321.330901 135.546042 
L 325.929978 134.399363 
L 330.627961 133.228025 
L 335.424848 132.032026 
L 340.32064 130.811368 
" style="fill:none;stroke:#0000ff;stroke-linecap:square;stroke-width:1.5;"/>
   </g>
   <g id="line2d_28">
    <path clip-path="url(#p656b9baa1d)" d="M 131.99936 130.811368 
L 132.082688 130.811368 
L 132.332674 130.811368 
L 132.749316 130.811368 
L 133.332616 130.811368 
L 134.082573 130.811368 
L 134.999186 130.811368 
L 136.082457 130.811368 
L 137.332384 130.811368 
L 138.748969 130.811368 
L 140.332211 130.811368 
L 142.08211 130.811368 
L 143.998665 130.811368 
L 146.081878 130.811368 
L 148.331748 130.811368 
L 150.748275 130.811368 
L 153.331459 130.811368 
L 156.0813 130.811368 
L 158.997798 130.811368 
L 162.080953 130.811368 
L 165.330765 130.811368 
L 168.747234 130.811368 
L 172.33036 130.811368 
L 176.080143 130.811368 
L 179.996583 130.811368 
L 184.07968 130.811368 
L 188.329434 130.811368 
L 192.745845 130.811368 
L 197.328913 130.811368 
L 202.078638 130.811368 
L 206.995021 130.811368 
L 212.07806 130.811368 
L 217.327756 130.811368 
L 222.74411 130.811368 
L 228.32712 130.811368 
L 234.076787 130.811368 
L 239.993112 130.811368 
L 246.076093 130.811368 
L 252.325731 130.811368 
L 258.742027 130.811368 
L 265.324979 130.811368 
L 272.074589 130.811368 
L 278.990855 130.811368 
L 286.073779 130.811368 
L 293.323359 130.811368 
L 300.739597 130.811368 
L 308.322492 130.811368 
L 316.072043 130.811368 
L 323.988252 130.811368 
L 332.071118 130.811368 
L 340.32064 130.811368 
" style="fill:none;stroke:#ff0000;stroke-linecap:square;stroke-width:1.5;"/>
   </g>
   <g id="line2d_29">
    <path clip-path="url(#p656b9baa1d)" d="M 213.572536 130.811368 
L 213.533237 130.797064 
L 213.415339 130.754153 
L 213.218843 130.682635 
L 212.943748 130.582508 
L 212.590055 130.453775 
L 212.157764 130.296433 
L 211.646874 130.110485 
L 211.057386 129.895929 
L 210.389299 129.652765 
L 209.642614 129.380994 
L 208.817331 129.080615 
L 207.913449 128.751629 
L 206.930968 128.394035 
L 205.86989 128.007834 
L 204.730212 127.593026 
L 203.511937 127.14961 
L 202.215062 126.677586 
L 200.83959 126.176955 
L 199.385519 125.647716 
L 197.852849 125.08987 
L 196.241582 124.503417 
L 194.551715 123.888356 
L 192.78325 123.244687 
L 190.936187 122.572411 
L 189.010526 121.871528 
L 187.006266 121.142037 
L 184.923407 120.383938 
L 182.76195 119.597232 
L 180.521895 118.781919 
L 178.203241 117.937998 
L 175.805989 117.065469 
L 173.330138 116.164333 
L 170.775689 115.23459 
L 168.142642 114.276239 
L 165.430996 113.289281 
L 162.640752 112.273715 
L 159.771909 111.229541 
L 156.824468 110.156761 
L 153.798428 109.055372 
L 150.69379 107.925376 
L 147.510553 106.766773 
L 144.248718 105.579562 
L 140.908285 104.363744 
L 137.489253 103.119318 
L 133.991623 101.846285 
L 130.415394 100.544644 
L 126.760567 99.214396 
L 123.027142 97.85554 
L 119.215118 96.468077 
L 115.324495 95.052006 
" style="fill:none;stroke:#0000ff;stroke-linecap:square;stroke-width:1.5;"/>
   </g>
   <g id="line2d_30">
    <path clip-path="url(#p656b9baa1d)" d="M 213.572536 130.811368 
L 213.629905 130.797064 
L 213.802013 130.754153 
L 214.088859 130.682635 
L 214.490443 130.582508 
L 215.006766 130.453775 
L 215.637827 130.296433 
L 216.383626 130.110485 
L 217.244164 129.895929 
L 218.21944 129.652765 
L 219.309455 129.380994 
L 220.514208 129.080615 
L 221.833699 128.751629 
L 223.267929 128.394035 
L 224.816897 128.007834 
L 226.480603 127.593026 
L 228.259048 127.14961 
L 230.152231 126.677586 
L 232.160153 126.176955 
L 234.282813 125.647716 
L 236.520211 125.08987 
L 238.872348 124.503417 
L 241.339223 123.888356 
L 243.920836 123.244687 
L 246.617188 122.572411 
L 249.428278 121.871528 
L 252.354107 121.142037 
L 255.394674 120.383938 
L 258.549979 119.597232 
L 261.820023 118.781919 
L 265.204805 117.937998 
L 268.704325 117.065469 
L 272.318584 116.164333 
L 276.047581 115.23459 
L 279.891317 114.276239 
L 283.849791 113.289281 
L 287.923003 112.273715 
L 292.110954 111.229541 
L 296.413643 110.156761 
L 300.83107 109.055372 
L 305.363236 107.925376 
L 310.01014 106.766773 
L 314.771783 105.579562 
L 319.648164 104.363744 
L 324.639283 103.119318 
L 329.745141 101.846285 
L 334.965737 100.544644 
L 340.301071 99.214396 
L 345.751144 97.85554 
L 351.315955 96.468077 
L 356.995505 95.052006 
" style="fill:none;stroke:#0000ff;stroke-linecap:square;stroke-width:1.5;"/>
   </g>
  </g>
 </g>
 <defs>
  <clipPath id="p656b9baa1d">
   <rect height="266.112" width="308.395592" x="81.962204" y="41.472"/>
  </clipPath>
 </defs>
</svg>
