<?xml version="1.0" encoding="utf-8" standalone="no"?>
<!DOCTYPE svg PUBLIC "-//W3C//DTD SVG 1.1//EN"
  "http://www.w3.org/Graphics/SVG/1.1/DTD/svg11.dtd">
<!-- Created with matplotlib (http://matplotlib.org/) -->
<svg height="345pt" version="1.1" viewBox="0 0 460 345" width="460pt" xmlns="http://www.w3.org/2000/svg" xmlns:xlink="http://www.w3.org/1999/xlink">
 <defs>
  <style type="text/css">
*{stroke-linecap:butt;stroke-linejoin:round;}
  </style>
 </defs>
 <g id="figure_1">
  <g id="patch_1">
   <path d="M 0 345.6 
L 460.8 345.6 
L 460.8 0 
L 0 0 
z
" style="fill:#ffffff;"/>
  </g>
  <g id="axes_1">
   <g id="patch_2">
    <path clip-path="url(#pd74d2ffed8)" d="M 109.392647 295.488 
L 139.972675 284.35778 
L 166.990252 275.284342 
L 190.843705 267.933451 
L 211.88911 262.021221 
L 230.444448 257.306925 
L 246.793401 253.58678 
L 362.927353 250.782991 
L 302.432224 151.609934 
L 291.036007 139.311397 
L 277.675638 125.599151 
L 262.032795 110.32941 
L 243.74001 93.34716 
L 222.373393 74.485971 
L 197.444326 53.568 
L 139.972675 122.060048 
L 109.392647 206.077982 
L 109.392647 295.488 
" style="opacity:0.05;stroke:#000000;stroke-linejoin:miter;"/>
   </g>
   <g id="patch_3">
    <path clip-path="url(#pd74d2ffed8)" d="M 109.392647 295.488 
Q 122.409681 241.841989 141.935233 206.077982 
C 109.392647 206.077982 109.392647 206.077982 109.392647 295.488 
" style="fill:#ff0000;opacity:0.75;stroke:#000000;stroke-linejoin:miter;"/>
   </g>
   <g id="patch_4">
    <path clip-path="url(#pd74d2ffed8)" d="M 109.392647 206.077982 
Q 139.972675 160.119309 170.552702 133.190267 
C 139.972675 122.060048 139.972675 122.060048 109.392647 206.077982 
" style="fill:#008000;opacity:0.75;stroke:#000000;stroke-linejoin:miter;"/>
   </g>
   <g id="patch_5">
    <path clip-path="url(#pd74d2ffed8)" d="M 139.972675 122.060048 
Q 184.427292 89.332007 222.373393 74.485971 
C 197.444326 53.568 197.444326 53.568 139.972675 122.060048 
" style="fill:#0000ff;opacity:0.75;stroke:#000000;stroke-linejoin:miter;"/>
   </g>
   <g id="patch_6">
    <path clip-path="url(#pd74d2ffed8)" d="M 139.972675 284.35778 
Q 152.546816 237.675626 170.426749 206.792295 
C 141.935233 206.077982 141.935233 206.077982 139.972675 284.35778 
" style="fill:#ff0000;opacity:0.75;stroke:#000000;stroke-linejoin:miter;"/>
   </g>
   <g id="patch_7">
    <path clip-path="url(#pd74d2ffed8)" d="M 141.935233 206.077982 
Q 169.717298 166.511716 197.08166 143.606174 
C 170.552702 133.190267 170.552702 133.190267 141.935233 206.077982 
" style="fill:#008000;opacity:0.75;stroke:#000000;stroke-linejoin:miter;"/>
   </g>
   <g id="patch_8">
    <path clip-path="url(#pd74d2ffed8)" d="M 170.552702 133.190267 
Q 210.191763 105.512165 243.74001 93.34716 
C 222.373393 74.485971 222.373393 74.485971 170.552702 133.190267 
" style="fill:#0000ff;opacity:0.75;stroke:#000000;stroke-linejoin:miter;"/>
   </g>
   <g id="patch_9">
    <path clip-path="url(#pd74d2ffed8)" d="M 166.990252 275.284342 
Q 179.023777 234.689427 195.355816 208.043077 
C 170.426749 206.792295 170.426749 206.792295 166.990252 275.284342 
" style="fill:#ff0000;opacity:0.75;stroke:#000000;stroke-linejoin:miter;"/>
   </g>
   <g id="patch_10">
    <path clip-path="url(#pd74d2ffed8)" d="M 170.426749 206.792295 
Q 195.618843 172.76126 220.079527 153.307768 
C 197.08166 143.606174 197.08166 143.606174 170.426749 206.792295 
" style="fill:#008000;opacity:0.75;stroke:#000000;stroke-linejoin:miter;"/>
   </g>
   <g id="patch_11">
    <path clip-path="url(#pd74d2ffed8)" d="M 197.08166 143.606174 
Q 232.393784 120.243666 262.032795 110.32941 
C 243.74001 93.34716 243.74001 93.34716 197.08166 143.606174 
" style="fill:#0000ff;opacity:0.75;stroke:#000000;stroke-linejoin:miter;"/>
   </g>
   <g id="patch_12">
    <path clip-path="url(#pd74d2ffed8)" d="M 190.843705 267.933451 
Q 202.270297 232.656136 217.154129 209.685351 
C 195.355816 208.043077 195.355816 208.043077 190.843705 267.933451 
" style="fill:#ff0000;opacity:0.75;stroke:#000000;stroke-linejoin:miter;"/>
   </g>
   <g id="patch_13">
    <path clip-path="url(#pd74d2ffed8)" d="M 195.355816 208.043077 
Q 218.158852 178.80137 240.001551 162.306464 
C 220.079527 153.307768 220.079527 153.307768 195.355816 208.043077 
" style="fill:#008000;opacity:0.75;stroke:#000000;stroke-linejoin:miter;"/>
   </g>
   <g id="patch_14">
    <path clip-path="url(#pd74d2ffed8)" d="M 220.079527 153.307768 
Q 251.508625 133.62865 277.675638 125.599151 
C 262.032795 110.32941 262.032795 110.32941 220.079527 153.307768 
" style="fill:#0000ff;opacity:0.75;stroke:#000000;stroke-linejoin:miter;"/>
   </g>
   <g id="patch_15">
    <path clip-path="url(#pd74d2ffed8)" d="M 211.88911 262.021221 
Q 222.667601 231.386224 236.202828 211.601662 
C 217.154129 209.685351 217.154129 209.685351 211.88911 262.021221 
" style="fill:#ff0000;opacity:0.75;stroke:#000000;stroke-linejoin:miter;"/>
   </g>
   <g id="patch_16">
    <path clip-path="url(#pd74d2ffed8)" d="M 217.154129 209.685351 
Q 237.760384 184.584331 257.246056 170.622245 
C 240.001551 162.306464 240.001551 162.306464 217.154129 209.685351 
" style="fill:#008000;opacity:0.75;stroke:#000000;stroke-linejoin:miter;"/>
   </g>
   <g id="patch_17">
    <path clip-path="url(#pd74d2ffed8)" d="M 240.001551 162.306464 
Q 267.950151 145.766974 291.036007 139.311397 
C 277.675638 125.599151 277.675638 125.599151 240.001551 162.306464 
" style="fill:#0000ff;opacity:0.75;stroke:#000000;stroke-linejoin:miter;"/>
   </g>
   <g id="patch_18">
    <path clip-path="url(#pd74d2ffed8)" d="M 230.444448 257.306925 
Q 240.553618 230.722119 252.838183 213.697541 
C 236.202828 211.601662 236.202828 211.601662 230.444448 257.306925 
" style="fill:#ff0000;opacity:0.75;stroke:#000000;stroke-linejoin:miter;"/>
   </g>
   <g id="patch_19">
    <path clip-path="url(#pd74d2ffed8)" d="M 236.202828 211.601662 
Q 254.79488 190.077655 272.161343 178.281354 
C 257.246056 170.622245 257.246056 170.622245 236.202828 211.601662 
" style="fill:#008000;opacity:0.75;stroke:#000000;stroke-linejoin:miter;"/>
   </g>
   <g id="patch_20">
    <path clip-path="url(#pd74d2ffed8)" d="M 257.246056 170.622245 
Q 282.078513 156.755151 302.432224 151.609934 
C 291.036007 139.311397 291.036007 139.311397 257.246056 170.622245 
" style="fill:#0000ff;opacity:0.75;stroke:#000000;stroke-linejoin:miter;"/>
   </g>
   <g id="line2d_1">
    <path clip-path="url(#pd74d2ffed8)" d="M 272.161343 178.281354 
L 252.838183 213.697541 
L 362.927353 250.782991 
" style="fill:none;stroke:#000000;stroke-linecap:square;stroke-width:1.5;"/>
   </g>
   <g id="line2d_2">
    <path clip-path="url(#pd74d2ffed8)" d="M 302.432224 151.609934 
L 272.161343 178.281354 
L 362.927353 250.782991 
" style="fill:none;stroke:#000000;stroke-linecap:square;stroke-width:1.5;"/>
   </g>
   <g id="line2d_3">
    <path clip-path="url(#pd74d2ffed8)" d="M 252.838183 213.697541 
L 246.793401 253.58678 
" style="fill:none;stroke:#000000;stroke-linecap:square;stroke-width:1.5;"/>
   </g>
  </g>
 </g>
 <defs>
  <clipPath id="pd74d2ffed8">
   <rect height="266.112" width="278.888176" x="96.715912" y="41.472"/>
  </clipPath>
 </defs>
</svg>
