<?xml version="1.0" encoding="ISO-8859-1" standalone="no"?>
<!DOCTYPE svg PUBLIC "-//W3C//DTD SVG 20010904//EN"
"http://www.w3.org/TR/2001/REC-SVG-20010904/DTD/svg10.dtd">
<svg xmlns="http://www.w3.org/2000/svg"
 xmlns:xlink="http://www.w3.org/1999/xlink" xml:space="preserve"
 width="1000px" height="1000px"
 viewBox="0 0 1000 1000" >
 <line style="stroke:gray;stroke-width:1;" x1="8.023467787040886" y1="4.011733893520457" x2="8.023467787040886" y2="0.0" />
 <line style="stroke:gray;stroke-width:1;" x1="4.011733893520443" y1="0.0" x2="4.011733893520443" y2="4.011733893520457" />
 <line style="stroke-dasharray: 15, 10;stroke:red;stroke-width:4;" x1="499.99999999999994" y1="504.01173389352044" x2="4.011733893520443" y2="709.4568004927401" />
 <line style="stroke:gray;stroke-width:1;" x1="294.5549334007803" y1="1000.0" x2="4.011733893520443" y2="709.4568004927401" />
 <line style="stroke-dasharray: 15, 10;stroke:red;stroke-width:4;" x1="499.99999999999994" y1="504.01173389352044" x2="294.5549334007803" y2="1000.0" />
 <line style="stroke:gray;stroke-width:1;" x1="705.4450665992194" y1="1000.0" x2="294.5549334007803" y2="1000.0" />
 <line style="stroke-dasharray: 15, 10;stroke:red;stroke-width:4;" x1="499.99999999999994" y1="504.01173389352044" x2="705.4450665992194" y2="1000.0" />
 <line style="stroke:gray;stroke-width:1;" x1="995.9882661064796" y1="709.4568004927401" x2="705.4450665992194" y2="1000.0" />
 <line style="stroke-dasharray: 15, 10;stroke:red;stroke-width:4;" x1="499.99999999999994" y1="504.01173389352044" x2="995.9882661064796" y2="709.4568004927401" />
 <line style="stroke:gray;stroke-width:1;" x1="995.9882661064796" y1="298.566667294301" x2="995.9882661064796" y2="709.4568004927401" />
 <line style="stroke-dasharray: 15, 10;stroke:red;stroke-width:4;" x1="499.99999999999994" y1="504.01173389352044" x2="995.9882661064796" y2="298.566667294301" />
 <line style="stroke:gray;stroke-width:1;" x1="705.4450665992198" y1="8.023467787041128" x2="995.9882661064796" y2="298.566667294301" />
 <line style="stroke-dasharray: 15, 10;stroke:red;stroke-width:4;" x1="499.99999999999994" y1="504.01173389352044" x2="705.4450665992198" y2="8.023467787041128" />
 <line style="stroke:gray;stroke-width:1;" x1="294.55493340078027" y1="8.023467787040985" x2="705.4450665992198" y2="8.023467787041128" />
 <line style="stroke-dasharray: 15, 10;stroke:red;stroke-width:4;" x1="499.99999999999994" y1="504.01173389352044" x2="294.55493340078027" y2="8.023467787040985" />
 <line style="stroke:gray;stroke-width:1;" x1="4.01173389352067" y1="298.56666729430066" x2="294.55493340078027" y2="8.023467787040985" />
 <line style="stroke-dasharray: 15, 10;stroke:red;stroke-width:4;" x1="499.99999999999994" y1="504.01173389352044" x2="4.01173389352067" y2="298.56666729430066" />
 <line style="stroke:gray;stroke-width:1;" x1="4.011733893520443" y1="709.4568004927401" x2="4.01173389352067" y2="298.56666729430066" />
 <line style="stroke:blue;stroke-width:4;stroke-opacity:1" x1="499.99999999999994" y1="504.01173389352044" x2="496.44764987085" y2="505.4704561132175" />
 <line style="stroke:blue;stroke-width:4;stroke-opacity:1" x1="496.44764987085" y1="505.4704561132175" x2="485.79059948340006" y2="509.8466227723085" />
 <line style="stroke:blue;stroke-width:4;stroke-opacity:1" x1="485.79059948340006" y1="509.8466227723085" x2="471.85366881697814" y2="515.5194314044635" />
 <line style="stroke:blue;stroke-width:4;stroke-opacity:1" x1="471.85366881697814" y1="515.5194314044635" x2="458.3285382005362" y2="520.8680795433525" />
 <line style="stroke:blue;stroke-width:4;stroke-opacity:1" x1="458.3285382005362" y1="520.8680795433525" x2="445.0605775976796" y2="525.7304869423424" />
 <line style="stroke:blue;stroke-width:4;stroke-opacity:1" x1="445.0605775976796" y1="525.7304869423424" x2="431.4350712687925" y2="529.9445733548005" />
 <line style="stroke:blue;stroke-width:4;stroke-opacity:1" x1="431.4350712687925" y1="529.9445733548005" x2="417.6592688154403" y2="533.2469583799478" />
 <line style="stroke:blue;stroke-width:4;stroke-opacity:1" x1="417.6592688154403" y1="533.2469583799478" x2="403.96431884770294" y2="535.3742616170059" />
 <line style="stroke:blue;stroke-width:4;stroke-opacity:1" x1="403.96431884770294" y1="535.3742616170059" x2="390.41460673993765" y2="536.0631026651962" />
 <line style="stroke:blue;stroke-width:4;stroke-opacity:1" x1="390.41460673993765" y1="536.0631026651962" x2="376.70508661221623" y2="535.05010112374" />
 <line style="stroke:blue;stroke-width:4;stroke-opacity:1" x1="376.70508661221623" y1="535.05010112374" x2="362.65374161788736" y2="532.6310534427424" />
 <line style="stroke:blue;stroke-width:4;stroke-opacity:1" x1="362.65374161788736" y1="532.6310534427424" x2="348.48623133296826" y2="529.101756072309" />
 <line style="stroke:blue;stroke-width:4;stroke-opacity:1" x1="348.48623133296826" y1="529.101756072309" x2="334.5976943168788" y2="524.7580054625445" />
 <line style="stroke:blue;stroke-width:4;stroke-opacity:1" x1="334.5976943168788" y1="524.7580054625445" x2="321.3494199182504" y2="519.8955980635544" />
 <line style="stroke:blue;stroke-width:4;stroke-opacity:1" x1="321.3494199182504" y1="519.8955980635544" x2="305.9177439742111" y2="514.4740138136806" />
 <line style="stroke:blue;stroke-width:4;stroke-opacity:1" x1="305.9177439742111" y1="514.4740138136806" x2="276.8310828611331" y2="506.08636105042285" />
 <line style="stroke:blue;stroke-width:4;stroke-opacity:1" x1="276.8310828611331" y1="506.08636105042285" x2="252.90891134236145" y2="501.7912345146484" />
 <line style="stroke:blue;stroke-width:4;stroke-opacity:1" x1="252.90891134236145" y1="501.7912345146484" x2="205.23180399828908" y2="494.44899934217347" />
 <line style="stroke:blue;stroke-width:4;stroke-opacity:1" x1="205.23180399828908" y1="494.44899934217347" x2="145.13405300718836" y2="486.5962113928046" />
 <line style="stroke:blue;stroke-width:4;stroke-opacity:1" x1="145.13405300718836" y1="486.5962113928046" x2="76.67215884172293" y2="478.40305492550647" />
 <line style="stroke:blue;stroke-width:4;stroke-opacity:1" x1="76.67215884172293" y1="478.40305492550647" x2="22.17684013057118" y2="472.1305493808094" />
 <line style="stroke:blue;stroke-width:4;stroke-opacity:1" x1="22.17684013057118" y1="472.1305493808094" x2="4.011733893520443" y2="470.03971419924363" />
 <line style="stroke:blue;stroke-width:4;stroke-opacity:1" x1="4.011733893520443" y1="470.03971419924363" x2="4.011733893520443" y2="470.03971419924363" />
 <line style="stroke:blue;stroke-width:4;stroke-opacity:1" x1="496.44764987085" y1="505.4704561132175" x2="496.44764987085" y2="505.4831654953122" />
 <line style="stroke-dasharray: 15, 10;stroke:red;stroke-width:4;" x1="496.44764987085" y1="505.4704561132175" x2="496.44764987085" y2="502.5403022917287" />
 <line style="stroke:blue;stroke-width:4;stroke-opacity:1" x1="485.79059948340006" y1="509.8466227723085" x2="485.79059948340006" y2="509.8974603006874" />
 <line style="stroke-dasharray: 15, 10;stroke:red;stroke-width:4;" x1="485.79059948340006" y1="509.8466227723085" x2="485.79059948340006" y2="498.12600748635356" />
 <line style="stroke:blue;stroke-width:4;stroke-opacity:1" x1="471.85366881697814" y1="515.5194314044635" x2="471.85366881697814" y2="515.6703260005729" />
 <line style="stroke-dasharray: 15, 10;stroke:red;stroke-width:4;" x1="471.85366881697814" y1="515.5194314044635" x2="471.85366881697814" y2="492.35314178646803" />
 <line style="stroke:blue;stroke-width:4;stroke-opacity:1" x1="458.3285382005362" y1="520.8680795433525" x2="458.3285382005362" y2="521.2726185347707" />
 <line style="stroke-dasharray: 15, 10;stroke:red;stroke-width:4;" x1="458.3285382005362" y1="520.8680795433525" x2="458.3285382005362" y2="486.75084925227026" />
 <line style="stroke:blue;stroke-width:4;stroke-opacity:1" x1="445.0605775976796" y1="525.7304869423424" x2="445.0605775976796" y2="526.7683877615058" />
 <line style="stroke-dasharray: 15, 10;stroke:red;stroke-width:4;" x1="445.0605775976796" y1="525.7304869423424" x2="445.0605775976796" y2="481.2550800255351" />
 <line style="stroke:blue;stroke-width:4;stroke-opacity:1" x1="431.4350712687925" y1="529.9445733548005" x2="431.4350712687925" y2="532.4122572771313" />
 <line style="stroke-dasharray: 15, 10;stroke:red;stroke-width:4;" x1="431.4350712687925" y1="529.9445733548005" x2="431.4350712687925" y2="475.6112105099096" />
 <line style="stroke:blue;stroke-width:4;stroke-opacity:1" x1="417.6592688154403" y1="533.2469583799478" x2="417.6592688154403" y2="538.1183814858823" />
 <line style="stroke-dasharray: 15, 10;stroke:red;stroke-width:4;" x1="417.6592688154403" y1="533.2469583799478" x2="417.6592688154403" y2="469.90508630115863" />
 <line style="stroke:blue;stroke-width:4;stroke-opacity:1" x1="403.96431884770294" y1="535.3742616170059" x2="403.96431884770294" y2="543.7910154985401" />
 <line style="stroke-dasharray: 15, 10;stroke:red;stroke-width:4;" x1="403.96431884770294" y1="535.3742616170059" x2="403.96431884770294" y2="464.23245228850084" />
 <line style="stroke:blue;stroke-width:4;stroke-opacity:1" x1="390.41460673993765" y1="536.0631026651962" x2="390.41460673993765" y2="549.4034900198274" />
 <line style="stroke-dasharray: 15, 10;stroke:red;stroke-width:4;" x1="390.41460673993765" y1="536.0631026651962" x2="390.41460673993765" y2="458.6199777672135" />
 <line style="stroke:blue;stroke-width:4;stroke-opacity:1" x1="376.70508661221623" y1="535.05010112374" x2="376.70508661221623" y2="555.0821591903566" />
 <line style="stroke-dasharray: 15, 10;stroke:red;stroke-width:4;" x1="376.70508661221623" y1="535.05010112374" x2="376.70508661221623" y2="452.94130859668434" />
 <line style="stroke:blue;stroke-width:4;stroke-opacity:1" x1="362.65374161788736" y1="532.6310534427424" x2="362.65374161788736" y2="560.9024168565909" />
 <line style="stroke-dasharray: 15, 10;stroke:red;stroke-width:4;" x1="362.65374161788736" y1="532.6310534427424" x2="362.65374161788736" y2="447.1210509304501" />
 <line style="stroke:blue;stroke-width:4;stroke-opacity:1" x1="348.48623133296826" y1="529.101756072309" x2="348.48623133296826" y2="566.7707917616647" />
 <line style="stroke-dasharray: 15, 10;stroke:red;stroke-width:4;" x1="348.48623133296826" y1="529.101756072309" x2="348.48623133296826" y2="441.2526760253763" />
 <line style="stroke:blue;stroke-width:4;stroke-opacity:1" x1="334.5976943168788" y1="524.7580054625445" x2="334.5976943168788" y2="572.5236121552497" />
 <line style="stroke-dasharray: 15, 10;stroke:red;stroke-width:4;" x1="334.5976943168788" y1="524.7580054625445" x2="334.5976943168788" y2="435.4998556317912" />
 <line style="stroke-dasharray: 15, 10;stroke:red;stroke-width:4;" x1="321.3494199182504" y1="519.8955980635544" x2="321.3494199182504" y2="578.0112270892018" />
 <line style="stroke:blue;stroke-width:4;stroke-opacity:1" x1="321.3494199182504" y1="519.8955980635544" x2="321.3494199182504" y2="430.0122406978391" />
 <line style="stroke-dasharray: 15, 10;stroke:red;stroke-width:4;" x1="305.9177439742111" y1="514.4740138136806" x2="305.9177439742111" y2="584.4032365553696" />
 <line style="stroke:blue;stroke-width:4;stroke-opacity:1" x1="305.9177439742111" y1="514.4740138136806" x2="305.9177439742111" y2="423.62023123167137" />
 <line style="stroke-dasharray: 15, 10;stroke:red;stroke-width:4;" x1="276.8310828611331" y1="506.08636105042285" x2="276.8310828611331" y2="596.4513260725566" />
 <line style="stroke:blue;stroke-width:4;stroke-opacity:1" x1="276.8310828611331" y1="506.08636105042285" x2="276.8310828611331" y2="411.57214171448436" />
 <line style="stroke-dasharray: 15, 10;stroke:red;stroke-width:4;" x1="252.90891134236145" y1="501.7912345146484" x2="252.90891134236145" y2="606.3602139570471" />
 <line style="stroke:blue;stroke-width:4;stroke-opacity:1" x1="252.90891134236145" y1="501.7912345146484" x2="252.90891134236145" y2="401.6632538299938" />
 <line style="stroke-dasharray: 15, 10;stroke:red;stroke-width:4;" x1="205.23180399828908" y1="494.44899934217347" x2="205.23180399828908" y2="626.1087184336799" />
 <line style="stroke:blue;stroke-width:4;stroke-opacity:1" x1="205.23180399828908" y1="494.44899934217347" x2="205.23180399828908" y2="381.914749353361" />
 <line style="stroke-dasharray: 15, 10;stroke:red;stroke-width:4;" x1="145.13405300718836" y1="486.5962113928046" x2="145.13405300718836" y2="651.002021962315" />
 <line style="stroke:blue;stroke-width:4;stroke-opacity:1" x1="145.13405300718836" y1="486.5962113928046" x2="145.13405300718836" y2="357.0214458247261" />
 <line style="stroke-dasharray: 15, 10;stroke:red;stroke-width:4;" x1="76.67215884172293" y1="478.40305492550647" x2="76.67215884172293" y2="679.359867031402" />
 <line style="stroke:blue;stroke-width:4;stroke-opacity:1" x1="76.67215884172293" y1="478.40305492550647" x2="76.67215884172293" y2="328.66360075563887" />
 <line style="stroke-dasharray: 15, 10;stroke:red;stroke-width:4;" x1="22.17684013057118" y1="472.1305493808094" x2="22.17684013057118" y2="701.9325671274055" />
 <line style="stroke:blue;stroke-width:4;stroke-opacity:1" x1="22.17684013057118" y1="472.1305493808094" x2="22.17684013057118" y2="306.0909006596354" />
 <line style="stroke:blue;stroke-width:4;stroke-opacity:1" x1="4.011733893520443" y1="470.03971419924363" x2="4.011733893520443" y2="709.4568004927398" />
 <line style="stroke-dasharray: 15, 10;stroke:red;stroke-width:4;" x1="4.011733893520443" y1="470.03971419924363" x2="4.011733893520443" y2="298.566667294301" />
 <line style="stroke:blue;stroke-width:4;stroke-opacity:1" x1="499.99999999999994" y1="504.01173389352044" x2="498.51958150794434" y2="507.55509713240656" />
 <line style="stroke:blue;stroke-width:4;stroke-opacity:1" x1="498.51958150794434" y1="507.55509713240656" x2="494.0783260317775" y2="518.1851868490648" />
 <line style="stroke:blue;stroke-width:4;stroke-opacity:1" x1="494.0783260317775" y1="518.1851868490648" x2="488.2347093007942" y2="532.051366484389" />
 <line style="stroke:blue;stroke-width:4;stroke-opacity:1" x1="488.2347093007942" y1="532.051366484389" x2="482.4530630946635" y2="545.3971434288981" />
 <line style="stroke:blue;stroke-width:4;stroke-opacity:1" x1="482.4530630946635" y1="545.3971434288981" x2="476.50943942458514" y2="558.2172495884114" />
 <line style="stroke:blue;stroke-width:4;stroke-opacity:1" x1="476.50943942458514" y1="558.2172495884114" x2="469.854560581084" y2="570.8317465894228" />
 <line style="stroke:blue;stroke-width:4;stroke-opacity:1" x1="469.854560581084" y1="570.8317465894228" x2="462.44873609540304" y2="582.907848765845" />
 <line style="stroke:blue;stroke-width:4;stroke-opacity:1" x1="462.44873609540304" y1="582.907848765845" x2="454.26917464976935" y2="594.0958713006065" />
 <line style="stroke:blue;stroke-width:4;stroke-opacity:1" x1="454.26917464976935" y1="594.0958713006065" x2="445.17516551157803" y2="604.1640487914677" />
 <line style="stroke:blue;stroke-width:4;stroke-opacity:1" x1="445.17516551157803" y1="604.1640487914677" x2="434.7647706031366" y2="613.1418431812768" />
 <line style="stroke:blue;stroke-width:4;stroke-opacity:1" x1="434.7647706031366" y1="613.1418431812768" x2="423.11844425360806" y2="621.3671194923115" />
 <line style="stroke:blue;stroke-width:4;stroke-opacity:1" x1="423.11844425360806" y1="621.3671194923115" x2="410.6049115551541" y2="628.8894719838506" />
 <line style="stroke:blue;stroke-width:4;stroke-opacity:1" x1="410.6049115551541" y1="628.8894719838506" x2="397.7127373383693" y2="635.6386551767401" />
 <line style="stroke:blue;stroke-width:4;stroke-opacity:1" x1="397.7127373383693" y1="635.6386551767401" x2="384.9065514273616" y2="641.568358598313" />
 <line style="stroke:blue;stroke-width:4;stroke-opacity:1" x1="384.9065514273616" y1="641.568358598313" x2="370.1610697343981" y2="648.6465623155566" />
 <line style="stroke:blue;stroke-width:4;stroke-opacity:1" x1="370.1610697343981" y1="648.6465623155566" x2="343.66272827212794" y2="663.2829714835515" />
 <line style="stroke:blue;stroke-width:4;stroke-opacity:1" x1="343.66272827212794" y1="663.2829714835515" x2="323.7100854709964" y2="677.161388085682" />
 <line style="stroke:blue;stroke-width:4;stroke-opacity:1" x1="323.7100854709964" y1="677.161388085682" x2="284.80553528112046" y2="705.6824497165112" />
 <line style="stroke:blue;stroke-width:4;stroke-opacity:1" x1="284.80553528112046" y1="705.6824497165112" x2="236.75724841103386" y2="742.6252173661603" />
 <line style="stroke:blue;stroke-width:4;stroke-opacity:1" x1="236.75724841103386" y1="742.6252173661603" x2="182.5539422964087" y2="785.2416504860878" />
 <line style="stroke:blue;stroke-width:4;stroke-opacity:1" x1="182.5539422964087" y1="785.2416504860878" x2="139.58460168714544" y2="819.3403286839798" />
 <line style="stroke:blue;stroke-width:4;stroke-opacity:1" x1="139.58460168714544" y1="819.3403286839798" x2="125.26148815072429" y2="830.706554749944" />
 <line style="stroke:blue;stroke-width:4;stroke-opacity:1" x1="125.26148815072429" y1="830.706554749944" x2="125.26148815072429" y2="830.706554749944" />
 <line style="stroke:blue;stroke-width:4;stroke-opacity:1" x1="498.51958150794434" y1="507.55509713240656" x2="498.5285683982082" y2="507.5640840226704" />
 <line style="stroke-dasharray: 15, 10;stroke:red;stroke-width:4;" x1="498.51958150794434" y1="507.55509713240656" x2="496.44764987085" y2="505.4831654953122" />
 <line style="stroke:blue;stroke-width:4;stroke-opacity:1" x1="494.0783260317775" y1="518.1851868490648" x2="494.114273592833" y2="518.2211344101204" />
 <line style="stroke-dasharray: 15, 10;stroke:red;stroke-width:4;" x1="494.0783260317775" y1="518.1851868490648" x2="485.79059948340006" y2="509.8974603006874" />
 <line style="stroke:blue;stroke-width:4;stroke-opacity:1" x1="488.2347093007942" y1="532.051366484389" x2="488.34140789294753" y2="532.1580650765422" />
 <line style="stroke-dasharray: 15, 10;stroke:red;stroke-width:4;" x1="488.2347093007942" y1="532.051366484389" x2="471.85366881697814" y2="515.6703260005729" />
 <line style="stroke:blue;stroke-width:4;stroke-opacity:1" x1="482.4530630946635" y1="545.3971434288981" x2="482.7391153587497" y2="545.6831956929842" />
 <line style="stroke-dasharray: 15, 10;stroke:red;stroke-width:4;" x1="482.4530630946635" y1="545.3971434288981" x2="458.3285382005362" y2="521.2726185347707" />
 <line style="stroke:blue;stroke-width:4;stroke-opacity:1" x1="476.50943942458514" y1="558.2172495884114" x2="477.2433461320146" y2="558.9511562958409" />
 <line style="stroke-dasharray: 15, 10;stroke:red;stroke-width:4;" x1="476.50943942458514" y1="558.2172495884114" x2="445.0605775976796" y2="526.7683877615058" />
 <line style="stroke:blue;stroke-width:4;stroke-opacity:1" x1="469.854560581084" y1="570.8317465894228" x2="471.59947661638915" y2="572.5766626247279" />
 <line style="stroke-dasharray: 15, 10;stroke:red;stroke-width:4;" x1="469.854560581084" y1="570.8317465894228" x2="431.4350712687925" y2="532.4122572771313" />
 <line style="stroke:blue;stroke-width:4;stroke-opacity:1" x1="462.44873609540304" y1="582.907848765845" x2="465.8933524076381" y2="586.3524650780801" />
 <line style="stroke-dasharray: 15, 10;stroke:red;stroke-width:4;" x1="462.44873609540304" y1="582.907848765845" x2="417.6592688154403" y2="538.1183814858823" />
 <line style="stroke:blue;stroke-width:4;stroke-opacity:1" x1="454.26917464976935" y1="594.0958713006065" x2="460.2207183949803" y2="600.0474150458174" />
 <line style="stroke-dasharray: 15, 10;stroke:red;stroke-width:4;" x1="454.26917464976935" y1="594.0958713006065" x2="403.96431884770294" y2="543.7910154985401" />
 <line style="stroke:blue;stroke-width:4;stroke-opacity:1" x1="445.17516551157803" y1="604.1640487914677" x2="454.608243873693" y2="613.5971271535827" />
 <line style="stroke-dasharray: 15, 10;stroke:red;stroke-width:4;" x1="445.17516551157803" y1="604.1640487914677" x2="390.41460673993765" y2="549.4034900198274" />
 <line style="stroke:blue;stroke-width:4;stroke-opacity:1" x1="434.7647706031366" y1="613.1418431812768" x2="448.92957470316384" y2="627.3066472813042" />
 <line style="stroke-dasharray: 15, 10;stroke:red;stroke-width:4;" x1="434.7647706031366" y1="613.1418431812768" x2="376.70508661221623" y2="555.0821591903566" />
 <line style="stroke:blue;stroke-width:4;stroke-opacity:1" x1="423.11844425360806" y1="621.3671194923115" x2="443.10931703692955" y2="641.357992275633" />
 <line style="stroke-dasharray: 15, 10;stroke:red;stroke-width:4;" x1="423.11844425360806" y1="621.3671194923115" x2="362.65374161788736" y2="560.9024168565909" />
 <line style="stroke:blue;stroke-width:4;stroke-opacity:1" x1="410.6049115551541" y1="628.8894719838506" x2="437.2409421318557" y2="655.5255025605521" />
 <line style="stroke-dasharray: 15, 10;stroke:red;stroke-width:4;" x1="410.6049115551541" y1="628.8894719838506" x2="348.48623133296826" y2="566.7707917616647" />
 <line style="stroke:blue;stroke-width:4;stroke-opacity:1" x1="397.7127373383693" y1="635.6386551767401" x2="431.4881217382707" y2="669.4140395766417" />
 <line style="stroke-dasharray: 15, 10;stroke:red;stroke-width:4;" x1="397.7127373383693" y1="635.6386551767401" x2="334.5976943168788" y2="572.5236121552497" />
 <line style="stroke-dasharray: 15, 10;stroke:red;stroke-width:4;" x1="384.9065514273616" y1="641.568358598313" x2="426.00050680431855" y2="682.6623139752701" />
 <line style="stroke:blue;stroke-width:4;stroke-opacity:1" x1="384.9065514273616" y1="641.568358598313" x2="321.3494199182504" y2="578.0112270892018" />
 <line style="stroke-dasharray: 15, 10;stroke:red;stroke-width:4;" x1="370.1610697343981" y1="648.6465623155566" x2="419.6084973381508" y2="698.0939899193094" />
 <line style="stroke:blue;stroke-width:4;stroke-opacity:1" x1="370.1610697343981" y1="648.6465623155566" x2="305.9177439742111" y2="584.4032365553696" />
 <line style="stroke-dasharray: 15, 10;stroke:red;stroke-width:4;" x1="343.66272827212794" y1="663.2829714835515" x2="407.56040782096386" y2="727.1806510323872" />
 <line style="stroke:blue;stroke-width:4;stroke-opacity:1" x1="343.66272827212794" y1="663.2829714835515" x2="276.8310828611331" y2="596.4513260725565" />
 <line style="stroke-dasharray: 15, 10;stroke:red;stroke-width:4;" x1="323.7100854709964" y1="677.161388085682" x2="397.6515199364732" y2="751.1028225511589" />
 <line style="stroke:blue;stroke-width:4;stroke-opacity:1" x1="323.7100854709964" y1="677.161388085682" x2="252.90891134236145" y2="606.3602139570471" />
 <line style="stroke-dasharray: 15, 10;stroke:red;stroke-width:4;" x1="284.80553528112046" y1="705.6824497165112" x2="377.9030154598405" y2="798.7799298952314" />
 <line style="stroke:blue;stroke-width:4;stroke-opacity:1" x1="284.80553528112046" y1="705.6824497165112" x2="205.23180399828908" y2="626.1087184336799" />
 <line style="stroke-dasharray: 15, 10;stroke:red;stroke-width:4;" x1="236.75724841103386" y1="742.6252173661603" x2="353.0097119312055" y2="858.8776808863321" />
 <line style="stroke:blue;stroke-width:4;stroke-opacity:1" x1="236.75724841103386" y1="742.6252173661603" x2="145.13405300718836" y2="651.002021962315" />
 <line style="stroke-dasharray: 15, 10;stroke:red;stroke-width:4;" x1="182.5539422964087" y1="785.2416504860878" x2="324.65186686211837" y2="927.3395750517975" />
 <line style="stroke:blue;stroke-width:4;stroke-opacity:1" x1="182.5539422964087" y1="785.2416504860878" x2="76.67215884172293" y2="679.359867031402" />
 <line style="stroke-dasharray: 15, 10;stroke:red;stroke-width:4;" x1="139.58460168714544" y1="819.3403286839798" x2="302.0791667661149" y2="981.8348937629493" />
 <line style="stroke:blue;stroke-width:4;stroke-opacity:1" x1="139.58460168714544" y1="819.3403286839798" x2="22.17684013057118" y2="701.9325671274055" />
 <line style="stroke:blue;stroke-width:4;stroke-opacity:1" x1="125.26148815072429" y1="830.706554749944" x2="294.5549334007803" y2="1000.0" />
 <line style="stroke-dasharray: 15, 10;stroke:red;stroke-width:4;" x1="125.26148815072429" y1="830.706554749944" x2="4.011733893520443" y2="709.4568004927398" />
 <line style="stroke:blue;stroke-width:4;stroke-opacity:1" x1="499.99999999999994" y1="504.01173389352044" x2="501.45872221969694" y2="507.5640840226704" />
 <line style="stroke:blue;stroke-width:4;stroke-opacity:1" x1="501.45872221969694" y1="507.5640840226704" x2="505.834888878788" y2="518.2211344101204" />
 <line style="stroke:blue;stroke-width:4;stroke-opacity:1" x1="505.834888878788" y1="518.2211344101204" x2="511.50769751094293" y2="532.1580650765422" />
 <line style="stroke:blue;stroke-width:4;stroke-opacity:1" x1="511.50769751094293" y1="532.1580650765422" x2="516.856345649832" y2="545.6831956929842" />
 <line style="stroke:blue;stroke-width:4;stroke-opacity:1" x1="516.856345649832" y1="545.6831956929842" x2="521.718753048822" y2="558.9511562958409" />
 <line style="stroke:blue;stroke-width:4;stroke-opacity:1" x1="521.718753048822" y1="558.9511562958409" x2="525.93283946128" y2="572.5766626247279" />
 <line style="stroke:blue;stroke-width:4;stroke-opacity:1" x1="525.93283946128" y1="572.5766626247279" x2="529.2352244864273" y2="586.3524650780801" />
 <line style="stroke:blue;stroke-width:4;stroke-opacity:1" x1="529.2352244864273" y1="586.3524650780801" x2="531.3625277234854" y2="600.0474150458174" />
 <line style="stroke:blue;stroke-width:4;stroke-opacity:1" x1="531.3625277234854" y1="600.0474150458174" x2="532.0513687716757" y2="613.5971271535827" />
 <line style="stroke:blue;stroke-width:4;stroke-opacity:1" x1="532.0513687716757" y1="613.5971271535827" x2="531.0383672302195" y2="627.3066472813042" />
 <line style="stroke:blue;stroke-width:4;stroke-opacity:1" x1="531.0383672302195" y1="627.3066472813042" x2="528.6193195492219" y2="641.357992275633" />
 <line style="stroke:blue;stroke-width:4;stroke-opacity:1" x1="528.6193195492219" y1="641.357992275633" x2="525.0900221787883" y2="655.5255025605521" />
 <line style="stroke:blue;stroke-width:4;stroke-opacity:1" x1="525.0900221787883" y1="655.5255025605521" x2="520.746271569024" y2="669.4140395766417" />
 <line style="stroke:blue;stroke-width:4;stroke-opacity:1" x1="520.746271569024" y1="669.4140395766417" x2="515.8838641700339" y2="682.6623139752701" />
 <line style="stroke:blue;stroke-width:4;stroke-opacity:1" x1="515.8838641700339" y1="682.6623139752701" x2="510.4622799201601" y2="698.0939899193094" />
 <line style="stroke:blue;stroke-width:4;stroke-opacity:1" x1="510.4622799201601" y1="698.0939899193094" x2="502.07462715690235" y2="727.1806510323872" />
 <line style="stroke:blue;stroke-width:4;stroke-opacity:1" x1="502.07462715690235" y1="727.1806510323872" x2="497.77950062112785" y2="751.1028225511589" />
 <line style="stroke:blue;stroke-width:4;stroke-opacity:1" x1="497.77950062112785" y1="751.1028225511589" x2="490.4372654486529" y2="798.7799298952314" />
 <line style="stroke:blue;stroke-width:4;stroke-opacity:1" x1="490.4372654486529" y1="798.7799298952314" x2="482.58447749928405" y2="858.8776808863321" />
 <line style="stroke:blue;stroke-width:4;stroke-opacity:1" x1="482.58447749928405" y1="858.8776808863321" x2="474.3913210319859" y2="927.3395750517975" />
 <line style="stroke:blue;stroke-width:4;stroke-opacity:1" x1="474.3913210319859" y1="927.3395750517975" x2="468.1188154872888" y2="981.8348937629493" />
 <line style="stroke:blue;stroke-width:4;stroke-opacity:1" x1="468.1188154872888" y1="981.8348937629493" x2="466.0279803057231" y2="1000.0" />
 <line style="stroke:blue;stroke-width:4;stroke-opacity:1" x1="466.0279803057231" y1="1000.0" x2="466.0279803057231" y2="1000.0" />
 <line style="stroke:blue;stroke-width:4;stroke-opacity:1" x1="501.45872221969694" y1="507.5640840226704" x2="501.47143160179166" y2="507.5640840226704" />
 <line style="stroke-dasharray: 15, 10;stroke:red;stroke-width:4;" x1="501.45872221969694" y1="507.5640840226704" x2="498.5285683982082" y2="507.5640840226704" />
 <line style="stroke:blue;stroke-width:4;stroke-opacity:1" x1="505.834888878788" y1="518.2211344101204" x2="505.8857264071669" y2="518.2211344101204" />
 <line style="stroke-dasharray: 15, 10;stroke:red;stroke-width:4;" x1="505.834888878788" y1="518.2211344101204" x2="494.114273592833" y2="518.2211344101204" />
 <line style="stroke:blue;stroke-width:4;stroke-opacity:1" x1="511.50769751094293" y1="532.1580650765422" x2="511.65859210705236" y2="532.1580650765422" />
 <line style="stroke-dasharray: 15, 10;stroke:red;stroke-width:4;" x1="511.50769751094293" y1="532.1580650765422" x2="488.34140789294753" y2="532.1580650765422" />
 <line style="stroke:blue;stroke-width:4;stroke-opacity:1" x1="516.856345649832" y1="545.6831956929842" x2="517.2608846412502" y2="545.6831956929842" />
 <line style="stroke-dasharray: 15, 10;stroke:red;stroke-width:4;" x1="516.856345649832" y1="545.6831956929842" x2="482.7391153587497" y2="545.6831956929842" />
 <line style="stroke:blue;stroke-width:4;stroke-opacity:1" x1="521.718753048822" y1="558.9511562958409" x2="522.7566538679853" y2="558.9511562958409" />
 <line style="stroke-dasharray: 15, 10;stroke:red;stroke-width:4;" x1="521.718753048822" y1="558.9511562958409" x2="477.2433461320146" y2="558.9511562958409" />
 <line style="stroke:blue;stroke-width:4;stroke-opacity:1" x1="525.93283946128" y1="572.5766626247279" x2="528.4005233836108" y2="572.5766626247279" />
 <line style="stroke-dasharray: 15, 10;stroke:red;stroke-width:4;" x1="525.93283946128" y1="572.5766626247279" x2="471.59947661638915" y2="572.5766626247279" />
 <line style="stroke:blue;stroke-width:4;stroke-opacity:1" x1="529.2352244864273" y1="586.3524650780801" x2="534.1066475923618" y2="586.3524650780801" />
 <line style="stroke-dasharray: 15, 10;stroke:red;stroke-width:4;" x1="529.2352244864273" y1="586.3524650780801" x2="465.8933524076381" y2="586.3524650780801" />
 <line style="stroke:blue;stroke-width:4;stroke-opacity:1" x1="531.3625277234854" y1="600.0474150458174" x2="539.7792816050196" y2="600.0474150458174" />
 <line style="stroke-dasharray: 15, 10;stroke:red;stroke-width:4;" x1="531.3625277234854" y1="600.0474150458174" x2="460.2207183949803" y2="600.0474150458174" />
 <line style="stroke:blue;stroke-width:4;stroke-opacity:1" x1="532.0513687716757" y1="613.5971271535827" x2="545.3917561263069" y2="613.5971271535827" />
 <line style="stroke-dasharray: 15, 10;stroke:red;stroke-width:4;" x1="532.0513687716757" y1="613.5971271535827" x2="454.608243873693" y2="613.5971271535827" />
 <line style="stroke:blue;stroke-width:4;stroke-opacity:1" x1="531.0383672302195" y1="627.3066472813042" x2="551.070425296836" y2="627.3066472813042" />
 <line style="stroke-dasharray: 15, 10;stroke:red;stroke-width:4;" x1="531.0383672302195" y1="627.3066472813042" x2="448.92957470316384" y2="627.3066472813042" />
 <line style="stroke:blue;stroke-width:4;stroke-opacity:1" x1="528.6193195492219" y1="641.357992275633" x2="556.8906829630704" y2="641.357992275633" />
 <line style="stroke-dasharray: 15, 10;stroke:red;stroke-width:4;" x1="528.6193195492219" y1="641.357992275633" x2="443.10931703692955" y2="641.357992275633" />
 <line style="stroke:blue;stroke-width:4;stroke-opacity:1" x1="525.0900221787883" y1="655.5255025605521" x2="562.7590578681442" y2="655.5255025605521" />
 <line style="stroke-dasharray: 15, 10;stroke:red;stroke-width:4;" x1="525.0900221787883" y1="655.5255025605521" x2="437.2409421318557" y2="655.5255025605521" />
 <line style="stroke:blue;stroke-width:4;stroke-opacity:1" x1="520.746271569024" y1="669.4140395766417" x2="568.5118782617292" y2="669.4140395766417" />
 <line style="stroke-dasharray: 15, 10;stroke:red;stroke-width:4;" x1="520.746271569024" y1="669.4140395766417" x2="431.4881217382707" y2="669.4140395766417" />
 <line style="stroke-dasharray: 15, 10;stroke:red;stroke-width:4;" x1="515.8838641700339" y1="682.6623139752701" x2="573.9994931956813" y2="682.6623139752701" />
 <line style="stroke:blue;stroke-width:4;stroke-opacity:1" x1="515.8838641700339" y1="682.6623139752701" x2="426.00050680431855" y2="682.6623139752701" />
 <line style="stroke-dasharray: 15, 10;stroke:red;stroke-width:4;" x1="510.4622799201601" y1="698.0939899193094" x2="580.391502661849" y2="698.0939899193094" />
 <line style="stroke:blue;stroke-width:4;stroke-opacity:1" x1="510.4622799201601" y1="698.0939899193094" x2="419.60849733815087" y2="698.0939899193094" />
 <line style="stroke-dasharray: 15, 10;stroke:red;stroke-width:4;" x1="502.07462715690235" y1="727.1806510323872" x2="592.439592179036" y2="727.1806510323872" />
 <line style="stroke:blue;stroke-width:4;stroke-opacity:1" x1="502.07462715690235" y1="727.1806510323872" x2="407.56040782096386" y2="727.1806510323872" />
 <line style="stroke-dasharray: 15, 10;stroke:red;stroke-width:4;" x1="497.77950062112785" y1="751.1028225511589" x2="602.3484800635266" y2="751.1028225511589" />
 <line style="stroke:blue;stroke-width:4;stroke-opacity:1" x1="497.77950062112785" y1="751.1028225511589" x2="397.6515199364732" y2="751.1028225511589" />
 <line style="stroke-dasharray: 15, 10;stroke:red;stroke-width:4;" x1="490.4372654486529" y1="798.7799298952314" x2="622.0969845401594" y2="798.7799298952314" />
 <line style="stroke:blue;stroke-width:4;stroke-opacity:1" x1="490.4372654486529" y1="798.7799298952314" x2="377.90301545984056" y2="798.7799298952314" />
 <line style="stroke-dasharray: 15, 10;stroke:red;stroke-width:4;" x1="482.58447749928405" y1="858.8776808863321" x2="646.9902880687944" y2="858.8776808863321" />
 <line style="stroke:blue;stroke-width:4;stroke-opacity:1" x1="482.58447749928405" y1="858.8776808863321" x2="353.0097119312055" y2="858.8776808863321" />
 <line style="stroke-dasharray: 15, 10;stroke:red;stroke-width:4;" x1="474.3913210319859" y1="927.3395750517975" x2="675.3481331378816" y2="927.3395750517975" />
 <line style="stroke:blue;stroke-width:4;stroke-opacity:1" x1="474.3913210319859" y1="927.3395750517975" x2="324.65186686211825" y2="927.3395750517975" />
 <line style="stroke-dasharray: 15, 10;stroke:red;stroke-width:4;" x1="468.1188154872888" y1="981.8348937629493" x2="697.920833233885" y2="981.8348937629493" />
 <line style="stroke:blue;stroke-width:4;stroke-opacity:1" x1="468.1188154872888" y1="981.8348937629493" x2="302.0791667661149" y2="981.8348937629493" />
 <line style="stroke:blue;stroke-width:4;stroke-opacity:1" x1="466.0279803057231" y1="1000.0" x2="705.4450665992194" y2="1000.0" />
 <line style="stroke-dasharray: 15, 10;stroke:red;stroke-width:4;" x1="466.0279803057231" y1="1000.0" x2="294.55493340078044" y2="1000.0" />
 <line style="stroke:blue;stroke-width:4;stroke-opacity:1" x1="499.99999999999994" y1="504.01173389352044" x2="503.54336323888606" y2="505.4921523855761" />
 <line style="stroke:blue;stroke-width:4;stroke-opacity:1" x1="503.54336323888606" y1="505.4921523855761" x2="514.1734529555443" y2="509.9334078617429" />
 <line style="stroke:blue;stroke-width:4;stroke-opacity:1" x1="514.1734529555443" y1="509.9334078617429" x2="528.0396325908685" y2="515.7770245927262" />
 <line style="stroke:blue;stroke-width:4;stroke-opacity:1" x1="528.0396325908685" y1="515.7770245927262" x2="541.3854095353776" y2="521.5586707988568" />
 <line style="stroke:blue;stroke-width:4;stroke-opacity:1" x1="541.3854095353776" y1="521.5586707988568" x2="554.2055156948909" y2="527.5022944689352" />
 <line style="stroke:blue;stroke-width:4;stroke-opacity:1" x1="554.2055156948909" y1="527.5022944689352" x2="566.8200126959023" y2="534.1571733124364" />
 <line style="stroke:blue;stroke-width:4;stroke-opacity:1" x1="566.8200126959023" y1="534.1571733124364" x2="578.8961148723245" y2="541.5629977981174" />
 <line style="stroke:blue;stroke-width:4;stroke-opacity:1" x1="578.8961148723245" y1="541.5629977981174" x2="590.084137407086" y2="549.7425592437511" />
 <line style="stroke:blue;stroke-width:4;stroke-opacity:1" x1="590.084137407086" y1="549.7425592437511" x2="600.1523148979472" y2="558.8365683819425" />
 <line style="stroke:blue;stroke-width:4;stroke-opacity:1" x1="600.1523148979472" y1="558.8365683819425" x2="609.1301092877563" y2="569.2469632903839" />
 <line style="stroke:blue;stroke-width:4;stroke-opacity:1" x1="609.1301092877563" y1="569.2469632903839" x2="617.355385598791" y2="580.8932896399124" />
 <line style="stroke:blue;stroke-width:4;stroke-opacity:1" x1="617.355385598791" y1="580.8932896399124" x2="624.8777380903301" y2="593.4068223383663" />
 <line style="stroke:blue;stroke-width:4;stroke-opacity:1" x1="624.8777380903301" y1="593.4068223383663" x2="631.6269212832196" y2="606.2989965551511" />
 <line style="stroke:blue;stroke-width:4;stroke-opacity:1" x1="631.6269212832196" y1="606.2989965551511" x2="637.5566247047925" y2="619.1051824661589" />
 <line style="stroke:blue;stroke-width:4;stroke-opacity:1" x1="637.5566247047925" y1="619.1051824661589" x2="644.634828422036" y2="633.8506641591223" />
 <line style="stroke:blue;stroke-width:4;stroke-opacity:1" x1="644.634828422036" y1="633.8506641591223" x2="659.2712375900309" y2="660.3490056213925" />
 <line style="stroke:blue;stroke-width:4;stroke-opacity:1" x1="659.2712375900309" y1="660.3490056213925" x2="673.1496541921615" y2="680.3016484225241" />
 <line style="stroke:blue;stroke-width:4;stroke-opacity:1" x1="673.1496541921615" y1="680.3016484225241" x2="701.6707158229907" y2="719.2061986123999" />
 <line style="stroke:blue;stroke-width:4;stroke-opacity:1" x1="701.6707158229907" y1="719.2061986123999" x2="738.6134834726398" y2="767.2544854824866" />
 <line style="stroke:blue;stroke-width:4;stroke-opacity:1" x1="738.6134834726398" y1="767.2544854824866" x2="781.2299165925672" y2="821.4577915971117" />
 <line style="stroke:blue;stroke-width:4;stroke-opacity:1" x1="781.2299165925672" y1="821.4577915971117" x2="815.3285947904593" y2="864.4271322063751" />
 <line style="stroke:blue;stroke-width:4;stroke-opacity:1" x1="815.3285947904593" y1="864.4271322063751" x2="826.6948208564233" y2="878.7502457427961" />
 <line style="stroke:blue;stroke-width:4;stroke-opacity:1" x1="826.6948208564233" y1="878.7502457427961" x2="826.6948208564233" y2="878.7502457427961" />
 <line style="stroke:blue;stroke-width:4;stroke-opacity:1" x1="503.54336323888606" y1="505.4921523855761" x2="503.55235012914994" y2="505.4831654953122" />
 <line style="stroke-dasharray: 15, 10;stroke:red;stroke-width:4;" x1="503.54336323888606" y1="505.4921523855761" x2="501.47143160179166" y2="507.5640840226704" />
 <line style="stroke:blue;stroke-width:4;stroke-opacity:1" x1="514.1734529555443" y1="509.9334078617429" x2="514.2094005165999" y2="509.89746030068744" />
 <line style="stroke-dasharray: 15, 10;stroke:red;stroke-width:4;" x1="514.1734529555443" y1="509.9334078617429" x2="505.8857264071669" y2="518.2211344101204" />
 <line style="stroke:blue;stroke-width:4;stroke-opacity:1" x1="528.0396325908685" y1="515.7770245927262" x2="528.1463311830217" y2="515.6703260005729" />
 <line style="stroke-dasharray: 15, 10;stroke:red;stroke-width:4;" x1="528.0396325908685" y1="515.7770245927262" x2="511.65859210705236" y2="532.1580650765422" />
 <line style="stroke:blue;stroke-width:4;stroke-opacity:1" x1="541.3854095353776" y1="521.5586707988568" x2="541.6714617994637" y2="521.2726185347707" />
 <line style="stroke-dasharray: 15, 10;stroke:red;stroke-width:4;" x1="541.3854095353776" y1="521.5586707988568" x2="517.2608846412502" y2="545.6831956929842" />
 <line style="stroke:blue;stroke-width:4;stroke-opacity:1" x1="554.2055156948909" y1="527.5022944689352" x2="554.9394224023204" y2="526.7683877615058" />
 <line style="stroke-dasharray: 15, 10;stroke:red;stroke-width:4;" x1="554.2055156948909" y1="527.5022944689352" x2="522.7566538679853" y2="558.9511562958409" />
 <line style="stroke:blue;stroke-width:4;stroke-opacity:1" x1="566.8200126959023" y1="534.1571733124364" x2="568.5649287312074" y2="532.4122572771313" />
 <line style="stroke-dasharray: 15, 10;stroke:red;stroke-width:4;" x1="566.8200126959023" y1="534.1571733124364" x2="528.4005233836108" y2="572.5766626247279" />
 <line style="stroke:blue;stroke-width:4;stroke-opacity:1" x1="578.8961148723245" y1="541.5629977981174" x2="582.3407311845596" y2="538.1183814858823" />
 <line style="stroke-dasharray: 15, 10;stroke:red;stroke-width:4;" x1="578.8961148723245" y1="541.5629977981174" x2="534.1066475923618" y2="586.3524650780801" />
 <line style="stroke:blue;stroke-width:4;stroke-opacity:1" x1="590.084137407086" y1="549.7425592437511" x2="596.035681152297" y2="543.7910154985401" />
 <line style="stroke-dasharray: 15, 10;stroke:red;stroke-width:4;" x1="590.084137407086" y1="549.7425592437511" x2="539.7792816050196" y2="600.0474150458174" />
 <line style="stroke:blue;stroke-width:4;stroke-opacity:1" x1="600.1523148979472" y1="558.8365683819425" x2="609.5853932600622" y2="549.4034900198274" />
 <line style="stroke-dasharray: 15, 10;stroke:red;stroke-width:4;" x1="600.1523148979472" y1="558.8365683819425" x2="545.3917561263069" y2="613.5971271535827" />
 <line style="stroke:blue;stroke-width:4;stroke-opacity:1" x1="609.1301092877563" y1="569.2469632903839" x2="623.2949133877837" y2="555.0821591903566" />
 <line style="stroke-dasharray: 15, 10;stroke:red;stroke-width:4;" x1="609.1301092877563" y1="569.2469632903839" x2="551.070425296836" y2="627.3066472813042" />
 <line style="stroke:blue;stroke-width:4;stroke-opacity:1" x1="617.355385598791" y1="580.8932896399124" x2="637.3462583821125" y2="560.9024168565909" />
 <line style="stroke-dasharray: 15, 10;stroke:red;stroke-width:4;" x1="617.355385598791" y1="580.8932896399124" x2="556.8906829630704" y2="641.357992275633" />
 <line style="stroke:blue;stroke-width:4;stroke-opacity:1" x1="624.8777380903301" y1="593.4068223383663" x2="651.5137686670316" y2="566.7707917616647" />
 <line style="stroke-dasharray: 15, 10;stroke:red;stroke-width:4;" x1="624.8777380903301" y1="593.4068223383663" x2="562.7590578681442" y2="655.5255025605521" />
 <line style="stroke:blue;stroke-width:4;stroke-opacity:1" x1="631.6269212832196" y1="606.2989965551511" x2="665.4023056831211" y2="572.5236121552497" />
 <line style="stroke-dasharray: 15, 10;stroke:red;stroke-width:4;" x1="631.6269212832196" y1="606.2989965551511" x2="568.5118782617292" y2="669.4140395766417" />
 <line style="stroke-dasharray: 15, 10;stroke:red;stroke-width:4;" x1="637.5566247047925" y1="619.1051824661589" x2="678.6505800817495" y2="578.0112270892018" />
 <line style="stroke:blue;stroke-width:4;stroke-opacity:1" x1="637.5566247047925" y1="619.1051824661589" x2="573.9994931956813" y2="682.6623139752701" />
 <line style="stroke-dasharray: 15, 10;stroke:red;stroke-width:4;" x1="644.634828422036" y1="633.8506641591223" x2="694.0822560257889" y2="584.4032365553696" />
 <line style="stroke:blue;stroke-width:4;stroke-opacity:1" x1="644.634828422036" y1="633.8506641591223" x2="580.391502661849" y2="698.0939899193094" />
 <line style="stroke-dasharray: 15, 10;stroke:red;stroke-width:4;" x1="659.2712375900309" y1="660.3490056213925" x2="723.1689171388668" y2="596.4513260725566" />
 <line style="stroke:blue;stroke-width:4;stroke-opacity:1" x1="659.2712375900309" y1="660.3490056213925" x2="592.439592179036" y2="727.1806510323872" />
 <line style="stroke-dasharray: 15, 10;stroke:red;stroke-width:4;" x1="673.1496541921615" y1="680.3016484225241" x2="747.0910886576385" y2="606.3602139570471" />
 <line style="stroke:blue;stroke-width:4;stroke-opacity:1" x1="673.1496541921615" y1="680.3016484225241" x2="602.3484800635266" y2="751.1028225511589" />
 <line style="stroke-dasharray: 15, 10;stroke:red;stroke-width:4;" x1="701.6707158229907" y1="719.2061986123999" x2="794.768196001711" y2="626.1087184336799" />
 <line style="stroke:blue;stroke-width:4;stroke-opacity:1" x1="701.6707158229907" y1="719.2061986123999" x2="622.0969845401594" y2="798.7799298952314" />
 <line style="stroke-dasharray: 15, 10;stroke:red;stroke-width:4;" x1="738.6134834726398" y1="767.2544854824866" x2="854.8659469928115" y2="651.002021962315" />
 <line style="stroke:blue;stroke-width:4;stroke-opacity:1" x1="738.6134834726398" y1="767.2544854824866" x2="646.9902880687944" y2="858.8776808863321" />
 <line style="stroke-dasharray: 15, 10;stroke:red;stroke-width:4;" x1="781.2299165925672" y1="821.4577915971117" x2="923.3278411582769" y2="679.359867031402" />
 <line style="stroke:blue;stroke-width:4;stroke-opacity:1" x1="781.2299165925672" y1="821.4577915971117" x2="675.3481331378816" y2="927.3395750517975" />
 <line style="stroke-dasharray: 15, 10;stroke:red;stroke-width:4;" x1="815.3285947904593" y1="864.4271322063751" x2="977.8231598694288" y2="701.9325671274055" />
 <line style="stroke:blue;stroke-width:4;stroke-opacity:1" x1="815.3285947904593" y1="864.4271322063751" x2="697.920833233885" y2="981.8348937629493" />
 <line style="stroke:blue;stroke-width:4;stroke-opacity:1" x1="826.6948208564233" y1="878.7502457427961" x2="995.9882661064796" y2="709.4568004927401" />
 <line style="stroke-dasharray: 15, 10;stroke:red;stroke-width:4;" x1="826.6948208564233" y1="878.7502457427961" x2="705.4450665992194" y2="1000.0" />
 <line style="stroke:blue;stroke-width:4;stroke-opacity:1" x1="499.99999999999994" y1="504.01173389352044" x2="503.55235012914994" y2="502.5530116738235" />
 <line style="stroke:blue;stroke-width:4;stroke-opacity:1" x1="503.55235012914994" y1="502.5530116738235" x2="514.2094005165999" y2="498.17684501473246" />
 <line style="stroke:blue;stroke-width:4;stroke-opacity:1" x1="514.2094005165999" y1="498.17684501473246" x2="528.1463311830217" y2="492.50403638257745" />
 <line style="stroke:blue;stroke-width:4;stroke-opacity:1" x1="528.1463311830217" y1="492.50403638257745" x2="541.6714617994637" y2="487.1553882436885" />
 <line style="stroke:blue;stroke-width:4;stroke-opacity:1" x1="541.6714617994637" y1="487.1553882436885" x2="554.9394224023204" y2="482.2929808446985" />
 <line style="stroke:blue;stroke-width:4;stroke-opacity:1" x1="554.9394224023204" y1="482.2929808446985" x2="568.5649287312074" y2="478.0788944322405" />
 <line style="stroke:blue;stroke-width:4;stroke-opacity:1" x1="568.5649287312074" y1="478.0788944322405" x2="582.3407311845596" y2="474.7765094070931" />
 <line style="stroke:blue;stroke-width:4;stroke-opacity:1" x1="582.3407311845596" y1="474.7765094070931" x2="596.035681152297" y2="472.649206170035" />
 <line style="stroke:blue;stroke-width:4;stroke-opacity:1" x1="596.035681152297" y1="472.649206170035" x2="609.5853932600622" y2="471.9603651218447" />
 <line style="stroke:blue;stroke-width:4;stroke-opacity:1" x1="609.5853932600622" y1="471.9603651218447" x2="623.2949133877837" y2="472.97336666330096" />
 <line style="stroke:blue;stroke-width:4;stroke-opacity:1" x1="623.2949133877837" y1="472.97336666330096" x2="637.3462583821125" y2="475.39241434429846" />
 <line style="stroke:blue;stroke-width:4;stroke-opacity:1" x1="637.3462583821125" y1="475.39241434429846" x2="651.5137686670316" y2="478.92171171473206" />
 <line style="stroke:blue;stroke-width:4;stroke-opacity:1" x1="651.5137686670316" y1="478.92171171473206" x2="665.4023056831211" y2="483.2654623244964" />
 <line style="stroke:blue;stroke-width:4;stroke-opacity:1" x1="665.4023056831211" y1="483.2654623244964" x2="678.6505800817495" y2="488.12786972348647" />
 <line style="stroke:blue;stroke-width:4;stroke-opacity:1" x1="678.6505800817495" y1="488.12786972348647" x2="694.0822560257889" y2="493.5494539733603" />
 <line style="stroke:blue;stroke-width:4;stroke-opacity:1" x1="694.0822560257889" y1="493.5494539733603" x2="723.1689171388668" y2="501.93710673661815" />
 <line style="stroke:blue;stroke-width:4;stroke-opacity:1" x1="723.1689171388668" y1="501.93710673661815" x2="747.0910886576385" y2="506.2322332723926" />
 <line style="stroke:blue;stroke-width:4;stroke-opacity:1" x1="747.0910886576385" y1="506.2322332723926" x2="794.768196001711" y2="513.5744684448675" />
 <line style="stroke:blue;stroke-width:4;stroke-opacity:1" x1="794.768196001711" y1="513.5744684448675" x2="854.8659469928116" y2="521.4272563942363" />
 <line style="stroke:blue;stroke-width:4;stroke-opacity:1" x1="854.8659469928116" y1="521.4272563942363" x2="923.3278411582769" y2="529.6204128615345" />
 <line style="stroke:blue;stroke-width:4;stroke-opacity:1" x1="923.3278411582769" y1="529.6204128615345" x2="977.8231598694288" y2="535.8929184062316" />
 <line style="stroke:blue;stroke-width:4;stroke-opacity:1" x1="977.8231598694288" y1="535.8929184062316" x2="995.9882661064796" y2="537.9837535877973" />
 <line style="stroke:blue;stroke-width:4;stroke-opacity:1" x1="995.9882661064796" y1="537.9837535877973" x2="995.9882661064796" y2="537.9837535877973" />
 <line style="stroke:blue;stroke-width:4;stroke-opacity:1" x1="503.55235012914994" y1="502.5530116738235" x2="503.55235012914994" y2="502.5403022917287" />
 <line style="stroke-dasharray: 15, 10;stroke:red;stroke-width:4;" x1="503.55235012914994" y1="502.5530116738235" x2="503.55235012914994" y2="505.4831654953122" />
 <line style="stroke:blue;stroke-width:4;stroke-opacity:1" x1="514.2094005165999" y1="498.17684501473246" x2="514.2094005165999" y2="498.12600748635356" />
 <line style="stroke-dasharray: 15, 10;stroke:red;stroke-width:4;" x1="514.2094005165999" y1="498.17684501473246" x2="514.2094005165999" y2="509.89746030068744" />
 <line style="stroke:blue;stroke-width:4;stroke-opacity:1" x1="528.1463311830217" y1="492.50403638257745" x2="528.1463311830217" y2="492.35314178646803" />
 <line style="stroke-dasharray: 15, 10;stroke:red;stroke-width:4;" x1="528.1463311830217" y1="492.50403638257745" x2="528.1463311830217" y2="515.6703260005729" />
 <line style="stroke:blue;stroke-width:4;stroke-opacity:1" x1="541.6714617994637" y1="487.1553882436885" x2="541.6714617994637" y2="486.75084925227026" />
 <line style="stroke-dasharray: 15, 10;stroke:red;stroke-width:4;" x1="541.6714617994637" y1="487.1553882436885" x2="541.6714617994637" y2="521.2726185347707" />
 <line style="stroke:blue;stroke-width:4;stroke-opacity:1" x1="554.9394224023204" y1="482.2929808446985" x2="554.9394224023204" y2="481.2550800255351" />
 <line style="stroke-dasharray: 15, 10;stroke:red;stroke-width:4;" x1="554.9394224023204" y1="482.2929808446985" x2="554.9394224023204" y2="526.7683877615058" />
 <line style="stroke:blue;stroke-width:4;stroke-opacity:1" x1="568.5649287312074" y1="478.0788944322405" x2="568.5649287312074" y2="475.6112105099096" />
 <line style="stroke-dasharray: 15, 10;stroke:red;stroke-width:4;" x1="568.5649287312074" y1="478.0788944322405" x2="568.5649287312074" y2="532.4122572771313" />
 <line style="stroke:blue;stroke-width:4;stroke-opacity:1" x1="582.3407311845596" y1="474.7765094070931" x2="582.3407311845596" y2="469.90508630115863" />
 <line style="stroke-dasharray: 15, 10;stroke:red;stroke-width:4;" x1="582.3407311845596" y1="474.7765094070931" x2="582.3407311845596" y2="538.1183814858823" />
 <line style="stroke:blue;stroke-width:4;stroke-opacity:1" x1="596.035681152297" y1="472.649206170035" x2="596.035681152297" y2="464.23245228850084" />
 <line style="stroke-dasharray: 15, 10;stroke:red;stroke-width:4;" x1="596.035681152297" y1="472.649206170035" x2="596.035681152297" y2="543.7910154985401" />
 <line style="stroke:blue;stroke-width:4;stroke-opacity:1" x1="609.5853932600622" y1="471.9603651218447" x2="609.5853932600622" y2="458.6199777672135" />
 <line style="stroke-dasharray: 15, 10;stroke:red;stroke-width:4;" x1="609.5853932600622" y1="471.9603651218447" x2="609.5853932600622" y2="549.4034900198275" />
 <line style="stroke:blue;stroke-width:4;stroke-opacity:1" x1="623.2949133877837" y1="472.97336666330096" x2="623.2949133877837" y2="452.94130859668434" />
 <line style="stroke-dasharray: 15, 10;stroke:red;stroke-width:4;" x1="623.2949133877837" y1="472.97336666330096" x2="623.2949133877837" y2="555.0821591903566" />
 <line style="stroke:blue;stroke-width:4;stroke-opacity:1" x1="637.3462583821125" y1="475.39241434429846" x2="637.3462583821125" y2="447.1210509304501" />
 <line style="stroke-dasharray: 15, 10;stroke:red;stroke-width:4;" x1="637.3462583821125" y1="475.39241434429846" x2="637.3462583821125" y2="560.9024168565909" />
 <line style="stroke:blue;stroke-width:4;stroke-opacity:1" x1="651.5137686670316" y1="478.92171171473206" x2="651.5137686670316" y2="441.2526760253763" />
 <line style="stroke-dasharray: 15, 10;stroke:red;stroke-width:4;" x1="651.5137686670316" y1="478.92171171473206" x2="651.5137686670316" y2="566.7707917616647" />
 <line style="stroke:blue;stroke-width:4;stroke-opacity:1" x1="665.4023056831211" y1="483.2654623244964" x2="665.4023056831211" y2="435.49985563179126" />
 <line style="stroke-dasharray: 15, 10;stroke:red;stroke-width:4;" x1="665.4023056831211" y1="483.2654623244964" x2="665.4023056831211" y2="572.5236121552497" />
 <line style="stroke-dasharray: 15, 10;stroke:red;stroke-width:4;" x1="678.6505800817495" y1="488.12786972348647" x2="678.6505800817495" y2="430.01224069783916" />
 <line style="stroke:blue;stroke-width:4;stroke-opacity:1" x1="678.6505800817495" y1="488.12786972348647" x2="678.6505800817495" y2="578.0112270892018" />
 <line style="stroke-dasharray: 15, 10;stroke:red;stroke-width:4;" x1="694.0822560257889" y1="493.5494539733603" x2="694.0822560257889" y2="423.6202312316714" />
 <line style="stroke:blue;stroke-width:4;stroke-opacity:1" x1="694.0822560257889" y1="493.5494539733603" x2="694.0822560257889" y2="584.4032365553696" />
 <line style="stroke-dasharray: 15, 10;stroke:red;stroke-width:4;" x1="723.1689171388668" y1="501.93710673661815" x2="723.1689171388668" y2="411.57214171448436" />
 <line style="stroke:blue;stroke-width:4;stroke-opacity:1" x1="723.1689171388668" y1="501.93710673661815" x2="723.1689171388668" y2="596.4513260725566" />
 <line style="stroke-dasharray: 15, 10;stroke:red;stroke-width:4;" x1="747.0910886576385" y1="506.2322332723926" x2="747.0910886576385" y2="401.6632538299938" />
 <line style="stroke:blue;stroke-width:4;stroke-opacity:1" x1="747.0910886576385" y1="506.2322332723926" x2="747.0910886576385" y2="606.3602139570471" />
 <line style="stroke-dasharray: 15, 10;stroke:red;stroke-width:4;" x1="794.768196001711" y1="513.5744684448675" x2="794.768196001711" y2="381.9147493533611" />
 <line style="stroke:blue;stroke-width:4;stroke-opacity:1" x1="794.768196001711" y1="513.5744684448675" x2="794.768196001711" y2="626.1087184336799" />
 <line style="stroke-dasharray: 15, 10;stroke:red;stroke-width:4;" x1="854.8659469928116" y1="521.4272563942363" x2="854.8659469928116" y2="357.02144582472613" />
 <line style="stroke:blue;stroke-width:4;stroke-opacity:1" x1="854.8659469928116" y1="521.4272563942363" x2="854.8659469928116" y2="651.002021962315" />
 <line style="stroke-dasharray: 15, 10;stroke:red;stroke-width:4;" x1="923.3278411582769" y1="529.6204128615345" x2="923.3278411582769" y2="328.66360075563887" />
 <line style="stroke:blue;stroke-width:4;stroke-opacity:1" x1="923.3278411582769" y1="529.6204128615345" x2="923.3278411582769" y2="679.3598670314021" />
 <line style="stroke-dasharray: 15, 10;stroke:red;stroke-width:4;" x1="977.8231598694288" y1="535.8929184062316" x2="977.8231598694288" y2="306.0909006596355" />
 <line style="stroke:blue;stroke-width:4;stroke-opacity:1" x1="977.8231598694288" y1="535.8929184062316" x2="977.8231598694288" y2="701.9325671274055" />
 <line style="stroke:blue;stroke-width:4;stroke-opacity:1" x1="995.9882661064796" y1="537.9837535877973" x2="995.9882661064796" y2="298.56666729430106" />
 <line style="stroke-dasharray: 15, 10;stroke:red;stroke-width:4;" x1="995.9882661064796" y1="537.9837535877973" x2="995.9882661064796" y2="709.4568004927401" />
 <line style="stroke:blue;stroke-width:4;stroke-opacity:1" x1="499.99999999999994" y1="504.01173389352044" x2="501.48041849205555" y2="500.4683706546343" />
 <line style="stroke:blue;stroke-width:4;stroke-opacity:1" x1="501.48041849205555" y1="500.4683706546343" x2="505.9216739682224" y2="489.83828093797604" />
 <line style="stroke:blue;stroke-width:4;stroke-opacity:1" x1="505.9216739682224" y1="489.83828093797604" x2="511.7652906992057" y2="475.97210130265194" />
 <line style="stroke:blue;stroke-width:4;stroke-opacity:1" x1="511.7652906992057" y1="475.97210130265194" x2="517.5469369053365" y2="462.6263243581429" />
 <line style="stroke:blue;stroke-width:4;stroke-opacity:1" x1="517.5469369053365" y1="462.6263243581429" x2="523.4905605754147" y2="449.80621819862955" />
 <line style="stroke:blue;stroke-width:4;stroke-opacity:1" x1="523.4905605754147" y1="449.80621819862955" x2="530.1454394189159" y2="437.19172119761816" />
 <line style="stroke:blue;stroke-width:4;stroke-opacity:1" x1="530.1454394189159" y1="437.19172119761816" x2="537.5512639045969" y2="425.1156190211959" />
 <line style="stroke:blue;stroke-width:4;stroke-opacity:1" x1="537.5512639045969" y1="425.1156190211959" x2="545.7308253502306" y2="413.9275964864345" />
 <line style="stroke:blue;stroke-width:4;stroke-opacity:1" x1="545.7308253502306" y1="413.9275964864345" x2="554.824834488422" y2="403.85941899557315" />
 <line style="stroke:blue;stroke-width:4;stroke-opacity:1" x1="554.824834488422" y1="403.85941899557315" x2="565.2352293968634" y2="394.88162460576405" />
 <line style="stroke:blue;stroke-width:4;stroke-opacity:1" x1="565.2352293968634" y1="394.88162460576405" x2="576.8815557463919" y2="386.6563482947294" />
 <line style="stroke:blue;stroke-width:4;stroke-opacity:1" x1="576.8815557463919" y1="386.6563482947294" x2="589.3950884448458" y2="379.1339958031904" />
 <line style="stroke:blue;stroke-width:4;stroke-opacity:1" x1="589.3950884448458" y1="379.1339958031904" x2="602.2872626616306" y2="372.38481261030074" />
 <line style="stroke:blue;stroke-width:4;stroke-opacity:1" x1="602.2872626616306" y1="372.38481261030074" x2="615.0934485726384" y2="366.45510918872793" />
 <line style="stroke:blue;stroke-width:4;stroke-opacity:1" x1="615.0934485726384" y1="366.45510918872793" x2="629.8389302656019" y2="359.37690547148435" />
 <line style="stroke:blue;stroke-width:4;stroke-opacity:1" x1="629.8389302656019" y1="359.37690547148435" x2="656.337271727872" y2="344.7404963034895" />
 <line style="stroke:blue;stroke-width:4;stroke-opacity:1" x1="656.337271727872" y1="344.7404963034895" x2="676.2899145290036" y2="330.8620797013589" />
 <line style="stroke:blue;stroke-width:4;stroke-opacity:1" x1="676.2899145290036" y1="330.8620797013589" x2="715.1944647188795" y2="302.3410180705297" />
 <line style="stroke:blue;stroke-width:4;stroke-opacity:1" x1="715.1944647188795" y1="302.3410180705297" x2="763.242751588966" y2="265.3982504208806" />
 <line style="stroke:blue;stroke-width:4;stroke-opacity:1" x1="763.242751588966" y1="265.3982504208806" x2="817.4460577035914" y2="222.7818173009532" />
 <line style="stroke:blue;stroke-width:4;stroke-opacity:1" x1="817.4460577035914" y1="222.7818173009532" x2="860.4153983128546" y2="188.6831391030611" />
 <line style="stroke:blue;stroke-width:4;stroke-opacity:1" x1="860.4153983128546" y1="188.6831391030611" x2="874.7385118492757" y2="177.3169130370971" />
 <line style="stroke:blue;stroke-width:4;stroke-opacity:1" x1="874.7385118492757" y1="177.3169130370971" x2="874.7385118492757" y2="177.3169130370971" />
 <line style="stroke:blue;stroke-width:4;stroke-opacity:1" x1="501.48041849205555" y1="500.4683706546343" x2="501.47143160179166" y2="500.4593837643705" />
 <line style="stroke-dasharray: 15, 10;stroke:red;stroke-width:4;" x1="501.48041849205555" y1="500.4683706546343" x2="503.55235012914994" y2="502.5403022917287" />
 <line style="stroke:blue;stroke-width:4;stroke-opacity:1" x1="505.9216739682224" y1="489.83828093797604" x2="505.8857264071669" y2="489.80233337692056" />
 <line style="stroke-dasharray: 15, 10;stroke:red;stroke-width:4;" x1="505.9216739682224" y1="489.83828093797604" x2="514.2094005165999" y2="498.12600748635356" />
 <line style="stroke:blue;stroke-width:4;stroke-opacity:1" x1="511.7652906992057" y1="475.97210130265194" x2="511.65859210705236" y2="475.86540271049864" />
 <line style="stroke-dasharray: 15, 10;stroke:red;stroke-width:4;" x1="511.7652906992057" y1="475.97210130265194" x2="528.1463311830217" y2="492.35314178646803" />
 <line style="stroke:blue;stroke-width:4;stroke-opacity:1" x1="517.5469369053365" y1="462.6263243581429" x2="517.2608846412502" y2="462.3402720940567" />
 <line style="stroke-dasharray: 15, 10;stroke:red;stroke-width:4;" x1="517.5469369053365" y1="462.6263243581429" x2="541.6714617994637" y2="486.75084925227026" />
 <line style="stroke:blue;stroke-width:4;stroke-opacity:1" x1="523.4905605754147" y1="449.80621819862955" x2="522.7566538679853" y2="449.0723114912001" />
 <line style="stroke-dasharray: 15, 10;stroke:red;stroke-width:4;" x1="523.4905605754147" y1="449.80621819862955" x2="554.9394224023204" y2="481.2550800255351" />
 <line style="stroke:blue;stroke-width:4;stroke-opacity:1" x1="530.1454394189159" y1="437.19172119761816" x2="528.4005233836108" y2="435.446805162313" />
 <line style="stroke-dasharray: 15, 10;stroke:red;stroke-width:4;" x1="530.1454394189159" y1="437.19172119761816" x2="568.5649287312074" y2="475.6112105099096" />
 <line style="stroke:blue;stroke-width:4;stroke-opacity:1" x1="537.5512639045969" y1="425.1156190211959" x2="534.1066475923618" y2="421.6710027089608" />
 <line style="stroke-dasharray: 15, 10;stroke:red;stroke-width:4;" x1="537.5512639045969" y1="425.1156190211959" x2="582.3407311845596" y2="469.90508630115863" />
 <line style="stroke:blue;stroke-width:4;stroke-opacity:1" x1="545.7308253502306" y1="413.9275964864345" x2="539.7792816050196" y2="407.9760527412235" />
 <line style="stroke-dasharray: 15, 10;stroke:red;stroke-width:4;" x1="545.7308253502306" y1="413.9275964864345" x2="596.035681152297" y2="464.23245228850084" />
 <line style="stroke:blue;stroke-width:4;stroke-opacity:1" x1="554.824834488422" y1="403.85941899557315" x2="545.391756126307" y2="394.4263406334582" />
 <line style="stroke-dasharray: 15, 10;stroke:red;stroke-width:4;" x1="554.824834488422" y1="403.85941899557315" x2="609.5853932600622" y2="458.6199777672135" />
 <line style="stroke:blue;stroke-width:4;stroke-opacity:1" x1="565.2352293968634" y1="394.88162460576405" x2="551.0704252968361" y2="380.7168205057367" />
 <line style="stroke-dasharray: 15, 10;stroke:red;stroke-width:4;" x1="565.2352293968634" y1="394.88162460576405" x2="623.2949133877837" y2="452.94130859668434" />
 <line style="stroke:blue;stroke-width:4;stroke-opacity:1" x1="576.8815557463919" y1="386.6563482947294" x2="556.8906829630704" y2="366.665475511408" />
 <line style="stroke-dasharray: 15, 10;stroke:red;stroke-width:4;" x1="576.8815557463919" y1="386.6563482947294" x2="637.3462583821125" y2="447.1210509304501" />
 <line style="stroke:blue;stroke-width:4;stroke-opacity:1" x1="589.3950884448458" y1="379.1339958031904" x2="562.7590578681442" y2="352.4979652264887" />
 <line style="stroke-dasharray: 15, 10;stroke:red;stroke-width:4;" x1="589.3950884448458" y1="379.1339958031904" x2="651.5137686670317" y2="441.2526760253763" />
 <line style="stroke:blue;stroke-width:4;stroke-opacity:1" x1="602.2872626616306" y1="372.38481261030074" x2="568.5118782617292" y2="338.60942821039936" />
 <line style="stroke-dasharray: 15, 10;stroke:red;stroke-width:4;" x1="602.2872626616306" y1="372.38481261030074" x2="665.4023056831211" y2="435.49985563179126" />
 <line style="stroke-dasharray: 15, 10;stroke:red;stroke-width:4;" x1="615.0934485726384" y1="366.45510918872793" x2="573.9994931956813" y2="325.3611538117709" />
 <line style="stroke:blue;stroke-width:4;stroke-opacity:1" x1="615.0934485726384" y1="366.45510918872793" x2="678.6505800817495" y2="430.0122406978391" />
 <line style="stroke-dasharray: 15, 10;stroke:red;stroke-width:4;" x1="629.8389302656019" y1="359.37690547148435" x2="580.391502661849" y2="309.9294778677316" />
 <line style="stroke:blue;stroke-width:4;stroke-opacity:1" x1="629.8389302656019" y1="359.37690547148435" x2="694.0822560257889" y2="423.62023123167137" />
 <line style="stroke-dasharray: 15, 10;stroke:red;stroke-width:4;" x1="656.337271727872" y1="344.7404963034895" x2="592.4395921790361" y2="280.8428167546536" />
 <line style="stroke:blue;stroke-width:4;stroke-opacity:1" x1="656.337271727872" y1="344.7404963034895" x2="723.1689171388668" y2="411.57214171448436" />
 <line style="stroke-dasharray: 15, 10;stroke:red;stroke-width:4;" x1="676.2899145290036" y1="330.8620797013589" x2="602.3484800635267" y2="256.920645235882" />
 <line style="stroke:blue;stroke-width:4;stroke-opacity:1" x1="676.2899145290036" y1="330.8620797013589" x2="747.0910886576385" y2="401.6632538299938" />
 <line style="stroke-dasharray: 15, 10;stroke:red;stroke-width:4;" x1="715.1944647188795" y1="302.3410180705297" x2="622.0969845401594" y2="209.24353789180955" />
 <line style="stroke:blue;stroke-width:4;stroke-opacity:1" x1="715.1944647188795" y1="302.3410180705297" x2="794.768196001711" y2="381.9147493533611" />
 <line style="stroke-dasharray: 15, 10;stroke:red;stroke-width:4;" x1="763.242751588966" y1="265.3982504208806" x2="646.9902880687944" y2="149.1457869007089" />
 <line style="stroke:blue;stroke-width:4;stroke-opacity:1" x1="763.242751588966" y1="265.3982504208806" x2="854.8659469928116" y2="357.02144582472613" />
 <line style="stroke-dasharray: 15, 10;stroke:red;stroke-width:4;" x1="817.4460577035914" y1="222.7818173009532" x2="675.3481331378816" y2="80.68389273524353" />
 <line style="stroke:blue;stroke-width:4;stroke-opacity:1" x1="817.4460577035914" y1="222.7818173009532" x2="923.3278411582769" y2="328.66360075563887" />
 <line style="stroke-dasharray: 15, 10;stroke:red;stroke-width:4;" x1="860.4153983128546" y1="188.6831391030611" x2="697.9208332338851" y2="26.188574024091622" />
 <line style="stroke:blue;stroke-width:4;stroke-opacity:1" x1="860.4153983128546" y1="188.6831391030611" x2="977.8231598694288" y2="306.0909006596355" />
 <line style="stroke:blue;stroke-width:4;stroke-opacity:1" x1="874.7385118492757" y1="177.3169130370971" x2="705.4450665992196" y2="8.023467787040914" />
 <line style="stroke-dasharray: 15, 10;stroke:red;stroke-width:4;" x1="874.7385118492757" y1="177.3169130370971" x2="995.9882661064796" y2="298.566667294301" />
 <line style="stroke:blue;stroke-width:4;stroke-opacity:1" x1="499.99999999999994" y1="504.01173389352044" x2="498.54127778030295" y2="500.4593837643705" />
 <line style="stroke:blue;stroke-width:4;stroke-opacity:1" x1="498.54127778030295" y1="500.4593837643705" x2="494.16511112121196" y2="489.80233337692056" />
 <line style="stroke:blue;stroke-width:4;stroke-opacity:1" x1="494.16511112121196" y1="489.80233337692056" x2="488.49230248905695" y2="475.86540271049864" />
 <line style="stroke:blue;stroke-width:4;stroke-opacity:1" x1="488.49230248905695" y1="475.86540271049864" x2="483.14365435016794" y2="462.3402720940567" />
 <line style="stroke:blue;stroke-width:4;stroke-opacity:1" x1="483.14365435016794" y1="462.3402720940567" x2="478.28124695117793" y2="449.0723114912001" />
 <line style="stroke:blue;stroke-width:4;stroke-opacity:1" x1="478.28124695117793" y1="449.0723114912001" x2="474.06716053872" y2="435.446805162313" />
 <line style="stroke:blue;stroke-width:4;stroke-opacity:1" x1="474.06716053872" y1="435.446805162313" x2="470.7647755135726" y2="421.6710027089608" />
 <line style="stroke:blue;stroke-width:4;stroke-opacity:1" x1="470.7647755135726" y1="421.6710027089608" x2="468.6374722765145" y2="407.9760527412235" />
 <line style="stroke:blue;stroke-width:4;stroke-opacity:1" x1="468.6374722765145" y1="407.9760527412235" x2="467.9486312283242" y2="394.4263406334582" />
 <line style="stroke:blue;stroke-width:4;stroke-opacity:1" x1="467.9486312283242" y1="394.4263406334582" x2="468.96163276978046" y2="380.7168205057367" />
 <line style="stroke:blue;stroke-width:4;stroke-opacity:1" x1="468.96163276978046" y1="380.7168205057367" x2="471.38068045077796" y2="366.665475511408" />
 <line style="stroke:blue;stroke-width:4;stroke-opacity:1" x1="471.38068045077796" y1="366.665475511408" x2="474.90997782121156" y2="352.4979652264887" />
 <line style="stroke:blue;stroke-width:4;stroke-opacity:1" x1="474.90997782121156" y1="352.4979652264887" x2="479.25372843097597" y2="338.60942821039936" />
 <line style="stroke:blue;stroke-width:4;stroke-opacity:1" x1="479.25372843097597" y1="338.60942821039936" x2="484.11613582996597" y2="325.3611538117709" />
 <line style="stroke:blue;stroke-width:4;stroke-opacity:1" x1="484.11613582996597" y1="325.3611538117709" x2="489.53772007983986" y2="309.9294778677316" />
 <line style="stroke:blue;stroke-width:4;stroke-opacity:1" x1="489.53772007983986" y1="309.9294778677316" x2="497.9253728430976" y2="280.8428167546536" />
 <line style="stroke:blue;stroke-width:4;stroke-opacity:1" x1="497.9253728430976" y1="280.8428167546536" x2="502.2204993788721" y2="256.920645235882" />
 <line style="stroke:blue;stroke-width:4;stroke-opacity:1" x1="502.2204993788721" y1="256.920645235882" x2="509.56273455134703" y2="209.24353789180955" />
 <line style="stroke:blue;stroke-width:4;stroke-opacity:1" x1="509.56273455134703" y1="209.24353789180955" x2="517.4155225007158" y2="149.1457869007089" />
 <line style="stroke:blue;stroke-width:4;stroke-opacity:1" x1="517.4155225007158" y1="149.1457869007089" x2="525.608678968014" y2="80.68389273524353" />
 <line style="stroke:blue;stroke-width:4;stroke-opacity:1" x1="525.608678968014" y1="80.68389273524353" x2="531.8811845127111" y2="26.188574024091622" />
 <line style="stroke:blue;stroke-width:4;stroke-opacity:1" x1="531.8811845127111" y1="26.188574024091622" x2="533.9720196942769" y2="8.023467787040914" />
 <line style="stroke:blue;stroke-width:4;stroke-opacity:1" x1="533.9720196942769" y1="8.023467787040914" x2="533.9720196942769" y2="8.023467787040914" />
 <line style="stroke:blue;stroke-width:4;stroke-opacity:1" x1="498.54127778030295" y1="500.4593837643705" x2="498.5285683982082" y2="500.4593837643705" />
 <line style="stroke-dasharray: 15, 10;stroke:red;stroke-width:4;" x1="498.54127778030295" y1="500.4593837643705" x2="501.47143160179166" y2="500.4593837643705" />
 <line style="stroke:blue;stroke-width:4;stroke-opacity:1" x1="494.16511112121196" y1="489.80233337692056" x2="494.114273592833" y2="489.80233337692056" />
 <line style="stroke-dasharray: 15, 10;stroke:red;stroke-width:4;" x1="494.16511112121196" y1="489.80233337692056" x2="505.8857264071669" y2="489.80233337692056" />
 <line style="stroke:blue;stroke-width:4;stroke-opacity:1" x1="488.49230248905695" y1="475.86540271049864" x2="488.34140789294753" y2="475.86540271049864" />
 <line style="stroke-dasharray: 15, 10;stroke:red;stroke-width:4;" x1="488.49230248905695" y1="475.86540271049864" x2="511.65859210705236" y2="475.86540271049864" />
 <line style="stroke:blue;stroke-width:4;stroke-opacity:1" x1="483.14365435016794" y1="462.3402720940567" x2="482.7391153587497" y2="462.3402720940567" />
 <line style="stroke-dasharray: 15, 10;stroke:red;stroke-width:4;" x1="483.14365435016794" y1="462.3402720940567" x2="517.2608846412502" y2="462.3402720940567" />
 <line style="stroke:blue;stroke-width:4;stroke-opacity:1" x1="478.28124695117793" y1="449.0723114912001" x2="477.2433461320146" y2="449.0723114912001" />
 <line style="stroke-dasharray: 15, 10;stroke:red;stroke-width:4;" x1="478.28124695117793" y1="449.0723114912001" x2="522.7566538679853" y2="449.0723114912001" />
 <line style="stroke:blue;stroke-width:4;stroke-opacity:1" x1="474.06716053872" y1="435.446805162313" x2="471.59947661638915" y2="435.446805162313" />
 <line style="stroke-dasharray: 15, 10;stroke:red;stroke-width:4;" x1="474.06716053872" y1="435.446805162313" x2="528.4005233836108" y2="435.446805162313" />
 <line style="stroke:blue;stroke-width:4;stroke-opacity:1" x1="470.7647755135726" y1="421.6710027089608" x2="465.89335240763813" y2="421.6710027089608" />
 <line style="stroke-dasharray: 15, 10;stroke:red;stroke-width:4;" x1="470.7647755135726" y1="421.6710027089608" x2="534.1066475923618" y2="421.6710027089608" />
 <line style="stroke:blue;stroke-width:4;stroke-opacity:1" x1="468.6374722765145" y1="407.9760527412235" x2="460.22071839498034" y2="407.9760527412235" />
 <line style="stroke-dasharray: 15, 10;stroke:red;stroke-width:4;" x1="468.6374722765145" y1="407.9760527412235" x2="539.7792816050196" y2="407.9760527412235" />
 <line style="stroke:blue;stroke-width:4;stroke-opacity:1" x1="467.9486312283242" y1="394.4263406334582" x2="454.608243873693" y2="394.4263406334582" />
 <line style="stroke-dasharray: 15, 10;stroke:red;stroke-width:4;" x1="467.9486312283242" y1="394.4263406334582" x2="545.391756126307" y2="394.4263406334582" />
 <line style="stroke:blue;stroke-width:4;stroke-opacity:1" x1="468.96163276978046" y1="380.7168205057367" x2="448.9295747031639" y2="380.7168205057367" />
 <line style="stroke-dasharray: 15, 10;stroke:red;stroke-width:4;" x1="468.96163276978046" y1="380.7168205057367" x2="551.0704252968361" y2="380.7168205057368" />
 <line style="stroke:blue;stroke-width:4;stroke-opacity:1" x1="471.38068045077796" y1="366.665475511408" x2="443.1093170369296" y2="366.665475511408" />
 <line style="stroke-dasharray: 15, 10;stroke:red;stroke-width:4;" x1="471.38068045077796" y1="366.665475511408" x2="556.8906829630704" y2="366.665475511408" />
 <line style="stroke:blue;stroke-width:4;stroke-opacity:1" x1="474.90997782121156" y1="352.4979652264887" x2="437.2409421318558" y2="352.4979652264887" />
 <line style="stroke-dasharray: 15, 10;stroke:red;stroke-width:4;" x1="474.90997782121156" y1="352.4979652264887" x2="562.7590578681442" y2="352.4979652264887" />
 <line style="stroke:blue;stroke-width:4;stroke-opacity:1" x1="479.25372843097597" y1="338.60942821039936" x2="431.48812173827076" y2="338.60942821039936" />
 <line style="stroke-dasharray: 15, 10;stroke:red;stroke-width:4;" x1="479.25372843097597" y1="338.60942821039936" x2="568.5118782617292" y2="338.60942821039936" />
 <line style="stroke-dasharray: 15, 10;stroke:red;stroke-width:4;" x1="484.11613582996597" y1="325.3611538117709" x2="426.0005068043186" y2="325.3611538117709" />
 <line style="stroke:blue;stroke-width:4;stroke-opacity:1" x1="484.11613582996597" y1="325.3611538117709" x2="573.9994931956813" y2="325.3611538117709" />
 <line style="stroke-dasharray: 15, 10;stroke:red;stroke-width:4;" x1="489.53772007983986" y1="309.9294778677316" x2="419.60849733815087" y2="309.9294778677316" />
 <line style="stroke:blue;stroke-width:4;stroke-opacity:1" x1="489.53772007983986" y1="309.9294778677316" x2="580.391502661849" y2="309.92947786773163" />
 <line style="stroke-dasharray: 15, 10;stroke:red;stroke-width:4;" x1="497.9253728430976" y1="280.8428167546536" x2="407.56040782096386" y2="280.84281675465354" />
 <line style="stroke:blue;stroke-width:4;stroke-opacity:1" x1="497.9253728430976" y1="280.8428167546536" x2="592.4395921790361" y2="280.8428167546536" />
 <line style="stroke-dasharray: 15, 10;stroke:red;stroke-width:4;" x1="502.2204993788721" y1="256.920645235882" x2="397.6515199364733" y2="256.9206452358819" />
 <line style="stroke:blue;stroke-width:4;stroke-opacity:1" x1="502.2204993788721" y1="256.920645235882" x2="602.3484800635267" y2="256.92064523588203" />
 <line style="stroke-dasharray: 15, 10;stroke:red;stroke-width:4;" x1="509.56273455134703" y1="209.24353789180955" x2="377.9030154598406" y2="209.24353789180955" />
 <line style="stroke:blue;stroke-width:4;stroke-opacity:1" x1="509.56273455134703" y1="209.24353789180955" x2="622.0969845401594" y2="209.24353789180955" />
 <line style="stroke-dasharray: 15, 10;stroke:red;stroke-width:4;" x1="517.4155225007158" y1="149.1457869007089" x2="353.0097119312056" y2="149.1457869007089" />
 <line style="stroke:blue;stroke-width:4;stroke-opacity:1" x1="517.4155225007158" y1="149.1457869007089" x2="646.9902880687944" y2="149.1457869007089" />
 <line style="stroke-dasharray: 15, 10;stroke:red;stroke-width:4;" x1="525.608678968014" y1="80.68389273524353" x2="324.65186686211837" y2="80.68389273524353" />
 <line style="stroke:blue;stroke-width:4;stroke-opacity:1" x1="525.608678968014" y1="80.68389273524353" x2="675.3481331378816" y2="80.6838927352436" />
 <line style="stroke-dasharray: 15, 10;stroke:red;stroke-width:4;" x1="531.8811845127111" y1="26.188574024091622" x2="302.079166766115" y2="26.18857402409155" />
 <line style="stroke:blue;stroke-width:4;stroke-opacity:1" x1="531.8811845127111" y1="26.188574024091622" x2="697.9208332338851" y2="26.188574024091622" />
 <line style="stroke:blue;stroke-width:4;stroke-opacity:1" x1="533.9720196942769" y1="8.023467787040914" x2="294.5549334007805" y2="8.023467787040914" />
 <line style="stroke-dasharray: 15, 10;stroke:red;stroke-width:4;" x1="533.9720196942769" y1="8.023467787040914" x2="705.4450665992194" y2="8.023467787040985" />
 <line style="stroke:blue;stroke-width:4;stroke-opacity:1" x1="499.99999999999994" y1="504.01173389352044" x2="496.4566367611139" y2="502.53131540146484" />
 <line style="stroke:blue;stroke-width:4;stroke-opacity:1" x1="496.4566367611139" y1="502.53131540146484" x2="485.82654704445554" y2="498.09005992529796" />
 <line style="stroke:blue;stroke-width:4;stroke-opacity:1" x1="485.82654704445554" y1="498.09005992529796" x2="471.9603674091315" y2="492.2464431943147" />
 <line style="stroke:blue;stroke-width:4;stroke-opacity:1" x1="471.9603674091315" y1="492.2464431943147" x2="458.6145904646224" y2="486.46479698818405" />
 <line style="stroke:blue;stroke-width:4;stroke-opacity:1" x1="458.6145904646224" y1="486.46479698818405" x2="445.79448430510905" y2="480.52117331810564" />
 <line style="stroke:blue;stroke-width:4;stroke-opacity:1" x1="445.79448430510905" y1="480.52117331810564" x2="433.17998730409766" y2="473.8662944746045" />
 <line style="stroke:blue;stroke-width:4;stroke-opacity:1" x1="433.17998730409766" y1="473.8662944746045" x2="421.1038851276754" y2="466.46046998892353" />
 <line style="stroke:blue;stroke-width:4;stroke-opacity:1" x1="421.1038851276754" y1="466.46046998892353" x2="409.9158625929139" y2="458.28090854328985" />
 <line style="stroke:blue;stroke-width:4;stroke-opacity:1" x1="409.9158625929139" y1="458.28090854328985" x2="399.84768510205265" y2="449.18689940509853" />
 <line style="stroke:blue;stroke-width:4;stroke-opacity:1" x1="399.84768510205265" y1="449.18689940509853" x2="390.86989071224355" y2="438.7765044966571" />
 <line style="stroke:blue;stroke-width:4;stroke-opacity:1" x1="390.86989071224355" y1="438.7765044966571" x2="382.6446144012089" y2="427.13017814712856" />
 <line style="stroke:blue;stroke-width:4;stroke-opacity:1" x1="382.6446144012089" y1="427.13017814712856" x2="375.1222619096699" y2="414.6166454486746" />
 <line style="stroke:blue;stroke-width:4;stroke-opacity:1" x1="375.1222619096699" y1="414.6166454486746" x2="368.37307871678024" y2="401.7244712318898" />
 <line style="stroke:blue;stroke-width:4;stroke-opacity:1" x1="368.37307871678024" y1="401.7244712318898" x2="362.44337529520743" y2="388.91828532088203" />
 <line style="stroke:blue;stroke-width:4;stroke-opacity:1" x1="362.44337529520743" y1="388.91828532088203" x2="355.3651715779639" y2="374.1728036279186" />
 <line style="stroke:blue;stroke-width:4;stroke-opacity:1" x1="355.3651715779639" y1="374.1728036279186" x2="340.728762409969" y2="347.6744621656484" />
 <line style="stroke:blue;stroke-width:4;stroke-opacity:1" x1="340.728762409969" y1="347.6744621656484" x2="326.8503458078384" y2="327.7218193645169" />
 <line style="stroke:blue;stroke-width:4;stroke-opacity:1" x1="326.8503458078384" y1="327.7218193645169" x2="298.3292841770092" y2="288.8172691746409" />
 <line style="stroke:blue;stroke-width:4;stroke-opacity:1" x1="298.3292841770092" y1="288.8172691746409" x2="261.3865165273601" y2="240.76898230455436" />
 <line style="stroke:blue;stroke-width:4;stroke-opacity:1" x1="261.3865165273601" y1="240.76898230455436" x2="218.77008340743282" y2="186.56567618992904" />
 <line style="stroke:blue;stroke-width:4;stroke-opacity:1" x1="218.77008340743282" y1="186.56567618992904" x2="184.6714052095407" y2="143.5963355806659" />
 <line style="stroke:blue;stroke-width:4;stroke-opacity:1" x1="184.6714052095407" y1="143.5963355806659" x2="173.30517914357665" y2="129.2732220442447" />
 <line style="stroke:blue;stroke-width:4;stroke-opacity:1" x1="173.30517914357665" y1="129.2732220442447" x2="173.30517914357665" y2="129.2732220442447" />
 <line style="stroke-dasharray: 15, 10;stroke:red;stroke-width:4;" x1="499.99999999999994" y1="504.01173389352044" x2="499.99999999999994" y2="504.01173389352044" />
 <line style="stroke:blue;stroke-width:4;stroke-opacity:1" x1="496.4566367611139" y1="502.53131540146484" x2="496.44764987085" y2="502.5403022917287" />
 <line style="stroke-dasharray: 15, 10;stroke:red;stroke-width:4;" x1="496.4566367611139" y1="502.53131540146484" x2="498.5285683982082" y2="500.4593837643705" />
 <line style="stroke:blue;stroke-width:4;stroke-opacity:1" x1="485.82654704445554" y1="498.09005992529796" x2="485.79059948340006" y2="498.12600748635356" />
 <line style="stroke-dasharray: 15, 10;stroke:red;stroke-width:4;" x1="485.82654704445554" y1="498.09005992529796" x2="494.114273592833" y2="489.80233337692056" />
 <line style="stroke:blue;stroke-width:4;stroke-opacity:1" x1="471.9603674091315" y1="492.2464431943147" x2="471.85366881697814" y2="492.35314178646803" />
 <line style="stroke-dasharray: 15, 10;stroke:red;stroke-width:4;" x1="471.9603674091315" y1="492.2464431943147" x2="488.34140789294753" y2="475.86540271049864" />
 <line style="stroke:blue;stroke-width:4;stroke-opacity:1" x1="458.6145904646224" y1="486.46479698818405" x2="458.3285382005362" y2="486.7508492522702" />
 <line style="stroke-dasharray: 15, 10;stroke:red;stroke-width:4;" x1="458.6145904646224" y1="486.46479698818405" x2="482.7391153587497" y2="462.3402720940567" />
 <line style="stroke:blue;stroke-width:4;stroke-opacity:1" x1="445.79448430510905" y1="480.52117331810564" x2="445.0605775976796" y2="481.2550800255351" />
 <line style="stroke-dasharray: 15, 10;stroke:red;stroke-width:4;" x1="445.79448430510905" y1="480.52117331810564" x2="477.2433461320146" y2="449.0723114912001" />
 <line style="stroke:blue;stroke-width:4;stroke-opacity:1" x1="433.17998730409766" y1="473.8662944746045" x2="431.4350712687925" y2="475.6112105099096" />
 <line style="stroke-dasharray: 15, 10;stroke:red;stroke-width:4;" x1="433.17998730409766" y1="473.8662944746045" x2="471.59947661638915" y2="435.446805162313" />
 <line style="stroke:blue;stroke-width:4;stroke-opacity:1" x1="421.1038851276754" y1="466.46046998892353" x2="417.6592688154403" y2="469.90508630115863" />
 <line style="stroke-dasharray: 15, 10;stroke:red;stroke-width:4;" x1="421.1038851276754" y1="466.46046998892353" x2="465.89335240763813" y2="421.6710027089608" />
 <line style="stroke:blue;stroke-width:4;stroke-opacity:1" x1="409.9158625929139" y1="458.28090854328985" x2="403.96431884770294" y2="464.2324522885008" />
 <line style="stroke-dasharray: 15, 10;stroke:red;stroke-width:4;" x1="409.9158625929139" y1="458.28090854328985" x2="460.22071839498034" y2="407.9760527412235" />
 <line style="stroke:blue;stroke-width:4;stroke-opacity:1" x1="399.84768510205265" y1="449.18689940509853" x2="390.41460673993765" y2="458.61997776721347" />
 <line style="stroke-dasharray: 15, 10;stroke:red;stroke-width:4;" x1="399.84768510205265" y1="449.18689940509853" x2="454.608243873693" y2="394.4263406334582" />
 <line style="stroke:blue;stroke-width:4;stroke-opacity:1" x1="390.86989071224355" y1="438.7765044966571" x2="376.7050866122163" y2="452.94130859668434" />
 <line style="stroke-dasharray: 15, 10;stroke:red;stroke-width:4;" x1="390.86989071224355" y1="438.7765044966571" x2="448.9295747031639" y2="380.7168205057367" />
 <line style="stroke:blue;stroke-width:4;stroke-opacity:1" x1="382.6446144012089" y1="427.13017814712856" x2="362.6537416178875" y2="447.12105093045005" />
 <line style="stroke-dasharray: 15, 10;stroke:red;stroke-width:4;" x1="382.6446144012089" y1="427.13017814712856" x2="443.1093170369296" y2="366.665475511408" />
 <line style="stroke:blue;stroke-width:4;stroke-opacity:1" x1="375.1222619096699" y1="414.6166454486746" x2="348.48623133296826" y2="441.2526760253762" />
 <line style="stroke-dasharray: 15, 10;stroke:red;stroke-width:4;" x1="375.1222619096699" y1="414.6166454486746" x2="437.2409421318558" y2="352.4979652264887" />
 <line style="stroke:blue;stroke-width:4;stroke-opacity:1" x1="368.37307871678024" y1="401.7244712318898" x2="334.5976943168788" y2="435.4998556317912" />
 <line style="stroke-dasharray: 15, 10;stroke:red;stroke-width:4;" x1="368.37307871678024" y1="401.7244712318898" x2="431.48812173827076" y2="338.60942821039936" />
 <line style="stroke-dasharray: 15, 10;stroke:red;stroke-width:4;" x1="362.44337529520743" y1="388.91828532088203" x2="321.3494199182504" y2="430.01224069783905" />
 <line style="stroke:blue;stroke-width:4;stroke-opacity:1" x1="362.44337529520743" y1="388.91828532088203" x2="426.0005068043186" y2="325.3611538117709" />
 <line style="stroke-dasharray: 15, 10;stroke:red;stroke-width:4;" x1="355.3651715779639" y1="374.1728036279186" x2="305.9177439742111" y2="423.62023123167137" />
 <line style="stroke:blue;stroke-width:4;stroke-opacity:1" x1="355.3651715779639" y1="374.1728036279186" x2="419.60849733815087" y2="309.9294778677316" />
 <line style="stroke-dasharray: 15, 10;stroke:red;stroke-width:4;" x1="340.728762409969" y1="347.6744621656484" x2="276.8310828611331" y2="411.5721417144843" />
 <line style="stroke:blue;stroke-width:4;stroke-opacity:1" x1="340.728762409969" y1="347.6744621656484" x2="407.5604078209639" y2="280.84281675465354" />
 <line style="stroke-dasharray: 15, 10;stroke:red;stroke-width:4;" x1="326.8503458078384" y1="327.7218193645169" x2="252.9089113423615" y2="401.6632538299938" />
 <line style="stroke:blue;stroke-width:4;stroke-opacity:1" x1="326.8503458078384" y1="327.7218193645169" x2="397.6515199364733" y2="256.9206452358819" />
 <line style="stroke-dasharray: 15, 10;stroke:red;stroke-width:4;" x1="298.3292841770092" y1="288.8172691746409" x2="205.23180399828908" y2="381.914749353361" />
 <line style="stroke:blue;stroke-width:4;stroke-opacity:1" x1="298.3292841770092" y1="288.8172691746409" x2="377.9030154598406" y2="209.24353789180955" />
 <line style="stroke-dasharray: 15, 10;stroke:red;stroke-width:4;" x1="261.3865165273601" y1="240.76898230455436" x2="145.13405300718836" y2="357.021445824726" />
 <line style="stroke:blue;stroke-width:4;stroke-opacity:1" x1="261.3865165273601" y1="240.76898230455436" x2="353.0097119312056" y2="149.14578690070874" />
 <line style="stroke-dasharray: 15, 10;stroke:red;stroke-width:4;" x1="218.77008340743282" y1="186.56567618992904" x2="76.67215884172316" y2="328.66360075563875" />
 <line style="stroke:blue;stroke-width:4;stroke-opacity:1" x1="218.77008340743282" y1="186.56567618992904" x2="324.65186686211837" y2="80.68389273524353" />
 <line style="stroke-dasharray: 15, 10;stroke:red;stroke-width:4;" x1="184.6714052095407" y1="143.5963355806659" x2="22.17684013057118" y2="306.09090065963534" />
 <line style="stroke:blue;stroke-width:4;stroke-opacity:1" x1="184.6714052095407" y1="143.5963355806659" x2="302.079166766115" y2="26.18857402409155" />
 <line style="stroke:blue;stroke-width:4;stroke-opacity:1" x1="173.30517914357665" y1="129.2732220442447" x2="4.011733893520443" y2="298.56666729430077" />
 <line style="stroke-dasharray: 15, 10;stroke:red;stroke-width:4;" x1="173.30517914357665" y1="129.2732220442447" x2="294.5549334007805" y2="8.023467787040914" />
</svg>