  0
SECTION
  2
HEADER
  9
$ACADVER
  1
AC1009
  0
ENDSEC
  0
SECTION
  2
ENTITIES
  0
LINE
  8
reference 10mm
  6
CONTINUOUS
 62
250
 10
-1236.3438833955888
 20
1246.3438833955888
 11
-1226.3438833955888
 21
1246.3438833955888
  0
LINE
  8
reference 10mm
  6
CONTINUOUS
 62
250
 10
-1226.3438833955888
 20
1246.3438833955888
 11
-1226.3438833955888
 21
1256.3438833955888
  0
LINE
  8
reference 10mm
  6
CONTINUOUS
 62
250
 10
-1226.3438833955888
 20
1256.3438833955888
 11
-1236.3438833955888
 21
1256.3438833955888
  0
LINE
  8
reference 10mm
  6
CONTINUOUS
 62
250
 10
-1236.3438833955888
 20
1256.3438833955888
 11
-1236.3438833955888
 21
1246.3438833955888
  0
LINE
  8
MountainLine
  6
CONTINUOUS
 62
1
 10
0.0
 20
-0.0
 11
-1236.3438833955888
 21
-512.1104042594733
  0
LINE
  8
CutLine
  6
CONTINUOUS
 62
250
 10
-512.1104042594734
 20
-1236.3438833955888
 11
-1236.3438833955888
 21
-512.1104042594733
  0
LINE
  8
MountainLine
  6
CONTINUOUS
 62
1
 10
0.0
 20
-0.0
 11
-512.1104042594734
 21
-1236.3438833955888
  0
LINE
  8
CutLine
  6
CONTINUOUS
 62
250
 10
512.1104042594732
 20
-1236.3438833955888
 11
-512.1104042594734
 21
-1236.3438833955888
  0
LINE
  8
MountainLine
  6
CONTINUOUS
 62
1
 10
0.0
 20
-0.0
 11
512.1104042594732
 21
-1236.3438833955888
  0
LINE
  8
CutLine
  6
CONTINUOUS
 62
250
 10
1236.3438833955888
 20
-512.1104042594734
 11
512.1104042594732
 21
-1236.3438833955888
  0
LINE
  8
MountainLine
  6
CONTINUOUS
 62
1
 10
0.0
 20
-0.0
 11
1236.3438833955888
 21
-512.1104042594734
  0
LINE
  8
CutLine
  6
CONTINUOUS
 62
250
 10
1236.3438833955888
 20
512.1104042594732
 11
1236.3438833955888
 21
-512.1104042594734
  0
LINE
  8
MountainLine
  6
CONTINUOUS
 62
1
 10
0.0
 20
0.0
 11
1236.3438833955888
 21
512.1104042594732
  0
LINE
  8
CutLine
  6
CONTINUOUS
 62
250
 10
512.110404259474
 20
1236.3438833955884
 11
1236.3438833955888
 21
512.1104042594732
  0
LINE
  8
MountainLine
  6
CONTINUOUS
 62
1
 10
0.0
 20
0.0
 11
512.110404259474
 21
1236.3438833955884
  0
LINE
  8
CutLine
  6
CONTINUOUS
 62
250
 10
-512.1104042594736
 20
1236.3438833955886
 11
512.110404259474
 21
1236.3438833955884
  0
LINE
  8
MountainLine
  6
CONTINUOUS
 62
1
 10
0.0
 20
0.0
 11
-512.1104042594736
 21
1236.3438833955886
  0
LINE
  8
CutLine
  6
CONTINUOUS
 62
250
 10
-1236.3438833955884
 20
512.1104042594741
 11
-512.1104042594736
 21
1236.3438833955886
  0
LINE
  8
MountainLine
  6
CONTINUOUS
 62
1
 10
0.0
 20
0.0
 11
-1236.3438833955884
 21
512.1104042594741
  0
LINE
  8
CutLine
  6
CONTINUOUS
 62
250
 10
-1236.3438833955888
 20
-512.1104042594735
 11
-1236.3438833955884
 21
512.1104042594741
  0
LINE
  8
ValleyLine
  6
CONTINUOUS
 62
5
 10
0.0
 20
-0.0
 11
0.0
 21
-0.0
  0
LINE
  8
ValleyLine
  6
CONTINUOUS
 62
5
 10
0.0
 20
-0.0
 11
-8.854899710291203
 21
-3.6361390321851865
  0
LINE
  8
ValleyLine
  6
CONTINUOUS
 62
5
 10
-8.854899710291203
 20
-3.6361390321851865
 11
-35.41959884116481
 21
-14.544556128740746
  0
LINE
  8
ValleyLine
  6
CONTINUOUS
 62
5
 10
-35.41959884116481
 20
-14.544556128740746
 11
-70.16001541997159
 21
-28.685096809460916
  0
LINE
  8
ValleyLine
  6
CONTINUOUS
 62
5
 10
-70.16001541997159
 20
-28.685096809460916
 11
-103.87394305182926
 21
-42.01760659413993
  0
LINE
  8
ValleyLine
  6
CONTINUOUS
 62
5
 10
-103.87394305182926
 20
-42.01760659413993
 11
-136.94682613683716
 21
-54.13807003475722
  0
LINE
  8
ValleyLine
  6
CONTINUOUS
 62
5
 10
-136.94682613683716
 20
-54.13807003475722
 11
-170.91095907918975
 21
-64.64247168329219
  0
LINE
  8
ValleyLine
  6
CONTINUOUS
 62
5
 10
-170.91095907918975
 20
-64.64247168329219
 11
-205.24973333239262
 21
-72.87428643671144
  0
LINE
  8
ValleyLine
  6
CONTINUOUS
 62
5
 10
-205.24973333239262
 20
-72.87428643671144
 11
-239.3869675837888
 21
-78.1769891919815
  0
LINE
  8
ValleyLine
  6
CONTINUOUS
 62
5
 10
-239.3869675837888
 20
-78.1769891919815
 11
-273.1621691983576
 21
-79.89405484606895
  0
LINE
  8
ValleyLine
  6
CONTINUOUS
 62
5
 10
-273.1621691983576
 20
-79.89405484606895
 11
-307.3357223093063
 21
-77.36895829594035
  0
LINE
  8
ValleyLine
  6
CONTINUOUS
 62
5
 10
-307.3357223093063
 20
-77.36895829594035
 11
-342.3613380836322
 21
-71.33902773423326
  0
LINE
  8
ValleyLine
  6
CONTINUOUS
 62
5
 10
-342.3613380836322
 20
-71.33902773423326
 11
-377.6765176567384
 21
-62.54159135358521
  0
LINE
  8
ValleyLine
  6
CONTINUOUS
 62
5
 10
-377.6765176567384
 20
-62.54159135358521
 11
-412.29630397537096
 21
-51.71397734663376
  0
LINE
  8
ValleyLine
  6
CONTINUOUS
 62
5
 10
-412.29630397537096
 20
-51.71397734663376
 11
-445.3201154999247
 21
-39.59351390601647
  0
LINE
  8
ValleyLine
  6
CONTINUOUS
 62
5
 10
-445.3201154999247
 20
-39.59351390601647
 11
-483.78646534671725
 21
-26.079197169728197
  0
LINE
  8
ValleyLine
  6
CONTINUOUS
 62
5
 10
-483.78646534671725
 20
-26.079197169728197
 11
-556.2904296800874
 21
-5.171397734663376
  0
LINE
  8
ValleyLine
  6
CONTINUOUS
 62
5
 10
-556.2904296800874
 20
-5.171397734663376
 11
-615.9209339800097
 21
5.535011637881894
  0
LINE
  8
ValleyLine
  6
CONTINUOUS
 62
5
 10
-615.9209339800097
 20
5.535011637881894
 11
-734.7650762125689
 21
23.836911433214
  0
LINE
  8
ValleyLine
  6
CONTINUOUS
 62
5
 10
-734.7650762125689
 20
23.836911433214
 11
-884.5700049197479
 21
43.411459889810914
  0
LINE
  8
ValleyLine
  6
CONTINUOUS
 62
5
 10
-884.5700049197479
 20
43.411459889810914
 11
-1055.2241309973558
 21
63.83444078725105
  0
LINE
  8
ValleyLine
  6
CONTINUOUS
 62
5
 10
-1055.2241309973558
 20
63.83444078725105
 11
-1191.0639452960304
 21
79.46983862564734
  0
LINE
  8
ValleyLine
  6
CONTINUOUS
 62
5
 10
-1191.0639452960304
 20
79.46983862564734
 11
-1236.3438833955888
 21
84.6816379051128
  0
LINE
  8
ValleyLine
  6
CONTINUOUS
 62
5
 10
-1236.3438833955888
 20
84.6816379051128
 11
-1236.3438833955888
 21
84.6816379051128
  0
LINE
  8
ValleyLine
  6
CONTINUOUS
 62
5
 10
-1236.3438833955888
 20
84.6816379051128
 11
-1236.3438833955888
 21
84.6816379051128
  0
LINE
  8
ValleyLine
  6
CONTINUOUS
 62
5
 10
0.0
 20
-0.0
 11
0.0
 21
-0.0
  0
LINE
  8
MountainLine
  6
CONTINUOUS
 62
1
 10
0.0
 20
-0.0
 11
0.0
 21
-0.0
  0
LINE
  8
ValleyLine
  6
CONTINUOUS
 62
5
 10
0.0
 20
-0.0
 11
0.0
 21
-0.0
  0
LINE
  8
MountainLine
  6
CONTINUOUS
 62
1
 10
0.0
 20
-0.0
 11
0.0
 21
-0.0
  0
LINE
  8
ValleyLine
  6
CONTINUOUS
 62
5
 10
-8.854899710291203
 20
-3.6361390321851865
 11
-8.854899710291203
 21
-3.667819553456206
  0
LINE
  8
MountainLine
  6
CONTINUOUS
 62
1
 10
-8.854899710291203
 20
-3.6361390321851865
 11
-8.854899710291203
 21
3.667819553456206
  0
LINE
  8
ValleyLine
  6
CONTINUOUS
 62
5
 10
-35.41959884116481
 20
-14.544556128740746
 11
-35.41959884116481
 21
-14.671278213824824
  0
LINE
  8
MountainLine
  6
CONTINUOUS
 62
1
 10
-35.41959884116481
 20
-14.544556128740746
 11
-35.41959884116481
 21
14.671278213824824
  0
LINE
  8
ValleyLine
  6
CONTINUOUS
 62
5
 10
-70.16001541997159
 20
-28.685096809460916
 11
-70.16001541997159
 21
-29.061229923257706
  0
LINE
  8
MountainLine
  6
CONTINUOUS
 62
1
 10
-70.16001541997159
 20
-28.685096809460916
 11
-70.16001541997159
 21
29.061229923257706
  0
LINE
  8
ValleyLine
  6
CONTINUOUS
 62
5
 10
-103.87394305182926
 20
-42.01760659413993
 11
-103.87394305182926
 21
-43.0259959892382
  0
LINE
  8
MountainLine
  6
CONTINUOUS
 62
1
 10
-103.87394305182926
 20
-42.01760659413993
 11
-103.87394305182926
 21
43.0259959892382
  0
LINE
  8
ValleyLine
  6
CONTINUOUS
 62
5
 10
-136.94682613683716
 20
-54.13807003475722
 11
-136.94682613683716
 21
-56.725232709828205
  0
LINE
  8
MountainLine
  6
CONTINUOUS
 62
1
 10
-136.94682613683716
 20
-54.13807003475722
 11
-136.94682613683716
 21
56.725232709828205
  0
LINE
  8
ValleyLine
  6
CONTINUOUS
 62
5
 10
-170.91095907918975
 20
-64.64247168329219
 11
-170.91095907918975
 21
-70.79363720879346
  0
LINE
  8
MountainLine
  6
CONTINUOUS
 62
1
 10
-170.91095907918975
 20
-64.64247168329219
 11
-170.91095907918975
 21
70.79363720879346
  0
LINE
  8
ValleyLine
  6
CONTINUOUS
 62
5
 10
-205.24973333239262
 20
-72.87428643671144
 11
-205.24973333239262
 21
-85.01722321973813
  0
LINE
  8
MountainLine
  6
CONTINUOUS
 62
1
 10
-205.24973333239262
 20
-72.87428643671144
 11
-205.24973333239262
 21
85.01722321973813
  0
LINE
  8
ValleyLine
  6
CONTINUOUS
 62
5
 10
-239.3869675837888
 20
-78.1769891919815
 11
-239.3869675837888
 21
-99.15732862857378
  0
LINE
  8
MountainLine
  6
CONTINUOUS
 62
1
 10
-239.3869675837888
 20
-78.1769891919815
 11
-239.3869675837888
 21
99.15732862857378
  0
LINE
  8
ValleyLine
  6
CONTINUOUS
 62
5
 10
-273.1621691983576
 20
-79.89405484606895
 11
-273.1621691983576
 21
-113.14747520921384
  0
LINE
  8
MountainLine
  6
CONTINUOUS
 62
1
 10
-273.1621691983576
 20
-79.89405484606895
 11
-273.1621691983576
 21
113.14747520921384
  0
LINE
  8
ValleyLine
  6
CONTINUOUS
 62
5
 10
-307.3357223093063
 20
-77.36895829594035
 11
-307.3357223093063
 21
-127.30262438224605
  0
LINE
  8
MountainLine
  6
CONTINUOUS
 62
1
 10
-307.3357223093063
 20
-77.36895829594035
 11
-307.3357223093063
 21
127.30262438224605
  0
LINE
  8
ValleyLine
  6
CONTINUOUS
 62
5
 10
-342.3613380836322
 20
-71.33902773423326
 11
-342.3613380836322
 21
-141.81070946644084
  0
LINE
  8
MountainLine
  6
CONTINUOUS
 62
1
 10
-342.3613380836322
 20
-71.33902773423326
 11
-342.3613380836322
 21
141.81070946644084
  0
LINE
  8
ValleyLine
  6
CONTINUOUS
 62
5
 10
-377.6765176567384
 20
-62.54159135358521
 11
-377.6765176567384
 21
-156.43873580326272
  0
LINE
  8
MountainLine
  6
CONTINUOUS
 62
1
 10
-377.6765176567384
 20
-62.54159135358521
 11
-377.6765176567384
 21
156.43873580326272
  0
LINE
  8
ValleyLine
  6
CONTINUOUS
 62
5
 10
-412.29630397537096
 20
-51.71397734663376
 11
-412.29630397537096
 21
-170.7787208228989
  0
LINE
  8
MountainLine
  6
CONTINUOUS
 62
1
 10
-412.29630397537096
 20
-51.71397734663376
 11
-412.29630397537096
 21
170.7787208228989
  0
LINE
  8
MountainLine
  6
CONTINUOUS
 62
1
 10
-445.3201154999247
 20
-39.59351390601647
 11
-445.3201154999247
 21
-184.45763143762196
  0
LINE
  8
ValleyLine
  6
CONTINUOUS
 62
5
 10
-445.3201154999247
 20
-39.59351390601647
 11
-445.3201154999247
 21
184.45763143762196
  0
LINE
  8
MountainLine
  6
CONTINUOUS
 62
1
 10
-483.78646534671725
 20
-26.079197169728197
 11
-483.78646534671725
 21
-200.39091523915164
  0
LINE
  8
ValleyLine
  6
CONTINUOUS
 62
5
 10
-483.78646534671725
 20
-26.079197169728197
 11
-483.78646534671725
 21
200.39091523915164
  0
LINE
  8
MountainLine
  6
CONTINUOUS
 62
1
 10
-556.2904296800874
 20
-5.171397734663376
 11
-556.2904296800874
 21
-230.42304059184875
  0
LINE
  8
ValleyLine
  6
CONTINUOUS
 62
5
 10
-556.2904296800874
 20
-5.171397734663376
 11
-556.2904296800874
 21
230.42304059184875
  0
LINE
  8
MountainLine
  6
CONTINUOUS
 62
1
 10
-615.9209339800097
 20
5.535011637881894
 11
-615.9209339800097
 21
-255.12280420402374
  0
LINE
  8
ValleyLine
  6
CONTINUOUS
 62
5
 10
-615.9209339800097
 20
5.535011637881894
 11
-615.9209339800097
 21
255.12280420402374
  0
LINE
  8
MountainLine
  6
CONTINUOUS
 62
1
 10
-734.7650762125689
 20
23.836911433214
 11
-734.7650762125689
 21
-304.34965972534684
  0
LINE
  8
ValleyLine
  6
CONTINUOUS
 62
5
 10
-734.7650762125689
 20
23.836911433214
 11
-734.7650762125689
 21
304.34965972534684
  0
LINE
  8
MountainLine
  6
CONTINUOUS
 62
1
 10
-884.5700049197479
 20
43.411459889810914
 11
-884.5700049197479
 21
-366.400892906195
  0
LINE
  8
ValleyLine
  6
CONTINUOUS
 62
5
 10
-884.5700049197479
 20
43.411459889810914
 11
-884.5700049197479
 21
366.400892906195
  0
LINE
  8
MountainLine
  6
CONTINUOUS
 62
1
 10
-1055.2241309973558
 20
63.83444078725105
 11
-1055.2241309973558
 21
-437.0881464024682
  0
LINE
  8
ValleyLine
  6
CONTINUOUS
 62
5
 10
-1055.2241309973558
 20
63.83444078725105
 11
-1055.2241309973558
 21
437.0881464024682
  0
LINE
  8
MountainLine
  6
CONTINUOUS
 62
1
 10
-1191.0639452960304
 20
79.46983862564734
 11
-1191.0639452960304
 21
-493.35483979522195
  0
LINE
  8
ValleyLine
  6
CONTINUOUS
 62
5
 10
-1191.0639452960304
 20
79.46983862564734
 11
-1191.0639452960304
 21
493.35483979522195
  0
LINE
  8
ValleyLine
  6
CONTINUOUS
 62
5
 10
-1236.3438833955888
 20
84.6816379051128
 11
-1236.3438833955888
 21
-512.1104042594732
  0
LINE
  8
MountainLine
  6
CONTINUOUS
 62
1
 10
-1236.3438833955888
 20
84.6816379051128
 11
-1236.3438833955888
 21
512.1104042594732
  0
LINE
  8
ValleyLine
  6
CONTINUOUS
 62
5
 10
-1236.3438833955888
 20
84.6816379051128
 11
-1236.3438833955888
 21
-512.1104042594732
  0
LINE
  8
MountainLine
  6
CONTINUOUS
 62
1
 10
-1236.3438833955888
 20
84.6816379051128
 11
-1236.3438833955888
 21
512.1104042594732
  0
LINE
  8
ValleyLine
  6
CONTINUOUS
 62
5
 10
0.0
 20
-0.0
 11
0.0
 21
-0.0
  0
LINE
  8
ValleyLine
  6
CONTINUOUS
 62
5
 10
0.0
 20
-0.0
 11
-3.69022106487847
 21
-8.83249819886894
  0
LINE
  8
ValleyLine
  6
CONTINUOUS
 62
5
 10
-3.69022106487847
 20
-8.83249819886894
 11
-14.76088425951388
 21
-35.32999279547576
  0
LINE
  8
ValleyLine
  6
CONTINUOUS
 62
5
 10
-14.76088425951388
 20
-35.32999279547576
 11
-29.327196198652242
 21
-69.89404914457705
  0
LINE
  8
ValleyLine
  6
CONTINUOUS
 62
5
 10
-29.327196198652242
 20
-69.89404914457705
 11
-43.7390349685888
 21
-103.16090407247867
  0
LINE
  8
ValleyLine
  6
CONTINUOUS
 62
5
 10
-43.7390349685888
 20
-103.16090407247867
 11
-58.554632981403635
 21
-135.11742586526174
  0
LINE
  8
ValleyLine
  6
CONTINUOUS
 62
5
 10
-58.554632981403635
 20
-135.11742586526174
 11
-75.14316806407632
 21
-166.5614282239069
  0
LINE
  8
ValleyLine
  6
CONTINUOUS
 62
5
 10
-75.14316806407632
 20
-166.5614282239069
 11
-93.6035761625359
 21
-196.6633803895949
  0
LINE
  8
ValleyLine
  6
CONTINUOUS
 62
5
 10
-93.6035761625359
 20
-196.6633803895949
 11
-113.99266891578372
 21
-224.55162729657883
  0
LINE
  8
ValleyLine
  6
CONTINUOUS
 62
5
 10
-113.99266891578372
 20
-224.55162729657883
 11
-136.66119424564042
 21
-249.648450161931
  0
LINE
  8
ValleyLine
  6
CONTINUOUS
 62
5
 10
-136.66119424564042
 20
-249.648450161931
 11
-162.61105828137758
 21
-272.0272884101747
  0
LINE
  8
ValleyLine
  6
CONTINUOUS
 62
5
 10
-162.61105828137758
 20
-272.0272884101747
 11
-191.641713500905
 21
-292.530334049168
  0
LINE
  8
ValleyLine
  6
CONTINUOUS
 62
5
 10
-191.641713500905
 20
-292.530334049168
 11
-222.83404337768255
 21
-311.2812100823186
  0
LINE
  8
ValleyLine
  6
CONTINUOUS
 62
5
 10
-222.83404337768255
 20
-311.2812100823186
 11
-254.9702083352027
 21
-328.10481646306715
  0
LINE
  8
ValleyLine
  6
CONTINUOUS
 62
5
 10
-254.9702083352027
 20
-328.10481646306715
 11
-286.89203129482524
 21
-342.88571564272144
  0
LINE
  8
ValleyLine
  6
CONTINUOUS
 62
5
 10
-286.89203129482524
 20
-342.88571564272144
 11
-323.64791312631866
 21
-360.5294674595503
  0
LINE
  8
ValleyLine
  6
CONTINUOUS
 62
5
 10
-323.64791312631866
 20
-360.5294674595503
 11
-389.70000472957486
 21
-397.0134655423613
  0
LINE
  8
ValleyLine
  6
CONTINUOUS
 62
5
 10
-389.70000472957486
 20
-397.0134655423613
 11
-439.4357133551095
 21
-431.608024828924
  0
LINE
  8
ValleyLine
  6
CONTINUOUS
 62
5
 10
-439.4357133551095
 20
-431.608024828924
 11
-536.4126096859267
 21
-502.7021262519891
  0
LINE
  8
ValleyLine
  6
CONTINUOUS
 62
5
 10
-536.4126096859267
 20
-502.7021262519891
 11
-656.1819865822647
 21
-594.7889112436783
  0
LINE
  8
ValleyLine
  6
CONTINUOUS
 62
5
 10
-656.1819865822647
 20
-594.7889112436783
 11
-791.2939046538282
 21
-701.0183727459956
  0
LINE
  8
ValleyLine
  6
CONTINUOUS
 62
5
 10
-791.2939046538282
 20
-701.0183727459956
 11
-898.4030543376222
 21
-786.0157307536302
  0
LINE
  8
ValleyLine
  6
CONTINUOUS
 62
5
 10
-898.4030543376222
 20
-786.0157307536302
 11
-934.1061042322201
 21
-814.3481834228419
  0
LINE
  8
ValleyLine
  6
CONTINUOUS
 62
5
 10
-934.1061042322201
 20
-814.3481834228419
 11
-934.1061042322201
 21
-814.3481834228419
  0
LINE
  8
ValleyLine
  6
CONTINUOUS
 62
5
 10
-934.1061042322201
 20
-814.3481834228419
 11
-934.1061042322201
 21
-814.3481834228419
  0
LINE
  8
ValleyLine
  6
CONTINUOUS
 62
5
 10
0.0
 20
-0.0
 11
0.0
 21
-0.0
  0
LINE
  8
MountainLine
  6
CONTINUOUS
 62
1
 10
0.0
 20
-0.0
 11
0.0
 21
-0.0
  0
LINE
  8
ValleyLine
  6
CONTINUOUS
 62
5
 10
0.0
 20
-0.0
 11
0.0
 21
-0.0
  0
LINE
  8
MountainLine
  6
CONTINUOUS
 62
1
 10
0.0
 20
-0.0
 11
0.0
 21
-0.0
  0
LINE
  8
ValleyLine
  6
CONTINUOUS
 62
5
 10
-3.69022106487847
 20
-8.83249819886894
 11
-3.6678195534562077
 21
-8.854899710291201
  0
LINE
  8
MountainLine
  6
CONTINUOUS
 62
1
 10
-3.69022106487847
 20
-8.83249819886894
 11
-8.854899710291203
 21
-3.667819553456206
  0
LINE
  8
ValleyLine
  6
CONTINUOUS
 62
5
 10
-14.76088425951388
 20
-35.32999279547576
 11
-14.67127821382483
 21
-35.419598841164806
  0
LINE
  8
MountainLine
  6
CONTINUOUS
 62
1
 10
-14.76088425951388
 20
-35.32999279547576
 11
-35.41959884116481
 21
-14.671278213824824
  0
LINE
  8
ValleyLine
  6
CONTINUOUS
 62
5
 10
-29.327196198652242
 20
-69.89404914457705
 11
-29.061229923257716
 21
-70.16001541997159
  0
LINE
  8
MountainLine
  6
CONTINUOUS
 62
1
 10
-29.327196198652242
 20
-69.89404914457705
 11
-70.16001541997159
 21
-29.061229923257706
  0
LINE
  8
ValleyLine
  6
CONTINUOUS
 62
5
 10
-43.7390349685888
 20
-103.16090407247867
 11
-43.02599598923821
 21
-103.87394305182926
  0
LINE
  8
MountainLine
  6
CONTINUOUS
 62
1
 10
-43.7390349685888
 20
-103.16090407247867
 11
-103.87394305182926
 21
-43.02599598923819
  0
LINE
  8
ValleyLine
  6
CONTINUOUS
 62
5
 10
-58.554632981403635
 20
-135.11742586526174
 11
-56.72523270982821
 21
-136.94682613683716
  0
LINE
  8
MountainLine
  6
CONTINUOUS
 62
1
 10
-58.554632981403635
 20
-135.11742586526174
 11
-136.94682613683716
 21
-56.7252327098282
  0
LINE
  8
ValleyLine
  6
CONTINUOUS
 62
5
 10
-75.14316806407632
 20
-166.5614282239069
 11
-70.79363720879347
 21
-170.91095907918975
  0
LINE
  8
MountainLine
  6
CONTINUOUS
 62
1
 10
-75.14316806407632
 20
-166.5614282239069
 11
-170.91095907918975
 21
-70.79363720879344
  0
LINE
  8
ValleyLine
  6
CONTINUOUS
 62
5
 10
-93.6035761625359
 20
-196.6633803895949
 11
-85.01722321973817
 21
-205.24973333239262
  0
LINE
  8
MountainLine
  6
CONTINUOUS
 62
1
 10
-93.6035761625359
 20
-196.6633803895949
 11
-205.24973333239262
 21
-85.01722321973813
  0
LINE
  8
ValleyLine
  6
CONTINUOUS
 62
5
 10
-113.99266891578372
 20
-224.55162729657883
 11
-99.1573286285738
 21
-239.3869675837888
  0
LINE
  8
MountainLine
  6
CONTINUOUS
 62
1
 10
-113.99266891578372
 20
-224.55162729657883
 11
-239.3869675837888
 21
-99.15732862857375
  0
LINE
  8
ValleyLine
  6
CONTINUOUS
 62
5
 10
-136.66119424564042
 20
-249.648450161931
 11
-113.14747520921384
 21
-273.1621691983576
  0
LINE
  8
MountainLine
  6
CONTINUOUS
 62
1
 10
-136.66119424564042
 20
-249.648450161931
 11
-273.1621691983576
 21
-113.14747520921384
  0
LINE
  8
ValleyLine
  6
CONTINUOUS
 62
5
 10
-162.61105828137758
 20
-272.0272884101747
 11
-127.30262438224607
 21
-307.3357223093063
  0
LINE
  8
MountainLine
  6
CONTINUOUS
 62
1
 10
-162.61105828137758
 20
-272.0272884101747
 11
-307.3357223093063
 21
-127.30262438224601
  0
LINE
  8
ValleyLine
  6
CONTINUOUS
 62
5
 10
-191.641713500905
 20
-292.530334049168
 11
-141.8107094664409
 21
-342.3613380836322
  0
LINE
  8
MountainLine
  6
CONTINUOUS
 62
1
 10
-191.641713500905
 20
-292.530334049168
 11
-342.3613380836322
 21
-141.81070946644084
  0
LINE
  8
ValleyLine
  6
CONTINUOUS
 62
5
 10
-222.83404337768255
 20
-311.2812100823186
 11
-156.43873580326277
 21
-377.6765176567384
  0
LINE
  8
MountainLine
  6
CONTINUOUS
 62
1
 10
-222.83404337768255
 20
-311.2812100823186
 11
-377.6765176567384
 21
-156.43873580326272
  0
LINE
  8
ValleyLine
  6
CONTINUOUS
 62
5
 10
-254.9702083352027
 20
-328.10481646306715
 11
-170.77872082289892
 21
-412.29630397537096
  0
LINE
  8
MountainLine
  6
CONTINUOUS
 62
1
 10
-254.9702083352027
 20
-328.10481646306715
 11
-412.29630397537096
 21
-170.77872082289883
  0
LINE
  8
MountainLine
  6
CONTINUOUS
 62
1
 10
-286.89203129482524
 20
-342.88571564272144
 11
-184.45763143762198
 21
-445.3201154999247
  0
LINE
  8
ValleyLine
  6
CONTINUOUS
 62
5
 10
-286.89203129482524
 20
-342.88571564272144
 11
-445.3201154999247
 21
-184.45763143762196
  0
LINE
  8
MountainLine
  6
CONTINUOUS
 62
1
 10
-323.64791312631866
 20
-360.5294674595503
 11
-200.39091523915172
 21
-483.78646534671725
  0
LINE
  8
ValleyLine
  6
CONTINUOUS
 62
5
 10
-323.64791312631866
 20
-360.5294674595503
 11
-483.78646534671725
 21
-200.3909152391516
  0
LINE
  8
MountainLine
  6
CONTINUOUS
 62
1
 10
-389.70000472957486
 20
-397.0134655423613
 11
-230.42304059184877
 21
-556.2904296800874
  0
LINE
  8
ValleyLine
  6
CONTINUOUS
 62
5
 10
-389.70000472957486
 20
-397.0134655423613
 11
-556.2904296800874
 21
-230.4230405918487
  0
LINE
  8
MountainLine
  6
CONTINUOUS
 62
1
 10
-439.4357133551095
 20
-431.608024828924
 11
-255.12280420402377
 21
-615.9209339800097
  0
LINE
  8
ValleyLine
  6
CONTINUOUS
 62
5
 10
-439.4357133551095
 20
-431.608024828924
 11
-615.9209339800097
 21
-255.12280420402365
  0
LINE
  8
MountainLine
  6
CONTINUOUS
 62
1
 10
-536.4126096859267
 20
-502.7021262519891
 11
-304.34965972534695
 21
-734.7650762125689
  0
LINE
  8
ValleyLine
  6
CONTINUOUS
 62
5
 10
-536.4126096859267
 20
-502.7021262519891
 11
-734.7650762125689
 21
-304.34965972534684
  0
LINE
  8
MountainLine
  6
CONTINUOUS
 62
1
 10
-656.1819865822647
 20
-594.7889112436783
 11
-366.40089290619517
 21
-884.5700049197478
  0
LINE
  8
ValleyLine
  6
CONTINUOUS
 62
5
 10
-656.1819865822647
 20
-594.7889112436783
 11
-884.5700049197479
 21
-366.40089290619494
  0
LINE
  8
MountainLine
  6
CONTINUOUS
 62
1
 10
-791.2939046538282
 20
-701.0183727459956
 11
-437.0881464024682
 21
-1055.2241309973558
  0
LINE
  8
ValleyLine
  6
CONTINUOUS
 62
5
 10
-791.2939046538282
 20
-701.0183727459956
 11
-1055.2241309973558
 21
-437.0881464024682
  0
LINE
  8
MountainLine
  6
CONTINUOUS
 62
1
 10
-898.4030543376222
 20
-786.0157307536302
 11
-493.3548397952221
 21
-1191.0639452960304
  0
LINE
  8
ValleyLine
  6
CONTINUOUS
 62
5
 10
-898.4030543376222
 20
-786.0157307536302
 11
-1191.0639452960304
 21
-493.3548397952219
  0
LINE
  8
ValleyLine
  6
CONTINUOUS
 62
5
 10
-934.1061042322201
 20
-814.3481834228419
 11
-512.1104042594734
 21
-1236.3438833955888
  0
LINE
  8
MountainLine
  6
CONTINUOUS
 62
1
 10
-934.1061042322201
 20
-814.3481834228419
 11
-1236.3438833955888
 21
-512.1104042594732
  0
LINE
  8
ValleyLine
  6
CONTINUOUS
 62
5
 10
-934.1061042322201
 20
-814.3481834228419
 11
-512.1104042594734
 21
-1236.3438833955888
  0
LINE
  8
MountainLine
  6
CONTINUOUS
 62
1
 10
-934.1061042322201
 20
-814.3481834228419
 11
-1236.3438833955888
 21
-512.1104042594732
  0
LINE
  8
ValleyLine
  6
CONTINUOUS
 62
5
 10
0.0
 20
-0.0
 11
0.0
 21
-0.0
  0
LINE
  8
ValleyLine
  6
CONTINUOUS
 62
5
 10
0.0
 20
-0.0
 11
3.636139032185186
 21
-8.854899710291203
  0
LINE
  8
ValleyLine
  6
CONTINUOUS
 62
5
 10
3.636139032185186
 20
-8.854899710291203
 11
14.544556128740744
 21
-35.41959884116481
  0
LINE
  8
ValleyLine
  6
CONTINUOUS
 62
5
 10
14.544556128740744
 20
-35.41959884116481
 11
28.685096809460912
 21
-70.16001541997159
  0
LINE
  8
ValleyLine
  6
CONTINUOUS
 62
5
 10
28.685096809460912
 20
-70.16001541997159
 11
42.01760659413992
 21
-103.87394305182926
  0
LINE
  8
ValleyLine
  6
CONTINUOUS
 62
5
 10
42.01760659413992
 20
-103.87394305182926
 11
54.13807003475721
 21
-136.94682613683716
  0
LINE
  8
ValleyLine
  6
CONTINUOUS
 62
5
 10
54.13807003475721
 20
-136.94682613683716
 11
64.64247168329219
 21
-170.91095907918975
  0
LINE
  8
ValleyLine
  6
CONTINUOUS
 62
5
 10
64.64247168329219
 20
-170.91095907918975
 11
72.87428643671144
 21
-205.24973333239262
  0
LINE
  8
ValleyLine
  6
CONTINUOUS
 62
5
 10
72.87428643671144
 20
-205.24973333239262
 11
78.17698919198149
 21
-239.3869675837888
  0
LINE
  8
ValleyLine
  6
CONTINUOUS
 62
5
 10
78.17698919198149
 20
-239.3869675837888
 11
79.89405484606894
 21
-273.1621691983576
  0
LINE
  8
ValleyLine
  6
CONTINUOUS
 62
5
 10
79.89405484606894
 20
-273.1621691983576
 11
77.36895829594033
 21
-307.3357223093063
  0
LINE
  8
ValleyLine
  6
CONTINUOUS
 62
5
 10
77.36895829594033
 20
-307.3357223093063
 11
71.33902773423323
 21
-342.3613380836322
  0
LINE
  8
ValleyLine
  6
CONTINUOUS
 62
5
 10
71.33902773423323
 20
-342.3613380836322
 11
62.54159135358518
 21
-377.6765176567384
  0
LINE
  8
ValleyLine
  6
CONTINUOUS
 62
5
 10
62.54159135358518
 20
-377.6765176567384
 11
51.71397734663373
 21
-412.29630397537096
  0
LINE
  8
ValleyLine
  6
CONTINUOUS
 62
5
 10
51.71397734663373
 20
-412.29630397537096
 11
39.59351390601645
 21
-445.3201154999247
  0
LINE
  8
ValleyLine
  6
CONTINUOUS
 62
5
 10
39.59351390601645
 20
-445.3201154999247
 11
26.079197169728168
 21
-483.78646534671725
  0
LINE
  8
ValleyLine
  6
CONTINUOUS
 62
5
 10
26.079197169728168
 20
-483.78646534671725
 11
5.171397734663342
 21
-556.2904296800874
  0
LINE
  8
ValleyLine
  6
CONTINUOUS
 62
5
 10
5.171397734663342
 20
-556.2904296800874
 11
-5.535011637881932
 21
-615.9209339800097
  0
LINE
  8
ValleyLine
  6
CONTINUOUS
 62
5
 10
-5.535011637881932
 20
-615.9209339800097
 11
-23.836911433214045
 21
-734.7650762125689
  0
LINE
  8
ValleyLine
  6
CONTINUOUS
 62
5
 10
-23.836911433214045
 20
-734.7650762125689
 11
-43.41145988981097
 21
-884.5700049197479
  0
LINE
  8
ValleyLine
  6
CONTINUOUS
 62
5
 10
-43.41145988981097
 20
-884.5700049197479
 11
-63.83444078725111
 21
-1055.2241309973558
  0
LINE
  8
ValleyLine
  6
CONTINUOUS
 62
5
 10
-63.83444078725111
 20
-1055.2241309973558
 11
-79.46983862564741
 21
-1191.0639452960304
  0
LINE
  8
ValleyLine
  6
CONTINUOUS
 62
5
 10
-79.46983862564741
 20
-1191.0639452960304
 11
-84.68163790511286
 21
-1236.3438833955888
  0
LINE
  8
ValleyLine
  6
CONTINUOUS
 62
5
 10
-84.68163790511286
 20
-1236.3438833955888
 11
-84.68163790511286
 21
-1236.3438833955888
  0
LINE
  8
ValleyLine
  6
CONTINUOUS
 62
5
 10
-84.68163790511286
 20
-1236.3438833955888
 11
-84.68163790511286
 21
-1236.3438833955888
  0
LINE
  8
ValleyLine
  6
CONTINUOUS
 62
5
 10
0.0
 20
-0.0
 11
0.0
 21
-0.0
  0
LINE
  8
MountainLine
  6
CONTINUOUS
 62
1
 10
0.0
 20
-0.0
 11
0.0
 21
-0.0
  0
LINE
  8
ValleyLine
  6
CONTINUOUS
 62
5
 10
0.0
 20
-0.0
 11
0.0
 21
-0.0
  0
LINE
  8
MountainLine
  6
CONTINUOUS
 62
1
 10
0.0
 20
-0.0
 11
0.0
 21
-0.0
  0
LINE
  8
ValleyLine
  6
CONTINUOUS
 62
5
 10
3.636139032185186
 20
-8.854899710291203
 11
3.6678195534562055
 21
-8.854899710291203
  0
LINE
  8
MountainLine
  6
CONTINUOUS
 62
1
 10
3.636139032185186
 20
-8.854899710291203
 11
-3.6678195534562064
 21
-8.854899710291203
  0
LINE
  8
ValleyLine
  6
CONTINUOUS
 62
5
 10
14.544556128740744
 20
-35.41959884116481
 11
14.671278213824822
 21
-35.41959884116481
  0
LINE
  8
MountainLine
  6
CONTINUOUS
 62
1
 10
14.544556128740744
 20
-35.41959884116481
 11
-14.671278213824825
 21
-35.41959884116481
  0
LINE
  8
ValleyLine
  6
CONTINUOUS
 62
5
 10
28.685096809460912
 20
-70.16001541997159
 11
29.061229923257702
 21
-70.16001541997159
  0
LINE
  8
MountainLine
  6
CONTINUOUS
 62
1
 10
28.685096809460912
 20
-70.16001541997159
 11
-29.061229923257713
 21
-70.16001541997159
  0
LINE
  8
ValleyLine
  6
CONTINUOUS
 62
5
 10
42.01760659413992
 20
-103.87394305182926
 11
43.02599598923819
 21
-103.87394305182926
  0
LINE
  8
MountainLine
  6
CONTINUOUS
 62
1
 10
42.01760659413992
 20
-103.87394305182926
 11
-43.02599598923821
 21
-103.87394305182926
  0
LINE
  8
ValleyLine
  6
CONTINUOUS
 62
5
 10
54.13807003475721
 20
-136.94682613683716
 11
56.7252327098282
 21
-136.94682613683716
  0
LINE
  8
MountainLine
  6
CONTINUOUS
 62
1
 10
54.13807003475721
 20
-136.94682613683716
 11
-56.72523270982821
 21
-136.94682613683716
  0
LINE
  8
ValleyLine
  6
CONTINUOUS
 62
5
 10
64.64247168329219
 20
-170.91095907918975
 11
70.79363720879344
 21
-170.91095907918975
  0
LINE
  8
MountainLine
  6
CONTINUOUS
 62
1
 10
64.64247168329219
 20
-170.91095907918975
 11
-70.79363720879347
 21
-170.91095907918975
  0
LINE
  8
ValleyLine
  6
CONTINUOUS
 62
5
 10
72.87428643671144
 20
-205.24973333239262
 11
85.01722321973811
 21
-205.24973333239262
  0
LINE
  8
MountainLine
  6
CONTINUOUS
 62
1
 10
72.87428643671144
 20
-205.24973333239262
 11
-85.01722321973816
 21
-205.24973333239262
  0
LINE
  8
ValleyLine
  6
CONTINUOUS
 62
5
 10
78.17698919198149
 20
-239.3869675837888
 11
99.15732862857377
 21
-239.3869675837888
  0
LINE
  8
MountainLine
  6
CONTINUOUS
 62
1
 10
78.17698919198149
 20
-239.3869675837888
 11
-99.1573286285738
 21
-239.3869675837888
  0
LINE
  8
ValleyLine
  6
CONTINUOUS
 62
5
 10
79.89405484606894
 20
-273.1621691983576
 11
113.14747520921382
 21
-273.1621691983576
  0
LINE
  8
MountainLine
  6
CONTINUOUS
 62
1
 10
79.89405484606894
 20
-273.1621691983576
 11
-113.14747520921385
 21
-273.1621691983576
  0
LINE
  8
ValleyLine
  6
CONTINUOUS
 62
5
 10
77.36895829594033
 20
-307.3357223093063
 11
127.30262438224604
 21
-307.3357223093063
  0
LINE
  8
MountainLine
  6
CONTINUOUS
 62
1
 10
77.36895829594033
 20
-307.3357223093063
 11
-127.30262438224607
 21
-307.3357223093063
  0
LINE
  8
ValleyLine
  6
CONTINUOUS
 62
5
 10
71.33902773423323
 20
-342.3613380836322
 11
141.81070946644084
 21
-342.3613380836322
  0
LINE
  8
MountainLine
  6
CONTINUOUS
 62
1
 10
71.33902773423323
 20
-342.3613380836322
 11
-141.81070946644087
 21
-342.3613380836322
  0
LINE
  8
ValleyLine
  6
CONTINUOUS
 62
5
 10
62.54159135358518
 20
-377.6765176567384
 11
156.43873580326272
 21
-377.6765176567384
  0
LINE
  8
MountainLine
  6
CONTINUOUS
 62
1
 10
62.54159135358518
 20
-377.6765176567384
 11
-156.43873580326274
 21
-377.6765176567384
  0
LINE
  8
ValleyLine
  6
CONTINUOUS
 62
5
 10
51.71397734663373
 20
-412.29630397537096
 11
170.77872082289883
 21
-412.29630397537096
  0
LINE
  8
MountainLine
  6
CONTINUOUS
 62
1
 10
51.71397734663373
 20
-412.29630397537096
 11
-170.77872082289892
 21
-412.29630397537096
  0
LINE
  8
MountainLine
  6
CONTINUOUS
 62
1
 10
39.59351390601645
 20
-445.3201154999247
 11
184.4576314376219
 21
-445.3201154999247
  0
LINE
  8
ValleyLine
  6
CONTINUOUS
 62
5
 10
39.59351390601645
 20
-445.3201154999247
 11
-184.45763143762198
 21
-445.3201154999247
  0
LINE
  8
MountainLine
  6
CONTINUOUS
 62
1
 10
26.079197169728168
 20
-483.78646534671725
 11
200.3909152391516
 21
-483.78646534671725
  0
LINE
  8
ValleyLine
  6
CONTINUOUS
 62
5
 10
26.079197169728168
 20
-483.78646534671725
 11
-200.39091523915167
 21
-483.78646534671725
  0
LINE
  8
MountainLine
  6
CONTINUOUS
 62
1
 10
5.171397734663342
 20
-556.2904296800874
 11
230.42304059184872
 21
-556.2904296800874
  0
LINE
  8
ValleyLine
  6
CONTINUOUS
 62
5
 10
5.171397734663342
 20
-556.2904296800874
 11
-230.42304059184877
 21
-556.2904296800874
  0
LINE
  8
MountainLine
  6
CONTINUOUS
 62
1
 10
-5.535011637881932
 20
-615.9209339800097
 11
255.12280420402368
 21
-615.9209339800097
  0
LINE
  8
ValleyLine
  6
CONTINUOUS
 62
5
 10
-5.535011637881932
 20
-615.9209339800097
 11
-255.12280420402377
 21
-615.9209339800097
  0
LINE
  8
MountainLine
  6
CONTINUOUS
 62
1
 10
-23.836911433214045
 20
-734.7650762125689
 11
304.3496597253468
 21
-734.7650762125689
  0
LINE
  8
ValleyLine
  6
CONTINUOUS
 62
5
 10
-23.836911433214045
 20
-734.7650762125689
 11
-304.3496597253469
 21
-734.7650762125689
  0
LINE
  8
MountainLine
  6
CONTINUOUS
 62
1
 10
-43.41145988981097
 20
-884.5700049197479
 11
366.40089290619494
 21
-884.5700049197479
  0
LINE
  8
ValleyLine
  6
CONTINUOUS
 62
5
 10
-43.41145988981097
 20
-884.5700049197479
 11
-366.40089290619505
 21
-884.5700049197479
  0
LINE
  8
MountainLine
  6
CONTINUOUS
 62
1
 10
-63.83444078725111
 20
-1055.2241309973558
 11
437.08814640246817
 21
-1055.2241309973558
  0
LINE
  8
ValleyLine
  6
CONTINUOUS
 62
5
 10
-63.83444078725111
 20
-1055.2241309973558
 11
-437.08814640246834
 21
-1055.2241309973558
  0
LINE
  8
MountainLine
  6
CONTINUOUS
 62
1
 10
-79.46983862564741
 20
-1191.0639452960304
 11
493.3548397952219
 21
-1191.0639452960304
  0
LINE
  8
ValleyLine
  6
CONTINUOUS
 62
5
 10
-79.46983862564741
 20
-1191.0639452960304
 11
-493.354839795222
 21
-1191.0639452960304
  0
LINE
  8
ValleyLine
  6
CONTINUOUS
 62
5
 10
-84.68163790511286
 20
-1236.3438833955888
 11
512.1104042594732
 21
-1236.3438833955888
  0
LINE
  8
MountainLine
  6
CONTINUOUS
 62
1
 10
-84.68163790511286
 20
-1236.3438833955888
 11
-512.1104042594733
 21
-1236.3438833955888
  0
LINE
  8
ValleyLine
  6
CONTINUOUS
 62
5
 10
-84.68163790511286
 20
-1236.3438833955888
 11
512.1104042594732
 21
-1236.3438833955888
  0
LINE
  8
MountainLine
  6
CONTINUOUS
 62
1
 10
-84.68163790511286
 20
-1236.3438833955888
 11
-512.1104042594733
 21
-1236.3438833955888
  0
LINE
  8
ValleyLine
  6
CONTINUOUS
 62
5
 10
0.0
 20
-0.0
 11
0.0
 21
-0.0
  0
LINE
  8
ValleyLine
  6
CONTINUOUS
 62
5
 10
0.0
 20
-0.0
 11
8.83249819886894
 21
-3.69022106487847
  0
LINE
  8
ValleyLine
  6
CONTINUOUS
 62
5
 10
8.83249819886894
 20
-3.69022106487847
 11
35.32999279547576
 21
-14.76088425951388
  0
LINE
  8
ValleyLine
  6
CONTINUOUS
 62
5
 10
35.32999279547576
 20
-14.76088425951388
 11
69.89404914457705
 21
-29.327196198652242
  0
LINE
  8
ValleyLine
  6
CONTINUOUS
 62
5
 10
69.89404914457705
 20
-29.327196198652242
 11
103.16090407247867
 21
-43.7390349685888
  0
LINE
  8
ValleyLine
  6
CONTINUOUS
 62
5
 10
103.16090407247867
 20
-43.7390349685888
 11
135.11742586526174
 21
-58.554632981403635
  0
LINE
  8
ValleyLine
  6
CONTINUOUS
 62
5
 10
135.11742586526174
 20
-58.554632981403635
 11
166.5614282239069
 21
-75.14316806407632
  0
LINE
  8
ValleyLine
  6
CONTINUOUS
 62
5
 10
166.5614282239069
 20
-75.14316806407632
 11
196.6633803895949
 21
-93.6035761625359
  0
LINE
  8
ValleyLine
  6
CONTINUOUS
 62
5
 10
196.6633803895949
 20
-93.6035761625359
 11
224.55162729657883
 21
-113.99266891578372
  0
LINE
  8
ValleyLine
  6
CONTINUOUS
 62
5
 10
224.55162729657883
 20
-113.99266891578372
 11
249.648450161931
 21
-136.66119424564042
  0
LINE
  8
ValleyLine
  6
CONTINUOUS
 62
5
 10
249.648450161931
 20
-136.66119424564042
 11
272.0272884101747
 21
-162.61105828137758
  0
LINE
  8
ValleyLine
  6
CONTINUOUS
 62
5
 10
272.0272884101747
 20
-162.61105828137758
 11
292.530334049168
 21
-191.641713500905
  0
LINE
  8
ValleyLine
  6
CONTINUOUS
 62
5
 10
292.530334049168
 20
-191.641713500905
 11
311.2812100823186
 21
-222.83404337768255
  0
LINE
  8
ValleyLine
  6
CONTINUOUS
 62
5
 10
311.2812100823186
 20
-222.83404337768255
 11
328.10481646306715
 21
-254.9702083352027
  0
LINE
  8
ValleyLine
  6
CONTINUOUS
 62
5
 10
328.10481646306715
 20
-254.9702083352027
 11
342.88571564272144
 21
-286.89203129482524
  0
LINE
  8
ValleyLine
  6
CONTINUOUS
 62
5
 10
342.88571564272144
 20
-286.89203129482524
 11
360.5294674595503
 21
-323.64791312631866
  0
LINE
  8
ValleyLine
  6
CONTINUOUS
 62
5
 10
360.5294674595503
 20
-323.64791312631866
 11
397.0134655423613
 21
-389.70000472957486
  0
LINE
  8
ValleyLine
  6
CONTINUOUS
 62
5
 10
397.0134655423613
 20
-389.70000472957486
 11
431.608024828924
 21
-439.4357133551095
  0
LINE
  8
ValleyLine
  6
CONTINUOUS
 62
5
 10
431.608024828924
 20
-439.4357133551095
 11
502.7021262519891
 21
-536.4126096859267
  0
LINE
  8
ValleyLine
  6
CONTINUOUS
 62
5
 10
502.7021262519891
 20
-536.4126096859267
 11
594.7889112436783
 21
-656.1819865822647
  0
LINE
  8
ValleyLine
  6
CONTINUOUS
 62
5
 10
594.7889112436783
 20
-656.1819865822647
 11
701.0183727459956
 21
-791.2939046538282
  0
LINE
  8
ValleyLine
  6
CONTINUOUS
 62
5
 10
701.0183727459956
 20
-791.2939046538282
 11
786.0157307536302
 21
-898.4030543376222
  0
LINE
  8
ValleyLine
  6
CONTINUOUS
 62
5
 10
786.0157307536302
 20
-898.4030543376222
 11
814.3481834228419
 21
-934.1061042322201
  0
LINE
  8
ValleyLine
  6
CONTINUOUS
 62
5
 10
814.3481834228419
 20
-934.1061042322201
 11
814.3481834228419
 21
-934.1061042322201
  0
LINE
  8
ValleyLine
  6
CONTINUOUS
 62
5
 10
814.3481834228419
 20
-934.1061042322201
 11
814.3481834228419
 21
-934.1061042322201
  0
LINE
  8
ValleyLine
  6
CONTINUOUS
 62
5
 10
0.0
 20
-0.0
 11
0.0
 21
-0.0
  0
LINE
  8
MountainLine
  6
CONTINUOUS
 62
1
 10
0.0
 20
-0.0
 11
0.0
 21
-0.0
  0
LINE
  8
ValleyLine
  6
CONTINUOUS
 62
5
 10
0.0
 20
-0.0
 11
0.0
 21
-0.0
  0
LINE
  8
MountainLine
  6
CONTINUOUS
 62
1
 10
0.0
 20
-0.0
 11
0.0
 21
-0.0
  0
LINE
  8
ValleyLine
  6
CONTINUOUS
 62
5
 10
8.83249819886894
 20
-3.69022106487847
 11
8.854899710291201
 21
-3.6678195534562077
  0
LINE
  8
MountainLine
  6
CONTINUOUS
 62
1
 10
8.83249819886894
 20
-3.69022106487847
 11
3.667819553456206
 21
-8.854899710291203
  0
LINE
  8
ValleyLine
  6
CONTINUOUS
 62
5
 10
35.32999279547576
 20
-14.76088425951388
 11
35.419598841164806
 21
-14.67127821382483
  0
LINE
  8
MountainLine
  6
CONTINUOUS
 62
1
 10
35.32999279547576
 20
-14.76088425951388
 11
14.671278213824824
 21
-35.41959884116481
  0
LINE
  8
ValleyLine
  6
CONTINUOUS
 62
5
 10
69.89404914457705
 20
-29.327196198652242
 11
70.16001541997159
 21
-29.061229923257716
  0
LINE
  8
MountainLine
  6
CONTINUOUS
 62
1
 10
69.89404914457705
 20
-29.327196198652242
 11
29.061229923257706
 21
-70.16001541997159
  0
LINE
  8
ValleyLine
  6
CONTINUOUS
 62
5
 10
103.16090407247867
 20
-43.7390349685888
 11
103.87394305182926
 21
-43.02599598923821
  0
LINE
  8
MountainLine
  6
CONTINUOUS
 62
1
 10
103.16090407247867
 20
-43.7390349685888
 11
43.02599598923819
 21
-103.87394305182926
  0
LINE
  8
ValleyLine
  6
CONTINUOUS
 62
5
 10
135.11742586526174
 20
-58.554632981403635
 11
136.94682613683716
 21
-56.72523270982821
  0
LINE
  8
MountainLine
  6
CONTINUOUS
 62
1
 10
135.11742586526174
 20
-58.554632981403635
 11
56.7252327098282
 21
-136.94682613683716
  0
LINE
  8
ValleyLine
  6
CONTINUOUS
 62
5
 10
166.5614282239069
 20
-75.14316806407632
 11
170.91095907918975
 21
-70.79363720879347
  0
LINE
  8
MountainLine
  6
CONTINUOUS
 62
1
 10
166.5614282239069
 20
-75.14316806407632
 11
70.79363720879344
 21
-170.91095907918975
  0
LINE
  8
ValleyLine
  6
CONTINUOUS
 62
5
 10
196.6633803895949
 20
-93.6035761625359
 11
205.24973333239262
 21
-85.01722321973817
  0
LINE
  8
MountainLine
  6
CONTINUOUS
 62
1
 10
196.6633803895949
 20
-93.6035761625359
 11
85.01722321973813
 21
-205.24973333239262
  0
LINE
  8
ValleyLine
  6
CONTINUOUS
 62
5
 10
224.55162729657883
 20
-113.99266891578372
 11
239.3869675837888
 21
-99.1573286285738
  0
LINE
  8
MountainLine
  6
CONTINUOUS
 62
1
 10
224.55162729657883
 20
-113.99266891578372
 11
99.15732862857375
 21
-239.3869675837888
  0
LINE
  8
ValleyLine
  6
CONTINUOUS
 62
5
 10
249.648450161931
 20
-136.66119424564042
 11
273.1621691983576
 21
-113.14747520921384
  0
LINE
  8
MountainLine
  6
CONTINUOUS
 62
1
 10
249.648450161931
 20
-136.66119424564042
 11
113.14747520921384
 21
-273.1621691983576
  0
LINE
  8
ValleyLine
  6
CONTINUOUS
 62
5
 10
272.0272884101747
 20
-162.61105828137758
 11
307.3357223093063
 21
-127.30262438224607
  0
LINE
  8
MountainLine
  6
CONTINUOUS
 62
1
 10
272.0272884101747
 20
-162.61105828137758
 11
127.30262438224601
 21
-307.3357223093063
  0
LINE
  8
ValleyLine
  6
CONTINUOUS
 62
5
 10
292.530334049168
 20
-191.641713500905
 11
342.3613380836322
 21
-141.8107094664409
  0
LINE
  8
MountainLine
  6
CONTINUOUS
 62
1
 10
292.530334049168
 20
-191.641713500905
 11
141.81070946644084
 21
-342.3613380836322
  0
LINE
  8
ValleyLine
  6
CONTINUOUS
 62
5
 10
311.2812100823186
 20
-222.83404337768255
 11
377.6765176567384
 21
-156.43873580326277
  0
LINE
  8
MountainLine
  6
CONTINUOUS
 62
1
 10
311.2812100823186
 20
-222.83404337768255
 11
156.43873580326272
 21
-377.6765176567384
  0
LINE
  8
ValleyLine
  6
CONTINUOUS
 62
5
 10
328.10481646306715
 20
-254.9702083352027
 11
412.29630397537096
 21
-170.77872082289892
  0
LINE
  8
MountainLine
  6
CONTINUOUS
 62
1
 10
328.10481646306715
 20
-254.9702083352027
 11
170.77872082289883
 21
-412.29630397537096
  0
LINE
  8
MountainLine
  6
CONTINUOUS
 62
1
 10
342.88571564272144
 20
-286.89203129482524
 11
445.3201154999247
 21
-184.45763143762198
  0
LINE
  8
ValleyLine
  6
CONTINUOUS
 62
5
 10
342.88571564272144
 20
-286.89203129482524
 11
184.45763143762196
 21
-445.3201154999247
  0
LINE
  8
MountainLine
  6
CONTINUOUS
 62
1
 10
360.5294674595503
 20
-323.64791312631866
 11
483.78646534671725
 21
-200.39091523915172
  0
LINE
  8
ValleyLine
  6
CONTINUOUS
 62
5
 10
360.5294674595503
 20
-323.64791312631866
 11
200.3909152391516
 21
-483.78646534671725
  0
LINE
  8
MountainLine
  6
CONTINUOUS
 62
1
 10
397.0134655423613
 20
-389.70000472957486
 11
556.2904296800874
 21
-230.42304059184877
  0
LINE
  8
ValleyLine
  6
CONTINUOUS
 62
5
 10
397.0134655423613
 20
-389.70000472957486
 11
230.4230405918487
 21
-556.2904296800874
  0
LINE
  8
MountainLine
  6
CONTINUOUS
 62
1
 10
431.608024828924
 20
-439.4357133551095
 11
615.9209339800097
 21
-255.12280420402377
  0
LINE
  8
ValleyLine
  6
CONTINUOUS
 62
5
 10
431.608024828924
 20
-439.4357133551095
 11
255.12280420402365
 21
-615.9209339800097
  0
LINE
  8
MountainLine
  6
CONTINUOUS
 62
1
 10
502.7021262519891
 20
-536.4126096859267
 11
734.7650762125689
 21
-304.34965972534695
  0
LINE
  8
ValleyLine
  6
CONTINUOUS
 62
5
 10
502.7021262519891
 20
-536.4126096859267
 11
304.34965972534684
 21
-734.7650762125689
  0
LINE
  8
MountainLine
  6
CONTINUOUS
 62
1
 10
594.7889112436783
 20
-656.1819865822647
 11
884.5700049197478
 21
-366.40089290619517
  0
LINE
  8
ValleyLine
  6
CONTINUOUS
 62
5
 10
594.7889112436783
 20
-656.1819865822647
 11
366.40089290619494
 21
-884.5700049197479
  0
LINE
  8
MountainLine
  6
CONTINUOUS
 62
1
 10
701.0183727459956
 20
-791.2939046538282
 11
1055.2241309973558
 21
-437.0881464024682
  0
LINE
  8
ValleyLine
  6
CONTINUOUS
 62
5
 10
701.0183727459956
 20
-791.2939046538282
 11
437.0881464024682
 21
-1055.2241309973558
  0
LINE
  8
MountainLine
  6
CONTINUOUS
 62
1
 10
786.0157307536302
 20
-898.4030543376222
 11
1191.0639452960304
 21
-493.3548397952221
  0
LINE
  8
ValleyLine
  6
CONTINUOUS
 62
5
 10
786.0157307536302
 20
-898.4030543376222
 11
493.3548397952219
 21
-1191.0639452960304
  0
LINE
  8
ValleyLine
  6
CONTINUOUS
 62
5
 10
814.3481834228419
 20
-934.1061042322201
 11
1236.3438833955888
 21
-512.1104042594734
  0
LINE
  8
MountainLine
  6
CONTINUOUS
 62
1
 10
814.3481834228419
 20
-934.1061042322201
 11
512.1104042594732
 21
-1236.3438833955888
  0
LINE
  8
ValleyLine
  6
CONTINUOUS
 62
5
 10
814.3481834228419
 20
-934.1061042322201
 11
1236.3438833955888
 21
-512.1104042594734
  0
LINE
  8
MountainLine
  6
CONTINUOUS
 62
1
 10
814.3481834228419
 20
-934.1061042322201
 11
512.1104042594732
 21
-1236.3438833955888
  0
LINE
  8
ValleyLine
  6
CONTINUOUS
 62
5
 10
0.0
 20
-0.0
 11
0.0
 21
-0.0
  0
LINE
  8
ValleyLine
  6
CONTINUOUS
 62
5
 10
0.0
 20
-0.0
 11
8.854899710291203
 21
3.6361390321851856
  0
LINE
  8
ValleyLine
  6
CONTINUOUS
 62
5
 10
8.854899710291203
 20
3.6361390321851856
 11
35.41959884116481
 21
14.544556128740743
  0
LINE
  8
ValleyLine
  6
CONTINUOUS
 62
5
 10
35.41959884116481
 20
14.544556128740743
 11
70.16001541997159
 21
28.68509680946091
  0
LINE
  8
ValleyLine
  6
CONTINUOUS
 62
5
 10
70.16001541997159
 20
28.68509680946091
 11
103.87394305182926
 21
42.01760659413992
  0
LINE
  8
ValleyLine
  6
CONTINUOUS
 62
5
 10
103.87394305182926
 20
42.01760659413992
 11
136.94682613683716
 21
54.138070034757206
  0
LINE
  8
ValleyLine
  6
CONTINUOUS
 62
5
 10
136.94682613683716
 20
54.138070034757206
 11
170.91095907918975
 21
64.64247168329217
  0
LINE
  8
ValleyLine
  6
CONTINUOUS
 62
5
 10
170.91095907918975
 20
64.64247168329217
 11
205.24973333239262
 21
72.87428643671142
  0
LINE
  8
ValleyLine
  6
CONTINUOUS
 62
5
 10
205.24973333239262
 20
72.87428643671142
 11
239.3869675837888
 21
78.17698919198148
  0
LINE
  8
ValleyLine
  6
CONTINUOUS
 62
5
 10
239.3869675837888
 20
78.17698919198148
 11
273.1621691983576
 21
79.89405484606893
  0
LINE
  8
ValleyLine
  6
CONTINUOUS
 62
5
 10
273.1621691983576
 20
79.89405484606893
 11
307.3357223093063
 21
77.3689582959403
  0
LINE
  8
ValleyLine
  6
CONTINUOUS
 62
5
 10
307.3357223093063
 20
77.3689582959403
 11
342.3613380836322
 21
71.3390277342332
  0
LINE
  8
ValleyLine
  6
CONTINUOUS
 62
5
 10
342.3613380836322
 20
71.3390277342332
 11
377.6765176567384
 21
62.54159135358516
  0
LINE
  8
ValleyLine
  6
CONTINUOUS
 62
5
 10
377.6765176567384
 20
62.54159135358516
 11
412.29630397537096
 21
51.713977346633705
  0
LINE
  8
ValleyLine
  6
CONTINUOUS
 62
5
 10
412.29630397537096
 20
51.713977346633705
 11
445.3201154999247
 21
39.59351390601642
  0
LINE
  8
ValleyLine
  6
CONTINUOUS
 62
5
 10
445.3201154999247
 20
39.59351390601642
 11
483.78646534671725
 21
26.07919716972814
  0
LINE
  8
ValleyLine
  6
CONTINUOUS
 62
5
 10
483.78646534671725
 20
26.07919716972814
 11
556.2904296800874
 21
5.171397734663307
  0
LINE
  8
ValleyLine
  6
CONTINUOUS
 62
5
 10
556.2904296800874
 20
5.171397734663307
 11
615.9209339800097
 21
-5.535011637881969
  0
LINE
  8
ValleyLine
  6
CONTINUOUS
 62
5
 10
615.9209339800097
 20
-5.535011637881969
 11
734.7650762125689
 21
-23.836911433214087
  0
LINE
  8
ValleyLine
  6
CONTINUOUS
 62
5
 10
734.7650762125689
 20
-23.836911433214087
 11
884.5700049197479
 21
-43.41145988981102
  0
LINE
  8
ValleyLine
  6
CONTINUOUS
 62
5
 10
884.5700049197479
 20
-43.41145988981102
 11
1055.2241309973558
 21
-63.834440787251175
  0
LINE
  8
ValleyLine
  6
CONTINUOUS
 62
5
 10
1055.2241309973558
 20
-63.834440787251175
 11
1191.0639452960304
 21
-79.46983862564748
  0
LINE
  8
ValleyLine
  6
CONTINUOUS
 62
5
 10
1191.0639452960304
 20
-79.46983862564748
 11
1236.3438833955888
 21
-84.68163790511294
  0
LINE
  8
ValleyLine
  6
CONTINUOUS
 62
5
 10
1236.3438833955888
 20
-84.68163790511294
 11
1236.3438833955888
 21
-84.68163790511294
  0
LINE
  8
ValleyLine
  6
CONTINUOUS
 62
5
 10
1236.3438833955888
 20
-84.68163790511294
 11
1236.3438833955888
 21
-84.68163790511294
  0
LINE
  8
ValleyLine
  6
CONTINUOUS
 62
5
 10
0.0
 20
-0.0
 11
0.0
 21
-0.0
  0
LINE
  8
MountainLine
  6
CONTINUOUS
 62
1
 10
0.0
 20
-0.0
 11
0.0
 21
-0.0
  0
LINE
  8
ValleyLine
  6
CONTINUOUS
 62
5
 10
0.0
 20
-0.0
 11
0.0
 21
-0.0
  0
LINE
  8
MountainLine
  6
CONTINUOUS
 62
1
 10
0.0
 20
-0.0
 11
0.0
 21
-0.0
  0
LINE
  8
ValleyLine
  6
CONTINUOUS
 62
5
 10
8.854899710291203
 20
3.6361390321851856
 11
8.854899710291203
 21
3.667819553456205
  0
LINE
  8
MountainLine
  6
CONTINUOUS
 62
1
 10
8.854899710291203
 20
3.6361390321851856
 11
8.854899710291203
 21
-3.6678195534562072
  0
LINE
  8
ValleyLine
  6
CONTINUOUS
 62
5
 10
35.41959884116481
 20
14.544556128740743
 11
35.41959884116481
 21
14.67127821382482
  0
LINE
  8
MountainLine
  6
CONTINUOUS
 62
1
 10
35.41959884116481
 20
14.544556128740743
 11
35.41959884116481
 21
-14.671278213824829
  0
LINE
  8
ValleyLine
  6
CONTINUOUS
 62
5
 10
70.16001541997159
 20
28.68509680946091
 11
70.16001541997159
 21
29.0612299232577
  0
LINE
  8
MountainLine
  6
CONTINUOUS
 62
1
 10
70.16001541997159
 20
28.68509680946091
 11
70.16001541997159
 21
-29.061229923257716
  0
LINE
  8
ValleyLine
  6
CONTINUOUS
 62
5
 10
103.87394305182926
 20
42.01760659413992
 11
103.87394305182926
 21
43.02599598923819
  0
LINE
  8
MountainLine
  6
CONTINUOUS
 62
1
 10
103.87394305182926
 20
42.01760659413992
 11
103.87394305182926
 21
-43.02599598923821
  0
LINE
  8
ValleyLine
  6
CONTINUOUS
 62
5
 10
136.94682613683716
 20
54.138070034757206
 11
136.94682613683716
 21
56.725232709828184
  0
LINE
  8
MountainLine
  6
CONTINUOUS
 62
1
 10
136.94682613683716
 20
54.138070034757206
 11
136.94682613683716
 21
-56.72523270982823
  0
LINE
  8
ValleyLine
  6
CONTINUOUS
 62
5
 10
170.91095907918975
 20
64.64247168329217
 11
170.91095907918975
 21
70.79363720879344
  0
LINE
  8
MountainLine
  6
CONTINUOUS
 62
1
 10
170.91095907918975
 20
64.64247168329217
 11
170.91095907918975
 21
-70.79363720879347
  0
LINE
  8
ValleyLine
  6
CONTINUOUS
 62
5
 10
205.24973333239262
 20
72.87428643671142
 11
205.24973333239262
 21
85.01722321973811
  0
LINE
  8
MountainLine
  6
CONTINUOUS
 62
1
 10
205.24973333239262
 20
72.87428643671142
 11
205.24973333239262
 21
-85.01722321973816
  0
LINE
  8
ValleyLine
  6
CONTINUOUS
 62
5
 10
239.3869675837888
 20
78.17698919198148
 11
239.3869675837888
 21
99.15732862857375
  0
LINE
  8
MountainLine
  6
CONTINUOUS
 62
1
 10
239.3869675837888
 20
78.17698919198148
 11
239.3869675837888
 21
-99.15732862857382
  0
LINE
  8
ValleyLine
  6
CONTINUOUS
 62
5
 10
273.1621691983576
 20
79.89405484606893
 11
273.1621691983576
 21
113.1474752092138
  0
LINE
  8
MountainLine
  6
CONTINUOUS
 62
1
 10
273.1621691983576
 20
79.89405484606893
 11
273.1621691983576
 21
-113.14747520921388
  0
LINE
  8
ValleyLine
  6
CONTINUOUS
 62
5
 10
307.3357223093063
 20
77.3689582959403
 11
307.3357223093063
 21
127.30262438224601
  0
LINE
  8
MountainLine
  6
CONTINUOUS
 62
1
 10
307.3357223093063
 20
77.3689582959403
 11
307.3357223093063
 21
-127.30262438224608
  0
LINE
  8
ValleyLine
  6
CONTINUOUS
 62
5
 10
342.3613380836322
 20
71.3390277342332
 11
342.3613380836322
 21
141.8107094664408
  0
LINE
  8
MountainLine
  6
CONTINUOUS
 62
1
 10
342.3613380836322
 20
71.3390277342332
 11
342.3613380836322
 21
-141.8107094664409
  0
LINE
  8
ValleyLine
  6
CONTINUOUS
 62
5
 10
377.6765176567384
 20
62.54159135358516
 11
377.6765176567384
 21
156.4387358032627
  0
LINE
  8
MountainLine
  6
CONTINUOUS
 62
1
 10
377.6765176567384
 20
62.54159135358516
 11
377.6765176567384
 21
-156.43873580326277
  0
LINE
  8
ValleyLine
  6
CONTINUOUS
 62
5
 10
412.29630397537096
 20
51.713977346633705
 11
412.29630397537096
 21
170.77872082289883
  0
LINE
  8
MountainLine
  6
CONTINUOUS
 62
1
 10
412.29630397537096
 20
51.713977346633705
 11
412.29630397537096
 21
-170.77872082289892
  0
LINE
  8
MountainLine
  6
CONTINUOUS
 62
1
 10
445.3201154999247
 20
39.59351390601642
 11
445.3201154999247
 21
184.45763143762187
  0
LINE
  8
ValleyLine
  6
CONTINUOUS
 62
5
 10
445.3201154999247
 20
39.59351390601642
 11
445.3201154999247
 21
-184.457631437622
  0
LINE
  8
MountainLine
  6
CONTINUOUS
 62
1
 10
483.78646534671725
 20
26.07919716972814
 11
483.78646534671725
 21
200.39091523915158
  0
LINE
  8
ValleyLine
  6
CONTINUOUS
 62
5
 10
483.78646534671725
 20
26.07919716972814
 11
483.78646534671725
 21
-200.39091523915172
  0
LINE
  8
MountainLine
  6
CONTINUOUS
 62
1
 10
556.2904296800874
 20
5.171397734663307
 11
556.2904296800874
 21
230.4230405918487
  0
LINE
  8
ValleyLine
  6
CONTINUOUS
 62
5
 10
556.2904296800874
 20
5.171397734663307
 11
556.2904296800874
 21
-230.42304059184883
  0
LINE
  8
MountainLine
  6
CONTINUOUS
 62
1
 10
615.9209339800097
 20
-5.535011637881969
 11
615.9209339800097
 21
255.12280420402365
  0
LINE
  8
ValleyLine
  6
CONTINUOUS
 62
5
 10
615.9209339800097
 20
-5.535011637881969
 11
615.9209339800097
 21
-255.1228042040238
  0
LINE
  8
MountainLine
  6
CONTINUOUS
 62
1
 10
734.7650762125689
 20
-23.836911433214087
 11
734.7650762125689
 21
304.3496597253468
  0
LINE
  8
ValleyLine
  6
CONTINUOUS
 62
5
 10
734.7650762125689
 20
-23.836911433214087
 11
734.7650762125689
 21
-304.3496597253469
  0
LINE
  8
MountainLine
  6
CONTINUOUS
 62
1
 10
884.5700049197479
 20
-43.41145988981102
 11
884.5700049197479
 21
366.4008929061949
  0
LINE
  8
ValleyLine
  6
CONTINUOUS
 62
5
 10
884.5700049197479
 20
-43.41145988981102
 11
884.5700049197479
 21
-366.40089290619517
  0
LINE
  8
MountainLine
  6
CONTINUOUS
 62
1
 10
1055.2241309973558
 20
-63.834440787251175
 11
1055.2241309973558
 21
437.0881464024681
  0
LINE
  8
ValleyLine
  6
CONTINUOUS
 62
5
 10
1055.2241309973558
 20
-63.834440787251175
 11
1055.2241309973558
 21
-437.0881464024684
  0
LINE
  8
MountainLine
  6
CONTINUOUS
 62
1
 10
1191.0639452960304
 20
-79.46983862564748
 11
1191.0639452960304
 21
493.35483979522184
  0
LINE
  8
ValleyLine
  6
CONTINUOUS
 62
5
 10
1191.0639452960304
 20
-79.46983862564748
 11
1191.0639452960304
 21
-493.3548397952221
  0
LINE
  8
ValleyLine
  6
CONTINUOUS
 62
5
 10
1236.3438833955888
 20
-84.68163790511294
 11
1236.3438833955888
 21
512.1104042594731
  0
LINE
  8
MountainLine
  6
CONTINUOUS
 62
1
 10
1236.3438833955888
 20
-84.68163790511294
 11
1236.3438833955888
 21
-512.1104042594734
  0
LINE
  8
ValleyLine
  6
CONTINUOUS
 62
5
 10
1236.3438833955888
 20
-84.68163790511294
 11
1236.3438833955888
 21
512.1104042594731
  0
LINE
  8
MountainLine
  6
CONTINUOUS
 62
1
 10
1236.3438833955888
 20
-84.68163790511294
 11
1236.3438833955888
 21
-512.1104042594734
  0
LINE
  8
ValleyLine
  6
CONTINUOUS
 62
5
 10
0.0
 20
0.0
 11
0.0
 21
0.0
  0
LINE
  8
ValleyLine
  6
CONTINUOUS
 62
5
 10
0.0
 20
0.0
 11
3.6902210648784712
 21
8.83249819886894
  0
LINE
  8
ValleyLine
  6
CONTINUOUS
 62
5
 10
3.6902210648784712
 20
8.83249819886894
 11
14.760884259513885
 21
35.32999279547576
  0
LINE
  8
ValleyLine
  6
CONTINUOUS
 62
5
 10
14.760884259513885
 20
35.32999279547576
 11
29.327196198652253
 21
69.89404914457707
  0
LINE
  8
ValleyLine
  6
CONTINUOUS
 62
5
 10
29.327196198652253
 20
69.89404914457707
 11
43.739034968588804
 21
103.16090407247867
  0
LINE
  8
ValleyLine
  6
CONTINUOUS
 62
5
 10
43.739034968588804
 20
103.16090407247867
 11
58.55463298140365
 21
135.11742586526177
  0
LINE
  8
ValleyLine
  6
CONTINUOUS
 62
5
 10
58.55463298140365
 20
135.11742586526177
 11
75.14316806407633
 21
166.5614282239069
  0
LINE
  8
ValleyLine
  6
CONTINUOUS
 62
5
 10
75.14316806407633
 20
166.5614282239069
 11
93.6035761625359
 21
196.6633803895949
  0
LINE
  8
ValleyLine
  6
CONTINUOUS
 62
5
 10
93.6035761625359
 20
196.6633803895949
 11
113.99266891578377
 21
224.55162729657883
  0
LINE
  8
ValleyLine
  6
CONTINUOUS
 62
5
 10
113.99266891578377
 20
224.55162729657883
 11
136.66119424564047
 21
249.64845016193104
  0
LINE
  8
ValleyLine
  6
CONTINUOUS
 62
5
 10
136.66119424564047
 20
249.64845016193104
 11
162.6110582813776
 21
272.0272884101747
  0
LINE
  8
ValleyLine
  6
CONTINUOUS
 62
5
 10
162.6110582813776
 20
272.0272884101747
 11
191.64171350090507
 21
292.530334049168
  0
LINE
  8
ValleyLine
  6
CONTINUOUS
 62
5
 10
191.64171350090507
 20
292.530334049168
 11
222.83404337768255
 21
311.2812100823186
  0
LINE
  8
ValleyLine
  6
CONTINUOUS
 62
5
 10
222.83404337768255
 20
311.2812100823186
 11
254.97020833520273
 21
328.10481646306715
  0
LINE
  8
ValleyLine
  6
CONTINUOUS
 62
5
 10
254.97020833520273
 20
328.10481646306715
 11
286.8920312948253
 21
342.88571564272144
  0
LINE
  8
ValleyLine
  6
CONTINUOUS
 62
5
 10
286.8920312948253
 20
342.88571564272144
 11
323.64791312631866
 21
360.5294674595503
  0
LINE
  8
ValleyLine
  6
CONTINUOUS
 62
5
 10
323.64791312631866
 20
360.5294674595503
 11
389.70000472957497
 21
397.0134655423613
  0
LINE
  8
ValleyLine
  6
CONTINUOUS
 62
5
 10
389.70000472957497
 20
397.0134655423613
 11
439.43571335510956
 21
431.608024828924
  0
LINE
  8
ValleyLine
  6
CONTINUOUS
 62
5
 10
439.43571335510956
 20
431.608024828924
 11
536.4126096859268
 21
502.7021262519891
  0
LINE
  8
ValleyLine
  6
CONTINUOUS
 62
5
 10
536.4126096859268
 20
502.7021262519891
 11
656.1819865822647
 21
594.7889112436783
  0
LINE
  8
ValleyLine
  6
CONTINUOUS
 62
5
 10
656.1819865822647
 20
594.7889112436783
 11
791.2939046538286
 21
701.0183727459956
  0
LINE
  8
ValleyLine
  6
CONTINUOUS
 62
5
 10
791.2939046538286
 20
701.0183727459956
 11
898.4030543376223
 21
786.0157307536302
  0
LINE
  8
ValleyLine
  6
CONTINUOUS
 62
5
 10
898.4030543376223
 20
786.0157307536302
 11
934.1061042322203
 21
814.3481834228419
  0
LINE
  8
ValleyLine
  6
CONTINUOUS
 62
5
 10
934.1061042322203
 20
814.3481834228419
 11
934.1061042322203
 21
814.3481834228419
  0
LINE
  8
ValleyLine
  6
CONTINUOUS
 62
5
 10
934.1061042322203
 20
814.3481834228419
 11
934.1061042322203
 21
814.3481834228419
  0
LINE
  8
ValleyLine
  6
CONTINUOUS
 62
5
 10
0.0
 20
0.0
 11
0.0
 21
0.0
  0
LINE
  8
MountainLine
  6
CONTINUOUS
 62
1
 10
0.0
 20
0.0
 11
0.0
 21
-0.0
  0
LINE
  8
ValleyLine
  6
CONTINUOUS
 62
5
 10
0.0
 20
0.0
 11
0.0
 21
0.0
  0
LINE
  8
MountainLine
  6
CONTINUOUS
 62
1
 10
0.0
 20
0.0
 11
0.0
 21
-0.0
  0
LINE
  8
ValleyLine
  6
CONTINUOUS
 62
5
 10
3.6902210648784712
 20
8.83249819886894
 11
3.6678195534562086
 21
8.854899710291203
  0
LINE
  8
MountainLine
  6
CONTINUOUS
 62
1
 10
3.6902210648784712
 20
8.83249819886894
 11
8.854899710291203
 21
3.6678195534562055
  0
LINE
  8
ValleyLine
  6
CONTINUOUS
 62
5
 10
14.760884259513885
 20
35.32999279547576
 11
14.671278213824834
 21
35.41959884116481
  0
LINE
  8
MountainLine
  6
CONTINUOUS
 62
1
 10
14.760884259513885
 20
35.32999279547576
 11
35.41959884116481
 21
14.671278213824822
  0
LINE
  8
ValleyLine
  6
CONTINUOUS
 62
5
 10
29.327196198652253
 20
69.89404914457707
 11
29.061229923257724
 21
70.16001541997159
  0
LINE
  8
MountainLine
  6
CONTINUOUS
 62
1
 10
29.327196198652253
 20
69.89404914457707
 11
70.1600154199716
 21
29.061229923257702
  0
LINE
  8
ValleyLine
  6
CONTINUOUS
 62
5
 10
43.739034968588804
 20
103.16090407247867
 11
43.02599598923821
 21
103.87394305182926
  0
LINE
  8
MountainLine
  6
CONTINUOUS
 62
1
 10
43.739034968588804
 20
103.16090407247867
 11
103.87394305182927
 21
43.02599598923819
  0
LINE
  8
ValleyLine
  6
CONTINUOUS
 62
5
 10
58.55463298140365
 20
135.11742586526177
 11
56.725232709828234
 21
136.94682613683716
  0
LINE
  8
MountainLine
  6
CONTINUOUS
 62
1
 10
58.55463298140365
 20
135.11742586526177
 11
136.9468261368372
 21
56.725232709828184
  0
LINE
  8
ValleyLine
  6
CONTINUOUS
 62
5
 10
75.14316806407633
 20
166.5614282239069
 11
70.79363720879348
 21
170.91095907918975
  0
LINE
  8
MountainLine
  6
CONTINUOUS
 62
1
 10
75.14316806407633
 20
166.5614282239069
 11
170.91095907918975
 21
70.79363720879343
  0
LINE
  8
ValleyLine
  6
CONTINUOUS
 62
5
 10
93.6035761625359
 20
196.6633803895949
 11
85.01722321973818
 21
205.24973333239262
  0
LINE
  8
MountainLine
  6
CONTINUOUS
 62
1
 10
93.6035761625359
 20
196.6633803895949
 11
205.24973333239262
 21
85.01722321973813
  0
LINE
  8
ValleyLine
  6
CONTINUOUS
 62
5
 10
113.99266891578377
 20
224.55162729657883
 11
99.15732862857384
 21
239.3869675837888
  0
LINE
  8
MountainLine
  6
CONTINUOUS
 62
1
 10
113.99266891578377
 20
224.55162729657883
 11
239.38696758378882
 21
99.15732862857372
  0
LINE
  8
ValleyLine
  6
CONTINUOUS
 62
5
 10
136.66119424564047
 20
249.64845016193104
 11
113.14747520921388
 21
273.1621691983576
  0
LINE
  8
MountainLine
  6
CONTINUOUS
 62
1
 10
136.66119424564047
 20
249.64845016193104
 11
273.1621691983576
 21
113.14747520921382
  0
LINE
  8
ValleyLine
  6
CONTINUOUS
 62
5
 10
162.6110582813776
 20
272.0272884101747
 11
127.30262438224611
 21
307.3357223093063
  0
LINE
  8
MountainLine
  6
CONTINUOUS
 62
1
 10
162.6110582813776
 20
272.0272884101747
 11
307.33572230930633
 21
127.30262438224601
  0
LINE
  8
ValleyLine
  6
CONTINUOUS
 62
5
 10
191.64171350090507
 20
292.530334049168
 11
141.81070946644093
 21
342.3613380836322
  0
LINE
  8
MountainLine
  6
CONTINUOUS
 62
1
 10
191.64171350090507
 20
292.530334049168
 11
342.3613380836322
 21
141.8107094664408
  0
LINE
  8
ValleyLine
  6
CONTINUOUS
 62
5
 10
222.83404337768255
 20
311.2812100823186
 11
156.4387358032628
 21
377.6765176567384
  0
LINE
  8
MountainLine
  6
CONTINUOUS
 62
1
 10
222.83404337768255
 20
311.2812100823186
 11
377.67651765673844
 21
156.4387358032627
  0
LINE
  8
ValleyLine
  6
CONTINUOUS
 62
5
 10
254.97020833520273
 20
328.10481646306715
 11
170.77872082289892
 21
412.29630397537096
  0
LINE
  8
MountainLine
  6
CONTINUOUS
 62
1
 10
254.97020833520273
 20
328.10481646306715
 11
412.296303975371
 21
170.77872082289883
  0
LINE
  8
MountainLine
  6
CONTINUOUS
 62
1
 10
286.8920312948253
 20
342.88571564272144
 11
184.45763143762204
 21
445.3201154999247
  0
LINE
  8
ValleyLine
  6
CONTINUOUS
 62
5
 10
286.8920312948253
 20
342.88571564272144
 11
445.3201154999248
 21
184.4576314376219
  0
LINE
  8
MountainLine
  6
CONTINUOUS
 62
1
 10
323.64791312631866
 20
360.5294674595503
 11
200.39091523915172
 21
483.78646534671725
  0
LINE
  8
ValleyLine
  6
CONTINUOUS
 62
5
 10
323.64791312631866
 20
360.5294674595503
 11
483.78646534671725
 21
200.3909152391516
  0
LINE
  8
MountainLine
  6
CONTINUOUS
 62
1
 10
389.70000472957497
 20
397.0134655423613
 11
230.42304059184886
 21
556.2904296800874
  0
LINE
  8
ValleyLine
  6
CONTINUOUS
 62
5
 10
389.70000472957497
 20
397.0134655423613
 11
556.2904296800875
 21
230.4230405918487
  0
LINE
  8
MountainLine
  6
CONTINUOUS
 62
1
 10
439.43571335510956
 20
431.608024828924
 11
255.12280420402385
 21
615.9209339800097
  0
LINE
  8
ValleyLine
  6
CONTINUOUS
 62
5
 10
439.43571335510956
 20
431.608024828924
 11
615.9209339800099
 21
255.12280420402365
  0
LINE
  8
MountainLine
  6
CONTINUOUS
 62
1
 10
536.4126096859268
 20
502.7021262519891
 11
304.349659725347
 21
734.7650762125689
  0
LINE
  8
ValleyLine
  6
CONTINUOUS
 62
5
 10
536.4126096859268
 20
502.7021262519891
 11
734.7650762125689
 21
304.3496597253468
  0
LINE
  8
MountainLine
  6
CONTINUOUS
 62
1
 10
656.1819865822647
 20
594.7889112436783
 11
366.40089290619517
 21
884.5700049197479
  0
LINE
  8
ValleyLine
  6
CONTINUOUS
 62
5
 10
656.1819865822647
 20
594.7889112436783
 11
884.5700049197482
 21
366.4008929061949
  0
LINE
  8
MountainLine
  6
CONTINUOUS
 62
1
 10
791.2939046538286
 20
701.0183727459956
 11
437.0881464024684
 21
1055.2241309973558
  0
LINE
  8
ValleyLine
  6
CONTINUOUS
 62
5
 10
791.2939046538286
 20
701.0183727459956
 11
1055.2241309973558
 21
437.08814640246817
  0
LINE
  8
MountainLine
  6
CONTINUOUS
 62
1
 10
898.4030543376223
 20
786.0157307536302
 11
493.35483979522223
 21
1191.0639452960304
  0
LINE
  8
ValleyLine
  6
CONTINUOUS
 62
5
 10
898.4030543376223
 20
786.0157307536302
 11
1191.0639452960306
 21
493.35483979522184
  0
LINE
  8
ValleyLine
  6
CONTINUOUS
 62
5
 10
934.1061042322203
 20
814.3481834228419
 11
512.1104042594735
 21
1236.3438833955888
  0
LINE
  8
MountainLine
  6
CONTINUOUS
 62
1
 10
934.1061042322203
 20
814.3481834228419
 11
1236.343883395589
 21
512.1104042594732
  0
LINE
  8
ValleyLine
  6
CONTINUOUS
 62
5
 10
934.1061042322203
 20
814.3481834228419
 11
512.1104042594735
 21
1236.3438833955888
  0
LINE
  8
MountainLine
  6
CONTINUOUS
 62
1
 10
934.1061042322203
 20
814.3481834228419
 11
1236.343883395589
 21
512.1104042594732
  0
LINE
  8
ValleyLine
  6
CONTINUOUS
 62
5
 10
0.0
 20
0.0
 11
0.0
 21
0.0
  0
LINE
  8
ValleyLine
  6
CONTINUOUS
 62
5
 10
0.0
 20
0.0
 11
-3.6361390321851847
 21
8.854899710291203
  0
LINE
  8
ValleyLine
  6
CONTINUOUS
 62
5
 10
-3.6361390321851847
 20
8.854899710291203
 11
-14.544556128740739
 21
35.41959884116481
  0
LINE
  8
ValleyLine
  6
CONTINUOUS
 62
5
 10
-14.544556128740739
 20
35.41959884116481
 11
-28.6850968094609
 21
70.16001541997159
  0
LINE
  8
ValleyLine
  6
CONTINUOUS
 62
5
 10
-28.6850968094609
 20
70.16001541997159
 11
-42.017606594139906
 21
103.87394305182926
  0
LINE
  8
ValleyLine
  6
CONTINUOUS
 62
5
 10
-42.017606594139906
 20
103.87394305182926
 11
-54.13807003475719
 21
136.9468261368372
  0
LINE
  8
ValleyLine
  6
CONTINUOUS
 62
5
 10
-54.13807003475719
 20
136.9468261368372
 11
-64.64247168329216
 21
170.91095907918975
  0
LINE
  8
ValleyLine
  6
CONTINUOUS
 62
5
 10
-64.64247168329216
 20
170.91095907918975
 11
-72.87428643671142
 21
205.24973333239262
  0
LINE
  8
ValleyLine
  6
CONTINUOUS
 62
5
 10
-72.87428643671142
 20
205.24973333239262
 11
-78.17698919198146
 21
239.3869675837888
  0
LINE
  8
ValleyLine
  6
CONTINUOUS
 62
5
 10
-78.17698919198146
 20
239.3869675837888
 11
-79.8940548460689
 21
273.1621691983576
  0
LINE
  8
ValleyLine
  6
CONTINUOUS
 62
5
 10
-79.8940548460689
 20
273.1621691983576
 11
-77.36895829594029
 21
307.3357223093063
  0
LINE
  8
ValleyLine
  6
CONTINUOUS
 62
5
 10
-77.36895829594029
 20
307.3357223093063
 11
-71.33902773423318
 21
342.3613380836322
  0
LINE
  8
ValleyLine
  6
CONTINUOUS
 62
5
 10
-71.33902773423318
 20
342.3613380836322
 11
-62.54159135358514
 21
377.6765176567384
  0
LINE
  8
ValleyLine
  6
CONTINUOUS
 62
5
 10
-62.54159135358514
 20
377.6765176567384
 11
-51.71397734663369
 21
412.29630397537096
  0
LINE
  8
ValleyLine
  6
CONTINUOUS
 62
5
 10
-51.71397734663369
 20
412.29630397537096
 11
-39.59351390601639
 21
445.3201154999247
  0
LINE
  8
ValleyLine
  6
CONTINUOUS
 62
5
 10
-39.59351390601639
 20
445.3201154999247
 11
-26.079197169728108
 21
483.78646534671725
  0
LINE
  8
ValleyLine
  6
CONTINUOUS
 62
5
 10
-26.079197169728108
 20
483.78646534671725
 11
-5.171397734663273
 21
556.2904296800874
  0
LINE
  8
ValleyLine
  6
CONTINUOUS
 62
5
 10
-5.171397734663273
 20
556.2904296800874
 11
5.535011637882008
 21
615.9209339800097
  0
LINE
  8
ValleyLine
  6
CONTINUOUS
 62
5
 10
5.535011637882008
 20
615.9209339800097
 11
23.836911433214134
 21
734.7650762125689
  0
LINE
  8
ValleyLine
  6
CONTINUOUS
 62
5
 10
23.836911433214134
 20
734.7650762125689
 11
43.41145988981108
 21
884.5700049197479
  0
LINE
  8
ValleyLine
  6
CONTINUOUS
 62
5
 10
43.41145988981108
 20
884.5700049197479
 11
63.834440787251246
 21
1055.2241309973558
  0
LINE
  8
ValleyLine
  6
CONTINUOUS
 62
5
 10
63.834440787251246
 20
1055.2241309973558
 11
79.46983862564755
 21
1191.0639452960304
  0
LINE
  8
ValleyLine
  6
CONTINUOUS
 62
5
 10
79.46983862564755
 20
1191.0639452960304
 11
84.68163790511302
 21
1236.3438833955888
  0
LINE
  8
ValleyLine
  6
CONTINUOUS
 62
5
 10
84.68163790511302
 20
1236.3438833955888
 11
84.68163790511302
 21
1236.3438833955888
  0
LINE
  8
ValleyLine
  6
CONTINUOUS
 62
5
 10
84.68163790511302
 20
1236.3438833955888
 11
84.68163790511302
 21
1236.3438833955888
  0
LINE
  8
ValleyLine
  6
CONTINUOUS
 62
5
 10
0.0
 20
0.0
 11
0.0
 21
0.0
  0
LINE
  8
MountainLine
  6
CONTINUOUS
 62
1
 10
0.0
 20
0.0
 11
0.0
 21
-0.0
  0
LINE
  8
ValleyLine
  6
CONTINUOUS
 62
5
 10
0.0
 20
0.0
 11
0.0
 21
0.0
  0
LINE
  8
MountainLine
  6
CONTINUOUS
 62
1
 10
0.0
 20
0.0
 11
0.0
 21
-0.0
  0
LINE
  8
ValleyLine
  6
CONTINUOUS
 62
5
 10
-3.6361390321851847
 20
8.854899710291203
 11
-3.667819553456204
 21
8.854899710291203
  0
LINE
  8
MountainLine
  6
CONTINUOUS
 62
1
 10
-3.6361390321851847
 20
8.854899710291203
 11
3.6678195534562077
 21
8.854899710291201
  0
LINE
  8
ValleyLine
  6
CONTINUOUS
 62
5
 10
-14.544556128740739
 20
35.41959884116481
 11
-14.671278213824817
 21
35.41959884116481
  0
LINE
  8
MountainLine
  6
CONTINUOUS
 62
1
 10
-14.544556128740739
 20
35.41959884116481
 11
14.67127821382483
 21
35.419598841164806
  0
LINE
  8
ValleyLine
  6
CONTINUOUS
 62
5
 10
-28.6850968094609
 20
70.16001541997159
 11
-29.061229923257695
 21
70.16001541997159
  0
LINE
  8
MountainLine
  6
CONTINUOUS
 62
1
 10
-28.6850968094609
 20
70.16001541997159
 11
29.06122992325772
 21
70.16001541997157
  0
LINE
  8
ValleyLine
  6
CONTINUOUS
 62
5
 10
-42.017606594139906
 20
103.87394305182926
 11
-43.02599598923818
 21
103.87394305182926
  0
LINE
  8
MountainLine
  6
CONTINUOUS
 62
1
 10
-42.017606594139906
 20
103.87394305182926
 11
43.02599598923822
 21
103.87394305182926
  0
LINE
  8
ValleyLine
  6
CONTINUOUS
 62
5
 10
-54.13807003475719
 20
136.9468261368372
 11
-56.72523270982818
 21
136.9468261368372
  0
LINE
  8
MountainLine
  6
CONTINUOUS
 62
1
 10
-54.13807003475719
 20
136.9468261368372
 11
56.725232709828234
 21
136.94682613683716
  0
LINE
  8
ValleyLine
  6
CONTINUOUS
 62
5
 10
-64.64247168329216
 20
170.91095907918975
 11
-70.79363720879343
 21
170.91095907918975
  0
LINE
  8
MountainLine
  6
CONTINUOUS
 62
1
 10
-64.64247168329216
 20
170.91095907918975
 11
70.79363720879348
 21
170.91095907918975
  0
LINE
  8
ValleyLine
  6
CONTINUOUS
 62
5
 10
-72.87428643671142
 20
205.24973333239262
 11
-85.0172232197381
 21
205.24973333239262
  0
LINE
  8
MountainLine
  6
CONTINUOUS
 62
1
 10
-72.87428643671142
 20
205.24973333239262
 11
85.01722321973817
 21
205.24973333239262
  0
LINE
  8
ValleyLine
  6
CONTINUOUS
 62
5
 10
-78.17698919198146
 20
239.3869675837888
 11
-99.15732862857375
 21
239.38696758378882
  0
LINE
  8
MountainLine
  6
CONTINUOUS
 62
1
 10
-78.17698919198146
 20
239.3869675837888
 11
99.15732862857382
 21
239.38696758378876
  0
LINE
  8
ValleyLine
  6
CONTINUOUS
 62
5
 10
-79.8940548460689
 20
273.1621691983576
 11
-113.14747520921378
 21
273.1621691983576
  0
LINE
  8
MountainLine
  6
CONTINUOUS
 62
1
 10
-79.8940548460689
 20
273.1621691983576
 11
113.1474752092139
 21
273.16216919835756
  0
LINE
  8
ValleyLine
  6
CONTINUOUS
 62
5
 10
-77.36895829594029
 20
307.3357223093063
 11
-127.302624382246
 21
307.33572230930633
  0
LINE
  8
MountainLine
  6
CONTINUOUS
 62
1
 10
-77.36895829594029
 20
307.3357223093063
 11
127.30262438224611
 21
307.3357223093062
  0
LINE
  8
ValleyLine
  6
CONTINUOUS
 62
5
 10
-71.33902773423318
 20
342.3613380836322
 11
-141.81070946644078
 21
342.3613380836322
  0
LINE
  8
MountainLine
  6
CONTINUOUS
 62
1
 10
-71.33902773423318
 20
342.3613380836322
 11
141.8107094664409
 21
342.3613380836322
  0
LINE
  8
ValleyLine
  6
CONTINUOUS
 62
5
 10
-62.54159135358514
 20
377.6765176567384
 11
-156.43873580326266
 21
377.6765176567384
  0
LINE
  8
MountainLine
  6
CONTINUOUS
 62
1
 10
-62.54159135358514
 20
377.6765176567384
 11
156.4387358032628
 21
377.6765176567384
  0
LINE
  8
ValleyLine
  6
CONTINUOUS
 62
5
 10
-51.71397734663369
 20
412.29630397537096
 11
-170.7787208228988
 21
412.29630397537096
  0
LINE
  8
MountainLine
  6
CONTINUOUS
 62
1
 10
-51.71397734663369
 20
412.29630397537096
 11
170.77872082289895
 21
412.29630397537096
  0
LINE
  8
MountainLine
  6
CONTINUOUS
 62
1
 10
-39.59351390601639
 20
445.3201154999247
 11
-184.45763143762187
 21
445.3201154999247
  0
LINE
  8
ValleyLine
  6
CONTINUOUS
 62
5
 10
-39.59351390601639
 20
445.3201154999247
 11
184.457631437622
 21
445.3201154999247
  0
LINE
  8
MountainLine
  6
CONTINUOUS
 62
1
 10
-26.079197169728108
 20
483.78646534671725
 11
-200.39091523915158
 21
483.7864653467173
  0
LINE
  8
ValleyLine
  6
CONTINUOUS
 62
5
 10
-26.079197169728108
 20
483.78646534671725
 11
200.39091523915172
 21
483.7864653467172
  0
LINE
  8
MountainLine
  6
CONTINUOUS
 62
1
 10
-5.171397734663273
 20
556.2904296800874
 11
-230.42304059184863
 21
556.2904296800875
  0
LINE
  8
ValleyLine
  6
CONTINUOUS
 62
5
 10
-5.171397734663273
 20
556.2904296800874
 11
230.42304059184886
 21
556.2904296800874
  0
LINE
  8
MountainLine
  6
CONTINUOUS
 62
1
 10
5.535011637882008
 20
615.9209339800097
 11
-255.12280420402362
 21
615.9209339800099
  0
LINE
  8
ValleyLine
  6
CONTINUOUS
 62
5
 10
5.535011637882008
 20
615.9209339800097
 11
255.12280420402385
 21
615.9209339800096
  0
LINE
  8
MountainLine
  6
CONTINUOUS
 62
1
 10
23.836911433214134
 20
734.7650762125689
 11
-304.34965972534667
 21
734.7650762125689
  0
LINE
  8
ValleyLine
  6
CONTINUOUS
 62
5
 10
23.836911433214134
 20
734.7650762125689
 11
304.34965972534695
 21
734.7650762125689
  0
LINE
  8
MountainLine
  6
CONTINUOUS
 62
1
 10
43.41145988981108
 20
884.5700049197479
 11
-366.4008929061949
 21
884.5700049197479
  0
LINE
  8
ValleyLine
  6
CONTINUOUS
 62
5
 10
43.41145988981108
 20
884.5700049197479
 11
366.40089290619517
 21
884.5700049197479
  0
LINE
  8
MountainLine
  6
CONTINUOUS
 62
1
 10
63.834440787251246
 20
1055.2241309973558
 11
-437.088146402468
 21
1055.2241309973558
  0
LINE
  8
ValleyLine
  6
CONTINUOUS
 62
5
 10
63.834440787251246
 20
1055.2241309973558
 11
437.08814640246845
 21
1055.2241309973556
  0
LINE
  8
MountainLine
  6
CONTINUOUS
 62
1
 10
79.46983862564755
 20
1191.0639452960304
 11
-493.3548397952217
 21
1191.0639452960306
  0
LINE
  8
ValleyLine
  6
CONTINUOUS
 62
5
 10
79.46983862564755
 20
1191.0639452960304
 11
493.3548397952222
 21
1191.0639452960304
  0
LINE
  8
ValleyLine
  6
CONTINUOUS
 62
5
 10
84.68163790511302
 20
1236.3438833955888
 11
-512.1104042594731
 21
1236.3438833955888
  0
LINE
  8
MountainLine
  6
CONTINUOUS
 62
1
 10
84.68163790511302
 20
1236.3438833955888
 11
512.1104042594734
 21
1236.3438833955886
  0
LINE
  8
ValleyLine
  6
CONTINUOUS
 62
5
 10
84.68163790511302
 20
1236.3438833955888
 11
-512.1104042594731
 21
1236.3438833955888
  0
LINE
  8
MountainLine
  6
CONTINUOUS
 62
1
 10
84.68163790511302
 20
1236.3438833955888
 11
512.1104042594734
 21
1236.3438833955886
  0
LINE
  8
ValleyLine
  6
CONTINUOUS
 62
5
 10
0.0
 20
-0.0
 11
0.0
 21
-0.0
  0
LINE
  8
ValleyLine
  6
CONTINUOUS
 62
5
 10
0.0
 20
-0.0
 11
-8.83249819886894
 21
3.6902210648784712
  0
LINE
  8
ValleyLine
  6
CONTINUOUS
 62
5
 10
-8.83249819886894
 20
3.6902210648784712
 11
-35.32999279547576
 21
14.760884259513885
  0
LINE
  8
ValleyLine
  6
CONTINUOUS
 62
5
 10
-35.32999279547576
 20
14.760884259513885
 11
-69.89404914457705
 21
29.327196198652253
  0
LINE
  8
ValleyLine
  6
CONTINUOUS
 62
5
 10
-69.89404914457705
 20
29.327196198652253
 11
-103.16090407247864
 21
43.73903496858882
  0
LINE
  8
ValleyLine
  6
CONTINUOUS
 62
5
 10
-103.16090407247864
 20
43.73903496858882
 11
-135.11742586526177
 21
58.554632981403664
  0
LINE
  8
ValleyLine
  6
CONTINUOUS
 62
5
 10
-135.11742586526177
 20
58.554632981403664
 11
-166.56142822390686
 21
75.14316806407635
  0
LINE
  8
ValleyLine
  6
CONTINUOUS
 62
5
 10
-166.56142822390686
 20
75.14316806407635
 11
-196.66338038959486
 21
93.6035761625359
  0
LINE
  8
ValleyLine
  6
CONTINUOUS
 62
5
 10
-196.66338038959486
 20
93.6035761625359
 11
-224.55162729657883
 21
113.99266891578378
  0
LINE
  8
ValleyLine
  6
CONTINUOUS
 62
5
 10
-224.55162729657883
 20
113.99266891578378
 11
-249.648450161931
 21
136.66119424564047
  0
LINE
  8
ValleyLine
  6
CONTINUOUS
 62
5
 10
-249.648450161931
 20
136.66119424564047
 11
-272.0272884101747
 21
162.6110582813776
  0
LINE
  8
ValleyLine
  6
CONTINUOUS
 62
5
 10
-272.0272884101747
 20
162.6110582813776
 11
-292.530334049168
 21
191.64171350090507
  0
LINE
  8
ValleyLine
  6
CONTINUOUS
 62
5
 10
-292.530334049168
 20
191.64171350090507
 11
-311.2812100823185
 21
222.83404337768258
  0
LINE
  8
ValleyLine
  6
CONTINUOUS
 62
5
 10
-311.2812100823185
 20
222.83404337768258
 11
-328.1048164630671
 21
254.97020833520273
  0
LINE
  8
ValleyLine
  6
CONTINUOUS
 62
5
 10
-328.1048164630671
 20
254.97020833520273
 11
-342.88571564272144
 21
286.8920312948253
  0
LINE
  8
ValleyLine
  6
CONTINUOUS
 62
5
 10
-342.88571564272144
 20
286.8920312948253
 11
-360.52946745955023
 21
323.64791312631866
  0
LINE
  8
ValleyLine
  6
CONTINUOUS
 62
5
 10
-360.52946745955023
 20
323.64791312631866
 11
-397.01346554236125
 21
389.70000472957497
  0
LINE
  8
ValleyLine
  6
CONTINUOUS
 62
5
 10
-397.01346554236125
 20
389.70000472957497
 11
-431.6080248289239
 21
439.43571335510956
  0
LINE
  8
ValleyLine
  6
CONTINUOUS
 62
5
 10
-431.6080248289239
 20
439.43571335510956
 11
-502.70212625198906
 21
536.4126096859268
  0
LINE
  8
ValleyLine
  6
CONTINUOUS
 62
5
 10
-502.70212625198906
 20
536.4126096859268
 11
-594.7889112436783
 21
656.1819865822647
  0
LINE
  8
ValleyLine
  6
CONTINUOUS
 62
5
 10
-594.7889112436783
 20
656.1819865822647
 11
-701.0183727459954
 21
791.2939046538286
  0
LINE
  8
ValleyLine
  6
CONTINUOUS
 62
5
 10
-701.0183727459954
 20
791.2939046538286
 11
-786.0157307536301
 21
898.4030543376222
  0
LINE
  8
ValleyLine
  6
CONTINUOUS
 62
5
 10
-786.0157307536301
 20
898.4030543376222
 11
-814.3481834228417
 21
934.1061042322203
  0
LINE
  8
ValleyLine
  6
CONTINUOUS
 62
5
 10
-814.3481834228417
 20
934.1061042322203
 11
-814.3481834228417
 21
934.1061042322203
  0
LINE
  8
ValleyLine
  6
CONTINUOUS
 62
5
 10
-814.3481834228417
 20
934.1061042322203
 11
-814.3481834228417
 21
934.1061042322203
  0
LINE
  8
ValleyLine
  6
CONTINUOUS
 62
5
 10
0.0
 20
-0.0
 11
0.0
 21
-0.0
  0
LINE
  8
MountainLine
  6
CONTINUOUS
 62
1
 10
0.0
 20
-0.0
 11
0.0
 21
0.0
  0
LINE
  8
ValleyLine
  6
CONTINUOUS
 62
5
 10
0.0
 20
-0.0
 11
0.0
 21
-0.0
  0
LINE
  8
MountainLine
  6
CONTINUOUS
 62
1
 10
0.0
 20
-0.0
 11
0.0
 21
0.0
  0
LINE
  8
ValleyLine
  6
CONTINUOUS
 62
5
 10
-8.83249819886894
 20
3.6902210648784712
 11
-8.854899710291201
 21
3.6678195534562086
  0
LINE
  8
MountainLine
  6
CONTINUOUS
 62
1
 10
-8.83249819886894
 20
3.6902210648784712
 11
-3.667819553456204
 21
8.854899710291203
  0
LINE
  8
ValleyLine
  6
CONTINUOUS
 62
5
 10
-35.32999279547576
 20
14.760884259513885
 11
-35.419598841164806
 21
14.671278213824834
  0
LINE
  8
MountainLine
  6
CONTINUOUS
 62
1
 10
-35.32999279547576
 20
14.760884259513885
 11
-14.671278213824817
 21
35.41959884116481
  0
LINE
  8
ValleyLine
  6
CONTINUOUS
 62
5
 10
-69.89404914457705
 20
29.327196198652253
 11
-70.16001541997157
 21
29.06122992325773
  0
LINE
  8
MountainLine
  6
CONTINUOUS
 62
1
 10
-69.89404914457705
 20
29.327196198652253
 11
-29.061229923257695
 21
70.16001541997159
  0
LINE
  8
ValleyLine
  6
CONTINUOUS
 62
5
 10
-103.16090407247864
 20
43.73903496858882
 11
-103.87394305182923
 21
43.025995989238226
  0
LINE
  8
MountainLine
  6
CONTINUOUS
 62
1
 10
-103.16090407247864
 20
43.73903496858882
 11
-43.025995989238176
 21
103.87394305182926
  0
LINE
  8
ValleyLine
  6
CONTINUOUS
 62
5
 10
-135.11742586526177
 20
58.554632981403664
 11
-136.94682613683716
 21
56.72523270982824
  0
LINE
  8
MountainLine
  6
CONTINUOUS
 62
1
 10
-135.11742586526177
 20
58.554632981403664
 11
-56.725232709828184
 21
136.94682613683716
  0
LINE
  8
ValleyLine
  6
CONTINUOUS
 62
5
 10
-166.56142822390686
 20
75.14316806407635
 11
-170.91095907918975
 21
70.79363720879348
  0
LINE
  8
MountainLine
  6
CONTINUOUS
 62
1
 10
-166.56142822390686
 20
75.14316806407635
 11
-70.79363720879341
 21
170.91095907918975
  0
LINE
  8
ValleyLine
  6
CONTINUOUS
 62
5
 10
-196.66338038959486
 20
93.6035761625359
 11
-205.2497333323926
 21
85.0172232197382
  0
LINE
  8
MountainLine
  6
CONTINUOUS
 62
1
 10
-196.66338038959486
 20
93.6035761625359
 11
-85.0172232197381
 21
205.24973333239262
  0
LINE
  8
ValleyLine
  6
CONTINUOUS
 62
5
 10
-224.55162729657883
 20
113.99266891578378
 11
-239.3869675837888
 21
99.15732862857384
  0
LINE
  8
MountainLine
  6
CONTINUOUS
 62
1
 10
-224.55162729657883
 20
113.99266891578378
 11
-99.15732862857372
 21
239.38696758378882
  0
LINE
  8
ValleyLine
  6
CONTINUOUS
 62
5
 10
-249.648450161931
 20
136.66119424564047
 11
-273.1621691983576
 21
113.1474752092139
  0
LINE
  8
MountainLine
  6
CONTINUOUS
 62
1
 10
-249.648450161931
 20
136.66119424564047
 11
-113.14747520921378
 21
273.1621691983576
  0
LINE
  8
ValleyLine
  6
CONTINUOUS
 62
5
 10
-272.0272884101747
 20
162.6110582813776
 11
-307.3357223093062
 21
127.30262438224612
  0
LINE
  8
MountainLine
  6
CONTINUOUS
 62
1
 10
-272.0272884101747
 20
162.6110582813776
 11
-127.30262438224598
 21
307.3357223093063
  0
LINE
  8
ValleyLine
  6
CONTINUOUS
 62
5
 10
-292.530334049168
 20
191.64171350090507
 11
-342.3613380836321
 21
141.81070946644093
  0
LINE
  8
MountainLine
  6
CONTINUOUS
 62
1
 10
-292.530334049168
 20
191.64171350090507
 11
-141.81070946644078
 21
342.3613380836322
  0
LINE
  8
ValleyLine
  6
CONTINUOUS
 62
5
 10
-311.2812100823185
 20
222.83404337768258
 11
-377.6765176567383
 21
156.43873580326283
  0
LINE
  8
MountainLine
  6
CONTINUOUS
 62
1
 10
-311.2812100823185
 20
222.83404337768258
 11
-156.43873580326263
 21
377.67651765673844
  0
LINE
  8
ValleyLine
  6
CONTINUOUS
 62
5
 10
-328.1048164630671
 20
254.97020833520273
 11
-412.2963039753709
 21
170.77872082289895
  0
LINE
  8
MountainLine
  6
CONTINUOUS
 62
1
 10
-328.1048164630671
 20
254.97020833520273
 11
-170.77872082289878
 21
412.29630397537096
  0
LINE
  8
MountainLine
  6
CONTINUOUS
 62
1
 10
-342.88571564272144
 20
286.8920312948253
 11
-445.32011549992467
 21
184.4576314376221
  0
LINE
  8
ValleyLine
  6
CONTINUOUS
 62
5
 10
-342.88571564272144
 20
286.8920312948253
 11
-184.4576314376219
 21
445.3201154999247
  0
LINE
  8
MountainLine
  6
CONTINUOUS
 62
1
 10
-360.52946745955023
 20
323.64791312631866
 11
-483.7864653467172
 21
200.39091523915175
  0
LINE
  8
ValleyLine
  6
CONTINUOUS
 62
5
 10
-360.52946745955023
 20
323.64791312631866
 11
-200.39091523915152
 21
483.78646534671725
  0
LINE
  8
MountainLine
  6
CONTINUOUS
 62
1
 10
-397.01346554236125
 20
389.70000472957497
 11
-556.2904296800874
 21
230.4230405918489
  0
LINE
  8
ValleyLine
  6
CONTINUOUS
 62
5
 10
-397.01346554236125
 20
389.70000472957497
 11
-230.4230405918486
 21
556.2904296800875
  0
LINE
  8
MountainLine
  6
CONTINUOUS
 62
1
 10
-431.6080248289239
 20
439.43571335510956
 11
-615.9209339800096
 21
255.12280420402388
  0
LINE
  8
ValleyLine
  6
CONTINUOUS
 62
5
 10
-431.6080248289239
 20
439.43571335510956
 11
-255.1228042040236
 21
615.9209339800099
  0
LINE
  8
MountainLine
  6
CONTINUOUS
 62
1
 10
-502.70212625198906
 20
536.4126096859268
 11
-734.7650762125689
 21
304.34965972534707
  0
LINE
  8
ValleyLine
  6
CONTINUOUS
 62
5
 10
-502.70212625198906
 20
536.4126096859268
 11
-304.3496597253467
 21
734.7650762125689
  0
LINE
  8
MountainLine
  6
CONTINUOUS
 62
1
 10
-594.7889112436783
 20
656.1819865822647
 11
-884.5700049197478
 21
366.4008929061952
  0
LINE
  8
ValleyLine
  6
CONTINUOUS
 62
5
 10
-594.7889112436783
 20
656.1819865822647
 11
-366.4008929061949
 21
884.5700049197482
  0
LINE
  8
MountainLine
  6
CONTINUOUS
 62
1
 10
-701.0183727459954
 20
791.2939046538286
 11
-1055.2241309973556
 21
437.08814640246845
  0
LINE
  8
ValleyLine
  6
CONTINUOUS
 62
5
 10
-701.0183727459954
 20
791.2939046538286
 11
-437.088146402468
 21
1055.2241309973558
  0
LINE
  8
MountainLine
  6
CONTINUOUS
 62
1
 10
-786.0157307536301
 20
898.4030543376222
 11
-1191.0639452960304
 21
493.35483979522223
  0
LINE
  8
ValleyLine
  6
CONTINUOUS
 62
5
 10
-786.0157307536301
 20
898.4030543376222
 11
-493.35483979522166
 21
1191.0639452960306
  0
LINE
  8
ValleyLine
  6
CONTINUOUS
 62
5
 10
-814.3481834228417
 20
934.1061042322203
 11
-1236.3438833955886
 21
512.1104042594736
  0
LINE
  8
MountainLine
  6
CONTINUOUS
 62
1
 10
-814.3481834228417
 20
934.1061042322203
 11
-512.1104042594731
 21
1236.3438833955888
  0
LINE
  8
ValleyLine
  6
CONTINUOUS
 62
5
 10
-814.3481834228417
 20
934.1061042322203
 11
-1236.3438833955886
 21
512.1104042594736
  0
LINE
  8
MountainLine
  6
CONTINUOUS
 62
1
 10
-814.3481834228417
 20
934.1061042322203
 11
-512.1104042594731
 21
1236.3438833955888
  0
ENDSEC
  0
EOF
