  0
SECTION
  2
HEADER
  9
$ACADVER
  1
AC1009
  0
ENDSEC
  0
SECTION
  2
ENTITIES
  0
LINE
  8
reference 10mm
  6
CONTINUOUS
 62
250
 10
-3196.1939319559438
 20
3206.1939319559438
 11
-3186.1939319559438
 21
3206.1939319559438
  0
LINE
  8
reference 10mm
  6
CONTINUOUS
 62
250
 10
-3186.1939319559438
 20
3206.1939319559438
 11
-3186.1939319559438
 21
3216.1939319559438
  0
LINE
  8
reference 10mm
  6
CONTINUOUS
 62
250
 10
-3186.1939319559438
 20
3216.1939319559438
 11
-3196.1939319559438
 21
3216.1939319559438
  0
LINE
  8
reference 10mm
  6
CONTINUOUS
 62
250
 10
-3196.1939319559438
 20
3216.1939319559438
 11
-3196.1939319559438
 21
3206.1939319559438
  0
LINE
  8
MountainLine
  6
CONTINUOUS
 62
1
 10
0.0
 20
-0.0
 11
-3196.1939319559438
 21
-1323.9068745907414
  0
LINE
  8
CutLine
  6
CONTINUOUS
 62
250
 10
-1323.9068745907416
 20
-3196.1939319559438
 11
-3196.1939319559438
 21
-1323.9068745907414
  0
LINE
  8
MountainLine
  6
CONTINUOUS
 62
1
 10
0.0
 20
-0.0
 11
-1323.9068745907416
 21
-3196.1939319559438
  0
LINE
  8
CutLine
  6
CONTINUOUS
 62
250
 10
1323.9068745907412
 20
-3196.1939319559438
 11
-1323.9068745907416
 21
-3196.1939319559438
  0
LINE
  8
MountainLine
  6
CONTINUOUS
 62
1
 10
0.0
 20
-0.0
 11
1323.9068745907412
 21
-3196.1939319559438
  0
LINE
  8
CutLine
  6
CONTINUOUS
 62
250
 10
3196.1939319559438
 20
-1323.9068745907416
 11
1323.9068745907412
 21
-3196.1939319559438
  0
LINE
  8
MountainLine
  6
CONTINUOUS
 62
1
 10
0.0
 20
-0.0
 11
3196.1939319559438
 21
-1323.9068745907416
  0
LINE
  8
CutLine
  6
CONTINUOUS
 62
250
 10
3196.193931955944
 20
1323.9068745907412
 11
3196.1939319559438
 21
-1323.9068745907416
  0
LINE
  8
MountainLine
  6
CONTINUOUS
 62
1
 10
0.0
 20
0.0
 11
3196.193931955944
 21
1323.9068745907412
  0
LINE
  8
CutLine
  6
CONTINUOUS
 62
250
 10
1323.9068745907434
 20
3196.193931955943
 11
3196.193931955944
 21
1323.9068745907412
  0
LINE
  8
MountainLine
  6
CONTINUOUS
 62
1
 10
0.0
 20
0.0
 11
1323.9068745907434
 21
3196.193931955943
  0
LINE
  8
CutLine
  6
CONTINUOUS
 62
250
 10
-1323.9068745907423
 20
3196.1939319559438
 11
1323.9068745907434
 21
3196.193931955943
  0
LINE
  8
MountainLine
  6
CONTINUOUS
 62
1
 10
0.0
 20
0.0
 11
-1323.9068745907423
 21
3196.1939319559438
  0
LINE
  8
CutLine
  6
CONTINUOUS
 62
250
 10
-3196.193931955943
 20
1323.9068745907434
 11
-1323.9068745907423
 21
3196.1939319559438
  0
LINE
  8
MountainLine
  6
CONTINUOUS
 62
1
 10
0.0
 20
0.0
 11
-3196.193931955943
 21
1323.9068745907434
  0
LINE
  8
CutLine
  6
CONTINUOUS
 62
250
 10
-3196.1939319559438
 20
-1323.9068745907418
 11
-3196.193931955943
 21
1323.9068745907434
  0
LINE
  8
ValleyLine
  6
CONTINUOUS
 62
5
 10
0.0
 20
-0.0
 11
0.0
 21
-0.0
  0
LINE
  8
ValleyLine
  6
CONTINUOUS
 62
5
 10
0.0
 20
-0.0
 11
-16.264334820629532
 21
-6.704914402330777
  0
LINE
  8
ValleyLine
  6
CONTINUOUS
 62
5
 10
-16.264334820629532
 20
-6.704914402330777
 11
-65.05733928251813
 21
-26.81965760932311
  0
LINE
  8
ValleyLine
  6
CONTINUOUS
 62
5
 10
-65.05733928251813
 20
-26.81965760932311
 11
-129.64211069657964
 21
-53.40706667760162
  0
LINE
  8
ValleyLine
  6
CONTINUOUS
 62
5
 10
-129.64211069657964
 20
-53.40706667760162
 11
-193.3175708709683
 21
-79.52997866379096
  0
LINE
  8
ValleyLine
  6
CONTINUOUS
 62
5
 10
-193.3175708709683
 20
-79.52997866379096
 11
-255.72248916468087
 21
-104.95614502684651
  0
LINE
  8
ValleyLine
  6
CONTINUOUS
 62
5
 10
-255.72248916468087
 20
-104.95614502684651
 11
-316.61850102101073
 21
-129.45331722572374
  0
LINE
  8
ValleyLine
  6
CONTINUOUS
 62
5
 10
-316.61850102101073
 20
-129.45331722572374
 11
-375.5720243022264
 21
-152.82963776999443
  0
LINE
  8
ValleyLine
  6
CONTINUOUS
 62
5
 10
-375.5720243022264
 20
-152.82963776999443
 11
-432.0719862631452
 21
-174.89324916923047
  0
LINE
  8
ValleyLine
  6
CONTINUOUS
 62
5
 10
-432.0719862631452
 20
-174.89324916923047
 11
-485.5449796427224
 21
-195.45229393300377
  0
LINE
  8
ValleyLine
  6
CONTINUOUS
 62
5
 10
-485.5449796427224
 20
-195.45229393300377
 11
-535.3674614045823
 21
-214.3149145708861
  0
LINE
  8
ValleyLine
  6
CONTINUOUS
 62
5
 10
-535.3674614045823
 20
-214.3149145708861
 11
-580.6167201908455
 21
-230.76416993443553
  0
LINE
  8
ValleyLine
  6
CONTINUOUS
 62
5
 10
-580.6167201908455
 20
-230.76416993443553
 11
-620.9380447040132
 21
-244.0831188752101
  0
LINE
  8
ValleyLine
  6
CONTINUOUS
 62
5
 10
-620.9380447040132
 20
-244.0831188752101
 11
-657.1883527120447
 21
-253.55482024476774
  0
LINE
  8
ValleyLine
  6
CONTINUOUS
 62
5
 10
-657.1883527120447
 20
-253.55482024476774
 11
-692.3344596359186
 21
-258.4623328946665
  0
LINE
  8
ValleyLine
  6
CONTINUOUS
 62
5
 10
-692.3344596359186
 20
-258.4623328946665
 11
-729.1594093036309
 21
-259.1893718057626
  0
LINE
  8
ValleyLine
  6
CONTINUOUS
 62
5
 10
-729.1594093036309
 20
-259.1893718057626
 11
-769.0642870946726
 21
-256.1196519589123
  0
LINE
  8
ValleyLine
  6
CONTINUOUS
 62
5
 10
-769.0642870946726
 20
-256.1196519589123
 11
-812.3634802785288
 21
-249.636888334972
  0
LINE
  8
ValleyLine
  6
CONTINUOUS
 62
5
 10
-812.3634802785288
 20
-249.636888334972
 11
-858.7177442478281
 21
-240.12479591479797
  0
LINE
  8
ValleyLine
  6
CONTINUOUS
 62
5
 10
-858.7177442478281
 20
-240.12479591479797
 11
-907.0619876097608
 21
-228.12865388171218
  0
LINE
  8
ValleyLine
  6
CONTINUOUS
 62
5
 10
-907.0619876097608
 20
-228.12865388171218
 11
-956.1165784913309
 21
-214.1937414190368
  0
LINE
  8
ValleyLine
  6
CONTINUOUS
 62
5
 10
-956.1165784913309
 20
-214.1937414190368
 11
-1004.5469641277633
 21
-198.86533771009385
  0
LINE
  8
ValleyLine
  6
CONTINUOUS
 62
5
 10
-1004.5469641277633
 20
-198.86533771009385
 11
-1051.0966392174887
 21
-182.68872193820542
  0
LINE
  8
ValleyLine
  6
CONTINUOUS
 62
5
 10
-1051.0966392174887
 20
-182.68872193820542
 11
-1097.2253389308898
 21
-165.4922321382516
  0
LINE
  8
ValleyLine
  6
CONTINUOUS
 62
5
 10
-1097.2253389308898
 20
-165.4922321382516
 11
-1144.2686453280355
 21
-147.10420634511257
  0
LINE
  8
ValleyLine
  6
CONTINUOUS
 62
5
 10
-1144.2686453280355
 20
-147.10420634511257
 11
-1193.3704820430921
 21
-127.35298259366829
  0
LINE
  8
ValleyLine
  6
CONTINUOUS
 62
5
 10
-1193.3704820430921
 20
-127.35298259366829
 11
-1245.4659275905951
 21
-106.0668989187989
  0
LINE
  8
ValleyLine
  6
CONTINUOUS
 62
5
 10
-1245.4659275905951
 20
-106.0668989187989
 11
-1297.3271063262164
 21
-84.73032643065895
  0
LINE
  8
ValleyLine
  6
CONTINUOUS
 62
5
 10
-1297.3271063262164
 20
-84.73032643065895
 11
-1345.552449052697
 21
-64.82763623940299
  0
LINE
  8
ValleyLine
  6
CONTINUOUS
 62
5
 10
-1345.552449052697
 20
-64.82763623940299
 11
-1389.8820564547757
 21
-46.510294784842706
  0
LINE
  8
ValleyLine
  6
CONTINUOUS
 62
5
 10
-1389.8820564547757
 20
-46.510294784842706
 11
-1430.0179999535765
 21
-29.92976850678979
  0
LINE
  8
ValleyLine
  6
CONTINUOUS
 62
5
 10
-1430.0179999535765
 20
-29.92976850678979
 11
-1488.754658594711
 21
-5.8595937125189055
  0
LINE
  8
ValleyLine
  6
CONTINUOUS
 62
5
 10
-1488.754658594711
 20
-5.8595937125189055
 11
-1589.2242325373854
 21
34.92669329069529
  0
LINE
  8
ValleyLine
  6
CONTINUOUS
 62
5
 10
-1589.2242325373854
 20
34.92669329069529
 11
-1760.120226862962
 21
103.91745503009938
  0
LINE
  8
ValleyLine
  6
CONTINUOUS
 62
5
 10
-1760.120226862962
 20
103.91745503009938
 11
-2030.067892682883
 21
212.6010540329399
  0
LINE
  8
ValleyLine
  6
CONTINUOUS
 62
5
 10
-2030.067892682883
 20
212.6010540329399
 11
-2375.5089742732926
 21
351.5591691160634
  0
LINE
  8
ValleyLine
  6
CONTINUOUS
 62
5
 10
-2375.5089742732926
 20
351.5591691160634
 11
-2772.87114584493
 21
511.37347909631643
  0
LINE
  8
ValleyLine
  6
CONTINUOUS
 62
5
 10
-2772.87114584493
 20
511.37347909631643
 11
-3090.36323542819
 21
639.0552846679298
  0
LINE
  8
ValleyLine
  6
CONTINUOUS
 62
5
 10
-3090.36323542819
 20
639.0552846679298
 11
-3196.1939319559438
 21
681.6158865251341
  0
LINE
  8
ValleyLine
  6
CONTINUOUS
 62
5
 10
-3196.1939319559438
 20
681.6158865251341
 11
-3196.1939319559438
 21
681.6158865251341
  0
LINE
  8
ValleyLine
  6
CONTINUOUS
 62
5
 10
-3196.1939319559438
 20
681.6158865251341
 11
-3196.1939319559438
 21
681.6158865251341
  0
LINE
  8
ValleyLine
  6
CONTINUOUS
 62
5
 10
0.0
 20
-0.0
 11
0.0
 21
-0.0
  0
LINE
  8
MountainLine
  6
CONTINUOUS
 62
1
 10
0.0
 20
-0.0
 11
0.0
 21
-0.0
  0
LINE
  8
ValleyLine
  6
CONTINUOUS
 62
5
 10
0.0
 20
-0.0
 11
0.0
 21
-0.0
  0
LINE
  8
MountainLine
  6
CONTINUOUS
 62
1
 10
0.0
 20
-0.0
 11
0.0
 21
-0.0
  0
LINE
  8
ValleyLine
  6
CONTINUOUS
 62
5
 10
-16.264334820629532
 20
-6.704914402330777
 11
-16.264334820629532
 21
-6.736908065681732
  0
LINE
  8
MountainLine
  6
CONTINUOUS
 62
1
 10
-16.264334820629532
 20
-6.704914402330777
 11
-16.264334820629532
 21
6.736908065681732
  0
LINE
  8
ValleyLine
  6
CONTINUOUS
 62
5
 10
-65.05733928251813
 20
-26.81965760932311
 11
-65.05733928251813
 21
-26.94763226272693
  0
LINE
  8
MountainLine
  6
CONTINUOUS
 62
1
 10
-65.05733928251813
 20
-26.81965760932311
 11
-65.05733928251813
 21
26.94763226272693
  0
LINE
  8
ValleyLine
  6
CONTINUOUS
 62
5
 10
-129.64211069657964
 20
-53.40706667760162
 11
-129.64211069657964
 21
-53.699520505197384
  0
LINE
  8
MountainLine
  6
CONTINUOUS
 62
1
 10
-129.64211069657964
 20
-53.40706667760162
 11
-129.64211069657964
 21
53.699520505197384
  0
LINE
  8
ValleyLine
  6
CONTINUOUS
 62
5
 10
-193.3175708709683
 20
-79.52997866379096
 11
-193.3175708709683
 21
-80.07475969977703
  0
LINE
  8
MountainLine
  6
CONTINUOUS
 62
1
 10
-193.3175708709683
 20
-79.52997866379096
 11
-193.3175708709683
 21
80.07475969977703
  0
LINE
  8
ValleyLine
  6
CONTINUOUS
 62
5
 10
-255.72248916468087
 20
-104.95614502684651
 11
-255.72248916468087
 21
-105.92372321581766
  0
LINE
  8
MountainLine
  6
CONTINUOUS
 62
1
 10
-255.72248916468087
 20
-104.95614502684651
 11
-255.72248916468087
 21
105.92372321581766
  0
LINE
  8
ValleyLine
  6
CONTINUOUS
 62
5
 10
-316.61850102101073
 20
-129.45331722572374
 11
-316.61850102101073
 21
-131.1476772211423
  0
LINE
  8
MountainLine
  6
CONTINUOUS
 62
1
 10
-316.61850102101073
 20
-129.45331722572374
 11
-316.61850102101073
 21
131.1476772211423
  0
LINE
  8
ValleyLine
  6
CONTINUOUS
 62
5
 10
-375.5720243022264
 20
-152.82963776999443
 11
-375.5720243022264
 21
-155.5670261138998
  0
LINE
  8
MountainLine
  6
CONTINUOUS
 62
1
 10
-375.5720243022264
 20
-152.82963776999443
 11
-375.5720243022264
 21
155.5670261138998
  0
LINE
  8
ValleyLine
  6
CONTINUOUS
 62
5
 10
-432.0719862631452
 20
-174.89324916923047
 11
-432.0719862631452
 21
-178.97007663167636
  0
LINE
  8
MountainLine
  6
CONTINUOUS
 62
1
 10
-432.0719862631452
 20
-174.89324916923047
 11
-432.0719862631452
 21
178.97007663167636
  0
LINE
  8
ValleyLine
  6
CONTINUOUS
 62
5
 10
-485.5449796427224
 20
-195.45229393300377
 11
-485.5449796427224
 21
-201.11931571018397
  0
LINE
  8
MountainLine
  6
CONTINUOUS
 62
1
 10
-485.5449796427224
 20
-195.45229393300377
 11
-485.5449796427224
 21
201.11931571018397
  0
LINE
  8
ValleyLine
  6
CONTINUOUS
 62
5
 10
-535.3674614045823
 20
-214.3149145708861
 11
-535.3674614045823
 21
-221.75646336703247
  0
LINE
  8
MountainLine
  6
CONTINUOUS
 62
1
 10
-535.3674614045823
 20
-214.3149145708861
 11
-535.3674614045823
 21
221.75646336703247
  0
LINE
  8
ValleyLine
  6
CONTINUOUS
 62
5
 10
-580.6167201908455
 20
-230.76416993443553
 11
-580.6167201908455
 21
-240.49932004363268
  0
LINE
  8
MountainLine
  6
CONTINUOUS
 62
1
 10
-580.6167201908455
 20
-230.76416993443553
 11
-580.6167201908455
 21
240.49932004363268
  0
LINE
  8
ValleyLine
  6
CONTINUOUS
 62
5
 10
-620.9380447040132
 20
-244.0831188752101
 11
-620.9380447040132
 21
-257.20095950983347
  0
LINE
  8
MountainLine
  6
CONTINUOUS
 62
1
 10
-620.9380447040132
 20
-244.0831188752101
 11
-620.9380447040132
 21
257.20095950983347
  0
LINE
  8
ValleyLine
  6
CONTINUOUS
 62
5
 10
-657.1883527120447
 20
-253.55482024476774
 11
-657.1883527120447
 21
-272.2163287269621
  0
LINE
  8
MountainLine
  6
CONTINUOUS
 62
1
 10
-657.1883527120447
 20
-253.55482024476774
 11
-657.1883527120447
 21
272.2163287269621
  0
LINE
  8
ValleyLine
  6
CONTINUOUS
 62
5
 10
-692.3344596359186
 20
-258.4623328946665
 11
-692.3344596359186
 21
-286.7743228794456
  0
LINE
  8
MountainLine
  6
CONTINUOUS
 62
1
 10
-692.3344596359186
 20
-258.4623328946665
 11
-692.3344596359186
 21
286.7743228794456
  0
LINE
  8
ValleyLine
  6
CONTINUOUS
 62
5
 10
-729.1594093036309
 20
-259.1893718057626
 11
-729.1594093036309
 21
-302.02771646551867
  0
LINE
  8
MountainLine
  6
CONTINUOUS
 62
1
 10
-729.1594093036309
 20
-259.1893718057626
 11
-729.1594093036309
 21
302.02771646551867
  0
LINE
  8
ValleyLine
  6
CONTINUOUS
 62
5
 10
-769.0642870946726
 20
-256.1196519589123
 11
-769.0642870946726
 21
-318.55685805140905
  0
LINE
  8
MountainLine
  6
CONTINUOUS
 62
1
 10
-769.0642870946726
 20
-256.1196519589123
 11
-769.0642870946726
 21
318.55685805140905
  0
LINE
  8
ValleyLine
  6
CONTINUOUS
 62
5
 10
-812.3634802785288
 20
-249.636888334972
 11
-812.3634802785288
 21
-336.4919711079749
  0
LINE
  8
MountainLine
  6
CONTINUOUS
 62
1
 10
-812.3634802785288
 20
-249.636888334972
 11
-812.3634802785288
 21
336.4919711079749
  0
LINE
  8
ValleyLine
  6
CONTINUOUS
 62
5
 10
-858.7177442478281
 20
-240.12479591479797
 11
-858.7177442478281
 21
-355.6925359178812
  0
LINE
  8
MountainLine
  6
CONTINUOUS
 62
1
 10
-858.7177442478281
 20
-240.12479591479797
 11
-858.7177442478281
 21
355.6925359178812
  0
LINE
  8
ValleyLine
  6
CONTINUOUS
 62
5
 10
-907.0619876097608
 20
-228.12865388171218
 11
-907.0619876097608
 21
-375.71737718105925
  0
LINE
  8
MountainLine
  6
CONTINUOUS
 62
1
 10
-907.0619876097608
 20
-228.12865388171218
 11
-907.0619876097608
 21
375.71737718105925
  0
LINE
  8
ValleyLine
  6
CONTINUOUS
 62
5
 10
-956.1165784913309
 20
-214.1937414190368
 11
-956.1165784913309
 21
-396.0364540208691
  0
LINE
  8
MountainLine
  6
CONTINUOUS
 62
1
 10
-956.1165784913309
 20
-214.1937414190368
 11
-956.1165784913309
 21
396.0364540208691
  0
LINE
  8
ValleyLine
  6
CONTINUOUS
 62
5
 10
-1004.5469641277633
 20
-198.86533771009385
 11
-1004.5469641277633
 21
-416.0969765824386
  0
LINE
  8
MountainLine
  6
CONTINUOUS
 62
1
 10
-1004.5469641277633
 20
-198.86533771009385
 11
-1004.5469641277633
 21
416.0969765824386
  0
LINE
  8
ValleyLine
  6
CONTINUOUS
 62
5
 10
-1051.0966392174887
 20
-182.68872193820542
 11
-1051.0966392174887
 21
-435.37848332866383
  0
LINE
  8
MountainLine
  6
CONTINUOUS
 62
1
 10
-1051.0966392174887
 20
-182.68872193820542
 11
-1051.0966392174887
 21
435.37848332866383
  0
LINE
  8
ValleyLine
  6
CONTINUOUS
 62
5
 10
-1097.2253389308898
 20
-165.4922321382516
 11
-1097.2253389308898
 21
-454.48561636459044
  0
LINE
  8
MountainLine
  6
CONTINUOUS
 62
1
 10
-1097.2253389308898
 20
-165.4922321382516
 11
-1097.2253389308898
 21
454.48561636459044
  0
LINE
  8
ValleyLine
  6
CONTINUOUS
 62
5
 10
-1144.2686453280355
 20
-147.10420634511257
 11
-1144.2686453280355
 21
-473.97159189316125
  0
LINE
  8
MountainLine
  6
CONTINUOUS
 62
1
 10
-1144.2686453280355
 20
-147.10420634511257
 11
-1144.2686453280355
 21
473.97159189316125
  0
LINE
  8
ValleyLine
  6
CONTINUOUS
 62
5
 10
-1193.3704820430921
 20
-127.35298259366829
 11
-1193.3704820430921
 21
-494.31023859796676
  0
LINE
  8
MountainLine
  6
CONTINUOUS
 62
1
 10
-1193.3704820430921
 20
-127.35298259366829
 11
-1193.3704820430921
 21
494.31023859796676
  0
LINE
  8
ValleyLine
  6
CONTINUOUS
 62
5
 10
-1245.4659275905951
 20
-106.0668989187989
 11
-1245.4659275905951
 21
-515.8888786816116
  0
LINE
  8
MountainLine
  6
CONTINUOUS
 62
1
 10
-1245.4659275905951
 20
-106.0668989187989
 11
-1245.4659275905951
 21
515.8888786816116
  0
LINE
  8
ValleyLine
  6
CONTINUOUS
 62
5
 10
-1297.3271063262164
 20
-84.73032643065895
 11
-1297.3271063262164
 21
-537.3704822745611
  0
LINE
  8
MountainLine
  6
CONTINUOUS
 62
1
 10
-1297.3271063262164
 20
-84.73032643065895
 11
-1297.3271063262164
 21
537.3704822745611
  0
LINE
  8
ValleyLine
  6
CONTINUOUS
 62
5
 10
-1345.552449052697
 20
-64.82763623940299
 11
-1345.552449052697
 21
-557.3460732819601
  0
LINE
  8
MountainLine
  6
CONTINUOUS
 62
1
 10
-1345.552449052697
 20
-64.82763623940299
 11
-1345.552449052697
 21
557.3460732819601
  0
LINE
  8
MountainLine
  6
CONTINUOUS
 62
1
 10
-1389.8820564547757
 20
-46.510294784842706
 11
-1389.8820564547757
 21
-575.7079978825759
  0
LINE
  8
ValleyLine
  6
CONTINUOUS
 62
5
 10
-1389.8820564547757
 20
-46.510294784842706
 11
-1389.8820564547757
 21
575.7079978825759
  0
LINE
  8
MountainLine
  6
CONTINUOUS
 62
1
 10
-1430.0179999535765
 20
-29.92976850678979
 11
-1430.0179999535765
 21
-592.3328500184193
  0
LINE
  8
ValleyLine
  6
CONTINUOUS
 62
5
 10
-1430.0179999535765
 20
-29.92976850678979
 11
-1430.0179999535765
 21
592.3328500184193
  0
LINE
  8
MountainLine
  6
CONTINUOUS
 62
1
 10
-1488.754658594711
 20
-5.8595937125189055
 11
-1488.754658594711
 21
-616.6623706360562
  0
LINE
  8
ValleyLine
  6
CONTINUOUS
 62
5
 10
-1488.754658594711
 20
-5.8595937125189055
 11
-1488.754658594711
 21
616.6623706360562
  0
LINE
  8
MountainLine
  6
CONTINUOUS
 62
1
 10
-1589.2242325373854
 20
34.92669329069529
 11
-1589.2242325373854
 21
-658.2782307689585
  0
LINE
  8
ValleyLine
  6
CONTINUOUS
 62
5
 10
-1589.2242325373854
 20
34.92669329069529
 11
-1589.2242325373854
 21
658.2782307689585
  0
LINE
  8
MountainLine
  6
CONTINUOUS
 62
1
 10
-1760.120226862962
 20
103.91745503009938
 11
-1760.120226862962
 21
-729.0656693738476
  0
LINE
  8
ValleyLine
  6
CONTINUOUS
 62
5
 10
-1760.120226862962
 20
103.91745503009938
 11
-1760.120226862962
 21
729.0656693738476
  0
LINE
  8
MountainLine
  6
CONTINUOUS
 62
1
 10
-2030.067892682883
 20
212.6010540329399
 11
-2030.067892682883
 21
-840.881653687419
  0
LINE
  8
ValleyLine
  6
CONTINUOUS
 62
5
 10
-2030.067892682883
 20
212.6010540329399
 11
-2030.067892682883
 21
840.881653687419
  0
LINE
  8
MountainLine
  6
CONTINUOUS
 62
1
 10
-2375.5089742732926
 20
351.5591691160634
 11
-2375.5089742732926
 21
-983.9680346829975
  0
LINE
  8
ValleyLine
  6
CONTINUOUS
 62
5
 10
-2375.5089742732926
 20
351.5591691160634
 11
-2375.5089742732926
 21
983.9680346829975
  0
LINE
  8
MountainLine
  6
CONTINUOUS
 62
1
 10
-2772.87114584493
 20
511.37347909631643
 11
-2772.87114584493
 21
-1148.5608353219943
  0
LINE
  8
ValleyLine
  6
CONTINUOUS
 62
5
 10
-2772.87114584493
 20
511.37347909631643
 11
-2772.87114584493
 21
1148.5608353219943
  0
LINE
  8
ValleyLine
  6
CONTINUOUS
 62
5
 10
-3090.36323542819
 20
639.0552846679298
 11
-3090.36323542819
 21
-1280.0703647735545
  0
LINE
  8
MountainLine
  6
CONTINUOUS
 62
1
 10
-3090.36323542819
 20
639.0552846679298
 11
-3090.36323542819
 21
1280.0703647735545
  0
LINE
  8
ValleyLine
  6
CONTINUOUS
 62
5
 10
-3196.1939319559438
 20
681.6158865251341
 11
-3196.1939319559438
 21
-1323.9068745907412
  0
LINE
  8
MountainLine
  6
CONTINUOUS
 62
1
 10
-3196.1939319559438
 20
681.6158865251341
 11
-3196.1939319559438
 21
1323.9068745907412
  0
LINE
  8
ValleyLine
  6
CONTINUOUS
 62
5
 10
-3196.1939319559438
 20
681.6158865251341
 11
-3196.1939319559438
 21
-1323.9068745907412
  0
LINE
  8
MountainLine
  6
CONTINUOUS
 62
1
 10
-3196.1939319559438
 20
681.6158865251341
 11
-3196.1939319559438
 21
1323.9068745907412
  0
LINE
  8
ValleyLine
  6
CONTINUOUS
 62
5
 10
0.0
 20
-0.0
 11
0.0
 21
-0.0
  0
LINE
  8
ValleyLine
  6
CONTINUOUS
 62
5
 10
0.0
 20
-0.0
 11
-6.759531001992192
 21
-16.24171188431907
  0
LINE
  8
ValleyLine
  6
CONTINUOUS
 62
5
 10
-6.759531001992192
 20
-16.24171188431907
 11
-27.03812400796878
 21
-64.9668475372763
  0
LINE
  8
ValleyLine
  6
CONTINUOUS
 62
5
 10
-27.03812400796878
 20
-64.9668475372763
 11
-53.90631658987432
 21
-129.4353146119027
  0
LINE
  8
ValleyLine
  6
CONTINUOUS
 62
5
 10
-53.90631658987432
 20
-129.4353146119027
 11
-80.45997806458466
 21
-192.93235250616067
  0
LINE
  8
ValleyLine
  6
CONTINUOUS
 62
5
 10
-80.45997806458466
 20
-192.93235250616067
 11
-106.60790431456738
 21
-255.03830806593115
  0
LINE
  8
ValleyLine
  6
CONTINUOUS
 62
5
 10
-106.60790431456738
 20
-255.03830806593115
 11
-132.34577066367396
 21
-315.42040757847906
  0
LINE
  8
ValleyLine
  6
CONTINUOUS
 62
5
 10
-132.34577066367396
 20
-315.42040757847906
 11
-157.50265197461638
 21
-373.63639844150987
  0
LINE
  8
ValleyLine
  6
CONTINUOUS
 62
5
 10
-157.50265197461638
 20
-373.63639844150987
 11
-181.85282897609943
 21
-429.1892339187222
  0
LINE
  8
ValleyLine
  6
CONTINUOUS
 62
5
 10
-181.85282897609943
 20
-429.1892339187222
 11
-205.12650523795995
 21
-481.53779011494635
  0
LINE
  8
ValleyLine
  6
CONTINUOUS
 62
5
 10
-205.12650523795995
 20
-481.53779011494635
 11
-227.01843298331818
 21
-530.1054917882965
  0
LINE
  8
ValleyLine
  6
CONTINUOUS
 62
5
 10
-227.01843298331818
 20
-530.1054917882965
 11
-247.38311070171497
 21
-573.7329295327633
  0
LINE
  8
ValleyLine
  6
CONTINUOUS
 62
5
 10
-247.38311070171497
 20
-573.7329295327633
 11
-266.4766735771002
 21
-611.6623306367466
  0
LINE
  8
ValleyLine
  6
CONTINUOUS
 62
5
 10
-266.4766735771002
 20
-611.6623306367466
 11
-285.41200792189204
 21
-643.9926735171148
  0
LINE
  8
ValleyLine
  6
CONTINUOUS
 62
5
 10
-285.41200792189204
 20
-643.9926735171148
 11
-306.79392298656865
 21
-672.3148595287956
  0
LINE
  8
ValleyLine
  6
CONTINUOUS
 62
5
 10
-306.79392298656865
 20
-672.3148595287956
 11
-332.31900046923874
 21
-698.8681252999108
  0
LINE
  8
ValleyLine
  6
CONTINUOUS
 62
5
 10
-332.31900046923874
 20
-698.8681252999108
 11
-362.7066298777556
 21
-724.9145152683261
  0
LINE
  8
ValleyLine
  6
CONTINUOUS
 62
5
 10
-362.7066298777556
 20
-724.9145152683261
 11
-397.9077891172843
 21
-750.9476622692196
  0
LINE
  8
ValleyLine
  6
CONTINUOUS
 62
5
 10
-397.9077891172843
 20
-750.9476622692196
 11
-437.41126856046526
 21
-776.999011605244
  0
LINE
  8
ValleyLine
  6
CONTINUOUS
 62
5
 10
-437.41126856046526
 20
-776.999011605244
 11
-480.0783642526926
 21
-802.7010005381276
  0
LINE
  8
ValleyLine
  6
CONTINUOUS
 62
5
 10
-480.0783642526926
 20
-802.7010005381276
 11
-524.6186692109812
 21
-827.5343633012187
  0
LINE
  8
ValleyLine
  6
CONTINUOUS
 62
5
 10
-524.6186692109812
 20
-827.5343633012187
 11
-569.7029415173408
 21
-850.940999192861
  0
LINE
  8
ValleyLine
  6
CONTINUOUS
 62
5
 10
-569.7029415173408
 20
-850.940999192861
 11
-614.0571271442676
 21
-872.4179954018849
  0
LINE
  8
ValleyLine
  6
CONTINUOUS
 62
5
 10
-614.0571271442676
 20
-872.4179954018849
 11
-658.8347980690842
 21
-892.8761572263961
  0
LINE
  8
ValleyLine
  6
CONTINUOUS
 62
5
 10
-658.8347980690842
 20
-892.8761572263961
 11
-705.1017367629042
 21
-913.1385004582927
  0
LINE
  8
ValleyLine
  6
CONTINUOUS
 62
5
 10
-705.1017367629042
 20
-913.1385004582927
 11
-753.7882027242143
 21
-933.8925179168444
  0
LINE
  8
ValleyLine
  6
CONTINUOUS
 62
5
 10
-753.7882027242143
 20
-933.8925179168444
 11
-805.6767796511928
 21
-955.678026621014
  0
LINE
  8
ValleyLine
  6
CONTINUOUS
 62
5
 10
-805.6767796511928
 20
-955.678026621014
 11
-857.4354059091202
 21
-977.2621826916572
  0
LINE
  8
ValleyLine
  6
CONTINUOUS
 62
5
 10
-857.4354059091202
 20
-977.2621826916572
 11
-905.6091999741521
 21
-997.2893223605053
  0
LINE
  8
ValleyLine
  6
CONTINUOUS
 62
5
 10
-905.6091999741521
 20
-997.2893223605053
 11
-949.9072823313284
 21
-1015.6827720060232
  0
LINE
  8
ValleyLine
  6
CONTINUOUS
 62
5
 10
-949.9072823313284
 20
-1015.6827720060232
 11
-990.0118827155032
 21
-1032.3389672564924
  0
LINE
  8
ValleyLine
  6
CONTINUOUS
 62
5
 10
-990.0118827155032
 20
-1032.3389672564924
 11
-1048.5651561662635
 21
-1056.8518730645037
  0
LINE
  8
ValleyLine
  6
CONTINUOUS
 62
5
 10
-1048.5651561662635
 20
-1056.8518730645037
 11
-1148.4481333234453
 21
-1099.0543299828985
  0
LINE
  8
ValleyLine
  6
CONTINUOUS
 62
5
 10
-1148.4481333234453
 20
-1099.0543299828985
 11
-1318.0736852538364
 21
-1171.1122109829732
  0
LINE
  8
ValleyLine
  6
CONTINUOUS
 62
5
 10
-1318.0736852538364
 20
-1171.1122109829732
 11
-1585.8064201792504
 21
-1285.1431261910514
  0
LINE
  8
ValleyLine
  6
CONTINUOUS
 62
5
 10
-1585.8064201792504
 20
-1285.1431261910514
 11
-1928.328376948422
 21
-1431.1486320078682
  0
LINE
  8
ValleyLine
  6
CONTINUOUS
 62
5
 10
-1928.328376948422
 20
-1431.1486320078682
 11
-2322.311645371425
 21
-1599.1203357954996
  0
LINE
  8
ValleyLine
  6
CONTINUOUS
 62
5
 10
-2322.311645371425
 20
-1599.1203357954996
 11
-2637.097125442665
 21
-1733.3364747590792
  0
LINE
  8
ValleyLine
  6
CONTINUOUS
 62
5
 10
-2637.097125442665
 20
-1733.3364747590792
 11
-2742.025618799745
 21
-1778.0751877469393
  0
LINE
  8
ValleyLine
  6
CONTINUOUS
 62
5
 10
-2742.025618799745
 20
-1778.0751877469393
 11
-2742.025618799745
 21
-1778.0751877469393
  0
LINE
  8
ValleyLine
  6
CONTINUOUS
 62
5
 10
-2742.025618799745
 20
-1778.0751877469393
 11
-2742.025618799745
 21
-1778.0751877469393
  0
LINE
  8
ValleyLine
  6
CONTINUOUS
 62
5
 10
0.0
 20
-0.0
 11
0.0
 21
-0.0
  0
LINE
  8
MountainLine
  6
CONTINUOUS
 62
1
 10
0.0
 20
-0.0
 11
0.0
 21
-0.0
  0
LINE
  8
ValleyLine
  6
CONTINUOUS
 62
5
 10
0.0
 20
-0.0
 11
0.0
 21
-0.0
  0
LINE
  8
MountainLine
  6
CONTINUOUS
 62
1
 10
0.0
 20
-0.0
 11
0.0
 21
-0.0
  0
LINE
  8
ValleyLine
  6
CONTINUOUS
 62
5
 10
-6.759531001992192
 20
-16.24171188431907
 11
-6.736908065681733
 21
-16.26433482062953
  0
LINE
  8
MountainLine
  6
CONTINUOUS
 62
1
 10
-6.759531001992192
 20
-16.24171188431907
 11
-16.264334820629532
 21
-6.73690806568173
  0
LINE
  8
ValleyLine
  6
CONTINUOUS
 62
5
 10
-27.03812400796878
 20
-64.9668475372763
 11
-26.947632262726938
 21
-65.05733928251813
  0
LINE
  8
MountainLine
  6
CONTINUOUS
 62
1
 10
-27.03812400796878
 20
-64.9668475372763
 11
-65.05733928251813
 21
-26.947632262726927
  0
LINE
  8
ValleyLine
  6
CONTINUOUS
 62
5
 10
-53.90631658987432
 20
-129.4353146119027
 11
-53.69952050519739
 21
-129.64211069657964
  0
LINE
  8
MountainLine
  6
CONTINUOUS
 62
1
 10
-53.90631658987432
 20
-129.4353146119027
 11
-129.64211069657964
 21
-53.69952050519737
  0
LINE
  8
ValleyLine
  6
CONTINUOUS
 62
5
 10
-80.45997806458466
 20
-192.93235250616067
 11
-80.07475969977706
 21
-193.3175708709683
  0
LINE
  8
MountainLine
  6
CONTINUOUS
 62
1
 10
-80.45997806458466
 20
-192.93235250616067
 11
-193.3175708709683
 21
-80.07475969977703
  0
LINE
  8
ValleyLine
  6
CONTINUOUS
 62
5
 10
-106.60790431456738
 20
-255.03830806593115
 11
-105.92372321581767
 21
-255.72248916468087
  0
LINE
  8
MountainLine
  6
CONTINUOUS
 62
1
 10
-106.60790431456738
 20
-255.03830806593115
 11
-255.72248916468087
 21
-105.92372321581763
  0
LINE
  8
ValleyLine
  6
CONTINUOUS
 62
5
 10
-132.34577066367396
 20
-315.42040757847906
 11
-131.14767722114232
 21
-316.61850102101073
  0
LINE
  8
MountainLine
  6
CONTINUOUS
 62
1
 10
-132.34577066367396
 20
-315.42040757847906
 11
-316.61850102101073
 21
-131.14767722114226
  0
LINE
  8
ValleyLine
  6
CONTINUOUS
 62
5
 10
-157.50265197461638
 20
-373.63639844150987
 11
-155.56702611389986
 21
-375.5720243022264
  0
LINE
  8
MountainLine
  6
CONTINUOUS
 62
1
 10
-157.50265197461638
 20
-373.63639844150987
 11
-375.5720243022264
 21
-155.5670261138998
  0
LINE
  8
ValleyLine
  6
CONTINUOUS
 62
5
 10
-181.85282897609943
 20
-429.1892339187222
 11
-178.9700766316764
 21
-432.0719862631452
  0
LINE
  8
MountainLine
  6
CONTINUOUS
 62
1
 10
-181.85282897609943
 20
-429.1892339187222
 11
-432.0719862631452
 21
-178.97007663167633
  0
LINE
  8
ValleyLine
  6
CONTINUOUS
 62
5
 10
-205.12650523795995
 20
-481.53779011494635
 11
-201.119315710184
 21
-485.5449796427223
  0
LINE
  8
MountainLine
  6
CONTINUOUS
 62
1
 10
-205.12650523795995
 20
-481.53779011494635
 11
-485.5449796427224
 21
-201.11931571018388
  0
LINE
  8
ValleyLine
  6
CONTINUOUS
 62
5
 10
-227.01843298331818
 20
-530.1054917882965
 11
-221.75646336703247
 21
-535.3674614045823
  0
LINE
  8
MountainLine
  6
CONTINUOUS
 62
1
 10
-227.01843298331818
 20
-530.1054917882965
 11
-535.3674614045823
 21
-221.75646336703247
  0
LINE
  8
ValleyLine
  6
CONTINUOUS
 62
5
 10
-247.38311070171497
 20
-573.7329295327633
 11
-240.4993200436327
 21
-580.6167201908455
  0
LINE
  8
MountainLine
  6
CONTINUOUS
 62
1
 10
-247.38311070171497
 20
-573.7329295327633
 11
-580.6167201908455
 21
-240.49932004363268
  0
LINE
  8
ValleyLine
  6
CONTINUOUS
 62
5
 10
-266.4766735771002
 20
-611.6623306367466
 11
-257.2009595098335
 21
-620.9380447040131
  0
LINE
  8
MountainLine
  6
CONTINUOUS
 62
1
 10
-266.4766735771002
 20
-611.6623306367466
 11
-620.9380447040132
 21
-257.20095950983347
  0
LINE
  8
ValleyLine
  6
CONTINUOUS
 62
5
 10
-285.41200792189204
 20
-643.9926735171148
 11
-272.21632872696216
 21
-657.1883527120447
  0
LINE
  8
MountainLine
  6
CONTINUOUS
 62
1
 10
-285.41200792189204
 20
-643.9926735171148
 11
-657.1883527120447
 21
-272.21632872696205
  0
LINE
  8
ValleyLine
  6
CONTINUOUS
 62
5
 10
-306.79392298656865
 20
-672.3148595287956
 11
-286.7743228794457
 21
-692.3344596359186
  0
LINE
  8
MountainLine
  6
CONTINUOUS
 62
1
 10
-306.79392298656865
 20
-672.3148595287956
 11
-692.3344596359186
 21
-286.7743228794456
  0
LINE
  8
ValleyLine
  6
CONTINUOUS
 62
5
 10
-332.31900046923874
 20
-698.8681252999108
 11
-302.0277164655187
 21
-729.1594093036309
  0
LINE
  8
MountainLine
  6
CONTINUOUS
 62
1
 10
-332.31900046923874
 20
-698.8681252999108
 11
-729.1594093036309
 21
-302.0277164655186
  0
LINE
  8
ValleyLine
  6
CONTINUOUS
 62
5
 10
-362.7066298777556
 20
-724.9145152683261
 11
-318.5568580514091
 21
-769.0642870946726
  0
LINE
  8
MountainLine
  6
CONTINUOUS
 62
1
 10
-362.7066298777556
 20
-724.9145152683261
 11
-769.0642870946726
 21
-318.556858051409
  0
LINE
  8
ValleyLine
  6
CONTINUOUS
 62
5
 10
-397.9077891172843
 20
-750.9476622692196
 11
-336.491971107975
 21
-812.3634802785286
  0
LINE
  8
MountainLine
  6
CONTINUOUS
 62
1
 10
-397.9077891172843
 20
-750.9476622692196
 11
-812.3634802785288
 21
-336.4919711079749
  0
LINE
  8
ValleyLine
  6
CONTINUOUS
 62
5
 10
-437.41126856046526
 20
-776.999011605244
 11
-355.69253591788134
 21
-858.7177442478279
  0
LINE
  8
MountainLine
  6
CONTINUOUS
 62
1
 10
-437.41126856046526
 20
-776.999011605244
 11
-858.7177442478281
 21
-355.6925359178811
  0
LINE
  8
ValleyLine
  6
CONTINUOUS
 62
5
 10
-480.0783642526926
 20
-802.7010005381276
 11
-375.7173771810593
 21
-907.0619876097608
  0
LINE
  8
MountainLine
  6
CONTINUOUS
 62
1
 10
-480.0783642526926
 20
-802.7010005381276
 11
-907.0619876097608
 21
-375.71737718105913
  0
LINE
  8
ValleyLine
  6
CONTINUOUS
 62
5
 10
-524.6186692109812
 20
-827.5343633012187
 11
-396.03645402086926
 21
-956.1165784913309
  0
LINE
  8
MountainLine
  6
CONTINUOUS
 62
1
 10
-524.6186692109812
 20
-827.5343633012187
 11
-956.1165784913309
 21
-396.0364540208689
  0
LINE
  8
ValleyLine
  6
CONTINUOUS
 62
5
 10
-569.7029415173408
 20
-850.940999192861
 11
-416.09697658243863
 21
-1004.5469641277632
  0
LINE
  8
MountainLine
  6
CONTINUOUS
 62
1
 10
-569.7029415173408
 20
-850.940999192861
 11
-1004.5469641277633
 21
-416.0969765824385
  0
LINE
  8
ValleyLine
  6
CONTINUOUS
 62
5
 10
-614.0571271442676
 20
-872.4179954018849
 11
-435.37848332866383
 21
-1051.0966392174887
  0
LINE
  8
MountainLine
  6
CONTINUOUS
 62
1
 10
-614.0571271442676
 20
-872.4179954018849
 11
-1051.0966392174887
 21
-435.37848332866383
  0
LINE
  8
ValleyLine
  6
CONTINUOUS
 62
5
 10
-658.8347980690842
 20
-892.8761572263961
 11
-454.48561636459067
 21
-1097.2253389308898
  0
LINE
  8
MountainLine
  6
CONTINUOUS
 62
1
 10
-658.8347980690842
 20
-892.8761572263961
 11
-1097.2253389308898
 21
-454.4856163645904
  0
LINE
  8
ValleyLine
  6
CONTINUOUS
 62
5
 10
-705.1017367629042
 20
-913.1385004582927
 11
-473.97159189316136
 21
-1144.2686453280355
  0
LINE
  8
MountainLine
  6
CONTINUOUS
 62
1
 10
-705.1017367629042
 20
-913.1385004582927
 11
-1144.2686453280357
 21
-473.97159189316113
  0
LINE
  8
ValleyLine
  6
CONTINUOUS
 62
5
 10
-753.7882027242143
 20
-933.8925179168444
 11
-494.31023859796693
 21
-1193.370482043092
  0
LINE
  8
MountainLine
  6
CONTINUOUS
 62
1
 10
-753.7882027242143
 20
-933.8925179168444
 11
-1193.370482043092
 21
-494.3102385979667
  0
LINE
  8
ValleyLine
  6
CONTINUOUS
 62
5
 10
-805.6767796511928
 20
-955.678026621014
 11
-515.8888786816118
 21
-1245.465927590595
  0
LINE
  8
MountainLine
  6
CONTINUOUS
 62
1
 10
-805.6767796511928
 20
-955.678026621014
 11
-1245.4659275905954
 21
-515.8888786816116
  0
LINE
  8
ValleyLine
  6
CONTINUOUS
 62
5
 10
-857.4354059091202
 20
-977.2621826916572
 11
-537.3704822745613
 21
-1297.3271063262164
  0
LINE
  8
MountainLine
  6
CONTINUOUS
 62
1
 10
-857.4354059091202
 20
-977.2621826916572
 11
-1297.3271063262164
 21
-537.370482274561
  0
LINE
  8
ValleyLine
  6
CONTINUOUS
 62
5
 10
-905.6091999741521
 20
-997.2893223605053
 11
-557.3460732819603
 21
-1345.552449052697
  0
LINE
  8
MountainLine
  6
CONTINUOUS
 62
1
 10
-905.6091999741521
 20
-997.2893223605053
 11
-1345.552449052697
 21
-557.3460732819601
  0
LINE
  8
MountainLine
  6
CONTINUOUS
 62
1
 10
-949.9072823313284
 20
-1015.6827720060232
 11
-575.7079978825759
 21
-1389.8820564547757
  0
LINE
  8
ValleyLine
  6
CONTINUOUS
 62
5
 10
-949.9072823313284
 20
-1015.6827720060232
 11
-1389.8820564547757
 21
-575.7079978825757
  0
LINE
  8
MountainLine
  6
CONTINUOUS
 62
1
 10
-990.0118827155032
 20
-1032.3389672564924
 11
-592.3328500184194
 21
-1430.0179999535765
  0
LINE
  8
ValleyLine
  6
CONTINUOUS
 62
5
 10
-990.0118827155032
 20
-1032.3389672564924
 11
-1430.0179999535765
 21
-592.3328500184192
  0
LINE
  8
MountainLine
  6
CONTINUOUS
 62
1
 10
-1048.5651561662635
 20
-1056.8518730645037
 11
-616.6623706360562
 21
-1488.754658594711
  0
LINE
  8
ValleyLine
  6
CONTINUOUS
 62
5
 10
-1048.5651561662635
 20
-1056.8518730645037
 11
-1488.754658594711
 21
-616.662370636056
  0
LINE
  8
MountainLine
  6
CONTINUOUS
 62
1
 10
-1148.4481333234453
 20
-1099.0543299828985
 11
-658.2782307689586
 21
-1589.2242325373854
  0
LINE
  8
ValleyLine
  6
CONTINUOUS
 62
5
 10
-1148.4481333234453
 20
-1099.0543299828985
 11
-1589.2242325373854
 21
-658.2782307689582
  0
LINE
  8
MountainLine
  6
CONTINUOUS
 62
1
 10
-1318.0736852538364
 20
-1171.1122109829732
 11
-729.065669373848
 21
-1760.1202268629615
  0
LINE
  8
ValleyLine
  6
CONTINUOUS
 62
5
 10
-1318.0736852538364
 20
-1171.1122109829732
 11
-1760.120226862962
 21
-729.0656693738475
  0
LINE
  8
MountainLine
  6
CONTINUOUS
 62
1
 10
-1585.8064201792504
 20
-1285.1431261910514
 11
-840.8816536874192
 21
-2030.067892682883
  0
LINE
  8
ValleyLine
  6
CONTINUOUS
 62
5
 10
-1585.8064201792504
 20
-1285.1431261910514
 11
-2030.067892682883
 21
-840.8816536874189
  0
LINE
  8
MountainLine
  6
CONTINUOUS
 62
1
 10
-1928.328376948422
 20
-1431.1486320078682
 11
-983.9680346829975
 21
-2375.5089742732926
  0
LINE
  8
ValleyLine
  6
CONTINUOUS
 62
5
 10
-1928.328376948422
 20
-1431.1486320078682
 11
-2375.5089742732926
 21
-983.9680346829973
  0
LINE
  8
MountainLine
  6
CONTINUOUS
 62
1
 10
-2322.311645371425
 20
-1599.1203357954996
 11
-1148.5608353219948
 21
-2772.87114584493
  0
LINE
  8
ValleyLine
  6
CONTINUOUS
 62
5
 10
-2322.311645371425
 20
-1599.1203357954996
 11
-2772.87114584493
 21
-1148.5608353219945
  0
LINE
  8
ValleyLine
  6
CONTINUOUS
 62
5
 10
-2637.097125442665
 20
-1733.3364747590792
 11
-1280.0703647735545
 21
-3090.36323542819
  0
LINE
  8
MountainLine
  6
CONTINUOUS
 62
1
 10
-2637.097125442665
 20
-1733.3364747590792
 11
-3090.36323542819
 21
-1280.070364773554
  0
LINE
  8
ValleyLine
  6
CONTINUOUS
 62
5
 10
-2742.025618799745
 20
-1778.0751877469393
 11
-1323.9068745907416
 21
-3196.1939319559438
  0
LINE
  8
MountainLine
  6
CONTINUOUS
 62
1
 10
-2742.025618799745
 20
-1778.0751877469393
 11
-3196.1939319559438
 21
-1323.9068745907407
  0
LINE
  8
ValleyLine
  6
CONTINUOUS
 62
5
 10
-2742.025618799745
 20
-1778.0751877469393
 11
-1323.9068745907416
 21
-3196.1939319559438
  0
LINE
  8
MountainLine
  6
CONTINUOUS
 62
1
 10
-2742.025618799745
 20
-1778.0751877469393
 11
-3196.1939319559438
 21
-1323.9068745907407
  0
LINE
  8
ValleyLine
  6
CONTINUOUS
 62
5
 10
0.0
 20
-0.0
 11
0.0
 21
-0.0
  0
LINE
  8
ValleyLine
  6
CONTINUOUS
 62
5
 10
0.0
 20
-0.0
 11
6.704914402330775
 21
-16.264334820629532
  0
LINE
  8
ValleyLine
  6
CONTINUOUS
 62
5
 10
6.704914402330775
 20
-16.264334820629532
 11
26.8196576093231
 21
-65.05733928251813
  0
LINE
  8
ValleyLine
  6
CONTINUOUS
 62
5
 10
26.8196576093231
 20
-65.05733928251813
 11
53.40706667760161
 21
-129.64211069657964
  0
LINE
  8
ValleyLine
  6
CONTINUOUS
 62
5
 10
53.40706667760161
 20
-129.64211069657964
 11
79.52997866379094
 21
-193.3175708709683
  0
LINE
  8
ValleyLine
  6
CONTINUOUS
 62
5
 10
79.52997866379094
 20
-193.3175708709683
 11
104.9561450268465
 21
-255.72248916468087
  0
LINE
  8
ValleyLine
  6
CONTINUOUS
 62
5
 10
104.9561450268465
 20
-255.72248916468087
 11
129.4533172257237
 21
-316.61850102101073
  0
LINE
  8
ValleyLine
  6
CONTINUOUS
 62
5
 10
129.4533172257237
 20
-316.61850102101073
 11
152.8296377699944
 21
-375.5720243022264
  0
LINE
  8
ValleyLine
  6
CONTINUOUS
 62
5
 10
152.8296377699944
 20
-375.5720243022264
 11
174.89324916923044
 21
-432.0719862631452
  0
LINE
  8
ValleyLine
  6
CONTINUOUS
 62
5
 10
174.89324916923044
 20
-432.0719862631452
 11
195.45229393300374
 21
-485.5449796427224
  0
LINE
  8
ValleyLine
  6
CONTINUOUS
 62
5
 10
195.45229393300374
 20
-485.5449796427224
 11
214.31491457088606
 21
-535.3674614045823
  0
LINE
  8
ValleyLine
  6
CONTINUOUS
 62
5
 10
214.31491457088606
 20
-535.3674614045823
 11
230.7641699344355
 21
-580.6167201908455
  0
LINE
  8
ValleyLine
  6
CONTINUOUS
 62
5
 10
230.7641699344355
 20
-580.6167201908455
 11
244.08311887521006
 21
-620.9380447040132
  0
LINE
  8
ValleyLine
  6
CONTINUOUS
 62
5
 10
244.08311887521006
 20
-620.9380447040132
 11
253.5548202447677
 21
-657.1883527120447
  0
LINE
  8
ValleyLine
  6
CONTINUOUS
 62
5
 10
253.5548202447677
 20
-657.1883527120447
 11
258.4623328946665
 21
-692.3344596359186
  0
LINE
  8
ValleyLine
  6
CONTINUOUS
 62
5
 10
258.4623328946665
 20
-692.3344596359186
 11
259.18937180576256
 21
-729.1594093036309
  0
LINE
  8
ValleyLine
  6
CONTINUOUS
 62
5
 10
259.18937180576256
 20
-729.1594093036309
 11
256.1196519589123
 21
-769.0642870946726
  0
LINE
  8
ValleyLine
  6
CONTINUOUS
 62
5
 10
256.1196519589123
 20
-769.0642870946726
 11
249.63688833497199
 21
-812.3634802785288
  0
LINE
  8
ValleyLine
  6
CONTINUOUS
 62
5
 10
249.63688833497199
 20
-812.3634802785288
 11
240.12479591479794
 21
-858.7177442478281
  0
LINE
  8
ValleyLine
  6
CONTINUOUS
 62
5
 10
240.12479591479794
 20
-858.7177442478281
 11
228.12865388171213
 21
-907.0619876097608
  0
LINE
  8
ValleyLine
  6
CONTINUOUS
 62
5
 10
228.12865388171213
 20
-907.0619876097608
 11
214.1937414190367
 21
-956.1165784913309
  0
LINE
  8
ValleyLine
  6
CONTINUOUS
 62
5
 10
214.1937414190367
 20
-956.1165784913309
 11
198.86533771009377
 21
-1004.5469641277633
  0
LINE
  8
ValleyLine
  6
CONTINUOUS
 62
5
 10
198.86533771009377
 20
-1004.5469641277633
 11
182.68872193820536
 21
-1051.0966392174887
  0
LINE
  8
ValleyLine
  6
CONTINUOUS
 62
5
 10
182.68872193820536
 20
-1051.0966392174887
 11
165.49223213825155
 21
-1097.2253389308898
  0
LINE
  8
ValleyLine
  6
CONTINUOUS
 62
5
 10
165.49223213825155
 20
-1097.2253389308898
 11
147.1042063451125
 21
-1144.2686453280355
  0
LINE
  8
ValleyLine
  6
CONTINUOUS
 62
5
 10
147.1042063451125
 20
-1144.2686453280355
 11
127.35298259366822
 21
-1193.3704820430921
  0
LINE
  8
ValleyLine
  6
CONTINUOUS
 62
5
 10
127.35298259366822
 20
-1193.3704820430921
 11
106.06689891879883
 21
-1245.4659275905951
  0
LINE
  8
ValleyLine
  6
CONTINUOUS
 62
5
 10
106.06689891879883
 20
-1245.4659275905951
 11
84.73032643065888
 21
-1297.3271063262164
  0
LINE
  8
ValleyLine
  6
CONTINUOUS
 62
5
 10
84.73032643065888
 20
-1297.3271063262164
 11
64.8276362394029
 21
-1345.552449052697
  0
LINE
  8
ValleyLine
  6
CONTINUOUS
 62
5
 10
64.8276362394029
 20
-1345.552449052697
 11
46.51029478484262
 21
-1389.8820564547757
  0
LINE
  8
ValleyLine
  6
CONTINUOUS
 62
5
 10
46.51029478484262
 20
-1389.8820564547757
 11
29.929768506789706
 21
-1430.0179999535765
  0
LINE
  8
ValleyLine
  6
CONTINUOUS
 62
5
 10
29.929768506789706
 20
-1430.0179999535765
 11
5.859593712518814
 21
-1488.754658594711
  0
LINE
  8
ValleyLine
  6
CONTINUOUS
 62
5
 10
5.859593712518814
 20
-1488.754658594711
 11
-34.92669329069539
 21
-1589.2242325373854
  0
LINE
  8
ValleyLine
  6
CONTINUOUS
 62
5
 10
-34.92669329069539
 20
-1589.2242325373854
 11
-103.91745503009948
 21
-1760.120226862962
  0
LINE
  8
ValleyLine
  6
CONTINUOUS
 62
5
 10
-103.91745503009948
 20
-1760.120226862962
 11
-212.60105403294003
 21
-2030.067892682883
  0
LINE
  8
ValleyLine
  6
CONTINUOUS
 62
5
 10
-212.60105403294003
 20
-2030.067892682883
 11
-351.5591691160636
 21
-2375.5089742732926
  0
LINE
  8
ValleyLine
  6
CONTINUOUS
 62
5
 10
-351.5591691160636
 20
-2375.5089742732926
 11
-511.3734790963166
 21
-2772.87114584493
  0
LINE
  8
ValleyLine
  6
CONTINUOUS
 62
5
 10
-511.3734790963166
 20
-2772.87114584493
 11
-639.0552846679299
 21
-3090.36323542819
  0
LINE
  8
ValleyLine
  6
CONTINUOUS
 62
5
 10
-639.0552846679299
 20
-3090.36323542819
 11
-681.6158865251343
 21
-3196.1939319559438
  0
LINE
  8
ValleyLine
  6
CONTINUOUS
 62
5
 10
-681.6158865251343
 20
-3196.1939319559438
 11
-681.6158865251343
 21
-3196.1939319559438
  0
LINE
  8
ValleyLine
  6
CONTINUOUS
 62
5
 10
-681.6158865251343
 20
-3196.1939319559438
 11
-681.6158865251343
 21
-3196.1939319559438
  0
LINE
  8
ValleyLine
  6
CONTINUOUS
 62
5
 10
0.0
 20
-0.0
 11
0.0
 21
-0.0
  0
LINE
  8
MountainLine
  6
CONTINUOUS
 62
1
 10
0.0
 20
-0.0
 11
0.0
 21
-0.0
  0
LINE
  8
ValleyLine
  6
CONTINUOUS
 62
5
 10
0.0
 20
-0.0
 11
0.0
 21
-0.0
  0
LINE
  8
MountainLine
  6
CONTINUOUS
 62
1
 10
0.0
 20
-0.0
 11
0.0
 21
-0.0
  0
LINE
  8
ValleyLine
  6
CONTINUOUS
 62
5
 10
6.704914402330775
 20
-16.264334820629532
 11
6.73690806568173
 21
-16.264334820629532
  0
LINE
  8
MountainLine
  6
CONTINUOUS
 62
1
 10
6.704914402330775
 20
-16.264334820629532
 11
-6.736908065681733
 21
-16.264334820629532
  0
LINE
  8
ValleyLine
  6
CONTINUOUS
 62
5
 10
26.8196576093231
 20
-65.05733928251813
 11
26.947632262726927
 21
-65.05733928251813
  0
LINE
  8
MountainLine
  6
CONTINUOUS
 62
1
 10
26.8196576093231
 20
-65.05733928251813
 11
-26.947632262726934
 21
-65.05733928251813
  0
LINE
  8
ValleyLine
  6
CONTINUOUS
 62
5
 10
53.40706667760161
 20
-129.64211069657964
 11
53.69952050519738
 21
-129.64211069657964
  0
LINE
  8
MountainLine
  6
CONTINUOUS
 62
1
 10
53.40706667760161
 20
-129.64211069657964
 11
-53.69952050519739
 21
-129.64211069657964
  0
LINE
  8
ValleyLine
  6
CONTINUOUS
 62
5
 10
79.52997866379094
 20
-193.3175708709683
 11
80.07475969977703
 21
-193.3175708709683
  0
LINE
  8
MountainLine
  6
CONTINUOUS
 62
1
 10
79.52997866379094
 20
-193.3175708709683
 11
-80.07475969977705
 21
-193.3175708709683
  0
LINE
  8
ValleyLine
  6
CONTINUOUS
 62
5
 10
104.9561450268465
 20
-255.72248916468087
 11
105.92372321581765
 21
-255.72248916468087
  0
LINE
  8
MountainLine
  6
CONTINUOUS
 62
1
 10
104.9561450268465
 20
-255.72248916468087
 11
-105.92372321581767
 21
-255.72248916468087
  0
LINE
  8
ValleyLine
  6
CONTINUOUS
 62
5
 10
129.4533172257237
 20
-316.61850102101073
 11
131.14767722114226
 21
-316.61850102101073
  0
LINE
  8
MountainLine
  6
CONTINUOUS
 62
1
 10
129.4533172257237
 20
-316.61850102101073
 11
-131.1476772211423
 21
-316.61850102101073
  0
LINE
  8
ValleyLine
  6
CONTINUOUS
 62
5
 10
152.8296377699944
 20
-375.5720243022264
 11
155.5670261138998
 21
-375.5720243022264
  0
LINE
  8
MountainLine
  6
CONTINUOUS
 62
1
 10
152.8296377699944
 20
-375.5720243022264
 11
-155.56702611389983
 21
-375.5720243022264
  0
LINE
  8
ValleyLine
  6
CONTINUOUS
 62
5
 10
174.89324916923044
 20
-432.0719862631452
 11
178.97007663167633
 21
-432.0719862631452
  0
LINE
  8
MountainLine
  6
CONTINUOUS
 62
1
 10
174.89324916923044
 20
-432.0719862631452
 11
-178.9700766316764
 21
-432.0719862631452
  0
LINE
  8
ValleyLine
  6
CONTINUOUS
 62
5
 10
195.45229393300374
 20
-485.5449796427224
 11
201.1193157101839
 21
-485.5449796427224
  0
LINE
  8
MountainLine
  6
CONTINUOUS
 62
1
 10
195.45229393300374
 20
-485.5449796427224
 11
-201.119315710184
 21
-485.5449796427224
  0
LINE
  8
ValleyLine
  6
CONTINUOUS
 62
5
 10
214.31491457088606
 20
-535.3674614045823
 11
221.75646336703244
 21
-535.3674614045823
  0
LINE
  8
MountainLine
  6
CONTINUOUS
 62
1
 10
214.31491457088606
 20
-535.3674614045823
 11
-221.7564633670325
 21
-535.3674614045823
  0
LINE
  8
ValleyLine
  6
CONTINUOUS
 62
5
 10
230.7641699344355
 20
-580.6167201908455
 11
240.49932004363262
 21
-580.6167201908455
  0
LINE
  8
MountainLine
  6
CONTINUOUS
 62
1
 10
230.7641699344355
 20
-580.6167201908455
 11
-240.4993200436327
 21
-580.6167201908455
  0
LINE
  8
ValleyLine
  6
CONTINUOUS
 62
5
 10
244.08311887521006
 20
-620.9380447040132
 11
257.2009595098334
 21
-620.9380447040132
  0
LINE
  8
MountainLine
  6
CONTINUOUS
 62
1
 10
244.08311887521006
 20
-620.9380447040132
 11
-257.20095950983347
 21
-620.9380447040132
  0
LINE
  8
ValleyLine
  6
CONTINUOUS
 62
5
 10
253.5548202447677
 20
-657.1883527120447
 11
272.21632872696205
 21
-657.1883527120447
  0
LINE
  8
MountainLine
  6
CONTINUOUS
 62
1
 10
253.5548202447677
 20
-657.1883527120447
 11
-272.21632872696216
 21
-657.1883527120447
  0
LINE
  8
ValleyLine
  6
CONTINUOUS
 62
5
 10
258.4623328946665
 20
-692.3344596359186
 11
286.77432287944555
 21
-692.3344596359186
  0
LINE
  8
MountainLine
  6
CONTINUOUS
 62
1
 10
258.4623328946665
 20
-692.3344596359186
 11
-286.7743228794456
 21
-692.3344596359186
  0
LINE
  8
ValleyLine
  6
CONTINUOUS
 62
5
 10
259.18937180576256
 20
-729.1594093036309
 11
302.0277164655186
 21
-729.1594093036309
  0
LINE
  8
MountainLine
  6
CONTINUOUS
 62
1
 10
259.18937180576256
 20
-729.1594093036309
 11
-302.02771646551867
 21
-729.1594093036309
  0
LINE
  8
ValleyLine
  6
CONTINUOUS
 62
5
 10
256.1196519589123
 20
-769.0642870946726
 11
318.556858051409
 21
-769.0642870946726
  0
LINE
  8
MountainLine
  6
CONTINUOUS
 62
1
 10
256.1196519589123
 20
-769.0642870946726
 11
-318.5568580514091
 21
-769.0642870946726
  0
LINE
  8
ValleyLine
  6
CONTINUOUS
 62
5
 10
249.63688833497199
 20
-812.3634802785288
 11
336.49197110797485
 21
-812.3634802785288
  0
LINE
  8
MountainLine
  6
CONTINUOUS
 62
1
 10
249.63688833497199
 20
-812.3634802785288
 11
-336.491971107975
 21
-812.3634802785288
  0
LINE
  8
ValleyLine
  6
CONTINUOUS
 62
5
 10
240.12479591479794
 20
-858.7177442478281
 11
355.6925359178811
 21
-858.7177442478281
  0
LINE
  8
MountainLine
  6
CONTINUOUS
 62
1
 10
240.12479591479794
 20
-858.7177442478281
 11
-355.6925359178813
 21
-858.7177442478281
  0
LINE
  8
ValleyLine
  6
CONTINUOUS
 62
5
 10
228.12865388171213
 20
-907.0619876097608
 11
375.71737718105913
 21
-907.0619876097608
  0
LINE
  8
MountainLine
  6
CONTINUOUS
 62
1
 10
228.12865388171213
 20
-907.0619876097608
 11
-375.7173771810593
 21
-907.0619876097608
  0
LINE
  8
ValleyLine
  6
CONTINUOUS
 62
5
 10
214.1937414190367
 20
-956.1165784913309
 11
396.03645402086903
 21
-956.1165784913309
  0
LINE
  8
MountainLine
  6
CONTINUOUS
 62
1
 10
214.1937414190367
 20
-956.1165784913309
 11
-396.03645402086914
 21
-956.1165784913309
  0
LINE
  8
ValleyLine
  6
CONTINUOUS
 62
5
 10
198.86533771009377
 20
-1004.5469641277633
 11
416.0969765824385
 21
-1004.5469641277633
  0
LINE
  8
MountainLine
  6
CONTINUOUS
 62
1
 10
198.86533771009377
 20
-1004.5469641277633
 11
-416.09697658243863
 21
-1004.5469641277633
  0
LINE
  8
ValleyLine
  6
CONTINUOUS
 62
5
 10
182.68872193820536
 20
-1051.0966392174887
 11
435.3784833286638
 21
-1051.0966392174887
  0
LINE
  8
MountainLine
  6
CONTINUOUS
 62
1
 10
182.68872193820536
 20
-1051.0966392174887
 11
-435.3784833286639
 21
-1051.0966392174887
  0
LINE
  8
ValleyLine
  6
CONTINUOUS
 62
5
 10
165.49223213825155
 20
-1097.2253389308898
 11
454.4856163645904
 21
-1097.2253389308898
  0
LINE
  8
MountainLine
  6
CONTINUOUS
 62
1
 10
165.49223213825155
 20
-1097.2253389308898
 11
-454.4856163645905
 21
-1097.2253389308898
  0
LINE
  8
ValleyLine
  6
CONTINUOUS
 62
5
 10
147.1042063451125
 20
-1144.2686453280355
 11
473.97159189316113
 21
-1144.2686453280355
  0
LINE
  8
MountainLine
  6
CONTINUOUS
 62
1
 10
147.1042063451125
 20
-1144.2686453280355
 11
-473.9715918931613
 21
-1144.2686453280355
  0
LINE
  8
ValleyLine
  6
CONTINUOUS
 62
5
 10
127.35298259366822
 20
-1193.3704820430921
 11
494.3102385979667
 21
-1193.3704820430921
  0
LINE
  8
MountainLine
  6
CONTINUOUS
 62
1
 10
127.35298259366822
 20
-1193.3704820430921
 11
-494.3102385979669
 21
-1193.3704820430921
  0
LINE
  8
ValleyLine
  6
CONTINUOUS
 62
5
 10
106.06689891879883
 20
-1245.4659275905951
 11
515.8888786816116
 21
-1245.4659275905951
  0
LINE
  8
MountainLine
  6
CONTINUOUS
 62
1
 10
106.06689891879883
 20
-1245.4659275905951
 11
-515.8888786816117
 21
-1245.4659275905951
  0
LINE
  8
ValleyLine
  6
CONTINUOUS
 62
5
 10
84.73032643065888
 20
-1297.3271063262164
 11
537.370482274561
 21
-1297.3271063262164
  0
LINE
  8
MountainLine
  6
CONTINUOUS
 62
1
 10
84.73032643065888
 20
-1297.3271063262164
 11
-537.3704822745611
 21
-1297.3271063262164
  0
LINE
  8
ValleyLine
  6
CONTINUOUS
 62
5
 10
64.8276362394029
 20
-1345.552449052697
 11
557.34607328196
 21
-1345.552449052697
  0
LINE
  8
MountainLine
  6
CONTINUOUS
 62
1
 10
64.8276362394029
 20
-1345.552449052697
 11
-557.3460732819601
 21
-1345.552449052697
  0
LINE
  8
MountainLine
  6
CONTINUOUS
 62
1
 10
46.51029478484262
 20
-1389.8820564547757
 11
575.7079978825758
 21
-1389.8820564547757
  0
LINE
  8
ValleyLine
  6
CONTINUOUS
 62
5
 10
46.51029478484262
 20
-1389.8820564547757
 11
-575.7079978825759
 21
-1389.8820564547757
  0
LINE
  8
MountainLine
  6
CONTINUOUS
 62
1
 10
29.929768506789706
 20
-1430.0179999535765
 11
592.3328500184193
 21
-1430.0179999535765
  0
LINE
  8
ValleyLine
  6
CONTINUOUS
 62
5
 10
29.929768506789706
 20
-1430.0179999535765
 11
-592.3328500184194
 21
-1430.0179999535765
  0
LINE
  8
MountainLine
  6
CONTINUOUS
 62
1
 10
5.859593712518814
 20
-1488.754658594711
 11
616.662370636056
 21
-1488.754658594711
  0
LINE
  8
ValleyLine
  6
CONTINUOUS
 62
5
 10
5.859593712518814
 20
-1488.754658594711
 11
-616.6623706360562
 21
-1488.754658594711
  0
LINE
  8
MountainLine
  6
CONTINUOUS
 62
1
 10
-34.92669329069539
 20
-1589.2242325373854
 11
658.2782307689582
 21
-1589.2242325373854
  0
LINE
  8
ValleyLine
  6
CONTINUOUS
 62
5
 10
-34.92669329069539
 20
-1589.2242325373854
 11
-658.2782307689586
 21
-1589.2242325373854
  0
LINE
  8
MountainLine
  6
CONTINUOUS
 62
1
 10
-103.91745503009948
 20
-1760.120226862962
 11
729.0656693738475
 21
-1760.120226862962
  0
LINE
  8
ValleyLine
  6
CONTINUOUS
 62
5
 10
-103.91745503009948
 20
-1760.120226862962
 11
-729.0656693738479
 21
-1760.120226862962
  0
LINE
  8
MountainLine
  6
CONTINUOUS
 62
1
 10
-212.60105403294003
 20
-2030.067892682883
 11
840.8816536874189
 21
-2030.067892682883
  0
LINE
  8
ValleyLine
  6
CONTINUOUS
 62
5
 10
-212.60105403294003
 20
-2030.067892682883
 11
-840.8816536874191
 21
-2030.067892682883
  0
LINE
  8
MountainLine
  6
CONTINUOUS
 62
1
 10
-351.5591691160636
 20
-2375.5089742732926
 11
983.9680346829974
 21
-2375.5089742732926
  0
LINE
  8
ValleyLine
  6
CONTINUOUS
 62
5
 10
-351.5591691160636
 20
-2375.5089742732926
 11
-983.9680346829978
 21
-2375.5089742732926
  0
LINE
  8
MountainLine
  6
CONTINUOUS
 62
1
 10
-511.3734790963166
 20
-2772.87114584493
 11
1148.5608353219943
 21
-2772.87114584493
  0
LINE
  8
ValleyLine
  6
CONTINUOUS
 62
5
 10
-511.3734790963166
 20
-2772.87114584493
 11
-1148.5608353219945
 21
-2772.87114584493
  0
LINE
  8
ValleyLine
  6
CONTINUOUS
 62
5
 10
-639.0552846679299
 20
-3090.36323542819
 11
1280.0703647735543
 21
-3090.36323542819
  0
LINE
  8
MountainLine
  6
CONTINUOUS
 62
1
 10
-639.0552846679299
 20
-3090.36323542819
 11
-1280.0703647735545
 21
-3090.36323542819
  0
LINE
  8
ValleyLine
  6
CONTINUOUS
 62
5
 10
-681.6158865251343
 20
-3196.1939319559438
 11
1323.9068745907407
 21
-3196.1939319559438
  0
LINE
  8
MountainLine
  6
CONTINUOUS
 62
1
 10
-681.6158865251343
 20
-3196.1939319559438
 11
-1323.9068745907414
 21
-3196.1939319559438
  0
LINE
  8
ValleyLine
  6
CONTINUOUS
 62
5
 10
-681.6158865251343
 20
-3196.1939319559438
 11
1323.9068745907407
 21
-3196.1939319559438
  0
LINE
  8
MountainLine
  6
CONTINUOUS
 62
1
 10
-681.6158865251343
 20
-3196.1939319559438
 11
-1323.9068745907414
 21
-3196.1939319559438
  0
LINE
  8
ValleyLine
  6
CONTINUOUS
 62
5
 10
0.0
 20
-0.0
 11
0.0
 21
-0.0
  0
LINE
  8
ValleyLine
  6
CONTINUOUS
 62
5
 10
0.0
 20
-0.0
 11
16.24171188431907
 21
-6.759531001992192
  0
LINE
  8
ValleyLine
  6
CONTINUOUS
 62
5
 10
16.24171188431907
 20
-6.759531001992192
 11
64.9668475372763
 21
-27.03812400796878
  0
LINE
  8
ValleyLine
  6
CONTINUOUS
 62
5
 10
64.9668475372763
 20
-27.03812400796878
 11
129.4353146119027
 21
-53.90631658987432
  0
LINE
  8
ValleyLine
  6
CONTINUOUS
 62
5
 10
129.4353146119027
 20
-53.90631658987432
 11
192.93235250616067
 21
-80.45997806458466
  0
LINE
  8
ValleyLine
  6
CONTINUOUS
 62
5
 10
192.93235250616067
 20
-80.45997806458466
 11
255.03830806593115
 21
-106.60790431456738
  0
LINE
  8
ValleyLine
  6
CONTINUOUS
 62
5
 10
255.03830806593115
 20
-106.60790431456738
 11
315.42040757847906
 21
-132.34577066367396
  0
LINE
  8
ValleyLine
  6
CONTINUOUS
 62
5
 10
315.42040757847906
 20
-132.34577066367396
 11
373.63639844150987
 21
-157.50265197461638
  0
LINE
  8
ValleyLine
  6
CONTINUOUS
 62
5
 10
373.63639844150987
 20
-157.50265197461638
 11
429.1892339187222
 21
-181.85282897609943
  0
LINE
  8
ValleyLine
  6
CONTINUOUS
 62
5
 10
429.1892339187222
 20
-181.85282897609943
 11
481.53779011494635
 21
-205.12650523795995
  0
LINE
  8
ValleyLine
  6
CONTINUOUS
 62
5
 10
481.53779011494635
 20
-205.12650523795995
 11
530.1054917882965
 21
-227.01843298331818
  0
LINE
  8
ValleyLine
  6
CONTINUOUS
 62
5
 10
530.1054917882965
 20
-227.01843298331818
 11
573.7329295327633
 21
-247.38311070171497
  0
LINE
  8
ValleyLine
  6
CONTINUOUS
 62
5
 10
573.7329295327633
 20
-247.38311070171497
 11
611.6623306367466
 21
-266.4766735771002
  0
LINE
  8
ValleyLine
  6
CONTINUOUS
 62
5
 10
611.6623306367466
 20
-266.4766735771002
 11
643.9926735171148
 21
-285.41200792189204
  0
LINE
  8
ValleyLine
  6
CONTINUOUS
 62
5
 10
643.9926735171148
 20
-285.41200792189204
 11
672.3148595287956
 21
-306.79392298656865
  0
LINE
  8
ValleyLine
  6
CONTINUOUS
 62
5
 10
672.3148595287956
 20
-306.79392298656865
 11
698.8681252999108
 21
-332.31900046923874
  0
LINE
  8
ValleyLine
  6
CONTINUOUS
 62
5
 10
698.8681252999108
 20
-332.31900046923874
 11
724.9145152683261
 21
-362.7066298777556
  0
LINE
  8
ValleyLine
  6
CONTINUOUS
 62
5
 10
724.9145152683261
 20
-362.7066298777556
 11
750.9476622692196
 21
-397.9077891172843
  0
LINE
  8
ValleyLine
  6
CONTINUOUS
 62
5
 10
750.9476622692196
 20
-397.9077891172843
 11
776.999011605244
 21
-437.41126856046526
  0
LINE
  8
ValleyLine
  6
CONTINUOUS
 62
5
 10
776.999011605244
 20
-437.41126856046526
 11
802.7010005381276
 21
-480.0783642526926
  0
LINE
  8
ValleyLine
  6
CONTINUOUS
 62
5
 10
802.7010005381276
 20
-480.0783642526926
 11
827.5343633012187
 21
-524.6186692109812
  0
LINE
  8
ValleyLine
  6
CONTINUOUS
 62
5
 10
827.5343633012187
 20
-524.6186692109812
 11
850.940999192861
 21
-569.7029415173408
  0
LINE
  8
ValleyLine
  6
CONTINUOUS
 62
5
 10
850.940999192861
 20
-569.7029415173408
 11
872.4179954018849
 21
-614.0571271442676
  0
LINE
  8
ValleyLine
  6
CONTINUOUS
 62
5
 10
872.4179954018849
 20
-614.0571271442676
 11
892.8761572263961
 21
-658.8347980690842
  0
LINE
  8
ValleyLine
  6
CONTINUOUS
 62
5
 10
892.8761572263961
 20
-658.8347980690842
 11
913.1385004582927
 21
-705.1017367629042
  0
LINE
  8
ValleyLine
  6
CONTINUOUS
 62
5
 10
913.1385004582927
 20
-705.1017367629042
 11
933.8925179168444
 21
-753.7882027242143
  0
LINE
  8
ValleyLine
  6
CONTINUOUS
 62
5
 10
933.8925179168444
 20
-753.7882027242143
 11
955.678026621014
 21
-805.6767796511928
  0
LINE
  8
ValleyLine
  6
CONTINUOUS
 62
5
 10
955.678026621014
 20
-805.6767796511928
 11
977.2621826916572
 21
-857.4354059091202
  0
LINE
  8
ValleyLine
  6
CONTINUOUS
 62
5
 10
977.2621826916572
 20
-857.4354059091202
 11
997.2893223605053
 21
-905.6091999741521
  0
LINE
  8
ValleyLine
  6
CONTINUOUS
 62
5
 10
997.2893223605053
 20
-905.6091999741521
 11
1015.6827720060232
 21
-949.9072823313284
  0
LINE
  8
ValleyLine
  6
CONTINUOUS
 62
5
 10
1015.6827720060232
 20
-949.9072823313284
 11
1032.3389672564924
 21
-990.0118827155032
  0
LINE
  8
ValleyLine
  6
CONTINUOUS
 62
5
 10
1032.3389672564924
 20
-990.0118827155032
 11
1056.8518730645037
 21
-1048.5651561662635
  0
LINE
  8
ValleyLine
  6
CONTINUOUS
 62
5
 10
1056.8518730645037
 20
-1048.5651561662635
 11
1099.0543299828985
 21
-1148.4481333234453
  0
LINE
  8
ValleyLine
  6
CONTINUOUS
 62
5
 10
1099.0543299828985
 20
-1148.4481333234453
 11
1171.1122109829732
 21
-1318.0736852538364
  0
LINE
  8
ValleyLine
  6
CONTINUOUS
 62
5
 10
1171.1122109829732
 20
-1318.0736852538364
 11
1285.1431261910514
 21
-1585.8064201792504
  0
LINE
  8
ValleyLine
  6
CONTINUOUS
 62
5
 10
1285.1431261910514
 20
-1585.8064201792504
 11
1431.1486320078682
 21
-1928.328376948422
  0
LINE
  8
ValleyLine
  6
CONTINUOUS
 62
5
 10
1431.1486320078682
 20
-1928.328376948422
 11
1599.1203357954996
 21
-2322.311645371425
  0
LINE
  8
ValleyLine
  6
CONTINUOUS
 62
5
 10
1599.1203357954996
 20
-2322.311645371425
 11
1733.3364747590792
 21
-2637.097125442665
  0
LINE
  8
ValleyLine
  6
CONTINUOUS
 62
5
 10
1733.3364747590792
 20
-2637.097125442665
 11
1778.0751877469393
 21
-2742.025618799745
  0
LINE
  8
ValleyLine
  6
CONTINUOUS
 62
5
 10
1778.0751877469393
 20
-2742.025618799745
 11
1778.0751877469393
 21
-2742.025618799745
  0
LINE
  8
ValleyLine
  6
CONTINUOUS
 62
5
 10
1778.0751877469393
 20
-2742.025618799745
 11
1778.0751877469393
 21
-2742.025618799745
  0
LINE
  8
ValleyLine
  6
CONTINUOUS
 62
5
 10
0.0
 20
-0.0
 11
0.0
 21
-0.0
  0
LINE
  8
MountainLine
  6
CONTINUOUS
 62
1
 10
0.0
 20
-0.0
 11
0.0
 21
-0.0
  0
LINE
  8
ValleyLine
  6
CONTINUOUS
 62
5
 10
0.0
 20
-0.0
 11
0.0
 21
-0.0
  0
LINE
  8
MountainLine
  6
CONTINUOUS
 62
1
 10
0.0
 20
-0.0
 11
0.0
 21
-0.0
  0
LINE
  8
ValleyLine
  6
CONTINUOUS
 62
5
 10
16.24171188431907
 20
-6.759531001992192
 11
16.26433482062953
 21
-6.736908065681733
  0
LINE
  8
MountainLine
  6
CONTINUOUS
 62
1
 10
16.24171188431907
 20
-6.759531001992192
 11
6.73690806568173
 21
-16.264334820629532
  0
LINE
  8
ValleyLine
  6
CONTINUOUS
 62
5
 10
64.9668475372763
 20
-27.03812400796878
 11
65.05733928251813
 21
-26.947632262726938
  0
LINE
  8
MountainLine
  6
CONTINUOUS
 62
1
 10
64.9668475372763
 20
-27.03812400796878
 11
26.947632262726927
 21
-65.05733928251813
  0
LINE
  8
ValleyLine
  6
CONTINUOUS
 62
5
 10
129.4353146119027
 20
-53.90631658987432
 11
129.64211069657964
 21
-53.69952050519739
  0
LINE
  8
MountainLine
  6
CONTINUOUS
 62
1
 10
129.4353146119027
 20
-53.90631658987432
 11
53.69952050519737
 21
-129.64211069657964
  0
LINE
  8
ValleyLine
  6
CONTINUOUS
 62
5
 10
192.93235250616067
 20
-80.45997806458466
 11
193.3175708709683
 21
-80.07475969977706
  0
LINE
  8
MountainLine
  6
CONTINUOUS
 62
1
 10
192.93235250616067
 20
-80.45997806458466
 11
80.07475969977703
 21
-193.3175708709683
  0
LINE
  8
ValleyLine
  6
CONTINUOUS
 62
5
 10
255.03830806593115
 20
-106.60790431456738
 11
255.72248916468087
 21
-105.92372321581767
  0
LINE
  8
MountainLine
  6
CONTINUOUS
 62
1
 10
255.03830806593115
 20
-106.60790431456738
 11
105.92372321581763
 21
-255.72248916468087
  0
LINE
  8
ValleyLine
  6
CONTINUOUS
 62
5
 10
315.42040757847906
 20
-132.34577066367396
 11
316.61850102101073
 21
-131.14767722114232
  0
LINE
  8
MountainLine
  6
CONTINUOUS
 62
1
 10
315.42040757847906
 20
-132.34577066367396
 11
131.14767722114226
 21
-316.61850102101073
  0
LINE
  8
ValleyLine
  6
CONTINUOUS
 62
5
 10
373.63639844150987
 20
-157.50265197461638
 11
375.5720243022264
 21
-155.56702611389986
  0
LINE
  8
MountainLine
  6
CONTINUOUS
 62
1
 10
373.63639844150987
 20
-157.50265197461638
 11
155.5670261138998
 21
-375.5720243022264
  0
LINE
  8
ValleyLine
  6
CONTINUOUS
 62
5
 10
429.1892339187222
 20
-181.85282897609943
 11
432.0719862631452
 21
-178.9700766316764
  0
LINE
  8
MountainLine
  6
CONTINUOUS
 62
1
 10
429.1892339187222
 20
-181.85282897609943
 11
178.97007663167633
 21
-432.0719862631452
  0
LINE
  8
ValleyLine
  6
CONTINUOUS
 62
5
 10
481.53779011494635
 20
-205.12650523795995
 11
485.5449796427223
 21
-201.119315710184
  0
LINE
  8
MountainLine
  6
CONTINUOUS
 62
1
 10
481.53779011494635
 20
-205.12650523795995
 11
201.11931571018388
 21
-485.5449796427224
  0
LINE
  8
ValleyLine
  6
CONTINUOUS
 62
5
 10
530.1054917882965
 20
-227.01843298331818
 11
535.3674614045823
 21
-221.75646336703247
  0
LINE
  8
MountainLine
  6
CONTINUOUS
 62
1
 10
530.1054917882965
 20
-227.01843298331818
 11
221.75646336703247
 21
-535.3674614045823
  0
LINE
  8
ValleyLine
  6
CONTINUOUS
 62
5
 10
573.7329295327633
 20
-247.38311070171497
 11
580.6167201908455
 21
-240.4993200436327
  0
LINE
  8
MountainLine
  6
CONTINUOUS
 62
1
 10
573.7329295327633
 20
-247.38311070171497
 11
240.49932004363268
 21
-580.6167201908455
  0
LINE
  8
ValleyLine
  6
CONTINUOUS
 62
5
 10
611.6623306367466
 20
-266.4766735771002
 11
620.9380447040131
 21
-257.2009595098335
  0
LINE
  8
MountainLine
  6
CONTINUOUS
 62
1
 10
611.6623306367466
 20
-266.4766735771002
 11
257.20095950983347
 21
-620.9380447040132
  0
LINE
  8
ValleyLine
  6
CONTINUOUS
 62
5
 10
643.9926735171148
 20
-285.41200792189204
 11
657.1883527120447
 21
-272.21632872696216
  0
LINE
  8
MountainLine
  6
CONTINUOUS
 62
1
 10
643.9926735171148
 20
-285.41200792189204
 11
272.21632872696205
 21
-657.1883527120447
  0
LINE
  8
ValleyLine
  6
CONTINUOUS
 62
5
 10
672.3148595287956
 20
-306.79392298656865
 11
692.3344596359186
 21
-286.7743228794457
  0
LINE
  8
MountainLine
  6
CONTINUOUS
 62
1
 10
672.3148595287956
 20
-306.79392298656865
 11
286.7743228794456
 21
-692.3344596359186
  0
LINE
  8
ValleyLine
  6
CONTINUOUS
 62
5
 10
698.8681252999108
 20
-332.31900046923874
 11
729.1594093036309
 21
-302.0277164655187
  0
LINE
  8
MountainLine
  6
CONTINUOUS
 62
1
 10
698.8681252999108
 20
-332.31900046923874
 11
302.0277164655186
 21
-729.1594093036309
  0
LINE
  8
ValleyLine
  6
CONTINUOUS
 62
5
 10
724.9145152683261
 20
-362.7066298777556
 11
769.0642870946726
 21
-318.5568580514091
  0
LINE
  8
MountainLine
  6
CONTINUOUS
 62
1
 10
724.9145152683261
 20
-362.7066298777556
 11
318.556858051409
 21
-769.0642870946726
  0
LINE
  8
ValleyLine
  6
CONTINUOUS
 62
5
 10
750.9476622692196
 20
-397.9077891172843
 11
812.3634802785286
 21
-336.491971107975
  0
LINE
  8
MountainLine
  6
CONTINUOUS
 62
1
 10
750.9476622692196
 20
-397.9077891172843
 11
336.4919711079749
 21
-812.3634802785288
  0
LINE
  8
ValleyLine
  6
CONTINUOUS
 62
5
 10
776.999011605244
 20
-437.41126856046526
 11
858.7177442478279
 21
-355.69253591788134
  0
LINE
  8
MountainLine
  6
CONTINUOUS
 62
1
 10
776.999011605244
 20
-437.41126856046526
 11
355.6925359178811
 21
-858.7177442478281
  0
LINE
  8
ValleyLine
  6
CONTINUOUS
 62
5
 10
802.7010005381276
 20
-480.0783642526926
 11
907.0619876097608
 21
-375.7173771810593
  0
LINE
  8
MountainLine
  6
CONTINUOUS
 62
1
 10
802.7010005381276
 20
-480.0783642526926
 11
375.71737718105913
 21
-907.0619876097608
  0
LINE
  8
ValleyLine
  6
CONTINUOUS
 62
5
 10
827.5343633012187
 20
-524.6186692109812
 11
956.1165784913309
 21
-396.03645402086926
  0
LINE
  8
MountainLine
  6
CONTINUOUS
 62
1
 10
827.5343633012187
 20
-524.6186692109812
 11
396.0364540208689
 21
-956.1165784913309
  0
LINE
  8
ValleyLine
  6
CONTINUOUS
 62
5
 10
850.940999192861
 20
-569.7029415173408
 11
1004.5469641277632
 21
-416.09697658243863
  0
LINE
  8
MountainLine
  6
CONTINUOUS
 62
1
 10
850.940999192861
 20
-569.7029415173408
 11
416.0969765824385
 21
-1004.5469641277633
  0
LINE
  8
ValleyLine
  6
CONTINUOUS
 62
5
 10
872.4179954018849
 20
-614.0571271442676
 11
1051.0966392174887
 21
-435.37848332866383
  0
LINE
  8
MountainLine
  6
CONTINUOUS
 62
1
 10
872.4179954018849
 20
-614.0571271442676
 11
435.37848332866383
 21
-1051.0966392174887
  0
LINE
  8
ValleyLine
  6
CONTINUOUS
 62
5
 10
892.8761572263961
 20
-658.8347980690842
 11
1097.2253389308898
 21
-454.48561636459067
  0
LINE
  8
MountainLine
  6
CONTINUOUS
 62
1
 10
892.8761572263961
 20
-658.8347980690842
 11
454.4856163645904
 21
-1097.2253389308898
  0
LINE
  8
ValleyLine
  6
CONTINUOUS
 62
5
 10
913.1385004582927
 20
-705.1017367629042
 11
1144.2686453280355
 21
-473.97159189316136
  0
LINE
  8
MountainLine
  6
CONTINUOUS
 62
1
 10
913.1385004582927
 20
-705.1017367629042
 11
473.97159189316113
 21
-1144.2686453280357
  0
LINE
  8
ValleyLine
  6
CONTINUOUS
 62
5
 10
933.8925179168444
 20
-753.7882027242143
 11
1193.370482043092
 21
-494.31023859796693
  0
LINE
  8
MountainLine
  6
CONTINUOUS
 62
1
 10
933.8925179168444
 20
-753.7882027242143
 11
494.3102385979667
 21
-1193.370482043092
  0
LINE
  8
ValleyLine
  6
CONTINUOUS
 62
5
 10
955.678026621014
 20
-805.6767796511928
 11
1245.465927590595
 21
-515.8888786816118
  0
LINE
  8
MountainLine
  6
CONTINUOUS
 62
1
 10
955.678026621014
 20
-805.6767796511928
 11
515.8888786816116
 21
-1245.4659275905954
  0
LINE
  8
ValleyLine
  6
CONTINUOUS
 62
5
 10
977.2621826916572
 20
-857.4354059091202
 11
1297.3271063262164
 21
-537.3704822745613
  0
LINE
  8
MountainLine
  6
CONTINUOUS
 62
1
 10
977.2621826916572
 20
-857.4354059091202
 11
537.370482274561
 21
-1297.3271063262164
  0
LINE
  8
ValleyLine
  6
CONTINUOUS
 62
5
 10
997.2893223605053
 20
-905.6091999741521
 11
1345.552449052697
 21
-557.3460732819603
  0
LINE
  8
MountainLine
  6
CONTINUOUS
 62
1
 10
997.2893223605053
 20
-905.6091999741521
 11
557.3460732819601
 21
-1345.552449052697
  0
LINE
  8
MountainLine
  6
CONTINUOUS
 62
1
 10
1015.6827720060232
 20
-949.9072823313284
 11
1389.8820564547757
 21
-575.7079978825759
  0
LINE
  8
ValleyLine
  6
CONTINUOUS
 62
5
 10
1015.6827720060232
 20
-949.9072823313284
 11
575.7079978825757
 21
-1389.8820564547757
  0
LINE
  8
MountainLine
  6
CONTINUOUS
 62
1
 10
1032.3389672564924
 20
-990.0118827155032
 11
1430.0179999535765
 21
-592.3328500184194
  0
LINE
  8
ValleyLine
  6
CONTINUOUS
 62
5
 10
1032.3389672564924
 20
-990.0118827155032
 11
592.3328500184192
 21
-1430.0179999535765
  0
LINE
  8
MountainLine
  6
CONTINUOUS
 62
1
 10
1056.8518730645037
 20
-1048.5651561662635
 11
1488.754658594711
 21
-616.6623706360562
  0
LINE
  8
ValleyLine
  6
CONTINUOUS
 62
5
 10
1056.8518730645037
 20
-1048.5651561662635
 11
616.662370636056
 21
-1488.754658594711
  0
LINE
  8
MountainLine
  6
CONTINUOUS
 62
1
 10
1099.0543299828985
 20
-1148.4481333234453
 11
1589.2242325373854
 21
-658.2782307689586
  0
LINE
  8
ValleyLine
  6
CONTINUOUS
 62
5
 10
1099.0543299828985
 20
-1148.4481333234453
 11
658.2782307689582
 21
-1589.2242325373854
  0
LINE
  8
MountainLine
  6
CONTINUOUS
 62
1
 10
1171.1122109829732
 20
-1318.0736852538364
 11
1760.1202268629615
 21
-729.065669373848
  0
LINE
  8
ValleyLine
  6
CONTINUOUS
 62
5
 10
1171.1122109829732
 20
-1318.0736852538364
 11
729.0656693738475
 21
-1760.120226862962
  0
LINE
  8
MountainLine
  6
CONTINUOUS
 62
1
 10
1285.1431261910514
 20
-1585.8064201792504
 11
2030.067892682883
 21
-840.8816536874192
  0
LINE
  8
ValleyLine
  6
CONTINUOUS
 62
5
 10
1285.1431261910514
 20
-1585.8064201792504
 11
840.8816536874189
 21
-2030.067892682883
  0
LINE
  8
MountainLine
  6
CONTINUOUS
 62
1
 10
1431.1486320078682
 20
-1928.328376948422
 11
2375.5089742732926
 21
-983.9680346829975
  0
LINE
  8
ValleyLine
  6
CONTINUOUS
 62
5
 10
1431.1486320078682
 20
-1928.328376948422
 11
983.9680346829973
 21
-2375.5089742732926
  0
LINE
  8
MountainLine
  6
CONTINUOUS
 62
1
 10
1599.1203357954996
 20
-2322.311645371425
 11
2772.87114584493
 21
-1148.5608353219948
  0
LINE
  8
ValleyLine
  6
CONTINUOUS
 62
5
 10
1599.1203357954996
 20
-2322.311645371425
 11
1148.5608353219945
 21
-2772.87114584493
  0
LINE
  8
ValleyLine
  6
CONTINUOUS
 62
5
 10
1733.3364747590792
 20
-2637.097125442665
 11
3090.36323542819
 21
-1280.0703647735545
  0
LINE
  8
MountainLine
  6
CONTINUOUS
 62
1
 10
1733.3364747590792
 20
-2637.097125442665
 11
1280.070364773554
 21
-3090.36323542819
  0
LINE
  8
ValleyLine
  6
CONTINUOUS
 62
5
 10
1778.0751877469393
 20
-2742.025618799745
 11
3196.1939319559438
 21
-1323.9068745907416
  0
LINE
  8
MountainLine
  6
CONTINUOUS
 62
1
 10
1778.0751877469393
 20
-2742.025618799745
 11
1323.9068745907407
 21
-3196.1939319559438
  0
LINE
  8
ValleyLine
  6
CONTINUOUS
 62
5
 10
1778.0751877469393
 20
-2742.025618799745
 11
3196.1939319559438
 21
-1323.9068745907416
  0
LINE
  8
MountainLine
  6
CONTINUOUS
 62
1
 10
1778.0751877469393
 20
-2742.025618799745
 11
1323.9068745907407
 21
-3196.1939319559438
  0
LINE
  8
ValleyLine
  6
CONTINUOUS
 62
5
 10
0.0
 20
-0.0
 11
0.0
 21
-0.0
  0
LINE
  8
ValleyLine
  6
CONTINUOUS
 62
5
 10
0.0
 20
-0.0
 11
16.264334820629532
 21
6.7049144023307745
  0
LINE
  8
ValleyLine
  6
CONTINUOUS
 62
5
 10
16.264334820629532
 20
6.7049144023307745
 11
65.05733928251813
 21
26.819657609323098
  0
LINE
  8
ValleyLine
  6
CONTINUOUS
 62
5
 10
65.05733928251813
 20
26.819657609323098
 11
129.64211069657964
 21
53.407066677601605
  0
LINE
  8
ValleyLine
  6
CONTINUOUS
 62
5
 10
129.64211069657964
 20
53.407066677601605
 11
193.3175708709683
 21
79.52997866379093
  0
LINE
  8
ValleyLine
  6
CONTINUOUS
 62
5
 10
193.3175708709683
 20
79.52997866379093
 11
255.72248916468087
 21
104.95614502684649
  0
LINE
  8
ValleyLine
  6
CONTINUOUS
 62
5
 10
255.72248916468087
 20
104.95614502684649
 11
316.61850102101073
 21
129.4533172257237
  0
LINE
  8
ValleyLine
  6
CONTINUOUS
 62
5
 10
316.61850102101073
 20
129.4533172257237
 11
375.5720243022264
 21
152.82963776999438
  0
LINE
  8
ValleyLine
  6
CONTINUOUS
 62
5
 10
375.5720243022264
 20
152.82963776999438
 11
432.0719862631452
 21
174.89324916923044
  0
LINE
  8
ValleyLine
  6
CONTINUOUS
 62
5
 10
432.0719862631452
 20
174.89324916923044
 11
485.5449796427224
 21
195.45229393300372
  0
LINE
  8
ValleyLine
  6
CONTINUOUS
 62
5
 10
485.5449796427224
 20
195.45229393300372
 11
535.3674614045823
 21
214.31491457088603
  0
LINE
  8
ValleyLine
  6
CONTINUOUS
 62
5
 10
535.3674614045823
 20
214.31491457088603
 11
580.6167201908455
 21
230.76416993443547
  0
LINE
  8
ValleyLine
  6
CONTINUOUS
 62
5
 10
580.6167201908455
 20
230.76416993443547
 11
620.9380447040132
 21
244.08311887521
  0
LINE
  8
ValleyLine
  6
CONTINUOUS
 62
5
 10
620.9380447040132
 20
244.08311887521
 11
657.1883527120447
 21
253.55482024476765
  0
LINE
  8
ValleyLine
  6
CONTINUOUS
 62
5
 10
657.1883527120447
 20
253.55482024476765
 11
692.3344596359186
 21
258.4623328946664
  0
LINE
  8
ValleyLine
  6
CONTINUOUS
 62
5
 10
692.3344596359186
 20
258.4623328946664
 11
729.1594093036309
 21
259.1893718057625
  0
LINE
  8
ValleyLine
  6
CONTINUOUS
 62
5
 10
729.1594093036309
 20
259.1893718057625
 11
769.0642870946726
 21
256.11965195891224
  0
LINE
  8
ValleyLine
  6
CONTINUOUS
 62
5
 10
769.0642870946726
 20
256.11965195891224
 11
812.3634802785288
 21
249.6368883349719
  0
LINE
  8
ValleyLine
  6
CONTINUOUS
 62
5
 10
812.3634802785288
 20
249.6368883349719
 11
858.7177442478281
 21
240.12479591479786
  0
LINE
  8
ValleyLine
  6
CONTINUOUS
 62
5
 10
858.7177442478281
 20
240.12479591479786
 11
907.0619876097608
 21
228.1286538817121
  0
LINE
  8
ValleyLine
  6
CONTINUOUS
 62
5
 10
907.0619876097608
 20
228.1286538817121
 11
956.1165784913309
 21
214.19374141903668
  0
LINE
  8
ValleyLine
  6
CONTINUOUS
 62
5
 10
956.1165784913309
 20
214.19374141903668
 11
1004.5469641277633
 21
198.86533771009374
  0
LINE
  8
ValleyLine
  6
CONTINUOUS
 62
5
 10
1004.5469641277633
 20
198.86533771009374
 11
1051.0966392174887
 21
182.68872193820528
  0
LINE
  8
ValleyLine
  6
CONTINUOUS
 62
5
 10
1051.0966392174887
 20
182.68872193820528
 11
1097.2253389308898
 21
165.49223213825147
  0
LINE
  8
ValleyLine
  6
CONTINUOUS
 62
5
 10
1097.2253389308898
 20
165.49223213825147
 11
1144.2686453280355
 21
147.10420634511243
  0
LINE
  8
ValleyLine
  6
CONTINUOUS
 62
5
 10
1144.2686453280355
 20
147.10420634511243
 11
1193.3704820430921
 21
127.35298259366814
  0
LINE
  8
ValleyLine
  6
CONTINUOUS
 62
5
 10
1193.3704820430921
 20
127.35298259366814
 11
1245.4659275905951
 21
106.06689891879876
  0
LINE
  8
ValleyLine
  6
CONTINUOUS
 62
5
 10
1245.4659275905951
 20
106.06689891879876
 11
1297.3271063262164
 21
84.73032643065879
  0
LINE
  8
ValleyLine
  6
CONTINUOUS
 62
5
 10
1297.3271063262164
 20
84.73032643065879
 11
1345.552449052697
 21
64.82763623940282
  0
LINE
  8
ValleyLine
  6
CONTINUOUS
 62
5
 10
1345.552449052697
 20
64.82763623940282
 11
1389.8820564547757
 21
46.510294784842536
  0
LINE
  8
ValleyLine
  6
CONTINUOUS
 62
5
 10
1389.8820564547757
 20
46.510294784842536
 11
1430.0179999535765
 21
29.929768506789614
  0
LINE
  8
ValleyLine
  6
CONTINUOUS
 62
5
 10
1430.0179999535765
 20
29.929768506789614
 11
1488.754658594711
 21
5.8595937125187225
  0
LINE
  8
ValleyLine
  6
CONTINUOUS
 62
5
 10
1488.754658594711
 20
5.8595937125187225
 11
1589.2242325373854
 21
-34.92669329069549
  0
LINE
  8
ValleyLine
  6
CONTINUOUS
 62
5
 10
1589.2242325373854
 20
-34.92669329069549
 11
1760.120226862962
 21
-103.91745503009959
  0
LINE
  8
ValleyLine
  6
CONTINUOUS
 62
5
 10
1760.120226862962
 20
-103.91745503009959
 11
2030.067892682883
 21
-212.60105403294017
  0
LINE
  8
ValleyLine
  6
CONTINUOUS
 62
5
 10
2030.067892682883
 20
-212.60105403294017
 11
2375.5089742732926
 21
-351.5591691160637
  0
LINE
  8
ValleyLine
  6
CONTINUOUS
 62
5
 10
2375.5089742732926
 20
-351.5591691160637
 11
2772.87114584493
 21
-511.37347909631677
  0
LINE
  8
ValleyLine
  6
CONTINUOUS
 62
5
 10
2772.87114584493
 20
-511.37347909631677
 11
3090.36323542819
 21
-639.0552846679301
  0
LINE
  8
ValleyLine
  6
CONTINUOUS
 62
5
 10
3090.36323542819
 20
-639.0552846679301
 11
3196.1939319559438
 21
-681.6158865251346
  0
LINE
  8
ValleyLine
  6
CONTINUOUS
 62
5
 10
3196.1939319559438
 20
-681.6158865251346
 11
3196.1939319559438
 21
-681.6158865251346
  0
LINE
  8
ValleyLine
  6
CONTINUOUS
 62
5
 10
3196.1939319559438
 20
-681.6158865251346
 11
3196.1939319559438
 21
-681.6158865251346
  0
LINE
  8
ValleyLine
  6
CONTINUOUS
 62
5
 10
0.0
 20
-0.0
 11
0.0
 21
-0.0
  0
LINE
  8
MountainLine
  6
CONTINUOUS
 62
1
 10
0.0
 20
-0.0
 11
0.0
 21
-0.0
  0
LINE
  8
ValleyLine
  6
CONTINUOUS
 62
5
 10
0.0
 20
-0.0
 11
0.0
 21
-0.0
  0
LINE
  8
MountainLine
  6
CONTINUOUS
 62
1
 10
0.0
 20
-0.0
 11
0.0
 21
-0.0
  0
LINE
  8
ValleyLine
  6
CONTINUOUS
 62
5
 10
16.264334820629532
 20
6.7049144023307745
 11
16.264334820629532
 21
6.736908065681729
  0
LINE
  8
MountainLine
  6
CONTINUOUS
 62
1
 10
16.264334820629532
 20
6.7049144023307745
 11
16.264334820629532
 21
-6.7369080656817335
  0
LINE
  8
ValleyLine
  6
CONTINUOUS
 62
5
 10
65.05733928251813
 20
26.819657609323098
 11
65.05733928251813
 21
26.94763226272692
  0
LINE
  8
MountainLine
  6
CONTINUOUS
 62
1
 10
65.05733928251813
 20
26.819657609323098
 11
65.05733928251813
 21
-26.947632262726938
  0
LINE
  8
ValleyLine
  6
CONTINUOUS
 62
5
 10
129.64211069657964
 20
53.407066677601605
 11
129.64211069657964
 21
53.69952050519737
  0
LINE
  8
MountainLine
  6
CONTINUOUS
 62
1
 10
129.64211069657964
 20
53.407066677601605
 11
129.64211069657964
 21
-53.699520505197405
  0
LINE
  8
ValleyLine
  6
CONTINUOUS
 62
5
 10
193.3175708709683
 20
79.52997866379093
 11
193.3175708709683
 21
80.074759699777
  0
LINE
  8
MountainLine
  6
CONTINUOUS
 62
1
 10
193.3175708709683
 20
79.52997866379093
 11
193.3175708709683
 21
-80.07475969977706
  0
LINE
  8
ValleyLine
  6
CONTINUOUS
 62
5
 10
255.72248916468087
 20
104.95614502684649
 11
255.72248916468087
 21
105.92372321581763
  0
LINE
  8
MountainLine
  6
CONTINUOUS
 62
1
 10
255.72248916468087
 20
104.95614502684649
 11
255.72248916468087
 21
-105.9237232158177
  0
LINE
  8
ValleyLine
  6
CONTINUOUS
 62
5
 10
316.61850102101073
 20
129.4533172257237
 11
316.61850102101073
 21
131.14767722114223
  0
LINE
  8
MountainLine
  6
CONTINUOUS
 62
1
 10
316.61850102101073
 20
129.4533172257237
 11
316.61850102101073
 21
-131.14767722114232
  0
LINE
  8
ValleyLine
  6
CONTINUOUS
 62
5
 10
375.5720243022264
 20
152.82963776999438
 11
375.5720243022264
 21
155.56702611389974
  0
LINE
  8
MountainLine
  6
CONTINUOUS
 62
1
 10
375.5720243022264
 20
152.82963776999438
 11
375.5720243022264
 21
-155.56702611389986
  0
LINE
  8
ValleyLine
  6
CONTINUOUS
 62
5
 10
432.0719862631452
 20
174.89324916923044
 11
432.0719862631452
 21
178.97007663167633
  0
LINE
  8
MountainLine
  6
CONTINUOUS
 62
1
 10
432.0719862631452
 20
174.89324916923044
 11
432.0719862631452
 21
-178.9700766316764
  0
LINE
  8
ValleyLine
  6
CONTINUOUS
 62
5
 10
485.5449796427224
 20
195.45229393300372
 11
485.5449796427224
 21
201.11931571018388
  0
LINE
  8
MountainLine
  6
CONTINUOUS
 62
1
 10
485.5449796427224
 20
195.45229393300372
 11
485.5449796427224
 21
-201.11931571018403
  0
LINE
  8
ValleyLine
  6
CONTINUOUS
 62
5
 10
535.3674614045823
 20
214.31491457088603
 11
535.3674614045823
 21
221.7564633670324
  0
LINE
  8
MountainLine
  6
CONTINUOUS
 62
1
 10
535.3674614045823
 20
214.31491457088603
 11
535.3674614045823
 21
-221.75646336703255
  0
LINE
  8
ValleyLine
  6
CONTINUOUS
 62
5
 10
580.6167201908455
 20
230.76416993443547
 11
580.6167201908455
 21
240.4993200436326
  0
LINE
  8
MountainLine
  6
CONTINUOUS
 62
1
 10
580.6167201908455
 20
230.76416993443547
 11
580.6167201908455
 21
-240.49932004363274
  0
LINE
  8
ValleyLine
  6
CONTINUOUS
 62
5
 10
620.9380447040132
 20
244.08311887521
 11
620.9380447040132
 21
257.20095950983335
  0
LINE
  8
MountainLine
  6
CONTINUOUS
 62
1
 10
620.9380447040132
 20
244.08311887521
 11
620.9380447040132
 21
-257.2009595098335
  0
LINE
  8
ValleyLine
  6
CONTINUOUS
 62
5
 10
657.1883527120447
 20
253.55482024476765
 11
657.1883527120447
 21
272.21632872696205
  0
LINE
  8
MountainLine
  6
CONTINUOUS
 62
1
 10
657.1883527120447
 20
253.55482024476765
 11
657.1883527120447
 21
-272.21632872696216
  0
LINE
  8
ValleyLine
  6
CONTINUOUS
 62
5
 10
692.3344596359186
 20
258.4623328946664
 11
692.3344596359186
 21
286.77432287944555
  0
LINE
  8
MountainLine
  6
CONTINUOUS
 62
1
 10
692.3344596359186
 20
258.4623328946664
 11
692.3344596359186
 21
-286.77432287944566
  0
LINE
  8
ValleyLine
  6
CONTINUOUS
 62
5
 10
729.1594093036309
 20
259.1893718057625
 11
729.1594093036309
 21
302.02771646551855
  0
LINE
  8
MountainLine
  6
CONTINUOUS
 62
1
 10
729.1594093036309
 20
259.1893718057625
 11
729.1594093036309
 21
-302.0277164655187
  0
LINE
  8
ValleyLine
  6
CONTINUOUS
 62
5
 10
769.0642870946726
 20
256.11965195891224
 11
769.0642870946726
 21
318.55685805140894
  0
LINE
  8
MountainLine
  6
CONTINUOUS
 62
1
 10
769.0642870946726
 20
256.11965195891224
 11
769.0642870946726
 21
-318.55685805140917
  0
LINE
  8
ValleyLine
  6
CONTINUOUS
 62
5
 10
812.3634802785288
 20
249.6368883349719
 11
812.3634802785288
 21
336.49197110797485
  0
LINE
  8
MountainLine
  6
CONTINUOUS
 62
1
 10
812.3634802785288
 20
249.6368883349719
 11
812.3634802785288
 21
-336.491971107975
  0
LINE
  8
ValleyLine
  6
CONTINUOUS
 62
5
 10
858.7177442478281
 20
240.12479591479786
 11
858.7177442478281
 21
355.6925359178811
  0
LINE
  8
MountainLine
  6
CONTINUOUS
 62
1
 10
858.7177442478281
 20
240.12479591479786
 11
858.7177442478281
 21
-355.6925359178813
  0
LINE
  8
ValleyLine
  6
CONTINUOUS
 62
5
 10
907.0619876097608
 20
228.1286538817121
 11
907.0619876097608
 21
375.7173771810591
  0
LINE
  8
MountainLine
  6
CONTINUOUS
 62
1
 10
907.0619876097608
 20
228.1286538817121
 11
907.0619876097608
 21
-375.71737718105936
  0
LINE
  8
ValleyLine
  6
CONTINUOUS
 62
5
 10
956.1165784913309
 20
214.19374141903668
 11
956.1165784913309
 21
396.0364540208689
  0
LINE
  8
MountainLine
  6
CONTINUOUS
 62
1
 10
956.1165784913309
 20
214.19374141903668
 11
956.1165784913309
 21
-396.03645402086926
  0
LINE
  8
ValleyLine
  6
CONTINUOUS
 62
5
 10
1004.5469641277633
 20
198.86533771009374
 11
1004.5469641277633
 21
416.0969765824384
  0
LINE
  8
MountainLine
  6
CONTINUOUS
 62
1
 10
1004.5469641277633
 20
198.86533771009374
 11
1004.5469641277633
 21
-416.0969765824387
  0
LINE
  8
ValleyLine
  6
CONTINUOUS
 62
5
 10
1051.0966392174887
 20
182.68872193820528
 11
1051.0966392174887
 21
435.37848332866366
  0
LINE
  8
MountainLine
  6
CONTINUOUS
 62
1
 10
1051.0966392174887
 20
182.68872193820528
 11
1051.0966392174887
 21
-435.37848332866395
  0
LINE
  8
ValleyLine
  6
CONTINUOUS
 62
5
 10
1097.2253389308898
 20
165.49223213825147
 11
1097.2253389308898
 21
454.48561636459027
  0
LINE
  8
MountainLine
  6
CONTINUOUS
 62
1
 10
1097.2253389308898
 20
165.49223213825147
 11
1097.2253389308898
 21
-454.4856163645906
  0
LINE
  8
ValleyLine
  6
CONTINUOUS
 62
5
 10
1144.2686453280355
 20
147.10420634511243
 11
1144.2686453280355
 21
473.9715918931611
  0
LINE
  8
MountainLine
  6
CONTINUOUS
 62
1
 10
1144.2686453280355
 20
147.10420634511243
 11
1144.2686453280355
 21
-473.97159189316136
  0
LINE
  8
ValleyLine
  6
CONTINUOUS
 62
5
 10
1193.3704820430921
 20
127.35298259366814
 11
1193.3704820430921
 21
494.31023859796665
  0
LINE
  8
MountainLine
  6
CONTINUOUS
 62
1
 10
1193.3704820430921
 20
127.35298259366814
 11
1193.3704820430921
 21
-494.31023859796693
  0
LINE
  8
ValleyLine
  6
CONTINUOUS
 62
5
 10
1245.4659275905951
 20
106.06689891879876
 11
1245.4659275905951
 21
515.8888786816115
  0
LINE
  8
MountainLine
  6
CONTINUOUS
 62
1
 10
1245.4659275905951
 20
106.06689891879876
 11
1245.4659275905951
 21
-515.8888786816118
  0
LINE
  8
ValleyLine
  6
CONTINUOUS
 62
5
 10
1297.3271063262164
 20
84.73032643065879
 11
1297.3271063262164
 21
537.3704822745609
  0
LINE
  8
MountainLine
  6
CONTINUOUS
 62
1
 10
1297.3271063262164
 20
84.73032643065879
 11
1297.3271063262164
 21
-537.3704822745613
  0
LINE
  8
ValleyLine
  6
CONTINUOUS
 62
5
 10
1345.552449052697
 20
64.82763623940282
 11
1345.552449052697
 21
557.34607328196
  0
LINE
  8
MountainLine
  6
CONTINUOUS
 62
1
 10
1345.552449052697
 20
64.82763623940282
 11
1345.552449052697
 21
-557.3460732819602
  0
LINE
  8
MountainLine
  6
CONTINUOUS
 62
1
 10
1389.8820564547757
 20
46.510294784842536
 11
1389.8820564547757
 21
575.7079978825757
  0
LINE
  8
ValleyLine
  6
CONTINUOUS
 62
5
 10
1389.8820564547757
 20
46.510294784842536
 11
1389.8820564547757
 21
-575.707997882576
  0
LINE
  8
MountainLine
  6
CONTINUOUS
 62
1
 10
1430.0179999535765
 20
29.929768506789614
 11
1430.0179999535765
 21
592.3328500184192
  0
LINE
  8
ValleyLine
  6
CONTINUOUS
 62
5
 10
1430.0179999535765
 20
29.929768506789614
 11
1430.0179999535765
 21
-592.3328500184194
  0
LINE
  8
MountainLine
  6
CONTINUOUS
 62
1
 10
1488.754658594711
 20
5.8595937125187225
 11
1488.754658594711
 21
616.6623706360559
  0
LINE
  8
ValleyLine
  6
CONTINUOUS
 62
5
 10
1488.754658594711
 20
5.8595937125187225
 11
1488.754658594711
 21
-616.6623706360564
  0
LINE
  8
MountainLine
  6
CONTINUOUS
 62
1
 10
1589.2242325373854
 20
-34.92669329069549
 11
1589.2242325373854
 21
658.2782307689582
  0
LINE
  8
ValleyLine
  6
CONTINUOUS
 62
5
 10
1589.2242325373854
 20
-34.92669329069549
 11
1589.2242325373854
 21
-658.2782307689586
  0
LINE
  8
MountainLine
  6
CONTINUOUS
 62
1
 10
1760.120226862962
 20
-103.91745503009959
 11
1760.120226862962
 21
729.0656693738475
  0
LINE
  8
ValleyLine
  6
CONTINUOUS
 62
5
 10
1760.120226862962
 20
-103.91745503009959
 11
1760.120226862962
 21
-729.0656693738479
  0
LINE
  8
MountainLine
  6
CONTINUOUS
 62
1
 10
2030.067892682883
 20
-212.60105403294017
 11
2030.067892682883
 21
840.8816536874186
  0
LINE
  8
ValleyLine
  6
CONTINUOUS
 62
5
 10
2030.067892682883
 20
-212.60105403294017
 11
2030.067892682883
 21
-840.8816536874192
  0
LINE
  8
MountainLine
  6
CONTINUOUS
 62
1
 10
2375.5089742732926
 20
-351.5591691160637
 11
2375.5089742732926
 21
983.9680346829973
  0
LINE
  8
ValleyLine
  6
CONTINUOUS
 62
5
 10
2375.5089742732926
 20
-351.5591691160637
 11
2375.5089742732926
 21
-983.9680346829979
  0
LINE
  8
MountainLine
  6
CONTINUOUS
 62
1
 10
2772.87114584493
 20
-511.37347909631677
 11
2772.87114584493
 21
1148.560835321994
  0
LINE
  8
ValleyLine
  6
CONTINUOUS
 62
5
 10
2772.87114584493
 20
-511.37347909631677
 11
2772.87114584493
 21
-1148.5608353219948
  0
LINE
  8
ValleyLine
  6
CONTINUOUS
 62
5
 10
3090.36323542819
 20
-639.0552846679301
 11
3090.36323542819
 21
1280.070364773554
  0
LINE
  8
MountainLine
  6
CONTINUOUS
 62
1
 10
3090.36323542819
 20
-639.0552846679301
 11
3090.36323542819
 21
-1280.070364773555
  0
LINE
  8
ValleyLine
  6
CONTINUOUS
 62
5
 10
3196.1939319559438
 20
-681.6158865251346
 11
3196.1939319559438
 21
1323.9068745907407
  0
LINE
  8
MountainLine
  6
CONTINUOUS
 62
1
 10
3196.1939319559438
 20
-681.6158865251346
 11
3196.1939319559438
 21
-1323.9068745907414
  0
LINE
  8
ValleyLine
  6
CONTINUOUS
 62
5
 10
3196.1939319559438
 20
-681.6158865251346
 11
3196.1939319559438
 21
1323.9068745907407
  0
LINE
  8
MountainLine
  6
CONTINUOUS
 62
1
 10
3196.1939319559438
 20
-681.6158865251346
 11
3196.1939319559438
 21
-1323.9068745907414
  0
LINE
  8
ValleyLine
  6
CONTINUOUS
 62
5
 10
0.0
 20
0.0
 11
0.0
 21
0.0
  0
LINE
  8
ValleyLine
  6
CONTINUOUS
 62
5
 10
0.0
 20
0.0
 11
6.759531001992195
 21
16.24171188431907
  0
LINE
  8
ValleyLine
  6
CONTINUOUS
 62
5
 10
6.759531001992195
 20
16.24171188431907
 11
27.038124007968786
 21
64.9668475372763
  0
LINE
  8
ValleyLine
  6
CONTINUOUS
 62
5
 10
27.038124007968786
 20
64.9668475372763
 11
53.906316589874336
 21
129.4353146119027
  0
LINE
  8
ValleyLine
  6
CONTINUOUS
 62
5
 10
53.906316589874336
 20
129.4353146119027
 11
80.45997806458467
 21
192.9323525061607
  0
LINE
  8
ValleyLine
  6
CONTINUOUS
 62
5
 10
80.45997806458467
 20
192.9323525061607
 11
106.60790431456742
 21
255.03830806593115
  0
LINE
  8
ValleyLine
  6
CONTINUOUS
 62
5
 10
106.60790431456742
 20
255.03830806593115
 11
132.345770663674
 21
315.42040757847906
  0
LINE
  8
ValleyLine
  6
CONTINUOUS
 62
5
 10
132.345770663674
 20
315.42040757847906
 11
157.5026519746164
 21
373.63639844150987
  0
LINE
  8
ValleyLine
  6
CONTINUOUS
 62
5
 10
157.5026519746164
 20
373.63639844150987
 11
181.8528289760995
 21
429.1892339187222
  0
LINE
  8
ValleyLine
  6
CONTINUOUS
 62
5
 10
181.8528289760995
 20
429.1892339187222
 11
205.12650523796
 21
481.53779011494646
  0
LINE
  8
ValleyLine
  6
CONTINUOUS
 62
5
 10
205.12650523796
 20
481.53779011494646
 11
227.01843298331823
 21
530.1054917882966
  0
LINE
  8
ValleyLine
  6
CONTINUOUS
 62
5
 10
227.01843298331823
 20
530.1054917882966
 11
247.38311070171503
 21
573.7329295327634
  0
LINE
  8
ValleyLine
  6
CONTINUOUS
 62
5
 10
247.38311070171503
 20
573.7329295327634
 11
266.47667357710026
 21
611.6623306367466
  0
LINE
  8
ValleyLine
  6
CONTINUOUS
 62
5
 10
266.47667357710026
 20
611.6623306367466
 11
285.41200792189215
 21
643.9926735171148
  0
LINE
  8
ValleyLine
  6
CONTINUOUS
 62
5
 10
285.41200792189215
 20
643.9926735171148
 11
306.7939229865687
 21
672.3148595287956
  0
LINE
  8
ValleyLine
  6
CONTINUOUS
 62
5
 10
306.7939229865687
 20
672.3148595287956
 11
332.31900046923886
 21
698.8681252999108
  0
LINE
  8
ValleyLine
  6
CONTINUOUS
 62
5
 10
332.31900046923886
 20
698.8681252999108
 11
362.70662987775563
 21
724.9145152683261
  0
LINE
  8
ValleyLine
  6
CONTINUOUS
 62
5
 10
362.70662987775563
 20
724.9145152683261
 11
397.90778911728444
 21
750.9476622692196
  0
LINE
  8
ValleyLine
  6
CONTINUOUS
 62
5
 10
397.90778911728444
 20
750.9476622692196
 11
437.4112685604654
 21
776.999011605244
  0
LINE
  8
ValleyLine
  6
CONTINUOUS
 62
5
 10
437.4112685604654
 20
776.999011605244
 11
480.07836425269267
 21
802.7010005381276
  0
LINE
  8
ValleyLine
  6
CONTINUOUS
 62
5
 10
480.07836425269267
 20
802.7010005381276
 11
524.6186692109814
 21
827.5343633012187
  0
LINE
  8
ValleyLine
  6
CONTINUOUS
 62
5
 10
524.6186692109814
 20
827.5343633012187
 11
569.702941517341
 21
850.9409991928611
  0
LINE
  8
ValleyLine
  6
CONTINUOUS
 62
5
 10
569.702941517341
 20
850.9409991928611
 11
614.0571271442677
 21
872.4179954018849
  0
LINE
  8
ValleyLine
  6
CONTINUOUS
 62
5
 10
614.0571271442677
 20
872.4179954018849
 11
658.8347980690843
 21
892.8761572263961
  0
LINE
  8
ValleyLine
  6
CONTINUOUS
 62
5
 10
658.8347980690843
 20
892.8761572263961
 11
705.1017367629045
 21
913.1385004582927
  0
LINE
  8
ValleyLine
  6
CONTINUOUS
 62
5
 10
705.1017367629045
 20
913.1385004582927
 11
753.7882027242144
 21
933.8925179168444
  0
LINE
  8
ValleyLine
  6
CONTINUOUS
 62
5
 10
753.7882027242144
 20
933.8925179168444
 11
805.6767796511929
 21
955.6780266210142
  0
LINE
  8
ValleyLine
  6
CONTINUOUS
 62
5
 10
805.6767796511929
 20
955.6780266210142
 11
857.4354059091203
 21
977.2621826916572
  0
LINE
  8
ValleyLine
  6
CONTINUOUS
 62
5
 10
857.4354059091203
 20
977.2621826916572
 11
905.6091999741523
 21
997.2893223605053
  0
LINE
  8
ValleyLine
  6
CONTINUOUS
 62
5
 10
905.6091999741523
 20
997.2893223605053
 11
949.9072823313285
 21
1015.6827720060232
  0
LINE
  8
ValleyLine
  6
CONTINUOUS
 62
5
 10
949.9072823313285
 20
1015.6827720060232
 11
990.0118827155034
 21
1032.3389672564924
  0
LINE
  8
ValleyLine
  6
CONTINUOUS
 62
5
 10
990.0118827155034
 20
1032.3389672564924
 11
1048.5651561662637
 21
1056.8518730645037
  0
LINE
  8
ValleyLine
  6
CONTINUOUS
 62
5
 10
1048.5651561662637
 20
1056.8518730645037
 11
1148.4481333234455
 21
1099.0543299828985
  0
LINE
  8
ValleyLine
  6
CONTINUOUS
 62
5
 10
1148.4481333234455
 20
1099.0543299828985
 11
1318.0736852538364
 21
1171.1122109829732
  0
LINE
  8
ValleyLine
  6
CONTINUOUS
 62
5
 10
1318.0736852538364
 20
1171.1122109829732
 11
1585.8064201792504
 21
1285.1431261910514
  0
LINE
  8
ValleyLine
  6
CONTINUOUS
 62
5
 10
1585.8064201792504
 20
1285.1431261910514
 11
1928.3283769484221
 21
1431.1486320078682
  0
LINE
  8
ValleyLine
  6
CONTINUOUS
 62
5
 10
1928.3283769484221
 20
1431.1486320078682
 11
2322.3116453714256
 21
1599.1203357954996
  0
LINE
  8
ValleyLine
  6
CONTINUOUS
 62
5
 10
2322.3116453714256
 20
1599.1203357954996
 11
2637.0971254426654
 21
1733.3364747590792
  0
LINE
  8
ValleyLine
  6
CONTINUOUS
 62
5
 10
2637.0971254426654
 20
1733.3364747590792
 11
2742.025618799745
 21
1778.0751877469393
  0
LINE
  8
ValleyLine
  6
CONTINUOUS
 62
5
 10
2742.025618799745
 20
1778.0751877469393
 11
2742.025618799745
 21
1778.0751877469393
  0
LINE
  8
ValleyLine
  6
CONTINUOUS
 62
5
 10
2742.025618799745
 20
1778.0751877469393
 11
2742.025618799745
 21
1778.0751877469393
  0
LINE
  8
ValleyLine
  6
CONTINUOUS
 62
5
 10
0.0
 20
0.0
 11
0.0
 21
0.0
  0
LINE
  8
MountainLine
  6
CONTINUOUS
 62
1
 10
0.0
 20
0.0
 11
0.0
 21
-0.0
  0
LINE
  8
ValleyLine
  6
CONTINUOUS
 62
5
 10
0.0
 20
0.0
 11
0.0
 21
0.0
  0
LINE
  8
MountainLine
  6
CONTINUOUS
 62
1
 10
0.0
 20
0.0
 11
0.0
 21
-0.0
  0
LINE
  8
ValleyLine
  6
CONTINUOUS
 62
5
 10
6.759531001992195
 20
16.24171188431907
 11
6.736908065681734
 21
16.264334820629532
  0
LINE
  8
MountainLine
  6
CONTINUOUS
 62
1
 10
6.759531001992195
 20
16.24171188431907
 11
16.264334820629532
 21
6.736908065681729
  0
LINE
  8
ValleyLine
  6
CONTINUOUS
 62
5
 10
27.038124007968786
 20
64.9668475372763
 11
26.94763226272695
 21
65.05733928251813
  0
LINE
  8
MountainLine
  6
CONTINUOUS
 62
1
 10
27.038124007968786
 20
64.9668475372763
 11
65.05733928251814
 21
26.94763226272692
  0
LINE
  8
ValleyLine
  6
CONTINUOUS
 62
5
 10
53.906316589874336
 20
129.4353146119027
 11
53.69952050519741
 21
129.64211069657964
  0
LINE
  8
MountainLine
  6
CONTINUOUS
 62
1
 10
53.906316589874336
 20
129.4353146119027
 11
129.64211069657966
 21
53.699520505197356
  0
LINE
  8
ValleyLine
  6
CONTINUOUS
 62
5
 10
80.45997806458467
 20
192.9323525061607
 11
80.07475969977708
 21
193.3175708709683
  0
LINE
  8
MountainLine
  6
CONTINUOUS
 62
1
 10
80.45997806458467
 20
192.9323525061607
 11
193.3175708709683
 21
80.07475969977703
  0
LINE
  8
ValleyLine
  6
CONTINUOUS
 62
5
 10
106.60790431456742
 20
255.03830806593115
 11
105.92372321581772
 21
255.72248916468087
  0
LINE
  8
MountainLine
  6
CONTINUOUS
 62
1
 10
106.60790431456742
 20
255.03830806593115
 11
255.7224891646809
 21
105.9237232158176
  0
LINE
  8
ValleyLine
  6
CONTINUOUS
 62
5
 10
132.345770663674
 20
315.42040757847906
 11
131.14767722114235
 21
316.61850102101073
  0
LINE
  8
MountainLine
  6
CONTINUOUS
 62
1
 10
132.345770663674
 20
315.42040757847906
 11
316.6185010210108
 21
131.14767722114223
  0
LINE
  8
ValleyLine
  6
CONTINUOUS
 62
5
 10
157.5026519746164
 20
373.63639844150987
 11
155.5670261138999
 21
375.5720243022264
  0
LINE
  8
MountainLine
  6
CONTINUOUS
 62
1
 10
157.5026519746164
 20
373.63639844150987
 11
375.57202430222645
 21
155.5670261138998
  0
LINE
  8
ValleyLine
  6
CONTINUOUS
 62
5
 10
181.8528289760995
 20
429.1892339187222
 11
178.97007663167648
 21
432.0719862631452
  0
LINE
  8
MountainLine
  6
CONTINUOUS
 62
1
 10
181.8528289760995
 20
429.1892339187222
 11
432.07198626314533
 21
178.97007663167633
  0
LINE
  8
ValleyLine
  6
CONTINUOUS
 62
5
 10
205.12650523796
 20
481.53779011494646
 11
201.11931571018405
 21
485.5449796427224
  0
LINE
  8
MountainLine
  6
CONTINUOUS
 62
1
 10
205.12650523796
 20
481.53779011494646
 11
485.54497964272247
 21
201.11931571018386
  0
LINE
  8
ValleyLine
  6
CONTINUOUS
 62
5
 10
227.01843298331823
 20
530.1054917882966
 11
221.75646336703255
 21
535.3674614045823
  0
LINE
  8
MountainLine
  6
CONTINUOUS
 62
1
 10
227.01843298331823
 20
530.1054917882966
 11
535.3674614045823
 21
221.75646336703244
  0
LINE
  8
ValleyLine
  6
CONTINUOUS
 62
5
 10
247.38311070171503
 20
573.7329295327634
 11
240.4993200436328
 21
580.6167201908456
  0
LINE
  8
MountainLine
  6
CONTINUOUS
 62
1
 10
247.38311070171503
 20
573.7329295327634
 11
580.6167201908456
 21
240.49932004363262
  0
LINE
  8
ValleyLine
  6
CONTINUOUS
 62
5
 10
266.47667357710026
 20
611.6623306367466
 11
257.2009595098336
 21
620.9380447040132
  0
LINE
  8
MountainLine
  6
CONTINUOUS
 62
1
 10
266.47667357710026
 20
611.6623306367466
 11
620.9380447040132
 21
257.2009595098334
  0
LINE
  8
ValleyLine
  6
CONTINUOUS
 62
5
 10
285.41200792189215
 20
643.9926735171148
 11
272.2163287269623
 21
657.1883527120447
  0
LINE
  8
MountainLine
  6
CONTINUOUS
 62
1
 10
285.41200792189215
 20
643.9926735171148
 11
657.1883527120448
 21
272.21632872696205
  0
LINE
  8
ValleyLine
  6
CONTINUOUS
 62
5
 10
306.7939229865687
 20
672.3148595287956
 11
286.7743228794458
 21
692.3344596359186
  0
LINE
  8
MountainLine
  6
CONTINUOUS
 62
1
 10
306.7939229865687
 20
672.3148595287956
 11
692.3344596359187
 21
286.77432287944555
  0
LINE
  8
ValleyLine
  6
CONTINUOUS
 62
5
 10
332.31900046923886
 20
698.8681252999108
 11
302.0277164655188
 21
729.1594093036309
  0
LINE
  8
MountainLine
  6
CONTINUOUS
 62
1
 10
332.31900046923886
 20
698.8681252999108
 11
729.159409303631
 21
302.0277164655186
  0
LINE
  8
ValleyLine
  6
CONTINUOUS
 62
5
 10
362.70662987775563
 20
724.9145152683261
 11
318.55685805140917
 21
769.0642870946726
  0
LINE
  8
MountainLine
  6
CONTINUOUS
 62
1
 10
362.70662987775563
 20
724.9145152683261
 11
769.0642870946726
 21
318.556858051409
  0
LINE
  8
ValleyLine
  6
CONTINUOUS
 62
5
 10
397.90778911728444
 20
750.9476622692196
 11
336.49197110797513
 21
812.3634802785288
  0
LINE
  8
MountainLine
  6
CONTINUOUS
 62
1
 10
397.90778911728444
 20
750.9476622692196
 11
812.363480278529
 21
336.49197110797485
  0
LINE
  8
ValleyLine
  6
CONTINUOUS
 62
5
 10
437.4112685604654
 20
776.999011605244
 11
355.6925359178814
 21
858.7177442478281
  0
LINE
  8
MountainLine
  6
CONTINUOUS
 62
1
 10
437.4112685604654
 20
776.999011605244
 11
858.7177442478283
 21
355.69253591788106
  0
LINE
  8
ValleyLine
  6
CONTINUOUS
 62
5
 10
480.07836425269267
 20
802.7010005381276
 11
375.71737718105936
 21
907.0619876097608
  0
LINE
  8
MountainLine
  6
CONTINUOUS
 62
1
 10
480.07836425269267
 20
802.7010005381276
 11
907.061987609761
 21
375.71737718105913
  0
LINE
  8
ValleyLine
  6
CONTINUOUS
 62
5
 10
524.6186692109814
 20
827.5343633012187
 11
396.03645402086937
 21
956.1165784913309
  0
LINE
  8
MountainLine
  6
CONTINUOUS
 62
1
 10
524.6186692109814
 20
827.5343633012187
 11
956.116578491331
 21
396.0364540208689
  0
LINE
  8
ValleyLine
  6
CONTINUOUS
 62
5
 10
569.702941517341
 20
850.9409991928611
 11
416.0969765824388
 21
1004.5469641277633
  0
LINE
  8
MountainLine
  6
CONTINUOUS
 62
1
 10
569.702941517341
 20
850.9409991928611
 11
1004.5469641277635
 21
416.0969765824384
  0
LINE
  8
ValleyLine
  6
CONTINUOUS
 62
5
 10
614.0571271442677
 20
872.4179954018849
 11
435.37848332866395
 21
1051.0966392174887
  0
LINE
  8
MountainLine
  6
CONTINUOUS
 62
1
 10
614.0571271442677
 20
872.4179954018849
 11
1051.0966392174887
 21
435.3784833286638
  0
LINE
  8
ValleyLine
  6
CONTINUOUS
 62
5
 10
658.8347980690843
 20
892.8761572263961
 11
454.4856163645908
 21
1097.2253389308898
  0
LINE
  8
MountainLine
  6
CONTINUOUS
 62
1
 10
658.8347980690843
 20
892.8761572263961
 11
1097.2253389308898
 21
454.4856163645904
  0
LINE
  8
ValleyLine
  6
CONTINUOUS
 62
5
 10
705.1017367629045
 20
913.1385004582927
 11
473.97159189316153
 21
1144.2686453280355
  0
LINE
  8
MountainLine
  6
CONTINUOUS
 62
1
 10
705.1017367629045
 20
913.1385004582927
 11
1144.2686453280357
 21
473.97159189316113
  0
LINE
  8
ValleyLine
  6
CONTINUOUS
 62
5
 10
753.7882027242144
 20
933.8925179168444
 11
494.31023859796704
 21
1193.370482043092
  0
LINE
  8
MountainLine
  6
CONTINUOUS
 62
1
 10
753.7882027242144
 20
933.8925179168444
 11
1193.3704820430924
 21
494.31023859796665
  0
LINE
  8
ValleyLine
  6
CONTINUOUS
 62
5
 10
805.6767796511929
 20
955.6780266210142
 11
515.8888786816119
 21
1245.4659275905951
  0
LINE
  8
MountainLine
  6
CONTINUOUS
 62
1
 10
805.6767796511929
 20
955.6780266210142
 11
1245.4659275905954
 21
515.8888786816116
  0
LINE
  8
ValleyLine
  6
CONTINUOUS
 62
5
 10
857.4354059091203
 20
977.2621826916572
 11
537.3704822745614
 21
1297.3271063262164
  0
LINE
  8
MountainLine
  6
CONTINUOUS
 62
1
 10
857.4354059091203
 20
977.2621826916572
 11
1297.3271063262164
 21
537.3704822745609
  0
LINE
  8
ValleyLine
  6
CONTINUOUS
 62
5
 10
905.6091999741523
 20
997.2893223605053
 11
557.3460732819605
 21
1345.552449052697
  0
LINE
  8
MountainLine
  6
CONTINUOUS
 62
1
 10
905.6091999741523
 20
997.2893223605053
 11
1345.5524490526973
 21
557.3460732819601
  0
LINE
  8
MountainLine
  6
CONTINUOUS
 62
1
 10
949.9072823313285
 20
1015.6827720060232
 11
575.7079978825761
 21
1389.8820564547757
  0
LINE
  8
ValleyLine
  6
CONTINUOUS
 62
5
 10
949.9072823313285
 20
1015.6827720060232
 11
1389.8820564547761
 21
575.7079978825757
  0
LINE
  8
MountainLine
  6
CONTINUOUS
 62
1
 10
990.0118827155034
 20
1032.3389672564924
 11
592.3328500184195
 21
1430.0179999535765
  0
LINE
  8
ValleyLine
  6
CONTINUOUS
 62
5
 10
990.0118827155034
 20
1032.3389672564924
 11
1430.0179999535767
 21
592.3328500184191
  0
LINE
  8
MountainLine
  6
CONTINUOUS
 62
1
 10
1048.5651561662637
 20
1056.8518730645037
 11
616.6623706360564
 21
1488.754658594711
  0
LINE
  8
ValleyLine
  6
CONTINUOUS
 62
5
 10
1048.5651561662637
 20
1056.8518730645037
 11
1488.754658594711
 21
616.662370636056
  0
LINE
  8
MountainLine
  6
CONTINUOUS
 62
1
 10
1148.4481333234455
 20
1099.0543299828985
 11
658.2782307689587
 21
1589.2242325373854
  0
LINE
  8
ValleyLine
  6
CONTINUOUS
 62
5
 10
1148.4481333234455
 20
1099.0543299828985
 11
1589.2242325373854
 21
658.2782307689582
  0
LINE
  8
MountainLine
  6
CONTINUOUS
 62
1
 10
1318.0736852538364
 20
1171.1122109829732
 11
729.065669373848
 21
1760.120226862962
  0
LINE
  8
ValleyLine
  6
CONTINUOUS
 62
5
 10
1318.0736852538364
 20
1171.1122109829732
 11
1760.1202268629622
 21
729.0656693738474
  0
LINE
  8
MountainLine
  6
CONTINUOUS
 62
1
 10
1585.8064201792504
 20
1285.1431261910514
 11
840.8816536874192
 21
2030.067892682883
  0
LINE
  8
ValleyLine
  6
CONTINUOUS
 62
5
 10
1585.8064201792504
 20
1285.1431261910514
 11
2030.067892682883
 21
840.8816536874189
  0
LINE
  8
MountainLine
  6
CONTINUOUS
 62
1
 10
1928.3283769484221
 20
1431.1486320078682
 11
983.9680346829979
 21
2375.5089742732926
  0
LINE
  8
ValleyLine
  6
CONTINUOUS
 62
5
 10
1928.3283769484221
 20
1431.1486320078682
 11
2375.508974273293
 21
983.9680346829972
  0
LINE
  8
MountainLine
  6
CONTINUOUS
 62
1
 10
2322.3116453714256
 20
1599.1203357954996
 11
1148.5608353219952
 21
2772.87114584493
  0
LINE
  8
ValleyLine
  6
CONTINUOUS
 62
5
 10
2322.3116453714256
 20
1599.1203357954996
 11
2772.8711458449307
 21
1148.5608353219943
  0
LINE
  8
ValleyLine
  6
CONTINUOUS
 62
5
 10
2637.0971254426654
 20
1733.3364747590792
 11
1280.070364773555
 21
3090.36323542819
  0
LINE
  8
MountainLine
  6
CONTINUOUS
 62
1
 10
2637.0971254426654
 20
1733.3364747590792
 11
3090.3632354281904
 21
1280.0703647735538
  0
LINE
  8
ValleyLine
  6
CONTINUOUS
 62
5
 10
2742.025618799745
 20
1778.0751877469393
 11
1323.9068745907416
 21
3196.1939319559438
  0
LINE
  8
MountainLine
  6
CONTINUOUS
 62
1
 10
2742.025618799745
 20
1778.0751877469393
 11
3196.193931955944
 21
1323.9068745907405
  0
LINE
  8
ValleyLine
  6
CONTINUOUS
 62
5
 10
2742.025618799745
 20
1778.0751877469393
 11
1323.9068745907416
 21
3196.1939319559438
  0
LINE
  8
MountainLine
  6
CONTINUOUS
 62
1
 10
2742.025618799745
 20
1778.0751877469393
 11
3196.193931955944
 21
1323.9068745907405
  0
LINE
  8
ValleyLine
  6
CONTINUOUS
 62
5
 10
0.0
 20
0.0
 11
0.0
 21
0.0
  0
LINE
  8
ValleyLine
  6
CONTINUOUS
 62
5
 10
0.0
 20
0.0
 11
-6.704914402330774
 21
16.264334820629532
  0
LINE
  8
ValleyLine
  6
CONTINUOUS
 62
5
 10
-6.704914402330774
 20
16.264334820629532
 11
-26.819657609323095
 21
65.05733928251814
  0
LINE
  8
ValleyLine
  6
CONTINUOUS
 62
5
 10
-26.819657609323095
 20
65.05733928251814
 11
-53.40706667760159
 21
129.64211069657966
  0
LINE
  8
ValleyLine
  6
CONTINUOUS
 62
5
 10
-53.40706667760159
 20
129.64211069657966
 11
-79.52997866379091
 21
193.3175708709683
  0
LINE
  8
ValleyLine
  6
CONTINUOUS
 62
5
 10
-79.52997866379091
 20
193.3175708709683
 11
-104.95614502684646
 21
255.7224891646809
  0
LINE
  8
ValleyLine
  6
CONTINUOUS
 62
5
 10
-104.95614502684646
 20
255.7224891646809
 11
-129.45331722572368
 21
316.61850102101073
  0
LINE
  8
ValleyLine
  6
CONTINUOUS
 62
5
 10
-129.45331722572368
 20
316.61850102101073
 11
-152.82963776999435
 21
375.5720243022264
  0
LINE
  8
ValleyLine
  6
CONTINUOUS
 62
5
 10
-152.82963776999435
 20
375.5720243022264
 11
-174.89324916923042
 21
432.0719862631452
  0
LINE
  8
ValleyLine
  6
CONTINUOUS
 62
5
 10
-174.89324916923042
 20
432.0719862631452
 11
-195.45229393300372
 21
485.5449796427224
  0
LINE
  8
ValleyLine
  6
CONTINUOUS
 62
5
 10
-195.45229393300372
 20
485.5449796427224
 11
-214.31491457088597
 21
535.3674614045823
  0
LINE
  8
ValleyLine
  6
CONTINUOUS
 62
5
 10
-214.31491457088597
 20
535.3674614045823
 11
-230.76416993443542
 21
580.6167201908456
  0
LINE
  8
ValleyLine
  6
CONTINUOUS
 62
5
 10
-230.76416993443542
 20
580.6167201908456
 11
-244.08311887520998
 21
620.9380447040132
  0
LINE
  8
ValleyLine
  6
CONTINUOUS
 62
5
 10
-244.08311887520998
 20
620.9380447040132
 11
-253.55482024476763
 21
657.1883527120447
  0
LINE
  8
ValleyLine
  6
CONTINUOUS
 62
5
 10
-253.55482024476763
 20
657.1883527120447
 11
-258.46233289466636
 21
692.3344596359186
  0
LINE
  8
ValleyLine
  6
CONTINUOUS
 62
5
 10
-258.46233289466636
 20
692.3344596359186
 11
-259.18937180576245
 21
729.1594093036309
  0
LINE
  8
ValleyLine
  6
CONTINUOUS
 62
5
 10
-259.18937180576245
 20
729.1594093036309
 11
-256.1196519589122
 21
769.0642870946726
  0
LINE
  8
ValleyLine
  6
CONTINUOUS
 62
5
 10
-256.1196519589122
 20
769.0642870946726
 11
-249.63688833497187
 21
812.3634802785288
  0
LINE
  8
ValleyLine
  6
CONTINUOUS
 62
5
 10
-249.63688833497187
 20
812.3634802785288
 11
-240.12479591479783
 21
858.7177442478281
  0
LINE
  8
ValleyLine
  6
CONTINUOUS
 62
5
 10
-240.12479591479783
 20
858.7177442478281
 11
-228.128653881712
 21
907.0619876097608
  0
LINE
  8
ValleyLine
  6
CONTINUOUS
 62
5
 10
-228.128653881712
 20
907.0619876097608
 11
-214.1937414190366
 21
956.1165784913309
  0
LINE
  8
ValleyLine
  6
CONTINUOUS
 62
5
 10
-214.1937414190366
 20
956.1165784913309
 11
-198.86533771009368
 21
1004.5469641277633
  0
LINE
  8
ValleyLine
  6
CONTINUOUS
 62
5
 10
-198.86533771009368
 20
1004.5469641277633
 11
-182.68872193820525
 21
1051.0966392174887
  0
LINE
  8
ValleyLine
  6
CONTINUOUS
 62
5
 10
-182.68872193820525
 20
1051.0966392174887
 11
-165.4922321382514
 21
1097.2253389308898
  0
LINE
  8
ValleyLine
  6
CONTINUOUS
 62
5
 10
-165.4922321382514
 20
1097.2253389308898
 11
-147.10420634511235
 21
1144.2686453280355
  0
LINE
  8
ValleyLine
  6
CONTINUOUS
 62
5
 10
-147.10420634511235
 20
1144.2686453280355
 11
-127.35298259366807
 21
1193.3704820430921
  0
LINE
  8
ValleyLine
  6
CONTINUOUS
 62
5
 10
-127.35298259366807
 20
1193.3704820430921
 11
-106.06689891879867
 21
1245.4659275905951
  0
LINE
  8
ValleyLine
  6
CONTINUOUS
 62
5
 10
-106.06689891879867
 20
1245.4659275905951
 11
-84.73032643065872
 21
1297.3271063262164
  0
LINE
  8
ValleyLine
  6
CONTINUOUS
 62
5
 10
-84.73032643065872
 20
1297.3271063262164
 11
-64.82763623940274
 21
1345.552449052697
  0
LINE
  8
ValleyLine
  6
CONTINUOUS
 62
5
 10
-64.82763623940274
 20
1345.552449052697
 11
-46.51029478484245
 21
1389.8820564547757
  0
LINE
  8
ValleyLine
  6
CONTINUOUS
 62
5
 10
-46.51029478484245
 20
1389.8820564547757
 11
-29.92976850678953
 21
1430.0179999535765
  0
LINE
  8
ValleyLine
  6
CONTINUOUS
 62
5
 10
-29.92976850678953
 20
1430.0179999535765
 11
-5.859593712518632
 21
1488.754658594711
  0
LINE
  8
ValleyLine
  6
CONTINUOUS
 62
5
 10
-5.859593712518632
 20
1488.754658594711
 11
34.92669329069558
 21
1589.2242325373854
  0
LINE
  8
ValleyLine
  6
CONTINUOUS
 62
5
 10
34.92669329069558
 20
1589.2242325373854
 11
103.9174550300997
 21
1760.120226862962
  0
LINE
  8
ValleyLine
  6
CONTINUOUS
 62
5
 10
103.9174550300997
 20
1760.120226862962
 11
212.60105403294028
 21
2030.067892682883
  0
LINE
  8
ValleyLine
  6
CONTINUOUS
 62
5
 10
212.60105403294028
 20
2030.067892682883
 11
351.55916911606386
 21
2375.5089742732926
  0
LINE
  8
ValleyLine
  6
CONTINUOUS
 62
5
 10
351.55916911606386
 20
2375.5089742732926
 11
511.37347909631694
 21
2772.87114584493
  0
LINE
  8
ValleyLine
  6
CONTINUOUS
 62
5
 10
511.37347909631694
 20
2772.87114584493
 11
639.0552846679303
 21
3090.36323542819
  0
LINE
  8
ValleyLine
  6
CONTINUOUS
 62
5
 10
639.0552846679303
 20
3090.36323542819
 11
681.6158865251347
 21
3196.1939319559438
  0
LINE
  8
ValleyLine
  6
CONTINUOUS
 62
5
 10
681.6158865251347
 20
3196.1939319559438
 11
681.6158865251347
 21
3196.1939319559438
  0
LINE
  8
ValleyLine
  6
CONTINUOUS
 62
5
 10
681.6158865251347
 20
3196.1939319559438
 11
681.6158865251347
 21
3196.1939319559438
  0
LINE
  8
ValleyLine
  6
CONTINUOUS
 62
5
 10
0.0
 20
0.0
 11
0.0
 21
0.0
  0
LINE
  8
MountainLine
  6
CONTINUOUS
 62
1
 10
0.0
 20
0.0
 11
0.0
 21
-0.0
  0
LINE
  8
ValleyLine
  6
CONTINUOUS
 62
5
 10
0.0
 20
0.0
 11
0.0
 21
0.0
  0
LINE
  8
MountainLine
  6
CONTINUOUS
 62
1
 10
0.0
 20
0.0
 11
0.0
 21
-0.0
  0
LINE
  8
ValleyLine
  6
CONTINUOUS
 62
5
 10
-6.704914402330774
 20
16.264334820629532
 11
-6.736908065681728
 21
16.264334820629532
  0
LINE
  8
MountainLine
  6
CONTINUOUS
 62
1
 10
-6.704914402330774
 20
16.264334820629532
 11
6.736908065681734
 21
16.26433482062953
  0
LINE
  8
ValleyLine
  6
CONTINUOUS
 62
5
 10
-26.819657609323095
 20
65.05733928251814
 11
-26.947632262726916
 21
65.05733928251814
  0
LINE
  8
MountainLine
  6
CONTINUOUS
 62
1
 10
-26.819657609323095
 20
65.05733928251814
 11
26.947632262726945
 21
65.05733928251813
  0
LINE
  8
ValleyLine
  6
CONTINUOUS
 62
5
 10
-53.40706667760159
 20
129.64211069657966
 11
-53.699520505197356
 21
129.64211069657966
  0
LINE
  8
MountainLine
  6
CONTINUOUS
 62
1
 10
-53.40706667760159
 20
129.64211069657966
 11
53.69952050519741
 21
129.64211069657964
  0
LINE
  8
ValleyLine
  6
CONTINUOUS
 62
5
 10
-79.52997866379091
 20
193.3175708709683
 11
-80.074759699777
 21
193.3175708709683
  0
LINE
  8
MountainLine
  6
CONTINUOUS
 62
1
 10
-79.52997866379091
 20
193.3175708709683
 11
80.07475969977708
 21
193.3175708709683
  0
LINE
  8
ValleyLine
  6
CONTINUOUS
 62
5
 10
-104.95614502684646
 20
255.7224891646809
 11
-105.9237232158176
 21
255.7224891646809
  0
LINE
  8
MountainLine
  6
CONTINUOUS
 62
1
 10
-104.95614502684646
 20
255.7224891646809
 11
105.92372321581772
 21
255.7224891646808
  0
LINE
  8
ValleyLine
  6
CONTINUOUS
 62
5
 10
-129.45331722572368
 20
316.61850102101073
 11
-131.14767722114223
 21
316.61850102101073
  0
LINE
  8
MountainLine
  6
CONTINUOUS
 62
1
 10
-129.45331722572368
 20
316.61850102101073
 11
131.14767722114235
 21
316.6185010210107
  0
LINE
  8
ValleyLine
  6
CONTINUOUS
 62
5
 10
-152.82963776999435
 20
375.5720243022264
 11
-155.56702611389974
 21
375.5720243022264
  0
LINE
  8
MountainLine
  6
CONTINUOUS
 62
1
 10
-152.82963776999435
 20
375.5720243022264
 11
155.56702611389989
 21
375.5720243022264
  0
LINE
  8
ValleyLine
  6
CONTINUOUS
 62
5
 10
-174.89324916923042
 20
432.0719862631452
 11
-178.9700766316763
 21
432.0719862631452
  0
LINE
  8
MountainLine
  6
CONTINUOUS
 62
1
 10
-174.89324916923042
 20
432.0719862631452
 11
178.97007663167645
 21
432.0719862631452
  0
LINE
  8
ValleyLine
  6
CONTINUOUS
 62
5
 10
-195.45229393300372
 20
485.5449796427224
 11
-201.11931571018388
 21
485.54497964272247
  0
LINE
  8
MountainLine
  6
CONTINUOUS
 62
1
 10
-195.45229393300372
 20
485.5449796427224
 11
201.11931571018403
 21
485.5449796427223
  0
LINE
  8
ValleyLine
  6
CONTINUOUS
 62
5
 10
-214.31491457088597
 20
535.3674614045823
 11
-221.75646336703235
 21
535.3674614045823
  0
LINE
  8
MountainLine
  6
CONTINUOUS
 62
1
 10
-214.31491457088597
 20
535.3674614045823
 11
221.75646336703258
 21
535.3674614045822
  0
LINE
  8
ValleyLine
  6
CONTINUOUS
 62
5
 10
-230.76416993443542
 20
580.6167201908456
 11
-240.49932004363257
 21
580.6167201908456
  0
LINE
  8
MountainLine
  6
CONTINUOUS
 62
1
 10
-230.76416993443542
 20
580.6167201908456
 11
240.4993200436328
 21
580.6167201908455
  0
LINE
  8
ValleyLine
  6
CONTINUOUS
 62
5
 10
-244.08311887520998
 20
620.9380447040132
 11
-257.20095950983335
 21
620.9380447040132
  0
LINE
  8
MountainLine
  6
CONTINUOUS
 62
1
 10
-244.08311887520998
 20
620.9380447040132
 11
257.2009595098336
 21
620.9380447040131
  0
LINE
  8
ValleyLine
  6
CONTINUOUS
 62
5
 10
-253.55482024476763
 20
657.1883527120447
 11
-272.216328726962
 21
657.1883527120447
  0
LINE
  8
MountainLine
  6
CONTINUOUS
 62
1
 10
-253.55482024476763
 20
657.1883527120447
 11
272.2163287269622
 21
657.1883527120447
  0
LINE
  8
ValleyLine
  6
CONTINUOUS
 62
5
 10
-258.46233289466636
 20
692.3344596359186
 11
-286.77432287944544
 21
692.3344596359186
  0
LINE
  8
MountainLine
  6
CONTINUOUS
 62
1
 10
-258.46233289466636
 20
692.3344596359186
 11
286.7743228794457
 21
692.3344596359186
  0
LINE
  8
ValleyLine
  6
CONTINUOUS
 62
5
 10
-259.18937180576245
 20
729.1594093036309
 11
-302.0277164655185
 21
729.1594093036309
  0
LINE
  8
MountainLine
  6
CONTINUOUS
 62
1
 10
-259.18937180576245
 20
729.1594093036309
 11
302.0277164655188
 21
729.1594093036309
  0
LINE
  8
ValleyLine
  6
CONTINUOUS
 62
5
 10
-256.1196519589122
 20
769.0642870946726
 11
-318.5568580514089
 21
769.0642870946726
  0
LINE
  8
MountainLine
  6
CONTINUOUS
 62
1
 10
-256.1196519589122
 20
769.0642870946726
 11
318.55685805140917
 21
769.0642870946726
  0
LINE
  8
ValleyLine
  6
CONTINUOUS
 62
5
 10
-249.63688833497187
 20
812.3634802785288
 11
-336.4919711079748
 21
812.3634802785288
  0
LINE
  8
MountainLine
  6
CONTINUOUS
 62
1
 10
-249.63688833497187
 20
812.3634802785288
 11
336.4919711079751
 21
812.3634802785288
  0
LINE
  8
ValleyLine
  6
CONTINUOUS
 62
5
 10
-240.12479591479783
 20
858.7177442478281
 11
-355.69253591788106
 21
858.7177442478281
  0
LINE
  8
MountainLine
  6
CONTINUOUS
 62
1
 10
-240.12479591479783
 20
858.7177442478281
 11
355.69253591788134
 21
858.7177442478281
  0
LINE
  8
ValleyLine
  6
CONTINUOUS
 62
5
 10
-228.128653881712
 20
907.0619876097608
 11
-375.7173771810591
 21
907.0619876097608
  0
LINE
  8
MountainLine
  6
CONTINUOUS
 62
1
 10
-228.128653881712
 20
907.0619876097608
 11
375.71737718105936
 21
907.0619876097608
  0
LINE
  8
ValleyLine
  6
CONTINUOUS
 62
5
 10
-214.1937414190366
 20
956.1165784913309
 11
-396.0364540208689
 21
956.116578491331
  0
LINE
  8
MountainLine
  6
CONTINUOUS
 62
1
 10
-214.1937414190366
 20
956.1165784913309
 11
396.03645402086926
 21
956.1165784913306
  0
LINE
  8
ValleyLine
  6
CONTINUOUS
 62
5
 10
-198.86533771009368
 20
1004.5469641277633
 11
-416.09697658243834
 21
1004.5469641277635
  0
LINE
  8
MountainLine
  6
CONTINUOUS
 62
1
 10
-198.86533771009368
 20
1004.5469641277633
 11
416.0969765824388
 21
1004.5469641277632
  0
LINE
  8
ValleyLine
  6
CONTINUOUS
 62
5
 10
-182.68872193820525
 20
1051.0966392174887
 11
-435.3784833286636
 21
1051.0966392174887
  0
LINE
  8
MountainLine
  6
CONTINUOUS
 62
1
 10
-182.68872193820525
 20
1051.0966392174887
 11
435.37848332866406
 21
1051.0966392174885
  0
LINE
  8
ValleyLine
  6
CONTINUOUS
 62
5
 10
-165.4922321382514
 20
1097.2253389308898
 11
-454.4856163645902
 21
1097.2253389308898
  0
LINE
  8
MountainLine
  6
CONTINUOUS
 62
1
 10
-165.4922321382514
 20
1097.2253389308898
 11
454.48561636459067
 21
1097.2253389308896
  0
LINE
  8
ValleyLine
  6
CONTINUOUS
 62
5
 10
-147.10420634511235
 20
1144.2686453280355
 11
-473.971591893161
 21
1144.2686453280357
  0
LINE
  8
MountainLine
  6
CONTINUOUS
 62
1
 10
-147.10420634511235
 20
1144.2686453280355
 11
473.9715918931614
 21
1144.2686453280355
  0
LINE
  8
ValleyLine
  6
CONTINUOUS
 62
5
 10
-127.35298259366807
 20
1193.3704820430921
 11
-494.3102385979666
 21
1193.3704820430924
  0
LINE
  8
MountainLine
  6
CONTINUOUS
 62
1
 10
-127.35298259366807
 20
1193.3704820430921
 11
494.310238597967
 21
1193.370482043092
  0
LINE
  8
ValleyLine
  6
CONTINUOUS
 62
5
 10
-106.06689891879867
 20
1245.4659275905951
 11
-515.8888786816115
 21
1245.4659275905954
  0
LINE
  8
MountainLine
  6
CONTINUOUS
 62
1
 10
-106.06689891879867
 20
1245.4659275905951
 11
515.8888786816118
 21
1245.465927590595
  0
LINE
  8
ValleyLine
  6
CONTINUOUS
 62
5
 10
-84.73032643065872
 20
1297.3271063262164
 11
-537.3704822745609
 21
1297.3271063262164
  0
LINE
  8
MountainLine
  6
CONTINUOUS
 62
1
 10
-84.73032643065872
 20
1297.3271063262164
 11
537.3704822745613
 21
1297.3271063262164
  0
LINE
  8
ValleyLine
  6
CONTINUOUS
 62
5
 10
-64.82763623940274
 20
1345.552449052697
 11
-557.3460732819599
 21
1345.552449052697
  0
LINE
  8
MountainLine
  6
CONTINUOUS
 62
1
 10
-64.82763623940274
 20
1345.552449052697
 11
557.3460732819603
 21
1345.552449052697
  0
LINE
  8
MountainLine
  6
CONTINUOUS
 62
1
 10
-46.51029478484245
 20
1389.8820564547757
 11
-575.7079978825756
 21
1389.8820564547757
  0
LINE
  8
ValleyLine
  6
CONTINUOUS
 62
5
 10
-46.51029478484245
 20
1389.8820564547757
 11
575.7079978825761
 21
1389.8820564547757
  0
LINE
  8
MountainLine
  6
CONTINUOUS
 62
1
 10
-29.92976850678953
 20
1430.0179999535765
 11
-592.3328500184191
 21
1430.0179999535765
  0
LINE
  8
ValleyLine
  6
CONTINUOUS
 62
5
 10
-29.92976850678953
 20
1430.0179999535765
 11
592.3328500184197
 21
1430.0179999535765
  0
LINE
  8
MountainLine
  6
CONTINUOUS
 62
1
 10
-5.859593712518632
 20
1488.754658594711
 11
-616.6623706360558
 21
1488.754658594711
  0
LINE
  8
ValleyLine
  6
CONTINUOUS
 62
5
 10
-5.859593712518632
 20
1488.754658594711
 11
616.6623706360564
 21
1488.754658594711
  0
LINE
  8
MountainLine
  6
CONTINUOUS
 62
1
 10
34.92669329069558
 20
1589.2242325373854
 11
-658.2782307689581
 21
1589.2242325373854
  0
LINE
  8
ValleyLine
  6
CONTINUOUS
 62
5
 10
34.92669329069558
 20
1589.2242325373854
 11
658.2782307689587
 21
1589.2242325373854
  0
LINE
  8
MountainLine
  6
CONTINUOUS
 62
1
 10
103.9174550300997
 20
1760.120226862962
 11
-729.0656693738474
 21
1760.120226862962
  0
LINE
  8
ValleyLine
  6
CONTINUOUS
 62
5
 10
103.9174550300997
 20
1760.120226862962
 11
729.065669373848
 21
1760.120226862962
  0
LINE
  8
MountainLine
  6
CONTINUOUS
 62
1
 10
212.60105403294028
 20
2030.067892682883
 11
-840.8816536874185
 21
2030.0678926828832
  0
LINE
  8
ValleyLine
  6
CONTINUOUS
 62
5
 10
212.60105403294028
 20
2030.067892682883
 11
840.8816536874194
 21
2030.0678926828828
  0
LINE
  8
MountainLine
  6
CONTINUOUS
 62
1
 10
351.55916911606386
 20
2375.5089742732926
 11
-983.9680346829972
 21
2375.508974273293
  0
LINE
  8
ValleyLine
  6
CONTINUOUS
 62
5
 10
351.55916911606386
 20
2375.5089742732926
 11
983.968034682998
 21
2375.5089742732926
  0
LINE
  8
MountainLine
  6
CONTINUOUS
 62
1
 10
511.37347909631694
 20
2772.87114584493
 11
-1148.5608353219939
 21
2772.87114584493
  0
LINE
  8
ValleyLine
  6
CONTINUOUS
 62
5
 10
511.37347909631694
 20
2772.87114584493
 11
1148.560835321995
 21
2772.87114584493
  0
LINE
  8
ValleyLine
  6
CONTINUOUS
 62
5
 10
639.0552846679303
 20
3090.36323542819
 11
-1280.0703647735538
 21
3090.36323542819
  0
LINE
  8
MountainLine
  6
CONTINUOUS
 62
1
 10
639.0552846679303
 20
3090.36323542819
 11
1280.070364773555
 21
3090.36323542819
  0
LINE
  8
ValleyLine
  6
CONTINUOUS
 62
5
 10
681.6158865251347
 20
3196.1939319559438
 11
-1323.9068745907405
 21
3196.1939319559438
  0
LINE
  8
MountainLine
  6
CONTINUOUS
 62
1
 10
681.6158865251347
 20
3196.1939319559438
 11
1323.9068745907416
 21
3196.1939319559438
  0
LINE
  8
ValleyLine
  6
CONTINUOUS
 62
5
 10
681.6158865251347
 20
3196.1939319559438
 11
-1323.9068745907405
 21
3196.1939319559438
  0
LINE
  8
MountainLine
  6
CONTINUOUS
 62
1
 10
681.6158865251347
 20
3196.1939319559438
 11
1323.9068745907416
 21
3196.1939319559438
  0
LINE
  8
ValleyLine
  6
CONTINUOUS
 62
5
 10
0.0
 20
-0.0
 11
0.0
 21
-0.0
  0
LINE
  8
ValleyLine
  6
CONTINUOUS
 62
5
 10
0.0
 20
-0.0
 11
-16.24171188431907
 21
6.759531001992196
  0
LINE
  8
ValleyLine
  6
CONTINUOUS
 62
5
 10
-16.24171188431907
 20
6.759531001992196
 11
-64.96684753727628
 21
27.038124007968793
  0
LINE
  8
ValleyLine
  6
CONTINUOUS
 62
5
 10
-64.96684753727628
 20
27.038124007968793
 11
-129.4353146119027
 21
53.90631658987434
  0
LINE
  8
ValleyLine
  6
CONTINUOUS
 62
5
 10
-129.4353146119027
 20
53.90631658987434
 11
-192.93235250616067
 21
80.45997806458469
  0
LINE
  8
ValleyLine
  6
CONTINUOUS
 62
5
 10
-192.93235250616067
 20
80.45997806458469
 11
-255.03830806593112
 21
106.60790431456742
  0
LINE
  8
ValleyLine
  6
CONTINUOUS
 62
5
 10
-255.03830806593112
 20
106.60790431456742
 11
-315.420407578479
 21
132.34577066367402
  0
LINE
  8
ValleyLine
  6
CONTINUOUS
 62
5
 10
-315.420407578479
 20
132.34577066367402
 11
-373.63639844150987
 21
157.50265197461644
  0
LINE
  8
ValleyLine
  6
CONTINUOUS
 62
5
 10
-373.63639844150987
 20
157.50265197461644
 11
-429.1892339187222
 21
181.85282897609954
  0
LINE
  8
ValleyLine
  6
CONTINUOUS
 62
5
 10
-429.1892339187222
 20
181.85282897609954
 11
-481.53779011494646
 21
205.12650523796
  0
LINE
  8
ValleyLine
  6
CONTINUOUS
 62
5
 10
-481.53779011494646
 20
205.12650523796
 11
-530.1054917882965
 21
227.0184329833183
  0
LINE
  8
ValleyLine
  6
CONTINUOUS
 62
5
 10
-530.1054917882965
 20
227.0184329833183
 11
-573.7329295327633
 21
247.38311070171503
  0
LINE
  8
ValleyLine
  6
CONTINUOUS
 62
5
 10
-573.7329295327633
 20
247.38311070171503
 11
-611.6623306367466
 21
266.47667357710026
  0
LINE
  8
ValleyLine
  6
CONTINUOUS
 62
5
 10
-611.6623306367466
 20
266.47667357710026
 11
-643.9926735171147
 21
285.41200792189215
  0
LINE
  8
ValleyLine
  6
CONTINUOUS
 62
5
 10
-643.9926735171147
 20
285.41200792189215
 11
-672.3148595287955
 21
306.7939229865687
  0
LINE
  8
ValleyLine
  6
CONTINUOUS
 62
5
 10
-672.3148595287955
 20
306.7939229865687
 11
-698.8681252999108
 21
332.31900046923886
  0
LINE
  8
ValleyLine
  6
CONTINUOUS
 62
5
 10
-698.8681252999108
 20
332.31900046923886
 11
-724.9145152683261
 21
362.70662987775563
  0
LINE
  8
ValleyLine
  6
CONTINUOUS
 62
5
 10
-724.9145152683261
 20
362.70662987775563
 11
-750.9476622692196
 21
397.90778911728444
  0
LINE
  8
ValleyLine
  6
CONTINUOUS
 62
5
 10
-750.9476622692196
 20
397.90778911728444
 11
-776.9990116052439
 21
437.4112685604654
  0
LINE
  8
ValleyLine
  6
CONTINUOUS
 62
5
 10
-776.9990116052439
 20
437.4112685604654
 11
-802.7010005381273
 21
480.07836425269267
  0
LINE
  8
ValleyLine
  6
CONTINUOUS
 62
5
 10
-802.7010005381273
 20
480.07836425269267
 11
-827.5343633012185
 21
524.6186692109815
  0
LINE
  8
ValleyLine
  6
CONTINUOUS
 62
5
 10
-827.5343633012185
 20
524.6186692109815
 11
-850.9409991928611
 21
569.702941517341
  0
LINE
  8
ValleyLine
  6
CONTINUOUS
 62
5
 10
-850.9409991928611
 20
569.702941517341
 11
-872.4179954018847
 21
614.0571271442677
  0
LINE
  8
ValleyLine
  6
CONTINUOUS
 62
5
 10
-872.4179954018847
 20
614.0571271442677
 11
-892.876157226396
 21
658.8347980690843
  0
LINE
  8
ValleyLine
  6
CONTINUOUS
 62
5
 10
-892.876157226396
 20
658.8347980690843
 11
-913.1385004582925
 21
705.1017367629045
  0
LINE
  8
ValleyLine
  6
CONTINUOUS
 62
5
 10
-913.1385004582925
 20
705.1017367629045
 11
-933.8925179168444
 21
753.7882027242144
  0
LINE
  8
ValleyLine
  6
CONTINUOUS
 62
5
 10
-933.8925179168444
 20
753.7882027242144
 11
-955.678026621014
 21
805.6767796511929
  0
LINE
  8
ValleyLine
  6
CONTINUOUS
 62
5
 10
-955.678026621014
 20
805.6767796511929
 11
-977.2621826916572
 21
857.4354059091203
  0
LINE
  8
ValleyLine
  6
CONTINUOUS
 62
5
 10
-977.2621826916572
 20
857.4354059091203
 11
-997.289322360505
 21
905.6091999741523
  0
LINE
  8
ValleyLine
  6
CONTINUOUS
 62
5
 10
-997.289322360505
 20
905.6091999741523
 11
-1015.6827720060231
 21
949.9072823313285
  0
LINE
  8
ValleyLine
  6
CONTINUOUS
 62
5
 10
-1015.6827720060231
 20
949.9072823313285
 11
-1032.3389672564922
 21
990.0118827155034
  0
LINE
  8
ValleyLine
  6
CONTINUOUS
 62
5
 10
-1032.3389672564922
 20
990.0118827155034
 11
-1056.8518730645035
 21
1048.5651561662637
  0
LINE
  8
ValleyLine
  6
CONTINUOUS
 62
5
 10
-1056.8518730645035
 20
1048.5651561662637
 11
-1099.0543299828985
 21
1148.4481333234455
  0
LINE
  8
ValleyLine
  6
CONTINUOUS
 62
5
 10
-1099.0543299828985
 20
1148.4481333234455
 11
-1171.1122109829732
 21
1318.0736852538364
  0
LINE
  8
ValleyLine
  6
CONTINUOUS
 62
5
 10
-1171.1122109829732
 20
1318.0736852538364
 11
-1285.1431261910511
 21
1585.8064201792504
  0
LINE
  8
ValleyLine
  6
CONTINUOUS
 62
5
 10
-1285.1431261910511
 20
1585.8064201792504
 11
-1431.1486320078682
 21
1928.328376948422
  0
LINE
  8
ValleyLine
  6
CONTINUOUS
 62
5
 10
-1431.1486320078682
 20
1928.328376948422
 11
-1599.1203357954994
 21
2322.3116453714256
  0
LINE
  8
ValleyLine
  6
CONTINUOUS
 62
5
 10
-1599.1203357954994
 20
2322.3116453714256
 11
-1733.336474759079
 21
2637.0971254426654
  0
LINE
  8
ValleyLine
  6
CONTINUOUS
 62
5
 10
-1733.336474759079
 20
2637.0971254426654
 11
-1778.075187746939
 21
2742.025618799745
  0
LINE
  8
ValleyLine
  6
CONTINUOUS
 62
5
 10
-1778.075187746939
 20
2742.025618799745
 11
-1778.075187746939
 21
2742.025618799745
  0
LINE
  8
ValleyLine
  6
CONTINUOUS
 62
5
 10
-1778.075187746939
 20
2742.025618799745
 11
-1778.075187746939
 21
2742.025618799745
  0
LINE
  8
ValleyLine
  6
CONTINUOUS
 62
5
 10
0.0
 20
-0.0
 11
0.0
 21
-0.0
  0
LINE
  8
MountainLine
  6
CONTINUOUS
 62
1
 10
0.0
 20
-0.0
 11
0.0
 21
0.0
  0
LINE
  8
ValleyLine
  6
CONTINUOUS
 62
5
 10
0.0
 20
-0.0
 11
0.0
 21
-0.0
  0
LINE
  8
MountainLine
  6
CONTINUOUS
 62
1
 10
0.0
 20
-0.0
 11
0.0
 21
0.0
  0
LINE
  8
ValleyLine
  6
CONTINUOUS
 62
5
 10
-16.24171188431907
 20
6.759531001992196
 11
-16.264334820629532
 21
6.736908065681736
  0
LINE
  8
MountainLine
  6
CONTINUOUS
 62
1
 10
-16.24171188431907
 20
6.759531001992196
 11
-6.736908065681729
 21
16.264334820629532
  0
LINE
  8
ValleyLine
  6
CONTINUOUS
 62
5
 10
-64.96684753727628
 20
27.038124007968793
 11
-65.05733928251813
 21
26.94763226272695
  0
LINE
  8
MountainLine
  6
CONTINUOUS
 62
1
 10
-64.96684753727628
 20
27.038124007968793
 11
-26.947632262726913
 21
65.05733928251814
  0
LINE
  8
ValleyLine
  6
CONTINUOUS
 62
5
 10
-129.4353146119027
 20
53.90631658987434
 11
-129.64211069657964
 21
53.69952050519741
  0
LINE
  8
MountainLine
  6
CONTINUOUS
 62
1
 10
-129.4353146119027
 20
53.90631658987434
 11
-53.69952050519734
 21
129.64211069657966
  0
LINE
  8
ValleyLine
  6
CONTINUOUS
 62
5
 10
-192.93235250616067
 20
80.45997806458469
 11
-193.3175708709683
 21
80.07475969977709
  0
LINE
  8
MountainLine
  6
CONTINUOUS
 62
1
 10
-192.93235250616067
 20
80.45997806458469
 11
-80.074759699777
 21
193.3175708709683
  0
LINE
  8
ValleyLine
  6
CONTINUOUS
 62
5
 10
-255.03830806593112
 20
106.60790431456742
 11
-255.7224891646808
 21
105.92372321581772
  0
LINE
  8
MountainLine
  6
CONTINUOUS
 62
1
 10
-255.03830806593112
 20
106.60790431456742
 11
-105.92372321581757
 21
255.7224891646809
  0
LINE
  8
ValleyLine
  6
CONTINUOUS
 62
5
 10
-315.420407578479
 20
132.34577066367402
 11
-316.61850102101073
 21
131.14767722114237
  0
LINE
  8
MountainLine
  6
CONTINUOUS
 62
1
 10
-315.420407578479
 20
132.34577066367402
 11
-131.1476772211422
 21
316.61850102101073
  0
LINE
  8
ValleyLine
  6
CONTINUOUS
 62
5
 10
-373.63639844150987
 20
157.50265197461644
 11
-375.57202430222634
 21
155.5670261138999
  0
LINE
  8
MountainLine
  6
CONTINUOUS
 62
1
 10
-373.63639844150987
 20
157.50265197461644
 11
-155.56702611389971
 21
375.5720243022264
  0
LINE
  8
ValleyLine
  6
CONTINUOUS
 62
5
 10
-429.1892339187222
 20
181.85282897609954
 11
-432.0719862631452
 21
178.97007663167648
  0
LINE
  8
MountainLine
  6
CONTINUOUS
 62
1
 10
-429.1892339187222
 20
181.85282897609954
 11
-178.9700766316763
 21
432.07198626314533
  0
LINE
  8
ValleyLine
  6
CONTINUOUS
 62
5
 10
-481.53779011494646
 20
205.12650523796
 11
-485.5449796427224
 21
201.11931571018405
  0
LINE
  8
MountainLine
  6
CONTINUOUS
 62
1
 10
-481.53779011494646
 20
205.12650523796
 11
-201.11931571018386
 21
485.54497964272247
  0
LINE
  8
ValleyLine
  6
CONTINUOUS
 62
5
 10
-530.1054917882965
 20
227.0184329833183
 11
-535.3674614045822
 21
221.7564633670326
  0
LINE
  8
MountainLine
  6
CONTINUOUS
 62
1
 10
-530.1054917882965
 20
227.0184329833183
 11
-221.75646336703235
 21
535.3674614045823
  0
LINE
  8
ValleyLine
  6
CONTINUOUS
 62
5
 10
-573.7329295327633
 20
247.38311070171503
 11
-580.6167201908455
 21
240.4993200436328
  0
LINE
  8
MountainLine
  6
CONTINUOUS
 62
1
 10
-573.7329295327633
 20
247.38311070171503
 11
-240.49932004363257
 21
580.6167201908456
  0
LINE
  8
ValleyLine
  6
CONTINUOUS
 62
5
 10
-611.6623306367466
 20
266.47667357710026
 11
-620.9380447040131
 21
257.20095950983364
  0
LINE
  8
MountainLine
  6
CONTINUOUS
 62
1
 10
-611.6623306367466
 20
266.47667357710026
 11
-257.20095950983335
 21
620.9380447040132
  0
LINE
  8
ValleyLine
  6
CONTINUOUS
 62
5
 10
-643.9926735171147
 20
285.41200792189215
 11
-657.1883527120445
 21
272.2163287269623
  0
LINE
  8
MountainLine
  6
CONTINUOUS
 62
1
 10
-643.9926735171147
 20
285.41200792189215
 11
-272.21632872696193
 21
657.1883527120448
  0
LINE
  8
ValleyLine
  6
CONTINUOUS
 62
5
 10
-672.3148595287955
 20
306.7939229865687
 11
-692.3344596359184
 21
286.77432287944583
  0
LINE
  8
MountainLine
  6
CONTINUOUS
 62
1
 10
-672.3148595287955
 20
306.7939229865687
 11
-286.77432287944544
 21
692.3344596359186
  0
LINE
  8
ValleyLine
  6
CONTINUOUS
 62
5
 10
-698.8681252999108
 20
332.31900046923886
 11
-729.1594093036307
 21
302.02771646551884
  0
LINE
  8
MountainLine
  6
CONTINUOUS
 62
1
 10
-698.8681252999108
 20
332.31900046923886
 11
-302.02771646551855
 21
729.159409303631
  0
LINE
  8
ValleyLine
  6
CONTINUOUS
 62
5
 10
-724.9145152683261
 20
362.70662987775563
 11
-769.0642870946726
 21
318.5568580514092
  0
LINE
  8
MountainLine
  6
CONTINUOUS
 62
1
 10
-724.9145152683261
 20
362.70662987775563
 11
-318.5568580514089
 21
769.0642870946726
  0
LINE
  8
ValleyLine
  6
CONTINUOUS
 62
5
 10
-750.9476622692196
 20
397.90778911728444
 11
-812.3634802785286
 21
336.49197110797525
  0
LINE
  8
MountainLine
  6
CONTINUOUS
 62
1
 10
-750.9476622692196
 20
397.90778911728444
 11
-336.49197110797485
 21
812.363480278529
  0
LINE
  8
ValleyLine
  6
CONTINUOUS
 62
5
 10
-776.9990116052439
 20
437.4112685604654
 11
-858.7177442478279
 21
355.69253591788146
  0
LINE
  8
MountainLine
  6
CONTINUOUS
 62
1
 10
-776.9990116052439
 20
437.4112685604654
 11
-355.69253591788106
 21
858.7177442478281
  0
LINE
  8
ValleyLine
  6
CONTINUOUS
 62
5
 10
-802.7010005381273
 20
480.07836425269267
 11
-907.0619876097606
 21
375.7173771810594
  0
LINE
  8
MountainLine
  6
CONTINUOUS
 62
1
 10
-802.7010005381273
 20
480.07836425269267
 11
-375.717377181059
 21
907.0619876097608
  0
LINE
  8
ValleyLine
  6
CONTINUOUS
 62
5
 10
-827.5343633012185
 20
524.6186692109815
 11
-956.1165784913306
 21
396.03645402086937
  0
LINE
  8
MountainLine
  6
CONTINUOUS
 62
1
 10
-827.5343633012185
 20
524.6186692109815
 11
-396.0364540208688
 21
956.116578491331
  0
LINE
  8
ValleyLine
  6
CONTINUOUS
 62
5
 10
-850.9409991928611
 20
569.702941517341
 11
-1004.5469641277633
 21
416.09697658243886
  0
LINE
  8
MountainLine
  6
CONTINUOUS
 62
1
 10
-850.9409991928611
 20
569.702941517341
 11
-416.0969765824384
 21
1004.5469641277633
  0
LINE
  8
ValleyLine
  6
CONTINUOUS
 62
5
 10
-872.4179954018847
 20
614.0571271442677
 11
-1051.0966392174887
 21
435.37848332866406
  0
LINE
  8
MountainLine
  6
CONTINUOUS
 62
1
 10
-872.4179954018847
 20
614.0571271442677
 11
-435.3784833286636
 21
1051.0966392174887
  0
LINE
  8
ValleyLine
  6
CONTINUOUS
 62
5
 10
-892.876157226396
 20
658.8347980690843
 11
-1097.2253389308896
 21
454.4856163645908
  0
LINE
  8
MountainLine
  6
CONTINUOUS
 62
1
 10
-892.876157226396
 20
658.8347980690843
 11
-454.4856163645902
 21
1097.2253389308898
  0
LINE
  8
ValleyLine
  6
CONTINUOUS
 62
5
 10
-913.1385004582925
 20
705.1017367629045
 11
-1144.2686453280355
 21
473.9715918931616
  0
LINE
  8
MountainLine
  6
CONTINUOUS
 62
1
 10
-913.1385004582925
 20
705.1017367629045
 11
-473.971591893161
 21
1144.2686453280357
  0
LINE
  8
ValleyLine
  6
CONTINUOUS
 62
5
 10
-933.8925179168444
 20
753.7882027242144
 11
-1193.370482043092
 21
494.31023859796716
  0
LINE
  8
MountainLine
  6
CONTINUOUS
 62
1
 10
-933.8925179168444
 20
753.7882027242144
 11
-494.3102385979665
 21
1193.3704820430921
  0
LINE
  8
ValleyLine
  6
CONTINUOUS
 62
5
 10
-955.678026621014
 20
805.6767796511929
 11
-1245.465927590595
 21
515.888878681612
  0
LINE
  8
MountainLine
  6
CONTINUOUS
 62
1
 10
-955.678026621014
 20
805.6767796511929
 11
-515.8888786816115
 21
1245.4659275905954
  0
LINE
  8
ValleyLine
  6
CONTINUOUS
 62
5
 10
-977.2621826916572
 20
857.4354059091203
 11
-1297.3271063262164
 21
537.3704822745614
  0
LINE
  8
MountainLine
  6
CONTINUOUS
 62
1
 10
-977.2621826916572
 20
857.4354059091203
 11
-537.3704822745608
 21
1297.3271063262164
  0
LINE
  8
ValleyLine
  6
CONTINUOUS
 62
5
 10
-997.289322360505
 20
905.6091999741523
 11
-1345.5524490526968
 21
557.3460732819606
  0
LINE
  8
MountainLine
  6
CONTINUOUS
 62
1
 10
-997.289322360505
 20
905.6091999741523
 11
-557.34607328196
 21
1345.5524490526973
  0
LINE
  8
MountainLine
  6
CONTINUOUS
 62
1
 10
-1015.6827720060231
 20
949.9072823313285
 11
-1389.8820564547757
 21
575.7079978825761
  0
LINE
  8
ValleyLine
  6
CONTINUOUS
 62
5
 10
-1015.6827720060231
 20
949.9072823313285
 11
-575.7079978825756
 21
1389.8820564547757
  0
LINE
  8
MountainLine
  6
CONTINUOUS
 62
1
 10
-1032.3389672564922
 20
990.0118827155034
 11
-1430.017999953576
 21
592.3328500184197
  0
LINE
  8
ValleyLine
  6
CONTINUOUS
 62
5
 10
-1032.3389672564922
 20
990.0118827155034
 11
-592.332850018419
 21
1430.0179999535765
  0
LINE
  8
MountainLine
  6
CONTINUOUS
 62
1
 10
-1056.8518730645035
 20
1048.5651561662637
 11
-1488.7546585947107
 21
616.6623706360564
  0
LINE
  8
ValleyLine
  6
CONTINUOUS
 62
5
 10
-1056.8518730645035
 20
1048.5651561662637
 11
-616.6623706360558
 21
1488.754658594711
  0
LINE
  8
MountainLine
  6
CONTINUOUS
 62
1
 10
-1099.0543299828985
 20
1148.4481333234455
 11
-1589.2242325373854
 21
658.2782307689588
  0
LINE
  8
ValleyLine
  6
CONTINUOUS
 62
5
 10
-1099.0543299828985
 20
1148.4481333234455
 11
-658.2782307689581
 21
1589.2242325373854
  0
LINE
  8
MountainLine
  6
CONTINUOUS
 62
1
 10
-1171.1122109829732
 20
1318.0736852538364
 11
-1760.1202268629615
 21
729.0656693738481
  0
LINE
  8
ValleyLine
  6
CONTINUOUS
 62
5
 10
-1171.1122109829732
 20
1318.0736852538364
 11
-729.0656693738472
 21
1760.1202268629622
  0
LINE
  8
MountainLine
  6
CONTINUOUS
 62
1
 10
-1285.1431261910511
 20
1585.8064201792504
 11
-2030.0678926828828
 21
840.8816536874194
  0
LINE
  8
ValleyLine
  6
CONTINUOUS
 62
5
 10
-1285.1431261910511
 20
1585.8064201792504
 11
-840.8816536874185
 21
2030.067892682883
  0
LINE
  8
MountainLine
  6
CONTINUOUS
 62
1
 10
-1431.1486320078682
 20
1928.328376948422
 11
-2375.5089742732926
 21
983.968034682998
  0
LINE
  8
ValleyLine
  6
CONTINUOUS
 62
5
 10
-1431.1486320078682
 20
1928.328376948422
 11
-983.9680346829972
 21
2375.5089742732926
  0
LINE
  8
MountainLine
  6
CONTINUOUS
 62
1
 10
-1599.1203357954994
 20
2322.3116453714256
 11
-2772.87114584493
 21
1148.5608353219952
  0
LINE
  8
ValleyLine
  6
CONTINUOUS
 62
5
 10
-1599.1203357954994
 20
2322.3116453714256
 11
-1148.560835321994
 21
2772.87114584493
  0
LINE
  8
ValleyLine
  6
CONTINUOUS
 62
5
 10
-1733.336474759079
 20
2637.0971254426654
 11
-3090.3632354281895
 21
1280.0703647735552
  0
LINE
  8
MountainLine
  6
CONTINUOUS
 62
1
 10
-1733.336474759079
 20
2637.0971254426654
 11
-1280.0703647735536
 21
3090.3632354281904
  0
LINE
  8
ValleyLine
  6
CONTINUOUS
 62
5
 10
-1778.075187746939
 20
2742.025618799745
 11
-3196.193931955943
 21
1323.9068745907418
  0
LINE
  8
MountainLine
  6
CONTINUOUS
 62
1
 10
-1778.075187746939
 20
2742.025618799745
 11
-1323.9068745907405
 21
3196.1939319559438
  0
LINE
  8
ValleyLine
  6
CONTINUOUS
 62
5
 10
-1778.075187746939
 20
2742.025618799745
 11
-3196.193931955943
 21
1323.9068745907418
  0
LINE
  8
MountainLine
  6
CONTINUOUS
 62
1
 10
-1778.075187746939
 20
2742.025618799745
 11
-1323.9068745907405
 21
3196.1939319559438
  0
ENDSEC
  0
EOF
