  0
SECTION
  2
HEADER
  9
$ACADVER
  1
AC1009
  0
ENDSEC
  0
SECTION
  2
ENTITIES
  0
LINE
  8
reference 10mm
  6
CONTINUOUS
 62
250
 10
-1551.585735879065
 20
1561.5857358790652
 11
-1541.585735879065
 21
1561.5857358790652
  0
LINE
  8
reference 10mm
  6
CONTINUOUS
 62
250
 10
-1541.585735879065
 20
1561.5857358790652
 11
-1541.585735879065
 21
1571.5857358790652
  0
LINE
  8
reference 10mm
  6
CONTINUOUS
 62
250
 10
-1541.585735879065
 20
1571.5857358790652
 11
-1551.585735879065
 21
1571.5857358790652
  0
LINE
  8
reference 10mm
  6
CONTINUOUS
 62
250
 10
-1551.585735879065
 20
1571.5857358790652
 11
-1551.585735879065
 21
1561.5857358790652
  0
LINE
  8
MountainLine
  6
CONTINUOUS
 62
1
 10
0.0
 20
-0.0
 11
-1551.585735879065
 21
-642.6878549857478
  0
LINE
  8
CutLine
  6
CONTINUOUS
 62
250
 10
-642.6878549857478
 20
-1551.585735879065
 11
-1551.585735879065
 21
-642.6878549857478
  0
LINE
  8
MountainLine
  6
CONTINUOUS
 62
1
 10
0.0
 20
-0.0
 11
-642.6878549857478
 21
-1551.585735879065
  0
LINE
  8
CutLine
  6
CONTINUOUS
 62
250
 10
642.6878549857477
 20
-1551.585735879065
 11
-642.6878549857478
 21
-1551.585735879065
  0
LINE
  8
MountainLine
  6
CONTINUOUS
 62
1
 10
0.0
 20
-0.0
 11
642.6878549857477
 21
-1551.585735879065
  0
LINE
  8
CutLine
  6
CONTINUOUS
 62
250
 10
1551.585735879065
 20
-642.6878549857479
 11
642.6878549857477
 21
-1551.585735879065
  0
LINE
  8
MountainLine
  6
CONTINUOUS
 62
1
 10
0.0
 20
-0.0
 11
1551.585735879065
 21
-642.6878549857479
  0
LINE
  8
CutLine
  6
CONTINUOUS
 62
250
 10
1551.5857358790652
 20
642.6878549857474
 11
1551.585735879065
 21
-642.6878549857479
  0
LINE
  8
MountainLine
  6
CONTINUOUS
 62
1
 10
0.0
 20
0.0
 11
1551.5857358790652
 21
642.6878549857474
  0
LINE
  8
CutLine
  6
CONTINUOUS
 62
250
 10
642.6878549857486
 20
1551.5857358790645
 11
1551.5857358790652
 21
642.6878549857474
  0
LINE
  8
MountainLine
  6
CONTINUOUS
 62
1
 10
0.0
 20
0.0
 11
642.6878549857486
 21
1551.5857358790645
  0
LINE
  8
CutLine
  6
CONTINUOUS
 62
250
 10
-642.687854985748
 20
1551.585735879065
 11
642.6878549857486
 21
1551.5857358790645
  0
LINE
  8
MountainLine
  6
CONTINUOUS
 62
1
 10
0.0
 20
0.0
 11
-642.687854985748
 21
1551.585735879065
  0
LINE
  8
CutLine
  6
CONTINUOUS
 62
250
 10
-1551.5857358790645
 20
642.6878549857487
 11
-642.687854985748
 21
1551.585735879065
  0
LINE
  8
MountainLine
  6
CONTINUOUS
 62
1
 10
0.0
 20
0.0
 11
-1551.5857358790645
 21
642.6878549857487
  0
LINE
  8
CutLine
  6
CONTINUOUS
 62
250
 10
-1551.585735879065
 20
-642.687854985748
 11
-1551.5857358790645
 21
642.6878549857487
  0
LINE
  8
ValleyLine
  6
CONTINUOUS
 62
5
 10
0.0
 20
-0.0
 11
0.0
 21
-0.0
  0
LINE
  8
ValleyLine
  6
CONTINUOUS
 62
5
 10
0.0
 20
-0.0
 11
-11.063852365695311
 21
-4.501416334755678
  0
LINE
  8
ValleyLine
  6
CONTINUOUS
 62
5
 10
-11.063852365695311
 20
-4.501416334755678
 11
-44.25540946278125
 21
-18.005665339022713
  0
LINE
  8
ValleyLine
  6
CONTINUOUS
 62
5
 10
-44.25540946278125
 20
-18.005665339022713
 11
-87.13708305133837
 21
-35.25293092361832
  0
LINE
  8
ValleyLine
  6
CONTINUOUS
 62
5
 10
-87.13708305133837
 20
-35.25293092361832
 11
-127.66227908438864
 21
-50.983396999359734
  0
LINE
  8
ValleyLine
  6
CONTINUOUS
 62
5
 10
-127.66227908438864
 20
-50.983396999359734
 11
-165.80179315284397
 21
-64.43866381181985
  0
LINE
  8
ValleyLine
  6
CONTINUOUS
 62
5
 10
-165.80179315284397
 20
-64.43866381181985
 11
-203.27727530317526
 21
-74.86033160657156
  0
LINE
  8
ValleyLine
  6
CONTINUOUS
 62
5
 10
-203.27727530317526
 20
-74.86033160657156
 11
-241.00743740710462
 21
-81.57207340985852
  0
LINE
  8
ValleyLine
  6
CONTINUOUS
 62
5
 10
-241.00743740710462
 20
-81.57207340985852
 11
-280.2957163311189
 21
-83.89756224792433
  0
LINE
  8
ValleyLine
  6
CONTINUOUS
 62
5
 10
-280.2957163311189
 20
-83.89756224792433
 11
-323.0180387236495
 21
-81.16047114701263
  0
LINE
  8
ValleyLine
  6
CONTINUOUS
 62
5
 10
-323.0180387236495
 20
-81.16047114701263
 11
-371.5825380025669
 21
-72.68447313336705
  0
LINE
  8
ValleyLine
  6
CONTINUOUS
 62
5
 10
-371.5825380025669
 20
-72.68447313336705
 11
-424.5808195294994
 21
-59.65986510891189
  0
LINE
  8
ValleyLine
  6
CONTINUOUS
 62
5
 10
-424.5808195294994
 20
-59.65986510891189
 11
-479.4753932138166
 21
-43.27694397557144
  0
LINE
  8
ValleyLine
  6
CONTINUOUS
 62
5
 10
-479.4753932138166
 20
-43.27694397557144
 11
-533.5232476980799
 21
-24.72600663527001
  0
LINE
  8
ValleyLine
  6
CONTINUOUS
 62
5
 10
-533.5232476980799
 20
-24.72600663527001
 11
-584.4401702245129
 21
-5.197349989931882
  0
LINE
  8
ValleyLine
  6
CONTINUOUS
 62
5
 10
-584.4401702245129
 20
-5.197349989931882
 11
-603.3853323995871
 21
2.4700277179874313
  0
LINE
  8
ValleyLine
  6
CONTINUOUS
 62
5
 10
-603.3853323995871
 20
2.4700277179874313
 11
-746.9052483149353
 21
61.75069294968578
  0
LINE
  8
ValleyLine
  6
CONTINUOUS
 62
5
 10
-746.9052483149353
 20
61.75069294968578
 11
-891.9650455785783
 21
2.4700277179874313
  0
LINE
  8
ValleyLine
  6
CONTINUOUS
 62
5
 10
-891.9650455785783
 20
2.4700277179874313
 11
-920.0261129838195
 21
-4.271089595686599
  0
LINE
  8
ValleyLine
  6
CONTINUOUS
 62
5
 10
-920.0261129838195
 20
-4.271089595686599
 11
-996.8588215276443
 21
-25.292054653975466
  0
LINE
  8
ValleyLine
  6
CONTINUOUS
 62
5
 10
-996.8588215276443
 20
-25.292054653975466
 11
-1105.275682425948
 21
-46.879067730969794
  0
LINE
  8
ValleyLine
  6
CONTINUOUS
 62
5
 10
-1105.275682425948
 20
-46.879067730969794
 11
-1239.3615224963962
 21
-68.8906168219932
  0
LINE
  8
ValleyLine
  6
CONTINUOUS
 62
5
 10
-1239.3615224963962
 20
-68.8906168219932
 11
-1391.0303747617722
 21
-91.18518992236935
  0
LINE
  8
ValleyLine
  6
CONTINUOUS
 62
5
 10
-1391.0303747617722
 20
-91.18518992236935
 11
-1511.4468955997418
 21
-108.01225375115872
  0
LINE
  8
ValleyLine
  6
CONTINUOUS
 62
5
 10
-1511.4468955997418
 20
-108.01225375115872
 11
-1551.585735879065
 21
-113.62127502742185
  0
LINE
  8
ValleyLine
  6
CONTINUOUS
 62
5
 10
-1551.585735879065
 20
-113.62127502742185
 11
-1551.585735879065
 21
-113.62127502742185
  0
LINE
  8
ValleyLine
  6
CONTINUOUS
 62
5
 10
-1551.585735879065
 20
-113.62127502742185
 11
-1551.585735879065
 21
-113.62127502742185
  0
LINE
  8
ValleyLine
  6
CONTINUOUS
 62
5
 10
0.0
 20
-0.0
 11
0.0
 21
-0.0
  0
LINE
  8
MountainLine
  6
CONTINUOUS
 62
1
 10
0.0
 20
-0.0
 11
0.0
 21
-0.0
  0
LINE
  8
ValleyLine
  6
CONTINUOUS
 62
5
 10
0.0
 20
-0.0
 11
0.0
 21
-0.0
  0
LINE
  8
MountainLine
  6
CONTINUOUS
 62
1
 10
0.0
 20
-0.0
 11
0.0
 21
-0.0
  0
LINE
  8
ValleyLine
  6
CONTINUOUS
 62
5
 10
-11.063852365695311
 20
-4.501416334755678
 11
-11.063852365695311
 21
-4.582797701964649
  0
LINE
  8
MountainLine
  6
CONTINUOUS
 62
1
 10
-11.063852365695311
 20
-4.501416334755678
 11
-11.063852365695311
 21
4.582797701964649
  0
LINE
  8
ValleyLine
  6
CONTINUOUS
 62
5
 10
-44.25540946278125
 20
-18.005665339022713
 11
-44.25540946278125
 21
-18.3311908078586
  0
LINE
  8
MountainLine
  6
CONTINUOUS
 62
1
 10
-44.25540946278125
 20
-18.005665339022713
 11
-44.25540946278125
 21
18.3311908078586
  0
LINE
  8
ValleyLine
  6
CONTINUOUS
 62
5
 10
-87.13708305133837
 20
-35.25293092361832
 11
-87.13708305133837
 21
-36.09336158549511
  0
LINE
  8
MountainLine
  6
CONTINUOUS
 62
1
 10
-87.13708305133837
 20
-35.25293092361832
 11
-87.13708305133837
 21
36.09336158549511
  0
LINE
  8
ValleyLine
  6
CONTINUOUS
 62
5
 10
-127.66227908438864
 20
-50.983396999359734
 11
-127.66227908438864
 21
-52.87944740021288
  0
LINE
  8
MountainLine
  6
CONTINUOUS
 62
1
 10
-127.66227908438864
 20
-50.983396999359734
 11
-127.66227908438864
 21
52.87944740021288
  0
LINE
  8
ValleyLine
  6
CONTINUOUS
 62
5
 10
-165.80179315284397
 20
-64.43866381181985
 11
-165.80179315284397
 21
-68.67735138968654
  0
LINE
  8
MountainLine
  6
CONTINUOUS
 62
1
 10
-165.80179315284397
 20
-64.43866381181985
 11
-165.80179315284397
 21
68.67735138968654
  0
LINE
  8
ValleyLine
  6
CONTINUOUS
 62
5
 10
-203.27727530317526
 20
-74.86033160657156
 11
-203.27727530317526
 21
-84.20020435282458
  0
LINE
  8
MountainLine
  6
CONTINUOUS
 62
1
 10
-203.27727530317526
 20
-74.86033160657156
 11
-203.27727530317526
 21
84.20020435282458
  0
LINE
  8
ValleyLine
  6
CONTINUOUS
 62
5
 10
-241.00743740710462
 20
-81.57207340985852
 11
-241.00743740710462
 21
-99.82854920680754
  0
LINE
  8
MountainLine
  6
CONTINUOUS
 62
1
 10
-241.00743740710462
 20
-81.57207340985852
 11
-241.00743740710462
 21
99.82854920680754
  0
LINE
  8
ValleyLine
  6
CONTINUOUS
 62
5
 10
-280.2957163311189
 20
-83.89756224792433
 11
-280.2957163311189
 21
-116.10228717943127
  0
LINE
  8
MountainLine
  6
CONTINUOUS
 62
1
 10
-280.2957163311189
 20
-83.89756224792433
 11
-280.2957163311189
 21
116.10228717943127
  0
LINE
  8
ValleyLine
  6
CONTINUOUS
 62
5
 10
-323.0180387236495
 20
-81.16047114701263
 11
-323.0180387236495
 21
-133.79845253049322
  0
LINE
  8
MountainLine
  6
CONTINUOUS
 62
1
 10
-323.0180387236495
 20
-81.16047114701263
 11
-323.0180387236495
 21
133.79845253049322
  0
LINE
  8
ValleyLine
  6
CONTINUOUS
 62
5
 10
-371.5825380025669
 20
-72.68447313336705
 11
-371.5825380025669
 21
-153.91452678167917
  0
LINE
  8
MountainLine
  6
CONTINUOUS
 62
1
 10
-371.5825380025669
 20
-72.68447313336705
 11
-371.5825380025669
 21
153.91452678167917
  0
LINE
  8
ValleyLine
  6
CONTINUOUS
 62
5
 10
-424.5808195294994
 20
-59.65986510891189
 11
-424.5808195294994
 21
-175.86713377260213
  0
LINE
  8
MountainLine
  6
CONTINUOUS
 62
1
 10
-424.5808195294994
 20
-59.65986510891189
 11
-424.5808195294994
 21
175.86713377260213
  0
LINE
  8
ValleyLine
  6
CONTINUOUS
 62
5
 10
-479.4753932138166
 20
-43.27694397557144
 11
-479.4753932138166
 21
-198.6052106933355
  0
LINE
  8
MountainLine
  6
CONTINUOUS
 62
1
 10
-479.4753932138166
 20
-43.27694397557144
 11
-479.4753932138166
 21
198.6052106933355
  0
LINE
  8
ValleyLine
  6
CONTINUOUS
 62
5
 10
-533.5232476980799
 20
-24.72600663527001
 11
-533.5232476980799
 21
-220.99256503788487
  0
LINE
  8
MountainLine
  6
CONTINUOUS
 62
1
 10
-533.5232476980799
 20
-24.72600663527001
 11
-533.5232476980799
 21
220.99256503788487
  0
LINE
  8
ValleyLine
  6
CONTINUOUS
 62
5
 10
-584.4401702245129
 20
-5.197349989931882
 11
-584.4401702245129
 21
-242.08304490263356
  0
LINE
  8
MountainLine
  6
CONTINUOUS
 62
1
 10
-584.4401702245129
 20
-5.197349989931882
 11
-584.4401702245129
 21
242.08304490263356
  0
LINE
  8
ValleyLine
  6
CONTINUOUS
 62
5
 10
-603.3853323995871
 20
2.4700277179874313
 11
-603.3853323995871
 21
-249.93038801690707
  0
LINE
  8
MountainLine
  6
CONTINUOUS
 62
1
 10
-603.3853323995871
 20
2.4700277179874313
 11
-603.3853323995871
 21
249.93038801690707
  0
LINE
  8
MountainLine
  6
CONTINUOUS
 62
1
 10
-746.9052483149353
 20
61.75069294968578
 11
-746.9052483149353
 21
-309.37828365969045
  0
LINE
  8
ValleyLine
  6
CONTINUOUS
 62
5
 10
-746.9052483149353
 20
61.75069294968578
 11
-746.9052483149353
 21
309.37828365969045
  0
LINE
  8
ValleyLine
  6
CONTINUOUS
 62
5
 10
-891.9650455785783
 20
2.4700277179874313
 11
-891.9650455785783
 21
-369.464019041383
  0
LINE
  8
MountainLine
  6
CONTINUOUS
 62
1
 10
-891.9650455785783
 20
2.4700277179874313
 11
-891.9650455785783
 21
369.464019041383
  0
LINE
  8
MountainLine
  6
CONTINUOUS
 62
1
 10
-920.0261129838195
 20
-4.271089595686599
 11
-920.0261129838195
 21
-381.0872937352995
  0
LINE
  8
ValleyLine
  6
CONTINUOUS
 62
5
 10
-920.0261129838195
 20
-4.271089595686599
 11
-920.0261129838195
 21
381.0872937352995
  0
LINE
  8
ValleyLine
  6
CONTINUOUS
 62
5
 10
-996.8588215276443
 20
-25.292054653975466
 11
-996.8588215276443
 21
-412.9124436480109
  0
LINE
  8
MountainLine
  6
CONTINUOUS
 62
1
 10
-996.8588215276443
 20
-25.292054653975466
 11
-996.8588215276443
 21
412.9124436480109
  0
LINE
  8
ValleyLine
  6
CONTINUOUS
 62
5
 10
-1105.275682425948
 20
-46.879067730969794
 11
-1105.275682425948
 21
-457.8201778220056
  0
LINE
  8
MountainLine
  6
CONTINUOUS
 62
1
 10
-1105.275682425948
 20
-46.879067730969794
 11
-1105.275682425948
 21
457.8201778220056
  0
LINE
  8
ValleyLine
  6
CONTINUOUS
 62
5
 10
-1239.3615224963962
 20
-68.8906168219932
 11
-1239.3615224963962
 21
-513.360351301375
  0
LINE
  8
MountainLine
  6
CONTINUOUS
 62
1
 10
-1239.3615224963962
 20
-68.8906168219932
 11
-1239.3615224963962
 21
513.360351301375
  0
LINE
  8
ValleyLine
  6
CONTINUOUS
 62
5
 10
-1391.0303747617722
 20
-91.18518992236935
 11
-1391.0303747617722
 21
-576.1836468992551
  0
LINE
  8
MountainLine
  6
CONTINUOUS
 62
1
 10
-1391.0303747617722
 20
-91.18518992236935
 11
-1391.0303747617722
 21
576.1836468992551
  0
LINE
  8
MountainLine
  6
CONTINUOUS
 62
1
 10
-1511.4468955997418
 20
-108.01225375115872
 11
-1511.4468955997418
 21
-626.0618029641245
  0
LINE
  8
ValleyLine
  6
CONTINUOUS
 62
5
 10
-1511.4468955997418
 20
-108.01225375115872
 11
-1511.4468955997418
 21
626.0618029641245
  0
LINE
  8
ValleyLine
  6
CONTINUOUS
 62
5
 10
-1551.585735879065
 20
-113.62127502742185
 11
-1551.585735879065
 21
-642.6878549857477
  0
LINE
  8
MountainLine
  6
CONTINUOUS
 62
1
 10
-1551.585735879065
 20
-113.62127502742185
 11
-1551.585735879065
 21
642.6878549857477
  0
LINE
  8
ValleyLine
  6
CONTINUOUS
 62
5
 10
-1551.585735879065
 20
-113.62127502742185
 11
-1551.585735879065
 21
-642.6878549857477
  0
LINE
  8
MountainLine
  6
CONTINUOUS
 62
1
 10
-1551.585735879065
 20
-113.62127502742185
 11
-1551.585735879065
 21
642.6878549857477
  0
LINE
  8
ValleyLine
  6
CONTINUOUS
 62
5
 10
0.0
 20
-0.0
 11
0.0
 21
-0.0
  0
LINE
  8
ValleyLine
  6
CONTINUOUS
 62
5
 10
0.0
 20
-0.0
 11
-4.640343018580348
 21
-11.006307049079615
  0
LINE
  8
ValleyLine
  6
CONTINUOUS
 62
5
 10
-4.640343018580348
 20
-11.006307049079615
 11
-18.561372074321394
 21
-44.02522819631846
  0
LINE
  8
ValleyLine
  6
CONTINUOUS
 62
5
 10
-18.561372074321394
 20
-44.02522819631846
 11
-36.687635805625284
 21
-86.54280883120819
  0
LINE
  8
ValleyLine
  6
CONTINUOUS
 62
5
 10
-36.687635805625284
 20
-86.54280883120819
 11
-54.22015749612762
 21
-126.32156898847391
  0
LINE
  8
ValleyLine
  6
CONTINUOUS
 62
5
 10
-54.22015749612762
 20
-126.32156898847391
 11
-71.67455611932726
 21
-162.80458842320326
  0
LINE
  8
ValleyLine
  6
CONTINUOUS
 62
5
 10
-71.67455611932726
 20
-162.80458842320326
 11
-90.80449170711955
 21
-196.6729879488803
  0
LINE
  8
ValleyLine
  6
CONTINUOUS
 62
5
 10
-90.80449170711955
 20
-196.6729879488803
 11
-112.73782704339827
 21
-228.09815957051387
  0
LINE
  8
ValleyLine
  6
CONTINUOUS
 62
5
 10
-112.73782704339827
 20
-228.09815957051387
 11
-138.87446656474734
 21
-257.52353694580285
  0
LINE
  8
ValleyLine
  6
CONTINUOUS
 62
5
 10
-138.87446656474734
 20
-257.52353694580285
 11
-171.01912611472363
 21
-285.7973651394191
  0
LINE
  8
ValleyLine
  6
CONTINUOUS
 62
5
 10
-171.01912611472363
 20
-285.7973651394191
 11
-211.3528485525478
 21
-314.1442162316983
  0
LINE
  8
ValleyLine
  6
CONTINUOUS
 62
5
 10
-211.3528485525478
 20
-314.1442162316983
 11
-258.0380814678645
 21
-342.40987183423704
  0
LINE
  8
ValleyLine
  6
CONTINUOUS
 62
5
 10
-258.0380814678645
 20
-342.40987183423704
 11
-308.4388813994192
 21
-369.6417225077329
  0
LINE
  8
ValleyLine
  6
CONTINUOUS
 62
5
 10
-308.4388813994192
 20
-369.6417225077329
 11
-359.77397940451937
 21
-394.74183333144543
  0
LINE
  8
ValleyLine
  6
CONTINUOUS
 62
5
 10
-359.77397940451937
 20
-394.74183333144543
 11
-409.5865261414926
 21
-416.9366889856539
  0
LINE
  8
ValleyLine
  6
CONTINUOUS
 62
5
 10
-409.5865261414926
 20
-416.9366889856539
 11
-428.40443355735476
 21
-424.91128685913947
  0
LINE
  8
ValleyLine
  6
CONTINUOUS
 62
5
 10
-428.40443355735476
 20
-424.91128685913947
 11
-571.806099715004
 21
-484.4774322596217
  0
LINE
  8
ValleyLine
  6
CONTINUOUS
 62
5
 10
-571.806099715004
 20
-484.4774322596217
 11
-632.4611056590883
 21
-628.9679589608729
  0
LINE
  8
ValleyLine
  6
CONTINUOUS
 62
5
 10
-632.4611056590883
 20
-628.9679589608729
 11
-647.5365869433942
 21
-653.5768197757247
  0
LINE
  8
ValleyLine
  6
CONTINUOUS
 62
5
 10
-647.5365869433942
 20
-653.5768197757247
 11
-687.0014492318609
 21
-722.7698159437944
  0
LINE
  8
ValleyLine
  6
CONTINUOUS
 62
5
 10
-687.0014492318609
 20
-722.7698159437944
 11
-748.3994234357046
 21
-814.6964368122489
  0
LINE
  8
ValleyLine
  6
CONTINUOUS
 62
5
 10
-748.3994234357046
 20
-814.6964368122489
 11
-827.6479145839303
 21
-925.0739592138409
  0
LINE
  8
ValleyLine
  6
CONTINUOUS
 62
5
 10
-827.6479145839303
 20
-925.0739592138409
 11
-919.1293446926231
 21
-1048.0846769684042
  0
LINE
  8
ValleyLine
  6
CONTINUOUS
 62
5
 10
-919.1293446926231
 20
-1048.0846769684042
 11
-992.3781522032467
 21
-1145.1305463606195
  0
LINE
  8
ValleyLine
  6
CONTINUOUS
 62
5
 10
-992.3781522032467
 20
-1145.1305463606195
 11
-1016.7944213734547
 21
-1177.4791694913579
  0
LINE
  8
ValleyLine
  6
CONTINUOUS
 62
5
 10
-1016.7944213734547
 20
-1177.4791694913579
 11
-1016.7944213734547
 21
-1177.4791694913579
  0
LINE
  8
ValleyLine
  6
CONTINUOUS
 62
5
 10
-1016.7944213734547
 20
-1177.4791694913579
 11
-1016.7944213734547
 21
-1177.4791694913579
  0
LINE
  8
ValleyLine
  6
CONTINUOUS
 62
5
 10
0.0
 20
-0.0
 11
0.0
 21
-0.0
  0
LINE
  8
MountainLine
  6
CONTINUOUS
 62
1
 10
0.0
 20
-0.0
 11
0.0
 21
-0.0
  0
LINE
  8
ValleyLine
  6
CONTINUOUS
 62
5
 10
0.0
 20
-0.0
 11
0.0
 21
-0.0
  0
LINE
  8
MountainLine
  6
CONTINUOUS
 62
1
 10
0.0
 20
-0.0
 11
0.0
 21
-0.0
  0
LINE
  8
ValleyLine
  6
CONTINUOUS
 62
5
 10
-4.640343018580348
 20
-11.006307049079615
 11
-4.582797701964651
 21
-11.063852365695311
  0
LINE
  8
MountainLine
  6
CONTINUOUS
 62
1
 10
-4.640343018580348
 20
-11.006307049079615
 11
-11.063852365695311
 21
-4.58279770196465
  0
LINE
  8
ValleyLine
  6
CONTINUOUS
 62
5
 10
-18.561372074321394
 20
-44.02522819631846
 11
-18.331190807858604
 21
-44.25540946278125
  0
LINE
  8
MountainLine
  6
CONTINUOUS
 62
1
 10
-18.561372074321394
 20
-44.02522819631846
 11
-44.25540946278125
 21
-18.3311908078586
  0
LINE
  8
ValleyLine
  6
CONTINUOUS
 62
5
 10
-36.687635805625284
 20
-86.54280883120819
 11
-36.09336158549512
 21
-87.13708305133837
  0
LINE
  8
MountainLine
  6
CONTINUOUS
 62
1
 10
-36.687635805625284
 20
-86.54280883120819
 11
-87.13708305133837
 21
-36.0933615854951
  0
LINE
  8
ValleyLine
  6
CONTINUOUS
 62
5
 10
-54.22015749612762
 20
-126.32156898847391
 11
-52.87944740021289
 21
-127.66227908438864
  0
LINE
  8
MountainLine
  6
CONTINUOUS
 62
1
 10
-54.22015749612762
 20
-126.32156898847391
 11
-127.66227908438864
 21
-52.87944740021288
  0
LINE
  8
ValleyLine
  6
CONTINUOUS
 62
5
 10
-71.67455611932726
 20
-162.80458842320326
 11
-68.67735138968655
 21
-165.80179315284397
  0
LINE
  8
MountainLine
  6
CONTINUOUS
 62
1
 10
-71.67455611932726
 20
-162.80458842320326
 11
-165.80179315284397
 21
-68.67735138968652
  0
LINE
  8
ValleyLine
  6
CONTINUOUS
 62
5
 10
-90.80449170711955
 20
-196.6729879488803
 11
-84.20020435282461
 21
-203.2772753031752
  0
LINE
  8
MountainLine
  6
CONTINUOUS
 62
1
 10
-90.80449170711955
 20
-196.6729879488803
 11
-203.27727530317526
 21
-84.20020435282458
  0
LINE
  8
ValleyLine
  6
CONTINUOUS
 62
5
 10
-112.73782704339827
 20
-228.09815957051387
 11
-99.82854920680757
 21
-241.00743740710462
  0
LINE
  8
MountainLine
  6
CONTINUOUS
 62
1
 10
-112.73782704339827
 20
-228.09815957051387
 11
-241.00743740710462
 21
-99.8285492068075
  0
LINE
  8
ValleyLine
  6
CONTINUOUS
 62
5
 10
-138.87446656474734
 20
-257.52353694580285
 11
-116.1022871794313
 21
-280.2957163311189
  0
LINE
  8
MountainLine
  6
CONTINUOUS
 62
1
 10
-138.87446656474734
 20
-257.52353694580285
 11
-280.2957163311189
 21
-116.10228717943124
  0
LINE
  8
ValleyLine
  6
CONTINUOUS
 62
5
 10
-171.01912611472363
 20
-285.7973651394191
 11
-133.79845253049325
 21
-323.0180387236495
  0
LINE
  8
MountainLine
  6
CONTINUOUS
 62
1
 10
-171.01912611472363
 20
-285.7973651394191
 11
-323.0180387236495
 21
-133.7984525304932
  0
LINE
  8
ValleyLine
  6
CONTINUOUS
 62
5
 10
-211.3528485525478
 20
-314.1442162316983
 11
-153.91452678167926
 21
-371.5825380025669
  0
LINE
  8
MountainLine
  6
CONTINUOUS
 62
1
 10
-211.3528485525478
 20
-314.1442162316983
 11
-371.5825380025669
 21
-153.91452678167917
  0
LINE
  8
ValleyLine
  6
CONTINUOUS
 62
5
 10
-258.0380814678645
 20
-342.40987183423704
 11
-175.86713377260216
 21
-424.5808195294994
  0
LINE
  8
MountainLine
  6
CONTINUOUS
 62
1
 10
-258.0380814678645
 20
-342.40987183423704
 11
-424.5808195294994
 21
-175.8671337726021
  0
LINE
  8
ValleyLine
  6
CONTINUOUS
 62
5
 10
-308.4388813994192
 20
-369.6417225077329
 11
-198.6052106933355
 21
-479.4753932138166
  0
LINE
  8
MountainLine
  6
CONTINUOUS
 62
1
 10
-308.4388813994192
 20
-369.6417225077329
 11
-479.4753932138166
 21
-198.6052106933355
  0
LINE
  8
ValleyLine
  6
CONTINUOUS
 62
5
 10
-359.77397940451937
 20
-394.74183333144543
 11
-220.9925650378849
 21
-533.5232476980799
  0
LINE
  8
MountainLine
  6
CONTINUOUS
 62
1
 10
-359.77397940451937
 20
-394.74183333144543
 11
-533.5232476980799
 21
-220.99256503788487
  0
LINE
  8
ValleyLine
  6
CONTINUOUS
 62
5
 10
-409.5865261414926
 20
-416.9366889856539
 11
-242.08304490263362
 21
-584.4401702245128
  0
LINE
  8
MountainLine
  6
CONTINUOUS
 62
1
 10
-409.5865261414926
 20
-416.9366889856539
 11
-584.4401702245128
 21
-242.08304490263353
  0
LINE
  8
ValleyLine
  6
CONTINUOUS
 62
5
 10
-428.40443355735476
 20
-424.91128685913947
 11
-249.93038801690713
 21
-603.3853323995871
  0
LINE
  8
MountainLine
  6
CONTINUOUS
 62
1
 10
-428.40443355735476
 20
-424.91128685913947
 11
-603.3853323995871
 21
-249.93038801690702
  0
LINE
  8
MountainLine
  6
CONTINUOUS
 62
1
 10
-571.806099715004
 20
-484.4774322596217
 11
-309.3782836596905
 21
-746.9052483149353
  0
LINE
  8
ValleyLine
  6
CONTINUOUS
 62
5
 10
-571.806099715004
 20
-484.4774322596217
 11
-746.9052483149353
 21
-309.37828365969045
  0
LINE
  8
ValleyLine
  6
CONTINUOUS
 62
5
 10
-632.4611056590883
 20
-628.9679589608729
 11
-369.4640190413831
 21
-891.9650455785783
  0
LINE
  8
MountainLine
  6
CONTINUOUS
 62
1
 10
-632.4611056590883
 20
-628.9679589608729
 11
-891.9650455785783
 21
-369.46401904138287
  0
LINE
  8
MountainLine
  6
CONTINUOUS
 62
1
 10
-647.5365869433942
 20
-653.5768197757247
 11
-381.0872937352996
 21
-920.0261129838194
  0
LINE
  8
ValleyLine
  6
CONTINUOUS
 62
5
 10
-647.5365869433942
 20
-653.5768197757247
 11
-920.0261129838195
 21
-381.08729373529945
  0
LINE
  8
ValleyLine
  6
CONTINUOUS
 62
5
 10
-687.0014492318609
 20
-722.7698159437944
 11
-412.91244364801105
 21
-996.8588215276443
  0
LINE
  8
MountainLine
  6
CONTINUOUS
 62
1
 10
-687.0014492318609
 20
-722.7698159437944
 11
-996.8588215276444
 21
-412.9124436480109
  0
LINE
  8
ValleyLine
  6
CONTINUOUS
 62
5
 10
-748.3994234357046
 20
-814.6964368122489
 11
-457.8201778220057
 21
-1105.275682425948
  0
LINE
  8
MountainLine
  6
CONTINUOUS
 62
1
 10
-748.3994234357046
 20
-814.6964368122489
 11
-1105.275682425948
 21
-457.82017782200546
  0
LINE
  8
ValleyLine
  6
CONTINUOUS
 62
5
 10
-827.6479145839303
 20
-925.0739592138409
 11
-513.3603513013752
 21
-1239.361522496396
  0
LINE
  8
MountainLine
  6
CONTINUOUS
 62
1
 10
-827.6479145839303
 20
-925.0739592138409
 11
-1239.3615224963962
 21
-513.3603513013749
  0
LINE
  8
ValleyLine
  6
CONTINUOUS
 62
5
 10
-919.1293446926231
 20
-1048.0846769684042
 11
-576.1836468992552
 21
-1391.0303747617722
  0
LINE
  8
MountainLine
  6
CONTINUOUS
 62
1
 10
-919.1293446926231
 20
-1048.0846769684042
 11
-1391.0303747617722
 21
-576.183646899255
  0
LINE
  8
MountainLine
  6
CONTINUOUS
 62
1
 10
-992.3781522032467
 20
-1145.1305463606195
 11
-626.0618029641246
 21
-1511.4468955997415
  0
LINE
  8
ValleyLine
  6
CONTINUOUS
 62
5
 10
-992.3781522032467
 20
-1145.1305463606195
 11
-1511.4468955997418
 21
-626.0618029641245
  0
LINE
  8
ValleyLine
  6
CONTINUOUS
 62
5
 10
-1016.7944213734547
 20
-1177.4791694913579
 11
-642.6878549857479
 21
-1551.5857358790645
  0
LINE
  8
MountainLine
  6
CONTINUOUS
 62
1
 10
-1016.7944213734547
 20
-1177.4791694913579
 11
-1551.585735879065
 21
-642.6878549857474
  0
LINE
  8
ValleyLine
  6
CONTINUOUS
 62
5
 10
-1016.7944213734547
 20
-1177.4791694913579
 11
-642.6878549857479
 21
-1551.5857358790645
  0
LINE
  8
MountainLine
  6
CONTINUOUS
 62
1
 10
-1016.7944213734547
 20
-1177.4791694913579
 11
-1551.585735879065
 21
-642.6878549857474
  0
LINE
  8
ValleyLine
  6
CONTINUOUS
 62
5
 10
0.0
 20
-0.0
 11
0.0
 21
-0.0
  0
LINE
  8
ValleyLine
  6
CONTINUOUS
 62
5
 10
0.0
 20
-0.0
 11
4.501416334755677
 21
-11.063852365695311
  0
LINE
  8
ValleyLine
  6
CONTINUOUS
 62
5
 10
4.501416334755677
 20
-11.063852365695311
 11
18.00566533902271
 21
-44.25540946278125
  0
LINE
  8
ValleyLine
  6
CONTINUOUS
 62
5
 10
18.00566533902271
 20
-44.25540946278125
 11
35.252930923618315
 21
-87.13708305133837
  0
LINE
  8
ValleyLine
  6
CONTINUOUS
 62
5
 10
35.252930923618315
 20
-87.13708305133837
 11
50.98339699935972
 21
-127.66227908438864
  0
LINE
  8
ValleyLine
  6
CONTINUOUS
 62
5
 10
50.98339699935972
 20
-127.66227908438864
 11
64.43866381181985
 21
-165.80179315284397
  0
LINE
  8
ValleyLine
  6
CONTINUOUS
 62
5
 10
64.43866381181985
 20
-165.80179315284397
 11
74.86033160657155
 21
-203.27727530317526
  0
LINE
  8
ValleyLine
  6
CONTINUOUS
 62
5
 10
74.86033160657155
 20
-203.27727530317526
 11
81.57207340985849
 21
-241.00743740710462
  0
LINE
  8
ValleyLine
  6
CONTINUOUS
 62
5
 10
81.57207340985849
 20
-241.00743740710462
 11
83.89756224792431
 21
-280.2957163311189
  0
LINE
  8
ValleyLine
  6
CONTINUOUS
 62
5
 10
83.89756224792431
 20
-280.2957163311189
 11
81.16047114701261
 21
-323.0180387236495
  0
LINE
  8
ValleyLine
  6
CONTINUOUS
 62
5
 10
81.16047114701261
 20
-323.0180387236495
 11
72.68447313336702
 21
-371.5825380025669
  0
LINE
  8
ValleyLine
  6
CONTINUOUS
 62
5
 10
72.68447313336702
 20
-371.5825380025669
 11
59.659865108911866
 21
-424.5808195294994
  0
LINE
  8
ValleyLine
  6
CONTINUOUS
 62
5
 10
59.659865108911866
 20
-424.5808195294994
 11
43.27694397557142
 21
-479.4753932138166
  0
LINE
  8
ValleyLine
  6
CONTINUOUS
 62
5
 10
43.27694397557142
 20
-479.4753932138166
 11
24.726006635269975
 21
-533.5232476980799
  0
LINE
  8
ValleyLine
  6
CONTINUOUS
 62
5
 10
24.726006635269975
 20
-533.5232476980799
 11
5.197349989931847
 21
-584.4401702245129
  0
LINE
  8
ValleyLine
  6
CONTINUOUS
 62
5
 10
5.197349989931847
 20
-584.4401702245129
 11
-2.470027717987468
 21
-603.3853323995871
  0
LINE
  8
ValleyLine
  6
CONTINUOUS
 62
5
 10
-2.470027717987468
 20
-603.3853323995871
 11
-61.75069294968582
 21
-746.9052483149353
  0
LINE
  8
ValleyLine
  6
CONTINUOUS
 62
5
 10
-61.75069294968582
 20
-746.9052483149353
 11
-2.4700277179874863
 21
-891.9650455785783
  0
LINE
  8
ValleyLine
  6
CONTINUOUS
 62
5
 10
-2.4700277179874863
 20
-891.9650455785783
 11
4.271089595686542
 21
-920.0261129838195
  0
LINE
  8
ValleyLine
  6
CONTINUOUS
 62
5
 10
4.271089595686542
 20
-920.0261129838195
 11
25.292054653975406
 21
-996.8588215276443
  0
LINE
  8
ValleyLine
  6
CONTINUOUS
 62
5
 10
25.292054653975406
 20
-996.8588215276443
 11
46.87906773096972
 21
-1105.275682425948
  0
LINE
  8
ValleyLine
  6
CONTINUOUS
 62
5
 10
46.87906773096972
 20
-1105.275682425948
 11
68.89061682199312
 21
-1239.3615224963962
  0
LINE
  8
ValleyLine
  6
CONTINUOUS
 62
5
 10
68.89061682199312
 20
-1239.3615224963962
 11
91.18518992236926
 21
-1391.0303747617722
  0
LINE
  8
ValleyLine
  6
CONTINUOUS
 62
5
 10
91.18518992236926
 20
-1391.0303747617722
 11
108.01225375115864
 21
-1511.4468955997418
  0
LINE
  8
ValleyLine
  6
CONTINUOUS
 62
5
 10
108.01225375115864
 20
-1511.4468955997418
 11
113.62127502742173
 21
-1551.585735879065
  0
LINE
  8
ValleyLine
  6
CONTINUOUS
 62
5
 10
113.62127502742173
 20
-1551.585735879065
 11
113.62127502742173
 21
-1551.585735879065
  0
LINE
  8
ValleyLine
  6
CONTINUOUS
 62
5
 10
113.62127502742173
 20
-1551.585735879065
 11
113.62127502742173
 21
-1551.585735879065
  0
LINE
  8
ValleyLine
  6
CONTINUOUS
 62
5
 10
0.0
 20
-0.0
 11
0.0
 21
-0.0
  0
LINE
  8
MountainLine
  6
CONTINUOUS
 62
1
 10
0.0
 20
-0.0
 11
0.0
 21
-0.0
  0
LINE
  8
ValleyLine
  6
CONTINUOUS
 62
5
 10
0.0
 20
-0.0
 11
0.0
 21
-0.0
  0
LINE
  8
MountainLine
  6
CONTINUOUS
 62
1
 10
0.0
 20
-0.0
 11
0.0
 21
-0.0
  0
LINE
  8
ValleyLine
  6
CONTINUOUS
 62
5
 10
4.501416334755677
 20
-11.063852365695311
 11
4.582797701964648
 21
-11.063852365695311
  0
LINE
  8
MountainLine
  6
CONTINUOUS
 62
1
 10
4.501416334755677
 20
-11.063852365695311
 11
-4.58279770196465
 21
-11.063852365695311
  0
LINE
  8
ValleyLine
  6
CONTINUOUS
 62
5
 10
18.00566533902271
 20
-44.25540946278125
 11
18.3311908078586
 21
-44.25540946278125
  0
LINE
  8
MountainLine
  6
CONTINUOUS
 62
1
 10
18.00566533902271
 20
-44.25540946278125
 11
-18.331190807858604
 21
-44.25540946278125
  0
LINE
  8
ValleyLine
  6
CONTINUOUS
 62
5
 10
35.252930923618315
 20
-87.13708305133837
 11
36.0933615854951
 21
-87.13708305133837
  0
LINE
  8
MountainLine
  6
CONTINUOUS
 62
1
 10
35.252930923618315
 20
-87.13708305133837
 11
-36.09336158549512
 21
-87.13708305133837
  0
LINE
  8
ValleyLine
  6
CONTINUOUS
 62
5
 10
50.98339699935972
 20
-127.66227908438864
 11
52.879447400212875
 21
-127.66227908438864
  0
LINE
  8
MountainLine
  6
CONTINUOUS
 62
1
 10
50.98339699935972
 20
-127.66227908438864
 11
-52.87944740021289
 21
-127.66227908438864
  0
LINE
  8
ValleyLine
  6
CONTINUOUS
 62
5
 10
64.43866381181985
 20
-165.80179315284397
 11
68.67735138968652
 21
-165.80179315284397
  0
LINE
  8
MountainLine
  6
CONTINUOUS
 62
1
 10
64.43866381181985
 20
-165.80179315284397
 11
-68.67735138968654
 21
-165.80179315284397
  0
LINE
  8
ValleyLine
  6
CONTINUOUS
 62
5
 10
74.86033160657155
 20
-203.27727530317526
 11
84.20020435282457
 21
-203.27727530317526
  0
LINE
  8
MountainLine
  6
CONTINUOUS
 62
1
 10
74.86033160657155
 20
-203.27727530317526
 11
-84.2002043528246
 21
-203.27727530317526
  0
LINE
  8
ValleyLine
  6
CONTINUOUS
 62
5
 10
81.57207340985849
 20
-241.00743740710462
 11
99.82854920680751
 21
-241.00743740710462
  0
LINE
  8
MountainLine
  6
CONTINUOUS
 62
1
 10
81.57207340985849
 20
-241.00743740710462
 11
-99.82854920680755
 21
-241.00743740710462
  0
LINE
  8
ValleyLine
  6
CONTINUOUS
 62
5
 10
83.89756224792431
 20
-280.2957163311189
 11
116.10228717943124
 21
-280.2957163311189
  0
LINE
  8
MountainLine
  6
CONTINUOUS
 62
1
 10
83.89756224792431
 20
-280.2957163311189
 11
-116.10228717943129
 21
-280.2957163311189
  0
LINE
  8
ValleyLine
  6
CONTINUOUS
 62
5
 10
81.16047114701261
 20
-323.0180387236495
 11
133.7984525304932
 21
-323.0180387236495
  0
LINE
  8
MountainLine
  6
CONTINUOUS
 62
1
 10
81.16047114701261
 20
-323.0180387236495
 11
-133.79845253049325
 21
-323.0180387236495
  0
LINE
  8
ValleyLine
  6
CONTINUOUS
 62
5
 10
72.68447313336702
 20
-371.5825380025669
 11
153.91452678167914
 21
-371.5825380025669
  0
LINE
  8
MountainLine
  6
CONTINUOUS
 62
1
 10
72.68447313336702
 20
-371.5825380025669
 11
-153.91452678167923
 21
-371.5825380025669
  0
LINE
  8
ValleyLine
  6
CONTINUOUS
 62
5
 10
59.659865108911866
 20
-424.5808195294994
 11
175.8671337726021
 21
-424.5808195294994
  0
LINE
  8
MountainLine
  6
CONTINUOUS
 62
1
 10
59.659865108911866
 20
-424.5808195294994
 11
-175.86713377260216
 21
-424.5808195294994
  0
LINE
  8
ValleyLine
  6
CONTINUOUS
 62
5
 10
43.27694397557142
 20
-479.4753932138166
 11
198.60521069333544
 21
-479.4753932138166
  0
LINE
  8
MountainLine
  6
CONTINUOUS
 62
1
 10
43.27694397557142
 20
-479.4753932138166
 11
-198.60521069333552
 21
-479.4753932138166
  0
LINE
  8
ValleyLine
  6
CONTINUOUS
 62
5
 10
24.726006635269975
 20
-533.5232476980799
 11
220.99256503788484
 21
-533.5232476980799
  0
LINE
  8
MountainLine
  6
CONTINUOUS
 62
1
 10
24.726006635269975
 20
-533.5232476980799
 11
-220.9925650378849
 21
-533.5232476980799
  0
LINE
  8
ValleyLine
  6
CONTINUOUS
 62
5
 10
5.197349989931847
 20
-584.4401702245129
 11
242.08304490263353
 21
-584.4401702245129
  0
LINE
  8
MountainLine
  6
CONTINUOUS
 62
1
 10
5.197349989931847
 20
-584.4401702245129
 11
-242.0830449026336
 21
-584.4401702245129
  0
LINE
  8
ValleyLine
  6
CONTINUOUS
 62
5
 10
-2.470027717987468
 20
-603.3853323995871
 11
249.93038801690705
 21
-603.3853323995871
  0
LINE
  8
MountainLine
  6
CONTINUOUS
 62
1
 10
-2.470027717987468
 20
-603.3853323995871
 11
-249.93038801690713
 21
-603.3853323995871
  0
LINE
  8
MountainLine
  6
CONTINUOUS
 62
1
 10
-61.75069294968582
 20
-746.9052483149353
 11
309.3782836596904
 21
-746.9052483149353
  0
LINE
  8
ValleyLine
  6
CONTINUOUS
 62
5
 10
-61.75069294968582
 20
-746.9052483149353
 11
-309.3782836596905
 21
-746.9052483149353
  0
LINE
  8
ValleyLine
  6
CONTINUOUS
 62
5
 10
-2.4700277179874863
 20
-891.9650455785783
 11
369.4640190413829
 21
-891.9650455785783
  0
LINE
  8
MountainLine
  6
CONTINUOUS
 62
1
 10
-2.4700277179874863
 20
-891.9650455785783
 11
-369.4640190413831
 21
-891.9650455785783
  0
LINE
  8
MountainLine
  6
CONTINUOUS
 62
1
 10
4.271089595686542
 20
-920.0261129838195
 11
381.08729373529945
 21
-920.0261129838195
  0
LINE
  8
ValleyLine
  6
CONTINUOUS
 62
5
 10
4.271089595686542
 20
-920.0261129838195
 11
-381.08729373529957
 21
-920.0261129838195
  0
LINE
  8
ValleyLine
  6
CONTINUOUS
 62
5
 10
25.292054653975406
 20
-996.8588215276443
 11
412.9124436480108
 21
-996.8588215276443
  0
LINE
  8
MountainLine
  6
CONTINUOUS
 62
1
 10
25.292054653975406
 20
-996.8588215276443
 11
-412.91244364801094
 21
-996.8588215276443
  0
LINE
  8
ValleyLine
  6
CONTINUOUS
 62
5
 10
46.87906773096972
 20
-1105.275682425948
 11
457.82017782200546
 21
-1105.275682425948
  0
LINE
  8
MountainLine
  6
CONTINUOUS
 62
1
 10
46.87906773096972
 20
-1105.275682425948
 11
-457.82017782200563
 21
-1105.275682425948
  0
LINE
  8
ValleyLine
  6
CONTINUOUS
 62
5
 10
68.89061682199312
 20
-1239.3615224963962
 11
513.360351301375
 21
-1239.3615224963962
  0
LINE
  8
MountainLine
  6
CONTINUOUS
 62
1
 10
68.89061682199312
 20
-1239.3615224963962
 11
-513.3603513013751
 21
-1239.3615224963962
  0
LINE
  8
ValleyLine
  6
CONTINUOUS
 62
5
 10
91.18518992236926
 20
-1391.0303747617722
 11
576.183646899255
 21
-1391.0303747617722
  0
LINE
  8
MountainLine
  6
CONTINUOUS
 62
1
 10
91.18518992236926
 20
-1391.0303747617722
 11
-576.1836468992552
 21
-1391.0303747617722
  0
LINE
  8
MountainLine
  6
CONTINUOUS
 62
1
 10
108.01225375115864
 20
-1511.4468955997418
 11
626.0618029641244
 21
-1511.4468955997418
  0
LINE
  8
ValleyLine
  6
CONTINUOUS
 62
5
 10
108.01225375115864
 20
-1511.4468955997418
 11
-626.0618029641246
 21
-1511.4468955997418
  0
LINE
  8
ValleyLine
  6
CONTINUOUS
 62
5
 10
113.62127502742173
 20
-1551.585735879065
 11
642.6878549857474
 21
-1551.585735879065
  0
LINE
  8
MountainLine
  6
CONTINUOUS
 62
1
 10
113.62127502742173
 20
-1551.585735879065
 11
-642.6878549857478
 21
-1551.585735879065
  0
LINE
  8
ValleyLine
  6
CONTINUOUS
 62
5
 10
113.62127502742173
 20
-1551.585735879065
 11
642.6878549857474
 21
-1551.585735879065
  0
LINE
  8
MountainLine
  6
CONTINUOUS
 62
1
 10
113.62127502742173
 20
-1551.585735879065
 11
-642.6878549857478
 21
-1551.585735879065
  0
LINE
  8
ValleyLine
  6
CONTINUOUS
 62
5
 10
0.0
 20
-0.0
 11
0.0
 21
-0.0
  0
LINE
  8
ValleyLine
  6
CONTINUOUS
 62
5
 10
0.0
 20
-0.0
 11
11.006307049079615
 21
-4.640343018580348
  0
LINE
  8
ValleyLine
  6
CONTINUOUS
 62
5
 10
11.006307049079615
 20
-4.640343018580348
 11
44.02522819631846
 21
-18.561372074321394
  0
LINE
  8
ValleyLine
  6
CONTINUOUS
 62
5
 10
44.02522819631846
 20
-18.561372074321394
 11
86.54280883120819
 21
-36.687635805625284
  0
LINE
  8
ValleyLine
  6
CONTINUOUS
 62
5
 10
86.54280883120819
 20
-36.687635805625284
 11
126.32156898847391
 21
-54.22015749612762
  0
LINE
  8
ValleyLine
  6
CONTINUOUS
 62
5
 10
126.32156898847391
 20
-54.22015749612762
 11
162.80458842320326
 21
-71.67455611932726
  0
LINE
  8
ValleyLine
  6
CONTINUOUS
 62
5
 10
162.80458842320326
 20
-71.67455611932726
 11
196.6729879488803
 21
-90.80449170711955
  0
LINE
  8
ValleyLine
  6
CONTINUOUS
 62
5
 10
196.6729879488803
 20
-90.80449170711955
 11
228.09815957051387
 21
-112.73782704339827
  0
LINE
  8
ValleyLine
  6
CONTINUOUS
 62
5
 10
228.09815957051387
 20
-112.73782704339827
 11
257.52353694580285
 21
-138.87446656474734
  0
LINE
  8
ValleyLine
  6
CONTINUOUS
 62
5
 10
257.52353694580285
 20
-138.87446656474734
 11
285.7973651394191
 21
-171.01912611472363
  0
LINE
  8
ValleyLine
  6
CONTINUOUS
 62
5
 10
285.7973651394191
 20
-171.01912611472363
 11
314.1442162316983
 21
-211.3528485525478
  0
LINE
  8
ValleyLine
  6
CONTINUOUS
 62
5
 10
314.1442162316983
 20
-211.3528485525478
 11
342.40987183423704
 21
-258.0380814678645
  0
LINE
  8
ValleyLine
  6
CONTINUOUS
 62
5
 10
342.40987183423704
 20
-258.0380814678645
 11
369.6417225077329
 21
-308.4388813994192
  0
LINE
  8
ValleyLine
  6
CONTINUOUS
 62
5
 10
369.6417225077329
 20
-308.4388813994192
 11
394.74183333144543
 21
-359.77397940451937
  0
LINE
  8
ValleyLine
  6
CONTINUOUS
 62
5
 10
394.74183333144543
 20
-359.77397940451937
 11
416.9366889856539
 21
-409.5865261414926
  0
LINE
  8
ValleyLine
  6
CONTINUOUS
 62
5
 10
416.9366889856539
 20
-409.5865261414926
 11
424.91128685913947
 21
-428.40443355735476
  0
LINE
  8
ValleyLine
  6
CONTINUOUS
 62
5
 10
424.91128685913947
 20
-428.40443355735476
 11
484.4774322596217
 21
-571.806099715004
  0
LINE
  8
ValleyLine
  6
CONTINUOUS
 62
5
 10
484.4774322596217
 20
-571.806099715004
 11
628.9679589608729
 21
-632.4611056590883
  0
LINE
  8
ValleyLine
  6
CONTINUOUS
 62
5
 10
628.9679589608729
 20
-632.4611056590883
 11
653.5768197757247
 21
-647.5365869433942
  0
LINE
  8
ValleyLine
  6
CONTINUOUS
 62
5
 10
653.5768197757247
 20
-647.5365869433942
 11
722.7698159437944
 21
-687.0014492318609
  0
LINE
  8
ValleyLine
  6
CONTINUOUS
 62
5
 10
722.7698159437944
 20
-687.0014492318609
 11
814.6964368122489
 21
-748.3994234357046
  0
LINE
  8
ValleyLine
  6
CONTINUOUS
 62
5
 10
814.6964368122489
 20
-748.3994234357046
 11
925.0739592138409
 21
-827.6479145839303
  0
LINE
  8
ValleyLine
  6
CONTINUOUS
 62
5
 10
925.0739592138409
 20
-827.6479145839303
 11
1048.0846769684042
 21
-919.1293446926231
  0
LINE
  8
ValleyLine
  6
CONTINUOUS
 62
5
 10
1048.0846769684042
 20
-919.1293446926231
 11
1145.1305463606195
 21
-992.3781522032467
  0
LINE
  8
ValleyLine
  6
CONTINUOUS
 62
5
 10
1145.1305463606195
 20
-992.3781522032467
 11
1177.4791694913579
 21
-1016.7944213734547
  0
LINE
  8
ValleyLine
  6
CONTINUOUS
 62
5
 10
1177.4791694913579
 20
-1016.7944213734547
 11
1177.4791694913579
 21
-1016.7944213734547
  0
LINE
  8
ValleyLine
  6
CONTINUOUS
 62
5
 10
1177.4791694913579
 20
-1016.7944213734547
 11
1177.4791694913579
 21
-1016.7944213734547
  0
LINE
  8
ValleyLine
  6
CONTINUOUS
 62
5
 10
0.0
 20
-0.0
 11
0.0
 21
-0.0
  0
LINE
  8
MountainLine
  6
CONTINUOUS
 62
1
 10
0.0
 20
-0.0
 11
0.0
 21
-0.0
  0
LINE
  8
ValleyLine
  6
CONTINUOUS
 62
5
 10
0.0
 20
-0.0
 11
0.0
 21
-0.0
  0
LINE
  8
MountainLine
  6
CONTINUOUS
 62
1
 10
0.0
 20
-0.0
 11
0.0
 21
-0.0
  0
LINE
  8
ValleyLine
  6
CONTINUOUS
 62
5
 10
11.006307049079615
 20
-4.640343018580348
 11
11.063852365695311
 21
-4.582797701964651
  0
LINE
  8
MountainLine
  6
CONTINUOUS
 62
1
 10
11.006307049079615
 20
-4.640343018580348
 11
4.58279770196465
 21
-11.063852365695311
  0
LINE
  8
ValleyLine
  6
CONTINUOUS
 62
5
 10
44.02522819631846
 20
-18.561372074321394
 11
44.25540946278125
 21
-18.331190807858604
  0
LINE
  8
MountainLine
  6
CONTINUOUS
 62
1
 10
44.02522819631846
 20
-18.561372074321394
 11
18.3311908078586
 21
-44.25540946278125
  0
LINE
  8
ValleyLine
  6
CONTINUOUS
 62
5
 10
86.54280883120819
 20
-36.687635805625284
 11
87.13708305133837
 21
-36.09336158549512
  0
LINE
  8
MountainLine
  6
CONTINUOUS
 62
1
 10
86.54280883120819
 20
-36.687635805625284
 11
36.0933615854951
 21
-87.13708305133837
  0
LINE
  8
ValleyLine
  6
CONTINUOUS
 62
5
 10
126.32156898847391
 20
-54.22015749612762
 11
127.66227908438864
 21
-52.87944740021289
  0
LINE
  8
MountainLine
  6
CONTINUOUS
 62
1
 10
126.32156898847391
 20
-54.22015749612762
 11
52.87944740021288
 21
-127.66227908438864
  0
LINE
  8
ValleyLine
  6
CONTINUOUS
 62
5
 10
162.80458842320326
 20
-71.67455611932726
 11
165.80179315284397
 21
-68.67735138968655
  0
LINE
  8
MountainLine
  6
CONTINUOUS
 62
1
 10
162.80458842320326
 20
-71.67455611932726
 11
68.67735138968652
 21
-165.80179315284397
  0
LINE
  8
ValleyLine
  6
CONTINUOUS
 62
5
 10
196.6729879488803
 20
-90.80449170711955
 11
203.2772753031752
 21
-84.20020435282461
  0
LINE
  8
MountainLine
  6
CONTINUOUS
 62
1
 10
196.6729879488803
 20
-90.80449170711955
 11
84.20020435282458
 21
-203.27727530317526
  0
LINE
  8
ValleyLine
  6
CONTINUOUS
 62
5
 10
228.09815957051387
 20
-112.73782704339827
 11
241.00743740710462
 21
-99.82854920680757
  0
LINE
  8
MountainLine
  6
CONTINUOUS
 62
1
 10
228.09815957051387
 20
-112.73782704339827
 11
99.8285492068075
 21
-241.00743740710462
  0
LINE
  8
ValleyLine
  6
CONTINUOUS
 62
5
 10
257.52353694580285
 20
-138.87446656474734
 11
280.2957163311189
 21
-116.1022871794313
  0
LINE
  8
MountainLine
  6
CONTINUOUS
 62
1
 10
257.52353694580285
 20
-138.87446656474734
 11
116.10228717943124
 21
-280.2957163311189
  0
LINE
  8
ValleyLine
  6
CONTINUOUS
 62
5
 10
285.7973651394191
 20
-171.01912611472363
 11
323.0180387236495
 21
-133.79845253049325
  0
LINE
  8
MountainLine
  6
CONTINUOUS
 62
1
 10
285.7973651394191
 20
-171.01912611472363
 11
133.7984525304932
 21
-323.0180387236495
  0
LINE
  8
ValleyLine
  6
CONTINUOUS
 62
5
 10
314.1442162316983
 20
-211.3528485525478
 11
371.5825380025669
 21
-153.91452678167926
  0
LINE
  8
MountainLine
  6
CONTINUOUS
 62
1
 10
314.1442162316983
 20
-211.3528485525478
 11
153.91452678167917
 21
-371.5825380025669
  0
LINE
  8
ValleyLine
  6
CONTINUOUS
 62
5
 10
342.40987183423704
 20
-258.0380814678645
 11
424.5808195294994
 21
-175.86713377260216
  0
LINE
  8
MountainLine
  6
CONTINUOUS
 62
1
 10
342.40987183423704
 20
-258.0380814678645
 11
175.8671337726021
 21
-424.5808195294994
  0
LINE
  8
ValleyLine
  6
CONTINUOUS
 62
5
 10
369.6417225077329
 20
-308.4388813994192
 11
479.4753932138166
 21
-198.6052106933355
  0
LINE
  8
MountainLine
  6
CONTINUOUS
 62
1
 10
369.6417225077329
 20
-308.4388813994192
 11
198.6052106933355
 21
-479.4753932138166
  0
LINE
  8
ValleyLine
  6
CONTINUOUS
 62
5
 10
394.74183333144543
 20
-359.77397940451937
 11
533.5232476980799
 21
-220.9925650378849
  0
LINE
  8
MountainLine
  6
CONTINUOUS
 62
1
 10
394.74183333144543
 20
-359.77397940451937
 11
220.99256503788487
 21
-533.5232476980799
  0
LINE
  8
ValleyLine
  6
CONTINUOUS
 62
5
 10
416.9366889856539
 20
-409.5865261414926
 11
584.4401702245128
 21
-242.08304490263362
  0
LINE
  8
MountainLine
  6
CONTINUOUS
 62
1
 10
416.9366889856539
 20
-409.5865261414926
 11
242.08304490263353
 21
-584.4401702245128
  0
LINE
  8
ValleyLine
  6
CONTINUOUS
 62
5
 10
424.91128685913947
 20
-428.40443355735476
 11
603.3853323995871
 21
-249.93038801690713
  0
LINE
  8
MountainLine
  6
CONTINUOUS
 62
1
 10
424.91128685913947
 20
-428.40443355735476
 11
249.93038801690702
 21
-603.3853323995871
  0
LINE
  8
MountainLine
  6
CONTINUOUS
 62
1
 10
484.4774322596217
 20
-571.806099715004
 11
746.9052483149353
 21
-309.3782836596905
  0
LINE
  8
ValleyLine
  6
CONTINUOUS
 62
5
 10
484.4774322596217
 20
-571.806099715004
 11
309.37828365969045
 21
-746.9052483149353
  0
LINE
  8
ValleyLine
  6
CONTINUOUS
 62
5
 10
628.9679589608729
 20
-632.4611056590883
 11
891.9650455785783
 21
-369.4640190413831
  0
LINE
  8
MountainLine
  6
CONTINUOUS
 62
1
 10
628.9679589608729
 20
-632.4611056590883
 11
369.46401904138287
 21
-891.9650455785783
  0
LINE
  8
MountainLine
  6
CONTINUOUS
 62
1
 10
653.5768197757247
 20
-647.5365869433942
 11
920.0261129838194
 21
-381.0872937352996
  0
LINE
  8
ValleyLine
  6
CONTINUOUS
 62
5
 10
653.5768197757247
 20
-647.5365869433942
 11
381.08729373529945
 21
-920.0261129838195
  0
LINE
  8
ValleyLine
  6
CONTINUOUS
 62
5
 10
722.7698159437944
 20
-687.0014492318609
 11
996.8588215276443
 21
-412.91244364801105
  0
LINE
  8
MountainLine
  6
CONTINUOUS
 62
1
 10
722.7698159437944
 20
-687.0014492318609
 11
412.9124436480109
 21
-996.8588215276444
  0
LINE
  8
ValleyLine
  6
CONTINUOUS
 62
5
 10
814.6964368122489
 20
-748.3994234357046
 11
1105.275682425948
 21
-457.8201778220057
  0
LINE
  8
MountainLine
  6
CONTINUOUS
 62
1
 10
814.6964368122489
 20
-748.3994234357046
 11
457.82017782200546
 21
-1105.275682425948
  0
LINE
  8
ValleyLine
  6
CONTINUOUS
 62
5
 10
925.0739592138409
 20
-827.6479145839303
 11
1239.361522496396
 21
-513.3603513013752
  0
LINE
  8
MountainLine
  6
CONTINUOUS
 62
1
 10
925.0739592138409
 20
-827.6479145839303
 11
513.3603513013749
 21
-1239.3615224963962
  0
LINE
  8
ValleyLine
  6
CONTINUOUS
 62
5
 10
1048.0846769684042
 20
-919.1293446926231
 11
1391.0303747617722
 21
-576.1836468992552
  0
LINE
  8
MountainLine
  6
CONTINUOUS
 62
1
 10
1048.0846769684042
 20
-919.1293446926231
 11
576.183646899255
 21
-1391.0303747617722
  0
LINE
  8
MountainLine
  6
CONTINUOUS
 62
1
 10
1145.1305463606195
 20
-992.3781522032467
 11
1511.4468955997415
 21
-626.0618029641246
  0
LINE
  8
ValleyLine
  6
CONTINUOUS
 62
5
 10
1145.1305463606195
 20
-992.3781522032467
 11
626.0618029641245
 21
-1511.4468955997418
  0
LINE
  8
ValleyLine
  6
CONTINUOUS
 62
5
 10
1177.4791694913579
 20
-1016.7944213734547
 11
1551.5857358790645
 21
-642.6878549857479
  0
LINE
  8
MountainLine
  6
CONTINUOUS
 62
1
 10
1177.4791694913579
 20
-1016.7944213734547
 11
642.6878549857474
 21
-1551.585735879065
  0
LINE
  8
ValleyLine
  6
CONTINUOUS
 62
5
 10
1177.4791694913579
 20
-1016.7944213734547
 11
1551.5857358790645
 21
-642.6878549857479
  0
LINE
  8
MountainLine
  6
CONTINUOUS
 62
1
 10
1177.4791694913579
 20
-1016.7944213734547
 11
642.6878549857474
 21
-1551.585735879065
  0
LINE
  8
ValleyLine
  6
CONTINUOUS
 62
5
 10
0.0
 20
-0.0
 11
0.0
 21
-0.0
  0
LINE
  8
ValleyLine
  6
CONTINUOUS
 62
5
 10
0.0
 20
-0.0
 11
11.063852365695311
 21
4.501416334755676
  0
LINE
  8
ValleyLine
  6
CONTINUOUS
 62
5
 10
11.063852365695311
 20
4.501416334755676
 11
44.25540946278125
 21
18.005665339022705
  0
LINE
  8
ValleyLine
  6
CONTINUOUS
 62
5
 10
44.25540946278125
 20
18.005665339022705
 11
87.13708305133837
 21
35.25293092361831
  0
LINE
  8
ValleyLine
  6
CONTINUOUS
 62
5
 10
87.13708305133837
 20
35.25293092361831
 11
127.66227908438864
 21
50.98339699935971
  0
LINE
  8
ValleyLine
  6
CONTINUOUS
 62
5
 10
127.66227908438864
 20
50.98339699935971
 11
165.80179315284397
 21
64.43866381181984
  0
LINE
  8
ValleyLine
  6
CONTINUOUS
 62
5
 10
165.80179315284397
 20
64.43866381181984
 11
203.27727530317526
 21
74.86033160657153
  0
LINE
  8
ValleyLine
  6
CONTINUOUS
 62
5
 10
203.27727530317526
 20
74.86033160657153
 11
241.00743740710462
 21
81.57207340985848
  0
LINE
  8
ValleyLine
  6
CONTINUOUS
 62
5
 10
241.00743740710462
 20
81.57207340985848
 11
280.2957163311189
 21
83.89756224792428
  0
LINE
  8
ValleyLine
  6
CONTINUOUS
 62
5
 10
280.2957163311189
 20
83.89756224792428
 11
323.0180387236495
 21
81.1604711470126
  0
LINE
  8
ValleyLine
  6
CONTINUOUS
 62
5
 10
323.0180387236495
 20
81.1604711470126
 11
371.5825380025669
 21
72.684473133367
  0
LINE
  8
ValleyLine
  6
CONTINUOUS
 62
5
 10
371.5825380025669
 20
72.684473133367
 11
424.5808195294994
 21
59.65986510891184
  0
LINE
  8
ValleyLine
  6
CONTINUOUS
 62
5
 10
424.5808195294994
 20
59.65986510891184
 11
479.4753932138166
 21
43.276943975571385
  0
LINE
  8
ValleyLine
  6
CONTINUOUS
 62
5
 10
479.4753932138166
 20
43.276943975571385
 11
533.5232476980799
 21
24.726006635269943
  0
LINE
  8
ValleyLine
  6
CONTINUOUS
 62
5
 10
533.5232476980799
 20
24.726006635269943
 11
584.4401702245129
 21
5.197349989931811
  0
LINE
  8
ValleyLine
  6
CONTINUOUS
 62
5
 10
584.4401702245129
 20
5.197349989931811
 11
603.3853323995871
 21
-2.470027717987505
  0
LINE
  8
ValleyLine
  6
CONTINUOUS
 62
5
 10
603.3853323995871
 20
-2.470027717987505
 11
746.9052483149353
 21
-61.75069294968587
  0
LINE
  8
ValleyLine
  6
CONTINUOUS
 62
5
 10
746.9052483149353
 20
-61.75069294968587
 11
891.9650455785783
 21
-2.4700277179875405
  0
LINE
  8
ValleyLine
  6
CONTINUOUS
 62
5
 10
891.9650455785783
 20
-2.4700277179875405
 11
920.0261129838195
 21
4.271089595686486
  0
LINE
  8
ValleyLine
  6
CONTINUOUS
 62
5
 10
920.0261129838195
 20
4.271089595686486
 11
996.8588215276443
 21
25.29205465397534
  0
LINE
  8
ValleyLine
  6
CONTINUOUS
 62
5
 10
996.8588215276443
 20
25.29205465397534
 11
1105.275682425948
 21
46.87906773096966
  0
LINE
  8
ValleyLine
  6
CONTINUOUS
 62
5
 10
1105.275682425948
 20
46.87906773096966
 11
1239.3615224963962
 21
68.89061682199305
  0
LINE
  8
ValleyLine
  6
CONTINUOUS
 62
5
 10
1239.3615224963962
 20
68.89061682199305
 11
1391.0303747617722
 21
91.18518992236918
  0
LINE
  8
ValleyLine
  6
CONTINUOUS
 62
5
 10
1391.0303747617722
 20
91.18518992236918
 11
1511.4468955997418
 21
108.01225375115854
  0
LINE
  8
ValleyLine
  6
CONTINUOUS
 62
5
 10
1511.4468955997418
 20
108.01225375115854
 11
1551.585735879065
 21
113.62127502742165
  0
LINE
  8
ValleyLine
  6
CONTINUOUS
 62
5
 10
1551.585735879065
 20
113.62127502742165
 11
1551.585735879065
 21
113.62127502742165
  0
LINE
  8
ValleyLine
  6
CONTINUOUS
 62
5
 10
1551.585735879065
 20
113.62127502742165
 11
1551.585735879065
 21
113.62127502742165
  0
LINE
  8
ValleyLine
  6
CONTINUOUS
 62
5
 10
0.0
 20
-0.0
 11
0.0
 21
-0.0
  0
LINE
  8
MountainLine
  6
CONTINUOUS
 62
1
 10
0.0
 20
-0.0
 11
0.0
 21
-0.0
  0
LINE
  8
ValleyLine
  6
CONTINUOUS
 62
5
 10
0.0
 20
-0.0
 11
0.0
 21
-0.0
  0
LINE
  8
MountainLine
  6
CONTINUOUS
 62
1
 10
0.0
 20
-0.0
 11
0.0
 21
-0.0
  0
LINE
  8
ValleyLine
  6
CONTINUOUS
 62
5
 10
11.063852365695311
 20
4.501416334755676
 11
11.063852365695311
 21
4.5827977019646475
  0
LINE
  8
MountainLine
  6
CONTINUOUS
 62
1
 10
11.063852365695311
 20
4.501416334755676
 11
11.063852365695311
 21
-4.582797701964651
  0
LINE
  8
ValleyLine
  6
CONTINUOUS
 62
5
 10
44.25540946278125
 20
18.005665339022705
 11
44.25540946278125
 21
18.331190807858594
  0
LINE
  8
MountainLine
  6
CONTINUOUS
 62
1
 10
44.25540946278125
 20
18.005665339022705
 11
44.25540946278125
 21
-18.331190807858608
  0
LINE
  8
ValleyLine
  6
CONTINUOUS
 62
5
 10
87.13708305133837
 20
35.25293092361831
 11
87.13708305133837
 21
36.093361585495096
  0
LINE
  8
MountainLine
  6
CONTINUOUS
 62
1
 10
87.13708305133837
 20
35.25293092361831
 11
87.13708305133837
 21
-36.093361585495124
  0
LINE
  8
ValleyLine
  6
CONTINUOUS
 62
5
 10
127.66227908438864
 20
50.98339699935971
 11
127.66227908438864
 21
52.87944740021286
  0
LINE
  8
MountainLine
  6
CONTINUOUS
 62
1
 10
127.66227908438864
 20
50.98339699935971
 11
127.66227908438864
 21
-52.8794474002129
  0
LINE
  8
ValleyLine
  6
CONTINUOUS
 62
5
 10
165.80179315284397
 20
64.43866381181984
 11
165.80179315284397
 21
68.67735138968652
  0
LINE
  8
MountainLine
  6
CONTINUOUS
 62
1
 10
165.80179315284397
 20
64.43866381181984
 11
165.80179315284397
 21
-68.67735138968655
  0
LINE
  8
ValleyLine
  6
CONTINUOUS
 62
5
 10
203.27727530317526
 20
74.86033160657153
 11
203.27727530317526
 21
84.20020435282457
  0
LINE
  8
MountainLine
  6
CONTINUOUS
 62
1
 10
203.27727530317526
 20
74.86033160657153
 11
203.27727530317526
 21
-84.2002043528246
  0
LINE
  8
ValleyLine
  6
CONTINUOUS
 62
5
 10
241.00743740710462
 20
81.57207340985848
 11
241.00743740710462
 21
99.8285492068075
  0
LINE
  8
MountainLine
  6
CONTINUOUS
 62
1
 10
241.00743740710462
 20
81.57207340985848
 11
241.00743740710462
 21
-99.82854920680757
  0
LINE
  8
ValleyLine
  6
CONTINUOUS
 62
5
 10
280.2957163311189
 20
83.89756224792428
 11
280.2957163311189
 21
116.10228717943123
  0
LINE
  8
MountainLine
  6
CONTINUOUS
 62
1
 10
280.2957163311189
 20
83.89756224792428
 11
280.2957163311189
 21
-116.1022871794313
  0
LINE
  8
ValleyLine
  6
CONTINUOUS
 62
5
 10
323.0180387236495
 20
81.1604711470126
 11
323.0180387236495
 21
133.7984525304932
  0
LINE
  8
MountainLine
  6
CONTINUOUS
 62
1
 10
323.0180387236495
 20
81.1604711470126
 11
323.0180387236495
 21
-133.79845253049325
  0
LINE
  8
ValleyLine
  6
CONTINUOUS
 62
5
 10
371.5825380025669
 20
72.684473133367
 11
371.5825380025669
 21
153.91452678167914
  0
LINE
  8
MountainLine
  6
CONTINUOUS
 62
1
 10
371.5825380025669
 20
72.684473133367
 11
371.5825380025669
 21
-153.91452678167923
  0
LINE
  8
ValleyLine
  6
CONTINUOUS
 62
5
 10
424.5808195294994
 20
59.65986510891184
 11
424.5808195294994
 21
175.86713377260205
  0
LINE
  8
MountainLine
  6
CONTINUOUS
 62
1
 10
424.5808195294994
 20
59.65986510891184
 11
424.5808195294994
 21
-175.8671337726022
  0
LINE
  8
ValleyLine
  6
CONTINUOUS
 62
5
 10
479.4753932138166
 20
43.276943975571385
 11
479.4753932138166
 21
198.6052106933354
  0
LINE
  8
MountainLine
  6
CONTINUOUS
 62
1
 10
479.4753932138166
 20
43.276943975571385
 11
479.4753932138166
 21
-198.60521069333555
  0
LINE
  8
ValleyLine
  6
CONTINUOUS
 62
5
 10
533.5232476980799
 20
24.726006635269943
 11
533.5232476980799
 21
220.99256503788482
  0
LINE
  8
MountainLine
  6
CONTINUOUS
 62
1
 10
533.5232476980799
 20
24.726006635269943
 11
533.5232476980799
 21
-220.99256503788493
  0
LINE
  8
ValleyLine
  6
CONTINUOUS
 62
5
 10
584.4401702245129
 20
5.197349989931811
 11
584.4401702245129
 21
242.0830449026335
  0
LINE
  8
MountainLine
  6
CONTINUOUS
 62
1
 10
584.4401702245129
 20
5.197349989931811
 11
584.4401702245129
 21
-242.08304490263362
  0
LINE
  8
ValleyLine
  6
CONTINUOUS
 62
5
 10
603.3853323995871
 20
-2.470027717987505
 11
603.3853323995871
 21
249.93038801690702
  0
LINE
  8
MountainLine
  6
CONTINUOUS
 62
1
 10
603.3853323995871
 20
-2.470027717987505
 11
603.3853323995871
 21
-249.93038801690716
  0
LINE
  8
MountainLine
  6
CONTINUOUS
 62
1
 10
746.9052483149353
 20
-61.75069294968587
 11
746.9052483149353
 21
309.3782836596904
  0
LINE
  8
ValleyLine
  6
CONTINUOUS
 62
5
 10
746.9052483149353
 20
-61.75069294968587
 11
746.9052483149353
 21
-309.3782836596905
  0
LINE
  8
ValleyLine
  6
CONTINUOUS
 62
5
 10
891.9650455785783
 20
-2.4700277179875405
 11
891.9650455785783
 21
369.46401904138287
  0
LINE
  8
MountainLine
  6
CONTINUOUS
 62
1
 10
891.9650455785783
 20
-2.4700277179875405
 11
891.9650455785783
 21
-369.46401904138315
  0
LINE
  8
MountainLine
  6
CONTINUOUS
 62
1
 10
920.0261129838195
 20
4.271089595686486
 11
920.0261129838195
 21
381.08729373529934
  0
LINE
  8
ValleyLine
  6
CONTINUOUS
 62
5
 10
920.0261129838195
 20
4.271089595686486
 11
920.0261129838195
 21
-381.0872937352996
  0
LINE
  8
ValleyLine
  6
CONTINUOUS
 62
5
 10
996.8588215276443
 20
25.29205465397534
 11
996.8588215276443
 21
412.9124436480107
  0
LINE
  8
MountainLine
  6
CONTINUOUS
 62
1
 10
996.8588215276443
 20
25.29205465397534
 11
996.8588215276443
 21
-412.912443648011
  0
LINE
  8
ValleyLine
  6
CONTINUOUS
 62
5
 10
1105.275682425948
 20
46.87906773096966
 11
1105.275682425948
 21
457.8201778220054
  0
LINE
  8
MountainLine
  6
CONTINUOUS
 62
1
 10
1105.275682425948
 20
46.87906773096966
 11
1105.275682425948
 21
-457.8201778220057
  0
LINE
  8
ValleyLine
  6
CONTINUOUS
 62
5
 10
1239.3615224963962
 20
68.89061682199305
 11
1239.3615224963962
 21
513.3603513013749
  0
LINE
  8
MountainLine
  6
CONTINUOUS
 62
1
 10
1239.3615224963962
 20
68.89061682199305
 11
1239.3615224963962
 21
-513.3603513013752
  0
LINE
  8
ValleyLine
  6
CONTINUOUS
 62
5
 10
1391.0303747617722
 20
91.18518992236918
 11
1391.0303747617722
 21
576.1836468992549
  0
LINE
  8
MountainLine
  6
CONTINUOUS
 62
1
 10
1391.0303747617722
 20
91.18518992236918
 11
1391.0303747617722
 21
-576.1836468992553
  0
LINE
  8
MountainLine
  6
CONTINUOUS
 62
1
 10
1511.4468955997418
 20
108.01225375115854
 11
1511.4468955997418
 21
626.0618029641244
  0
LINE
  8
ValleyLine
  6
CONTINUOUS
 62
5
 10
1511.4468955997418
 20
108.01225375115854
 11
1511.4468955997418
 21
-626.0618029641246
  0
LINE
  8
ValleyLine
  6
CONTINUOUS
 62
5
 10
1551.585735879065
 20
113.62127502742165
 11
1551.585735879065
 21
642.6878549857474
  0
LINE
  8
MountainLine
  6
CONTINUOUS
 62
1
 10
1551.585735879065
 20
113.62127502742165
 11
1551.585735879065
 21
-642.6878549857478
  0
LINE
  8
ValleyLine
  6
CONTINUOUS
 62
5
 10
1551.585735879065
 20
113.62127502742165
 11
1551.585735879065
 21
642.6878549857474
  0
LINE
  8
MountainLine
  6
CONTINUOUS
 62
1
 10
1551.585735879065
 20
113.62127502742165
 11
1551.585735879065
 21
-642.6878549857478
  0
LINE
  8
ValleyLine
  6
CONTINUOUS
 62
5
 10
0.0
 20
0.0
 11
0.0
 21
0.0
  0
LINE
  8
ValleyLine
  6
CONTINUOUS
 62
5
 10
0.0
 20
0.0
 11
4.6403430185803485
 21
11.006307049079615
  0
LINE
  8
ValleyLine
  6
CONTINUOUS
 62
5
 10
4.6403430185803485
 20
11.006307049079615
 11
18.561372074321397
 21
44.025228196318466
  0
LINE
  8
ValleyLine
  6
CONTINUOUS
 62
5
 10
18.561372074321397
 20
44.025228196318466
 11
36.6876358056253
 21
86.5428088312082
  0
LINE
  8
ValleyLine
  6
CONTINUOUS
 62
5
 10
36.6876358056253
 20
86.5428088312082
 11
54.220157496127634
 21
126.32156898847393
  0
LINE
  8
ValleyLine
  6
CONTINUOUS
 62
5
 10
54.220157496127634
 20
126.32156898847393
 11
71.67455611932728
 21
162.80458842320326
  0
LINE
  8
ValleyLine
  6
CONTINUOUS
 62
5
 10
71.67455611932728
 20
162.80458842320326
 11
90.80449170711957
 21
196.6729879488803
  0
LINE
  8
ValleyLine
  6
CONTINUOUS
 62
5
 10
90.80449170711957
 20
196.6729879488803
 11
112.73782704339831
 21
228.09815957051387
  0
LINE
  8
ValleyLine
  6
CONTINUOUS
 62
5
 10
112.73782704339831
 20
228.09815957051387
 11
138.87446656474737
 21
257.52353694580285
  0
LINE
  8
ValleyLine
  6
CONTINUOUS
 62
5
 10
138.87446656474737
 20
257.52353694580285
 11
171.01912611472366
 21
285.7973651394191
  0
LINE
  8
ValleyLine
  6
CONTINUOUS
 62
5
 10
171.01912611472366
 20
285.7973651394191
 11
211.35284855254784
 21
314.1442162316983
  0
LINE
  8
ValleyLine
  6
CONTINUOUS
 62
5
 10
211.35284855254784
 20
314.1442162316983
 11
258.0380814678646
 21
342.40987183423704
  0
LINE
  8
ValleyLine
  6
CONTINUOUS
 62
5
 10
258.0380814678646
 20
342.40987183423704
 11
308.43888139941924
 21
369.6417225077329
  0
LINE
  8
ValleyLine
  6
CONTINUOUS
 62
5
 10
308.43888139941924
 20
369.6417225077329
 11
359.7739794045195
 21
394.74183333144543
  0
LINE
  8
ValleyLine
  6
CONTINUOUS
 62
5
 10
359.7739794045195
 20
394.74183333144543
 11
409.58652614149264
 21
416.9366889856539
  0
LINE
  8
ValleyLine
  6
CONTINUOUS
 62
5
 10
409.58652614149264
 20
416.9366889856539
 11
428.4044335573548
 21
424.91128685913947
  0
LINE
  8
ValleyLine
  6
CONTINUOUS
 62
5
 10
428.4044335573548
 20
424.91128685913947
 11
571.8060997150042
 21
484.4774322596217
  0
LINE
  8
ValleyLine
  6
CONTINUOUS
 62
5
 10
571.8060997150042
 20
484.4774322596217
 11
632.4611056590884
 21
628.9679589608729
  0
LINE
  8
ValleyLine
  6
CONTINUOUS
 62
5
 10
632.4611056590884
 20
628.9679589608729
 11
647.5365869433944
 21
653.5768197757247
  0
LINE
  8
ValleyLine
  6
CONTINUOUS
 62
5
 10
647.5365869433944
 20
653.5768197757247
 11
687.0014492318609
 21
722.7698159437944
  0
LINE
  8
ValleyLine
  6
CONTINUOUS
 62
5
 10
687.0014492318609
 20
722.7698159437944
 11
748.3994234357048
 21
814.6964368122489
  0
LINE
  8
ValleyLine
  6
CONTINUOUS
 62
5
 10
748.3994234357048
 20
814.6964368122489
 11
827.6479145839305
 21
925.0739592138409
  0
LINE
  8
ValleyLine
  6
CONTINUOUS
 62
5
 10
827.6479145839305
 20
925.0739592138409
 11
919.1293446926232
 21
1048.0846769684042
  0
LINE
  8
ValleyLine
  6
CONTINUOUS
 62
5
 10
919.1293446926232
 20
1048.0846769684042
 11
992.378152203247
 21
1145.1305463606195
  0
LINE
  8
ValleyLine
  6
CONTINUOUS
 62
5
 10
992.378152203247
 20
1145.1305463606195
 11
1016.7944213734548
 21
1177.4791694913579
  0
LINE
  8
ValleyLine
  6
CONTINUOUS
 62
5
 10
1016.7944213734548
 20
1177.4791694913579
 11
1016.7944213734548
 21
1177.4791694913579
  0
LINE
  8
ValleyLine
  6
CONTINUOUS
 62
5
 10
1016.7944213734548
 20
1177.4791694913579
 11
1016.7944213734548
 21
1177.4791694913579
  0
LINE
  8
ValleyLine
  6
CONTINUOUS
 62
5
 10
0.0
 20
0.0
 11
0.0
 21
0.0
  0
LINE
  8
MountainLine
  6
CONTINUOUS
 62
1
 10
0.0
 20
0.0
 11
0.0
 21
-0.0
  0
LINE
  8
ValleyLine
  6
CONTINUOUS
 62
5
 10
0.0
 20
0.0
 11
0.0
 21
0.0
  0
LINE
  8
MountainLine
  6
CONTINUOUS
 62
1
 10
0.0
 20
0.0
 11
0.0
 21
-0.0
  0
LINE
  8
ValleyLine
  6
CONTINUOUS
 62
5
 10
4.6403430185803485
 20
11.006307049079615
 11
4.582797701964652
 21
11.063852365695311
  0
LINE
  8
MountainLine
  6
CONTINUOUS
 62
1
 10
4.6403430185803485
 20
11.006307049079615
 11
11.063852365695313
 21
4.582797701964649
  0
LINE
  8
ValleyLine
  6
CONTINUOUS
 62
5
 10
18.561372074321397
 20
44.025228196318466
 11
18.33119080785861
 21
44.25540946278125
  0
LINE
  8
MountainLine
  6
CONTINUOUS
 62
1
 10
18.561372074321397
 20
44.025228196318466
 11
44.25540946278126
 21
18.331190807858597
  0
LINE
  8
ValleyLine
  6
CONTINUOUS
 62
5
 10
36.6876358056253
 20
86.5428088312082
 11
36.093361585495124
 21
87.13708305133837
  0
LINE
  8
MountainLine
  6
CONTINUOUS
 62
1
 10
36.6876358056253
 20
86.5428088312082
 11
87.13708305133837
 21
36.093361585495096
  0
LINE
  8
ValleyLine
  6
CONTINUOUS
 62
5
 10
54.220157496127634
 20
126.32156898847393
 11
52.879447400212904
 21
127.66227908438864
  0
LINE
  8
MountainLine
  6
CONTINUOUS
 62
1
 10
54.220157496127634
 20
126.32156898847393
 11
127.66227908438864
 21
52.87944740021288
  0
LINE
  8
ValleyLine
  6
CONTINUOUS
 62
5
 10
71.67455611932728
 20
162.80458842320326
 11
68.67735138968656
 21
165.80179315284397
  0
LINE
  8
MountainLine
  6
CONTINUOUS
 62
1
 10
71.67455611932728
 20
162.80458842320326
 11
165.80179315284397
 21
68.67735138968652
  0
LINE
  8
ValleyLine
  6
CONTINUOUS
 62
5
 10
90.80449170711957
 20
196.6729879488803
 11
84.20020435282464
 21
203.27727530317526
  0
LINE
  8
MountainLine
  6
CONTINUOUS
 62
1
 10
90.80449170711957
 20
196.6729879488803
 11
203.27727530317526
 21
84.20020435282456
  0
LINE
  8
ValleyLine
  6
CONTINUOUS
 62
5
 10
112.73782704339831
 20
228.09815957051387
 11
99.8285492068076
 21
241.00743740710462
  0
LINE
  8
MountainLine
  6
CONTINUOUS
 62
1
 10
112.73782704339831
 20
228.09815957051387
 11
241.00743740710465
 21
99.8285492068075
  0
LINE
  8
ValleyLine
  6
CONTINUOUS
 62
5
 10
138.87446656474737
 20
257.52353694580285
 11
116.10228717943133
 21
280.2957163311189
  0
LINE
  8
MountainLine
  6
CONTINUOUS
 62
1
 10
138.87446656474737
 20
257.52353694580285
 11
280.2957163311189
 21
116.10228717943124
  0
LINE
  8
ValleyLine
  6
CONTINUOUS
 62
5
 10
171.01912611472366
 20
285.7973651394191
 11
133.79845253049328
 21
323.0180387236495
  0
LINE
  8
MountainLine
  6
CONTINUOUS
 62
1
 10
171.01912611472366
 20
285.7973651394191
 11
323.0180387236495
 21
133.7984525304932
  0
LINE
  8
ValleyLine
  6
CONTINUOUS
 62
5
 10
211.35284855254784
 20
314.1442162316983
 11
153.91452678167929
 21
371.5825380025669
  0
LINE
  8
MountainLine
  6
CONTINUOUS
 62
1
 10
211.35284855254784
 20
314.1442162316983
 11
371.58253800256693
 21
153.91452678167917
  0
LINE
  8
ValleyLine
  6
CONTINUOUS
 62
5
 10
258.0380814678646
 20
342.40987183423704
 11
175.86713377260222
 21
424.5808195294994
  0
LINE
  8
MountainLine
  6
CONTINUOUS
 62
1
 10
258.0380814678646
 20
342.40987183423704
 11
424.58081952949954
 21
175.8671337726021
  0
LINE
  8
ValleyLine
  6
CONTINUOUS
 62
5
 10
308.43888139941924
 20
369.6417225077329
 11
198.60521069333555
 21
479.4753932138166
  0
LINE
  8
MountainLine
  6
CONTINUOUS
 62
1
 10
308.43888139941924
 20
369.6417225077329
 11
479.47539321381663
 21
198.6052106933355
  0
LINE
  8
ValleyLine
  6
CONTINUOUS
 62
5
 10
359.7739794045195
 20
394.74183333144543
 11
220.99256503788496
 21
533.52324769808
  0
LINE
  8
MountainLine
  6
CONTINUOUS
 62
1
 10
359.7739794045195
 20
394.74183333144543
 11
533.52324769808
 21
220.99256503788484
  0
LINE
  8
ValleyLine
  6
CONTINUOUS
 62
5
 10
409.58652614149264
 20
416.9366889856539
 11
242.0830449026337
 21
584.4401702245128
  0
LINE
  8
MountainLine
  6
CONTINUOUS
 62
1
 10
409.58652614149264
 20
416.9366889856539
 11
584.440170224513
 21
242.0830449026335
  0
LINE
  8
ValleyLine
  6
CONTINUOUS
 62
5
 10
428.4044335573548
 20
424.91128685913947
 11
249.9303880169072
 21
603.3853323995871
  0
LINE
  8
MountainLine
  6
CONTINUOUS
 62
1
 10
428.4044335573548
 20
424.91128685913947
 11
603.3853323995872
 21
249.930388016907
  0
LINE
  8
MountainLine
  6
CONTINUOUS
 62
1
 10
571.8060997150042
 20
484.4774322596217
 11
309.3782836596907
 21
746.9052483149353
  0
LINE
  8
ValleyLine
  6
CONTINUOUS
 62
5
 10
571.8060997150042
 20
484.4774322596217
 11
746.9052483149354
 21
309.3782836596904
  0
LINE
  8
ValleyLine
  6
CONTINUOUS
 62
5
 10
632.4611056590884
 20
628.9679589608729
 11
369.4640190413832
 21
891.9650455785783
  0
LINE
  8
MountainLine
  6
CONTINUOUS
 62
1
 10
632.4611056590884
 20
628.9679589608729
 11
891.9650455785784
 21
369.4640190413828
  0
LINE
  8
MountainLine
  6
CONTINUOUS
 62
1
 10
647.5365869433944
 20
653.5768197757247
 11
381.0872937352998
 21
920.0261129838195
  0
LINE
  8
ValleyLine
  6
CONTINUOUS
 62
5
 10
647.5365869433944
 20
653.5768197757247
 11
920.0261129838196
 21
381.08729373529934
  0
LINE
  8
ValleyLine
  6
CONTINUOUS
 62
5
 10
687.0014492318609
 20
722.7698159437944
 11
412.91244364801105
 21
996.8588215276443
  0
LINE
  8
MountainLine
  6
CONTINUOUS
 62
1
 10
687.0014492318609
 20
722.7698159437944
 11
996.8588215276444
 21
412.9124436480109
  0
LINE
  8
ValleyLine
  6
CONTINUOUS
 62
5
 10
748.3994234357048
 20
814.6964368122489
 11
457.8201778220058
 21
1105.275682425948
  0
LINE
  8
MountainLine
  6
CONTINUOUS
 62
1
 10
748.3994234357048
 20
814.6964368122489
 11
1105.2756824259482
 21
457.82017782200546
  0
LINE
  8
ValleyLine
  6
CONTINUOUS
 62
5
 10
827.6479145839305
 20
925.0739592138409
 11
513.3603513013753
 21
1239.3615224963962
  0
LINE
  8
MountainLine
  6
CONTINUOUS
 62
1
 10
827.6479145839305
 20
925.0739592138409
 11
1239.3615224963964
 21
513.3603513013749
  0
LINE
  8
ValleyLine
  6
CONTINUOUS
 62
5
 10
919.1293446926232
 20
1048.0846769684042
 11
576.1836468992553
 21
1391.0303747617722
  0
LINE
  8
MountainLine
  6
CONTINUOUS
 62
1
 10
919.1293446926232
 20
1048.0846769684042
 11
1391.0303747617722
 21
576.183646899255
  0
LINE
  8
MountainLine
  6
CONTINUOUS
 62
1
 10
992.378152203247
 20
1145.1305463606195
 11
626.0618029641248
 21
1511.4468955997418
  0
LINE
  8
ValleyLine
  6
CONTINUOUS
 62
5
 10
992.378152203247
 20
1145.1305463606195
 11
1511.446895599742
 21
626.0618029641244
  0
LINE
  8
ValleyLine
  6
CONTINUOUS
 62
5
 10
1016.7944213734548
 20
1177.4791694913579
 11
642.6878549857479
 21
1551.585735879065
  0
LINE
  8
MountainLine
  6
CONTINUOUS
 62
1
 10
1016.7944213734548
 20
1177.4791694913579
 11
1551.5857358790652
 21
642.6878549857473
  0
LINE
  8
ValleyLine
  6
CONTINUOUS
 62
5
 10
1016.7944213734548
 20
1177.4791694913579
 11
642.6878549857479
 21
1551.585735879065
  0
LINE
  8
MountainLine
  6
CONTINUOUS
 62
1
 10
1016.7944213734548
 20
1177.4791694913579
 11
1551.5857358790652
 21
642.6878549857473
  0
LINE
  8
ValleyLine
  6
CONTINUOUS
 62
5
 10
0.0
 20
0.0
 11
0.0
 21
0.0
  0
LINE
  8
ValleyLine
  6
CONTINUOUS
 62
5
 10
0.0
 20
0.0
 11
-4.5014163347556755
 21
11.063852365695311
  0
LINE
  8
ValleyLine
  6
CONTINUOUS
 62
5
 10
-4.5014163347556755
 20
11.063852365695311
 11
-18.005665339022702
 21
44.25540946278125
  0
LINE
  8
ValleyLine
  6
CONTINUOUS
 62
5
 10
-18.005665339022702
 20
44.25540946278125
 11
-35.25293092361831
 21
87.13708305133837
  0
LINE
  8
ValleyLine
  6
CONTINUOUS
 62
5
 10
-35.25293092361831
 20
87.13708305133837
 11
-50.983396999359705
 21
127.66227908438866
  0
LINE
  8
ValleyLine
  6
CONTINUOUS
 62
5
 10
-50.983396999359705
 20
127.66227908438866
 11
-64.43866381181982
 21
165.80179315284397
  0
LINE
  8
ValleyLine
  6
CONTINUOUS
 62
5
 10
-64.43866381181982
 20
165.80179315284397
 11
-74.86033160657152
 21
203.27727530317526
  0
LINE
  8
ValleyLine
  6
CONTINUOUS
 62
5
 10
-74.86033160657152
 20
203.27727530317526
 11
-81.57207340985846
 21
241.00743740710462
  0
LINE
  8
ValleyLine
  6
CONTINUOUS
 62
5
 10
-81.57207340985846
 20
241.00743740710462
 11
-83.89756224792427
 21
280.2957163311189
  0
LINE
  8
ValleyLine
  6
CONTINUOUS
 62
5
 10
-83.89756224792427
 20
280.2957163311189
 11
-81.16047114701257
 21
323.0180387236495
  0
LINE
  8
ValleyLine
  6
CONTINUOUS
 62
5
 10
-81.16047114701257
 20
323.0180387236495
 11
-72.68447313336698
 21
371.5825380025669
  0
LINE
  8
ValleyLine
  6
CONTINUOUS
 62
5
 10
-72.68447313336698
 20
371.5825380025669
 11
-59.659865108911816
 21
424.5808195294994
  0
LINE
  8
ValleyLine
  6
CONTINUOUS
 62
5
 10
-59.659865108911816
 20
424.5808195294994
 11
-43.276943975571356
 21
479.4753932138166
  0
LINE
  8
ValleyLine
  6
CONTINUOUS
 62
5
 10
-43.276943975571356
 20
479.4753932138166
 11
-24.72600663526991
 21
533.5232476980799
  0
LINE
  8
ValleyLine
  6
CONTINUOUS
 62
5
 10
-24.72600663526991
 20
533.5232476980799
 11
-5.197349989931775
 21
584.4401702245129
  0
LINE
  8
ValleyLine
  6
CONTINUOUS
 62
5
 10
-5.197349989931775
 20
584.4401702245129
 11
2.470027717987542
 21
603.3853323995871
  0
LINE
  8
ValleyLine
  6
CONTINUOUS
 62
5
 10
2.470027717987542
 20
603.3853323995871
 11
61.75069294968591
 21
746.9052483149353
  0
LINE
  8
ValleyLine
  6
CONTINUOUS
 62
5
 10
61.75069294968591
 20
746.9052483149353
 11
2.470027717987595
 21
891.9650455785783
  0
LINE
  8
ValleyLine
  6
CONTINUOUS
 62
5
 10
2.470027717987595
 20
891.9650455785783
 11
-4.271089595686429
 21
920.0261129838195
  0
LINE
  8
ValleyLine
  6
CONTINUOUS
 62
5
 10
-4.271089595686429
 20
920.0261129838195
 11
-25.292054653975285
 21
996.8588215276443
  0
LINE
  8
ValleyLine
  6
CONTINUOUS
 62
5
 10
-25.292054653975285
 20
996.8588215276443
 11
-46.87906773096959
 21
1105.275682425948
  0
LINE
  8
ValleyLine
  6
CONTINUOUS
 62
5
 10
-46.87906773096959
 20
1105.275682425948
 11
-68.89061682199298
 21
1239.3615224963962
  0
LINE
  8
ValleyLine
  6
CONTINUOUS
 62
5
 10
-68.89061682199298
 20
1239.3615224963962
 11
-91.18518992236909
 21
1391.0303747617722
  0
LINE
  8
ValleyLine
  6
CONTINUOUS
 62
5
 10
-91.18518992236909
 20
1391.0303747617722
 11
-108.01225375115845
 21
1511.4468955997418
  0
LINE
  8
ValleyLine
  6
CONTINUOUS
 62
5
 10
-108.01225375115845
 20
1511.4468955997418
 11
-113.62127502742155
 21
1551.585735879065
  0
LINE
  8
ValleyLine
  6
CONTINUOUS
 62
5
 10
-113.62127502742155
 20
1551.585735879065
 11
-113.62127502742155
 21
1551.585735879065
  0
LINE
  8
ValleyLine
  6
CONTINUOUS
 62
5
 10
-113.62127502742155
 20
1551.585735879065
 11
-113.62127502742155
 21
1551.585735879065
  0
LINE
  8
ValleyLine
  6
CONTINUOUS
 62
5
 10
0.0
 20
0.0
 11
0.0
 21
0.0
  0
LINE
  8
MountainLine
  6
CONTINUOUS
 62
1
 10
0.0
 20
0.0
 11
0.0
 21
-0.0
  0
LINE
  8
ValleyLine
  6
CONTINUOUS
 62
5
 10
0.0
 20
0.0
 11
0.0
 21
0.0
  0
LINE
  8
MountainLine
  6
CONTINUOUS
 62
1
 10
0.0
 20
0.0
 11
0.0
 21
-0.0
  0
LINE
  8
ValleyLine
  6
CONTINUOUS
 62
5
 10
-4.5014163347556755
 20
11.063852365695311
 11
-4.5827977019646475
 21
11.063852365695311
  0
LINE
  8
MountainLine
  6
CONTINUOUS
 62
1
 10
-4.5014163347556755
 20
11.063852365695311
 11
4.582797701964651
 21
11.063852365695311
  0
LINE
  8
ValleyLine
  6
CONTINUOUS
 62
5
 10
-18.005665339022702
 20
44.25540946278125
 11
-18.331190807858594
 21
44.25540946278125
  0
LINE
  8
MountainLine
  6
CONTINUOUS
 62
1
 10
-18.005665339022702
 20
44.25540946278125
 11
18.33119080785861
 21
44.25540946278125
  0
LINE
  8
ValleyLine
  6
CONTINUOUS
 62
5
 10
-35.25293092361831
 20
87.13708305133837
 11
-36.093361585495096
 21
87.13708305133837
  0
LINE
  8
MountainLine
  6
CONTINUOUS
 62
1
 10
-35.25293092361831
 20
87.13708305133837
 11
36.093361585495124
 21
87.13708305133837
  0
LINE
  8
ValleyLine
  6
CONTINUOUS
 62
5
 10
-50.983396999359705
 20
127.66227908438866
 11
-52.879447400212854
 21
127.66227908438866
  0
LINE
  8
MountainLine
  6
CONTINUOUS
 62
1
 10
-50.983396999359705
 20
127.66227908438866
 11
52.879447400212904
 21
127.66227908438863
  0
LINE
  8
ValleyLine
  6
CONTINUOUS
 62
5
 10
-64.43866381181982
 20
165.80179315284397
 11
-68.67735138968649
 21
165.80179315284397
  0
LINE
  8
MountainLine
  6
CONTINUOUS
 62
1
 10
-64.43866381181982
 20
165.80179315284397
 11
68.67735138968656
 21
165.80179315284397
  0
LINE
  8
ValleyLine
  6
CONTINUOUS
 62
5
 10
-74.86033160657152
 20
203.27727530317526
 11
-84.20020435282456
 21
203.27727530317526
  0
LINE
  8
MountainLine
  6
CONTINUOUS
 62
1
 10
-74.86033160657152
 20
203.27727530317526
 11
84.20020435282461
 21
203.27727530317526
  0
LINE
  8
ValleyLine
  6
CONTINUOUS
 62
5
 10
-81.57207340985846
 20
241.00743740710462
 11
-99.82854920680748
 21
241.00743740710465
  0
LINE
  8
MountainLine
  6
CONTINUOUS
 62
1
 10
-81.57207340985846
 20
241.00743740710462
 11
99.82854920680758
 21
241.0074374071046
  0
LINE
  8
ValleyLine
  6
CONTINUOUS
 62
5
 10
-83.89756224792427
 20
280.2957163311189
 11
-116.10228717943122
 21
280.2957163311189
  0
LINE
  8
MountainLine
  6
CONTINUOUS
 62
1
 10
-83.89756224792427
 20
280.2957163311189
 11
116.10228717943131
 21
280.29571633111885
  0
LINE
  8
ValleyLine
  6
CONTINUOUS
 62
5
 10
-81.16047114701257
 20
323.0180387236495
 11
-133.79845253049317
 21
323.0180387236495
  0
LINE
  8
MountainLine
  6
CONTINUOUS
 62
1
 10
-81.16047114701257
 20
323.0180387236495
 11
133.79845253049328
 21
323.0180387236495
  0
LINE
  8
ValleyLine
  6
CONTINUOUS
 62
5
 10
-72.68447313336698
 20
371.5825380025669
 11
-153.91452678167911
 21
371.5825380025669
  0
LINE
  8
MountainLine
  6
CONTINUOUS
 62
1
 10
-72.68447313336698
 20
371.5825380025669
 11
153.91452678167926
 21
371.5825380025669
  0
LINE
  8
ValleyLine
  6
CONTINUOUS
 62
5
 10
-59.659865108911816
 20
424.5808195294994
 11
-175.86713377260205
 21
424.5808195294994
  0
LINE
  8
MountainLine
  6
CONTINUOUS
 62
1
 10
-59.659865108911816
 20
424.5808195294994
 11
175.8671337726022
 21
424.5808195294994
  0
LINE
  8
ValleyLine
  6
CONTINUOUS
 62
5
 10
-43.276943975571356
 20
479.4753932138166
 11
-198.60521069333538
 21
479.47539321381663
  0
LINE
  8
MountainLine
  6
CONTINUOUS
 62
1
 10
-43.276943975571356
 20
479.4753932138166
 11
198.60521069333558
 21
479.4753932138165
  0
LINE
  8
ValleyLine
  6
CONTINUOUS
 62
5
 10
-24.72600663526991
 20
533.5232476980799
 11
-220.99256503788476
 21
533.52324769808
  0
LINE
  8
MountainLine
  6
CONTINUOUS
 62
1
 10
-24.72600663526991
 20
533.5232476980799
 11
220.99256503788496
 21
533.5232476980799
  0
LINE
  8
ValleyLine
  6
CONTINUOUS
 62
5
 10
-5.197349989931775
 20
584.4401702245129
 11
-242.08304490263347
 21
584.440170224513
  0
LINE
  8
MountainLine
  6
CONTINUOUS
 62
1
 10
-5.197349989931775
 20
584.4401702245129
 11
242.08304490263367
 21
584.4401702245128
  0
LINE
  8
ValleyLine
  6
CONTINUOUS
 62
5
 10
2.470027717987542
 20
603.3853323995871
 11
-249.930388016907
 21
603.3853323995872
  0
LINE
  8
MountainLine
  6
CONTINUOUS
 62
1
 10
2.470027717987542
 20
603.3853323995871
 11
249.9303880169072
 21
603.3853323995871
  0
LINE
  8
MountainLine
  6
CONTINUOUS
 62
1
 10
61.75069294968591
 20
746.9052483149353
 11
-309.37828365969034
 21
746.9052483149353
  0
LINE
  8
ValleyLine
  6
CONTINUOUS
 62
5
 10
61.75069294968591
 20
746.9052483149353
 11
309.3782836596906
 21
746.9052483149353
  0
LINE
  8
ValleyLine
  6
CONTINUOUS
 62
5
 10
2.470027717987595
 20
891.9650455785783
 11
-369.46401904138287
 21
891.9650455785784
  0
LINE
  8
MountainLine
  6
CONTINUOUS
 62
1
 10
2.470027717987595
 20
891.9650455785783
 11
369.46401904138315
 21
891.9650455785782
  0
LINE
  8
MountainLine
  6
CONTINUOUS
 62
1
 10
-4.271089595686429
 20
920.0261129838195
 11
-381.0872937352993
 21
920.0261129838196
  0
LINE
  8
ValleyLine
  6
CONTINUOUS
 62
5
 10
-4.271089595686429
 20
920.0261129838195
 11
381.0872937352997
 21
920.0261129838194
  0
LINE
  8
ValleyLine
  6
CONTINUOUS
 62
5
 10
-25.292054653975285
 20
996.8588215276443
 11
-412.91244364801065
 21
996.8588215276444
  0
LINE
  8
MountainLine
  6
CONTINUOUS
 62
1
 10
-25.292054653975285
 20
996.8588215276443
 11
412.91244364801105
 21
996.8588215276442
  0
LINE
  8
ValleyLine
  6
CONTINUOUS
 62
5
 10
-46.87906773096959
 20
1105.275682425948
 11
-457.82017782200535
 21
1105.2756824259482
  0
LINE
  8
MountainLine
  6
CONTINUOUS
 62
1
 10
-46.87906773096959
 20
1105.275682425948
 11
457.82017782200575
 21
1105.275682425948
  0
LINE
  8
ValleyLine
  6
CONTINUOUS
 62
5
 10
-68.89061682199298
 20
1239.3615224963962
 11
-513.3603513013749
 21
1239.3615224963962
  0
LINE
  8
MountainLine
  6
CONTINUOUS
 62
1
 10
-68.89061682199298
 20
1239.3615224963962
 11
513.3603513013752
 21
1239.3615224963962
  0
LINE
  8
ValleyLine
  6
CONTINUOUS
 62
5
 10
-91.18518992236909
 20
1391.0303747617722
 11
-576.1836468992549
 21
1391.0303747617722
  0
LINE
  8
MountainLine
  6
CONTINUOUS
 62
1
 10
-91.18518992236909
 20
1391.0303747617722
 11
576.1836468992553
 21
1391.0303747617722
  0
LINE
  8
MountainLine
  6
CONTINUOUS
 62
1
 10
-108.01225375115845
 20
1511.4468955997418
 11
-626.0618029641241
 21
1511.4468955997418
  0
LINE
  8
ValleyLine
  6
CONTINUOUS
 62
5
 10
-108.01225375115845
 20
1511.4468955997418
 11
626.0618029641247
 21
1511.4468955997418
  0
LINE
  8
ValleyLine
  6
CONTINUOUS
 62
5
 10
-113.62127502742155
 20
1551.585735879065
 11
-642.6878549857473
 21
1551.585735879065
  0
LINE
  8
MountainLine
  6
CONTINUOUS
 62
1
 10
-113.62127502742155
 20
1551.585735879065
 11
642.6878549857479
 21
1551.585735879065
  0
LINE
  8
ValleyLine
  6
CONTINUOUS
 62
5
 10
-113.62127502742155
 20
1551.585735879065
 11
-642.6878549857473
 21
1551.585735879065
  0
LINE
  8
MountainLine
  6
CONTINUOUS
 62
1
 10
-113.62127502742155
 20
1551.585735879065
 11
642.6878549857479
 21
1551.585735879065
  0
LINE
  8
ValleyLine
  6
CONTINUOUS
 62
5
 10
0.0
 20
-0.0
 11
0.0
 21
-0.0
  0
LINE
  8
ValleyLine
  6
CONTINUOUS
 62
5
 10
0.0
 20
-0.0
 11
-11.006307049079613
 21
4.6403430185803485
  0
LINE
  8
ValleyLine
  6
CONTINUOUS
 62
5
 10
-11.006307049079613
 20
4.6403430185803485
 11
-44.02522819631846
 21
18.5613720743214
  0
LINE
  8
ValleyLine
  6
CONTINUOUS
 62
5
 10
-44.02522819631846
 20
18.5613720743214
 11
-86.54280883120819
 21
36.6876358056253
  0
LINE
  8
ValleyLine
  6
CONTINUOUS
 62
5
 10
-86.54280883120819
 20
36.6876358056253
 11
-126.32156898847389
 21
54.22015749612764
  0
LINE
  8
ValleyLine
  6
CONTINUOUS
 62
5
 10
-126.32156898847389
 20
54.22015749612764
 11
-162.80458842320326
 21
71.67455611932729
  0
LINE
  8
ValleyLine
  6
CONTINUOUS
 62
5
 10
-162.80458842320326
 20
71.67455611932729
 11
-196.67298794888026
 21
90.80449170711957
  0
LINE
  8
ValleyLine
  6
CONTINUOUS
 62
5
 10
-196.67298794888026
 20
90.80449170711957
 11
-228.09815957051384
 21
112.73782704339833
  0
LINE
  8
ValleyLine
  6
CONTINUOUS
 62
5
 10
-228.09815957051384
 20
112.73782704339833
 11
-257.52353694580285
 21
138.87446656474737
  0
LINE
  8
ValleyLine
  6
CONTINUOUS
 62
5
 10
-257.52353694580285
 20
138.87446656474737
 11
-285.7973651394191
 21
171.01912611472366
  0
LINE
  8
ValleyLine
  6
CONTINUOUS
 62
5
 10
-285.7973651394191
 20
171.01912611472366
 11
-314.14421623169824
 21
211.35284855254784
  0
LINE
  8
ValleyLine
  6
CONTINUOUS
 62
5
 10
-314.14421623169824
 20
211.35284855254784
 11
-342.409871834237
 21
258.0380814678646
  0
LINE
  8
ValleyLine
  6
CONTINUOUS
 62
5
 10
-342.409871834237
 20
258.0380814678646
 11
-369.6417225077328
 21
308.43888139941924
  0
LINE
  8
ValleyLine
  6
CONTINUOUS
 62
5
 10
-369.6417225077328
 20
308.43888139941924
 11
-394.7418333314454
 21
359.7739794045195
  0
LINE
  8
ValleyLine
  6
CONTINUOUS
 62
5
 10
-394.7418333314454
 20
359.7739794045195
 11
-416.93668898565386
 21
409.58652614149264
  0
LINE
  8
ValleyLine
  6
CONTINUOUS
 62
5
 10
-416.93668898565386
 20
409.58652614149264
 11
-424.9112868591394
 21
428.4044335573548
  0
LINE
  8
ValleyLine
  6
CONTINUOUS
 62
5
 10
-424.9112868591394
 20
428.4044335573548
 11
-484.47743225962165
 21
571.8060997150042
  0
LINE
  8
ValleyLine
  6
CONTINUOUS
 62
5
 10
-484.47743225962165
 20
571.8060997150042
 11
-628.9679589608729
 21
632.4611056590884
  0
LINE
  8
ValleyLine
  6
CONTINUOUS
 62
5
 10
-628.9679589608729
 20
632.4611056590884
 11
-653.5768197757246
 21
647.5365869433944
  0
LINE
  8
ValleyLine
  6
CONTINUOUS
 62
5
 10
-653.5768197757246
 20
647.5365869433944
 11
-722.7698159437942
 21
687.0014492318609
  0
LINE
  8
ValleyLine
  6
CONTINUOUS
 62
5
 10
-722.7698159437942
 20
687.0014492318609
 11
-814.6964368122487
 21
748.3994234357048
  0
LINE
  8
ValleyLine
  6
CONTINUOUS
 62
5
 10
-814.6964368122487
 20
748.3994234357048
 11
-925.0739592138407
 21
827.6479145839305
  0
LINE
  8
ValleyLine
  6
CONTINUOUS
 62
5
 10
-925.0739592138407
 20
827.6479145839305
 11
-1048.084676968404
 21
919.1293446926232
  0
LINE
  8
ValleyLine
  6
CONTINUOUS
 62
5
 10
-1048.084676968404
 20
919.1293446926232
 11
-1145.1305463606193
 21
992.378152203247
  0
LINE
  8
ValleyLine
  6
CONTINUOUS
 62
5
 10
-1145.1305463606193
 20
992.378152203247
 11
-1177.4791694913577
 21
1016.7944213734548
  0
LINE
  8
ValleyLine
  6
CONTINUOUS
 62
5
 10
-1177.4791694913577
 20
1016.7944213734548
 11
-1177.4791694913577
 21
1016.7944213734548
  0
LINE
  8
ValleyLine
  6
CONTINUOUS
 62
5
 10
-1177.4791694913577
 20
1016.7944213734548
 11
-1177.4791694913577
 21
1016.7944213734548
  0
LINE
  8
ValleyLine
  6
CONTINUOUS
 62
5
 10
0.0
 20
-0.0
 11
0.0
 21
-0.0
  0
LINE
  8
MountainLine
  6
CONTINUOUS
 62
1
 10
0.0
 20
-0.0
 11
0.0
 21
0.0
  0
LINE
  8
ValleyLine
  6
CONTINUOUS
 62
5
 10
0.0
 20
-0.0
 11
0.0
 21
-0.0
  0
LINE
  8
MountainLine
  6
CONTINUOUS
 62
1
 10
0.0
 20
-0.0
 11
0.0
 21
0.0
  0
LINE
  8
ValleyLine
  6
CONTINUOUS
 62
5
 10
-11.006307049079613
 20
4.6403430185803485
 11
-11.063852365695308
 21
4.582797701964653
  0
LINE
  8
MountainLine
  6
CONTINUOUS
 62
1
 10
-11.006307049079613
 20
4.6403430185803485
 11
-4.5827977019646475
 21
11.063852365695311
  0
LINE
  8
ValleyLine
  6
CONTINUOUS
 62
5
 10
-44.02522819631846
 20
18.5613720743214
 11
-44.255409462781245
 21
18.33119080785861
  0
LINE
  8
MountainLine
  6
CONTINUOUS
 62
1
 10
-44.02522819631846
 20
18.5613720743214
 11
-18.331190807858594
 21
44.25540946278125
  0
LINE
  8
ValleyLine
  6
CONTINUOUS
 62
5
 10
-86.54280883120819
 20
36.6876358056253
 11
-87.13708305133837
 21
36.093361585495124
  0
LINE
  8
MountainLine
  6
CONTINUOUS
 62
1
 10
-86.54280883120819
 20
36.6876358056253
 11
-36.09336158549509
 21
87.13708305133837
  0
LINE
  8
ValleyLine
  6
CONTINUOUS
 62
5
 10
-126.32156898847389
 20
54.22015749612764
 11
-127.66227908438863
 21
52.87944740021291
  0
LINE
  8
MountainLine
  6
CONTINUOUS
 62
1
 10
-126.32156898847389
 20
54.22015749612764
 11
-52.87944740021286
 21
127.66227908438864
  0
LINE
  8
ValleyLine
  6
CONTINUOUS
 62
5
 10
-162.80458842320326
 20
71.67455611932729
 11
-165.80179315284394
 21
68.67735138968658
  0
LINE
  8
MountainLine
  6
CONTINUOUS
 62
1
 10
-162.80458842320326
 20
71.67455611932729
 11
-68.67735138968649
 21
165.80179315284397
  0
LINE
  8
ValleyLine
  6
CONTINUOUS
 62
5
 10
-196.67298794888026
 20
90.80449170711957
 11
-203.2772753031752
 21
84.20020435282466
  0
LINE
  8
MountainLine
  6
CONTINUOUS
 62
1
 10
-196.67298794888026
 20
90.80449170711957
 11
-84.20020435282456
 21
203.27727530317526
  0
LINE
  8
ValleyLine
  6
CONTINUOUS
 62
5
 10
-228.09815957051384
 20
112.73782704339833
 11
-241.0074374071046
 21
99.8285492068076
  0
LINE
  8
MountainLine
  6
CONTINUOUS
 62
1
 10
-228.09815957051384
 20
112.73782704339833
 11
-99.82854920680747
 21
241.00743740710465
  0
LINE
  8
ValleyLine
  6
CONTINUOUS
 62
5
 10
-257.52353694580285
 20
138.87446656474737
 11
-280.29571633111885
 21
116.10228717943134
  0
LINE
  8
MountainLine
  6
CONTINUOUS
 62
1
 10
-257.52353694580285
 20
138.87446656474737
 11
-116.10228717943122
 21
280.2957163311189
  0
LINE
  8
ValleyLine
  6
CONTINUOUS
 62
5
 10
-285.7973651394191
 20
171.01912611472366
 11
-323.0180387236495
 21
133.7984525304933
  0
LINE
  8
MountainLine
  6
CONTINUOUS
 62
1
 10
-285.7973651394191
 20
171.01912611472366
 11
-133.79845253049317
 21
323.0180387236495
  0
LINE
  8
ValleyLine
  6
CONTINUOUS
 62
5
 10
-314.14421623169824
 20
211.35284855254784
 11
-371.5825380025668
 21
153.9145267816793
  0
LINE
  8
MountainLine
  6
CONTINUOUS
 62
1
 10
-314.14421623169824
 20
211.35284855254784
 11
-153.91452678167911
 21
371.5825380025669
  0
LINE
  8
ValleyLine
  6
CONTINUOUS
 62
5
 10
-342.409871834237
 20
258.0380814678646
 11
-424.58081952949937
 21
175.86713377260222
  0
LINE
  8
MountainLine
  6
CONTINUOUS
 62
1
 10
-342.409871834237
 20
258.0380814678646
 11
-175.86713377260202
 21
424.58081952949954
  0
LINE
  8
ValleyLine
  6
CONTINUOUS
 62
5
 10
-369.6417225077328
 20
308.43888139941924
 11
-479.4753932138165
 21
198.60521069333558
  0
LINE
  8
MountainLine
  6
CONTINUOUS
 62
1
 10
-369.6417225077328
 20
308.43888139941924
 11
-198.6052106933354
 21
479.4753932138166
  0
LINE
  8
ValleyLine
  6
CONTINUOUS
 62
5
 10
-394.7418333314454
 20
359.7739794045195
 11
-533.5232476980799
 21
220.99256503788496
  0
LINE
  8
MountainLine
  6
CONTINUOUS
 62
1
 10
-394.7418333314454
 20
359.7739794045195
 11
-220.99256503788476
 21
533.52324769808
  0
LINE
  8
ValleyLine
  6
CONTINUOUS
 62
5
 10
-416.93668898565386
 20
409.58652614149264
 11
-584.4401702245128
 21
242.0830449026337
  0
LINE
  8
MountainLine
  6
CONTINUOUS
 62
1
 10
-416.93668898565386
 20
409.58652614149264
 11
-242.08304490263342
 21
584.440170224513
  0
LINE
  8
ValleyLine
  6
CONTINUOUS
 62
5
 10
-424.9112868591394
 20
428.4044335573548
 11
-603.3853323995871
 21
249.93038801690722
  0
LINE
  8
MountainLine
  6
CONTINUOUS
 62
1
 10
-424.9112868591394
 20
428.4044335573548
 11
-249.93038801690693
 21
603.3853323995871
  0
LINE
  8
MountainLine
  6
CONTINUOUS
 62
1
 10
-484.47743225962165
 20
571.8060997150042
 11
-746.9052483149352
 21
309.37828365969074
  0
LINE
  8
ValleyLine
  6
CONTINUOUS
 62
5
 10
-484.47743225962165
 20
571.8060997150042
 11
-309.3782836596904
 21
746.9052483149353
  0
LINE
  8
ValleyLine
  6
CONTINUOUS
 62
5
 10
-628.9679589608729
 20
632.4611056590884
 11
-891.9650455785783
 21
369.4640190413832
  0
LINE
  8
MountainLine
  6
CONTINUOUS
 62
1
 10
-628.9679589608729
 20
632.4611056590884
 11
-369.4640190413828
 21
891.9650455785784
  0
LINE
  8
MountainLine
  6
CONTINUOUS
 62
1
 10
-653.5768197757246
 20
647.5365869433944
 11
-920.0261129838194
 21
381.0872937352998
  0
LINE
  8
ValleyLine
  6
CONTINUOUS
 62
5
 10
-653.5768197757246
 20
647.5365869433944
 11
-381.0872937352992
 21
920.0261129838196
  0
LINE
  8
ValleyLine
  6
CONTINUOUS
 62
5
 10
-722.7698159437942
 20
687.0014492318609
 11
-996.8588215276442
 21
412.9124436480111
  0
LINE
  8
MountainLine
  6
CONTINUOUS
 62
1
 10
-722.7698159437942
 20
687.0014492318609
 11
-412.9124436480107
 21
996.8588215276443
  0
LINE
  8
ValleyLine
  6
CONTINUOUS
 62
5
 10
-814.6964368122487
 20
748.3994234357048
 11
-1105.275682425948
 21
457.82017782200586
  0
LINE
  8
MountainLine
  6
CONTINUOUS
 62
1
 10
-814.6964368122487
 20
748.3994234357048
 11
-457.82017782200535
 21
1105.2756824259482
  0
LINE
  8
ValleyLine
  6
CONTINUOUS
 62
5
 10
-925.0739592138407
 20
827.6479145839305
 11
-1239.361522496396
 21
513.3603513013754
  0
LINE
  8
MountainLine
  6
CONTINUOUS
 62
1
 10
-925.0739592138407
 20
827.6479145839305
 11
-513.3603513013746
 21
1239.3615224963964
  0
LINE
  8
ValleyLine
  6
CONTINUOUS
 62
5
 10
-1048.084676968404
 20
919.1293446926232
 11
-1391.030374761772
 21
576.1836468992553
  0
LINE
  8
MountainLine
  6
CONTINUOUS
 62
1
 10
-1048.084676968404
 20
919.1293446926232
 11
-576.1836468992549
 21
1391.0303747617722
  0
LINE
  8
MountainLine
  6
CONTINUOUS
 62
1
 10
-1145.1305463606193
 20
992.378152203247
 11
-1511.4468955997415
 21
626.0618029641249
  0
LINE
  8
ValleyLine
  6
CONTINUOUS
 62
5
 10
-1145.1305463606193
 20
992.378152203247
 11
-626.0618029641244
 21
1511.446895599742
  0
LINE
  8
ValleyLine
  6
CONTINUOUS
 62
5
 10
-1177.4791694913577
 20
1016.7944213734548
 11
-1551.5857358790645
 21
642.687854985748
  0
LINE
  8
MountainLine
  6
CONTINUOUS
 62
1
 10
-1177.4791694913577
 20
1016.7944213734548
 11
-642.6878549857472
 21
1551.5857358790652
  0
LINE
  8
ValleyLine
  6
CONTINUOUS
 62
5
 10
-1177.4791694913577
 20
1016.7944213734548
 11
-1551.5857358790645
 21
642.687854985748
  0
LINE
  8
MountainLine
  6
CONTINUOUS
 62
1
 10
-1177.4791694913577
 20
1016.7944213734548
 11
-642.6878549857472
 21
1551.5857358790652
  0
ENDSEC
  0
EOF
