<?xml version="1.0" encoding="ISO-8859-1" standalone="no"?>
<!DOCTYPE svg PUBLIC "-//W3C//DTD SVG 20010904//EN"
"http://www.w3.org/TR/2001/REC-SVG-20010904/DTD/svg10.dtd">
<svg xmlns="http://www.w3.org/2000/svg"
 xmlns:xlink="http://www.w3.org/1999/xlink" xml:space="preserve"
 width="1000px" height="1000px"
 viewBox="0 0 1000 1000" >
 <line style="stroke:gray;stroke-width:1;" x1="6.403747018328545" y1="3.2018735091642725" x2="6.403747018328545" y2="0.0" />
 <line style="stroke:gray;stroke-width:1;" x1="3.2018735091642725" y1="0.0" x2="3.2018735091642725" y2="3.2018735091642725" />
 <line style="stroke-dasharray: 15, 10;stroke:red;stroke-width:4;" x1="499.99999999999994" y1="503.20187350916433" x2="3.2018735091642725" y2="708.9823952632129" />
 <line style="stroke:gray;stroke-width:1;" x1="294.21947824595134" y1="1000.0" x2="3.2018735091642725" y2="708.9823952632129" />
 <line style="stroke-dasharray: 15, 10;stroke:red;stroke-width:4;" x1="499.99999999999994" y1="503.20187350916433" x2="294.21947824595134" y2="1000.0" />
 <line style="stroke:gray;stroke-width:1;" x1="705.7805217540486" y1="1000.0" x2="294.21947824595134" y2="1000.0" />
 <line style="stroke-dasharray: 15, 10;stroke:red;stroke-width:4;" x1="499.99999999999994" y1="503.20187350916433" x2="705.7805217540486" y2="1000.0" />
 <line style="stroke:gray;stroke-width:1;" x1="996.7981264908358" y1="708.9823952632129" x2="705.7805217540486" y2="1000.0" />
 <line style="stroke-dasharray: 15, 10;stroke:red;stroke-width:4;" x1="499.99999999999994" y1="503.20187350916433" x2="996.7981264908358" y2="708.9823952632129" />
 <line style="stroke:gray;stroke-width:1;" x1="996.7981264908358" y1="297.42135175511584" x2="996.7981264908358" y2="708.9823952632129" />
 <line style="stroke-dasharray: 15, 10;stroke:red;stroke-width:4;" x1="499.99999999999994" y1="503.20187350916433" x2="996.7981264908358" y2="297.42135175511584" />
 <line style="stroke:gray;stroke-width:1;" x1="705.7805217540488" y1="6.403747018328758" x2="996.7981264908358" y2="297.42135175511584" />
 <line style="stroke-dasharray: 15, 10;stroke:red;stroke-width:4;" x1="499.99999999999994" y1="503.20187350916433" x2="705.7805217540488" y2="6.403747018328758" />
 <line style="stroke:gray;stroke-width:1;" x1="294.21947824595134" y1="6.403747018328545" x2="705.7805217540488" y2="6.403747018328758" />
 <line style="stroke-dasharray: 15, 10;stroke:red;stroke-width:4;" x1="499.99999999999994" y1="503.20187350916433" x2="294.21947824595134" y2="6.403747018328545" />
 <line style="stroke:gray;stroke-width:1;" x1="3.2018735091645" y1="297.42135175511544" x2="294.21947824595134" y2="6.403747018328545" />
 <line style="stroke-dasharray: 15, 10;stroke:red;stroke-width:4;" x1="499.99999999999994" y1="503.20187350916433" x2="3.2018735091645" y2="297.42135175511544" />
 <line style="stroke:gray;stroke-width:1;" x1="3.2018735091642725" y1="708.982395263213" x2="3.2018735091645" y2="297.42135175511544" />
 <line style="stroke:blue;stroke-width:4;stroke-opacity:1" x1="499.99999999999994" y1="503.20187350916433" x2="496.45749442009753" y2="504.6431700807617" />
 <line style="stroke:blue;stroke-width:4;stroke-opacity:1" x1="496.45749442009753" y1="504.6431700807617" x2="485.8299776803902" y2="508.9670597955538" />
 <line style="stroke:blue;stroke-width:4;stroke-opacity:1" x1="485.8299776803902" y1="508.9670597955538" x2="472.09980821120706" y2="514.4894160736375" />
 <line style="stroke:blue;stroke-width:4;stroke-opacity:1" x1="472.09980821120706" y1="514.4894160736375" x2="459.1241530480157" y2="519.5261123351099" />
 <line style="stroke:blue;stroke-width:4;stroke-opacity:1" x1="459.1241530480157" y1="519.5261123351099" x2="446.9123630731972" y2="523.8343185716653" />
 <line style="stroke:blue;stroke-width:4;stroke-opacity:1" x1="446.9123630731972" y1="523.8343185716653" x2="434.9131877191667" y2="527.1712047749979" />
 <line style="stroke:blue;stroke-width:4;stroke-opacity:1" x1="434.9131877191667" y1="527.1712047749979" x2="422.8324670654621" y2="529.3202196030275" />
 <line style="stroke:blue;stroke-width:4;stroke-opacity:1" x1="422.8324670654621" y1="529.3202196030275" x2="410.25285711471616" y2="530.0648117136734" />
 <line style="stroke:blue;stroke-width:4;stroke-opacity:1" x1="410.25285711471616" y1="530.0648117136734" x2="396.5737098828542" y2="529.1884297648555" />
 <line style="stroke:blue;stroke-width:4;stroke-opacity:1" x1="396.5737098828542" y1="529.1884297648555" x2="381.0239715101548" y2="526.4745224144934" />
 <line style="stroke:blue;stroke-width:4;stroke-opacity:1" x1="381.0239715101548" y1="526.4745224144934" x2="364.05459214492316" y2="522.3042076744183" />
 <line style="stroke:blue;stroke-width:4;stroke-opacity:1" x1="364.05459214492316" y1="522.3042076744183" x2="346.478044017255" y2="517.0586035564612" />
 <line style="stroke:blue;stroke-width:4;stroke-opacity:1" x1="346.478044017255" y1="517.0586035564612" x2="329.17260466722206" y2="511.1188280724534" />
 <line style="stroke:blue;stroke-width:4;stroke-opacity:1" x1="329.17260466722206" y1="511.1188280724534" x2="312.86965012666644" y2="504.86599923422614" />
 <line style="stroke:blue;stroke-width:4;stroke-opacity:1" x1="312.86965012666644" y1="504.86599923422614" x2="306.8036488371473" y2="502.4110018774518" />
 <line style="stroke:blue;stroke-width:4;stroke-opacity:1" x1="306.8036488371473" y1="502.4110018774518" x2="260.85038715646334" y2="483.4300827163506" />
 <line style="stroke:blue;stroke-width:4;stroke-opacity:1" x1="260.85038715646334" y1="483.4300827163506" x2="214.40407494614323" y2="502.4110018774518" />
 <line style="stroke:blue;stroke-width:4;stroke-opacity:1" x1="214.40407494614323" y1="502.4110018774518" x2="205.41927610977166" y2="504.5694223723339" />
 <line style="stroke:blue;stroke-width:4;stroke-opacity:1" x1="205.41927610977166" y1="504.5694223723339" x2="180.81841469739038" y2="511.30006948805425" />
 <line style="stroke:blue;stroke-width:4;stroke-opacity:1" x1="180.81841469739038" y1="511.30006948805425" x2="146.10470721168753" y2="518.2119580193754" />
 <line style="stroke:blue;stroke-width:4;stroke-opacity:1" x1="146.10470721168753" y1="518.2119580193754" x2="103.17211728412673" y2="525.2597776123971" />
 <line style="stroke:blue;stroke-width:4;stroke-opacity:1" x1="103.17211728412673" y1="525.2597776123971" x2="54.60966926074087" y2="532.3982179132192" />
 <line style="stroke:blue;stroke-width:4;stroke-opacity:1" x1="54.60966926074087" y1="532.3982179132192" x2="16.05382244705845" y2="537.786030904261" />
 <line style="stroke:blue;stroke-width:4;stroke-opacity:1" x1="16.05382244705845" y1="537.786030904261" x2="3.2018735091642725" y2="539.5819685679415" />
 <line style="stroke:blue;stroke-width:4;stroke-opacity:1" x1="3.2018735091642725" y1="539.5819685679415" x2="3.2018735091642725" y2="539.5819685679415" />
 <line style="stroke:blue;stroke-width:4;stroke-opacity:1" x1="496.45749442009753" y1="504.6431700807617" x2="496.45749442009753" y2="504.66922736514226" />
 <line style="stroke-dasharray: 15, 10;stroke:red;stroke-width:4;" x1="496.45749442009753" y1="504.6431700807617" x2="496.45749442009753" y2="501.73451965318634" />
 <line style="stroke:blue;stroke-width:4;stroke-opacity:1" x1="485.8299776803902" y1="508.9670597955538" x2="485.8299776803902" y2="509.0712889330762" />
 <line style="stroke-dasharray: 15, 10;stroke:red;stroke-width:4;" x1="485.8299776803902" y1="508.9670597955538" x2="485.8299776803902" y2="497.3324580852525" />
 <line style="stroke:blue;stroke-width:4;stroke-opacity:1" x1="472.09980821120706" y1="514.4894160736375" x2="472.09980821120706" y2="514.7585113408928" />
 <line style="stroke-dasharray: 15, 10;stroke:red;stroke-width:4;" x1="472.09980821120706" y1="514.4894160736375" x2="472.09980821120706" y2="491.64523567743583" />
 <line style="stroke:blue;stroke-width:4;stroke-opacity:1" x1="459.1241530480157" y1="519.5261123351099" x2="459.1241530480157" y2="520.1332036901631" />
 <line style="stroke-dasharray: 15, 10;stroke:red;stroke-width:4;" x1="459.1241530480157" y1="519.5261123351099" x2="459.1241530480157" y2="486.2705433281655" />
 <line style="stroke:blue;stroke-width:4;stroke-opacity:1" x1="446.9123630731972" y1="523.8343185716653" x2="446.9123630731972" y2="525.1914927185849" />
 <line style="stroke-dasharray: 15, 10;stroke:red;stroke-width:4;" x1="446.9123630731972" y1="523.8343185716653" x2="446.9123630731972" y2="481.2122542997439" />
 <line style="stroke:blue;stroke-width:4;stroke-opacity:1" x1="434.9131877191667" y1="527.1712047749979" x2="434.9131877191667" y2="530.1617138875172" />
 <line style="stroke-dasharray: 15, 10;stroke:red;stroke-width:4;" x1="434.9131877191667" y1="527.1712047749979" x2="434.9131877191667" y2="476.2420331308115" />
 <line style="stroke:blue;stroke-width:4;stroke-opacity:1" x1="422.8324670654621" y1="529.3202196030275" x2="422.8324670654621" y2="535.1657122255224" />
 <line style="stroke-dasharray: 15, 10;stroke:red;stroke-width:4;" x1="422.8324670654621" y1="529.3202196030275" x2="422.8324670654621" y2="471.2380347928063" />
 <line style="stroke:blue;stroke-width:4;stroke-opacity:1" x1="410.25285711471616" y1="530.0648117136734" x2="410.25285711471616" y2="540.3763572764849" />
 <line style="stroke-dasharray: 15, 10;stroke:red;stroke-width:4;" x1="410.25285711471616" y1="530.0648117136734" x2="410.25285711471616" y2="466.02738974184376" />
 <line style="stroke:blue;stroke-width:4;stroke-opacity:1" x1="396.5737098828542" y1="529.1884297648555" x2="396.5737098828542" y2="546.0424455816205" />
 <line style="stroke-dasharray: 15, 10;stroke:red;stroke-width:4;" x1="396.5737098828542" y1="529.1884297648555" x2="396.5737098828542" y2="460.3613014367082" />
 <line style="stroke:blue;stroke-width:4;stroke-opacity:1" x1="381.0239715101548" y1="526.4745224144934" x2="381.0239715101548" y2="552.483358106946" />
 <line style="stroke-dasharray: 15, 10;stroke:red;stroke-width:4;" x1="381.0239715101548" y1="526.4745224144934" x2="381.0239715101548" y2="453.9203889113827" />
 <line style="stroke:blue;stroke-width:4;stroke-opacity:1" x1="364.05459214492316" y1="522.3042076744183" x2="364.05459214492316" y2="559.512305185079" />
 <line style="stroke-dasharray: 15, 10;stroke:red;stroke-width:4;" x1="364.05459214492316" y1="522.3042076744183" x2="364.05459214492316" y2="446.89144183324964" />
 <line style="stroke:blue;stroke-width:4;stroke-opacity:1" x1="346.478044017255" y1="517.0586035564612" x2="346.478044017255" y2="566.7927497992627" />
 <line style="stroke-dasharray: 15, 10;stroke:red;stroke-width:4;" x1="346.478044017255" y1="517.0586035564612" x2="346.478044017255" y2="439.610997219066" />
 <line style="stroke:blue;stroke-width:4;stroke-opacity:1" x1="329.17260466722206" y1="511.1188280724534" x2="329.17260466722206" y2="573.9608974808713" />
 <line style="stroke-dasharray: 15, 10;stroke:red;stroke-width:4;" x1="329.17260466722206" y1="511.1188280724534" x2="329.17260466722206" y2="432.44284953745733" />
 <line style="stroke:blue;stroke-width:4;stroke-opacity:1" x1="312.86965012666644" y1="504.86599923422614" x2="312.86965012666644" y2="580.7138023583215" />
 <line style="stroke-dasharray: 15, 10;stroke:red;stroke-width:4;" x1="312.86965012666644" y1="504.86599923422614" x2="312.86965012666644" y2="425.6899446600072" />
 <line style="stroke:blue;stroke-width:4;stroke-opacity:1" x1="306.8036488371473" y1="502.4110018774518" x2="306.8036488371473" y2="583.226422361813" />
 <line style="stroke-dasharray: 15, 10;stroke:red;stroke-width:4;" x1="306.8036488371473" y1="502.4110018774518" x2="306.8036488371473" y2="423.1773246565157" />
 <line style="stroke-dasharray: 15, 10;stroke:red;stroke-width:4;" x1="260.85038715646334" y1="483.4300827163506" x2="260.85038715646334" y2="602.2608865852321" />
 <line style="stroke:blue;stroke-width:4;stroke-opacity:1" x1="260.85038715646334" y1="483.4300827163506" x2="260.85038715646334" y2="404.14286043309653" />
 <line style="stroke:blue;stroke-width:4;stroke-opacity:1" x1="214.40407494614323" y1="502.4110018774518" x2="214.40407494614323" y2="621.4995790249618" />
 <line style="stroke-dasharray: 15, 10;stroke:red;stroke-width:4;" x1="214.40407494614323" y1="502.4110018774518" x2="214.40407494614323" y2="384.90416799336685" />
 <line style="stroke-dasharray: 15, 10;stroke:red;stroke-width:4;" x1="205.41927610977166" y1="504.5694223723339" x2="205.41927610977166" y2="625.221204558181" />
 <line style="stroke:blue;stroke-width:4;stroke-opacity:1" x1="205.41927610977166" y1="504.5694223723339" x2="205.41927610977166" y2="381.1825424601478" />
 <line style="stroke:blue;stroke-width:4;stroke-opacity:1" x1="180.81841469739038" y1="511.30006948805425" x2="180.81841469739038" y2="635.4112150012502" />
 <line style="stroke-dasharray: 15, 10;stroke:red;stroke-width:4;" x1="180.81841469739038" y1="511.30006948805425" x2="180.81841469739038" y2="370.99253201707853" />
 <line style="stroke:blue;stroke-width:4;stroke-opacity:1" x1="146.10470721168753" y1="518.2119580193754" x2="146.10470721168753" y2="649.7901034420806" />
 <line style="stroke-dasharray: 15, 10;stroke:red;stroke-width:4;" x1="146.10470721168753" y1="518.2119580193754" x2="146.10470721168753" y2="356.6136435762479" />
 <line style="stroke:blue;stroke-width:4;stroke-opacity:1" x1="103.17211728412673" y1="525.2597776123971" x2="103.17211728412673" y2="667.5733644578788" />
 <line style="stroke-dasharray: 15, 10;stroke:red;stroke-width:4;" x1="103.17211728412673" y1="525.2597776123971" x2="103.17211728412673" y2="338.8303825604498" />
 <line style="stroke:blue;stroke-width:4;stroke-opacity:1" x1="54.60966926074087" y1="532.3982179132192" x2="54.60966926074087" y2="687.6885890512038" />
 <line style="stroke-dasharray: 15, 10;stroke:red;stroke-width:4;" x1="54.60966926074087" y1="532.3982179132192" x2="54.60966926074087" y2="318.71515796712475" />
 <line style="stroke-dasharray: 15, 10;stroke:red;stroke-width:4;" x1="16.05382244705845" y1="537.786030904261" x2="16.05382244705845" y2="703.6589437102106" />
 <line style="stroke:blue;stroke-width:4;stroke-opacity:1" x1="16.05382244705845" y1="537.786030904261" x2="16.05382244705845" y2="302.74480330811804" />
 <line style="stroke:blue;stroke-width:4;stroke-opacity:1" x1="3.2018735091642725" y1="539.5819685679415" x2="3.2018735091642725" y2="708.9823952632129" />
 <line style="stroke-dasharray: 15, 10;stroke:red;stroke-width:4;" x1="3.2018735091642725" y1="539.5819685679415" x2="3.2018735091642725" y2="297.4213517551158" />
 <line style="stroke:blue;stroke-width:4;stroke-opacity:1" x1="499.99999999999994" y1="503.20187350916433" x2="498.5142208615372" y2="506.72595380658197" />
 <line style="stroke:blue;stroke-width:4;stroke-opacity:1" x1="498.5142208615372" y1="506.72595380658197" x2="494.05688344614884" y2="517.2981946988348" />
 <line style="stroke:blue;stroke-width:4;stroke-opacity:1" x1="494.05688344614884" y1="517.2981946988348" x2="488.2530830800101" y2="530.9117862096958" />
 <line style="stroke:blue;stroke-width:4;stroke-opacity:1" x1="488.2530830800101" y1="530.9117862096958" x2="482.6393914050433" y2="543.6484420471907" />
 <line style="stroke:blue;stroke-width:4;stroke-opacity:1" x1="482.6393914050433" y1="543.6484420471907" x2="477.05071374804163" y2="555.3298433934293" />
 <line style="stroke:blue;stroke-width:4;stroke-opacity:1" x1="477.05071374804163" y1="555.3298433934293" x2="470.92555034898453" y2="566.174076517335" />
 <line style="stroke:blue;stroke-width:4;stroke-opacity:1" x1="470.92555034898453" y1="566.174076517335" x2="463.90277381089976" y2="576.23601897096" />
 <line style="stroke:blue;stroke-width:4;stroke-opacity:1" x1="463.90277381089976" y1="576.23601897096" x2="455.53415244070135" y2="585.6576526024701" />
 <line style="stroke:blue;stroke-width:4;stroke-opacity:1" x1="455.53415244070135" y1="585.6576526024701" x2="445.2418390532839" y2="594.7105747520503" />
 <line style="stroke:blue;stroke-width:4;stroke-opacity:1" x1="445.2418390532839" y1="594.7105747520503" x2="432.3274913133185" y2="603.7868779101096" />
 <line style="stroke:blue;stroke-width:4;stroke-opacity:1" x1="432.3274913133185" y1="603.7868779101096" x2="417.3794702592468" y2="612.8371832994027" />
 <line style="stroke:blue;stroke-width:4;stroke-opacity:1" x1="417.3794702592468" y1="612.8371832994027" x2="401.2417716450933" y2="621.5564774271011" />
 <line style="stroke:blue;stroke-width:4;stroke-opacity:1" x1="401.2417716450933" y1="621.5564774271011" x2="384.8049226058051" y2="629.5932154194543" />
 <line style="stroke:blue;stroke-width:4;stroke-opacity:1" x1="384.8049226058051" y1="629.5932154194543" x2="368.85557522369277" y2="636.6997274553479" />
 <line style="stroke:blue;stroke-width:4;stroke-opacity:1" x1="368.85557522369277" y1="636.6997274553479" x2="362.8303192984173" y2="639.253092823083" />
 <line style="stroke:blue;stroke-width:4;stroke-opacity:1" x1="362.8303192984173" y1="639.253092823083" x2="316.91491969439744" y2="658.3254191231663" />
 <line style="stroke:blue;stroke-width:4;stroke-opacity:1" x1="316.91491969439744" y1="658.3254191231663" x2="297.49395402134087" y2="704.5894581001594" />
 <line style="stroke:blue;stroke-width:4;stroke-opacity:1" x1="297.49395402134087" y1="704.5894581001594" x2="292.6669756051287" y2="712.4689040535379" />
 <line style="stroke:blue;stroke-width:4;stroke-opacity:1" x1="292.6669756051287" y1="712.4689040535379" x2="280.03082589470296" y2="734.6236261985626" />
 <line style="stroke:blue;stroke-width:4;stroke-opacity:1" x1="280.03082589470296" y1="734.6236261985626" x2="260.37197118273895" y2="764.057367413132" />
 <line style="stroke:blue;stroke-width:4;stroke-opacity:1" x1="260.37197118273895" y1="764.057367413132" x2="234.9976067378645" y2="799.3988539116167" />
 <line style="stroke:blue;stroke-width:4;stroke-opacity:1" x1="234.9976067378645" y1="799.3988539116167" x2="205.70640997331571" y2="838.7853297637787" />
 <line style="stroke:blue;stroke-width:4;stroke-opacity:1" x1="205.70640997331571" y1="838.7853297637787" x2="182.25306833870172" y2="869.8581896018538" />
 <line style="stroke:blue;stroke-width:4;stroke-opacity:1" x1="182.25306833870172" y1="869.8581896018538" x2="174.4352877938303" y2="880.215809547879" />
 <line style="stroke:blue;stroke-width:4;stroke-opacity:1" x1="174.4352877938303" y1="880.215809547879" x2="174.4352877938303" y2="880.215809547879" />
 <line style="stroke:blue;stroke-width:4;stroke-opacity:1" x1="498.5142208615372" y1="506.72595380658197" x2="498.532646144022" y2="506.74437908906674" />
 <line style="stroke-dasharray: 15, 10;stroke:red;stroke-width:4;" x1="498.5142208615372" y1="506.72595380658197" x2="496.45749442009753" y2="504.66922736514226" />
 <line style="stroke:blue;stroke-width:4;stroke-opacity:1" x1="494.05688344614884" y1="517.2981946988348" x2="494.13058457608815" y2="517.3718958287741" />
 <line style="stroke-dasharray: 15, 10;stroke:red;stroke-width:4;" x1="494.05688344614884" y1="517.2981946988348" x2="485.8299776803902" y2="509.0712889330762" />
 <line style="stroke:blue;stroke-width:4;stroke-opacity:1" x1="488.2530830800101" y1="530.9117862096958" x2="488.4433621682715" y2="531.1020652979572" />
 <line style="stroke-dasharray: 15, 10;stroke:red;stroke-width:4;" x1="488.2530830800101" y1="530.9117862096958" x2="472.09980821120706" y2="514.7585113408928" />
 <line style="stroke:blue;stroke-width:4;stroke-opacity:1" x1="482.6393914050433" y1="543.6484420471907" x2="483.0686698190012" y2="544.0777204611486" />
 <line style="stroke-dasharray: 15, 10;stroke:red;stroke-width:4;" x1="482.6393914050433" y1="543.6484420471907" x2="459.1241530480157" y2="520.1332036901631" />
 <line style="stroke:blue;stroke-width:4;stroke-opacity:1" x1="477.05071374804163" y1="555.3298433934293" x2="478.0103807905795" y2="556.2895104359671" />
 <line style="stroke-dasharray: 15, 10;stroke:red;stroke-width:4;" x1="477.05071374804163" y1="555.3298433934293" x2="446.9123630731972" y2="525.1914927185849" />
 <line style="stroke:blue;stroke-width:4;stroke-opacity:1" x1="470.92555034898453" y1="566.174076517335" x2="473.0401596216471" y2="568.2886857899975" />
 <line style="stroke-dasharray: 15, 10;stroke:red;stroke-width:4;" x1="470.92555034898453" y1="566.174076517335" x2="434.9131877191667" y2="530.1617138875172" />
 <line style="stroke:blue;stroke-width:4;stroke-opacity:1" x1="463.90277381089976" y1="576.23601897096" x2="468.0361612836419" y2="580.3694064437022" />
 <line style="stroke-dasharray: 15, 10;stroke:red;stroke-width:4;" x1="463.90277381089976" y1="576.23601897096" x2="422.8324670654621" y2="535.1657122255224" />
 <line style="stroke:blue;stroke-width:4;stroke-opacity:1" x1="455.53415244070135" y1="585.6576526024701" x2="462.8255162326794" y2="592.9490163944481" />
 <line style="stroke-dasharray: 15, 10;stroke:red;stroke-width:4;" x1="455.53415244070135" y1="585.6576526024701" x2="410.25285711471616" y2="540.3763572764849" />
 <line style="stroke:blue;stroke-width:4;stroke-opacity:1" x1="445.2418390532839" y1="594.7105747520503" x2="457.1594279275438" y2="606.6281636263101" />
 <line style="stroke-dasharray: 15, 10;stroke:red;stroke-width:4;" x1="445.2418390532839" y1="594.7105747520503" x2="396.5737098828542" y2="546.0424455816205" />
 <line style="stroke:blue;stroke-width:4;stroke-opacity:1" x1="432.3274913133185" y1="603.7868779101096" x2="450.7185154022183" y2="622.1779019990095" />
 <line style="stroke-dasharray: 15, 10;stroke:red;stroke-width:4;" x1="432.3274913133185" y1="603.7868779101096" x2="381.0239715101548" y2="552.483358106946" />
 <line style="stroke:blue;stroke-width:4;stroke-opacity:1" x1="417.3794702592468" y1="612.8371832994027" x2="443.68956832408526" y2="639.147281364241" />
 <line style="stroke-dasharray: 15, 10;stroke:red;stroke-width:4;" x1="417.3794702592468" y1="612.8371832994027" x2="364.05459214492316" y2="559.512305185079" />
 <line style="stroke:blue;stroke-width:4;stroke-opacity:1" x1="401.2417716450933" y1="621.5564774271011" x2="436.4091237099017" y2="656.7238294919093" />
 <line style="stroke-dasharray: 15, 10;stroke:red;stroke-width:4;" x1="401.2417716450933" y1="621.5564774271011" x2="346.478044017255" y2="566.7927497992627" />
 <line style="stroke:blue;stroke-width:4;stroke-opacity:1" x1="384.8049226058051" y1="629.5932154194543" x2="429.24097602829295" y2="674.0292688419423" />
 <line style="stroke-dasharray: 15, 10;stroke:red;stroke-width:4;" x1="384.8049226058051" y1="629.5932154194543" x2="329.17260466722206" y2="573.9608974808713" />
 <line style="stroke:blue;stroke-width:4;stroke-opacity:1" x1="368.85557522369277" y1="636.6997274553479" x2="422.4880711508428" y2="690.3322233824979" />
 <line style="stroke-dasharray: 15, 10;stroke:red;stroke-width:4;" x1="368.85557522369277" y1="636.6997274553479" x2="312.86965012666644" y2="580.7138023583215" />
 <line style="stroke:blue;stroke-width:4;stroke-opacity:1" x1="362.8303192984173" y1="639.253092823083" x2="419.9754511473513" y2="696.398224672017" />
 <line style="stroke-dasharray: 15, 10;stroke:red;stroke-width:4;" x1="362.8303192984173" y1="639.253092823083" x2="306.8036488371473" y2="583.226422361813" />
 <line style="stroke-dasharray: 15, 10;stroke:red;stroke-width:4;" x1="316.91491969439744" y1="658.3254191231663" x2="400.9409869239322" y2="742.3514863527009" />
 <line style="stroke:blue;stroke-width:4;stroke-opacity:1" x1="316.91491969439744" y1="658.3254191231663" x2="260.85038715646334" y2="602.2608865852321" />
 <line style="stroke:blue;stroke-width:4;stroke-opacity:1" x1="297.49395402134087" y1="704.5894581001594" x2="381.70229448420247" y2="788.797798563021" />
 <line style="stroke-dasharray: 15, 10;stroke:red;stroke-width:4;" x1="297.49395402134087" y1="704.5894581001594" x2="214.40407494614323" y2="621.4995790249618" />
 <line style="stroke-dasharray: 15, 10;stroke:red;stroke-width:4;" x1="292.6669756051287" y1="712.4689040535379" x2="377.9806689509834" y2="797.7825973993926" />
 <line style="stroke:blue;stroke-width:4;stroke-opacity:1" x1="292.6669756051287" y1="712.4689040535379" x2="205.41927610977166" y2="625.2212045581808" />
 <line style="stroke:blue;stroke-width:4;stroke-opacity:1" x1="280.03082589470296" y1="734.6236261985626" x2="367.7906585079141" y2="822.383458811774" />
 <line style="stroke-dasharray: 15, 10;stroke:red;stroke-width:4;" x1="280.03082589470296" y1="734.6236261985626" x2="180.81841469739038" y2="635.4112150012502" />
 <line style="stroke:blue;stroke-width:4;stroke-opacity:1" x1="260.37197118273895" y1="764.057367413132" x2="353.4117700670836" y2="857.0971662974767" />
 <line style="stroke-dasharray: 15, 10;stroke:red;stroke-width:4;" x1="260.37197118273895" y1="764.057367413132" x2="146.10470721168753" y2="649.7901034420806" />
 <line style="stroke:blue;stroke-width:4;stroke-opacity:1" x1="234.9976067378645" y1="799.3988539116167" x2="335.6285090512853" y2="900.0297562250374" />
 <line style="stroke-dasharray: 15, 10;stroke:red;stroke-width:4;" x1="234.9976067378645" y1="799.3988539116167" x2="103.17211728412673" y2="667.5733644578788" />
 <line style="stroke:blue;stroke-width:4;stroke-opacity:1" x1="205.70640997331571" y1="838.7853297637787" x2="315.51328445796037" y2="948.5922042484233" />
 <line style="stroke-dasharray: 15, 10;stroke:red;stroke-width:4;" x1="205.70640997331571" y1="838.7853297637787" x2="54.60966926074087" y2="687.6885890512038" />
 <line style="stroke-dasharray: 15, 10;stroke:red;stroke-width:4;" x1="182.25306833870172" y1="869.8581896018538" x2="299.54292979895365" y2="987.1480510621058" />
 <line style="stroke:blue;stroke-width:4;stroke-opacity:1" x1="182.25306833870172" y1="869.8581896018538" x2="16.05382244705845" y2="703.6589437102106" />
 <line style="stroke:blue;stroke-width:4;stroke-opacity:1" x1="174.4352877938303" y1="880.215809547879" x2="294.21947824595134" y2="999.9999999999999" />
 <line style="stroke-dasharray: 15, 10;stroke:red;stroke-width:4;" x1="174.4352877938303" y1="880.215809547879" x2="3.2018735091642725" y2="708.9823952632128" />
 <line style="stroke:blue;stroke-width:4;stroke-opacity:1" x1="499.99999999999994" y1="503.20187350916433" x2="501.4412965715973" y2="506.74437908906674" />
 <line style="stroke:blue;stroke-width:4;stroke-opacity:1" x1="501.4412965715973" y1="506.74437908906674" x2="505.7651862863894" y2="517.3718958287741" />
 <line style="stroke:blue;stroke-width:4;stroke-opacity:1" x1="505.7651862863894" y1="517.3718958287741" x2="511.28754256447314" y2="531.1020652979572" />
 <line style="stroke:blue;stroke-width:4;stroke-opacity:1" x1="511.28754256447314" y1="531.1020652979572" x2="516.3242388259456" y2="544.0777204611486" />
 <line style="stroke:blue;stroke-width:4;stroke-opacity:1" x1="516.3242388259456" y1="544.0777204611486" x2="520.6324450625009" y2="556.2895104359671" />
 <line style="stroke:blue;stroke-width:4;stroke-opacity:1" x1="520.6324450625009" y1="556.2895104359671" x2="523.9693312658335" y2="568.2886857899975" />
 <line style="stroke:blue;stroke-width:4;stroke-opacity:1" x1="523.9693312658335" y1="568.2886857899975" x2="526.118346093863" y2="580.3694064437022" />
 <line style="stroke:blue;stroke-width:4;stroke-opacity:1" x1="526.118346093863" y1="580.3694064437022" x2="526.8629382045091" y2="592.9490163944481" />
 <line style="stroke:blue;stroke-width:4;stroke-opacity:1" x1="526.8629382045091" y1="592.9490163944481" x2="525.9865562556912" y2="606.6281636263101" />
 <line style="stroke:blue;stroke-width:4;stroke-opacity:1" x1="525.9865562556912" y1="606.6281636263101" x2="523.2726489053291" y2="622.1779019990095" />
 <line style="stroke:blue;stroke-width:4;stroke-opacity:1" x1="523.2726489053291" y1="622.1779019990095" x2="519.102334165254" y2="639.147281364241" />
 <line style="stroke:blue;stroke-width:4;stroke-opacity:1" x1="519.102334165254" y1="639.147281364241" x2="513.8567300472969" y2="656.7238294919093" />
 <line style="stroke:blue;stroke-width:4;stroke-opacity:1" x1="513.8567300472969" y1="656.7238294919093" x2="507.9169545632891" y2="674.0292688419423" />
 <line style="stroke:blue;stroke-width:4;stroke-opacity:1" x1="507.9169545632891" y1="674.0292688419423" x2="501.66412572506175" y2="690.3322233824979" />
 <line style="stroke:blue;stroke-width:4;stroke-opacity:1" x1="501.66412572506175" y1="690.3322233824979" x2="499.2091283682874" y2="696.398224672017" />
 <line style="stroke:blue;stroke-width:4;stroke-opacity:1" x1="499.2091283682874" y1="696.398224672017" x2="480.22820920718624" y2="742.3514863527009" />
 <line style="stroke:blue;stroke-width:4;stroke-opacity:1" x1="480.22820920718624" y1="742.3514863527009" x2="499.2091283682874" y2="788.797798563021" />
 <line style="stroke:blue;stroke-width:4;stroke-opacity:1" x1="499.2091283682874" y1="788.797798563021" x2="501.36754886316953" y2="797.7825973993926" />
 <line style="stroke:blue;stroke-width:4;stroke-opacity:1" x1="501.36754886316953" y1="797.7825973993926" x2="508.09819597888986" y2="822.383458811774" />
 <line style="stroke:blue;stroke-width:4;stroke-opacity:1" x1="508.09819597888986" y1="822.383458811774" x2="515.010084510211" y2="857.0971662974767" />
 <line style="stroke:blue;stroke-width:4;stroke-opacity:1" x1="515.010084510211" y1="857.0971662974767" x2="522.0579041032327" y2="900.0297562250375" />
 <line style="stroke:blue;stroke-width:4;stroke-opacity:1" x1="522.0579041032327" y1="900.0297562250375" x2="529.1963444040548" y2="948.5922042484233" />
 <line style="stroke:blue;stroke-width:4;stroke-opacity:1" x1="529.1963444040548" y1="948.5922042484233" x2="534.5841573950966" y2="987.1480510621058" />
 <line style="stroke:blue;stroke-width:4;stroke-opacity:1" x1="534.5841573950966" y1="987.1480510621058" x2="536.3800950587771" y2="1000.0" />
 <line style="stroke:blue;stroke-width:4;stroke-opacity:1" x1="536.3800950587771" y1="1000.0" x2="536.3800950587771" y2="1000.0" />
 <line style="stroke:blue;stroke-width:4;stroke-opacity:1" x1="501.4412965715973" y1="506.74437908906674" x2="501.46735385597793" y2="506.74437908906674" />
 <line style="stroke-dasharray: 15, 10;stroke:red;stroke-width:4;" x1="501.4412965715973" y1="506.74437908906674" x2="498.532646144022" y2="506.74437908906674" />
 <line style="stroke:blue;stroke-width:4;stroke-opacity:1" x1="505.7651862863894" y1="517.3718958287741" x2="505.8694154239118" y2="517.3718958287741" />
 <line style="stroke-dasharray: 15, 10;stroke:red;stroke-width:4;" x1="505.7651862863894" y1="517.3718958287741" x2="494.13058457608815" y2="517.3718958287741" />
 <line style="stroke:blue;stroke-width:4;stroke-opacity:1" x1="511.28754256447314" y1="531.1020652979572" x2="511.55663783172844" y2="531.1020652979572" />
 <line style="stroke-dasharray: 15, 10;stroke:red;stroke-width:4;" x1="511.28754256447314" y1="531.1020652979572" x2="488.4433621682715" y2="531.1020652979572" />
 <line style="stroke:blue;stroke-width:4;stroke-opacity:1" x1="516.3242388259456" y1="544.0777204611486" x2="516.9313301809988" y2="544.0777204611486" />
 <line style="stroke-dasharray: 15, 10;stroke:red;stroke-width:4;" x1="516.3242388259456" y1="544.0777204611486" x2="483.0686698190012" y2="544.0777204611486" />
 <line style="stroke:blue;stroke-width:4;stroke-opacity:1" x1="520.6324450625009" y1="556.2895104359671" x2="521.9896192094204" y2="556.2895104359671" />
 <line style="stroke-dasharray: 15, 10;stroke:red;stroke-width:4;" x1="520.6324450625009" y1="556.2895104359671" x2="478.0103807905795" y2="556.2895104359671" />
 <line style="stroke:blue;stroke-width:4;stroke-opacity:1" x1="523.9693312658335" y1="568.2886857899975" x2="526.9598403783529" y2="568.2886857899975" />
 <line style="stroke-dasharray: 15, 10;stroke:red;stroke-width:4;" x1="523.9693312658335" y1="568.2886857899975" x2="473.0401596216471" y2="568.2886857899975" />
 <line style="stroke:blue;stroke-width:4;stroke-opacity:1" x1="526.118346093863" y1="580.3694064437022" x2="531.963838716358" y2="580.3694064437022" />
 <line style="stroke-dasharray: 15, 10;stroke:red;stroke-width:4;" x1="526.118346093863" y1="580.3694064437022" x2="468.0361612836419" y2="580.3694064437022" />
 <line style="stroke:blue;stroke-width:4;stroke-opacity:1" x1="526.8629382045091" y1="592.9490163944481" x2="537.1744837673206" y2="592.9490163944481" />
 <line style="stroke-dasharray: 15, 10;stroke:red;stroke-width:4;" x1="526.8629382045091" y1="592.9490163944481" x2="462.8255162326794" y2="592.9490163944481" />
 <line style="stroke:blue;stroke-width:4;stroke-opacity:1" x1="525.9865562556912" y1="606.6281636263101" x2="542.8405720724561" y2="606.6281636263101" />
 <line style="stroke-dasharray: 15, 10;stroke:red;stroke-width:4;" x1="525.9865562556912" y1="606.6281636263101" x2="457.1594279275438" y2="606.6281636263101" />
 <line style="stroke:blue;stroke-width:4;stroke-opacity:1" x1="523.2726489053291" y1="622.1779019990095" x2="549.2814845977815" y2="622.1779019990095" />
 <line style="stroke-dasharray: 15, 10;stroke:red;stroke-width:4;" x1="523.2726489053291" y1="622.1779019990095" x2="450.7185154022184" y2="622.1779019990095" />
 <line style="stroke:blue;stroke-width:4;stroke-opacity:1" x1="519.102334165254" y1="639.147281364241" x2="556.3104316759146" y2="639.147281364241" />
 <line style="stroke-dasharray: 15, 10;stroke:red;stroke-width:4;" x1="519.102334165254" y1="639.147281364241" x2="443.68956832408526" y2="639.147281364241" />
 <line style="stroke:blue;stroke-width:4;stroke-opacity:1" x1="513.8567300472969" y1="656.7238294919093" x2="563.5908762900982" y2="656.7238294919093" />
 <line style="stroke-dasharray: 15, 10;stroke:red;stroke-width:4;" x1="513.8567300472969" y1="656.7238294919093" x2="436.4091237099017" y2="656.7238294919093" />
 <line style="stroke:blue;stroke-width:4;stroke-opacity:1" x1="507.9169545632891" y1="674.0292688419423" x2="570.7590239717069" y2="674.0292688419423" />
 <line style="stroke-dasharray: 15, 10;stroke:red;stroke-width:4;" x1="507.9169545632891" y1="674.0292688419423" x2="429.24097602829295" y2="674.0292688419423" />
 <line style="stroke:blue;stroke-width:4;stroke-opacity:1" x1="501.66412572506175" y1="690.3322233824979" x2="577.5119288491571" y2="690.3322233824979" />
 <line style="stroke-dasharray: 15, 10;stroke:red;stroke-width:4;" x1="501.66412572506175" y1="690.3322233824979" x2="422.4880711508428" y2="690.3322233824979" />
 <line style="stroke:blue;stroke-width:4;stroke-opacity:1" x1="499.2091283682874" y1="696.398224672017" x2="580.0245488526486" y2="696.398224672017" />
 <line style="stroke-dasharray: 15, 10;stroke:red;stroke-width:4;" x1="499.2091283682874" y1="696.398224672017" x2="419.9754511473513" y2="696.398224672017" />
 <line style="stroke-dasharray: 15, 10;stroke:red;stroke-width:4;" x1="480.22820920718624" y1="742.3514863527009" x2="599.0590130760677" y2="742.3514863527009" />
 <line style="stroke:blue;stroke-width:4;stroke-opacity:1" x1="480.22820920718624" y1="742.3514863527009" x2="400.9409869239322" y2="742.3514863527009" />
 <line style="stroke:blue;stroke-width:4;stroke-opacity:1" x1="499.2091283682874" y1="788.797798563021" x2="618.2977055157974" y2="788.797798563021" />
 <line style="stroke-dasharray: 15, 10;stroke:red;stroke-width:4;" x1="499.2091283682874" y1="788.797798563021" x2="381.70229448420247" y2="788.797798563021" />
 <line style="stroke-dasharray: 15, 10;stroke:red;stroke-width:4;" x1="501.36754886316953" y1="797.7825973993926" x2="622.0193310490165" y2="797.7825973993926" />
 <line style="stroke:blue;stroke-width:4;stroke-opacity:1" x1="501.36754886316953" y1="797.7825973993926" x2="377.9806689509834" y2="797.7825973993926" />
 <line style="stroke:blue;stroke-width:4;stroke-opacity:1" x1="508.09819597888986" y1="822.383458811774" x2="632.2093414920857" y2="822.383458811774" />
 <line style="stroke-dasharray: 15, 10;stroke:red;stroke-width:4;" x1="508.09819597888986" y1="822.383458811774" x2="367.79065850791415" y2="822.383458811774" />
 <line style="stroke:blue;stroke-width:4;stroke-opacity:1" x1="515.010084510211" y1="857.0971662974767" x2="646.5882299329163" y2="857.0971662974767" />
 <line style="stroke-dasharray: 15, 10;stroke:red;stroke-width:4;" x1="515.010084510211" y1="857.0971662974767" x2="353.4117700670836" y2="857.0971662974767" />
 <line style="stroke:blue;stroke-width:4;stroke-opacity:1" x1="522.0579041032327" y1="900.0297562250375" x2="664.3714909487146" y2="900.0297562250375" />
 <line style="stroke-dasharray: 15, 10;stroke:red;stroke-width:4;" x1="522.0579041032327" y1="900.0297562250375" x2="335.62850905128533" y2="900.0297562250375" />
 <line style="stroke:blue;stroke-width:4;stroke-opacity:1" x1="529.1963444040548" y1="948.5922042484233" x2="684.4867155420395" y2="948.5922042484233" />
 <line style="stroke-dasharray: 15, 10;stroke:red;stroke-width:4;" x1="529.1963444040548" y1="948.5922042484233" x2="315.51328445796037" y2="948.5922042484233" />
 <line style="stroke-dasharray: 15, 10;stroke:red;stroke-width:4;" x1="534.5841573950966" y1="987.1480510621058" x2="700.4570702010462" y2="987.1480510621058" />
 <line style="stroke:blue;stroke-width:4;stroke-opacity:1" x1="534.5841573950966" y1="987.1480510621058" x2="299.54292979895365" y2="987.1480510621058" />
 <line style="stroke:blue;stroke-width:4;stroke-opacity:1" x1="536.3800950587771" y1="1000.0" x2="705.7805217540484" y2="1000.0" />
 <line style="stroke-dasharray: 15, 10;stroke:red;stroke-width:4;" x1="536.3800950587771" y1="1000.0" x2="294.21947824595134" y2="1000.0" />
 <line style="stroke:blue;stroke-width:4;stroke-opacity:1" x1="499.99999999999994" y1="503.20187350916433" x2="503.5240802974176" y2="504.6876526476271" />
 <line style="stroke:blue;stroke-width:4;stroke-opacity:1" x1="503.5240802974176" y1="504.6876526476271" x2="514.0963211896704" y2="509.1449900630155" />
 <line style="stroke:blue;stroke-width:4;stroke-opacity:1" x1="514.0963211896704" y1="509.1449900630155" x2="527.7099127005314" y2="514.9487904291542" />
 <line style="stroke:blue;stroke-width:4;stroke-opacity:1" x1="527.7099127005314" y1="514.9487904291542" x2="540.4465685380263" y2="520.562482104121" />
 <line style="stroke:blue;stroke-width:4;stroke-opacity:1" x1="540.4465685380263" y1="520.562482104121" x2="552.1279698842649" y2="526.1511597611227" />
 <line style="stroke:blue;stroke-width:4;stroke-opacity:1" x1="552.1279698842649" y1="526.1511597611227" x2="562.9722030081707" y2="532.2763231601798" />
 <line style="stroke:blue;stroke-width:4;stroke-opacity:1" x1="562.9722030081707" y1="532.2763231601798" x2="573.0341454617957" y2="539.2990996982645" />
 <line style="stroke:blue;stroke-width:4;stroke-opacity:1" x1="573.0341454617957" y1="539.2990996982645" x2="582.4557790933056" y2="547.6677210684629" />
 <line style="stroke:blue;stroke-width:4;stroke-opacity:1" x1="582.4557790933056" y1="547.6677210684629" x2="591.5087012428859" y2="557.9600344558803" />
 <line style="stroke:blue;stroke-width:4;stroke-opacity:1" x1="591.5087012428859" y1="557.9600344558803" x2="600.5850044009453" y2="570.8743821958458" />
 <line style="stroke:blue;stroke-width:4;stroke-opacity:1" x1="600.5850044009453" y1="570.8743821958458" x2="609.6353097902382" y2="585.8224032499176" />
 <line style="stroke:blue;stroke-width:4;stroke-opacity:1" x1="609.6353097902382" y1="585.8224032499176" x2="618.3546039179366" y2="601.9601018640709" />
 <line style="stroke:blue;stroke-width:4;stroke-opacity:1" x1="618.3546039179366" y1="601.9601018640709" x2="626.39134191029" y2="618.3969509033592" />
 <line style="stroke:blue;stroke-width:4;stroke-opacity:1" x1="626.39134191029" y1="618.3969509033592" x2="633.4978539461835" y2="634.3462982854714" />
 <line style="stroke:blue;stroke-width:4;stroke-opacity:1" x1="633.4978539461835" y1="634.3462982854714" x2="636.0512193139186" y2="640.371554210747" />
 <line style="stroke:blue;stroke-width:4;stroke-opacity:1" x1="636.0512193139186" y1="640.371554210747" x2="655.1235456140018" y2="686.2869538147669" />
 <line style="stroke:blue;stroke-width:4;stroke-opacity:1" x1="655.1235456140018" y1="686.2869538147669" x2="701.3875845909951" y2="705.7079194878235" />
 <line style="stroke:blue;stroke-width:4;stroke-opacity:1" x1="701.3875845909951" y1="705.7079194878235" x2="709.2670305443735" y2="710.5348979040356" />
 <line style="stroke:blue;stroke-width:4;stroke-opacity:1" x1="709.2670305443735" y1="710.5348979040356" x2="731.4217526893983" y2="723.1710476144613" />
 <line style="stroke:blue;stroke-width:4;stroke-opacity:1" x1="731.4217526893983" y1="723.1710476144613" x2="760.8554939039677" y2="742.8299023264253" />
 <line style="stroke:blue;stroke-width:4;stroke-opacity:1" x1="760.8554939039677" y1="742.8299023264253" x2="796.1969804024523" y2="768.2042667712997" />
 <line style="stroke:blue;stroke-width:4;stroke-opacity:1" x1="796.1969804024523" y1="768.2042667712997" x2="835.5834562546145" y2="797.4954635358486" />
 <line style="stroke:blue;stroke-width:4;stroke-opacity:1" x1="835.5834562546145" y1="797.4954635358486" x2="866.6563160926896" y2="820.9488051704625" />
 <line style="stroke:blue;stroke-width:4;stroke-opacity:1" x1="866.6563160926896" y1="820.9488051704625" x2="877.0139360387146" y2="828.766585715334" />
 <line style="stroke:blue;stroke-width:4;stroke-opacity:1" x1="877.0139360387146" y1="828.766585715334" x2="877.0139360387146" y2="828.766585715334" />
 <line style="stroke:blue;stroke-width:4;stroke-opacity:1" x1="503.5240802974176" y1="504.6876526476271" x2="503.5425055799024" y2="504.66922736514226" />
 <line style="stroke-dasharray: 15, 10;stroke:red;stroke-width:4;" x1="503.5240802974176" y1="504.6876526476271" x2="501.46735385597793" y2="506.74437908906674" />
 <line style="stroke:blue;stroke-width:4;stroke-opacity:1" x1="514.0963211896704" y1="509.1449900630155" x2="514.1700223196098" y2="509.0712889330762" />
 <line style="stroke-dasharray: 15, 10;stroke:red;stroke-width:4;" x1="514.0963211896704" y1="509.1449900630155" x2="505.8694154239118" y2="517.3718958287741" />
 <line style="stroke:blue;stroke-width:4;stroke-opacity:1" x1="527.7099127005314" y1="514.9487904291542" x2="527.9001917887929" y2="514.7585113408928" />
 <line style="stroke-dasharray: 15, 10;stroke:red;stroke-width:4;" x1="527.7099127005314" y1="514.9487904291542" x2="511.55663783172844" y2="531.1020652979572" />
 <line style="stroke:blue;stroke-width:4;stroke-opacity:1" x1="540.4465685380263" y1="520.562482104121" x2="540.8758469519842" y2="520.1332036901631" />
 <line style="stroke-dasharray: 15, 10;stroke:red;stroke-width:4;" x1="540.4465685380263" y1="520.562482104121" x2="516.9313301809988" y2="544.0777204611486" />
 <line style="stroke:blue;stroke-width:4;stroke-opacity:1" x1="552.1279698842649" y1="526.1511597611227" x2="553.0876369268028" y2="525.1914927185849" />
 <line style="stroke-dasharray: 15, 10;stroke:red;stroke-width:4;" x1="552.1279698842649" y1="526.1511597611227" x2="521.9896192094204" y2="556.2895104359671" />
 <line style="stroke:blue;stroke-width:4;stroke-opacity:1" x1="562.9722030081707" y1="532.2763231601798" x2="565.0868122808332" y2="530.1617138875172" />
 <line style="stroke-dasharray: 15, 10;stroke:red;stroke-width:4;" x1="562.9722030081707" y1="532.2763231601798" x2="526.9598403783529" y2="568.2886857899975" />
 <line style="stroke:blue;stroke-width:4;stroke-opacity:1" x1="573.0341454617957" y1="539.2990996982645" x2="577.1675329345378" y2="535.1657122255224" />
 <line style="stroke-dasharray: 15, 10;stroke:red;stroke-width:4;" x1="573.0341454617957" y1="539.2990996982645" x2="531.963838716358" y2="580.3694064437022" />
 <line style="stroke:blue;stroke-width:4;stroke-opacity:1" x1="582.4557790933056" y1="547.6677210684629" x2="589.7471428852838" y2="540.3763572764849" />
 <line style="stroke-dasharray: 15, 10;stroke:red;stroke-width:4;" x1="582.4557790933056" y1="547.6677210684629" x2="537.1744837673206" y2="592.9490163944481" />
 <line style="stroke:blue;stroke-width:4;stroke-opacity:1" x1="591.5087012428859" y1="557.9600344558803" x2="603.4262901171458" y2="546.0424455816205" />
 <line style="stroke-dasharray: 15, 10;stroke:red;stroke-width:4;" x1="591.5087012428859" y1="557.9600344558803" x2="542.8405720724561" y2="606.6281636263101" />
 <line style="stroke:blue;stroke-width:4;stroke-opacity:1" x1="600.5850044009453" y1="570.8743821958458" x2="618.9760284898451" y2="552.483358106946" />
 <line style="stroke-dasharray: 15, 10;stroke:red;stroke-width:4;" x1="600.5850044009453" y1="570.8743821958458" x2="549.2814845977816" y2="622.1779019990095" />
 <line style="stroke:blue;stroke-width:4;stroke-opacity:1" x1="609.6353097902382" y1="585.8224032499176" x2="635.9454078550767" y2="559.5123051850791" />
 <line style="stroke-dasharray: 15, 10;stroke:red;stroke-width:4;" x1="609.6353097902382" y1="585.8224032499176" x2="556.3104316759146" y2="639.147281364241" />
 <line style="stroke:blue;stroke-width:4;stroke-opacity:1" x1="618.3546039179366" y1="601.9601018640709" x2="653.521955982745" y2="566.7927497992627" />
 <line style="stroke-dasharray: 15, 10;stroke:red;stroke-width:4;" x1="618.3546039179366" y1="601.9601018640709" x2="563.5908762900983" y2="656.7238294919093" />
 <line style="stroke:blue;stroke-width:4;stroke-opacity:1" x1="626.39134191029" y1="618.3969509033592" x2="670.8273953327779" y2="573.9608974808714" />
 <line style="stroke-dasharray: 15, 10;stroke:red;stroke-width:4;" x1="626.39134191029" y1="618.3969509033592" x2="570.7590239717069" y2="674.0292688419423" />
 <line style="stroke:blue;stroke-width:4;stroke-opacity:1" x1="633.4978539461835" y1="634.3462982854714" x2="687.1303498733334" y2="580.7138023583216" />
 <line style="stroke-dasharray: 15, 10;stroke:red;stroke-width:4;" x1="633.4978539461835" y1="634.3462982854714" x2="577.5119288491571" y2="690.3322233824979" />
 <line style="stroke:blue;stroke-width:4;stroke-opacity:1" x1="636.0512193139186" y1="640.371554210747" x2="693.1963511628527" y2="583.226422361813" />
 <line style="stroke-dasharray: 15, 10;stroke:red;stroke-width:4;" x1="636.0512193139186" y1="640.371554210747" x2="580.0245488526486" y2="696.398224672017" />
 <line style="stroke-dasharray: 15, 10;stroke:red;stroke-width:4;" x1="655.1235456140018" y1="686.2869538147669" x2="739.1496128435366" y2="602.2608865852321" />
 <line style="stroke:blue;stroke-width:4;stroke-opacity:1" x1="655.1235456140018" y1="686.2869538147669" x2="599.0590130760678" y2="742.3514863527009" />
 <line style="stroke:blue;stroke-width:4;stroke-opacity:1" x1="701.3875845909951" y1="705.7079194878235" x2="785.5959250538567" y2="621.4995790249618" />
 <line style="stroke-dasharray: 15, 10;stroke:red;stroke-width:4;" x1="701.3875845909951" y1="705.7079194878235" x2="618.2977055157974" y2="788.797798563021" />
 <line style="stroke-dasharray: 15, 10;stroke:red;stroke-width:4;" x1="709.2670305443735" y1="710.5348979040356" x2="794.5807238902282" y2="625.221204558181" />
 <line style="stroke:blue;stroke-width:4;stroke-opacity:1" x1="709.2670305443735" y1="710.5348979040356" x2="622.0193310490165" y2="797.7825973993926" />
 <line style="stroke:blue;stroke-width:4;stroke-opacity:1" x1="731.4217526893983" y1="723.1710476144613" x2="819.1815853026095" y2="635.4112150012502" />
 <line style="stroke-dasharray: 15, 10;stroke:red;stroke-width:4;" x1="731.4217526893983" y1="723.1710476144613" x2="632.2093414920857" y2="822.383458811774" />
 <line style="stroke:blue;stroke-width:4;stroke-opacity:1" x1="760.8554939039677" y1="742.8299023264253" x2="853.8952927883123" y2="649.7901034420807" />
 <line style="stroke-dasharray: 15, 10;stroke:red;stroke-width:4;" x1="760.8554939039677" y1="742.8299023264253" x2="646.5882299329163" y2="857.0971662974767" />
 <line style="stroke:blue;stroke-width:4;stroke-opacity:1" x1="796.1969804024523" y1="768.2042667712997" x2="896.8278827158731" y2="667.573364457879" />
 <line style="stroke-dasharray: 15, 10;stroke:red;stroke-width:4;" x1="796.1969804024523" y1="768.2042667712997" x2="664.3714909487145" y2="900.0297562250375" />
 <line style="stroke:blue;stroke-width:4;stroke-opacity:1" x1="835.5834562546145" y1="797.4954635358486" x2="945.3903307392591" y2="687.688589051204" />
 <line style="stroke-dasharray: 15, 10;stroke:red;stroke-width:4;" x1="835.5834562546145" y1="797.4954635358486" x2="684.4867155420395" y2="948.5922042484233" />
 <line style="stroke-dasharray: 15, 10;stroke:red;stroke-width:4;" x1="866.6563160926896" y1="820.9488051704625" x2="983.9461775529414" y2="703.6589437102106" />
 <line style="stroke:blue;stroke-width:4;stroke-opacity:1" x1="866.6563160926896" y1="820.9488051704625" x2="700.4570702010462" y2="987.1480510621058" />
 <line style="stroke:blue;stroke-width:4;stroke-opacity:1" x1="877.0139360387146" y1="828.766585715334" x2="996.7981264908356" y2="708.9823952632129" />
 <line style="stroke-dasharray: 15, 10;stroke:red;stroke-width:4;" x1="877.0139360387146" y1="828.766585715334" x2="705.7805217540484" y2="1000.0" />
 <line style="stroke:blue;stroke-width:4;stroke-opacity:1" x1="499.99999999999994" y1="503.20187350916433" x2="503.5425055799024" y2="501.76057693756695" />
 <line style="stroke:blue;stroke-width:4;stroke-opacity:1" x1="503.5425055799024" y1="501.76057693756695" x2="514.1700223196098" y2="497.43668722277494" />
 <line style="stroke:blue;stroke-width:4;stroke-opacity:1" x1="514.1700223196098" y1="497.43668722277494" x2="527.9001917887929" y2="491.91433094469113" />
 <line style="stroke:blue;stroke-width:4;stroke-opacity:1" x1="527.9001917887929" y1="491.91433094469113" x2="540.8758469519842" y2="486.87763468321873" />
 <line style="stroke:blue;stroke-width:4;stroke-opacity:1" x1="540.8758469519842" y1="486.87763468321873" x2="553.0876369268028" y2="482.56942844666344" />
 <line style="stroke:blue;stroke-width:4;stroke-opacity:1" x1="553.0876369268028" y1="482.56942844666344" x2="565.0868122808333" y2="479.2325422433308" />
 <line style="stroke:blue;stroke-width:4;stroke-opacity:1" x1="565.0868122808333" y1="479.2325422433308" x2="577.1675329345378" y2="477.08352741530126" />
 <line style="stroke:blue;stroke-width:4;stroke-opacity:1" x1="577.1675329345378" y1="477.08352741530126" x2="589.7471428852838" y2="476.33893530465525" />
 <line style="stroke:blue;stroke-width:4;stroke-opacity:1" x1="589.7471428852838" y1="476.33893530465525" x2="603.4262901171458" y2="477.21531725347313" />
 <line style="stroke:blue;stroke-width:4;stroke-opacity:1" x1="603.4262901171458" y1="477.21531725347313" x2="618.9760284898451" y2="479.92922460383517" />
 <line style="stroke:blue;stroke-width:4;stroke-opacity:1" x1="618.9760284898451" y1="479.92922460383517" x2="635.9454078550767" y2="484.09953934391035" />
 <line style="stroke:blue;stroke-width:4;stroke-opacity:1" x1="635.9454078550767" y1="484.09953934391035" x2="653.521955982745" y2="489.34514346186745" />
 <line style="stroke:blue;stroke-width:4;stroke-opacity:1" x1="653.521955982745" y1="489.34514346186745" x2="670.8273953327779" y2="495.2849189458752" />
 <line style="stroke:blue;stroke-width:4;stroke-opacity:1" x1="670.8273953327779" y1="495.2849189458752" x2="687.1303498733334" y2="501.5377477841025" />
 <line style="stroke:blue;stroke-width:4;stroke-opacity:1" x1="687.1303498733334" y1="501.5377477841025" x2="693.1963511628527" y2="503.9927451408769" />
 <line style="stroke:blue;stroke-width:4;stroke-opacity:1" x1="693.1963511628527" y1="503.9927451408769" x2="739.1496128435366" y2="522.973664301978" />
 <line style="stroke:blue;stroke-width:4;stroke-opacity:1" x1="739.1496128435366" y1="522.973664301978" x2="785.5959250538567" y2="503.99274514087693" />
 <line style="stroke:blue;stroke-width:4;stroke-opacity:1" x1="785.5959250538567" y1="503.99274514087693" x2="794.5807238902282" y2="501.8343246459948" />
 <line style="stroke:blue;stroke-width:4;stroke-opacity:1" x1="794.5807238902282" y1="501.8343246459948" x2="819.1815853026095" y2="495.10367753027447" />
 <line style="stroke:blue;stroke-width:4;stroke-opacity:1" x1="819.1815853026095" y1="495.10367753027447" x2="853.8952927883123" y2="488.19178899895326" />
 <line style="stroke:blue;stroke-width:4;stroke-opacity:1" x1="853.8952927883123" y1="488.19178899895326" x2="896.8278827158731" y2="481.1439694059316" />
 <line style="stroke:blue;stroke-width:4;stroke-opacity:1" x1="896.8278827158731" y1="481.1439694059316" x2="945.3903307392591" y2="474.0055291051095" />
 <line style="stroke:blue;stroke-width:4;stroke-opacity:1" x1="945.3903307392591" y1="474.0055291051095" x2="983.9461775529415" y2="468.6177161140677" />
 <line style="stroke:blue;stroke-width:4;stroke-opacity:1" x1="983.9461775529415" y1="468.6177161140677" x2="996.7981264908358" y2="466.8217784503872" />
 <line style="stroke:blue;stroke-width:4;stroke-opacity:1" x1="996.7981264908358" y1="466.8217784503872" x2="996.7981264908358" y2="466.8217784503872" />
 <line style="stroke:blue;stroke-width:4;stroke-opacity:1" x1="503.5425055799024" y1="501.76057693756695" x2="503.5425055799024" y2="501.73451965318634" />
 <line style="stroke-dasharray: 15, 10;stroke:red;stroke-width:4;" x1="503.5425055799024" y1="501.76057693756695" x2="503.5425055799024" y2="504.66922736514226" />
 <line style="stroke:blue;stroke-width:4;stroke-opacity:1" x1="514.1700223196098" y1="497.43668722277494" x2="514.1700223196098" y2="497.3324580852525" />
 <line style="stroke-dasharray: 15, 10;stroke:red;stroke-width:4;" x1="514.1700223196098" y1="497.43668722277494" x2="514.1700223196098" y2="509.0712889330762" />
 <line style="stroke:blue;stroke-width:4;stroke-opacity:1" x1="527.9001917887929" y1="491.91433094469113" x2="527.9001917887929" y2="491.64523567743583" />
 <line style="stroke-dasharray: 15, 10;stroke:red;stroke-width:4;" x1="527.9001917887929" y1="491.91433094469113" x2="527.9001917887929" y2="514.7585113408928" />
 <line style="stroke:blue;stroke-width:4;stroke-opacity:1" x1="540.8758469519842" y1="486.87763468321873" x2="540.8758469519842" y2="486.27054332816556" />
 <line style="stroke-dasharray: 15, 10;stroke:red;stroke-width:4;" x1="540.8758469519842" y1="486.87763468321873" x2="540.8758469519842" y2="520.1332036901631" />
 <line style="stroke:blue;stroke-width:4;stroke-opacity:1" x1="553.0876369268028" y1="482.56942844666344" x2="553.0876369268028" y2="481.2122542997439" />
 <line style="stroke-dasharray: 15, 10;stroke:red;stroke-width:4;" x1="553.0876369268028" y1="482.56942844666344" x2="553.0876369268028" y2="525.1914927185849" />
 <line style="stroke:blue;stroke-width:4;stroke-opacity:1" x1="565.0868122808333" y1="479.2325422433308" x2="565.0868122808333" y2="476.2420331308115" />
 <line style="stroke-dasharray: 15, 10;stroke:red;stroke-width:4;" x1="565.0868122808333" y1="479.2325422433308" x2="565.0868122808333" y2="530.1617138875172" />
 <line style="stroke:blue;stroke-width:4;stroke-opacity:1" x1="577.1675329345378" y1="477.08352741530126" x2="577.1675329345378" y2="471.2380347928063" />
 <line style="stroke-dasharray: 15, 10;stroke:red;stroke-width:4;" x1="577.1675329345378" y1="477.08352741530126" x2="577.1675329345378" y2="535.1657122255224" />
 <line style="stroke:blue;stroke-width:4;stroke-opacity:1" x1="589.7471428852838" y1="476.33893530465525" x2="589.7471428852838" y2="466.02738974184376" />
 <line style="stroke-dasharray: 15, 10;stroke:red;stroke-width:4;" x1="589.7471428852838" y1="476.33893530465525" x2="589.7471428852838" y2="540.3763572764849" />
 <line style="stroke:blue;stroke-width:4;stroke-opacity:1" x1="603.4262901171458" y1="477.21531725347313" x2="603.4262901171458" y2="460.3613014367082" />
 <line style="stroke-dasharray: 15, 10;stroke:red;stroke-width:4;" x1="603.4262901171458" y1="477.21531725347313" x2="603.4262901171458" y2="546.0424455816205" />
 <line style="stroke:blue;stroke-width:4;stroke-opacity:1" x1="618.9760284898451" y1="479.92922460383517" x2="618.9760284898451" y2="453.9203889113827" />
 <line style="stroke-dasharray: 15, 10;stroke:red;stroke-width:4;" x1="618.9760284898451" y1="479.92922460383517" x2="618.9760284898451" y2="552.483358106946" />
 <line style="stroke:blue;stroke-width:4;stroke-opacity:1" x1="635.9454078550767" y1="484.09953934391035" x2="635.9454078550767" y2="446.89144183324964" />
 <line style="stroke-dasharray: 15, 10;stroke:red;stroke-width:4;" x1="635.9454078550767" y1="484.09953934391035" x2="635.9454078550767" y2="559.5123051850791" />
 <line style="stroke:blue;stroke-width:4;stroke-opacity:1" x1="653.521955982745" y1="489.34514346186745" x2="653.521955982745" y2="439.61099721906606" />
 <line style="stroke-dasharray: 15, 10;stroke:red;stroke-width:4;" x1="653.521955982745" y1="489.34514346186745" x2="653.521955982745" y2="566.7927497992627" />
 <line style="stroke:blue;stroke-width:4;stroke-opacity:1" x1="670.8273953327779" y1="495.2849189458752" x2="670.8273953327779" y2="432.44284953745733" />
 <line style="stroke-dasharray: 15, 10;stroke:red;stroke-width:4;" x1="670.8273953327779" y1="495.2849189458752" x2="670.8273953327779" y2="573.9608974808714" />
 <line style="stroke:blue;stroke-width:4;stroke-opacity:1" x1="687.1303498733334" y1="501.5377477841025" x2="687.1303498733334" y2="425.6899446600072" />
 <line style="stroke-dasharray: 15, 10;stroke:red;stroke-width:4;" x1="687.1303498733334" y1="501.5377477841025" x2="687.1303498733334" y2="580.7138023583216" />
 <line style="stroke:blue;stroke-width:4;stroke-opacity:1" x1="693.1963511628527" y1="503.9927451408769" x2="693.1963511628527" y2="423.1773246565157" />
 <line style="stroke-dasharray: 15, 10;stroke:red;stroke-width:4;" x1="693.1963511628527" y1="503.9927451408769" x2="693.1963511628527" y2="583.226422361813" />
 <line style="stroke-dasharray: 15, 10;stroke:red;stroke-width:4;" x1="739.1496128435366" y1="522.973664301978" x2="739.1496128435366" y2="404.1428604330966" />
 <line style="stroke:blue;stroke-width:4;stroke-opacity:1" x1="739.1496128435366" y1="522.973664301978" x2="739.1496128435366" y2="602.2608865852321" />
 <line style="stroke:blue;stroke-width:4;stroke-opacity:1" x1="785.5959250538567" y1="503.99274514087693" x2="785.5959250538567" y2="384.9041679933669" />
 <line style="stroke-dasharray: 15, 10;stroke:red;stroke-width:4;" x1="785.5959250538567" y1="503.99274514087693" x2="785.5959250538567" y2="621.4995790249618" />
 <line style="stroke-dasharray: 15, 10;stroke:red;stroke-width:4;" x1="794.5807238902282" y1="501.8343246459948" x2="794.5807238902282" y2="381.18254246014783" />
 <line style="stroke:blue;stroke-width:4;stroke-opacity:1" x1="794.5807238902282" y1="501.8343246459948" x2="794.5807238902282" y2="625.221204558181" />
 <line style="stroke:blue;stroke-width:4;stroke-opacity:1" x1="819.1815853026095" y1="495.10367753027447" x2="819.1815853026095" y2="370.99253201707853" />
 <line style="stroke-dasharray: 15, 10;stroke:red;stroke-width:4;" x1="819.1815853026095" y1="495.10367753027447" x2="819.1815853026095" y2="635.4112150012502" />
 <line style="stroke:blue;stroke-width:4;stroke-opacity:1" x1="853.8952927883123" y1="488.19178899895326" x2="853.8952927883123" y2="356.61364357624797" />
 <line style="stroke-dasharray: 15, 10;stroke:red;stroke-width:4;" x1="853.8952927883123" y1="488.19178899895326" x2="853.8952927883123" y2="649.7901034420807" />
 <line style="stroke:blue;stroke-width:4;stroke-opacity:1" x1="896.8278827158731" y1="481.1439694059316" x2="896.8278827158731" y2="338.83038256044983" />
 <line style="stroke-dasharray: 15, 10;stroke:red;stroke-width:4;" x1="896.8278827158731" y1="481.1439694059316" x2="896.8278827158731" y2="667.573364457879" />
 <line style="stroke:blue;stroke-width:4;stroke-opacity:1" x1="945.3903307392591" y1="474.0055291051095" x2="945.3903307392591" y2="318.71515796712487" />
 <line style="stroke-dasharray: 15, 10;stroke:red;stroke-width:4;" x1="945.3903307392591" y1="474.0055291051095" x2="945.3903307392591" y2="687.688589051204" />
 <line style="stroke-dasharray: 15, 10;stroke:red;stroke-width:4;" x1="983.9461775529415" y1="468.6177161140677" x2="983.9461775529415" y2="302.7448033081181" />
 <line style="stroke:blue;stroke-width:4;stroke-opacity:1" x1="983.9461775529415" y1="468.6177161140677" x2="983.9461775529415" y2="703.6589437102106" />
 <line style="stroke:blue;stroke-width:4;stroke-opacity:1" x1="996.7981264908358" y1="466.8217784503872" x2="996.7981264908358" y2="297.42135175511584" />
 <line style="stroke-dasharray: 15, 10;stroke:red;stroke-width:4;" x1="996.7981264908358" y1="466.8217784503872" x2="996.7981264908358" y2="708.9823952632129" />
 <line style="stroke:blue;stroke-width:4;stroke-opacity:1" x1="499.99999999999994" y1="503.20187350916433" x2="501.48577913846276" y2="499.6777932117467" />
 <line style="stroke:blue;stroke-width:4;stroke-opacity:1" x1="501.48577913846276" y1="499.6777932117467" x2="505.9431165538511" y2="489.1055523194939" />
 <line style="stroke:blue;stroke-width:4;stroke-opacity:1" x1="505.9431165538511" y1="489.1055523194939" x2="511.74691691998987" y2="475.4919608086328" />
 <line style="stroke:blue;stroke-width:4;stroke-opacity:1" x1="511.74691691998987" y1="475.4919608086328" x2="517.3606085949566" y2="462.7553049711379" />
 <line style="stroke:blue;stroke-width:4;stroke-opacity:1" x1="517.3606085949566" y1="462.7553049711379" x2="522.9492862519583" y2="451.07390362489934" />
 <line style="stroke:blue;stroke-width:4;stroke-opacity:1" x1="522.9492862519583" y1="451.07390362489934" x2="529.0744496510154" y2="440.2296705009936" />
 <line style="stroke:blue;stroke-width:4;stroke-opacity:1" x1="529.0744496510154" y1="440.2296705009936" x2="536.0972261891002" y2="430.1677280473686" />
 <line style="stroke:blue;stroke-width:4;stroke-opacity:1" x1="536.0972261891002" y1="430.1677280473686" x2="544.4658475592986" y2="420.74609441585864" />
 <line style="stroke:blue;stroke-width:4;stroke-opacity:1" x1="544.4658475592986" y1="420.74609441585864" x2="554.758160946716" y2="411.6931722662784" />
 <line style="stroke:blue;stroke-width:4;stroke-opacity:1" x1="554.758160946716" y1="411.6931722662784" x2="567.6725086866815" y2="402.6168691082191" />
 <line style="stroke:blue;stroke-width:4;stroke-opacity:1" x1="567.6725086866815" y1="402.6168691082191" x2="582.6205297407532" y2="393.56656371892603" />
 <line style="stroke:blue;stroke-width:4;stroke-opacity:1" x1="582.6205297407532" y1="393.56656371892603" x2="598.7582283549066" y2="384.8472695912277" />
 <line style="stroke:blue;stroke-width:4;stroke-opacity:1" x1="598.7582283549066" y1="384.8472695912277" x2="615.1950773941949" y2="376.8105315988743" />
 <line style="stroke:blue;stroke-width:4;stroke-opacity:1" x1="615.1950773941949" y1="376.8105315988743" x2="631.1444247763071" y2="369.70401956298076" />
 <line style="stroke:blue;stroke-width:4;stroke-opacity:1" x1="631.1444247763071" y1="369.70401956298076" x2="637.1696807015826" y2="367.15065419524564" />
 <line style="stroke:blue;stroke-width:4;stroke-opacity:1" x1="637.1696807015826" y1="367.15065419524564" x2="683.0850803056026" y2="348.0783278951624" />
 <line style="stroke:blue;stroke-width:4;stroke-opacity:1" x1="683.0850803056026" y1="348.0783278951624" x2="702.5060459786591" y2="301.81428891816927" />
 <line style="stroke:blue;stroke-width:4;stroke-opacity:1" x1="702.5060459786591" y1="301.81428891816927" x2="707.3330243948712" y2="293.93484296479073" />
 <line style="stroke:blue;stroke-width:4;stroke-opacity:1" x1="707.3330243948712" y1="293.93484296479073" x2="719.969174105297" y2="271.78012081976595" />
 <line style="stroke:blue;stroke-width:4;stroke-opacity:1" x1="719.969174105297" y1="271.78012081976595" x2="739.628028817261" y2="242.34637960519655" />
 <line style="stroke:blue;stroke-width:4;stroke-opacity:1" x1="739.628028817261" y1="242.34637960519655" x2="765.0023932621355" y2="207.00489310671205" />
 <line style="stroke:blue;stroke-width:4;stroke-opacity:1" x1="765.0023932621355" y1="207.00489310671205" x2="794.2935900266843" y2="167.6184172545499" />
 <line style="stroke:blue;stroke-width:4;stroke-opacity:1" x1="794.2935900266843" y1="167.6184172545499" x2="817.7469316612983" y2="136.5455574164747" />
 <line style="stroke:blue;stroke-width:4;stroke-opacity:1" x1="817.7469316612983" y1="136.5455574164747" x2="825.5647122061696" y2="126.18793747044968" />
 <line style="stroke:blue;stroke-width:4;stroke-opacity:1" x1="825.5647122061696" y1="126.18793747044968" x2="825.5647122061696" y2="126.18793747044968" />
 <line style="stroke:blue;stroke-width:4;stroke-opacity:1" x1="501.48577913846276" y1="499.6777932117467" x2="501.46735385597793" y2="499.65936792926186" />
 <line style="stroke-dasharray: 15, 10;stroke:red;stroke-width:4;" x1="501.48577913846276" y1="499.6777932117467" x2="503.5425055799024" y2="501.73451965318634" />
 <line style="stroke:blue;stroke-width:4;stroke-opacity:1" x1="505.9431165538511" y1="489.1055523194939" x2="505.8694154239118" y2="489.0318511895546" />
 <line style="stroke-dasharray: 15, 10;stroke:red;stroke-width:4;" x1="505.9431165538511" y1="489.1055523194939" x2="514.1700223196098" y2="497.3324580852525" />
 <line style="stroke:blue;stroke-width:4;stroke-opacity:1" x1="511.74691691998987" y1="475.4919608086328" x2="511.55663783172844" y2="475.30168172037145" />
 <line style="stroke-dasharray: 15, 10;stroke:red;stroke-width:4;" x1="511.74691691998987" y1="475.4919608086328" x2="527.9001917887929" y2="491.64523567743583" />
 <line style="stroke:blue;stroke-width:4;stroke-opacity:1" x1="517.3606085949566" y1="462.7553049711379" x2="516.9313301809988" y2="462.3260265571801" />
 <line style="stroke-dasharray: 15, 10;stroke:red;stroke-width:4;" x1="517.3606085949566" y1="462.7553049711379" x2="540.8758469519842" y2="486.2705433281655" />
 <line style="stroke:blue;stroke-width:4;stroke-opacity:1" x1="522.9492862519583" y1="451.07390362489934" x2="521.9896192094204" y2="450.1142365823615" />
 <line style="stroke-dasharray: 15, 10;stroke:red;stroke-width:4;" x1="522.9492862519583" y1="451.07390362489934" x2="553.0876369268028" y2="481.2122542997439" />
 <line style="stroke:blue;stroke-width:4;stroke-opacity:1" x1="529.0744496510154" y1="440.2296705009936" x2="526.9598403783529" y2="438.115061228331" />
 <line style="stroke-dasharray: 15, 10;stroke:red;stroke-width:4;" x1="529.0744496510154" y1="440.2296705009936" x2="565.0868122808333" y2="476.2420331308115" />
 <line style="stroke:blue;stroke-width:4;stroke-opacity:1" x1="536.0972261891002" y1="430.1677280473686" x2="531.963838716358" y2="426.0343405746264" />
 <line style="stroke-dasharray: 15, 10;stroke:red;stroke-width:4;" x1="536.0972261891002" y1="430.1677280473686" x2="577.1675329345378" y2="471.2380347928063" />
 <line style="stroke:blue;stroke-width:4;stroke-opacity:1" x1="544.4658475592986" y1="420.74609441585864" x2="537.1744837673206" y2="413.45473062388055" />
 <line style="stroke-dasharray: 15, 10;stroke:red;stroke-width:4;" x1="544.4658475592986" y1="420.74609441585864" x2="589.7471428852838" y2="466.02738974184376" />
 <line style="stroke:blue;stroke-width:4;stroke-opacity:1" x1="554.758160946716" y1="411.6931722662784" x2="542.8405720724562" y2="399.7755833920186" />
 <line style="stroke-dasharray: 15, 10;stroke:red;stroke-width:4;" x1="554.758160946716" y1="411.6931722662784" x2="603.4262901171458" y2="460.3613014367082" />
 <line style="stroke:blue;stroke-width:4;stroke-opacity:1" x1="567.6725086866815" y1="402.6168691082191" x2="549.2814845977816" y2="384.22584501931914" />
 <line style="stroke-dasharray: 15, 10;stroke:red;stroke-width:4;" x1="567.6725086866815" y1="402.6168691082191" x2="618.9760284898451" y2="453.9203889113827" />
 <line style="stroke:blue;stroke-width:4;stroke-opacity:1" x1="582.6205297407532" y1="393.56656371892603" x2="556.3104316759147" y2="367.2564656540875" />
 <line style="stroke-dasharray: 15, 10;stroke:red;stroke-width:4;" x1="582.6205297407532" y1="393.56656371892603" x2="635.9454078550768" y2="446.89144183324964" />
 <line style="stroke:blue;stroke-width:4;stroke-opacity:1" x1="598.7582283549066" y1="384.8472695912277" x2="563.5908762900983" y2="349.6799175264193" />
 <line style="stroke-dasharray: 15, 10;stroke:red;stroke-width:4;" x1="598.7582283549066" y1="384.8472695912277" x2="653.521955982745" y2="439.610997219066" />
 <line style="stroke:blue;stroke-width:4;stroke-opacity:1" x1="615.1950773941949" y1="376.8105315988743" x2="570.7590239717069" y2="332.3744781763864" />
 <line style="stroke-dasharray: 15, 10;stroke:red;stroke-width:4;" x1="615.1950773941949" y1="376.8105315988743" x2="670.8273953327779" y2="432.44284953745733" />
 <line style="stroke:blue;stroke-width:4;stroke-opacity:1" x1="631.1444247763071" y1="369.70401956298076" x2="577.5119288491571" y2="316.0715236358308" />
 <line style="stroke-dasharray: 15, 10;stroke:red;stroke-width:4;" x1="631.1444247763071" y1="369.70401956298076" x2="687.1303498733336" y2="425.6899446600072" />
 <line style="stroke:blue;stroke-width:4;stroke-opacity:1" x1="637.1696807015826" y1="367.15065419524564" x2="580.0245488526486" y2="310.00552234631164" />
 <line style="stroke-dasharray: 15, 10;stroke:red;stroke-width:4;" x1="637.1696807015826" y1="367.15065419524564" x2="693.1963511628527" y2="423.17732465651574" />
 <line style="stroke-dasharray: 15, 10;stroke:red;stroke-width:4;" x1="683.0850803056026" y1="348.0783278951624" x2="599.0590130760678" y2="264.05226066562767" />
 <line style="stroke:blue;stroke-width:4;stroke-opacity:1" x1="683.0850803056026" y1="348.0783278951624" x2="739.1496128435367" y2="404.1428604330966" />
 <line style="stroke:blue;stroke-width:4;stroke-opacity:1" x1="702.5060459786591" y1="301.81428891816927" x2="618.2977055157975" y2="217.6059484553076" />
 <line style="stroke-dasharray: 15, 10;stroke:red;stroke-width:4;" x1="702.5060459786591" y1="301.81428891816927" x2="785.5959250538567" y2="384.9041679933669" />
 <line style="stroke-dasharray: 15, 10;stroke:red;stroke-width:4;" x1="707.3330243948712" y1="293.93484296479073" x2="622.0193310490166" y2="208.62114961893607" />
 <line style="stroke:blue;stroke-width:4;stroke-opacity:1" x1="707.3330243948712" y1="293.93484296479073" x2="794.5807238902282" y2="381.18254246014783" />
 <line style="stroke:blue;stroke-width:4;stroke-opacity:1" x1="719.969174105297" y1="271.78012081976595" x2="632.2093414920859" y2="184.02028820655474" />
 <line style="stroke-dasharray: 15, 10;stroke:red;stroke-width:4;" x1="719.969174105297" y1="271.78012081976595" x2="819.1815853026096" y2="370.99253201707853" />
 <line style="stroke:blue;stroke-width:4;stroke-opacity:1" x1="739.628028817261" y1="242.34637960519655" x2="646.5882299329164" y2="149.30658072085194" />
 <line style="stroke-dasharray: 15, 10;stroke:red;stroke-width:4;" x1="739.628028817261" y1="242.34637960519655" x2="853.8952927883124" y2="356.61364357624797" />
 <line style="stroke:blue;stroke-width:4;stroke-opacity:1" x1="765.0023932621355" y1="207.00489310671205" x2="664.3714909487146" y2="106.37399079329121" />
 <line style="stroke-dasharray: 15, 10;stroke:red;stroke-width:4;" x1="765.0023932621355" y1="207.00489310671205" x2="896.8278827158733" y2="338.83038256044983" />
 <line style="stroke:blue;stroke-width:4;stroke-opacity:1" x1="794.2935900266843" y1="167.6184172545499" x2="684.4867155420395" y2="57.81154276990513" />
 <line style="stroke-dasharray: 15, 10;stroke:red;stroke-width:4;" x1="794.2935900266843" y1="167.6184172545499" x2="945.3903307392591" y2="318.7151579671248" />
 <line style="stroke-dasharray: 15, 10;stroke:red;stroke-width:4;" x1="817.7469316612983" y1="136.5455574164747" x2="700.4570702010463" y2="19.25569595622271" />
 <line style="stroke:blue;stroke-width:4;stroke-opacity:1" x1="817.7469316612983" y1="136.5455574164747" x2="983.9461775529415" y2="302.7448033081181" />
 <line style="stroke:blue;stroke-width:4;stroke-opacity:1" x1="825.5647122061696" y1="126.18793747044968" x2="705.7805217540486" y2="6.403747018328545" />
 <line style="stroke-dasharray: 15, 10;stroke:red;stroke-width:4;" x1="825.5647122061696" y1="126.18793747044968" x2="996.7981264908358" y2="297.4213517551159" />
 <line style="stroke:blue;stroke-width:4;stroke-opacity:1" x1="499.99999999999994" y1="503.20187350916433" x2="498.5587034284026" y2="499.65936792926186" />
 <line style="stroke:blue;stroke-width:4;stroke-opacity:1" x1="498.5587034284026" y1="499.65936792926186" x2="494.2348137136105" y2="489.0318511895546" />
 <line style="stroke:blue;stroke-width:4;stroke-opacity:1" x1="494.2348137136105" y1="489.0318511895546" x2="488.71245743552674" y2="475.30168172037145" />
 <line style="stroke:blue;stroke-width:4;stroke-opacity:1" x1="488.71245743552674" y1="475.30168172037145" x2="483.6757611740544" y2="462.3260265571801" />
 <line style="stroke:blue;stroke-width:4;stroke-opacity:1" x1="483.6757611740544" y1="462.3260265571801" x2="479.36755493749905" y2="450.1142365823615" />
 <line style="stroke:blue;stroke-width:4;stroke-opacity:1" x1="479.36755493749905" y1="450.1142365823615" x2="476.0306687341664" y2="438.115061228331" />
 <line style="stroke:blue;stroke-width:4;stroke-opacity:1" x1="476.0306687341664" y1="438.115061228331" x2="473.88165390613693" y2="426.0343405746264" />
 <line style="stroke:blue;stroke-width:4;stroke-opacity:1" x1="473.88165390613693" y1="426.0343405746264" x2="473.1370617954909" y2="413.45473062388055" />
 <line style="stroke:blue;stroke-width:4;stroke-opacity:1" x1="473.1370617954909" y1="413.45473062388055" x2="474.01344374430874" y2="399.7755833920186" />
 <line style="stroke:blue;stroke-width:4;stroke-opacity:1" x1="474.01344374430874" y1="399.7755833920186" x2="476.72735109467084" y2="384.22584501931914" />
 <line style="stroke:blue;stroke-width:4;stroke-opacity:1" x1="476.72735109467084" y1="384.22584501931914" x2="480.897665834746" y2="367.2564656540875" />
 <line style="stroke:blue;stroke-width:4;stroke-opacity:1" x1="480.897665834746" y1="367.2564656540875" x2="486.14326995270306" y2="349.6799175264193" />
 <line style="stroke:blue;stroke-width:4;stroke-opacity:1" x1="486.14326995270306" y1="349.6799175264193" x2="492.08304543671085" y2="332.3744781763864" />
 <line style="stroke:blue;stroke-width:4;stroke-opacity:1" x1="492.08304543671085" y1="332.3744781763864" x2="498.3358742749382" y2="316.0715236358308" />
 <line style="stroke:blue;stroke-width:4;stroke-opacity:1" x1="498.3358742749382" y1="316.0715236358308" x2="500.79087163171255" y2="310.00552234631164" />
 <line style="stroke:blue;stroke-width:4;stroke-opacity:1" x1="500.79087163171255" y1="310.00552234631164" x2="519.7717907928137" y2="264.05226066562767" />
 <line style="stroke:blue;stroke-width:4;stroke-opacity:1" x1="519.7717907928137" y1="264.05226066562767" x2="500.79087163171255" y2="217.6059484553076" />
 <line style="stroke:blue;stroke-width:4;stroke-opacity:1" x1="500.79087163171255" y1="217.6059484553076" x2="498.6324511368304" y2="208.62114961893607" />
 <line style="stroke:blue;stroke-width:4;stroke-opacity:1" x1="498.6324511368304" y1="208.62114961893607" x2="491.9018040211101" y2="184.02028820655474" />
 <line style="stroke:blue;stroke-width:4;stroke-opacity:1" x1="491.9018040211101" y1="184.02028820655474" x2="484.989915489789" y2="149.30658072085194" />
 <line style="stroke:blue;stroke-width:4;stroke-opacity:1" x1="484.989915489789" y1="149.30658072085194" x2="477.9420958967673" y2="106.37399079329121" />
 <line style="stroke:blue;stroke-width:4;stroke-opacity:1" x1="477.9420958967673" y1="106.37399079329121" x2="470.80365559594514" y2="57.81154276990513" />
 <line style="stroke:blue;stroke-width:4;stroke-opacity:1" x1="470.80365559594514" y1="57.81154276990513" x2="465.41584260490345" y2="19.25569595622271" />
 <line style="stroke:blue;stroke-width:4;stroke-opacity:1" x1="465.41584260490345" y1="19.25569595622271" x2="463.61990494122284" y2="6.403747018328545" />
 <line style="stroke:blue;stroke-width:4;stroke-opacity:1" x1="463.61990494122284" y1="6.403747018328545" x2="463.61990494122284" y2="6.403747018328545" />
 <line style="stroke:blue;stroke-width:4;stroke-opacity:1" x1="498.5587034284026" y1="499.65936792926186" x2="498.532646144022" y2="499.65936792926186" />
 <line style="stroke-dasharray: 15, 10;stroke:red;stroke-width:4;" x1="498.5587034284026" y1="499.65936792926186" x2="501.46735385597793" y2="499.65936792926186" />
 <line style="stroke:blue;stroke-width:4;stroke-opacity:1" x1="494.2348137136105" y1="489.0318511895546" x2="494.13058457608815" y2="489.0318511895546" />
 <line style="stroke-dasharray: 15, 10;stroke:red;stroke-width:4;" x1="494.2348137136105" y1="489.0318511895546" x2="505.8694154239118" y2="489.0318511895546" />
 <line style="stroke:blue;stroke-width:4;stroke-opacity:1" x1="488.71245743552674" y1="475.30168172037145" x2="488.4433621682715" y2="475.30168172037145" />
 <line style="stroke-dasharray: 15, 10;stroke:red;stroke-width:4;" x1="488.71245743552674" y1="475.30168172037145" x2="511.55663783172844" y2="475.30168172037145" />
 <line style="stroke:blue;stroke-width:4;stroke-opacity:1" x1="483.6757611740544" y1="462.3260265571801" x2="483.0686698190012" y2="462.3260265571801" />
 <line style="stroke-dasharray: 15, 10;stroke:red;stroke-width:4;" x1="483.6757611740544" y1="462.3260265571801" x2="516.9313301809988" y2="462.3260265571801" />
 <line style="stroke:blue;stroke-width:4;stroke-opacity:1" x1="479.36755493749905" y1="450.1142365823615" x2="478.0103807905795" y2="450.1142365823615" />
 <line style="stroke-dasharray: 15, 10;stroke:red;stroke-width:4;" x1="479.36755493749905" y1="450.1142365823615" x2="521.9896192094204" y2="450.1142365823615" />
 <line style="stroke:blue;stroke-width:4;stroke-opacity:1" x1="476.0306687341664" y1="438.115061228331" x2="473.0401596216471" y2="438.115061228331" />
 <line style="stroke-dasharray: 15, 10;stroke:red;stroke-width:4;" x1="476.0306687341664" y1="438.115061228331" x2="526.9598403783529" y2="438.115061228331" />
 <line style="stroke:blue;stroke-width:4;stroke-opacity:1" x1="473.88165390613693" y1="426.0343405746264" x2="468.0361612836419" y2="426.0343405746264" />
 <line style="stroke-dasharray: 15, 10;stroke:red;stroke-width:4;" x1="473.88165390613693" y1="426.0343405746264" x2="531.963838716358" y2="426.0343405746264" />
 <line style="stroke:blue;stroke-width:4;stroke-opacity:1" x1="473.1370617954909" y1="413.45473062388055" x2="462.82551623267943" y2="413.45473062388055" />
 <line style="stroke-dasharray: 15, 10;stroke:red;stroke-width:4;" x1="473.1370617954909" y1="413.45473062388055" x2="537.1744837673206" y2="413.45473062388055" />
 <line style="stroke:blue;stroke-width:4;stroke-opacity:1" x1="474.01344374430874" y1="399.7755833920186" x2="457.1594279275438" y2="399.7755833920186" />
 <line style="stroke-dasharray: 15, 10;stroke:red;stroke-width:4;" x1="474.01344374430874" y1="399.7755833920186" x2="542.8405720724562" y2="399.7755833920186" />
 <line style="stroke:blue;stroke-width:4;stroke-opacity:1" x1="476.72735109467084" y1="384.22584501931914" x2="450.7185154022184" y2="384.22584501931914" />
 <line style="stroke-dasharray: 15, 10;stroke:red;stroke-width:4;" x1="476.72735109467084" y1="384.22584501931914" x2="549.2814845977816" y2="384.22584501931914" />
 <line style="stroke:blue;stroke-width:4;stroke-opacity:1" x1="480.897665834746" y1="367.2564656540875" x2="443.6895683240853" y2="367.2564656540875" />
 <line style="stroke-dasharray: 15, 10;stroke:red;stroke-width:4;" x1="480.897665834746" y1="367.2564656540875" x2="556.3104316759146" y2="367.2564656540875" />
 <line style="stroke:blue;stroke-width:4;stroke-opacity:1" x1="486.14326995270306" y1="349.6799175264193" x2="436.4091237099017" y2="349.6799175264193" />
 <line style="stroke-dasharray: 15, 10;stroke:red;stroke-width:4;" x1="486.14326995270306" y1="349.6799175264193" x2="563.5908762900983" y2="349.67991752641933" />
 <line style="stroke:blue;stroke-width:4;stroke-opacity:1" x1="492.08304543671085" y1="332.3744781763864" x2="429.240976028293" y2="332.3744781763864" />
 <line style="stroke-dasharray: 15, 10;stroke:red;stroke-width:4;" x1="492.08304543671085" y1="332.3744781763864" x2="570.7590239717069" y2="332.3744781763864" />
 <line style="stroke:blue;stroke-width:4;stroke-opacity:1" x1="498.3358742749382" y1="316.0715236358308" x2="422.48807115084287" y2="316.0715236358308" />
 <line style="stroke-dasharray: 15, 10;stroke:red;stroke-width:4;" x1="498.3358742749382" y1="316.0715236358308" x2="577.5119288491571" y2="316.0715236358308" />
 <line style="stroke:blue;stroke-width:4;stroke-opacity:1" x1="500.79087163171255" y1="310.00552234631164" x2="419.97545114735135" y2="310.0055223463116" />
 <line style="stroke-dasharray: 15, 10;stroke:red;stroke-width:4;" x1="500.79087163171255" y1="310.00552234631164" x2="580.0245488526486" y2="310.00552234631164" />
 <line style="stroke-dasharray: 15, 10;stroke:red;stroke-width:4;" x1="519.7717907928137" y1="264.05226066562767" x2="400.9409869239322" y2="264.05226066562767" />
 <line style="stroke:blue;stroke-width:4;stroke-opacity:1" x1="519.7717907928137" y1="264.05226066562767" x2="599.0590130760678" y2="264.05226066562767" />
 <line style="stroke:blue;stroke-width:4;stroke-opacity:1" x1="500.79087163171255" y1="217.6059484553076" x2="381.7022944842025" y2="217.60594845530758" />
 <line style="stroke-dasharray: 15, 10;stroke:red;stroke-width:4;" x1="500.79087163171255" y1="217.6059484553076" x2="618.2977055157975" y2="217.6059484553076" />
 <line style="stroke-dasharray: 15, 10;stroke:red;stroke-width:4;" x1="498.6324511368304" y1="208.62114961893607" x2="377.9806689509835" y2="208.62114961893604" />
 <line style="stroke:blue;stroke-width:4;stroke-opacity:1" x1="498.6324511368304" y1="208.62114961893607" x2="622.0193310490166" y2="208.62114961893607" />
 <line style="stroke:blue;stroke-width:4;stroke-opacity:1" x1="491.9018040211101" y1="184.02028820655474" x2="367.7906585079142" y2="184.0202882065547" />
 <line style="stroke-dasharray: 15, 10;stroke:red;stroke-width:4;" x1="491.9018040211101" y1="184.02028820655474" x2="632.2093414920859" y2="184.02028820655474" />
 <line style="stroke:blue;stroke-width:4;stroke-opacity:1" x1="484.989915489789" y1="149.30658072085194" x2="353.4117700670837" y2="149.3065807208518" />
 <line style="stroke-dasharray: 15, 10;stroke:red;stroke-width:4;" x1="484.989915489789" y1="149.30658072085194" x2="646.5882299329164" y2="149.30658072085194" />
 <line style="stroke:blue;stroke-width:4;stroke-opacity:1" x1="477.9420958967673" y1="106.37399079329121" x2="335.62850905128545" y2="106.37399079329121" />
 <line style="stroke-dasharray: 15, 10;stroke:red;stroke-width:4;" x1="477.9420958967673" y1="106.37399079329121" x2="664.3714909487146" y2="106.37399079329121" />
 <line style="stroke:blue;stroke-width:4;stroke-opacity:1" x1="470.80365559594514" y1="57.81154276990513" x2="315.5132844579605" y2="57.81154276990513" />
 <line style="stroke-dasharray: 15, 10;stroke:red;stroke-width:4;" x1="470.80365559594514" y1="57.81154276990513" x2="684.4867155420395" y2="57.81154276990513" />
 <line style="stroke-dasharray: 15, 10;stroke:red;stroke-width:4;" x1="465.41584260490345" y1="19.25569595622271" x2="299.5429297989538" y2="19.25569595622271" />
 <line style="stroke:blue;stroke-width:4;stroke-opacity:1" x1="465.41584260490345" y1="19.25569595622271" x2="700.4570702010462" y2="19.25569595622271" />
 <line style="stroke:blue;stroke-width:4;stroke-opacity:1" x1="463.61990494122284" y1="6.403747018328545" x2="294.2194782459515" y2="6.403747018328545" />
 <line style="stroke-dasharray: 15, 10;stroke:red;stroke-width:4;" x1="463.61990494122284" y1="6.403747018328545" x2="705.7805217540486" y2="6.403747018328545" />
 <line style="stroke:blue;stroke-width:4;stroke-opacity:1" x1="499.99999999999994" y1="503.20187350916433" x2="496.47591970258236" y2="501.7160943707015" />
 <line style="stroke:blue;stroke-width:4;stroke-opacity:1" x1="496.47591970258236" y1="501.7160943707015" x2="485.9036788103295" y2="497.2587569553132" />
 <line style="stroke:blue;stroke-width:4;stroke-opacity:1" x1="485.9036788103295" y1="497.2587569553132" x2="472.2900872994685" y2="491.4549565891744" />
 <line style="stroke:blue;stroke-width:4;stroke-opacity:1" x1="472.2900872994685" y1="491.4549565891744" x2="459.5534314619736" y2="485.84126491420767" />
 <line style="stroke:blue;stroke-width:4;stroke-opacity:1" x1="459.5534314619736" y1="485.84126491420767" x2="447.872030115735" y2="480.25258725720596" />
 <line style="stroke:blue;stroke-width:4;stroke-opacity:1" x1="447.872030115735" y1="480.25258725720596" x2="437.02779699182923" y2="474.12742385814886" />
 <line style="stroke:blue;stroke-width:4;stroke-opacity:1" x1="437.02779699182923" y1="474.12742385814886" x2="426.96585453820427" y2="467.1046473200641" />
 <line style="stroke:blue;stroke-width:4;stroke-opacity:1" x1="426.96585453820427" y1="467.1046473200641" x2="417.54422090669425" y2="458.73602594986573" />
 <line style="stroke:blue;stroke-width:4;stroke-opacity:1" x1="417.54422090669425" y1="458.73602594986573" x2="408.491298757114" y2="448.44371256244824" />
 <line style="stroke:blue;stroke-width:4;stroke-opacity:1" x1="408.491298757114" y1="448.44371256244824" x2="399.4149955990547" y2="435.5293648224829" />
 <line style="stroke:blue;stroke-width:4;stroke-opacity:1" x1="399.4149955990547" y1="435.5293648224829" x2="390.3646902097617" y2="420.5813437684111" />
 <line style="stroke:blue;stroke-width:4;stroke-opacity:1" x1="390.3646902097617" y1="420.5813437684111" x2="381.64539608206326" y2="404.4436451542577" />
 <line style="stroke:blue;stroke-width:4;stroke-opacity:1" x1="381.64539608206326" y1="404.4436451542577" x2="373.60865808971" y2="388.0067961149694" />
 <line style="stroke:blue;stroke-width:4;stroke-opacity:1" x1="373.60865808971" y1="388.0067961149694" x2="366.50214605381643" y2="372.05744873285715" />
 <line style="stroke:blue;stroke-width:4;stroke-opacity:1" x1="366.50214605381643" y1="372.05744873285715" x2="363.9487806860813" y2="366.0321928075816" />
 <line style="stroke:blue;stroke-width:4;stroke-opacity:1" x1="363.9487806860813" y1="366.0321928075816" x2="344.8764543859981" y2="320.11679320356177" />
 <line style="stroke:blue;stroke-width:4;stroke-opacity:1" x1="344.8764543859981" y1="320.11679320356177" x2="298.61241540900494" y2="300.6958275305052" />
 <line style="stroke:blue;stroke-width:4;stroke-opacity:1" x1="298.61241540900494" y1="300.6958275305052" x2="290.7329694556264" y2="295.868849114293" />
 <line style="stroke:blue;stroke-width:4;stroke-opacity:1" x1="290.7329694556264" y1="295.868849114293" x2="268.57824731060157" y2="283.2326994038673" />
 <line style="stroke:blue;stroke-width:4;stroke-opacity:1" x1="268.57824731060157" y1="283.2326994038673" x2="239.14450609603222" y2="263.5738446919033" />
 <line style="stroke:blue;stroke-width:4;stroke-opacity:1" x1="239.14450609603222" y1="263.5738446919033" x2="203.8030195975477" y2="238.19948024702882" />
 <line style="stroke:blue;stroke-width:4;stroke-opacity:1" x1="203.8030195975477" y1="238.19948024702882" x2="164.41654374538558" y2="208.90828348248004" />
 <line style="stroke:blue;stroke-width:4;stroke-opacity:1" x1="164.41654374538558" y1="208.90828348248004" x2="133.34368390731038" y2="185.454941847866" />
 <line style="stroke:blue;stroke-width:4;stroke-opacity:1" x1="133.34368390731038" y1="185.454941847866" x2="122.98606396128537" y2="177.63716130299463" />
 <line style="stroke:blue;stroke-width:4;stroke-opacity:1" x1="122.98606396128537" y1="177.63716130299463" x2="122.98606396128537" y2="177.63716130299463" />
 <line style="stroke-dasharray: 15, 10;stroke:red;stroke-width:4;" x1="499.99999999999994" y1="503.20187350916433" x2="499.99999999999994" y2="503.20187350916433" />
 <line style="stroke:blue;stroke-width:4;stroke-opacity:1" x1="496.47591970258236" y1="501.7160943707015" x2="496.45749442009753" y2="501.73451965318634" />
 <line style="stroke-dasharray: 15, 10;stroke:red;stroke-width:4;" x1="496.47591970258236" y1="501.7160943707015" x2="498.532646144022" y2="499.65936792926186" />
 <line style="stroke:blue;stroke-width:4;stroke-opacity:1" x1="485.9036788103295" y1="497.2587569553132" x2="485.8299776803902" y2="497.3324580852525" />
 <line style="stroke-dasharray: 15, 10;stroke:red;stroke-width:4;" x1="485.9036788103295" y1="497.2587569553132" x2="494.13058457608815" y2="489.0318511895546" />
 <line style="stroke:blue;stroke-width:4;stroke-opacity:1" x1="472.2900872994685" y1="491.4549565891744" x2="472.09980821120706" y2="491.64523567743583" />
 <line style="stroke-dasharray: 15, 10;stroke:red;stroke-width:4;" x1="472.2900872994685" y1="491.4549565891744" x2="488.4433621682715" y2="475.30168172037145" />
 <line style="stroke:blue;stroke-width:4;stroke-opacity:1" x1="459.5534314619736" y1="485.84126491420767" x2="459.1241530480157" y2="486.2705433281655" />
 <line style="stroke-dasharray: 15, 10;stroke:red;stroke-width:4;" x1="459.5534314619736" y1="485.84126491420767" x2="483.0686698190012" y2="462.3260265571801" />
 <line style="stroke:blue;stroke-width:4;stroke-opacity:1" x1="447.872030115735" y1="480.25258725720596" x2="446.9123630731972" y2="481.2122542997439" />
 <line style="stroke-dasharray: 15, 10;stroke:red;stroke-width:4;" x1="447.872030115735" y1="480.25258725720596" x2="478.0103807905795" y2="450.1142365823615" />
 <line style="stroke:blue;stroke-width:4;stroke-opacity:1" x1="437.02779699182923" y1="474.12742385814886" x2="434.9131877191667" y2="476.2420331308115" />
 <line style="stroke-dasharray: 15, 10;stroke:red;stroke-width:4;" x1="437.02779699182923" y1="474.12742385814886" x2="473.0401596216471" y2="438.115061228331" />
 <line style="stroke:blue;stroke-width:4;stroke-opacity:1" x1="426.96585453820427" y1="467.1046473200641" x2="422.8324670654621" y2="471.2380347928063" />
 <line style="stroke-dasharray: 15, 10;stroke:red;stroke-width:4;" x1="426.96585453820427" y1="467.1046473200641" x2="468.03616128364195" y2="426.0343405746264" />
 <line style="stroke:blue;stroke-width:4;stroke-opacity:1" x1="417.54422090669425" y1="458.73602594986573" x2="410.2528571147162" y2="466.02738974184376" />
 <line style="stroke-dasharray: 15, 10;stroke:red;stroke-width:4;" x1="417.54422090669425" y1="458.73602594986573" x2="462.82551623267943" y2="413.45473062388055" />
 <line style="stroke:blue;stroke-width:4;stroke-opacity:1" x1="408.491298757114" y1="448.44371256244824" x2="396.5737098828542" y2="460.3613014367081" />
 <line style="stroke-dasharray: 15, 10;stroke:red;stroke-width:4;" x1="408.491298757114" y1="448.44371256244824" x2="457.1594279275438" y2="399.7755833920186" />
 <line style="stroke:blue;stroke-width:4;stroke-opacity:1" x1="399.4149955990547" y1="435.5293648224829" x2="381.0239715101548" y2="453.9203889113827" />
 <line style="stroke-dasharray: 15, 10;stroke:red;stroke-width:4;" x1="399.4149955990547" y1="435.5293648224829" x2="450.7185154022184" y2="384.22584501931914" />
 <line style="stroke:blue;stroke-width:4;stroke-opacity:1" x1="390.3646902097617" y1="420.5813437684111" x2="364.05459214492316" y2="446.8914418332496" />
 <line style="stroke-dasharray: 15, 10;stroke:red;stroke-width:4;" x1="390.3646902097617" y1="420.5813437684111" x2="443.6895683240853" y2="367.2564656540875" />
 <line style="stroke:blue;stroke-width:4;stroke-opacity:1" x1="381.64539608206326" y1="404.4436451542577" x2="346.478044017255" y2="439.610997219066" />
 <line style="stroke-dasharray: 15, 10;stroke:red;stroke-width:4;" x1="381.64539608206326" y1="404.4436451542577" x2="436.4091237099017" y2="349.6799175264193" />
 <line style="stroke:blue;stroke-width:4;stroke-opacity:1" x1="373.60865808971" y1="388.0067961149694" x2="329.17260466722206" y2="432.44284953745733" />
 <line style="stroke-dasharray: 15, 10;stroke:red;stroke-width:4;" x1="373.60865808971" y1="388.0067961149694" x2="429.240976028293" y2="332.3744781763864" />
 <line style="stroke:blue;stroke-width:4;stroke-opacity:1" x1="366.50214605381643" y1="372.05744873285715" x2="312.86965012666644" y2="425.6899446600072" />
 <line style="stroke-dasharray: 15, 10;stroke:red;stroke-width:4;" x1="366.50214605381643" y1="372.05744873285715" x2="422.48807115084287" y2="316.0715236358308" />
 <line style="stroke:blue;stroke-width:4;stroke-opacity:1" x1="363.9487806860813" y1="366.0321928075816" x2="306.8036488371473" y2="423.17732465651557" />
 <line style="stroke-dasharray: 15, 10;stroke:red;stroke-width:4;" x1="363.9487806860813" y1="366.0321928075816" x2="419.97545114735135" y2="310.00552234631164" />
 <line style="stroke-dasharray: 15, 10;stroke:red;stroke-width:4;" x1="344.8764543859981" y1="320.11679320356177" x2="260.85038715646334" y2="404.1428604330964" />
 <line style="stroke:blue;stroke-width:4;stroke-opacity:1" x1="344.8764543859981" y1="320.11679320356177" x2="400.9409869239322" y2="264.05226066562767" />
 <line style="stroke:blue;stroke-width:4;stroke-opacity:1" x1="298.61241540900494" y1="300.6958275305052" x2="214.40407494614323" y2="384.9041679933668" />
 <line style="stroke-dasharray: 15, 10;stroke:red;stroke-width:4;" x1="298.61241540900494" y1="300.6958275305052" x2="381.7022944842026" y2="217.60594845530758" />
 <line style="stroke-dasharray: 15, 10;stroke:red;stroke-width:4;" x1="290.7329694556264" y1="295.868849114293" x2="205.41927610977172" y2="381.1825424601477" />
 <line style="stroke:blue;stroke-width:4;stroke-opacity:1" x1="290.7329694556264" y1="295.868849114293" x2="377.9806689509835" y2="208.62114961893604" />
 <line style="stroke:blue;stroke-width:4;stroke-opacity:1" x1="268.57824731060157" y1="283.2326994038673" x2="180.81841469739038" y2="370.9925320170785" />
 <line style="stroke-dasharray: 15, 10;stroke:red;stroke-width:4;" x1="268.57824731060157" y1="283.2326994038673" x2="367.7906585079142" y2="184.02028820655474" />
 <line style="stroke:blue;stroke-width:4;stroke-opacity:1" x1="239.14450609603222" y1="263.5738446919033" x2="146.10470721168753" y2="356.61364357624785" />
 <line style="stroke-dasharray: 15, 10;stroke:red;stroke-width:4;" x1="239.14450609603222" y1="263.5738446919033" x2="353.4117700670837" y2="149.3065807208518" />
 <line style="stroke:blue;stroke-width:4;stroke-opacity:1" x1="203.8030195975477" y1="238.19948024702882" x2="103.1721172841269" y2="338.8303825604496" />
 <line style="stroke-dasharray: 15, 10;stroke:red;stroke-width:4;" x1="203.8030195975477" y1="238.19948024702882" x2="335.6285090512855" y2="106.373990793291" />
 <line style="stroke:blue;stroke-width:4;stroke-opacity:1" x1="164.41654374538558" y1="208.90828348248004" x2="54.60966926074087" y2="318.7151579671247" />
 <line style="stroke-dasharray: 15, 10;stroke:red;stroke-width:4;" x1="164.41654374538558" y1="208.90828348248004" x2="315.5132844579605" y2="57.81154276990513" />
 <line style="stroke-dasharray: 15, 10;stroke:red;stroke-width:4;" x1="133.34368390731038" y1="185.454941847866" x2="16.05382244705845" y2="302.7448033081179" />
 <line style="stroke:blue;stroke-width:4;stroke-opacity:1" x1="133.34368390731038" y1="185.454941847866" x2="299.5429297989537" y2="19.25569595622271" />
 <line style="stroke:blue;stroke-width:4;stroke-opacity:1" x1="122.98606396128537" y1="177.63716130299463" x2="3.2018735091645" y2="297.42135175511567" />
 <line style="stroke-dasharray: 15, 10;stroke:red;stroke-width:4;" x1="122.98606396128537" y1="177.63716130299463" x2="294.21947824595156" y2="6.403747018328545" />
</svg>