<?xml version="1.0" encoding="UTF-8" standalone="no"?>
<!DOCTYPE svg PUBLIC "-//W3C//DTD SVG 1.1//EN" "http://www.w3.org/Graphics/SVG/1.1/DTD/svg11.dtd">
<svg width="100%" height="100%" viewBox="0 0 664 460" version="1.1" xmlns="http://www.w3.org/2000/svg" xmlns:xlink="http://www.w3.org/1999/xlink" xml:space="preserve" xmlns:serif="http://www.serif.com/" style="fill-rule:evenodd;clip-rule:evenodd;stroke-linecap:round;stroke-linejoin:round;stroke-miterlimit:1.5;">
    <g id="Layer1">
        <path d="M291.304,88.725C291.304,88.725 274.087,104.13 265.822,112.107C258.619,119.058 251.459,126.064 244.61,133.364C207.805,172.594 177.778,223.972 165.509,276.894C162.036,291.874 158.798,306.935 156.524,322.143C154.683,334.448 154.939,366.355 155.069,377.105C155.22,389.673 155.582,402.238 155.945,414.802C162.482,411.255 193.303,399.167 209.914,392.749C225.017,386.914 241.401,381.001 255.615,376.295C268.684,371.968 282.964,367.851 295.198,364.511C306.394,361.454 318.604,358.546 329.02,356.252C338.525,354.158 348.884,352.267 357.696,350.746C365.731,349.358 374.342,348.018 381.889,347.124C388.894,346.295 396.614,345.785 402.979,345.384C408.672,345.025 414.775,344.852 420.08,344.716C424.986,344.591 430.274,344.434 434.804,344.569C438.964,344.694 443.418,345.183 447.254,345.529C450.783,345.847 454.658,346.206 457.825,346.645C460.653,347.037 463.625,347.636 466.255,348.162C468.717,348.655 471.401,349.293 473.605,349.802C475.568,350.255 477.791,350.628 479.481,351.217C480.978,351.739 482.409,352.473 483.741,353.335C487.589,355.825 506.096,368.718 506.096,368.718C507.935,367.738 508.676,347.528 509.075,342.204C509.211,340.388 508.818,338.563 508.491,336.772C508.146,334.884 507.601,332.814 507.008,330.876C506.349,328.722 505.373,326.183 504.535,323.843C503.604,321.245 502.516,318.118 501.422,315.287C500.255,312.266 498.975,308.841 497.531,305.713C495.958,302.303 494.107,298.303 491.983,294.828C490.217,291.94 487.225,286.088 484.659,281.827C481.864,277.185 478.463,271.862 475.212,266.98C471.697,261.703 467.632,255.641 463.572,250.165C459.112,244.148 453.658,237.171 448.448,230.877C442.72,223.956 435.853,215.842 429.201,208.641C421.954,200.797 413.192,191.942 404.969,183.811C395.978,174.919 385.534,164.39 375.252,155.293C363.978,145.318 350.174,134.152 337.325,123.964C323.334,112.869 291.304,88.725 291.304,88.725Z" style="fill:none;stroke:black;stroke-width:1px;"/>
    </g>
    <g id="Layer2">
        <path d="M156.634,413.957C168.524,390.198 192.305,342.68 213.994,315.296C234.277,289.686 262.314,266.151 286.766,249.65C309.179,234.524 337.059,223.182 360.706,216.287C382.599,209.903 413.3,208.82 428.651,208.278" style="fill:none;stroke:rgb(0,0,255);stroke-width:1px;"/>
        <path d="M210.709,392.072C221.642,372.418 243.506,333.109 262.775,311.006C280.699,290.446 305.071,272.232 326.322,259.455C345.95,247.655 369.947,239.068 390.278,234.348C409.151,229.967 435.259,230.746 448.312,231.135" style="fill:none;stroke:rgb(255,0,0);stroke-width:1px;"/>
        <path d="M255.967,376.075C266.141,359.933 286.488,327.649 303.671,309.831C319.572,293.342 340.706,279.03 359.067,269.164C376.044,260.041 396.495,253.778 413.836,250.633C429.998,247.702 452.074,249.429 463.112,250.293" style="fill:none;stroke:rgb(0,0,255);stroke-width:1px;"/>
        <path d="M295.587,364.455C304.764,351.259 323.117,324.867 338.323,310.559C352.422,297.293 370.945,286.101 386.822,278.609C401.453,271.705 418.88,267.585 433.584,265.609C447.287,263.767 465.794,265.756 475.047,266.75" style="fill:none;stroke:rgb(255,0,0);stroke-width:1px;"/>
        <path d="M329.511,356.032C337.76,345.246 354.256,323.676 367.59,312.315C379.903,301.823 395.835,293.439 409.511,287.865C422.207,282.69 437.136,279.871 449.646,278.868C461.293,277.933 476.813,280.54 484.573,281.843" style="fill:none;stroke:rgb(0,0,255);stroke-width:1px;"/>
        <path d="M357.737,350.417C365.211,341.846 380.158,324.705 391.945,315.743C402.432,307.768 416.606,300.832 428.457,296.642C439.217,292.838 452.515,290.947 463.055,290.601C472.743,290.282 485.379,293.136 491.697,294.563" style="fill:none;stroke:rgb(255,0,0);stroke-width:1px;"/>
        <path d="M382.272,346.804C388.765,339.955 401.753,326.256 412.027,319.22C421.058,313.035 433.803,307.601 443.916,304.586C452.838,301.926 463.775,300.939 472.706,301.131C481.272,301.316 492.093,304.264 497.504,305.738" style="fill:none;stroke:rgb(0,0,255);stroke-width:1px;"/>
        <path d="M403.048,345.153C408.795,339.594 420.289,328.475 429.211,322.971C436.81,318.283 447.939,314.189 456.578,312.131C464.182,310.319 473.585,310.067 481.04,310.623C488.268,311.163 496.961,314.032 501.307,315.466" style="fill:none;stroke:rgb(255,0,0);stroke-width:1px;"/>
        <path d="M420.523,344.814C425.612,340.29 435.79,331.243 443.502,326.94C449.795,323.428 459.489,320.366 466.793,318.995C473.214,317.789 480.994,317.888 487.327,318.711C493.66,319.535 501.081,322.468 504.791,323.935" style="fill:none;stroke:rgb(0,0,255);stroke-width:1px;"/>
        <path d="M435.248,344.459C439.711,340.97 448.638,333.992 455.259,330.779C460.516,328.228 468.768,326.011 474.972,325.182C480.576,324.433 487.159,324.903 492.481,325.805C497.802,326.707 503.867,329.298 506.9,330.594" style="fill:none;stroke:rgb(255,0,0);stroke-width:1px;"/>
        <path d="M448.113,345.449C451.854,342.662 459.336,337.088 464.958,334.677C469.27,332.829 476.57,331.408 481.845,330.987C486.763,330.594 492.215,331.416 496.607,332.152C500.998,332.889 505.795,334.568 508.194,335.407" style="fill:none;stroke:rgb(0,0,255);stroke-width:1px;"/>
        <path d="M457.965,346.754C459.925,345.501 463,343.538 466.194,341.743C468.619,340.38 471.113,339.114 473.239,338.332C474.872,337.731 477.337,337.152 479.945,336.706C482.553,336.26 485.306,335.948 487.514,335.88C491.931,335.743 496.643,336.647 499.739,337.515C503.31,338.515 507.063,340.76 508.939,341.882" style="fill:none;stroke:rgb(255,0,0);stroke-width:1px;"/>
        <path d="M466.072,348.329C469.269,346.566 475.663,343.04 479.978,341.678C482.341,340.933 488.369,340.137 491.959,340.16C495.55,340.183 499.473,341.125 501.523,341.816C504.354,342.77 507.416,344.848 508.947,345.887" style="fill:none;stroke:rgb(0,0,255);stroke-width:1px;"/>
        <path d="M479.571,341.74C480.93,342.47 483.648,343.929 485.314,344.972C486.788,345.895 488.414,346.693 489.566,347.996C493.034,351.919 501.71,363.948 506.121,368.512" style="fill:none;stroke:rgb(255,0,0);stroke-width:1px;"/>
        <path d="M491.593,340.231L495.4,344.588L506.21,368.774" style="fill:none;stroke:rgb(255,0,0);stroke-width:1px;"/>
        <path d="M501.985,342.176C503.391,350.951 506.205,368.502 506.205,368.502" style="fill:none;stroke:rgb(255,0,0);stroke-width:1px;"/>
        <path d="M156.596,322.233C174.42,302.118 210.069,261.888 238.051,240.985C263.974,221.619 296.729,206.372 324.491,196.811C350.088,187.995 386.448,185.075 404.628,183.614" style="fill:none;stroke:rgb(255,0,0);stroke-width:1px;"/>
        <path d="M180.531,233.484C202.846,218.65 247.477,188.98 279.774,176.001C309.686,163.98 352.77,158.398 374.312,155.608" style="fill:none;stroke:rgb(0,0,255);stroke-width:1px;"/>
        <path d="M226.798,153.826C262.339,128.697 308.429,122.394 336.511,124.005" style="fill:none;stroke:rgb(255,0,0);stroke-width:1px;"/>
    </g>
</svg>
