  0
SECTION
  2
HEADER
  9
$ACADVER
  1
AC1009
  0
ENDSEC
  0
SECTION
  2
ENTITIES
  0
LINE
  8
reference 10mm
  6
CONTINUOUS
 62
250
 10
-538.5996409335727
 20
10.0
 11
-528.5996409335727
 21
10.0
  0
LINE
  8
reference 10mm
  6
CONTINUOUS
 62
250
 10
-528.5996409335727
 20
10.0
 11
-528.5996409335727
 21
20.0
  0
LINE
  8
reference 10mm
  6
CONTINUOUS
 62
250
 10
-528.5996409335727
 20
20.0
 11
-538.5996409335727
 21
20.0
  0
LINE
  8
reference 10mm
  6
CONTINUOUS
 62
250
 10
-538.5996409335727
 20
20.0
 11
-538.5996409335727
 21
10.0
  0
LINE
  8
CutLine
  6
CONTINUOUS
 62
250
 10
-538.5996409335727
 20
-0.0
 11
2854.5780969479347
 21
-0.0
  0
LINE
  8
CutLine
  6
CONTINUOUS
 62
250
 10
-538.5996409335727
 20
-1905.7598937052599
 11
2854.5780969479347
 21
-1905.7598937052599
  0
LINE
  8
CutLine
  6
CONTINUOUS
 62
250
 10
-538.5996409335727
 20
-0.0
 11
-538.5996409335727
 21
-1905.7598937052599
  0
LINE
  8
CutLine
  6
CONTINUOUS
 62
250
 10
2854.5780969479347
 20
-0.0
 11
2854.5780969479347
 21
-1905.7598937052599
  0
LINE
  8
ValleyLine
  6
CONTINUOUS
 62
5
 10
-255.83482944344706
 20
-0.0
 11
-441.6517055655296
 21
-321.96943145632935
  0
LINE
  8
ValleyLine
  6
CONTINUOUS
 62
5
 10
-255.83482944344706
 20
-0.0
 11
-70.0179533213645
 21
-321.96943145632935
  0
LINE
  8
MountainLine
  6
CONTINUOUS
 62
1
 10
-104.30162367001145
 20
-0.0
 11
-18.063711341900877
 21
-321.96943145632935
  0
LINE
  8
MountainLine
  6
CONTINUOUS
 62
1
 10
-407.3680352168826
 20
-0.0
 11
-493.6059475449932
 21
-321.96943145632935
  0
LINE
  8
ValleyLine
  6
CONTINUOUS
 62
5
 10
-441.6517055655296
 20
-321.96943145632935
 11
-538.5996409335727
 21
-544.1050576032012
  0
LINE
  8
ValleyLine
  6
CONTINUOUS
 62
5
 10
-70.0179533213645
 20
-321.96943145632935
 11
26.929982046678557
 21
-544.1050576032012
  0
LINE
  8
MountainLine
  6
CONTINUOUS
 62
1
 10
-18.063711341900877
 20
-321.96943145632935
 11
26.929982046678557
 21
-544.1050576032012
  0
LINE
  8
MountainLine
  6
CONTINUOUS
 62
1
 10
-493.6059475449932
 20
-321.96943145632935
 11
-538.5996409335727
 21
-544.1050576032012
  0
LINE
  8
MountainLine
  6
CONTINUOUS
 62
1
 10
-538.5996409335727
 20
-321.96943145632935
 11
-493.6059475449932
 21
-321.96943145632935
  0
LINE
  8
ValleyLine
  6
CONTINUOUS
 62
5
 10
-493.6059475449932
 20
-321.96943145632935
 11
-441.6517055655296
 21
-321.96943145632935
  0
LINE
  8
MountainLine
  6
CONTINUOUS
 62
1
 10
-441.6517055655296
 20
-321.96943145632935
 11
-70.0179533213645
 21
-321.96943145632935
  0
LINE
  8
ValleyLine
  6
CONTINUOUS
 62
5
 10
-70.0179533213645
 20
-321.96943145632935
 11
-18.063711341900877
 21
-321.96943145632935
  0
LINE
  8
MountainLine
  6
CONTINUOUS
 62
1
 10
-18.063711341900877
 20
-321.96943145632935
 11
26.929982046678557
 21
-321.96943145632935
  0
LINE
  8
ValleyLine
  6
CONTINUOUS
 62
5
 10
-538.5996409335727
 20
-544.1050576032012
 11
-534.1113105924596
 21
-682.5640470823254
  0
LINE
  8
ValleyLine
  6
CONTINUOUS
 62
5
 10
26.929982046678557
 20
-544.1050576032012
 11
22.441651705565437
 21
-682.5640470823254
  0
LINE
  8
MountainLine
  6
CONTINUOUS
 62
1
 10
26.929982046678557
 20
-544.1050576032012
 11
24.84694068609617
 21
-682.5640470823254
  0
LINE
  8
MountainLine
  6
CONTINUOUS
 62
1
 10
-538.5996409335727
 20
-544.1050576032012
 11
-536.5165995729903
 21
-682.5640470823254
  0
LINE
  8
ValleyLine
  6
CONTINUOUS
 62
5
 10
-538.5996409335727
 20
-544.1050576032012
 11
26.929982046678557
 21
-544.1050576032012
  0
LINE
  8
ValleyLine
  6
CONTINUOUS
 62
5
 10
-534.1113105924596
 20
-682.5640470823254
 11
-282.7648114901257
 21
-1118.278987818828
  0
LINE
  8
ValleyLine
  6
CONTINUOUS
 62
5
 10
22.441651705565437
 20
-682.5640470823254
 11
-228.90484739676842
 21
-1118.278987818828
  0
LINE
  8
MountainLine
  6
CONTINUOUS
 62
1
 10
24.84694068609617
 20
-682.5640470823254
 11
-91.80337550651717
 21
-1118.278987818828
  0
LINE
  8
MountainLine
  6
CONTINUOUS
 62
1
 10
-536.5165995729903
 20
-682.5640470823254
 11
-419.86628338037696
 21
-1118.278987818828
  0
LINE
  8
MountainLine
  6
CONTINUOUS
 62
1
 10
-538.5996409335727
 20
-682.5640470823254
 11
-536.5165995729903
 21
-682.5640470823254
  0
LINE
  8
ValleyLine
  6
CONTINUOUS
 62
5
 10
-536.5165995729903
 20
-682.5640470823254
 11
-534.1113105924596
 21
-682.5640470823254
  0
LINE
  8
MountainLine
  6
CONTINUOUS
 62
1
 10
-534.1113105924596
 20
-682.5640470823254
 11
22.441651705565437
 21
-682.5640470823254
  0
LINE
  8
ValleyLine
  6
CONTINUOUS
 62
5
 10
22.441651705565437
 20
-682.5640470823254
 11
24.84694068609617
 21
-682.5640470823254
  0
LINE
  8
MountainLine
  6
CONTINUOUS
 62
1
 10
24.84694068609617
 20
-682.5640470823254
 11
26.929982046678557
 21
-682.5640470823254
  0
LINE
  8
ValleyLine
  6
CONTINUOUS
 62
5
 10
-282.7648114901257
 20
-1118.278987818828
 11
-304.3087971274686
 21
-1808.6956639680013
  0
LINE
  8
ValleyLine
  6
CONTINUOUS
 62
5
 10
-228.90484739676842
 20
-1118.278987818828
 11
-207.36086175942552
 21
-1808.6956639680013
  0
LINE
  8
MountainLine
  6
CONTINUOUS
 62
1
 10
-91.80337550651717
 20
-1118.278987818828
 11
-81.80477697572175
 21
-1808.6956639680013
  0
LINE
  8
MountainLine
  6
CONTINUOUS
 62
1
 10
-419.86628338037696
 20
-1118.278987818828
 11
-429.86488191117235
 21
-1808.6956639680013
  0
LINE
  8
ValleyLine
  6
CONTINUOUS
 62
5
 10
-538.5996409335727
 20
-1118.278987818828
 11
-419.86628338037696
 21
-1118.278987818828
  0
LINE
  8
MountainLine
  6
CONTINUOUS
 62
1
 10
-419.86628338037696
 20
-1118.278987818828
 11
-282.7648114901257
 21
-1118.278987818828
  0
LINE
  8
ValleyLine
  6
CONTINUOUS
 62
5
 10
-282.7648114901257
 20
-1118.278987818828
 11
-228.90484739676842
 21
-1118.278987818828
  0
LINE
  8
MountainLine
  6
CONTINUOUS
 62
1
 10
-228.90484739676842
 20
-1118.278987818828
 11
-91.80337550651717
 21
-1118.278987818828
  0
LINE
  8
ValleyLine
  6
CONTINUOUS
 62
5
 10
-91.80337550651717
 20
-1118.278987818828
 11
26.929982046678557
 21
-1118.278987818828
  0
LINE
  8
ValleyLine
  6
CONTINUOUS
 62
5
 10
-304.3087971274686
 20
-1808.6956639680013
 11
-252.24416517055658
 21
-1905.7598937052599
  0
LINE
  8
ValleyLine
  6
CONTINUOUS
 62
5
 10
-207.36086175942552
 20
-1808.6956639680013
 11
-259.42549371633754
 21
-1905.7598937052599
  0
LINE
  8
MountainLine
  6
CONTINUOUS
 62
1
 10
-81.80477697572175
 20
-1808.6956639680013
 11
-105.96805675847736
 21
-1905.7598937052599
  0
LINE
  8
MountainLine
  6
CONTINUOUS
 62
1
 10
-429.86488191117235
 20
-1808.6956639680013
 11
-405.70160212841677
 21
-1905.7598937052599
  0
LINE
  8
MountainLine
  6
CONTINUOUS
 62
1
 10
-538.5996409335727
 20
-1808.6956639680013
 11
-429.86488191117235
 21
-1808.6956639680013
  0
LINE
  8
ValleyLine
  6
CONTINUOUS
 62
5
 10
-429.86488191117235
 20
-1808.6956639680013
 11
-304.3087971274686
 21
-1808.6956639680013
  0
LINE
  8
MountainLine
  6
CONTINUOUS
 62
1
 10
-304.3087971274686
 20
-1808.6956639680013
 11
-207.36086175942552
 21
-1808.6956639680013
  0
LINE
  8
ValleyLine
  6
CONTINUOUS
 62
5
 10
-207.36086175942552
 20
-1808.6956639680013
 11
-81.80477697572175
 21
-1808.6956639680013
  0
LINE
  8
MountainLine
  6
CONTINUOUS
 62
1
 10
-81.80477697572175
 20
-1808.6956639680013
 11
26.929982046678557
 21
-1808.6956639680013
  0
LINE
  8
ValleyLine
  6
CONTINUOUS
 62
5
 10
309.6947935368042
 20
-0.0
 11
123.87791741472162
 21
-321.96943145632935
  0
LINE
  8
ValleyLine
  6
CONTINUOUS
 62
5
 10
309.6947935368042
 20
-0.0
 11
495.5116696588867
 21
-321.96943145632935
  0
LINE
  8
MountainLine
  6
CONTINUOUS
 62
1
 10
461.22799931023974
 20
-0.0
 11
547.4659116383503
 21
-321.96943145632935
  0
LINE
  8
MountainLine
  6
CONTINUOUS
 62
1
 10
158.16158776336857
 20
-0.0
 11
71.92367543525799
 21
-321.96943145632935
  0
LINE
  8
ValleyLine
  6
CONTINUOUS
 62
5
 10
123.87791741472162
 20
-321.96943145632935
 11
26.929982046678557
 21
-544.1050576032012
  0
LINE
  8
ValleyLine
  6
CONTINUOUS
 62
5
 10
495.5116696588867
 20
-321.96943145632935
 11
592.4596050269298
 21
-544.1050576032012
  0
LINE
  8
MountainLine
  6
CONTINUOUS
 62
1
 10
547.4659116383503
 20
-321.96943145632935
 11
592.4596050269298
 21
-544.1050576032012
  0
LINE
  8
MountainLine
  6
CONTINUOUS
 62
1
 10
71.92367543525799
 20
-321.96943145632935
 11
26.929982046678557
 21
-544.1050576032012
  0
LINE
  8
MountainLine
  6
CONTINUOUS
 62
1
 10
26.929982046678557
 20
-321.96943145632935
 11
71.92367543525799
 21
-321.96943145632935
  0
LINE
  8
ValleyLine
  6
CONTINUOUS
 62
5
 10
71.92367543525799
 20
-321.96943145632935
 11
123.87791741472162
 21
-321.96943145632935
  0
LINE
  8
MountainLine
  6
CONTINUOUS
 62
1
 10
123.87791741472162
 20
-321.96943145632935
 11
495.5116696588867
 21
-321.96943145632935
  0
LINE
  8
ValleyLine
  6
CONTINUOUS
 62
5
 10
495.5116696588867
 20
-321.96943145632935
 11
547.4659116383503
 21
-321.96943145632935
  0
LINE
  8
MountainLine
  6
CONTINUOUS
 62
1
 10
547.4659116383503
 20
-321.96943145632935
 11
592.4596050269298
 21
-321.96943145632935
  0
LINE
  8
ValleyLine
  6
CONTINUOUS
 62
5
 10
26.929982046678557
 20
-544.1050576032012
 11
31.418312387791676
 21
-682.5640470823254
  0
LINE
  8
ValleyLine
  6
CONTINUOUS
 62
5
 10
592.4596050269298
 20
-544.1050576032012
 11
587.9712746858168
 21
-682.5640470823254
  0
LINE
  8
MountainLine
  6
CONTINUOUS
 62
1
 10
592.4596050269298
 20
-544.1050576032012
 11
590.3765636663474
 21
-682.5640470823254
  0
LINE
  8
MountainLine
  6
CONTINUOUS
 62
1
 10
26.929982046678557
 20
-544.1050576032012
 11
29.013023407260945
 21
-682.5640470823254
  0
LINE
  8
ValleyLine
  6
CONTINUOUS
 62
5
 10
26.929982046678557
 20
-544.1050576032012
 11
592.4596050269298
 21
-544.1050576032012
  0
LINE
  8
ValleyLine
  6
CONTINUOUS
 62
5
 10
31.418312387791676
 20
-682.5640470823254
 11
282.7648114901255
 21
-1118.278987818828
  0
LINE
  8
ValleyLine
  6
CONTINUOUS
 62
5
 10
587.9712746858168
 20
-682.5640470823254
 11
336.6247755834828
 21
-1118.278987818828
  0
LINE
  8
MountainLine
  6
CONTINUOUS
 62
1
 10
590.3765636663474
 20
-682.5640470823254
 11
473.726247473734
 21
-1118.278987818828
  0
LINE
  8
MountainLine
  6
CONTINUOUS
 62
1
 10
29.013023407260945
 20
-682.5640470823254
 11
145.6633395998743
 21
-1118.278987818828
  0
LINE
  8
MountainLine
  6
CONTINUOUS
 62
1
 10
26.929982046678557
 20
-682.5640470823254
 11
29.013023407260945
 21
-682.5640470823254
  0
LINE
  8
ValleyLine
  6
CONTINUOUS
 62
5
 10
29.013023407260945
 20
-682.5640470823254
 11
31.418312387791676
 21
-682.5640470823254
  0
LINE
  8
MountainLine
  6
CONTINUOUS
 62
1
 10
31.418312387791676
 20
-682.5640470823254
 11
587.9712746858168
 21
-682.5640470823254
  0
LINE
  8
ValleyLine
  6
CONTINUOUS
 62
5
 10
587.9712746858168
 20
-682.5640470823254
 11
590.3765636663474
 21
-682.5640470823254
  0
LINE
  8
MountainLine
  6
CONTINUOUS
 62
1
 10
590.3765636663474
 20
-682.5640470823254
 11
592.4596050269298
 21
-682.5640470823254
  0
LINE
  8
ValleyLine
  6
CONTINUOUS
 62
5
 10
282.7648114901255
 20
-1118.278987818828
 11
261.22082585278264
 21
-1808.6956639680013
  0
LINE
  8
ValleyLine
  6
CONTINUOUS
 62
5
 10
336.6247755834828
 20
-1118.278987818828
 11
358.1687612208257
 21
-1808.6956639680013
  0
LINE
  8
MountainLine
  6
CONTINUOUS
 62
1
 10
473.726247473734
 20
-1118.278987818828
 11
483.72484600452947
 21
-1808.6956639680013
  0
LINE
  8
MountainLine
  6
CONTINUOUS
 62
1
 10
145.6633395998743
 20
-1118.278987818828
 11
135.66474106907887
 21
-1808.6956639680013
  0
LINE
  8
ValleyLine
  6
CONTINUOUS
 62
5
 10
26.929982046678557
 20
-1118.278987818828
 11
145.6633395998743
 21
-1118.278987818828
  0
LINE
  8
MountainLine
  6
CONTINUOUS
 62
1
 10
145.6633395998743
 20
-1118.278987818828
 11
282.7648114901255
 21
-1118.278987818828
  0
LINE
  8
ValleyLine
  6
CONTINUOUS
 62
5
 10
282.7648114901255
 20
-1118.278987818828
 11
336.6247755834828
 21
-1118.278987818828
  0
LINE
  8
MountainLine
  6
CONTINUOUS
 62
1
 10
336.6247755834828
 20
-1118.278987818828
 11
473.726247473734
 21
-1118.278987818828
  0
LINE
  8
ValleyLine
  6
CONTINUOUS
 62
5
 10
473.726247473734
 20
-1118.278987818828
 11
592.4596050269298
 21
-1118.278987818828
  0
LINE
  8
ValleyLine
  6
CONTINUOUS
 62
5
 10
261.22082585278264
 20
-1808.6956639680013
 11
313.28545780969466
 21
-1905.7598937052599
  0
LINE
  8
ValleyLine
  6
CONTINUOUS
 62
5
 10
358.1687612208257
 20
-1808.6956639680013
 11
306.1041292639137
 21
-1905.7598937052599
  0
LINE
  8
MountainLine
  6
CONTINUOUS
 62
1
 10
483.72484600452947
 20
-1808.6956639680013
 11
459.5615662217739
 21
-1905.7598937052599
  0
LINE
  8
MountainLine
  6
CONTINUOUS
 62
1
 10
135.66474106907887
 20
-1808.6956639680013
 11
159.82802085183448
 21
-1905.7598937052599
  0
LINE
  8
MountainLine
  6
CONTINUOUS
 62
1
 10
26.929982046678557
 20
-1808.6956639680013
 11
135.66474106907887
 21
-1808.6956639680013
  0
LINE
  8
ValleyLine
  6
CONTINUOUS
 62
5
 10
135.66474106907887
 20
-1808.6956639680013
 11
261.22082585278264
 21
-1808.6956639680013
  0
LINE
  8
MountainLine
  6
CONTINUOUS
 62
1
 10
261.22082585278264
 20
-1808.6956639680013
 11
358.1687612208257
 21
-1808.6956639680013
  0
LINE
  8
ValleyLine
  6
CONTINUOUS
 62
5
 10
358.1687612208257
 20
-1808.6956639680013
 11
483.72484600452947
 21
-1808.6956639680013
  0
LINE
  8
MountainLine
  6
CONTINUOUS
 62
1
 10
483.72484600452947
 20
-1808.6956639680013
 11
592.4596050269298
 21
-1808.6956639680013
  0
LINE
  8
ValleyLine
  6
CONTINUOUS
 62
5
 10
875.2244165170554
 20
-0.0
 11
689.4075403949729
 21
-321.96943145632935
  0
LINE
  8
ValleyLine
  6
CONTINUOUS
 62
5
 10
875.2244165170553
 20
-0.0
 11
1061.0412926391377
 21
-321.96943145632935
  0
LINE
  8
MountainLine
  6
CONTINUOUS
 62
1
 10
1026.7576222904909
 20
-0.0
 11
1112.9955346186014
 21
-321.96943145632935
  0
LINE
  8
MountainLine
  6
CONTINUOUS
 62
1
 10
723.6912107436199
 20
-0.0
 11
637.4532984155093
 21
-321.96943145632935
  0
LINE
  8
ValleyLine
  6
CONTINUOUS
 62
5
 10
689.4075403949729
 20
-321.96943145632935
 11
592.4596050269298
 21
-544.1050576032012
  0
LINE
  8
ValleyLine
  6
CONTINUOUS
 62
5
 10
1061.0412926391377
 20
-321.96943145632935
 11
1157.9892280071808
 21
-544.1050576032012
  0
LINE
  8
MountainLine
  6
CONTINUOUS
 62
1
 10
1112.9955346186014
 20
-321.96943145632935
 11
1157.9892280071808
 21
-544.1050576032012
  0
LINE
  8
MountainLine
  6
CONTINUOUS
 62
1
 10
637.4532984155093
 20
-321.96943145632935
 11
592.4596050269298
 21
-544.1050576032012
  0
LINE
  8
MountainLine
  6
CONTINUOUS
 62
1
 10
592.4596050269298
 20
-321.96943145632935
 11
637.4532984155093
 21
-321.96943145632935
  0
LINE
  8
ValleyLine
  6
CONTINUOUS
 62
5
 10
637.4532984155093
 20
-321.96943145632935
 11
689.4075403949729
 21
-321.96943145632935
  0
LINE
  8
MountainLine
  6
CONTINUOUS
 62
1
 10
689.4075403949729
 20
-321.96943145632935
 11
1061.0412926391377
 21
-321.96943145632935
  0
LINE
  8
ValleyLine
  6
CONTINUOUS
 62
5
 10
1061.0412926391377
 20
-321.96943145632935
 11
1112.9955346186014
 21
-321.96943145632935
  0
LINE
  8
MountainLine
  6
CONTINUOUS
 62
1
 10
1112.9955346186014
 20
-321.96943145632935
 11
1157.9892280071808
 21
-321.96943145632935
  0
LINE
  8
ValleyLine
  6
CONTINUOUS
 62
5
 10
592.4596050269298
 20
-544.1050576032012
 11
596.9479353680429
 21
-682.5640470823254
  0
LINE
  8
ValleyLine
  6
CONTINUOUS
 62
5
 10
1157.9892280071808
 20
-544.1050576032012
 11
1153.5008976660677
 21
-682.5640470823254
  0
LINE
  8
MountainLine
  6
CONTINUOUS
 62
1
 10
1157.9892280071808
 20
-544.1050576032012
 11
1155.9061866465984
 21
-682.5640470823254
  0
LINE
  8
MountainLine
  6
CONTINUOUS
 62
1
 10
592.4596050269298
 20
-544.1050576032012
 11
594.5426463875121
 21
-682.5640470823254
  0
LINE
  8
ValleyLine
  6
CONTINUOUS
 62
5
 10
592.4596050269298
 20
-544.1050576032012
 11
1157.9892280071808
 21
-544.1050576032012
  0
LINE
  8
ValleyLine
  6
CONTINUOUS
 62
5
 10
596.9479353680429
 20
-682.5640470823254
 11
848.2944344703768
 21
-1118.278987818828
  0
LINE
  8
ValleyLine
  6
CONTINUOUS
 62
5
 10
1153.5008976660677
 20
-682.5640470823254
 11
902.1543985637339
 21
-1118.278987818828
  0
LINE
  8
MountainLine
  6
CONTINUOUS
 62
1
 10
1155.9061866465984
 20
-682.5640470823254
 11
1039.2558704539852
 21
-1118.278987818828
  0
LINE
  8
MountainLine
  6
CONTINUOUS
 62
1
 10
594.5426463875121
 20
-682.5640470823254
 11
711.1929625801256
 21
-1118.278987818828
  0
LINE
  8
MountainLine
  6
CONTINUOUS
 62
1
 10
592.4596050269298
 20
-682.5640470823254
 11
594.5426463875121
 21
-682.5640470823254
  0
LINE
  8
ValleyLine
  6
CONTINUOUS
 62
5
 10
594.5426463875121
 20
-682.5640470823254
 11
596.9479353680429
 21
-682.5640470823254
  0
LINE
  8
MountainLine
  6
CONTINUOUS
 62
1
 10
596.9479353680429
 20
-682.5640470823254
 11
1153.5008976660677
 21
-682.5640470823254
  0
LINE
  8
ValleyLine
  6
CONTINUOUS
 62
5
 10
1153.5008976660677
 20
-682.5640470823254
 11
1155.9061866465984
 21
-682.5640470823254
  0
LINE
  8
MountainLine
  6
CONTINUOUS
 62
1
 10
1155.9061866465984
 20
-682.5640470823254
 11
1157.9892280071808
 21
-682.5640470823254
  0
LINE
  8
ValleyLine
  6
CONTINUOUS
 62
5
 10
848.2944344703768
 20
-1118.278987818828
 11
826.7504488330339
 21
-1808.6956639680013
  0
LINE
  8
ValleyLine
  6
CONTINUOUS
 62
5
 10
902.1543985637339
 20
-1118.278987818828
 11
923.6983842010768
 21
-1808.6956639680013
  0
LINE
  8
MountainLine
  6
CONTINUOUS
 62
1
 10
1039.2558704539852
 20
-1118.278987818828
 11
1049.2544689847805
 21
-1808.6956639680013
  0
LINE
  8
MountainLine
  6
CONTINUOUS
 62
1
 10
711.1929625801256
 20
-1118.278987818828
 11
701.1943640493301
 21
-1808.6956639680013
  0
LINE
  8
ValleyLine
  6
CONTINUOUS
 62
5
 10
592.4596050269298
 20
-1118.278987818828
 11
711.1929625801256
 21
-1118.278987818828
  0
LINE
  8
MountainLine
  6
CONTINUOUS
 62
1
 10
711.1929625801256
 20
-1118.278987818828
 11
848.2944344703768
 21
-1118.278987818828
  0
LINE
  8
ValleyLine
  6
CONTINUOUS
 62
5
 10
848.2944344703768
 20
-1118.278987818828
 11
902.1543985637339
 21
-1118.278987818828
  0
LINE
  8
MountainLine
  6
CONTINUOUS
 62
1
 10
902.1543985637339
 20
-1118.278987818828
 11
1039.2558704539852
 21
-1118.278987818828
  0
LINE
  8
ValleyLine
  6
CONTINUOUS
 62
5
 10
1039.2558704539852
 20
-1118.278987818828
 11
1157.9892280071808
 21
-1118.278987818828
  0
LINE
  8
ValleyLine
  6
CONTINUOUS
 62
5
 10
826.7504488330339
 20
-1808.6956639680013
 11
878.8150807899459
 21
-1905.7598937052599
  0
LINE
  8
ValleyLine
  6
CONTINUOUS
 62
5
 10
923.6983842010768
 20
-1808.6956639680013
 11
871.6337522441648
 21
-1905.7598937052599
  0
LINE
  8
MountainLine
  6
CONTINUOUS
 62
1
 10
1049.2544689847805
 20
-1808.6956639680013
 11
1025.0911892020251
 21
-1905.7598937052599
  0
LINE
  8
MountainLine
  6
CONTINUOUS
 62
1
 10
701.1943640493301
 20
-1808.6956639680013
 11
725.3576438320856
 21
-1905.7598937052599
  0
LINE
  8
MountainLine
  6
CONTINUOUS
 62
1
 10
592.4596050269298
 20
-1808.6956639680013
 11
701.1943640493301
 21
-1808.6956639680013
  0
LINE
  8
ValleyLine
  6
CONTINUOUS
 62
5
 10
701.1943640493301
 20
-1808.6956639680013
 11
826.7504488330339
 21
-1808.6956639680013
  0
LINE
  8
MountainLine
  6
CONTINUOUS
 62
1
 10
826.7504488330339
 20
-1808.6956639680013
 11
923.6983842010768
 21
-1808.6956639680013
  0
LINE
  8
ValleyLine
  6
CONTINUOUS
 62
5
 10
923.6983842010768
 20
-1808.6956639680013
 11
1049.2544689847805
 21
-1808.6956639680013
  0
LINE
  8
MountainLine
  6
CONTINUOUS
 62
1
 10
1049.2544689847805
 20
-1808.6956639680013
 11
1157.9892280071808
 21
-1808.6956639680013
  0
LINE
  8
ValleyLine
  6
CONTINUOUS
 62
5
 10
1440.7540394973066
 20
-0.0
 11
1254.937163375224
 21
-321.96943145632935
  0
LINE
  8
ValleyLine
  6
CONTINUOUS
 62
5
 10
1440.7540394973066
 20
-0.0
 11
1626.570915619389
 21
-321.96943145632935
  0
LINE
  8
MountainLine
  6
CONTINUOUS
 62
1
 10
1592.2872452707422
 20
-0.0
 11
1678.5251575988527
 21
-321.96943145632935
  0
LINE
  8
MountainLine
  6
CONTINUOUS
 62
1
 10
1289.220833723871
 20
-0.0
 11
1202.9829213957603
 21
-321.96943145632935
  0
LINE
  8
ValleyLine
  6
CONTINUOUS
 62
5
 10
1254.937163375224
 20
-321.96943145632935
 11
1157.9892280071808
 21
-544.1050576032012
  0
LINE
  8
ValleyLine
  6
CONTINUOUS
 62
5
 10
1626.570915619389
 20
-321.96943145632935
 11
1723.5188509874322
 21
-544.1050576032012
  0
LINE
  8
MountainLine
  6
CONTINUOUS
 62
1
 10
1678.5251575988527
 20
-321.96943145632935
 11
1723.5188509874322
 21
-544.1050576032012
  0
LINE
  8
MountainLine
  6
CONTINUOUS
 62
1
 10
1202.9829213957603
 20
-321.96943145632935
 11
1157.9892280071808
 21
-544.1050576032012
  0
LINE
  8
MountainLine
  6
CONTINUOUS
 62
1
 10
1157.9892280071808
 20
-321.96943145632935
 11
1202.9829213957603
 21
-321.96943145632935
  0
LINE
  8
ValleyLine
  6
CONTINUOUS
 62
5
 10
1202.9829213957603
 20
-321.96943145632935
 11
1254.937163375224
 21
-321.96943145632935
  0
LINE
  8
MountainLine
  6
CONTINUOUS
 62
1
 10
1254.937163375224
 20
-321.96943145632935
 11
1626.570915619389
 21
-321.96943145632935
  0
LINE
  8
ValleyLine
  6
CONTINUOUS
 62
5
 10
1626.570915619389
 20
-321.96943145632935
 11
1678.5251575988527
 21
-321.96943145632935
  0
LINE
  8
MountainLine
  6
CONTINUOUS
 62
1
 10
1678.5251575988527
 20
-321.96943145632935
 11
1723.5188509874322
 21
-321.96943145632935
  0
LINE
  8
ValleyLine
  6
CONTINUOUS
 62
5
 10
1157.9892280071808
 20
-544.1050576032012
 11
1162.477558348294
 21
-682.5640470823254
  0
LINE
  8
ValleyLine
  6
CONTINUOUS
 62
5
 10
1723.5188509874322
 20
-544.1050576032012
 11
1719.0305206463192
 21
-682.5640470823254
  0
LINE
  8
MountainLine
  6
CONTINUOUS
 62
1
 10
1723.5188509874322
 20
-544.1050576032012
 11
1721.4358096268502
 21
-682.5640470823254
  0
LINE
  8
MountainLine
  6
CONTINUOUS
 62
1
 10
1157.9892280071808
 20
-544.1050576032012
 11
1160.0722693677633
 21
-682.5640470823254
  0
LINE
  8
ValleyLine
  6
CONTINUOUS
 62
5
 10
1157.9892280071808
 20
-544.1050576032012
 11
1723.5188509874322
 21
-544.1050576032012
  0
LINE
  8
ValleyLine
  6
CONTINUOUS
 62
5
 10
1162.477558348294
 20
-682.5640470823254
 11
1413.8240574506278
 21
-1118.278987818828
  0
LINE
  8
ValleyLine
  6
CONTINUOUS
 62
5
 10
1719.0305206463192
 20
-682.5640470823254
 11
1467.6840215439852
 21
-1118.278987818828
  0
LINE
  8
MountainLine
  6
CONTINUOUS
 62
1
 10
1721.4358096268502
 20
-682.5640470823254
 11
1604.7854934342365
 21
-1118.278987818828
  0
LINE
  8
MountainLine
  6
CONTINUOUS
 62
1
 10
1160.0722693677633
 20
-682.5640470823254
 11
1276.7225855603767
 21
-1118.278987818828
  0
LINE
  8
MountainLine
  6
CONTINUOUS
 62
1
 10
1157.9892280071808
 20
-682.5640470823254
 11
1160.0722693677633
 21
-682.5640470823254
  0
LINE
  8
ValleyLine
  6
CONTINUOUS
 62
5
 10
1160.0722693677633
 20
-682.5640470823254
 11
1162.477558348294
 21
-682.5640470823254
  0
LINE
  8
MountainLine
  6
CONTINUOUS
 62
1
 10
1162.477558348294
 20
-682.5640470823254
 11
1719.0305206463192
 21
-682.5640470823254
  0
LINE
  8
ValleyLine
  6
CONTINUOUS
 62
5
 10
1719.0305206463192
 20
-682.5640470823254
 11
1721.4358096268502
 21
-682.5640470823254
  0
LINE
  8
MountainLine
  6
CONTINUOUS
 62
1
 10
1721.4358096268502
 20
-682.5640470823254
 11
1723.5188509874322
 21
-682.5640470823254
  0
LINE
  8
ValleyLine
  6
CONTINUOUS
 62
5
 10
1413.8240574506278
 20
-1118.278987818828
 11
1392.280071813285
 21
-1808.6956639680013
  0
LINE
  8
ValleyLine
  6
CONTINUOUS
 62
5
 10
1467.6840215439852
 20
-1118.278987818828
 11
1489.2280071813282
 21
-1808.6956639680013
  0
LINE
  8
MountainLine
  6
CONTINUOUS
 62
1
 10
1604.7854934342365
 20
-1118.278987818828
 11
1614.7840919650318
 21
-1808.6956639680013
  0
LINE
  8
MountainLine
  6
CONTINUOUS
 62
1
 10
1276.7225855603767
 20
-1118.278987818828
 11
1266.7239870295812
 21
-1808.6956639680013
  0
LINE
  8
ValleyLine
  6
CONTINUOUS
 62
5
 10
1157.9892280071808
 20
-1118.278987818828
 11
1276.7225855603767
 21
-1118.278987818828
  0
LINE
  8
MountainLine
  6
CONTINUOUS
 62
1
 10
1276.7225855603767
 20
-1118.278987818828
 11
1413.8240574506278
 21
-1118.278987818828
  0
LINE
  8
ValleyLine
  6
CONTINUOUS
 62
5
 10
1413.8240574506278
 20
-1118.278987818828
 11
1467.6840215439852
 21
-1118.278987818828
  0
LINE
  8
MountainLine
  6
CONTINUOUS
 62
1
 10
1467.6840215439852
 20
-1118.278987818828
 11
1604.7854934342365
 21
-1118.278987818828
  0
LINE
  8
ValleyLine
  6
CONTINUOUS
 62
5
 10
1604.7854934342365
 20
-1118.278987818828
 11
1723.5188509874322
 21
-1118.278987818828
  0
LINE
  8
ValleyLine
  6
CONTINUOUS
 62
5
 10
1392.280071813285
 20
-1808.6956639680013
 11
1444.3447037701972
 21
-1905.7598937052599
  0
LINE
  8
ValleyLine
  6
CONTINUOUS
 62
5
 10
1489.2280071813282
 20
-1808.6956639680013
 11
1437.163375224416
 21
-1905.7598937052599
  0
LINE
  8
MountainLine
  6
CONTINUOUS
 62
1
 10
1614.7840919650318
 20
-1808.6956639680013
 11
1590.620812182276
 21
-1905.7598937052599
  0
LINE
  8
MountainLine
  6
CONTINUOUS
 62
1
 10
1266.7239870295812
 20
-1808.6956639680013
 11
1290.887266812337
 21
-1905.7598937052599
  0
LINE
  8
MountainLine
  6
CONTINUOUS
 62
1
 10
1157.9892280071808
 20
-1808.6956639680013
 11
1266.7239870295812
 21
-1808.6956639680013
  0
LINE
  8
ValleyLine
  6
CONTINUOUS
 62
5
 10
1266.7239870295812
 20
-1808.6956639680013
 11
1392.280071813285
 21
-1808.6956639680013
  0
LINE
  8
MountainLine
  6
CONTINUOUS
 62
1
 10
1392.280071813285
 20
-1808.6956639680013
 11
1489.2280071813282
 21
-1808.6956639680013
  0
LINE
  8
ValleyLine
  6
CONTINUOUS
 62
5
 10
1489.2280071813282
 20
-1808.6956639680013
 11
1614.7840919650318
 21
-1808.6956639680013
  0
LINE
  8
MountainLine
  6
CONTINUOUS
 62
1
 10
1614.7840919650318
 20
-1808.6956639680013
 11
1723.5188509874322
 21
-1808.6956639680013
  0
LINE
  8
ValleyLine
  6
CONTINUOUS
 62
5
 10
2006.283662477558
 20
-0.0
 11
1820.4667863554753
 21
-321.96943145632935
  0
LINE
  8
ValleyLine
  6
CONTINUOUS
 62
5
 10
2006.2836624775575
 20
-0.0
 11
2192.10053859964
 21
-321.96943145632935
  0
LINE
  8
MountainLine
  6
CONTINUOUS
 62
1
 10
2157.816868250993
 20
-0.0
 11
2244.054780579104
 21
-321.96943145632935
  0
LINE
  8
MountainLine
  6
CONTINUOUS
 62
1
 10
1854.7504567041224
 20
-0.0
 11
1768.5125443760116
 21
-321.96943145632935
  0
LINE
  8
ValleyLine
  6
CONTINUOUS
 62
5
 10
1820.4667863554753
 20
-321.96943145632935
 11
1723.5188509874322
 21
-544.1050576032012
  0
LINE
  8
ValleyLine
  6
CONTINUOUS
 62
5
 10
2192.10053859964
 20
-321.96943145632935
 11
2289.048473967683
 21
-544.1050576032012
  0
LINE
  8
MountainLine
  6
CONTINUOUS
 62
1
 10
2244.054780579104
 20
-321.96943145632935
 11
2289.048473967683
 21
-544.1050576032012
  0
LINE
  8
MountainLine
  6
CONTINUOUS
 62
1
 10
1768.5125443760116
 20
-321.96943145632935
 11
1723.5188509874322
 21
-544.1050576032012
  0
LINE
  8
MountainLine
  6
CONTINUOUS
 62
1
 10
1723.5188509874322
 20
-321.96943145632935
 11
1768.5125443760116
 21
-321.96943145632935
  0
LINE
  8
ValleyLine
  6
CONTINUOUS
 62
5
 10
1768.5125443760116
 20
-321.96943145632935
 11
1820.4667863554753
 21
-321.96943145632935
  0
LINE
  8
MountainLine
  6
CONTINUOUS
 62
1
 10
1820.4667863554753
 20
-321.96943145632935
 11
2192.10053859964
 21
-321.96943145632935
  0
LINE
  8
ValleyLine
  6
CONTINUOUS
 62
5
 10
2192.10053859964
 20
-321.96943145632935
 11
2244.054780579104
 21
-321.96943145632935
  0
LINE
  8
MountainLine
  6
CONTINUOUS
 62
1
 10
2244.054780579104
 20
-321.96943145632935
 11
2289.048473967683
 21
-321.96943145632935
  0
LINE
  8
ValleyLine
  6
CONTINUOUS
 62
5
 10
1723.5188509874322
 20
-544.1050576032012
 11
1728.0071813285451
 21
-682.5640470823254
  0
LINE
  8
ValleyLine
  6
CONTINUOUS
 62
5
 10
2289.048473967683
 20
-544.1050576032012
 11
2284.56014362657
 21
-682.5640470823254
  0
LINE
  8
MountainLine
  6
CONTINUOUS
 62
1
 10
2289.048473967683
 20
-544.1050576032012
 11
2286.965432607101
 21
-682.5640470823254
  0
LINE
  8
MountainLine
  6
CONTINUOUS
 62
1
 10
1723.5188509874322
 20
-544.1050576032012
 11
1725.6018923480144
 21
-682.5640470823254
  0
LINE
  8
ValleyLine
  6
CONTINUOUS
 62
5
 10
1723.5188509874322
 20
-544.1050576032012
 11
2289.048473967683
 21
-544.1050576032012
  0
LINE
  8
ValleyLine
  6
CONTINUOUS
 62
5
 10
1728.0071813285451
 20
-682.5640470823254
 11
1979.3536804308792
 21
-1118.278987818828
  0
LINE
  8
ValleyLine
  6
CONTINUOUS
 62
5
 10
2284.56014362657
 20
-682.5640470823254
 11
2033.213644524236
 21
-1118.278987818828
  0
LINE
  8
MountainLine
  6
CONTINUOUS
 62
1
 10
2286.965432607101
 20
-682.5640470823254
 11
2170.3151164144874
 21
-1118.278987818828
  0
LINE
  8
MountainLine
  6
CONTINUOUS
 62
1
 10
1725.6018923480144
 20
-682.5640470823254
 11
1842.2522085406279
 21
-1118.278987818828
  0
LINE
  8
MountainLine
  6
CONTINUOUS
 62
1
 10
1723.5188509874322
 20
-682.5640470823254
 11
1725.6018923480144
 21
-682.5640470823254
  0
LINE
  8
ValleyLine
  6
CONTINUOUS
 62
5
 10
1725.6018923480144
 20
-682.5640470823254
 11
1728.0071813285451
 21
-682.5640470823254
  0
LINE
  8
MountainLine
  6
CONTINUOUS
 62
1
 10
1728.0071813285451
 20
-682.5640470823254
 11
2284.56014362657
 21
-682.5640470823254
  0
LINE
  8
ValleyLine
  6
CONTINUOUS
 62
5
 10
2284.56014362657
 20
-682.5640470823254
 11
2286.965432607101
 21
-682.5640470823254
  0
LINE
  8
MountainLine
  6
CONTINUOUS
 62
1
 10
2286.965432607101
 20
-682.5640470823254
 11
2289.048473967683
 21
-682.5640470823254
  0
LINE
  8
ValleyLine
  6
CONTINUOUS
 62
5
 10
1979.3536804308792
 20
-1118.278987818828
 11
1957.8096947935364
 21
-1808.6956639680013
  0
LINE
  8
ValleyLine
  6
CONTINUOUS
 62
5
 10
2033.213644524236
 20
-1118.278987818828
 11
2054.757630161579
 21
-1808.6956639680013
  0
LINE
  8
MountainLine
  6
CONTINUOUS
 62
1
 10
2170.3151164144874
 20
-1118.278987818828
 11
2180.3137149452828
 21
-1808.6956639680013
  0
LINE
  8
MountainLine
  6
CONTINUOUS
 62
1
 10
1842.2522085406279
 20
-1118.278987818828
 11
1832.2536100098325
 21
-1808.6956639680013
  0
LINE
  8
ValleyLine
  6
CONTINUOUS
 62
5
 10
1723.5188509874322
 20
-1118.278987818828
 11
1842.2522085406279
 21
-1118.278987818828
  0
LINE
  8
MountainLine
  6
CONTINUOUS
 62
1
 10
1842.2522085406279
 20
-1118.278987818828
 11
1979.3536804308792
 21
-1118.278987818828
  0
LINE
  8
ValleyLine
  6
CONTINUOUS
 62
5
 10
1979.3536804308792
 20
-1118.278987818828
 11
2033.213644524236
 21
-1118.278987818828
  0
LINE
  8
MountainLine
  6
CONTINUOUS
 62
1
 10
2033.213644524236
 20
-1118.278987818828
 11
2170.3151164144874
 21
-1118.278987818828
  0
LINE
  8
ValleyLine
  6
CONTINUOUS
 62
5
 10
2170.3151164144874
 20
-1118.278987818828
 11
2289.048473967683
 21
-1118.278987818828
  0
LINE
  8
ValleyLine
  6
CONTINUOUS
 62
5
 10
1957.8096947935364
 20
-1808.6956639680013
 11
2009.8743267504485
 21
-1905.7598937052599
  0
LINE
  8
ValleyLine
  6
CONTINUOUS
 62
5
 10
2054.757630161579
 20
-1808.6956639680013
 11
2002.6929982046672
 21
-1905.7598937052599
  0
LINE
  8
MountainLine
  6
CONTINUOUS
 62
1
 10
2180.3137149452828
 20
-1808.6956639680013
 11
2156.150435162527
 21
-1905.7598937052599
  0
LINE
  8
MountainLine
  6
CONTINUOUS
 62
1
 10
1832.2536100098325
 20
-1808.6956639680013
 11
1856.4168897925883
 21
-1905.7598937052599
  0
LINE
  8
MountainLine
  6
CONTINUOUS
 62
1
 10
1723.5188509874322
 20
-1808.6956639680013
 11
1832.2536100098325
 21
-1808.6956639680013
  0
LINE
  8
ValleyLine
  6
CONTINUOUS
 62
5
 10
1832.2536100098325
 20
-1808.6956639680013
 11
1957.8096947935364
 21
-1808.6956639680013
  0
LINE
  8
MountainLine
  6
CONTINUOUS
 62
1
 10
1957.8096947935364
 20
-1808.6956639680013
 11
2054.757630161579
 21
-1808.6956639680013
  0
LINE
  8
ValleyLine
  6
CONTINUOUS
 62
5
 10
2054.757630161579
 20
-1808.6956639680013
 11
2180.3137149452828
 21
-1808.6956639680013
  0
LINE
  8
MountainLine
  6
CONTINUOUS
 62
1
 10
2180.3137149452828
 20
-1808.6956639680013
 11
2289.048473967683
 21
-1808.6956639680013
  0
LINE
  8
ValleyLine
  6
CONTINUOUS
 62
5
 10
2571.813285457809
 20
-0.0
 11
2385.996409335726
 21
-321.96943145632935
  0
LINE
  8
ValleyLine
  6
CONTINUOUS
 62
5
 10
2571.813285457809
 20
-0.0
 11
2757.6301615798916
 21
-321.96943145632935
  0
LINE
  8
MountainLine
  6
CONTINUOUS
 62
1
 10
2723.3464912312443
 20
-0.0
 11
2809.584403559355
 21
-321.96943145632935
  0
LINE
  8
MountainLine
  6
CONTINUOUS
 62
1
 10
2420.280079684373
 20
-0.0
 11
2334.042167356263
 21
-321.96943145632935
  0
LINE
  8
ValleyLine
  6
CONTINUOUS
 62
5
 10
2385.996409335726
 20
-321.96943145632935
 11
2289.048473967683
 21
-544.1050576032012
  0
LINE
  8
ValleyLine
  6
CONTINUOUS
 62
5
 10
2757.6301615798916
 20
-321.96943145632935
 11
2854.5780969479347
 21
-544.1050576032012
  0
LINE
  8
MountainLine
  6
CONTINUOUS
 62
1
 10
2809.584403559355
 20
-321.96943145632935
 11
2854.5780969479347
 21
-544.1050576032012
  0
LINE
  8
MountainLine
  6
CONTINUOUS
 62
1
 10
2334.042167356263
 20
-321.96943145632935
 11
2289.048473967683
 21
-544.1050576032012
  0
LINE
  8
MountainLine
  6
CONTINUOUS
 62
1
 10
2289.048473967683
 20
-321.96943145632935
 11
2334.042167356263
 21
-321.96943145632935
  0
LINE
  8
ValleyLine
  6
CONTINUOUS
 62
5
 10
2334.042167356263
 20
-321.96943145632935
 11
2385.996409335726
 21
-321.96943145632935
  0
LINE
  8
MountainLine
  6
CONTINUOUS
 62
1
 10
2385.996409335726
 20
-321.96943145632935
 11
2757.6301615798916
 21
-321.96943145632935
  0
LINE
  8
ValleyLine
  6
CONTINUOUS
 62
5
 10
2757.6301615798916
 20
-321.96943145632935
 11
2809.584403559355
 21
-321.96943145632935
  0
LINE
  8
MountainLine
  6
CONTINUOUS
 62
1
 10
2809.584403559355
 20
-321.96943145632935
 11
2854.5780969479347
 21
-321.96943145632935
  0
LINE
  8
ValleyLine
  6
CONTINUOUS
 62
5
 10
2289.048473967683
 20
-544.1050576032012
 11
2293.536804308796
 21
-682.5640470823254
  0
LINE
  8
ValleyLine
  6
CONTINUOUS
 62
5
 10
2854.5780969479347
 20
-544.1050576032012
 11
2850.0897666068213
 21
-682.5640470823254
  0
LINE
  8
MountainLine
  6
CONTINUOUS
 62
1
 10
2854.5780969479347
 20
-544.1050576032012
 11
2852.495055587352
 21
-682.5640470823254
  0
LINE
  8
MountainLine
  6
CONTINUOUS
 62
1
 10
2289.048473967683
 20
-544.1050576032012
 11
2291.1315153282653
 21
-682.5640470823254
  0
LINE
  8
ValleyLine
  6
CONTINUOUS
 62
5
 10
2289.048473967683
 20
-544.1050576032012
 11
2854.5780969479347
 21
-544.1050576032012
  0
LINE
  8
ValleyLine
  6
CONTINUOUS
 62
5
 10
2293.536804308796
 20
-682.5640470823254
 11
2544.8833034111303
 21
-1118.278987818828
  0
LINE
  8
ValleyLine
  6
CONTINUOUS
 62
5
 10
2850.0897666068213
 20
-682.5640470823254
 11
2598.7432675044874
 21
-1118.278987818828
  0
LINE
  8
MountainLine
  6
CONTINUOUS
 62
1
 10
2852.495055587352
 20
-682.5640470823254
 11
2735.844739394739
 21
-1118.278987818828
  0
LINE
  8
MountainLine
  6
CONTINUOUS
 62
1
 10
2291.1315153282653
 20
-682.5640470823254
 11
2407.7818315208788
 21
-1118.278987818828
  0
LINE
  8
MountainLine
  6
CONTINUOUS
 62
1
 10
2289.048473967683
 20
-682.5640470823254
 11
2291.1315153282653
 21
-682.5640470823254
  0
LINE
  8
ValleyLine
  6
CONTINUOUS
 62
5
 10
2291.1315153282653
 20
-682.5640470823254
 11
2293.536804308796
 21
-682.5640470823254
  0
LINE
  8
MountainLine
  6
CONTINUOUS
 62
1
 10
2293.536804308796
 20
-682.5640470823254
 11
2850.0897666068213
 21
-682.5640470823254
  0
LINE
  8
ValleyLine
  6
CONTINUOUS
 62
5
 10
2850.0897666068213
 20
-682.5640470823254
 11
2852.495055587352
 21
-682.5640470823254
  0
LINE
  8
MountainLine
  6
CONTINUOUS
 62
1
 10
2852.495055587352
 20
-682.5640470823254
 11
2854.5780969479347
 21
-682.5640470823254
  0
LINE
  8
ValleyLine
  6
CONTINUOUS
 62
5
 10
2544.8833034111303
 20
-1118.278987818828
 11
2523.339317773787
 21
-1808.6956639680013
  0
LINE
  8
ValleyLine
  6
CONTINUOUS
 62
5
 10
2598.7432675044874
 20
-1118.278987818828
 11
2620.28725314183
 21
-1808.6956639680013
  0
LINE
  8
MountainLine
  6
CONTINUOUS
 62
1
 10
2735.844739394739
 20
-1118.278987818828
 11
2745.8433379255343
 21
-1808.6956639680013
  0
LINE
  8
MountainLine
  6
CONTINUOUS
 62
1
 10
2407.7818315208788
 20
-1118.278987818828
 11
2397.7832329900834
 21
-1808.6956639680013
  0
LINE
  8
ValleyLine
  6
CONTINUOUS
 62
5
 10
2289.048473967683
 20
-1118.278987818828
 11
2407.7818315208788
 21
-1118.278987818828
  0
LINE
  8
MountainLine
  6
CONTINUOUS
 62
1
 10
2407.7818315208788
 20
-1118.278987818828
 11
2544.8833034111303
 21
-1118.278987818828
  0
LINE
  8
ValleyLine
  6
CONTINUOUS
 62
5
 10
2544.8833034111303
 20
-1118.278987818828
 11
2598.7432675044874
 21
-1118.278987818828
  0
LINE
  8
MountainLine
  6
CONTINUOUS
 62
1
 10
2598.7432675044874
 20
-1118.278987818828
 11
2735.844739394739
 21
-1118.278987818828
  0
LINE
  8
ValleyLine
  6
CONTINUOUS
 62
5
 10
2735.844739394739
 20
-1118.278987818828
 11
2854.5780969479347
 21
-1118.278987818828
  0
LINE
  8
ValleyLine
  6
CONTINUOUS
 62
5
 10
2523.339317773787
 20
-1808.6956639680013
 11
2575.403949730699
 21
-1905.7598937052599
  0
LINE
  8
ValleyLine
  6
CONTINUOUS
 62
5
 10
2620.28725314183
 20
-1808.6956639680013
 11
2568.222621184919
 21
-1905.7598937052599
  0
LINE
  8
MountainLine
  6
CONTINUOUS
 62
1
 10
2745.8433379255343
 20
-1808.6956639680013
 11
2721.6800581427788
 21
-1905.7598937052599
  0
LINE
  8
MountainLine
  6
CONTINUOUS
 62
1
 10
2397.7832329900834
 20
-1808.6956639680013
 11
2421.946512772839
 21
-1905.7598937052599
  0
LINE
  8
MountainLine
  6
CONTINUOUS
 62
1
 10
2289.048473967683
 20
-1808.6956639680013
 11
2397.7832329900834
 21
-1808.6956639680013
  0
LINE
  8
ValleyLine
  6
CONTINUOUS
 62
5
 10
2397.7832329900834
 20
-1808.6956639680013
 11
2523.339317773787
 21
-1808.6956639680013
  0
LINE
  8
MountainLine
  6
CONTINUOUS
 62
1
 10
2523.339317773787
 20
-1808.6956639680013
 11
2620.28725314183
 21
-1808.6956639680013
  0
LINE
  8
ValleyLine
  6
CONTINUOUS
 62
5
 10
2620.28725314183
 20
-1808.6956639680013
 11
2745.8433379255343
 21
-1808.6956639680013
  0
LINE
  8
MountainLine
  6
CONTINUOUS
 62
1
 10
2745.8433379255343
 20
-1808.6956639680013
 11
2854.5780969479347
 21
-1808.6956639680013
  0
ENDSEC
  0
EOF
