  0
SECTION
  2
HEADER
  9
$ACADVER
  1
AC1009
  0
ENDSEC
  0
SECTION
  2
ENTITIES
  0
LINE
  8
reference 10mm
  6
CONTINUOUS
 62
250
 10
-2301.167499202049
 20
2311.167499202049
 11
-2291.167499202049
 21
2311.167499202049
  0
LINE
  8
reference 10mm
  6
CONTINUOUS
 62
250
 10
-2291.167499202049
 20
2311.167499202049
 11
-2291.167499202049
 21
2321.167499202049
  0
LINE
  8
reference 10mm
  6
CONTINUOUS
 62
250
 10
-2291.167499202049
 20
2321.167499202049
 11
-2301.167499202049
 21
2321.167499202049
  0
LINE
  8
reference 10mm
  6
CONTINUOUS
 62
250
 10
-2301.167499202049
 20
2321.167499202049
 11
-2301.167499202049
 21
2311.167499202049
  0
LINE
  8
ValleyLine
  6
CONTINUOUS
 62
5
 10
0.0
 20
-0.0
 11
7.96526435812977
 21
19.22984924128392
  0
LINE
  8
MountainLine
  6
CONTINUOUS
 62
1
 10
0.0
 20
-0.0
 11
-1.3234837936577572E-15
 21
19.22984924128392
  0
LINE
  8
ValleyLine
  6
CONTINUOUS
 62
5
 10
0.0
 20
-0.0
 11
-7.96526435812977
 21
19.22984924128392
  0
LINE
  8
MountainLine
  6
CONTINUOUS
 62
1
 10
0.0
 20
-0.0
 11
1.3234837936577572E-15
 21
19.22984924128392
  0
LINE
  8
ValleyLine
  6
CONTINUOUS
 62
5
 10
7.96526435812977
 20
19.22984924128392
 11
-7.96526435812977
 21
19.22984924128392
  0
LINE
  8
MountainLine
  6
CONTINUOUS
 62
1
 10
7.96526435812977
 20
19.22984924128392
 11
-1.3234837936577572E-15
 21
19.22984924128392
  0
LINE
  8
ValleyLine
  6
CONTINUOUS
 62
5
 10
-1.3234837936577572E-15
 20
19.22984924128392
 11
-6.798778399853424
 21
16.413703020495383
  0
LINE
  8
MountainLine
  6
CONTINUOUS
 62
1
 10
-7.96526435812977
 20
19.22984924128392
 11
1.3234837936577572E-15
 21
19.22984924128392
  0
LINE
  8
ValleyLine
  6
CONTINUOUS
 62
5
 10
1.3234837936577572E-15
 20
19.22984924128392
 11
6.798778399853424
 21
16.413703020495383
  0
LINE
  8
ValleyLine
  6
CONTINUOUS
 62
5
 10
7.96526435812977
 20
19.22984924128392
 11
7.96526435812977
 21
19.22984924128392
  0
LINE
  8
MountainLine
  6
CONTINUOUS
 62
1
 10
-1.3234837936577572E-15
 20
19.22984924128392
 11
-1.3234837936577572E-15
 21
19.22984924128392
  0
LINE
  8
ValleyLine
  6
CONTINUOUS
 62
5
 10
-7.96526435812977
 20
19.22984924128392
 11
-7.96526435812977
 21
19.22984924128392
  0
LINE
  8
MountainLine
  6
CONTINUOUS
 62
1
 10
1.3234837936577572E-15
 20
19.22984924128392
 11
1.3234837936577572E-15
 21
19.22984924128392
  0
LINE
  8
ValleyLine
  6
CONTINUOUS
 62
5
 10
7.96526435812977
 20
19.22984924128392
 11
-7.96526435812977
 21
19.22984924128392
  0
LINE
  8
MountainLine
  6
CONTINUOUS
 62
1
 10
7.96526435812977
 20
19.22984924128392
 11
-1.3234837936577572E-15
 21
19.22984924128392
  0
LINE
  8
ValleyLine
  6
CONTINUOUS
 62
5
 10
-1.3234837936577572E-15
 20
19.22984924128392
 11
-6.798778399853424
 21
16.413703020495383
  0
LINE
  8
MountainLine
  6
CONTINUOUS
 62
1
 10
-7.96526435812977
 20
19.22984924128392
 11
1.3234837936577572E-15
 21
19.22984924128392
  0
LINE
  8
ValleyLine
  6
CONTINUOUS
 62
5
 10
1.3234837936577572E-15
 20
19.22984924128392
 11
6.798778399853424
 21
16.413703020495383
  0
LINE
  8
ValleyLine
  6
CONTINUOUS
 62
5
 10
7.96526435812977
 20
19.22984924128392
 11
-10.228123550780273
 21
63.156553202325725
  0
LINE
  8
MountainLine
  6
CONTINUOUS
 62
1
 10
-1.3234837936577572E-15
 20
19.22984924128392
 11
-18.194212219960757
 21
63.156553202325725
  0
LINE
  8
ValleyLine
  6
CONTINUOUS
 62
5
 10
-7.96526435812977
 20
19.22984924128392
 11
10.228123550780273
 21
63.156553202325725
  0
LINE
  8
MountainLine
  6
CONTINUOUS
 62
1
 10
1.3234837936577572E-15
 20
19.22984924128392
 11
18.194212219960757
 21
63.156553202325725
  0
LINE
  8
MountainLine
  6
CONTINUOUS
 62
1
 10
-10.228123550780273
 20
63.156553202325725
 11
10.228123550780273
 21
63.156553202325725
  0
LINE
  8
ValleyLine
  6
CONTINUOUS
 62
5
 10
-10.228123550780273
 20
63.156553202325725
 11
-18.194212219960757
 21
63.156553202325725
  0
LINE
  8
MountainLine
  6
CONTINUOUS
 62
1
 10
-18.194212219960757
 20
63.156553202325725
 11
-24.99369421330642
 21
60.340115543570306
  0
LINE
  8
ValleyLine
  6
CONTINUOUS
 62
5
 10
10.228123550780273
 20
63.156553202325725
 11
18.194212219960757
 21
63.156553202325725
  0
LINE
  8
MountainLine
  6
CONTINUOUS
 62
1
 10
18.194212219960757
 20
63.156553202325725
 11
24.99369421330642
 21
60.340115543570306
  0
LINE
  8
ValleyLine
  6
CONTINUOUS
 62
5
 10
-10.228123550780273
 20
63.156553202325725
 11
-64.8082872775104
 21
194.93666508545115
  0
LINE
  8
MountainLine
  6
CONTINUOUS
 62
1
 10
-18.194212219960757
 20
63.156553202325725
 11
-72.77684887984303
 21
194.93666508545115
  0
LINE
  8
ValleyLine
  6
CONTINUOUS
 62
5
 10
10.228123550780273
 20
63.156553202325725
 11
64.8082872775104
 21
194.93666508545115
  0
LINE
  8
MountainLine
  6
CONTINUOUS
 62
1
 10
18.194212219960757
 20
63.156553202325725
 11
72.77684887984303
 21
194.93666508545115
  0
LINE
  8
MountainLine
  6
CONTINUOUS
 62
1
 10
-64.8082872775104
 20
194.93666508545115
 11
64.8082872775104
 21
194.93666508545115
  0
LINE
  8
ValleyLine
  6
CONTINUOUS
 62
5
 10
-64.8082872775104
 20
194.93666508545115
 11
-72.77684887984303
 21
194.93666508545115
  0
LINE
  8
MountainLine
  6
CONTINUOUS
 62
1
 10
-72.77684887984303
 20
194.93666508545115
 11
-79.57844165366541
 21
192.1193531127951
  0
LINE
  8
ValleyLine
  6
CONTINUOUS
 62
5
 10
64.8082872775104
 20
194.93666508545115
 11
72.77684887984303
 21
194.93666508545115
  0
LINE
  8
MountainLine
  6
CONTINUOUS
 62
1
 10
72.77684887984303
 20
194.93666508545115
 11
79.57844165366541
 21
192.1193531127951
  0
LINE
  8
ValleyLine
  6
CONTINUOUS
 62
5
 10
-64.8082872775104
 20
194.93666508545115
 11
-133.22583496729837
 21
360.1118319888156
  0
LINE
  8
MountainLine
  6
CONTINUOUS
 62
1
 10
-72.77684887984303
 20
194.93666508545115
 11
-141.19451987404358
 21
360.1118319888156
  0
LINE
  8
ValleyLine
  6
CONTINUOUS
 62
5
 10
64.8082872775104
 20
194.93666508545115
 11
133.22583496729837
 21
360.1118319888156
  0
LINE
  8
MountainLine
  6
CONTINUOUS
 62
1
 10
72.77684887984303
 20
194.93666508545115
 11
141.19451987404358
 21
360.1118319888156
  0
LINE
  8
MountainLine
  6
CONTINUOUS
 62
1
 10
-133.22583496729837
 20
360.1118319888156
 11
133.22583496729837
 21
360.1118319888156
  0
LINE
  8
ValleyLine
  6
CONTINUOUS
 62
5
 10
-133.22583496729837
 20
360.1118319888156
 11
-141.19451987404358
 21
360.1118319888156
  0
LINE
  8
MountainLine
  6
CONTINUOUS
 62
1
 10
-141.19451987404358
 20
360.1118319888156
 11
-147.99621789476538
 21
357.29447642146636
  0
LINE
  8
ValleyLine
  6
CONTINUOUS
 62
5
 10
133.22583496729837
 20
360.1118319888156
 11
141.19451987404358
 21
360.1118319888156
  0
LINE
  8
MountainLine
  6
CONTINUOUS
 62
1
 10
141.19451987404358
 20
360.1118319888156
 11
147.99621789476538
 21
357.29447642146636
  0
LINE
  8
ValleyLine
  6
CONTINUOUS
 62
5
 10
-133.22583496729837
 20
360.1118319888156
 11
-192.9313747653819
 21
504.293850964617
  0
LINE
  8
MountainLine
  6
CONTINUOUS
 62
1
 10
-141.19451987404358
 20
360.1118319888156
 11
-200.9083636281413
 21
504.293850964617
  0
LINE
  8
ValleyLine
  6
CONTINUOUS
 62
5
 10
133.22583496729837
 20
360.1118319888156
 11
192.9313747653819
 21
504.293850964617
  0
LINE
  8
MountainLine
  6
CONTINUOUS
 62
1
 10
141.19451987404358
 20
360.1118319888156
 11
200.9083636281413
 21
504.293850964617
  0
LINE
  8
MountainLine
  6
CONTINUOUS
 62
1
 10
-192.9313747653819
 20
504.293850964617
 11
192.9313747653819
 21
504.293850964617
  0
LINE
  8
ValleyLine
  6
CONTINUOUS
 62
5
 10
-192.9313747653819
 20
504.293850964617
 11
-200.9083636281413
 21
504.293850964617
  0
LINE
  8
MountainLine
  6
CONTINUOUS
 62
1
 10
-200.9083636281413
 20
504.293850964617
 11
-207.7171495186744
 21
501.47355950546364
  0
LINE
  8
ValleyLine
  6
CONTINUOUS
 62
5
 10
192.9313747653819
 20
504.293850964617
 11
200.9083636281413
 21
504.293850964617
  0
LINE
  8
MountainLine
  6
CONTINUOUS
 62
1
 10
200.9083636281413
 20
504.293850964617
 11
207.7171495186744
 21
501.47355950546364
  0
LINE
  8
ValleyLine
  6
CONTINUOUS
 62
5
 10
-192.9313747653819
 20
504.293850964617
 11
-239.56890272590877
 21
617.2592297148492
  0
LINE
  8
MountainLine
  6
CONTINUOUS
 62
1
 10
-200.9083636281413
 20
504.293850964617
 11
-247.62302358688453
 21
617.2592297148492
  0
LINE
  8
ValleyLine
  6
CONTINUOUS
 62
5
 10
192.9313747653819
 20
504.293850964617
 11
239.56890272590877
 21
617.2592297148492
  0
LINE
  8
MountainLine
  6
CONTINUOUS
 62
1
 10
200.9083636281413
 20
504.293850964617
 11
247.62302358688453
 21
617.2592297148492
  0
LINE
  8
MountainLine
  6
CONTINUOUS
 62
1
 10
-239.56890272590877
 20
617.2592297148492
 11
239.56890272590877
 21
617.2592297148492
  0
LINE
  8
ValleyLine
  6
CONTINUOUS
 62
5
 10
-239.56890272590877
 20
617.2592297148492
 11
-247.62302358688453
 21
617.2592297148492
  0
LINE
  8
MountainLine
  6
CONTINUOUS
 62
1
 10
-247.62302358688453
 20
617.2592297148492
 11
-254.49764575601841
 21
614.4116679762033
  0
LINE
  8
ValleyLine
  6
CONTINUOUS
 62
5
 10
239.56890272590877
 20
617.2592297148492
 11
247.62302358688453
 21
617.2592297148492
  0
LINE
  8
MountainLine
  6
CONTINUOUS
 62
1
 10
247.62302358688453
 20
617.2592297148492
 11
254.49764575601841
 21
614.4116679762033
  0
LINE
  8
ValleyLine
  6
CONTINUOUS
 62
5
 10
-239.56890272590877
 20
617.2592297148492
 11
-268.78241490302673
 21
689.7723671500224
  0
LINE
  8
MountainLine
  6
CONTINUOUS
 62
1
 10
-247.62302358688453
 20
617.2592297148492
 11
-277.24774216338
 21
689.7723671500224
  0
LINE
  8
ValleyLine
  6
CONTINUOUS
 62
5
 10
239.56890272590877
 20
617.2592297148492
 11
268.78241490302673
 21
689.7723671500224
  0
LINE
  8
MountainLine
  6
CONTINUOUS
 62
1
 10
247.62302358688453
 20
617.2592297148492
 11
277.24774216338
 21
689.7723671500224
  0
LINE
  8
MountainLine
  6
CONTINUOUS
 62
1
 10
-268.78241490302673
 20
689.7723671500224
 11
268.78241490302673
 21
689.7723671500224
  0
LINE
  8
ValleyLine
  6
CONTINUOUS
 62
5
 10
-268.78241490302673
 20
689.7723671500224
 11
-277.24774216338
 21
689.7723671500224
  0
LINE
  8
MountainLine
  6
CONTINUOUS
 62
1
 10
-277.24774216338
 20
689.7723671500224
 11
-284.47335094893623
 21
686.7794219946428
  0
LINE
  8
ValleyLine
  6
CONTINUOUS
 62
5
 10
268.78241490302673
 20
689.7723671500224
 11
277.24774216338
 21
689.7723671500224
  0
LINE
  8
MountainLine
  6
CONTINUOUS
 62
1
 10
277.24774216338
 20
689.7723671500224
 11
284.47335094893623
 21
686.7794219946428
  0
LINE
  8
ValleyLine
  6
CONTINUOUS
 62
5
 10
-268.78241490302673
 20
689.7723671500224
 11
-284.0906573413074
 21
732.90206267485
  0
LINE
  8
MountainLine
  6
CONTINUOUS
 62
1
 10
-277.24774216338
 20
689.7723671500224
 11
-293.8343157962232
 21
732.90206267485
  0
LINE
  8
ValleyLine
  6
CONTINUOUS
 62
5
 10
268.78241490302673
 20
689.7723671500224
 11
284.0906573413074
 21
732.90206267485
  0
LINE
  8
MountainLine
  6
CONTINUOUS
 62
1
 10
277.24774216338
 20
689.7723671500224
 11
293.8343157962232
 21
732.90206267485
  0
LINE
  8
MountainLine
  6
CONTINUOUS
 62
1
 10
-284.0906573413074
 20
732.90206267485
 11
284.0906573413074
 21
732.90206267485
  0
LINE
  8
ValleyLine
  6
CONTINUOUS
 62
5
 10
-284.0906573413074
 20
732.90206267485
 11
-293.8343157962232
 21
732.90206267485
  0
LINE
  8
MountainLine
  6
CONTINUOUS
 62
1
 10
-293.8343157962232
 20
732.90206267485
 11
-302.15104850719945
 21
729.4571591913317
  0
LINE
  8
ValleyLine
  6
CONTINUOUS
 62
5
 10
284.0906573413074
 20
732.90206267485
 11
293.8343157962232
 21
732.90206267485
  0
LINE
  8
MountainLine
  6
CONTINUOUS
 62
1
 10
293.8343157962232
 20
732.90206267485
 11
302.15104850719945
 21
729.4571591913317
  0
LINE
  8
ValleyLine
  6
CONTINUOUS
 62
5
 10
-284.0906573413074
 20
732.90206267485
 11
-300.50770078398676
 21
786.6519175847742
  0
LINE
  8
MountainLine
  6
CONTINUOUS
 62
1
 10
-293.8343157962232
 20
732.90206267485
 11
-313.17479695720124
 21
786.6519175847742
  0
LINE
  8
ValleyLine
  6
CONTINUOUS
 62
5
 10
284.0906573413074
 20
732.90206267485
 11
300.50770078398676
 21
786.6519175847742
  0
LINE
  8
MountainLine
  6
CONTINUOUS
 62
1
 10
293.8343157962232
 20
732.90206267485
 11
313.17479695720124
 21
786.6519175847742
  0
LINE
  8
MountainLine
  6
CONTINUOUS
 62
1
 10
-300.50770078398676
 20
786.6519175847742
 11
300.50770078398676
 21
786.6519175847742
  0
LINE
  8
ValleyLine
  6
CONTINUOUS
 62
5
 10
-300.50770078398676
 20
786.6519175847742
 11
-313.17479695720124
 21
786.6519175847742
  0
LINE
  8
MountainLine
  6
CONTINUOUS
 62
1
 10
-313.17479695720124
 20
786.6519175847742
 11
-323.9868398448195
 21
782.1734227837632
  0
LINE
  8
ValleyLine
  6
CONTINUOUS
 62
5
 10
300.50770078398676
 20
786.6519175847742
 11
313.17479695720124
 21
786.6519175847742
  0
LINE
  8
MountainLine
  6
CONTINUOUS
 62
1
 10
313.17479695720124
 20
786.6519175847742
 11
323.9868398448195
 21
782.1734227837632
  0
LINE
  8
ValleyLine
  6
CONTINUOUS
 62
5
 10
-300.50770078398676
 20
786.6519175847742
 11
-298.3353559590423
 21
822.9842939420964
  0
LINE
  8
MountainLine
  6
CONTINUOUS
 62
1
 10
-313.17479695720124
 20
786.6519175847742
 11
-319.6133060649522
 21
822.9842939420964
  0
LINE
  8
ValleyLine
  6
CONTINUOUS
 62
5
 10
300.50770078398676
 20
786.6519175847742
 11
298.3353559590423
 21
822.9842939420964
  0
LINE
  8
MountainLine
  6
CONTINUOUS
 62
1
 10
313.17479695720124
 20
786.6519175847742
 11
319.6133060649522
 21
822.9842939420964
  0
LINE
  8
MountainLine
  6
CONTINUOUS
 62
1
 10
-298.3353559590423
 20
822.9842939420964
 11
298.3353559590423
 21
822.9842939420964
  0
LINE
  8
ValleyLine
  6
CONTINUOUS
 62
5
 10
-298.3353559590423
 20
822.9842939420964
 11
-319.6133060649522
 21
822.9842939420964
  0
LINE
  8
MountainLine
  6
CONTINUOUS
 62
1
 10
-319.6133060649522
 20
822.9842939420964
 11
-337.7751725227261
 21
815.4614025372775
  0
LINE
  8
ValleyLine
  6
CONTINUOUS
 62
5
 10
298.3353559590423
 20
822.9842939420964
 11
319.6133060649522
 21
822.9842939420964
  0
LINE
  8
MountainLine
  6
CONTINUOUS
 62
1
 10
319.6133060649522
 20
822.9842939420964
 11
337.7751725227261
 21
815.4614025372775
  0
LINE
  8
ValleyLine
  6
CONTINUOUS
 62
5
 10
-298.3353559590423
 20
822.9842939420964
 11
-289.6459766592644
 21
862.9860175642415
  0
LINE
  8
MountainLine
  6
CONTINUOUS
 62
1
 10
-319.6133060649522
 20
822.9842939420964
 11
-323.5532446363596
 21
862.9860175642415
  0
LINE
  8
ValleyLine
  6
CONTINUOUS
 62
5
 10
298.3353559590423
 20
822.9842939420964
 11
289.6459766592644
 21
862.9860175642415
  0
LINE
  8
MountainLine
  6
CONTINUOUS
 62
1
 10
319.6133060649522
 20
822.9842939420964
 11
323.5532446363596
 21
862.9860175642415
  0
LINE
  8
MountainLine
  6
CONTINUOUS
 62
1
 10
-289.6459766592644
 20
862.9860175642415
 11
289.6459766592644
 21
862.9860175642415
  0
LINE
  8
ValleyLine
  6
CONTINUOUS
 62
5
 10
-289.6459766592644
 20
862.9860175642415
 11
-323.5532446363596
 21
862.9860175642415
  0
LINE
  8
MountainLine
  6
CONTINUOUS
 62
1
 10
-323.5532446363596
 20
862.9860175642415
 11
-352.4949081839639
 21
850.9979880051848
  0
LINE
  8
ValleyLine
  6
CONTINUOUS
 62
5
 10
289.6459766592644
 20
862.9860175642415
 11
323.5532446363596
 21
862.9860175642415
  0
LINE
  8
MountainLine
  6
CONTINUOUS
 62
1
 10
323.5532446363596
 20
862.9860175642415
 11
352.4949081839639
 21
850.9979880051848
  0
LINE
  8
ValleyLine
  6
CONTINUOUS
 62
5
 10
-289.6459766592644
 20
862.9860175642415
 11
-276.61190770959746
 21
895.3505146936491
  0
LINE
  8
MountainLine
  6
CONTINUOUS
 62
1
 10
-323.5532446363596
 20
862.9860175642415
 11
-323.739116986719
 21
895.3505146936491
  0
LINE
  8
ValleyLine
  6
CONTINUOUS
 62
5
 10
289.6459766592644
 20
862.9860175642415
 11
276.61190770959746
 21
895.3505146936491
  0
LINE
  8
MountainLine
  6
CONTINUOUS
 62
1
 10
323.5532446363596
 20
862.9860175642415
 11
323.739116986719
 21
895.3505146936491
  0
LINE
  8
MountainLine
  6
CONTINUOUS
 62
1
 10
-276.61190770959746
 20
895.3505146936491
 11
276.61190770959746
 21
895.3505146936491
  0
LINE
  8
ValleyLine
  6
CONTINUOUS
 62
5
 10
-276.61190770959746
 20
895.3505146936491
 11
-323.739116986719
 21
895.3505146936491
  0
LINE
  8
MountainLine
  6
CONTINUOUS
 62
1
 10
-323.739116986719
 20
895.3505146936491
 11
-363.96470625440486
 21
878.6885300645239
  0
LINE
  8
ValleyLine
  6
CONTINUOUS
 62
5
 10
276.61190770959746
 20
895.3505146936491
 11
323.739116986719
 21
895.3505146936491
  0
LINE
  8
MountainLine
  6
CONTINUOUS
 62
1
 10
323.739116986719
 20
895.3505146936491
 11
363.96470625440486
 21
878.6885300645239
  0
LINE
  8
ValleyLine
  6
CONTINUOUS
 62
5
 10
-276.61190770959746
 20
895.3505146936491
 11
-250.40799825870468
 21
958.6133431396771
  0
LINE
  8
MountainLine
  6
CONTINUOUS
 62
1
 10
-323.739116986719
 20
895.3505146936491
 11
-323.73932302948623
 21
958.6133431396771
  0
LINE
  8
ValleyLine
  6
CONTINUOUS
 62
5
 10
276.61190770959746
 20
895.3505146936491
 11
250.40799825870468
 21
958.6133431396771
  0
LINE
  8
MountainLine
  6
CONTINUOUS
 62
1
 10
323.739116986719
 20
895.3505146936491
 11
323.73932302948623
 21
958.6133431396771
  0
LINE
  8
ValleyLine
  6
CONTINUOUS
 62
5
 10
-250.40799825870468
 20
958.6133431396771
 11
250.40799825870468
 21
958.6133431396771
  0
LINE
  8
MountainLine
  6
CONTINUOUS
 62
1
 10
-250.40799825870468
 20
958.6133431396771
 11
-323.73932302948623
 21
958.6133431396771
  0
LINE
  8
ValleyLine
  6
CONTINUOUS
 62
5
 10
-323.73932302948623
 20
958.6133431396771
 11
-386.3315239242833
 21
932.6868046302708
  0
LINE
  8
MountainLine
  6
CONTINUOUS
 62
1
 10
250.40799825870468
 20
958.6133431396771
 11
323.73932302948623
 21
958.6133431396771
  0
LINE
  8
ValleyLine
  6
CONTINUOUS
 62
5
 10
323.73932302948623
 20
958.6133431396771
 11
386.3315239242833
 21
932.6868046302708
  0
LINE
  8
ValleyLine
  6
CONTINUOUS
 62
5
 10
-250.40799825870468
 20
958.6133431396771
 11
-218.97688407278915
 21
1035.1044485567938
  0
LINE
  8
MountainLine
  6
CONTINUOUS
 62
1
 10
-323.73932302948623
 20
958.6133431396771
 11
-323.8655925688684
 21
1035.1044485567938
  0
LINE
  8
ValleyLine
  6
CONTINUOUS
 62
5
 10
250.40799825870468
 20
958.6133431396771
 11
218.97688407278915
 21
1035.1044485567938
  0
LINE
  8
MountainLine
  6
CONTINUOUS
 62
1
 10
323.73932302948623
 20
958.6133431396771
 11
323.8655925688684
 21
1035.1044485567938
  0
LINE
  8
MountainLine
  6
CONTINUOUS
 62
1
 10
-218.97688407278915
 20
1035.1044485567938
 11
218.97688407278915
 21
1035.1044485567938
  0
LINE
  8
ValleyLine
  6
CONTINUOUS
 62
5
 10
-218.97688407278915
 20
1035.1044485567938
 11
-323.8655925688684
 21
1035.1044485567938
  0
LINE
  8
MountainLine
  6
CONTINUOUS
 62
1
 10
-323.8655925688684
 20
1035.1044485567938
 11
-413.39370534064636
 21
998.0206900330554
  0
LINE
  8
ValleyLine
  6
CONTINUOUS
 62
5
 10
218.97688407278915
 20
1035.1044485567938
 11
323.8655925688684
 21
1035.1044485567938
  0
LINE
  8
MountainLine
  6
CONTINUOUS
 62
1
 10
323.8655925688684
 20
1035.1044485567938
 11
413.39370534064636
 21
998.0206900330554
  0
LINE
  8
ValleyLine
  6
CONTINUOUS
 62
5
 10
-218.97688407278915
 20
1035.1044485567938
 11
-173.47078570858756
 21
1144.9729059428612
  0
LINE
  8
MountainLine
  6
CONTINUOUS
 62
1
 10
-323.8655925688684
 20
1035.1044485567938
 11
-323.8670459499274
 21
1144.9729059428612
  0
LINE
  8
ValleyLine
  6
CONTINUOUS
 62
5
 10
218.97688407278915
 20
1035.1044485567938
 11
173.47078570858756
 21
1144.9729059428612
  0
LINE
  8
MountainLine
  6
CONTINUOUS
 62
1
 10
323.8655925688684
 20
1035.1044485567938
 11
323.8670459499274
 21
1144.9729059428612
  0
LINE
  8
ValleyLine
  6
CONTINUOUS
 62
5
 10
-173.47078570858756
 20
1144.9729059428612
 11
173.47078570858756
 21
1144.9729059428612
  0
LINE
  8
MountainLine
  6
CONTINUOUS
 62
1
 10
-173.47078570858756
 20
1144.9729059428612
 11
-323.8670459499274
 21
1144.9729059428612
  0
LINE
  8
ValleyLine
  6
CONTINUOUS
 62
5
 10
-323.8670459499274
 20
1144.9729059428612
 11
-452.23828381147143
 21
1091.799798201987
  0
LINE
  8
MountainLine
  6
CONTINUOUS
 62
1
 10
173.47078570858756
 20
1144.9729059428612
 11
323.8670459499274
 21
1144.9729059428612
  0
LINE
  8
ValleyLine
  6
CONTINUOUS
 62
5
 10
323.8670459499274
 20
1144.9729059428612
 11
452.23828381147143
 21
1091.799798201987
  0
LINE
  8
ValleyLine
  6
CONTINUOUS
 62
5
 10
-173.47078570858756
 20
1144.9729059428612
 11
-119.58079403561584
 21
1275.3474365789286
  0
LINE
  8
MountainLine
  6
CONTINUOUS
 62
1
 10
-323.8670459499274
 20
1144.9729059428612
 11
-323.92349950218437
 21
1275.3474365789286
  0
LINE
  8
ValleyLine
  6
CONTINUOUS
 62
5
 10
173.47078570858756
 20
1144.9729059428612
 11
119.58079403561584
 21
1275.3474365789286
  0
LINE
  8
MountainLine
  6
CONTINUOUS
 62
1
 10
323.8670459499274
 20
1144.9729059428612
 11
323.92349950218437
 21
1275.3474365789286
  0
LINE
  8
ValleyLine
  6
CONTINUOUS
 62
5
 10
-119.58079403561584
 20
1275.3474365789286
 11
119.58079403561584
 21
1275.3474365789286
  0
LINE
  8
MountainLine
  6
CONTINUOUS
 62
1
 10
-119.58079403561584
 20
1275.3474365789286
 11
-323.92349950218437
 21
1275.3474365789286
  0
LINE
  8
ValleyLine
  6
CONTINUOUS
 62
5
 10
-323.92349950218437
 20
1275.3474365789286
 11
-498.3409085961767
 21
1203.1013802182206
  0
LINE
  8
MountainLine
  6
CONTINUOUS
 62
1
 10
119.58079403561584
 20
1275.3474365789286
 11
323.92349950218437
 21
1275.3474365789286
  0
LINE
  8
ValleyLine
  6
CONTINUOUS
 62
5
 10
323.92349950218437
 20
1275.3474365789286
 11
498.3409085961767
 21
1203.1013802182206
  0
LINE
  8
ValleyLine
  6
CONTINUOUS
 62
5
 10
-119.58079403561584
 20
1275.3474365789286
 11
-62.99799992339001
 21
1415.4662917819185
  0
LINE
  8
MountainLine
  6
CONTINUOUS
 62
1
 10
-323.92349950218437
 20
1275.3474365789286
 11
-324.65166753070656
 21
1415.4662917819185
  0
LINE
  8
ValleyLine
  6
CONTINUOUS
 62
5
 10
119.58079403561584
 20
1275.3474365789286
 11
62.99799992339001
 21
1415.4662917819185
  0
LINE
  8
MountainLine
  6
CONTINUOUS
 62
1
 10
323.92349950218437
 20
1275.3474365789286
 11
324.65166753070656
 21
1415.4662917819185
  0
LINE
  8
ValleyLine
  6
CONTINUOUS
 62
5
 10
-62.99799992339001
 20
1415.4662917819185
 11
62.99799992339001
 21
1415.4662917819185
  0
LINE
  8
MountainLine
  6
CONTINUOUS
 62
1
 10
-62.99799992339001
 20
1415.4662917819185
 11
-324.65166753070656
 21
1415.4662917819185
  0
LINE
  8
ValleyLine
  6
CONTINUOUS
 62
5
 10
-324.65166753070656
 20
1415.4662917819185
 11
-547.9870426780969
 21
1322.9577504381862
  0
LINE
  8
MountainLine
  6
CONTINUOUS
 62
1
 10
62.99799992339001
 20
1415.4662917819185
 11
324.65166753070656
 21
1415.4662917819185
  0
LINE
  8
ValleyLine
  6
CONTINUOUS
 62
5
 10
324.65166753070656
 20
1415.4662917819185
 11
547.9870426780969
 21
1322.9577504381862
  0
LINE
  8
ValleyLine
  6
CONTINUOUS
 62
5
 10
-62.99799992339001
 20
1415.4662917819185
 11
0.0
 21
1580.2379542178667
  0
LINE
  8
MountainLine
  6
CONTINUOUS
 62
1
 10
-324.65166753070656
 20
1415.4662917819185
 11
-327.2779962068772
 21
1580.2379542178667
  0
LINE
  8
ValleyLine
  6
CONTINUOUS
 62
5
 10
62.99799992339001
 20
1415.4662917819185
 11
0.0
 21
1580.2379542178667
  0
LINE
  8
MountainLine
  6
CONTINUOUS
 62
1
 10
324.65166753070656
 20
1415.4662917819185
 11
327.2779962068772
 21
1580.2379542178667
  0
LINE
  8
ValleyLine
  6
CONTINUOUS
 62
5
 10
0.0
 20
1580.2379542178667
 11
0.0
 21
1580.2379542178667
  0
LINE
  8
MountainLine
  6
CONTINUOUS
 62
1
 10
0.0
 20
1580.2379542178667
 11
-327.2779962068772
 21
1580.2379542178667
  0
LINE
  8
ValleyLine
  6
CONTINUOUS
 62
5
 10
-327.2779962068772
 20
1580.2379542178667
 11
-606.6272395358299
 21
1464.5277089923527
  0
LINE
  8
MountainLine
  6
CONTINUOUS
 62
1
 10
0.0
 20
1580.2379542178667
 11
327.2779962068772
 21
1580.2379542178667
  0
LINE
  8
ValleyLine
  6
CONTINUOUS
 62
5
 10
327.2779962068772
 20
1580.2379542178667
 11
606.6272395358299
 21
1464.5277089923527
  0
LINE
  8
ValleyLine
  6
CONTINUOUS
 62
5
 10
0.0
 20
1580.2379542178667
 11
0.0
 21
2301.167499202049
  0
LINE
  8
MountainLine
  6
CONTINUOUS
 62
1
 10
-327.2779962068772
 20
1580.2379542178667
 11
-476.5873937308335
 21
2301.167499202049
  0
LINE
  8
ValleyLine
  6
CONTINUOUS
 62
5
 10
0.0
 20
1580.2379542178667
 11
0.0
 21
2301.167499202049
  0
LINE
  8
MountainLine
  6
CONTINUOUS
 62
1
 10
327.2779962068772
 20
1580.2379542178667
 11
476.5873937308335
 21
2301.167499202049
  0
LINE
  8
CutLine
  6
CONTINUOUS
 62
250
 10
0.0
 20
2301.167499202049
 11
0.0
 21
2301.167499202049
  0
LINE
  8
CutLine
  6
CONTINUOUS
 62
250
 10
0.0
 20
2301.167499202049
 11
-476.5873937308335
 21
2301.167499202049
  0
LINE
  8
CutLine
  6
CONTINUOUS
 62
250
 10
-476.5873937308335
 20
2301.167499202049
 11
-883.3801795637982
 21
2132.668410234501
  0
LINE
  8
CutLine
  6
CONTINUOUS
 62
250
 10
0.0
 20
2301.167499202049
 11
476.5873937308335
 21
2301.167499202049
  0
LINE
  8
CutLine
  6
CONTINUOUS
 62
250
 10
476.5873937308335
 20
2301.167499202049
 11
883.3801795637982
 21
2132.668410234501
  0
LINE
  8
ValleyLine
  6
CONTINUOUS
 62
5
 10
0.0
 20
-0.0
 11
19.22984924128392
 21
7.965264358129772
  0
LINE
  8
MountainLine
  6
CONTINUOUS
 62
1
 10
0.0
 20
-0.0
 11
13.597556799706846
 21
13.597556799706846
  0
LINE
  8
ValleyLine
  6
CONTINUOUS
 62
5
 10
0.0
 20
-0.0
 11
7.9652643581297715
 21
19.229849241283915
  0
LINE
  8
MountainLine
  6
CONTINUOUS
 62
1
 10
0.0
 20
-0.0
 11
13.597556799706846
 21
13.597556799706846
  0
LINE
  8
ValleyLine
  6
CONTINUOUS
 62
5
 10
19.22984924128392
 20
7.965264358129772
 11
7.9652643581297715
 21
19.229849241283915
  0
LINE
  8
MountainLine
  6
CONTINUOUS
 62
1
 10
19.22984924128392
 20
7.965264358129772
 11
13.597556799706846
 21
13.597556799706846
  0
LINE
  8
ValleyLine
  6
CONTINUOUS
 62
5
 10
13.597556799706846
 20
13.597556799706846
 11
6.798778399853421
 21
16.413703020495383
  0
LINE
  8
MountainLine
  6
CONTINUOUS
 62
1
 10
7.9652643581297715
 20
19.229849241283915
 11
13.597556799706846
 21
13.597556799706846
  0
LINE
  8
ValleyLine
  6
CONTINUOUS
 62
5
 10
13.597556799706846
 20
13.597556799706846
 11
16.413703020495383
 21
6.798778399853423
  0
LINE
  8
ValleyLine
  6
CONTINUOUS
 62
5
 10
19.22984924128392
 20
7.965264358129772
 11
19.22984924128392
 21
7.965264358129772
  0
LINE
  8
MountainLine
  6
CONTINUOUS
 62
1
 10
13.597556799706846
 20
13.597556799706846
 11
13.597556799706846
 21
13.597556799706846
  0
LINE
  8
ValleyLine
  6
CONTINUOUS
 62
5
 10
7.9652643581297715
 20
19.229849241283915
 11
7.9652643581297715
 21
19.229849241283915
  0
LINE
  8
MountainLine
  6
CONTINUOUS
 62
1
 10
13.597556799706846
 20
13.597556799706846
 11
13.597556799706846
 21
13.597556799706846
  0
LINE
  8
ValleyLine
  6
CONTINUOUS
 62
5
 10
19.22984924128392
 20
7.965264358129772
 11
7.9652643581297715
 21
19.229849241283915
  0
LINE
  8
MountainLine
  6
CONTINUOUS
 62
1
 10
19.22984924128392
 20
7.965264358129772
 11
13.597556799706846
 21
13.597556799706846
  0
LINE
  8
ValleyLine
  6
CONTINUOUS
 62
5
 10
13.597556799706846
 20
13.597556799706846
 11
6.798778399853421
 21
16.413703020495383
  0
LINE
  8
MountainLine
  6
CONTINUOUS
 62
1
 10
7.9652643581297715
 20
19.229849241283915
 11
13.597556799706846
 21
13.597556799706846
  0
LINE
  8
ValleyLine
  6
CONTINUOUS
 62
5
 10
13.597556799706846
 20
13.597556799706846
 11
16.413703020495383
 21
6.798778399853423
  0
LINE
  8
ValleyLine
  6
CONTINUOUS
 62
5
 10
19.22984924128392
 20
7.965264358129772
 11
37.426051524162915
 21
51.89080256730405
  0
LINE
  8
MountainLine
  6
CONTINUOUS
 62
1
 10
13.597556799706846
 20
13.597556799706846
 11
31.79317620665208
 21
57.52367788481489
  0
LINE
  8
ValleyLine
  6
CONTINUOUS
 62
5
 10
7.9652643581297715
 20
19.229849241283915
 11
51.890802567304036
 21
37.42605152416292
  0
LINE
  8
MountainLine
  6
CONTINUOUS
 62
1
 10
13.597556799706846
 20
13.597556799706846
 11
57.52367788481488
 21
31.793176206652085
  0
LINE
  8
MountainLine
  6
CONTINUOUS
 62
1
 10
37.426051524162915
 20
51.89080256730405
 11
51.890802567304036
 21
37.42605152416292
  0
LINE
  8
ValleyLine
  6
CONTINUOUS
 62
5
 10
37.426051524162915
 20
51.89080256730405
 11
31.79317620665208
 21
57.52367788481489
  0
LINE
  8
MountainLine
  6
CONTINUOUS
 62
1
 10
31.79317620665208
 20
57.52367788481489
 11
24.99369421330642
 21
60.340115543570306
  0
LINE
  8
ValleyLine
  6
CONTINUOUS
 62
5
 10
51.890802567304036
 20
37.42605152416292
 11
57.52367788481488
 21
31.793176206652085
  0
LINE
  8
MountainLine
  6
CONTINUOUS
 62
1
 10
57.52367788481488
 20
31.793176206652085
 11
60.340115543570306
 21
24.99369421330643
  0
LINE
  8
ValleyLine
  6
CONTINUOUS
 62
5
 10
37.426051524162915
 20
51.89080256730405
 11
92.01465837279993
 21
183.66741719482687
  0
LINE
  8
MountainLine
  6
CONTINUOUS
 62
1
 10
31.79317620665208
 20
57.52367788481489
 11
86.38003442748779
 21
189.302041140139
  0
LINE
  8
ValleyLine
  6
CONTINUOUS
 62
5
 10
51.890802567304036
 20
37.42605152416292
 11
183.66741719482684
 21
92.01465837279994
  0
LINE
  8
MountainLine
  6
CONTINUOUS
 62
1
 10
57.52367788481488
 20
31.793176206652085
 11
189.30204114013898
 21
86.3800344274878
  0
LINE
  8
MountainLine
  6
CONTINUOUS
 62
1
 10
92.01465837279993
 20
183.66741719482687
 11
183.66741719482684
 21
92.01465837279994
  0
LINE
  8
ValleyLine
  6
CONTINUOUS
 62
5
 10
92.01465837279993
 20
183.66741719482687
 11
86.38003442748779
 21
189.302041140139
  0
LINE
  8
MountainLine
  6
CONTINUOUS
 62
1
 10
86.38003442748779
 20
189.302041140139
 11
79.57844165366542
 21
192.1193531127951
  0
LINE
  8
ValleyLine
  6
CONTINUOUS
 62
5
 10
183.66741719482684
 20
92.01465837279994
 11
189.30204114013898
 21
86.3800344274878
  0
LINE
  8
MountainLine
  6
CONTINUOUS
 62
1
 10
189.30204114013898
 20
86.3800344274878
 11
192.1193531127951
 21
79.57844165366545
  0
LINE
  8
ValleyLine
  6
CONTINUOUS
 62
5
 10
92.01465837279993
 20
183.66741719482687
 11
160.43262705018563
 21
348.8424097194187
  0
LINE
  8
MountainLine
  6
CONTINUOUS
 62
1
 10
86.38003442748779
 20
189.302041140139
 11
154.7979159154872
 21
354.4771208541172
  0
LINE
  8
ValleyLine
  6
CONTINUOUS
 62
5
 10
183.66741719482684
 20
92.01465837279994
 11
348.8424097194187
 21
160.4326270501857
  0
LINE
  8
MountainLine
  6
CONTINUOUS
 62
1
 10
189.30204114013898
 20
86.3800344274878
 11
354.4771208541172
 21
154.79791591548727
  0
LINE
  8
MountainLine
  6
CONTINUOUS
 62
1
 10
160.43262705018563
 20
348.8424097194187
 11
348.8424097194187
 21
160.4326270501857
  0
LINE
  8
ValleyLine
  6
CONTINUOUS
 62
5
 10
160.43262705018563
 20
348.8424097194187
 11
154.7979159154872
 21
354.4771208541172
  0
LINE
  8
MountainLine
  6
CONTINUOUS
 62
1
 10
154.7979159154872
 20
354.4771208541172
 11
147.99621789476538
 21
357.29447642146636
  0
LINE
  8
ValleyLine
  6
CONTINUOUS
 62
5
 10
348.8424097194187
 20
160.4326270501857
 11
354.4771208541172
 21
154.79791591548727
  0
LINE
  8
MountainLine
  6
CONTINUOUS
 62
1
 10
354.4771208541172
 20
154.79791591548727
 11
357.29447642146636
 21
147.99621789476544
  0
LINE
  8
ValleyLine
  6
CONTINUOUS
 62
5
 10
160.43262705018563
 20
348.8424097194187
 11
220.16651832751413
 21
493.01268512800357
  0
LINE
  8
MountainLine
  6
CONTINUOUS
 62
1
 10
154.7979159154872
 20
354.4771208541172
 11
214.5259354092073
 21
498.6532680463103
  0
LINE
  8
ValleyLine
  6
CONTINUOUS
 62
5
 10
348.8424097194187
 20
160.4326270501857
 11
493.0126851280035
 21
220.16651832751415
  0
LINE
  8
MountainLine
  6
CONTINUOUS
 62
1
 10
354.4771208541172
 20
154.79791591548727
 11
498.6532680463103
 21
214.5259354092074
  0
LINE
  8
MountainLine
  6
CONTINUOUS
 62
1
 10
220.16651832751413
 20
493.01268512800357
 11
493.0126851280035
 21
220.16651832751415
  0
LINE
  8
ValleyLine
  6
CONTINUOUS
 62
5
 10
220.16651832751413
 20
493.01268512800357
 11
214.5259354092073
 21
498.6532680463103
  0
LINE
  8
MountainLine
  6
CONTINUOUS
 62
1
 10
214.5259354092073
 20
498.6532680463103
 11
207.71714951867432
 21
501.47355950546364
  0
LINE
  8
ValleyLine
  6
CONTINUOUS
 62
5
 10
493.0126851280035
 20
220.16651832751415
 11
498.6532680463103
 21
214.5259354092074
  0
LINE
  8
MountainLine
  6
CONTINUOUS
 62
1
 10
498.6532680463103
 20
214.5259354092074
 11
501.47355950546364
 21
207.71714951867435
  0
LINE
  8
ValleyLine
  6
CONTINUOUS
 62
5
 10
220.16651832751413
 20
493.01268512800357
 11
267.06739140244423
 21
605.8689827602652
  0
LINE
  8
MountainLine
  6
CONTINUOUS
 62
1
 10
214.5259354092073
 20
498.6532680463103
 11
261.3722679251522
 21
611.5641062375572
  0
LINE
  8
ValleyLine
  6
CONTINUOUS
 62
5
 10
493.0126851280035
 20
220.16651832751415
 11
605.8689827602652
 21
267.06739140244434
  0
LINE
  8
MountainLine
  6
CONTINUOUS
 62
1
 10
498.6532680463103
 20
214.5259354092074
 11
611.5641062375571
 21
261.37226792515236
  0
LINE
  8
MountainLine
  6
CONTINUOUS
 62
1
 10
267.06739140244423
 20
605.8689827602652
 11
605.8689827602652
 21
267.06739140244434
  0
LINE
  8
ValleyLine
  6
CONTINUOUS
 62
5
 10
267.06739140244423
 20
605.8689827602652
 11
261.3722679251522
 21
611.5641062375572
  0
LINE
  8
MountainLine
  6
CONTINUOUS
 62
1
 10
261.3722679251522
 20
611.5641062375572
 11
254.49764575601836
 21
614.4116679762033
  0
LINE
  8
ValleyLine
  6
CONTINUOUS
 62
5
 10
605.8689827602652
 20
267.06739140244434
 11
611.5641062375571
 21
261.37226792515236
  0
LINE
  8
MountainLine
  6
CONTINUOUS
 62
1
 10
611.5641062375571
 20
261.37226792515236
 11
614.4116679762033
 21
254.4976457560185
  0
LINE
  8
ValleyLine
  6
CONTINUOUS
 62
5
 10
267.06739140244423
 20
605.8689827602652
 11
297.68485004525144
 21
677.8005865285043
  0
LINE
  8
MountainLine
  6
CONTINUOUS
 62
1
 10
261.3722679251522
 20
611.5641062375572
 11
291.6989597344923
 21
683.7864768392633
  0
LINE
  8
ValleyLine
  6
CONTINUOUS
 62
5
 10
605.8689827602652
 20
267.06739140244434
 11
677.8005865285041
 21
297.6848500452515
  0
LINE
  8
MountainLine
  6
CONTINUOUS
 62
1
 10
611.5641062375571
 20
261.37226792515236
 11
683.7864768392633
 21
291.69895973449235
  0
LINE
  8
MountainLine
  6
CONTINUOUS
 62
1
 10
297.68485004525144
 20
677.8005865285043
 11
677.8005865285041
 21
297.6848500452515
  0
LINE
  8
ValleyLine
  6
CONTINUOUS
 62
5
 10
297.68485004525144
 20
677.8005865285043
 11
291.6989597344923
 21
683.7864768392633
  0
LINE
  8
MountainLine
  6
CONTINUOUS
 62
1
 10
291.6989597344923
 20
683.7864768392633
 11
284.4733509489361
 21
686.7794219946428
  0
LINE
  8
ValleyLine
  6
CONTINUOUS
 62
5
 10
677.8005865285041
 20
297.6848500452515
 11
683.7864768392633
 21
291.69895973449235
  0
LINE
  8
MountainLine
  6
CONTINUOUS
 62
1
 10
683.7864768392633
 20
291.69895973449235
 11
686.7794219946429
 21
284.4733509489362
  0
LINE
  8
ValleyLine
  6
CONTINUOUS
 62
5
 10
297.68485004525144
 20
677.8005865285043
 11
317.35758818521214
 21
719.1224487407768
  0
LINE
  8
MountainLine
  6
CONTINUOUS
 62
1
 10
291.6989597344923
 20
683.7864768392633
 11
310.4677812181755
 21
726.0122557078133
  0
LINE
  8
ValleyLine
  6
CONTINUOUS
 62
5
 10
677.8005865285041
 20
297.6848500452515
 11
719.1224487407768
 21
317.3575881852122
  0
LINE
  8
MountainLine
  6
CONTINUOUS
 62
1
 10
683.7864768392633
 20
291.69895973449235
 11
726.0122557078133
 21
310.4677812181756
  0
LINE
  8
MountainLine
  6
CONTINUOUS
 62
1
 10
317.35758818521214
 20
719.1224487407768
 11
719.1224487407768
 21
317.3575881852122
  0
LINE
  8
ValleyLine
  6
CONTINUOUS
 62
5
 10
317.35758818521214
 20
719.1224487407768
 11
310.4677812181755
 21
726.0122557078133
  0
LINE
  8
MountainLine
  6
CONTINUOUS
 62
1
 10
310.4677812181755
 20
726.0122557078133
 11
302.1510485071993
 21
729.4571591913317
  0
LINE
  8
ValleyLine
  6
CONTINUOUS
 62
5
 10
719.1224487407768
 20
317.3575881852122
 11
726.0122557078133
 21
310.4677812181756
  0
LINE
  8
MountainLine
  6
CONTINUOUS
 62
1
 10
726.0122557078133
 20
310.4677812181756
 11
729.4571591913316
 21
302.1510485071994
  0
LINE
  8
ValleyLine
  6
CONTINUOUS
 62
5
 10
317.35758818521214
 20
719.1224487407768
 11
343.7558723344598
 21
768.73793838073
  0
LINE
  8
MountainLine
  6
CONTINUOUS
 62
1
 10
310.4677812181755
 20
726.0122557078133
 11
334.7988827324377
 21
777.694927982752
  0
LINE
  8
ValleyLine
  6
CONTINUOUS
 62
5
 10
719.1224487407768
 20
317.3575881852122
 11
768.7379383807298
 21
343.7558723344599
  0
LINE
  8
MountainLine
  6
CONTINUOUS
 62
1
 10
726.0122557078133
 20
310.4677812181756
 11
777.694927982752
 21
334.7988827324378
  0
LINE
  8
MountainLine
  6
CONTINUOUS
 62
1
 10
343.7558723344598
 20
768.73793838073
 11
768.7379383807298
 21
343.7558723344599
  0
LINE
  8
ValleyLine
  6
CONTINUOUS
 62
5
 10
343.7558723344598
 20
768.73793838073
 11
334.7988827324377
 21
777.694927982752
  0
LINE
  8
MountainLine
  6
CONTINUOUS
 62
1
 10
334.7988827324377
 20
777.694927982752
 11
323.9868398448195
 21
782.1734227837632
  0
LINE
  8
ValleyLine
  6
CONTINUOUS
 62
5
 10
768.7379383807298
 20
343.7558723344599
 11
777.694927982752
 21
334.7988827324378
  0
LINE
  8
MountainLine
  6
CONTINUOUS
 62
1
 10
777.694927982752
 20
334.7988827324378
 11
782.1734227837632
 21
323.9868398448196
  0
LINE
  8
ValleyLine
  6
CONTINUOUS
 62
5
 10
343.7558723344598
 20
768.73793838073
 11
370.9828217901379
 21
792.8927283228206
  0
LINE
  8
MountainLine
  6
CONTINUOUS
 62
1
 10
334.7988827324377
 20
777.694927982752
 11
355.9370389805
 21
807.9385111324585
  0
LINE
  8
ValleyLine
  6
CONTINUOUS
 62
5
 10
768.7379383807298
 20
343.7558723344599
 11
792.8927283228206
 21
370.982821790138
  0
LINE
  8
MountainLine
  6
CONTINUOUS
 62
1
 10
777.694927982752
 20
334.7988827324378
 11
807.9385111324584
 21
355.9370389805001
  0
LINE
  8
MountainLine
  6
CONTINUOUS
 62
1
 10
370.9828217901379
 20
792.8927283228206
 11
792.8927283228206
 21
370.982821790138
  0
LINE
  8
ValleyLine
  6
CONTINUOUS
 62
5
 10
370.9828217901379
 20
792.8927283228206
 11
355.9370389805
 21
807.9385111324585
  0
LINE
  8
MountainLine
  6
CONTINUOUS
 62
1
 10
355.9370389805
 20
807.9385111324585
 11
337.7751725227261
 21
815.4614025372775
  0
LINE
  8
ValleyLine
  6
CONTINUOUS
 62
5
 10
792.8927283228206
 20
370.982821790138
 11
807.9385111324584
 21
355.9370389805001
  0
LINE
  8
MountainLine
  6
CONTINUOUS
 62
1
 10
807.9385111324584
 20
355.9370389805001
 11
815.4614025372775
 21
337.7751725227262
  0
LINE
  8
ValleyLine
  6
CONTINUOUS
 62
5
 10
370.9828217901379
 20
792.8927283228206
 11
405.4126308496817
 21
815.0338993280145
  0
LINE
  8
MountainLine
  6
CONTINUOUS
 62
1
 10
355.9370389805
 20
807.9385111324585
 11
381.4365717315683
 21
839.009958446128
  0
LINE
  8
ValleyLine
  6
CONTINUOUS
 62
5
 10
792.8927283228206
 20
370.982821790138
 11
815.0338993280145
 21
405.4126308496819
  0
LINE
  8
MountainLine
  6
CONTINUOUS
 62
1
 10
807.9385111324584
 20
355.9370389805001
 11
839.0099584461279
 21
381.43657173156845
  0
LINE
  8
MountainLine
  6
CONTINUOUS
 62
1
 10
405.4126308496817
 20
815.0338993280145
 11
815.0338993280145
 21
405.4126308496819
  0
LINE
  8
ValleyLine
  6
CONTINUOUS
 62
5
 10
405.4126308496817
 20
815.0338993280145
 11
381.4365717315683
 21
839.009958446128
  0
LINE
  8
MountainLine
  6
CONTINUOUS
 62
1
 10
381.4365717315683
 20
839.009958446128
 11
352.4949081839639
 21
850.9979880051848
  0
LINE
  8
ValleyLine
  6
CONTINUOUS
 62
5
 10
815.0338993280145
 20
405.4126308496819
 11
839.0099584461279
 21
381.43657173156845
  0
LINE
  8
MountainLine
  6
CONTINUOUS
 62
1
 10
839.0099584461279
 20
381.43657173156845
 11
850.9979880051848
 21
352.49490818396407
  0
LINE
  8
ValleyLine
  6
CONTINUOUS
 62
5
 10
405.4126308496817
 20
815.0338993280145
 11
437.51426478034085
 21
828.7025761771486
  0
LINE
  8
MountainLine
  6
CONTINUOUS
 62
1
 10
381.4365717315683
 20
839.009958446128
 11
404.1902955220906
 21
862.0265454353988
  0
LINE
  8
ValleyLine
  6
CONTINUOUS
 62
5
 10
815.0338993280145
 20
405.4126308496819
 11
828.7025761771486
 21
437.514264780341
  0
LINE
  8
MountainLine
  6
CONTINUOUS
 62
1
 10
839.0099584461279
 20
381.43657173156845
 11
862.0265454353988
 21
404.19029552209076
  0
LINE
  8
MountainLine
  6
CONTINUOUS
 62
1
 10
437.51426478034085
 20
828.7025761771486
 11
828.7025761771486
 21
437.514264780341
  0
LINE
  8
ValleyLine
  6
CONTINUOUS
 62
5
 10
437.51426478034085
 20
828.7025761771486
 11
404.1902955220906
 21
862.0265454353988
  0
LINE
  8
MountainLine
  6
CONTINUOUS
 62
1
 10
404.1902955220906
 20
862.0265454353988
 11
363.96470625440486
 21
878.6885300645239
  0
LINE
  8
ValleyLine
  6
CONTINUOUS
 62
5
 10
828.7025761771486
 20
437.514264780341
 11
862.0265454353988
 21
404.19029552209076
  0
LINE
  8
MountainLine
  6
CONTINUOUS
 62
1
 10
862.0265454353988
 20
404.19029552209076
 11
878.6885300645239
 21
363.964706254405
  0
LINE
  8
ValleyLine
  6
CONTINUOUS
 62
5
 10
437.51426478034085
 20
828.7025761771486
 11
500.7768018378931
 21
854.9071891020517
  0
LINE
  8
MountainLine
  6
CONTINUOUS
 62
1
 10
404.1902955220906
 20
862.0265454353988
 11
448.9237248190805
 21
906.7602661208645
  0
LINE
  8
ValleyLine
  6
CONTINUOUS
 62
5
 10
828.7025761771486
 20
437.514264780341
 11
854.9071891020517
 21
500.7768018378933
  0
LINE
  8
MountainLine
  6
CONTINUOUS
 62
1
 10
862.0265454353988
 20
404.19029552209076
 11
906.7602661208643
 21
448.9237248190805
  0
LINE
  8
ValleyLine
  6
CONTINUOUS
 62
5
 10
500.7768018378931
 20
854.9071891020517
 11
854.9071891020517
 21
500.7768018378933
  0
LINE
  8
MountainLine
  6
CONTINUOUS
 62
1
 10
500.7768018378931
 20
854.9071891020517
 11
448.9237248190805
 21
906.7602661208645
  0
LINE
  8
ValleyLine
  6
CONTINUOUS
 62
5
 10
448.9237248190805
 20
906.7602661208645
 11
386.3315239242833
 21
932.6868046302708
  0
LINE
  8
MountainLine
  6
CONTINUOUS
 62
1
 10
854.9071891020517
 20
500.7768018378933
 11
906.7602661208643
 21
448.9237248190805
  0
LINE
  8
ValleyLine
  6
CONTINUOUS
 62
5
 10
906.7602661208643
 20
448.9237248190805
 11
932.6868046302708
 21
386.3315239242835
  0
LINE
  8
ValleyLine
  6
CONTINUOUS
 62
5
 10
500.7768018378931
 20
854.9071891020517
 11
577.089335159901
 21
886.7694144618405
  0
LINE
  8
MountainLine
  6
CONTINUOUS
 62
1
 10
448.9237248190805
 20
906.7602661208645
 11
502.9218181124243
 21
960.9369315093172
  0
LINE
  8
ValleyLine
  6
CONTINUOUS
 62
5
 10
854.9071891020517
 20
500.7768018378933
 11
886.7694144618405
 21
577.089335159901
  0
LINE
  8
MountainLine
  6
CONTINUOUS
 62
1
 10
906.7602661208643
 20
448.9237248190805
 11
960.936931509317
 21
502.9218181124244
  0
LINE
  8
MountainLine
  6
CONTINUOUS
 62
1
 10
577.089335159901
 20
886.7694144618405
 11
886.7694144618405
 21
577.089335159901
  0
LINE
  8
ValleyLine
  6
CONTINUOUS
 62
5
 10
577.089335159901
 20
886.7694144618405
 11
502.9218181124243
 21
960.9369315093172
  0
LINE
  8
MountainLine
  6
CONTINUOUS
 62
1
 10
502.9218181124243
 20
960.9369315093172
 11
413.39370534064625
 21
998.0206900330554
  0
LINE
  8
ValleyLine
  6
CONTINUOUS
 62
5
 10
886.7694144618405
 20
577.089335159901
 11
960.936931509317
 21
502.9218181124244
  0
LINE
  8
MountainLine
  6
CONTINUOUS
 62
1
 10
960.936931509317
 20
502.9218181124244
 11
998.0206900330554
 21
413.39370534064653
  0
LINE
  8
ValleyLine
  6
CONTINUOUS
 62
5
 10
577.089335159901
 20
886.7694144618405
 11
686.9557371547634
 21
932.2804749793651
  0
LINE
  8
MountainLine
  6
CONTINUOUS
 62
1
 10
502.9218181124243
 20
960.9369315093172
 11
580.6095216730153
 21
1038.626690461113
  0
LINE
  8
ValleyLine
  6
CONTINUOUS
 62
5
 10
886.7694144618405
 20
577.089335159901
 11
932.2804749793648
 21
686.9557371547636
  0
LINE
  8
MountainLine
  6
CONTINUOUS
 62
1
 10
960.936931509317
 20
502.9218181124244
 11
1038.626690461113
 21
580.6095216730155
  0
LINE
  8
ValleyLine
  6
CONTINUOUS
 62
5
 10
686.9557371547634
 20
932.2804749793651
 11
932.2804749793648
 21
686.9557371547636
  0
LINE
  8
MountainLine
  6
CONTINUOUS
 62
1
 10
686.9557371547634
 20
932.2804749793651
 11
580.6095216730153
 21
1038.626690461113
  0
LINE
  8
ValleyLine
  6
CONTINUOUS
 62
5
 10
580.6095216730153
 20
1038.626690461113
 11
452.23828381147126
 21
1091.799798201987
  0
LINE
  8
MountainLine
  6
CONTINUOUS
 62
1
 10
932.2804749793648
 20
686.9557371547636
 11
1038.626690461113
 21
580.6095216730155
  0
LINE
  8
ValleyLine
  6
CONTINUOUS
 62
5
 10
1038.626690461113
 20
580.6095216730155
 11
1091.7997982019872
 21
452.2382838114713
  0
LINE
  8
ValleyLine
  6
CONTINUOUS
 62
5
 10
686.9557371547634
 20
932.2804749793651
 11
817.250430411585
 21
986.3632111360968
  0
LINE
  8
MountainLine
  6
CONTINUOUS
 62
1
 10
580.6095216730153
 20
1038.626690461113
 11
672.758317690169
 21
1130.8553238575128
  0
LINE
  8
ValleyLine
  6
CONTINUOUS
 62
5
 10
932.2804749793648
 20
686.9557371547636
 11
986.3632111360965
 21
817.2504304115852
  0
LINE
  8
MountainLine
  6
CONTINUOUS
 62
1
 10
1038.626690461113
 20
580.6095216730155
 11
1130.8553238575125
 21
672.7583176901691
  0
LINE
  8
ValleyLine
  6
CONTINUOUS
 62
5
 10
817.250430411585
 20
986.3632111360968
 11
986.3632111360965
 21
817.2504304115852
  0
LINE
  8
MountainLine
  6
CONTINUOUS
 62
1
 10
817.250430411585
 20
986.3632111360968
 11
672.758317690169
 21
1130.8553238575128
  0
LINE
  8
ValleyLine
  6
CONTINUOUS
 62
5
 10
672.758317690169
 20
1130.8553238575128
 11
498.3409085961765
 21
1203.1013802182206
  0
LINE
  8
MountainLine
  6
CONTINUOUS
 62
1
 10
986.3632111360965
 20
817.2504304115852
 11
1130.8553238575125
 21
672.7583176901691
  0
LINE
  8
ValleyLine
  6
CONTINUOUS
 62
5
 10
1130.8553238575125
 20
672.7583176901691
 11
1203.1013802182206
 21
498.34090859617675
  0
LINE
  8
ValleyLine
  6
CONTINUOUS
 62
5
 10
817.250430411585
 20
986.3632111360968
 11
956.339500512952
 21
1045.4321264069895
  0
LINE
  8
MountainLine
  6
CONTINUOUS
 62
1
 10
672.758317690169
 20
1130.8553238575128
 11
771.3224178254876
 21
1230.449209094454
  0
LINE
  8
ValleyLine
  6
CONTINUOUS
 62
5
 10
986.3632111360965
 20
817.2504304115852
 11
1045.4321264069895
 21
956.3395005129522
  0
LINE
  8
MountainLine
  6
CONTINUOUS
 62
1
 10
1130.8553238575125
 20
672.7583176901691
 11
1230.4492090944539
 21
771.3224178254877
  0
LINE
  8
ValleyLine
  6
CONTINUOUS
 62
5
 10
956.339500512952
 20
1045.4321264069895
 11
1045.4321264069895
 21
956.3395005129522
  0
LINE
  8
MountainLine
  6
CONTINUOUS
 62
1
 10
956.339500512952
 20
1045.4321264069895
 11
771.3224178254876
 21
1230.449209094454
  0
LINE
  8
ValleyLine
  6
CONTINUOUS
 62
5
 10
771.3224178254876
 20
1230.449209094454
 11
547.9870426780972
 21
1322.9577504381862
  0
LINE
  8
MountainLine
  6
CONTINUOUS
 62
1
 10
1045.4321264069895
 20
956.3395005129522
 11
1230.4492090944539
 21
771.3224178254877
  0
LINE
  8
ValleyLine
  6
CONTINUOUS
 62
5
 10
1230.4492090944539
 20
771.3224178254877
 11
1322.957750438186
 21
547.9870426780974
  0
LINE
  8
ValleyLine
  6
CONTINUOUS
 62
5
 10
956.339500512952
 20
1045.4321264069895
 11
1117.3969733158106
 21
1117.3969733158106
  0
LINE
  8
MountainLine
  6
CONTINUOUS
 62
1
 10
771.3224178254876
 20
1230.449209094454
 11
885.9764828647825
 21
1348.8174637668387
  0
LINE
  8
ValleyLine
  6
CONTINUOUS
 62
5
 10
1045.4321264069895
 20
956.3395005129522
 11
1117.3969733158106
 21
1117.3969733158106
  0
LINE
  8
MountainLine
  6
CONTINUOUS
 62
1
 10
1230.4492090944539
 20
771.3224178254877
 11
1348.8174637668385
 21
885.9764828647825
  0
LINE
  8
ValleyLine
  6
CONTINUOUS
 62
5
 10
1117.3969733158106
 20
1117.3969733158106
 11
1117.3969733158106
 21
1117.3969733158106
  0
LINE
  8
MountainLine
  6
CONTINUOUS
 62
1
 10
1117.3969733158106
 20
1117.3969733158106
 11
885.9764828647825
 21
1348.8174637668387
  0
LINE
  8
ValleyLine
  6
CONTINUOUS
 62
5
 10
885.9764828647825
 20
1348.8174637668387
 11
606.62723953583
 21
1464.5277089923527
  0
LINE
  8
MountainLine
  6
CONTINUOUS
 62
1
 10
1117.3969733158106
 20
1117.3969733158106
 11
1348.8174637668385
 21
885.9764828647825
  0
LINE
  8
ValleyLine
  6
CONTINUOUS
 62
5
 10
1348.8174637668385
 20
885.9764828647825
 11
1464.5277089923527
 21
606.6272395358301
  0
LINE
  8
ValleyLine
  6
CONTINUOUS
 62
5
 10
1117.3969733158106
 20
1117.3969733158106
 11
1627.171143331858
 21
1627.171143331858
  0
LINE
  8
MountainLine
  6
CONTINUOUS
 62
1
 10
885.9764828647825
 20
1348.8174637668387
 11
1290.1729653967625
 21
1964.1693212669534
  0
LINE
  8
ValleyLine
  6
CONTINUOUS
 62
5
 10
1117.3969733158106
 20
1117.3969733158106
 11
1627.171143331858
 21
1627.171143331858
  0
LINE
  8
MountainLine
  6
CONTINUOUS
 62
1
 10
1348.8174637668385
 20
885.9764828647825
 11
1964.1693212669536
 21
1290.1729653967625
  0
LINE
  8
CutLine
  6
CONTINUOUS
 62
250
 10
1627.171143331858
 20
1627.171143331858
 11
1627.171143331858
 21
1627.171143331858
  0
LINE
  8
CutLine
  6
CONTINUOUS
 62
250
 10
1627.171143331858
 20
1627.171143331858
 11
1290.1729653967625
 21
1964.1693212669534
  0
LINE
  8
CutLine
  6
CONTINUOUS
 62
250
 10
1290.1729653967625
 20
1964.1693212669534
 11
883.3801795637978
 21
2132.668410234501
  0
LINE
  8
CutLine
  6
CONTINUOUS
 62
250
 10
1627.171143331858
 20
1627.171143331858
 11
1964.1693212669536
 21
1290.1729653967625
  0
LINE
  8
CutLine
  6
CONTINUOUS
 62
250
 10
1964.1693212669536
 20
1290.1729653967625
 11
2132.668410234501
 21
883.3801795637982
  0
LINE
  8
ValleyLine
  6
CONTINUOUS
 62
5
 10
0.0
 20
-0.0
 11
19.22984924128392
 21
-7.965264358129769
  0
LINE
  8
MountainLine
  6
CONTINUOUS
 62
1
 10
0.0
 20
-0.0
 11
19.22984924128392
 21
2.5009724597289825E-15
  0
LINE
  8
ValleyLine
  6
CONTINUOUS
 62
5
 10
0.0
 20
-0.0
 11
19.22984924128392
 21
7.9652643581297715
  0
LINE
  8
MountainLine
  6
CONTINUOUS
 62
1
 10
0.0
 20
-0.0
 11
19.22984924128392
 21
-1.4599512758653168E-16
  0
LINE
  8
ValleyLine
  6
CONTINUOUS
 62
5
 10
19.22984924128392
 20
-7.965264358129769
 11
19.22984924128392
 21
7.9652643581297715
  0
LINE
  8
MountainLine
  6
CONTINUOUS
 62
1
 10
19.22984924128392
 20
-7.965264358129769
 11
19.22984924128392
 21
2.5009724597289825E-15
  0
LINE
  8
ValleyLine
  6
CONTINUOUS
 62
5
 10
19.22984924128392
 20
2.5009724597289825E-15
 11
16.413703020495383
 21
6.7987783998534255
  0
LINE
  8
MountainLine
  6
CONTINUOUS
 62
1
 10
19.22984924128392
 20
7.9652643581297715
 11
19.22984924128392
 21
-1.4599512758653168E-16
  0
LINE
  8
ValleyLine
  6
CONTINUOUS
 62
5
 10
19.22984924128392
 20
-1.4599512758653168E-16
 11
16.413703020495383
 21
-6.798778399853423
  0
LINE
  8
ValleyLine
  6
CONTINUOUS
 62
5
 10
19.22984924128392
 20
-7.965264358129769
 11
19.22984924128392
 21
-7.965264358129769
  0
LINE
  8
MountainLine
  6
CONTINUOUS
 62
1
 10
19.22984924128392
 20
2.5009724597289825E-15
 11
19.22984924128392
 21
2.5009724597289825E-15
  0
LINE
  8
ValleyLine
  6
CONTINUOUS
 62
5
 10
19.22984924128392
 20
7.9652643581297715
 11
19.22984924128392
 21
7.9652643581297715
  0
LINE
  8
MountainLine
  6
CONTINUOUS
 62
1
 10
19.22984924128392
 20
-1.4599512758653168E-16
 11
19.22984924128392
 21
-1.4599512758653168E-16
  0
LINE
  8
ValleyLine
  6
CONTINUOUS
 62
5
 10
19.22984924128392
 20
-7.965264358129769
 11
19.22984924128392
 21
7.9652643581297715
  0
LINE
  8
MountainLine
  6
CONTINUOUS
 62
1
 10
19.22984924128392
 20
-7.965264358129769
 11
19.22984924128392
 21
2.5009724597289825E-15
  0
LINE
  8
ValleyLine
  6
CONTINUOUS
 62
5
 10
19.22984924128392
 20
2.5009724597289825E-15
 11
16.413703020495383
 21
6.7987783998534255
  0
LINE
  8
MountainLine
  6
CONTINUOUS
 62
1
 10
19.22984924128392
 20
7.9652643581297715
 11
19.22984924128392
 21
-1.4599512758653168E-16
  0
LINE
  8
ValleyLine
  6
CONTINUOUS
 62
5
 10
19.22984924128392
 20
-1.4599512758653168E-16
 11
16.413703020495383
 21
-6.798778399853423
  0
LINE
  8
ValleyLine
  6
CONTINUOUS
 62
5
 10
19.22984924128392
 20
-7.965264358129769
 11
63.156553202325725
 21
10.228123550780277
  0
LINE
  8
MountainLine
  6
CONTINUOUS
 62
1
 10
19.22984924128392
 20
2.5009724597289825E-15
 11
63.156553202325725
 21
18.19421221996076
  0
LINE
  8
ValleyLine
  6
CONTINUOUS
 62
5
 10
19.22984924128392
 20
7.9652643581297715
 11
63.156553202325725
 21
-10.22812355078027
  0
LINE
  8
MountainLine
  6
CONTINUOUS
 62
1
 10
19.22984924128392
 20
-1.4599512758653168E-16
 11
63.156553202325725
 21
-18.194212219960754
  0
LINE
  8
MountainLine
  6
CONTINUOUS
 62
1
 10
63.156553202325725
 20
10.228123550780277
 11
63.156553202325725
 21
-10.22812355078027
  0
LINE
  8
ValleyLine
  6
CONTINUOUS
 62
5
 10
63.156553202325725
 20
10.228123550780277
 11
63.156553202325725
 21
18.19421221996076
  0
LINE
  8
MountainLine
  6
CONTINUOUS
 62
1
 10
63.156553202325725
 20
18.19421221996076
 11
60.340115543570306
 21
24.993694213306423
  0
LINE
  8
ValleyLine
  6
CONTINUOUS
 62
5
 10
63.156553202325725
 20
-10.22812355078027
 11
63.156553202325725
 21
-18.194212219960754
  0
LINE
  8
MountainLine
  6
CONTINUOUS
 62
1
 10
63.156553202325725
 20
-18.194212219960754
 11
60.340115543570306
 21
-24.993694213306412
  0
LINE
  8
ValleyLine
  6
CONTINUOUS
 62
5
 10
63.156553202325725
 20
10.228123550780277
 11
194.93666508545115
 21
64.8082872775104
  0
LINE
  8
MountainLine
  6
CONTINUOUS
 62
1
 10
63.156553202325725
 20
18.19421221996076
 11
194.93666508545115
 21
72.77684887984304
  0
LINE
  8
ValleyLine
  6
CONTINUOUS
 62
5
 10
63.156553202325725
 20
-10.22812355078027
 11
194.93666508545115
 21
-64.80828727751039
  0
LINE
  8
MountainLine
  6
CONTINUOUS
 62
1
 10
63.156553202325725
 20
-18.194212219960754
 11
194.93666508545115
 21
-72.77684887984302
  0
LINE
  8
MountainLine
  6
CONTINUOUS
 62
1
 10
194.93666508545115
 20
64.8082872775104
 11
194.93666508545115
 21
-64.80828727751039
  0
LINE
  8
ValleyLine
  6
CONTINUOUS
 62
5
 10
194.93666508545115
 20
64.8082872775104
 11
194.93666508545115
 21
72.77684887984304
  0
LINE
  8
MountainLine
  6
CONTINUOUS
 62
1
 10
194.93666508545115
 20
72.77684887984304
 11
192.1193531127951
 21
79.57844165366542
  0
LINE
  8
ValleyLine
  6
CONTINUOUS
 62
5
 10
194.93666508545115
 20
-64.80828727751039
 11
194.93666508545115
 21
-72.77684887984302
  0
LINE
  8
MountainLine
  6
CONTINUOUS
 62
1
 10
194.93666508545115
 20
-72.77684887984302
 11
192.1193531127951
 21
-79.57844165366541
  0
LINE
  8
ValleyLine
  6
CONTINUOUS
 62
5
 10
194.93666508545115
 20
64.8082872775104
 11
360.1118319888156
 21
133.2258349672984
  0
LINE
  8
MountainLine
  6
CONTINUOUS
 62
1
 10
194.93666508545115
 20
72.77684887984304
 11
360.1118319888156
 21
141.19451987404358
  0
LINE
  8
ValleyLine
  6
CONTINUOUS
 62
5
 10
194.93666508545115
 20
-64.80828727751039
 11
360.1118319888156
 21
-133.22583496729834
  0
LINE
  8
MountainLine
  6
CONTINUOUS
 62
1
 10
194.93666508545115
 20
-72.77684887984302
 11
360.1118319888156
 21
-141.19451987404355
  0
LINE
  8
MountainLine
  6
CONTINUOUS
 62
1
 10
360.1118319888156
 20
133.2258349672984
 11
360.1118319888156
 21
-133.22583496729834
  0
LINE
  8
ValleyLine
  6
CONTINUOUS
 62
5
 10
360.1118319888156
 20
133.2258349672984
 11
360.1118319888156
 21
141.19451987404358
  0
LINE
  8
MountainLine
  6
CONTINUOUS
 62
1
 10
360.1118319888156
 20
141.19451987404358
 11
357.29447642146636
 21
147.9962178947654
  0
LINE
  8
ValleyLine
  6
CONTINUOUS
 62
5
 10
360.1118319888156
 20
-133.22583496729834
 11
360.1118319888156
 21
-141.19451987404355
  0
LINE
  8
MountainLine
  6
CONTINUOUS
 62
1
 10
360.1118319888156
 20
-141.19451987404355
 11
357.29447642146636
 21
-147.99621789476538
  0
LINE
  8
ValleyLine
  6
CONTINUOUS
 62
5
 10
360.1118319888156
 20
133.2258349672984
 11
504.293850964617
 21
192.93137476538195
  0
LINE
  8
MountainLine
  6
CONTINUOUS
 62
1
 10
360.1118319888156
 20
141.19451987404358
 11
504.293850964617
 21
200.90836362814136
  0
LINE
  8
ValleyLine
  6
CONTINUOUS
 62
5
 10
360.1118319888156
 20
-133.22583496729834
 11
504.293850964617
 21
-192.93137476538186
  0
LINE
  8
MountainLine
  6
CONTINUOUS
 62
1
 10
360.1118319888156
 20
-141.19451987404355
 11
504.293850964617
 21
-200.90836362814127
  0
LINE
  8
MountainLine
  6
CONTINUOUS
 62
1
 10
504.293850964617
 20
192.93137476538195
 11
504.293850964617
 21
-192.93137476538186
  0
LINE
  8
ValleyLine
  6
CONTINUOUS
 62
5
 10
504.293850964617
 20
192.93137476538195
 11
504.293850964617
 21
200.90836362814136
  0
LINE
  8
MountainLine
  6
CONTINUOUS
 62
1
 10
504.293850964617
 20
200.90836362814136
 11
501.47355950546364
 21
207.71714951867443
  0
LINE
  8
ValleyLine
  6
CONTINUOUS
 62
5
 10
504.293850964617
 20
-192.93137476538186
 11
504.293850964617
 21
-200.90836362814127
  0
LINE
  8
MountainLine
  6
CONTINUOUS
 62
1
 10
504.293850964617
 20
-200.90836362814127
 11
501.47355950546364
 21
-207.71714951867435
  0
LINE
  8
ValleyLine
  6
CONTINUOUS
 62
5
 10
504.293850964617
 20
192.93137476538195
 11
617.2592297148492
 21
239.5689027259088
  0
LINE
  8
MountainLine
  6
CONTINUOUS
 62
1
 10
504.293850964617
 20
200.90836362814136
 11
617.2592297148492
 21
247.62302358688456
  0
LINE
  8
ValleyLine
  6
CONTINUOUS
 62
5
 10
504.293850964617
 20
-192.93137476538186
 11
617.2592297148492
 21
-239.5689027259087
  0
LINE
  8
MountainLine
  6
CONTINUOUS
 62
1
 10
504.293850964617
 20
-200.90836362814127
 11
617.2592297148492
 21
-247.62302358688447
  0
LINE
  8
MountainLine
  6
CONTINUOUS
 62
1
 10
617.2592297148492
 20
239.5689027259088
 11
617.2592297148492
 21
-239.5689027259087
  0
LINE
  8
ValleyLine
  6
CONTINUOUS
 62
5
 10
617.2592297148492
 20
239.5689027259088
 11
617.2592297148492
 21
247.62302358688456
  0
LINE
  8
MountainLine
  6
CONTINUOUS
 62
1
 10
617.2592297148492
 20
247.62302358688456
 11
614.4116679762033
 21
254.49764575601844
  0
LINE
  8
ValleyLine
  6
CONTINUOUS
 62
5
 10
617.2592297148492
 20
-239.5689027259087
 11
617.2592297148492
 21
-247.62302358688447
  0
LINE
  8
MountainLine
  6
CONTINUOUS
 62
1
 10
617.2592297148492
 20
-247.62302358688447
 11
614.4116679762033
 21
-254.49764575601836
  0
LINE
  8
ValleyLine
  6
CONTINUOUS
 62
5
 10
617.2592297148492
 20
239.5689027259088
 11
689.7723671500224
 21
268.7824149030268
  0
LINE
  8
MountainLine
  6
CONTINUOUS
 62
1
 10
617.2592297148492
 20
247.62302358688456
 11
689.7723671500224
 21
277.24774216338005
  0
LINE
  8
ValleyLine
  6
CONTINUOUS
 62
5
 10
617.2592297148492
 20
-239.5689027259087
 11
689.7723671500224
 21
-268.7824149030267
  0
LINE
  8
MountainLine
  6
CONTINUOUS
 62
1
 10
617.2592297148492
 20
-247.62302358688447
 11
689.7723671500224
 21
-277.24774216337994
  0
LINE
  8
MountainLine
  6
CONTINUOUS
 62
1
 10
689.7723671500224
 20
268.7824149030268
 11
689.7723671500224
 21
-268.7824149030267
  0
LINE
  8
ValleyLine
  6
CONTINUOUS
 62
5
 10
689.7723671500224
 20
268.7824149030268
 11
689.7723671500224
 21
277.24774216338005
  0
LINE
  8
MountainLine
  6
CONTINUOUS
 62
1
 10
689.7723671500224
 20
277.24774216338005
 11
686.7794219946428
 21
284.47335094893623
  0
LINE
  8
ValleyLine
  6
CONTINUOUS
 62
5
 10
689.7723671500224
 20
-268.7824149030267
 11
689.7723671500224
 21
-277.24774216337994
  0
LINE
  8
MountainLine
  6
CONTINUOUS
 62
1
 10
689.7723671500224
 20
-277.24774216337994
 11
686.7794219946428
 21
-284.4733509489362
  0
LINE
  8
ValleyLine
  6
CONTINUOUS
 62
5
 10
689.7723671500224
 20
268.7824149030268
 11
732.90206267485
 21
284.0906573413074
  0
LINE
  8
MountainLine
  6
CONTINUOUS
 62
1
 10
689.7723671500224
 20
277.24774216338005
 11
732.90206267485
 21
293.8343157962232
  0
LINE
  8
ValleyLine
  6
CONTINUOUS
 62
5
 10
689.7723671500224
 20
-268.7824149030267
 11
732.90206267485
 21
-284.09065734130735
  0
LINE
  8
MountainLine
  6
CONTINUOUS
 62
1
 10
689.7723671500224
 20
-277.24774216337994
 11
732.90206267485
 21
-293.83431579622317
  0
LINE
  8
MountainLine
  6
CONTINUOUS
 62
1
 10
732.90206267485
 20
284.0906573413074
 11
732.90206267485
 21
-284.09065734130735
  0
LINE
  8
ValleyLine
  6
CONTINUOUS
 62
5
 10
732.90206267485
 20
284.0906573413074
 11
732.90206267485
 21
293.8343157962232
  0
LINE
  8
MountainLine
  6
CONTINUOUS
 62
1
 10
732.90206267485
 20
293.8343157962232
 11
729.4571591913317
 21
302.15104850719945
  0
LINE
  8
ValleyLine
  6
CONTINUOUS
 62
5
 10
732.90206267485
 20
-284.09065734130735
 11
732.90206267485
 21
-293.83431579622317
  0
LINE
  8
MountainLine
  6
CONTINUOUS
 62
1
 10
732.90206267485
 20
-293.83431579622317
 11
729.4571591913317
 21
-302.1510485071994
  0
LINE
  8
ValleyLine
  6
CONTINUOUS
 62
5
 10
732.90206267485
 20
284.0906573413074
 11
786.6519175847742
 21
300.5077007839868
  0
LINE
  8
MountainLine
  6
CONTINUOUS
 62
1
 10
732.90206267485
 20
293.8343157962232
 11
786.6519175847742
 21
313.1747969572013
  0
LINE
  8
ValleyLine
  6
CONTINUOUS
 62
5
 10
732.90206267485
 20
-284.09065734130735
 11
786.6519175847742
 21
-300.5077007839867
  0
LINE
  8
MountainLine
  6
CONTINUOUS
 62
1
 10
732.90206267485
 20
-293.83431579622317
 11
786.6519175847742
 21
-313.1747969572012
  0
LINE
  8
MountainLine
  6
CONTINUOUS
 62
1
 10
786.6519175847742
 20
300.5077007839868
 11
786.6519175847742
 21
-300.5077007839867
  0
LINE
  8
ValleyLine
  6
CONTINUOUS
 62
5
 10
786.6519175847742
 20
300.5077007839868
 11
786.6519175847742
 21
313.1747969572013
  0
LINE
  8
MountainLine
  6
CONTINUOUS
 62
1
 10
786.6519175847742
 20
313.1747969572013
 11
782.1734227837632
 21
323.98683984481954
  0
LINE
  8
ValleyLine
  6
CONTINUOUS
 62
5
 10
786.6519175847742
 20
-300.5077007839867
 11
786.6519175847742
 21
-313.1747969572012
  0
LINE
  8
MountainLine
  6
CONTINUOUS
 62
1
 10
786.6519175847742
 20
-313.1747969572012
 11
782.1734227837632
 21
-323.98683984481943
  0
LINE
  8
ValleyLine
  6
CONTINUOUS
 62
5
 10
786.6519175847742
 20
300.5077007839868
 11
822.9842939420964
 21
298.3353559590424
  0
LINE
  8
MountainLine
  6
CONTINUOUS
 62
1
 10
786.6519175847742
 20
313.1747969572013
 11
822.9842939420964
 21
319.61330606495227
  0
LINE
  8
ValleyLine
  6
CONTINUOUS
 62
5
 10
786.6519175847742
 20
-300.5077007839867
 11
822.9842939420964
 21
-298.33535595904226
  0
LINE
  8
MountainLine
  6
CONTINUOUS
 62
1
 10
786.6519175847742
 20
-313.1747969572012
 11
822.9842939420964
 21
-319.61330606495216
  0
LINE
  8
MountainLine
  6
CONTINUOUS
 62
1
 10
822.9842939420964
 20
298.3353559590424
 11
822.9842939420964
 21
-298.33535595904226
  0
LINE
  8
ValleyLine
  6
CONTINUOUS
 62
5
 10
822.9842939420964
 20
298.3353559590424
 11
822.9842939420964
 21
319.61330606495227
  0
LINE
  8
MountainLine
  6
CONTINUOUS
 62
1
 10
822.9842939420964
 20
319.61330606495227
 11
815.4614025372775
 21
337.77517252272617
  0
LINE
  8
ValleyLine
  6
CONTINUOUS
 62
5
 10
822.9842939420964
 20
-298.33535595904226
 11
822.9842939420964
 21
-319.61330606495216
  0
LINE
  8
MountainLine
  6
CONTINUOUS
 62
1
 10
822.9842939420964
 20
-319.61330606495216
 11
815.4614025372775
 21
-337.77517252272605
  0
LINE
  8
ValleyLine
  6
CONTINUOUS
 62
5
 10
822.9842939420964
 20
298.3353559590424
 11
862.9860175642415
 21
289.6459766592645
  0
LINE
  8
MountainLine
  6
CONTINUOUS
 62
1
 10
822.9842939420964
 20
319.61330606495227
 11
862.9860175642415
 21
323.55324463635964
  0
LINE
  8
ValleyLine
  6
CONTINUOUS
 62
5
 10
822.9842939420964
 20
-298.33535595904226
 11
862.9860175642415
 21
-289.64597665926436
  0
LINE
  8
MountainLine
  6
CONTINUOUS
 62
1
 10
822.9842939420964
 20
-319.61330606495216
 11
862.9860175642415
 21
-323.5532446363595
  0
LINE
  8
MountainLine
  6
CONTINUOUS
 62
1
 10
862.9860175642415
 20
289.6459766592645
 11
862.9860175642415
 21
-289.64597665926436
  0
LINE
  8
ValleyLine
  6
CONTINUOUS
 62
5
 10
862.9860175642415
 20
289.6459766592645
 11
862.9860175642415
 21
323.55324463635964
  0
LINE
  8
MountainLine
  6
CONTINUOUS
 62
1
 10
862.9860175642415
 20
323.55324463635964
 11
850.9979880051848
 21
352.49490818396396
  0
LINE
  8
ValleyLine
  6
CONTINUOUS
 62
5
 10
862.9860175642415
 20
-289.64597665926436
 11
862.9860175642415
 21
-323.5532446363595
  0
LINE
  8
MountainLine
  6
CONTINUOUS
 62
1
 10
862.9860175642415
 20
-323.5532446363595
 11
850.9979880051848
 21
-352.4949081839639
  0
LINE
  8
ValleyLine
  6
CONTINUOUS
 62
5
 10
862.9860175642415
 20
289.6459766592645
 11
895.3505146936491
 21
276.6119077095975
  0
LINE
  8
MountainLine
  6
CONTINUOUS
 62
1
 10
862.9860175642415
 20
323.55324463635964
 11
895.3505146936491
 21
323.73911698671907
  0
LINE
  8
ValleyLine
  6
CONTINUOUS
 62
5
 10
862.9860175642415
 20
-289.64597665926436
 11
895.3505146936491
 21
-276.61190770959746
  0
LINE
  8
MountainLine
  6
CONTINUOUS
 62
1
 10
862.9860175642415
 20
-323.5532446363595
 11
895.3505146936491
 21
-323.73911698671895
  0
LINE
  8
MountainLine
  6
CONTINUOUS
 62
1
 10
895.3505146936491
 20
276.6119077095975
 11
895.3505146936491
 21
-276.61190770959746
  0
LINE
  8
ValleyLine
  6
CONTINUOUS
 62
5
 10
895.3505146936491
 20
276.6119077095975
 11
895.3505146936491
 21
323.73911698671907
  0
LINE
  8
MountainLine
  6
CONTINUOUS
 62
1
 10
895.3505146936491
 20
323.73911698671907
 11
878.6885300645239
 21
363.9647062544049
  0
LINE
  8
ValleyLine
  6
CONTINUOUS
 62
5
 10
895.3505146936491
 20
-276.61190770959746
 11
895.3505146936491
 21
-323.73911698671895
  0
LINE
  8
MountainLine
  6
CONTINUOUS
 62
1
 10
895.3505146936491
 20
-323.73911698671895
 11
878.6885300645239
 21
-363.96470625440486
  0
LINE
  8
ValleyLine
  6
CONTINUOUS
 62
5
 10
895.3505146936491
 20
276.6119077095975
 11
958.6133431396771
 21
250.4079982587047
  0
LINE
  8
MountainLine
  6
CONTINUOUS
 62
1
 10
895.3505146936491
 20
323.73911698671907
 11
958.6133431396771
 21
323.7393230294863
  0
LINE
  8
ValleyLine
  6
CONTINUOUS
 62
5
 10
895.3505146936491
 20
-276.61190770959746
 11
958.6133431396771
 21
-250.40799825870462
  0
LINE
  8
MountainLine
  6
CONTINUOUS
 62
1
 10
895.3505146936491
 20
-323.73911698671895
 11
958.6133431396771
 21
-323.73932302948623
  0
LINE
  8
ValleyLine
  6
CONTINUOUS
 62
5
 10
958.6133431396771
 20
250.4079982587047
 11
958.6133431396771
 21
-250.40799825870462
  0
LINE
  8
MountainLine
  6
CONTINUOUS
 62
1
 10
958.6133431396771
 20
250.4079982587047
 11
958.6133431396771
 21
323.7393230294863
  0
LINE
  8
ValleyLine
  6
CONTINUOUS
 62
5
 10
958.6133431396771
 20
323.7393230294863
 11
932.6868046302708
 21
386.33152392428343
  0
LINE
  8
MountainLine
  6
CONTINUOUS
 62
1
 10
958.6133431396771
 20
-250.40799825870462
 11
958.6133431396771
 21
-323.73932302948623
  0
LINE
  8
ValleyLine
  6
CONTINUOUS
 62
5
 10
958.6133431396771
 20
-323.73932302948623
 11
932.6868046302708
 21
-386.33152392428326
  0
LINE
  8
ValleyLine
  6
CONTINUOUS
 62
5
 10
958.6133431396771
 20
250.4079982587047
 11
1035.1044485567938
 21
218.9768840727892
  0
LINE
  8
MountainLine
  6
CONTINUOUS
 62
1
 10
958.6133431396771
 20
323.7393230294863
 11
1035.1044485567938
 21
323.8655925688684
  0
LINE
  8
ValleyLine
  6
CONTINUOUS
 62
5
 10
958.6133431396771
 20
-250.40799825870462
 11
1035.1044485567938
 21
-218.97688407278912
  0
LINE
  8
MountainLine
  6
CONTINUOUS
 62
1
 10
958.6133431396771
 20
-323.73932302948623
 11
1035.1044485567938
 21
-323.86559256886835
  0
LINE
  8
MountainLine
  6
CONTINUOUS
 62
1
 10
1035.1044485567938
 20
218.9768840727892
 11
1035.1044485567938
 21
-218.97688407278912
  0
LINE
  8
ValleyLine
  6
CONTINUOUS
 62
5
 10
1035.1044485567938
 20
218.9768840727892
 11
1035.1044485567938
 21
323.8655925688684
  0
LINE
  8
MountainLine
  6
CONTINUOUS
 62
1
 10
1035.1044485567938
 20
323.8655925688684
 11
998.0206900330554
 21
413.3937053406464
  0
LINE
  8
ValleyLine
  6
CONTINUOUS
 62
5
 10
1035.1044485567938
 20
-218.97688407278912
 11
1035.1044485567938
 21
-323.86559256886835
  0
LINE
  8
MountainLine
  6
CONTINUOUS
 62
1
 10
1035.1044485567938
 20
-323.86559256886835
 11
998.0206900330554
 21
-413.39370534064625
  0
LINE
  8
ValleyLine
  6
CONTINUOUS
 62
5
 10
1035.1044485567938
 20
218.9768840727892
 11
1144.9729059428612
 21
173.4707857085876
  0
LINE
  8
MountainLine
  6
CONTINUOUS
 62
1
 10
1035.1044485567938
 20
323.8655925688684
 11
1144.9729059428612
 21
323.8670459499275
  0
LINE
  8
ValleyLine
  6
CONTINUOUS
 62
5
 10
1035.1044485567938
 20
-218.97688407278912
 11
1144.9729059428612
 21
-173.4707857085875
  0
LINE
  8
MountainLine
  6
CONTINUOUS
 62
1
 10
1035.1044485567938
 20
-323.86559256886835
 11
1144.9729059428612
 21
-323.86704594992733
  0
LINE
  8
ValleyLine
  6
CONTINUOUS
 62
5
 10
1144.9729059428612
 20
173.4707857085876
 11
1144.9729059428612
 21
-173.4707857085875
  0
LINE
  8
MountainLine
  6
CONTINUOUS
 62
1
 10
1144.9729059428612
 20
173.4707857085876
 11
1144.9729059428612
 21
323.8670459499275
  0
LINE
  8
ValleyLine
  6
CONTINUOUS
 62
5
 10
1144.9729059428612
 20
323.8670459499275
 11
1091.799798201987
 21
452.2382838114715
  0
LINE
  8
MountainLine
  6
CONTINUOUS
 62
1
 10
1144.9729059428612
 20
-173.4707857085875
 11
1144.9729059428612
 21
-323.86704594992733
  0
LINE
  8
ValleyLine
  6
CONTINUOUS
 62
5
 10
1144.9729059428612
 20
-323.86704594992733
 11
1091.799798201987
 21
-452.2382838114713
  0
LINE
  8
ValleyLine
  6
CONTINUOUS
 62
5
 10
1144.9729059428612
 20
173.4707857085876
 11
1275.3474365789286
 21
119.58079403561592
  0
LINE
  8
MountainLine
  6
CONTINUOUS
 62
1
 10
1144.9729059428612
 20
323.8670459499275
 11
1275.3474365789286
 21
323.9234995021845
  0
LINE
  8
ValleyLine
  6
CONTINUOUS
 62
5
 10
1144.9729059428612
 20
-173.4707857085875
 11
1275.3474365789286
 21
-119.58079403561575
  0
LINE
  8
MountainLine
  6
CONTINUOUS
 62
1
 10
1144.9729059428612
 20
-323.86704594992733
 11
1275.3474365789286
 21
-323.9234995021843
  0
LINE
  8
ValleyLine
  6
CONTINUOUS
 62
5
 10
1275.3474365789286
 20
119.58079403561592
 11
1275.3474365789286
 21
-119.58079403561575
  0
LINE
  8
MountainLine
  6
CONTINUOUS
 62
1
 10
1275.3474365789286
 20
119.58079403561592
 11
1275.3474365789286
 21
323.9234995021845
  0
LINE
  8
ValleyLine
  6
CONTINUOUS
 62
5
 10
1275.3474365789286
 20
323.9234995021845
 11
1203.1013802182206
 21
498.34090859617675
  0
LINE
  8
MountainLine
  6
CONTINUOUS
 62
1
 10
1275.3474365789286
 20
-119.58079403561575
 11
1275.3474365789286
 21
-323.9234995021843
  0
LINE
  8
ValleyLine
  6
CONTINUOUS
 62
5
 10
1275.3474365789286
 20
-323.9234995021843
 11
1203.1013802182206
 21
-498.3409085961766
  0
LINE
  8
ValleyLine
  6
CONTINUOUS
 62
5
 10
1275.3474365789286
 20
119.58079403561592
 11
1415.4662917819185
 21
62.9979999233901
  0
LINE
  8
MountainLine
  6
CONTINUOUS
 62
1
 10
1275.3474365789286
 20
323.9234995021845
 11
1415.4662917819185
 21
324.6516675307067
  0
LINE
  8
ValleyLine
  6
CONTINUOUS
 62
5
 10
1275.3474365789286
 20
-119.58079403561575
 11
1415.4662917819185
 21
-62.997999923389926
  0
LINE
  8
MountainLine
  6
CONTINUOUS
 62
1
 10
1275.3474365789286
 20
-323.9234995021843
 11
1415.4662917819185
 21
-324.6516675307065
  0
LINE
  8
ValleyLine
  6
CONTINUOUS
 62
5
 10
1415.4662917819185
 20
62.9979999233901
 11
1415.4662917819185
 21
-62.997999923389926
  0
LINE
  8
MountainLine
  6
CONTINUOUS
 62
1
 10
1415.4662917819185
 20
62.9979999233901
 11
1415.4662917819185
 21
324.6516675307067
  0
LINE
  8
ValleyLine
  6
CONTINUOUS
 62
5
 10
1415.4662917819185
 20
324.6516675307067
 11
1322.9577504381862
 21
547.987042678097
  0
LINE
  8
MountainLine
  6
CONTINUOUS
 62
1
 10
1415.4662917819185
 20
-62.997999923389926
 11
1415.4662917819185
 21
-324.6516675307065
  0
LINE
  8
ValleyLine
  6
CONTINUOUS
 62
5
 10
1415.4662917819185
 20
-324.6516675307065
 11
1322.9577504381862
 21
-547.9870426780969
  0
LINE
  8
ValleyLine
  6
CONTINUOUS
 62
5
 10
1415.4662917819185
 20
62.9979999233901
 11
1580.2379542178667
 21
9.676166762620361E-14
  0
LINE
  8
MountainLine
  6
CONTINUOUS
 62
1
 10
1415.4662917819185
 20
324.6516675307067
 11
1580.2379542178667
 21
327.27799620687733
  0
LINE
  8
ValleyLine
  6
CONTINUOUS
 62
5
 10
1415.4662917819185
 20
-62.997999923389926
 11
1580.2379542178667
 21
9.676166762620361E-14
  0
LINE
  8
MountainLine
  6
CONTINUOUS
 62
1
 10
1415.4662917819185
 20
-324.6516675307065
 11
1580.2379542178667
 21
-327.27799620687716
  0
LINE
  8
ValleyLine
  6
CONTINUOUS
 62
5
 10
1580.2379542178667
 20
9.676166762620361E-14
 11
1580.2379542178667
 21
9.676166762620361E-14
  0
LINE
  8
MountainLine
  6
CONTINUOUS
 62
1
 10
1580.2379542178667
 20
9.676166762620361E-14
 11
1580.2379542178667
 21
327.27799620687733
  0
LINE
  8
ValleyLine
  6
CONTINUOUS
 62
5
 10
1580.2379542178667
 20
327.27799620687733
 11
1464.5277089923527
 21
606.62723953583
  0
LINE
  8
MountainLine
  6
CONTINUOUS
 62
1
 10
1580.2379542178667
 20
9.676166762620361E-14
 11
1580.2379542178667
 21
-327.27799620687716
  0
LINE
  8
ValleyLine
  6
CONTINUOUS
 62
5
 10
1580.2379542178667
 20
-327.27799620687716
 11
1464.5277089923527
 21
-606.6272395358297
  0
LINE
  8
ValleyLine
  6
CONTINUOUS
 62
5
 10
1580.2379542178667
 20
9.676166762620361E-14
 11
2301.167499202049
 21
1.4090587060998542E-13
  0
LINE
  8
MountainLine
  6
CONTINUOUS
 62
1
 10
1580.2379542178667
 20
327.27799620687733
 11
2301.167499202049
 21
476.5873937308337
  0
LINE
  8
ValleyLine
  6
CONTINUOUS
 62
5
 10
1580.2379542178667
 20
9.676166762620361E-14
 11
2301.167499202049
 21
1.4090587060998542E-13
  0
LINE
  8
MountainLine
  6
CONTINUOUS
 62
1
 10
1580.2379542178667
 20
-327.27799620687716
 11
2301.167499202049
 21
-476.58739373083336
  0
LINE
  8
CutLine
  6
CONTINUOUS
 62
250
 10
2301.167499202049
 20
1.4090587060998542E-13
 11
2301.167499202049
 21
1.4090587060998542E-13
  0
LINE
  8
CutLine
  6
CONTINUOUS
 62
250
 10
2301.167499202049
 20
1.4090587060998542E-13
 11
2301.167499202049
 21
476.5873937308337
  0
LINE
  8
CutLine
  6
CONTINUOUS
 62
250
 10
2301.167499202049
 20
476.5873937308337
 11
2132.668410234501
 21
883.3801795637983
  0
LINE
  8
CutLine
  6
CONTINUOUS
 62
250
 10
2301.167499202049
 20
1.4090587060998542E-13
 11
2301.167499202049
 21
-476.58739373083336
  0
LINE
  8
CutLine
  6
CONTINUOUS
 62
250
 10
2301.167499202049
 20
-476.58739373083336
 11
2132.668410234501
 21
-883.3801795637979
  0
LINE
  8
ValleyLine
  6
CONTINUOUS
 62
5
 10
0.0
 20
-0.0
 11
7.965264358129772
 21
-19.22984924128392
  0
LINE
  8
MountainLine
  6
CONTINUOUS
 62
1
 10
0.0
 20
-0.0
 11
13.597556799706846
 21
-13.597556799706846
  0
LINE
  8
ValleyLine
  6
CONTINUOUS
 62
5
 10
0.0
 20
0.0
 11
19.229849241283915
 21
-7.9652643581297715
  0
LINE
  8
MountainLine
  6
CONTINUOUS
 62
1
 10
0.0
 20
0.0
 11
13.597556799706846
 21
-13.597556799706846
  0
LINE
  8
ValleyLine
  6
CONTINUOUS
 62
5
 10
7.965264358129772
 20
-19.22984924128392
 11
19.229849241283915
 21
-7.9652643581297715
  0
LINE
  8
MountainLine
  6
CONTINUOUS
 62
1
 10
7.965264358129772
 20
-19.22984924128392
 11
13.597556799706846
 21
-13.597556799706846
  0
LINE
  8
ValleyLine
  6
CONTINUOUS
 62
5
 10
13.597556799706846
 20
-13.597556799706846
 11
16.413703020495383
 21
-6.798778399853421
  0
LINE
  8
MountainLine
  6
CONTINUOUS
 62
1
 10
19.229849241283915
 20
-7.9652643581297715
 11
13.597556799706846
 21
-13.597556799706846
  0
LINE
  8
ValleyLine
  6
CONTINUOUS
 62
5
 10
13.597556799706846
 20
-13.597556799706846
 11
6.798778399853423
 21
-16.413703020495383
  0
LINE
  8
ValleyLine
  6
CONTINUOUS
 62
5
 10
7.965264358129772
 20
-19.22984924128392
 11
7.965264358129772
 21
-19.22984924128392
  0
LINE
  8
MountainLine
  6
CONTINUOUS
 62
1
 10
13.597556799706846
 20
-13.597556799706846
 11
13.597556799706846
 21
-13.597556799706846
  0
LINE
  8
ValleyLine
  6
CONTINUOUS
 62
5
 10
19.229849241283915
 20
-7.9652643581297715
 11
19.229849241283915
 21
-7.9652643581297715
  0
LINE
  8
MountainLine
  6
CONTINUOUS
 62
1
 10
13.597556799706846
 20
-13.597556799706846
 11
13.597556799706846
 21
-13.597556799706846
  0
LINE
  8
ValleyLine
  6
CONTINUOUS
 62
5
 10
7.965264358129772
 20
-19.22984924128392
 11
19.229849241283915
 21
-7.9652643581297715
  0
LINE
  8
MountainLine
  6
CONTINUOUS
 62
1
 10
7.965264358129772
 20
-19.22984924128392
 11
13.597556799706846
 21
-13.597556799706846
  0
LINE
  8
ValleyLine
  6
CONTINUOUS
 62
5
 10
13.597556799706846
 20
-13.597556799706846
 11
16.413703020495383
 21
-6.798778399853421
  0
LINE
  8
MountainLine
  6
CONTINUOUS
 62
1
 10
19.229849241283915
 20
-7.9652643581297715
 11
13.597556799706846
 21
-13.597556799706846
  0
LINE
  8
ValleyLine
  6
CONTINUOUS
 62
5
 10
13.597556799706846
 20
-13.597556799706846
 11
6.798778399853423
 21
-16.413703020495383
  0
LINE
  8
ValleyLine
  6
CONTINUOUS
 62
5
 10
7.965264358129772
 20
-19.22984924128392
 11
51.89080256730405
 21
-37.426051524162915
  0
LINE
  8
MountainLine
  6
CONTINUOUS
 62
1
 10
13.597556799706846
 20
-13.597556799706846
 11
57.52367788481489
 21
-31.79317620665208
  0
LINE
  8
ValleyLine
  6
CONTINUOUS
 62
5
 10
19.229849241283915
 20
-7.9652643581297715
 11
37.42605152416292
 21
-51.890802567304036
  0
LINE
  8
MountainLine
  6
CONTINUOUS
 62
1
 10
13.597556799706846
 20
-13.597556799706846
 11
31.793176206652085
 21
-57.52367788481488
  0
LINE
  8
MountainLine
  6
CONTINUOUS
 62
1
 10
51.89080256730405
 20
-37.426051524162915
 11
37.42605152416292
 21
-51.890802567304036
  0
LINE
  8
ValleyLine
  6
CONTINUOUS
 62
5
 10
51.89080256730405
 20
-37.426051524162915
 11
57.52367788481489
 21
-31.79317620665208
  0
LINE
  8
MountainLine
  6
CONTINUOUS
 62
1
 10
57.52367788481489
 20
-31.79317620665208
 11
60.340115543570306
 21
-24.99369421330642
  0
LINE
  8
ValleyLine
  6
CONTINUOUS
 62
5
 10
37.42605152416292
 20
-51.890802567304036
 11
31.793176206652085
 21
-57.52367788481488
  0
LINE
  8
MountainLine
  6
CONTINUOUS
 62
1
 10
31.793176206652085
 20
-57.52367788481488
 11
24.99369421330643
 21
-60.340115543570306
  0
LINE
  8
ValleyLine
  6
CONTINUOUS
 62
5
 10
51.89080256730405
 20
-37.426051524162915
 11
183.66741719482687
 21
-92.01465837279993
  0
LINE
  8
MountainLine
  6
CONTINUOUS
 62
1
 10
57.52367788481489
 20
-31.79317620665208
 11
189.302041140139
 21
-86.38003442748779
  0
LINE
  8
ValleyLine
  6
CONTINUOUS
 62
5
 10
37.42605152416292
 20
-51.890802567304036
 11
92.01465837279994
 21
-183.66741719482684
  0
LINE
  8
MountainLine
  6
CONTINUOUS
 62
1
 10
31.793176206652085
 20
-57.52367788481488
 11
86.3800344274878
 21
-189.30204114013898
  0
LINE
  8
MountainLine
  6
CONTINUOUS
 62
1
 10
183.66741719482687
 20
-92.01465837279993
 11
92.01465837279994
 21
-183.66741719482684
  0
LINE
  8
ValleyLine
  6
CONTINUOUS
 62
5
 10
183.66741719482687
 20
-92.01465837279993
 11
189.302041140139
 21
-86.38003442748779
  0
LINE
  8
MountainLine
  6
CONTINUOUS
 62
1
 10
189.302041140139
 20
-86.38003442748779
 11
192.1193531127951
 21
-79.57844165366542
  0
LINE
  8
ValleyLine
  6
CONTINUOUS
 62
5
 10
92.01465837279994
 20
-183.66741719482684
 11
86.3800344274878
 21
-189.30204114013898
  0
LINE
  8
MountainLine
  6
CONTINUOUS
 62
1
 10
86.3800344274878
 20
-189.30204114013898
 11
79.57844165366545
 21
-192.1193531127951
  0
LINE
  8
ValleyLine
  6
CONTINUOUS
 62
5
 10
183.66741719482687
 20
-92.01465837279993
 11
348.8424097194187
 21
-160.43262705018563
  0
LINE
  8
MountainLine
  6
CONTINUOUS
 62
1
 10
189.302041140139
 20
-86.38003442748779
 11
354.4771208541172
 21
-154.7979159154872
  0
LINE
  8
ValleyLine
  6
CONTINUOUS
 62
5
 10
92.01465837279994
 20
-183.66741719482684
 11
160.4326270501857
 21
-348.8424097194187
  0
LINE
  8
MountainLine
  6
CONTINUOUS
 62
1
 10
86.3800344274878
 20
-189.30204114013898
 11
154.79791591548727
 21
-354.4771208541172
  0
LINE
  8
MountainLine
  6
CONTINUOUS
 62
1
 10
348.8424097194187
 20
-160.43262705018563
 11
160.4326270501857
 21
-348.8424097194187
  0
LINE
  8
ValleyLine
  6
CONTINUOUS
 62
5
 10
348.8424097194187
 20
-160.43262705018563
 11
354.4771208541172
 21
-154.7979159154872
  0
LINE
  8
MountainLine
  6
CONTINUOUS
 62
1
 10
354.4771208541172
 20
-154.7979159154872
 11
357.29447642146636
 21
-147.99621789476538
  0
LINE
  8
ValleyLine
  6
CONTINUOUS
 62
5
 10
160.4326270501857
 20
-348.8424097194187
 11
154.79791591548727
 21
-354.4771208541172
  0
LINE
  8
MountainLine
  6
CONTINUOUS
 62
1
 10
154.79791591548727
 20
-354.4771208541172
 11
147.99621789476544
 21
-357.29447642146636
  0
LINE
  8
ValleyLine
  6
CONTINUOUS
 62
5
 10
348.8424097194187
 20
-160.43262705018563
 11
493.01268512800357
 21
-220.16651832751413
  0
LINE
  8
MountainLine
  6
CONTINUOUS
 62
1
 10
354.4771208541172
 20
-154.7979159154872
 11
498.6532680463103
 21
-214.5259354092073
  0
LINE
  8
ValleyLine
  6
CONTINUOUS
 62
5
 10
160.4326270501857
 20
-348.8424097194187
 11
220.16651832751415
 21
-493.0126851280035
  0
LINE
  8
MountainLine
  6
CONTINUOUS
 62
1
 10
154.79791591548727
 20
-354.4771208541172
 11
214.5259354092074
 21
-498.6532680463103
  0
LINE
  8
MountainLine
  6
CONTINUOUS
 62
1
 10
493.01268512800357
 20
-220.16651832751413
 11
220.16651832751415
 21
-493.0126851280035
  0
LINE
  8
ValleyLine
  6
CONTINUOUS
 62
5
 10
493.01268512800357
 20
-220.16651832751413
 11
498.6532680463103
 21
-214.5259354092073
  0
LINE
  8
MountainLine
  6
CONTINUOUS
 62
1
 10
498.6532680463103
 20
-214.5259354092073
 11
501.47355950546364
 21
-207.71714951867432
  0
LINE
  8
ValleyLine
  6
CONTINUOUS
 62
5
 10
220.16651832751415
 20
-493.0126851280035
 11
214.5259354092074
 21
-498.6532680463103
  0
LINE
  8
MountainLine
  6
CONTINUOUS
 62
1
 10
214.5259354092074
 20
-498.6532680463103
 11
207.71714951867435
 21
-501.47355950546364
  0
LINE
  8
ValleyLine
  6
CONTINUOUS
 62
5
 10
493.01268512800357
 20
-220.16651832751413
 11
605.8689827602652
 21
-267.06739140244423
  0
LINE
  8
MountainLine
  6
CONTINUOUS
 62
1
 10
498.6532680463103
 20
-214.5259354092073
 11
611.5641062375572
 21
-261.3722679251522
  0
LINE
  8
ValleyLine
  6
CONTINUOUS
 62
5
 10
220.16651832751415
 20
-493.0126851280035
 11
267.06739140244434
 21
-605.8689827602652
  0
LINE
  8
MountainLine
  6
CONTINUOUS
 62
1
 10
214.5259354092074
 20
-498.6532680463103
 11
261.37226792515236
 21
-611.5641062375571
  0
LINE
  8
MountainLine
  6
CONTINUOUS
 62
1
 10
605.8689827602652
 20
-267.06739140244423
 11
267.06739140244434
 21
-605.8689827602652
  0
LINE
  8
ValleyLine
  6
CONTINUOUS
 62
5
 10
605.8689827602652
 20
-267.06739140244423
 11
611.5641062375572
 21
-261.3722679251522
  0
LINE
  8
MountainLine
  6
CONTINUOUS
 62
1
 10
611.5641062375572
 20
-261.3722679251522
 11
614.4116679762033
 21
-254.49764575601836
  0
LINE
  8
ValleyLine
  6
CONTINUOUS
 62
5
 10
267.06739140244434
 20
-605.8689827602652
 11
261.37226792515236
 21
-611.5641062375571
  0
LINE
  8
MountainLine
  6
CONTINUOUS
 62
1
 10
261.37226792515236
 20
-611.5641062375571
 11
254.4976457560185
 21
-614.4116679762033
  0
LINE
  8
ValleyLine
  6
CONTINUOUS
 62
5
 10
605.8689827602652
 20
-267.06739140244423
 11
677.8005865285043
 21
-297.68485004525144
  0
LINE
  8
MountainLine
  6
CONTINUOUS
 62
1
 10
611.5641062375572
 20
-261.3722679251522
 11
683.7864768392633
 21
-291.6989597344923
  0
LINE
  8
ValleyLine
  6
CONTINUOUS
 62
5
 10
267.06739140244434
 20
-605.8689827602652
 11
297.6848500452515
 21
-677.8005865285041
  0
LINE
  8
MountainLine
  6
CONTINUOUS
 62
1
 10
261.37226792515236
 20
-611.5641062375571
 11
291.69895973449235
 21
-683.7864768392633
  0
LINE
  8
MountainLine
  6
CONTINUOUS
 62
1
 10
677.8005865285043
 20
-297.68485004525144
 11
297.6848500452515
 21
-677.8005865285041
  0
LINE
  8
ValleyLine
  6
CONTINUOUS
 62
5
 10
677.8005865285043
 20
-297.68485004525144
 11
683.7864768392633
 21
-291.6989597344923
  0
LINE
  8
MountainLine
  6
CONTINUOUS
 62
1
 10
683.7864768392633
 20
-291.6989597344923
 11
686.7794219946428
 21
-284.4733509489361
  0
LINE
  8
ValleyLine
  6
CONTINUOUS
 62
5
 10
297.6848500452515
 20
-677.8005865285041
 11
291.69895973449235
 21
-683.7864768392633
  0
LINE
  8
MountainLine
  6
CONTINUOUS
 62
1
 10
291.69895973449235
 20
-683.7864768392633
 11
284.4733509489362
 21
-686.7794219946429
  0
LINE
  8
ValleyLine
  6
CONTINUOUS
 62
5
 10
677.8005865285043
 20
-297.68485004525144
 11
719.1224487407768
 21
-317.35758818521214
  0
LINE
  8
MountainLine
  6
CONTINUOUS
 62
1
 10
683.7864768392633
 20
-291.6989597344923
 11
726.0122557078133
 21
-310.4677812181755
  0
LINE
  8
ValleyLine
  6
CONTINUOUS
 62
5
 10
297.6848500452515
 20
-677.8005865285041
 11
317.3575881852122
 21
-719.1224487407768
  0
LINE
  8
MountainLine
  6
CONTINUOUS
 62
1
 10
291.69895973449235
 20
-683.7864768392633
 11
310.4677812181756
 21
-726.0122557078133
  0
LINE
  8
MountainLine
  6
CONTINUOUS
 62
1
 10
719.1224487407768
 20
-317.35758818521214
 11
317.3575881852122
 21
-719.1224487407768
  0
LINE
  8
ValleyLine
  6
CONTINUOUS
 62
5
 10
719.1224487407768
 20
-317.35758818521214
 11
726.0122557078133
 21
-310.4677812181755
  0
LINE
  8
MountainLine
  6
CONTINUOUS
 62
1
 10
726.0122557078133
 20
-310.4677812181755
 11
729.4571591913317
 21
-302.1510485071993
  0
LINE
  8
ValleyLine
  6
CONTINUOUS
 62
5
 10
317.3575881852122
 20
-719.1224487407768
 11
310.4677812181756
 21
-726.0122557078133
  0
LINE
  8
MountainLine
  6
CONTINUOUS
 62
1
 10
310.4677812181756
 20
-726.0122557078133
 11
302.1510485071994
 21
-729.4571591913316
  0
LINE
  8
ValleyLine
  6
CONTINUOUS
 62
5
 10
719.1224487407768
 20
-317.35758818521214
 11
768.73793838073
 21
-343.7558723344598
  0
LINE
  8
MountainLine
  6
CONTINUOUS
 62
1
 10
726.0122557078133
 20
-310.4677812181755
 11
777.694927982752
 21
-334.7988827324377
  0
LINE
  8
ValleyLine
  6
CONTINUOUS
 62
5
 10
317.3575881852122
 20
-719.1224487407768
 11
343.7558723344599
 21
-768.7379383807298
  0
LINE
  8
MountainLine
  6
CONTINUOUS
 62
1
 10
310.4677812181756
 20
-726.0122557078133
 11
334.7988827324378
 21
-777.694927982752
  0
LINE
  8
MountainLine
  6
CONTINUOUS
 62
1
 10
768.73793838073
 20
-343.7558723344598
 11
343.7558723344599
 21
-768.7379383807298
  0
LINE
  8
ValleyLine
  6
CONTINUOUS
 62
5
 10
768.73793838073
 20
-343.7558723344598
 11
777.694927982752
 21
-334.7988827324377
  0
LINE
  8
MountainLine
  6
CONTINUOUS
 62
1
 10
777.694927982752
 20
-334.7988827324377
 11
782.1734227837632
 21
-323.9868398448195
  0
LINE
  8
ValleyLine
  6
CONTINUOUS
 62
5
 10
343.7558723344599
 20
-768.7379383807298
 11
334.7988827324378
 21
-777.694927982752
  0
LINE
  8
MountainLine
  6
CONTINUOUS
 62
1
 10
334.7988827324378
 20
-777.694927982752
 11
323.9868398448196
 21
-782.1734227837632
  0
LINE
  8
ValleyLine
  6
CONTINUOUS
 62
5
 10
768.73793838073
 20
-343.7558723344598
 11
792.8927283228206
 21
-370.9828217901379
  0
LINE
  8
MountainLine
  6
CONTINUOUS
 62
1
 10
777.694927982752
 20
-334.7988827324377
 11
807.9385111324585
 21
-355.9370389805
  0
LINE
  8
ValleyLine
  6
CONTINUOUS
 62
5
 10
343.7558723344599
 20
-768.7379383807298
 11
370.982821790138
 21
-792.8927283228206
  0
LINE
  8
MountainLine
  6
CONTINUOUS
 62
1
 10
334.7988827324378
 20
-777.694927982752
 11
355.9370389805001
 21
-807.9385111324584
  0
LINE
  8
MountainLine
  6
CONTINUOUS
 62
1
 10
792.8927283228206
 20
-370.9828217901379
 11
370.982821790138
 21
-792.8927283228206
  0
LINE
  8
ValleyLine
  6
CONTINUOUS
 62
5
 10
792.8927283228206
 20
-370.9828217901379
 11
807.9385111324585
 21
-355.9370389805
  0
LINE
  8
MountainLine
  6
CONTINUOUS
 62
1
 10
807.9385111324585
 20
-355.9370389805
 11
815.4614025372775
 21
-337.7751725227261
  0
LINE
  8
ValleyLine
  6
CONTINUOUS
 62
5
 10
370.982821790138
 20
-792.8927283228206
 11
355.9370389805001
 21
-807.9385111324584
  0
LINE
  8
MountainLine
  6
CONTINUOUS
 62
1
 10
355.9370389805001
 20
-807.9385111324584
 11
337.7751725227262
 21
-815.4614025372775
  0
LINE
  8
ValleyLine
  6
CONTINUOUS
 62
5
 10
792.8927283228206
 20
-370.9828217901379
 11
815.0338993280145
 21
-405.4126308496817
  0
LINE
  8
MountainLine
  6
CONTINUOUS
 62
1
 10
807.9385111324585
 20
-355.9370389805
 11
839.009958446128
 21
-381.4365717315683
  0
LINE
  8
ValleyLine
  6
CONTINUOUS
 62
5
 10
370.982821790138
 20
-792.8927283228206
 11
405.4126308496819
 21
-815.0338993280145
  0
LINE
  8
MountainLine
  6
CONTINUOUS
 62
1
 10
355.9370389805001
 20
-807.9385111324584
 11
381.43657173156845
 21
-839.0099584461279
  0
LINE
  8
MountainLine
  6
CONTINUOUS
 62
1
 10
815.0338993280145
 20
-405.4126308496817
 11
405.4126308496819
 21
-815.0338993280145
  0
LINE
  8
ValleyLine
  6
CONTINUOUS
 62
5
 10
815.0338993280145
 20
-405.4126308496817
 11
839.009958446128
 21
-381.4365717315683
  0
LINE
  8
MountainLine
  6
CONTINUOUS
 62
1
 10
839.009958446128
 20
-381.4365717315683
 11
850.9979880051848
 21
-352.4949081839639
  0
LINE
  8
ValleyLine
  6
CONTINUOUS
 62
5
 10
405.4126308496819
 20
-815.0338993280145
 11
381.43657173156845
 21
-839.0099584461279
  0
LINE
  8
MountainLine
  6
CONTINUOUS
 62
1
 10
381.43657173156845
 20
-839.0099584461279
 11
352.49490818396407
 21
-850.9979880051848
  0
LINE
  8
ValleyLine
  6
CONTINUOUS
 62
5
 10
815.0338993280145
 20
-405.4126308496817
 11
828.7025761771486
 21
-437.51426478034085
  0
LINE
  8
MountainLine
  6
CONTINUOUS
 62
1
 10
839.009958446128
 20
-381.4365717315683
 11
862.0265454353988
 21
-404.1902955220906
  0
LINE
  8
ValleyLine
  6
CONTINUOUS
 62
5
 10
405.4126308496819
 20
-815.0338993280145
 11
437.514264780341
 21
-828.7025761771486
  0
LINE
  8
MountainLine
  6
CONTINUOUS
 62
1
 10
381.43657173156845
 20
-839.0099584461279
 11
404.19029552209076
 21
-862.0265454353988
  0
LINE
  8
MountainLine
  6
CONTINUOUS
 62
1
 10
828.7025761771486
 20
-437.51426478034085
 11
437.514264780341
 21
-828.7025761771486
  0
LINE
  8
ValleyLine
  6
CONTINUOUS
 62
5
 10
828.7025761771486
 20
-437.51426478034085
 11
862.0265454353988
 21
-404.1902955220906
  0
LINE
  8
MountainLine
  6
CONTINUOUS
 62
1
 10
862.0265454353988
 20
-404.1902955220906
 11
878.6885300645239
 21
-363.96470625440486
  0
LINE
  8
ValleyLine
  6
CONTINUOUS
 62
5
 10
437.514264780341
 20
-828.7025761771486
 11
404.19029552209076
 21
-862.0265454353988
  0
LINE
  8
MountainLine
  6
CONTINUOUS
 62
1
 10
404.19029552209076
 20
-862.0265454353988
 11
363.964706254405
 21
-878.6885300645239
  0
LINE
  8
ValleyLine
  6
CONTINUOUS
 62
5
 10
828.7025761771486
 20
-437.51426478034085
 11
854.9071891020517
 21
-500.7768018378931
  0
LINE
  8
MountainLine
  6
CONTINUOUS
 62
1
 10
862.0265454353988
 20
-404.1902955220906
 11
906.7602661208645
 21
-448.9237248190805
  0
LINE
  8
ValleyLine
  6
CONTINUOUS
 62
5
 10
437.514264780341
 20
-828.7025761771486
 11
500.7768018378933
 21
-854.9071891020517
  0
LINE
  8
MountainLine
  6
CONTINUOUS
 62
1
 10
404.19029552209076
 20
-862.0265454353988
 11
448.9237248190805
 21
-906.7602661208643
  0
LINE
  8
ValleyLine
  6
CONTINUOUS
 62
5
 10
854.9071891020517
 20
-500.7768018378931
 11
500.7768018378933
 21
-854.9071891020517
  0
LINE
  8
MountainLine
  6
CONTINUOUS
 62
1
 10
854.9071891020517
 20
-500.7768018378931
 11
906.7602661208645
 21
-448.9237248190805
  0
LINE
  8
ValleyLine
  6
CONTINUOUS
 62
5
 10
906.7602661208645
 20
-448.9237248190805
 11
932.6868046302708
 21
-386.3315239242833
  0
LINE
  8
MountainLine
  6
CONTINUOUS
 62
1
 10
500.7768018378933
 20
-854.9071891020517
 11
448.9237248190805
 21
-906.7602661208643
  0
LINE
  8
ValleyLine
  6
CONTINUOUS
 62
5
 10
448.9237248190805
 20
-906.7602661208643
 11
386.3315239242835
 21
-932.6868046302708
  0
LINE
  8
ValleyLine
  6
CONTINUOUS
 62
5
 10
854.9071891020517
 20
-500.7768018378931
 11
886.7694144618405
 21
-577.089335159901
  0
LINE
  8
MountainLine
  6
CONTINUOUS
 62
1
 10
906.7602661208645
 20
-448.9237248190805
 11
960.9369315093172
 21
-502.9218181124243
  0
LINE
  8
ValleyLine
  6
CONTINUOUS
 62
5
 10
500.7768018378933
 20
-854.9071891020517
 11
577.089335159901
 21
-886.7694144618405
  0
LINE
  8
MountainLine
  6
CONTINUOUS
 62
1
 10
448.9237248190805
 20
-906.7602661208643
 11
502.9218181124244
 21
-960.936931509317
  0
LINE
  8
MountainLine
  6
CONTINUOUS
 62
1
 10
886.7694144618405
 20
-577.089335159901
 11
577.089335159901
 21
-886.7694144618405
  0
LINE
  8
ValleyLine
  6
CONTINUOUS
 62
5
 10
886.7694144618405
 20
-577.089335159901
 11
960.9369315093172
 21
-502.9218181124243
  0
LINE
  8
MountainLine
  6
CONTINUOUS
 62
1
 10
960.9369315093172
 20
-502.9218181124243
 11
998.0206900330554
 21
-413.39370534064625
  0
LINE
  8
ValleyLine
  6
CONTINUOUS
 62
5
 10
577.089335159901
 20
-886.7694144618405
 11
502.9218181124244
 21
-960.936931509317
  0
LINE
  8
MountainLine
  6
CONTINUOUS
 62
1
 10
502.9218181124244
 20
-960.936931509317
 11
413.39370534064653
 21
-998.0206900330554
  0
LINE
  8
ValleyLine
  6
CONTINUOUS
 62
5
 10
886.7694144618405
 20
-577.089335159901
 11
932.2804749793651
 21
-686.9557371547634
  0
LINE
  8
MountainLine
  6
CONTINUOUS
 62
1
 10
960.9369315093172
 20
-502.9218181124243
 11
1038.626690461113
 21
-580.6095216730153
  0
LINE
  8
ValleyLine
  6
CONTINUOUS
 62
5
 10
577.089335159901
 20
-886.7694144618405
 11
686.9557371547636
 21
-932.2804749793648
  0
LINE
  8
MountainLine
  6
CONTINUOUS
 62
1
 10
502.9218181124244
 20
-960.936931509317
 11
580.6095216730155
 21
-1038.626690461113
  0
LINE
  8
ValleyLine
  6
CONTINUOUS
 62
5
 10
932.2804749793651
 20
-686.9557371547634
 11
686.9557371547636
 21
-932.2804749793648
  0
LINE
  8
MountainLine
  6
CONTINUOUS
 62
1
 10
932.2804749793651
 20
-686.9557371547634
 11
1038.626690461113
 21
-580.6095216730153
  0
LINE
  8
ValleyLine
  6
CONTINUOUS
 62
5
 10
1038.626690461113
 20
-580.6095216730153
 11
1091.799798201987
 21
-452.23828381147126
  0
LINE
  8
MountainLine
  6
CONTINUOUS
 62
1
 10
686.9557371547636
 20
-932.2804749793648
 11
580.6095216730155
 21
-1038.626690461113
  0
LINE
  8
ValleyLine
  6
CONTINUOUS
 62
5
 10
580.6095216730155
 20
-1038.626690461113
 11
452.2382838114713
 21
-1091.7997982019872
  0
LINE
  8
ValleyLine
  6
CONTINUOUS
 62
5
 10
932.2804749793651
 20
-686.9557371547634
 11
986.3632111360968
 21
-817.250430411585
  0
LINE
  8
MountainLine
  6
CONTINUOUS
 62
1
 10
1038.626690461113
 20
-580.6095216730153
 11
1130.8553238575128
 21
-672.758317690169
  0
LINE
  8
ValleyLine
  6
CONTINUOUS
 62
5
 10
686.9557371547636
 20
-932.2804749793648
 11
817.2504304115852
 21
-986.3632111360965
  0
LINE
  8
MountainLine
  6
CONTINUOUS
 62
1
 10
580.6095216730155
 20
-1038.626690461113
 11
672.7583176901691
 21
-1130.8553238575125
  0
LINE
  8
ValleyLine
  6
CONTINUOUS
 62
5
 10
986.3632111360968
 20
-817.250430411585
 11
817.2504304115852
 21
-986.3632111360965
  0
LINE
  8
MountainLine
  6
CONTINUOUS
 62
1
 10
986.3632111360968
 20
-817.250430411585
 11
1130.8553238575128
 21
-672.758317690169
  0
LINE
  8
ValleyLine
  6
CONTINUOUS
 62
5
 10
1130.8553238575128
 20
-672.758317690169
 11
1203.1013802182206
 21
-498.3409085961765
  0
LINE
  8
MountainLine
  6
CONTINUOUS
 62
1
 10
817.2504304115852
 20
-986.3632111360965
 11
672.7583176901691
 21
-1130.8553238575125
  0
LINE
  8
ValleyLine
  6
CONTINUOUS
 62
5
 10
672.7583176901691
 20
-1130.8553238575125
 11
498.34090859617675
 21
-1203.1013802182206
  0
LINE
  8
ValleyLine
  6
CONTINUOUS
 62
5
 10
986.3632111360968
 20
-817.250430411585
 11
1045.4321264069895
 21
-956.339500512952
  0
LINE
  8
MountainLine
  6
CONTINUOUS
 62
1
 10
1130.8553238575128
 20
-672.758317690169
 11
1230.449209094454
 21
-771.3224178254876
  0
LINE
  8
ValleyLine
  6
CONTINUOUS
 62
5
 10
817.2504304115852
 20
-986.3632111360965
 11
956.3395005129522
 21
-1045.4321264069895
  0
LINE
  8
MountainLine
  6
CONTINUOUS
 62
1
 10
672.7583176901691
 20
-1130.8553238575125
 11
771.3224178254877
 21
-1230.4492090944539
  0
LINE
  8
ValleyLine
  6
CONTINUOUS
 62
5
 10
1045.4321264069895
 20
-956.339500512952
 11
956.3395005129522
 21
-1045.4321264069895
  0
LINE
  8
MountainLine
  6
CONTINUOUS
 62
1
 10
1045.4321264069895
 20
-956.339500512952
 11
1230.449209094454
 21
-771.3224178254876
  0
LINE
  8
ValleyLine
  6
CONTINUOUS
 62
5
 10
1230.449209094454
 20
-771.3224178254876
 11
1322.9577504381862
 21
-547.9870426780972
  0
LINE
  8
MountainLine
  6
CONTINUOUS
 62
1
 10
956.3395005129522
 20
-1045.4321264069895
 11
771.3224178254877
 21
-1230.4492090944539
  0
LINE
  8
ValleyLine
  6
CONTINUOUS
 62
5
 10
771.3224178254877
 20
-1230.4492090944539
 11
547.9870426780974
 21
-1322.957750438186
  0
LINE
  8
ValleyLine
  6
CONTINUOUS
 62
5
 10
1045.4321264069895
 20
-956.339500512952
 11
1117.3969733158106
 21
-1117.3969733158106
  0
LINE
  8
MountainLine
  6
CONTINUOUS
 62
1
 10
1230.449209094454
 20
-771.3224178254876
 11
1348.8174637668387
 21
-885.9764828647825
  0
LINE
  8
ValleyLine
  6
CONTINUOUS
 62
5
 10
956.3395005129522
 20
-1045.4321264069895
 11
1117.3969733158106
 21
-1117.3969733158106
  0
LINE
  8
MountainLine
  6
CONTINUOUS
 62
1
 10
771.3224178254877
 20
-1230.4492090944539
 11
885.9764828647825
 21
-1348.8174637668385
  0
LINE
  8
ValleyLine
  6
CONTINUOUS
 62
5
 10
1117.3969733158106
 20
-1117.3969733158106
 11
1117.3969733158106
 21
-1117.3969733158106
  0
LINE
  8
MountainLine
  6
CONTINUOUS
 62
1
 10
1117.3969733158106
 20
-1117.3969733158106
 11
1348.8174637668387
 21
-885.9764828647825
  0
LINE
  8
ValleyLine
  6
CONTINUOUS
 62
5
 10
1348.8174637668387
 20
-885.9764828647825
 11
1464.5277089923527
 21
-606.62723953583
  0
LINE
  8
MountainLine
  6
CONTINUOUS
 62
1
 10
1117.3969733158106
 20
-1117.3969733158106
 11
885.9764828647825
 21
-1348.8174637668385
  0
LINE
  8
ValleyLine
  6
CONTINUOUS
 62
5
 10
885.9764828647825
 20
-1348.8174637668385
 11
606.6272395358301
 21
-1464.5277089923527
  0
LINE
  8
ValleyLine
  6
CONTINUOUS
 62
5
 10
1117.3969733158106
 20
-1117.3969733158106
 11
1627.171143331858
 21
-1627.171143331858
  0
LINE
  8
MountainLine
  6
CONTINUOUS
 62
1
 10
1348.8174637668387
 20
-885.9764828647825
 11
1964.1693212669534
 21
-1290.1729653967625
  0
LINE
  8
ValleyLine
  6
CONTINUOUS
 62
5
 10
1117.3969733158106
 20
-1117.3969733158106
 11
1627.171143331858
 21
-1627.171143331858
  0
LINE
  8
MountainLine
  6
CONTINUOUS
 62
1
 10
885.9764828647825
 20
-1348.8174637668385
 11
1290.1729653967625
 21
-1964.1693212669536
  0
LINE
  8
CutLine
  6
CONTINUOUS
 62
250
 10
1627.171143331858
 20
-1627.171143331858
 11
1627.171143331858
 21
-1627.171143331858
  0
LINE
  8
CutLine
  6
CONTINUOUS
 62
250
 10
1627.171143331858
 20
-1627.171143331858
 11
1964.1693212669534
 21
-1290.1729653967625
  0
LINE
  8
CutLine
  6
CONTINUOUS
 62
250
 10
1964.1693212669534
 20
-1290.1729653967625
 11
2132.668410234501
 21
-883.3801795637978
  0
LINE
  8
CutLine
  6
CONTINUOUS
 62
250
 10
1627.171143331858
 20
-1627.171143331858
 11
1290.1729653967625
 21
-1964.1693212669536
  0
LINE
  8
CutLine
  6
CONTINUOUS
 62
250
 10
1290.1729653967625
 20
-1964.1693212669536
 11
883.3801795637982
 21
-2132.668410234501
  0
LINE
  8
ValleyLine
  6
CONTINUOUS
 62
5
 10
0.0
 20
-0.0
 11
-7.965264358129767
 21
-19.22984924128392
  0
LINE
  8
MountainLine
  6
CONTINUOUS
 62
1
 10
0.0
 20
-0.0
 11
3.678461125800208E-15
 21
-19.22984924128392
  0
LINE
  8
ValleyLine
  6
CONTINUOUS
 62
5
 10
0.0
 20
0.0
 11
7.965264358129772
 21
-19.22984924128392
  0
LINE
  8
MountainLine
  6
CONTINUOUS
 62
1
 10
0.0
 20
0.0
 11
1.031493538484694E-15
 21
-19.22984924128392
  0
LINE
  8
ValleyLine
  6
CONTINUOUS
 62
5
 10
-7.965264358129767
 20
-19.22984924128392
 11
7.965264358129772
 21
-19.22984924128392
  0
LINE
  8
MountainLine
  6
CONTINUOUS
 62
1
 10
-7.965264358129767
 20
-19.22984924128392
 11
3.678461125800208E-15
 21
-19.22984924128392
  0
LINE
  8
ValleyLine
  6
CONTINUOUS
 62
5
 10
3.678461125800208E-15
 20
-19.22984924128392
 11
6.798778399853426
 21
-16.413703020495383
  0
LINE
  8
MountainLine
  6
CONTINUOUS
 62
1
 10
7.965264358129772
 20
-19.22984924128392
 11
1.031493538484694E-15
 21
-19.22984924128392
  0
LINE
  8
ValleyLine
  6
CONTINUOUS
 62
5
 10
1.031493538484694E-15
 20
-19.22984924128392
 11
-6.798778399853421
 21
-16.413703020495383
  0
LINE
  8
ValleyLine
  6
CONTINUOUS
 62
5
 10
-7.965264358129767
 20
-19.22984924128392
 11
-7.965264358129767
 21
-19.22984924128392
  0
LINE
  8
MountainLine
  6
CONTINUOUS
 62
1
 10
3.678461125800208E-15
 20
-19.22984924128392
 11
3.678461125800208E-15
 21
-19.22984924128392
  0
LINE
  8
ValleyLine
  6
CONTINUOUS
 62
5
 10
7.965264358129772
 20
-19.22984924128392
 11
7.965264358129772
 21
-19.22984924128392
  0
LINE
  8
MountainLine
  6
CONTINUOUS
 62
1
 10
1.031493538484694E-15
 20
-19.22984924128392
 11
1.031493538484694E-15
 21
-19.22984924128392
  0
LINE
  8
ValleyLine
  6
CONTINUOUS
 62
5
 10
-7.965264358129767
 20
-19.22984924128392
 11
7.965264358129772
 21
-19.22984924128392
  0
LINE
  8
MountainLine
  6
CONTINUOUS
 62
1
 10
-7.965264358129767
 20
-19.22984924128392
 11
3.678461125800208E-15
 21
-19.22984924128392
  0
LINE
  8
ValleyLine
  6
CONTINUOUS
 62
5
 10
3.678461125800208E-15
 20
-19.22984924128392
 11
6.798778399853426
 21
-16.413703020495383
  0
LINE
  8
MountainLine
  6
CONTINUOUS
 62
1
 10
7.965264358129772
 20
-19.22984924128392
 11
1.031493538484694E-15
 21
-19.22984924128392
  0
LINE
  8
ValleyLine
  6
CONTINUOUS
 62
5
 10
1.031493538484694E-15
 20
-19.22984924128392
 11
-6.798778399853421
 21
-16.413703020495383
  0
LINE
  8
ValleyLine
  6
CONTINUOUS
 62
5
 10
-7.965264358129767
 20
-19.22984924128392
 11
10.22812355078028
 21
-63.156553202325725
  0
LINE
  8
MountainLine
  6
CONTINUOUS
 62
1
 10
3.678461125800208E-15
 20
-19.22984924128392
 11
18.194212219960765
 21
-63.156553202325725
  0
LINE
  8
ValleyLine
  6
CONTINUOUS
 62
5
 10
7.965264358129772
 20
-19.22984924128392
 11
-10.228123550780264
 21
-63.156553202325725
  0
LINE
  8
MountainLine
  6
CONTINUOUS
 62
1
 10
1.031493538484694E-15
 20
-19.22984924128392
 11
-18.19421221996075
 21
-63.156553202325725
  0
LINE
  8
MountainLine
  6
CONTINUOUS
 62
1
 10
10.22812355078028
 20
-63.156553202325725
 11
-10.228123550780264
 21
-63.156553202325725
  0
LINE
  8
ValleyLine
  6
CONTINUOUS
 62
5
 10
10.22812355078028
 20
-63.156553202325725
 11
18.194212219960765
 21
-63.156553202325725
  0
LINE
  8
MountainLine
  6
CONTINUOUS
 62
1
 10
18.194212219960765
 20
-63.156553202325725
 11
24.993694213306423
 21
-60.340115543570306
  0
LINE
  8
ValleyLine
  6
CONTINUOUS
 62
5
 10
-10.228123550780264
 20
-63.156553202325725
 11
-18.19421221996075
 21
-63.156553202325725
  0
LINE
  8
MountainLine
  6
CONTINUOUS
 62
1
 10
-18.19421221996075
 20
-63.156553202325725
 11
-24.993694213306412
 21
-60.340115543570306
  0
LINE
  8
ValleyLine
  6
CONTINUOUS
 62
5
 10
10.22812355078028
 20
-63.156553202325725
 11
64.80828727751042
 21
-194.93666508545115
  0
LINE
  8
MountainLine
  6
CONTINUOUS
 62
1
 10
18.194212219960765
 20
-63.156553202325725
 11
72.77684887984304
 21
-194.93666508545115
  0
LINE
  8
ValleyLine
  6
CONTINUOUS
 62
5
 10
-10.228123550780264
 20
-63.156553202325725
 11
-64.80828727751037
 21
-194.93666508545115
  0
LINE
  8
MountainLine
  6
CONTINUOUS
 62
1
 10
-18.19421221996075
 20
-63.156553202325725
 11
-72.776848879843
 21
-194.93666508545115
  0
LINE
  8
MountainLine
  6
CONTINUOUS
 62
1
 10
64.80828727751042
 20
-194.93666508545115
 11
-64.80828727751037
 21
-194.93666508545115
  0
LINE
  8
ValleyLine
  6
CONTINUOUS
 62
5
 10
64.80828727751042
 20
-194.93666508545115
 11
72.77684887984304
 21
-194.93666508545115
  0
LINE
  8
MountainLine
  6
CONTINUOUS
 62
1
 10
72.77684887984304
 20
-194.93666508545115
 11
79.57844165366544
 21
-192.1193531127951
  0
LINE
  8
ValleyLine
  6
CONTINUOUS
 62
5
 10
-64.80828727751037
 20
-194.93666508545115
 11
-72.776848879843
 21
-194.93666508545115
  0
LINE
  8
MountainLine
  6
CONTINUOUS
 62
1
 10
-72.776848879843
 20
-194.93666508545115
 11
-79.5784416536654
 21
-192.1193531127951
  0
LINE
  8
ValleyLine
  6
CONTINUOUS
 62
5
 10
64.80828727751042
 20
-194.93666508545115
 11
133.2258349672984
 21
-360.1118319888156
  0
LINE
  8
MountainLine
  6
CONTINUOUS
 62
1
 10
72.77684887984304
 20
-194.93666508545115
 11
141.1945198740436
 21
-360.1118319888156
  0
LINE
  8
ValleyLine
  6
CONTINUOUS
 62
5
 10
-64.80828727751037
 20
-194.93666508545115
 11
-133.2258349672983
 21
-360.1118319888156
  0
LINE
  8
MountainLine
  6
CONTINUOUS
 62
1
 10
-72.776848879843
 20
-194.93666508545115
 11
-141.19451987404352
 21
-360.1118319888156
  0
LINE
  8
MountainLine
  6
CONTINUOUS
 62
1
 10
133.2258349672984
 20
-360.1118319888156
 11
-133.2258349672983
 21
-360.1118319888156
  0
LINE
  8
ValleyLine
  6
CONTINUOUS
 62
5
 10
133.2258349672984
 20
-360.1118319888156
 11
141.1945198740436
 21
-360.1118319888156
  0
LINE
  8
MountainLine
  6
CONTINUOUS
 62
1
 10
141.1945198740436
 20
-360.1118319888156
 11
147.99621789476544
 21
-357.29447642146636
  0
LINE
  8
ValleyLine
  6
CONTINUOUS
 62
5
 10
-133.2258349672983
 20
-360.1118319888156
 11
-141.19451987404352
 21
-360.1118319888156
  0
LINE
  8
MountainLine
  6
CONTINUOUS
 62
1
 10
-141.19451987404352
 20
-360.1118319888156
 11
-147.99621789476535
 21
-357.29447642146636
  0
LINE
  8
ValleyLine
  6
CONTINUOUS
 62
5
 10
133.2258349672984
 20
-360.1118319888156
 11
192.93137476538195
 21
-504.293850964617
  0
LINE
  8
MountainLine
  6
CONTINUOUS
 62
1
 10
141.1945198740436
 20
-360.1118319888156
 11
200.90836362814136
 21
-504.293850964617
  0
LINE
  8
ValleyLine
  6
CONTINUOUS
 62
5
 10
-133.2258349672983
 20
-360.1118319888156
 11
-192.93137476538186
 21
-504.293850964617
  0
LINE
  8
MountainLine
  6
CONTINUOUS
 62
1
 10
-141.19451987404352
 20
-360.1118319888156
 11
-200.90836362814127
 21
-504.293850964617
  0
LINE
  8
MountainLine
  6
CONTINUOUS
 62
1
 10
192.93137476538195
 20
-504.293850964617
 11
-192.93137476538186
 21
-504.293850964617
  0
LINE
  8
ValleyLine
  6
CONTINUOUS
 62
5
 10
192.93137476538195
 20
-504.293850964617
 11
200.90836362814136
 21
-504.293850964617
  0
LINE
  8
MountainLine
  6
CONTINUOUS
 62
1
 10
200.90836362814136
 20
-504.293850964617
 11
207.71714951867443
 21
-501.47355950546364
  0
LINE
  8
ValleyLine
  6
CONTINUOUS
 62
5
 10
-192.93137476538186
 20
-504.293850964617
 11
-200.90836362814127
 21
-504.293850964617
  0
LINE
  8
MountainLine
  6
CONTINUOUS
 62
1
 10
-200.90836362814127
 20
-504.293850964617
 11
-207.71714951867435
 21
-501.47355950546364
  0
LINE
  8
ValleyLine
  6
CONTINUOUS
 62
5
 10
192.93137476538195
 20
-504.293850964617
 11
239.56890272590886
 21
-617.2592297148492
  0
LINE
  8
MountainLine
  6
CONTINUOUS
 62
1
 10
200.90836362814136
 20
-504.293850964617
 11
247.6230235868846
 21
-617.2592297148492
  0
LINE
  8
ValleyLine
  6
CONTINUOUS
 62
5
 10
-192.93137476538186
 20
-504.293850964617
 11
-239.56890272590869
 21
-617.2592297148492
  0
LINE
  8
MountainLine
  6
CONTINUOUS
 62
1
 10
-200.90836362814127
 20
-504.293850964617
 11
-247.62302358688444
 21
-617.2592297148492
  0
LINE
  8
MountainLine
  6
CONTINUOUS
 62
1
 10
239.56890272590886
 20
-617.2592297148492
 11
-239.56890272590869
 21
-617.2592297148492
  0
LINE
  8
ValleyLine
  6
CONTINUOUS
 62
5
 10
239.56890272590886
 20
-617.2592297148492
 11
247.6230235868846
 21
-617.2592297148492
  0
LINE
  8
MountainLine
  6
CONTINUOUS
 62
1
 10
247.6230235868846
 20
-617.2592297148492
 11
254.4976457560185
 21
-614.4116679762033
  0
LINE
  8
ValleyLine
  6
CONTINUOUS
 62
5
 10
-239.56890272590869
 20
-617.2592297148492
 11
-247.62302358688444
 21
-617.2592297148492
  0
LINE
  8
MountainLine
  6
CONTINUOUS
 62
1
 10
-247.62302358688444
 20
-617.2592297148492
 11
-254.49764575601833
 21
-614.4116679762033
  0
LINE
  8
ValleyLine
  6
CONTINUOUS
 62
5
 10
239.56890272590886
 20
-617.2592297148492
 11
268.7824149030268
 21
-689.7723671500224
  0
LINE
  8
MountainLine
  6
CONTINUOUS
 62
1
 10
247.6230235868846
 20
-617.2592297148492
 11
277.24774216338005
 21
-689.7723671500224
  0
LINE
  8
ValleyLine
  6
CONTINUOUS
 62
5
 10
-239.56890272590869
 20
-617.2592297148492
 11
-268.7824149030266
 21
-689.7723671500224
  0
LINE
  8
MountainLine
  6
CONTINUOUS
 62
1
 10
-247.62302358688444
 20
-617.2592297148492
 11
-277.2477421633799
 21
-689.7723671500224
  0
LINE
  8
MountainLine
  6
CONTINUOUS
 62
1
 10
268.7824149030268
 20
-689.7723671500224
 11
-268.7824149030266
 21
-689.7723671500224
  0
LINE
  8
ValleyLine
  6
CONTINUOUS
 62
5
 10
268.7824149030268
 20
-689.7723671500224
 11
277.24774216338005
 21
-689.7723671500224
  0
LINE
  8
MountainLine
  6
CONTINUOUS
 62
1
 10
277.24774216338005
 20
-689.7723671500224
 11
284.4733509489363
 21
-686.7794219946428
  0
LINE
  8
ValleyLine
  6
CONTINUOUS
 62
5
 10
-268.7824149030266
 20
-689.7723671500224
 11
-277.2477421633799
 21
-689.7723671500224
  0
LINE
  8
MountainLine
  6
CONTINUOUS
 62
1
 10
-277.2477421633799
 20
-689.7723671500224
 11
-284.4733509489361
 21
-686.7794219946428
  0
LINE
  8
ValleyLine
  6
CONTINUOUS
 62
5
 10
268.7824149030268
 20
-689.7723671500224
 11
284.09065734130746
 21
-732.90206267485
  0
LINE
  8
MountainLine
  6
CONTINUOUS
 62
1
 10
277.24774216338005
 20
-689.7723671500224
 11
293.8343157962233
 21
-732.90206267485
  0
LINE
  8
ValleyLine
  6
CONTINUOUS
 62
5
 10
-268.7824149030266
 20
-689.7723671500224
 11
-284.0906573413073
 21
-732.90206267485
  0
LINE
  8
MountainLine
  6
CONTINUOUS
 62
1
 10
-277.2477421633799
 20
-689.7723671500224
 11
-293.8343157962231
 21
-732.90206267485
  0
LINE
  8
MountainLine
  6
CONTINUOUS
 62
1
 10
284.09065734130746
 20
-732.90206267485
 11
-284.0906573413073
 21
-732.90206267485
  0
LINE
  8
ValleyLine
  6
CONTINUOUS
 62
5
 10
284.09065734130746
 20
-732.90206267485
 11
293.8343157962233
 21
-732.90206267485
  0
LINE
  8
MountainLine
  6
CONTINUOUS
 62
1
 10
293.8343157962233
 20
-732.90206267485
 11
302.1510485071995
 21
-729.4571591913317
  0
LINE
  8
ValleyLine
  6
CONTINUOUS
 62
5
 10
-284.0906573413073
 20
-732.90206267485
 11
-293.8343157962231
 21
-732.90206267485
  0
LINE
  8
MountainLine
  6
CONTINUOUS
 62
1
 10
-293.8343157962231
 20
-732.90206267485
 11
-302.15104850719933
 21
-729.4571591913317
  0
LINE
  8
ValleyLine
  6
CONTINUOUS
 62
5
 10
284.09065734130746
 20
-732.90206267485
 11
300.5077007839869
 21
-786.6519175847742
  0
LINE
  8
MountainLine
  6
CONTINUOUS
 62
1
 10
293.8343157962233
 20
-732.90206267485
 11
313.1747969572013
 21
-786.6519175847742
  0
LINE
  8
ValleyLine
  6
CONTINUOUS
 62
5
 10
-284.0906573413073
 20
-732.90206267485
 11
-300.5077007839867
 21
-786.6519175847742
  0
LINE
  8
MountainLine
  6
CONTINUOUS
 62
1
 10
-293.8343157962231
 20
-732.90206267485
 11
-313.1747969572011
 21
-786.6519175847742
  0
LINE
  8
MountainLine
  6
CONTINUOUS
 62
1
 10
300.5077007839869
 20
-786.6519175847742
 11
-300.5077007839867
 21
-786.6519175847742
  0
LINE
  8
ValleyLine
  6
CONTINUOUS
 62
5
 10
300.5077007839869
 20
-786.6519175847742
 11
313.1747969572013
 21
-786.6519175847742
  0
LINE
  8
MountainLine
  6
CONTINUOUS
 62
1
 10
313.1747969572013
 20
-786.6519175847742
 11
323.9868398448196
 21
-782.1734227837632
  0
LINE
  8
ValleyLine
  6
CONTINUOUS
 62
5
 10
-300.5077007839867
 20
-786.6519175847742
 11
-313.1747969572011
 21
-786.6519175847742
  0
LINE
  8
MountainLine
  6
CONTINUOUS
 62
1
 10
-313.1747969572011
 20
-786.6519175847742
 11
-323.98683984481943
 21
-782.1734227837632
  0
LINE
  8
ValleyLine
  6
CONTINUOUS
 62
5
 10
300.5077007839869
 20
-786.6519175847742
 11
298.3353559590424
 21
-822.9842939420964
  0
LINE
  8
MountainLine
  6
CONTINUOUS
 62
1
 10
313.1747969572013
 20
-786.6519175847742
 11
319.61330606495227
 21
-822.9842939420964
  0
LINE
  8
ValleyLine
  6
CONTINUOUS
 62
5
 10
-300.5077007839867
 20
-786.6519175847742
 11
-298.3353559590422
 21
-822.9842939420964
  0
LINE
  8
MountainLine
  6
CONTINUOUS
 62
1
 10
-313.1747969572011
 20
-786.6519175847742
 11
-319.6133060649521
 21
-822.9842939420964
  0
LINE
  8
MountainLine
  6
CONTINUOUS
 62
1
 10
298.3353559590424
 20
-822.9842939420964
 11
-298.3353559590422
 21
-822.9842939420964
  0
LINE
  8
ValleyLine
  6
CONTINUOUS
 62
5
 10
298.3353559590424
 20
-822.9842939420964
 11
319.61330606495227
 21
-822.9842939420964
  0
LINE
  8
MountainLine
  6
CONTINUOUS
 62
1
 10
319.61330606495227
 20
-822.9842939420964
 11
337.7751725227262
 21
-815.4614025372775
  0
LINE
  8
ValleyLine
  6
CONTINUOUS
 62
5
 10
-298.3353559590422
 20
-822.9842939420964
 11
-319.6133060649521
 21
-822.9842939420964
  0
LINE
  8
MountainLine
  6
CONTINUOUS
 62
1
 10
-319.6133060649521
 20
-822.9842939420964
 11
-337.77517252272605
 21
-815.4614025372775
  0
LINE
  8
ValleyLine
  6
CONTINUOUS
 62
5
 10
298.3353559590424
 20
-822.9842939420964
 11
289.6459766592645
 21
-862.9860175642415
  0
LINE
  8
MountainLine
  6
CONTINUOUS
 62
1
 10
319.61330606495227
 20
-822.9842939420964
 11
323.5532446363597
 21
-862.9860175642415
  0
LINE
  8
ValleyLine
  6
CONTINUOUS
 62
5
 10
-298.3353559590422
 20
-822.9842939420964
 11
-289.6459766592643
 21
-862.9860175642415
  0
LINE
  8
MountainLine
  6
CONTINUOUS
 62
1
 10
-319.6133060649521
 20
-822.9842939420964
 11
-323.5532446363595
 21
-862.9860175642415
  0
LINE
  8
MountainLine
  6
CONTINUOUS
 62
1
 10
289.6459766592645
 20
-862.9860175642415
 11
-289.6459766592643
 21
-862.9860175642415
  0
LINE
  8
ValleyLine
  6
CONTINUOUS
 62
5
 10
289.6459766592645
 20
-862.9860175642415
 11
323.5532446363597
 21
-862.9860175642415
  0
LINE
  8
MountainLine
  6
CONTINUOUS
 62
1
 10
323.5532446363597
 20
-862.9860175642415
 11
352.494908183964
 21
-850.9979880051848
  0
LINE
  8
ValleyLine
  6
CONTINUOUS
 62
5
 10
-289.6459766592643
 20
-862.9860175642415
 11
-323.5532446363595
 21
-862.9860175642415
  0
LINE
  8
MountainLine
  6
CONTINUOUS
 62
1
 10
-323.5532446363595
 20
-862.9860175642415
 11
-352.49490818396384
 21
-850.9979880051848
  0
LINE
  8
ValleyLine
  6
CONTINUOUS
 62
5
 10
289.6459766592645
 20
-862.9860175642415
 11
276.61190770959763
 21
-895.3505146936491
  0
LINE
  8
MountainLine
  6
CONTINUOUS
 62
1
 10
323.5532446363597
 20
-862.9860175642415
 11
323.7391169867191
 21
-895.3505146936491
  0
LINE
  8
ValleyLine
  6
CONTINUOUS
 62
5
 10
-289.6459766592643
 20
-862.9860175642415
 11
-276.61190770959735
 21
-895.3505146936491
  0
LINE
  8
MountainLine
  6
CONTINUOUS
 62
1
 10
-323.5532446363595
 20
-862.9860175642415
 11
-323.7391169867189
 21
-895.3505146936491
  0
LINE
  8
MountainLine
  6
CONTINUOUS
 62
1
 10
276.61190770959763
 20
-895.3505146936491
 11
-276.61190770959735
 21
-895.3505146936491
  0
LINE
  8
ValleyLine
  6
CONTINUOUS
 62
5
 10
276.61190770959763
 20
-895.3505146936491
 11
323.7391169867191
 21
-895.3505146936491
  0
LINE
  8
MountainLine
  6
CONTINUOUS
 62
1
 10
323.7391169867191
 20
-895.3505146936491
 11
363.96470625440503
 21
-878.6885300645239
  0
LINE
  8
ValleyLine
  6
CONTINUOUS
 62
5
 10
-276.61190770959735
 20
-895.3505146936491
 11
-323.7391169867189
 21
-895.3505146936491
  0
LINE
  8
MountainLine
  6
CONTINUOUS
 62
1
 10
-323.7391169867189
 20
-895.3505146936491
 11
-363.96470625440475
 21
-878.6885300645239
  0
LINE
  8
ValleyLine
  6
CONTINUOUS
 62
5
 10
276.61190770959763
 20
-895.3505146936491
 11
250.4079982587048
 21
-958.6133431396771
  0
LINE
  8
MountainLine
  6
CONTINUOUS
 62
1
 10
323.7391169867191
 20
-895.3505146936491
 11
323.7393230294864
 21
-958.6133431396771
  0
LINE
  8
ValleyLine
  6
CONTINUOUS
 62
5
 10
-276.61190770959735
 20
-895.3505146936491
 11
-250.40799825870454
 21
-958.6133431396771
  0
LINE
  8
MountainLine
  6
CONTINUOUS
 62
1
 10
-323.7391169867189
 20
-895.3505146936491
 11
-323.7393230294861
 21
-958.6133431396771
  0
LINE
  8
ValleyLine
  6
CONTINUOUS
 62
5
 10
250.4079982587048
 20
-958.6133431396771
 11
-250.40799825870454
 21
-958.6133431396771
  0
LINE
  8
MountainLine
  6
CONTINUOUS
 62
1
 10
250.4079982587048
 20
-958.6133431396771
 11
323.7393230294864
 21
-958.6133431396771
  0
LINE
  8
ValleyLine
  6
CONTINUOUS
 62
5
 10
323.7393230294864
 20
-958.6133431396771
 11
386.33152392428343
 21
-932.6868046302708
  0
LINE
  8
MountainLine
  6
CONTINUOUS
 62
1
 10
-250.40799825870454
 20
-958.6133431396771
 11
-323.7393230294861
 21
-958.6133431396771
  0
LINE
  8
ValleyLine
  6
CONTINUOUS
 62
5
 10
-323.7393230294861
 20
-958.6133431396771
 11
-386.33152392428326
 21
-932.6868046302708
  0
LINE
  8
ValleyLine
  6
CONTINUOUS
 62
5
 10
250.4079982587048
 20
-958.6133431396771
 11
218.9768840727893
 21
-1035.1044485567938
  0
LINE
  8
MountainLine
  6
CONTINUOUS
 62
1
 10
323.7393230294864
 20
-958.6133431396771
 11
323.8655925688685
 21
-1035.1044485567938
  0
LINE
  8
ValleyLine
  6
CONTINUOUS
 62
5
 10
-250.40799825870454
 20
-958.6133431396771
 11
-218.97688407278903
 21
-1035.1044485567938
  0
LINE
  8
MountainLine
  6
CONTINUOUS
 62
1
 10
-323.7393230294861
 20
-958.6133431396771
 11
-323.86559256886824
 21
-1035.1044485567938
  0
LINE
  8
MountainLine
  6
CONTINUOUS
 62
1
 10
218.9768840727893
 20
-1035.1044485567938
 11
-218.97688407278903
 21
-1035.1044485567938
  0
LINE
  8
ValleyLine
  6
CONTINUOUS
 62
5
 10
218.9768840727893
 20
-1035.1044485567938
 11
323.8655925688685
 21
-1035.1044485567938
  0
LINE
  8
MountainLine
  6
CONTINUOUS
 62
1
 10
323.8655925688685
 20
-1035.1044485567938
 11
413.3937053406464
 21
-998.0206900330554
  0
LINE
  8
ValleyLine
  6
CONTINUOUS
 62
5
 10
-218.97688407278903
 20
-1035.1044485567938
 11
-323.86559256886824
 21
-1035.1044485567938
  0
LINE
  8
MountainLine
  6
CONTINUOUS
 62
1
 10
-323.86559256886824
 20
-1035.1044485567938
 11
-413.39370534064625
 21
-998.0206900330554
  0
LINE
  8
ValleyLine
  6
CONTINUOUS
 62
5
 10
218.9768840727893
 20
-1035.1044485567938
 11
173.4707857085877
 21
-1144.9729059428612
  0
LINE
  8
MountainLine
  6
CONTINUOUS
 62
1
 10
323.8655925688685
 20
-1035.1044485567938
 11
323.86704594992756
 21
-1144.9729059428612
  0
LINE
  8
ValleyLine
  6
CONTINUOUS
 62
5
 10
-218.97688407278903
 20
-1035.1044485567938
 11
-173.4707857085874
 21
-1144.9729059428612
  0
LINE
  8
MountainLine
  6
CONTINUOUS
 62
1
 10
-323.86559256886824
 20
-1035.1044485567938
 11
-323.8670459499273
 21
-1144.9729059428612
  0
LINE
  8
ValleyLine
  6
CONTINUOUS
 62
5
 10
173.4707857085877
 20
-1144.9729059428612
 11
-173.4707857085874
 21
-1144.9729059428612
  0
LINE
  8
MountainLine
  6
CONTINUOUS
 62
1
 10
173.4707857085877
 20
-1144.9729059428612
 11
323.86704594992756
 21
-1144.9729059428612
  0
LINE
  8
ValleyLine
  6
CONTINUOUS
 62
5
 10
323.86704594992756
 20
-1144.9729059428612
 11
452.2382838114716
 21
-1091.799798201987
  0
LINE
  8
MountainLine
  6
CONTINUOUS
 62
1
 10
-173.4707857085874
 20
-1144.9729059428612
 11
-323.8670459499273
 21
-1144.9729059428612
  0
LINE
  8
ValleyLine
  6
CONTINUOUS
 62
5
 10
-323.8670459499273
 20
-1144.9729059428612
 11
-452.23828381147126
 21
-1091.799798201987
  0
LINE
  8
ValleyLine
  6
CONTINUOUS
 62
5
 10
173.4707857085877
 20
-1144.9729059428612
 11
119.58079403561598
 21
-1275.3474365789286
  0
LINE
  8
MountainLine
  6
CONTINUOUS
 62
1
 10
323.86704594992756
 20
-1144.9729059428612
 11
323.92349950218454
 21
-1275.3474365789286
  0
LINE
  8
ValleyLine
  6
CONTINUOUS
 62
5
 10
-173.4707857085874
 20
-1144.9729059428612
 11
-119.5807940356157
 21
-1275.3474365789286
  0
LINE
  8
MountainLine
  6
CONTINUOUS
 62
1
 10
-323.8670459499273
 20
-1144.9729059428612
 11
-323.9234995021842
 21
-1275.3474365789286
  0
LINE
  8
ValleyLine
  6
CONTINUOUS
 62
5
 10
119.58079403561598
 20
-1275.3474365789286
 11
-119.5807940356157
 21
-1275.3474365789286
  0
LINE
  8
MountainLine
  6
CONTINUOUS
 62
1
 10
119.58079403561598
 20
-1275.3474365789286
 11
323.92349950218454
 21
-1275.3474365789286
  0
LINE
  8
ValleyLine
  6
CONTINUOUS
 62
5
 10
323.92349950218454
 20
-1275.3474365789286
 11
498.34090859617686
 21
-1203.1013802182206
  0
LINE
  8
MountainLine
  6
CONTINUOUS
 62
1
 10
-119.5807940356157
 20
-1275.3474365789286
 11
-323.9234995021842
 21
-1275.3474365789286
  0
LINE
  8
ValleyLine
  6
CONTINUOUS
 62
5
 10
-323.9234995021842
 20
-1275.3474365789286
 11
-498.3409085961765
 21
-1203.1013802182206
  0
LINE
  8
ValleyLine
  6
CONTINUOUS
 62
5
 10
119.58079403561598
 20
-1275.3474365789286
 11
62.99799992339018
 21
-1415.4662917819185
  0
LINE
  8
MountainLine
  6
CONTINUOUS
 62
1
 10
323.92349950218454
 20
-1275.3474365789286
 11
324.65166753070673
 21
-1415.4662917819185
  0
LINE
  8
ValleyLine
  6
CONTINUOUS
 62
5
 10
-119.5807940356157
 20
-1275.3474365789286
 11
-62.99799992338984
 21
-1415.4662917819185
  0
LINE
  8
MountainLine
  6
CONTINUOUS
 62
1
 10
-323.9234995021842
 20
-1275.3474365789286
 11
-324.6516675307064
 21
-1415.4662917819185
  0
LINE
  8
ValleyLine
  6
CONTINUOUS
 62
5
 10
62.99799992339018
 20
-1415.4662917819185
 11
-62.99799992338984
 21
-1415.4662917819185
  0
LINE
  8
MountainLine
  6
CONTINUOUS
 62
1
 10
62.99799992339018
 20
-1415.4662917819185
 11
324.65166753070673
 21
-1415.4662917819185
  0
LINE
  8
ValleyLine
  6
CONTINUOUS
 62
5
 10
324.65166753070673
 20
-1415.4662917819185
 11
547.9870426780972
 21
-1322.9577504381862
  0
LINE
  8
MountainLine
  6
CONTINUOUS
 62
1
 10
-62.99799992338984
 20
-1415.4662917819185
 11
-324.6516675307064
 21
-1415.4662917819185
  0
LINE
  8
ValleyLine
  6
CONTINUOUS
 62
5
 10
-324.6516675307064
 20
-1415.4662917819185
 11
-547.9870426780968
 21
-1322.9577504381862
  0
LINE
  8
ValleyLine
  6
CONTINUOUS
 62
5
 10
62.99799992339018
 20
-1415.4662917819185
 11
1.9352333525240722E-13
 21
-1580.2379542178667
  0
LINE
  8
MountainLine
  6
CONTINUOUS
 62
1
 10
324.65166753070673
 20
-1415.4662917819185
 11
327.27799620687745
 21
-1580.2379542178667
  0
LINE
  8
ValleyLine
  6
CONTINUOUS
 62
5
 10
-62.99799992338984
 20
-1415.4662917819185
 11
1.9352333525240722E-13
 21
-1580.2379542178667
  0
LINE
  8
MountainLine
  6
CONTINUOUS
 62
1
 10
-324.6516675307064
 20
-1415.4662917819185
 11
-327.27799620687705
 21
-1580.2379542178667
  0
LINE
  8
ValleyLine
  6
CONTINUOUS
 62
5
 10
1.9352333525240722E-13
 20
-1580.2379542178667
 11
1.9352333525240722E-13
 21
-1580.2379542178667
  0
LINE
  8
MountainLine
  6
CONTINUOUS
 62
1
 10
1.9352333525240722E-13
 20
-1580.2379542178667
 11
327.27799620687745
 21
-1580.2379542178667
  0
LINE
  8
ValleyLine
  6
CONTINUOUS
 62
5
 10
327.27799620687745
 20
-1580.2379542178667
 11
606.62723953583
 21
-1464.5277089923527
  0
LINE
  8
MountainLine
  6
CONTINUOUS
 62
1
 10
1.9352333525240722E-13
 20
-1580.2379542178667
 11
-327.27799620687705
 21
-1580.2379542178667
  0
LINE
  8
ValleyLine
  6
CONTINUOUS
 62
5
 10
-327.27799620687705
 20
-1580.2379542178667
 11
-606.6272395358296
 21
-1464.5277089923527
  0
LINE
  8
ValleyLine
  6
CONTINUOUS
 62
5
 10
1.9352333525240722E-13
 20
-1580.2379542178667
 11
2.8181174121997084E-13
 21
-2301.167499202049
  0
LINE
  8
MountainLine
  6
CONTINUOUS
 62
1
 10
327.27799620687745
 20
-1580.2379542178667
 11
476.5873937308338
 21
-2301.167499202049
  0
LINE
  8
ValleyLine
  6
CONTINUOUS
 62
5
 10
1.9352333525240722E-13
 20
-1580.2379542178667
 11
2.8181174121997084E-13
 21
-2301.167499202049
  0
LINE
  8
MountainLine
  6
CONTINUOUS
 62
1
 10
-327.27799620687705
 20
-1580.2379542178667
 11
-476.5873937308333
 21
-2301.167499202049
  0
LINE
  8
CutLine
  6
CONTINUOUS
 62
250
 10
2.8181174121997084E-13
 20
-2301.167499202049
 11
2.8181174121997084E-13
 21
-2301.167499202049
  0
LINE
  8
CutLine
  6
CONTINUOUS
 62
250
 10
2.8181174121997084E-13
 20
-2301.167499202049
 11
476.5873937308338
 21
-2301.167499202049
  0
LINE
  8
CutLine
  6
CONTINUOUS
 62
250
 10
476.5873937308338
 20
-2301.167499202049
 11
883.3801795637985
 21
-2132.668410234501
  0
LINE
  8
CutLine
  6
CONTINUOUS
 62
250
 10
2.8181174121997084E-13
 20
-2301.167499202049
 11
-476.5873937308333
 21
-2301.167499202049
  0
LINE
  8
CutLine
  6
CONTINUOUS
 62
250
 10
-476.5873937308333
 20
-2301.167499202049
 11
-883.3801795637978
 21
-2132.668410234501
  0
LINE
  8
ValleyLine
  6
CONTINUOUS
 62
5
 10
0.0
 20
0.0
 11
-19.22984924128392
 21
-7.965264358129775
  0
LINE
  8
MountainLine
  6
CONTINUOUS
 62
1
 10
0.0
 20
0.0
 11
-13.597556799706846
 21
-13.597556799706847
  0
LINE
  8
ValleyLine
  6
CONTINUOUS
 62
5
 10
0.0
 20
-0.0
 11
-7.9652643581297715
 21
-19.229849241283922
  0
LINE
  8
MountainLine
  6
CONTINUOUS
 62
1
 10
0.0
 20
-0.0
 11
-13.597556799706846
 21
-13.597556799706847
  0
LINE
  8
ValleyLine
  6
CONTINUOUS
 62
5
 10
-19.22984924128392
 20
-7.965264358129775
 11
-7.9652643581297715
 21
-19.229849241283922
  0
LINE
  8
MountainLine
  6
CONTINUOUS
 62
1
 10
-19.22984924128392
 20
-7.965264358129775
 11
-13.597556799706846
 21
-13.597556799706847
  0
LINE
  8
ValleyLine
  6
CONTINUOUS
 62
5
 10
-13.597556799706846
 20
-13.597556799706847
 11
-6.79877839985342
 21
-16.413703020495387
  0
LINE
  8
MountainLine
  6
CONTINUOUS
 62
1
 10
-7.9652643581297715
 20
-19.229849241283922
 11
-13.597556799706846
 21
-13.597556799706847
  0
LINE
  8
ValleyLine
  6
CONTINUOUS
 62
5
 10
-13.597556799706846
 20
-13.597556799706847
 11
-16.413703020495383
 21
-6.798778399853424
  0
LINE
  8
ValleyLine
  6
CONTINUOUS
 62
5
 10
-19.22984924128392
 20
-7.965264358129775
 11
-19.22984924128392
 21
-7.965264358129775
  0
LINE
  8
MountainLine
  6
CONTINUOUS
 62
1
 10
-13.597556799706846
 20
-13.597556799706847
 11
-13.597556799706846
 21
-13.597556799706847
  0
LINE
  8
ValleyLine
  6
CONTINUOUS
 62
5
 10
-7.9652643581297715
 20
-19.229849241283922
 11
-7.9652643581297715
 21
-19.229849241283922
  0
LINE
  8
MountainLine
  6
CONTINUOUS
 62
1
 10
-13.597556799706846
 20
-13.597556799706847
 11
-13.597556799706846
 21
-13.597556799706847
  0
LINE
  8
ValleyLine
  6
CONTINUOUS
 62
5
 10
-19.22984924128392
 20
-7.965264358129775
 11
-7.9652643581297715
 21
-19.229849241283922
  0
LINE
  8
MountainLine
  6
CONTINUOUS
 62
1
 10
-19.22984924128392
 20
-7.965264358129775
 11
-13.597556799706846
 21
-13.597556799706847
  0
LINE
  8
ValleyLine
  6
CONTINUOUS
 62
5
 10
-13.597556799706846
 20
-13.597556799706847
 11
-6.79877839985342
 21
-16.413703020495387
  0
LINE
  8
MountainLine
  6
CONTINUOUS
 62
1
 10
-7.9652643581297715
 20
-19.229849241283922
 11
-13.597556799706846
 21
-13.597556799706847
  0
LINE
  8
ValleyLine
  6
CONTINUOUS
 62
5
 10
-13.597556799706846
 20
-13.597556799706847
 11
-16.413703020495383
 21
-6.798778399853424
  0
LINE
  8
ValleyLine
  6
CONTINUOUS
 62
5
 10
-19.22984924128392
 20
-7.965264358129775
 11
-37.426051524162915
 21
-51.89080256730405
  0
LINE
  8
MountainLine
  6
CONTINUOUS
 62
1
 10
-13.597556799706846
 20
-13.597556799706847
 11
-31.79317620665208
 21
-57.52367788481489
  0
LINE
  8
ValleyLine
  6
CONTINUOUS
 62
5
 10
-7.9652643581297715
 20
-19.229849241283922
 11
-51.890802567304036
 21
-37.426051524162936
  0
LINE
  8
MountainLine
  6
CONTINUOUS
 62
1
 10
-13.597556799706846
 20
-13.597556799706847
 11
-57.52367788481488
 21
-31.79317620665209
  0
LINE
  8
MountainLine
  6
CONTINUOUS
 62
1
 10
-37.426051524162915
 20
-51.89080256730405
 11
-51.890802567304036
 21
-37.426051524162936
  0
LINE
  8
ValleyLine
  6
CONTINUOUS
 62
5
 10
-37.426051524162915
 20
-51.89080256730405
 11
-31.79317620665208
 21
-57.52367788481489
  0
LINE
  8
MountainLine
  6
CONTINUOUS
 62
1
 10
-31.79317620665208
 20
-57.52367788481489
 11
-24.99369421330642
 21
-60.340115543570306
  0
LINE
  8
ValleyLine
  6
CONTINUOUS
 62
5
 10
-51.890802567304036
 20
-37.426051524162936
 11
-57.52367788481488
 21
-31.79317620665209
  0
LINE
  8
MountainLine
  6
CONTINUOUS
 62
1
 10
-57.52367788481488
 20
-31.79317620665209
 11
-60.340115543570306
 21
-24.993694213306433
  0
LINE
  8
ValleyLine
  6
CONTINUOUS
 62
5
 10
-37.426051524162915
 20
-51.89080256730405
 11
-92.01465837279991
 21
-183.6674171948269
  0
LINE
  8
MountainLine
  6
CONTINUOUS
 62
1
 10
-31.79317620665208
 20
-57.52367788481489
 11
-86.38003442748777
 21
-189.30204114013904
  0
LINE
  8
ValleyLine
  6
CONTINUOUS
 62
5
 10
-51.890802567304036
 20
-37.426051524162936
 11
-183.66741719482687
 21
-92.01465837279999
  0
LINE
  8
MountainLine
  6
CONTINUOUS
 62
1
 10
-57.52367788481488
 20
-31.79317620665209
 11
-189.302041140139
 21
-86.38003442748784
  0
LINE
  8
MountainLine
  6
CONTINUOUS
 62
1
 10
-92.01465837279991
 20
-183.6674171948269
 11
-183.66741719482687
 21
-92.01465837279999
  0
LINE
  8
ValleyLine
  6
CONTINUOUS
 62
5
 10
-92.01465837279991
 20
-183.6674171948269
 11
-86.38003442748777
 21
-189.30204114013904
  0
LINE
  8
MountainLine
  6
CONTINUOUS
 62
1
 10
-86.38003442748777
 20
-189.30204114013904
 11
-79.57844165366541
 21
-192.11935311279512
  0
LINE
  8
ValleyLine
  6
CONTINUOUS
 62
5
 10
-183.66741719482687
 20
-92.01465837279999
 11
-189.302041140139
 21
-86.38003442748784
  0
LINE
  8
MountainLine
  6
CONTINUOUS
 62
1
 10
-189.302041140139
 20
-86.38003442748784
 11
-192.1193531127951
 21
-79.57844165366546
  0
LINE
  8
ValleyLine
  6
CONTINUOUS
 62
5
 10
-92.01465837279991
 20
-183.6674171948269
 11
-160.43262705018563
 21
-348.8424097194188
  0
LINE
  8
MountainLine
  6
CONTINUOUS
 62
1
 10
-86.38003442748777
 20
-189.30204114013904
 11
-154.79791591548718
 21
-354.47712085411723
  0
LINE
  8
ValleyLine
  6
CONTINUOUS
 62
5
 10
-183.66741719482687
 20
-92.01465837279999
 11
-348.8424097194187
 21
-160.43262705018574
  0
LINE
  8
MountainLine
  6
CONTINUOUS
 62
1
 10
-189.302041140139
 20
-86.38003442748784
 11
-354.4771208541172
 21
-154.7979159154873
  0
LINE
  8
MountainLine
  6
CONTINUOUS
 62
1
 10
-160.43262705018563
 20
-348.8424097194188
 11
-348.8424097194187
 21
-160.43262705018574
  0
LINE
  8
ValleyLine
  6
CONTINUOUS
 62
5
 10
-160.43262705018563
 20
-348.8424097194188
 11
-154.79791591548718
 21
-354.47712085411723
  0
LINE
  8
MountainLine
  6
CONTINUOUS
 62
1
 10
-154.79791591548718
 20
-354.47712085411723
 11
-147.99621789476538
 21
-357.29447642146647
  0
LINE
  8
ValleyLine
  6
CONTINUOUS
 62
5
 10
-348.8424097194187
 20
-160.43262705018574
 11
-354.4771208541172
 21
-154.7979159154873
  0
LINE
  8
MountainLine
  6
CONTINUOUS
 62
1
 10
-354.4771208541172
 20
-154.7979159154873
 11
-357.29447642146636
 21
-147.99621789476546
  0
LINE
  8
ValleyLine
  6
CONTINUOUS
 62
5
 10
-160.43262705018563
 20
-348.8424097194188
 11
-220.16651832751407
 21
-493.01268512800357
  0
LINE
  8
MountainLine
  6
CONTINUOUS
 62
1
 10
-154.79791591548718
 20
-354.47712085411723
 11
-214.5259354092073
 21
-498.65326804631036
  0
LINE
  8
ValleyLine
  6
CONTINUOUS
 62
5
 10
-348.8424097194187
 20
-160.43262705018574
 11
-493.01268512800357
 21
-220.16651832751424
  0
LINE
  8
MountainLine
  6
CONTINUOUS
 62
1
 10
-354.4771208541172
 20
-154.7979159154873
 11
-498.6532680463103
 21
-214.52593540920748
  0
LINE
  8
MountainLine
  6
CONTINUOUS
 62
1
 10
-220.16651832751407
 20
-493.01268512800357
 11
-493.01268512800357
 21
-220.16651832751424
  0
LINE
  8
ValleyLine
  6
CONTINUOUS
 62
5
 10
-220.16651832751407
 20
-493.01268512800357
 11
-214.5259354092073
 21
-498.65326804631036
  0
LINE
  8
MountainLine
  6
CONTINUOUS
 62
1
 10
-214.5259354092073
 20
-498.65326804631036
 11
-207.71714951867426
 21
-501.4735595054637
  0
LINE
  8
ValleyLine
  6
CONTINUOUS
 62
5
 10
-493.01268512800357
 20
-220.16651832751424
 11
-498.6532680463103
 21
-214.52593540920748
  0
LINE
  8
MountainLine
  6
CONTINUOUS
 62
1
 10
-498.6532680463103
 20
-214.52593540920748
 11
-501.47355950546364
 21
-207.7171495186744
  0
LINE
  8
ValleyLine
  6
CONTINUOUS
 62
5
 10
-220.16651832751407
 20
-493.01268512800357
 11
-267.0673914024442
 21
-605.8689827602652
  0
LINE
  8
MountainLine
  6
CONTINUOUS
 62
1
 10
-214.5259354092073
 20
-498.65326804631036
 11
-261.3722679251522
 21
-611.5641062375573
  0
LINE
  8
ValleyLine
  6
CONTINUOUS
 62
5
 10
-493.01268512800357
 20
-220.16651832751424
 11
-605.8689827602652
 21
-267.0673914024444
  0
LINE
  8
MountainLine
  6
CONTINUOUS
 62
1
 10
-498.6532680463103
 20
-214.52593540920748
 11
-611.5641062375572
 21
-261.3722679251524
  0
LINE
  8
MountainLine
  6
CONTINUOUS
 62
1
 10
-267.0673914024442
 20
-605.8689827602652
 11
-605.8689827602652
 21
-267.0673914024444
  0
LINE
  8
ValleyLine
  6
CONTINUOUS
 62
5
 10
-267.0673914024442
 20
-605.8689827602652
 11
-261.3722679251522
 21
-611.5641062375573
  0
LINE
  8
MountainLine
  6
CONTINUOUS
 62
1
 10
-261.3722679251522
 20
-611.5641062375573
 11
-254.49764575601836
 21
-614.4116679762033
  0
LINE
  8
ValleyLine
  6
CONTINUOUS
 62
5
 10
-605.8689827602652
 20
-267.0673914024444
 11
-611.5641062375572
 21
-261.3722679251524
  0
LINE
  8
MountainLine
  6
CONTINUOUS
 62
1
 10
-611.5641062375572
 20
-261.3722679251524
 11
-614.4116679762033
 21
-254.4976457560185
  0
LINE
  8
ValleyLine
  6
CONTINUOUS
 62
5
 10
-267.0673914024442
 20
-605.8689827602652
 11
-297.6848500452514
 21
-677.8005865285043
  0
LINE
  8
MountainLine
  6
CONTINUOUS
 62
1
 10
-261.3722679251522
 20
-611.5641062375573
 11
-291.69895973449223
 21
-683.7864768392634
  0
LINE
  8
ValleyLine
  6
CONTINUOUS
 62
5
 10
-605.8689827602652
 20
-267.0673914024444
 11
-677.8005865285041
 21
-297.6848500452516
  0
LINE
  8
MountainLine
  6
CONTINUOUS
 62
1
 10
-611.5641062375572
 20
-261.3722679251524
 11
-683.7864768392633
 21
-291.69895973449246
  0
LINE
  8
MountainLine
  6
CONTINUOUS
 62
1
 10
-297.6848500452514
 20
-677.8005865285043
 11
-677.8005865285041
 21
-297.6848500452516
  0
LINE
  8
ValleyLine
  6
CONTINUOUS
 62
5
 10
-297.6848500452514
 20
-677.8005865285043
 11
-291.69895973449223
 21
-683.7864768392634
  0
LINE
  8
MountainLine
  6
CONTINUOUS
 62
1
 10
-291.69895973449223
 20
-683.7864768392634
 11
-284.47335094893606
 21
-686.7794219946429
  0
LINE
  8
ValleyLine
  6
CONTINUOUS
 62
5
 10
-677.8005865285041
 20
-297.6848500452516
 11
-683.7864768392633
 21
-291.69895973449246
  0
LINE
  8
MountainLine
  6
CONTINUOUS
 62
1
 10
-683.7864768392633
 20
-291.69895973449246
 11
-686.7794219946429
 21
-284.47335094893623
  0
LINE
  8
ValleyLine
  6
CONTINUOUS
 62
5
 10
-297.6848500452514
 20
-677.8005865285043
 11
-317.3575881852121
 21
-719.1224487407769
  0
LINE
  8
MountainLine
  6
CONTINUOUS
 62
1
 10
-291.69895973449223
 20
-683.7864768392634
 11
-310.46778121817545
 21
-726.0122557078136
  0
LINE
  8
ValleyLine
  6
CONTINUOUS
 62
5
 10
-677.8005865285041
 20
-297.6848500452516
 11
-719.1224487407768
 21
-317.3575881852123
  0
LINE
  8
MountainLine
  6
CONTINUOUS
 62
1
 10
-683.7864768392633
 20
-291.69895973449246
 11
-726.0122557078133
 21
-310.4677812181757
  0
LINE
  8
MountainLine
  6
CONTINUOUS
 62
1
 10
-317.3575881852121
 20
-719.1224487407769
 11
-719.1224487407768
 21
-317.3575881852123
  0
LINE
  8
ValleyLine
  6
CONTINUOUS
 62
5
 10
-317.3575881852121
 20
-719.1224487407769
 11
-310.46778121817545
 21
-726.0122557078136
  0
LINE
  8
MountainLine
  6
CONTINUOUS
 62
1
 10
-310.46778121817545
 20
-726.0122557078136
 11
-302.1510485071992
 21
-729.4571591913317
  0
LINE
  8
ValleyLine
  6
CONTINUOUS
 62
5
 10
-719.1224487407768
 20
-317.3575881852123
 11
-726.0122557078133
 21
-310.4677812181757
  0
LINE
  8
MountainLine
  6
CONTINUOUS
 62
1
 10
-726.0122557078133
 20
-310.4677812181757
 11
-729.4571591913317
 21
-302.15104850719945
  0
LINE
  8
ValleyLine
  6
CONTINUOUS
 62
5
 10
-317.3575881852121
 20
-719.1224487407769
 11
-343.7558723344598
 21
-768.73793838073
  0
LINE
  8
MountainLine
  6
CONTINUOUS
 62
1
 10
-310.46778121817545
 20
-726.0122557078136
 11
-334.7988827324376
 21
-777.6949279827522
  0
LINE
  8
ValleyLine
  6
CONTINUOUS
 62
5
 10
-719.1224487407768
 20
-317.3575881852123
 11
-768.7379383807298
 21
-343.75587233446
  0
LINE
  8
MountainLine
  6
CONTINUOUS
 62
1
 10
-726.0122557078133
 20
-310.4677812181757
 11
-777.694927982752
 21
-334.7988827324379
  0
LINE
  8
MountainLine
  6
CONTINUOUS
 62
1
 10
-343.7558723344598
 20
-768.73793838073
 11
-768.7379383807298
 21
-343.75587233446
  0
LINE
  8
ValleyLine
  6
CONTINUOUS
 62
5
 10
-343.7558723344598
 20
-768.73793838073
 11
-334.7988827324376
 21
-777.6949279827522
  0
LINE
  8
MountainLine
  6
CONTINUOUS
 62
1
 10
-334.7988827324376
 20
-777.6949279827522
 11
-323.98683984481943
 21
-782.1734227837632
  0
LINE
  8
ValleyLine
  6
CONTINUOUS
 62
5
 10
-768.7379383807298
 20
-343.75587233446
 11
-777.694927982752
 21
-334.7988827324379
  0
LINE
  8
MountainLine
  6
CONTINUOUS
 62
1
 10
-777.694927982752
 20
-334.7988827324379
 11
-782.1734227837632
 21
-323.9868398448197
  0
LINE
  8
ValleyLine
  6
CONTINUOUS
 62
5
 10
-343.7558723344598
 20
-768.73793838073
 11
-370.9828217901379
 21
-792.8927283228207
  0
LINE
  8
MountainLine
  6
CONTINUOUS
 62
1
 10
-334.7988827324376
 20
-777.6949279827522
 11
-355.9370389805
 21
-807.9385111324585
  0
LINE
  8
ValleyLine
  6
CONTINUOUS
 62
5
 10
-768.7379383807298
 20
-343.75587233446
 11
-792.8927283228206
 21
-370.9828217901381
  0
LINE
  8
MountainLine
  6
CONTINUOUS
 62
1
 10
-777.694927982752
 20
-334.7988827324379
 11
-807.9385111324584
 21
-355.9370389805002
  0
LINE
  8
MountainLine
  6
CONTINUOUS
 62
1
 10
-370.9828217901379
 20
-792.8927283228207
 11
-792.8927283228206
 21
-370.9828217901381
  0
LINE
  8
ValleyLine
  6
CONTINUOUS
 62
5
 10
-370.9828217901379
 20
-792.8927283228207
 11
-355.9370389805
 21
-807.9385111324585
  0
LINE
  8
MountainLine
  6
CONTINUOUS
 62
1
 10
-355.9370389805
 20
-807.9385111324585
 11
-337.77517252272605
 21
-815.4614025372775
  0
LINE
  8
ValleyLine
  6
CONTINUOUS
 62
5
 10
-792.8927283228206
 20
-370.9828217901381
 11
-807.9385111324584
 21
-355.9370389805002
  0
LINE
  8
MountainLine
  6
CONTINUOUS
 62
1
 10
-807.9385111324584
 20
-355.9370389805002
 11
-815.4614025372775
 21
-337.77517252272634
  0
LINE
  8
ValleyLine
  6
CONTINUOUS
 62
5
 10
-370.9828217901379
 20
-792.8927283228207
 11
-405.4126308496817
 21
-815.0338993280146
  0
LINE
  8
MountainLine
  6
CONTINUOUS
 62
1
 10
-355.9370389805
 20
-807.9385111324585
 11
-381.4365717315683
 21
-839.009958446128
  0
LINE
  8
ValleyLine
  6
CONTINUOUS
 62
5
 10
-792.8927283228206
 20
-370.9828217901381
 11
-815.0338993280145
 21
-405.412630849682
  0
LINE
  8
MountainLine
  6
CONTINUOUS
 62
1
 10
-807.9385111324584
 20
-355.9370389805002
 11
-839.009958446128
 21
-381.4365717315685
  0
LINE
  8
MountainLine
  6
CONTINUOUS
 62
1
 10
-405.4126308496817
 20
-815.0338993280146
 11
-815.0338993280145
 21
-405.412630849682
  0
LINE
  8
ValleyLine
  6
CONTINUOUS
 62
5
 10
-405.4126308496817
 20
-815.0338993280146
 11
-381.4365717315683
 21
-839.009958446128
  0
LINE
  8
MountainLine
  6
CONTINUOUS
 62
1
 10
-381.4365717315683
 20
-839.009958446128
 11
-352.4949081839639
 21
-850.9979880051848
  0
LINE
  8
ValleyLine
  6
CONTINUOUS
 62
5
 10
-815.0338993280145
 20
-405.412630849682
 11
-839.009958446128
 21
-381.4365717315685
  0
LINE
  8
MountainLine
  6
CONTINUOUS
 62
1
 10
-839.009958446128
 20
-381.4365717315685
 11
-850.9979880051848
 21
-352.4949081839641
  0
LINE
  8
ValleyLine
  6
CONTINUOUS
 62
5
 10
-405.4126308496817
 20
-815.0338993280146
 11
-437.51426478034085
 21
-828.7025761771488
  0
LINE
  8
MountainLine
  6
CONTINUOUS
 62
1
 10
-381.4365717315683
 20
-839.009958446128
 11
-404.1902955220906
 21
-862.0265454353989
  0
LINE
  8
ValleyLine
  6
CONTINUOUS
 62
5
 10
-815.0338993280145
 20
-405.412630849682
 11
-828.7025761771486
 21
-437.5142647803412
  0
LINE
  8
MountainLine
  6
CONTINUOUS
 62
1
 10
-839.009958446128
 20
-381.4365717315685
 11
-862.0265454353988
 21
-404.19029552209093
  0
LINE
  8
MountainLine
  6
CONTINUOUS
 62
1
 10
-437.51426478034085
 20
-828.7025761771488
 11
-828.7025761771486
 21
-437.5142647803412
  0
LINE
  8
ValleyLine
  6
CONTINUOUS
 62
5
 10
-437.51426478034085
 20
-828.7025761771488
 11
-404.1902955220906
 21
-862.0265454353989
  0
LINE
  8
MountainLine
  6
CONTINUOUS
 62
1
 10
-404.1902955220906
 20
-862.0265454353989
 11
-363.9647062544048
 21
-878.6885300645241
  0
LINE
  8
ValleyLine
  6
CONTINUOUS
 62
5
 10
-828.7025761771486
 20
-437.5142647803412
 11
-862.0265454353988
 21
-404.19029552209093
  0
LINE
  8
MountainLine
  6
CONTINUOUS
 62
1
 10
-862.0265454353988
 20
-404.19029552209093
 11
-878.6885300645239
 21
-363.96470625440503
  0
LINE
  8
ValleyLine
  6
CONTINUOUS
 62
5
 10
-437.51426478034085
 20
-828.7025761771488
 11
-500.7768018378931
 21
-854.9071891020519
  0
LINE
  8
MountainLine
  6
CONTINUOUS
 62
1
 10
-404.1902955220906
 20
-862.0265454353989
 11
-448.9237248190804
 21
-906.7602661208645
  0
LINE
  8
ValleyLine
  6
CONTINUOUS
 62
5
 10
-828.7025761771486
 20
-437.5142647803412
 11
-854.9071891020517
 21
-500.7768018378934
  0
LINE
  8
MountainLine
  6
CONTINUOUS
 62
1
 10
-862.0265454353988
 20
-404.19029552209093
 11
-906.7602661208643
 21
-448.9237248190807
  0
LINE
  8
ValleyLine
  6
CONTINUOUS
 62
5
 10
-500.7768018378931
 20
-854.9071891020519
 11
-854.9071891020517
 21
-500.7768018378934
  0
LINE
  8
MountainLine
  6
CONTINUOUS
 62
1
 10
-500.7768018378931
 20
-854.9071891020519
 11
-448.9237248190804
 21
-906.7602661208645
  0
LINE
  8
ValleyLine
  6
CONTINUOUS
 62
5
 10
-448.9237248190804
 20
-906.7602661208645
 11
-386.3315239242833
 21
-932.686804630271
  0
LINE
  8
MountainLine
  6
CONTINUOUS
 62
1
 10
-854.9071891020517
 20
-500.7768018378934
 11
-906.7602661208643
 21
-448.9237248190807
  0
LINE
  8
ValleyLine
  6
CONTINUOUS
 62
5
 10
-906.7602661208643
 20
-448.9237248190807
 11
-932.6868046302708
 21
-386.3315239242836
  0
LINE
  8
ValleyLine
  6
CONTINUOUS
 62
5
 10
-500.7768018378931
 20
-854.9071891020519
 11
-577.089335159901
 21
-886.7694144618405
  0
LINE
  8
MountainLine
  6
CONTINUOUS
 62
1
 10
-448.9237248190804
 20
-906.7602661208645
 11
-502.9218181124243
 21
-960.9369315093172
  0
LINE
  8
ValleyLine
  6
CONTINUOUS
 62
5
 10
-854.9071891020517
 20
-500.7768018378934
 11
-886.7694144618405
 21
-577.0893351599011
  0
LINE
  8
MountainLine
  6
CONTINUOUS
 62
1
 10
-906.7602661208643
 20
-448.9237248190807
 11
-960.936931509317
 21
-502.9218181124245
  0
LINE
  8
MountainLine
  6
CONTINUOUS
 62
1
 10
-577.089335159901
 20
-886.7694144618405
 11
-886.7694144618405
 21
-577.0893351599011
  0
LINE
  8
ValleyLine
  6
CONTINUOUS
 62
5
 10
-577.089335159901
 20
-886.7694144618405
 11
-502.9218181124243
 21
-960.9369315093172
  0
LINE
  8
MountainLine
  6
CONTINUOUS
 62
1
 10
-502.9218181124243
 20
-960.9369315093172
 11
-413.3937053406462
 21
-998.0206900330555
  0
LINE
  8
ValleyLine
  6
CONTINUOUS
 62
5
 10
-886.7694144618405
 20
-577.0893351599011
 11
-960.936931509317
 21
-502.9218181124245
  0
LINE
  8
MountainLine
  6
CONTINUOUS
 62
1
 10
-960.936931509317
 20
-502.9218181124245
 11
-998.0206900330554
 21
-413.39370534064653
  0
LINE
  8
ValleyLine
  6
CONTINUOUS
 62
5
 10
-577.089335159901
 20
-886.7694144618405
 11
-686.9557371547633
 21
-932.2804749793651
  0
LINE
  8
MountainLine
  6
CONTINUOUS
 62
1
 10
-502.9218181124243
 20
-960.9369315093172
 11
-580.6095216730151
 21
-1038.6266904611132
  0
LINE
  8
ValleyLine
  6
CONTINUOUS
 62
5
 10
-886.7694144618405
 20
-577.0893351599011
 11
-932.2804749793648
 21
-686.9557371547637
  0
LINE
  8
MountainLine
  6
CONTINUOUS
 62
1
 10
-960.936931509317
 20
-502.9218181124245
 11
-1038.626690461113
 21
-580.6095216730156
  0
LINE
  8
ValleyLine
  6
CONTINUOUS
 62
5
 10
-686.9557371547633
 20
-932.2804749793651
 11
-932.2804749793648
 21
-686.9557371547637
  0
LINE
  8
MountainLine
  6
CONTINUOUS
 62
1
 10
-686.9557371547633
 20
-932.2804749793651
 11
-580.6095216730151
 21
-1038.6266904611132
  0
LINE
  8
ValleyLine
  6
CONTINUOUS
 62
5
 10
-580.6095216730151
 20
-1038.6266904611132
 11
-452.23828381147115
 21
-1091.7997982019872
  0
LINE
  8
MountainLine
  6
CONTINUOUS
 62
1
 10
-932.2804749793648
 20
-686.9557371547637
 11
-1038.626690461113
 21
-580.6095216730156
  0
LINE
  8
ValleyLine
  6
CONTINUOUS
 62
5
 10
-1038.626690461113
 20
-580.6095216730156
 11
-1091.7997982019872
 21
-452.2382838114715
  0
LINE
  8
ValleyLine
  6
CONTINUOUS
 62
5
 10
-686.9557371547633
 20
-932.2804749793651
 11
-817.250430411585
 21
-986.3632111360968
  0
LINE
  8
MountainLine
  6
CONTINUOUS
 62
1
 10
-580.6095216730151
 20
-1038.6266904611132
 11
-672.758317690169
 21
-1130.8553238575128
  0
LINE
  8
ValleyLine
  6
CONTINUOUS
 62
5
 10
-932.2804749793648
 20
-686.9557371547637
 11
-986.3632111360965
 21
-817.2504304115852
  0
LINE
  8
MountainLine
  6
CONTINUOUS
 62
1
 10
-1038.626690461113
 20
-580.6095216730156
 11
-1130.8553238575125
 21
-672.7583176901691
  0
LINE
  8
ValleyLine
  6
CONTINUOUS
 62
5
 10
-817.250430411585
 20
-986.3632111360968
 11
-986.3632111360965
 21
-817.2504304115852
  0
LINE
  8
MountainLine
  6
CONTINUOUS
 62
1
 10
-817.250430411585
 20
-986.3632111360968
 11
-672.758317690169
 21
-1130.8553238575128
  0
LINE
  8
ValleyLine
  6
CONTINUOUS
 62
5
 10
-672.758317690169
 20
-1130.8553238575128
 11
-498.3409085961764
 21
-1203.1013802182208
  0
LINE
  8
MountainLine
  6
CONTINUOUS
 62
1
 10
-986.3632111360965
 20
-817.2504304115852
 11
-1130.8553238575125
 21
-672.7583176901691
  0
LINE
  8
ValleyLine
  6
CONTINUOUS
 62
5
 10
-1130.8553238575125
 20
-672.7583176901691
 11
-1203.1013802182206
 21
-498.3409085961769
  0
LINE
  8
ValleyLine
  6
CONTINUOUS
 62
5
 10
-817.250430411585
 20
-986.3632111360968
 11
-956.339500512952
 21
-1045.4321264069897
  0
LINE
  8
MountainLine
  6
CONTINUOUS
 62
1
 10
-672.758317690169
 20
-1130.8553238575128
 11
-771.3224178254876
 21
-1230.449209094454
  0
LINE
  8
ValleyLine
  6
CONTINUOUS
 62
5
 10
-986.3632111360965
 20
-817.2504304115852
 11
-1045.4321264069895
 21
-956.3395005129523
  0
LINE
  8
MountainLine
  6
CONTINUOUS
 62
1
 10
-1130.8553238575125
 20
-672.7583176901691
 11
-1230.4492090944539
 21
-771.3224178254881
  0
LINE
  8
ValleyLine
  6
CONTINUOUS
 62
5
 10
-956.339500512952
 20
-1045.4321264069897
 11
-1045.4321264069895
 21
-956.3395005129523
  0
LINE
  8
MountainLine
  6
CONTINUOUS
 62
1
 10
-956.339500512952
 20
-1045.4321264069897
 11
-771.3224178254876
 21
-1230.449209094454
  0
LINE
  8
ValleyLine
  6
CONTINUOUS
 62
5
 10
-771.3224178254876
 20
-1230.449209094454
 11
-547.987042678097
 21
-1322.9577504381862
  0
LINE
  8
MountainLine
  6
CONTINUOUS
 62
1
 10
-1045.4321264069895
 20
-956.3395005129523
 11
-1230.4492090944539
 21
-771.3224178254881
  0
LINE
  8
ValleyLine
  6
CONTINUOUS
 62
5
 10
-1230.4492090944539
 20
-771.3224178254881
 11
-1322.9577504381862
 21
-547.9870426780976
  0
LINE
  8
ValleyLine
  6
CONTINUOUS
 62
5
 10
-956.339500512952
 20
-1045.4321264069897
 11
-1117.3969733158106
 21
-1117.3969733158108
  0
LINE
  8
MountainLine
  6
CONTINUOUS
 62
1
 10
-771.3224178254876
 20
-1230.449209094454
 11
-885.9764828647823
 21
-1348.8174637668387
  0
LINE
  8
ValleyLine
  6
CONTINUOUS
 62
5
 10
-1045.4321264069895
 20
-956.3395005129523
 11
-1117.3969733158106
 21
-1117.3969733158108
  0
LINE
  8
MountainLine
  6
CONTINUOUS
 62
1
 10
-1230.4492090944539
 20
-771.3224178254881
 11
-1348.8174637668385
 21
-885.9764828647828
  0
LINE
  8
ValleyLine
  6
CONTINUOUS
 62
5
 10
-1117.3969733158106
 20
-1117.3969733158108
 11
-1117.3969733158106
 21
-1117.3969733158108
  0
LINE
  8
MountainLine
  6
CONTINUOUS
 62
1
 10
-1117.3969733158106
 20
-1117.3969733158108
 11
-885.9764828647823
 21
-1348.8174637668387
  0
LINE
  8
ValleyLine
  6
CONTINUOUS
 62
5
 10
-885.9764828647823
 20
-1348.8174637668387
 11
-606.6272395358299
 21
-1464.5277089923532
  0
LINE
  8
MountainLine
  6
CONTINUOUS
 62
1
 10
-1117.3969733158106
 20
-1117.3969733158108
 11
-1348.8174637668385
 21
-885.9764828647828
  0
LINE
  8
ValleyLine
  6
CONTINUOUS
 62
5
 10
-1348.8174637668385
 20
-885.9764828647828
 11
-1464.5277089923527
 21
-606.6272395358303
  0
LINE
  8
ValleyLine
  6
CONTINUOUS
 62
5
 10
-1117.3969733158106
 20
-1117.3969733158108
 11
-1627.171143331858
 21
-1627.1711433318583
  0
LINE
  8
MountainLine
  6
CONTINUOUS
 62
1
 10
-885.9764828647823
 20
-1348.8174637668387
 11
-1290.1729653967625
 21
-1964.1693212669536
  0
LINE
  8
ValleyLine
  6
CONTINUOUS
 62
5
 10
-1117.3969733158106
 20
-1117.3969733158108
 11
-1627.171143331858
 21
-1627.1711433318583
  0
LINE
  8
MountainLine
  6
CONTINUOUS
 62
1
 10
-1348.8174637668385
 20
-885.9764828647828
 11
-1964.1693212669536
 21
-1290.172965396763
  0
LINE
  8
CutLine
  6
CONTINUOUS
 62
250
 10
-1627.171143331858
 20
-1627.1711433318583
 11
-1627.171143331858
 21
-1627.1711433318583
  0
LINE
  8
CutLine
  6
CONTINUOUS
 62
250
 10
-1627.171143331858
 20
-1627.1711433318583
 11
-1290.1729653967625
 21
-1964.1693212669536
  0
LINE
  8
CutLine
  6
CONTINUOUS
 62
250
 10
-1290.1729653967625
 20
-1964.1693212669536
 11
-883.3801795637978
 21
-2132.6684102345016
  0
LINE
  8
CutLine
  6
CONTINUOUS
 62
250
 10
-1627.171143331858
 20
-1627.1711433318583
 11
-1964.1693212669536
 21
-1290.172965396763
  0
LINE
  8
CutLine
  6
CONTINUOUS
 62
250
 10
-1964.1693212669536
 20
-1290.172965396763
 11
-2132.668410234501
 21
-883.3801795637985
  0
LINE
  8
ValleyLine
  6
CONTINUOUS
 62
5
 10
0.0
 20
0.0
 11
-19.229849241283922
 21
7.965264358129766
  0
LINE
  8
MountainLine
  6
CONTINUOUS
 62
1
 10
0.0
 20
0.0
 11
-19.22984924128392
 21
-4.855949791871433E-15
  0
LINE
  8
ValleyLine
  6
CONTINUOUS
 62
5
 10
0.0
 20
-0.0
 11
-19.229849241283915
 21
-7.965264358129774
  0
LINE
  8
MountainLine
  6
CONTINUOUS
 62
1
 10
0.0
 20
-0.0
 11
-19.22984924128392
 21
-2.208982204555919E-15
  0
LINE
  8
ValleyLine
  6
CONTINUOUS
 62
5
 10
-19.229849241283922
 20
7.965264358129766
 11
-19.229849241283915
 21
-7.965264358129774
  0
LINE
  8
MountainLine
  6
CONTINUOUS
 62
1
 10
-19.229849241283922
 20
7.965264358129766
 11
-19.22984924128392
 21
-4.855949791871433E-15
  0
LINE
  8
ValleyLine
  6
CONTINUOUS
 62
5
 10
-19.22984924128392
 20
-4.855949791871433E-15
 11
-16.413703020495383
 21
-6.798778399853426
  0
LINE
  8
MountainLine
  6
CONTINUOUS
 62
1
 10
-19.229849241283915
 20
-7.965264358129774
 11
-19.22984924128392
 21
-2.208982204555919E-15
  0
LINE
  8
ValleyLine
  6
CONTINUOUS
 62
5
 10
-19.22984924128392
 20
-2.208982204555919E-15
 11
-16.413703020495383
 21
6.798778399853421
  0
LINE
  8
ValleyLine
  6
CONTINUOUS
 62
5
 10
-19.229849241283922
 20
7.965264358129766
 11
-19.229849241283922
 21
7.965264358129766
  0
LINE
  8
MountainLine
  6
CONTINUOUS
 62
1
 10
-19.22984924128392
 20
-4.855949791871433E-15
 11
-19.22984924128392
 21
-4.855949791871433E-15
  0
LINE
  8
ValleyLine
  6
CONTINUOUS
 62
5
 10
-19.229849241283915
 20
-7.965264358129774
 11
-19.229849241283915
 21
-7.965264358129774
  0
LINE
  8
MountainLine
  6
CONTINUOUS
 62
1
 10
-19.22984924128392
 20
-2.208982204555919E-15
 11
-19.22984924128392
 21
-2.208982204555919E-15
  0
LINE
  8
ValleyLine
  6
CONTINUOUS
 62
5
 10
-19.229849241283922
 20
7.965264358129766
 11
-19.229849241283915
 21
-7.965264358129774
  0
LINE
  8
MountainLine
  6
CONTINUOUS
 62
1
 10
-19.229849241283922
 20
7.965264358129766
 11
-19.22984924128392
 21
-4.855949791871433E-15
  0
LINE
  8
ValleyLine
  6
CONTINUOUS
 62
5
 10
-19.22984924128392
 20
-4.855949791871433E-15
 11
-16.413703020495383
 21
-6.798778399853426
  0
LINE
  8
MountainLine
  6
CONTINUOUS
 62
1
 10
-19.229849241283915
 20
-7.965264358129774
 11
-19.22984924128392
 21
-2.208982204555919E-15
  0
LINE
  8
ValleyLine
  6
CONTINUOUS
 62
5
 10
-19.22984924128392
 20
-2.208982204555919E-15
 11
-16.413703020495383
 21
6.798778399853421
  0
LINE
  8
ValleyLine
  6
CONTINUOUS
 62
5
 10
-19.229849241283922
 20
7.965264358129766
 11
-63.156553202325725
 21
-10.228123550780285
  0
LINE
  8
MountainLine
  6
CONTINUOUS
 62
1
 10
-19.22984924128392
 20
-4.855949791871433E-15
 11
-63.156553202325725
 21
-18.194212219960768
  0
LINE
  8
ValleyLine
  6
CONTINUOUS
 62
5
 10
-19.229849241283915
 20
-7.965264358129774
 11
-63.156553202325725
 21
10.22812355078026
  0
LINE
  8
MountainLine
  6
CONTINUOUS
 62
1
 10
-19.22984924128392
 20
-2.208982204555919E-15
 11
-63.156553202325725
 21
18.194212219960747
  0
LINE
  8
MountainLine
  6
CONTINUOUS
 62
1
 10
-63.156553202325725
 20
-10.228123550780285
 11
-63.156553202325725
 21
10.22812355078026
  0
LINE
  8
ValleyLine
  6
CONTINUOUS
 62
5
 10
-63.156553202325725
 20
-10.228123550780285
 11
-63.156553202325725
 21
-18.194212219960768
  0
LINE
  8
MountainLine
  6
CONTINUOUS
 62
1
 10
-63.156553202325725
 20
-18.194212219960768
 11
-60.340115543570306
 21
-24.99369421330643
  0
LINE
  8
ValleyLine
  6
CONTINUOUS
 62
5
 10
-63.156553202325725
 20
10.22812355078026
 11
-63.156553202325725
 21
18.194212219960747
  0
LINE
  8
MountainLine
  6
CONTINUOUS
 62
1
 10
-63.156553202325725
 20
18.194212219960747
 11
-60.340115543570306
 21
24.99369421330641
  0
LINE
  8
ValleyLine
  6
CONTINUOUS
 62
5
 10
-63.156553202325725
 20
-10.228123550780285
 11
-194.93666508545115
 21
-64.80828727751043
  0
LINE
  8
MountainLine
  6
CONTINUOUS
 62
1
 10
-63.156553202325725
 20
-18.194212219960768
 11
-194.93666508545115
 21
-72.77684887984306
  0
LINE
  8
ValleyLine
  6
CONTINUOUS
 62
5
 10
-63.156553202325725
 20
10.22812355078026
 11
-194.93666508545115
 21
64.80828727751036
  0
LINE
  8
MountainLine
  6
CONTINUOUS
 62
1
 10
-63.156553202325725
 20
18.194212219960747
 11
-194.93666508545115
 21
72.776848879843
  0
LINE
  8
MountainLine
  6
CONTINUOUS
 62
1
 10
-194.93666508545115
 20
-64.80828727751043
 11
-194.93666508545115
 21
64.80828727751036
  0
LINE
  8
ValleyLine
  6
CONTINUOUS
 62
5
 10
-194.93666508545115
 20
-64.80828727751043
 11
-194.93666508545115
 21
-72.77684887984306
  0
LINE
  8
MountainLine
  6
CONTINUOUS
 62
1
 10
-194.93666508545115
 20
-72.77684887984306
 11
-192.1193531127951
 21
-79.57844165366545
  0
LINE
  8
ValleyLine
  6
CONTINUOUS
 62
5
 10
-194.93666508545115
 20
64.80828727751036
 11
-194.93666508545115
 21
72.776848879843
  0
LINE
  8
MountainLine
  6
CONTINUOUS
 62
1
 10
-194.93666508545115
 20
72.776848879843
 11
-192.1193531127951
 21
79.57844165366538
  0
LINE
  8
ValleyLine
  6
CONTINUOUS
 62
5
 10
-194.93666508545115
 20
-64.80828727751043
 11
-360.11183198881554
 21
-133.22583496729843
  0
LINE
  8
MountainLine
  6
CONTINUOUS
 62
1
 10
-194.93666508545115
 20
-72.77684887984306
 11
-360.11183198881554
 21
-141.19451987404364
  0
LINE
  8
ValleyLine
  6
CONTINUOUS
 62
5
 10
-194.93666508545115
 20
64.80828727751036
 11
-360.11183198881565
 21
133.2258349672983
  0
LINE
  8
MountainLine
  6
CONTINUOUS
 62
1
 10
-194.93666508545115
 20
72.776848879843
 11
-360.11183198881565
 21
141.1945198740435
  0
LINE
  8
MountainLine
  6
CONTINUOUS
 62
1
 10
-360.11183198881554
 20
-133.22583496729843
 11
-360.11183198881565
 21
133.2258349672983
  0
LINE
  8
ValleyLine
  6
CONTINUOUS
 62
5
 10
-360.11183198881554
 20
-133.22583496729843
 11
-360.11183198881554
 21
-141.19451987404364
  0
LINE
  8
MountainLine
  6
CONTINUOUS
 62
1
 10
-360.11183198881554
 20
-141.19451987404364
 11
-357.29447642146636
 21
-147.99621789476546
  0
LINE
  8
ValleyLine
  6
CONTINUOUS
 62
5
 10
-360.11183198881565
 20
133.2258349672983
 11
-360.11183198881565
 21
141.1945198740435
  0
LINE
  8
MountainLine
  6
CONTINUOUS
 62
1
 10
-360.11183198881565
 20
141.1945198740435
 11
-357.2944764214664
 21
147.99621789476532
  0
LINE
  8
ValleyLine
  6
CONTINUOUS
 62
5
 10
-360.11183198881554
 20
-133.22583496729843
 11
-504.293850964617
 21
-192.93137476538197
  0
LINE
  8
MountainLine
  6
CONTINUOUS
 62
1
 10
-360.11183198881554
 20
-141.19451987404364
 11
-504.293850964617
 21
-200.9083636281414
  0
LINE
  8
ValleyLine
  6
CONTINUOUS
 62
5
 10
-360.11183198881565
 20
133.2258349672983
 11
-504.293850964617
 21
192.9313747653818
  0
LINE
  8
MountainLine
  6
CONTINUOUS
 62
1
 10
-360.11183198881565
 20
141.1945198740435
 11
-504.293850964617
 21
200.90836362814125
  0
LINE
  8
MountainLine
  6
CONTINUOUS
 62
1
 10
-504.293850964617
 20
-192.93137476538197
 11
-504.293850964617
 21
192.9313747653818
  0
LINE
  8
ValleyLine
  6
CONTINUOUS
 62
5
 10
-504.293850964617
 20
-192.93137476538197
 11
-504.293850964617
 21
-200.9083636281414
  0
LINE
  8
MountainLine
  6
CONTINUOUS
 62
1
 10
-504.293850964617
 20
-200.9083636281414
 11
-501.47355950546364
 21
-207.7171495186745
  0
LINE
  8
ValleyLine
  6
CONTINUOUS
 62
5
 10
-504.293850964617
 20
192.9313747653818
 11
-504.293850964617
 21
200.90836362814125
  0
LINE
  8
MountainLine
  6
CONTINUOUS
 62
1
 10
-504.293850964617
 20
200.90836362814125
 11
-501.47355950546364
 21
207.71714951867432
  0
LINE
  8
ValleyLine
  6
CONTINUOUS
 62
5
 10
-504.293850964617
 20
-192.93137476538197
 11
-617.2592297148491
 21
-239.56890272590888
  0
LINE
  8
MountainLine
  6
CONTINUOUS
 62
1
 10
-504.293850964617
 20
-200.9083636281414
 11
-617.2592297148491
 21
-247.62302358688464
  0
LINE
  8
ValleyLine
  6
CONTINUOUS
 62
5
 10
-504.293850964617
 20
192.9313747653818
 11
-617.2592297148493
 21
239.56890272590863
  0
LINE
  8
MountainLine
  6
CONTINUOUS
 62
1
 10
-504.293850964617
 20
200.90836362814125
 11
-617.2592297148493
 21
247.62302358688441
  0
LINE
  8
MountainLine
  6
CONTINUOUS
 62
1
 10
-617.2592297148491
 20
-239.56890272590888
 11
-617.2592297148493
 21
239.56890272590863
  0
LINE
  8
ValleyLine
  6
CONTINUOUS
 62
5
 10
-617.2592297148491
 20
-239.56890272590888
 11
-617.2592297148491
 21
-247.62302358688464
  0
LINE
  8
MountainLine
  6
CONTINUOUS
 62
1
 10
-617.2592297148491
 20
-247.62302358688464
 11
-614.4116679762031
 21
-254.49764575601853
  0
LINE
  8
ValleyLine
  6
CONTINUOUS
 62
5
 10
-617.2592297148493
 20
239.56890272590863
 11
-617.2592297148493
 21
247.62302358688441
  0
LINE
  8
MountainLine
  6
CONTINUOUS
 62
1
 10
-617.2592297148493
 20
247.62302358688441
 11
-614.4116679762033
 21
254.49764575601827
  0
LINE
  8
ValleyLine
  6
CONTINUOUS
 62
5
 10
-617.2592297148491
 20
-239.56890272590888
 11
-689.7723671500223
 21
-268.78241490302685
  0
LINE
  8
MountainLine
  6
CONTINUOUS
 62
1
 10
-617.2592297148491
 20
-247.62302358688464
 11
-689.7723671500223
 21
-277.2477421633801
  0
LINE
  8
ValleyLine
  6
CONTINUOUS
 62
5
 10
-617.2592297148493
 20
239.56890272590863
 11
-689.7723671500225
 21
268.7824149030266
  0
LINE
  8
MountainLine
  6
CONTINUOUS
 62
1
 10
-617.2592297148493
 20
247.62302358688441
 11
-689.7723671500225
 21
277.2477421633799
  0
LINE
  8
MountainLine
  6
CONTINUOUS
 62
1
 10
-689.7723671500223
 20
-268.78241490302685
 11
-689.7723671500225
 21
268.7824149030266
  0
LINE
  8
ValleyLine
  6
CONTINUOUS
 62
5
 10
-689.7723671500223
 20
-268.78241490302685
 11
-689.7723671500223
 21
-277.2477421633801
  0
LINE
  8
MountainLine
  6
CONTINUOUS
 62
1
 10
-689.7723671500223
 20
-277.2477421633801
 11
-686.7794219946428
 21
-284.47335094893634
  0
LINE
  8
ValleyLine
  6
CONTINUOUS
 62
5
 10
-689.7723671500225
 20
268.7824149030266
 11
-689.7723671500225
 21
277.2477421633799
  0
LINE
  8
MountainLine
  6
CONTINUOUS
 62
1
 10
-689.7723671500225
 20
277.2477421633799
 11
-686.7794219946429
 21
284.47335094893606
  0
LINE
  8
ValleyLine
  6
CONTINUOUS
 62
5
 10
-689.7723671500223
 20
-268.78241490302685
 11
-732.9020626748498
 21
-284.0906573413075
  0
LINE
  8
MountainLine
  6
CONTINUOUS
 62
1
 10
-689.7723671500223
 20
-277.2477421633801
 11
-732.9020626748498
 21
-293.83431579622334
  0
LINE
  8
ValleyLine
  6
CONTINUOUS
 62
5
 10
-689.7723671500225
 20
268.7824149030266
 11
-732.9020626748501
 21
284.09065734130724
  0
LINE
  8
MountainLine
  6
CONTINUOUS
 62
1
 10
-689.7723671500225
 20
277.2477421633799
 11
-732.9020626748501
 21
293.83431579622305
  0
LINE
  8
MountainLine
  6
CONTINUOUS
 62
1
 10
-732.9020626748498
 20
-284.0906573413075
 11
-732.9020626748501
 21
284.09065734130724
  0
LINE
  8
ValleyLine
  6
CONTINUOUS
 62
5
 10
-732.9020626748498
 20
-284.0906573413075
 11
-732.9020626748498
 21
-293.83431579622334
  0
LINE
  8
MountainLine
  6
CONTINUOUS
 62
1
 10
-732.9020626748498
 20
-293.83431579622334
 11
-729.4571591913316
 21
-302.15104850719956
  0
LINE
  8
ValleyLine
  6
CONTINUOUS
 62
5
 10
-732.9020626748501
 20
284.09065734130724
 11
-732.9020626748501
 21
293.83431579622305
  0
LINE
  8
MountainLine
  6
CONTINUOUS
 62
1
 10
-732.9020626748501
 20
293.83431579622305
 11
-729.4571591913317
 21
302.1510485071993
  0
LINE
  8
ValleyLine
  6
CONTINUOUS
 62
5
 10
-732.9020626748498
 20
-284.0906573413075
 11
-786.6519175847742
 21
-300.5077007839869
  0
LINE
  8
MountainLine
  6
CONTINUOUS
 62
1
 10
-732.9020626748498
 20
-293.83431579622334
 11
-786.6519175847742
 21
-313.17479695720135
  0
LINE
  8
ValleyLine
  6
CONTINUOUS
 62
5
 10
-732.9020626748501
 20
284.09065734130724
 11
-786.6519175847742
 21
300.50770078398665
  0
LINE
  8
MountainLine
  6
CONTINUOUS
 62
1
 10
-732.9020626748501
 20
293.83431579622305
 11
-786.6519175847742
 21
313.1747969572011
  0
LINE
  8
MountainLine
  6
CONTINUOUS
 62
1
 10
-786.6519175847742
 20
-300.5077007839869
 11
-786.6519175847742
 21
300.50770078398665
  0
LINE
  8
ValleyLine
  6
CONTINUOUS
 62
5
 10
-786.6519175847742
 20
-300.5077007839869
 11
-786.6519175847742
 21
-313.17479695720135
  0
LINE
  8
MountainLine
  6
CONTINUOUS
 62
1
 10
-786.6519175847742
 20
-313.17479695720135
 11
-782.1734227837632
 21
-323.9868398448196
  0
LINE
  8
ValleyLine
  6
CONTINUOUS
 62
5
 10
-786.6519175847742
 20
300.50770078398665
 11
-786.6519175847742
 21
313.1747969572011
  0
LINE
  8
MountainLine
  6
CONTINUOUS
 62
1
 10
-786.6519175847742
 20
313.1747969572011
 11
-782.1734227837632
 21
323.9868398448194
  0
LINE
  8
ValleyLine
  6
CONTINUOUS
 62
5
 10
-786.6519175847742
 20
-300.5077007839869
 11
-822.9842939420964
 21
-298.3353559590425
  0
LINE
  8
MountainLine
  6
CONTINUOUS
 62
1
 10
-786.6519175847742
 20
-313.17479695720135
 11
-822.9842939420964
 21
-319.6133060649524
  0
LINE
  8
ValleyLine
  6
CONTINUOUS
 62
5
 10
-786.6519175847742
 20
300.50770078398665
 11
-822.9842939420964
 21
298.33535595904215
  0
LINE
  8
MountainLine
  6
CONTINUOUS
 62
1
 10
-786.6519175847742
 20
313.1747969572011
 11
-822.9842939420964
 21
319.61330606495204
  0
LINE
  8
MountainLine
  6
CONTINUOUS
 62
1
 10
-822.9842939420964
 20
-298.3353559590425
 11
-822.9842939420964
 21
298.33535595904215
  0
LINE
  8
ValleyLine
  6
CONTINUOUS
 62
5
 10
-822.9842939420964
 20
-298.3353559590425
 11
-822.9842939420964
 21
-319.6133060649524
  0
LINE
  8
MountainLine
  6
CONTINUOUS
 62
1
 10
-822.9842939420964
 20
-319.6133060649524
 11
-815.4614025372775
 21
-337.7751725227263
  0
LINE
  8
ValleyLine
  6
CONTINUOUS
 62
5
 10
-822.9842939420964
 20
298.33535595904215
 11
-822.9842939420964
 21
319.61330606495204
  0
LINE
  8
MountainLine
  6
CONTINUOUS
 62
1
 10
-822.9842939420964
 20
319.61330606495204
 11
-815.4614025372775
 21
337.77517252272594
  0
LINE
  8
ValleyLine
  6
CONTINUOUS
 62
5
 10
-822.9842939420964
 20
-298.3353559590425
 11
-862.9860175642415
 21
-289.6459766592646
  0
LINE
  8
MountainLine
  6
CONTINUOUS
 62
1
 10
-822.9842939420964
 20
-319.6133060649524
 11
-862.9860175642415
 21
-323.55324463635975
  0
LINE
  8
ValleyLine
  6
CONTINUOUS
 62
5
 10
-822.9842939420964
 20
298.33535595904215
 11
-862.9860175642415
 21
289.64597665926425
  0
LINE
  8
MountainLine
  6
CONTINUOUS
 62
1
 10
-822.9842939420964
 20
319.61330606495204
 11
-862.9860175642415
 21
323.5532446363594
  0
LINE
  8
MountainLine
  6
CONTINUOUS
 62
1
 10
-862.9860175642415
 20
-289.6459766592646
 11
-862.9860175642415
 21
289.64597665926425
  0
LINE
  8
ValleyLine
  6
CONTINUOUS
 62
5
 10
-862.9860175642415
 20
-289.6459766592646
 11
-862.9860175642415
 21
-323.55324463635975
  0
LINE
  8
MountainLine
  6
CONTINUOUS
 62
1
 10
-862.9860175642415
 20
-323.55324463635975
 11
-850.9979880051848
 21
-352.49490818396407
  0
LINE
  8
ValleyLine
  6
CONTINUOUS
 62
5
 10
-862.9860175642415
 20
289.64597665926425
 11
-862.9860175642415
 21
323.5532446363594
  0
LINE
  8
MountainLine
  6
CONTINUOUS
 62
1
 10
-862.9860175642415
 20
323.5532446363594
 11
-850.9979880051848
 21
352.49490818396373
  0
LINE
  8
ValleyLine
  6
CONTINUOUS
 62
5
 10
-862.9860175642415
 20
-289.6459766592646
 11
-895.3505146936491
 21
-276.61190770959763
  0
LINE
  8
MountainLine
  6
CONTINUOUS
 62
1
 10
-862.9860175642415
 20
-323.55324463635975
 11
-895.3505146936491
 21
-323.7391169867192
  0
LINE
  8
ValleyLine
  6
CONTINUOUS
 62
5
 10
-862.9860175642415
 20
289.64597665926425
 11
-895.3505146936491
 21
276.6119077095973
  0
LINE
  8
MountainLine
  6
CONTINUOUS
 62
1
 10
-862.9860175642415
 20
323.5532446363594
 11
-895.3505146936491
 21
323.73911698671884
  0
LINE
  8
MountainLine
  6
CONTINUOUS
 62
1
 10
-895.3505146936491
 20
-276.61190770959763
 11
-895.3505146936491
 21
276.6119077095973
  0
LINE
  8
ValleyLine
  6
CONTINUOUS
 62
5
 10
-895.3505146936491
 20
-276.61190770959763
 11
-895.3505146936491
 21
-323.7391169867192
  0
LINE
  8
MountainLine
  6
CONTINUOUS
 62
1
 10
-895.3505146936491
 20
-323.7391169867192
 11
-878.6885300645239
 21
-363.96470625440503
  0
LINE
  8
ValleyLine
  6
CONTINUOUS
 62
5
 10
-895.3505146936491
 20
276.6119077095973
 11
-895.3505146936491
 21
323.73911698671884
  0
LINE
  8
MountainLine
  6
CONTINUOUS
 62
1
 10
-895.3505146936491
 20
323.73911698671884
 11
-878.6885300645239
 21
363.9647062544047
  0
LINE
  8
ValleyLine
  6
CONTINUOUS
 62
5
 10
-895.3505146936491
 20
-276.61190770959763
 11
-958.6133431396771
 21
-250.40799825870485
  0
LINE
  8
MountainLine
  6
CONTINUOUS
 62
1
 10
-895.3505146936491
 20
-323.7391169867192
 11
-958.6133431396771
 21
-323.7393230294864
  0
LINE
  8
ValleyLine
  6
CONTINUOUS
 62
5
 10
-895.3505146936491
 20
276.6119077095973
 11
-958.6133431396771
 21
250.4079982587045
  0
LINE
  8
MountainLine
  6
CONTINUOUS
 62
1
 10
-895.3505146936491
 20
323.73911698671884
 11
-958.6133431396771
 21
323.73932302948606
  0
LINE
  8
ValleyLine
  6
CONTINUOUS
 62
5
 10
-958.6133431396771
 20
-250.40799825870485
 11
-958.6133431396771
 21
250.4079982587045
  0
LINE
  8
MountainLine
  6
CONTINUOUS
 62
1
 10
-958.6133431396771
 20
-250.40799825870485
 11
-958.6133431396771
 21
-323.7393230294864
  0
LINE
  8
ValleyLine
  6
CONTINUOUS
 62
5
 10
-958.6133431396771
 20
-323.7393230294864
 11
-932.6868046302708
 21
-386.3315239242835
  0
LINE
  8
MountainLine
  6
CONTINUOUS
 62
1
 10
-958.6133431396771
 20
250.4079982587045
 11
-958.6133431396771
 21
323.73932302948606
  0
LINE
  8
ValleyLine
  6
CONTINUOUS
 62
5
 10
-958.6133431396771
 20
323.73932302948606
 11
-932.6868046302708
 21
386.33152392428315
  0
LINE
  8
ValleyLine
  6
CONTINUOUS
 62
5
 10
-958.6133431396771
 20
-250.40799825870485
 11
-1035.1044485567938
 21
-218.97688407278932
  0
LINE
  8
MountainLine
  6
CONTINUOUS
 62
1
 10
-958.6133431396771
 20
-323.7393230294864
 11
-1035.1044485567938
 21
-323.8655925688686
  0
LINE
  8
ValleyLine
  6
CONTINUOUS
 62
5
 10
-958.6133431396771
 20
250.4079982587045
 11
-1035.1044485567938
 21
218.97688407278898
  0
LINE
  8
MountainLine
  6
CONTINUOUS
 62
1
 10
-958.6133431396771
 20
323.73932302948606
 11
-1035.1044485567938
 21
323.86559256886824
  0
LINE
  8
MountainLine
  6
CONTINUOUS
 62
1
 10
-1035.1044485567938
 20
-218.97688407278932
 11
-1035.1044485567938
 21
218.97688407278898
  0
LINE
  8
ValleyLine
  6
CONTINUOUS
 62
5
 10
-1035.1044485567938
 20
-218.97688407278932
 11
-1035.1044485567938
 21
-323.8655925688686
  0
LINE
  8
MountainLine
  6
CONTINUOUS
 62
1
 10
-1035.1044485567938
 20
-323.8655925688686
 11
-998.0206900330554
 21
-413.39370534064653
  0
LINE
  8
ValleyLine
  6
CONTINUOUS
 62
5
 10
-1035.1044485567938
 20
218.97688407278898
 11
-1035.1044485567938
 21
323.86559256886824
  0
LINE
  8
MountainLine
  6
CONTINUOUS
 62
1
 10
-1035.1044485567938
 20
323.86559256886824
 11
-998.0206900330554
 21
413.3937053406462
  0
LINE
  8
ValleyLine
  6
CONTINUOUS
 62
5
 10
-1035.1044485567938
 20
-218.97688407278932
 11
-1144.9729059428612
 21
-173.47078570858775
  0
LINE
  8
MountainLine
  6
CONTINUOUS
 62
1
 10
-1035.1044485567938
 20
-323.8655925688686
 11
-1144.9729059428612
 21
-323.8670459499276
  0
LINE
  8
ValleyLine
  6
CONTINUOUS
 62
5
 10
-1035.1044485567938
 20
218.97688407278898
 11
-1144.9729059428612
 21
173.47078570858736
  0
LINE
  8
MountainLine
  6
CONTINUOUS
 62
1
 10
-1035.1044485567938
 20
323.86559256886824
 11
-1144.9729059428612
 21
323.8670459499272
  0
LINE
  8
ValleyLine
  6
CONTINUOUS
 62
5
 10
-1144.9729059428612
 20
-173.47078570858775
 11
-1144.9729059428612
 21
173.47078570858736
  0
LINE
  8
MountainLine
  6
CONTINUOUS
 62
1
 10
-1144.9729059428612
 20
-173.47078570858775
 11
-1144.9729059428612
 21
-323.8670459499276
  0
LINE
  8
ValleyLine
  6
CONTINUOUS
 62
5
 10
-1144.9729059428612
 20
-323.8670459499276
 11
-1091.799798201987
 21
-452.2382838114716
  0
LINE
  8
MountainLine
  6
CONTINUOUS
 62
1
 10
-1144.9729059428612
 20
173.47078570858736
 11
-1144.9729059428612
 21
323.8670459499272
  0
LINE
  8
ValleyLine
  6
CONTINUOUS
 62
5
 10
-1144.9729059428612
 20
323.8670459499272
 11
-1091.799798201987
 21
452.23828381147126
  0
LINE
  8
ValleyLine
  6
CONTINUOUS
 62
5
 10
-1144.9729059428612
 20
-173.47078570858775
 11
-1275.3474365789286
 21
-119.58079403561607
  0
LINE
  8
MountainLine
  6
CONTINUOUS
 62
1
 10
-1144.9729059428612
 20
-323.8670459499276
 11
-1275.3474365789286
 21
-323.92349950218465
  0
LINE
  8
ValleyLine
  6
CONTINUOUS
 62
5
 10
-1144.9729059428612
 20
173.47078570858736
 11
-1275.3474365789286
 21
119.58079403561561
  0
LINE
  8
MountainLine
  6
CONTINUOUS
 62
1
 10
-1144.9729059428612
 20
323.8670459499272
 11
-1275.3474365789286
 21
323.92349950218414
  0
LINE
  8
ValleyLine
  6
CONTINUOUS
 62
5
 10
-1275.3474365789286
 20
-119.58079403561607
 11
-1275.3474365789286
 21
119.58079403561561
  0
LINE
  8
MountainLine
  6
CONTINUOUS
 62
1
 10
-1275.3474365789286
 20
-119.58079403561607
 11
-1275.3474365789286
 21
-323.92349950218465
  0
LINE
  8
ValleyLine
  6
CONTINUOUS
 62
5
 10
-1275.3474365789286
 20
-323.92349950218465
 11
-1203.1013802182204
 21
-498.3409085961769
  0
LINE
  8
MountainLine
  6
CONTINUOUS
 62
1
 10
-1275.3474365789286
 20
119.58079403561561
 11
-1275.3474365789286
 21
323.92349950218414
  0
LINE
  8
ValleyLine
  6
CONTINUOUS
 62
5
 10
-1275.3474365789286
 20
323.92349950218414
 11
-1203.1013802182208
 21
498.3409085961764
  0
LINE
  8
ValleyLine
  6
CONTINUOUS
 62
5
 10
-1275.3474365789286
 20
-119.58079403561607
 11
-1415.4662917819185
 21
-62.997999923390275
  0
LINE
  8
MountainLine
  6
CONTINUOUS
 62
1
 10
-1275.3474365789286
 20
-323.92349950218465
 11
-1415.4662917819185
 21
-324.65166753070685
  0
LINE
  8
ValleyLine
  6
CONTINUOUS
 62
5
 10
-1275.3474365789286
 20
119.58079403561561
 11
-1415.4662917819185
 21
62.99799992338975
  0
LINE
  8
MountainLine
  6
CONTINUOUS
 62
1
 10
-1275.3474365789286
 20
323.92349950218414
 11
-1415.4662917819185
 21
324.65166753070633
  0
LINE
  8
ValleyLine
  6
CONTINUOUS
 62
5
 10
-1415.4662917819185
 20
-62.997999923390275
 11
-1415.4662917819185
 21
62.99799992338975
  0
LINE
  8
MountainLine
  6
CONTINUOUS
 62
1
 10
-1415.4662917819185
 20
-62.997999923390275
 11
-1415.4662917819185
 21
-324.65166753070685
  0
LINE
  8
ValleyLine
  6
CONTINUOUS
 62
5
 10
-1415.4662917819185
 20
-324.65166753070685
 11
-1322.957750438186
 21
-547.9870426780973
  0
LINE
  8
MountainLine
  6
CONTINUOUS
 62
1
 10
-1415.4662917819185
 20
62.99799992338975
 11
-1415.4662917819185
 21
324.65166753070633
  0
LINE
  8
ValleyLine
  6
CONTINUOUS
 62
5
 10
-1415.4662917819185
 20
324.65166753070633
 11
-1322.9577504381864
 21
547.9870426780967
  0
LINE
  8
ValleyLine
  6
CONTINUOUS
 62
5
 10
-1415.4662917819185
 20
-62.997999923390275
 11
-1580.2379542178667
 21
-2.902850028786108E-13
  0
LINE
  8
MountainLine
  6
CONTINUOUS
 62
1
 10
-1415.4662917819185
 20
-324.65166753070685
 11
-1580.2379542178667
 21
-327.27799620687756
  0
LINE
  8
ValleyLine
  6
CONTINUOUS
 62
5
 10
-1415.4662917819185
 20
62.99799992338975
 11
-1580.2379542178667
 21
-2.902850028786108E-13
  0
LINE
  8
MountainLine
  6
CONTINUOUS
 62
1
 10
-1415.4662917819185
 20
324.65166753070633
 11
-1580.2379542178667
 21
327.27799620687694
  0
LINE
  8
ValleyLine
  6
CONTINUOUS
 62
5
 10
-1580.2379542178667
 20
-2.902850028786108E-13
 11
-1580.2379542178667
 21
-2.902850028786108E-13
  0
LINE
  8
MountainLine
  6
CONTINUOUS
 62
1
 10
-1580.2379542178667
 20
-2.902850028786108E-13
 11
-1580.2379542178667
 21
-327.27799620687756
  0
LINE
  8
ValleyLine
  6
CONTINUOUS
 62
5
 10
-1580.2379542178667
 20
-327.27799620687756
 11
-1464.5277089923527
 21
-606.6272395358301
  0
LINE
  8
MountainLine
  6
CONTINUOUS
 62
1
 10
-1580.2379542178667
 20
-2.902850028786108E-13
 11
-1580.2379542178667
 21
327.27799620687694
  0
LINE
  8
ValleyLine
  6
CONTINUOUS
 62
5
 10
-1580.2379542178667
 20
327.27799620687694
 11
-1464.527708992353
 21
606.6272395358296
  0
LINE
  8
ValleyLine
  6
CONTINUOUS
 62
5
 10
-1580.2379542178667
 20
-2.902850028786108E-13
 11
-2301.167499202049
 21
-4.2271761182995626E-13
  0
LINE
  8
MountainLine
  6
CONTINUOUS
 62
1
 10
-1580.2379542178667
 20
-327.27799620687756
 11
-2301.167499202049
 21
-476.587393730834
  0
LINE
  8
ValleyLine
  6
CONTINUOUS
 62
5
 10
-1580.2379542178667
 20
-2.902850028786108E-13
 11
-2301.167499202049
 21
-4.2271761182995626E-13
  0
LINE
  8
MountainLine
  6
CONTINUOUS
 62
1
 10
-1580.2379542178667
 20
327.27799620687694
 11
-2301.167499202049
 21
476.5873937308331
  0
LINE
  8
CutLine
  6
CONTINUOUS
 62
250
 10
-2301.167499202049
 20
-4.2271761182995626E-13
 11
-2301.167499202049
 21
-4.2271761182995626E-13
  0
LINE
  8
CutLine
  6
CONTINUOUS
 62
250
 10
-2301.167499202049
 20
-4.2271761182995626E-13
 11
-2301.167499202049
 21
-476.587393730834
  0
LINE
  8
CutLine
  6
CONTINUOUS
 62
250
 10
-2301.167499202049
 20
-476.587393730834
 11
-2132.668410234501
 21
-883.3801795637985
  0
LINE
  8
CutLine
  6
CONTINUOUS
 62
250
 10
-2301.167499202049
 20
-4.2271761182995626E-13
 11
-2301.167499202049
 21
476.5873937308331
  0
LINE
  8
CutLine
  6
CONTINUOUS
 62
250
 10
-2301.167499202049
 20
476.5873937308331
 11
-2132.668410234501
 21
883.3801795637978
  0
LINE
  8
ValleyLine
  6
CONTINUOUS
 62
5
 10
0.0
 20
-0.0
 11
-7.965264358129777
 21
19.229849241283915
  0
LINE
  8
MountainLine
  6
CONTINUOUS
 62
1
 10
0.0
 20
-0.0
 11
-13.597556799706847
 21
13.597556799706842
  0
LINE
  8
ValleyLine
  6
CONTINUOUS
 62
5
 10
0.0
 20
-0.0
 11
-19.22984924128392
 21
7.965264358129769
  0
LINE
  8
MountainLine
  6
CONTINUOUS
 62
1
 10
0.0
 20
-0.0
 11
-13.597556799706847
 21
13.597556799706842
  0
LINE
  8
ValleyLine
  6
CONTINUOUS
 62
5
 10
-7.965264358129777
 20
19.229849241283915
 11
-19.22984924128392
 21
7.965264358129769
  0
LINE
  8
MountainLine
  6
CONTINUOUS
 62
1
 10
-7.965264358129777
 20
19.229849241283915
 11
-13.597556799706847
 21
13.597556799706842
  0
LINE
  8
ValleyLine
  6
CONTINUOUS
 62
5
 10
-13.597556799706847
 20
13.597556799706842
 11
-16.413703020495387
 21
6.7987783998534175
  0
LINE
  8
MountainLine
  6
CONTINUOUS
 62
1
 10
-19.22984924128392
 20
7.965264358129769
 11
-13.597556799706847
 21
13.597556799706842
  0
LINE
  8
ValleyLine
  6
CONTINUOUS
 62
5
 10
-13.597556799706847
 20
13.597556799706842
 11
-6.798778399853424
 21
16.413703020495383
  0
LINE
  8
ValleyLine
  6
CONTINUOUS
 62
5
 10
-7.965264358129777
 20
19.229849241283915
 11
-7.965264358129777
 21
19.229849241283915
  0
LINE
  8
MountainLine
  6
CONTINUOUS
 62
1
 10
-13.597556799706847
 20
13.597556799706842
 11
-13.597556799706847
 21
13.597556799706842
  0
LINE
  8
ValleyLine
  6
CONTINUOUS
 62
5
 10
-19.22984924128392
 20
7.965264358129769
 11
-19.22984924128392
 21
7.965264358129769
  0
LINE
  8
MountainLine
  6
CONTINUOUS
 62
1
 10
-13.597556799706847
 20
13.597556799706842
 11
-13.597556799706847
 21
13.597556799706842
  0
LINE
  8
ValleyLine
  6
CONTINUOUS
 62
5
 10
-7.965264358129777
 20
19.229849241283915
 11
-19.22984924128392
 21
7.965264358129769
  0
LINE
  8
MountainLine
  6
CONTINUOUS
 62
1
 10
-7.965264358129777
 20
19.229849241283915
 11
-13.597556799706847
 21
13.597556799706842
  0
LINE
  8
ValleyLine
  6
CONTINUOUS
 62
5
 10
-13.597556799706847
 20
13.597556799706842
 11
-16.413703020495387
 21
6.7987783998534175
  0
LINE
  8
MountainLine
  6
CONTINUOUS
 62
1
 10
-19.22984924128392
 20
7.965264358129769
 11
-13.597556799706847
 21
13.597556799706842
  0
LINE
  8
ValleyLine
  6
CONTINUOUS
 62
5
 10
-13.597556799706847
 20
13.597556799706842
 11
-6.798778399853424
 21
16.413703020495383
  0
LINE
  8
ValleyLine
  6
CONTINUOUS
 62
5
 10
-7.965264358129777
 20
19.229849241283915
 11
-51.89080256730405
 21
37.42605152416291
  0
LINE
  8
MountainLine
  6
CONTINUOUS
 62
1
 10
-13.597556799706847
 20
13.597556799706842
 11
-57.52367788481489
 21
31.79317620665207
  0
LINE
  8
ValleyLine
  6
CONTINUOUS
 62
5
 10
-19.22984924128392
 20
7.965264358129769
 11
-37.426051524162936
 21
51.890802567304036
  0
LINE
  8
MountainLine
  6
CONTINUOUS
 62
1
 10
-13.597556799706847
 20
13.597556799706842
 11
-31.79317620665209
 21
57.523677884814866
  0
LINE
  8
MountainLine
  6
CONTINUOUS
 62
1
 10
-51.89080256730405
 20
37.42605152416291
 11
-37.426051524162936
 21
51.890802567304036
  0
LINE
  8
ValleyLine
  6
CONTINUOUS
 62
5
 10
-51.89080256730405
 20
37.42605152416291
 11
-57.52367788481489
 21
31.79317620665207
  0
LINE
  8
MountainLine
  6
CONTINUOUS
 62
1
 10
-57.52367788481489
 20
31.79317620665207
 11
-60.340115543570306
 21
24.99369421330641
  0
LINE
  8
ValleyLine
  6
CONTINUOUS
 62
5
 10
-37.426051524162936
 20
51.890802567304036
 11
-31.79317620665209
 21
57.523677884814866
  0
LINE
  8
MountainLine
  6
CONTINUOUS
 62
1
 10
-31.79317620665209
 20
57.523677884814866
 11
-24.99369421330644
 21
60.3401155435703
  0
LINE
  8
ValleyLine
  6
CONTINUOUS
 62
5
 10
-51.89080256730405
 20
37.42605152416291
 11
-183.6674171948269
 21
92.0146583727999
  0
LINE
  8
MountainLine
  6
CONTINUOUS
 62
1
 10
-57.52367788481489
 20
31.79317620665207
 11
-189.30204114013904
 21
86.38003442748774
  0
LINE
  8
ValleyLine
  6
CONTINUOUS
 62
5
 10
-37.426051524162936
 20
51.890802567304036
 11
-92.0146583728
 21
183.6674171948268
  0
LINE
  8
MountainLine
  6
CONTINUOUS
 62
1
 10
-31.79317620665209
 20
57.523677884814866
 11
-86.38003442748786
 21
189.30204114013895
  0
LINE
  8
MountainLine
  6
CONTINUOUS
 62
1
 10
-183.6674171948269
 20
92.0146583727999
 11
-92.0146583728
 21
183.6674171948268
  0
LINE
  8
ValleyLine
  6
CONTINUOUS
 62
5
 10
-183.6674171948269
 20
92.0146583727999
 11
-189.30204114013904
 21
86.38003442748774
  0
LINE
  8
MountainLine
  6
CONTINUOUS
 62
1
 10
-189.30204114013904
 20
86.38003442748774
 11
-192.11935311279512
 21
79.5784416536654
  0
LINE
  8
ValleyLine
  6
CONTINUOUS
 62
5
 10
-92.0146583728
 20
183.6674171948268
 11
-86.38003442748786
 21
189.30204114013895
  0
LINE
  8
MountainLine
  6
CONTINUOUS
 62
1
 10
-86.38003442748786
 20
189.30204114013895
 11
-79.57844165366548
 21
192.11935311279504
  0
LINE
  8
ValleyLine
  6
CONTINUOUS
 62
5
 10
-183.6674171948269
 20
92.0146583727999
 11
-348.84240971941875
 21
160.4326270501856
  0
LINE
  8
MountainLine
  6
CONTINUOUS
 62
1
 10
-189.30204114013904
 20
86.38003442748774
 11
-354.4771208541172
 21
154.79791591548715
  0
LINE
  8
ValleyLine
  6
CONTINUOUS
 62
5
 10
-92.0146583728
 20
183.6674171948268
 11
-160.43262705018574
 21
348.8424097194187
  0
LINE
  8
MountainLine
  6
CONTINUOUS
 62
1
 10
-86.38003442748786
 20
189.30204114013895
 11
-154.79791591548732
 21
354.4771208541171
  0
LINE
  8
MountainLine
  6
CONTINUOUS
 62
1
 10
-348.84240971941875
 20
160.4326270501856
 11
-160.43262705018574
 21
348.8424097194187
  0
LINE
  8
ValleyLine
  6
CONTINUOUS
 62
5
 10
-348.84240971941875
 20
160.4326270501856
 11
-354.4771208541172
 21
154.79791591548715
  0
LINE
  8
MountainLine
  6
CONTINUOUS
 62
1
 10
-354.4771208541172
 20
154.79791591548715
 11
-357.2944764214664
 21
147.99621789476532
  0
LINE
  8
ValleyLine
  6
CONTINUOUS
 62
5
 10
-160.43262705018574
 20
348.8424097194187
 11
-154.79791591548732
 21
354.4771208541171
  0
LINE
  8
MountainLine
  6
CONTINUOUS
 62
1
 10
-154.79791591548732
 20
354.4771208541171
 11
-147.9962178947655
 21
357.29447642146636
  0
LINE
  8
ValleyLine
  6
CONTINUOUS
 62
5
 10
-348.84240971941875
 20
160.4326270501856
 11
-493.01268512800357
 21
220.16651832751404
  0
LINE
  8
MountainLine
  6
CONTINUOUS
 62
1
 10
-354.4771208541172
 20
154.79791591548715
 11
-498.65326804631036
 21
214.52593540920728
  0
LINE
  8
ValleyLine
  6
CONTINUOUS
 62
5
 10
-160.43262705018574
 20
348.8424097194187
 11
-220.1665183275143
 21
493.0126851280035
  0
LINE
  8
MountainLine
  6
CONTINUOUS
 62
1
 10
-154.79791591548732
 20
354.4771208541171
 11
-214.52593540920748
 21
498.6532680463103
  0
LINE
  8
MountainLine
  6
CONTINUOUS
 62
1
 10
-493.01268512800357
 20
220.16651832751404
 11
-220.1665183275143
 21
493.0126851280035
  0
LINE
  8
ValleyLine
  6
CONTINUOUS
 62
5
 10
-493.01268512800357
 20
220.16651832751404
 11
-498.65326804631036
 21
214.52593540920728
  0
LINE
  8
MountainLine
  6
CONTINUOUS
 62
1
 10
-498.65326804631036
 20
214.52593540920728
 11
-501.4735595054637
 21
207.71714951867418
  0
LINE
  8
ValleyLine
  6
CONTINUOUS
 62
5
 10
-220.1665183275143
 20
493.0126851280035
 11
-214.52593540920748
 21
498.6532680463103
  0
LINE
  8
MountainLine
  6
CONTINUOUS
 62
1
 10
-214.52593540920748
 20
498.6532680463103
 11
-207.7171495186744
 21
501.47355950546364
  0
LINE
  8
ValleyLine
  6
CONTINUOUS
 62
5
 10
-493.01268512800357
 20
220.16651832751404
 11
-605.8689827602652
 21
267.06739140244406
  0
LINE
  8
MountainLine
  6
CONTINUOUS
 62
1
 10
-498.65326804631036
 20
214.52593540920728
 11
-611.5641062375573
 21
261.3722679251521
  0
LINE
  8
ValleyLine
  6
CONTINUOUS
 62
5
 10
-220.1665183275143
 20
493.0126851280035
 11
-267.0673914024444
 21
605.8689827602651
  0
LINE
  8
MountainLine
  6
CONTINUOUS
 62
1
 10
-214.52593540920748
 20
498.6532680463103
 11
-261.3722679251524
 21
611.5641062375571
  0
LINE
  8
MountainLine
  6
CONTINUOUS
 62
1
 10
-605.8689827602652
 20
267.06739140244406
 11
-267.0673914024444
 21
605.8689827602651
  0
LINE
  8
ValleyLine
  6
CONTINUOUS
 62
5
 10
-605.8689827602652
 20
267.06739140244406
 11
-611.5641062375573
 21
261.3722679251521
  0
LINE
  8
MountainLine
  6
CONTINUOUS
 62
1
 10
-611.5641062375573
 20
261.3722679251521
 11
-614.4116679762033
 21
254.49764575601827
  0
LINE
  8
ValleyLine
  6
CONTINUOUS
 62
5
 10
-267.0673914024444
 20
605.8689827602651
 11
-261.3722679251524
 21
611.5641062375571
  0
LINE
  8
MountainLine
  6
CONTINUOUS
 62
1
 10
-261.3722679251524
 20
611.5641062375571
 11
-254.49764575601853
 21
614.4116679762031
  0
LINE
  8
ValleyLine
  6
CONTINUOUS
 62
5
 10
-605.8689827602652
 20
267.06739140244406
 11
-677.8005865285043
 21
297.6848500452514
  0
LINE
  8
MountainLine
  6
CONTINUOUS
 62
1
 10
-611.5641062375573
 20
261.3722679251521
 11
-683.7864768392633
 21
291.69895973449223
  0
LINE
  8
ValleyLine
  6
CONTINUOUS
 62
5
 10
-267.0673914024444
 20
605.8689827602651
 11
-297.6848500452516
 21
677.8005865285041
  0
LINE
  8
MountainLine
  6
CONTINUOUS
 62
1
 10
-261.3722679251524
 20
611.5641062375571
 11
-291.6989597344925
 21
683.7864768392633
  0
LINE
  8
MountainLine
  6
CONTINUOUS
 62
1
 10
-677.8005865285043
 20
297.6848500452514
 11
-297.6848500452516
 21
677.8005865285041
  0
LINE
  8
ValleyLine
  6
CONTINUOUS
 62
5
 10
-677.8005865285043
 20
297.6848500452514
 11
-683.7864768392633
 21
291.69895973449223
  0
LINE
  8
MountainLine
  6
CONTINUOUS
 62
1
 10
-683.7864768392633
 20
291.69895973449223
 11
-686.7794219946429
 21
284.473350948936
  0
LINE
  8
ValleyLine
  6
CONTINUOUS
 62
5
 10
-297.6848500452516
 20
677.8005865285041
 11
-291.6989597344925
 21
683.7864768392633
  0
LINE
  8
MountainLine
  6
CONTINUOUS
 62
1
 10
-291.6989597344925
 20
683.7864768392633
 11
-284.4733509489363
 21
686.7794219946428
  0
LINE
  8
ValleyLine
  6
CONTINUOUS
 62
5
 10
-677.8005865285043
 20
297.6848500452514
 11
-719.1224487407768
 21
317.357588185212
  0
LINE
  8
MountainLine
  6
CONTINUOUS
 62
1
 10
-683.7864768392633
 20
291.69895973449223
 11
-726.0122557078134
 21
310.4677812181754
  0
LINE
  8
ValleyLine
  6
CONTINUOUS
 62
5
 10
-297.6848500452516
 20
677.8005865285041
 11
-317.35758818521236
 21
719.1224487407767
  0
LINE
  8
MountainLine
  6
CONTINUOUS
 62
1
 10
-291.6989597344925
 20
683.7864768392633
 11
-310.46778121817573
 21
726.0122557078133
  0
LINE
  8
MountainLine
  6
CONTINUOUS
 62
1
 10
-719.1224487407768
 20
317.357588185212
 11
-317.35758818521236
 21
719.1224487407767
  0
LINE
  8
ValleyLine
  6
CONTINUOUS
 62
5
 10
-719.1224487407768
 20
317.357588185212
 11
-726.0122557078134
 21
310.4677812181754
  0
LINE
  8
MountainLine
  6
CONTINUOUS
 62
1
 10
-726.0122557078134
 20
310.4677812181754
 11
-729.4571591913317
 21
302.1510485071992
  0
LINE
  8
ValleyLine
  6
CONTINUOUS
 62
5
 10
-317.35758818521236
 20
719.1224487407767
 11
-310.46778121817573
 21
726.0122557078133
  0
LINE
  8
MountainLine
  6
CONTINUOUS
 62
1
 10
-310.46778121817573
 20
726.0122557078133
 11
-302.1510485071995
 21
729.4571591913317
  0
LINE
  8
ValleyLine
  6
CONTINUOUS
 62
5
 10
-719.1224487407768
 20
317.357588185212
 11
-768.73793838073
 21
343.7558723344597
  0
LINE
  8
MountainLine
  6
CONTINUOUS
 62
1
 10
-726.0122557078134
 20
310.4677812181754
 11
-777.694927982752
 21
334.79888273243756
  0
LINE
  8
ValleyLine
  6
CONTINUOUS
 62
5
 10
-317.35758818521236
 20
719.1224487407767
 11
-343.75587233446004
 21
768.7379383807298
  0
LINE
  8
MountainLine
  6
CONTINUOUS
 62
1
 10
-310.46778121817573
 20
726.0122557078133
 11
-334.79888273243796
 21
777.694927982752
  0
LINE
  8
MountainLine
  6
CONTINUOUS
 62
1
 10
-768.73793838073
 20
343.7558723344597
 11
-343.75587233446004
 21
768.7379383807298
  0
LINE
  8
ValleyLine
  6
CONTINUOUS
 62
5
 10
-768.73793838073
 20
343.7558723344597
 11
-777.694927982752
 21
334.79888273243756
  0
LINE
  8
MountainLine
  6
CONTINUOUS
 62
1
 10
-777.694927982752
 20
334.79888273243756
 11
-782.1734227837632
 21
323.9868398448194
  0
LINE
  8
ValleyLine
  6
CONTINUOUS
 62
5
 10
-343.75587233446004
 20
768.7379383807298
 11
-334.79888273243796
 21
777.694927982752
  0
LINE
  8
MountainLine
  6
CONTINUOUS
 62
1
 10
-334.79888273243796
 20
777.694927982752
 11
-323.98683984481977
 21
782.1734227837632
  0
LINE
  8
ValleyLine
  6
CONTINUOUS
 62
5
 10
-768.73793838073
 20
343.7558723344597
 11
-792.8927283228206
 21
370.9828217901378
  0
LINE
  8
MountainLine
  6
CONTINUOUS
 62
1
 10
-777.694927982752
 20
334.79888273243756
 11
-807.9385111324585
 21
355.9370389804999
  0
LINE
  8
ValleyLine
  6
CONTINUOUS
 62
5
 10
-343.75587233446004
 20
768.7379383807298
 11
-370.98282179013813
 21
792.8927283228204
  0
LINE
  8
MountainLine
  6
CONTINUOUS
 62
1
 10
-334.79888273243796
 20
777.694927982752
 11
-355.93703898050023
 21
807.9385111324584
  0
LINE
  8
MountainLine
  6
CONTINUOUS
 62
1
 10
-792.8927283228206
 20
370.9828217901378
 11
-370.98282179013813
 21
792.8927283228204
  0
LINE
  8
ValleyLine
  6
CONTINUOUS
 62
5
 10
-792.8927283228206
 20
370.9828217901378
 11
-807.9385111324585
 21
355.9370389804999
  0
LINE
  8
MountainLine
  6
CONTINUOUS
 62
1
 10
-807.9385111324585
 20
355.9370389804999
 11
-815.4614025372775
 21
337.775172522726
  0
LINE
  8
ValleyLine
  6
CONTINUOUS
 62
5
 10
-370.98282179013813
 20
792.8927283228204
 11
-355.93703898050023
 21
807.9385111324584
  0
LINE
  8
MountainLine
  6
CONTINUOUS
 62
1
 10
-355.93703898050023
 20
807.9385111324584
 11
-337.7751725227264
 21
815.4614025372773
  0
LINE
  8
ValleyLine
  6
CONTINUOUS
 62
5
 10
-792.8927283228206
 20
370.9828217901378
 11
-815.0338993280146
 21
405.4126308496816
  0
LINE
  8
MountainLine
  6
CONTINUOUS
 62
1
 10
-807.9385111324585
 20
355.9370389804999
 11
-839.009958446128
 21
381.4365717315681
  0
LINE
  8
ValleyLine
  6
CONTINUOUS
 62
5
 10
-370.98282179013813
 20
792.8927283228204
 11
-405.412630849682
 21
815.0338993280143
  0
LINE
  8
MountainLine
  6
CONTINUOUS
 62
1
 10
-355.93703898050023
 20
807.9385111324584
 11
-381.43657173156856
 21
839.0099584461277
  0
LINE
  8
MountainLine
  6
CONTINUOUS
 62
1
 10
-815.0338993280146
 20
405.4126308496816
 11
-405.412630849682
 21
815.0338993280143
  0
LINE
  8
ValleyLine
  6
CONTINUOUS
 62
5
 10
-815.0338993280146
 20
405.4126308496816
 11
-839.009958446128
 21
381.4365717315681
  0
LINE
  8
MountainLine
  6
CONTINUOUS
 62
1
 10
-839.009958446128
 20
381.4365717315681
 11
-850.9979880051848
 21
352.4949081839638
  0
LINE
  8
ValleyLine
  6
CONTINUOUS
 62
5
 10
-405.412630849682
 20
815.0338993280143
 11
-381.43657173156856
 21
839.0099584461277
  0
LINE
  8
MountainLine
  6
CONTINUOUS
 62
1
 10
-381.43657173156856
 20
839.0099584461277
 11
-352.4949081839642
 21
850.9979880051845
  0
LINE
  8
ValleyLine
  6
CONTINUOUS
 62
5
 10
-815.0338993280146
 20
405.4126308496816
 11
-828.7025761771488
 21
437.51426478034074
  0
LINE
  8
MountainLine
  6
CONTINUOUS
 62
1
 10
-839.009958446128
 20
381.4365717315681
 11
-862.0265454353989
 21
404.19029552209054
  0
LINE
  8
ValleyLine
  6
CONTINUOUS
 62
5
 10
-405.412630849682
 20
815.0338993280143
 11
-437.5142647803412
 21
828.7025761771486
  0
LINE
  8
MountainLine
  6
CONTINUOUS
 62
1
 10
-381.43657173156856
 20
839.0099584461277
 11
-404.19029552209093
 21
862.0265454353988
  0
LINE
  8
MountainLine
  6
CONTINUOUS
 62
1
 10
-828.7025761771488
 20
437.51426478034074
 11
-437.5142647803412
 21
828.7025761771486
  0
LINE
  8
ValleyLine
  6
CONTINUOUS
 62
5
 10
-828.7025761771488
 20
437.51426478034074
 11
-862.0265454353989
 21
404.19029552209054
  0
LINE
  8
MountainLine
  6
CONTINUOUS
 62
1
 10
-862.0265454353989
 20
404.19029552209054
 11
-878.6885300645239
 21
363.96470625440463
  0
LINE
  8
ValleyLine
  6
CONTINUOUS
 62
5
 10
-437.5142647803412
 20
828.7025761771486
 11
-404.19029552209093
 21
862.0265454353988
  0
LINE
  8
MountainLine
  6
CONTINUOUS
 62
1
 10
-404.19029552209093
 20
862.0265454353988
 11
-363.9647062544051
 21
878.6885300645238
  0
LINE
  8
ValleyLine
  6
CONTINUOUS
 62
5
 10
-828.7025761771488
 20
437.51426478034074
 11
-854.9071891020517
 21
500.77680183789306
  0
LINE
  8
MountainLine
  6
CONTINUOUS
 62
1
 10
-862.0265454353989
 20
404.19029552209054
 11
-906.7602661208645
 21
448.92372481908035
  0
LINE
  8
ValleyLine
  6
CONTINUOUS
 62
5
 10
-437.5142647803412
 20
828.7025761771486
 11
-500.7768018378934
 21
854.9071891020517
  0
LINE
  8
MountainLine
  6
CONTINUOUS
 62
1
 10
-404.19029552209093
 20
862.0265454353988
 11
-448.9237248190807
 21
906.7602661208643
  0
LINE
  8
ValleyLine
  6
CONTINUOUS
 62
5
 10
-854.9071891020517
 20
500.77680183789306
 11
-500.7768018378934
 21
854.9071891020517
  0
LINE
  8
MountainLine
  6
CONTINUOUS
 62
1
 10
-854.9071891020517
 20
500.77680183789306
 11
-906.7602661208645
 21
448.92372481908035
  0
LINE
  8
ValleyLine
  6
CONTINUOUS
 62
5
 10
-906.7602661208645
 20
448.92372481908035
 11
-932.6868046302708
 21
386.33152392428315
  0
LINE
  8
MountainLine
  6
CONTINUOUS
 62
1
 10
-500.7768018378934
 20
854.9071891020517
 11
-448.9237248190807
 21
906.7602661208643
  0
LINE
  8
ValleyLine
  6
CONTINUOUS
 62
5
 10
-448.9237248190807
 20
906.7602661208643
 11
-386.33152392428366
 21
932.6868046302707
  0
LINE
  8
ValleyLine
  6
CONTINUOUS
 62
5
 10
-854.9071891020517
 20
500.77680183789306
 11
-886.7694144618405
 21
577.0893351599008
  0
LINE
  8
MountainLine
  6
CONTINUOUS
 62
1
 10
-906.7602661208645
 20
448.92372481908035
 11
-960.9369315093172
 21
502.92181811242415
  0
LINE
  8
ValleyLine
  6
CONTINUOUS
 62
5
 10
-500.7768018378934
 20
854.9071891020517
 11
-577.0893351599012
 21
886.7694144618403
  0
LINE
  8
MountainLine
  6
CONTINUOUS
 62
1
 10
-448.9237248190807
 20
906.7602661208643
 11
-502.9218181124245
 21
960.9369315093169
  0
LINE
  8
MountainLine
  6
CONTINUOUS
 62
1
 10
-886.7694144618405
 20
577.0893351599008
 11
-577.0893351599012
 21
886.7694144618403
  0
LINE
  8
ValleyLine
  6
CONTINUOUS
 62
5
 10
-886.7694144618405
 20
577.0893351599008
 11
-960.9369315093172
 21
502.92181811242415
  0
LINE
  8
MountainLine
  6
CONTINUOUS
 62
1
 10
-960.9369315093172
 20
502.92181811242415
 11
-998.0206900330554
 21
413.3937053406462
  0
LINE
  8
ValleyLine
  6
CONTINUOUS
 62
5
 10
-577.0893351599012
 20
886.7694144618403
 11
-502.9218181124245
 21
960.9369315093169
  0
LINE
  8
MountainLine
  6
CONTINUOUS
 62
1
 10
-502.9218181124245
 20
960.9369315093169
 11
-413.3937053406466
 21
998.0206900330552
  0
LINE
  8
ValleyLine
  6
CONTINUOUS
 62
5
 10
-886.7694144618405
 20
577.0893351599008
 11
-932.2804749793651
 21
686.9557371547631
  0
LINE
  8
MountainLine
  6
CONTINUOUS
 62
1
 10
-960.9369315093172
 20
502.92181811242415
 11
-1038.6266904611132
 21
580.609521673015
  0
LINE
  8
ValleyLine
  6
CONTINUOUS
 62
5
 10
-577.0893351599012
 20
886.7694144618403
 11
-686.9557371547637
 21
932.2804749793647
  0
LINE
  8
MountainLine
  6
CONTINUOUS
 62
1
 10
-502.9218181124245
 20
960.9369315093169
 11
-580.6095216730156
 21
1038.626690461113
  0
LINE
  8
ValleyLine
  6
CONTINUOUS
 62
5
 10
-932.2804749793651
 20
686.9557371547631
 11
-686.9557371547637
 21
932.2804749793647
  0
LINE
  8
MountainLine
  6
CONTINUOUS
 62
1
 10
-932.2804749793651
 20
686.9557371547631
 11
-1038.6266904611132
 21
580.609521673015
  0
LINE
  8
ValleyLine
  6
CONTINUOUS
 62
5
 10
-1038.6266904611132
 20
580.609521673015
 11
-1091.7997982019872
 21
452.238283811471
  0
LINE
  8
MountainLine
  6
CONTINUOUS
 62
1
 10
-686.9557371547637
 20
932.2804749793647
 11
-580.6095216730156
 21
1038.626690461113
  0
LINE
  8
ValleyLine
  6
CONTINUOUS
 62
5
 10
-580.6095216730156
 20
1038.626690461113
 11
-452.2382838114715
 21
1091.799798201987
  0
LINE
  8
ValleyLine
  6
CONTINUOUS
 62
5
 10
-932.2804749793651
 20
686.9557371547631
 11
-986.3632111360968
 21
817.2504304115848
  0
LINE
  8
MountainLine
  6
CONTINUOUS
 62
1
 10
-1038.6266904611132
 20
580.609521673015
 11
-1130.8553238575128
 21
672.7583176901687
  0
LINE
  8
ValleyLine
  6
CONTINUOUS
 62
5
 10
-686.9557371547637
 20
932.2804749793647
 11
-817.2504304115852
 21
986.3632111360964
  0
LINE
  8
MountainLine
  6
CONTINUOUS
 62
1
 10
-580.6095216730156
 20
1038.626690461113
 11
-672.7583176901691
 21
1130.8553238575125
  0
LINE
  8
ValleyLine
  6
CONTINUOUS
 62
5
 10
-986.3632111360968
 20
817.2504304115848
 11
-817.2504304115852
 21
986.3632111360964
  0
LINE
  8
MountainLine
  6
CONTINUOUS
 62
1
 10
-986.3632111360968
 20
817.2504304115848
 11
-1130.8553238575128
 21
672.7583176901687
  0
LINE
  8
ValleyLine
  6
CONTINUOUS
 62
5
 10
-1130.8553238575128
 20
672.7583176901687
 11
-1203.1013802182208
 21
498.3409085961763
  0
LINE
  8
MountainLine
  6
CONTINUOUS
 62
1
 10
-817.2504304115852
 20
986.3632111360964
 11
-672.7583176901691
 21
1130.8553238575125
  0
LINE
  8
ValleyLine
  6
CONTINUOUS
 62
5
 10
-672.7583176901691
 20
1130.8553238575125
 11
-498.3409085961769
 21
1203.1013802182204
  0
LINE
  8
ValleyLine
  6
CONTINUOUS
 62
5
 10
-986.3632111360968
 20
817.2504304115848
 11
-1045.4321264069897
 21
956.3395005129519
  0
LINE
  8
MountainLine
  6
CONTINUOUS
 62
1
 10
-1130.8553238575128
 20
672.7583176901687
 11
-1230.449209094454
 21
771.3224178254874
  0
LINE
  8
ValleyLine
  6
CONTINUOUS
 62
5
 10
-817.2504304115852
 20
986.3632111360964
 11
-956.3395005129523
 21
1045.4321264069893
  0
LINE
  8
MountainLine
  6
CONTINUOUS
 62
1
 10
-672.7583176901691
 20
1130.8553238575125
 11
-771.3224178254881
 21
1230.4492090944536
  0
LINE
  8
ValleyLine
  6
CONTINUOUS
 62
5
 10
-1045.4321264069897
 20
956.3395005129519
 11
-956.3395005129523
 21
1045.4321264069893
  0
LINE
  8
MountainLine
  6
CONTINUOUS
 62
1
 10
-1045.4321264069897
 20
956.3395005129519
 11
-1230.449209094454
 21
771.3224178254874
  0
LINE
  8
ValleyLine
  6
CONTINUOUS
 62
5
 10
-1230.449209094454
 20
771.3224178254874
 11
-1322.9577504381862
 21
547.9870426780969
  0
LINE
  8
MountainLine
  6
CONTINUOUS
 62
1
 10
-956.3395005129523
 20
1045.4321264069893
 11
-771.3224178254881
 21
1230.4492090944536
  0
LINE
  8
ValleyLine
  6
CONTINUOUS
 62
5
 10
-771.3224178254881
 20
1230.4492090944536
 11
-547.9870426780976
 21
1322.957750438186
  0
LINE
  8
ValleyLine
  6
CONTINUOUS
 62
5
 10
-1045.4321264069897
 20
956.3395005129519
 11
-1117.3969733158108
 21
1117.3969733158103
  0
LINE
  8
MountainLine
  6
CONTINUOUS
 62
1
 10
-1230.449209094454
 20
771.3224178254874
 11
-1348.8174637668387
 21
885.9764828647822
  0
LINE
  8
ValleyLine
  6
CONTINUOUS
 62
5
 10
-956.3395005129523
 20
1045.4321264069893
 11
-1117.3969733158108
 21
1117.3969733158103
  0
LINE
  8
MountainLine
  6
CONTINUOUS
 62
1
 10
-771.3224178254881
 20
1230.4492090944536
 11
-885.9764828647828
 21
1348.8174637668385
  0
LINE
  8
ValleyLine
  6
CONTINUOUS
 62
5
 10
-1117.3969733158108
 20
1117.3969733158103
 11
-1117.3969733158108
 21
1117.3969733158103
  0
LINE
  8
MountainLine
  6
CONTINUOUS
 62
1
 10
-1117.3969733158108
 20
1117.3969733158103
 11
-1348.8174637668387
 21
885.9764828647822
  0
LINE
  8
ValleyLine
  6
CONTINUOUS
 62
5
 10
-1348.8174637668387
 20
885.9764828647822
 11
-1464.527708992353
 21
606.6272395358296
  0
LINE
  8
MountainLine
  6
CONTINUOUS
 62
1
 10
-1117.3969733158108
 20
1117.3969733158103
 11
-885.9764828647828
 21
1348.8174637668385
  0
LINE
  8
ValleyLine
  6
CONTINUOUS
 62
5
 10
-885.9764828647828
 20
1348.8174637668385
 11
-606.6272395358303
 21
1464.5277089923527
  0
LINE
  8
ValleyLine
  6
CONTINUOUS
 62
5
 10
-1117.3969733158108
 20
1117.3969733158103
 11
-1627.1711433318583
 21
1627.1711433318576
  0
LINE
  8
MountainLine
  6
CONTINUOUS
 62
1
 10
-1348.8174637668387
 20
885.9764828647822
 11
-1964.1693212669536
 21
1290.172965396762
  0
LINE
  8
ValleyLine
  6
CONTINUOUS
 62
5
 10
-1117.3969733158108
 20
1117.3969733158103
 11
-1627.1711433318583
 21
1627.1711433318576
  0
LINE
  8
MountainLine
  6
CONTINUOUS
 62
1
 10
-885.9764828647828
 20
1348.8174637668385
 11
-1290.172965396763
 21
1964.1693212669534
  0
LINE
  8
CutLine
  6
CONTINUOUS
 62
250
 10
-1627.1711433318583
 20
1627.1711433318576
 11
-1627.1711433318583
 21
1627.1711433318576
  0
LINE
  8
CutLine
  6
CONTINUOUS
 62
250
 10
-1627.1711433318583
 20
1627.1711433318576
 11
-1964.1693212669536
 21
1290.172965396762
  0
LINE
  8
CutLine
  6
CONTINUOUS
 62
250
 10
-1964.1693212669536
 20
1290.172965396762
 11
-2132.6684102345016
 21
883.3801795637976
  0
LINE
  8
CutLine
  6
CONTINUOUS
 62
250
 10
-1627.1711433318583
 20
1627.1711433318576
 11
-1290.172965396763
 21
1964.1693212669534
  0
LINE
  8
CutLine
  6
CONTINUOUS
 62
250
 10
-1290.172965396763
 20
1964.1693212669534
 11
-883.3801795637985
 21
2132.668410234501
  0
ENDSEC
  0
EOF
