<svg xmlns="http://www.w3.org/2000/svg" width="1000" height="1000">
  <path stroke="gray" d="M2.11523 264.8038v-2.11524M0 262.68856v2.11524M0 266.91903h1000M0 737.31144h1000M0 266.91903v470.39241M1000 266.91903v470.39241"/>
  <path stroke="#00f" stroke-width="4" d="M64.15663 266.91903h0M60.84337 266.91903h0"/>
  <path stroke-dasharray="15,10" stroke="red" stroke-width="4" d="M94.1909 266.91903h0M30.8091 266.91903h0"/>
  <path stroke="#00f" stroke-width="4" d="M64.15663 266.91903l-3.78389 9.13593M60.84337 266.91903l3.78389 9.13593"/>
  <path stroke-dasharray="15,10" stroke="red" stroke-width="4" d="M94.1909 266.91903l1.81709 9.13593M30.8091 266.91903l-1.81709 9.13593M0 266.91903h30.8091"/>
  <path stroke="#00f" stroke-width="4" d="M30.8091 266.91903h33.34753"/>
  <path stroke-dasharray="15,10" stroke="red" stroke-width="4" d="M64.15663 266.91903h-3.31326"/>
  <path stroke="#00f" stroke-width="4" d="M60.84337 266.91903H94.1909"/>
  <path stroke-dasharray="15,10" stroke="red" stroke-width="4" d="M94.1909 266.91903H125"/>
  <path stroke="#00f" stroke-width="4" d="M60.37274 276.05496l-11.35166 27.40781M64.62726 276.05496l11.35166 27.40781"/>
  <path stroke-dasharray="15,10" stroke="red" stroke-width="4" d="M96.00799 276.05496l5.45126 27.40781M28.99201 276.05496l-5.45126 27.40781M0 276.05496h28.99201"/>
  <path stroke="#00f" stroke-width="4" d="M28.99201 276.05496h31.38073"/>
  <path stroke-dasharray="15,10" stroke="red" stroke-width="4" d="M60.37274 276.05496h4.25452"/>
  <path stroke="#00f" stroke-width="4" d="M64.62726 276.05496h31.38073"/>
  <path stroke-dasharray="15,10" stroke="red" stroke-width="4" d="M96.00799 276.05496H125"/>
  <path stroke="#00f" stroke-width="4" d="M49.02108 303.46277l-14.22957 34.35336M75.97892 303.46277l14.22957 34.35336"/>
  <path stroke-dasharray="15,10" stroke="red" stroke-width="4" d="M101.45925 303.46277l6.83328 34.35336M23.54075 303.46277l-6.83328 34.35336M0 303.46277h23.54075"/>
  <path stroke="#00f" stroke-width="4" d="M23.54075 303.46277h25.48033"/>
  <path stroke-dasharray="15,10" stroke="red" stroke-width="4" d="M49.02108 303.46277h26.95784"/>
  <path stroke="#00f" stroke-width="4" d="M75.97892 303.46277h25.48033"/>
  <path stroke-dasharray="15,10" stroke="red" stroke-width="4" d="M101.45925 303.46277H125"/>
  <path stroke="#00f" stroke-width="4" d="M34.79151 337.81613L22.37387 367.8033M90.20849 337.81613l12.41764 29.98717"/>
  <path stroke-dasharray="15,10" stroke="red" stroke-width="4" d="M108.29253 337.81613l5.96316 29.98717M16.70747 337.81613l-5.96316 29.98717M0 337.81613h16.70747"/>
  <path stroke="#00f" stroke-width="4" d="M16.70747 337.81613h18.08404"/>
  <path stroke-dasharray="15,10" stroke="red" stroke-width="4" d="M34.79151 337.81613h55.41698"/>
  <path stroke="#00f" stroke-width="4" d="M90.20849 337.81613h18.08404"/>
  <path stroke-dasharray="15,10" stroke="red" stroke-width="4" d="M108.29253 337.81613H125"/>
  <path stroke="#00f" stroke-width="4" d="M22.37387 367.8033l-9.69974 23.49469M102.62613 367.8033l9.69974 23.49469"/>
  <path stroke-dasharray="15,10" stroke="red" stroke-width="4" d="M114.25569 367.8033l4.65798 23.49469M10.74431 367.8033l-4.65798 23.49469M0 367.8033h10.74431"/>
  <path stroke="#00f" stroke-width="4" d="M10.74431 367.8033h11.62956"/>
  <path stroke-dasharray="15,10" stroke="red" stroke-width="4" d="M22.37387 367.8033h80.25226"/>
  <path stroke="#00f" stroke-width="4" d="M102.62613 367.8033h11.62956"/>
  <path stroke-dasharray="15,10" stroke="red" stroke-width="4" d="M114.25569 367.8033H125"/>
  <path stroke="#00f" stroke-width="4" d="M12.67413 391.29799l-6.07586 15.08138M112.32587 391.29799l6.07586 15.08138"/>
  <path stroke-dasharray="15,10" stroke="red" stroke-width="4" d="M118.91367 391.29799l2.91773 15.08138M6.08633 391.29799L3.1686 406.37937M0 391.29799h6.08633"/>
  <path stroke="#00f" stroke-width="4" d="M6.08633 391.29799h6.5878"/>
  <path stroke-dasharray="15,10" stroke="red" stroke-width="4" d="M12.67413 391.29799h99.65174"/>
  <path stroke="#00f" stroke-width="4" d="M112.32587 391.29799h6.5878"/>
  <path stroke-dasharray="15,10" stroke="red" stroke-width="4" d="M118.91367 391.29799H125"/>
  <path stroke="#00f" stroke-width="4" d="M6.59827 406.37937l-3.18383 8.97018M118.40173 406.37937l3.18383 8.97018"/>
  <path stroke-dasharray="15,10" stroke="red" stroke-width="4" d="M121.8314 406.37937l1.52893 8.97018M3.1686 406.37937l-1.52893 8.97018M0 406.37937h3.1686"/>
  <path stroke="#00f" stroke-width="4" d="M3.1686 406.37937h3.42967"/>
  <path stroke-dasharray="15,10" stroke="red" stroke-width="4" d="M6.59827 406.37937h111.80346"/>
  <path stroke="#00f" stroke-width="4" d="M118.40173 406.37937h3.42967"/>
  <path stroke-dasharray="15,10" stroke="red" stroke-width="4" d="M121.8314 406.37937H125"/>
  <path stroke="#00f" stroke-width="4" d="M3.41444 415.34955L0 426.52851M121.58556 415.34955L125 426.52851"/>
  <path stroke-dasharray="15,10" stroke="red" stroke-width="4" d="M123.36033 415.34955L125 426.52851M1.63967 415.34955L0 426.52851M0 415.34955h1.63967"/>
  <path stroke="#00f" stroke-width="4" d="M1.63967 415.34955h1.77477"/>
  <path stroke-dasharray="15,10" stroke="red" stroke-width="4" d="M3.41444 415.34955h118.17112"/>
  <path stroke="#00f" stroke-width="4" d="M121.58556 415.34955h1.77477"/>
  <path stroke-dasharray="15,10" stroke="red" stroke-width="4" d="M123.36033 415.34955H125"/>
  <path stroke="#00f" stroke-width="4" d="M0 426.52851l.45181 7.55646M125 426.52851l-.45181 7.55646"/>
  <path stroke-dasharray="15,10" stroke="red" stroke-width="4" d="M125 426.52851l-.21697 7.55646M0 426.52851l.21697 7.55646"/>
  <path stroke="#00f" stroke-width="4" d="M0 426.52851h125M.45181 434.08497l1.80723 8.31961M124.54819 434.08497l-1.80723 8.31961"/>
  <path stroke-dasharray="15,10" stroke="red" stroke-width="4" d="M124.78303 434.08497l-.86786 8.31961M.21697 434.08497l.86786 8.31961M0 434.08497h.21697"/>
  <path stroke="#00f" stroke-width="4" d="M.21697 434.08497h.23484"/>
  <path stroke-dasharray="15,10" stroke="red" stroke-width="4" d="M.45181 434.08497h124.09638"/>
  <path stroke="#00f" stroke-width="4" d="M124.54819 434.08497h.23484"/>
  <path stroke-dasharray="15,10" stroke="red" stroke-width="4" d="M124.78303 434.08497H125"/>
  <path stroke="#00f" stroke-width="4" d="M2.25904 442.40458l2.71084 6.73122M122.74096 442.40458l-2.71084 6.73122"/>
  <path stroke-dasharray="15,10" stroke="red" stroke-width="4" d="M123.91517 442.40458l-1.30179 6.73122M1.08483 442.40458l1.30179 6.73122M0 442.40458h1.08483"/>
  <path stroke="#00f" stroke-width="4" d="M1.08483 442.40458h1.17421"/>
  <path stroke-dasharray="15,10" stroke="red" stroke-width="4" d="M2.25904 442.40458h120.48192"/>
  <path stroke="#00f" stroke-width="4" d="M122.74096 442.40458h1.17421"/>
  <path stroke-dasharray="15,10" stroke="red" stroke-width="4" d="M123.91517 442.40458H125"/>
  <path stroke="#00f" stroke-width="4" d="M4.96988 449.1358l5.44992 13.15748M120.03012 449.1358l-5.44992 13.15748"/>
  <path stroke-dasharray="15,10" stroke="red" stroke-width="4" d="M122.61338 449.1358l-2.61715 13.15748M2.38662 449.1358l2.61715 13.15748M0 449.1358h2.38662"/>
  <path stroke="#00f" stroke-width="4" d="M2.38662 449.1358h2.58326"/>
  <path stroke-dasharray="15,10" stroke="red" stroke-width="4" d="M4.96988 449.1358h115.06024"/>
  <path stroke="#00f" stroke-width="4" d="M120.03012 449.1358h2.58326"/>
  <path stroke-dasharray="15,10" stroke="red" stroke-width="4" d="M122.61338 449.1358H125"/>
  <path stroke="#00f" stroke-width="4" d="M10.4198 462.29328l6.53709 15.90873M114.5802 462.29328l-6.53709 15.90873"/>
  <path stroke-dasharray="15,10" stroke="red" stroke-width="4" d="M119.99623 462.29328l-3.13922 15.90873M5.00377 462.29328l3.13922 15.90873"/>
  <path stroke="#00f" stroke-width="4" d="M0 462.29328h5.00377"/>
  <path stroke-dasharray="15,10" stroke="red" stroke-width="4" d="M5.00377 462.29328h5.41603"/>
  <path stroke="#00f" stroke-width="4" d="M10.4198 462.29328h104.1604"/>
  <path stroke-dasharray="15,10" stroke="red" stroke-width="4" d="M114.5802 462.29328h5.41603"/>
  <path stroke="#00f" stroke-width="4" d="M119.99623 462.29328H125M16.95689 478.20201l9.46442 22.85059M108.04311 478.20201l-9.46442 22.85059"/>
  <path stroke-dasharray="15,10" stroke="red" stroke-width="4" d="M116.85701 478.20201l-4.54497 22.85059M8.14299 478.20201l4.54497 22.85059M0 478.20201h8.14299"/>
  <path stroke="#00f" stroke-width="4" d="M8.14299 478.20201h8.8139"/>
  <path stroke-dasharray="15,10" stroke="red" stroke-width="4" d="M16.95689 478.20201h91.08622"/>
  <path stroke="#00f" stroke-width="4" d="M108.04311 478.20201h8.8139"/>
  <path stroke-dasharray="15,10" stroke="red" stroke-width="4" d="M116.85701 478.20201H125"/>
  <path stroke="#00f" stroke-width="4" d="M26.42131 501.0526l11.20811 27.11547M98.57869 501.0526l-11.20811 27.11547"/>
  <path stroke-dasharray="15,10" stroke="red" stroke-width="4" d="M112.31204 501.0526l-5.38233 27.11547M12.68796 501.0526l5.38233 27.11547"/>
  <path stroke="#00f" stroke-width="4" d="M0 501.0526h12.68796"/>
  <path stroke-dasharray="15,10" stroke="red" stroke-width="4" d="M12.68796 501.0526h13.73335"/>
  <path stroke="#00f" stroke-width="4" d="M26.42131 501.0526h72.15738"/>
  <path stroke-dasharray="15,10" stroke="red" stroke-width="4" d="M98.57869 501.0526h13.73335"/>
  <path stroke="#00f" stroke-width="4" d="M112.31204 501.0526H125M37.62942 528.16807l11.76817 29.14211M87.37058 528.16807l-11.76817 29.14211"/>
  <path stroke-dasharray="15,10" stroke="red" stroke-width="4" d="M106.92971 528.16807l-5.65127 29.14211M18.07029 528.16807l5.65127 29.14211"/>
  <path stroke="#00f" stroke-width="4" d="M0 528.16807h18.07029"/>
  <path stroke-dasharray="15,10" stroke="red" stroke-width="4" d="M18.07029 528.16807h19.55913"/>
  <path stroke="#00f" stroke-width="4" d="M37.62942 528.16807h49.74116"/>
  <path stroke-dasharray="15,10" stroke="red" stroke-width="4" d="M87.37058 528.16807h19.55913"/>
  <path stroke="#00f" stroke-width="4" d="M106.92971 528.16807H125M49.39759 557.31018l9.54443 28.86777M75.60241 557.31018l-9.54443 28.86777"/>
  <path stroke-dasharray="15,10" stroke="red" stroke-width="4" d="M101.27844 557.31018l-4.5834 28.86777M23.72156 557.31018l4.5834 28.86777"/>
  <path stroke="#00f" stroke-width="4" d="M0 557.31018h23.72156"/>
  <path stroke-dasharray="15,10" stroke="red" stroke-width="4" d="M23.72156 557.31018h25.67603"/>
  <path stroke="#00f" stroke-width="4" d="M49.39759 557.31018h26.20482"/>
  <path stroke-dasharray="15,10" stroke="red" stroke-width="4" d="M75.60241 557.31018h25.67603"/>
  <path stroke="#00f" stroke-width="4" d="M101.27844 557.31018H125M58.94202 586.17795l4.5369 36.15846M66.05798 586.17795l-4.5369 36.15846"/>
  <path stroke-dasharray="15,10" stroke="red" stroke-width="4" d="M96.69504 586.17795l-2.17869 36.15846M28.30496 586.17795l2.17869 36.15846"/>
  <path stroke="#00f" stroke-width="4" d="M0 586.17795h28.30496"/>
  <path stroke-dasharray="15,10" stroke="red" stroke-width="4" d="M28.30496 586.17795h30.63706"/>
  <path stroke="#00f" stroke-width="4" d="M58.94202 586.17795h7.11596"/>
  <path stroke-dasharray="15,10" stroke="red" stroke-width="4" d="M66.05798 586.17795h30.63706"/>
  <path stroke="#00f" stroke-width="4" d="M96.69504 586.17795H125M63.47892 622.33641l1.58132 45.95741M61.52108 622.33641l-1.58132 45.95741"/>
  <path stroke-dasharray="15,10" stroke="red" stroke-width="4" d="M94.51635 622.33641l-.75938 45.95741M30.48365 622.33641l.75938 45.95741"/>
  <path stroke="#00f" stroke-width="4" d="M0 622.33641h30.48365"/>
  <path stroke-dasharray="15,10" stroke="red" stroke-width="4" d="M30.48365 622.33641h32.99527"/>
  <path stroke="#00f" stroke-width="4" d="M63.47892 622.33641h-1.95784"/>
  <path stroke-dasharray="15,10" stroke="red" stroke-width="4" d="M61.52108 622.33641h32.99527"/>
  <path stroke="#00f" stroke-width="4" d="M94.51635 622.33641H125M65.06024 668.29382v69.01762M59.93976 668.29382v69.01762"/>
  <path stroke-dasharray="15,10" stroke="red" stroke-width="4" d="M93.75697 668.29382v69.01762M31.24303 668.29382v69.01762"/>
  <path stroke="#00f" stroke-width="4" d="M0 668.29382h31.24303"/>
  <path stroke-dasharray="15,10" stroke="red" stroke-width="4" d="M31.24303 668.29382h33.81721"/>
  <path stroke="#00f" stroke-width="4" d="M65.06024 668.29382h-5.12048"/>
  <path stroke-dasharray="15,10" stroke="red" stroke-width="4" d="M59.93976 668.29382h33.81721"/>
  <path stroke="#00f" stroke-width="4" d="M93.75697 668.29382H125M189.15663 266.91903h0M185.84337 266.91903h0"/>
  <path stroke-dasharray="15,10" stroke="red" stroke-width="4" d="M219.1909 266.91903h0M155.8091 266.91903h0"/>
  <path stroke="#00f" stroke-width="4" d="M189.15663 266.91903l-3.78389 9.13593M185.84337 266.91903l3.78389 9.13593"/>
  <path stroke-dasharray="15,10" stroke="red" stroke-width="4" d="M219.1909 266.91903l1.81709 9.13593M155.8091 266.91903l-1.81709 9.13593M125 266.91903h30.8091"/>
  <path stroke="#00f" stroke-width="4" d="M155.8091 266.91903h33.34753"/>
  <path stroke-dasharray="15,10" stroke="red" stroke-width="4" d="M189.15663 266.91903h-3.31326"/>
  <path stroke="#00f" stroke-width="4" d="M185.84337 266.91903h33.34753"/>
  <path stroke-dasharray="15,10" stroke="red" stroke-width="4" d="M219.1909 266.91903H250"/>
  <path stroke="#00f" stroke-width="4" d="M185.37274 276.05496l-11.35166 27.40781M189.62726 276.05496l11.35166 27.40781"/>
  <path stroke-dasharray="15,10" stroke="red" stroke-width="4" d="M221.00799 276.05496l5.45126 27.40781M153.99201 276.05496l-5.45126 27.40781M125 276.05496h28.99201"/>
  <path stroke="#00f" stroke-width="4" d="M153.99201 276.05496h31.38073"/>
  <path stroke-dasharray="15,10" stroke="red" stroke-width="4" d="M185.37274 276.05496h4.25452"/>
  <path stroke="#00f" stroke-width="4" d="M189.62726 276.05496h31.38073"/>
  <path stroke-dasharray="15,10" stroke="red" stroke-width="4" d="M221.00799 276.05496H250"/>
  <path stroke="#00f" stroke-width="4" d="M174.02108 303.46277l-14.22957 34.35336M200.97892 303.46277l14.22957 34.35336"/>
  <path stroke-dasharray="15,10" stroke="red" stroke-width="4" d="M226.45925 303.46277l6.83328 34.35336M148.54075 303.46277l-6.83328 34.35336M125 303.46277h23.54075"/>
  <path stroke="#00f" stroke-width="4" d="M148.54075 303.46277h25.48033"/>
  <path stroke-dasharray="15,10" stroke="red" stroke-width="4" d="M174.02108 303.46277h26.95784"/>
  <path stroke="#00f" stroke-width="4" d="M200.97892 303.46277h25.48033"/>
  <path stroke-dasharray="15,10" stroke="red" stroke-width="4" d="M226.45925 303.46277H250"/>
  <path stroke="#00f" stroke-width="4" d="M159.79151 337.81613l-12.41764 29.98717M215.20849 337.81613l12.41764 29.98717"/>
  <path stroke-dasharray="15,10" stroke="red" stroke-width="4" d="M233.29253 337.81613l5.96316 29.98717M141.70747 337.81613l-5.96316 29.98717M125 337.81613h16.70747"/>
  <path stroke="#00f" stroke-width="4" d="M141.70747 337.81613h18.08404"/>
  <path stroke-dasharray="15,10" stroke="red" stroke-width="4" d="M159.79151 337.81613h55.41698"/>
  <path stroke="#00f" stroke-width="4" d="M215.20849 337.81613h18.08404"/>
  <path stroke-dasharray="15,10" stroke="red" stroke-width="4" d="M233.29253 337.81613H250"/>
  <path stroke="#00f" stroke-width="4" d="M147.37387 367.8033l-9.69974 23.49469M227.62613 367.8033l9.69974 23.49469"/>
  <path stroke-dasharray="15,10" stroke="red" stroke-width="4" d="M239.25569 367.8033l4.65798 23.49469M135.74431 367.8033l-4.65798 23.49469M125 367.8033h10.74431"/>
  <path stroke="#00f" stroke-width="4" d="M135.74431 367.8033h11.62956"/>
  <path stroke-dasharray="15,10" stroke="red" stroke-width="4" d="M147.37387 367.8033h80.25226"/>
  <path stroke="#00f" stroke-width="4" d="M227.62613 367.8033h11.62956"/>
  <path stroke-dasharray="15,10" stroke="red" stroke-width="4" d="M239.25569 367.8033H250"/>
  <path stroke="#00f" stroke-width="4" d="M137.67413 391.29799l-6.07586 15.08138M237.32587 391.29799l6.07586 15.08138"/>
  <path stroke-dasharray="15,10" stroke="red" stroke-width="4" d="M243.91367 391.29799l2.91773 15.08138M131.08633 391.29799l-2.91773 15.08138M125 391.29799h6.08633"/>
  <path stroke="#00f" stroke-width="4" d="M131.08633 391.29799h6.5878"/>
  <path stroke-dasharray="15,10" stroke="red" stroke-width="4" d="M137.67413 391.29799h99.65174"/>
  <path stroke="#00f" stroke-width="4" d="M237.32587 391.29799h6.5878"/>
  <path stroke-dasharray="15,10" stroke="red" stroke-width="4" d="M243.91367 391.29799H250"/>
  <path stroke="#00f" stroke-width="4" d="M131.59827 406.37937l-3.18383 8.97018M243.40173 406.37937l3.18383 8.97018"/>
  <path stroke-dasharray="15,10" stroke="red" stroke-width="4" d="M246.8314 406.37937l1.52893 8.97018M128.1686 406.37937l-1.52893 8.97018M125 406.37937h3.1686"/>
  <path stroke="#00f" stroke-width="4" d="M128.1686 406.37937h3.42967"/>
  <path stroke-dasharray="15,10" stroke="red" stroke-width="4" d="M131.59827 406.37937h111.80346"/>
  <path stroke="#00f" stroke-width="4" d="M243.40173 406.37937h3.42967"/>
  <path stroke-dasharray="15,10" stroke="red" stroke-width="4" d="M246.8314 406.37937H250"/>
  <path stroke="#00f" stroke-width="4" d="M128.41444 415.34955L125 426.52851M246.58556 415.34955L250 426.52851"/>
  <path stroke-dasharray="15,10" stroke="red" stroke-width="4" d="M248.36033 415.34955L250 426.52851M126.63967 415.34955L125 426.52851M125 415.34955h1.63967"/>
  <path stroke="#00f" stroke-width="4" d="M126.63967 415.34955h1.77477"/>
  <path stroke-dasharray="15,10" stroke="red" stroke-width="4" d="M128.41444 415.34955h118.17112"/>
  <path stroke="#00f" stroke-width="4" d="M246.58556 415.34955h1.77477"/>
  <path stroke-dasharray="15,10" stroke="red" stroke-width="4" d="M248.36033 415.34955H250"/>
  <path stroke="#00f" stroke-width="4" d="M125 426.52851l.45181 7.55646M250 426.52851l-.45181 7.55646"/>
  <path stroke-dasharray="15,10" stroke="red" stroke-width="4" d="M250 426.52851l-.21697 7.55646M125 426.52851l.21697 7.55646"/>
  <path stroke="#00f" stroke-width="4" d="M125 426.52851h125M125.45181 434.08497l1.80723 8.31961M249.54819 434.08497l-1.80723 8.31961"/>
  <path stroke-dasharray="15,10" stroke="red" stroke-width="4" d="M249.78303 434.08497l-.86786 8.31961M125.21697 434.08497l.86786 8.31961M125 434.08497h.21697"/>
  <path stroke="#00f" stroke-width="4" d="M125.21697 434.08497h.23484"/>
  <path stroke-dasharray="15,10" stroke="red" stroke-width="4" d="M125.45181 434.08497h124.09638"/>
  <path stroke="#00f" stroke-width="4" d="M249.54819 434.08497h.23484"/>
  <path stroke-dasharray="15,10" stroke="red" stroke-width="4" d="M249.78303 434.08497H250"/>
  <path stroke="#00f" stroke-width="4" d="M127.25904 442.40458l2.71084 6.73122M247.74096 442.40458l-2.71084 6.73122"/>
  <path stroke-dasharray="15,10" stroke="red" stroke-width="4" d="M248.91517 442.40458l-1.30179 6.73122M126.08483 442.40458l1.30179 6.73122M125 442.40458h1.08483"/>
  <path stroke="#00f" stroke-width="4" d="M126.08483 442.40458h1.17421"/>
  <path stroke-dasharray="15,10" stroke="red" stroke-width="4" d="M127.25904 442.40458h120.48192"/>
  <path stroke="#00f" stroke-width="4" d="M247.74096 442.40458h1.17421"/>
  <path stroke-dasharray="15,10" stroke="red" stroke-width="4" d="M248.91517 442.40458H250"/>
  <path stroke="#00f" stroke-width="4" d="M129.96988 449.1358l5.44992 13.15748M245.03012 449.1358l-5.44992 13.15748"/>
  <path stroke-dasharray="15,10" stroke="red" stroke-width="4" d="M247.61338 449.1358l-2.61715 13.15748M127.38662 449.1358l2.61715 13.15748M125 449.1358h2.38662"/>
  <path stroke="#00f" stroke-width="4" d="M127.38662 449.1358h2.58326"/>
  <path stroke-dasharray="15,10" stroke="red" stroke-width="4" d="M129.96988 449.1358h115.06024"/>
  <path stroke="#00f" stroke-width="4" d="M245.03012 449.1358h2.58326"/>
  <path stroke-dasharray="15,10" stroke="red" stroke-width="4" d="M247.61338 449.1358H250"/>
  <path stroke="#00f" stroke-width="4" d="M135.4198 462.29328l6.53709 15.90873M239.5802 462.29328l-6.53709 15.90873"/>
  <path stroke-dasharray="15,10" stroke="red" stroke-width="4" d="M244.99623 462.29328l-3.13922 15.90873M130.00377 462.29328l3.13922 15.90873"/>
  <path stroke="#00f" stroke-width="4" d="M125 462.29328h5.00377"/>
  <path stroke-dasharray="15,10" stroke="red" stroke-width="4" d="M130.00377 462.29328h5.41603"/>
  <path stroke="#00f" stroke-width="4" d="M135.4198 462.29328h104.1604"/>
  <path stroke-dasharray="15,10" stroke="red" stroke-width="4" d="M239.5802 462.29328h5.41603"/>
  <path stroke="#00f" stroke-width="4" d="M244.99623 462.29328H250M141.95689 478.20201l9.46442 22.85059M233.04311 478.20201l-9.46442 22.85059"/>
  <path stroke-dasharray="15,10" stroke="red" stroke-width="4" d="M241.85701 478.20201l-4.54497 22.85059M133.14299 478.20201l4.54497 22.85059M125 478.20201h8.14299"/>
  <path stroke="#00f" stroke-width="4" d="M133.14299 478.20201h8.8139"/>
  <path stroke-dasharray="15,10" stroke="red" stroke-width="4" d="M141.95689 478.20201h91.08622"/>
  <path stroke="#00f" stroke-width="4" d="M233.04311 478.20201h8.8139"/>
  <path stroke-dasharray="15,10" stroke="red" stroke-width="4" d="M241.85701 478.20201H250"/>
  <path stroke="#00f" stroke-width="4" d="M151.42131 501.0526l11.20811 27.11547M223.57869 501.0526l-11.20811 27.11547"/>
  <path stroke-dasharray="15,10" stroke="red" stroke-width="4" d="M237.31204 501.0526l-5.38233 27.11547M137.68796 501.0526l5.38233 27.11547"/>
  <path stroke="#00f" stroke-width="4" d="M125 501.0526h12.68796"/>
  <path stroke-dasharray="15,10" stroke="red" stroke-width="4" d="M137.68796 501.0526h13.73335"/>
  <path stroke="#00f" stroke-width="4" d="M151.42131 501.0526h72.15738"/>
  <path stroke-dasharray="15,10" stroke="red" stroke-width="4" d="M223.57869 501.0526h13.73335"/>
  <path stroke="#00f" stroke-width="4" d="M237.31204 501.0526H250M162.62942 528.16807l11.76817 29.14211M212.37058 528.16807l-11.76817 29.14211"/>
  <path stroke-dasharray="15,10" stroke="red" stroke-width="4" d="M231.92971 528.16807l-5.65127 29.14211M143.07029 528.16807l5.65127 29.14211"/>
  <path stroke="#00f" stroke-width="4" d="M125 528.16807h18.07029"/>
  <path stroke-dasharray="15,10" stroke="red" stroke-width="4" d="M143.07029 528.16807h19.55913"/>
  <path stroke="#00f" stroke-width="4" d="M162.62942 528.16807h49.74116"/>
  <path stroke-dasharray="15,10" stroke="red" stroke-width="4" d="M212.37058 528.16807h19.55913"/>
  <path stroke="#00f" stroke-width="4" d="M231.92971 528.16807H250M174.39759 557.31018l9.54443 28.86777M200.60241 557.31018l-9.54443 28.86777"/>
  <path stroke-dasharray="15,10" stroke="red" stroke-width="4" d="M226.27844 557.31018l-4.5834 28.86777M148.72156 557.31018l4.5834 28.86777"/>
  <path stroke="#00f" stroke-width="4" d="M125 557.31018h23.72156"/>
  <path stroke-dasharray="15,10" stroke="red" stroke-width="4" d="M148.72156 557.31018h25.67603"/>
  <path stroke="#00f" stroke-width="4" d="M174.39759 557.31018h26.20482"/>
  <path stroke-dasharray="15,10" stroke="red" stroke-width="4" d="M200.60241 557.31018h25.67603"/>
  <path stroke="#00f" stroke-width="4" d="M226.27844 557.31018H250M183.94202 586.17795l4.5369 36.15846M191.05798 586.17795l-4.5369 36.15846"/>
  <path stroke-dasharray="15,10" stroke="red" stroke-width="4" d="M221.69504 586.17795l-2.17869 36.15846M153.30496 586.17795l2.17869 36.15846"/>
  <path stroke="#00f" stroke-width="4" d="M125 586.17795h28.30496"/>
  <path stroke-dasharray="15,10" stroke="red" stroke-width="4" d="M153.30496 586.17795h30.63706"/>
  <path stroke="#00f" stroke-width="4" d="M183.94202 586.17795h7.11596"/>
  <path stroke-dasharray="15,10" stroke="red" stroke-width="4" d="M191.05798 586.17795h30.63706"/>
  <path stroke="#00f" stroke-width="4" d="M221.69504 586.17795H250M188.47892 622.33641l1.58132 45.95741M186.52108 622.33641l-1.58132 45.95741"/>
  <path stroke-dasharray="15,10" stroke="red" stroke-width="4" d="M219.51635 622.33641l-.75938 45.95741M155.48365 622.33641l.75938 45.95741"/>
  <path stroke="#00f" stroke-width="4" d="M125 622.33641h30.48365"/>
  <path stroke-dasharray="15,10" stroke="red" stroke-width="4" d="M155.48365 622.33641h32.99527"/>
  <path stroke="#00f" stroke-width="4" d="M188.47892 622.33641h-1.95784"/>
  <path stroke-dasharray="15,10" stroke="red" stroke-width="4" d="M186.52108 622.33641h32.99527"/>
  <path stroke="#00f" stroke-width="4" d="M219.51635 622.33641H250M190.06024 668.29382v69.01762M184.93976 668.29382v69.01762"/>
  <path stroke-dasharray="15,10" stroke="red" stroke-width="4" d="M218.75697 668.29382v69.01762M156.24303 668.29382v69.01762"/>
  <path stroke="#00f" stroke-width="4" d="M125 668.29382h31.24303"/>
  <path stroke-dasharray="15,10" stroke="red" stroke-width="4" d="M156.24303 668.29382h33.81721"/>
  <path stroke="#00f" stroke-width="4" d="M190.06024 668.29382h-5.12048"/>
  <path stroke-dasharray="15,10" stroke="red" stroke-width="4" d="M184.93976 668.29382h33.81721"/>
  <path stroke="#00f" stroke-width="4" d="M218.75697 668.29382H250M314.15663 266.91903h0M310.84337 266.91903h0"/>
  <path stroke-dasharray="15,10" stroke="red" stroke-width="4" d="M344.1909 266.91903h0M280.8091 266.91903h0"/>
  <path stroke="#00f" stroke-width="4" d="M314.15663 266.91903l-3.78389 9.13593M310.84337 266.91903l3.78389 9.13593"/>
  <path stroke-dasharray="15,10" stroke="red" stroke-width="4" d="M344.1909 266.91903l1.81709 9.13593M280.8091 266.91903l-1.81709 9.13593M250 266.91903h30.8091"/>
  <path stroke="#00f" stroke-width="4" d="M280.8091 266.91903h33.34753"/>
  <path stroke-dasharray="15,10" stroke="red" stroke-width="4" d="M314.15663 266.91903h-3.31326"/>
  <path stroke="#00f" stroke-width="4" d="M310.84337 266.91903h33.34753"/>
  <path stroke-dasharray="15,10" stroke="red" stroke-width="4" d="M344.1909 266.91903H375"/>
  <path stroke="#00f" stroke-width="4" d="M310.37274 276.05496l-11.35166 27.40781M314.62726 276.05496l11.35166 27.40781"/>
  <path stroke-dasharray="15,10" stroke="red" stroke-width="4" d="M346.00799 276.05496l5.45126 27.40781M278.99201 276.05496l-5.45126 27.40781M250 276.05496h28.99201"/>
  <path stroke="#00f" stroke-width="4" d="M278.99201 276.05496h31.38073"/>
  <path stroke-dasharray="15,10" stroke="red" stroke-width="4" d="M310.37274 276.05496h4.25452"/>
  <path stroke="#00f" stroke-width="4" d="M314.62726 276.05496h31.38073"/>
  <path stroke-dasharray="15,10" stroke="red" stroke-width="4" d="M346.00799 276.05496H375"/>
  <path stroke="#00f" stroke-width="4" d="M299.02108 303.46277l-14.22957 34.35336M325.97892 303.46277l14.22957 34.35336"/>
  <path stroke-dasharray="15,10" stroke="red" stroke-width="4" d="M351.45925 303.46277l6.83328 34.35336M273.54075 303.46277l-6.83328 34.35336M250 303.46277h23.54075"/>
  <path stroke="#00f" stroke-width="4" d="M273.54075 303.46277h25.48033"/>
  <path stroke-dasharray="15,10" stroke="red" stroke-width="4" d="M299.02108 303.46277h26.95784"/>
  <path stroke="#00f" stroke-width="4" d="M325.97892 303.46277h25.48033"/>
  <path stroke-dasharray="15,10" stroke="red" stroke-width="4" d="M351.45925 303.46277H375"/>
  <path stroke="#00f" stroke-width="4" d="M284.79151 337.81613l-12.41764 29.98717M340.20849 337.81613l12.41764 29.98717"/>
  <path stroke-dasharray="15,10" stroke="red" stroke-width="4" d="M358.29253 337.81613l5.96316 29.98717M266.70747 337.81613l-5.96316 29.98717M250 337.81613h16.70747"/>
  <path stroke="#00f" stroke-width="4" d="M266.70747 337.81613h18.08404"/>
  <path stroke-dasharray="15,10" stroke="red" stroke-width="4" d="M284.79151 337.81613h55.41698"/>
  <path stroke="#00f" stroke-width="4" d="M340.20849 337.81613h18.08404"/>
  <path stroke-dasharray="15,10" stroke="red" stroke-width="4" d="M358.29253 337.81613H375"/>
  <path stroke="#00f" stroke-width="4" d="M272.37387 367.8033l-9.69974 23.49469M352.62613 367.8033l9.69974 23.49469"/>
  <path stroke-dasharray="15,10" stroke="red" stroke-width="4" d="M364.25569 367.8033l4.65798 23.49469M260.74431 367.8033l-4.65798 23.49469M250 367.8033h10.74431"/>
  <path stroke="#00f" stroke-width="4" d="M260.74431 367.8033h11.62956"/>
  <path stroke-dasharray="15,10" stroke="red" stroke-width="4" d="M272.37387 367.8033h80.25226"/>
  <path stroke="#00f" stroke-width="4" d="M352.62613 367.8033h11.62956"/>
  <path stroke-dasharray="15,10" stroke="red" stroke-width="4" d="M364.25569 367.8033H375"/>
  <path stroke="#00f" stroke-width="4" d="M262.67413 391.29799l-6.07586 15.08138M362.32587 391.29799l6.07586 15.08138"/>
  <path stroke-dasharray="15,10" stroke="red" stroke-width="4" d="M368.91367 391.29799l2.91773 15.08138M256.08633 391.29799l-2.91773 15.08138M250 391.29799h6.08633"/>
  <path stroke="#00f" stroke-width="4" d="M256.08633 391.29799h6.5878"/>
  <path stroke-dasharray="15,10" stroke="red" stroke-width="4" d="M262.67413 391.29799h99.65174"/>
  <path stroke="#00f" stroke-width="4" d="M362.32587 391.29799h6.5878"/>
  <path stroke-dasharray="15,10" stroke="red" stroke-width="4" d="M368.91367 391.29799H375"/>
  <path stroke="#00f" stroke-width="4" d="M256.59827 406.37937l-3.18383 8.97018M368.40173 406.37937l3.18383 8.97018"/>
  <path stroke-dasharray="15,10" stroke="red" stroke-width="4" d="M371.8314 406.37937l1.52893 8.97018M253.1686 406.37937l-1.52893 8.97018M250 406.37937h3.1686"/>
  <path stroke="#00f" stroke-width="4" d="M253.1686 406.37937h3.42967"/>
  <path stroke-dasharray="15,10" stroke="red" stroke-width="4" d="M256.59827 406.37937h111.80346"/>
  <path stroke="#00f" stroke-width="4" d="M368.40173 406.37937h3.42967"/>
  <path stroke-dasharray="15,10" stroke="red" stroke-width="4" d="M371.8314 406.37937H375"/>
  <path stroke="#00f" stroke-width="4" d="M253.41444 415.34955L250 426.52851M371.58556 415.34955L375 426.52851"/>
  <path stroke-dasharray="15,10" stroke="red" stroke-width="4" d="M373.36033 415.34955L375 426.52851M251.63967 415.34955L250 426.52851M250 415.34955h1.63967"/>
  <path stroke="#00f" stroke-width="4" d="M251.63967 415.34955h1.77477"/>
  <path stroke-dasharray="15,10" stroke="red" stroke-width="4" d="M253.41444 415.34955h118.17112"/>
  <path stroke="#00f" stroke-width="4" d="M371.58556 415.34955h1.77477"/>
  <path stroke-dasharray="15,10" stroke="red" stroke-width="4" d="M373.36033 415.34955H375"/>
  <path stroke="#00f" stroke-width="4" d="M250 426.52851l.45181 7.55646M375 426.52851l-.45181 7.55646"/>
  <path stroke-dasharray="15,10" stroke="red" stroke-width="4" d="M375 426.52851l-.21697 7.55646M250 426.52851l.21697 7.55646"/>
  <path stroke="#00f" stroke-width="4" d="M250 426.52851h125M250.45181 434.08497l1.80723 8.31961M374.54819 434.08497l-1.80723 8.31961"/>
  <path stroke-dasharray="15,10" stroke="red" stroke-width="4" d="M374.78303 434.08497l-.86786 8.31961M250.21697 434.08497l.86786 8.31961M250 434.08497h.21697"/>
  <path stroke="#00f" stroke-width="4" d="M250.21697 434.08497h.23484"/>
  <path stroke-dasharray="15,10" stroke="red" stroke-width="4" d="M250.45181 434.08497h124.09638"/>
  <path stroke="#00f" stroke-width="4" d="M374.54819 434.08497h.23484"/>
  <path stroke-dasharray="15,10" stroke="red" stroke-width="4" d="M374.78303 434.08497H375"/>
  <path stroke="#00f" stroke-width="4" d="M252.25904 442.40458l2.71084 6.73122M372.74096 442.40458l-2.71084 6.73122"/>
  <path stroke-dasharray="15,10" stroke="red" stroke-width="4" d="M373.91517 442.40458l-1.30179 6.73122M251.08483 442.40458l1.30179 6.73122M250 442.40458h1.08483"/>
  <path stroke="#00f" stroke-width="4" d="M251.08483 442.40458h1.17421"/>
  <path stroke-dasharray="15,10" stroke="red" stroke-width="4" d="M252.25904 442.40458h120.48192"/>
  <path stroke="#00f" stroke-width="4" d="M372.74096 442.40458h1.17421"/>
  <path stroke-dasharray="15,10" stroke="red" stroke-width="4" d="M373.91517 442.40458H375"/>
  <path stroke="#00f" stroke-width="4" d="M254.96988 449.1358l5.44992 13.15748M370.03012 449.1358l-5.44992 13.15748"/>
  <path stroke-dasharray="15,10" stroke="red" stroke-width="4" d="M372.61338 449.1358l-2.61715 13.15748M252.38662 449.1358l2.61715 13.15748M250 449.1358h2.38662"/>
  <path stroke="#00f" stroke-width="4" d="M252.38662 449.1358h2.58326"/>
  <path stroke-dasharray="15,10" stroke="red" stroke-width="4" d="M254.96988 449.1358h115.06024"/>
  <path stroke="#00f" stroke-width="4" d="M370.03012 449.1358h2.58326"/>
  <path stroke-dasharray="15,10" stroke="red" stroke-width="4" d="M372.61338 449.1358H375"/>
  <path stroke="#00f" stroke-width="4" d="M260.4198 462.29328l6.53709 15.90873M364.5802 462.29328l-6.53709 15.90873"/>
  <path stroke-dasharray="15,10" stroke="red" stroke-width="4" d="M369.99623 462.29328l-3.13922 15.90873M255.00377 462.29328l3.13922 15.90873"/>
  <path stroke="#00f" stroke-width="4" d="M250 462.29328h5.00377"/>
  <path stroke-dasharray="15,10" stroke="red" stroke-width="4" d="M255.00377 462.29328h5.41603"/>
  <path stroke="#00f" stroke-width="4" d="M260.4198 462.29328h104.1604"/>
  <path stroke-dasharray="15,10" stroke="red" stroke-width="4" d="M364.5802 462.29328h5.41603"/>
  <path stroke="#00f" stroke-width="4" d="M369.99623 462.29328H375M266.95689 478.20201l9.46442 22.85059M358.04311 478.20201l-9.46442 22.85059"/>
  <path stroke-dasharray="15,10" stroke="red" stroke-width="4" d="M366.85701 478.20201l-4.54497 22.85059M258.14299 478.20201l4.54497 22.85059M250 478.20201h8.14299"/>
  <path stroke="#00f" stroke-width="4" d="M258.14299 478.20201h8.8139"/>
  <path stroke-dasharray="15,10" stroke="red" stroke-width="4" d="M266.95689 478.20201h91.08622"/>
  <path stroke="#00f" stroke-width="4" d="M358.04311 478.20201h8.8139"/>
  <path stroke-dasharray="15,10" stroke="red" stroke-width="4" d="M366.85701 478.20201H375"/>
  <path stroke="#00f" stroke-width="4" d="M276.42131 501.0526l11.20811 27.11547M348.57869 501.0526l-11.20811 27.11547"/>
  <path stroke-dasharray="15,10" stroke="red" stroke-width="4" d="M362.31204 501.0526l-5.38233 27.11547M262.68796 501.0526l5.38233 27.11547"/>
  <path stroke="#00f" stroke-width="4" d="M250 501.0526h12.68796"/>
  <path stroke-dasharray="15,10" stroke="red" stroke-width="4" d="M262.68796 501.0526h13.73335"/>
  <path stroke="#00f" stroke-width="4" d="M276.42131 501.0526h72.15738"/>
  <path stroke-dasharray="15,10" stroke="red" stroke-width="4" d="M348.57869 501.0526h13.73335"/>
  <path stroke="#00f" stroke-width="4" d="M362.31204 501.0526H375M287.62942 528.16807l11.76817 29.14211M337.37058 528.16807l-11.76817 29.14211"/>
  <path stroke-dasharray="15,10" stroke="red" stroke-width="4" d="M356.92971 528.16807l-5.65127 29.14211M268.07029 528.16807l5.65127 29.14211"/>
  <path stroke="#00f" stroke-width="4" d="M250 528.16807h18.07029"/>
  <path stroke-dasharray="15,10" stroke="red" stroke-width="4" d="M268.07029 528.16807h19.55913"/>
  <path stroke="#00f" stroke-width="4" d="M287.62942 528.16807h49.74116"/>
  <path stroke-dasharray="15,10" stroke="red" stroke-width="4" d="M337.37058 528.16807h19.55913"/>
  <path stroke="#00f" stroke-width="4" d="M356.92971 528.16807H375M299.39759 557.31018l9.54443 28.86777M325.60241 557.31018l-9.54443 28.86777"/>
  <path stroke-dasharray="15,10" stroke="red" stroke-width="4" d="M351.27844 557.31018l-4.5834 28.86777M273.72156 557.31018l4.5834 28.86777"/>
  <path stroke="#00f" stroke-width="4" d="M250 557.31018h23.72156"/>
  <path stroke-dasharray="15,10" stroke="red" stroke-width="4" d="M273.72156 557.31018h25.67603"/>
  <path stroke="#00f" stroke-width="4" d="M299.39759 557.31018h26.20482"/>
  <path stroke-dasharray="15,10" stroke="red" stroke-width="4" d="M325.60241 557.31018h25.67603"/>
  <path stroke="#00f" stroke-width="4" d="M351.27844 557.31018H375M308.94202 586.17795l4.5369 36.15846M316.05798 586.17795l-4.5369 36.15846"/>
  <path stroke-dasharray="15,10" stroke="red" stroke-width="4" d="M346.69504 586.17795l-2.17869 36.15846M278.30496 586.17795l2.17869 36.15846"/>
  <path stroke="#00f" stroke-width="4" d="M250 586.17795h28.30496"/>
  <path stroke-dasharray="15,10" stroke="red" stroke-width="4" d="M278.30496 586.17795h30.63706"/>
  <path stroke="#00f" stroke-width="4" d="M308.94202 586.17795h7.11596"/>
  <path stroke-dasharray="15,10" stroke="red" stroke-width="4" d="M316.05798 586.17795h30.63706"/>
  <path stroke="#00f" stroke-width="4" d="M346.69504 586.17795H375M313.47892 622.33641l1.58132 45.95741M311.52108 622.33641l-1.58132 45.95741"/>
  <path stroke-dasharray="15,10" stroke="red" stroke-width="4" d="M344.51635 622.33641l-.75938 45.95741M280.48365 622.33641l.75938 45.95741"/>
  <path stroke="#00f" stroke-width="4" d="M250 622.33641h30.48365"/>
  <path stroke-dasharray="15,10" stroke="red" stroke-width="4" d="M280.48365 622.33641h32.99527"/>
  <path stroke="#00f" stroke-width="4" d="M313.47892 622.33641h-1.95784"/>
  <path stroke-dasharray="15,10" stroke="red" stroke-width="4" d="M311.52108 622.33641h32.99527"/>
  <path stroke="#00f" stroke-width="4" d="M344.51635 622.33641H375M315.06024 668.29382v69.01762M309.93976 668.29382v69.01762"/>
  <path stroke-dasharray="15,10" stroke="red" stroke-width="4" d="M343.75697 668.29382v69.01762M281.24303 668.29382v69.01762"/>
  <path stroke="#00f" stroke-width="4" d="M250 668.29382h31.24303"/>
  <path stroke-dasharray="15,10" stroke="red" stroke-width="4" d="M281.24303 668.29382h33.81721"/>
  <path stroke="#00f" stroke-width="4" d="M315.06024 668.29382h-5.12048"/>
  <path stroke-dasharray="15,10" stroke="red" stroke-width="4" d="M309.93976 668.29382h33.81721"/>
  <path stroke="#00f" stroke-width="4" d="M343.75697 668.29382H375M439.15663 266.91903h0M435.84337 266.91903h0"/>
  <path stroke-dasharray="15,10" stroke="red" stroke-width="4" d="M469.1909 266.91903h0M405.8091 266.91903h0"/>
  <path stroke="#00f" stroke-width="4" d="M439.15663 266.91903l-3.78389 9.13593M435.84337 266.91903l3.78389 9.13593"/>
  <path stroke-dasharray="15,10" stroke="red" stroke-width="4" d="M469.1909 266.91903l1.81709 9.13593M405.8091 266.91903l-1.81709 9.13593M375 266.91903h30.8091"/>
  <path stroke="#00f" stroke-width="4" d="M405.8091 266.91903h33.34753"/>
  <path stroke-dasharray="15,10" stroke="red" stroke-width="4" d="M439.15663 266.91903h-3.31326"/>
  <path stroke="#00f" stroke-width="4" d="M435.84337 266.91903h33.34753"/>
  <path stroke-dasharray="15,10" stroke="red" stroke-width="4" d="M469.1909 266.91903H500"/>
  <path stroke="#00f" stroke-width="4" d="M435.37274 276.05496l-11.35166 27.40781M439.62726 276.05496l11.35166 27.40781"/>
  <path stroke-dasharray="15,10" stroke="red" stroke-width="4" d="M471.00799 276.05496l5.45126 27.40781M403.99201 276.05496l-5.45126 27.40781M375 276.05496h28.99201"/>
  <path stroke="#00f" stroke-width="4" d="M403.99201 276.05496h31.38073"/>
  <path stroke-dasharray="15,10" stroke="red" stroke-width="4" d="M435.37274 276.05496h4.25452"/>
  <path stroke="#00f" stroke-width="4" d="M439.62726 276.05496h31.38073"/>
  <path stroke-dasharray="15,10" stroke="red" stroke-width="4" d="M471.00799 276.05496H500"/>
  <path stroke="#00f" stroke-width="4" d="M424.02108 303.46277l-14.22957 34.35336M450.97892 303.46277l14.22957 34.35336"/>
  <path stroke-dasharray="15,10" stroke="red" stroke-width="4" d="M476.45925 303.46277l6.83328 34.35336M398.54075 303.46277l-6.83328 34.35336M375 303.46277h23.54075"/>
  <path stroke="#00f" stroke-width="4" d="M398.54075 303.46277h25.48033"/>
  <path stroke-dasharray="15,10" stroke="red" stroke-width="4" d="M424.02108 303.46277h26.95784"/>
  <path stroke="#00f" stroke-width="4" d="M450.97892 303.46277h25.48033"/>
  <path stroke-dasharray="15,10" stroke="red" stroke-width="4" d="M476.45925 303.46277H500"/>
  <path stroke="#00f" stroke-width="4" d="M409.79151 337.81613l-12.41764 29.98717M465.20849 337.81613l12.41764 29.98717"/>
  <path stroke-dasharray="15,10" stroke="red" stroke-width="4" d="M483.29253 337.81613l5.96316 29.98717M391.70747 337.81613l-5.96316 29.98717M375 337.81613h16.70747"/>
  <path stroke="#00f" stroke-width="4" d="M391.70747 337.81613h18.08404"/>
  <path stroke-dasharray="15,10" stroke="red" stroke-width="4" d="M409.79151 337.81613h55.41698"/>
  <path stroke="#00f" stroke-width="4" d="M465.20849 337.81613h18.08404"/>
  <path stroke-dasharray="15,10" stroke="red" stroke-width="4" d="M483.29253 337.81613H500"/>
  <path stroke="#00f" stroke-width="4" d="M397.37387 367.8033l-9.69974 23.49469M477.62613 367.8033l9.69974 23.49469"/>
  <path stroke-dasharray="15,10" stroke="red" stroke-width="4" d="M489.25569 367.8033l4.65798 23.49469M385.74431 367.8033l-4.65798 23.49469M375 367.8033h10.74431"/>
  <path stroke="#00f" stroke-width="4" d="M385.74431 367.8033h11.62956"/>
  <path stroke-dasharray="15,10" stroke="red" stroke-width="4" d="M397.37387 367.8033h80.25226"/>
  <path stroke="#00f" stroke-width="4" d="M477.62613 367.8033h11.62956"/>
  <path stroke-dasharray="15,10" stroke="red" stroke-width="4" d="M489.25569 367.8033H500"/>
  <path stroke="#00f" stroke-width="4" d="M387.67413 391.29799l-6.07586 15.08138M487.32587 391.29799l6.07586 15.08138"/>
  <path stroke-dasharray="15,10" stroke="red" stroke-width="4" d="M493.91367 391.29799l2.91773 15.08138M381.08633 391.29799l-2.91773 15.08138M375 391.29799h6.08633"/>
  <path stroke="#00f" stroke-width="4" d="M381.08633 391.29799h6.5878"/>
  <path stroke-dasharray="15,10" stroke="red" stroke-width="4" d="M387.67413 391.29799h99.65174"/>
  <path stroke="#00f" stroke-width="4" d="M487.32587 391.29799h6.5878"/>
  <path stroke-dasharray="15,10" stroke="red" stroke-width="4" d="M493.91367 391.29799H500"/>
  <path stroke="#00f" stroke-width="4" d="M381.59827 406.37937l-3.18383 8.97018M493.40173 406.37937l3.18383 8.97018"/>
  <path stroke-dasharray="15,10" stroke="red" stroke-width="4" d="M496.8314 406.37937l1.52893 8.97018M378.1686 406.37937l-1.52893 8.97018M375 406.37937h3.1686"/>
  <path stroke="#00f" stroke-width="4" d="M378.1686 406.37937h3.42967"/>
  <path stroke-dasharray="15,10" stroke="red" stroke-width="4" d="M381.59827 406.37937h111.80346"/>
  <path stroke="#00f" stroke-width="4" d="M493.40173 406.37937h3.42967"/>
  <path stroke-dasharray="15,10" stroke="red" stroke-width="4" d="M496.8314 406.37937H500"/>
  <path stroke="#00f" stroke-width="4" d="M378.41444 415.34955L375 426.52851M496.58556 415.34955L500 426.52851"/>
  <path stroke-dasharray="15,10" stroke="red" stroke-width="4" d="M498.36033 415.34955L500 426.52851M376.63967 415.34955L375 426.52851M375 415.34955h1.63967"/>
  <path stroke="#00f" stroke-width="4" d="M376.63967 415.34955h1.77477"/>
  <path stroke-dasharray="15,10" stroke="red" stroke-width="4" d="M378.41444 415.34955h118.17112"/>
  <path stroke="#00f" stroke-width="4" d="M496.58556 415.34955h1.77477"/>
  <path stroke-dasharray="15,10" stroke="red" stroke-width="4" d="M498.36033 415.34955H500"/>
  <path stroke="#00f" stroke-width="4" d="M375 426.52851l.45181 7.55646M500 426.52851l-.45181 7.55646"/>
  <path stroke-dasharray="15,10" stroke="red" stroke-width="4" d="M500 426.52851l-.21697 7.55646M375 426.52851l.21697 7.55646"/>
  <path stroke="#00f" stroke-width="4" d="M375 426.52851h125M375.45181 434.08497l1.80723 8.31961M499.54819 434.08497l-1.80723 8.31961"/>
  <path stroke-dasharray="15,10" stroke="red" stroke-width="4" d="M499.78303 434.08497l-.86786 8.31961M375.21697 434.08497l.86786 8.31961M375 434.08497h.21697"/>
  <path stroke="#00f" stroke-width="4" d="M375.21697 434.08497h.23484"/>
  <path stroke-dasharray="15,10" stroke="red" stroke-width="4" d="M375.45181 434.08497h124.09638"/>
  <path stroke="#00f" stroke-width="4" d="M499.54819 434.08497h.23484"/>
  <path stroke-dasharray="15,10" stroke="red" stroke-width="4" d="M499.78303 434.08497H500"/>
  <path stroke="#00f" stroke-width="4" d="M377.25904 442.40458l2.71084 6.73122M497.74096 442.40458l-2.71084 6.73122"/>
  <path stroke-dasharray="15,10" stroke="red" stroke-width="4" d="M498.91517 442.40458l-1.30179 6.73122M376.08483 442.40458l1.30179 6.73122M375 442.40458h1.08483"/>
  <path stroke="#00f" stroke-width="4" d="M376.08483 442.40458h1.17421"/>
  <path stroke-dasharray="15,10" stroke="red" stroke-width="4" d="M377.25904 442.40458h120.48192"/>
  <path stroke="#00f" stroke-width="4" d="M497.74096 442.40458h1.17421"/>
  <path stroke-dasharray="15,10" stroke="red" stroke-width="4" d="M498.91517 442.40458H500"/>
  <path stroke="#00f" stroke-width="4" d="M379.96988 449.1358l5.44992 13.15748M495.03012 449.1358l-5.44992 13.15748"/>
  <path stroke-dasharray="15,10" stroke="red" stroke-width="4" d="M497.61338 449.1358l-2.61715 13.15748M377.38662 449.1358l2.61715 13.15748M375 449.1358h2.38662"/>
  <path stroke="#00f" stroke-width="4" d="M377.38662 449.1358h2.58326"/>
  <path stroke-dasharray="15,10" stroke="red" stroke-width="4" d="M379.96988 449.1358h115.06024"/>
  <path stroke="#00f" stroke-width="4" d="M495.03012 449.1358h2.58326"/>
  <path stroke-dasharray="15,10" stroke="red" stroke-width="4" d="M497.61338 449.1358H500"/>
  <path stroke="#00f" stroke-width="4" d="M385.4198 462.29328l6.53709 15.90873M489.5802 462.29328l-6.53709 15.90873"/>
  <path stroke-dasharray="15,10" stroke="red" stroke-width="4" d="M494.99623 462.29328l-3.13922 15.90873M380.00377 462.29328l3.13922 15.90873"/>
  <path stroke="#00f" stroke-width="4" d="M375 462.29328h5.00377"/>
  <path stroke-dasharray="15,10" stroke="red" stroke-width="4" d="M380.00377 462.29328h5.41603"/>
  <path stroke="#00f" stroke-width="4" d="M385.4198 462.29328h104.1604"/>
  <path stroke-dasharray="15,10" stroke="red" stroke-width="4" d="M489.5802 462.29328h5.41603"/>
  <path stroke="#00f" stroke-width="4" d="M494.99623 462.29328H500M391.95689 478.20201l9.46442 22.85059M483.04311 478.20201l-9.46442 22.85059"/>
  <path stroke-dasharray="15,10" stroke="red" stroke-width="4" d="M491.85701 478.20201l-4.54497 22.85059M383.14299 478.20201l4.54497 22.85059M375 478.20201h8.14299"/>
  <path stroke="#00f" stroke-width="4" d="M383.14299 478.20201h8.8139"/>
  <path stroke-dasharray="15,10" stroke="red" stroke-width="4" d="M391.95689 478.20201h91.08622"/>
  <path stroke="#00f" stroke-width="4" d="M483.04311 478.20201h8.8139"/>
  <path stroke-dasharray="15,10" stroke="red" stroke-width="4" d="M491.85701 478.20201H500"/>
  <path stroke="#00f" stroke-width="4" d="M401.42131 501.0526l11.20811 27.11547M473.57869 501.0526l-11.20811 27.11547"/>
  <path stroke-dasharray="15,10" stroke="red" stroke-width="4" d="M487.31204 501.0526l-5.38233 27.11547M387.68796 501.0526l5.38233 27.11547"/>
  <path stroke="#00f" stroke-width="4" d="M375 501.0526h12.68796"/>
  <path stroke-dasharray="15,10" stroke="red" stroke-width="4" d="M387.68796 501.0526h13.73335"/>
  <path stroke="#00f" stroke-width="4" d="M401.42131 501.0526h72.15738"/>
  <path stroke-dasharray="15,10" stroke="red" stroke-width="4" d="M473.57869 501.0526h13.73335"/>
  <path stroke="#00f" stroke-width="4" d="M487.31204 501.0526H500M412.62942 528.16807l11.76817 29.14211M462.37058 528.16807l-11.76817 29.14211"/>
  <path stroke-dasharray="15,10" stroke="red" stroke-width="4" d="M481.92971 528.16807l-5.65127 29.14211M393.07029 528.16807l5.65127 29.14211"/>
  <path stroke="#00f" stroke-width="4" d="M375 528.16807h18.07029"/>
  <path stroke-dasharray="15,10" stroke="red" stroke-width="4" d="M393.07029 528.16807h19.55913"/>
  <path stroke="#00f" stroke-width="4" d="M412.62942 528.16807h49.74116"/>
  <path stroke-dasharray="15,10" stroke="red" stroke-width="4" d="M462.37058 528.16807h19.55913"/>
  <path stroke="#00f" stroke-width="4" d="M481.92971 528.16807H500M424.39759 557.31018l9.54443 28.86777M450.60241 557.31018l-9.54443 28.86777"/>
  <path stroke-dasharray="15,10" stroke="red" stroke-width="4" d="M476.27844 557.31018l-4.5834 28.86777M398.72156 557.31018l4.5834 28.86777"/>
  <path stroke="#00f" stroke-width="4" d="M375 557.31018h23.72156"/>
  <path stroke-dasharray="15,10" stroke="red" stroke-width="4" d="M398.72156 557.31018h25.67603"/>
  <path stroke="#00f" stroke-width="4" d="M424.39759 557.31018h26.20482"/>
  <path stroke-dasharray="15,10" stroke="red" stroke-width="4" d="M450.60241 557.31018h25.67603"/>
  <path stroke="#00f" stroke-width="4" d="M476.27844 557.31018H500M433.94202 586.17795l4.5369 36.15846M441.05798 586.17795l-4.5369 36.15846"/>
  <path stroke-dasharray="15,10" stroke="red" stroke-width="4" d="M471.69504 586.17795l-2.17869 36.15846M403.30496 586.17795l2.17869 36.15846"/>
  <path stroke="#00f" stroke-width="4" d="M375 586.17795h28.30496"/>
  <path stroke-dasharray="15,10" stroke="red" stroke-width="4" d="M403.30496 586.17795h30.63706"/>
  <path stroke="#00f" stroke-width="4" d="M433.94202 586.17795h7.11596"/>
  <path stroke-dasharray="15,10" stroke="red" stroke-width="4" d="M441.05798 586.17795h30.63706"/>
  <path stroke="#00f" stroke-width="4" d="M471.69504 586.17795H500M438.47892 622.33641l1.58132 45.95741M436.52108 622.33641l-1.58132 45.95741"/>
  <path stroke-dasharray="15,10" stroke="red" stroke-width="4" d="M469.51635 622.33641l-.75938 45.95741M405.48365 622.33641l.75938 45.95741"/>
  <path stroke="#00f" stroke-width="4" d="M375 622.33641h30.48365"/>
  <path stroke-dasharray="15,10" stroke="red" stroke-width="4" d="M405.48365 622.33641h32.99527"/>
  <path stroke="#00f" stroke-width="4" d="M438.47892 622.33641h-1.95784"/>
  <path stroke-dasharray="15,10" stroke="red" stroke-width="4" d="M436.52108 622.33641h32.99527"/>
  <path stroke="#00f" stroke-width="4" d="M469.51635 622.33641H500M440.06024 668.29382v69.01762M434.93976 668.29382v69.01762"/>
  <path stroke-dasharray="15,10" stroke="red" stroke-width="4" d="M468.75697 668.29382v69.01762M406.24303 668.29382v69.01762"/>
  <path stroke="#00f" stroke-width="4" d="M375 668.29382h31.24303"/>
  <path stroke-dasharray="15,10" stroke="red" stroke-width="4" d="M406.24303 668.29382h33.81721"/>
  <path stroke="#00f" stroke-width="4" d="M440.06024 668.29382h-5.12048"/>
  <path stroke-dasharray="15,10" stroke="red" stroke-width="4" d="M434.93976 668.29382h33.81721"/>
  <path stroke="#00f" stroke-width="4" d="M468.75697 668.29382H500M564.15663 266.91903h0M560.84337 266.91903h0"/>
  <path stroke-dasharray="15,10" stroke="red" stroke-width="4" d="M594.1909 266.91903h0M530.8091 266.91903h0"/>
  <path stroke="#00f" stroke-width="4" d="M564.15663 266.91903l-3.78389 9.13593M560.84337 266.91903l3.78389 9.13593"/>
  <path stroke-dasharray="15,10" stroke="red" stroke-width="4" d="M594.1909 266.91903l1.81709 9.13593M530.8091 266.91903l-1.81709 9.13593M500 266.91903h30.8091"/>
  <path stroke="#00f" stroke-width="4" d="M530.8091 266.91903h33.34753"/>
  <path stroke-dasharray="15,10" stroke="red" stroke-width="4" d="M564.15663 266.91903h-3.31326"/>
  <path stroke="#00f" stroke-width="4" d="M560.84337 266.91903h33.34753"/>
  <path stroke-dasharray="15,10" stroke="red" stroke-width="4" d="M594.1909 266.91903H625"/>
  <path stroke="#00f" stroke-width="4" d="M560.37274 276.05496l-11.35166 27.40781M564.62726 276.05496l11.35166 27.40781"/>
  <path stroke-dasharray="15,10" stroke="red" stroke-width="4" d="M596.00799 276.05496l5.45126 27.40781M528.99201 276.05496l-5.45126 27.40781M500 276.05496h28.99201"/>
  <path stroke="#00f" stroke-width="4" d="M528.99201 276.05496h31.38073"/>
  <path stroke-dasharray="15,10" stroke="red" stroke-width="4" d="M560.37274 276.05496h4.25452"/>
  <path stroke="#00f" stroke-width="4" d="M564.62726 276.05496h31.38073"/>
  <path stroke-dasharray="15,10" stroke="red" stroke-width="4" d="M596.00799 276.05496H625"/>
  <path stroke="#00f" stroke-width="4" d="M549.02108 303.46277l-14.22957 34.35336M575.97892 303.46277l14.22957 34.35336"/>
  <path stroke-dasharray="15,10" stroke="red" stroke-width="4" d="M601.45925 303.46277l6.83328 34.35336M523.54075 303.46277l-6.83328 34.35336M500 303.46277h23.54075"/>
  <path stroke="#00f" stroke-width="4" d="M523.54075 303.46277h25.48033"/>
  <path stroke-dasharray="15,10" stroke="red" stroke-width="4" d="M549.02108 303.46277h26.95784"/>
  <path stroke="#00f" stroke-width="4" d="M575.97892 303.46277h25.48033"/>
  <path stroke-dasharray="15,10" stroke="red" stroke-width="4" d="M601.45925 303.46277H625"/>
  <path stroke="#00f" stroke-width="4" d="M534.79151 337.81613l-12.41764 29.98717M590.20849 337.81613l12.41764 29.98717"/>
  <path stroke-dasharray="15,10" stroke="red" stroke-width="4" d="M608.29253 337.81613l5.96316 29.98717M516.70747 337.81613l-5.96316 29.98717M500 337.81613h16.70747"/>
  <path stroke="#00f" stroke-width="4" d="M516.70747 337.81613h18.08404"/>
  <path stroke-dasharray="15,10" stroke="red" stroke-width="4" d="M534.79151 337.81613h55.41698"/>
  <path stroke="#00f" stroke-width="4" d="M590.20849 337.81613h18.08404"/>
  <path stroke-dasharray="15,10" stroke="red" stroke-width="4" d="M608.29253 337.81613H625"/>
  <path stroke="#00f" stroke-width="4" d="M522.37387 367.8033l-9.69974 23.49469M602.62613 367.8033l9.69974 23.49469"/>
  <path stroke-dasharray="15,10" stroke="red" stroke-width="4" d="M614.25569 367.8033l4.65798 23.49469M510.74431 367.8033l-4.65798 23.49469M500 367.8033h10.74431"/>
  <path stroke="#00f" stroke-width="4" d="M510.74431 367.8033h11.62956"/>
  <path stroke-dasharray="15,10" stroke="red" stroke-width="4" d="M522.37387 367.8033h80.25226"/>
  <path stroke="#00f" stroke-width="4" d="M602.62613 367.8033h11.62956"/>
  <path stroke-dasharray="15,10" stroke="red" stroke-width="4" d="M614.25569 367.8033H625"/>
  <path stroke="#00f" stroke-width="4" d="M512.67413 391.29799l-6.07586 15.08138M612.32587 391.29799l6.07586 15.08138"/>
  <path stroke-dasharray="15,10" stroke="red" stroke-width="4" d="M618.91367 391.29799l2.91773 15.08138M506.08633 391.29799l-2.91773 15.08138M500 391.29799h6.08633"/>
  <path stroke="#00f" stroke-width="4" d="M506.08633 391.29799h6.5878"/>
  <path stroke-dasharray="15,10" stroke="red" stroke-width="4" d="M512.67413 391.29799h99.65174"/>
  <path stroke="#00f" stroke-width="4" d="M612.32587 391.29799h6.5878"/>
  <path stroke-dasharray="15,10" stroke="red" stroke-width="4" d="M618.91367 391.29799H625"/>
  <path stroke="#00f" stroke-width="4" d="M506.59827 406.37937l-3.18383 8.97018M618.40173 406.37937l3.18383 8.97018"/>
  <path stroke-dasharray="15,10" stroke="red" stroke-width="4" d="M621.8314 406.37937l1.52893 8.97018M503.1686 406.37937l-1.52893 8.97018M500 406.37937h3.1686"/>
  <path stroke="#00f" stroke-width="4" d="M503.1686 406.37937h3.42967"/>
  <path stroke-dasharray="15,10" stroke="red" stroke-width="4" d="M506.59827 406.37937h111.80346"/>
  <path stroke="#00f" stroke-width="4" d="M618.40173 406.37937h3.42967"/>
  <path stroke-dasharray="15,10" stroke="red" stroke-width="4" d="M621.8314 406.37937H625"/>
  <path stroke="#00f" stroke-width="4" d="M503.41444 415.34955L500 426.52851M621.58556 415.34955L625 426.52851"/>
  <path stroke-dasharray="15,10" stroke="red" stroke-width="4" d="M623.36033 415.34955L625 426.52851M501.63967 415.34955L500 426.52851M500 415.34955h1.63967"/>
  <path stroke="#00f" stroke-width="4" d="M501.63967 415.34955h1.77477"/>
  <path stroke-dasharray="15,10" stroke="red" stroke-width="4" d="M503.41444 415.34955h118.17112"/>
  <path stroke="#00f" stroke-width="4" d="M621.58556 415.34955h1.77477"/>
  <path stroke-dasharray="15,10" stroke="red" stroke-width="4" d="M623.36033 415.34955H625"/>
  <path stroke="#00f" stroke-width="4" d="M500 426.52851l.45181 7.55646M625 426.52851l-.45181 7.55646"/>
  <path stroke-dasharray="15,10" stroke="red" stroke-width="4" d="M625 426.52851l-.21697 7.55646M500 426.52851l.21697 7.55646"/>
  <path stroke="#00f" stroke-width="4" d="M500 426.52851h125M500.45181 434.08497l1.80723 8.31961M624.54819 434.08497l-1.80723 8.31961"/>
  <path stroke-dasharray="15,10" stroke="red" stroke-width="4" d="M624.78303 434.08497l-.86786 8.31961M500.21697 434.08497l.86786 8.31961M500 434.08497h.21697"/>
  <path stroke="#00f" stroke-width="4" d="M500.21697 434.08497h.23484"/>
  <path stroke-dasharray="15,10" stroke="red" stroke-width="4" d="M500.45181 434.08497h124.09638"/>
  <path stroke="#00f" stroke-width="4" d="M624.54819 434.08497h.23484"/>
  <path stroke-dasharray="15,10" stroke="red" stroke-width="4" d="M624.78303 434.08497H625"/>
  <path stroke="#00f" stroke-width="4" d="M502.25904 442.40458l2.71084 6.73122M622.74096 442.40458l-2.71084 6.73122"/>
  <path stroke-dasharray="15,10" stroke="red" stroke-width="4" d="M623.91517 442.40458l-1.30179 6.73122M501.08483 442.40458l1.30179 6.73122M500 442.40458h1.08483"/>
  <path stroke="#00f" stroke-width="4" d="M501.08483 442.40458h1.17421"/>
  <path stroke-dasharray="15,10" stroke="red" stroke-width="4" d="M502.25904 442.40458h120.48192"/>
  <path stroke="#00f" stroke-width="4" d="M622.74096 442.40458h1.17421"/>
  <path stroke-dasharray="15,10" stroke="red" stroke-width="4" d="M623.91517 442.40458H625"/>
  <path stroke="#00f" stroke-width="4" d="M504.96988 449.1358l5.44992 13.15748M620.03012 449.1358l-5.44992 13.15748"/>
  <path stroke-dasharray="15,10" stroke="red" stroke-width="4" d="M622.61338 449.1358l-2.61715 13.15748M502.38662 449.1358l2.61715 13.15748M500 449.1358h2.38662"/>
  <path stroke="#00f" stroke-width="4" d="M502.38662 449.1358h2.58326"/>
  <path stroke-dasharray="15,10" stroke="red" stroke-width="4" d="M504.96988 449.1358h115.06024"/>
  <path stroke="#00f" stroke-width="4" d="M620.03012 449.1358h2.58326"/>
  <path stroke-dasharray="15,10" stroke="red" stroke-width="4" d="M622.61338 449.1358H625"/>
  <path stroke="#00f" stroke-width="4" d="M510.4198 462.29328l6.53709 15.90873M614.5802 462.29328l-6.53709 15.90873"/>
  <path stroke-dasharray="15,10" stroke="red" stroke-width="4" d="M619.99623 462.29328l-3.13922 15.90873M505.00377 462.29328l3.13922 15.90873"/>
  <path stroke="#00f" stroke-width="4" d="M500 462.29328h5.00377"/>
  <path stroke-dasharray="15,10" stroke="red" stroke-width="4" d="M505.00377 462.29328h5.41603"/>
  <path stroke="#00f" stroke-width="4" d="M510.4198 462.29328h104.1604"/>
  <path stroke-dasharray="15,10" stroke="red" stroke-width="4" d="M614.5802 462.29328h5.41603"/>
  <path stroke="#00f" stroke-width="4" d="M619.99623 462.29328H625M516.95689 478.20201l9.46442 22.85059M608.04311 478.20201l-9.46442 22.85059"/>
  <path stroke-dasharray="15,10" stroke="red" stroke-width="4" d="M616.85701 478.20201l-4.54497 22.85059M508.14299 478.20201l4.54497 22.85059M500 478.20201h8.14299"/>
  <path stroke="#00f" stroke-width="4" d="M508.14299 478.20201h8.8139"/>
  <path stroke-dasharray="15,10" stroke="red" stroke-width="4" d="M516.95689 478.20201h91.08622"/>
  <path stroke="#00f" stroke-width="4" d="M608.04311 478.20201h8.8139"/>
  <path stroke-dasharray="15,10" stroke="red" stroke-width="4" d="M616.85701 478.20201H625"/>
  <path stroke="#00f" stroke-width="4" d="M526.42131 501.0526l11.20811 27.11547M598.57869 501.0526l-11.20811 27.11547"/>
  <path stroke-dasharray="15,10" stroke="red" stroke-width="4" d="M612.31204 501.0526l-5.38233 27.11547M512.68796 501.0526l5.38233 27.11547"/>
  <path stroke="#00f" stroke-width="4" d="M500 501.0526h12.68796"/>
  <path stroke-dasharray="15,10" stroke="red" stroke-width="4" d="M512.68796 501.0526h13.73335"/>
  <path stroke="#00f" stroke-width="4" d="M526.42131 501.0526h72.15738"/>
  <path stroke-dasharray="15,10" stroke="red" stroke-width="4" d="M598.57869 501.0526h13.73335"/>
  <path stroke="#00f" stroke-width="4" d="M612.31204 501.0526H625M537.62942 528.16807l11.76817 29.14211M587.37058 528.16807l-11.76817 29.14211"/>
  <path stroke-dasharray="15,10" stroke="red" stroke-width="4" d="M606.92971 528.16807l-5.65127 29.14211M518.07029 528.16807l5.65127 29.14211"/>
  <path stroke="#00f" stroke-width="4" d="M500 528.16807h18.07029"/>
  <path stroke-dasharray="15,10" stroke="red" stroke-width="4" d="M518.07029 528.16807h19.55913"/>
  <path stroke="#00f" stroke-width="4" d="M537.62942 528.16807h49.74116"/>
  <path stroke-dasharray="15,10" stroke="red" stroke-width="4" d="M587.37058 528.16807h19.55913"/>
  <path stroke="#00f" stroke-width="4" d="M606.92971 528.16807H625M549.39759 557.31018l9.54443 28.86777M575.60241 557.31018l-9.54443 28.86777"/>
  <path stroke-dasharray="15,10" stroke="red" stroke-width="4" d="M601.27844 557.31018l-4.5834 28.86777M523.72156 557.31018l4.5834 28.86777"/>
  <path stroke="#00f" stroke-width="4" d="M500 557.31018h23.72156"/>
  <path stroke-dasharray="15,10" stroke="red" stroke-width="4" d="M523.72156 557.31018h25.67603"/>
  <path stroke="#00f" stroke-width="4" d="M549.39759 557.31018h26.20482"/>
  <path stroke-dasharray="15,10" stroke="red" stroke-width="4" d="M575.60241 557.31018h25.67603"/>
  <path stroke="#00f" stroke-width="4" d="M601.27844 557.31018H625M558.94202 586.17795l4.5369 36.15846M566.05798 586.17795l-4.5369 36.15846"/>
  <path stroke-dasharray="15,10" stroke="red" stroke-width="4" d="M596.69504 586.17795l-2.17869 36.15846M528.30496 586.17795l2.17869 36.15846"/>
  <path stroke="#00f" stroke-width="4" d="M500 586.17795h28.30496"/>
  <path stroke-dasharray="15,10" stroke="red" stroke-width="4" d="M528.30496 586.17795h30.63706"/>
  <path stroke="#00f" stroke-width="4" d="M558.94202 586.17795h7.11596"/>
  <path stroke-dasharray="15,10" stroke="red" stroke-width="4" d="M566.05798 586.17795h30.63706"/>
  <path stroke="#00f" stroke-width="4" d="M596.69504 586.17795H625M563.47892 622.33641l1.58132 45.95741M561.52108 622.33641l-1.58132 45.95741"/>
  <path stroke-dasharray="15,10" stroke="red" stroke-width="4" d="M594.51635 622.33641l-.75938 45.95741M530.48365 622.33641l.75938 45.95741"/>
  <path stroke="#00f" stroke-width="4" d="M500 622.33641h30.48365"/>
  <path stroke-dasharray="15,10" stroke="red" stroke-width="4" d="M530.48365 622.33641h32.99527"/>
  <path stroke="#00f" stroke-width="4" d="M563.47892 622.33641h-1.95784"/>
  <path stroke-dasharray="15,10" stroke="red" stroke-width="4" d="M561.52108 622.33641h32.99527"/>
  <path stroke="#00f" stroke-width="4" d="M594.51635 622.33641H625M565.06024 668.29382v69.01762M559.93976 668.29382v69.01762"/>
  <path stroke-dasharray="15,10" stroke="red" stroke-width="4" d="M593.75697 668.29382v69.01762M531.24303 668.29382v69.01762"/>
  <path stroke="#00f" stroke-width="4" d="M500 668.29382h31.24303"/>
  <path stroke-dasharray="15,10" stroke="red" stroke-width="4" d="M531.24303 668.29382h33.81721"/>
  <path stroke="#00f" stroke-width="4" d="M565.06024 668.29382h-5.12048"/>
  <path stroke-dasharray="15,10" stroke="red" stroke-width="4" d="M559.93976 668.29382h33.81721"/>
  <path stroke="#00f" stroke-width="4" d="M593.75697 668.29382H625M689.15663 266.91903h0M685.84337 266.91903h0"/>
  <path stroke-dasharray="15,10" stroke="red" stroke-width="4" d="M719.1909 266.91903h0M655.8091 266.91903h0"/>
  <path stroke="#00f" stroke-width="4" d="M689.15663 266.91903l-3.78389 9.13593M685.84337 266.91903l3.78389 9.13593"/>
  <path stroke-dasharray="15,10" stroke="red" stroke-width="4" d="M719.1909 266.91903l1.81709 9.13593M655.8091 266.91903l-1.81709 9.13593M625 266.91903h30.8091"/>
  <path stroke="#00f" stroke-width="4" d="M655.8091 266.91903h33.34753"/>
  <path stroke-dasharray="15,10" stroke="red" stroke-width="4" d="M689.15663 266.91903h-3.31326"/>
  <path stroke="#00f" stroke-width="4" d="M685.84337 266.91903h33.34753"/>
  <path stroke-dasharray="15,10" stroke="red" stroke-width="4" d="M719.1909 266.91903H750"/>
  <path stroke="#00f" stroke-width="4" d="M685.37274 276.05496l-11.35166 27.40781M689.62726 276.05496l11.35166 27.40781"/>
  <path stroke-dasharray="15,10" stroke="red" stroke-width="4" d="M721.00799 276.05496l5.45126 27.40781M653.99201 276.05496l-5.45126 27.40781M625 276.05496h28.99201"/>
  <path stroke="#00f" stroke-width="4" d="M653.99201 276.05496h31.38073"/>
  <path stroke-dasharray="15,10" stroke="red" stroke-width="4" d="M685.37274 276.05496h4.25452"/>
  <path stroke="#00f" stroke-width="4" d="M689.62726 276.05496h31.38073"/>
  <path stroke-dasharray="15,10" stroke="red" stroke-width="4" d="M721.00799 276.05496H750"/>
  <path stroke="#00f" stroke-width="4" d="M674.02108 303.46277l-14.22957 34.35336M700.97892 303.46277l14.22957 34.35336"/>
  <path stroke-dasharray="15,10" stroke="red" stroke-width="4" d="M726.45925 303.46277l6.83328 34.35336M648.54075 303.46277l-6.83328 34.35336M625 303.46277h23.54075"/>
  <path stroke="#00f" stroke-width="4" d="M648.54075 303.46277h25.48033"/>
  <path stroke-dasharray="15,10" stroke="red" stroke-width="4" d="M674.02108 303.46277h26.95784"/>
  <path stroke="#00f" stroke-width="4" d="M700.97892 303.46277h25.48033"/>
  <path stroke-dasharray="15,10" stroke="red" stroke-width="4" d="M726.45925 303.46277H750"/>
  <path stroke="#00f" stroke-width="4" d="M659.79151 337.81613l-12.41764 29.98717M715.20849 337.81613l12.41764 29.98717"/>
  <path stroke-dasharray="15,10" stroke="red" stroke-width="4" d="M733.29253 337.81613l5.96316 29.98717M641.70747 337.81613l-5.96316 29.98717M625 337.81613h16.70747"/>
  <path stroke="#00f" stroke-width="4" d="M641.70747 337.81613h18.08404"/>
  <path stroke-dasharray="15,10" stroke="red" stroke-width="4" d="M659.79151 337.81613h55.41698"/>
  <path stroke="#00f" stroke-width="4" d="M715.20849 337.81613h18.08404"/>
  <path stroke-dasharray="15,10" stroke="red" stroke-width="4" d="M733.29253 337.81613H750"/>
  <path stroke="#00f" stroke-width="4" d="M647.37387 367.8033l-9.69974 23.49469M727.62613 367.8033l9.69974 23.49469"/>
  <path stroke-dasharray="15,10" stroke="red" stroke-width="4" d="M739.25569 367.8033l4.65798 23.49469M635.74431 367.8033l-4.65798 23.49469M625 367.8033h10.74431"/>
  <path stroke="#00f" stroke-width="4" d="M635.74431 367.8033h11.62956"/>
  <path stroke-dasharray="15,10" stroke="red" stroke-width="4" d="M647.37387 367.8033h80.25226"/>
  <path stroke="#00f" stroke-width="4" d="M727.62613 367.8033h11.62956"/>
  <path stroke-dasharray="15,10" stroke="red" stroke-width="4" d="M739.25569 367.8033H750"/>
  <path stroke="#00f" stroke-width="4" d="M637.67413 391.29799l-6.07586 15.08138M737.32587 391.29799l6.07586 15.08138"/>
  <path stroke-dasharray="15,10" stroke="red" stroke-width="4" d="M743.91367 391.29799l2.91773 15.08138M631.08633 391.29799l-2.91773 15.08138M625 391.29799h6.08633"/>
  <path stroke="#00f" stroke-width="4" d="M631.08633 391.29799h6.5878"/>
  <path stroke-dasharray="15,10" stroke="red" stroke-width="4" d="M637.67413 391.29799h99.65174"/>
  <path stroke="#00f" stroke-width="4" d="M737.32587 391.29799h6.5878"/>
  <path stroke-dasharray="15,10" stroke="red" stroke-width="4" d="M743.91367 391.29799H750"/>
  <path stroke="#00f" stroke-width="4" d="M631.59827 406.37937l-3.18383 8.97018M743.40173 406.37937l3.18383 8.97018"/>
  <path stroke-dasharray="15,10" stroke="red" stroke-width="4" d="M746.8314 406.37937l1.52893 8.97018M628.1686 406.37937l-1.52893 8.97018M625 406.37937h3.1686"/>
  <path stroke="#00f" stroke-width="4" d="M628.1686 406.37937h3.42967"/>
  <path stroke-dasharray="15,10" stroke="red" stroke-width="4" d="M631.59827 406.37937h111.80346"/>
  <path stroke="#00f" stroke-width="4" d="M743.40173 406.37937h3.42967"/>
  <path stroke-dasharray="15,10" stroke="red" stroke-width="4" d="M746.8314 406.37937H750"/>
  <path stroke="#00f" stroke-width="4" d="M628.41444 415.34955L625 426.52851M746.58556 415.34955L750 426.52851"/>
  <path stroke-dasharray="15,10" stroke="red" stroke-width="4" d="M748.36033 415.34955L750 426.52851M626.63967 415.34955L625 426.52851M625 415.34955h1.63967"/>
  <path stroke="#00f" stroke-width="4" d="M626.63967 415.34955h1.77477"/>
  <path stroke-dasharray="15,10" stroke="red" stroke-width="4" d="M628.41444 415.34955h118.17112"/>
  <path stroke="#00f" stroke-width="4" d="M746.58556 415.34955h1.77477"/>
  <path stroke-dasharray="15,10" stroke="red" stroke-width="4" d="M748.36033 415.34955H750"/>
  <path stroke="#00f" stroke-width="4" d="M625 426.52851l.45181 7.55646M750 426.52851l-.45181 7.55646"/>
  <path stroke-dasharray="15,10" stroke="red" stroke-width="4" d="M750 426.52851l-.21697 7.55646M625 426.52851l.21697 7.55646"/>
  <path stroke="#00f" stroke-width="4" d="M625 426.52851h125M625.45181 434.08497l1.80723 8.31961M749.54819 434.08497l-1.80723 8.31961"/>
  <path stroke-dasharray="15,10" stroke="red" stroke-width="4" d="M749.78303 434.08497l-.86786 8.31961M625.21697 434.08497l.86786 8.31961M625 434.08497h.21697"/>
  <path stroke="#00f" stroke-width="4" d="M625.21697 434.08497h.23484"/>
  <path stroke-dasharray="15,10" stroke="red" stroke-width="4" d="M625.45181 434.08497h124.09638"/>
  <path stroke="#00f" stroke-width="4" d="M749.54819 434.08497h.23484"/>
  <path stroke-dasharray="15,10" stroke="red" stroke-width="4" d="M749.78303 434.08497H750"/>
  <path stroke="#00f" stroke-width="4" d="M627.25904 442.40458l2.71084 6.73122M747.74096 442.40458l-2.71084 6.73122"/>
  <path stroke-dasharray="15,10" stroke="red" stroke-width="4" d="M748.91517 442.40458l-1.30179 6.73122M626.08483 442.40458l1.30179 6.73122M625 442.40458h1.08483"/>
  <path stroke="#00f" stroke-width="4" d="M626.08483 442.40458h1.17421"/>
  <path stroke-dasharray="15,10" stroke="red" stroke-width="4" d="M627.25904 442.40458h120.48192"/>
  <path stroke="#00f" stroke-width="4" d="M747.74096 442.40458h1.17421"/>
  <path stroke-dasharray="15,10" stroke="red" stroke-width="4" d="M748.91517 442.40458H750"/>
  <path stroke="#00f" stroke-width="4" d="M629.96988 449.1358l5.44992 13.15748M745.03012 449.1358l-5.44992 13.15748"/>
  <path stroke-dasharray="15,10" stroke="red" stroke-width="4" d="M747.61338 449.1358l-2.61715 13.15748M627.38662 449.1358l2.61715 13.15748M625 449.1358h2.38662"/>
  <path stroke="#00f" stroke-width="4" d="M627.38662 449.1358h2.58326"/>
  <path stroke-dasharray="15,10" stroke="red" stroke-width="4" d="M629.96988 449.1358h115.06024"/>
  <path stroke="#00f" stroke-width="4" d="M745.03012 449.1358h2.58326"/>
  <path stroke-dasharray="15,10" stroke="red" stroke-width="4" d="M747.61338 449.1358H750"/>
  <path stroke="#00f" stroke-width="4" d="M635.4198 462.29328l6.53709 15.90873M739.5802 462.29328l-6.53709 15.90873"/>
  <path stroke-dasharray="15,10" stroke="red" stroke-width="4" d="M744.99623 462.29328l-3.13922 15.90873M630.00377 462.29328l3.13922 15.90873"/>
  <path stroke="#00f" stroke-width="4" d="M625 462.29328h5.00377"/>
  <path stroke-dasharray="15,10" stroke="red" stroke-width="4" d="M630.00377 462.29328h5.41603"/>
  <path stroke="#00f" stroke-width="4" d="M635.4198 462.29328h104.1604"/>
  <path stroke-dasharray="15,10" stroke="red" stroke-width="4" d="M739.5802 462.29328h5.41603"/>
  <path stroke="#00f" stroke-width="4" d="M744.99623 462.29328H750M641.95689 478.20201l9.46442 22.85059M733.04311 478.20201l-9.46442 22.85059"/>
  <path stroke-dasharray="15,10" stroke="red" stroke-width="4" d="M741.85701 478.20201l-4.54497 22.85059M633.14299 478.20201l4.54497 22.85059M625 478.20201h8.14299"/>
  <path stroke="#00f" stroke-width="4" d="M633.14299 478.20201h8.8139"/>
  <path stroke-dasharray="15,10" stroke="red" stroke-width="4" d="M641.95689 478.20201h91.08622"/>
  <path stroke="#00f" stroke-width="4" d="M733.04311 478.20201h8.8139"/>
  <path stroke-dasharray="15,10" stroke="red" stroke-width="4" d="M741.85701 478.20201H750"/>
  <path stroke="#00f" stroke-width="4" d="M651.42131 501.0526l11.20811 27.11547M723.57869 501.0526l-11.20811 27.11547"/>
  <path stroke-dasharray="15,10" stroke="red" stroke-width="4" d="M737.31204 501.0526l-5.38233 27.11547M637.68796 501.0526l5.38233 27.11547"/>
  <path stroke="#00f" stroke-width="4" d="M625 501.0526h12.68796"/>
  <path stroke-dasharray="15,10" stroke="red" stroke-width="4" d="M637.68796 501.0526h13.73335"/>
  <path stroke="#00f" stroke-width="4" d="M651.42131 501.0526h72.15738"/>
  <path stroke-dasharray="15,10" stroke="red" stroke-width="4" d="M723.57869 501.0526h13.73335"/>
  <path stroke="#00f" stroke-width="4" d="M737.31204 501.0526H750M662.62942 528.16807l11.76817 29.14211M712.37058 528.16807l-11.76817 29.14211"/>
  <path stroke-dasharray="15,10" stroke="red" stroke-width="4" d="M731.92971 528.16807l-5.65127 29.14211M643.07029 528.16807l5.65127 29.14211"/>
  <path stroke="#00f" stroke-width="4" d="M625 528.16807h18.07029"/>
  <path stroke-dasharray="15,10" stroke="red" stroke-width="4" d="M643.07029 528.16807h19.55913"/>
  <path stroke="#00f" stroke-width="4" d="M662.62942 528.16807h49.74116"/>
  <path stroke-dasharray="15,10" stroke="red" stroke-width="4" d="M712.37058 528.16807h19.55913"/>
  <path stroke="#00f" stroke-width="4" d="M731.92971 528.16807H750M674.39759 557.31018l9.54443 28.86777M700.60241 557.31018l-9.54443 28.86777"/>
  <path stroke-dasharray="15,10" stroke="red" stroke-width="4" d="M726.27844 557.31018l-4.5834 28.86777M648.72156 557.31018l4.5834 28.86777"/>
  <path stroke="#00f" stroke-width="4" d="M625 557.31018h23.72156"/>
  <path stroke-dasharray="15,10" stroke="red" stroke-width="4" d="M648.72156 557.31018h25.67603"/>
  <path stroke="#00f" stroke-width="4" d="M674.39759 557.31018h26.20482"/>
  <path stroke-dasharray="15,10" stroke="red" stroke-width="4" d="M700.60241 557.31018h25.67603"/>
  <path stroke="#00f" stroke-width="4" d="M726.27844 557.31018H750M683.94202 586.17795l4.5369 36.15846M691.05798 586.17795l-4.5369 36.15846"/>
  <path stroke-dasharray="15,10" stroke="red" stroke-width="4" d="M721.69504 586.17795l-2.17869 36.15846M653.30496 586.17795l2.17869 36.15846"/>
  <path stroke="#00f" stroke-width="4" d="M625 586.17795h28.30496"/>
  <path stroke-dasharray="15,10" stroke="red" stroke-width="4" d="M653.30496 586.17795h30.63706"/>
  <path stroke="#00f" stroke-width="4" d="M683.94202 586.17795h7.11596"/>
  <path stroke-dasharray="15,10" stroke="red" stroke-width="4" d="M691.05798 586.17795h30.63706"/>
  <path stroke="#00f" stroke-width="4" d="M721.69504 586.17795H750M688.47892 622.33641l1.58132 45.95741M686.52108 622.33641l-1.58132 45.95741"/>
  <path stroke-dasharray="15,10" stroke="red" stroke-width="4" d="M719.51635 622.33641l-.75938 45.95741M655.48365 622.33641l.75938 45.95741"/>
  <path stroke="#00f" stroke-width="4" d="M625 622.33641h30.48365"/>
  <path stroke-dasharray="15,10" stroke="red" stroke-width="4" d="M655.48365 622.33641h32.99527"/>
  <path stroke="#00f" stroke-width="4" d="M688.47892 622.33641h-1.95784"/>
  <path stroke-dasharray="15,10" stroke="red" stroke-width="4" d="M686.52108 622.33641h32.99527"/>
  <path stroke="#00f" stroke-width="4" d="M719.51635 622.33641H750M690.06024 668.29382v69.01762M684.93976 668.29382v69.01762"/>
  <path stroke-dasharray="15,10" stroke="red" stroke-width="4" d="M718.75697 668.29382v69.01762M656.24303 668.29382v69.01762"/>
  <path stroke="#00f" stroke-width="4" d="M625 668.29382h31.24303"/>
  <path stroke-dasharray="15,10" stroke="red" stroke-width="4" d="M656.24303 668.29382h33.81721"/>
  <path stroke="#00f" stroke-width="4" d="M690.06024 668.29382h-5.12048"/>
  <path stroke-dasharray="15,10" stroke="red" stroke-width="4" d="M684.93976 668.29382h33.81721"/>
  <path stroke="#00f" stroke-width="4" d="M718.75697 668.29382H750M814.15663 266.91903h0M810.84337 266.91903h0"/>
  <path stroke-dasharray="15,10" stroke="red" stroke-width="4" d="M844.1909 266.91903h0M780.8091 266.91903h0"/>
  <path stroke="#00f" stroke-width="4" d="M814.15663 266.91903l-3.78389 9.13593M810.84337 266.91903l3.78389 9.13593"/>
  <path stroke-dasharray="15,10" stroke="red" stroke-width="4" d="M844.1909 266.91903l1.81709 9.13593M780.8091 266.91903l-1.81709 9.13593M750 266.91903h30.8091"/>
  <path stroke="#00f" stroke-width="4" d="M780.8091 266.91903h33.34753"/>
  <path stroke-dasharray="15,10" stroke="red" stroke-width="4" d="M814.15663 266.91903h-3.31326"/>
  <path stroke="#00f" stroke-width="4" d="M810.84337 266.91903h33.34753"/>
  <path stroke-dasharray="15,10" stroke="red" stroke-width="4" d="M844.1909 266.91903H875"/>
  <path stroke="#00f" stroke-width="4" d="M810.37274 276.05496l-11.35166 27.40781M814.62726 276.05496l11.35166 27.40781"/>
  <path stroke-dasharray="15,10" stroke="red" stroke-width="4" d="M846.00799 276.05496l5.45126 27.40781M778.99201 276.05496l-5.45126 27.40781M750 276.05496h28.99201"/>
  <path stroke="#00f" stroke-width="4" d="M778.99201 276.05496h31.38073"/>
  <path stroke-dasharray="15,10" stroke="red" stroke-width="4" d="M810.37274 276.05496h4.25452"/>
  <path stroke="#00f" stroke-width="4" d="M814.62726 276.05496h31.38073"/>
  <path stroke-dasharray="15,10" stroke="red" stroke-width="4" d="M846.00799 276.05496H875"/>
  <path stroke="#00f" stroke-width="4" d="M799.02108 303.46277l-14.22957 34.35336M825.97892 303.46277l14.22957 34.35336"/>
  <path stroke-dasharray="15,10" stroke="red" stroke-width="4" d="M851.45925 303.46277l6.83328 34.35336M773.54075 303.46277l-6.83328 34.35336M750 303.46277h23.54075"/>
  <path stroke="#00f" stroke-width="4" d="M773.54075 303.46277h25.48033"/>
  <path stroke-dasharray="15,10" stroke="red" stroke-width="4" d="M799.02108 303.46277h26.95784"/>
  <path stroke="#00f" stroke-width="4" d="M825.97892 303.46277h25.48033"/>
  <path stroke-dasharray="15,10" stroke="red" stroke-width="4" d="M851.45925 303.46277H875"/>
  <path stroke="#00f" stroke-width="4" d="M784.79151 337.81613l-12.41764 29.98717M840.20849 337.81613l12.41764 29.98717"/>
  <path stroke-dasharray="15,10" stroke="red" stroke-width="4" d="M858.29253 337.81613l5.96316 29.98717M766.70747 337.81613l-5.96316 29.98717M750 337.81613h16.70747"/>
  <path stroke="#00f" stroke-width="4" d="M766.70747 337.81613h18.08404"/>
  <path stroke-dasharray="15,10" stroke="red" stroke-width="4" d="M784.79151 337.81613h55.41698"/>
  <path stroke="#00f" stroke-width="4" d="M840.20849 337.81613h18.08404"/>
  <path stroke-dasharray="15,10" stroke="red" stroke-width="4" d="M858.29253 337.81613H875"/>
  <path stroke="#00f" stroke-width="4" d="M772.37387 367.8033l-9.69974 23.49469M852.62613 367.8033l9.69974 23.49469"/>
  <path stroke-dasharray="15,10" stroke="red" stroke-width="4" d="M864.25569 367.8033l4.65798 23.49469M760.74431 367.8033l-4.65798 23.49469M750 367.8033h10.74431"/>
  <path stroke="#00f" stroke-width="4" d="M760.74431 367.8033h11.62956"/>
  <path stroke-dasharray="15,10" stroke="red" stroke-width="4" d="M772.37387 367.8033h80.25226"/>
  <path stroke="#00f" stroke-width="4" d="M852.62613 367.8033h11.62956"/>
  <path stroke-dasharray="15,10" stroke="red" stroke-width="4" d="M864.25569 367.8033H875"/>
  <path stroke="#00f" stroke-width="4" d="M762.67413 391.29799l-6.07586 15.08138M862.32587 391.29799l6.07586 15.08138"/>
  <path stroke-dasharray="15,10" stroke="red" stroke-width="4" d="M868.91367 391.29799l2.91773 15.08138M756.08633 391.29799l-2.91773 15.08138M750 391.29799h6.08633"/>
  <path stroke="#00f" stroke-width="4" d="M756.08633 391.29799h6.5878"/>
  <path stroke-dasharray="15,10" stroke="red" stroke-width="4" d="M762.67413 391.29799h99.65174"/>
  <path stroke="#00f" stroke-width="4" d="M862.32587 391.29799h6.5878"/>
  <path stroke-dasharray="15,10" stroke="red" stroke-width="4" d="M868.91367 391.29799H875"/>
  <path stroke="#00f" stroke-width="4" d="M756.59827 406.37937l-3.18383 8.97018M868.40173 406.37937l3.18383 8.97018"/>
  <path stroke-dasharray="15,10" stroke="red" stroke-width="4" d="M871.8314 406.37937l1.52893 8.97018M753.1686 406.37937l-1.52893 8.97018M750 406.37937h3.1686"/>
  <path stroke="#00f" stroke-width="4" d="M753.1686 406.37937h3.42967"/>
  <path stroke-dasharray="15,10" stroke="red" stroke-width="4" d="M756.59827 406.37937h111.80346"/>
  <path stroke="#00f" stroke-width="4" d="M868.40173 406.37937h3.42967"/>
  <path stroke-dasharray="15,10" stroke="red" stroke-width="4" d="M871.8314 406.37937H875"/>
  <path stroke="#00f" stroke-width="4" d="M753.41444 415.34955L750 426.52851M871.58556 415.34955L875 426.52851"/>
  <path stroke-dasharray="15,10" stroke="red" stroke-width="4" d="M873.36033 415.34955L875 426.52851M751.63967 415.34955L750 426.52851M750 415.34955h1.63967"/>
  <path stroke="#00f" stroke-width="4" d="M751.63967 415.34955h1.77477"/>
  <path stroke-dasharray="15,10" stroke="red" stroke-width="4" d="M753.41444 415.34955h118.17112"/>
  <path stroke="#00f" stroke-width="4" d="M871.58556 415.34955h1.77477"/>
  <path stroke-dasharray="15,10" stroke="red" stroke-width="4" d="M873.36033 415.34955H875"/>
  <path stroke="#00f" stroke-width="4" d="M750 426.52851l.45181 7.55646M875 426.52851l-.45181 7.55646"/>
  <path stroke-dasharray="15,10" stroke="red" stroke-width="4" d="M875 426.52851l-.21697 7.55646M750 426.52851l.21697 7.55646"/>
  <path stroke="#00f" stroke-width="4" d="M750 426.52851h125M750.45181 434.08497l1.80723 8.31961M874.54819 434.08497l-1.80723 8.31961"/>
  <path stroke-dasharray="15,10" stroke="red" stroke-width="4" d="M874.78303 434.08497l-.86786 8.31961M750.21697 434.08497l.86786 8.31961M750 434.08497h.21697"/>
  <path stroke="#00f" stroke-width="4" d="M750.21697 434.08497h.23484"/>
  <path stroke-dasharray="15,10" stroke="red" stroke-width="4" d="M750.45181 434.08497h124.09638"/>
  <path stroke="#00f" stroke-width="4" d="M874.54819 434.08497h.23484"/>
  <path stroke-dasharray="15,10" stroke="red" stroke-width="4" d="M874.78303 434.08497H875"/>
  <path stroke="#00f" stroke-width="4" d="M752.25904 442.40458l2.71084 6.73122M872.74096 442.40458l-2.71084 6.73122"/>
  <path stroke-dasharray="15,10" stroke="red" stroke-width="4" d="M873.91517 442.40458l-1.30179 6.73122M751.08483 442.40458l1.30179 6.73122M750 442.40458h1.08483"/>
  <path stroke="#00f" stroke-width="4" d="M751.08483 442.40458h1.17421"/>
  <path stroke-dasharray="15,10" stroke="red" stroke-width="4" d="M752.25904 442.40458h120.48192"/>
  <path stroke="#00f" stroke-width="4" d="M872.74096 442.40458h1.17421"/>
  <path stroke-dasharray="15,10" stroke="red" stroke-width="4" d="M873.91517 442.40458H875"/>
  <path stroke="#00f" stroke-width="4" d="M754.96988 449.1358l5.44992 13.15748M870.03012 449.1358l-5.44992 13.15748"/>
  <path stroke-dasharray="15,10" stroke="red" stroke-width="4" d="M872.61338 449.1358l-2.61715 13.15748M752.38662 449.1358l2.61715 13.15748M750 449.1358h2.38662"/>
  <path stroke="#00f" stroke-width="4" d="M752.38662 449.1358h2.58326"/>
  <path stroke-dasharray="15,10" stroke="red" stroke-width="4" d="M754.96988 449.1358h115.06024"/>
  <path stroke="#00f" stroke-width="4" d="M870.03012 449.1358h2.58326"/>
  <path stroke-dasharray="15,10" stroke="red" stroke-width="4" d="M872.61338 449.1358H875"/>
  <path stroke="#00f" stroke-width="4" d="M760.4198 462.29328l6.53709 15.90873M864.5802 462.29328l-6.53709 15.90873"/>
  <path stroke-dasharray="15,10" stroke="red" stroke-width="4" d="M869.99623 462.29328l-3.13922 15.90873M755.00377 462.29328l3.13922 15.90873"/>
  <path stroke="#00f" stroke-width="4" d="M750 462.29328h5.00377"/>
  <path stroke-dasharray="15,10" stroke="red" stroke-width="4" d="M755.00377 462.29328h5.41603"/>
  <path stroke="#00f" stroke-width="4" d="M760.4198 462.29328h104.1604"/>
  <path stroke-dasharray="15,10" stroke="red" stroke-width="4" d="M864.5802 462.29328h5.41603"/>
  <path stroke="#00f" stroke-width="4" d="M869.99623 462.29328H875M766.95689 478.20201l9.46442 22.85059M858.04311 478.20201l-9.46442 22.85059"/>
  <path stroke-dasharray="15,10" stroke="red" stroke-width="4" d="M866.85701 478.20201l-4.54497 22.85059M758.14299 478.20201l4.54497 22.85059M750 478.20201h8.14299"/>
  <path stroke="#00f" stroke-width="4" d="M758.14299 478.20201h8.8139"/>
  <path stroke-dasharray="15,10" stroke="red" stroke-width="4" d="M766.95689 478.20201h91.08622"/>
  <path stroke="#00f" stroke-width="4" d="M858.04311 478.20201h8.8139"/>
  <path stroke-dasharray="15,10" stroke="red" stroke-width="4" d="M866.85701 478.20201H875"/>
  <path stroke="#00f" stroke-width="4" d="M776.42131 501.0526l11.20811 27.11547M848.57869 501.0526l-11.20811 27.11547"/>
  <path stroke-dasharray="15,10" stroke="red" stroke-width="4" d="M862.31204 501.0526l-5.38233 27.11547M762.68796 501.0526l5.38233 27.11547"/>
  <path stroke="#00f" stroke-width="4" d="M750 501.0526h12.68796"/>
  <path stroke-dasharray="15,10" stroke="red" stroke-width="4" d="M762.68796 501.0526h13.73335"/>
  <path stroke="#00f" stroke-width="4" d="M776.42131 501.0526h72.15738"/>
  <path stroke-dasharray="15,10" stroke="red" stroke-width="4" d="M848.57869 501.0526h13.73335"/>
  <path stroke="#00f" stroke-width="4" d="M862.31204 501.0526H875M787.62942 528.16807l11.76817 29.14211M837.37058 528.16807l-11.76817 29.14211"/>
  <path stroke-dasharray="15,10" stroke="red" stroke-width="4" d="M856.92971 528.16807l-5.65127 29.14211M768.07029 528.16807l5.65127 29.14211"/>
  <path stroke="#00f" stroke-width="4" d="M750 528.16807h18.07029"/>
  <path stroke-dasharray="15,10" stroke="red" stroke-width="4" d="M768.07029 528.16807h19.55913"/>
  <path stroke="#00f" stroke-width="4" d="M787.62942 528.16807h49.74116"/>
  <path stroke-dasharray="15,10" stroke="red" stroke-width="4" d="M837.37058 528.16807h19.55913"/>
  <path stroke="#00f" stroke-width="4" d="M856.92971 528.16807H875M799.39759 557.31018l9.54443 28.86777M825.60241 557.31018l-9.54443 28.86777"/>
  <path stroke-dasharray="15,10" stroke="red" stroke-width="4" d="M851.27844 557.31018l-4.5834 28.86777M773.72156 557.31018l4.5834 28.86777"/>
  <path stroke="#00f" stroke-width="4" d="M750 557.31018h23.72156"/>
  <path stroke-dasharray="15,10" stroke="red" stroke-width="4" d="M773.72156 557.31018h25.67603"/>
  <path stroke="#00f" stroke-width="4" d="M799.39759 557.31018h26.20482"/>
  <path stroke-dasharray="15,10" stroke="red" stroke-width="4" d="M825.60241 557.31018h25.67603"/>
  <path stroke="#00f" stroke-width="4" d="M851.27844 557.31018H875M808.94202 586.17795l4.5369 36.15846M816.05798 586.17795l-4.5369 36.15846"/>
  <path stroke-dasharray="15,10" stroke="red" stroke-width="4" d="M846.69504 586.17795l-2.17869 36.15846M778.30496 586.17795l2.17869 36.15846"/>
  <path stroke="#00f" stroke-width="4" d="M750 586.17795h28.30496"/>
  <path stroke-dasharray="15,10" stroke="red" stroke-width="4" d="M778.30496 586.17795h30.63706"/>
  <path stroke="#00f" stroke-width="4" d="M808.94202 586.17795h7.11596"/>
  <path stroke-dasharray="15,10" stroke="red" stroke-width="4" d="M816.05798 586.17795h30.63706"/>
  <path stroke="#00f" stroke-width="4" d="M846.69504 586.17795H875M813.47892 622.33641l1.58132 45.95741M811.52108 622.33641l-1.58132 45.95741"/>
  <path stroke-dasharray="15,10" stroke="red" stroke-width="4" d="M844.51635 622.33641l-.75938 45.95741M780.48365 622.33641l.75938 45.95741"/>
  <path stroke="#00f" stroke-width="4" d="M750 622.33641h30.48365"/>
  <path stroke-dasharray="15,10" stroke="red" stroke-width="4" d="M780.48365 622.33641h32.99527"/>
  <path stroke="#00f" stroke-width="4" d="M813.47892 622.33641h-1.95784"/>
  <path stroke-dasharray="15,10" stroke="red" stroke-width="4" d="M811.52108 622.33641h32.99527"/>
  <path stroke="#00f" stroke-width="4" d="M844.51635 622.33641H875M815.06024 668.29382v69.01762M809.93976 668.29382v69.01762"/>
  <path stroke-dasharray="15,10" stroke="red" stroke-width="4" d="M843.75697 668.29382v69.01762M781.24303 668.29382v69.01762"/>
  <path stroke="#00f" stroke-width="4" d="M750 668.29382h31.24303"/>
  <path stroke-dasharray="15,10" stroke="red" stroke-width="4" d="M781.24303 668.29382h33.81721"/>
  <path stroke="#00f" stroke-width="4" d="M815.06024 668.29382h-5.12048"/>
  <path stroke-dasharray="15,10" stroke="red" stroke-width="4" d="M809.93976 668.29382h33.81721"/>
  <path stroke="#00f" stroke-width="4" d="M843.75697 668.29382H875M939.15663 266.91903h0M935.84337 266.91903h0"/>
  <path stroke-dasharray="15,10" stroke="red" stroke-width="4" d="M969.1909 266.91903h0M905.8091 266.91903h0"/>
  <path stroke="#00f" stroke-width="4" d="M939.15663 266.91903l-3.78389 9.13593M935.84337 266.91903l3.78389 9.13593"/>
  <path stroke-dasharray="15,10" stroke="red" stroke-width="4" d="M969.1909 266.91903l1.81709 9.13593M905.8091 266.91903l-1.81709 9.13593M875 266.91903h30.8091"/>
  <path stroke="#00f" stroke-width="4" d="M905.8091 266.91903h33.34753"/>
  <path stroke-dasharray="15,10" stroke="red" stroke-width="4" d="M939.15663 266.91903h-3.31326"/>
  <path stroke="#00f" stroke-width="4" d="M935.84337 266.91903h33.34753"/>
  <path stroke-dasharray="15,10" stroke="red" stroke-width="4" d="M969.1909 266.91903H1000"/>
  <path stroke="#00f" stroke-width="4" d="M935.37274 276.05496l-11.35166 27.40781M939.62726 276.05496l11.35166 27.40781"/>
  <path stroke-dasharray="15,10" stroke="red" stroke-width="4" d="M971.00799 276.05496l5.45126 27.40781M903.99201 276.05496l-5.45126 27.40781M875 276.05496h28.99201"/>
  <path stroke="#00f" stroke-width="4" d="M903.99201 276.05496h31.38073"/>
  <path stroke-dasharray="15,10" stroke="red" stroke-width="4" d="M935.37274 276.05496h4.25452"/>
  <path stroke="#00f" stroke-width="4" d="M939.62726 276.05496h31.38073"/>
  <path stroke-dasharray="15,10" stroke="red" stroke-width="4" d="M971.00799 276.05496H1000"/>
  <path stroke="#00f" stroke-width="4" d="M924.02108 303.46277l-14.22957 34.35336M950.97892 303.46277l14.22957 34.35336"/>
  <path stroke-dasharray="15,10" stroke="red" stroke-width="4" d="M976.45925 303.46277l6.83328 34.35336M898.54075 303.46277l-6.83328 34.35336M875 303.46277h23.54075"/>
  <path stroke="#00f" stroke-width="4" d="M898.54075 303.46277h25.48033"/>
  <path stroke-dasharray="15,10" stroke="red" stroke-width="4" d="M924.02108 303.46277h26.95784"/>
  <path stroke="#00f" stroke-width="4" d="M950.97892 303.46277h25.48033"/>
  <path stroke-dasharray="15,10" stroke="red" stroke-width="4" d="M976.45925 303.46277H1000"/>
  <path stroke="#00f" stroke-width="4" d="M909.79151 337.81613l-12.41764 29.98717M965.20849 337.81613l12.41764 29.98717"/>
  <path stroke-dasharray="15,10" stroke="red" stroke-width="4" d="M983.29253 337.81613l5.96316 29.98717M891.70747 337.81613l-5.96316 29.98717M875 337.81613h16.70747"/>
  <path stroke="#00f" stroke-width="4" d="M891.70747 337.81613h18.08404"/>
  <path stroke-dasharray="15,10" stroke="red" stroke-width="4" d="M909.79151 337.81613h55.41698"/>
  <path stroke="#00f" stroke-width="4" d="M965.20849 337.81613h18.08404"/>
  <path stroke-dasharray="15,10" stroke="red" stroke-width="4" d="M983.29253 337.81613H1000"/>
  <path stroke="#00f" stroke-width="4" d="M897.37387 367.8033l-9.69974 23.49469M977.62613 367.8033l9.69974 23.49469"/>
  <path stroke-dasharray="15,10" stroke="red" stroke-width="4" d="M989.25569 367.8033l4.65798 23.49469M885.74431 367.8033l-4.65798 23.49469M875 367.8033h10.74431"/>
  <path stroke="#00f" stroke-width="4" d="M885.74431 367.8033h11.62956"/>
  <path stroke-dasharray="15,10" stroke="red" stroke-width="4" d="M897.37387 367.8033h80.25226"/>
  <path stroke="#00f" stroke-width="4" d="M977.62613 367.8033h11.62956"/>
  <path stroke-dasharray="15,10" stroke="red" stroke-width="4" d="M989.25569 367.8033H1000"/>
  <path stroke="#00f" stroke-width="4" d="M887.67413 391.29799l-6.07586 15.08138M987.32587 391.29799l6.07586 15.08138"/>
  <path stroke-dasharray="15,10" stroke="red" stroke-width="4" d="M993.91367 391.29799l2.91773 15.08138M881.08633 391.29799l-2.91773 15.08138M875 391.29799h6.08633"/>
  <path stroke="#00f" stroke-width="4" d="M881.08633 391.29799h6.5878"/>
  <path stroke-dasharray="15,10" stroke="red" stroke-width="4" d="M887.67413 391.29799h99.65174"/>
  <path stroke="#00f" stroke-width="4" d="M987.32587 391.29799h6.5878"/>
  <path stroke-dasharray="15,10" stroke="red" stroke-width="4" d="M993.91367 391.29799H1000"/>
  <path stroke="#00f" stroke-width="4" d="M881.59827 406.37937l-3.18383 8.97018M993.40173 406.37937l3.18383 8.97018"/>
  <path stroke-dasharray="15,10" stroke="red" stroke-width="4" d="M996.8314 406.37937l1.52893 8.97018M878.1686 406.37937l-1.52893 8.97018M875 406.37937h3.1686"/>
  <path stroke="#00f" stroke-width="4" d="M878.1686 406.37937h3.42967"/>
  <path stroke-dasharray="15,10" stroke="red" stroke-width="4" d="M881.59827 406.37937h111.80346"/>
  <path stroke="#00f" stroke-width="4" d="M993.40173 406.37937h3.42967"/>
  <path stroke-dasharray="15,10" stroke="red" stroke-width="4" d="M996.8314 406.37937H1000"/>
  <path stroke="#00f" stroke-width="4" d="M878.41444 415.34955L875 426.52851M996.58556 415.34955L1000 426.52851"/>
  <path stroke-dasharray="15,10" stroke="red" stroke-width="4" d="M998.36033 415.34955L1000 426.52851M876.63967 415.34955L875 426.52851M875 415.34955h1.63967"/>
  <path stroke="#00f" stroke-width="4" d="M876.63967 415.34955h1.77477"/>
  <path stroke-dasharray="15,10" stroke="red" stroke-width="4" d="M878.41444 415.34955h118.17112"/>
  <path stroke="#00f" stroke-width="4" d="M996.58556 415.34955h1.77477"/>
  <path stroke-dasharray="15,10" stroke="red" stroke-width="4" d="M998.36033 415.34955H1000"/>
  <path stroke="#00f" stroke-width="4" d="M875 426.52851l.45181 7.55646M1000 426.52851l-.45181 7.55646"/>
  <path stroke-dasharray="15,10" stroke="red" stroke-width="4" d="M1000 426.52851l-.21697 7.55646M875 426.52851l.21697 7.55646"/>
  <path stroke="#00f" stroke-width="4" d="M875 426.52851h125M875.45181 434.08497l1.80723 8.31961M999.54819 434.08497l-1.80723 8.31961"/>
  <path stroke-dasharray="15,10" stroke="red" stroke-width="4" d="M999.78303 434.08497l-.86786 8.31961M875.21697 434.08497l.86786 8.31961M875 434.08497h.21697"/>
  <path stroke="#00f" stroke-width="4" d="M875.21697 434.08497h.23484"/>
  <path stroke-dasharray="15,10" stroke="red" stroke-width="4" d="M875.45181 434.08497h124.09638"/>
  <path stroke="#00f" stroke-width="4" d="M999.54819 434.08497h.23484"/>
  <path stroke-dasharray="15,10" stroke="red" stroke-width="4" d="M999.78303 434.08497H1000"/>
  <path stroke="#00f" stroke-width="4" d="M877.25904 442.40458l2.71084 6.73122M997.74096 442.40458l-2.71084 6.73122"/>
  <path stroke-dasharray="15,10" stroke="red" stroke-width="4" d="M998.91517 442.40458l-1.30179 6.73122M876.08483 442.40458l1.30179 6.73122M875 442.40458h1.08483"/>
  <path stroke="#00f" stroke-width="4" d="M876.08483 442.40458h1.17421"/>
  <path stroke-dasharray="15,10" stroke="red" stroke-width="4" d="M877.25904 442.40458h120.48192"/>
  <path stroke="#00f" stroke-width="4" d="M997.74096 442.40458h1.17421"/>
  <path stroke-dasharray="15,10" stroke="red" stroke-width="4" d="M998.91517 442.40458H1000"/>
  <path stroke="#00f" stroke-width="4" d="M879.96988 449.1358l5.44992 13.15748M995.03012 449.1358l-5.44992 13.15748"/>
  <path stroke-dasharray="15,10" stroke="red" stroke-width="4" d="M997.61338 449.1358l-2.61715 13.15748M877.38662 449.1358l2.61715 13.15748M875 449.1358h2.38662"/>
  <path stroke="#00f" stroke-width="4" d="M877.38662 449.1358h2.58326"/>
  <path stroke-dasharray="15,10" stroke="red" stroke-width="4" d="M879.96988 449.1358h115.06024"/>
  <path stroke="#00f" stroke-width="4" d="M995.03012 449.1358h2.58326"/>
  <path stroke-dasharray="15,10" stroke="red" stroke-width="4" d="M997.61338 449.1358H1000"/>
  <path stroke="#00f" stroke-width="4" d="M885.4198 462.29328l6.53709 15.90873M989.5802 462.29328l-6.53709 15.90873"/>
  <path stroke-dasharray="15,10" stroke="red" stroke-width="4" d="M994.99623 462.29328l-3.13922 15.90873M880.00377 462.29328l3.13922 15.90873"/>
  <path stroke="#00f" stroke-width="4" d="M875 462.29328h5.00377"/>
  <path stroke-dasharray="15,10" stroke="red" stroke-width="4" d="M880.00377 462.29328h5.41603"/>
  <path stroke="#00f" stroke-width="4" d="M885.4198 462.29328h104.1604"/>
  <path stroke-dasharray="15,10" stroke="red" stroke-width="4" d="M989.5802 462.29328h5.41603"/>
  <path stroke="#00f" stroke-width="4" d="M994.99623 462.29328H1000M891.95689 478.20201l9.46442 22.85059M983.04311 478.20201l-9.46442 22.85059"/>
  <path stroke-dasharray="15,10" stroke="red" stroke-width="4" d="M991.85701 478.20201l-4.54497 22.85059M883.14299 478.20201l4.54497 22.85059M875 478.20201h8.14299"/>
  <path stroke="#00f" stroke-width="4" d="M883.14299 478.20201h8.8139"/>
  <path stroke-dasharray="15,10" stroke="red" stroke-width="4" d="M891.95689 478.20201h91.08622"/>
  <path stroke="#00f" stroke-width="4" d="M983.04311 478.20201h8.8139"/>
  <path stroke-dasharray="15,10" stroke="red" stroke-width="4" d="M991.85701 478.20201H1000"/>
  <path stroke="#00f" stroke-width="4" d="M901.42131 501.0526l11.20811 27.11547M973.57869 501.0526l-11.20811 27.11547"/>
  <path stroke-dasharray="15,10" stroke="red" stroke-width="4" d="M987.31204 501.0526l-5.38233 27.11547M887.68796 501.0526l5.38233 27.11547"/>
  <path stroke="#00f" stroke-width="4" d="M875 501.0526h12.68796"/>
  <path stroke-dasharray="15,10" stroke="red" stroke-width="4" d="M887.68796 501.0526h13.73335"/>
  <path stroke="#00f" stroke-width="4" d="M901.42131 501.0526h72.15738"/>
  <path stroke-dasharray="15,10" stroke="red" stroke-width="4" d="M973.57869 501.0526h13.73335"/>
  <path stroke="#00f" stroke-width="4" d="M987.31204 501.0526H1000M912.62942 528.16807l11.76817 29.14211M962.37058 528.16807l-11.76817 29.14211"/>
  <path stroke-dasharray="15,10" stroke="red" stroke-width="4" d="M981.92971 528.16807l-5.65127 29.14211M893.07029 528.16807l5.65127 29.14211"/>
  <path stroke="#00f" stroke-width="4" d="M875 528.16807h18.07029"/>
  <path stroke-dasharray="15,10" stroke="red" stroke-width="4" d="M893.07029 528.16807h19.55913"/>
  <path stroke="#00f" stroke-width="4" d="M912.62942 528.16807h49.74116"/>
  <path stroke-dasharray="15,10" stroke="red" stroke-width="4" d="M962.37058 528.16807h19.55913"/>
  <path stroke="#00f" stroke-width="4" d="M981.92971 528.16807H1000M924.39759 557.31018l9.54443 28.86777M950.60241 557.31018l-9.54443 28.86777"/>
  <path stroke-dasharray="15,10" stroke="red" stroke-width="4" d="M976.27844 557.31018l-4.5834 28.86777M898.72156 557.31018l4.5834 28.86777"/>
  <path stroke="#00f" stroke-width="4" d="M875 557.31018h23.72156"/>
  <path stroke-dasharray="15,10" stroke="red" stroke-width="4" d="M898.72156 557.31018h25.67603"/>
  <path stroke="#00f" stroke-width="4" d="M924.39759 557.31018h26.20482"/>
  <path stroke-dasharray="15,10" stroke="red" stroke-width="4" d="M950.60241 557.31018h25.67603"/>
  <path stroke="#00f" stroke-width="4" d="M976.27844 557.31018H1000M933.94202 586.17795l4.5369 36.15846M941.05798 586.17795l-4.5369 36.15846"/>
  <path stroke-dasharray="15,10" stroke="red" stroke-width="4" d="M971.69504 586.17795l-2.17869 36.15846M903.30496 586.17795l2.17869 36.15846"/>
  <path stroke="#00f" stroke-width="4" d="M875 586.17795h28.30496"/>
  <path stroke-dasharray="15,10" stroke="red" stroke-width="4" d="M903.30496 586.17795h30.63706"/>
  <path stroke="#00f" stroke-width="4" d="M933.94202 586.17795h7.11596"/>
  <path stroke-dasharray="15,10" stroke="red" stroke-width="4" d="M941.05798 586.17795h30.63706"/>
  <path stroke="#00f" stroke-width="4" d="M971.69504 586.17795H1000M938.47892 622.33641l1.58132 45.95741M936.52108 622.33641l-1.58132 45.95741"/>
  <path stroke-dasharray="15,10" stroke="red" stroke-width="4" d="M969.51635 622.33641l-.75938 45.95741M905.48365 622.33641l.75938 45.95741"/>
  <path stroke="#00f" stroke-width="4" d="M875 622.33641h30.48365"/>
  <path stroke-dasharray="15,10" stroke="red" stroke-width="4" d="M905.48365 622.33641h32.99527"/>
  <path stroke="#00f" stroke-width="4" d="M938.47892 622.33641h-1.95784"/>
  <path stroke-dasharray="15,10" stroke="red" stroke-width="4" d="M936.52108 622.33641h32.99527"/>
  <path stroke="#00f" stroke-width="4" d="M969.51635 622.33641H1000M940.06024 668.29382v69.01762M934.93976 668.29382v69.01762"/>
  <path stroke-dasharray="15,10" stroke="red" stroke-width="4" d="M968.75697 668.29382v69.01762M906.24303 668.29382v69.01762"/>
  <path stroke="#00f" stroke-width="4" d="M875 668.29382h31.24303"/>
  <path stroke-dasharray="15,10" stroke="red" stroke-width="4" d="M906.24303 668.29382h33.81721"/>
  <path stroke="#00f" stroke-width="4" d="M940.06024 668.29382h-5.12048"/>
  <path stroke-dasharray="15,10" stroke="red" stroke-width="4" d="M934.93976 668.29382h33.81721"/>
  <path stroke="#00f" stroke-width="4" d="M968.75697 668.29382H1000"/>
</svg>
