  0
SECTION
  2
HEADER
  9
$ACADVER
  1
AC1009
  0
ENDSEC
  0
SECTION
  2
ENTITIES
  0
LINE
  8
reference 10mm
  6
CONTINUOUS
 62
250
 10
-156.92327831249358
 20
166.92327831249358
 11
-146.92327831249358
 21
166.92327831249358
  0
LINE
  8
reference 10mm
  6
CONTINUOUS
 62
250
 10
-146.92327831249358
 20
166.92327831249358
 11
-146.92327831249358
 21
176.92327831249358
  0
LINE
  8
reference 10mm
  6
CONTINUOUS
 62
250
 10
-146.92327831249358
 20
176.92327831249358
 11
-156.92327831249358
 21
176.92327831249358
  0
LINE
  8
reference 10mm
  6
CONTINUOUS
 62
250
 10
-156.92327831249358
 20
176.92327831249358
 11
-156.92327831249358
 21
166.92327831249358
  0
LINE
  8
ValleyLine
  6
CONTINUOUS
 62
5
 10
0.0
 20
-0.0
 11
-1.7692555948385997
 21
4.274791717636476
  0
LINE
  8
MountainLine
  6
CONTINUOUS
 62
1
 10
0.0
 20
-0.0
 11
-1.769966150301903
 21
4.274791717636476
  0
LINE
  8
ValleyLine
  6
CONTINUOUS
 62
5
 10
0.0
 20
-0.0
 11
1.7692555948385997
 21
4.274791717636476
  0
LINE
  8
MountainLine
  6
CONTINUOUS
 62
1
 10
0.0
 20
-0.0
 11
1.769966150301903
 21
4.274791717636476
  0
LINE
  8
MountainLine
  6
CONTINUOUS
 62
1
 10
-1.7692555948385997
 20
4.274791717636476
 11
1.7692555948385997
 21
4.274791717636476
  0
LINE
  8
ValleyLine
  6
CONTINUOUS
 62
5
 10
-1.7692555948385997
 20
4.274791717636476
 11
-1.769966150301903
 21
4.274791717636476
  0
LINE
  8
MountainLine
  6
CONTINUOUS
 62
1
 10
-1.769966150301903
 20
4.274791717636476
 11
-1.7705726473268102
 21
4.27454049834322
  0
LINE
  8
ValleyLine
  6
CONTINUOUS
 62
5
 10
1.7692555948385997
 20
4.274791717636476
 11
1.769966150301903
 21
4.274791717636476
  0
LINE
  8
MountainLine
  6
CONTINUOUS
 62
1
 10
1.769966150301903
 20
4.274791717636476
 11
1.7705726473268102
 21
4.27454049834322
  0
LINE
  8
ValleyLine
  6
CONTINUOUS
 62
5
 10
-1.7692555948385997
 20
4.274791717636476
 11
-1.9003115648266442
 21
22.94185685549786
  0
LINE
  8
MountainLine
  6
CONTINUOUS
 62
1
 10
-1.769966150301903
 20
4.274791717636476
 11
-5.701569910198013
 21
22.94185685549786
  0
LINE
  8
ValleyLine
  6
CONTINUOUS
 62
5
 10
1.7692555948385997
 20
4.274791717636476
 11
1.9003115648266442
 21
22.94185685549786
  0
LINE
  8
MountainLine
  6
CONTINUOUS
 62
1
 10
1.769966150301903
 20
4.274791717636476
 11
5.701569910198013
 21
22.94185685549786
  0
LINE
  8
ValleyLine
  6
CONTINUOUS
 62
5
 10
-1.9003115648266442
 20
22.94185685549786
 11
1.9003115648266442
 21
22.94185685549786
  0
LINE
  8
MountainLine
  6
CONTINUOUS
 62
1
 10
-1.9003115648266442
 20
22.94185685549786
 11
-5.701569910198013
 21
22.94185685549786
  0
LINE
  8
ValleyLine
  6
CONTINUOUS
 62
5
 10
-5.701569910198013
 20
22.94185685549786
 11
-8.946146859410723
 21
21.597909078970837
  0
LINE
  8
MountainLine
  6
CONTINUOUS
 62
1
 10
1.9003115648266442
 20
22.94185685549786
 11
5.701569910198013
 21
22.94185685549786
  0
LINE
  8
ValleyLine
  6
CONTINUOUS
 62
5
 10
5.701569910198013
 20
22.94185685549786
 11
8.946146859410723
 21
21.597909078970837
  0
LINE
  8
ValleyLine
  6
CONTINUOUS
 62
5
 10
-1.9003115648266442
 20
22.94185685549786
 11
-6.094102604444066
 21
33.63007350871293
  0
LINE
  8
MountainLine
  6
CONTINUOUS
 62
1
 10
-5.701569910198013
 20
22.94185685549786
 11
-10.012067577678552
 21
33.63007350871293
  0
LINE
  8
ValleyLine
  6
CONTINUOUS
 62
5
 10
1.9003115648266442
 20
22.94185685549786
 11
6.094102604444066
 21
33.63007350871293
  0
LINE
  8
MountainLine
  6
CONTINUOUS
 62
1
 10
5.701569910198013
 20
22.94185685549786
 11
10.012067577678552
 21
33.63007350871293
  0
LINE
  8
MountainLine
  6
CONTINUOUS
 62
1
 10
-6.094102604444066
 20
33.63007350871293
 11
6.094102604444066
 21
33.63007350871293
  0
LINE
  8
ValleyLine
  6
CONTINUOUS
 62
5
 10
-6.094102604444066
 20
33.63007350871293
 11
-10.012067577678552
 21
33.63007350871293
  0
LINE
  8
MountainLine
  6
CONTINUOUS
 62
1
 10
-10.012067577678552
 20
33.63007350871293
 11
-13.356259864808534
 21
32.2448637082002
  0
LINE
  8
ValleyLine
  6
CONTINUOUS
 62
5
 10
6.094102604444066
 20
33.63007350871293
 11
10.012067577678552
 21
33.63007350871293
  0
LINE
  8
MountainLine
  6
CONTINUOUS
 62
1
 10
10.012067577678552
 20
33.63007350871293
 11
13.356259864808534
 21
32.2448637082002
  0
LINE
  8
ValleyLine
  6
CONTINUOUS
 62
5
 10
-6.094102604444066
 20
33.63007350871293
 11
-14.612740653666952
 21
56.9335106458572
  0
LINE
  8
MountainLine
  6
CONTINUOUS
 62
1
 10
-10.012067577678552
 20
33.63007350871293
 11
-19.097686458347
 21
56.9335106458572
  0
LINE
  8
ValleyLine
  6
CONTINUOUS
 62
5
 10
6.094102604444066
 20
33.63007350871293
 11
14.612740653666952
 21
56.9335106458572
  0
LINE
  8
MountainLine
  6
CONTINUOUS
 62
1
 10
10.012067577678552
 20
33.63007350871293
 11
19.097686458347
 21
56.9335106458572
  0
LINE
  8
MountainLine
  6
CONTINUOUS
 62
1
 10
-14.612740653666952
 20
56.9335106458572
 11
14.612740653666952
 21
56.9335106458572
  0
LINE
  8
ValleyLine
  6
CONTINUOUS
 62
5
 10
-14.612740653666952
 20
56.9335106458572
 11
-19.097686458347
 21
56.9335106458572
  0
LINE
  8
MountainLine
  6
CONTINUOUS
 62
1
 10
-19.097686458347
 20
56.9335106458572
 11
-22.92582715655873
 21
55.3478428499855
  0
LINE
  8
ValleyLine
  6
CONTINUOUS
 62
5
 10
14.612740653666952
 20
56.9335106458572
 11
19.097686458347
 21
56.9335106458572
  0
LINE
  8
MountainLine
  6
CONTINUOUS
 62
1
 10
19.097686458347
 20
56.9335106458572
 11
22.92582715655873
 21
55.3478428499855
  0
LINE
  8
ValleyLine
  6
CONTINUOUS
 62
5
 10
-14.612740653666952
 20
56.9335106458572
 11
-19.068643633260464
 21
83.99254820009291
  0
LINE
  8
MountainLine
  6
CONTINUOUS
 62
1
 10
-19.097686458347
 20
56.9335106458572
 11
-26.92974811800742
 21
83.99254820009291
  0
LINE
  8
ValleyLine
  6
CONTINUOUS
 62
5
 10
14.612740653666952
 20
56.9335106458572
 11
19.068643633260464
 21
83.99254820009291
  0
LINE
  8
MountainLine
  6
CONTINUOUS
 62
1
 10
19.097686458347
 20
56.9335106458572
 11
26.92974811800742
 21
83.99254820009291
  0
LINE
  8
MountainLine
  6
CONTINUOUS
 62
1
 10
-19.068643633260464
 20
83.99254820009291
 11
19.068643633260464
 21
83.99254820009291
  0
LINE
  8
ValleyLine
  6
CONTINUOUS
 62
5
 10
-19.068643633260464
 20
83.99254820009291
 11
-26.92974811800742
 21
83.99254820009291
  0
LINE
  8
MountainLine
  6
CONTINUOUS
 62
1
 10
-26.92974811800742
 20
83.99254820009291
 11
-33.63962050477117
 21
81.21322805570263
  0
LINE
  8
ValleyLine
  6
CONTINUOUS
 62
5
 10
19.068643633260464
 20
83.99254820009291
 11
26.92974811800742
 21
83.99254820009291
  0
LINE
  8
MountainLine
  6
CONTINUOUS
 62
1
 10
26.92974811800742
 20
83.99254820009291
 11
33.63962050477117
 21
81.21322805570263
  0
LINE
  8
ValleyLine
  6
CONTINUOUS
 62
5
 10
-19.068643633260464
 20
83.99254820009291
 11
-18.020195873356112
 21
109.46110580478366
  0
LINE
  8
MountainLine
  6
CONTINUOUS
 62
1
 10
-26.92974811800742
 20
83.99254820009291
 11
-31.680235225026912
 21
109.46110580478366
  0
LINE
  8
ValleyLine
  6
CONTINUOUS
 62
5
 10
19.068643633260464
 20
83.99254820009291
 11
18.020195873356112
 21
109.46110580478366
  0
LINE
  8
MountainLine
  6
CONTINUOUS
 62
1
 10
26.92974811800742
 20
83.99254820009291
 11
31.680235225026912
 21
109.46110580478366
  0
LINE
  8
MountainLine
  6
CONTINUOUS
 62
1
 10
-18.020195873356112
 20
109.46110580478366
 11
18.020195873356112
 21
109.46110580478366
  0
LINE
  8
ValleyLine
  6
CONTINUOUS
 62
5
 10
-18.020195873356112
 20
109.46110580478366
 11
-31.680235225026912
 21
109.46110580478366
  0
LINE
  8
MountainLine
  6
CONTINUOUS
 62
1
 10
-31.680235225026912
 20
109.46110580478366
 11
-43.33980812928307
 21
104.63155257636289
  0
LINE
  8
ValleyLine
  6
CONTINUOUS
 62
5
 10
18.020195873356112
 20
109.46110580478366
 11
31.680235225026912
 21
109.46110580478366
  0
LINE
  8
MountainLine
  6
CONTINUOUS
 62
1
 10
31.680235225026912
 20
109.46110580478366
 11
43.33980812928307
 21
104.63155257636289
  0
LINE
  8
ValleyLine
  6
CONTINUOUS
 62
5
 10
-18.020195873356112
 20
109.46110580478366
 11
-8.715222004204954
 21
135.8621117920522
  0
LINE
  8
MountainLine
  6
CONTINUOUS
 62
1
 10
-31.680235225026912
 20
109.46110580478366
 11
-32.495575660561286
 21
135.8621117920522
  0
LINE
  8
ValleyLine
  6
CONTINUOUS
 62
5
 10
18.020195873356112
 20
109.46110580478366
 11
8.715222004204954
 21
135.8621117920522
  0
LINE
  8
MountainLine
  6
CONTINUOUS
 62
1
 10
31.680235225026912
 20
109.46110580478366
 11
32.495575660561286
 21
135.8621117920522
  0
LINE
  8
MountainLine
  6
CONTINUOUS
 62
1
 10
-8.715222004204954
 20
135.8621117920522
 11
8.715222004204954
 21
135.8621117920522
  0
LINE
  8
ValleyLine
  6
CONTINUOUS
 62
5
 10
-8.715222004204954
 20
135.8621117920522
 11
-32.495575660561286
 21
135.8621117920522
  0
LINE
  8
MountainLine
  6
CONTINUOUS
 62
1
 10
-32.495575660561286
 20
135.8621117920522
 11
-52.79337715345139
 21
127.45448712734024
  0
LINE
  8
ValleyLine
  6
CONTINUOUS
 62
5
 10
8.715222004204954
 20
135.8621117920522
 11
32.495575660561286
 21
135.8621117920522
  0
LINE
  8
MountainLine
  6
CONTINUOUS
 62
1
 10
32.495575660561286
 20
135.8621117920522
 11
52.79337715345139
 21
127.45448712734024
  0
LINE
  8
ValleyLine
  6
CONTINUOUS
 62
5
 10
-8.715222004204954
 20
135.8621117920522
 11
-0.06552798499402221
 21
156.92327831249358
  0
LINE
  8
MountainLine
  6
CONTINUOUS
 62
1
 10
-32.495575660561286
 20
135.8621117920522
 11
-32.532639057038324
 21
156.92327831249358
  0
LINE
  8
ValleyLine
  6
CONTINUOUS
 62
5
 10
8.715222004204954
 20
135.8621117920522
 11
0.06552798499402221
 21
156.92327831249358
  0
LINE
  8
MountainLine
  6
CONTINUOUS
 62
1
 10
32.495575660561286
 20
135.8621117920522
 11
32.532639057038324
 21
156.92327831249358
  0
LINE
  8
CutLine
  6
CONTINUOUS
 62
250
 10
-0.06552798499402221
 20
156.92327831249358
 11
0.06552798499402221
 21
156.92327831249358
  0
LINE
  8
CutLine
  6
CONTINUOUS
 62
250
 10
-0.06552798499402221
 20
156.92327831249358
 11
-32.532639057038324
 21
156.92327831249358
  0
LINE
  8
CutLine
  6
CONTINUOUS
 62
250
 10
-32.532639057038324
 20
156.92327831249358
 11
-60.24505179535015
 21
145.4444211102039
  0
LINE
  8
CutLine
  6
CONTINUOUS
 62
250
 10
0.06552798499402221
 20
156.92327831249358
 11
32.532639057038324
 21
156.92327831249358
  0
LINE
  8
CutLine
  6
CONTINUOUS
 62
250
 10
32.532639057038324
 20
156.92327831249358
 11
60.24505179535015
 21
145.4444211102039
  0
LINE
  8
ValleyLine
  6
CONTINUOUS
 62
5
 10
0.0
 20
-0.0
 11
1.771681582938228
 21
4.273786840463454
  0
LINE
  8
MountainLine
  6
CONTINUOUS
 62
1
 10
0.0
 20
-0.0
 11
1.771179144351717
 21
4.274289279049965
  0
LINE
  8
ValleyLine
  6
CONTINUOUS
 62
5
 10
0.0
 20
-0.0
 11
4.273786840463454
 21
1.7716815829382289
  0
LINE
  8
MountainLine
  6
CONTINUOUS
 62
1
 10
0.0
 20
-0.0
 11
4.274289279049965
 21
1.771179144351718
  0
LINE
  8
MountainLine
  6
CONTINUOUS
 62
1
 10
1.771681582938228
 20
4.273786840463454
 11
4.273786840463454
 21
1.7716815829382289
  0
LINE
  8
ValleyLine
  6
CONTINUOUS
 62
5
 10
1.771681582938228
 20
4.273786840463454
 11
1.771179144351717
 21
4.274289279049965
  0
LINE
  8
MountainLine
  6
CONTINUOUS
 62
1
 10
1.771179144351717
 20
4.274289279049965
 11
1.77057264732681
 21
4.27454049834322
  0
LINE
  8
ValleyLine
  6
CONTINUOUS
 62
5
 10
4.273786840463454
 20
1.7716815829382289
 11
4.274289279049965
 21
1.771179144351718
  0
LINE
  8
MountainLine
  6
CONTINUOUS
 62
1
 10
4.274289279049965
 20
1.771179144351718
 11
4.27454049834322
 21
1.7705726473268104
  0
LINE
  8
ValleyLine
  6
CONTINUOUS
 62
5
 10
1.771681582938228
 20
4.273786840463454
 11
14.878619361677481
 21
17.56606574938976
  0
LINE
  8
MountainLine
  6
CONTINUOUS
 62
1
 10
1.771179144351717
 20
4.274289279049965
 11
12.19072380862343
 21
20.253961302443813
  0
LINE
  8
ValleyLine
  6
CONTINUOUS
 62
5
 10
4.273786840463454
 20
1.7716815829382289
 11
17.566065749389757
 21
14.878619361677483
  0
LINE
  8
MountainLine
  6
CONTINUOUS
 62
1
 10
4.274289279049965
 20
1.771179144351718
 11
20.253961302443813
 21
12.190723808623432
  0
LINE
  8
ValleyLine
  6
CONTINUOUS
 62
5
 10
14.878619361677481
 20
17.56606574938976
 11
17.566065749389757
 21
14.878619361677483
  0
LINE
  8
MountainLine
  6
CONTINUOUS
 62
1
 10
14.878619361677481
 20
17.56606574938976
 11
12.19072380862343
 21
20.253961302443813
  0
LINE
  8
ValleyLine
  6
CONTINUOUS
 62
5
 10
12.19072380862343
 20
20.253961302443813
 11
8.94614685941072
 21
21.597909078970837
  0
LINE
  8
MountainLine
  6
CONTINUOUS
 62
1
 10
17.566065749389757
 20
14.878619361677483
 11
20.253961302443813
 21
12.190723808623432
  0
LINE
  8
ValleyLine
  6
CONTINUOUS
 62
5
 10
20.253961302443813
 20
12.190723808623432
 11
21.597909078970837
 21
8.946146859410723
  0
LINE
  8
ValleyLine
  6
CONTINUOUS
 62
5
 10
14.878619361677481
 20
17.56606574938976
 11
19.470871752963983
 21
28.089234306661986
  0
LINE
  8
MountainLine
  6
CONTINUOUS
 62
1
 10
12.19072380862343
 20
20.253961302443813
 11
16.700452151938507
 21
30.859653907687463
  0
LINE
  8
ValleyLine
  6
CONTINUOUS
 62
5
 10
17.566065749389757
 20
14.878619361677483
 11
28.089234306661982
 21
19.470871752963987
  0
LINE
  8
MountainLine
  6
CONTINUOUS
 62
1
 10
20.253961302443813
 20
12.190723808623432
 11
30.859653907687463
 21
16.700452151938514
  0
LINE
  8
MountainLine
  6
CONTINUOUS
 62
1
 10
19.470871752963983
 20
28.089234306661986
 11
28.089234306661982
 21
19.470871752963987
  0
LINE
  8
ValleyLine
  6
CONTINUOUS
 62
5
 10
19.470871752963983
 20
28.089234306661986
 11
16.700452151938507
 21
30.859653907687463
  0
LINE
  8
MountainLine
  6
CONTINUOUS
 62
1
 10
16.700452151938507
 20
30.859653907687463
 11
13.35625986480853
 21
32.2448637082002
  0
LINE
  8
ValleyLine
  6
CONTINUOUS
 62
5
 10
28.089234306661982
 20
19.470871752963987
 11
30.859653907687463
 21
16.700452151938514
  0
LINE
  8
MountainLine
  6
CONTINUOUS
 62
1
 10
30.859653907687463
 20
16.700452151938514
 11
32.2448637082002
 21
13.356259864808536
  0
LINE
  8
ValleyLine
  6
CONTINUOUS
 62
5
 10
19.470871752963983
 20
28.089234306661986
 11
29.92530344651387
 21
50.59083946237037
  0
LINE
  8
MountainLine
  6
CONTINUOUS
 62
1
 10
16.700452151938507
 20
30.859653907687463
 11
26.753967854770455
 21
53.76217505411378
  0
LINE
  8
ValleyLine
  6
CONTINUOUS
 62
5
 10
28.089234306661982
 20
19.470871752963987
 11
50.59083946237036
 21
29.925303446513876
  0
LINE
  8
MountainLine
  6
CONTINUOUS
 62
1
 10
30.859653907687463
 20
16.700452151938514
 11
53.762175054113776
 21
26.753967854770462
  0
LINE
  8
MountainLine
  6
CONTINUOUS
 62
1
 10
29.92530344651387
 20
50.59083946237037
 11
50.59083946237036
 21
29.925303446513876
  0
LINE
  8
ValleyLine
  6
CONTINUOUS
 62
5
 10
29.92530344651387
 20
50.59083946237037
 11
26.753967854770455
 21
53.76217505411378
  0
LINE
  8
MountainLine
  6
CONTINUOUS
 62
1
 10
26.753967854770455
 20
53.76217505411378
 11
22.92582715655873
 21
55.3478428499855
  0
LINE
  8
ValleyLine
  6
CONTINUOUS
 62
5
 10
50.59083946237036
 20
29.925303446513876
 11
53.762175054113776
 21
26.753967854770462
  0
LINE
  8
MountainLine
  6
CONTINUOUS
 62
1
 10
53.762175054113776
 20
26.753967854770462
 11
55.3478428499855
 21
22.92582715655873
  0
LINE
  8
ValleyLine
  6
CONTINUOUS
 62
5
 10
29.92530344651387
 20
50.59083946237037
 11
45.90813318031548
 21
72.87526762253181
  0
LINE
  8
MountainLine
  6
CONTINUOUS
 62
1
 10
26.753967854770455
 20
53.76217505411378
 11
40.34949289153492
 21
78.43390791131236
  0
LINE
  8
ValleyLine
  6
CONTINUOUS
 62
5
 10
50.59083946237036
 20
29.925303446513876
 11
72.8752676225318
 21
45.90813318031549
  0
LINE
  8
MountainLine
  6
CONTINUOUS
 62
1
 10
53.762175054113776
 20
26.753967854770462
 11
78.43390791131236
 21
40.349492891534936
  0
LINE
  8
MountainLine
  6
CONTINUOUS
 62
1
 10
45.90813318031548
 20
72.87526762253181
 11
72.8752676225318
 21
45.90813318031549
  0
LINE
  8
ValleyLine
  6
CONTINUOUS
 62
5
 10
45.90813318031548
 20
72.87526762253181
 11
40.34949289153492
 21
78.43390791131236
  0
LINE
  8
MountainLine
  6
CONTINUOUS
 62
1
 10
40.34949289153492
 20
78.43390791131236
 11
33.63962050477116
 21
81.21322805570263
  0
LINE
  8
ValleyLine
  6
CONTINUOUS
 62
5
 10
72.8752676225318
 20
45.90813318031549
 11
78.43390791131236
 21
40.349492891534936
  0
LINE
  8
MountainLine
  6
CONTINUOUS
 62
1
 10
78.43390791131236
 20
40.349492891534936
 11
81.21322805570263
 21
33.63962050477117
  0
LINE
  8
ValleyLine
  6
CONTINUOUS
 62
5
 10
45.90813318031548
 20
72.87526762253181
 11
64.65848749038074
 21
90.14289289110064
  0
LINE
  8
MountainLine
  6
CONTINUOUS
 62
1
 10
40.34949289153492
 20
78.43390791131236
 11
54.99938103353922
 21
99.80199934794216
  0
LINE
  8
ValleyLine
  6
CONTINUOUS
 62
5
 10
72.8752676225318
 20
45.90813318031549
 11
90.14289289110063
 21
64.65848749038075
  0
LINE
  8
MountainLine
  6
CONTINUOUS
 62
1
 10
78.43390791131236
 20
40.349492891534936
 11
99.80199934794214
 21
54.99938103353924
  0
LINE
  8
MountainLine
  6
CONTINUOUS
 62
1
 10
64.65848749038074
 20
90.14289289110064
 11
90.14289289110063
 21
64.65848749038075
  0
LINE
  8
ValleyLine
  6
CONTINUOUS
 62
5
 10
64.65848749038074
 20
90.14289289110064
 11
54.99938103353922
 21
99.80199934794216
  0
LINE
  8
MountainLine
  6
CONTINUOUS
 62
1
 10
54.99938103353922
 20
99.80199934794216
 11
43.33980812928306
 21
104.63155257636289
  0
LINE
  8
ValleyLine
  6
CONTINUOUS
 62
5
 10
90.14289289110063
 20
64.65848749038075
 11
99.80199934794214
 21
54.99938103353924
  0
LINE
  8
MountainLine
  6
CONTINUOUS
 62
1
 10
99.80199934794214
 20
54.99938103353924
 11
104.63155257636289
 21
43.33980812928308
  0
LINE
  8
ValleyLine
  6
CONTINUOUS
 62
5
 10
64.65848749038074
 20
90.14289289110064
 11
89.90642797576535
 21
102.23161313320445
  0
LINE
  8
MountainLine
  6
CONTINUOUS
 62
1
 10
54.99938103353922
 20
99.80199934794216
 11
73.09117864634148
 21
119.04686246262831
  0
LINE
  8
ValleyLine
  6
CONTINUOUS
 62
5
 10
90.14289289110063
 20
64.65848749038075
 11
102.23161313320443
 21
89.90642797576537
  0
LINE
  8
MountainLine
  6
CONTINUOUS
 62
1
 10
99.80199934794214
 20
54.99938103353924
 11
119.0468624626283
 21
73.09117864634149
  0
LINE
  8
MountainLine
  6
CONTINUOUS
 62
1
 10
89.90642797576535
 20
102.23161313320445
 11
102.23161313320443
 21
89.90642797576537
  0
LINE
  8
ValleyLine
  6
CONTINUOUS
 62
5
 10
89.90642797576535
 20
102.23161313320445
 11
73.09117864634148
 21
119.04686246262831
  0
LINE
  8
MountainLine
  6
CONTINUOUS
 62
1
 10
73.09117864634148
 20
119.04686246262831
 11
52.79337715345138
 21
127.45448712734024
  0
LINE
  8
ValleyLine
  6
CONTINUOUS
 62
5
 10
102.23161313320443
 20
89.90642797576537
 11
119.0468624626283
 21
73.09117864634149
  0
LINE
  8
MountainLine
  6
CONTINUOUS
 62
1
 10
119.0468624626283
 20
73.09117864634149
 11
127.45448712734023
 21
52.793377153451395
  0
LINE
  8
ValleyLine
  6
CONTINUOUS
 62
5
 10
89.90642797576535
 20
102.23161313320445
 11
110.91517893824134
 21
111.00784950333488
  0
LINE
  8
MountainLine
  6
CONTINUOUS
 62
1
 10
73.09117864634148
 20
119.04686246262831
 11
87.95746453366198
 21
133.96556390791426
  0
LINE
  8
ValleyLine
  6
CONTINUOUS
 62
5
 10
102.23161313320443
 20
89.90642797576537
 11
111.00784950333487
 21
110.91517893824135
  0
LINE
  8
MountainLine
  6
CONTINUOUS
 62
1
 10
119.0468624626283
 20
73.09117864634149
 11
133.96556390791423
 21
87.95746453366199
  0
LINE
  8
CutLine
  6
CONTINUOUS
 62
250
 10
110.91517893824134
 20
111.00784950333488
 11
111.00784950333487
 21
110.91517893824135
  0
LINE
  8
CutLine
  6
CONTINUOUS
 62
250
 10
110.91517893824134
 20
111.00784950333488
 11
87.95746453366198
 21
133.96556390791426
  0
LINE
  8
CutLine
  6
CONTINUOUS
 62
250
 10
87.95746453366198
 20
133.96556390791426
 11
60.245051795350136
 21
145.4444211102039
  0
LINE
  8
CutLine
  6
CONTINUOUS
 62
250
 10
111.00784950333487
 20
110.91517893824135
 11
133.96556390791423
 21
87.95746453366199
  0
LINE
  8
CutLine
  6
CONTINUOUS
 62
250
 10
133.96556390791423
 20
87.95746453366199
 11
145.4444211102039
 21
60.24505179535016
  0
LINE
  8
ValleyLine
  6
CONTINUOUS
 62
5
 10
0.0
 20
-0.0
 11
4.274791717636476
 21
1.7692555948386
  0
LINE
  8
MountainLine
  6
CONTINUOUS
 62
1
 10
0.0
 20
-0.0
 11
4.274791717636476
 21
1.7699661503019033
  0
LINE
  8
ValleyLine
  6
CONTINUOUS
 62
5
 10
0.0
 20
-0.0
 11
4.274791717636476
 21
-1.7692555948385995
  0
LINE
  8
MountainLine
  6
CONTINUOUS
 62
1
 10
0.0
 20
-0.0
 11
4.274791717636476
 21
-1.7699661503019029
  0
LINE
  8
MountainLine
  6
CONTINUOUS
 62
1
 10
4.274791717636476
 20
1.7692555948386
 11
4.274791717636476
 21
-1.7692555948385995
  0
LINE
  8
ValleyLine
  6
CONTINUOUS
 62
5
 10
4.274791717636476
 20
1.7692555948386
 11
4.274791717636476
 21
1.7699661503019033
  0
LINE
  8
MountainLine
  6
CONTINUOUS
 62
1
 10
4.274791717636476
 20
1.7699661503019033
 11
4.27454049834322
 21
1.7705726473268104
  0
LINE
  8
ValleyLine
  6
CONTINUOUS
 62
5
 10
4.274791717636476
 20
-1.7692555948385995
 11
4.274791717636476
 21
-1.7699661503019029
  0
LINE
  8
MountainLine
  6
CONTINUOUS
 62
1
 10
4.274791717636476
 20
-1.7699661503019029
 11
4.27454049834322
 21
-1.77057264732681
  0
LINE
  8
ValleyLine
  6
CONTINUOUS
 62
5
 10
4.274791717636476
 20
1.7692555948386
 11
22.94185685549786
 21
1.9003115648266455
  0
LINE
  8
MountainLine
  6
CONTINUOUS
 62
1
 10
4.274791717636476
 20
1.7699661503019033
 11
22.94185685549786
 21
5.701569910198015
  0
LINE
  8
ValleyLine
  6
CONTINUOUS
 62
5
 10
4.274791717636476
 20
-1.7692555948385995
 11
22.94185685549786
 21
-1.9003115648266429
  0
LINE
  8
MountainLine
  6
CONTINUOUS
 62
1
 10
4.274791717636476
 20
-1.7699661503019029
 11
22.94185685549786
 21
-5.701569910198011
  0
LINE
  8
ValleyLine
  6
CONTINUOUS
 62
5
 10
22.94185685549786
 20
1.9003115648266455
 11
22.94185685549786
 21
-1.9003115648266429
  0
LINE
  8
MountainLine
  6
CONTINUOUS
 62
1
 10
22.94185685549786
 20
1.9003115648266455
 11
22.94185685549786
 21
5.701569910198015
  0
LINE
  8
ValleyLine
  6
CONTINUOUS
 62
5
 10
22.94185685549786
 20
5.701569910198015
 11
21.597909078970837
 21
8.946146859410725
  0
LINE
  8
MountainLine
  6
CONTINUOUS
 62
1
 10
22.94185685549786
 20
-1.9003115648266429
 11
22.94185685549786
 21
-5.701569910198011
  0
LINE
  8
ValleyLine
  6
CONTINUOUS
 62
5
 10
22.94185685549786
 20
-5.701569910198011
 11
21.597909078970837
 21
-8.946146859410721
  0
LINE
  8
ValleyLine
  6
CONTINUOUS
 62
5
 10
22.94185685549786
 20
1.9003115648266455
 11
33.63007350871293
 21
6.094102604444068
  0
LINE
  8
MountainLine
  6
CONTINUOUS
 62
1
 10
22.94185685549786
 20
5.701569910198015
 11
33.63007350871293
 21
10.012067577678554
  0
LINE
  8
ValleyLine
  6
CONTINUOUS
 62
5
 10
22.94185685549786
 20
-1.9003115648266429
 11
33.63007350871293
 21
-6.094102604444064
  0
LINE
  8
MountainLine
  6
CONTINUOUS
 62
1
 10
22.94185685549786
 20
-5.701569910198011
 11
33.63007350871293
 21
-10.01206757767855
  0
LINE
  8
MountainLine
  6
CONTINUOUS
 62
1
 10
33.63007350871293
 20
6.094102604444068
 11
33.63007350871293
 21
-6.094102604444064
  0
LINE
  8
ValleyLine
  6
CONTINUOUS
 62
5
 10
33.63007350871293
 20
6.094102604444068
 11
33.63007350871293
 21
10.012067577678554
  0
LINE
  8
MountainLine
  6
CONTINUOUS
 62
1
 10
33.63007350871293
 20
10.012067577678554
 11
32.2448637082002
 21
13.356259864808536
  0
LINE
  8
ValleyLine
  6
CONTINUOUS
 62
5
 10
33.63007350871293
 20
-6.094102604444064
 11
33.63007350871293
 21
-10.01206757767855
  0
LINE
  8
MountainLine
  6
CONTINUOUS
 62
1
 10
33.63007350871293
 20
-10.01206757767855
 11
32.2448637082002
 21
-13.356259864808532
  0
LINE
  8
ValleyLine
  6
CONTINUOUS
 62
5
 10
33.63007350871293
 20
6.094102604444068
 11
56.9335106458572
 21
14.612740653666956
  0
LINE
  8
MountainLine
  6
CONTINUOUS
 62
1
 10
33.63007350871293
 20
10.012067577678554
 11
56.9335106458572
 21
19.097686458347003
  0
LINE
  8
ValleyLine
  6
CONTINUOUS
 62
5
 10
33.63007350871293
 20
-6.094102604444064
 11
56.9335106458572
 21
-14.612740653666949
  0
LINE
  8
MountainLine
  6
CONTINUOUS
 62
1
 10
33.63007350871293
 20
-10.01206757767855
 11
56.9335106458572
 21
-19.097686458346995
  0
LINE
  8
MountainLine
  6
CONTINUOUS
 62
1
 10
56.9335106458572
 20
14.612740653666956
 11
56.9335106458572
 21
-14.612740653666949
  0
LINE
  8
ValleyLine
  6
CONTINUOUS
 62
5
 10
56.9335106458572
 20
14.612740653666956
 11
56.9335106458572
 21
19.097686458347003
  0
LINE
  8
MountainLine
  6
CONTINUOUS
 62
1
 10
56.9335106458572
 20
19.097686458347003
 11
55.3478428499855
 21
22.925827156558732
  0
LINE
  8
ValleyLine
  6
CONTINUOUS
 62
5
 10
56.9335106458572
 20
-14.612740653666949
 11
56.9335106458572
 21
-19.097686458346995
  0
LINE
  8
MountainLine
  6
CONTINUOUS
 62
1
 10
56.9335106458572
 20
-19.097686458346995
 11
55.3478428499855
 21
-22.925827156558725
  0
LINE
  8
ValleyLine
  6
CONTINUOUS
 62
5
 10
56.9335106458572
 20
14.612740653666956
 11
83.99254820009291
 21
19.068643633260468
  0
LINE
  8
MountainLine
  6
CONTINUOUS
 62
1
 10
56.9335106458572
 20
19.097686458347003
 11
83.99254820009291
 21
26.929748118007424
  0
LINE
  8
ValleyLine
  6
CONTINUOUS
 62
5
 10
56.9335106458572
 20
-14.612740653666949
 11
83.99254820009291
 21
-19.06864363326046
  0
LINE
  8
MountainLine
  6
CONTINUOUS
 62
1
 10
56.9335106458572
 20
-19.097686458346995
 11
83.99254820009291
 21
-26.929748118007417
  0
LINE
  8
MountainLine
  6
CONTINUOUS
 62
1
 10
83.99254820009291
 20
19.068643633260468
 11
83.99254820009291
 21
-19.06864363326046
  0
LINE
  8
ValleyLine
  6
CONTINUOUS
 62
5
 10
83.99254820009291
 20
19.068643633260468
 11
83.99254820009291
 21
26.929748118007424
  0
LINE
  8
MountainLine
  6
CONTINUOUS
 62
1
 10
83.99254820009291
 20
26.929748118007424
 11
81.21322805570263
 21
33.63962050477118
  0
LINE
  8
ValleyLine
  6
CONTINUOUS
 62
5
 10
83.99254820009291
 20
-19.06864363326046
 11
83.99254820009291
 21
-26.929748118007417
  0
LINE
  8
MountainLine
  6
CONTINUOUS
 62
1
 10
83.99254820009291
 20
-26.929748118007417
 11
81.21322805570263
 21
-33.639620504771166
  0
LINE
  8
ValleyLine
  6
CONTINUOUS
 62
5
 10
83.99254820009291
 20
19.068643633260468
 11
109.46110580478366
 21
18.02019587335612
  0
LINE
  8
MountainLine
  6
CONTINUOUS
 62
1
 10
83.99254820009291
 20
26.929748118007424
 11
109.46110580478366
 21
31.68023522502692
  0
LINE
  8
ValleyLine
  6
CONTINUOUS
 62
5
 10
83.99254820009291
 20
-19.06864363326046
 11
109.46110580478366
 21
-18.020195873356105
  0
LINE
  8
MountainLine
  6
CONTINUOUS
 62
1
 10
83.99254820009291
 20
-26.929748118007417
 11
109.46110580478366
 21
-31.680235225026905
  0
LINE
  8
MountainLine
  6
CONTINUOUS
 62
1
 10
109.46110580478366
 20
18.02019587335612
 11
109.46110580478366
 21
-18.020195873356105
  0
LINE
  8
ValleyLine
  6
CONTINUOUS
 62
5
 10
109.46110580478366
 20
18.02019587335612
 11
109.46110580478366
 21
31.68023522502692
  0
LINE
  8
MountainLine
  6
CONTINUOUS
 62
1
 10
109.46110580478366
 20
31.68023522502692
 11
104.63155257636289
 21
43.33980812928308
  0
LINE
  8
ValleyLine
  6
CONTINUOUS
 62
5
 10
109.46110580478366
 20
-18.020195873356105
 11
109.46110580478366
 21
-31.680235225026905
  0
LINE
  8
MountainLine
  6
CONTINUOUS
 62
1
 10
109.46110580478366
 20
-31.680235225026905
 11
104.63155257636289
 21
-43.339808129283064
  0
LINE
  8
ValleyLine
  6
CONTINUOUS
 62
5
 10
109.46110580478366
 20
18.02019587335612
 11
135.8621117920522
 21
8.715222004204964
  0
LINE
  8
MountainLine
  6
CONTINUOUS
 62
1
 10
109.46110580478366
 20
31.68023522502692
 11
135.8621117920522
 21
32.49557566056129
  0
LINE
  8
ValleyLine
  6
CONTINUOUS
 62
5
 10
109.46110580478366
 20
-18.020195873356105
 11
135.8621117920522
 21
-8.715222004204945
  0
LINE
  8
MountainLine
  6
CONTINUOUS
 62
1
 10
109.46110580478366
 20
-31.680235225026905
 11
135.8621117920522
 21
-32.49557566056128
  0
LINE
  8
MountainLine
  6
CONTINUOUS
 62
1
 10
135.8621117920522
 20
8.715222004204964
 11
135.8621117920522
 21
-8.715222004204945
  0
LINE
  8
ValleyLine
  6
CONTINUOUS
 62
5
 10
135.8621117920522
 20
8.715222004204964
 11
135.8621117920522
 21
32.49557566056129
  0
LINE
  8
MountainLine
  6
CONTINUOUS
 62
1
 10
135.8621117920522
 20
32.49557566056129
 11
127.45448712734024
 21
52.793377153451395
  0
LINE
  8
ValleyLine
  6
CONTINUOUS
 62
5
 10
135.8621117920522
 20
-8.715222004204945
 11
135.8621117920522
 21
-32.49557566056128
  0
LINE
  8
MountainLine
  6
CONTINUOUS
 62
1
 10
135.8621117920522
 20
-32.49557566056128
 11
127.45448712734024
 21
-52.79337715345138
  0
LINE
  8
ValleyLine
  6
CONTINUOUS
 62
5
 10
135.8621117920522
 20
8.715222004204964
 11
156.92327831249358
 21
0.06552798499403183
  0
LINE
  8
MountainLine
  6
CONTINUOUS
 62
1
 10
135.8621117920522
 20
32.49557566056129
 11
156.92327831249358
 21
32.53263905703833
  0
LINE
  8
ValleyLine
  6
CONTINUOUS
 62
5
 10
135.8621117920522
 20
-8.715222004204945
 11
156.92327831249358
 21
-0.0655279849940126
  0
LINE
  8
MountainLine
  6
CONTINUOUS
 62
1
 10
135.8621117920522
 20
-32.49557566056128
 11
156.92327831249358
 21
-32.53263905703831
  0
LINE
  8
CutLine
  6
CONTINUOUS
 62
250
 10
156.92327831249358
 20
0.06552798499403183
 11
156.92327831249358
 21
-0.0655279849940126
  0
LINE
  8
CutLine
  6
CONTINUOUS
 62
250
 10
156.92327831249358
 20
0.06552798499403183
 11
156.92327831249358
 21
32.53263905703833
  0
LINE
  8
CutLine
  6
CONTINUOUS
 62
250
 10
156.92327831249358
 20
32.53263905703833
 11
145.4444211102039
 21
60.24505179535016
  0
LINE
  8
CutLine
  6
CONTINUOUS
 62
250
 10
156.92327831249358
 20
-0.0655279849940126
 11
156.92327831249358
 21
-32.53263905703831
  0
LINE
  8
CutLine
  6
CONTINUOUS
 62
250
 10
156.92327831249358
 20
-32.53263905703831
 11
145.4444211102039
 21
-60.24505179535014
  0
LINE
  8
ValleyLine
  6
CONTINUOUS
 62
5
 10
0.0
 20
-0.0
 11
4.273786840463454
 21
-1.771681582938228
  0
LINE
  8
MountainLine
  6
CONTINUOUS
 62
1
 10
0.0
 20
-0.0
 11
4.274289279049965
 21
-1.771179144351717
  0
LINE
  8
ValleyLine
  6
CONTINUOUS
 62
5
 10
0.0
 20
0.0
 11
1.7716815829382289
 21
-4.273786840463454
  0
LINE
  8
MountainLine
  6
CONTINUOUS
 62
1
 10
0.0
 20
0.0
 11
1.771179144351718
 21
-4.274289279049965
  0
LINE
  8
MountainLine
  6
CONTINUOUS
 62
1
 10
4.273786840463454
 20
-1.771681582938228
 11
1.7716815829382289
 21
-4.273786840463454
  0
LINE
  8
ValleyLine
  6
CONTINUOUS
 62
5
 10
4.273786840463454
 20
-1.771681582938228
 11
4.274289279049965
 21
-1.771179144351717
  0
LINE
  8
MountainLine
  6
CONTINUOUS
 62
1
 10
4.274289279049965
 20
-1.771179144351717
 11
4.27454049834322
 21
-1.77057264732681
  0
LINE
  8
ValleyLine
  6
CONTINUOUS
 62
5
 10
1.7716815829382289
 20
-4.273786840463454
 11
1.771179144351718
 21
-4.274289279049965
  0
LINE
  8
MountainLine
  6
CONTINUOUS
 62
1
 10
1.771179144351718
 20
-4.274289279049965
 11
1.7705726473268104
 21
-4.27454049834322
  0
LINE
  8
ValleyLine
  6
CONTINUOUS
 62
5
 10
4.273786840463454
 20
-1.771681582938228
 11
17.56606574938976
 21
-14.878619361677481
  0
LINE
  8
MountainLine
  6
CONTINUOUS
 62
1
 10
4.274289279049965
 20
-1.771179144351717
 11
20.253961302443813
 21
-12.19072380862343
  0
LINE
  8
ValleyLine
  6
CONTINUOUS
 62
5
 10
1.7716815829382289
 20
-4.273786840463454
 11
14.878619361677483
 21
-17.566065749389757
  0
LINE
  8
MountainLine
  6
CONTINUOUS
 62
1
 10
1.771179144351718
 20
-4.274289279049965
 11
12.190723808623432
 21
-20.253961302443813
  0
LINE
  8
ValleyLine
  6
CONTINUOUS
 62
5
 10
17.56606574938976
 20
-14.878619361677481
 11
14.878619361677483
 21
-17.566065749389757
  0
LINE
  8
MountainLine
  6
CONTINUOUS
 62
1
 10
17.56606574938976
 20
-14.878619361677481
 11
20.253961302443813
 21
-12.19072380862343
  0
LINE
  8
ValleyLine
  6
CONTINUOUS
 62
5
 10
20.253961302443813
 20
-12.19072380862343
 11
21.597909078970837
 21
-8.94614685941072
  0
LINE
  8
MountainLine
  6
CONTINUOUS
 62
1
 10
14.878619361677483
 20
-17.566065749389757
 11
12.190723808623432
 21
-20.253961302443813
  0
LINE
  8
ValleyLine
  6
CONTINUOUS
 62
5
 10
12.190723808623432
 20
-20.253961302443813
 11
8.946146859410723
 21
-21.597909078970837
  0
LINE
  8
ValleyLine
  6
CONTINUOUS
 62
5
 10
17.56606574938976
 20
-14.878619361677481
 11
28.089234306661986
 21
-19.470871752963983
  0
LINE
  8
MountainLine
  6
CONTINUOUS
 62
1
 10
20.253961302443813
 20
-12.19072380862343
 11
30.859653907687463
 21
-16.700452151938507
  0
LINE
  8
ValleyLine
  6
CONTINUOUS
 62
5
 10
14.878619361677483
 20
-17.566065749389757
 11
19.470871752963987
 21
-28.089234306661982
  0
LINE
  8
MountainLine
  6
CONTINUOUS
 62
1
 10
12.190723808623432
 20
-20.253961302443813
 11
16.700452151938514
 21
-30.859653907687463
  0
LINE
  8
MountainLine
  6
CONTINUOUS
 62
1
 10
28.089234306661986
 20
-19.470871752963983
 11
19.470871752963987
 21
-28.089234306661982
  0
LINE
  8
ValleyLine
  6
CONTINUOUS
 62
5
 10
28.089234306661986
 20
-19.470871752963983
 11
30.859653907687463
 21
-16.700452151938507
  0
LINE
  8
MountainLine
  6
CONTINUOUS
 62
1
 10
30.859653907687463
 20
-16.700452151938507
 11
32.2448637082002
 21
-13.35625986480853
  0
LINE
  8
ValleyLine
  6
CONTINUOUS
 62
5
 10
19.470871752963987
 20
-28.089234306661982
 11
16.700452151938514
 21
-30.859653907687463
  0
LINE
  8
MountainLine
  6
CONTINUOUS
 62
1
 10
16.700452151938514
 20
-30.859653907687463
 11
13.356259864808536
 21
-32.2448637082002
  0
LINE
  8
ValleyLine
  6
CONTINUOUS
 62
5
 10
28.089234306661986
 20
-19.470871752963983
 11
50.59083946237037
 21
-29.92530344651387
  0
LINE
  8
MountainLine
  6
CONTINUOUS
 62
1
 10
30.859653907687463
 20
-16.700452151938507
 11
53.76217505411378
 21
-26.753967854770455
  0
LINE
  8
ValleyLine
  6
CONTINUOUS
 62
5
 10
19.470871752963987
 20
-28.089234306661982
 11
29.925303446513876
 21
-50.59083946237036
  0
LINE
  8
MountainLine
  6
CONTINUOUS
 62
1
 10
16.700452151938514
 20
-30.859653907687463
 11
26.753967854770462
 21
-53.762175054113776
  0
LINE
  8
MountainLine
  6
CONTINUOUS
 62
1
 10
50.59083946237037
 20
-29.92530344651387
 11
29.925303446513876
 21
-50.59083946237036
  0
LINE
  8
ValleyLine
  6
CONTINUOUS
 62
5
 10
50.59083946237037
 20
-29.92530344651387
 11
53.76217505411378
 21
-26.753967854770455
  0
LINE
  8
MountainLine
  6
CONTINUOUS
 62
1
 10
53.76217505411378
 20
-26.753967854770455
 11
55.3478428499855
 21
-22.92582715655873
  0
LINE
  8
ValleyLine
  6
CONTINUOUS
 62
5
 10
29.925303446513876
 20
-50.59083946237036
 11
26.753967854770462
 21
-53.762175054113776
  0
LINE
  8
MountainLine
  6
CONTINUOUS
 62
1
 10
26.753967854770462
 20
-53.762175054113776
 11
22.92582715655873
 21
-55.3478428499855
  0
LINE
  8
ValleyLine
  6
CONTINUOUS
 62
5
 10
50.59083946237037
 20
-29.92530344651387
 11
72.87526762253181
 21
-45.90813318031548
  0
LINE
  8
MountainLine
  6
CONTINUOUS
 62
1
 10
53.76217505411378
 20
-26.753967854770455
 11
78.43390791131236
 21
-40.34949289153492
  0
LINE
  8
ValleyLine
  6
CONTINUOUS
 62
5
 10
29.925303446513876
 20
-50.59083946237036
 11
45.90813318031549
 21
-72.8752676225318
  0
LINE
  8
MountainLine
  6
CONTINUOUS
 62
1
 10
26.753967854770462
 20
-53.762175054113776
 11
40.349492891534936
 21
-78.43390791131236
  0
LINE
  8
MountainLine
  6
CONTINUOUS
 62
1
 10
72.87526762253181
 20
-45.90813318031548
 11
45.90813318031549
 21
-72.8752676225318
  0
LINE
  8
ValleyLine
  6
CONTINUOUS
 62
5
 10
72.87526762253181
 20
-45.90813318031548
 11
78.43390791131236
 21
-40.34949289153492
  0
LINE
  8
MountainLine
  6
CONTINUOUS
 62
1
 10
78.43390791131236
 20
-40.34949289153492
 11
81.21322805570263
 21
-33.63962050477116
  0
LINE
  8
ValleyLine
  6
CONTINUOUS
 62
5
 10
45.90813318031549
 20
-72.8752676225318
 11
40.349492891534936
 21
-78.43390791131236
  0
LINE
  8
MountainLine
  6
CONTINUOUS
 62
1
 10
40.349492891534936
 20
-78.43390791131236
 11
33.63962050477117
 21
-81.21322805570263
  0
LINE
  8
ValleyLine
  6
CONTINUOUS
 62
5
 10
72.87526762253181
 20
-45.90813318031548
 11
90.14289289110064
 21
-64.65848749038074
  0
LINE
  8
MountainLine
  6
CONTINUOUS
 62
1
 10
78.43390791131236
 20
-40.34949289153492
 11
99.80199934794216
 21
-54.99938103353922
  0
LINE
  8
ValleyLine
  6
CONTINUOUS
 62
5
 10
45.90813318031549
 20
-72.8752676225318
 11
64.65848749038075
 21
-90.14289289110063
  0
LINE
  8
MountainLine
  6
CONTINUOUS
 62
1
 10
40.349492891534936
 20
-78.43390791131236
 11
54.99938103353924
 21
-99.80199934794214
  0
LINE
  8
MountainLine
  6
CONTINUOUS
 62
1
 10
90.14289289110064
 20
-64.65848749038074
 11
64.65848749038075
 21
-90.14289289110063
  0
LINE
  8
ValleyLine
  6
CONTINUOUS
 62
5
 10
90.14289289110064
 20
-64.65848749038074
 11
99.80199934794216
 21
-54.99938103353922
  0
LINE
  8
MountainLine
  6
CONTINUOUS
 62
1
 10
99.80199934794216
 20
-54.99938103353922
 11
104.63155257636289
 21
-43.33980812928306
  0
LINE
  8
ValleyLine
  6
CONTINUOUS
 62
5
 10
64.65848749038075
 20
-90.14289289110063
 11
54.99938103353924
 21
-99.80199934794214
  0
LINE
  8
MountainLine
  6
CONTINUOUS
 62
1
 10
54.99938103353924
 20
-99.80199934794214
 11
43.33980812928308
 21
-104.63155257636289
  0
LINE
  8
ValleyLine
  6
CONTINUOUS
 62
5
 10
90.14289289110064
 20
-64.65848749038074
 11
102.23161313320445
 21
-89.90642797576535
  0
LINE
  8
MountainLine
  6
CONTINUOUS
 62
1
 10
99.80199934794216
 20
-54.99938103353922
 11
119.04686246262831
 21
-73.09117864634148
  0
LINE
  8
ValleyLine
  6
CONTINUOUS
 62
5
 10
64.65848749038075
 20
-90.14289289110063
 11
89.90642797576537
 21
-102.23161313320443
  0
LINE
  8
MountainLine
  6
CONTINUOUS
 62
1
 10
54.99938103353924
 20
-99.80199934794214
 11
73.09117864634149
 21
-119.0468624626283
  0
LINE
  8
MountainLine
  6
CONTINUOUS
 62
1
 10
102.23161313320445
 20
-89.90642797576535
 11
89.90642797576537
 21
-102.23161313320443
  0
LINE
  8
ValleyLine
  6
CONTINUOUS
 62
5
 10
102.23161313320445
 20
-89.90642797576535
 11
119.04686246262831
 21
-73.09117864634148
  0
LINE
  8
MountainLine
  6
CONTINUOUS
 62
1
 10
119.04686246262831
 20
-73.09117864634148
 11
127.45448712734024
 21
-52.79337715345138
  0
LINE
  8
ValleyLine
  6
CONTINUOUS
 62
5
 10
89.90642797576537
 20
-102.23161313320443
 11
73.09117864634149
 21
-119.0468624626283
  0
LINE
  8
MountainLine
  6
CONTINUOUS
 62
1
 10
73.09117864634149
 20
-119.0468624626283
 11
52.793377153451395
 21
-127.45448712734023
  0
LINE
  8
ValleyLine
  6
CONTINUOUS
 62
5
 10
102.23161313320445
 20
-89.90642797576535
 11
111.00784950333488
 21
-110.91517893824134
  0
LINE
  8
MountainLine
  6
CONTINUOUS
 62
1
 10
119.04686246262831
 20
-73.09117864634148
 11
133.96556390791426
 21
-87.95746453366198
  0
LINE
  8
ValleyLine
  6
CONTINUOUS
 62
5
 10
89.90642797576537
 20
-102.23161313320443
 11
110.91517893824135
 21
-111.00784950333487
  0
LINE
  8
MountainLine
  6
CONTINUOUS
 62
1
 10
73.09117864634149
 20
-119.0468624626283
 11
87.95746453366199
 21
-133.96556390791423
  0
LINE
  8
CutLine
  6
CONTINUOUS
 62
250
 10
111.00784950333488
 20
-110.91517893824134
 11
110.91517893824135
 21
-111.00784950333487
  0
LINE
  8
CutLine
  6
CONTINUOUS
 62
250
 10
111.00784950333488
 20
-110.91517893824134
 11
133.96556390791426
 21
-87.95746453366198
  0
LINE
  8
CutLine
  6
CONTINUOUS
 62
250
 10
133.96556390791426
 20
-87.95746453366198
 11
145.4444211102039
 21
-60.245051795350136
  0
LINE
  8
CutLine
  6
CONTINUOUS
 62
250
 10
110.91517893824135
 20
-111.00784950333487
 11
87.95746453366199
 21
-133.96556390791423
  0
LINE
  8
CutLine
  6
CONTINUOUS
 62
250
 10
87.95746453366199
 20
-133.96556390791423
 11
60.24505179535016
 21
-145.4444211102039
  0
LINE
  8
ValleyLine
  6
CONTINUOUS
 62
5
 10
0.0
 20
-0.0
 11
1.7692555948386002
 21
-4.274791717636476
  0
LINE
  8
MountainLine
  6
CONTINUOUS
 62
1
 10
0.0
 20
-0.0
 11
1.7699661503019035
 21
-4.274791717636476
  0
LINE
  8
ValleyLine
  6
CONTINUOUS
 62
5
 10
0.0
 20
0.0
 11
-1.7692555948385993
 21
-4.274791717636476
  0
LINE
  8
MountainLine
  6
CONTINUOUS
 62
1
 10
0.0
 20
0.0
 11
-1.7699661503019026
 21
-4.274791717636476
  0
LINE
  8
MountainLine
  6
CONTINUOUS
 62
1
 10
1.7692555948386002
 20
-4.274791717636476
 11
-1.7692555948385993
 21
-4.274791717636476
  0
LINE
  8
ValleyLine
  6
CONTINUOUS
 62
5
 10
1.7692555948386002
 20
-4.274791717636476
 11
1.7699661503019035
 21
-4.274791717636476
  0
LINE
  8
MountainLine
  6
CONTINUOUS
 62
1
 10
1.7699661503019035
 20
-4.274791717636476
 11
1.7705726473268106
 21
-4.27454049834322
  0
LINE
  8
ValleyLine
  6
CONTINUOUS
 62
5
 10
-1.7692555948385993
 20
-4.274791717636476
 11
-1.7699661503019026
 21
-4.274791717636476
  0
LINE
  8
MountainLine
  6
CONTINUOUS
 62
1
 10
-1.7699661503019026
 20
-4.274791717636476
 11
-1.7705726473268097
 21
-4.27454049834322
  0
LINE
  8
ValleyLine
  6
CONTINUOUS
 62
5
 10
1.7692555948386002
 20
-4.274791717636476
 11
1.9003115648266469
 21
-22.94185685549786
  0
LINE
  8
MountainLine
  6
CONTINUOUS
 62
1
 10
1.7699661503019035
 20
-4.274791717636476
 11
5.701569910198016
 21
-22.94185685549786
  0
LINE
  8
ValleyLine
  6
CONTINUOUS
 62
5
 10
-1.7692555948385993
 20
-4.274791717636476
 11
-1.9003115648266415
 21
-22.94185685549786
  0
LINE
  8
MountainLine
  6
CONTINUOUS
 62
1
 10
-1.7699661503019026
 20
-4.274791717636476
 11
-5.70156991019801
 21
-22.94185685549786
  0
LINE
  8
ValleyLine
  6
CONTINUOUS
 62
5
 10
1.9003115648266469
 20
-22.94185685549786
 11
-1.9003115648266415
 21
-22.94185685549786
  0
LINE
  8
MountainLine
  6
CONTINUOUS
 62
1
 10
1.9003115648266469
 20
-22.94185685549786
 11
5.701569910198016
 21
-22.94185685549786
  0
LINE
  8
ValleyLine
  6
CONTINUOUS
 62
5
 10
5.701569910198016
 20
-22.94185685549786
 11
8.946146859410725
 21
-21.597909078970837
  0
LINE
  8
MountainLine
  6
CONTINUOUS
 62
1
 10
-1.9003115648266415
 20
-22.94185685549786
 11
-5.70156991019801
 21
-22.94185685549786
  0
LINE
  8
ValleyLine
  6
CONTINUOUS
 62
5
 10
-5.70156991019801
 20
-22.94185685549786
 11
-8.946146859410721
 21
-21.597909078970837
  0
LINE
  8
ValleyLine
  6
CONTINUOUS
 62
5
 10
1.9003115648266469
 20
-22.94185685549786
 11
6.094102604444071
 21
-33.63007350871293
  0
LINE
  8
MountainLine
  6
CONTINUOUS
 62
1
 10
5.701569910198016
 20
-22.94185685549786
 11
10.012067577678556
 21
-33.63007350871293
  0
LINE
  8
ValleyLine
  6
CONTINUOUS
 62
5
 10
-1.9003115648266415
 20
-22.94185685549786
 11
-6.094102604444061
 21
-33.63007350871293
  0
LINE
  8
MountainLine
  6
CONTINUOUS
 62
1
 10
-5.70156991019801
 20
-22.94185685549786
 11
-10.012067577678549
 21
-33.63007350871293
  0
LINE
  8
MountainLine
  6
CONTINUOUS
 62
1
 10
6.094102604444071
 20
-33.63007350871293
 11
-6.094102604444061
 21
-33.63007350871293
  0
LINE
  8
ValleyLine
  6
CONTINUOUS
 62
5
 10
6.094102604444071
 20
-33.63007350871293
 11
10.012067577678556
 21
-33.63007350871293
  0
LINE
  8
MountainLine
  6
CONTINUOUS
 62
1
 10
10.012067577678556
 20
-33.63007350871293
 11
13.356259864808537
 21
-32.2448637082002
  0
LINE
  8
ValleyLine
  6
CONTINUOUS
 62
5
 10
-6.094102604444061
 20
-33.63007350871293
 11
-10.012067577678549
 21
-33.63007350871293
  0
LINE
  8
MountainLine
  6
CONTINUOUS
 62
1
 10
-10.012067577678549
 20
-33.63007350871293
 11
-13.35625986480853
 21
-32.2448637082002
  0
LINE
  8
ValleyLine
  6
CONTINUOUS
 62
5
 10
6.094102604444071
 20
-33.63007350871293
 11
14.612740653666961
 21
-56.9335106458572
  0
LINE
  8
MountainLine
  6
CONTINUOUS
 62
1
 10
10.012067577678556
 20
-33.63007350871293
 11
19.097686458347006
 21
-56.9335106458572
  0
LINE
  8
ValleyLine
  6
CONTINUOUS
 62
5
 10
-6.094102604444061
 20
-33.63007350871293
 11
-14.612740653666945
 21
-56.9335106458572
  0
LINE
  8
MountainLine
  6
CONTINUOUS
 62
1
 10
-10.012067577678549
 20
-33.63007350871293
 11
-19.097686458346992
 21
-56.9335106458572
  0
LINE
  8
MountainLine
  6
CONTINUOUS
 62
1
 10
14.612740653666961
 20
-56.9335106458572
 11
-14.612740653666945
 21
-56.9335106458572
  0
LINE
  8
ValleyLine
  6
CONTINUOUS
 62
5
 10
14.612740653666961
 20
-56.9335106458572
 11
19.097686458347006
 21
-56.9335106458572
  0
LINE
  8
MountainLine
  6
CONTINUOUS
 62
1
 10
19.097686458347006
 20
-56.9335106458572
 11
22.925827156558736
 21
-55.3478428499855
  0
LINE
  8
ValleyLine
  6
CONTINUOUS
 62
5
 10
-14.612740653666945
 20
-56.9335106458572
 11
-19.097686458346992
 21
-56.9335106458572
  0
LINE
  8
MountainLine
  6
CONTINUOUS
 62
1
 10
-19.097686458346992
 20
-56.9335106458572
 11
-22.92582715655872
 21
-55.3478428499855
  0
LINE
  8
ValleyLine
  6
CONTINUOUS
 62
5
 10
14.612740653666961
 20
-56.9335106458572
 11
19.068643633260475
 21
-83.99254820009291
  0
LINE
  8
MountainLine
  6
CONTINUOUS
 62
1
 10
19.097686458347006
 20
-56.9335106458572
 11
26.92974811800743
 21
-83.99254820009291
  0
LINE
  8
ValleyLine
  6
CONTINUOUS
 62
5
 10
-14.612740653666945
 20
-56.9335106458572
 11
-19.068643633260454
 21
-83.99254820009291
  0
LINE
  8
MountainLine
  6
CONTINUOUS
 62
1
 10
-19.097686458346992
 20
-56.9335106458572
 11
-26.92974811800741
 21
-83.99254820009291
  0
LINE
  8
MountainLine
  6
CONTINUOUS
 62
1
 10
19.068643633260475
 20
-83.99254820009291
 11
-19.068643633260454
 21
-83.99254820009291
  0
LINE
  8
ValleyLine
  6
CONTINUOUS
 62
5
 10
19.068643633260475
 20
-83.99254820009291
 11
26.92974811800743
 21
-83.99254820009291
  0
LINE
  8
MountainLine
  6
CONTINUOUS
 62
1
 10
26.92974811800743
 20
-83.99254820009291
 11
33.63962050477118
 21
-81.21322805570263
  0
LINE
  8
ValleyLine
  6
CONTINUOUS
 62
5
 10
-19.068643633260454
 20
-83.99254820009291
 11
-26.92974811800741
 21
-83.99254820009291
  0
LINE
  8
MountainLine
  6
CONTINUOUS
 62
1
 10
-26.92974811800741
 20
-83.99254820009291
 11
-33.639620504771166
 21
-81.21322805570263
  0
LINE
  8
ValleyLine
  6
CONTINUOUS
 62
5
 10
19.068643633260475
 20
-83.99254820009291
 11
18.020195873356126
 21
-109.46110580478366
  0
LINE
  8
MountainLine
  6
CONTINUOUS
 62
1
 10
26.92974811800743
 20
-83.99254820009291
 11
31.680235225026927
 21
-109.46110580478366
  0
LINE
  8
ValleyLine
  6
CONTINUOUS
 62
5
 10
-19.068643633260454
 20
-83.99254820009291
 11
-18.020195873356098
 21
-109.46110580478366
  0
LINE
  8
MountainLine
  6
CONTINUOUS
 62
1
 10
-26.92974811800741
 20
-83.99254820009291
 11
-31.680235225026898
 21
-109.46110580478366
  0
LINE
  8
MountainLine
  6
CONTINUOUS
 62
1
 10
18.020195873356126
 20
-109.46110580478366
 11
-18.020195873356098
 21
-109.46110580478366
  0
LINE
  8
ValleyLine
  6
CONTINUOUS
 62
5
 10
18.020195873356126
 20
-109.46110580478366
 11
31.680235225026927
 21
-109.46110580478366
  0
LINE
  8
MountainLine
  6
CONTINUOUS
 62
1
 10
31.680235225026927
 20
-109.46110580478366
 11
43.339808129283085
 21
-104.63155257636289
  0
LINE
  8
ValleyLine
  6
CONTINUOUS
 62
5
 10
-18.020195873356098
 20
-109.46110580478366
 11
-31.680235225026898
 21
-109.46110580478366
  0
LINE
  8
MountainLine
  6
CONTINUOUS
 62
1
 10
-31.680235225026898
 20
-109.46110580478366
 11
-43.33980812928306
 21
-104.63155257636289
  0
LINE
  8
ValleyLine
  6
CONTINUOUS
 62
5
 10
18.020195873356126
 20
-109.46110580478366
 11
8.715222004204971
 21
-135.8621117920522
  0
LINE
  8
MountainLine
  6
CONTINUOUS
 62
1
 10
31.680235225026927
 20
-109.46110580478366
 11
32.4955756605613
 21
-135.8621117920522
  0
LINE
  8
ValleyLine
  6
CONTINUOUS
 62
5
 10
-18.020195873356098
 20
-109.46110580478366
 11
-8.715222004204938
 21
-135.8621117920522
  0
LINE
  8
MountainLine
  6
CONTINUOUS
 62
1
 10
-31.680235225026898
 20
-109.46110580478366
 11
-32.495575660561265
 21
-135.8621117920522
  0
LINE
  8
MountainLine
  6
CONTINUOUS
 62
1
 10
8.715222004204971
 20
-135.8621117920522
 11
-8.715222004204938
 21
-135.8621117920522
  0
LINE
  8
ValleyLine
  6
CONTINUOUS
 62
5
 10
8.715222004204971
 20
-135.8621117920522
 11
32.4955756605613
 21
-135.8621117920522
  0
LINE
  8
MountainLine
  6
CONTINUOUS
 62
1
 10
32.4955756605613
 20
-135.8621117920522
 11
52.7933771534514
 21
-127.45448712734024
  0
LINE
  8
ValleyLine
  6
CONTINUOUS
 62
5
 10
-8.715222004204938
 20
-135.8621117920522
 11
-32.495575660561265
 21
-135.8621117920522
  0
LINE
  8
MountainLine
  6
CONTINUOUS
 62
1
 10
-32.495575660561265
 20
-135.8621117920522
 11
-52.793377153451374
 21
-127.45448712734024
  0
LINE
  8
ValleyLine
  6
CONTINUOUS
 62
5
 10
8.715222004204971
 20
-135.8621117920522
 11
0.06552798499404143
 21
-156.92327831249358
  0
LINE
  8
MountainLine
  6
CONTINUOUS
 62
1
 10
32.4955756605613
 20
-135.8621117920522
 11
32.53263905703834
 21
-156.92327831249358
  0
LINE
  8
ValleyLine
  6
CONTINUOUS
 62
5
 10
-8.715222004204938
 20
-135.8621117920522
 11
-0.06552798499400299
 21
-156.92327831249358
  0
LINE
  8
MountainLine
  6
CONTINUOUS
 62
1
 10
-32.495575660561265
 20
-135.8621117920522
 11
-32.5326390570383
 21
-156.92327831249358
  0
LINE
  8
CutLine
  6
CONTINUOUS
 62
250
 10
0.06552798499404143
 20
-156.92327831249358
 11
-0.06552798499400299
 21
-156.92327831249358
  0
LINE
  8
CutLine
  6
CONTINUOUS
 62
250
 10
0.06552798499404143
 20
-156.92327831249358
 11
32.53263905703834
 21
-156.92327831249358
  0
LINE
  8
CutLine
  6
CONTINUOUS
 62
250
 10
32.53263905703834
 20
-156.92327831249358
 11
60.245051795350165
 21
-145.4444211102039
  0
LINE
  8
CutLine
  6
CONTINUOUS
 62
250
 10
-0.06552798499400299
 20
-156.92327831249358
 11
-32.5326390570383
 21
-156.92327831249358
  0
LINE
  8
CutLine
  6
CONTINUOUS
 62
250
 10
-32.5326390570383
 20
-156.92327831249358
 11
-60.245051795350136
 21
-145.4444211102039
  0
LINE
  8
ValleyLine
  6
CONTINUOUS
 62
5
 10
0.0
 20
0.0
 11
-1.771681582938228
 21
-4.273786840463455
  0
LINE
  8
MountainLine
  6
CONTINUOUS
 62
1
 10
0.0
 20
0.0
 11
-1.7711791443517169
 21
-4.274289279049965
  0
LINE
  8
ValleyLine
  6
CONTINUOUS
 62
5
 10
0.0
 20
-0.0
 11
-4.273786840463454
 21
-1.7716815829382293
  0
LINE
  8
MountainLine
  6
CONTINUOUS
 62
1
 10
0.0
 20
-0.0
 11
-4.274289279049965
 21
-1.7711791443517184
  0
LINE
  8
MountainLine
  6
CONTINUOUS
 62
1
 10
-1.771681582938228
 20
-4.273786840463455
 11
-4.273786840463454
 21
-1.7716815829382293
  0
LINE
  8
ValleyLine
  6
CONTINUOUS
 62
5
 10
-1.771681582938228
 20
-4.273786840463455
 11
-1.7711791443517169
 21
-4.274289279049965
  0
LINE
  8
MountainLine
  6
CONTINUOUS
 62
1
 10
-1.7711791443517169
 20
-4.274289279049965
 11
-1.7705726473268097
 21
-4.274540498343221
  0
LINE
  8
ValleyLine
  6
CONTINUOUS
 62
5
 10
-4.273786840463454
 20
-1.7716815829382293
 11
-4.274289279049965
 21
-1.7711791443517184
  0
LINE
  8
MountainLine
  6
CONTINUOUS
 62
1
 10
-4.274289279049965
 20
-1.7711791443517184
 11
-4.27454049834322
 21
-1.7705726473268109
  0
LINE
  8
ValleyLine
  6
CONTINUOUS
 62
5
 10
-1.771681582938228
 20
-4.273786840463455
 11
-14.87861936167748
 21
-17.566065749389765
  0
LINE
  8
MountainLine
  6
CONTINUOUS
 62
1
 10
-1.7711791443517169
 20
-4.274289279049965
 11
-12.190723808623428
 21
-20.253961302443816
  0
LINE
  8
ValleyLine
  6
CONTINUOUS
 62
5
 10
-4.273786840463454
 20
-1.7716815829382293
 11
-17.566065749389757
 21
-14.878619361677487
  0
LINE
  8
MountainLine
  6
CONTINUOUS
 62
1
 10
-4.274289279049965
 20
-1.7711791443517184
 11
-20.253961302443813
 21
-12.190723808623435
  0
LINE
  8
ValleyLine
  6
CONTINUOUS
 62
5
 10
-14.87861936167748
 20
-17.566065749389765
 11
-17.566065749389757
 21
-14.878619361677487
  0
LINE
  8
MountainLine
  6
CONTINUOUS
 62
1
 10
-14.87861936167748
 20
-17.566065749389765
 11
-12.190723808623428
 21
-20.253961302443816
  0
LINE
  8
ValleyLine
  6
CONTINUOUS
 62
5
 10
-12.190723808623428
 20
-20.253961302443816
 11
-8.94614685941072
 21
-21.59790907897084
  0
LINE
  8
MountainLine
  6
CONTINUOUS
 62
1
 10
-17.566065749389757
 20
-14.878619361677487
 11
-20.253961302443813
 21
-12.190723808623435
  0
LINE
  8
ValleyLine
  6
CONTINUOUS
 62
5
 10
-20.253961302443813
 20
-12.190723808623435
 11
-21.597909078970837
 21
-8.946146859410726
  0
LINE
  8
ValleyLine
  6
CONTINUOUS
 62
5
 10
-14.87861936167748
 20
-17.566065749389765
 11
-19.470871752963983
 21
-28.08923430666199
  0
LINE
  8
MountainLine
  6
CONTINUOUS
 62
1
 10
-12.190723808623428
 20
-20.253961302443816
 11
-16.700452151938507
 21
-30.859653907687466
  0
LINE
  8
ValleyLine
  6
CONTINUOUS
 62
5
 10
-17.566065749389757
 20
-14.878619361677487
 11
-28.089234306661982
 21
-19.47087175296399
  0
LINE
  8
MountainLine
  6
CONTINUOUS
 62
1
 10
-20.253961302443813
 20
-12.190723808623435
 11
-30.859653907687463
 21
-16.700452151938517
  0
LINE
  8
MountainLine
  6
CONTINUOUS
 62
1
 10
-19.470871752963983
 20
-28.08923430666199
 11
-28.089234306661982
 21
-19.47087175296399
  0
LINE
  8
ValleyLine
  6
CONTINUOUS
 62
5
 10
-19.470871752963983
 20
-28.08923430666199
 11
-16.700452151938507
 21
-30.859653907687466
  0
LINE
  8
MountainLine
  6
CONTINUOUS
 62
1
 10
-16.700452151938507
 20
-30.859653907687466
 11
-13.356259864808528
 21
-32.24486370820021
  0
LINE
  8
ValleyLine
  6
CONTINUOUS
 62
5
 10
-28.089234306661982
 20
-19.47087175296399
 11
-30.859653907687463
 21
-16.700452151938517
  0
LINE
  8
MountainLine
  6
CONTINUOUS
 62
1
 10
-30.859653907687463
 20
-16.700452151938517
 11
-32.2448637082002
 21
-13.356259864808539
  0
LINE
  8
ValleyLine
  6
CONTINUOUS
 62
5
 10
-19.470871752963983
 20
-28.08923430666199
 11
-29.925303446513865
 21
-50.590839462370376
  0
LINE
  8
MountainLine
  6
CONTINUOUS
 62
1
 10
-16.700452151938507
 20
-30.859653907687466
 11
-26.75396785477045
 21
-53.76217505411379
  0
LINE
  8
ValleyLine
  6
CONTINUOUS
 62
5
 10
-28.089234306661982
 20
-19.47087175296399
 11
-50.59083946237037
 21
-29.925303446513883
  0
LINE
  8
MountainLine
  6
CONTINUOUS
 62
1
 10
-30.859653907687463
 20
-16.700452151938517
 11
-53.762175054113776
 21
-26.75396785477047
  0
LINE
  8
MountainLine
  6
CONTINUOUS
 62
1
 10
-29.925303446513865
 20
-50.590839462370376
 11
-50.59083946237037
 21
-29.925303446513883
  0
LINE
  8
ValleyLine
  6
CONTINUOUS
 62
5
 10
-29.925303446513865
 20
-50.590839462370376
 11
-26.75396785477045
 21
-53.76217505411379
  0
LINE
  8
MountainLine
  6
CONTINUOUS
 62
1
 10
-26.75396785477045
 20
-53.76217505411379
 11
-22.925827156558725
 21
-55.347842849985504
  0
LINE
  8
ValleyLine
  6
CONTINUOUS
 62
5
 10
-50.59083946237037
 20
-29.925303446513883
 11
-53.762175054113776
 21
-26.75396785477047
  0
LINE
  8
MountainLine
  6
CONTINUOUS
 62
1
 10
-53.762175054113776
 20
-26.75396785477047
 11
-55.347842849985504
 21
-22.925827156558736
  0
LINE
  8
ValleyLine
  6
CONTINUOUS
 62
5
 10
-29.925303446513865
 20
-50.590839462370376
 11
-45.908133180315474
 21
-72.87526762253182
  0
LINE
  8
MountainLine
  6
CONTINUOUS
 62
1
 10
-26.75396785477045
 20
-53.76217505411379
 11
-40.34949289153492
 21
-78.43390791131237
  0
LINE
  8
ValleyLine
  6
CONTINUOUS
 62
5
 10
-50.59083946237037
 20
-29.925303446513883
 11
-72.8752676225318
 21
-45.9081331803155
  0
LINE
  8
MountainLine
  6
CONTINUOUS
 62
1
 10
-53.762175054113776
 20
-26.75396785477047
 11
-78.43390791131236
 21
-40.34949289153495
  0
LINE
  8
MountainLine
  6
CONTINUOUS
 62
1
 10
-45.908133180315474
 20
-72.87526762253182
 11
-72.8752676225318
 21
-45.9081331803155
  0
LINE
  8
ValleyLine
  6
CONTINUOUS
 62
5
 10
-45.908133180315474
 20
-72.87526762253182
 11
-40.34949289153492
 21
-78.43390791131237
  0
LINE
  8
MountainLine
  6
CONTINUOUS
 62
1
 10
-40.34949289153492
 20
-78.43390791131237
 11
-33.63962050477116
 21
-81.21322805570264
  0
LINE
  8
ValleyLine
  6
CONTINUOUS
 62
5
 10
-72.8752676225318
 20
-45.9081331803155
 11
-78.43390791131236
 21
-40.34949289153495
  0
LINE
  8
MountainLine
  6
CONTINUOUS
 62
1
 10
-78.43390791131236
 20
-40.34949289153495
 11
-81.21322805570263
 21
-33.639620504771194
  0
LINE
  8
ValleyLine
  6
CONTINUOUS
 62
5
 10
-45.908133180315474
 20
-72.87526762253182
 11
-64.65848749038074
 21
-90.14289289110064
  0
LINE
  8
MountainLine
  6
CONTINUOUS
 62
1
 10
-40.34949289153492
 20
-78.43390791131237
 11
-54.99938103353922
 21
-99.80199934794216
  0
LINE
  8
ValleyLine
  6
CONTINUOUS
 62
5
 10
-72.8752676225318
 20
-45.9081331803155
 11
-90.14289289110063
 21
-64.65848749038075
  0
LINE
  8
MountainLine
  6
CONTINUOUS
 62
1
 10
-78.43390791131236
 20
-40.34949289153495
 11
-99.80199934794214
 21
-54.99938103353924
  0
LINE
  8
MountainLine
  6
CONTINUOUS
 62
1
 10
-64.65848749038074
 20
-90.14289289110064
 11
-90.14289289110063
 21
-64.65848749038075
  0
LINE
  8
ValleyLine
  6
CONTINUOUS
 62
5
 10
-64.65848749038074
 20
-90.14289289110064
 11
-54.99938103353922
 21
-99.80199934794216
  0
LINE
  8
MountainLine
  6
CONTINUOUS
 62
1
 10
-54.99938103353922
 20
-99.80199934794216
 11
-43.33980812928305
 21
-104.6315525763629
  0
LINE
  8
ValleyLine
  6
CONTINUOUS
 62
5
 10
-90.14289289110063
 20
-64.65848749038075
 11
-99.80199934794214
 21
-54.99938103353924
  0
LINE
  8
MountainLine
  6
CONTINUOUS
 62
1
 10
-99.80199934794214
 20
-54.99938103353924
 11
-104.63155257636289
 21
-43.33980812928309
  0
LINE
  8
ValleyLine
  6
CONTINUOUS
 62
5
 10
-64.65848749038074
 20
-90.14289289110064
 11
-89.90642797576535
 21
-102.23161313320446
  0
LINE
  8
MountainLine
  6
CONTINUOUS
 62
1
 10
-54.99938103353922
 20
-99.80199934794216
 11
-73.09117864634148
 21
-119.04686246262833
  0
LINE
  8
ValleyLine
  6
CONTINUOUS
 62
5
 10
-90.14289289110063
 20
-64.65848749038075
 11
-102.23161313320443
 21
-89.90642797576538
  0
LINE
  8
MountainLine
  6
CONTINUOUS
 62
1
 10
-99.80199934794214
 20
-54.99938103353924
 11
-119.0468624626283
 21
-73.0911786463415
  0
LINE
  8
MountainLine
  6
CONTINUOUS
 62
1
 10
-89.90642797576535
 20
-102.23161313320446
 11
-102.23161313320443
 21
-89.90642797576538
  0
LINE
  8
ValleyLine
  6
CONTINUOUS
 62
5
 10
-89.90642797576535
 20
-102.23161313320446
 11
-73.09117864634148
 21
-119.04686246262833
  0
LINE
  8
MountainLine
  6
CONTINUOUS
 62
1
 10
-73.09117864634148
 20
-119.04686246262833
 11
-52.793377153451374
 21
-127.45448712734026
  0
LINE
  8
ValleyLine
  6
CONTINUOUS
 62
5
 10
-102.23161313320443
 20
-89.90642797576538
 11
-119.0468624626283
 21
-73.0911786463415
  0
LINE
  8
MountainLine
  6
CONTINUOUS
 62
1
 10
-119.0468624626283
 20
-73.0911786463415
 11
-127.45448712734024
 21
-52.79337715345141
  0
LINE
  8
ValleyLine
  6
CONTINUOUS
 62
5
 10
-89.90642797576535
 20
-102.23161313320446
 11
-110.91517893824134
 21
-111.0078495033349
  0
LINE
  8
MountainLine
  6
CONTINUOUS
 62
1
 10
-73.09117864634148
 20
-119.04686246262833
 11
-87.95746453366196
 21
-133.96556390791426
  0
LINE
  8
ValleyLine
  6
CONTINUOUS
 62
5
 10
-102.23161313320443
 20
-89.90642797576538
 11
-111.00784950333487
 21
-110.91517893824137
  0
LINE
  8
MountainLine
  6
CONTINUOUS
 62
1
 10
-119.0468624626283
 20
-73.0911786463415
 11
-133.96556390791423
 21
-87.957464533662
  0
LINE
  8
CutLine
  6
CONTINUOUS
 62
250
 10
-110.91517893824134
 20
-111.0078495033349
 11
-111.00784950333487
 21
-110.91517893824137
  0
LINE
  8
CutLine
  6
CONTINUOUS
 62
250
 10
-110.91517893824134
 20
-111.0078495033349
 11
-87.95746453366196
 21
-133.96556390791426
  0
LINE
  8
CutLine
  6
CONTINUOUS
 62
250
 10
-87.95746453366196
 20
-133.96556390791426
 11
-60.24505179535013
 21
-145.44442111020393
  0
LINE
  8
CutLine
  6
CONTINUOUS
 62
250
 10
-111.00784950333487
 20
-110.91517893824137
 11
-133.96556390791423
 21
-87.957464533662
  0
LINE
  8
CutLine
  6
CONTINUOUS
 62
250
 10
-133.96556390791423
 20
-87.957464533662
 11
-145.4444211102039
 21
-60.24505179535017
  0
LINE
  8
ValleyLine
  6
CONTINUOUS
 62
5
 10
0.0
 20
0.0
 11
-4.274791717636476
 21
-1.7692555948386004
  0
LINE
  8
MountainLine
  6
CONTINUOUS
 62
1
 10
0.0
 20
0.0
 11
-4.274791717636476
 21
-1.7699661503019037
  0
LINE
  8
ValleyLine
  6
CONTINUOUS
 62
5
 10
0.0
 20
-0.0
 11
-4.274791717636476
 21
1.769255594838599
  0
LINE
  8
MountainLine
  6
CONTINUOUS
 62
1
 10
0.0
 20
-0.0
 11
-4.274791717636476
 21
1.7699661503019024
  0
LINE
  8
MountainLine
  6
CONTINUOUS
 62
1
 10
-4.274791717636476
 20
-1.7692555948386004
 11
-4.274791717636476
 21
1.769255594838599
  0
LINE
  8
ValleyLine
  6
CONTINUOUS
 62
5
 10
-4.274791717636476
 20
-1.7692555948386004
 11
-4.274791717636476
 21
-1.7699661503019037
  0
LINE
  8
MountainLine
  6
CONTINUOUS
 62
1
 10
-4.274791717636476
 20
-1.7699661503019037
 11
-4.27454049834322
 21
-1.7705726473268109
  0
LINE
  8
ValleyLine
  6
CONTINUOUS
 62
5
 10
-4.274791717636476
 20
1.769255594838599
 11
-4.274791717636476
 21
1.7699661503019024
  0
LINE
  8
MountainLine
  6
CONTINUOUS
 62
1
 10
-4.274791717636476
 20
1.7699661503019024
 11
-4.27454049834322
 21
1.7705726473268095
  0
LINE
  8
ValleyLine
  6
CONTINUOUS
 62
5
 10
-4.274791717636476
 20
-1.7692555948386004
 11
-22.94185685549786
 21
-1.9003115648266482
  0
LINE
  8
MountainLine
  6
CONTINUOUS
 62
1
 10
-4.274791717636476
 20
-1.7699661503019037
 11
-22.94185685549786
 21
-5.7015699101980175
  0
LINE
  8
ValleyLine
  6
CONTINUOUS
 62
5
 10
-4.274791717636476
 20
1.769255594838599
 11
-22.94185685549786
 21
1.90031156482664
  0
LINE
  8
MountainLine
  6
CONTINUOUS
 62
1
 10
-4.274791717636476
 20
1.7699661503019024
 11
-22.94185685549786
 21
5.701569910198009
  0
LINE
  8
ValleyLine
  6
CONTINUOUS
 62
5
 10
-22.94185685549786
 20
-1.9003115648266482
 11
-22.94185685549786
 21
1.90031156482664
  0
LINE
  8
MountainLine
  6
CONTINUOUS
 62
1
 10
-22.94185685549786
 20
-1.9003115648266482
 11
-22.94185685549786
 21
-5.7015699101980175
  0
LINE
  8
ValleyLine
  6
CONTINUOUS
 62
5
 10
-22.94185685549786
 20
-5.7015699101980175
 11
-21.597909078970837
 21
-8.946146859410726
  0
LINE
  8
MountainLine
  6
CONTINUOUS
 62
1
 10
-22.94185685549786
 20
1.90031156482664
 11
-22.94185685549786
 21
5.701569910198009
  0
LINE
  8
ValleyLine
  6
CONTINUOUS
 62
5
 10
-22.94185685549786
 20
5.701569910198009
 11
-21.597909078970837
 21
8.94614685941072
  0
LINE
  8
ValleyLine
  6
CONTINUOUS
 62
5
 10
-22.94185685549786
 20
-1.9003115648266482
 11
-33.63007350871293
 21
-6.094102604444073
  0
LINE
  8
MountainLine
  6
CONTINUOUS
 62
1
 10
-22.94185685549786
 20
-5.7015699101980175
 11
-33.63007350871293
 21
-10.012067577678557
  0
LINE
  8
ValleyLine
  6
CONTINUOUS
 62
5
 10
-22.94185685549786
 20
1.90031156482664
 11
-33.63007350871293
 21
6.09410260444406
  0
LINE
  8
MountainLine
  6
CONTINUOUS
 62
1
 10
-22.94185685549786
 20
5.701569910198009
 11
-33.63007350871293
 21
10.012067577678547
  0
LINE
  8
MountainLine
  6
CONTINUOUS
 62
1
 10
-33.63007350871293
 20
-6.094102604444073
 11
-33.63007350871293
 21
6.09410260444406
  0
LINE
  8
ValleyLine
  6
CONTINUOUS
 62
5
 10
-33.63007350871293
 20
-6.094102604444073
 11
-33.63007350871293
 21
-10.012067577678557
  0
LINE
  8
MountainLine
  6
CONTINUOUS
 62
1
 10
-33.63007350871293
 20
-10.012067577678557
 11
-32.24486370820019
 21
-13.356259864808539
  0
LINE
  8
ValleyLine
  6
CONTINUOUS
 62
5
 10
-33.63007350871293
 20
6.09410260444406
 11
-33.63007350871293
 21
10.012067577678547
  0
LINE
  8
MountainLine
  6
CONTINUOUS
 62
1
 10
-33.63007350871293
 20
10.012067577678547
 11
-32.2448637082002
 21
13.356259864808528
  0
LINE
  8
ValleyLine
  6
CONTINUOUS
 62
5
 10
-33.63007350871293
 20
-6.094102604444073
 11
-56.9335106458572
 21
-14.612740653666965
  0
LINE
  8
MountainLine
  6
CONTINUOUS
 62
1
 10
-33.63007350871293
 20
-10.012067577678557
 11
-56.9335106458572
 21
-19.09768645834701
  0
LINE
  8
ValleyLine
  6
CONTINUOUS
 62
5
 10
-33.63007350871293
 20
6.09410260444406
 11
-56.9335106458572
 21
14.612740653666942
  0
LINE
  8
MountainLine
  6
CONTINUOUS
 62
1
 10
-33.63007350871293
 20
10.012067577678547
 11
-56.9335106458572
 21
19.09768645834699
  0
LINE
  8
MountainLine
  6
CONTINUOUS
 62
1
 10
-56.9335106458572
 20
-14.612740653666965
 11
-56.9335106458572
 21
14.612740653666942
  0
LINE
  8
ValleyLine
  6
CONTINUOUS
 62
5
 10
-56.9335106458572
 20
-14.612740653666965
 11
-56.9335106458572
 21
-19.09768645834701
  0
LINE
  8
MountainLine
  6
CONTINUOUS
 62
1
 10
-56.9335106458572
 20
-19.09768645834701
 11
-55.34784284998549
 21
-22.92582715655874
  0
LINE
  8
ValleyLine
  6
CONTINUOUS
 62
5
 10
-56.9335106458572
 20
14.612740653666942
 11
-56.9335106458572
 21
19.09768645834699
  0
LINE
  8
MountainLine
  6
CONTINUOUS
 62
1
 10
-56.9335106458572
 20
19.09768645834699
 11
-55.347842849985504
 21
22.925827156558718
  0
LINE
  8
ValleyLine
  6
CONTINUOUS
 62
5
 10
-56.9335106458572
 20
-14.612740653666965
 11
-83.99254820009291
 21
-19.06864363326048
  0
LINE
  8
MountainLine
  6
CONTINUOUS
 62
1
 10
-56.9335106458572
 20
-19.09768645834701
 11
-83.99254820009291
 21
-26.929748118007435
  0
LINE
  8
ValleyLine
  6
CONTINUOUS
 62
5
 10
-56.9335106458572
 20
14.612740653666942
 11
-83.99254820009291
 21
19.06864363326045
  0
LINE
  8
MountainLine
  6
CONTINUOUS
 62
1
 10
-56.9335106458572
 20
19.09768645834699
 11
-83.99254820009291
 21
26.929748118007407
  0
LINE
  8
MountainLine
  6
CONTINUOUS
 62
1
 10
-83.99254820009291
 20
-19.06864363326048
 11
-83.99254820009291
 21
19.06864363326045
  0
LINE
  8
ValleyLine
  6
CONTINUOUS
 62
5
 10
-83.99254820009291
 20
-19.06864363326048
 11
-83.99254820009291
 21
-26.929748118007435
  0
LINE
  8
MountainLine
  6
CONTINUOUS
 62
1
 10
-83.99254820009291
 20
-26.929748118007435
 11
-81.21322805570263
 21
-33.639620504771194
  0
LINE
  8
ValleyLine
  6
CONTINUOUS
 62
5
 10
-83.99254820009291
 20
19.06864363326045
 11
-83.99254820009291
 21
26.929748118007407
  0
LINE
  8
MountainLine
  6
CONTINUOUS
 62
1
 10
-83.99254820009291
 20
26.929748118007407
 11
-81.21322805570263
 21
33.63962050477116
  0
LINE
  8
ValleyLine
  6
CONTINUOUS
 62
5
 10
-83.99254820009291
 20
-19.06864363326048
 11
-109.46110580478366
 21
-18.020195873356133
  0
LINE
  8
MountainLine
  6
CONTINUOUS
 62
1
 10
-83.99254820009291
 20
-26.929748118007435
 11
-109.46110580478366
 21
-31.680235225026934
  0
LINE
  8
ValleyLine
  6
CONTINUOUS
 62
5
 10
-83.99254820009291
 20
19.06864363326045
 11
-109.46110580478366
 21
18.02019587335609
  0
LINE
  8
MountainLine
  6
CONTINUOUS
 62
1
 10
-83.99254820009291
 20
26.929748118007407
 11
-109.46110580478366
 21
31.68023522502689
  0
LINE
  8
MountainLine
  6
CONTINUOUS
 62
1
 10
-109.46110580478366
 20
-18.020195873356133
 11
-109.46110580478366
 21
18.02019587335609
  0
LINE
  8
ValleyLine
  6
CONTINUOUS
 62
5
 10
-109.46110580478366
 20
-18.020195873356133
 11
-109.46110580478366
 21
-31.680235225026934
  0
LINE
  8
MountainLine
  6
CONTINUOUS
 62
1
 10
-109.46110580478366
 20
-31.680235225026934
 11
-104.63155257636288
 21
-43.33980812928309
  0
LINE
  8
ValleyLine
  6
CONTINUOUS
 62
5
 10
-109.46110580478366
 20
18.02019587335609
 11
-109.46110580478366
 21
31.68023522502689
  0
LINE
  8
MountainLine
  6
CONTINUOUS
 62
1
 10
-109.46110580478366
 20
31.68023522502689
 11
-104.6315525763629
 21
43.33980812928305
  0
LINE
  8
ValleyLine
  6
CONTINUOUS
 62
5
 10
-109.46110580478366
 20
-18.020195873356133
 11
-135.8621117920522
 21
-8.71522200420498
  0
LINE
  8
MountainLine
  6
CONTINUOUS
 62
1
 10
-109.46110580478366
 20
-31.680235225026934
 11
-135.8621117920522
 21
-32.49557566056131
  0
LINE
  8
ValleyLine
  6
CONTINUOUS
 62
5
 10
-109.46110580478366
 20
18.02019587335609
 11
-135.8621117920522
 21
8.715222004204929
  0
LINE
  8
MountainLine
  6
CONTINUOUS
 62
1
 10
-109.46110580478366
 20
31.68023522502689
 11
-135.8621117920522
 21
32.49557566056126
  0
LINE
  8
MountainLine
  6
CONTINUOUS
 62
1
 10
-135.8621117920522
 20
-8.71522200420498
 11
-135.8621117920522
 21
8.715222004204929
  0
LINE
  8
ValleyLine
  6
CONTINUOUS
 62
5
 10
-135.8621117920522
 20
-8.71522200420498
 11
-135.8621117920522
 21
-32.49557566056131
  0
LINE
  8
MountainLine
  6
CONTINUOUS
 62
1
 10
-135.8621117920522
 20
-32.49557566056131
 11
-127.45448712734023
 21
-52.79337715345141
  0
LINE
  8
ValleyLine
  6
CONTINUOUS
 62
5
 10
-135.8621117920522
 20
8.715222004204929
 11
-135.8621117920522
 21
32.49557566056126
  0
LINE
  8
MountainLine
  6
CONTINUOUS
 62
1
 10
-135.8621117920522
 20
32.49557566056126
 11
-127.45448712734026
 21
52.79337715345137
  0
LINE
  8
ValleyLine
  6
CONTINUOUS
 62
5
 10
-135.8621117920522
 20
-8.71522200420498
 11
-156.92327831249358
 21
-0.06552798499405105
  0
LINE
  8
MountainLine
  6
CONTINUOUS
 62
1
 10
-135.8621117920522
 20
-32.49557566056131
 11
-156.92327831249358
 21
-32.53263905703835
  0
LINE
  8
ValleyLine
  6
CONTINUOUS
 62
5
 10
-135.8621117920522
 20
8.715222004204929
 11
-156.92327831249358
 21
0.06552798499399339
  0
LINE
  8
MountainLine
  6
CONTINUOUS
 62
1
 10
-135.8621117920522
 20
32.49557566056126
 11
-156.92327831249358
 21
32.53263905703829
  0
LINE
  8
CutLine
  6
CONTINUOUS
 62
250
 10
-156.92327831249358
 20
-0.06552798499405105
 11
-156.92327831249358
 21
0.06552798499399339
  0
LINE
  8
CutLine
  6
CONTINUOUS
 62
250
 10
-156.92327831249358
 20
-0.06552798499405105
 11
-156.92327831249358
 21
-32.53263905703835
  0
LINE
  8
CutLine
  6
CONTINUOUS
 62
250
 10
-156.92327831249358
 20
-32.53263905703835
 11
-145.4444211102039
 21
-60.245051795350186
  0
LINE
  8
CutLine
  6
CONTINUOUS
 62
250
 10
-156.92327831249358
 20
0.06552798499399339
 11
-156.92327831249358
 21
32.53263905703829
  0
LINE
  8
CutLine
  6
CONTINUOUS
 62
250
 10
-156.92327831249358
 20
32.53263905703829
 11
-145.4444211102039
 21
60.24505179535012
  0
LINE
  8
ValleyLine
  6
CONTINUOUS
 62
5
 10
0.0
 20
-0.0
 11
-4.273786840463454
 21
1.7716815829382275
  0
LINE
  8
MountainLine
  6
CONTINUOUS
 62
1
 10
0.0
 20
-0.0
 11
-4.274289279049965
 21
1.7711791443517164
  0
LINE
  8
ValleyLine
  6
CONTINUOUS
 62
5
 10
0.0
 20
-0.0
 11
-1.7716815829382295
 21
4.273786840463454
  0
LINE
  8
MountainLine
  6
CONTINUOUS
 62
1
 10
0.0
 20
-0.0
 11
-1.7711791443517186
 21
4.274289279049964
  0
LINE
  8
MountainLine
  6
CONTINUOUS
 62
1
 10
-4.273786840463454
 20
1.7716815829382275
 11
-1.7716815829382295
 21
4.273786840463454
  0
LINE
  8
ValleyLine
  6
CONTINUOUS
 62
5
 10
-4.273786840463454
 20
1.7716815829382275
 11
-4.274289279049965
 21
1.7711791443517164
  0
LINE
  8
MountainLine
  6
CONTINUOUS
 62
1
 10
-4.274289279049965
 20
1.7711791443517164
 11
-4.27454049834322
 21
1.7705726473268093
  0
LINE
  8
ValleyLine
  6
CONTINUOUS
 62
5
 10
-1.7716815829382295
 20
4.273786840463454
 11
-1.7711791443517186
 21
4.274289279049964
  0
LINE
  8
MountainLine
  6
CONTINUOUS
 62
1
 10
-1.7711791443517186
 20
4.274289279049964
 11
-1.770572647326811
 21
4.27454049834322
  0
LINE
  8
ValleyLine
  6
CONTINUOUS
 62
5
 10
-4.273786840463454
 20
1.7716815829382275
 11
-17.566065749389765
 21
14.878619361677476
  0
LINE
  8
MountainLine
  6
CONTINUOUS
 62
1
 10
-4.274289279049965
 20
1.7711791443517164
 11
-20.253961302443816
 21
12.190723808623424
  0
LINE
  8
ValleyLine
  6
CONTINUOUS
 62
5
 10
-1.7716815829382295
 20
4.273786840463454
 11
-14.878619361677487
 21
17.566065749389754
  0
LINE
  8
MountainLine
  6
CONTINUOUS
 62
1
 10
-1.7711791443517186
 20
4.274289279049964
 11
-12.190723808623435
 21
20.25396130244381
  0
LINE
  8
ValleyLine
  6
CONTINUOUS
 62
5
 10
-17.566065749389765
 20
14.878619361677476
 11
-14.878619361677487
 21
17.566065749389754
  0
LINE
  8
MountainLine
  6
CONTINUOUS
 62
1
 10
-17.566065749389765
 20
14.878619361677476
 11
-20.253961302443816
 21
12.190723808623424
  0
LINE
  8
ValleyLine
  6
CONTINUOUS
 62
5
 10
-20.253961302443816
 20
12.190723808623424
 11
-21.59790907897084
 21
8.946146859410717
  0
LINE
  8
MountainLine
  6
CONTINUOUS
 62
1
 10
-14.878619361677487
 20
17.566065749389754
 11
-12.190723808623435
 21
20.25396130244381
  0
LINE
  8
ValleyLine
  6
CONTINUOUS
 62
5
 10
-12.190723808623435
 20
20.25396130244381
 11
-8.946146859410726
 21
21.597909078970833
  0
LINE
  8
ValleyLine
  6
CONTINUOUS
 62
5
 10
-17.566065749389765
 20
14.878619361677476
 11
-28.08923430666199
 21
19.47087175296398
  0
LINE
  8
MountainLine
  6
CONTINUOUS
 62
1
 10
-20.253961302443816
 20
12.190723808623424
 11
-30.859653907687466
 21
16.700452151938503
  0
LINE
  8
ValleyLine
  6
CONTINUOUS
 62
5
 10
-14.878619361677487
 20
17.566065749389754
 11
-19.47087175296399
 21
28.08923430666198
  0
LINE
  8
MountainLine
  6
CONTINUOUS
 62
1
 10
-12.190723808623435
 20
20.25396130244381
 11
-16.700452151938517
 21
30.85965390768746
  0
LINE
  8
MountainLine
  6
CONTINUOUS
 62
1
 10
-28.08923430666199
 20
19.47087175296398
 11
-19.47087175296399
 21
28.08923430666198
  0
LINE
  8
ValleyLine
  6
CONTINUOUS
 62
5
 10
-28.08923430666199
 20
19.47087175296398
 11
-30.859653907687466
 21
16.700452151938503
  0
LINE
  8
MountainLine
  6
CONTINUOUS
 62
1
 10
-30.859653907687466
 20
16.700452151938503
 11
-32.24486370820021
 21
13.356259864808523
  0
LINE
  8
ValleyLine
  6
CONTINUOUS
 62
5
 10
-19.47087175296399
 20
28.08923430666198
 11
-16.700452151938517
 21
30.85965390768746
  0
LINE
  8
MountainLine
  6
CONTINUOUS
 62
1
 10
-16.700452151938517
 20
30.85965390768746
 11
-13.356259864808539
 21
32.2448637082002
  0
LINE
  8
ValleyLine
  6
CONTINUOUS
 62
5
 10
-28.08923430666199
 20
19.47087175296398
 11
-50.590839462370376
 21
29.925303446513865
  0
LINE
  8
MountainLine
  6
CONTINUOUS
 62
1
 10
-30.859653907687466
 20
16.700452151938503
 11
-53.76217505411379
 21
26.75396785477045
  0
LINE
  8
ValleyLine
  6
CONTINUOUS
 62
5
 10
-19.47087175296399
 20
28.08923430666198
 11
-29.925303446513883
 21
50.59083946237037
  0
LINE
  8
MountainLine
  6
CONTINUOUS
 62
1
 10
-16.700452151938517
 20
30.85965390768746
 11
-26.75396785477047
 21
53.762175054113776
  0
LINE
  8
MountainLine
  6
CONTINUOUS
 62
1
 10
-50.590839462370376
 20
29.925303446513865
 11
-29.925303446513883
 21
50.59083946237037
  0
LINE
  8
ValleyLine
  6
CONTINUOUS
 62
5
 10
-50.590839462370376
 20
29.925303446513865
 11
-53.76217505411379
 21
26.75396785477045
  0
LINE
  8
MountainLine
  6
CONTINUOUS
 62
1
 10
-53.76217505411379
 20
26.75396785477045
 11
-55.3478428499855
 21
22.925827156558718
  0
LINE
  8
ValleyLine
  6
CONTINUOUS
 62
5
 10
-29.925303446513883
 20
50.59083946237037
 11
-26.75396785477047
 21
53.762175054113776
  0
LINE
  8
MountainLine
  6
CONTINUOUS
 62
1
 10
-26.75396785477047
 20
53.762175054113776
 11
-22.925827156558743
 21
55.34784284998549
  0
LINE
  8
ValleyLine
  6
CONTINUOUS
 62
5
 10
-50.590839462370376
 20
29.925303446513865
 11
-72.87526762253181
 21
45.90813318031547
  0
LINE
  8
MountainLine
  6
CONTINUOUS
 62
1
 10
-53.76217505411379
 20
26.75396785477045
 11
-78.43390791131237
 21
40.34949289153491
  0
LINE
  8
ValleyLine
  6
CONTINUOUS
 62
5
 10
-29.925303446513883
 20
50.59083946237037
 11
-45.9081331803155
 21
72.8752676225318
  0
LINE
  8
MountainLine
  6
CONTINUOUS
 62
1
 10
-26.75396785477047
 20
53.762175054113776
 11
-40.34949289153495
 21
78.43390791131236
  0
LINE
  8
MountainLine
  6
CONTINUOUS
 62
1
 10
-72.87526762253181
 20
45.90813318031547
 11
-45.9081331803155
 21
72.8752676225318
  0
LINE
  8
ValleyLine
  6
CONTINUOUS
 62
5
 10
-72.87526762253181
 20
45.90813318031547
 11
-78.43390791131237
 21
40.34949289153491
  0
LINE
  8
MountainLine
  6
CONTINUOUS
 62
1
 10
-78.43390791131237
 20
40.34949289153491
 11
-81.21322805570264
 21
33.63962050477115
  0
LINE
  8
ValleyLine
  6
CONTINUOUS
 62
5
 10
-45.9081331803155
 20
72.8752676225318
 11
-40.34949289153495
 21
78.43390791131236
  0
LINE
  8
MountainLine
  6
CONTINUOUS
 62
1
 10
-40.34949289153495
 20
78.43390791131236
 11
-33.639620504771194
 21
81.21322805570263
  0
LINE
  8
ValleyLine
  6
CONTINUOUS
 62
5
 10
-72.87526762253181
 20
45.90813318031547
 11
-90.14289289110063
 21
64.65848749038072
  0
LINE
  8
MountainLine
  6
CONTINUOUS
 62
1
 10
-78.43390791131237
 20
40.34949289153491
 11
-99.80199934794216
 21
54.99938103353921
  0
LINE
  8
ValleyLine
  6
CONTINUOUS
 62
5
 10
-45.9081331803155
 20
72.8752676225318
 11
-64.65848749038075
 21
90.14289289110062
  0
LINE
  8
MountainLine
  6
CONTINUOUS
 62
1
 10
-40.34949289153495
 20
78.43390791131236
 11
-54.999381033539244
 21
99.80199934794213
  0
LINE
  8
MountainLine
  6
CONTINUOUS
 62
1
 10
-90.14289289110063
 20
64.65848749038072
 11
-64.65848749038075
 21
90.14289289110062
  0
LINE
  8
ValleyLine
  6
CONTINUOUS
 62
5
 10
-90.14289289110063
 20
64.65848749038072
 11
-99.80199934794216
 21
54.99938103353921
  0
LINE
  8
MountainLine
  6
CONTINUOUS
 62
1
 10
-99.80199934794216
 20
54.99938103353921
 11
-104.6315525763629
 21
43.339808129283035
  0
LINE
  8
ValleyLine
  6
CONTINUOUS
 62
5
 10
-64.65848749038075
 20
90.14289289110062
 11
-54.999381033539244
 21
99.80199934794213
  0
LINE
  8
MountainLine
  6
CONTINUOUS
 62
1
 10
-54.999381033539244
 20
99.80199934794213
 11
-43.33980812928309
 21
104.63155257636288
  0
LINE
  8
ValleyLine
  6
CONTINUOUS
 62
5
 10
-90.14289289110063
 20
64.65848749038072
 11
-102.23161313320446
 21
89.90642797576534
  0
LINE
  8
MountainLine
  6
CONTINUOUS
 62
1
 10
-99.80199934794216
 20
54.99938103353921
 11
-119.04686246262833
 21
73.09117864634146
  0
LINE
  8
ValleyLine
  6
CONTINUOUS
 62
5
 10
-64.65848749038075
 20
90.14289289110062
 11
-89.90642797576538
 21
102.23161313320442
  0
LINE
  8
MountainLine
  6
CONTINUOUS
 62
1
 10
-54.999381033539244
 20
99.80199934794213
 11
-73.0911786463415
 21
119.04686246262828
  0
LINE
  8
MountainLine
  6
CONTINUOUS
 62
1
 10
-102.23161313320446
 20
89.90642797576534
 11
-89.90642797576538
 21
102.23161313320442
  0
LINE
  8
ValleyLine
  6
CONTINUOUS
 62
5
 10
-102.23161313320446
 20
89.90642797576534
 11
-119.04686246262833
 21
73.09117864634146
  0
LINE
  8
MountainLine
  6
CONTINUOUS
 62
1
 10
-119.04686246262833
 20
73.09117864634146
 11
-127.45448712734024
 21
52.79337715345136
  0
LINE
  8
ValleyLine
  6
CONTINUOUS
 62
5
 10
-89.90642797576538
 20
102.23161313320442
 11
-73.0911786463415
 21
119.04686246262828
  0
LINE
  8
MountainLine
  6
CONTINUOUS
 62
1
 10
-73.0911786463415
 20
119.04686246262828
 11
-52.79337715345142
 21
127.45448712734022
  0
LINE
  8
ValleyLine
  6
CONTINUOUS
 62
5
 10
-102.23161313320446
 20
89.90642797576534
 11
-111.0078495033349
 21
110.91517893824131
  0
LINE
  8
MountainLine
  6
CONTINUOUS
 62
1
 10
-119.04686246262833
 20
73.09117864634146
 11
-133.96556390791426
 21
87.95746453366193
  0
LINE
  8
ValleyLine
  6
CONTINUOUS
 62
5
 10
-89.90642797576538
 20
102.23161313320442
 11
-110.91517893824137
 21
111.00784950333484
  0
LINE
  8
MountainLine
  6
CONTINUOUS
 62
1
 10
-73.0911786463415
 20
119.04686246262828
 11
-87.957464533662
 21
133.9655639079142
  0
LINE
  8
CutLine
  6
CONTINUOUS
 62
250
 10
-111.0078495033349
 20
110.91517893824131
 11
-110.91517893824137
 21
111.00784950333484
  0
LINE
  8
CutLine
  6
CONTINUOUS
 62
250
 10
-111.0078495033349
 20
110.91517893824131
 11
-133.96556390791426
 21
87.95746453366193
  0
LINE
  8
CutLine
  6
CONTINUOUS
 62
250
 10
-133.96556390791426
 20
87.95746453366193
 11
-145.44442111020393
 21
60.245051795350115
  0
LINE
  8
CutLine
  6
CONTINUOUS
 62
250
 10
-110.91517893824137
 20
111.00784950333484
 11
-87.957464533662
 21
133.9655639079142
  0
LINE
  8
CutLine
  6
CONTINUOUS
 62
250
 10
-87.957464533662
 20
133.9655639079142
 11
-60.245051795350186
 21
145.4444211102039
  0
ENDSEC
  0
EOF
