  0
SECTION
  2
HEADER
  9
$ACADVER
  1
AC1009
  0
ENDSEC
  0
SECTION
  2
ENTITIES
  0
LINE
  8
reference 10mm
  6
CONTINUOUS
 62
250
 10
-318.6313455858524
 20
384.57361170694077
 11
-308.6313455858524
 21
384.57361170694077
  0
LINE
  8
reference 10mm
  6
CONTINUOUS
 62
250
 10
-308.6313455858524
 20
384.57361170694077
 11
-308.6313455858524
 21
394.57361170694077
  0
LINE
  8
reference 10mm
  6
CONTINUOUS
 62
250
 10
-308.6313455858524
 20
394.57361170694077
 11
-318.6313455858524
 21
394.57361170694077
  0
LINE
  8
reference 10mm
  6
CONTINUOUS
 62
250
 10
-318.6313455858524
 20
394.57361170694077
 11
-318.6313455858524
 21
384.57361170694077
  0
LINE
  8
MountainLine
  6
CONTINUOUS
 62
1
 10
0.0
 20
-0.0
 11
-318.63134558585233
 21
-231.4992233236949
  0
LINE
  8
CutLine
  6
CONTINUOUS
 62
250
 10
121.70634413268176
 20
-374.5736117069408
 11
-318.63134558585233
 21
-231.4992233236949
  0
LINE
  8
MountainLine
  6
CONTINUOUS
 62
1
 10
0.0
 20
-0.0
 11
121.70634413268176
 21
-374.5736117069408
  0
LINE
  8
CutLine
  6
CONTINUOUS
 62
250
 10
393.850002906341
 20
-4.8232714540342625E-14
 11
121.70634413268176
 21
-374.5736117069408
  0
LINE
  8
MountainLine
  6
CONTINUOUS
 62
1
 10
0.0
 20
-0.0
 11
393.850002906341
 21
-4.8232714540342625E-14
  0
LINE
  8
CutLine
  6
CONTINUOUS
 62
250
 10
121.70634413268185
 20
374.57361170694077
 11
393.850002906341
 21
-4.8232714540342625E-14
  0
LINE
  8
MountainLine
  6
CONTINUOUS
 62
1
 10
0.0
 20
0.0
 11
121.70634413268185
 21
374.57361170694077
  0
LINE
  8
CutLine
  6
CONTINUOUS
 62
250
 10
-318.6313455858523
 20
231.49922332369502
 11
121.70634413268185
 21
374.57361170694077
  0
LINE
  8
MountainLine
  6
CONTINUOUS
 62
1
 10
0.0
 20
0.0
 11
-318.6313455858523
 21
231.49922332369502
  0
LINE
  8
CutLine
  6
CONTINUOUS
 62
250
 10
-318.6313455858524
 20
-231.49922332369482
 11
-318.6313455858523
 21
231.49922332369502
  0
LINE
  8
ValleyLine
  6
CONTINUOUS
 62
5
 10
0.0
 20
-0.0
 11
-49.144216564147904
 21
-33.91068763225806
  0
LINE
  8
ValleyLine
  6
CONTINUOUS
 62
5
 10
-49.144216564147904
 20
-33.91068763225806
 11
-98.57483728947281
 21
-1.1303562544086019
  0
LINE
  8
ValleyLine
  6
CONTINUOUS
 62
5
 10
-98.57483728947281
 20
-1.1303562544086019
 11
-147.1485271826812
 21
-36.17140014107526
  0
LINE
  8
ValleyLine
  6
CONTINUOUS
 62
5
 10
-147.1485271826812
 20
-36.17140014107526
 11
-250.74357127917847
 21
32.21515325064516
  0
LINE
  8
ValleyLine
  6
CONTINUOUS
 62
5
 10
-250.74357127917847
 20
32.21515325064516
 11
-318.6313455858523
 21
80.25529406301074
  0
LINE
  8
ValleyLine
  6
CONTINUOUS
 62
5
 10
-318.6313455858523
 20
80.25529406301074
 11
-318.6313455858523
 21
80.25529406301074
  0
LINE
  8
ValleyLine
  6
CONTINUOUS
 62
5
 10
-49.144216564147904
 20
-33.91068763225806
 11
-49.144216564147904
 21
-35.70536333935895
  0
LINE
  8
MountainLine
  6
CONTINUOUS
 62
1
 10
-49.144216564147904
 20
-33.91068763225806
 11
-49.144216564147904
 21
35.70536333935895
  0
LINE
  8
MountainLine
  6
CONTINUOUS
 62
1
 10
-98.57483728947281
 20
-1.1303562544086019
 11
-98.57483728947281
 21
-71.6188114820107
  0
LINE
  8
ValleyLine
  6
CONTINUOUS
 62
5
 10
-98.57483728947281
 20
-1.1303562544086019
 11
-98.57483728947281
 21
71.6188114820107
  0
LINE
  8
ValleyLine
  6
CONTINUOUS
 62
5
 10
-147.1485271826812
 20
-36.17140014107526
 11
-147.1485271826812
 21
-106.90966293157078
  0
LINE
  8
MountainLine
  6
CONTINUOUS
 62
1
 10
-147.1485271826812
 20
-36.17140014107526
 11
-147.1485271826812
 21
106.90966293157078
  0
LINE
  8
ValleyLine
  6
CONTINUOUS
 62
5
 10
-250.74357127917847
 20
32.21515325064516
 11
-250.74357127917847
 21
-182.17586815826672
  0
LINE
  8
MountainLine
  6
CONTINUOUS
 62
1
 10
-250.74357127917847
 20
32.21515325064516
 11
-250.74357127917847
 21
182.17586815826672
  0
LINE
  8
ValleyLine
  6
CONTINUOUS
 62
5
 10
-318.6313455858523
 20
80.25529406301074
 11
-318.6313455858523
 21
-231.4992233236949
  0
LINE
  8
MountainLine
  6
CONTINUOUS
 62
1
 10
-318.6313455858523
 20
80.25529406301074
 11
-318.6313455858523
 21
231.4992233236949
  0
LINE
  8
ValleyLine
  6
CONTINUOUS
 62
5
 10
0.0
 20
-0.0
 11
17.064582351144008
 21
-57.217906170861184
  0
LINE
  8
ValleyLine
  6
CONTINUOUS
 62
5
 10
17.064582351144008
 20
-57.217906170861184
 11
-29.386267258702095
 21
-94.09954063919788
  0
LINE
  8
ValleyLine
  6
CONTINUOUS
 62
5
 10
-29.386267258702095
 20
-94.09954063919788
 11
-11.07034978900334
 21
-151.1241429942521
  0
LINE
  8
ValleyLine
  6
CONTINUOUS
 62
5
 10
-11.07034978900334
 20
-151.1241429942521
 11
-108.1224561780052
 21
-228.5162775533383
  0
LINE
  8
ValleyLine
  6
CONTINUOUS
 62
5
 10
-108.1224561780052
 20
-228.5162775533383
 11
-174.78982111239534
 21
-278.23616776128864
  0
LINE
  8
ValleyLine
  6
CONTINUOUS
 62
5
 10
-174.78982111239534
 20
-278.23616776128864
 11
-174.78982111239534
 21
-278.23616776128864
  0
LINE
  8
ValleyLine
  6
CONTINUOUS
 62
5
 10
17.064582351144008
 20
-57.217906170861184
 11
18.77142037701892
 21
-57.77249146374723
  0
LINE
  8
MountainLine
  6
CONTINUOUS
 62
1
 10
17.064582351144008
 20
-57.217906170861184
 11
-49.144216564147904
 21
-35.70536333935895
  0
LINE
  8
MountainLine
  6
CONTINUOUS
 62
1
 10
-29.386267258702095
 20
-94.09954063919788
 11
37.65223740908805
 21
-115.88167121176453
  0
LINE
  8
ValleyLine
  6
CONTINUOUS
 62
5
 10
-29.386267258702095
 20
-94.09954063919788
 11
-98.57483728947281
 21
-71.61881148201068
  0
LINE
  8
ValleyLine
  6
CONTINUOUS
 62
5
 10
-11.07034978900334
 20
-151.1241429942521
 11
56.205735989296414
 21
-172.98346834907622
  0
LINE
  8
MountainLine
  6
CONTINUOUS
 62
1
 10
-11.07034978900334
 20
-151.1241429942521
 11
-147.14852718268122
 21
-106.90966293157076
  0
LINE
  8
ValleyLine
  6
CONTINUOUS
 62
5
 10
-108.1224561780052
 20
-228.5162775533383
 11
95.77552176811419
 21
-294.76674661009525
  0
LINE
  8
MountainLine
  6
CONTINUOUS
 62
1
 10
-108.1224561780052
 20
-228.5162775533383
 11
-250.74357127917847
 21
-182.17586815826672
  0
LINE
  8
ValleyLine
  6
CONTINUOUS
 62
5
 10
-174.78982111239534
 20
-278.23616776128864
 11
121.70634413268176
 21
-374.57361170694077
  0
LINE
  8
MountainLine
  6
CONTINUOUS
 62
1
 10
-174.78982111239534
 20
-278.23616776128864
 11
-318.6313455858523
 21
-231.4992233236949
  0
LINE
  8
ValleyLine
  6
CONTINUOUS
 62
5
 10
0.0
 20
-0.0
 11
59.6907084609765
 21
-1.4519231464364988
  0
LINE
  8
ValleyLine
  6
CONTINUOUS
 62
5
 10
59.6907084609765
 20
-1.4519231464364988
 11
80.41312532110672
 21
-57.02635818636771
  0
LINE
  8
ValleyLine
  6
CONTINUOUS
 62
5
 10
80.41312532110672
 20
-57.02635818636771
 11
140.30667474572692
 21
-57.22845675007188
  0
LINE
  8
ValleyLine
  6
CONTINUOUS
 62
5
 10
140.30667474572692
 20
-57.22845675007188
 11
183.9202184140502
 21
-173.44597976121293
  0
LINE
  8
ValleyLine
  6
CONTINUOUS
 62
5
 10
183.9202184140502
 20
-173.44597976121293
 11
210.605295250878
 21
-252.21470263900494
  0
LINE
  8
ValleyLine
  6
CONTINUOUS
 62
5
 10
210.605295250878
 20
-252.21470263900494
 11
210.605295250878
 21
-252.21470263900494
  0
LINE
  8
ValleyLine
  6
CONTINUOUS
 62
5
 10
59.6907084609765
 20
-1.4519231464364988
 11
60.74559237425797
 21
-1.0248212535001443E-14
  0
LINE
  8
MountainLine
  6
CONTINUOUS
 62
1
 10
59.6907084609765
 20
-1.4519231464364988
 11
18.771420377018913
 21
-57.77249146374723
  0
LINE
  8
MountainLine
  6
CONTINUOUS
 62
1
 10
80.41312532110672
 20
-57.02635818636771
 11
121.84519976076952
 21
-2.0496425070002887E-14
  0
LINE
  8
ValleyLine
  6
CONTINUOUS
 62
5
 10
80.41312532110672
 20
-57.02635818636771
 11
37.652237409088045
 21
-115.88167121176453
  0
LINE
  8
ValleyLine
  6
CONTINUOUS
 62
5
 10
140.30667474572692
 20
-57.22845675007188
 11
181.88558238676958
 21
-2.0496425070002887E-14
  0
LINE
  8
MountainLine
  6
CONTINUOUS
 62
1
 10
140.30667474572692
 20
-57.22845675007188
 11
56.205735989296386
 21
-172.98346834907625
  0
LINE
  8
ValleyLine
  6
CONTINUOUS
 62
5
 10
183.9202184140502
 20
-173.44597976121293
 11
309.9360990221285
 21
-4.0992850140005773E-14
  0
LINE
  8
MountainLine
  6
CONTINUOUS
 62
1
 10
183.9202184140502
 20
-173.44597976121293
 11
95.77552176811419
 21
-294.76674661009525
  0
LINE
  8
ValleyLine
  6
CONTINUOUS
 62
5
 10
210.605295250878
 20
-252.21470263900494
 11
393.850002906341
 21
-8.198570028001155E-14
  0
LINE
  8
MountainLine
  6
CONTINUOUS
 62
1
 10
210.605295250878
 20
-252.21470263900494
 11
121.70634413268175
 21
-374.57361170694077
  0
LINE
  8
ValleyLine
  6
CONTINUOUS
 62
5
 10
0.0
 20
0.0
 11
19.826304290300392
 21
56.32056831731073
  0
LINE
  8
ValleyLine
  6
CONTINUOUS
 62
5
 10
19.826304290300392
 20
56.32056831731073
 11
79.08431184875086
 21
58.855313025396825
  0
LINE
  8
ValleyLine
  6
CONTINUOUS
 62
5
 10
79.08431184875086
 20
58.855313025396825
 11
97.78464363033909
 21
115.75501159900436
  0
LINE
  8
ValleyLine
  6
CONTINUOUS
 62
5
 10
97.78464363033909
 20
115.75501159900436
 11
221.7914023761925
 21
121.32076684888234
  0
LINE
  8
ValleyLine
  6
CONTINUOUS
 62
5
 10
221.7914023761925
 20
121.32076684888234
 11
304.9510517881448
 21
122.35890906793581
  0
LINE
  8
ValleyLine
  6
CONTINUOUS
 62
5
 10
304.9510517881448
 20
122.35890906793581
 11
304.9510517881448
 21
122.35890906793581
  0
LINE
  8
ValleyLine
  6
CONTINUOUS
 62
5
 10
19.826304290300392
 20
56.32056831731073
 11
18.771420377018927
 21
57.772491463747215
  0
LINE
  8
MountainLine
  6
CONTINUOUS
 62
1
 10
19.826304290300392
 20
56.32056831731073
 11
60.74559237425796
 21
-5.124106267500722E-15
  0
LINE
  8
MountainLine
  6
CONTINUOUS
 62
1
 10
79.08431184875086
 20
58.855313025396825
 11
37.65223740908807
 21
115.88167121176453
  0
LINE
  8
ValleyLine
  6
CONTINUOUS
 62
5
 10
79.08431184875086
 20
58.855313025396825
 11
121.84519976076952
 21
-1.0248212535001443E-14
  0
LINE
  8
ValleyLine
  6
CONTINUOUS
 62
5
 10
97.78464363033909
 20
115.75501159900436
 11
56.20573598929642
 21
172.98346834907622
  0
LINE
  8
MountainLine
  6
CONTINUOUS
 62
1
 10
97.78464363033909
 20
115.75501159900436
 11
181.88558238676958
 21
-2.0496425070002887E-14
  0
LINE
  8
ValleyLine
  6
CONTINUOUS
 62
5
 10
221.7914023761925
 20
121.32076684888234
 11
95.77552176811423
 21
294.76674661009525
  0
LINE
  8
MountainLine
  6
CONTINUOUS
 62
1
 10
221.7914023761925
 20
121.32076684888234
 11
309.9360990221285
 21
-2.0496425070002887E-14
  0
LINE
  8
ValleyLine
  6
CONTINUOUS
 62
5
 10
304.9510517881448
 20
122.35890906793581
 11
121.70634413268185
 21
374.57361170694065
  0
LINE
  8
MountainLine
  6
CONTINUOUS
 62
1
 10
304.9510517881448
 20
122.35890906793581
 11
393.850002906341
 21
-4.0992850140005773E-14
  0
LINE
  8
ValleyLine
  6
CONTINUOUS
 62
5
 10
0.0
 20
-0.0
 11
-47.43737853827299
 21
36.259948632245006
  0
LINE
  8
ValleyLine
  6
CONTINUOUS
 62
5
 10
-47.43737853827299
 20
36.259948632245006
 11
-31.536332621682643
 21
93.40094205457737
  0
LINE
  8
ValleyLine
  6
CONTINUOUS
 62
5
 10
-31.536332621682643
 20
93.40094205457737
 11
-79.87244140438143
 21
128.7689882863949
  0
LINE
  8
ValleyLine
  6
CONTINUOUS
 62
5
 10
-79.87244140438143
 20
128.7689882863949
 11
-46.84559333305899
 21
248.42633721502366
  0
LINE
  8
ValleyLine
  6
CONTINUOUS
 62
5
 10
-46.84559333305899
 20
248.42633721502366
 11
-22.13518034077507
 21
327.836667269347
  0
LINE
  8
ValleyLine
  6
CONTINUOUS
 62
5
 10
-22.13518034077507
 20
327.836667269347
 11
-22.13518034077507
 21
327.836667269347
  0
LINE
  8
ValleyLine
  6
CONTINUOUS
 62
5
 10
-47.43737853827299
 20
36.259948632245006
 11
-49.1442165641479
 21
35.70536333935896
  0
LINE
  8
MountainLine
  6
CONTINUOUS
 62
1
 10
-47.43737853827299
 20
36.259948632245006
 11
18.771420377018934
 21
57.772491463747215
  0
LINE
  8
MountainLine
  6
CONTINUOUS
 62
1
 10
-31.536332621682643
 20
93.40094205457737
 11
-98.5748372894728
 21
71.61881148201073
  0
LINE
  8
ValleyLine
  6
CONTINUOUS
 62
5
 10
-31.536332621682643
 20
93.40094205457737
 11
37.65223740908808
 21
115.88167121176453
  0
LINE
  8
ValleyLine
  6
CONTINUOUS
 62
5
 10
-79.87244140438143
 20
128.7689882863949
 11
-147.1485271826812
 21
106.9096629315708
  0
LINE
  8
MountainLine
  6
CONTINUOUS
 62
1
 10
-79.87244140438143
 20
128.7689882863949
 11
56.20573598929646
 21
172.98346834907622
  0
LINE
  8
ValleyLine
  6
CONTINUOUS
 62
5
 10
-46.84559333305899
 20
248.42633721502366
 11
-250.7435712791784
 21
182.17586815826675
  0
LINE
  8
MountainLine
  6
CONTINUOUS
 62
1
 10
-46.84559333305899
 20
248.42633721502366
 11
95.77552176811427
 21
294.7667466100952
  0
LINE
  8
ValleyLine
  6
CONTINUOUS
 62
5
 10
-22.13518034077507
 20
327.836667269347
 11
-318.6313455858522
 21
231.499223323695
  0
LINE
  8
MountainLine
  6
CONTINUOUS
 62
1
 10
-22.13518034077507
 20
327.836667269347
 11
121.70634413268186
 21
374.57361170694077
  0
ENDSEC
  0
EOF
