  0
SECTION
  2
HEADER
  9
$ACADVER
  1
AC1009
  0
ENDSEC
  0
SECTION
  2
ENTITIES
  0
LINE
  8
reference 10mm
  6
CONTINUOUS
 62
250
 10
-1419.4471402647696
 20
1649.0363770646188
 11
-1409.4471402647696
 21
1649.0363770646188
  0
LINE
  8
reference 10mm
  6
CONTINUOUS
 62
250
 10
-1409.4471402647696
 20
1649.0363770646188
 11
-1409.4471402647696
 21
1659.0363770646188
  0
LINE
  8
reference 10mm
  6
CONTINUOUS
 62
250
 10
-1409.4471402647696
 20
1659.0363770646188
 11
-1419.4471402647696
 21
1659.0363770646188
  0
LINE
  8
reference 10mm
  6
CONTINUOUS
 62
250
 10
-1419.4471402647696
 20
1659.0363770646188
 11
-1419.4471402647696
 21
1649.0363770646188
  0
LINE
  8
MountainLine
  6
CONTINUOUS
 62
1
 10
0.0
 20
-0.0
 11
-1419.4471402647696
 21
-819.518188532309
  0
LINE
  8
CutLine
  6
CONTINUOUS
 62
250
 10
-1.0036203264291294E-13
 20
-1639.0363770646181
 11
-1419.4471402647696
 21
-819.518188532309
  0
LINE
  8
MountainLine
  6
CONTINUOUS
 62
1
 10
0.0
 20
-0.0
 11
-1.0036203264291294E-13
 21
-1639.0363770646181
  0
LINE
  8
CutLine
  6
CONTINUOUS
 62
250
 10
1419.447140264769
 20
-819.5181885323096
 11
-1.0036203264291294E-13
 21
-1639.0363770646181
  0
LINE
  8
MountainLine
  6
CONTINUOUS
 62
1
 10
0.0
 20
-0.0
 11
1419.447140264769
 21
-819.5181885323096
  0
LINE
  8
CutLine
  6
CONTINUOUS
 62
250
 10
1419.4471402647696
 20
819.5181885323086
 11
1419.447140264769
 21
-819.5181885323096
  0
LINE
  8
MountainLine
  6
CONTINUOUS
 62
1
 10
0.0
 20
0.0
 11
1419.4471402647696
 21
819.5181885323086
  0
LINE
  8
CutLine
  6
CONTINUOUS
 62
250
 10
3.010860979287388E-13
 20
1639.0363770646181
 11
1419.4471402647696
 21
819.5181885323086
  0
LINE
  8
MountainLine
  6
CONTINUOUS
 62
1
 10
0.0
 20
0.0
 11
3.010860979287388E-13
 21
1639.0363770646181
  0
LINE
  8
CutLine
  6
CONTINUOUS
 62
250
 10
-1419.4471402647696
 20
819.5181885323085
 11
3.010860979287388E-13
 21
1639.0363770646181
  0
LINE
  8
MountainLine
  6
CONTINUOUS
 62
1
 10
0.0
 20
0.0
 11
-1419.4471402647696
 21
819.5181885323085
  0
LINE
  8
CutLine
  6
CONTINUOUS
 62
250
 10
-1419.4471402647694
 20
-819.5181885323091
 11
-1419.4471402647696
 21
819.5181885323085
  0
LINE
  8
ValleyLine
  6
CONTINUOUS
 62
5
 10
0.0
 20
-0.0
 11
0.0
 21
-0.0
  0
LINE
  8
ValleyLine
  6
CONTINUOUS
 62
5
 10
0.0
 20
-0.0
 11
-5.067074705339758
 21
-2.92487684729064
  0
LINE
  8
ValleyLine
  6
CONTINUOUS
 62
5
 10
-5.067074705339758
 20
-2.92487684729064
 11
-20.268298821359032
 21
-11.69950738916256
  0
LINE
  8
ValleyLine
  6
CONTINUOUS
 62
5
 10
-20.268298821359032
 20
-11.69950738916256
 11
-40.53128274668722
 21
-23.38618637110016
  0
LINE
  8
ValleyLine
  6
CONTINUOUS
 62
5
 10
-40.53128274668722
 20
-23.38618637110016
 11
-60.82267239307699
 21
-35.04720853858784
  0
LINE
  8
ValleyLine
  6
CONTINUOUS
 62
5
 10
-60.82267239307699
 20
-35.04720853858784
 11
-81.25366591871382
 21
-46.66974548440064
  0
LINE
  8
ValleyLine
  6
CONTINUOUS
 62
5
 10
-81.25366591871382
 20
-46.66974548440064
 11
-102.04770284136065
 21
-58.24096880131361
  0
LINE
  8
ValleyLine
  6
CONTINUOUS
 62
5
 10
-102.04770284136065
 20
-58.24096880131361
 11
-122.95465364892615
 21
-69.50431034482757
  0
LINE
  8
ValleyLine
  6
CONTINUOUS
 62
5
 10
-122.95465364892615
 20
-69.50431034482757
 11
-143.74072736812957
 21
-80.20320197044333
  0
LINE
  8
ValleyLine
  6
CONTINUOUS
 62
5
 10
-143.74072736812957
 20
-80.20320197044333
 11
-164.21028321242247
 21
-90.08107553366172
  0
LINE
  8
ValleyLine
  6
CONTINUOUS
 62
5
 10
-164.21028321242247
 20
-90.08107553366172
 11
-184.23218459949842
 21
-98.88136288998355
  0
LINE
  8
ValleyLine
  6
CONTINUOUS
 62
5
 10
-184.23218459949842
 20
-98.88136288998355
 11
-204.1893604372701
 21
-106.42446633825942
  0
LINE
  8
ValleyLine
  6
CONTINUOUS
 62
5
 10
-204.1893604372701
 20
-106.42446633825942
 11
-224.67931074937923
 21
-112.53078817733989
  0
LINE
  8
ValleyLine
  6
CONTINUOUS
 62
5
 10
-224.67931074937923
 20
-112.53078817733989
 11
-246.48475041116464
 21
-117.02073070607553
  0
LINE
  8
ValleyLine
  6
CONTINUOUS
 62
5
 10
-246.48475041116464
 20
-117.02073070607553
 11
-270.4954578389535
 21
-119.7146962233169
  0
LINE
  8
ValleyLine
  6
CONTINUOUS
 62
5
 10
-270.4954578389535
 20
-119.7146962233169
 11
-296.637712231492
 21
-120.35611658456486
  0
LINE
  8
ValleyLine
  6
CONTINUOUS
 62
5
 10
-296.637712231492
 20
-120.35611658456486
 11
-324.8545047399919
 21
-118.68842364532019
  0
LINE
  8
ValleyLine
  6
CONTINUOUS
 62
5
 10
-324.8545047399919
 20
-118.68842364532019
 11
-355.15770083738045
 21
-114.45504926108373
  0
LINE
  8
ValleyLine
  6
CONTINUOUS
 62
5
 10
-355.15770083738045
 20
-114.45504926108373
 11
-387.6634874618862
 21
-107.39942528735632
  0
LINE
  8
ValleyLine
  6
CONTINUOUS
 62
5
 10
-387.6634874618862
 20
-107.39942528735632
 11
-422.4072764071167
 21
-97.88074712643677
  0
LINE
  8
ValleyLine
  6
CONTINUOUS
 62
5
 10
-422.4072764071167
 20
-97.88074712643677
 11
-459.19262619590586
 21
-86.25821018062396
  0
LINE
  8
ValleyLine
  6
CONTINUOUS
 62
5
 10
-459.19262619590586
 20
-86.25821018062396
 11
-497.6738024337497
 21
-72.89100985221674
  0
LINE
  8
ValleyLine
  6
CONTINUOUS
 62
5
 10
-497.6738024337497
 20
-72.89100985221674
 11
-537.4085052568332
 21
-58.138341543513945
  0
LINE
  8
ValleyLine
  6
CONTINUOUS
 62
5
 10
-537.4085052568332
 20
-58.138341543513945
 11
-576.4793101883917
 21
-42.53899835796386
  0
LINE
  8
ValleyLine
  6
CONTINUOUS
 62
5
 10
-576.4793101883917
 20
-42.53899835796386
 11
-613.0958183470765
 21
-26.631773399014772
  0
LINE
  8
ValleyLine
  6
CONTINUOUS
 62
5
 10
-613.0958183470765
 20
-26.631773399014772
 11
-645.7354714277375
 21
-10.95545977011494
  0
LINE
  8
ValleyLine
  6
CONTINUOUS
 62
5
 10
-645.7354714277375
 20
-10.95545977011494
 11
-673.5004481291921
 21
3.951149425287358
  0
LINE
  8
ValleyLine
  6
CONTINUOUS
 62
5
 10
-673.5004481291921
 20
3.951149425287358
 11
-706.0428859781988
 21
21.179700328407222
  0
LINE
  8
ValleyLine
  6
CONTINUOUS
 62
5
 10
-706.0428859781988
 20
21.179700328407222
 11
-753.3330566492496
 21
43.82183908045977
  0
LINE
  8
ValleyLine
  6
CONTINUOUS
 62
5
 10
-753.3330566492496
 20
43.82183908045977
 11
-827.2598094974817
 21
74.9692118226601
  0
LINE
  8
ValleyLine
  6
CONTINUOUS
 62
5
 10
-827.2598094974817
 20
74.9692118226601
 11
-940.2341491551039
 21
117.71346469622331
  0
LINE
  8
ValleyLine
  6
CONTINUOUS
 62
5
 10
-940.2341491551039
 20
117.71346469622331
 11
-1082.9047805063872
 21
169.1553776683087
  0
LINE
  8
ValleyLine
  6
CONTINUOUS
 62
5
 10
-1082.9047805063872
 20
169.1553776683087
 11
-1245.4615542361564
 21
226.39573070607548
  0
LINE
  8
ValleyLine
  6
CONTINUOUS
 62
5
 10
-1245.4615542361564
 20
226.39573070607548
 11
-1374.8494876501638
 21
271.50041050903116
  0
LINE
  8
ValleyLine
  6
CONTINUOUS
 62
5
 10
-1374.8494876501638
 20
271.50041050903116
 11
-1397.9120383787204
 21
276.68308702791455
  0
LINE
  8
ValleyLine
  6
CONTINUOUS
 62
5
 10
-1397.9120383787204
 20
276.68308702791455
 11
-1419.4471402647696
 21
286.53530377668307
  0
LINE
  8
ValleyLine
  6
CONTINUOUS
 62
5
 10
-1419.4471402647696
 20
286.53530377668307
 11
-1419.4471402647696
 21
286.53530377668307
  0
LINE
  8
ValleyLine
  6
CONTINUOUS
 62
5
 10
0.0
 20
-0.0
 11
0.0
 21
-0.0
  0
LINE
  8
MountainLine
  6
CONTINUOUS
 62
1
 10
0.0
 20
-0.0
 11
0.0
 21
-0.0
  0
LINE
  8
ValleyLine
  6
CONTINUOUS
 62
5
 10
0.0
 20
-0.0
 11
0.0
 21
-0.0
  0
LINE
  8
MountainLine
  6
CONTINUOUS
 62
1
 10
0.0
 20
-0.0
 11
0.0
 21
-0.0
  0
LINE
  8
ValleyLine
  6
CONTINUOUS
 62
5
 10
-5.067074705339758
 20
-2.92487684729064
 11
-5.067074705339758
 21
-2.9254769451318534
  0
LINE
  8
MountainLine
  6
CONTINUOUS
 62
1
 10
-5.067074705339758
 20
-2.92487684729064
 11
-5.067074705339758
 21
2.9254769451318534
  0
LINE
  8
ValleyLine
  6
CONTINUOUS
 62
5
 10
-20.268298821359032
 20
-11.69950738916256
 11
-20.268298821359032
 21
-11.701907780527414
  0
LINE
  8
MountainLine
  6
CONTINUOUS
 62
1
 10
-20.268298821359032
 20
-11.69950738916256
 11
-20.268298821359032
 21
11.701907780527414
  0
LINE
  8
ValleyLine
  6
CONTINUOUS
 62
5
 10
-40.53128274668722
 20
-23.38618637110016
 11
-40.53128274668722
 21
-23.400747004400696
  0
LINE
  8
MountainLine
  6
CONTINUOUS
 62
1
 10
-40.53128274668722
 20
-23.38618637110016
 11
-40.53128274668722
 21
23.400747004400696
  0
LINE
  8
ValleyLine
  6
CONTINUOUS
 62
5
 10
-60.82267239307699
 20
-35.04720853858784
 11
-60.82267239307699
 21
-35.11598627897541
  0
LINE
  8
MountainLine
  6
CONTINUOUS
 62
1
 10
-60.82267239307699
 20
-35.04720853858784
 11
-60.82267239307699
 21
35.11598627897541
  0
LINE
  8
ValleyLine
  6
CONTINUOUS
 62
5
 10
-81.25366591871382
 20
-46.66974548440064
 11
-81.25366591871382
 21
-46.91182589081335
  0
LINE
  8
MountainLine
  6
CONTINUOUS
 62
1
 10
-81.25366591871382
 20
-46.66974548440064
 11
-81.25366591871382
 21
46.91182589081335
  0
LINE
  8
ValleyLine
  6
CONTINUOUS
 62
5
 10
-102.04770284136065
 20
-58.24096880131361
 11
-102.04770284136065
 21
-58.917268705642506
  0
LINE
  8
MountainLine
  6
CONTINUOUS
 62
1
 10
-102.04770284136065
 20
-58.24096880131361
 11
-102.04770284136065
 21
58.917268705642506
  0
LINE
  8
ValleyLine
  6
CONTINUOUS
 62
5
 10
-122.95465364892615
 20
-69.50431034482757
 11
-122.95465364892615
 21
-70.9879023823247
  0
LINE
  8
MountainLine
  6
CONTINUOUS
 62
1
 10
-122.95465364892615
 20
-69.50431034482757
 11
-122.95465364892615
 21
70.9879023823247
  0
LINE
  8
ValleyLine
  6
CONTINUOUS
 62
5
 10
-143.74072736812957
 20
-80.20320197044333
 11
-143.74072736812957
 21
-82.98874763950222
  0
LINE
  8
MountainLine
  6
CONTINUOUS
 62
1
 10
-143.74072736812957
 20
-80.20320197044333
 11
-143.74072736812957
 21
82.98874763950222
  0
LINE
  8
ValleyLine
  6
CONTINUOUS
 62
5
 10
-164.21028321242247
 20
-90.08107553366172
 11
-164.21028321242247
 21
-94.80685121639678
  0
LINE
  8
MountainLine
  6
CONTINUOUS
 62
1
 10
-164.21028321242247
 20
-90.08107553366172
 11
-164.21028321242247
 21
94.80685121639678
  0
LINE
  8
ValleyLine
  6
CONTINUOUS
 62
5
 10
-184.23218459949842
 20
-98.88136288998355
 11
-184.23218459949842
 21
-106.36650137191323
  0
LINE
  8
MountainLine
  6
CONTINUOUS
 62
1
 10
-184.23218459949842
 20
-98.88136288998355
 11
-184.23218459949842
 21
106.36650137191323
  0
LINE
  8
ValleyLine
  6
CONTINUOUS
 62
5
 10
-204.1893604372701
 20
-106.42446633825942
 11
-204.1893604372701
 21
-117.88878221411541
  0
LINE
  8
MountainLine
  6
CONTINUOUS
 62
1
 10
-204.1893604372701
 20
-106.42446633825942
 11
-204.1893604372701
 21
117.88878221411541
  0
LINE
  8
ValleyLine
  6
CONTINUOUS
 62
5
 10
-224.67931074937923
 20
-112.53078817733989
 11
-224.67931074937923
 21
-129.71866054249367
  0
LINE
  8
MountainLine
  6
CONTINUOUS
 62
1
 10
-224.67931074937923
 20
-112.53078817733989
 11
-224.67931074937923
 21
129.71866054249367
  0
LINE
  8
ValleyLine
  6
CONTINUOUS
 62
5
 10
-246.48475041116464
 20
-117.02073070607553
 11
-246.48475041116464
 21
-142.30803700102362
  0
LINE
  8
MountainLine
  6
CONTINUOUS
 62
1
 10
-246.48475041116464
 20
-117.02073070607553
 11
-246.48475041116464
 21
142.30803700102362
  0
LINE
  8
ValleyLine
  6
CONTINUOUS
 62
5
 10
-270.4954578389535
 20
-119.7146962233169
 11
-270.4954578389535
 21
-156.17062539789086
  0
LINE
  8
MountainLine
  6
CONTINUOUS
 62
1
 10
-270.4954578389535
 20
-119.7146962233169
 11
-270.4954578389535
 21
156.17062539789086
  0
LINE
  8
ValleyLine
  6
CONTINUOUS
 62
5
 10
-296.637712231492
 20
-120.35611658456486
 11
-296.637712231492
 21
-171.2638630086466
  0
LINE
  8
MountainLine
  6
CONTINUOUS
 62
1
 10
-296.637712231492
 20
-120.35611658456486
 11
-296.637712231492
 21
171.2638630086466
  0
LINE
  8
ValleyLine
  6
CONTINUOUS
 62
5
 10
-324.8545047399919
 20
-118.68842364532019
 11
-324.8545047399919
 21
-187.55483575909687
  0
LINE
  8
MountainLine
  6
CONTINUOUS
 62
1
 10
-324.8545047399919
 20
-118.68842364532019
 11
-324.8545047399919
 21
187.55483575909687
  0
LINE
  8
ValleyLine
  6
CONTINUOUS
 62
5
 10
-355.15770083738045
 20
-114.45504926108373
 11
-355.15770083738045
 21
-205.05039418323014
  0
LINE
  8
MountainLine
  6
CONTINUOUS
 62
1
 10
-355.15770083738045
 20
-114.45504926108373
 11
-355.15770083738045
 21
205.05039418323014
  0
LINE
  8
ValleyLine
  6
CONTINUOUS
 62
5
 10
-387.6634874618862
 20
-107.39942528735632
 11
-387.6634874618862
 21
-223.81761884110907
  0
LINE
  8
MountainLine
  6
CONTINUOUS
 62
1
 10
-387.6634874618862
 20
-107.39942528735632
 11
-387.6634874618862
 21
223.81761884110907
  0
LINE
  8
ValleyLine
  6
CONTINUOUS
 62
5
 10
-422.4072764071167
 20
-97.88074712643677
 11
-422.4072764071167
 21
-243.87695474130544
  0
LINE
  8
MountainLine
  6
CONTINUOUS
 62
1
 10
-422.4072764071167
 20
-97.88074712643677
 11
-422.4072764071167
 21
243.87695474130544
  0
LINE
  8
ValleyLine
  6
CONTINUOUS
 62
5
 10
-459.19262619590586
 20
-86.25821018062396
 11
-459.19262619590586
 21
-265.1149863440974
  0
LINE
  8
MountainLine
  6
CONTINUOUS
 62
1
 10
-459.19262619590586
 20
-86.25821018062396
 11
-459.19262619590586
 21
265.1149863440974
  0
LINE
  8
ValleyLine
  6
CONTINUOUS
 62
5
 10
-497.6738024337497
 20
-72.89100985221674
 11
-497.6738024337497
 21
-287.33210380375004
  0
LINE
  8
MountainLine
  6
CONTINUOUS
 62
1
 10
-497.6738024337497
 20
-72.89100985221674
 11
-497.6738024337497
 21
287.33210380375004
  0
LINE
  8
ValleyLine
  6
CONTINUOUS
 62
5
 10
-537.4085052568332
 20
-58.138341543513945
 11
-537.4085052568332
 21
-310.27294517482704
  0
LINE
  8
MountainLine
  6
CONTINUOUS
 62
1
 10
-537.4085052568332
 20
-58.138341543513945
 11
-537.4085052568332
 21
310.27294517482704
  0
LINE
  8
ValleyLine
  6
CONTINUOUS
 62
5
 10
-576.4793101883917
 20
-42.53899835796386
 11
-576.4793101883917
 21
-332.8304849195177
  0
LINE
  8
MountainLine
  6
CONTINUOUS
 62
1
 10
-576.4793101883917
 20
-42.53899835796386
 11
-576.4793101883917
 21
332.8304849195177
  0
LINE
  8
ValleyLine
  6
CONTINUOUS
 62
5
 10
-613.0958183470765
 20
-26.631773399014772
 11
-613.0958183470765
 21
-353.9710357617185
  0
LINE
  8
MountainLine
  6
CONTINUOUS
 62
1
 10
-613.0958183470765
 20
-26.631773399014772
 11
-613.0958183470765
 21
353.9710357617185
  0
LINE
  8
ValleyLine
  6
CONTINUOUS
 62
5
 10
-645.7354714277375
 20
-10.95545977011494
 11
-645.7354714277375
 21
-372.81554825409404
  0
LINE
  8
MountainLine
  6
CONTINUOUS
 62
1
 10
-645.7354714277375
 20
-10.95545977011494
 11
-645.7354714277375
 21
372.81554825409404
  0
LINE
  8
MountainLine
  6
CONTINUOUS
 62
1
 10
-673.5004481291921
 20
3.951149425287358
 11
-673.5004481291921
 21
-388.84566502672266
  0
LINE
  8
ValleyLine
  6
CONTINUOUS
 62
5
 10
-673.5004481291921
 20
3.951149425287358
 11
-673.5004481291921
 21
388.84566502672266
  0
LINE
  8
MountainLine
  6
CONTINUOUS
 62
1
 10
-706.0428859781988
 20
21.179700328407222
 11
-706.0428859781988
 21
-407.6340502789333
  0
LINE
  8
ValleyLine
  6
CONTINUOUS
 62
5
 10
-706.0428859781988
 20
21.179700328407222
 11
-706.0428859781988
 21
407.6340502789333
  0
LINE
  8
MountainLine
  6
CONTINUOUS
 62
1
 10
-753.3330566492496
 20
43.82183908045977
 11
-753.3330566492496
 21
-434.9370430458878
  0
LINE
  8
ValleyLine
  6
CONTINUOUS
 62
5
 10
-753.3330566492496
 20
43.82183908045977
 11
-753.3330566492496
 21
434.9370430458878
  0
LINE
  8
MountainLine
  6
CONTINUOUS
 62
1
 10
-827.2598094974817
 20
74.9692118226601
 11
-827.2598094974817
 21
-477.6186737031295
  0
LINE
  8
ValleyLine
  6
CONTINUOUS
 62
5
 10
-827.2598094974817
 20
74.9692118226601
 11
-827.2598094974817
 21
477.6186737031295
  0
LINE
  8
MountainLine
  6
CONTINUOUS
 62
1
 10
-940.2341491551039
 20
117.71346469622331
 11
-940.2341491551039
 21
-542.8444391159779
  0
LINE
  8
ValleyLine
  6
CONTINUOUS
 62
5
 10
-940.2341491551039
 20
117.71346469622331
 11
-940.2341491551039
 21
542.8444391159779
  0
LINE
  8
MountainLine
  6
CONTINUOUS
 62
1
 10
-1082.9047805063872
 20
169.1553776683087
 11
-1082.9047805063872
 21
-625.2153665320951
  0
LINE
  8
ValleyLine
  6
CONTINUOUS
 62
5
 10
-1082.9047805063872
 20
169.1553776683087
 11
-1082.9047805063872
 21
625.2153665320951
  0
LINE
  8
MountainLine
  6
CONTINUOUS
 62
1
 10
-1245.4615542361564
 20
226.39573070607548
 11
-1245.4615542361564
 21
-719.0675636035746
  0
LINE
  8
ValleyLine
  6
CONTINUOUS
 62
5
 10
-1245.4615542361564
 20
226.39573070607548
 11
-1245.4615542361564
 21
719.0675636035746
  0
LINE
  8
MountainLine
  6
CONTINUOUS
 62
1
 10
-1374.8494876501638
 20
271.50041050903116
 11
-1374.8494876501638
 21
-793.7697217900411
  0
LINE
  8
ValleyLine
  6
CONTINUOUS
 62
5
 10
-1374.8494876501638
 20
271.50041050903116
 11
-1374.8494876501638
 21
793.7697217900411
  0
LINE
  8
ValleyLine
  6
CONTINUOUS
 62
5
 10
-1397.9120383787204
 20
276.68308702791455
 11
-1397.9120383787204
 21
-807.0848916613726
  0
LINE
  8
MountainLine
  6
CONTINUOUS
 62
1
 10
-1397.9120383787204
 20
276.68308702791455
 11
-1397.9120383787204
 21
807.0848916613726
  0
LINE
  8
ValleyLine
  6
CONTINUOUS
 62
5
 10
-1419.4471402647696
 20
286.53530377668307
 11
-1419.4471402647696
 21
-819.5181885323092
  0
LINE
  8
MountainLine
  6
CONTINUOUS
 62
1
 10
-1419.4471402647696
 20
286.53530377668307
 11
-1419.4471402647696
 21
819.5181885323092
  0
LINE
  8
ValleyLine
  6
CONTINUOUS
 62
5
 10
0.0
 20
-0.0
 11
0.0
 21
-0.0
  0
LINE
  8
ValleyLine
  6
CONTINUOUS
 62
5
 10
0.0
 20
-0.0
 11
-5.196999752475802E-4
 21
-5.8506538413430995
  0
LINE
  8
ValleyLine
  6
CONTINUOUS
 62
5
 10
-5.196999752475802E-4
 20
-5.8506538413430995
 11
-0.0020787999009903206
 21
-23.402615365372398
  0
LINE
  8
ValleyLine
  6
CONTINUOUS
 62
5
 10
-0.0020787999009903206
 20
-23.402615365372398
 11
-0.012609878333465663
 21
-46.79421369215113
  0
LINE
  8
ValleyLine
  6
CONTINUOUS
 62
5
 10
-0.012609878333465663
 20
-46.79421369215113
 11
-0.05956327039054413
 21
-70.19758368775705
  0
LINE
  8
ValleyLine
  6
CONTINUOUS
 62
5
 10
-0.05956327039054413
 20
-70.19758368775705
 11
-0.20964778171186602
 21
-93.70261157842033
  0
LINE
  8
ValleyLine
  6
CONTINUOUS
 62
5
 10
-0.20964778171186602
 20
-93.70261157842033
 11
-0.5856928977258239
 21
-117.49638745912056
  0
LINE
  8
ValleyLine
  6
CONTINUOUS
 62
5
 10
-0.5856928977258239
 20
-117.49638745912056
 11
-1.2848283933248632
 21
-141.23400874590087
  0
LINE
  8
ValleyLine
  6
CONTINUOUS
 62
5
 10
-1.2848283933248632
 20
-141.23400874590087
 11
-2.4123533128067374
 21
-164.58472244447498
  0
LINE
  8
ValleyLine
  6
CONTINUOUS
 62
5
 10
-2.4123533128067374
 20
-164.58472244447498
 11
-4.092641793835348
 21
-187.25081459142606
  0
LINE
  8
ValleyLine
  6
CONTINUOUS
 62
5
 10
-4.092641793835348
 20
-187.25081459142606
 11
-6.482320076195611
 21
-208.99043350286166
  0
LINE
  8
ValleyLine
  6
CONTINUOUS
 62
5
 10
-6.482320076195611
 20
-208.99043350286166
 11
-9.92838878550056
 21
-230.04540649030287
  0
LINE
  8
ValleyLine
  6
CONTINUOUS
 62
5
 10
-9.92838878550056
 20
-230.04540649030287
 11
-14.885134105227726
 21
-250.84338490241046
  0
LINE
  8
ValleyLine
  6
CONTINUOUS
 62
5
 10
-14.885134105227726
 20
-250.84338490241046
 11
-21.899449644703246
 21
-271.97242085457316
  0
LINE
  8
ValleyLine
  6
CONTINUOUS
 62
5
 10
-21.899449644703246
 20
-271.97242085457316
 11
-31.57176078374734
 21
-294.11328620849474
  0
LINE
  8
ValleyLine
  6
CONTINUOUS
 62
5
 10
-31.57176078374734
 20
-294.11328620849474
 11
-44.08740165267128
 21
-317.0738528052524
  0
LINE
  8
ValleyLine
  6
CONTINUOUS
 62
5
 10
-44.08740165267128
 20
-317.0738528052524
 11
-59.640062358019065
 21
-340.6764654613054
  0
LINE
  8
ValleyLine
  6
CONTINUOUS
 62
5
 10
-59.640062358019065
 20
-340.6764654613054
 11
-78.4578701671924
 21
-364.80311590538713
  0
LINE
  8
ValleyLine
  6
CONTINUOUS
 62
5
 10
-78.4578701671924
 20
-364.80311590538713
 11
-100.82111308024372
 21
-389.4261409053418
  0
LINE
  8
ValleyLine
  6
CONTINUOUS
 62
5
 10
-100.82111308024372
 20
-389.4261409053418
 11
-126.43642465066343
 21
-414.75580567517653
  0
LINE
  8
ValleyLine
  6
CONTINUOUS
 62
5
 10
-126.43642465066343
 20
-414.75580567517653
 11
-154.89451179655512
 21
-440.8015846064581
  0
LINE
  8
ValleyLine
  6
CONTINUOUS
 62
5
 10
-154.89451179655512
 20
-440.8015846064581
 11
-185.71143497735343
 21
-467.4436606317334
  0
LINE
  8
ValleyLine
  6
CONTINUOUS
 62
5
 10
-185.71143497735343
 20
-467.4436606317334
 11
-218.3549719178374
 21
-494.47858853399754
  0
LINE
  8
ValleyLine
  6
CONTINUOUS
 62
5
 10
-218.3549719178374
 20
-494.47858853399754
 11
-251.39980186465468
 21
-520.5152265582584
  0
LINE
  8
ValleyLine
  6
CONTINUOUS
 62
5
 10
-251.39980186465468
 20
-520.5152265582584
 11
-283.4841168621609
 21
-544.2724403420851
  0
LINE
  8
ValleyLine
  6
CONTINUOUS
 62
5
 10
-283.4841168621609
 20
-544.2724403420851
 11
-313.3800292428108
 21
-564.7010522661986
  0
LINE
  8
ValleyLine
  6
CONTINUOUS
 62
5
 10
-313.3800292428108
 20
-564.7010522661986
 11
-340.17201984104327
 21
-581.2929228274403
  0
LINE
  8
ValleyLine
  6
CONTINUOUS
 62
5
 10
-340.17201984104327
 20
-581.2929228274403
 11
-371.3636015180417
 21
-600.8612252541963
  0
LINE
  8
ValleyLine
  6
CONTINUOUS
 62
5
 10
-371.3636015180417
 20
-600.8612252541963
 11
-414.6173542088567
 21
-630.4946450286018
  0
LINE
  8
ValleyLine
  6
CONTINUOUS
 62
5
 10
-414.6173542088567
 20
-630.4946450286018
 11
-478.55514668886127
 21
-678.9434046433643
  0
LINE
  8
ValleyLine
  6
CONTINUOUS
 62
5
 10
-478.55514668886127
 20
-678.9434046433643
 11
-572.059925371964
 21
-755.4099263258553
  0
LINE
  8
ValleyLine
  6
CONTINUOUS
 62
5
 10
-572.059925371964
 20
-755.4099263258553
 11
-687.9452445006999
 21
-853.2453609639884
  0
LINE
  8
ValleyLine
  6
CONTINUOUS
 62
5
 10
-687.9452445006999
 20
-853.2453609639884
 11
-818.7952312178804
 21
-965.4034800523242
  0
LINE
  8
ValleyLine
  6
CONTINUOUS
 62
5
 10
-818.7952312178804
 20
-965.4034800523242
 11
-922.5509964638067
 21
-1054.9043774305462
  0
LINE
  8
ValleyLine
  6
CONTINUOUS
 62
5
 10
-922.5509964638067
 20
-1054.9043774305462
 11
-938.570601353035
 21
-1072.2857939781015
  0
LINE
  8
ValleyLine
  6
CONTINUOUS
 62
5
 10
-938.570601353035
 20
-1072.2857939781015
 11
-957.8704222840836
 21
-1086.009630910122
  0
LINE
  8
ValleyLine
  6
CONTINUOUS
 62
5
 10
-957.8704222840836
 20
-1086.009630910122
 11
-957.8704222840836
 21
-1086.009630910122
  0
LINE
  8
ValleyLine
  6
CONTINUOUS
 62
5
 10
0.0
 20
-0.0
 11
0.0
 21
-0.0
  0
LINE
  8
MountainLine
  6
CONTINUOUS
 62
1
 10
0.0
 20
-0.0
 11
0.0
 21
-0.0
  0
LINE
  8
ValleyLine
  6
CONTINUOUS
 62
5
 10
0.0
 20
-0.0
 11
0.0
 21
-0.0
  0
LINE
  8
MountainLine
  6
CONTINUOUS
 62
1
 10
0.0
 20
-0.0
 11
0.0
 21
-0.0
  0
LINE
  8
ValleyLine
  6
CONTINUOUS
 62
5
 10
-5.196999752475802E-4
 20
-5.8506538413430995
 11
-5.46907893904018E-16
 21
-5.850953890263707
  0
LINE
  8
MountainLine
  6
CONTINUOUS
 62
1
 10
-5.196999752475802E-4
 20
-5.8506538413430995
 11
-5.067074705339758
 21
-2.9254769451318525
  0
LINE
  8
ValleyLine
  6
CONTINUOUS
 62
5
 10
-0.0020787999009903206
 20
-23.402615365372398
 11
-2.187631575616072E-15
 21
-23.403815561054827
  0
LINE
  8
MountainLine
  6
CONTINUOUS
 62
1
 10
-0.0020787999009903206
 20
-23.402615365372398
 11
-20.268298821359032
 21
-11.70190778052741
  0
LINE
  8
ValleyLine
  6
CONTINUOUS
 62
5
 10
-0.012609878333465663
 20
-46.79421369215113
 11
-8.750526302464288E-15
 21
-46.801494008801406
  0
LINE
  8
MountainLine
  6
CONTINUOUS
 62
1
 10
-0.012609878333465663
 20
-46.79421369215113
 11
-40.53128274668722
 21
-23.400747004400696
  0
LINE
  8
ValleyLine
  6
CONTINUOUS
 62
5
 10
-0.05956327039054413
 20
-70.19758368775705
 11
-1.3125789453696433E-14
 21
-70.23197255795083
  0
LINE
  8
MountainLine
  6
CONTINUOUS
 62
1
 10
-0.05956327039054413
 20
-70.19758368775705
 11
-60.822672393077
 21
-35.11598627897541
  0
LINE
  8
ValleyLine
  6
CONTINUOUS
 62
5
 10
-0.20964778171186602
 20
-93.70261157842033
 11
-8.750526302464288E-15
 21
-93.8236517816267
  0
LINE
  8
MountainLine
  6
CONTINUOUS
 62
1
 10
-0.20964778171186602
 20
-93.70261157842033
 11
-81.25366591871384
 21
-46.91182589081335
  0
LINE
  8
ValleyLine
  6
CONTINUOUS
 62
5
 10
-0.5856928977258239
 20
-117.49638745912056
 11
-1.7501052604928577E-14
 21
-117.83453741128501
  0
LINE
  8
MountainLine
  6
CONTINUOUS
 62
1
 10
-0.5856928977258239
 20
-117.49638745912056
 11
-102.04770284136065
 21
-58.91726870564249
  0
LINE
  8
ValleyLine
  6
CONTINUOUS
 62
5
 10
-1.2848283933248632
 20
-141.23400874590087
 11
-2.6251578907392865E-14
 21
-141.97580476464944
  0
LINE
  8
MountainLine
  6
CONTINUOUS
 62
1
 10
-1.2848283933248632
 20
-141.23400874590087
 11
-122.95465364892617
 21
-70.9879023823247
  0
LINE
  8
ValleyLine
  6
CONTINUOUS
 62
5
 10
-2.4123533128067374
 20
-164.58472244447498
 11
-2.6251578907392865E-14
 21
-165.97749527900444
  0
LINE
  8
MountainLine
  6
CONTINUOUS
 62
1
 10
-2.4123533128067374
 20
-164.58472244447498
 11
-143.74072736812957
 21
-82.98874763950221
  0
LINE
  8
ValleyLine
  6
CONTINUOUS
 62
5
 10
-4.092641793835348
 20
-187.25081459142606
 11
-3.5002105209857153E-14
 21
-189.6137024327936
  0
LINE
  8
MountainLine
  6
CONTINUOUS
 62
1
 10
-4.092641793835348
 20
-187.25081459142606
 11
-164.21028321242247
 21
-94.80685121639678
  0
LINE
  8
ValleyLine
  6
CONTINUOUS
 62
5
 10
-6.482320076195611
 20
-208.99043350286166
 11
-3.5002105209857153E-14
 21
-212.73300274382646
  0
LINE
  8
MountainLine
  6
CONTINUOUS
 62
1
 10
-6.482320076195611
 20
-208.99043350286166
 11
-184.23218459949842
 21
-106.36650137191322
  0
LINE
  8
ValleyLine
  6
CONTINUOUS
 62
5
 10
-9.92838878550056
 20
-230.04540649030287
 11
-3.5002105209857153E-14
 21
-235.77756442823085
  0
LINE
  8
MountainLine
  6
CONTINUOUS
 62
1
 10
-9.92838878550056
 20
-230.04540649030287
 11
-204.1893604372701
 21
-117.88878221411542
  0
LINE
  8
ValleyLine
  6
CONTINUOUS
 62
5
 10
-14.885134105227726
 20
-250.84338490241046
 11
-3.5002105209857153E-14
 21
-259.43732108498733
  0
LINE
  8
MountainLine
  6
CONTINUOUS
 62
1
 10
-14.885134105227726
 20
-250.84338490241046
 11
-224.67931074937923
 21
-129.71866054249367
  0
LINE
  8
ValleyLine
  6
CONTINUOUS
 62
5
 10
-21.899449644703246
 20
-271.97242085457316
 11
-5.250315781478573E-14
 21
-284.61607400204724
  0
LINE
  8
MountainLine
  6
CONTINUOUS
 62
1
 10
-21.899449644703246
 20
-271.97242085457316
 11
-246.48475041116464
 21
-142.3080370010236
  0
LINE
  8
ValleyLine
  6
CONTINUOUS
 62
5
 10
-31.57176078374734
 20
-294.11328620849474
 11
-5.250315781478573E-14
 21
-312.3412507957817
  0
LINE
  8
MountainLine
  6
CONTINUOUS
 62
1
 10
-31.57176078374734
 20
-294.11328620849474
 11
-270.4954578389535
 21
-156.17062539789083
  0
LINE
  8
ValleyLine
  6
CONTINUOUS
 62
5
 10
-44.08740165267128
 20
-317.0738528052524
 11
-7.000421041971431E-14
 21
-342.5277260172933
  0
LINE
  8
MountainLine
  6
CONTINUOUS
 62
1
 10
-44.08740165267128
 20
-317.0738528052524
 11
-296.637712231492
 21
-171.2638630086466
  0
LINE
  8
ValleyLine
  6
CONTINUOUS
 62
5
 10
-59.640062358019065
 20
-340.6764654613054
 11
-7.000421041971431E-14
 21
-375.10967151819375
  0
LINE
  8
MountainLine
  6
CONTINUOUS
 62
1
 10
-59.640062358019065
 20
-340.6764654613054
 11
-324.8545047399919
 21
-187.55483575909687
  0
LINE
  8
ValleyLine
  6
CONTINUOUS
 62
5
 10
-78.4578701671924
 20
-364.80311590538713
 11
-7.000421041971431E-14
 21
-410.1007883664604
  0
LINE
  8
MountainLine
  6
CONTINUOUS
 62
1
 10
-78.4578701671924
 20
-364.80311590538713
 11
-355.15770083738045
 21
-205.05039418323014
  0
LINE
  8
ValleyLine
  6
CONTINUOUS
 62
5
 10
-100.82111308024372
 20
-389.4261409053418
 11
-7.000421041971431E-14
 21
-447.6352376822182
  0
LINE
  8
MountainLine
  6
CONTINUOUS
 62
1
 10
-100.82111308024372
 20
-389.4261409053418
 11
-387.6634874618862
 21
-223.81761884110907
  0
LINE
  8
ValleyLine
  6
CONTINUOUS
 62
5
 10
-126.43642465066343
 20
-414.75580567517653
 11
-7.000421041971431E-14
 21
-487.75390948261094
  0
LINE
  8
MountainLine
  6
CONTINUOUS
 62
1
 10
-126.43642465066343
 20
-414.75580567517653
 11
-422.4072764071167
 21
-243.87695474130538
  0
LINE
  8
ValleyLine
  6
CONTINUOUS
 62
5
 10
-154.89451179655512
 20
-440.8015846064581
 11
-7.000421041971431E-14
 21
-530.229972688195
  0
LINE
  8
MountainLine
  6
CONTINUOUS
 62
1
 10
-154.89451179655512
 20
-440.8015846064581
 11
-459.19262619590586
 21
-265.1149863440974
  0
LINE
  8
ValleyLine
  6
CONTINUOUS
 62
5
 10
-185.71143497735343
 20
-467.4436606317334
 11
-1.0500631562957146E-13
 21
-574.6642076075001
  0
LINE
  8
MountainLine
  6
CONTINUOUS
 62
1
 10
-185.71143497735343
 20
-467.4436606317334
 11
-497.67380243374976
 21
-287.33210380375
  0
LINE
  8
ValleyLine
  6
CONTINUOUS
 62
5
 10
-218.3549719178374
 20
-494.47858853399754
 11
-1.0500631562957146E-13
 21
-620.5458903496541
  0
LINE
  8
MountainLine
  6
CONTINUOUS
 62
1
 10
-218.3549719178374
 20
-494.47858853399754
 11
-537.4085052568332
 21
-310.272945174827
  0
LINE
  8
ValleyLine
  6
CONTINUOUS
 62
5
 10
-251.39980186465468
 20
-520.5152265582584
 11
-1.0500631562957146E-13
 21
-665.6609698390355
  0
LINE
  8
MountainLine
  6
CONTINUOUS
 62
1
 10
-251.39980186465468
 20
-520.5152265582584
 11
-576.4793101883917
 21
-332.8304849195177
  0
LINE
  8
ValleyLine
  6
CONTINUOUS
 62
5
 10
-283.4841168621609
 20
-544.2724403420851
 11
-1.0500631562957146E-13
 21
-707.942071523437
  0
LINE
  8
MountainLine
  6
CONTINUOUS
 62
1
 10
-283.4841168621609
 20
-544.2724403420851
 11
-613.0958183470765
 21
-353.9710357617185
  0
LINE
  8
ValleyLine
  6
CONTINUOUS
 62
5
 10
-313.3800292428108
 20
-564.7010522661986
 11
-1.4000842083942861E-13
 21
-745.6310965081882
  0
LINE
  8
MountainLine
  6
CONTINUOUS
 62
1
 10
-313.3800292428108
 20
-564.7010522661986
 11
-645.7354714277375
 21
-372.81554825409404
  0
LINE
  8
MountainLine
  6
CONTINUOUS
 62
1
 10
-340.17201984104327
 20
-581.2929228274403
 11
-1.4000842083942861E-13
 21
-777.6913300534453
  0
LINE
  8
ValleyLine
  6
CONTINUOUS
 62
5
 10
-340.17201984104327
 20
-581.2929228274403
 11
-673.5004481291921
 21
-388.84566502672266
  0
LINE
  8
MountainLine
  6
CONTINUOUS
 62
1
 10
-371.3636015180417
 20
-600.8612252541963
 11
-7.000421041971431E-14
 21
-815.2681005578665
  0
LINE
  8
ValleyLine
  6
CONTINUOUS
 62
5
 10
-371.3636015180417
 20
-600.8612252541963
 11
-706.0428859781989
 21
-407.63405027893316
  0
LINE
  8
MountainLine
  6
CONTINUOUS
 62
1
 10
-414.6173542088567
 20
-630.4946450286018
 11
-1.4000842083942861E-13
 21
-869.8740860917757
  0
LINE
  8
ValleyLine
  6
CONTINUOUS
 62
5
 10
-414.6173542088567
 20
-630.4946450286018
 11
-753.3330566492496
 21
-434.93704304588783
  0
LINE
  8
MountainLine
  6
CONTINUOUS
 62
1
 10
-478.55514668886127
 20
-678.9434046433643
 11
-1.4000842083942861E-13
 21
-955.2373474062591
  0
LINE
  8
ValleyLine
  6
CONTINUOUS
 62
5
 10
-478.55514668886127
 20
-678.9434046433643
 11
-827.2598094974817
 21
-477.61867370312956
  0
LINE
  8
MountainLine
  6
CONTINUOUS
 62
1
 10
-572.059925371964
 20
-755.4099263258553
 11
-1.4000842083942861E-13
 21
-1085.6888782319559
  0
LINE
  8
ValleyLine
  6
CONTINUOUS
 62
5
 10
-572.059925371964
 20
-755.4099263258553
 11
-940.2341491551039
 21
-542.8444391159778
  0
LINE
  8
MountainLine
  6
CONTINUOUS
 62
1
 10
-687.9452445006999
 20
-853.2453609639884
 11
-2.1001263125914292E-13
 21
-1250.4307330641905
  0
LINE
  8
ValleyLine
  6
CONTINUOUS
 62
5
 10
-687.9452445006999
 20
-853.2453609639884
 11
-1082.9047805063874
 21
-625.2153665320952
  0
LINE
  8
MountainLine
  6
CONTINUOUS
 62
1
 10
-818.7952312178804
 20
-965.4034800523242
 11
-2.1001263125914292E-13
 21
-1438.1351272071493
  0
LINE
  8
ValleyLine
  6
CONTINUOUS
 62
5
 10
-818.7952312178804
 20
-965.4034800523242
 11
-1245.4615542361566
 21
-719.0675636035746
  0
LINE
  8
MountainLine
  6
CONTINUOUS
 62
1
 10
-922.5509964638067
 20
-1054.9043774305462
 11
-2.8001684167885723E-13
 21
-1587.5394435800824
  0
LINE
  8
ValleyLine
  6
CONTINUOUS
 62
5
 10
-922.5509964638067
 20
-1054.9043774305462
 11
-1374.8494876501638
 21
-793.7697217900411
  0
LINE
  8
ValleyLine
  6
CONTINUOUS
 62
5
 10
-938.570601353035
 20
-1072.2857939781015
 11
-2.8001684167885723E-13
 21
-1614.1697833227452
  0
LINE
  8
MountainLine
  6
CONTINUOUS
 62
1
 10
-938.570601353035
 20
-1072.2857939781015
 11
-1397.9120383787204
 21
-807.0848916613726
  0
LINE
  8
ValleyLine
  6
CONTINUOUS
 62
5
 10
-957.8704222840836
 20
-1086.009630910122
 11
-1.4000842083942861E-13
 21
-1639.0363770646184
  0
LINE
  8
MountainLine
  6
CONTINUOUS
 62
1
 10
-957.8704222840836
 20
-1086.009630910122
 11
-1419.4471402647696
 21
-819.5181885323091
  0
LINE
  8
ValleyLine
  6
CONTINUOUS
 62
5
 10
0.0
 20
-0.0
 11
0.0
 21
-0.0
  0
LINE
  8
ValleyLine
  6
CONTINUOUS
 62
5
 10
0.0
 20
-0.0
 11
5.066555005364512
 21
-2.925776994052461
  0
LINE
  8
ValleyLine
  6
CONTINUOUS
 62
5
 10
5.066555005364512
 20
-2.925776994052461
 11
20.266220021458047
 21
-11.703107976209845
  0
LINE
  8
ValleyLine
  6
CONTINUOUS
 62
5
 10
20.266220021458047
 20
-11.703107976209845
 11
40.518672868353754
 21
-23.408027321050977
  0
LINE
  8
ValleyLine
  6
CONTINUOUS
 62
5
 10
40.518672868353754
 20
-23.408027321050977
 11
60.76310912268645
 21
-35.15037514916922
  0
LINE
  8
ValleyLine
  6
CONTINUOUS
 62
5
 10
60.76310912268645
 20
-35.15037514916922
 11
81.04401813700193
 21
-47.03286609401972
  0
LINE
  8
ValleyLine
  6
CONTINUOUS
 62
5
 10
81.04401813700193
 20
-47.03286609401972
 11
101.46200994363481
 21
-59.25541865780698
  0
LINE
  8
ValleyLine
  6
CONTINUOUS
 62
5
 10
101.46200994363481
 20
-59.25541865780698
 11
121.66982525560128
 21
-71.72969840107332
  0
LINE
  8
ValleyLine
  6
CONTINUOUS
 62
5
 10
121.66982525560128
 20
-71.72969840107332
 11
141.32837405532283
 21
-84.38152047403169
  0
LINE
  8
ValleyLine
  6
CONTINUOUS
 62
5
 10
141.32837405532283
 20
-84.38152047403169
 11
160.1176414185871
 21
-97.16973905776436
  0
LINE
  8
ValleyLine
  6
CONTINUOUS
 62
5
 10
160.1176414185871
 20
-97.16973905776436
 11
177.74986452330282
 21
-110.10907061287813
  0
LINE
  8
ValleyLine
  6
CONTINUOUS
 62
5
 10
177.74986452330282
 20
-110.10907061287813
 11
194.26097165176952
 21
-123.62094015204345
  0
LINE
  8
ValleyLine
  6
CONTINUOUS
 62
5
 10
194.26097165176952
 20
-123.62094015204345
 11
209.79417664415146
 21
-138.3125967250706
  0
LINE
  8
ValleyLine
  6
CONTINUOUS
 62
5
 10
209.79417664415146
 20
-138.3125967250706
 11
224.5853007664614
 21
-154.9516901484977
  0
LINE
  8
ValleyLine
  6
CONTINUOUS
 62
5
 10
224.5853007664614
 20
-154.9516901484977
 11
238.92369705520613
 21
-174.39858998517786
  0
LINE
  8
ValleyLine
  6
CONTINUOUS
 62
5
 10
238.92369705520613
 20
-174.39858998517786
 11
252.55031057882067
 21
-196.71773622068758
  0
LINE
  8
ValleyLine
  6
CONTINUOUS
 62
5
 10
252.55031057882067
 20
-196.71773622068758
 11
265.2144423819728
 21
-221.98804181598527
  0
LINE
  8
ValleyLine
  6
CONTINUOUS
 62
5
 10
265.2144423819728
 20
-221.98804181598527
 11
276.699830670188
 21
-250.34806664430343
  0
LINE
  8
ValleyLine
  6
CONTINUOUS
 62
5
 10
276.699830670188
 20
-250.34806664430343
 11
286.84237438164246
 21
-282.02671561798553
  0
LINE
  8
ValleyLine
  6
CONTINUOUS
 62
5
 10
286.84237438164246
 20
-282.02671561798553
 11
295.97085175645316
 21
-316.87505854873984
  0
LINE
  8
ValleyLine
  6
CONTINUOUS
 62
5
 10
295.97085175645316
 20
-316.87505854873984
 11
304.29811439935065
 21
-354.5433744258342
  0
LINE
  8
ValleyLine
  6
CONTINUOUS
 62
5
 10
304.29811439935065
 20
-354.5433744258342
 11
311.9623674563963
 21
-394.5526507795167
  0
LINE
  8
ValleyLine
  6
CONTINUOUS
 62
5
 10
311.9623674563963
 20
-394.5526507795167
 11
319.0535333389958
 21
-436.3402469904837
  0
LINE
  8
ValleyLine
  6
CONTINUOUS
 62
5
 10
319.0535333389958
 20
-436.3402469904837
 11
325.07950832373695
 21
-477.97622820029466
  0
LINE
  8
ValleyLine
  6
CONTINUOUS
 62
5
 10
325.07950832373695
 20
-477.97622820029466
 11
329.61170148491556
 21
-517.6406669430704
  0
LINE
  8
ValleyLine
  6
CONTINUOUS
 62
5
 10
329.61170148491556
 20
-517.6406669430704
 11
332.3554421849265
 21
-553.7455924960838
  0
LINE
  8
ValleyLine
  6
CONTINUOUS
 62
5
 10
332.3554421849265
 20
-553.7455924960838
 11
333.3284282881488
 21
-585.2440722527277
  0
LINE
  8
ValleyLine
  6
CONTINUOUS
 62
5
 10
333.3284282881488
 20
-585.2440722527277
 11
334.67928446015696
 21
-622.0409255826036
  0
LINE
  8
ValleyLine
  6
CONTINUOUS
 62
5
 10
334.67928446015696
 20
-622.0409255826036
 11
338.71570244039276
 21
-674.3164841090615
  0
LINE
  8
ValleyLine
  6
CONTINUOUS
 62
5
 10
338.71570244039276
 20
-674.3164841090615
 11
348.70466280862024
 21
-753.9126164660244
  0
LINE
  8
ValleyLine
  6
CONTINUOUS
 62
5
 10
348.70466280862024
 20
-753.9126164660244
 11
368.1742237831396
 21
-873.1233910220785
  0
LINE
  8
ValleyLine
  6
CONTINUOUS
 62
5
 10
368.1742237831396
 20
-873.1233910220785
 11
394.95953600568714
 21
-1022.4007386322971
  0
LINE
  8
ValleyLine
  6
CONTINUOUS
 62
5
 10
394.95953600568714
 20
-1022.4007386322971
 11
426.6663230182759
 21
-1191.7992107583998
  0
LINE
  8
ValleyLine
  6
CONTINUOUS
 62
5
 10
426.6663230182759
 20
-1191.7992107583998
 11
452.2984911863571
 21
-1326.4047879395773
  0
LINE
  8
ValleyLine
  6
CONTINUOUS
 62
5
 10
452.2984911863571
 20
-1326.4047879395773
 11
459.34143702568514
 21
-1348.9688810060163
  0
LINE
  8
ValleyLine
  6
CONTINUOUS
 62
5
 10
459.34143702568514
 20
-1348.9688810060163
 11
461.57671798068577
 21
-1372.5449346868052
  0
LINE
  8
ValleyLine
  6
CONTINUOUS
 62
5
 10
461.57671798068577
 20
-1372.5449346868052
 11
461.57671798068577
 21
-1372.5449346868052
  0
LINE
  8
ValleyLine
  6
CONTINUOUS
 62
5
 10
0.0
 20
-0.0
 11
0.0
 21
-0.0
  0
LINE
  8
MountainLine
  6
CONTINUOUS
 62
1
 10
0.0
 20
-0.0
 11
0.0
 21
-0.0
  0
LINE
  8
ValleyLine
  6
CONTINUOUS
 62
5
 10
0.0
 20
-0.0
 11
0.0
 21
-0.0
  0
LINE
  8
MountainLine
  6
CONTINUOUS
 62
1
 10
0.0
 20
-0.0
 11
0.0
 21
-0.0
  0
LINE
  8
ValleyLine
  6
CONTINUOUS
 62
5
 10
5.066555005364512
 20
-2.925776994052461
 11
5.067074705339757
 21
-2.925476945131854
  0
LINE
  8
MountainLine
  6
CONTINUOUS
 62
1
 10
5.066555005364512
 20
-2.925776994052461
 11
-1.093815787808036E-15
 21
-5.850953890263707
  0
LINE
  8
ValleyLine
  6
CONTINUOUS
 62
5
 10
20.266220021458047
 20
-11.703107976209845
 11
20.26829882135903
 21
-11.701907780527415
  0
LINE
  8
MountainLine
  6
CONTINUOUS
 62
1
 10
20.266220021458047
 20
-11.703107976209845
 11
-4.375263151232144E-15
 21
-23.403815561054827
  0
LINE
  8
ValleyLine
  6
CONTINUOUS
 62
5
 10
40.518672868353754
 20
-23.408027321050977
 11
40.53128274668721
 21
-23.40074700440071
  0
LINE
  8
MountainLine
  6
CONTINUOUS
 62
1
 10
40.518672868353754
 20
-23.408027321050977
 11
-8.750526302464288E-15
 21
-46.80149400880139
  0
LINE
  8
ValleyLine
  6
CONTINUOUS
 62
5
 10
60.76310912268645
 20
-35.15037514916922
 11
60.82267239307698
 21
-35.115986278975434
  0
LINE
  8
MountainLine
  6
CONTINUOUS
 62
1
 10
60.76310912268645
 20
-35.15037514916922
 11
-1.3125789453696433E-14
 21
-70.23197255795083
  0
LINE
  8
ValleyLine
  6
CONTINUOUS
 62
5
 10
81.04401813700193
 20
-47.03286609401972
 11
81.2536659187138
 21
-46.91182589081336
  0
LINE
  8
MountainLine
  6
CONTINUOUS
 62
1
 10
81.04401813700193
 20
-47.03286609401972
 11
-1.7501052604928577E-14
 21
-93.8236517816267
  0
LINE
  8
ValleyLine
  6
CONTINUOUS
 62
5
 10
101.46200994363481
 20
-59.25541865780698
 11
102.04770284136062
 21
-58.91726870564253
  0
LINE
  8
MountainLine
  6
CONTINUOUS
 62
1
 10
101.46200994363481
 20
-59.25541865780698
 11
-2.6251578907392865E-14
 21
-117.83453741128501
  0
LINE
  8
ValleyLine
  6
CONTINUOUS
 62
5
 10
121.66982525560128
 20
-71.72969840107332
 11
122.95465364892613
 21
-70.98790238232475
  0
LINE
  8
MountainLine
  6
CONTINUOUS
 62
1
 10
121.66982525560128
 20
-71.72969840107332
 11
-2.6251578907392865E-14
 21
-141.9758047646494
  0
LINE
  8
ValleyLine
  6
CONTINUOUS
 62
5
 10
141.32837405532283
 20
-84.38152047403169
 11
143.74072736812954
 21
-82.98874763950224
  0
LINE
  8
MountainLine
  6
CONTINUOUS
 62
1
 10
141.32837405532283
 20
-84.38152047403169
 11
-4.375263151232144E-14
 21
-165.97749527900444
  0
LINE
  8
ValleyLine
  6
CONTINUOUS
 62
5
 10
160.1176414185871
 20
-97.16973905776436
 11
164.21028321242244
 21
-94.80685121639684
  0
LINE
  8
MountainLine
  6
CONTINUOUS
 62
1
 10
160.1176414185871
 20
-97.16973905776436
 11
-3.5002105209857153E-14
 21
-189.61370243279356
  0
LINE
  8
ValleyLine
  6
CONTINUOUS
 62
5
 10
177.74986452330282
 20
-110.10907061287813
 11
184.2321845994984
 21
-106.36650137191329
  0
LINE
  8
MountainLine
  6
CONTINUOUS
 62
1
 10
177.74986452330282
 20
-110.10907061287813
 11
-3.5002105209857153E-14
 21
-212.73300274382646
  0
LINE
  8
ValleyLine
  6
CONTINUOUS
 62
5
 10
194.26097165176952
 20
-123.62094015204345
 11
204.18936043727007
 21
-117.88878221411545
  0
LINE
  8
MountainLine
  6
CONTINUOUS
 62
1
 10
194.26097165176952
 20
-123.62094015204345
 11
-5.250315781478573E-14
 21
-235.77756442823082
  0
LINE
  8
ValleyLine
  6
CONTINUOUS
 62
5
 10
209.79417664415146
 20
-138.3125967250706
 11
224.67931074937917
 21
-129.7186605424937
  0
LINE
  8
MountainLine
  6
CONTINUOUS
 62
1
 10
209.79417664415146
 20
-138.3125967250706
 11
-5.250315781478573E-14
 21
-259.43732108498733
  0
LINE
  8
ValleyLine
  6
CONTINUOUS
 62
5
 10
224.5853007664614
 20
-154.9516901484977
 11
246.48475041116458
 21
-142.30803700102368
  0
LINE
  8
MountainLine
  6
CONTINUOUS
 62
1
 10
224.5853007664614
 20
-154.9516901484977
 11
-5.250315781478573E-14
 21
-284.61607400204724
  0
LINE
  8
ValleyLine
  6
CONTINUOUS
 62
5
 10
238.92369705520613
 20
-174.39858998517786
 11
270.49545783895337
 21
-156.1706253978909
  0
LINE
  8
MountainLine
  6
CONTINUOUS
 62
1
 10
238.92369705520613
 20
-174.39858998517786
 11
-5.250315781478573E-14
 21
-312.34125079578166
  0
LINE
  8
ValleyLine
  6
CONTINUOUS
 62
5
 10
252.55031057882067
 20
-196.71773622068758
 11
296.6377122314919
 21
-171.26386300864672
  0
LINE
  8
MountainLine
  6
CONTINUOUS
 62
1
 10
252.55031057882067
 20
-196.71773622068758
 11
-5.250315781478573E-14
 21
-342.5277260172932
  0
LINE
  8
ValleyLine
  6
CONTINUOUS
 62
5
 10
265.2144423819728
 20
-221.98804181598527
 11
324.85450473999185
 21
-187.55483575909693
  0
LINE
  8
MountainLine
  6
CONTINUOUS
 62
1
 10
265.2144423819728
 20
-221.98804181598527
 11
-7.000421041971431E-14
 21
-375.10967151819375
  0
LINE
  8
ValleyLine
  6
CONTINUOUS
 62
5
 10
276.699830670188
 20
-250.34806664430343
 11
355.15770083738033
 21
-205.05039418323025
  0
LINE
  8
MountainLine
  6
CONTINUOUS
 62
1
 10
276.699830670188
 20
-250.34806664430343
 11
-7.000421041971431E-14
 21
-410.1007883664603
  0
LINE
  8
ValleyLine
  6
CONTINUOUS
 62
5
 10
286.84237438164246
 20
-282.02671561798553
 11
387.6634874618861
 21
-223.81761884110915
  0
LINE
  8
MountainLine
  6
CONTINUOUS
 62
1
 10
286.84237438164246
 20
-282.02671561798553
 11
-7.000421041971431E-14
 21
-447.6352376822181
  0
LINE
  8
ValleyLine
  6
CONTINUOUS
 62
5
 10
295.97085175645316
 20
-316.87505854873984
 11
422.4072764071165
 21
-243.87695474130558
  0
LINE
  8
MountainLine
  6
CONTINUOUS
 62
1
 10
295.97085175645316
 20
-316.87505854873984
 11
-1.0500631562957146E-13
 21
-487.75390948261094
  0
LINE
  8
ValleyLine
  6
CONTINUOUS
 62
5
 10
304.29811439935065
 20
-354.5433744258342
 11
459.1926261959057
 21
-265.1149863440975
  0
LINE
  8
MountainLine
  6
CONTINUOUS
 62
1
 10
304.29811439935065
 20
-354.5433744258342
 11
-1.0500631562957146E-13
 21
-530.2299726881948
  0
LINE
  8
ValleyLine
  6
CONTINUOUS
 62
5
 10
311.9623674563963
 20
-394.5526507795167
 11
497.67380243374964
 21
-287.3321038037501
  0
LINE
  8
MountainLine
  6
CONTINUOUS
 62
1
 10
311.9623674563963
 20
-394.5526507795167
 11
-1.0500631562957146E-13
 21
-574.6642076075
  0
LINE
  8
ValleyLine
  6
CONTINUOUS
 62
5
 10
319.0535333389958
 20
-436.3402469904837
 11
537.4085052568331
 21
-310.27294517482716
  0
LINE
  8
MountainLine
  6
CONTINUOUS
 62
1
 10
319.0535333389958
 20
-436.3402469904837
 11
-1.0500631562957146E-13
 21
-620.5458903496541
  0
LINE
  8
ValleyLine
  6
CONTINUOUS
 62
5
 10
325.07950832373695
 20
-477.97622820029466
 11
576.4793101883915
 21
-332.83048491951774
  0
LINE
  8
MountainLine
  6
CONTINUOUS
 62
1
 10
325.07950832373695
 20
-477.97622820029466
 11
-1.4000842083942861E-13
 21
-665.6609698390354
  0
LINE
  8
ValleyLine
  6
CONTINUOUS
 62
5
 10
329.61170148491556
 20
-517.6406669430704
 11
613.0958183470764
 21
-353.97103576171867
  0
LINE
  8
MountainLine
  6
CONTINUOUS
 62
1
 10
329.61170148491556
 20
-517.6406669430704
 11
-1.4000842083942861E-13
 21
-707.942071523437
  0
LINE
  8
ValleyLine
  6
CONTINUOUS
 62
5
 10
332.3554421849265
 20
-553.7455924960838
 11
645.7354714277373
 21
-372.81554825409427
  0
LINE
  8
MountainLine
  6
CONTINUOUS
 62
1
 10
332.3554421849265
 20
-553.7455924960838
 11
-1.4000842083942861E-13
 21
-745.6310965081881
  0
LINE
  8
MountainLine
  6
CONTINUOUS
 62
1
 10
333.3284282881488
 20
-585.2440722527277
 11
673.500448129192
 21
-388.84566502672277
  0
LINE
  8
ValleyLine
  6
CONTINUOUS
 62
5
 10
333.3284282881488
 20
-585.2440722527277
 11
-1.4000842083942861E-13
 21
-777.6913300534453
  0
LINE
  8
MountainLine
  6
CONTINUOUS
 62
1
 10
334.67928446015696
 20
-622.0409255826036
 11
706.0428859781986
 21
-407.63405027893344
  0
LINE
  8
ValleyLine
  6
CONTINUOUS
 62
5
 10
334.67928446015696
 20
-622.0409255826036
 11
-1.4000842083942861E-13
 21
-815.2681005578664
  0
LINE
  8
MountainLine
  6
CONTINUOUS
 62
1
 10
338.71570244039276
 20
-674.3164841090615
 11
753.3330566492493
 21
-434.93704304588795
  0
LINE
  8
ValleyLine
  6
CONTINUOUS
 62
5
 10
338.71570244039276
 20
-674.3164841090615
 11
-1.4000842083942861E-13
 21
-869.8740860917756
  0
LINE
  8
MountainLine
  6
CONTINUOUS
 62
1
 10
348.70466280862024
 20
-753.9126164660244
 11
827.2598094974816
 21
-477.61867370312973
  0
LINE
  8
ValleyLine
  6
CONTINUOUS
 62
5
 10
348.70466280862024
 20
-753.9126164660244
 11
-2.1001263125914292E-13
 21
-955.237347406259
  0
LINE
  8
MountainLine
  6
CONTINUOUS
 62
1
 10
368.1742237831396
 20
-873.1233910220785
 11
940.2341491551035
 21
-542.844439115978
  0
LINE
  8
ValleyLine
  6
CONTINUOUS
 62
5
 10
368.1742237831396
 20
-873.1233910220785
 11
-2.1001263125914292E-13
 21
-1085.6888782319556
  0
LINE
  8
MountainLine
  6
CONTINUOUS
 62
1
 10
394.95953600568714
 20
-1022.4007386322971
 11
1082.904780506387
 21
-625.2153665320953
  0
LINE
  8
ValleyLine
  6
CONTINUOUS
 62
5
 10
394.95953600568714
 20
-1022.4007386322971
 11
-2.1001263125914292E-13
 21
-1250.4307330641902
  0
LINE
  8
MountainLine
  6
CONTINUOUS
 62
1
 10
426.6663230182759
 20
-1191.7992107583998
 11
1245.4615542361562
 21
-719.067563603575
  0
LINE
  8
ValleyLine
  6
CONTINUOUS
 62
5
 10
426.6663230182759
 20
-1191.7992107583998
 11
-2.8001684167885723E-13
 21
-1438.1351272071493
  0
LINE
  8
MountainLine
  6
CONTINUOUS
 62
1
 10
452.2984911863571
 20
-1326.4047879395773
 11
1374.8494876501636
 21
-793.7697217900416
  0
LINE
  8
ValleyLine
  6
CONTINUOUS
 62
5
 10
452.2984911863571
 20
-1326.4047879395773
 11
-2.8001684167885723E-13
 21
-1587.5394435800822
  0
LINE
  8
ValleyLine
  6
CONTINUOUS
 62
5
 10
459.34143702568514
 20
-1348.9688810060163
 11
1397.9120383787201
 21
-807.0848916613728
  0
LINE
  8
MountainLine
  6
CONTINUOUS
 62
1
 10
459.34143702568514
 20
-1348.9688810060163
 11
-2.8001684167885723E-13
 21
-1614.1697833227452
  0
LINE
  8
ValleyLine
  6
CONTINUOUS
 62
5
 10
461.57671798068577
 20
-1372.5449346868052
 11
1419.4471402647694
 21
-819.5181885323095
  0
LINE
  8
MountainLine
  6
CONTINUOUS
 62
1
 10
461.57671798068577
 20
-1372.5449346868052
 11
-2.8001684167885723E-13
 21
-1639.0363770646181
  0
LINE
  8
ValleyLine
  6
CONTINUOUS
 62
5
 10
0.0
 20
-0.0
 11
0.0
 21
-0.0
  0
LINE
  8
ValleyLine
  6
CONTINUOUS
 62
5
 10
0.0
 20
-0.0
 11
5.067074705339758
 21
2.9248768472906392
  0
LINE
  8
ValleyLine
  6
CONTINUOUS
 62
5
 10
5.067074705339758
 20
2.9248768472906392
 11
20.268298821359032
 21
11.699507389162557
  0
LINE
  8
ValleyLine
  6
CONTINUOUS
 62
5
 10
20.268298821359032
 20
11.699507389162557
 11
40.53128274668722
 21
23.386186371100155
  0
LINE
  8
ValleyLine
  6
CONTINUOUS
 62
5
 10
40.53128274668722
 20
23.386186371100155
 11
60.82267239307699
 21
35.04720853858783
  0
LINE
  8
ValleyLine
  6
CONTINUOUS
 62
5
 10
60.82267239307699
 20
35.04720853858783
 11
81.25366591871382
 21
46.669745484400636
  0
LINE
  8
ValleyLine
  6
CONTINUOUS
 62
5
 10
81.25366591871382
 20
46.669745484400636
 11
102.04770284136065
 21
58.2409688013136
  0
LINE
  8
ValleyLine
  6
CONTINUOUS
 62
5
 10
102.04770284136065
 20
58.2409688013136
 11
122.95465364892615
 21
69.50431034482756
  0
LINE
  8
ValleyLine
  6
CONTINUOUS
 62
5
 10
122.95465364892615
 20
69.50431034482756
 11
143.7407273681296
 21
80.20320197044332
  0
LINE
  8
ValleyLine
  6
CONTINUOUS
 62
5
 10
143.7407273681296
 20
80.20320197044332
 11
164.21028321242247
 21
90.0810755336617
  0
LINE
  8
ValleyLine
  6
CONTINUOUS
 62
5
 10
164.21028321242247
 20
90.0810755336617
 11
184.23218459949842
 21
98.88136288998354
  0
LINE
  8
ValleyLine
  6
CONTINUOUS
 62
5
 10
184.23218459949842
 20
98.88136288998354
 11
204.1893604372701
 21
106.42446633825939
  0
LINE
  8
ValleyLine
  6
CONTINUOUS
 62
5
 10
204.1893604372701
 20
106.42446633825939
 11
224.67931074937923
 21
112.53078817733986
  0
LINE
  8
ValleyLine
  6
CONTINUOUS
 62
5
 10
224.67931074937923
 20
112.53078817733986
 11
246.48475041116464
 21
117.0207307060755
  0
LINE
  8
ValleyLine
  6
CONTINUOUS
 62
5
 10
246.48475041116464
 20
117.0207307060755
 11
270.4954578389535
 21
119.71469622331688
  0
LINE
  8
ValleyLine
  6
CONTINUOUS
 62
5
 10
270.4954578389535
 20
119.71469622331688
 11
296.637712231492
 21
120.35611658456482
  0
LINE
  8
ValleyLine
  6
CONTINUOUS
 62
5
 10
296.637712231492
 20
120.35611658456482
 11
324.8545047399919
 21
118.68842364532014
  0
LINE
  8
ValleyLine
  6
CONTINUOUS
 62
5
 10
324.8545047399919
 20
118.68842364532014
 11
355.15770083738045
 21
114.4550492610837
  0
LINE
  8
ValleyLine
  6
CONTINUOUS
 62
5
 10
355.15770083738045
 20
114.4550492610837
 11
387.6634874618862
 21
107.39942528735627
  0
LINE
  8
ValleyLine
  6
CONTINUOUS
 62
5
 10
387.6634874618862
 20
107.39942528735627
 11
422.4072764071167
 21
97.88074712643672
  0
LINE
  8
ValleyLine
  6
CONTINUOUS
 62
5
 10
422.4072764071167
 20
97.88074712643672
 11
459.19262619590586
 21
86.25821018062392
  0
LINE
  8
ValleyLine
  6
CONTINUOUS
 62
5
 10
459.19262619590586
 20
86.25821018062392
 11
497.6738024337497
 21
72.89100985221668
  0
LINE
  8
ValleyLine
  6
CONTINUOUS
 62
5
 10
497.6738024337497
 20
72.89100985221668
 11
537.4085052568332
 21
58.138341543513874
  0
LINE
  8
ValleyLine
  6
CONTINUOUS
 62
5
 10
537.4085052568332
 20
58.138341543513874
 11
576.4793101883917
 21
42.5389983579638
  0
LINE
  8
ValleyLine
  6
CONTINUOUS
 62
5
 10
576.4793101883917
 20
42.5389983579638
 11
613.0958183470765
 21
26.631773399014698
  0
LINE
  8
ValleyLine
  6
CONTINUOUS
 62
5
 10
613.0958183470765
 20
26.631773399014698
 11
645.7354714277375
 21
10.95545977011486
  0
LINE
  8
ValleyLine
  6
CONTINUOUS
 62
5
 10
645.7354714277375
 20
10.95545977011486
 11
673.5004481291921
 21
-3.9511494252874404
  0
LINE
  8
ValleyLine
  6
CONTINUOUS
 62
5
 10
673.5004481291921
 20
-3.9511494252874404
 11
706.0428859781988
 21
-21.17970032840731
  0
LINE
  8
ValleyLine
  6
CONTINUOUS
 62
5
 10
706.0428859781988
 20
-21.17970032840731
 11
753.3330566492496
 21
-43.82183908045986
  0
LINE
  8
ValleyLine
  6
CONTINUOUS
 62
5
 10
753.3330566492496
 20
-43.82183908045986
 11
827.2598094974817
 21
-74.96921182266021
  0
LINE
  8
ValleyLine
  6
CONTINUOUS
 62
5
 10
827.2598094974817
 20
-74.96921182266021
 11
940.2341491551039
 21
-117.71346469622344
  0
LINE
  8
ValleyLine
  6
CONTINUOUS
 62
5
 10
940.2341491551039
 20
-117.71346469622344
 11
1082.9047805063872
 21
-169.15537766830883
  0
LINE
  8
ValleyLine
  6
CONTINUOUS
 62
5
 10
1082.9047805063872
 20
-169.15537766830883
 11
1245.4615542361564
 21
-226.39573070607562
  0
LINE
  8
ValleyLine
  6
CONTINUOUS
 62
5
 10
1245.4615542361564
 20
-226.39573070607562
 11
1374.8494876501638
 21
-271.5004105090313
  0
LINE
  8
ValleyLine
  6
CONTINUOUS
 62
5
 10
1374.8494876501638
 20
-271.5004105090313
 11
1397.9120383787204
 21
-276.6830870279148
  0
LINE
  8
ValleyLine
  6
CONTINUOUS
 62
5
 10
1397.9120383787204
 20
-276.6830870279148
 11
1419.4471402647696
 21
-286.53530377668324
  0
LINE
  8
ValleyLine
  6
CONTINUOUS
 62
5
 10
1419.4471402647696
 20
-286.53530377668324
 11
1419.4471402647696
 21
-286.53530377668324
  0
LINE
  8
ValleyLine
  6
CONTINUOUS
 62
5
 10
0.0
 20
-0.0
 11
0.0
 21
-0.0
  0
LINE
  8
MountainLine
  6
CONTINUOUS
 62
1
 10
0.0
 20
-0.0
 11
0.0
 21
-0.0
  0
LINE
  8
ValleyLine
  6
CONTINUOUS
 62
5
 10
0.0
 20
-0.0
 11
0.0
 21
-0.0
  0
LINE
  8
MountainLine
  6
CONTINUOUS
 62
1
 10
0.0
 20
-0.0
 11
0.0
 21
-0.0
  0
LINE
  8
ValleyLine
  6
CONTINUOUS
 62
5
 10
5.067074705339758
 20
2.9248768472906392
 11
5.067074705339758
 21
2.9254769451318525
  0
LINE
  8
MountainLine
  6
CONTINUOUS
 62
1
 10
5.067074705339758
 20
2.9248768472906392
 11
5.067074705339758
 21
-2.925476945131854
  0
LINE
  8
ValleyLine
  6
CONTINUOUS
 62
5
 10
20.268298821359032
 20
11.699507389162557
 11
20.268298821359032
 21
11.70190778052741
  0
LINE
  8
MountainLine
  6
CONTINUOUS
 62
1
 10
20.268298821359032
 20
11.699507389162557
 11
20.268298821359032
 21
-11.701907780527415
  0
LINE
  8
ValleyLine
  6
CONTINUOUS
 62
5
 10
40.53128274668722
 20
23.386186371100155
 11
40.53128274668722
 21
23.400747004400692
  0
LINE
  8
MountainLine
  6
CONTINUOUS
 62
1
 10
40.53128274668722
 20
23.386186371100155
 11
40.53128274668722
 21
-23.400747004400703
  0
LINE
  8
ValleyLine
  6
CONTINUOUS
 62
5
 10
60.82267239307699
 20
35.04720853858783
 11
60.82267239307699
 21
35.115986278975406
  0
LINE
  8
MountainLine
  6
CONTINUOUS
 62
1
 10
60.82267239307699
 20
35.04720853858783
 11
60.82267239307699
 21
-35.11598627897543
  0
LINE
  8
ValleyLine
  6
CONTINUOUS
 62
5
 10
81.25366591871382
 20
46.669745484400636
 11
81.25366591871382
 21
46.91182589081333
  0
LINE
  8
MountainLine
  6
CONTINUOUS
 62
1
 10
81.25366591871382
 20
46.669745484400636
 11
81.25366591871382
 21
-46.911825890813354
  0
LINE
  8
ValleyLine
  6
CONTINUOUS
 62
5
 10
102.04770284136065
 20
58.2409688013136
 11
102.04770284136065
 21
58.91726870564249
  0
LINE
  8
MountainLine
  6
CONTINUOUS
 62
1
 10
102.04770284136065
 20
58.2409688013136
 11
102.04770284136065
 21
-58.91726870564251
  0
LINE
  8
ValleyLine
  6
CONTINUOUS
 62
5
 10
122.95465364892615
 20
69.50431034482756
 11
122.95465364892615
 21
70.98790238232469
  0
LINE
  8
MountainLine
  6
CONTINUOUS
 62
1
 10
122.95465364892615
 20
69.50431034482756
 11
122.95465364892615
 21
-70.98790238232472
  0
LINE
  8
ValleyLine
  6
CONTINUOUS
 62
5
 10
143.7407273681296
 20
80.20320197044332
 11
143.7407273681296
 21
82.98874763950221
  0
LINE
  8
MountainLine
  6
CONTINUOUS
 62
1
 10
143.7407273681296
 20
80.20320197044332
 11
143.74072736812957
 21
-82.98874763950224
  0
LINE
  8
ValleyLine
  6
CONTINUOUS
 62
5
 10
164.21028321242247
 20
90.0810755336617
 11
164.21028321242247
 21
94.80685121639677
  0
LINE
  8
MountainLine
  6
CONTINUOUS
 62
1
 10
164.21028321242247
 20
90.0810755336617
 11
164.21028321242247
 21
-94.8068512163968
  0
LINE
  8
ValleyLine
  6
CONTINUOUS
 62
5
 10
184.23218459949842
 20
98.88136288998354
 11
184.23218459949842
 21
106.36650137191322
  0
LINE
  8
MountainLine
  6
CONTINUOUS
 62
1
 10
184.23218459949842
 20
98.88136288998354
 11
184.23218459949842
 21
-106.36650137191326
  0
LINE
  8
ValleyLine
  6
CONTINUOUS
 62
5
 10
204.1893604372701
 20
106.42446633825939
 11
204.1893604372701
 21
117.88878221411538
  0
LINE
  8
MountainLine
  6
CONTINUOUS
 62
1
 10
204.1893604372701
 20
106.42446633825939
 11
204.1893604372701
 21
-117.88878221411542
  0
LINE
  8
ValleyLine
  6
CONTINUOUS
 62
5
 10
224.67931074937923
 20
112.53078817733986
 11
224.67931074937923
 21
129.7186605424936
  0
LINE
  8
MountainLine
  6
CONTINUOUS
 62
1
 10
224.67931074937923
 20
112.53078817733986
 11
224.67931074937923
 21
-129.7186605424937
  0
LINE
  8
ValleyLine
  6
CONTINUOUS
 62
5
 10
246.48475041116464
 20
117.0207307060755
 11
246.48475041116464
 21
142.3080370010236
  0
LINE
  8
MountainLine
  6
CONTINUOUS
 62
1
 10
246.48475041116464
 20
117.0207307060755
 11
246.48475041116464
 21
-142.30803700102365
  0
LINE
  8
ValleyLine
  6
CONTINUOUS
 62
5
 10
270.4954578389535
 20
119.71469622331688
 11
270.4954578389535
 21
156.1706253978908
  0
LINE
  8
MountainLine
  6
CONTINUOUS
 62
1
 10
270.4954578389535
 20
119.71469622331688
 11
270.4954578389534
 21
-156.1706253978909
  0
LINE
  8
ValleyLine
  6
CONTINUOUS
 62
5
 10
296.637712231492
 20
120.35611658456482
 11
296.637712231492
 21
171.26386300864658
  0
LINE
  8
MountainLine
  6
CONTINUOUS
 62
1
 10
296.637712231492
 20
120.35611658456482
 11
296.63771223149195
 21
-171.26386300864664
  0
LINE
  8
ValleyLine
  6
CONTINUOUS
 62
5
 10
324.8545047399919
 20
118.68842364532014
 11
324.8545047399919
 21
187.55483575909682
  0
LINE
  8
MountainLine
  6
CONTINUOUS
 62
1
 10
324.8545047399919
 20
118.68842364532014
 11
324.8545047399919
 21
-187.5548357590969
  0
LINE
  8
ValleyLine
  6
CONTINUOUS
 62
5
 10
355.15770083738045
 20
114.4550492610837
 11
355.15770083738045
 21
205.0503941832301
  0
LINE
  8
MountainLine
  6
CONTINUOUS
 62
1
 10
355.15770083738045
 20
114.4550492610837
 11
355.15770083738045
 21
-205.0503941832302
  0
LINE
  8
ValleyLine
  6
CONTINUOUS
 62
5
 10
387.6634874618862
 20
107.39942528735627
 11
387.6634874618862
 21
223.81761884110904
  0
LINE
  8
MountainLine
  6
CONTINUOUS
 62
1
 10
387.6634874618862
 20
107.39942528735627
 11
387.6634874618862
 21
-223.8176188411091
  0
LINE
  8
ValleyLine
  6
CONTINUOUS
 62
5
 10
422.4072764071167
 20
97.88074712643672
 11
422.4072764071167
 21
243.87695474130538
  0
LINE
  8
MountainLine
  6
CONTINUOUS
 62
1
 10
422.4072764071167
 20
97.88074712643672
 11
422.4072764071167
 21
-243.87695474130547
  0
LINE
  8
ValleyLine
  6
CONTINUOUS
 62
5
 10
459.19262619590586
 20
86.25821018062392
 11
459.19262619590586
 21
265.11498634409736
  0
LINE
  8
MountainLine
  6
CONTINUOUS
 62
1
 10
459.19262619590586
 20
86.25821018062392
 11
459.19262619590586
 21
-265.1149863440975
  0
LINE
  8
ValleyLine
  6
CONTINUOUS
 62
5
 10
497.6738024337497
 20
72.89100985221668
 11
497.67380243374976
 21
287.33210380374993
  0
LINE
  8
MountainLine
  6
CONTINUOUS
 62
1
 10
497.6738024337497
 20
72.89100985221668
 11
497.67380243374964
 21
-287.3321038037501
  0
LINE
  8
ValleyLine
  6
CONTINUOUS
 62
5
 10
537.4085052568332
 20
58.138341543513874
 11
537.4085052568332
 21
310.272945174827
  0
LINE
  8
MountainLine
  6
CONTINUOUS
 62
1
 10
537.4085052568332
 20
58.138341543513874
 11
537.4085052568331
 21
-310.2729451748271
  0
LINE
  8
ValleyLine
  6
CONTINUOUS
 62
5
 10
576.4793101883917
 20
42.5389983579638
 11
576.4793101883918
 21
332.83048491951763
  0
LINE
  8
MountainLine
  6
CONTINUOUS
 62
1
 10
576.4793101883917
 20
42.5389983579638
 11
576.4793101883915
 21
-332.83048491951774
  0
LINE
  8
ValleyLine
  6
CONTINUOUS
 62
5
 10
613.0958183470765
 20
26.631773399014698
 11
613.0958183470766
 21
353.97103576171844
  0
LINE
  8
MountainLine
  6
CONTINUOUS
 62
1
 10
613.0958183470765
 20
26.631773399014698
 11
613.0958183470765
 21
-353.97103576171855
  0
LINE
  8
ValleyLine
  6
CONTINUOUS
 62
5
 10
645.7354714277375
 20
10.95545977011486
 11
645.7354714277375
 21
372.815548254094
  0
LINE
  8
MountainLine
  6
CONTINUOUS
 62
1
 10
645.7354714277375
 20
10.95545977011486
 11
645.7354714277375
 21
-372.8155482540941
  0
LINE
  8
MountainLine
  6
CONTINUOUS
 62
1
 10
673.5004481291921
 20
-3.9511494252874404
 11
673.5004481291921
 21
388.8456650267226
  0
LINE
  8
ValleyLine
  6
CONTINUOUS
 62
5
 10
673.5004481291921
 20
-3.9511494252874404
 11
673.5004481291921
 21
-388.8456650267227
  0
LINE
  8
MountainLine
  6
CONTINUOUS
 62
1
 10
706.0428859781988
 20
-21.17970032840731
 11
706.0428859781988
 21
407.6340502789332
  0
LINE
  8
ValleyLine
  6
CONTINUOUS
 62
5
 10
706.0428859781988
 20
-21.17970032840731
 11
706.0428859781988
 21
-407.6340502789334
  0
LINE
  8
MountainLine
  6
CONTINUOUS
 62
1
 10
753.3330566492496
 20
-43.82183908045986
 11
753.3330566492496
 21
434.93704304588766
  0
LINE
  8
ValleyLine
  6
CONTINUOUS
 62
5
 10
753.3330566492496
 20
-43.82183908045986
 11
753.3330566492496
 21
-434.93704304588783
  0
LINE
  8
MountainLine
  6
CONTINUOUS
 62
1
 10
827.2598094974817
 20
-74.96921182266021
 11
827.2598094974817
 21
477.61867370312945
  0
LINE
  8
ValleyLine
  6
CONTINUOUS
 62
5
 10
827.2598094974817
 20
-74.96921182266021
 11
827.2598094974817
 21
-477.61867370312956
  0
LINE
  8
MountainLine
  6
CONTINUOUS
 62
1
 10
940.2341491551039
 20
-117.71346469622344
 11
940.2341491551039
 21
542.8444391159778
  0
LINE
  8
ValleyLine
  6
CONTINUOUS
 62
5
 10
940.2341491551039
 20
-117.71346469622344
 11
940.2341491551039
 21
-542.844439115978
  0
LINE
  8
MountainLine
  6
CONTINUOUS
 62
1
 10
1082.9047805063872
 20
-169.15537766830883
 11
1082.9047805063874
 21
625.215366532095
  0
LINE
  8
ValleyLine
  6
CONTINUOUS
 62
5
 10
1082.9047805063872
 20
-169.15537766830883
 11
1082.904780506387
 21
-625.2153665320953
  0
LINE
  8
MountainLine
  6
CONTINUOUS
 62
1
 10
1245.4615542361564
 20
-226.39573070607562
 11
1245.4615542361566
 21
719.0675636035745
  0
LINE
  8
ValleyLine
  6
CONTINUOUS
 62
5
 10
1245.4615542361564
 20
-226.39573070607562
 11
1245.4615542361564
 21
-719.0675636035747
  0
LINE
  8
MountainLine
  6
CONTINUOUS
 62
1
 10
1374.8494876501638
 20
-271.5004105090313
 11
1374.8494876501638
 21
793.769721790041
  0
LINE
  8
ValleyLine
  6
CONTINUOUS
 62
5
 10
1374.8494876501638
 20
-271.5004105090313
 11
1374.8494876501638
 21
-793.7697217900412
  0
LINE
  8
ValleyLine
  6
CONTINUOUS
 62
5
 10
1397.9120383787204
 20
-276.6830870279148
 11
1397.9120383787204
 21
807.0848916613725
  0
LINE
  8
MountainLine
  6
CONTINUOUS
 62
1
 10
1397.9120383787204
 20
-276.6830870279148
 11
1397.9120383787204
 21
-807.0848916613727
  0
LINE
  8
ValleyLine
  6
CONTINUOUS
 62
5
 10
1419.4471402647696
 20
-286.53530377668324
 11
1419.4471402647696
 21
819.5181885323091
  0
LINE
  8
MountainLine
  6
CONTINUOUS
 62
1
 10
1419.4471402647696
 20
-286.53530377668324
 11
1419.4471402647696
 21
-819.5181885323094
  0
LINE
  8
ValleyLine
  6
CONTINUOUS
 62
5
 10
0.0
 20
0.0
 11
0.0
 21
0.0
  0
LINE
  8
ValleyLine
  6
CONTINUOUS
 62
5
 10
0.0
 20
0.0
 11
5.196999752497679E-4
 21
5.8506538413431
  0
LINE
  8
ValleyLine
  6
CONTINUOUS
 62
5
 10
5.196999752497679E-4
 20
5.8506538413431
 11
0.0020787999009990715
 21
23.4026153653724
  0
LINE
  8
ValleyLine
  6
CONTINUOUS
 62
5
 10
0.0020787999009990715
 20
23.4026153653724
 11
0.01260987833347879
 21
46.79421369215113
  0
LINE
  8
ValleyLine
  6
CONTINUOUS
 62
5
 10
0.01260987833347879
 20
46.79421369215113
 11
0.05956327039056601
 21
70.19758368775706
  0
LINE
  8
ValleyLine
  6
CONTINUOUS
 62
5
 10
0.05956327039056601
 20
70.19758368775706
 11
0.20964778171190102
 21
93.70261157842033
  0
LINE
  8
ValleyLine
  6
CONTINUOUS
 62
5
 10
0.20964778171190102
 20
93.70261157842033
 11
0.5856928977258589
 21
117.49638745912058
  0
LINE
  8
ValleyLine
  6
CONTINUOUS
 62
5
 10
0.5856928977258589
 20
117.49638745912058
 11
1.284828393324907
 21
141.23400874590087
  0
LINE
  8
ValleyLine
  6
CONTINUOUS
 62
5
 10
1.284828393324907
 20
141.23400874590087
 11
2.4123533128067898
 21
164.584722444475
  0
LINE
  8
ValleyLine
  6
CONTINUOUS
 62
5
 10
2.4123533128067898
 20
164.584722444475
 11
4.092641793835409
 21
187.25081459142606
  0
LINE
  8
ValleyLine
  6
CONTINUOUS
 62
5
 10
4.092641793835409
 20
187.25081459142606
 11
6.482320076195698
 21
208.99043350286166
  0
LINE
  8
ValleyLine
  6
CONTINUOUS
 62
5
 10
6.482320076195698
 20
208.99043350286166
 11
9.928388785500648
 21
230.04540649030287
  0
LINE
  8
ValleyLine
  6
CONTINUOUS
 62
5
 10
9.928388785500648
 20
230.04540649030287
 11
14.885134105227815
 21
250.84338490241046
  0
LINE
  8
ValleyLine
  6
CONTINUOUS
 62
5
 10
14.885134105227815
 20
250.84338490241046
 11
21.89944964470333
 21
271.9724208545733
  0
LINE
  8
ValleyLine
  6
CONTINUOUS
 62
5
 10
21.89944964470333
 20
271.9724208545733
 11
31.57176078374743
 21
294.11328620849474
  0
LINE
  8
ValleyLine
  6
CONTINUOUS
 62
5
 10
31.57176078374743
 20
294.11328620849474
 11
44.0874016526714
 21
317.0738528052524
  0
LINE
  8
ValleyLine
  6
CONTINUOUS
 62
5
 10
44.0874016526714
 20
317.0738528052524
 11
59.640062358019186
 21
340.6764654613054
  0
LINE
  8
ValleyLine
  6
CONTINUOUS
 62
5
 10
59.640062358019186
 20
340.6764654613054
 11
78.45787016719255
 21
364.80311590538713
  0
LINE
  8
ValleyLine
  6
CONTINUOUS
 62
5
 10
78.45787016719255
 20
364.80311590538713
 11
100.82111308024386
 21
389.42614090534175
  0
LINE
  8
ValleyLine
  6
CONTINUOUS
 62
5
 10
100.82111308024386
 20
389.42614090534175
 11
126.43642465066358
 21
414.75580567517653
  0
LINE
  8
ValleyLine
  6
CONTINUOUS
 62
5
 10
126.43642465066358
 20
414.75580567517653
 11
154.8945117965553
 21
440.8015846064581
  0
LINE
  8
ValleyLine
  6
CONTINUOUS
 62
5
 10
154.8945117965553
 20
440.8015846064581
 11
185.71143497735358
 21
467.44366063173334
  0
LINE
  8
ValleyLine
  6
CONTINUOUS
 62
5
 10
185.71143497735358
 20
467.44366063173334
 11
218.35497191783756
 21
494.4785885339975
  0
LINE
  8
ValleyLine
  6
CONTINUOUS
 62
5
 10
218.35497191783756
 20
494.4785885339975
 11
251.39980186465485
 21
520.5152265582584
  0
LINE
  8
ValleyLine
  6
CONTINUOUS
 62
5
 10
251.39980186465485
 20
520.5152265582584
 11
283.4841168621611
 21
544.272440342085
  0
LINE
  8
ValleyLine
  6
CONTINUOUS
 62
5
 10
283.4841168621611
 20
544.272440342085
 11
313.380029242811
 21
564.7010522661985
  0
LINE
  8
ValleyLine
  6
CONTINUOUS
 62
5
 10
313.380029242811
 20
564.7010522661985
 11
340.1720198410435
 21
581.2929228274402
  0
LINE
  8
ValleyLine
  6
CONTINUOUS
 62
5
 10
340.1720198410435
 20
581.2929228274402
 11
371.3636015180419
 21
600.8612252541963
  0
LINE
  8
ValleyLine
  6
CONTINUOUS
 62
5
 10
371.3636015180419
 20
600.8612252541963
 11
414.61735420885697
 21
630.4946450286017
  0
LINE
  8
ValleyLine
  6
CONTINUOUS
 62
5
 10
414.61735420885697
 20
630.4946450286017
 11
478.55514668886144
 21
678.9434046433641
  0
LINE
  8
ValleyLine
  6
CONTINUOUS
 62
5
 10
478.55514668886144
 20
678.9434046433641
 11
572.0599253719644
 21
755.409926325855
  0
LINE
  8
ValleyLine
  6
CONTINUOUS
 62
5
 10
572.0599253719644
 20
755.409926325855
 11
687.9452445007003
 21
853.2453609639883
  0
LINE
  8
ValleyLine
  6
CONTINUOUS
 62
5
 10
687.9452445007003
 20
853.2453609639883
 11
818.7952312178808
 21
965.403480052324
  0
LINE
  8
ValleyLine
  6
CONTINUOUS
 62
5
 10
818.7952312178808
 20
965.403480052324
 11
922.550996463807
 21
1054.904377430546
  0
LINE
  8
ValleyLine
  6
CONTINUOUS
 62
5
 10
922.550996463807
 20
1054.904377430546
 11
938.5706013530353
 21
1072.2857939781013
  0
LINE
  8
ValleyLine
  6
CONTINUOUS
 62
5
 10
938.5706013530353
 20
1072.2857939781013
 11
957.8704222840842
 21
1086.009630910122
  0
LINE
  8
ValleyLine
  6
CONTINUOUS
 62
5
 10
957.8704222840842
 20
1086.009630910122
 11
957.8704222840842
 21
1086.009630910122
  0
LINE
  8
ValleyLine
  6
CONTINUOUS
 62
5
 10
0.0
 20
0.0
 11
0.0
 21
0.0
  0
LINE
  8
MountainLine
  6
CONTINUOUS
 62
1
 10
0.0
 20
0.0
 11
0.0
 21
-0.0
  0
LINE
  8
ValleyLine
  6
CONTINUOUS
 62
5
 10
0.0
 20
0.0
 11
0.0
 21
0.0
  0
LINE
  8
MountainLine
  6
CONTINUOUS
 62
1
 10
0.0
 20
0.0
 11
0.0
 21
-0.0
  0
LINE
  8
ValleyLine
  6
CONTINUOUS
 62
5
 10
5.196999752497679E-4
 20
5.8506538413431
 11
2.73453946952009E-15
 21
5.850953890263708
  0
LINE
  8
MountainLine
  6
CONTINUOUS
 62
1
 10
5.196999752497679E-4
 20
5.8506538413431
 11
5.067074705339761
 21
2.925476945131851
  0
LINE
  8
ValleyLine
  6
CONTINUOUS
 62
5
 10
0.0020787999009990715
 20
23.4026153653724
 11
1.093815787808036E-14
 21
23.40381556105483
  0
LINE
  8
MountainLine
  6
CONTINUOUS
 62
1
 10
0.0020787999009990715
 20
23.4026153653724
 11
20.268298821359043
 21
11.701907780527405
  0
LINE
  8
ValleyLine
  6
CONTINUOUS
 62
5
 10
0.01260987833347879
 20
46.79421369215113
 11
2.6251578907392865E-14
 21
46.801494008801406
  0
LINE
  8
MountainLine
  6
CONTINUOUS
 62
1
 10
0.01260987833347879
 20
46.79421369215113
 11
40.531282746687225
 21
23.400747004400685
  0
LINE
  8
ValleyLine
  6
CONTINUOUS
 62
5
 10
0.05956327039056601
 20
70.19758368775706
 11
3.5002105209857153E-14
 21
70.23197255795085
  0
LINE
  8
MountainLine
  6
CONTINUOUS
 62
1
 10
0.05956327039056601
 20
70.19758368775706
 11
60.822672393077006
 21
35.1159862789754
  0
LINE
  8
ValleyLine
  6
CONTINUOUS
 62
5
 10
0.20964778171190102
 20
93.70261157842033
 11
4.375263151232144E-14
 21
93.8236517816267
  0
LINE
  8
MountainLine
  6
CONTINUOUS
 62
1
 10
0.20964778171190102
 20
93.70261157842033
 11
81.25366591871384
 21
46.91182589081331
  0
LINE
  8
ValleyLine
  6
CONTINUOUS
 62
5
 10
0.5856928977258589
 20
117.49638745912058
 11
5.250315781478573E-14
 21
117.83453741128503
  0
LINE
  8
MountainLine
  6
CONTINUOUS
 62
1
 10
0.5856928977258589
 20
117.49638745912058
 11
102.04770284136069
 21
58.91726870564248
  0
LINE
  8
ValleyLine
  6
CONTINUOUS
 62
5
 10
1.284828393324907
 20
141.23400874590087
 11
7.000421041971431E-14
 21
141.97580476464944
  0
LINE
  8
MountainLine
  6
CONTINUOUS
 62
1
 10
1.284828393324907
 20
141.23400874590087
 11
122.95465364892618
 21
70.98790238232468
  0
LINE
  8
ValleyLine
  6
CONTINUOUS
 62
5
 10
2.4123533128067898
 20
164.584722444475
 11
7.875473672217859E-14
 21
165.97749527900444
  0
LINE
  8
MountainLine
  6
CONTINUOUS
 62
1
 10
2.4123533128067898
 20
164.584722444475
 11
143.74072736812963
 21
82.98874763950217
  0
LINE
  8
ValleyLine
  6
CONTINUOUS
 62
5
 10
4.092641793835409
 20
187.25081459142606
 11
1.0500631562957146E-13
 21
189.6137024327936
  0
LINE
  8
MountainLine
  6
CONTINUOUS
 62
1
 10
4.092641793835409
 20
187.25081459142606
 11
164.2102832124225
 21
94.80685121639675
  0
LINE
  8
ValleyLine
  6
CONTINUOUS
 62
5
 10
6.482320076195698
 20
208.99043350286166
 11
1.0500631562957146E-13
 21
212.73300274382652
  0
LINE
  8
MountainLine
  6
CONTINUOUS
 62
1
 10
6.482320076195698
 20
208.99043350286166
 11
184.23218459949848
 21
106.36650137191319
  0
LINE
  8
ValleyLine
  6
CONTINUOUS
 62
5
 10
9.928388785500648
 20
230.04540649030287
 11
1.2250736823450004E-13
 21
235.77756442823085
  0
LINE
  8
MountainLine
  6
CONTINUOUS
 62
1
 10
9.928388785500648
 20
230.04540649030287
 11
204.18936043727015
 21
117.88878221411535
  0
LINE
  8
ValleyLine
  6
CONTINUOUS
 62
5
 10
14.885134105227815
 20
250.84338490241046
 11
1.4000842083942861E-13
 21
259.43732108498733
  0
LINE
  8
MountainLine
  6
CONTINUOUS
 62
1
 10
14.885134105227815
 20
250.84338490241046
 11
224.67931074937928
 21
129.71866054249358
  0
LINE
  8
ValleyLine
  6
CONTINUOUS
 62
5
 10
21.89944964470333
 20
271.9724208545733
 11
1.4000842083942861E-13
 21
284.6160740020473
  0
LINE
  8
MountainLine
  6
CONTINUOUS
 62
1
 10
21.89944964470333
 20
271.9724208545733
 11
246.48475041116473
 21
142.30803700102356
  0
LINE
  8
ValleyLine
  6
CONTINUOUS
 62
5
 10
31.57176078374743
 20
294.11328620849474
 11
1.5750947344435718E-13
 21
312.3412507957817
  0
LINE
  8
MountainLine
  6
CONTINUOUS
 62
1
 10
31.57176078374743
 20
294.11328620849474
 11
270.49545783895354
 21
156.17062539789075
  0
LINE
  8
ValleyLine
  6
CONTINUOUS
 62
5
 10
44.0874016526714
 20
317.0738528052524
 11
1.9251157865421435E-13
 21
342.5277260172933
  0
LINE
  8
MountainLine
  6
CONTINUOUS
 62
1
 10
44.0874016526714
 20
317.0738528052524
 11
296.63771223149206
 21
171.26386300864655
  0
LINE
  8
ValleyLine
  6
CONTINUOUS
 62
5
 10
59.640062358019186
 20
340.6764654613054
 11
1.7501052604928575E-13
 21
375.1096715181938
  0
LINE
  8
MountainLine
  6
CONTINUOUS
 62
1
 10
59.640062358019186
 20
340.6764654613054
 11
324.854504739992
 21
187.55483575909673
  0
LINE
  8
ValleyLine
  6
CONTINUOUS
 62
5
 10
78.45787016719255
 20
364.80311590538713
 11
2.1001263125914292E-13
 21
410.1007883664604
  0
LINE
  8
MountainLine
  6
CONTINUOUS
 62
1
 10
78.45787016719255
 20
364.80311590538713
 11
355.15770083738056
 21
205.05039418323005
  0
LINE
  8
ValleyLine
  6
CONTINUOUS
 62
5
 10
100.82111308024386
 20
389.42614090534175
 11
2.1001263125914292E-13
 21
447.6352376822182
  0
LINE
  8
MountainLine
  6
CONTINUOUS
 62
1
 10
100.82111308024386
 20
389.42614090534175
 11
387.6634874618863
 21
223.8176188411089
  0
LINE
  8
ValleyLine
  6
CONTINUOUS
 62
5
 10
126.43642465066358
 20
414.75580567517653
 11
2.450147364690001E-13
 21
487.75390948261094
  0
LINE
  8
MountainLine
  6
CONTINUOUS
 62
1
 10
126.43642465066358
 20
414.75580567517653
 11
422.4072764071168
 21
243.87695474130524
  0
LINE
  8
ValleyLine
  6
CONTINUOUS
 62
5
 10
154.8945117965553
 20
440.8015846064581
 11
2.8001684167885723E-13
 21
530.229972688195
  0
LINE
  8
MountainLine
  6
CONTINUOUS
 62
1
 10
154.8945117965553
 20
440.8015846064581
 11
459.192626195906
 21
265.11498634409725
  0
LINE
  8
ValleyLine
  6
CONTINUOUS
 62
5
 10
185.71143497735358
 20
467.44366063173334
 11
2.8001684167885723E-13
 21
574.6642076075001
  0
LINE
  8
MountainLine
  6
CONTINUOUS
 62
1
 10
185.71143497735358
 20
467.44366063173334
 11
497.67380243374987
 21
287.3321038037498
  0
LINE
  8
ValleyLine
  6
CONTINUOUS
 62
5
 10
218.35497191783756
 20
494.4785885339975
 11
3.1501894688871437E-13
 21
620.5458903496542
  0
LINE
  8
MountainLine
  6
CONTINUOUS
 62
1
 10
218.35497191783756
 20
494.4785885339975
 11
537.4085052568333
 21
310.2729451748268
  0
LINE
  8
ValleyLine
  6
CONTINUOUS
 62
5
 10
251.39980186465485
 20
520.5152265582584
 11
3.1501894688871437E-13
 21
665.6609698390355
  0
LINE
  8
MountainLine
  6
CONTINUOUS
 62
1
 10
251.39980186465485
 20
520.5152265582584
 11
576.4793101883918
 21
332.83048491951746
  0
LINE
  8
ValleyLine
  6
CONTINUOUS
 62
5
 10
283.4841168621611
 20
544.272440342085
 11
3.500210520985715E-13
 21
707.942071523437
  0
LINE
  8
MountainLine
  6
CONTINUOUS
 62
1
 10
283.4841168621611
 20
544.272440342085
 11
613.0958183470767
 21
353.97103576171827
  0
LINE
  8
ValleyLine
  6
CONTINUOUS
 62
5
 10
313.380029242811
 20
564.7010522661985
 11
3.500210520985715E-13
 21
745.6310965081882
  0
LINE
  8
MountainLine
  6
CONTINUOUS
 62
1
 10
313.380029242811
 20
564.7010522661985
 11
645.7354714277377
 21
372.8155482540939
  0
LINE
  8
MountainLine
  6
CONTINUOUS
 62
1
 10
340.1720198410435
 20
581.2929228274402
 11
3.500210520985715E-13
 21
777.6913300534454
  0
LINE
  8
ValleyLine
  6
CONTINUOUS
 62
5
 10
340.1720198410435
 20
581.2929228274402
 11
673.5004481291924
 21
388.8456650267224
  0
LINE
  8
MountainLine
  6
CONTINUOUS
 62
1
 10
371.3636015180419
 20
600.8612252541963
 11
3.500210520985715E-13
 21
815.2681005578665
  0
LINE
  8
ValleyLine
  6
CONTINUOUS
 62
5
 10
371.3636015180419
 20
600.8612252541963
 11
706.0428859781989
 21
407.63405027893305
  0
LINE
  8
MountainLine
  6
CONTINUOUS
 62
1
 10
414.61735420885697
 20
630.4946450286017
 11
4.900294729380002E-13
 21
869.8740860917757
  0
LINE
  8
ValleyLine
  6
CONTINUOUS
 62
5
 10
414.61735420885697
 20
630.4946450286017
 11
753.3330566492497
 21
434.93704304588755
  0
LINE
  8
MountainLine
  6
CONTINUOUS
 62
1
 10
478.55514668886144
 20
678.9434046433641
 11
4.900294729380002E-13
 21
955.2373474062591
  0
LINE
  8
ValleyLine
  6
CONTINUOUS
 62
5
 10
478.55514668886144
 20
678.9434046433641
 11
827.2598094974818
 21
477.6186737031293
  0
LINE
  8
MountainLine
  6
CONTINUOUS
 62
1
 10
572.0599253719644
 20
755.409926325855
 11
4.900294729380002E-13
 21
1085.6888782319559
  0
LINE
  8
ValleyLine
  6
CONTINUOUS
 62
5
 10
572.0599253719644
 20
755.409926325855
 11
940.2341491551041
 21
542.8444391159776
  0
LINE
  8
MountainLine
  6
CONTINUOUS
 62
1
 10
687.9452445007003
 20
853.2453609639883
 11
6.300378937774287E-13
 21
1250.4307330641907
  0
LINE
  8
ValleyLine
  6
CONTINUOUS
 62
5
 10
687.9452445007003
 20
853.2453609639883
 11
1082.9047805063876
 21
625.2153665320948
  0
LINE
  8
MountainLine
  6
CONTINUOUS
 62
1
 10
818.7952312178808
 20
965.403480052324
 11
7.00042104197143E-13
 21
1438.1351272071495
  0
LINE
  8
ValleyLine
  6
CONTINUOUS
 62
5
 10
818.7952312178808
 20
965.403480052324
 11
1245.4615542361569
 21
719.0675636035741
  0
LINE
  8
MountainLine
  6
CONTINUOUS
 62
1
 10
922.550996463807
 20
1054.904377430546
 11
7.00042104197143E-13
 21
1587.5394435800824
  0
LINE
  8
ValleyLine
  6
CONTINUOUS
 62
5
 10
922.550996463807
 20
1054.904377430546
 11
1374.849487650164
 21
793.7697217900406
  0
LINE
  8
ValleyLine
  6
CONTINUOUS
 62
5
 10
938.5706013530353
 20
1072.2857939781013
 11
7.00042104197143E-13
 21
1614.1697833227454
  0
LINE
  8
MountainLine
  6
CONTINUOUS
 62
1
 10
938.5706013530353
 20
1072.2857939781013
 11
1397.9120383787206
 21
807.084891661372
  0
LINE
  8
ValleyLine
  6
CONTINUOUS
 62
5
 10
957.8704222840842
 20
1086.009630910122
 11
8.400505250365717E-13
 21
1639.0363770646188
  0
LINE
  8
MountainLine
  6
CONTINUOUS
 62
1
 10
957.8704222840842
 20
1086.009630910122
 11
1419.44714026477
 21
819.5181885323086
  0
LINE
  8
ValleyLine
  6
CONTINUOUS
 62
5
 10
0.0
 20
-0.0
 11
0.0
 21
-0.0
  0
LINE
  8
ValleyLine
  6
CONTINUOUS
 62
5
 10
0.0
 20
-0.0
 11
-5.066555005364512
 21
2.9257769940524594
  0
LINE
  8
ValleyLine
  6
CONTINUOUS
 62
5
 10
-5.066555005364512
 20
2.9257769940524594
 11
-20.266220021458047
 21
11.703107976209838
  0
LINE
  8
ValleyLine
  6
CONTINUOUS
 62
5
 10
-20.266220021458047
 20
11.703107976209838
 11
-40.51867286835376
 21
23.408027321050962
  0
LINE
  8
ValleyLine
  6
CONTINUOUS
 62
5
 10
-40.51867286835376
 20
23.408027321050962
 11
-60.763109122686465
 21
35.1503751491692
  0
LINE
  8
ValleyLine
  6
CONTINUOUS
 62
5
 10
-60.763109122686465
 20
35.1503751491692
 11
-81.04401813700197
 21
47.03286609401969
  0
LINE
  8
ValleyLine
  6
CONTINUOUS
 62
5
 10
-81.04401813700197
 20
47.03286609401969
 11
-101.46200994363485
 21
59.25541865780694
  0
LINE
  8
ValleyLine
  6
CONTINUOUS
 62
5
 10
-101.46200994363485
 20
59.25541865780694
 11
-121.66982525560132
 21
71.72969840107328
  0
LINE
  8
ValleyLine
  6
CONTINUOUS
 62
5
 10
-121.66982525560132
 20
71.72969840107328
 11
-141.32837405532288
 21
84.38152047403165
  0
LINE
  8
ValleyLine
  6
CONTINUOUS
 62
5
 10
-141.32837405532288
 20
84.38152047403165
 11
-160.11764141858717
 21
97.16973905776432
  0
LINE
  8
ValleyLine
  6
CONTINUOUS
 62
5
 10
-160.11764141858717
 20
97.16973905776432
 11
-177.74986452330285
 21
110.10907061287806
  0
LINE
  8
ValleyLine
  6
CONTINUOUS
 62
5
 10
-177.74986452330285
 20
110.10907061287806
 11
-194.2609716517696
 21
123.62094015204342
  0
LINE
  8
ValleyLine
  6
CONTINUOUS
 62
5
 10
-194.2609716517696
 20
123.62094015204342
 11
-209.79417664415155
 21
138.31259672507053
  0
LINE
  8
ValleyLine
  6
CONTINUOUS
 62
5
 10
-209.79417664415155
 20
138.31259672507053
 11
-224.58530076646144
 21
154.95169014849765
  0
LINE
  8
ValleyLine
  6
CONTINUOUS
 62
5
 10
-224.58530076646144
 20
154.95169014849765
 11
-238.9236970552062
 21
174.3985899851778
  0
LINE
  8
ValleyLine
  6
CONTINUOUS
 62
5
 10
-238.9236970552062
 20
174.3985899851778
 11
-252.55031057882076
 21
196.7177362206875
  0
LINE
  8
ValleyLine
  6
CONTINUOUS
 62
5
 10
-252.55031057882076
 20
196.7177362206875
 11
-265.2144423819729
 21
221.9880418159852
  0
LINE
  8
ValleyLine
  6
CONTINUOUS
 62
5
 10
-265.2144423819729
 20
221.9880418159852
 11
-276.69983067018813
 21
250.34806664430337
  0
LINE
  8
ValleyLine
  6
CONTINUOUS
 62
5
 10
-276.69983067018813
 20
250.34806664430337
 11
-286.8423743816425
 21
282.0267156179854
  0
LINE
  8
ValleyLine
  6
CONTINUOUS
 62
5
 10
-286.8423743816425
 20
282.0267156179854
 11
-295.9708517564533
 21
316.8750585487398
  0
LINE
  8
ValleyLine
  6
CONTINUOUS
 62
5
 10
-295.9708517564533
 20
316.8750585487398
 11
-304.29811439935077
 21
354.5433744258342
  0
LINE
  8
ValleyLine
  6
CONTINUOUS
 62
5
 10
-304.29811439935077
 20
354.5433744258342
 11
-311.9623674563964
 21
394.5526507795167
  0
LINE
  8
ValleyLine
  6
CONTINUOUS
 62
5
 10
-311.9623674563964
 20
394.5526507795167
 11
-319.0535333389959
 21
436.34024699048354
  0
LINE
  8
ValleyLine
  6
CONTINUOUS
 62
5
 10
-319.0535333389959
 20
436.34024699048354
 11
-325.0795083237371
 21
477.97622820029466
  0
LINE
  8
ValleyLine
  6
CONTINUOUS
 62
5
 10
-325.0795083237371
 20
477.97622820029466
 11
-329.6117014849158
 21
517.6406669430704
  0
LINE
  8
ValleyLine
  6
CONTINUOUS
 62
5
 10
-329.6117014849158
 20
517.6406669430704
 11
-332.35544218492674
 21
553.7455924960836
  0
LINE
  8
ValleyLine
  6
CONTINUOUS
 62
5
 10
-332.35544218492674
 20
553.7455924960836
 11
-333.328428288149
 21
585.2440722527276
  0
LINE
  8
ValleyLine
  6
CONTINUOUS
 62
5
 10
-333.328428288149
 20
585.2440722527276
 11
-334.6792844601572
 21
622.0409255826034
  0
LINE
  8
ValleyLine
  6
CONTINUOUS
 62
5
 10
-334.6792844601572
 20
622.0409255826034
 11
-338.715702440393
 21
674.3164841090615
  0
LINE
  8
ValleyLine
  6
CONTINUOUS
 62
5
 10
-338.715702440393
 20
674.3164841090615
 11
-348.7046628086205
 21
753.9126164660244
  0
LINE
  8
ValleyLine
  6
CONTINUOUS
 62
5
 10
-348.7046628086205
 20
753.9126164660244
 11
-368.1742237831399
 21
873.1233910220785
  0
LINE
  8
ValleyLine
  6
CONTINUOUS
 62
5
 10
-368.1742237831399
 20
873.1233910220785
 11
-394.9595360056875
 21
1022.4007386322972
  0
LINE
  8
ValleyLine
  6
CONTINUOUS
 62
5
 10
-394.9595360056875
 20
1022.4007386322972
 11
-426.66632301827633
 21
1191.7992107583998
  0
LINE
  8
ValleyLine
  6
CONTINUOUS
 62
5
 10
-426.66632301827633
 20
1191.7992107583998
 11
-452.2984911863575
 21
1326.4047879395773
  0
LINE
  8
ValleyLine
  6
CONTINUOUS
 62
5
 10
-452.2984911863575
 20
1326.4047879395773
 11
-459.34143702568554
 21
1348.968881006016
  0
LINE
  8
ValleyLine
  6
CONTINUOUS
 62
5
 10
-459.34143702568554
 20
1348.968881006016
 11
-461.5767179806862
 21
1372.5449346868052
  0
LINE
  8
ValleyLine
  6
CONTINUOUS
 62
5
 10
-461.5767179806862
 20
1372.5449346868052
 11
-461.5767179806862
 21
1372.5449346868052
  0
LINE
  8
ValleyLine
  6
CONTINUOUS
 62
5
 10
0.0
 20
-0.0
 11
0.0
 21
-0.0
  0
LINE
  8
MountainLine
  6
CONTINUOUS
 62
1
 10
0.0
 20
-0.0
 11
0.0
 21
0.0
  0
LINE
  8
ValleyLine
  6
CONTINUOUS
 62
5
 10
0.0
 20
-0.0
 11
0.0
 21
-0.0
  0
LINE
  8
MountainLine
  6
CONTINUOUS
 62
1
 10
0.0
 20
-0.0
 11
0.0
 21
0.0
  0
LINE
  8
ValleyLine
  6
CONTINUOUS
 62
5
 10
-5.066555005364512
 20
2.9257769940524594
 11
-5.067074705339758
 21
2.9254769451318525
  0
LINE
  8
MountainLine
  6
CONTINUOUS
 62
1
 10
-5.066555005364512
 20
2.9257769940524594
 11
-5.46907893904018E-16
 21
5.850953890263707
  0
LINE
  8
ValleyLine
  6
CONTINUOUS
 62
5
 10
-20.266220021458047
 20
11.703107976209838
 11
-20.268298821359032
 21
11.70190778052741
  0
LINE
  8
MountainLine
  6
CONTINUOUS
 62
1
 10
-20.266220021458047
 20
11.703107976209838
 11
-2.187631575616072E-15
 21
23.403815561054827
  0
LINE
  8
ValleyLine
  6
CONTINUOUS
 62
5
 10
-40.51867286835376
 20
23.408027321050962
 11
-40.53128274668722
 21
23.400747004400696
  0
LINE
  8
MountainLine
  6
CONTINUOUS
 62
1
 10
-40.51867286835376
 20
23.408027321050962
 11
-8.750526302464288E-15
 21
46.801494008801406
  0
LINE
  8
ValleyLine
  6
CONTINUOUS
 62
5
 10
-60.763109122686465
 20
35.1503751491692
 11
-60.822672393077
 21
35.11598627897541
  0
LINE
  8
MountainLine
  6
CONTINUOUS
 62
1
 10
-60.763109122686465
 20
35.1503751491692
 11
-1.3125789453696433E-14
 21
70.23197255795083
  0
LINE
  8
ValleyLine
  6
CONTINUOUS
 62
5
 10
-81.04401813700197
 20
47.03286609401969
 11
-81.25366591871384
 21
46.91182589081335
  0
LINE
  8
MountainLine
  6
CONTINUOUS
 62
1
 10
-81.04401813700197
 20
47.03286609401969
 11
-8.750526302464288E-15
 21
93.8236517816267
  0
LINE
  8
ValleyLine
  6
CONTINUOUS
 62
5
 10
-101.46200994363485
 20
59.25541865780694
 11
-102.04770284136065
 21
58.91726870564249
  0
LINE
  8
MountainLine
  6
CONTINUOUS
 62
1
 10
-101.46200994363485
 20
59.25541865780694
 11
-1.7501052604928577E-14
 21
117.83453741128501
  0
LINE
  8
ValleyLine
  6
CONTINUOUS
 62
5
 10
-121.66982525560132
 20
71.72969840107328
 11
-122.95465364892617
 21
70.9879023823247
  0
LINE
  8
MountainLine
  6
CONTINUOUS
 62
1
 10
-121.66982525560132
 20
71.72969840107328
 11
-2.6251578907392865E-14
 21
141.97580476464944
  0
LINE
  8
ValleyLine
  6
CONTINUOUS
 62
5
 10
-141.32837405532288
 20
84.38152047403165
 11
-143.74072736812957
 21
82.98874763950221
  0
LINE
  8
MountainLine
  6
CONTINUOUS
 62
1
 10
-141.32837405532288
 20
84.38152047403165
 11
-2.6251578907392865E-14
 21
165.97749527900444
  0
LINE
  8
ValleyLine
  6
CONTINUOUS
 62
5
 10
-160.11764141858717
 20
97.16973905776432
 11
-164.21028321242247
 21
94.80685121639678
  0
LINE
  8
MountainLine
  6
CONTINUOUS
 62
1
 10
-160.11764141858717
 20
97.16973905776432
 11
-3.5002105209857153E-14
 21
189.6137024327936
  0
LINE
  8
ValleyLine
  6
CONTINUOUS
 62
5
 10
-177.74986452330285
 20
110.10907061287806
 11
-184.23218459949842
 21
106.36650137191322
  0
LINE
  8
MountainLine
  6
CONTINUOUS
 62
1
 10
-177.74986452330285
 20
110.10907061287806
 11
-3.5002105209857153E-14
 21
212.73300274382646
  0
LINE
  8
ValleyLine
  6
CONTINUOUS
 62
5
 10
-194.2609716517696
 20
123.62094015204342
 11
-204.1893604372701
 21
117.88878221411542
  0
LINE
  8
MountainLine
  6
CONTINUOUS
 62
1
 10
-194.2609716517696
 20
123.62094015204342
 11
-3.5002105209857153E-14
 21
235.77756442823085
  0
LINE
  8
ValleyLine
  6
CONTINUOUS
 62
5
 10
-209.79417664415155
 20
138.31259672507053
 11
-224.67931074937923
 21
129.71866054249367
  0
LINE
  8
MountainLine
  6
CONTINUOUS
 62
1
 10
-209.79417664415155
 20
138.31259672507053
 11
-3.5002105209857153E-14
 21
259.43732108498733
  0
LINE
  8
ValleyLine
  6
CONTINUOUS
 62
5
 10
-224.58530076646144
 20
154.95169014849765
 11
-246.48475041116464
 21
142.3080370010236
  0
LINE
  8
MountainLine
  6
CONTINUOUS
 62
1
 10
-224.58530076646144
 20
154.95169014849765
 11
-5.250315781478573E-14
 21
284.61607400204724
  0
LINE
  8
ValleyLine
  6
CONTINUOUS
 62
5
 10
-238.9236970552062
 20
174.3985899851778
 11
-270.4954578389535
 21
156.17062539789083
  0
LINE
  8
MountainLine
  6
CONTINUOUS
 62
1
 10
-238.9236970552062
 20
174.3985899851778
 11
-5.250315781478573E-14
 21
312.3412507957817
  0
LINE
  8
ValleyLine
  6
CONTINUOUS
 62
5
 10
-252.55031057882076
 20
196.7177362206875
 11
-296.637712231492
 21
171.2638630086466
  0
LINE
  8
MountainLine
  6
CONTINUOUS
 62
1
 10
-252.55031057882076
 20
196.7177362206875
 11
-7.000421041971431E-14
 21
342.5277260172933
  0
LINE
  8
ValleyLine
  6
CONTINUOUS
 62
5
 10
-265.2144423819729
 20
221.9880418159852
 11
-324.8545047399919
 21
187.55483575909687
  0
LINE
  8
MountainLine
  6
CONTINUOUS
 62
1
 10
-265.2144423819729
 20
221.9880418159852
 11
-7.000421041971431E-14
 21
375.10967151819375
  0
LINE
  8
ValleyLine
  6
CONTINUOUS
 62
5
 10
-276.69983067018813
 20
250.34806664430337
 11
-355.15770083738045
 21
205.05039418323014
  0
LINE
  8
MountainLine
  6
CONTINUOUS
 62
1
 10
-276.69983067018813
 20
250.34806664430337
 11
-7.000421041971431E-14
 21
410.1007883664604
  0
LINE
  8
ValleyLine
  6
CONTINUOUS
 62
5
 10
-286.8423743816425
 20
282.0267156179854
 11
-387.6634874618862
 21
223.81761884110907
  0
LINE
  8
MountainLine
  6
CONTINUOUS
 62
1
 10
-286.8423743816425
 20
282.0267156179854
 11
-7.000421041971431E-14
 21
447.6352376822182
  0
LINE
  8
ValleyLine
  6
CONTINUOUS
 62
5
 10
-295.9708517564533
 20
316.8750585487398
 11
-422.4072764071167
 21
243.87695474130538
  0
LINE
  8
MountainLine
  6
CONTINUOUS
 62
1
 10
-295.9708517564533
 20
316.8750585487398
 11
-7.000421041971431E-14
 21
487.75390948261094
  0
LINE
  8
ValleyLine
  6
CONTINUOUS
 62
5
 10
-304.29811439935077
 20
354.5433744258342
 11
-459.19262619590586
 21
265.1149863440974
  0
LINE
  8
MountainLine
  6
CONTINUOUS
 62
1
 10
-304.29811439935077
 20
354.5433744258342
 11
-7.000421041971431E-14
 21
530.229972688195
  0
LINE
  8
ValleyLine
  6
CONTINUOUS
 62
5
 10
-311.9623674563964
 20
394.5526507795167
 11
-497.67380243374976
 21
287.33210380375
  0
LINE
  8
MountainLine
  6
CONTINUOUS
 62
1
 10
-311.9623674563964
 20
394.5526507795167
 11
-1.0500631562957146E-13
 21
574.6642076075001
  0
LINE
  8
ValleyLine
  6
CONTINUOUS
 62
5
 10
-319.0535333389959
 20
436.34024699048354
 11
-537.4085052568332
 21
310.272945174827
  0
LINE
  8
MountainLine
  6
CONTINUOUS
 62
1
 10
-319.0535333389959
 20
436.34024699048354
 11
-1.0500631562957146E-13
 21
620.5458903496541
  0
LINE
  8
ValleyLine
  6
CONTINUOUS
 62
5
 10
-325.0795083237371
 20
477.97622820029466
 11
-576.4793101883917
 21
332.8304849195177
  0
LINE
  8
MountainLine
  6
CONTINUOUS
 62
1
 10
-325.0795083237371
 20
477.97622820029466
 11
-1.0500631562957146E-13
 21
665.6609698390355
  0
LINE
  8
ValleyLine
  6
CONTINUOUS
 62
5
 10
-329.6117014849158
 20
517.6406669430704
 11
-613.0958183470765
 21
353.9710357617185
  0
LINE
  8
MountainLine
  6
CONTINUOUS
 62
1
 10
-329.6117014849158
 20
517.6406669430704
 11
-1.0500631562957146E-13
 21
707.942071523437
  0
LINE
  8
ValleyLine
  6
CONTINUOUS
 62
5
 10
-332.35544218492674
 20
553.7455924960836
 11
-645.7354714277375
 21
372.81554825409404
  0
LINE
  8
MountainLine
  6
CONTINUOUS
 62
1
 10
-332.35544218492674
 20
553.7455924960836
 11
-1.4000842083942861E-13
 21
745.6310965081882
  0
LINE
  8
MountainLine
  6
CONTINUOUS
 62
1
 10
-333.328428288149
 20
585.2440722527276
 11
-673.5004481291921
 21
388.84566502672266
  0
LINE
  8
ValleyLine
  6
CONTINUOUS
 62
5
 10
-333.328428288149
 20
585.2440722527276
 11
-1.4000842083942861E-13
 21
777.6913300534453
  0
LINE
  8
MountainLine
  6
CONTINUOUS
 62
1
 10
-334.6792844601572
 20
622.0409255826034
 11
-706.0428859781989
 21
407.63405027893316
  0
LINE
  8
ValleyLine
  6
CONTINUOUS
 62
5
 10
-334.6792844601572
 20
622.0409255826034
 11
-7.000421041971431E-14
 21
815.2681005578665
  0
LINE
  8
MountainLine
  6
CONTINUOUS
 62
1
 10
-338.715702440393
 20
674.3164841090615
 11
-753.3330566492496
 21
434.93704304588783
  0
LINE
  8
ValleyLine
  6
CONTINUOUS
 62
5
 10
-338.715702440393
 20
674.3164841090615
 11
-1.4000842083942861E-13
 21
869.8740860917757
  0
LINE
  8
MountainLine
  6
CONTINUOUS
 62
1
 10
-348.7046628086205
 20
753.9126164660244
 11
-827.2598094974817
 21
477.61867370312956
  0
LINE
  8
ValleyLine
  6
CONTINUOUS
 62
5
 10
-348.7046628086205
 20
753.9126164660244
 11
-1.4000842083942861E-13
 21
955.2373474062591
  0
LINE
  8
MountainLine
  6
CONTINUOUS
 62
1
 10
-368.1742237831399
 20
873.1233910220785
 11
-940.2341491551039
 21
542.8444391159778
  0
LINE
  8
ValleyLine
  6
CONTINUOUS
 62
5
 10
-368.1742237831399
 20
873.1233910220785
 11
-1.4000842083942861E-13
 21
1085.6888782319559
  0
LINE
  8
MountainLine
  6
CONTINUOUS
 62
1
 10
-394.9595360056875
 20
1022.4007386322972
 11
-1082.9047805063874
 21
625.2153665320952
  0
LINE
  8
ValleyLine
  6
CONTINUOUS
 62
5
 10
-394.9595360056875
 20
1022.4007386322972
 11
-2.1001263125914292E-13
 21
1250.4307330641905
  0
LINE
  8
MountainLine
  6
CONTINUOUS
 62
1
 10
-426.66632301827633
 20
1191.7992107583998
 11
-1245.4615542361566
 21
719.0675636035746
  0
LINE
  8
ValleyLine
  6
CONTINUOUS
 62
5
 10
-426.66632301827633
 20
1191.7992107583998
 11
-2.1001263125914292E-13
 21
1438.1351272071493
  0
LINE
  8
MountainLine
  6
CONTINUOUS
 62
1
 10
-452.2984911863575
 20
1326.4047879395773
 11
-1374.8494876501638
 21
793.7697217900411
  0
LINE
  8
ValleyLine
  6
CONTINUOUS
 62
5
 10
-452.2984911863575
 20
1326.4047879395773
 11
-2.8001684167885723E-13
 21
1587.5394435800824
  0
LINE
  8
ValleyLine
  6
CONTINUOUS
 62
5
 10
-459.34143702568554
 20
1348.968881006016
 11
-1397.9120383787204
 21
807.0848916613726
  0
LINE
  8
MountainLine
  6
CONTINUOUS
 62
1
 10
-459.34143702568554
 20
1348.968881006016
 11
-2.8001684167885723E-13
 21
1614.1697833227452
  0
LINE
  8
ValleyLine
  6
CONTINUOUS
 62
5
 10
-461.5767179806862
 20
1372.5449346868052
 11
-1419.4471402647696
 21
819.5181885323091
  0
LINE
  8
MountainLine
  6
CONTINUOUS
 62
1
 10
-461.5767179806862
 20
1372.5449346868052
 11
-1.4000842083942861E-13
 21
1639.0363770646184
  0
ENDSEC
  0
EOF
