<svg xmlns="http://www.w3.org/2000/svg" width="1000" height="1000">
  <path stroke="gray" d="M27.46356 1.53344V0M25.93013 0v1.53344"/>
  <path stroke-dasharray="15,10" stroke="red" stroke-width="4" d="M500 501.53344L25.93013 655.56808"/>
  <path stroke="gray" d="M207.00871 904.80136L25.93013 655.56808"/>
  <path stroke-dasharray="15,10" stroke="red" stroke-width="4" d="M500 501.53344L207.00871 904.80136"/>
  <path stroke="gray" d="M500 1000l-292.99129-95.19864"/>
  <path stroke-dasharray="15,10" stroke="red" stroke-width="4" d="M500 501.53344V1000"/>
  <path stroke="gray" d="M792.99129 904.80136L500 1000"/>
  <path stroke-dasharray="15,10" stroke="red" stroke-width="4" d="M500 501.53344l292.99129 403.26792"/>
  <path stroke="gray" d="M974.06987 655.56808L792.99129 904.80136"/>
  <path stroke-dasharray="15,10" stroke="red" stroke-width="4" d="M500 501.53344l474.06987 154.03464"/>
  <path stroke="gray" d="M974.06987 347.4988v308.06928"/>
  <path stroke-dasharray="15,10" stroke="red" stroke-width="4" d="M500 501.53344L974.06987 347.4988"/>
  <path stroke="gray" d="M792.99129 98.26552L974.06987 347.4988"/>
  <path stroke-dasharray="15,10" stroke="red" stroke-width="4" d="M500 501.53344L792.99129 98.26552"/>
  <path stroke="gray" d="M500 3.06687l292.99129 95.19865"/>
  <path stroke-dasharray="15,10" stroke="red" stroke-width="4" d="M500 501.53344V3.06687"/>
  <path stroke="gray" d="M207.00871 98.26552L500 3.06687"/>
  <path stroke-dasharray="15,10" stroke="red" stroke-width="4" d="M500 501.53344L207.00871 98.26552"/>
  <path stroke="gray" d="M25.93013 347.4988L207.00871 98.26552"/>
  <path stroke-dasharray="15,10" stroke="red" stroke-width="4" d="M500 501.53344L25.93013 347.4988"/>
  <path stroke="gray" d="M25.93013 655.56808V347.4988"/>
  <path stroke="#00f" stroke-width="4" d="M500 501.53344l-11.89256 1.88347M488.10744 503.41691l-35.67767 5.65042M452.42977 509.06733l-44.12284 7.53888M408.30693 516.60621l-37.56269 7.54885M370.74424 524.15506l-29.12021 7.56379M341.62403 531.71885l-23.38638 7.58373M318.23765 539.30258l-23.23005 6.70925M295.0076 546.01183l-24.20509 4.94038M270.80251 550.95221l-24.14579 2.27711M246.65672 553.22932l-23.78984-1.28056M222.86688 551.94876l-25.33871-3.91892M197.52817 548.02984l-26.1586-5.63797M171.36957 542.39187l-25.05405-6.43769M146.31552 535.95418l-21.66891-6.31811M124.64661 529.63607l-19.33921-6.05154M105.3074 523.58453l-17.50019-5.63796M87.80721 517.94657l-61.87708-20.08043M25.93013 497.86614h0"/>
  <path stroke-dasharray="15,10" stroke="red" stroke-width="4" d="M488.10744 503.41691v1.98065"/>
  <path stroke="#00f" stroke-width="4" d="M488.10744 503.41691v-5.7476M452.42977 509.06733v7.92261"/>
  <path stroke-dasharray="15,10" stroke="red" stroke-width="4" d="M452.42977 509.06733v-22.9904"/>
  <path stroke="#00f" stroke-width="4" d="M408.30693 516.60621v14.72011"/>
  <path stroke-dasharray="15,10" stroke="red" stroke-width="4" d="M408.30693 516.60621v-44.86566"/>
  <path stroke="#00f" stroke-width="4" d="M370.74424 524.15506v19.37612"/>
  <path stroke-dasharray="15,10" stroke="red" stroke-width="4" d="M370.74424 524.15506v-64.61937"/>
  <path stroke="#00f" stroke-width="4" d="M341.62403 531.71885v21.27406"/>
  <path stroke-dasharray="15,10" stroke="red" stroke-width="4" d="M341.62403 531.71885v-81.64489"/>
  <path stroke="#00f" stroke-width="4" d="M318.23765 539.30258v21.28903"/>
  <path stroke-dasharray="15,10" stroke="red" stroke-width="4" d="M318.23765 539.30258v-96.82731"/>
  <path stroke="#00f" stroke-width="4" d="M295.0076 546.01183v22.12768"/>
  <path stroke-dasharray="15,10" stroke="red" stroke-width="4" d="M295.0076 546.01183V434.92737"/>
  <path stroke="#00f" stroke-width="4" d="M270.80251 550.95221v25.05201"/>
  <path stroke-dasharray="15,10" stroke="red" stroke-width="4" d="M270.80251 550.95221V427.06266"/>
  <path stroke="#00f" stroke-width="4" d="M246.65672 553.22932v30.62034"/>
  <path stroke-dasharray="15,10" stroke="red" stroke-width="4" d="M246.65672 553.22932V419.21721"/>
  <path stroke="#00f" stroke-width="4" d="M222.86688 551.94876v39.63069"/>
  <path stroke-dasharray="15,10" stroke="red" stroke-width="4" d="M222.86688 551.94876V411.48743"/>
  <path stroke="#00f" stroke-width="4" d="M197.52817 548.02984v51.78265"/>
  <path stroke-dasharray="15,10" stroke="red" stroke-width="4" d="M197.52817 548.02984V403.25438"/>
  <path stroke="#00f" stroke-width="4" d="M171.36957 542.39187v65.92007"/>
  <path stroke-dasharray="15,10" stroke="red" stroke-width="4" d="M171.36957 542.39187V394.75494"/>
  <path stroke="#00f" stroke-width="4" d="M146.31552 535.95418v80.49831"/>
  <path stroke-dasharray="15,10" stroke="red" stroke-width="4" d="M146.31552 535.95418v-149.3398"/>
  <path stroke="#00f" stroke-width="4" d="M124.64661 529.63607v93.85708"/>
  <path stroke-dasharray="15,10" stroke="red" stroke-width="4" d="M124.64661 529.63607V379.57373"/>
  <path stroke="#00f" stroke-width="4" d="M105.3074 523.58453v106.19231"/>
  <path stroke-dasharray="15,10" stroke="red" stroke-width="4" d="M105.3074 523.58453V373.29004"/>
  <path stroke="#00f" stroke-width="4" d="M87.80721 517.94657v117.51642"/>
  <path stroke-dasharray="15,10" stroke="red" stroke-width="4" d="M87.80721 517.94657V367.60388"/>
  <path stroke="#00f" stroke-width="4" d="M25.93013 497.86614v157.70194"/>
  <path stroke-dasharray="15,10" stroke="red" stroke-width="4" d="M25.93013 497.86614V347.4988"/>
  <path stroke="#00f" stroke-width="4" d="M500 501.53344l-8.5142 8.51403M491.4858 510.04747l-25.54261 25.5421M465.94319 535.58957l-31.26489 32.03384M434.6783 567.62341l-25.95175 28.18593M408.72655 595.80934l-19.11286 23.23567M389.61369 619.04501l-14.46238 19.88153M375.15131 638.92654l-14.8499 19.08218M360.30141 658.00872l-16.67845 18.22425M343.62296 676.23297l-18.1959 16.03476M325.42706 692.26773l-19.99908 12.94732M305.42798 705.21505l-22.80293 11.72325M282.62505 716.9383l-24.47667 10.81443M258.14838 727.75273l-24.05313 9.51819M234.09525 737.27092l-21.24421 7.62521M212.85104 744.89613l-19.20275 6.47151M193.64829 751.36764l-17.47186 5.72514M176.17643 757.09278l-61.86259 20.12503M114.31384 777.21781h0"/>
  <path stroke-dasharray="15,10" stroke="red" stroke-width="4" d="M491.4858 510.04747l1.16419 1.60238"/>
  <path stroke="#00f" stroke-width="4" d="M491.4858 510.04747l-3.37836-4.64991M465.94319 535.58957l4.65679 6.40952"/>
  <path stroke-dasharray="15,10" stroke="red" stroke-width="4" d="M465.94319 535.58957l-13.51342-18.59963"/>
  <path stroke="#00f" stroke-width="4" d="M434.6783 567.62341l8.65226 11.90881"/>
  <path stroke-dasharray="15,10" stroke="red" stroke-width="4" d="M434.6783 567.62341l-26.37137-36.29709"/>
  <path stroke="#00f" stroke-width="4" d="M408.72655 595.80934l11.389 15.67561"/>
  <path stroke-dasharray="15,10" stroke="red" stroke-width="4" d="M408.72655 595.80934l-37.98231-52.27816"/>
  <path stroke="#00f" stroke-width="4" d="M389.61369 619.04501l12.50457 17.21108"/>
  <path stroke-dasharray="15,10" stroke="red" stroke-width="4" d="M389.61369 619.04501l-47.98966-66.0521"/>
  <path stroke="#00f" stroke-width="4" d="M375.15131 638.92654l12.51338 17.22319"/>
  <path stroke-dasharray="15,10" stroke="red" stroke-width="4" d="M375.15131 638.92654l-56.91366-78.33493"/>
  <path stroke="#00f" stroke-width="4" d="M360.30141 658.00872l13.00632 17.90167"/>
  <path stroke-dasharray="15,10" stroke="red" stroke-width="4" d="M360.30141 658.00872l-65.29381-89.86921"/>
  <path stroke="#00f" stroke-width="4" d="M343.62296 676.23297l14.7252 20.2675"/>
  <path stroke-dasharray="15,10" stroke="red" stroke-width="4" d="M343.62296 676.23297l-72.82045-100.22875"/>
  <path stroke="#00f" stroke-width="4" d="M325.42706 692.26773l17.99818 24.77238"/>
  <path stroke-dasharray="15,10" stroke="red" stroke-width="4" d="M325.42706 692.26773l-78.77034-108.41807"/>
  <path stroke="#00f" stroke-width="4" d="M305.42798 705.21505l23.29433 32.0619"/>
  <path stroke-dasharray="15,10" stroke="red" stroke-width="4" d="M305.42798 705.21505l-82.5611-113.6356"/>
  <path stroke="#00f" stroke-width="4" d="M282.62505 716.9383l30.43708 41.89304"/>
  <path stroke-dasharray="15,10" stroke="red" stroke-width="4" d="M282.62505 716.9383l-85.09688-117.12581"/>
  <path stroke="#00f" stroke-width="4" d="M258.14838 727.75273l38.74684 53.33045"/>
  <path stroke-dasharray="15,10" stroke="red" stroke-width="4" d="M258.14838 727.75273l-86.77881-119.44079"/>
  <path stroke="#00f" stroke-width="4" d="M234.09525 737.27092l47.31572 65.12451"/>
  <path stroke-dasharray="15,10" stroke="red" stroke-width="4" d="M234.09525 737.27092l-87.77973-120.81843"/>
  <path stroke="#00f" stroke-width="4" d="M212.85104 744.89613l55.16781 75.93197"/>
  <path stroke-dasharray="15,10" stroke="red" stroke-width="4" d="M212.85104 744.89613l-88.20443-121.40298"/>
  <path stroke="#00f" stroke-width="4" d="M193.64829 751.36764l62.41827 85.91138"/>
  <path stroke-dasharray="15,10" stroke="red" stroke-width="4" d="M193.64829 751.36764l-88.34089-121.5908"/>
  <path stroke="#00f" stroke-width="4" d="M176.17643 757.09278l69.07442 95.07278"/>
  <path stroke-dasharray="15,10" stroke="red" stroke-width="4" d="M176.17643 757.09278L87.80721 635.46299"/>
  <path stroke="#00f" stroke-width="4" d="M114.31384 777.21781l92.69487 127.58355"/>
  <path stroke-dasharray="15,10" stroke="red" stroke-width="4" d="M114.31384 777.21781L25.93013 655.56808"/>
  <path stroke="#00f" stroke-width="4" d="M500 501.53344l-1.88371 11.89252M498.11629 513.42596l-5.65114 35.67756M492.46515 549.10352l-6.46481 44.29296M486.00034 593.39648l-4.42813 38.05696M481.57221 631.45344l-1.80504 30.03231M479.76717 661.48575l-.01424 24.58526M479.75293 686.07101l-.7976 24.16636M478.95533 710.23737l-2.7812 24.54707M476.17413 734.78444l-5.2958 23.66769M470.87833 758.45213l-8.56935 22.22976M462.30898 780.68189l-11.55721 22.88753M450.75177 803.56942l-13.44548 23.13608M437.30629 826.7055l-13.86474 21.83846M423.44155 848.54396l-12.70494 18.65596M410.73661 867.19992l-11.73149 16.52265M399.00512 883.72257l-10.76988 14.90144M388.23524 898.62401l-38.21869 52.64341M350.01655 951.26742h0"/>
  <path stroke-dasharray="15,10" stroke="red" stroke-width="4" d="M498.11629 513.42596l1.88371.61205"/>
  <path stroke="#00f" stroke-width="4" d="M498.11629 513.42596l-5.4663-1.77611M492.46515 549.10352L500 551.55174"/>
  <path stroke-dasharray="15,10" stroke="red" stroke-width="4" d="M492.46515 549.10352l-21.86517-7.10443"/>
  <path stroke="#00f" stroke-width="4" d="M486.00034 593.39648L500 597.94524"/>
  <path stroke-dasharray="15,10" stroke="red" stroke-width="4" d="M486.00034 593.39648l-42.66978-13.86426"/>
  <path stroke="#00f" stroke-width="4" d="M481.57221 631.45344L500 637.44099"/>
  <path stroke-dasharray="15,10" stroke="red" stroke-width="4" d="M481.57221 631.45344l-61.45666-19.96849"/>
  <path stroke="#00f" stroke-width="4" d="M479.76717 661.48575L500 668.05979"/>
  <path stroke-dasharray="15,10" stroke="red" stroke-width="4" d="M479.76717 661.48575l-77.64891-25.22966"/>
  <path stroke="#00f" stroke-width="4" d="M479.75293 686.07101L500 692.64969"/>
  <path stroke-dasharray="15,10" stroke="red" stroke-width="4" d="M479.75293 686.07101l-92.08824-29.92128"/>
  <path stroke="#00f" stroke-width="4" d="M478.95533 710.23737L500 717.0752"/>
  <path stroke-dasharray="15,10" stroke="red" stroke-width="4" d="M478.95533 710.23737l-105.6476-34.32698"/>
  <path stroke="#00f" stroke-width="4" d="M476.17413 734.78444L500 742.52594"/>
  <path stroke-dasharray="15,10" stroke="red" stroke-width="4" d="M476.17413 734.78444l-117.82597-38.28397"/>
  <path stroke="#00f" stroke-width="4" d="M470.87833 758.45213L500 767.91433"/>
  <path stroke-dasharray="15,10" stroke="red" stroke-width="4" d="M470.87833 758.45213l-127.45309-41.41202"/>
  <path stroke="#00f" stroke-width="4" d="M462.30898 780.68189L500 792.92845"/>
  <path stroke-dasharray="15,10" stroke="red" stroke-width="4" d="M462.30898 780.68189l-133.58667-43.40494"/>
  <path stroke="#00f" stroke-width="4" d="M450.75177 803.56942L500 819.57114"/>
  <path stroke-dasharray="15,10" stroke="red" stroke-width="4" d="M450.75177 803.56942l-137.68964-44.73808"/>
  <path stroke="#00f" stroke-width="4" d="M437.30629 826.7055L500 847.07592"/>
  <path stroke-dasharray="15,10" stroke="red" stroke-width="4" d="M437.30629 826.7055l-140.41107-45.62232"/>
  <path stroke="#00f" stroke-width="4" d="M423.44155 848.54396L500 873.41931"/>
  <path stroke-dasharray="15,10" stroke="red" stroke-width="4" d="M423.44155 848.54396l-142.03058-46.14853"/>
  <path stroke="#00f" stroke-width="4" d="M410.73661 867.19992L500 896.20335"/>
  <path stroke-dasharray="15,10" stroke="red" stroke-width="4" d="M410.73661 867.19992L268.01885 820.8281"/>
  <path stroke="#00f" stroke-width="4" d="M399.00512 883.72257L500 916.5378"/>
  <path stroke-dasharray="15,10" stroke="red" stroke-width="4" d="M399.00512 883.72257l-142.93856-46.44355"/>
  <path stroke="#00f" stroke-width="4" d="M388.23524 898.62401L500 934.93858"/>
  <path stroke-dasharray="15,10" stroke="red" stroke-width="4" d="M388.23524 898.62401l-142.98439-46.45845"/>
  <path stroke="#00f" stroke-width="4" d="M350.01655 951.26742L500 1000"/>
  <path stroke-dasharray="15,10" stroke="red" stroke-width="4" d="M350.01655 951.26742l-143.00784-46.46606"/>
  <path stroke="#00f" stroke-width="4" d="M500 501.53344l5.46629 10.72847M505.46629 512.26191l16.39888 32.18541M521.86517 544.44732l20.80461 39.63367M542.66978 584.08099l18.78689 33.39152M561.45667 617.47251l16.19223 25.35762M577.6489 642.83013l14.43934 19.89827M592.08824 662.7284l13.55936 20.01982M605.6476 682.74822l12.17837 21.49374M617.82597 704.24196l9.62712 22.26035M627.45309 726.50231l6.13357 23.0212M633.58666 749.52351l4.10298 25.30955M637.68964 774.83306l2.72143 26.62054M640.41107 801.4536l1.61951 25.81717M642.03058 827.27077l.68719 22.56077M642.71777 849.83154l.22079 20.2627M642.93856 870.09424l.04583 18.3859M642.98439 888.48014l.02345 65.05379M643.00784 953.53393h0"/>
  <path stroke-dasharray="15,10" stroke="red" stroke-width="4" d="M505.46629 512.26191l1.88372-.61206"/>
  <path stroke="#00f" stroke-width="4" d="M505.46629 512.26191L500 514.03801M521.86517 544.44732l7.53485-2.44823"/>
  <path stroke-dasharray="15,10" stroke="red" stroke-width="4" d="M521.86517 544.44732L500 551.55174"/>
  <path stroke="#00f" stroke-width="4" d="M542.66978 584.08099l13.99966-4.54877"/>
  <path stroke-dasharray="15,10" stroke="red" stroke-width="4" d="M542.66978 584.08099L500 597.94524"/>
  <path stroke="#00f" stroke-width="4" d="M561.45667 617.47251l18.42778-5.98756"/>
  <path stroke-dasharray="15,10" stroke="red" stroke-width="4" d="M561.45667 617.47251L500 637.44099"/>
  <path stroke="#00f" stroke-width="4" d="M577.6489 642.83013l20.23284-6.57404"/>
  <path stroke-dasharray="15,10" stroke="red" stroke-width="4" d="M577.6489 642.83013L500 668.05979"/>
  <path stroke="#00f" stroke-width="4" d="M592.08824 662.7284l20.24707-6.57867"/>
  <path stroke-dasharray="15,10" stroke="red" stroke-width="4" d="M592.08824 662.7284L500 692.64969"/>
  <path stroke="#00f" stroke-width="4" d="M605.6476 682.74822l21.04467-6.83783"/>
  <path stroke-dasharray="15,10" stroke="red" stroke-width="4" d="M605.6476 682.74822L500 717.0752"/>
  <path stroke="#00f" stroke-width="4" d="M617.82597 704.24196l23.82587-7.74149"/>
  <path stroke-dasharray="15,10" stroke="red" stroke-width="4" d="M617.82597 704.24196L500 742.52594"/>
  <path stroke="#00f" stroke-width="4" d="M627.45309 726.50231l29.12167-9.4622"/>
  <path stroke-dasharray="15,10" stroke="red" stroke-width="4" d="M627.45309 726.50231L500 767.91433"/>
  <path stroke="#00f" stroke-width="4" d="M633.58666 749.52351l37.69103-12.24656"/>
  <path stroke-dasharray="15,10" stroke="red" stroke-width="4" d="M633.58666 749.52351L500 792.92845"/>
  <path stroke="#00f" stroke-width="4" d="M637.68964 774.83306l49.24823-16.00172"/>
  <path stroke-dasharray="15,10" stroke="red" stroke-width="4" d="M637.68964 774.83306L500 819.57114"/>
  <path stroke="#00f" stroke-width="4" d="M640.41107 801.4536l62.69371-20.37042"/>
  <path stroke-dasharray="15,10" stroke="red" stroke-width="4" d="M640.41107 801.4536L500 847.07592"/>
  <path stroke="#00f" stroke-width="4" d="M642.03058 827.27077l76.55845-24.87534"/>
  <path stroke-dasharray="15,10" stroke="red" stroke-width="4" d="M642.03058 827.27077L500 873.41931"/>
  <path stroke="#00f" stroke-width="4" d="M642.71777 849.83154l89.26338-29.00344"/>
  <path stroke-dasharray="15,10" stroke="red" stroke-width="4" d="M642.71777 849.83154L500 896.20335"/>
  <path stroke="#00f" stroke-width="4" d="M642.93856 870.09424l100.99488-32.81522"/>
  <path stroke-dasharray="15,10" stroke="red" stroke-width="4" d="M642.93856 870.09424L500 916.5378"/>
  <path stroke="#00f" stroke-width="4" d="M642.98439 888.48014l111.76476-36.31458"/>
  <path stroke-dasharray="15,10" stroke="red" stroke-width="4" d="M642.98439 888.48014L500 934.93858"/>
  <path stroke="#00f" stroke-width="4" d="M643.00784 953.53393l149.98345-48.73257"/>
  <path stroke-dasharray="15,10" stroke="red" stroke-width="4" d="M643.00784 953.53393L500 1000"/>
  <path stroke="#00f" stroke-width="4" d="M500 501.53344l10.72836 5.46651M510.72836 506.99995l32.18508 16.39952M542.91344 523.39947l40.12737 19.83567M583.04081 543.23514l34.82595 15.97165M617.86676 559.20679l28.00464 10.9972M645.8714 570.20399l23.37758 7.6108M669.24898 577.81479l22.7371 8.22638M691.98608 586.04117l22.48621 10.23054M714.47229 596.27171l20.87281 12.35032M735.3451 608.62203l18.49369 15.01932M753.83879 623.64135l18.19596 18.06419M772.03475 641.70554l17.84884 19.93685M789.88359 661.64239l16.48517 19.93461M806.36876 681.577l13.81682 17.84812M820.18558 699.42512l12.08875 16.26309M832.27433 715.68821l10.84404 14.84757M843.11837 730.53578l38.25663 52.61584M881.375 783.15162h0"/>
  <path stroke-dasharray="15,10" stroke="red" stroke-width="4" d="M510.72836 506.99995l1.1642-1.60239"/>
  <path stroke="#00f" stroke-width="4" d="M510.72836 506.99995l-3.37835 4.6499M542.91344 523.39947l4.65679-6.40953"/>
  <path stroke-dasharray="15,10" stroke="red" stroke-width="4" d="M542.91344 523.39947l-13.51342 18.59962"/>
  <path stroke="#00f" stroke-width="4" d="M583.04081 543.23514l8.65226-11.90882"/>
  <path stroke-dasharray="15,10" stroke="red" stroke-width="4" d="M583.04081 543.23514l-26.37137 36.29708"/>
  <path stroke="#00f" stroke-width="4" d="M617.86676 559.20679l11.389-15.67561"/>
  <path stroke-dasharray="15,10" stroke="red" stroke-width="4" d="M617.86676 559.20679l-37.98231 52.27816"/>
  <path stroke="#00f" stroke-width="4" d="M645.8714 570.20399l12.50457-17.21108"/>
  <path stroke-dasharray="15,10" stroke="red" stroke-width="4" d="M645.8714 570.20399l-47.98966 66.0521"/>
  <path stroke="#00f" stroke-width="4" d="M669.24898 577.81479l12.51337-17.22318"/>
  <path stroke-dasharray="15,10" stroke="red" stroke-width="4" d="M669.24898 577.81479l-56.91367 78.33494"/>
  <path stroke="#00f" stroke-width="4" d="M691.98608 586.04117l13.00632-17.90166"/>
  <path stroke-dasharray="15,10" stroke="red" stroke-width="4" d="M691.98608 586.04117l-65.29381 89.86922"/>
  <path stroke="#00f" stroke-width="4" d="M714.47229 596.27171l14.7252-20.26749"/>
  <path stroke-dasharray="15,10" stroke="red" stroke-width="4" d="M714.47229 596.27171l-72.82045 100.22876"/>
  <path stroke="#00f" stroke-width="4" d="M735.3451 608.62203l17.99818-24.77237"/>
  <path stroke-dasharray="15,10" stroke="red" stroke-width="4" d="M735.3451 608.62203l-78.77034 108.41808"/>
  <path stroke="#00f" stroke-width="4" d="M753.83879 623.64135l23.29433-32.0619"/>
  <path stroke-dasharray="15,10" stroke="red" stroke-width="4" d="M753.83879 623.64135l-82.5611 113.6356"/>
  <path stroke="#00f" stroke-width="4" d="M772.03475 641.70554l30.43708-41.89305"/>
  <path stroke-dasharray="15,10" stroke="red" stroke-width="4" d="M772.03475 641.70554l-85.09688 117.1258"/>
  <path stroke="#00f" stroke-width="4" d="M789.88359 661.64239l38.74684-53.33045"/>
  <path stroke-dasharray="15,10" stroke="red" stroke-width="4" d="M789.88359 661.64239l-86.77881 119.44079"/>
  <path stroke="#00f" stroke-width="4" d="M806.36876 681.577l47.31572-65.12451"/>
  <path stroke-dasharray="15,10" stroke="red" stroke-width="4" d="M806.36876 681.577l-87.77973 120.81843"/>
  <path stroke="#00f" stroke-width="4" d="M820.18558 699.42512l55.16781-75.93197"/>
  <path stroke-dasharray="15,10" stroke="red" stroke-width="4" d="M820.18558 699.42512L731.98115 820.8281"/>
  <path stroke="#00f" stroke-width="4" d="M832.27433 715.68821l62.41827-85.91137"/>
  <path stroke-dasharray="15,10" stroke="red" stroke-width="4" d="M832.27433 715.68821l-88.34089 121.59081"/>
  <path stroke="#00f" stroke-width="4" d="M843.11837 730.53578l69.07442-95.07279"/>
  <path stroke-dasharray="15,10" stroke="red" stroke-width="4" d="M843.11837 730.53578l-88.36922 121.62978"/>
  <path stroke="#00f" stroke-width="4" d="M881.375 783.15162l92.69487-127.58354"/>
  <path stroke-dasharray="15,10" stroke="red" stroke-width="4" d="M881.375 783.15162l-88.38371 121.64974"/>
  <path stroke="#00f" stroke-width="4" d="M500 501.53344l11.89256-1.88348M511.89256 499.64996l35.67767-5.65042M547.57023 493.99954l44.12284-7.53888M591.69307 486.46066l37.56269-7.54884M629.25576 478.91182l29.12021-7.5638M658.37597 471.34802l23.38638-7.58372M681.76235 463.7643l23.23005-6.70925M704.9924 457.05505l24.20509-4.94039M729.19749 452.11466l24.14579-2.27711M753.34328 449.83755l23.78984 1.28057M777.13312 451.11812l25.33871 3.91892M802.47183 455.03704l26.1586 5.63796M828.63043 460.675l25.05405 6.4377M853.68448 467.1127l21.66891 6.31811M875.35339 473.43081l19.33921 6.05153M894.6926 479.48234l17.50019 5.63797M912.19279 485.12031l61.87708 20.08042M974.06987 505.20073h0"/>
  <path stroke-dasharray="15,10" stroke="red" stroke-width="4" d="M511.89256 499.64996v-1.98065"/>
  <path stroke="#00f" stroke-width="4" d="M511.89256 499.64996v5.7476M547.57023 493.99954v-7.92261"/>
  <path stroke-dasharray="15,10" stroke="red" stroke-width="4" d="M547.57023 493.99954v22.9904"/>
  <path stroke="#00f" stroke-width="4" d="M591.69307 486.46066v-14.72011"/>
  <path stroke-dasharray="15,10" stroke="red" stroke-width="4" d="M591.69307 486.46066v44.86566"/>
  <path stroke="#00f" stroke-width="4" d="M629.25576 478.91182v-19.37613"/>
  <path stroke-dasharray="15,10" stroke="red" stroke-width="4" d="M629.25576 478.91182v64.61936"/>
  <path stroke="#00f" stroke-width="4" d="M658.37597 471.34802v-21.27406"/>
  <path stroke-dasharray="15,10" stroke="red" stroke-width="4" d="M658.37597 471.34802v81.64489"/>
  <path stroke="#00f" stroke-width="4" d="M681.76235 463.7643v-21.28903"/>
  <path stroke-dasharray="15,10" stroke="red" stroke-width="4" d="M681.76235 463.7643v96.82731"/>
  <path stroke="#00f" stroke-width="4" d="M704.9924 457.05505v-22.12768"/>
  <path stroke-dasharray="15,10" stroke="red" stroke-width="4" d="M704.9924 457.05505v111.08446"/>
  <path stroke="#00f" stroke-width="4" d="M729.19749 452.11466v-25.052"/>
  <path stroke-dasharray="15,10" stroke="red" stroke-width="4" d="M729.19749 452.11466v123.88956"/>
  <path stroke="#00f" stroke-width="4" d="M753.34328 449.83755v-30.62034"/>
  <path stroke-dasharray="15,10" stroke="red" stroke-width="4" d="M753.34328 449.83755v134.01211"/>
  <path stroke="#00f" stroke-width="4" d="M777.13312 451.11812v-39.63069"/>
  <path stroke-dasharray="15,10" stroke="red" stroke-width="4" d="M777.13312 451.11812v140.46133"/>
  <path stroke="#00f" stroke-width="4" d="M802.47183 455.03704v-51.78266"/>
  <path stroke-dasharray="15,10" stroke="red" stroke-width="4" d="M802.47183 455.03704v144.77545"/>
  <path stroke="#00f" stroke-width="4" d="M828.63043 460.675v-65.92006"/>
  <path stroke-dasharray="15,10" stroke="red" stroke-width="4" d="M828.63043 460.675v147.63694"/>
  <path stroke="#00f" stroke-width="4" d="M853.68448 467.1127v-80.49832"/>
  <path stroke-dasharray="15,10" stroke="red" stroke-width="4" d="M853.68448 467.1127v149.33979"/>
  <path stroke="#00f" stroke-width="4" d="M875.35339 473.43081v-93.85708"/>
  <path stroke-dasharray="15,10" stroke="red" stroke-width="4" d="M875.35339 473.43081v150.06234"/>
  <path stroke="#00f" stroke-width="4" d="M894.6926 479.48234v-106.1923"/>
  <path stroke-dasharray="15,10" stroke="red" stroke-width="4" d="M894.6926 479.48234v150.2945"/>
  <path stroke="#00f" stroke-width="4" d="M912.19279 485.12031V367.60388"/>
  <path stroke-dasharray="15,10" stroke="red" stroke-width="4" d="M912.19279 485.12031v150.34268"/>
  <path stroke="#00f" stroke-width="4" d="M974.06987 505.20073V347.4988"/>
  <path stroke-dasharray="15,10" stroke="red" stroke-width="4" d="M974.06987 505.20073v150.36735"/>
  <path stroke="#00f" stroke-width="4" d="M500 501.53344l8.5142-8.51404M508.5142 493.0194l25.54261-25.54209M534.05681 467.47731l31.26489-32.03384M565.3217 435.44347l25.95175-28.18594M591.27345 407.25753l19.11286-23.23567M610.38631 384.02186l14.46238-19.88153M624.84869 364.14033l14.8499-19.08218M639.69859 345.05815l16.67845-18.22424M656.37704 326.83391l18.1959-16.03477M674.57294 310.79914l19.99908-12.94732M694.57202 297.85182l22.80293-11.72324M717.37495 286.12858l24.47667-10.81443M741.85162 275.31415l24.05313-9.5182M765.90475 265.79595l21.24421-7.62521M787.14896 258.17074l19.20275-6.4715M806.35171 251.69924l17.47186-5.72515M823.82357 245.97409l61.86259-20.12503M885.68616 225.84906h0"/>
  <path stroke-dasharray="15,10" stroke="red" stroke-width="4" d="M508.5142 493.0194l-1.16419-1.60238"/>
  <path stroke="#00f" stroke-width="4" d="M508.5142 493.0194l3.37836 4.64991M534.05681 467.47731l-4.65679-6.40953"/>
  <path stroke-dasharray="15,10" stroke="red" stroke-width="4" d="M534.05681 467.47731l13.51342 18.59962"/>
  <path stroke="#00f" stroke-width="4" d="M565.3217 435.44347l-8.65226-11.90882"/>
  <path stroke-dasharray="15,10" stroke="red" stroke-width="4" d="M565.3217 435.44347l26.37137 36.29708"/>
  <path stroke="#00f" stroke-width="4" d="M591.27345 407.25753l-11.389-15.67561"/>
  <path stroke-dasharray="15,10" stroke="red" stroke-width="4" d="M591.27345 407.25753l37.98231 52.27816"/>
  <path stroke="#00f" stroke-width="4" d="M610.38631 384.02186l-12.50457-17.21107"/>
  <path stroke-dasharray="15,10" stroke="red" stroke-width="4" d="M610.38631 384.02186l47.98966 66.0521"/>
  <path stroke="#00f" stroke-width="4" d="M624.84869 364.14033l-12.51338-17.22319"/>
  <path stroke-dasharray="15,10" stroke="red" stroke-width="4" d="M624.84869 364.14033l56.91366 78.33494"/>
  <path stroke="#00f" stroke-width="4" d="M639.69859 345.05815l-13.00632-17.90166"/>
  <path stroke-dasharray="15,10" stroke="red" stroke-width="4" d="M639.69859 345.05815l65.29381 89.86922"/>
  <path stroke="#00f" stroke-width="4" d="M656.37704 326.83391l-14.7252-20.2675"/>
  <path stroke-dasharray="15,10" stroke="red" stroke-width="4" d="M656.37704 326.83391l72.82045 100.22875"/>
  <path stroke="#00f" stroke-width="4" d="M674.57294 310.79914l-17.99818-24.77237"/>
  <path stroke-dasharray="15,10" stroke="red" stroke-width="4" d="M674.57294 310.79914l78.77034 108.41807"/>
  <path stroke="#00f" stroke-width="4" d="M694.57202 297.85182l-23.29433-32.0619"/>
  <path stroke-dasharray="15,10" stroke="red" stroke-width="4" d="M694.57202 297.85182l82.5611 113.63561"/>
  <path stroke="#00f" stroke-width="4" d="M717.37495 286.12858l-30.43708-41.89305"/>
  <path stroke-dasharray="15,10" stroke="red" stroke-width="4" d="M717.37495 286.12858l85.09688 117.1258"/>
  <path stroke="#00f" stroke-width="4" d="M741.85162 275.31415l-38.74684-53.33045"/>
  <path stroke-dasharray="15,10" stroke="red" stroke-width="4" d="M741.85162 275.31415l86.77881 119.44079"/>
  <path stroke="#00f" stroke-width="4" d="M765.90475 265.79595l-47.31572-65.1245"/>
  <path stroke-dasharray="15,10" stroke="red" stroke-width="4" d="M765.90475 265.79595l87.77973 120.81843"/>
  <path stroke="#00f" stroke-width="4" d="M787.14896 258.17074l-55.16781-75.93197"/>
  <path stroke-dasharray="15,10" stroke="red" stroke-width="4" d="M787.14896 258.17074l88.20443 121.40299"/>
  <path stroke="#00f" stroke-width="4" d="M806.35171 251.69924l-62.41827-85.91138"/>
  <path stroke-dasharray="15,10" stroke="red" stroke-width="4" d="M806.35171 251.69924l88.34089 121.5908"/>
  <path stroke="#00f" stroke-width="4" d="M823.82357 245.97409l-69.07442-95.07278"/>
  <path stroke-dasharray="15,10" stroke="red" stroke-width="4" d="M823.82357 245.97409l88.36922 121.62979"/>
  <path stroke="#00f" stroke-width="4" d="M885.68616 225.84906L792.99129 98.26552"/>
  <path stroke-dasharray="15,10" stroke="red" stroke-width="4" d="M885.68616 225.84906l88.38371 121.64974"/>
  <path stroke="#00f" stroke-width="4" d="M500 501.53344l1.88371-11.89252M501.88371 489.64092l5.65114-35.67757M507.53485 453.96335l6.46481-44.29295M513.99966 409.6704l4.42813-38.05696M518.42779 371.61344l1.80504-30.03231M520.23283 341.58113l.01424-24.58527M520.24707 316.99586l.7976-24.16636M521.04467 292.8295l2.7812-24.54707M523.82587 268.28243l5.2958-23.66768M529.12167 244.61475l8.56935-22.22977M537.69102 222.38498l11.55721-22.88753M549.24823 199.49745l13.44548-23.13608M562.69371 176.36137l13.86474-21.83846M576.55845 154.52291l12.70494-18.65595M589.26339 135.86696l11.73149-16.52266M600.99488 119.3443l10.76988-14.90144M611.76476 104.44286l38.21869-52.64341M649.98345 51.79945h0"/>
  <path stroke-dasharray="15,10" stroke="red" stroke-width="4" d="M501.88371 489.64092L500 489.02886"/>
  <path stroke="#00f" stroke-width="4" d="M501.88371 489.64092l5.4663 1.7761M507.53485 453.96335L500 451.51513"/>
  <path stroke-dasharray="15,10" stroke="red" stroke-width="4" d="M507.53485 453.96335l21.86517 7.10443"/>
  <path stroke="#00f" stroke-width="4" d="M513.99966 409.6704L500 405.12163"/>
  <path stroke-dasharray="15,10" stroke="red" stroke-width="4" d="M513.99966 409.6704l42.66978 13.86425"/>
  <path stroke="#00f" stroke-width="4" d="M518.42779 371.61344L500 365.62589"/>
  <path stroke-dasharray="15,10" stroke="red" stroke-width="4" d="M518.42779 371.61344l61.45666 19.96848"/>
  <path stroke="#00f" stroke-width="4" d="M520.23283 341.58113L500 335.00708"/>
  <path stroke-dasharray="15,10" stroke="red" stroke-width="4" d="M520.23283 341.58113l77.64891 25.22966"/>
  <path stroke="#00f" stroke-width="4" d="M520.24707 316.99586L500 310.41719"/>
  <path stroke-dasharray="15,10" stroke="red" stroke-width="4" d="M520.24707 316.99586l92.08824 29.92128"/>
  <path stroke="#00f" stroke-width="4" d="M521.04467 292.8295L500 285.99167"/>
  <path stroke-dasharray="15,10" stroke="red" stroke-width="4" d="M521.04467 292.8295l105.6476 34.32699"/>
  <path stroke="#00f" stroke-width="4" d="M523.82587 268.28243L500 260.54094"/>
  <path stroke-dasharray="15,10" stroke="red" stroke-width="4" d="M523.82587 268.28243l117.82597 38.28398"/>
  <path stroke="#00f" stroke-width="4" d="M529.12167 244.61475L500 235.15254"/>
  <path stroke-dasharray="15,10" stroke="red" stroke-width="4" d="M529.12167 244.61475l127.45309 41.41202"/>
  <path stroke="#00f" stroke-width="4" d="M537.69102 222.38498L500 210.13843"/>
  <path stroke-dasharray="15,10" stroke="red" stroke-width="4" d="M537.69102 222.38498l133.58667 43.40494"/>
  <path stroke="#00f" stroke-width="4" d="M549.24823 199.49745L500 183.49573"/>
  <path stroke-dasharray="15,10" stroke="red" stroke-width="4" d="M549.24823 199.49745l137.68964 44.73808"/>
  <path stroke="#00f" stroke-width="4" d="M562.69371 176.36137L500 155.99095"/>
  <path stroke-dasharray="15,10" stroke="red" stroke-width="4" d="M562.69371 176.36137l140.41107 45.62233"/>
  <path stroke="#00f" stroke-width="4" d="M576.55845 154.52291L500 129.64757"/>
  <path stroke-dasharray="15,10" stroke="red" stroke-width="4" d="M576.55845 154.52291l142.03058 46.14854"/>
  <path stroke="#00f" stroke-width="4" d="M589.26339 135.86696L500 106.86352"/>
  <path stroke-dasharray="15,10" stroke="red" stroke-width="4" d="M589.26339 135.86696l142.71776 46.37181"/>
  <path stroke="#00f" stroke-width="4" d="M600.99488 119.3443L500 86.52908"/>
  <path stroke-dasharray="15,10" stroke="red" stroke-width="4" d="M600.99488 119.3443l142.93856 46.44356"/>
  <path stroke="#00f" stroke-width="4" d="M611.76476 104.44286L500 68.12829"/>
  <path stroke-dasharray="15,10" stroke="red" stroke-width="4" d="M611.76476 104.44286l142.98439 46.45845"/>
  <path stroke="#00f" stroke-width="4" d="M649.98345 51.79945L500 3.06687"/>
  <path stroke-dasharray="15,10" stroke="red" stroke-width="4" d="M649.98345 51.79945l143.00784 46.46607"/>
  <path stroke="#00f" stroke-width="4" d="M500 501.53344l-5.46629-10.72847M494.53371 490.80497l-16.39888-32.18541M478.13483 458.61956l-20.80461-39.63367M457.33022 418.98589l-18.78689-33.39152M438.54333 385.59437l-16.19223-25.35763M422.3511 360.23674l-14.43934-19.89827M407.91176 340.33847l-13.55936-20.01981M394.3524 320.31866l-12.17837-21.49375M382.17403 298.82491l-9.62712-22.26035M372.54691 276.56456l-6.13357-23.02119M366.41334 253.54337l-4.10298-25.30956M362.31036 228.23381l-2.72143-26.62054M359.58893 201.61327l-1.61951-25.81717M357.96942 175.7961l-.68719-22.56076M357.28223 153.23534l-.22079-20.26271M357.06144 132.97263l-.04583-18.38589M357.01561 114.58674l-.02345-65.0538M356.99216 49.53294h0"/>
  <path stroke-dasharray="15,10" stroke="red" stroke-width="4" d="M494.53371 490.80497l-1.88372.61205"/>
  <path stroke="#00f" stroke-width="4" d="M494.53371 490.80497L500 489.02886M478.13483 458.61956l-7.53485 2.44822"/>
  <path stroke-dasharray="15,10" stroke="red" stroke-width="4" d="M478.13483 458.61956L500 451.51513"/>
  <path stroke="#00f" stroke-width="4" d="M457.33022 418.98589l-13.99966 4.54876"/>
  <path stroke-dasharray="15,10" stroke="red" stroke-width="4" d="M457.33022 418.98589L500 405.12163"/>
  <path stroke="#00f" stroke-width="4" d="M438.54333 385.59437l-18.42778 5.98755"/>
  <path stroke-dasharray="15,10" stroke="red" stroke-width="4" d="M438.54333 385.59437L500 365.62589"/>
  <path stroke="#00f" stroke-width="4" d="M422.3511 360.23674l-20.23284 6.57405"/>
  <path stroke-dasharray="15,10" stroke="red" stroke-width="4" d="M422.3511 360.23674L500 335.00708"/>
  <path stroke="#00f" stroke-width="4" d="M407.91176 340.33847l-20.24707 6.57867"/>
  <path stroke-dasharray="15,10" stroke="red" stroke-width="4" d="M407.91176 340.33847L500 310.41719"/>
  <path stroke="#00f" stroke-width="4" d="M394.3524 320.31866l-21.04467 6.83783"/>
  <path stroke-dasharray="15,10" stroke="red" stroke-width="4" d="M394.3524 320.31866L500 285.99167"/>
  <path stroke="#00f" stroke-width="4" d="M382.17403 298.82491l-23.82587 7.7415"/>
  <path stroke-dasharray="15,10" stroke="red" stroke-width="4" d="M382.17403 298.82491L500 260.54094"/>
  <path stroke="#00f" stroke-width="4" d="M372.54691 276.56456l-29.12167 9.46221"/>
  <path stroke-dasharray="15,10" stroke="red" stroke-width="4" d="M372.54691 276.56456L500 235.15254"/>
  <path stroke="#00f" stroke-width="4" d="M366.41334 253.54337l-37.69103 12.24655"/>
  <path stroke-dasharray="15,10" stroke="red" stroke-width="4" d="M366.41334 253.54337L500 210.13843"/>
  <path stroke="#00f" stroke-width="4" d="M362.31036 228.23381l-49.24823 16.00172"/>
  <path stroke-dasharray="15,10" stroke="red" stroke-width="4" d="M362.31036 228.23381L500 183.49573"/>
  <path stroke="#00f" stroke-width="4" d="M359.58893 201.61327l-62.69371 20.37043"/>
  <path stroke-dasharray="15,10" stroke="red" stroke-width="4" d="M359.58893 201.61327L500 155.99095"/>
  <path stroke="#00f" stroke-width="4" d="M357.96942 175.7961l-76.55845 24.87535"/>
  <path stroke-dasharray="15,10" stroke="red" stroke-width="4" d="M357.96942 175.7961L500 129.64757"/>
  <path stroke="#00f" stroke-width="4" d="M357.28223 153.23534l-89.26338 29.00343"/>
  <path stroke-dasharray="15,10" stroke="red" stroke-width="4" d="M357.28223 153.23534L500 106.86352"/>
  <path stroke="#00f" stroke-width="4" d="M357.06144 132.97263l-100.99488 32.81523"/>
  <path stroke-dasharray="15,10" stroke="red" stroke-width="4" d="M357.06144 132.97263L500 86.52908"/>
  <path stroke="#00f" stroke-width="4" d="M357.01561 114.58674l-111.76476 36.31457"/>
  <path stroke-dasharray="15,10" stroke="red" stroke-width="4" d="M357.01561 114.58674L500 68.12829"/>
  <path stroke="#00f" stroke-width="4" d="M356.99216 49.53294L207.00871 98.26552"/>
  <path stroke-dasharray="15,10" stroke="red" stroke-width="4" d="M356.99216 49.53294L500 3.06687"/>
  <path stroke="#00f" stroke-width="4" d="M500 501.53344l-10.72836-5.46651M489.27164 496.06693l-32.18508-16.39952M457.08656 479.66741l-40.12737-19.83568M416.95919 459.83173l-34.82595-15.97165M382.13324 443.86008l-28.00464-10.99719M354.1286 432.86289l-23.37758-7.61081M330.75102 425.25208l-22.7371-8.22638M308.01392 417.0257l-22.48621-10.23054M285.52771 406.79516l-20.87281-12.35032M264.6549 394.44484l-18.49369-15.01931M246.16121 379.42553l-18.19596-18.0642M227.96525 361.36133l-17.84884-19.93685M210.11641 341.42448l-16.48517-19.9346M193.63124 321.48988l-13.81682-17.84813M179.81442 303.64175l-12.08875-16.26309M167.72567 287.37866l-10.84404-14.84756M156.88163 272.5311L118.625 219.91525M118.625 219.91525h0"/>
  <path stroke-dasharray="15,10" stroke="red" stroke-width="4" d="M500 501.53344h0M489.27164 496.06693l-1.1642 1.60238"/>
  <path stroke="#00f" stroke-width="4" d="M489.27164 496.06693l3.37835-4.64991M457.08656 479.66741l-4.65679 6.40952"/>
  <path stroke-dasharray="15,10" stroke="red" stroke-width="4" d="M457.08656 479.66741l13.51342-18.59963"/>
  <path stroke="#00f" stroke-width="4" d="M416.95919 459.83173l-8.65226 11.90882"/>
  <path stroke-dasharray="15,10" stroke="red" stroke-width="4" d="M416.95919 459.83173l26.37137-36.29708"/>
  <path stroke="#00f" stroke-width="4" d="M382.13324 443.86008l-11.389 15.67561"/>
  <path stroke-dasharray="15,10" stroke="red" stroke-width="4" d="M382.13324 443.86008l37.98231-52.27816"/>
  <path stroke="#00f" stroke-width="4" d="M354.1286 432.86289l-12.50457 17.21107"/>
  <path stroke-dasharray="15,10" stroke="red" stroke-width="4" d="M354.1286 432.86289l47.98966-66.0521"/>
  <path stroke="#00f" stroke-width="4" d="M330.75102 425.25208l-12.51337 17.22319"/>
  <path stroke-dasharray="15,10" stroke="red" stroke-width="4" d="M330.75102 425.25208l56.91367-78.33494"/>
  <path stroke="#00f" stroke-width="4" d="M308.01392 417.0257l-13.00632 17.90167"/>
  <path stroke-dasharray="15,10" stroke="red" stroke-width="4" d="M308.01392 417.0257l65.29381-89.86921"/>
  <path stroke="#00f" stroke-width="4" d="M285.52771 406.79516l-14.7252 20.2675"/>
  <path stroke-dasharray="15,10" stroke="red" stroke-width="4" d="M285.52771 406.79516l72.82045-100.22875"/>
  <path stroke="#00f" stroke-width="4" d="M264.6549 394.44484l-17.99818 24.77237"/>
  <path stroke-dasharray="15,10" stroke="red" stroke-width="4" d="M264.6549 394.44484l78.77034-108.41807"/>
  <path stroke="#00f" stroke-width="4" d="M246.16121 379.42553l-23.29433 32.0619"/>
  <path stroke-dasharray="15,10" stroke="red" stroke-width="4" d="M246.16121 379.42553l82.5611-113.63561"/>
  <path stroke="#00f" stroke-width="4" d="M227.96525 361.36133l-30.43708 41.89305"/>
  <path stroke-dasharray="15,10" stroke="red" stroke-width="4" d="M227.96525 361.36133l85.09688-117.1258"/>
  <path stroke="#00f" stroke-width="4" d="M210.11641 341.42448l-38.74684 53.33046"/>
  <path stroke-dasharray="15,10" stroke="red" stroke-width="4" d="M210.11641 341.42448l86.77881-119.44078"/>
  <path stroke="#00f" stroke-width="4" d="M193.63124 321.48988l-47.31572 65.1245"/>
  <path stroke-dasharray="15,10" stroke="red" stroke-width="4" d="M193.63124 321.48988l87.77973-120.81843"/>
  <path stroke="#00f" stroke-width="4" d="M179.81442 303.64175l-55.16781 75.93198"/>
  <path stroke-dasharray="15,10" stroke="red" stroke-width="4" d="M179.81442 303.64175l88.20443-121.40298"/>
  <path stroke="#00f" stroke-width="4" d="M167.72567 287.37866l-62.41827 85.91138"/>
  <path stroke-dasharray="15,10" stroke="red" stroke-width="4" d="M167.72567 287.37866l88.34089-121.5908"/>
  <path stroke="#00f" stroke-width="4" d="M156.88163 272.5311l-69.07442 95.07278"/>
  <path stroke-dasharray="15,10" stroke="red" stroke-width="4" d="M156.88163 272.5311l88.36922-121.62979"/>
  <path stroke="#00f" stroke-width="4" d="M118.625 219.91525L25.93013 347.4988"/>
  <path stroke-dasharray="15,10" stroke="red" stroke-width="4" d="M118.625 219.91525l88.38371-121.64973"/>
</svg>
