  0
SECTION
  2
HEADER
  9
$ACADVER
  1
AC1009
  0
ENDSEC
  0
SECTION
  2
ENTITIES
  0
LINE
  8
reference 10mm
  6
CONTINUOUS
 62
250
 10
-3091.5504334780017
 20
3260.648495129559
 11
-3081.5504334780017
 21
3260.648495129559
  0
LINE
  8
reference 10mm
  6
CONTINUOUS
 62
250
 10
-3081.5504334780017
 20
3260.648495129559
 11
-3081.5504334780017
 21
3270.648495129559
  0
LINE
  8
reference 10mm
  6
CONTINUOUS
 62
250
 10
-3081.5504334780017
 20
3270.648495129559
 11
-3091.5504334780017
 21
3270.648495129559
  0
LINE
  8
reference 10mm
  6
CONTINUOUS
 62
250
 10
-3091.5504334780017
 20
3270.648495129559
 11
-3091.5504334780017
 21
3260.648495129559
  0
LINE
  8
MountainLine
  6
CONTINUOUS
 62
1
 10
0.0
 20
-0.0
 11
-3091.550433478001
 21
-1004.505627734382
  0
LINE
  8
CutLine
  6
CONTINUOUS
 62
250
 10
-1910.683245823876
 20
-2629.8298752991614
 11
-3091.550433478001
 21
-1004.505627734382
  0
LINE
  8
MountainLine
  6
CONTINUOUS
 62
1
 10
0.0
 20
-0.0
 11
-1910.683245823876
 21
-2629.8298752991614
  0
LINE
  8
CutLine
  6
CONTINUOUS
 62
250
 10
-1.9904481373567872E-13
 20
-3250.648495129559
 11
-1910.683245823876
 21
-2629.8298752991614
  0
LINE
  8
MountainLine
  6
CONTINUOUS
 62
1
 10
0.0
 20
-0.0
 11
-1.9904481373567872E-13
 21
-3250.648495129559
  0
LINE
  8
CutLine
  6
CONTINUOUS
 62
250
 10
1910.6832458238753
 20
-2629.8298752991614
 11
-1.9904481373567872E-13
 21
-3250.648495129559
  0
LINE
  8
MountainLine
  6
CONTINUOUS
 62
1
 10
0.0
 20
-0.0
 11
1910.6832458238753
 21
-2629.8298752991614
  0
LINE
  8
CutLine
  6
CONTINUOUS
 62
250
 10
3091.550433478001
 20
-1004.5056277343824
 11
1910.6832458238753
 21
-2629.8298752991614
  0
LINE
  8
MountainLine
  6
CONTINUOUS
 62
1
 10
0.0
 20
-0.0
 11
3091.550433478001
 21
-1004.5056277343824
  0
LINE
  8
CutLine
  6
CONTINUOUS
 62
250
 10
3091.5504334780017
 20
1004.5056277343817
 11
3091.550433478001
 21
-1004.5056277343824
  0
LINE
  8
MountainLine
  6
CONTINUOUS
 62
1
 10
0.0
 20
0.0
 11
3091.5504334780017
 21
1004.5056277343817
  0
LINE
  8
CutLine
  6
CONTINUOUS
 62
250
 10
1910.6832458238762
 20
2629.829875299161
 11
3091.5504334780017
 21
1004.5056277343817
  0
LINE
  8
MountainLine
  6
CONTINUOUS
 62
1
 10
0.0
 20
0.0
 11
1910.6832458238762
 21
2629.829875299161
  0
LINE
  8
CutLine
  6
CONTINUOUS
 62
250
 10
5.971344412070361E-13
 20
3250.648495129559
 11
1910.6832458238762
 21
2629.829875299161
  0
LINE
  8
MountainLine
  6
CONTINUOUS
 62
1
 10
0.0
 20
0.0
 11
5.971344412070361E-13
 21
3250.648495129559
  0
LINE
  8
CutLine
  6
CONTINUOUS
 62
250
 10
-1910.683245823875
 20
2629.829875299162
 11
5.971344412070361E-13
 21
3250.648495129559
  0
LINE
  8
MountainLine
  6
CONTINUOUS
 62
1
 10
0.0
 20
0.0
 11
-1910.683245823875
 21
2629.829875299162
  0
LINE
  8
CutLine
  6
CONTINUOUS
 62
250
 10
-3091.550433478001
 20
1004.5056277343828
 11
-1910.683245823875
 21
2629.829875299162
  0
LINE
  8
MountainLine
  6
CONTINUOUS
 62
1
 10
0.0
 20
0.0
 11
-3091.550433478001
 21
1004.5056277343828
  0
LINE
  8
CutLine
  6
CONTINUOUS
 62
250
 10
-3091.5504334780017
 20
-1004.5056277343813
 11
-3091.550433478001
 21
1004.5056277343828
  0
LINE
  8
ValleyLine
  6
CONTINUOUS
 62
5
 10
0.0
 20
-0.0
 11
0.0
 21
-0.0
  0
LINE
  8
ValleyLine
  6
CONTINUOUS
 62
5
 10
0.0
 20
-0.0
 11
-77.5549049093314
 21
-12.282694413641442
  0
LINE
  8
ValleyLine
  6
CONTINUOUS
 62
5
 10
-77.5549049093314
 20
-12.282694413641442
 11
-310.21961963732565
 21
-49.13077765456577
  0
LINE
  8
ValleyLine
  6
CONTINUOUS
 62
5
 10
-310.21961963732565
 20
-49.13077765456577
 11
-597.9577675023169
 21
-98.29404920969672
  0
LINE
  8
ValleyLine
  6
CONTINUOUS
 62
5
 10
-597.9577675023169
 20
-98.29404920969672
 11
-842.9152001257526
 21
-147.52230856595807
  0
LINE
  8
ValleyLine
  6
CONTINUOUS
 62
5
 10
-842.9152001257526
 20
-147.52230856595807
 11
-1032.8167677758925
 21
-196.84804962391496
  0
LINE
  8
ValleyLine
  6
CONTINUOUS
 62
5
 10
-1032.8167677758925
 20
-196.84804962391496
 11
-1185.3262977774625
 21
-246.30376628413262
  0
LINE
  8
ValleyLine
  6
CONTINUOUS
 62
5
 10
-1185.3262977774625
 20
-246.30376628413262
 11
-1336.816314210436
 21
-290.0568033951596
  0
LINE
  8
ValleyLine
  6
CONTINUOUS
 62
5
 10
-1336.816314210436
 20
-290.0568033951596
 11
-1494.6648912853473
 21
-322.27450580554455
  0
LINE
  8
ValleyLine
  6
CONTINUOUS
 62
5
 10
-1494.6648912853473
 20
-322.27450580554455
 11
-1652.1268000657271
 21
-337.12421836383595
  0
LINE
  8
ValleyLine
  6
CONTINUOUS
 62
5
 10
-1652.1268000657271
 20
-337.12421836383595
 11
-1807.267391840317
 21
-328.7732859185823
  0
LINE
  8
ValleyLine
  6
CONTINUOUS
 62
5
 10
-1807.267391840317
 20
-328.7732859185823
 11
-1972.5086335635895
 21
-303.2168331240611
  0
LINE
  8
ValleyLine
  6
CONTINUOUS
 62
5
 10
-1972.5086335635895
 20
-303.2168331240611
 11
-2143.096642479016
 21
-266.44998463454976
  0
LINE
  8
ValleyLine
  6
CONTINUOUS
 62
5
 10
-2143.096642479016
 20
-266.44998463454976
 11
-2306.4815380133095
 21
-224.4678651043256
  0
LINE
  8
ValleyLine
  6
CONTINUOUS
 62
5
 10
-2306.4815380133095
 20
-224.4678651043256
 11
-2447.790946351409
 21
-183.26559918766594
  0
LINE
  8
ValleyLine
  6
CONTINUOUS
 62
5
 10
-2447.790946351409
 20
-183.26559918766594
 11
-2573.907661546603
 21
-143.8017569512439
  0
LINE
  8
ValleyLine
  6
CONTINUOUS
 62
5
 10
-2573.907661546603
 20
-143.8017569512439
 11
-2688.031582404786
 21
-107.03490846173256
  0
LINE
  8
ValleyLine
  6
CONTINUOUS
 62
5
 10
-2688.031582404786
 20
-107.03490846173256
 11
-3091.550433478001
 21
23.915510815979104
  0
LINE
  8
ValleyLine
  6
CONTINUOUS
 62
5
 10
-3091.550433478001
 20
23.915510815979104
 11
-3091.550433478001
 21
23.915510815979104
  0
LINE
  8
ValleyLine
  6
CONTINUOUS
 62
5
 10
-3091.550433478001
 20
23.915510815979104
 11
-3091.550433478001
 21
23.915510815979104
  0
LINE
  8
ValleyLine
  6
CONTINUOUS
 62
5
 10
0.0
 20
-0.0
 11
0.0
 21
-0.0
  0
LINE
  8
MountainLine
  6
CONTINUOUS
 62
1
 10
0.0
 20
-0.0
 11
0.0
 21
-0.0
  0
LINE
  8
ValleyLine
  6
CONTINUOUS
 62
5
 10
0.0
 20
-0.0
 11
0.0
 21
-0.0
  0
LINE
  8
MountainLine
  6
CONTINUOUS
 62
1
 10
0.0
 20
-0.0
 11
0.0
 21
-0.0
  0
LINE
  8
MountainLine
  6
CONTINUOUS
 62
1
 10
-77.5549049093314
 20
-12.282694413641442
 11
-77.5549049093314
 21
-25.19911614451189
  0
LINE
  8
ValleyLine
  6
CONTINUOUS
 62
5
 10
-77.5549049093314
 20
-12.282694413641442
 11
-77.5549049093314
 21
25.19911614451189
  0
LINE
  8
ValleyLine
  6
CONTINUOUS
 62
5
 10
-310.21961963732565
 20
-49.13077765456577
 11
-310.21961963732565
 21
-100.79646457804759
  0
LINE
  8
MountainLine
  6
CONTINUOUS
 62
1
 10
-310.21961963732565
 20
-49.13077765456577
 11
-310.21961963732565
 21
100.79646457804759
  0
LINE
  8
ValleyLine
  6
CONTINUOUS
 62
5
 10
-597.9577675023169
 20
-98.29404920969672
 11
-597.9577675023169
 21
-194.2882561769596
  0
LINE
  8
MountainLine
  6
CONTINUOUS
 62
1
 10
-597.9577675023169
 20
-98.29404920969672
 11
-597.9577675023169
 21
194.2882561769596
  0
LINE
  8
ValleyLine
  6
CONTINUOUS
 62
5
 10
-842.9152001257526
 20
-147.52230856595807
 11
-842.9152001257526
 21
-273.8797507749589
  0
LINE
  8
MountainLine
  6
CONTINUOUS
 62
1
 10
-842.9152001257526
 20
-147.52230856595807
 11
-842.9152001257526
 21
273.8797507749589
  0
LINE
  8
ValleyLine
  6
CONTINUOUS
 62
5
 10
-1032.8167677758925
 20
-196.84804962391496
 11
-1032.8167677758925
 21
-335.58251044999514
  0
LINE
  8
MountainLine
  6
CONTINUOUS
 62
1
 10
-1032.8167677758925
 20
-196.84804962391496
 11
-1032.8167677758925
 21
335.58251044999514
  0
LINE
  8
ValleyLine
  6
CONTINUOUS
 62
5
 10
-1185.3262977774625
 20
-246.30376628413262
 11
-1185.3262977774625
 21
-385.13586061072857
  0
LINE
  8
MountainLine
  6
CONTINUOUS
 62
1
 10
-1185.3262977774625
 20
-246.30376628413262
 11
-1185.3262977774625
 21
385.13586061072857
  0
LINE
  8
ValleyLine
  6
CONTINUOUS
 62
5
 10
-1336.816314210436
 20
-290.0568033951596
 11
-1336.816314210436
 21
-434.3579507324483
  0
LINE
  8
MountainLine
  6
CONTINUOUS
 62
1
 10
-1336.816314210436
 20
-290.0568033951596
 11
-1336.816314210436
 21
434.3579507324483
  0
LINE
  8
ValleyLine
  6
CONTINUOUS
 62
5
 10
-1494.6648912853473
 20
-322.27450580554455
 11
-1494.6648912853473
 21
-485.6460624464249
  0
LINE
  8
MountainLine
  6
CONTINUOUS
 62
1
 10
-1494.6648912853473
 20
-322.27450580554455
 11
-1494.6648912853473
 21
485.6460624464249
  0
LINE
  8
ValleyLine
  6
CONTINUOUS
 62
5
 10
-1652.1268000657271
 20
-337.12421836383595
 11
-1652.1268000657271
 21
-536.8085380155995
  0
LINE
  8
MountainLine
  6
CONTINUOUS
 62
1
 10
-1652.1268000657271
 20
-337.12421836383595
 11
-1652.1268000657271
 21
536.8085380155995
  0
LINE
  8
ValleyLine
  6
CONTINUOUS
 62
5
 10
-1807.267391840317
 20
-328.7732859185823
 11
-1807.267391840317
 21
-587.2167719683927
  0
LINE
  8
MountainLine
  6
CONTINUOUS
 62
1
 10
-1807.267391840317
 20
-328.7732859185823
 11
-1807.267391840317
 21
587.2167719683927
  0
LINE
  8
ValleyLine
  6
CONTINUOUS
 62
5
 10
-1972.5086335635895
 20
-303.2168331240611
 11
-1972.5086335635895
 21
-640.9069060342665
  0
LINE
  8
MountainLine
  6
CONTINUOUS
 62
1
 10
-1972.5086335635895
 20
-303.2168331240611
 11
-1972.5086335635895
 21
640.9069060342665
  0
LINE
  8
ValleyLine
  6
CONTINUOUS
 62
5
 10
-2143.096642479016
 20
-266.44998463454976
 11
-2143.096642479016
 21
-696.3343100720432
  0
LINE
  8
MountainLine
  6
CONTINUOUS
 62
1
 10
-2143.096642479016
 20
-266.44998463454976
 11
-2143.096642479016
 21
696.3343100720432
  0
LINE
  8
ValleyLine
  6
CONTINUOUS
 62
5
 10
-2306.4815380133095
 20
-224.4678651043256
 11
-2306.4815380133095
 21
-749.4212806980911
  0
LINE
  8
MountainLine
  6
CONTINUOUS
 62
1
 10
-2306.4815380133095
 20
-224.4678651043256
 11
-2306.4815380133095
 21
749.4212806980911
  0
LINE
  8
ValleyLine
  6
CONTINUOUS
 62
5
 10
-2447.790946351409
 20
-183.26559918766594
 11
-2447.790946351409
 21
-795.335490730158
  0
LINE
  8
MountainLine
  6
CONTINUOUS
 62
1
 10
-2447.790946351409
 20
-183.26559918766594
 11
-2447.790946351409
 21
795.335490730158
  0
LINE
  8
ValleyLine
  6
CONTINUOUS
 62
5
 10
-2573.907661546603
 20
-143.8017569512439
 11
-2573.907661546603
 21
-836.3132955212724
  0
LINE
  8
MountainLine
  6
CONTINUOUS
 62
1
 10
-2573.907661546603
 20
-143.8017569512439
 11
-2573.907661546603
 21
836.3132955212724
  0
LINE
  8
ValleyLine
  6
CONTINUOUS
 62
5
 10
-2688.031582404786
 20
-107.03490846173256
 11
-2688.031582404786
 21
-873.3944052194215
  0
LINE
  8
MountainLine
  6
CONTINUOUS
 62
1
 10
-2688.031582404786
 20
-107.03490846173256
 11
-2688.031582404786
 21
873.3944052194215
  0
LINE
  8
ValleyLine
  6
CONTINUOUS
 62
5
 10
-3091.550433478001
 20
23.915510815979104
 11
-3091.550433478001
 21
-1004.5056277343818
  0
LINE
  8
MountainLine
  6
CONTINUOUS
 62
1
 10
-3091.550433478001
 20
23.915510815979104
 11
-3091.550433478001
 21
1004.5056277343818
  0
LINE
  8
ValleyLine
  6
CONTINUOUS
 62
5
 10
-3091.550433478001
 20
23.915510815979104
 11
-3091.550433478001
 21
-1004.5056277343818
  0
LINE
  8
MountainLine
  6
CONTINUOUS
 62
1
 10
-3091.550433478001
 20
23.915510815979104
 11
-3091.550433478001
 21
1004.5056277343818
  0
LINE
  8
ValleyLine
  6
CONTINUOUS
 62
5
 10
0.0
 20
-0.0
 11
0.0
 21
-0.0
  0
LINE
  8
ValleyLine
  6
CONTINUOUS
 62
5
 10
0.0
 20
-0.0
 11
-55.523649434028556
 21
-55.52253786600027
  0
LINE
  8
ValleyLine
  6
CONTINUOUS
 62
5
 10
-55.523649434028556
 20
-55.52253786600027
 11
-222.0945977361143
 21
-222.09015146400117
  0
LINE
  8
ValleyLine
  6
CONTINUOUS
 62
5
 10
-222.0945977361143
 20
-222.09015146400117
 11
-425.9822033143077
 21
-430.9923134881653
  0
LINE
  8
ValleyLine
  6
CONTINUOUS
 62
5
 10
-425.9822033143077
 20
-430.9923134881653
 11
-595.2212843594839
 21
-614.8011782463609
  0
LINE
  8
ValleyLine
  6
CONTINUOUS
 62
5
 10
-595.2212843594839
 20
-614.8011782463609
 11
-719.8619366946266
 21
-766.3278818743598
  0
LINE
  8
ValleyLine
  6
CONTINUOUS
 62
5
 10
-719.8619366946266
 20
-766.3278818743598
 11
-814.1753973756015
 21
-895.9812496904474
  0
LINE
  8
ValleyLine
  6
CONTINUOUS
 62
5
 10
-814.1753973756015
 20
-895.9812496904474
 11
-911.0160051911502
 21
-1020.4217977976323
  0
LINE
  8
ValleyLine
  6
CONTINUOUS
 62
5
 10
-911.0160051911502
 20
-1020.4217977976323
 11
-1019.781096243085
 21
-1139.2675322673329
  0
LINE
  8
ValleyLine
  6
CONTINUOUS
 62
5
 10
-1019.781096243085
 20
-1139.2675322673329
 11
-1138.442014370584
 21
-1243.8349898675037
  0
LINE
  8
ValleyLine
  6
CONTINUOUS
 62
5
 10
-1138.442014370584
 20
-1243.8349898675037
 11
-1268.8619445678244
 21
-1328.2682954774473
  0
LINE
  8
ValleyLine
  6
CONTINUOUS
 62
5
 10
-1268.8619445678244
 20
-1328.2682954774473
 11
-1417.5666233470988
 21
-1404.7190558061739
  0
LINE
  8
ValleyLine
  6
CONTINUOUS
 62
5
 10
-1417.5666233470988
 20
-1404.7190558061739
 11
-1577.1862329116707
 21
-1475.243166406975
  0
LINE
  8
ValleyLine
  6
CONTINUOUS
 62
5
 10
-1577.1862329116707
 20
-1475.243166406975
 11
-1734.043860742935
 21
-1537.3141502895476
  0
LINE
  8
ValleyLine
  6
CONTINUOUS
 62
5
 10
-1734.043860742935
 20
-1537.3141502895476
 11
-1872.5836578203714
 21
-1587.0404031875237
  0
LINE
  8
ValleyLine
  6
CONTINUOUS
 62
5
 10
-1872.5836578203714
 20
-1587.0404031875237
 11
-1997.8104881533945
 21
-1629.2430294142318
  0
LINE
  8
ValleyLine
  6
CONTINUOUS
 62
5
 10
-1997.8104881533945
 20
-1629.2430294142318
 11
-2111.7496909077727
 21
-1666.5783817708416
  0
LINE
  8
ValleyLine
  6
CONTINUOUS
 62
5
 10
-2111.7496909077727
 20
-1666.5783817708416
 11
-2515.174024209612
 21
-1797.8196968374868
  0
LINE
  8
ValleyLine
  6
CONTINUOUS
 62
5
 10
-2515.174024209612
 20
-1797.8196968374868
 11
-2515.174024209612
 21
-1797.8196968374868
  0
LINE
  8
ValleyLine
  6
CONTINUOUS
 62
5
 10
-2515.174024209612
 20
-1797.8196968374868
 11
-2515.174024209612
 21
-1797.8196968374868
  0
LINE
  8
ValleyLine
  6
CONTINUOUS
 62
5
 10
0.0
 20
-0.0
 11
0.0
 21
-0.0
  0
LINE
  8
MountainLine
  6
CONTINUOUS
 62
1
 10
0.0
 20
-0.0
 11
0.0
 21
-0.0
  0
LINE
  8
ValleyLine
  6
CONTINUOUS
 62
5
 10
0.0
 20
-0.0
 11
0.0
 21
-0.0
  0
LINE
  8
MountainLine
  6
CONTINUOUS
 62
1
 10
0.0
 20
-0.0
 11
0.0
 21
-0.0
  0
LINE
  8
MountainLine
  6
CONTINUOUS
 62
1
 10
-55.523649434028556
 20
-55.52253786600027
 11
-47.93156722823289
 21
-65.97214255278834
  0
LINE
  8
ValleyLine
  6
CONTINUOUS
 62
5
 10
-55.523649434028556
 20
-55.52253786600027
 11
-77.5549049093314
 21
-25.199116144511894
  0
LINE
  8
ValleyLine
  6
CONTINUOUS
 62
5
 10
-222.0945977361143
 20
-222.09015146400117
 11
-191.72626891293163
 21
-263.8885702111534
  0
LINE
  8
MountainLine
  6
CONTINUOUS
 62
1
 10
-222.0945977361143
 20
-222.09015146400117
 11
-310.21961963732565
 21
-100.79646457804763
  0
LINE
  8
ValleyLine
  6
CONTINUOUS
 62
5
 10
-425.9822033143077
 20
-430.9923134881653
 11
-369.5582241534392
 21
-508.65325828622696
  0
LINE
  8
MountainLine
  6
CONTINUOUS
 62
1
 10
-425.9822033143077
 20
-430.9923134881653
 11
-597.9577675023169
 21
-194.2882561769596
  0
LINE
  8
ValleyLine
  6
CONTINUOUS
 62
5
 10
-595.2212843594839
 20
-614.8011782463609
 11
-520.9502433116348
 21
-717.0264963591928
  0
LINE
  8
MountainLine
  6
CONTINUOUS
 62
1
 10
-595.2212843594839
 20
-614.8011782463609
 11
-842.9152001257526
 21
-273.879750774959
  0
LINE
  8
ValleyLine
  6
CONTINUOUS
 62
5
 10
-719.8619366946266
 20
-766.3278818743598
 11
-638.3158666363087
 21
-878.566418388104
  0
LINE
  8
MountainLine
  6
CONTINUOUS
 62
1
 10
-719.8619366946266
 20
-766.3278818743598
 11
-1032.8167677758925
 21
-335.5825104499952
  0
LINE
  8
ValleyLine
  6
CONTINUOUS
 62
5
 10
-814.1753973756015
 20
-895.9812496904474
 11
-732.5719397855509
 21
-1008.2987733653293
  0
LINE
  8
MountainLine
  6
CONTINUOUS
 62
1
 10
-814.1753973756015
 20
-895.9812496904474
 11
-1185.3262977774625
 21
-385.1358606107287
  0
LINE
  8
ValleyLine
  6
CONTINUOUS
 62
5
 10
-911.0160051911502
 20
-1020.4217977976323
 11
-826.1979188974086
 21
-1137.163878301302
  0
LINE
  8
MountainLine
  6
CONTINUOUS
 62
1
 10
-911.0160051911502
 20
-1020.4217977976323
 11
-1336.816314210436
 21
-434.3579507324484
  0
LINE
  8
ValleyLine
  6
CONTINUOUS
 62
5
 10
-1019.781096243085
 20
-1139.2675322673329
 11
-923.7537046055111
 21
-1271.4378979872945
  0
LINE
  8
MountainLine
  6
CONTINUOUS
 62
1
 10
-1019.781096243085
 20
-1139.2675322673329
 11
-1494.6648912853473
 21
-485.6460624464251
  0
LINE
  8
ValleyLine
  6
CONTINUOUS
 62
5
 10
-1138.442014370584
 20
-1243.8349898675037
 11
-1021.0705161652214
 21
-1405.3829979759798
  0
LINE
  8
MountainLine
  6
CONTINUOUS
 62
1
 10
-1138.442014370584
 20
-1243.8349898675037
 11
-1652.1268000657271
 21
-536.8085380155997
  0
LINE
  8
ValleyLine
  6
CONTINUOUS
 62
5
 10
-1268.8619445678244
 20
-1328.2682954774473
 11
-1116.9526749166905
 21
-1537.3534677772486
  0
LINE
  8
MountainLine
  6
CONTINUOUS
 62
1
 10
-1268.8619445678244
 20
-1328.2682954774473
 11
-1807.267391840317
 21
-587.2167719683927
  0
LINE
  8
ValleyLine
  6
CONTINUOUS
 62
5
 10
-1417.5666233470988
 20
-1404.7190558061739
 11
-1219.07737864491
 21
-1677.916063622245
  0
LINE
  8
MountainLine
  6
CONTINUOUS
 62
1
 10
-1417.5666233470988
 20
-1404.7190558061739
 11
-1972.5086335635897
 21
-640.9069060342666
  0
LINE
  8
ValleyLine
  6
CONTINUOUS
 62
5
 10
-1577.1862329116707
 20
-1475.243166406975
 11
-1324.5065662278137
 21
-1823.0268913013176
  0
LINE
  8
MountainLine
  6
CONTINUOUS
 62
1
 10
-1577.1862329116707
 20
-1475.243166406975
 11
-2143.0966424790163
 21
-696.3343100720435
  0
LINE
  8
ValleyLine
  6
CONTINUOUS
 62
5
 10
-1734.043860742935
 20
-1537.3141502895476
 11
-1425.4839849163582
 21
-1962.010384760078
  0
LINE
  8
MountainLine
  6
CONTINUOUS
 62
1
 10
-1734.043860742935
 20
-1537.3141502895476
 11
-2306.4815380133095
 21
-749.4212806980914
  0
LINE
  8
ValleyLine
  6
CONTINUOUS
 62
5
 10
-1872.5836578203714
 20
-1587.0404031875237
 11
-1512.818002199441
 21
-2082.215347190631
  0
LINE
  8
MountainLine
  6
CONTINUOUS
 62
1
 10
-1872.5836578203714
 20
-1587.0404031875237
 11
-2447.790946351409
 21
-795.3354907301582
  0
LINE
  8
ValleyLine
  6
CONTINUOUS
 62
5
 10
-1997.8104881533945
 20
-1629.2430294142318
 11
-1590.7624187395613
 21
-2189.4966329181266
  0
LINE
  8
MountainLine
  6
CONTINUOUS
 62
1
 10
-1997.8104881533945
 20
-1629.2430294142318
 11
-2573.907661546603
 21
-836.3132955212725
  0
LINE
  8
ValleyLine
  6
CONTINUOUS
 62
5
 10
-2111.7496909077727
 20
-1666.5783817708416
 11
-1661.2948807593216
 21
-2286.576238448444
  0
LINE
  8
MountainLine
  6
CONTINUOUS
 62
1
 10
-2111.7496909077727
 20
-1666.5783817708416
 11
-2688.031582404786
 21
-873.3944052194219
  0
LINE
  8
ValleyLine
  6
CONTINUOUS
 62
5
 10
-2515.174024209612
 20
-1797.8196968374868
 11
-1910.6832458238755
 21
-2629.8298752991614
  0
LINE
  8
MountainLine
  6
CONTINUOUS
 62
1
 10
-2515.174024209612
 20
-1797.8196968374868
 11
-3091.550433478001
 21
-1004.5056277343822
  0
LINE
  8
ValleyLine
  6
CONTINUOUS
 62
5
 10
-2515.174024209612
 20
-1797.8196968374868
 11
-1910.6832458238755
 21
-2629.8298752991614
  0
LINE
  8
MountainLine
  6
CONTINUOUS
 62
1
 10
-2515.174024209612
 20
-1797.8196968374868
 11
-3091.550433478001
 21
-1004.5056277343822
  0
LINE
  8
ValleyLine
  6
CONTINUOUS
 62
5
 10
0.0
 20
-0.0
 11
0.0
 21
-0.0
  0
LINE
  8
ValleyLine
  6
CONTINUOUS
 62
5
 10
0.0
 20
-0.0
 11
-12.284247054360671
 21
-77.55465899520006
  0
LINE
  8
ValleyLine
  6
CONTINUOUS
 62
5
 10
-12.284247054360671
 20
-77.55465899520006
 11
-49.136988217442706
 21
-310.2186359808003
  0
LINE
  8
ValleyLine
  6
CONTINUOUS
 62
5
 10
-49.136988217442706
 20
-310.2186359808003
 11
-91.29591606280106
 21
-599.0661629041045
  0
LINE
  8
ValleyLine
  6
CONTINUOUS
 62
5
 10
-91.29591606280106
 20
-599.0661629041045
 11
-120.17306879525864
 21
-847.2468941601363
  0
LINE
  8
ValleyLine
  6
CONTINUOUS
 62
5
 10
-120.17306879525864
 20
-847.2468941601363
 11
-131.94431300333835
 21
-1043.0965097755136
  0
LINE
  8
ValleyLine
  6
CONTINUOUS
 62
5
 10
-131.94431300333835
 20
-1043.0965097755136
 11
-132.0371679802126
 21
-1203.4243489976175
  0
LINE
  8
ValleyLine
  6
CONTINUOUS
 62
5
 10
-132.0371679802126
 20
-1203.4243489976175
 11
-137.23854648399555
 21
-1361.020348302682
  0
LINE
  8
ValleyLine
  6
CONTINUOUS
 62
5
 10
-137.23854648399555
 20
-1361.020348302682
 11
-155.3755835205922
 21
-1521.0990836822175
  0
LINE
  8
ValleyLine
  6
CONTINUOUS
 62
5
 10
-155.3755835205922
 20
-1521.0990836822175
 11
-189.91107340677425
 21
-1675.4430716381662
  0
LINE
  8
ValleyLine
  6
CONTINUOUS
 62
5
 10
-189.91107340677425
 20
-1675.4430716381662
 11
-245.79436150170784
 21
-1820.4099623428156
  0
LINE
  8
ValleyLine
  6
CONTINUOUS
 62
5
 10
-245.79436150170784
 20
-1820.4099623428156
 11
-321.1623443294365
 21
-1969.666343814988
  0
LINE
  8
ValleyLine
  6
CONTINUOUS
 62
5
 10
-321.1623443294365
 20
-1969.666343814988
 11
-408.8442889604747
 21
-2120.5436002829524
  0
LINE
  8
ValleyLine
  6
CONTINUOUS
 62
5
 10
-408.8442889604747
 20
-2120.5436002829524
 11
-499.2603666518487
 21
-2262.958681450326
  0
LINE
  8
ValleyLine
  6
CONTINUOUS
 62
5
 10
-499.2603666518487
 20
-2262.958681450326
 11
-582.113058779555
 21
-2384.619714689084
  0
LINE
  8
ValleyLine
  6
CONTINUOUS
 62
5
 10
-582.113058779555
 20
-2384.619714689084
 11
-658.6176113666085
 21
-2492.3688405748276
  0
LINE
  8
ValleyLine
  6
CONTINUOUS
 62
5
 10
-658.6176113666085
 20
-2492.3688405748276
 11
-728.8511932160748
 21
-2589.545558159287
  0
LINE
  8
ValleyLine
  6
CONTINUOUS
 62
5
 10
-728.8511932160748
 20
-2589.545558159287
 11
-978.0866253140019
 21
-2932.8488859430645
  0
LINE
  8
ValleyLine
  6
CONTINUOUS
 62
5
 10
-978.0866253140019
 20
-2932.8488859430645
 11
-978.0866253140019
 21
-2932.8488859430645
  0
LINE
  8
ValleyLine
  6
CONTINUOUS
 62
5
 10
-978.0866253140019
 20
-2932.8488859430645
 11
-978.0866253140019
 21
-2932.8488859430645
  0
LINE
  8
ValleyLine
  6
CONTINUOUS
 62
5
 10
0.0
 20
-0.0
 11
0.0
 21
-0.0
  0
LINE
  8
MountainLine
  6
CONTINUOUS
 62
1
 10
0.0
 20
-0.0
 11
0.0
 21
-0.0
  0
LINE
  8
ValleyLine
  6
CONTINUOUS
 62
5
 10
0.0
 20
-0.0
 11
0.0
 21
-0.0
  0
LINE
  8
MountainLine
  6
CONTINUOUS
 62
1
 10
0.0
 20
-0.0
 11
0.0
 21
-0.0
  0
LINE
  8
MountainLine
  6
CONTINUOUS
 62
1
 10
-12.284247054360671
 20
-77.55465899520006
 11
-8.965838937035964E-15
 21
-81.54605281655289
  0
LINE
  8
ValleyLine
  6
CONTINUOUS
 62
5
 10
-12.284247054360671
 20
-77.55465899520006
 11
-47.93156722823288
 21
-65.97214255278834
  0
LINE
  8
ValleyLine
  6
CONTINUOUS
 62
5
 10
-49.136988217442706
 20
-310.2186359808003
 11
-1.7931677874071928E-14
 21
-326.18421126621166
  0
LINE
  8
MountainLine
  6
CONTINUOUS
 62
1
 10
-49.136988217442706
 20
-310.2186359808003
 11
-191.72626891293157
 21
-263.8885702111534
  0
LINE
  8
ValleyLine
  6
CONTINUOUS
 62
5
 10
-91.29591606280106
 20
-599.0661629041045
 11
-3.5863355748143856E-14
 21
-628.7300042185348
  0
LINE
  8
MountainLine
  6
CONTINUOUS
 62
1
 10
-91.29591606280106
 20
-599.0661629041045
 11
-369.5582241534392
 21
-508.6532582862269
  0
LINE
  8
ValleyLine
  6
CONTINUOUS
 62
5
 10
-120.17306879525864
 20
-847.2468941601363
 11
-1.0759006724443156E-13
 21
-886.2934911684679
  0
LINE
  8
MountainLine
  6
CONTINUOUS
 62
1
 10
-120.17306879525864
 20
-847.2468941601363
 11
-520.9502433116346
 21
-717.0264963591928
  0
LINE
  8
ValleyLine
  6
CONTINUOUS
 62
5
 10
-131.94431300333835
 20
-1043.0965097755136
 11
-7.172671149628771E-14
 21
-1085.9678158762179
  0
LINE
  8
MountainLine
  6
CONTINUOUS
 62
1
 10
-131.94431300333835
 20
-1043.0965097755136
 11
-638.3158666363087
 21
-878.566418388104
  0
LINE
  8
ValleyLine
  6
CONTINUOUS
 62
5
 10
-132.0371679802126
 20
-1203.4243489976175
 11
-7.172671149628771E-14
 21
-1246.3258255092014
  0
LINE
  8
MountainLine
  6
CONTINUOUS
 62
1
 10
-132.0371679802126
 20
-1203.4243489976175
 11
-732.5719397855507
 21
-1008.2987733653293
  0
LINE
  8
ValleyLine
  6
CONTINUOUS
 62
5
 10
-137.23854648399555
 20
-1361.020348302682
 11
-7.172671149628771E-14
 21
-1405.6118551377074
  0
LINE
  8
MountainLine
  6
CONTINUOUS
 62
1
 10
-137.23854648399555
 20
-1361.020348302682
 11
-826.1979188974086
 21
-1137.163878301302
  0
LINE
  8
ValleyLine
  6
CONTINUOUS
 62
5
 10
-155.3755835205922
 20
-1521.0990836822175
 11
-1.4345342299257542E-13
 21
-1571.5836710817387
  0
LINE
  8
MountainLine
  6
CONTINUOUS
 62
1
 10
-155.3755835205922
 20
-1521.0990836822175
 11
-923.7537046055111
 21
-1271.4378979872943
  0
LINE
  8
ValleyLine
  6
CONTINUOUS
 62
5
 10
-189.91107340677425
 20
-1675.4430716381662
 11
-7.172671149628771E-14
 21
-1737.1489199207604
  0
LINE
  8
MountainLine
  6
CONTINUOUS
 62
1
 10
-189.91107340677425
 20
-1675.4430716381662
 11
-1021.0705161652214
 21
-1405.3829979759798
  0
LINE
  8
ValleyLine
  6
CONTINUOUS
 62
5
 10
-245.79436150170784
 20
-1820.4099623428156
 11
-1.4345342299257542E-13
 21
-1900.2733916177117
  0
LINE
  8
MountainLine
  6
CONTINUOUS
 62
1
 10
-245.79436150170784
 20
-1820.4099623428156
 11
-1116.9526749166903
 21
-1537.3534677772486
  0
LINE
  8
ValleyLine
  6
CONTINUOUS
 62
5
 10
-321.1623443294365
 20
-1969.666343814988
 11
-1.4345342299257542E-13
 21
-2074.0183151759566
  0
LINE
  8
MountainLine
  6
CONTINUOUS
 62
1
 10
-321.1623443294365
 20
-1969.666343814988
 11
-1219.07737864491
 21
-1677.916063622245
  0
LINE
  8
ValleyLine
  6
CONTINUOUS
 62
5
 10
-408.8442889604747
 20
-2120.5436002829524
 11
-1.4345342299257542E-13
 21
-2253.385162458548
  0
LINE
  8
MountainLine
  6
CONTINUOUS
 62
1
 10
-408.8442889604747
 20
-2120.5436002829524
 11
-1324.5065662278137
 21
-1823.0268913013176
  0
LINE
  8
ValleyLine
  6
CONTINUOUS
 62
5
 10
-499.2603666518487
 20
-2262.958681450326
 11
-1.4345342299257542E-13
 21
-2425.178208123974
  0
LINE
  8
MountainLine
  6
CONTINUOUS
 62
1
 10
-499.2603666518487
 20
-2262.958681450326
 11
-1425.483984916358
 21
-1962.010384760078
  0
LINE
  8
ValleyLine
  6
CONTINUOUS
 62
5
 10
-582.113058779555
 20
-2384.619714689084
 11
-1.4345342299257542E-13
 21
-2573.7597129209453
  0
LINE
  8
MountainLine
  6
CONTINUOUS
 62
1
 10
-582.113058779555
 20
-2384.619714689084
 11
-1512.818002199441
 21
-2082.2153471906304
  0
LINE
  8
ValleyLine
  6
CONTINUOUS
 62
5
 10
-658.6176113666085
 20
-2492.3688405748276
 11
-2.8690684598515085E-13
 21
-2706.366674793708
  0
LINE
  8
MountainLine
  6
CONTINUOUS
 62
1
 10
-658.6176113666085
 20
-2492.3688405748276
 11
-1590.7624187395613
 21
-2189.4966329181266
  0
LINE
  8
ValleyLine
  6
CONTINUOUS
 62
5
 10
-728.8511932160748
 20
-2589.545558159287
 11
-1.4345342299257542E-13
 21
-2826.3636664580454
  0
LINE
  8
MountainLine
  6
CONTINUOUS
 62
1
 10
-728.8511932160748
 20
-2589.545558159287
 11
-1661.2948807593216
 21
-2286.576238448444
  0
LINE
  8
ValleyLine
  6
CONTINUOUS
 62
5
 10
-978.0866253140019
 20
-2932.8488859430645
 11
-1.4345342299257542E-13
 21
-3250.648495129558
  0
LINE
  8
MountainLine
  6
CONTINUOUS
 62
1
 10
-978.0866253140019
 20
-2932.8488859430645
 11
-1910.6832458238755
 21
-2629.8298752991614
  0
LINE
  8
ValleyLine
  6
CONTINUOUS
 62
5
 10
-978.0866253140019
 20
-2932.8488859430645
 11
-1.4345342299257542E-13
 21
-3250.648495129558
  0
LINE
  8
MountainLine
  6
CONTINUOUS
 62
1
 10
-978.0866253140019
 20
-2932.8488859430645
 11
-1910.6832458238755
 21
-2629.8298752991614
  0
LINE
  8
ValleyLine
  6
CONTINUOUS
 62
5
 10
0.0
 20
-0.0
 11
0.0
 21
-0.0
  0
LINE
  8
ValleyLine
  6
CONTINUOUS
 62
5
 10
0.0
 20
-0.0
 11
35.64732017387221
 21
-69.96353637414119
  0
LINE
  8
ValleyLine
  6
CONTINUOUS
 62
5
 10
35.64732017387221
 20
-69.96353637414119
 11
142.58928069548887
 21
-279.85414549656485
  0
LINE
  8
ValleyLine
  6
CONTINUOUS
 62
5
 10
142.58928069548887
 20
-279.85414549656485
 11
278.2623080906381
 21
-538.3170996006572
  0
LINE
  8
ValleyLine
  6
CONTINUOUS
 62
5
 10
278.2623080906381
 20
-538.3170996006572
 11
400.7771745163761
 21
-756.0730933675246
  0
LINE
  8
ValleyLine
  6
CONTINUOUS
 62
5
 10
400.7771745163761
 20
-756.0730933675246
 11
506.37155363297035
 21
-921.4377244888084
  0
LINE
  8
ValleyLine
  6
CONTINUOUS
 62
5
 10
506.37155363297035
 20
-921.4377244888084
 11
600.5347718053382
 21
-1051.2002498769134
  0
LINE
  8
ValleyLine
  6
CONTINUOUS
 62
5
 10
600.5347718053382
 20
-1051.2002498769134
 11
688.959372413413
 21
-1181.7553851363275
  0
LINE
  8
ValleyLine
  6
CONTINUOUS
 62
5
 10
688.959372413413
 20
-1181.7553851363275
 11
768.3781210849188
 21
-1321.9224853868159
  0
LINE
  8
ValleyLine
  6
CONTINUOUS
 62
5
 10
768.3781210849188
 20
-1321.9224853868159
 11
831.1594427584471
 21
-1467.088846258574
  0
LINE
  8
ValleyLine
  6
CONTINUOUS
 62
5
 10
831.1594427584471
 20
-1467.088846258574
 11
871.1583134149824
 21
-1617.2168970521448
  0
LINE
  8
ValleyLine
  6
CONTINUOUS
 62
5
 10
871.1583134149824
 20
-1617.2168970521448
 11
897.9150343154732
 21
-1782.268034983214
  0
LINE
  8
ValleyLine
  6
CONTINUOUS
 62
5
 10
897.9150343154732
 20
-1782.268034983214
 11
915.6622772673387
 21
-1955.8684534769138
  0
LINE
  8
ValleyLine
  6
CONTINUOUS
 62
5
 10
915.6622772673387
 20
-1955.8684534769138
 11
926.2236182645092
 21
-2124.2299114337266
  0
LINE
  8
ValleyLine
  6
CONTINUOUS
 62
5
 10
926.2236182645092
 20
-2124.2299114337266
 11
930.7049434198859
 21
-2271.3553454224916
  0
LINE
  8
ValleyLine
  6
CONTINUOUS
 62
5
 10
930.7049434198859
 20
-2271.3553454224916
 11
932.144807372953
 21
-2403.4944671370076
  0
LINE
  8
ValleyLine
  6
CONTINUOUS
 62
5
 10
932.144807372953
 20
-2403.4944671370076
 11
932.4436875432466
 21
-2523.3943467472027
  0
LINE
  8
ValleyLine
  6
CONTINUOUS
 62
5
 10
932.4436875432466
 20
-2523.3943467472027
 11
932.5966205098733
 21
-2947.629484485655
  0
LINE
  8
ValleyLine
  6
CONTINUOUS
 62
5
 10
932.5966205098733
 20
-2947.629484485655
 11
932.5966205098733
 21
-2947.629484485655
  0
LINE
  8
ValleyLine
  6
CONTINUOUS
 62
5
 10
932.5966205098733
 20
-2947.629484485655
 11
932.5966205098733
 21
-2947.629484485655
  0
LINE
  8
ValleyLine
  6
CONTINUOUS
 62
5
 10
0.0
 20
-0.0
 11
0.0
 21
-0.0
  0
LINE
  8
MountainLine
  6
CONTINUOUS
 62
1
 10
0.0
 20
-0.0
 11
0.0
 21
-0.0
  0
LINE
  8
ValleyLine
  6
CONTINUOUS
 62
5
 10
0.0
 20
-0.0
 11
0.0
 21
-0.0
  0
LINE
  8
MountainLine
  6
CONTINUOUS
 62
1
 10
0.0
 20
-0.0
 11
0.0
 21
-0.0
  0
LINE
  8
MountainLine
  6
CONTINUOUS
 62
1
 10
35.64732017387221
 20
-69.96353637414119
 11
47.93156722823287
 21
-65.97214255278836
  0
LINE
  8
ValleyLine
  6
CONTINUOUS
 62
5
 10
35.64732017387221
 20
-69.96353637414119
 11
-4.482919468517982E-15
 21
-81.54605281655292
  0
LINE
  8
ValleyLine
  6
CONTINUOUS
 62
5
 10
142.58928069548887
 20
-279.85414549656485
 11
191.72626891293157
 21
-263.8885702111535
  0
LINE
  8
MountainLine
  6
CONTINUOUS
 62
1
 10
142.58928069548887
 20
-279.85414549656485
 11
-3.5863355748143856E-14
 21
-326.1842112662117
  0
LINE
  8
ValleyLine
  6
CONTINUOUS
 62
5
 10
278.2623080906381
 20
-538.3170996006572
 11
369.558224153439
 21
-508.653258286227
  0
LINE
  8
MountainLine
  6
CONTINUOUS
 62
1
 10
278.2623080906381
 20
-538.3170996006572
 11
-3.5863355748143856E-14
 21
-628.7300042185348
  0
LINE
  8
ValleyLine
  6
CONTINUOUS
 62
5
 10
400.7771745163761
 20
-756.0730933675246
 11
520.9502433116346
 21
-717.0264963591932
  0
LINE
  8
MountainLine
  6
CONTINUOUS
 62
1
 10
400.7771745163761
 20
-756.0730933675246
 11
-3.5863355748143856E-14
 21
-886.2934911684679
  0
LINE
  8
ValleyLine
  6
CONTINUOUS
 62
5
 10
506.37155363297035
 20
-921.4377244888084
 11
638.3158666363086
 21
-878.5664183881041
  0
LINE
  8
MountainLine
  6
CONTINUOUS
 62
1
 10
506.37155363297035
 20
-921.4377244888084
 11
-1.0759006724443156E-13
 21
-1085.9678158762179
  0
LINE
  8
ValleyLine
  6
CONTINUOUS
 62
5
 10
600.5347718053382
 20
-1051.2002498769134
 11
732.5719397855507
 21
-1008.2987733653295
  0
LINE
  8
MountainLine
  6
CONTINUOUS
 62
1
 10
600.5347718053382
 20
-1051.2002498769134
 11
-1.4345342299257542E-13
 21
-1246.3258255092014
  0
LINE
  8
ValleyLine
  6
CONTINUOUS
 62
5
 10
688.959372413413
 20
-1181.7553851363275
 11
826.1979188974084
 21
-1137.163878301302
  0
LINE
  8
MountainLine
  6
CONTINUOUS
 62
1
 10
688.959372413413
 20
-1181.7553851363275
 11
-7.172671149628771E-14
 21
-1405.6118551377074
  0
LINE
  8
ValleyLine
  6
CONTINUOUS
 62
5
 10
768.3781210849188
 20
-1321.9224853868159
 11
923.7537046055107
 21
-1271.4378979872947
  0
LINE
  8
MountainLine
  6
CONTINUOUS
 62
1
 10
768.3781210849188
 20
-1321.9224853868159
 11
-7.172671149628771E-14
 21
-1571.5836710817389
  0
LINE
  8
ValleyLine
  6
CONTINUOUS
 62
5
 10
831.1594427584471
 20
-1467.088846258574
 11
1021.0705161652211
 21
-1405.3829979759798
  0
LINE
  8
MountainLine
  6
CONTINUOUS
 62
1
 10
831.1594427584471
 20
-1467.088846258574
 11
-7.172671149628771E-14
 21
-1737.1489199207604
  0
LINE
  8
ValleyLine
  6
CONTINUOUS
 62
5
 10
871.1583134149824
 20
-1617.2168970521448
 11
1116.95267491669
 21
-1537.3534677772486
  0
LINE
  8
MountainLine
  6
CONTINUOUS
 62
1
 10
871.1583134149824
 20
-1617.2168970521448
 11
-1.4345342299257542E-13
 21
-1900.2733916177117
  0
LINE
  8
ValleyLine
  6
CONTINUOUS
 62
5
 10
897.9150343154732
 20
-1782.268034983214
 11
1219.0773786449097
 21
-1677.9160636222452
  0
LINE
  8
MountainLine
  6
CONTINUOUS
 62
1
 10
897.9150343154732
 20
-1782.268034983214
 11
-2.1518013448886312E-13
 21
-2074.018315175957
  0
LINE
  8
ValleyLine
  6
CONTINUOUS
 62
5
 10
915.6622772673387
 20
-1955.8684534769138
 11
1324.5065662278132
 21
-1823.0268913013178
  0
LINE
  8
MountainLine
  6
CONTINUOUS
 62
1
 10
915.6622772673387
 20
-1955.8684534769138
 11
-1.4345342299257542E-13
 21
-2253.3851624585486
  0
LINE
  8
ValleyLine
  6
CONTINUOUS
 62
5
 10
926.2236182645092
 20
-2124.2299114337266
 11
1425.483984916358
 21
-1962.0103847600785
  0
LINE
  8
MountainLine
  6
CONTINUOUS
 62
1
 10
926.2236182645092
 20
-2124.2299114337266
 11
-1.4345342299257542E-13
 21
-2425.1782081239744
  0
LINE
  8
ValleyLine
  6
CONTINUOUS
 62
5
 10
930.7049434198859
 20
-2271.3553454224916
 11
1512.818002199441
 21
-2082.215347190631
  0
LINE
  8
MountainLine
  6
CONTINUOUS
 62
1
 10
930.7049434198859
 20
-2271.3553454224916
 11
-1.4345342299257542E-13
 21
-2573.7597129209453
  0
LINE
  8
ValleyLine
  6
CONTINUOUS
 62
5
 10
932.144807372953
 20
-2403.4944671370076
 11
1590.7624187395613
 21
-2189.496632918127
  0
LINE
  8
MountainLine
  6
CONTINUOUS
 62
1
 10
932.144807372953
 20
-2403.4944671370076
 11
-1.4345342299257542E-13
 21
-2706.366674793708
  0
LINE
  8
ValleyLine
  6
CONTINUOUS
 62
5
 10
932.4436875432466
 20
-2523.3943467472027
 11
1661.2948807593214
 21
-2286.5762384484447
  0
LINE
  8
MountainLine
  6
CONTINUOUS
 62
1
 10
932.4436875432466
 20
-2523.3943467472027
 11
-2.8690684598515085E-13
 21
-2826.363666458046
  0
LINE
  8
ValleyLine
  6
CONTINUOUS
 62
5
 10
932.5966205098733
 20
-2947.629484485655
 11
1910.683245823875
 21
-2629.8298752991614
  0
LINE
  8
MountainLine
  6
CONTINUOUS
 62
1
 10
932.5966205098733
 20
-2947.629484485655
 11
-1.4345342299257542E-13
 21
-3250.648495129558
  0
LINE
  8
ValleyLine
  6
CONTINUOUS
 62
5
 10
932.5966205098733
 20
-2947.629484485655
 11
1910.683245823875
 21
-2629.8298752991614
  0
LINE
  8
MountainLine
  6
CONTINUOUS
 62
1
 10
932.5966205098733
 20
-2947.629484485655
 11
-1.4345342299257542E-13
 21
-3250.648495129558
  0
LINE
  8
ValleyLine
  6
CONTINUOUS
 62
5
 10
0.0
 20
-0.0
 11
0.0
 21
-0.0
  0
LINE
  8
ValleyLine
  6
CONTINUOUS
 62
5
 10
0.0
 20
-0.0
 11
69.96282270353572
 21
-35.64872083129997
  0
LINE
  8
ValleyLine
  6
CONTINUOUS
 62
5
 10
69.96282270353572
 20
-35.64872083129997
 11
279.85129081414294
 21
-142.5948833251999
  0
LINE
  8
ValleyLine
  6
CONTINUOUS
 62
5
 10
279.85129081414294
 20
-142.5948833251999
 11
541.5337883414483
 21
-271.94920097502137
  0
LINE
  8
ValleyLine
  6
CONTINUOUS
 62
5
 10
541.5337883414483
 20
-271.94920097502137
 11
768.6441590779034
 21
-376.10506888779116
  0
LINE
  8
ValleyLine
  6
CONTINUOUS
 62
5
 10
768.6441590779034
 20
-376.10506888779116
 11
951.2706977175746
 21
-447.82104696373955
  0
LINE
  8
ValleyLine
  6
CONTINUOUS
 62
5
 10
951.2706977175746
 20
-447.82104696373955
 11
1103.722840187412
 21
-497.4533842856107
  0
LINE
  8
ValleyLine
  6
CONTINUOUS
 62
5
 10
1103.722840187412
 20
-497.4533842856107
 11
1251.9982279166945
 21
-551.1000312361183
  0
LINE
  8
ValleyLine
  6
CONTINUOUS
 62
5
 10
1251.9982279166945
 20
-551.1000312361183
 11
1398.637499647773
 21
-617.8164281663867
  0
LINE
  8
ValleyLine
  6
CONTINUOUS
 62
5
 10
1398.637499647773
 20
-617.8164281663867
 11
1534.7553018603642
 21
-698.3565461240759
  0
LINE
  8
ValleyLine
  6
CONTINUOUS
 62
5
 10
1534.7553018603642
 20
-698.3565461240759
 11
1655.3581221891827
 21
-796.3019442681942
  0
LINE
  8
ValleyLine
  6
CONTINUOUS
 62
5
 10
1655.3581221891827
 20
-796.3019442681942
 11
1774.0193888614006
 21
-914.1039138503381
  0
LINE
  8
ValleyLine
  6
CONTINUOUS
 62
5
 10
1774.0193888614006
 20
-914.1039138503381
 11
1890.416975795159
 21
-1044.1180349663864
  0
LINE
  8
ValleyLine
  6
CONTINUOUS
 62
5
 10
1890.416975795159
 20
-1044.1180349663864
 11
1997.9216621867324
 21
-1174.1175151686225
  0
LINE
  8
ValleyLine
  6
CONTINUOUS
 62
5
 10
1997.9216621867324
 20
-1174.1175151686225
 11
2088.025290730478
 21
-1290.5104347332654
  0
LINE
  8
ValleyLine
  6
CONTINUOUS
 62
5
 10
2088.025290730478
 20
-1290.5104347332654
 11
2166.8595921327696
 21
-1396.5668990251677
  0
LINE
  8
ValleyLine
  6
CONTINUOUS
 62
5
 10
2166.8595921327696
 20
-1396.5668990251677
 11
2237.576772256335
 21
-1493.3922618970248
  0
LINE
  8
ValleyLine
  6
CONTINUOUS
 62
5
 10
2237.576772256335
 20
-1493.3922618970248
 11
2487.0596550922646
 21
-1836.515806196057
  0
LINE
  8
ValleyLine
  6
CONTINUOUS
 62
5
 10
2487.0596550922646
 20
-1836.515806196057
 11
2487.0596550922646
 21
-1836.515806196057
  0
LINE
  8
ValleyLine
  6
CONTINUOUS
 62
5
 10
2487.0596550922646
 20
-1836.515806196057
 11
2487.0596550922646
 21
-1836.515806196057
  0
LINE
  8
ValleyLine
  6
CONTINUOUS
 62
5
 10
0.0
 20
-0.0
 11
0.0
 21
-0.0
  0
LINE
  8
MountainLine
  6
CONTINUOUS
 62
1
 10
0.0
 20
-0.0
 11
0.0
 21
-0.0
  0
LINE
  8
ValleyLine
  6
CONTINUOUS
 62
5
 10
0.0
 20
-0.0
 11
0.0
 21
-0.0
  0
LINE
  8
MountainLine
  6
CONTINUOUS
 62
1
 10
0.0
 20
-0.0
 11
0.0
 21
-0.0
  0
LINE
  8
MountainLine
  6
CONTINUOUS
 62
1
 10
69.96282270353572
 20
-35.64872083129997
 11
77.55490490933138
 21
-25.19911614451191
  0
LINE
  8
ValleyLine
  6
CONTINUOUS
 62
5
 10
69.96282270353572
 20
-35.64872083129997
 11
47.93156722823288
 21
-65.97214255278834
  0
LINE
  8
ValleyLine
  6
CONTINUOUS
 62
5
 10
279.85129081414294
 20
-142.5948833251999
 11
310.21961963732565
 21
-100.79646457804763
  0
LINE
  8
MountainLine
  6
CONTINUOUS
 62
1
 10
279.85129081414294
 20
-142.5948833251999
 11
191.72626891293157
 21
-263.8885702111534
  0
LINE
  8
ValleyLine
  6
CONTINUOUS
 62
5
 10
541.5337883414483
 20
-271.94920097502137
 11
597.9577675023169
 21
-194.28825617695966
  0
LINE
  8
MountainLine
  6
CONTINUOUS
 62
1
 10
541.5337883414483
 20
-271.94920097502137
 11
369.558224153439
 21
-508.653258286227
  0
LINE
  8
ValleyLine
  6
CONTINUOUS
 62
5
 10
768.6441590779034
 20
-376.10506888779116
 11
842.9152001257524
 21
-273.8797507749592
  0
LINE
  8
MountainLine
  6
CONTINUOUS
 62
1
 10
768.6441590779034
 20
-376.10506888779116
 11
520.9502433116346
 21
-717.026496359193
  0
LINE
  8
ValleyLine
  6
CONTINUOUS
 62
5
 10
951.2706977175746
 20
-447.82104696373955
 11
1032.8167677758925
 21
-335.5825104499953
  0
LINE
  8
MountainLine
  6
CONTINUOUS
 62
1
 10
951.2706977175746
 20
-447.82104696373955
 11
638.3158666363086
 21
-878.5664183881041
  0
LINE
  8
ValleyLine
  6
CONTINUOUS
 62
5
 10
1103.722840187412
 20
-497.4533842856107
 11
1185.3262977774625
 21
-385.1358606107288
  0
LINE
  8
MountainLine
  6
CONTINUOUS
 62
1
 10
1103.722840187412
 20
-497.4533842856107
 11
732.5719397855507
 21
-1008.2987733653295
  0
LINE
  8
ValleyLine
  6
CONTINUOUS
 62
5
 10
1251.9982279166945
 20
-551.1000312361183
 11
1336.816314210436
 21
-434.35795073244856
  0
LINE
  8
MountainLine
  6
CONTINUOUS
 62
1
 10
1251.9982279166945
 20
-551.1000312361183
 11
826.1979188974084
 21
-1137.163878301302
  0
LINE
  8
ValleyLine
  6
CONTINUOUS
 62
5
 10
1398.637499647773
 20
-617.8164281663867
 11
1494.6648912853468
 21
-485.6460624464252
  0
LINE
  8
MountainLine
  6
CONTINUOUS
 62
1
 10
1398.637499647773
 20
-617.8164281663867
 11
923.7537046055108
 21
-1271.4378979872945
  0
LINE
  8
ValleyLine
  6
CONTINUOUS
 62
5
 10
1534.7553018603642
 20
-698.3565461240759
 11
1652.1268000657267
 21
-536.8085380155999
  0
LINE
  8
MountainLine
  6
CONTINUOUS
 62
1
 10
1534.7553018603642
 20
-698.3565461240759
 11
1021.0705161652211
 21
-1405.3829979759798
  0
LINE
  8
ValleyLine
  6
CONTINUOUS
 62
5
 10
1655.3581221891827
 20
-796.3019442681942
 11
1807.2673918403168
 21
-587.216771968393
  0
LINE
  8
MountainLine
  6
CONTINUOUS
 62
1
 10
1655.3581221891827
 20
-796.3019442681942
 11
1116.95267491669
 21
-1537.3534677772489
  0
LINE
  8
ValleyLine
  6
CONTINUOUS
 62
5
 10
1774.0193888614006
 20
-914.1039138503381
 11
1972.5086335635895
 21
-640.906906034267
  0
LINE
  8
MountainLine
  6
CONTINUOUS
 62
1
 10
1774.0193888614006
 20
-914.1039138503381
 11
1219.0773786449097
 21
-1677.9160636222452
  0
LINE
  8
ValleyLine
  6
CONTINUOUS
 62
5
 10
1890.416975795159
 20
-1044.1180349663864
 11
2143.096642479016
 21
-696.3343100720436
  0
LINE
  8
MountainLine
  6
CONTINUOUS
 62
1
 10
1890.416975795159
 20
-1044.1180349663864
 11
1324.5065662278134
 21
-1823.0268913013178
  0
LINE
  8
ValleyLine
  6
CONTINUOUS
 62
5
 10
1997.9216621867324
 20
-1174.1175151686225
 11
2306.4815380133095
 21
-749.4212806980917
  0
LINE
  8
MountainLine
  6
CONTINUOUS
 62
1
 10
1997.9216621867324
 20
-1174.1175151686225
 11
1425.483984916358
 21
-1962.0103847600785
  0
LINE
  8
ValleyLine
  6
CONTINUOUS
 62
5
 10
2088.025290730478
 20
-1290.5104347332654
 11
2447.7909463514084
 21
-795.3354907301585
  0
LINE
  8
MountainLine
  6
CONTINUOUS
 62
1
 10
2088.025290730478
 20
-1290.5104347332654
 11
1512.8180021994408
 21
-2082.215347190631
  0
LINE
  8
ValleyLine
  6
CONTINUOUS
 62
5
 10
2166.8595921327696
 20
-1396.5668990251677
 11
2573.907661546603
 21
-836.313295521273
  0
LINE
  8
MountainLine
  6
CONTINUOUS
 62
1
 10
2166.8595921327696
 20
-1396.5668990251677
 11
1590.762418739561
 21
-2189.4966329181266
  0
LINE
  8
ValleyLine
  6
CONTINUOUS
 62
5
 10
2237.576772256335
 20
-1493.3922618970248
 11
2688.031582404786
 21
-873.3944052194222
  0
LINE
  8
MountainLine
  6
CONTINUOUS
 62
1
 10
2237.576772256335
 20
-1493.3922618970248
 11
1661.2948807593214
 21
-2286.5762384484447
  0
LINE
  8
ValleyLine
  6
CONTINUOUS
 62
5
 10
2487.0596550922646
 20
-1836.515806196057
 11
3091.550433478001
 21
-1004.5056277343826
  0
LINE
  8
MountainLine
  6
CONTINUOUS
 62
1
 10
2487.0596550922646
 20
-1836.515806196057
 11
1910.6832458238753
 21
-2629.8298752991614
  0
LINE
  8
ValleyLine
  6
CONTINUOUS
 62
5
 10
2487.0596550922646
 20
-1836.515806196057
 11
3091.550433478001
 21
-1004.5056277343826
  0
LINE
  8
MountainLine
  6
CONTINUOUS
 62
1
 10
2487.0596550922646
 20
-1836.515806196057
 11
1910.6832458238753
 21
-2629.8298752991614
  0
LINE
  8
ValleyLine
  6
CONTINUOUS
 62
5
 10
0.0
 20
-0.0
 11
0.0
 21
-0.0
  0
LINE
  8
ValleyLine
  6
CONTINUOUS
 62
5
 10
0.0
 20
-0.0
 11
77.5549049093314
 21
12.282694413641433
  0
LINE
  8
ValleyLine
  6
CONTINUOUS
 62
5
 10
77.5549049093314
 20
12.282694413641433
 11
310.21961963732565
 21
49.13077765456573
  0
LINE
  8
ValleyLine
  6
CONTINUOUS
 62
5
 10
310.21961963732565
 20
49.13077765456573
 11
597.9577675023169
 21
98.29404920969665
  0
LINE
  8
ValleyLine
  6
CONTINUOUS
 62
5
 10
597.9577675023169
 20
98.29404920969665
 11
842.9152001257526
 21
147.52230856595796
  0
LINE
  8
ValleyLine
  6
CONTINUOUS
 62
5
 10
842.9152001257526
 20
147.52230856595796
 11
1032.8167677758925
 21
196.84804962391482
  0
LINE
  8
ValleyLine
  6
CONTINUOUS
 62
5
 10
1032.8167677758925
 20
196.84804962391482
 11
1185.3262977774625
 21
246.30376628413248
  0
LINE
  8
ValleyLine
  6
CONTINUOUS
 62
5
 10
1185.3262977774625
 20
246.30376628413248
 11
1336.816314210436
 21
290.0568033951594
  0
LINE
  8
ValleyLine
  6
CONTINUOUS
 62
5
 10
1336.816314210436
 20
290.0568033951594
 11
1494.6648912853473
 21
322.2745058055444
  0
LINE
  8
ValleyLine
  6
CONTINUOUS
 62
5
 10
1494.6648912853473
 20
322.2745058055444
 11
1652.1268000657271
 21
337.1242183638357
  0
LINE
  8
ValleyLine
  6
CONTINUOUS
 62
5
 10
1652.1268000657271
 20
337.1242183638357
 11
1807.267391840317
 21
328.77328591858213
  0
LINE
  8
ValleyLine
  6
CONTINUOUS
 62
5
 10
1807.267391840317
 20
328.77328591858213
 11
1972.5086335635895
 21
303.2168331240609
  0
LINE
  8
ValleyLine
  6
CONTINUOUS
 62
5
 10
1972.5086335635895
 20
303.2168331240609
 11
2143.096642479016
 21
266.44998463454954
  0
LINE
  8
ValleyLine
  6
CONTINUOUS
 62
5
 10
2143.096642479016
 20
266.44998463454954
 11
2306.4815380133095
 21
224.4678651043253
  0
LINE
  8
ValleyLine
  6
CONTINUOUS
 62
5
 10
2306.4815380133095
 20
224.4678651043253
 11
2447.790946351409
 21
183.26559918766566
  0
LINE
  8
ValleyLine
  6
CONTINUOUS
 62
5
 10
2447.790946351409
 20
183.26559918766566
 11
2573.907661546603
 21
143.80175695124356
  0
LINE
  8
ValleyLine
  6
CONTINUOUS
 62
5
 10
2573.907661546603
 20
143.80175695124356
 11
2688.031582404786
 21
107.03490846173223
  0
LINE
  8
ValleyLine
  6
CONTINUOUS
 62
5
 10
2688.031582404786
 20
107.03490846173223
 11
3091.550433478001
 21
-23.91551081597948
  0
LINE
  8
ValleyLine
  6
CONTINUOUS
 62
5
 10
3091.550433478001
 20
-23.91551081597948
 11
3091.550433478001
 21
-23.91551081597948
  0
LINE
  8
ValleyLine
  6
CONTINUOUS
 62
5
 10
3091.550433478001
 20
-23.91551081597948
 11
3091.550433478001
 21
-23.91551081597948
  0
LINE
  8
ValleyLine
  6
CONTINUOUS
 62
5
 10
0.0
 20
-0.0
 11
0.0
 21
-0.0
  0
LINE
  8
MountainLine
  6
CONTINUOUS
 62
1
 10
0.0
 20
-0.0
 11
0.0
 21
-0.0
  0
LINE
  8
ValleyLine
  6
CONTINUOUS
 62
5
 10
0.0
 20
-0.0
 11
0.0
 21
-0.0
  0
LINE
  8
MountainLine
  6
CONTINUOUS
 62
1
 10
0.0
 20
-0.0
 11
0.0
 21
-0.0
  0
LINE
  8
MountainLine
  6
CONTINUOUS
 62
1
 10
77.5549049093314
 20
12.282694413641433
 11
77.5549049093314
 21
25.19911614451188
  0
LINE
  8
ValleyLine
  6
CONTINUOUS
 62
5
 10
77.5549049093314
 20
12.282694413641433
 11
77.5549049093314
 21
-25.199116144511898
  0
LINE
  8
ValleyLine
  6
CONTINUOUS
 62
5
 10
310.21961963732565
 20
49.13077765456573
 11
310.21961963732565
 21
100.79646457804756
  0
LINE
  8
MountainLine
  6
CONTINUOUS
 62
1
 10
310.21961963732565
 20
49.13077765456573
 11
310.21961963732565
 21
-100.79646457804763
  0
LINE
  8
ValleyLine
  6
CONTINUOUS
 62
5
 10
597.9577675023169
 20
98.29404920969665
 11
597.9577675023169
 21
194.28825617695952
  0
LINE
  8
MountainLine
  6
CONTINUOUS
 62
1
 10
597.9577675023169
 20
98.29404920969665
 11
597.9577675023169
 21
-194.28825617695966
  0
LINE
  8
ValleyLine
  6
CONTINUOUS
 62
5
 10
842.9152001257526
 20
147.52230856595796
 11
842.9152001257526
 21
273.8797507749588
  0
LINE
  8
MountainLine
  6
CONTINUOUS
 62
1
 10
842.9152001257526
 20
147.52230856595796
 11
842.9152001257526
 21
-273.879750774959
  0
LINE
  8
ValleyLine
  6
CONTINUOUS
 62
5
 10
1032.8167677758925
 20
196.84804962391482
 11
1032.8167677758925
 21
335.58251044999497
  0
LINE
  8
MountainLine
  6
CONTINUOUS
 62
1
 10
1032.8167677758925
 20
196.84804962391482
 11
1032.8167677758925
 21
-335.58251044999525
  0
LINE
  8
ValleyLine
  6
CONTINUOUS
 62
5
 10
1185.3262977774625
 20
246.30376628413248
 11
1185.3262977774625
 21
385.13586061072846
  0
LINE
  8
MountainLine
  6
CONTINUOUS
 62
1
 10
1185.3262977774625
 20
246.30376628413248
 11
1185.3262977774625
 21
-385.13586061072874
  0
LINE
  8
ValleyLine
  6
CONTINUOUS
 62
5
 10
1336.816314210436
 20
290.0568033951594
 11
1336.816314210436
 21
434.35795073244816
  0
LINE
  8
MountainLine
  6
CONTINUOUS
 62
1
 10
1336.816314210436
 20
290.0568033951594
 11
1336.816314210436
 21
-434.35795073244844
  0
LINE
  8
ValleyLine
  6
CONTINUOUS
 62
5
 10
1494.6648912853473
 20
322.2745058055444
 11
1494.6648912853473
 21
485.64606244642465
  0
LINE
  8
MountainLine
  6
CONTINUOUS
 62
1
 10
1494.6648912853473
 20
322.2745058055444
 11
1494.6648912853473
 21
-485.6460624464251
  0
LINE
  8
ValleyLine
  6
CONTINUOUS
 62
5
 10
1652.1268000657271
 20
337.1242183638357
 11
1652.1268000657271
 21
536.8085380155993
  0
LINE
  8
MountainLine
  6
CONTINUOUS
 62
1
 10
1652.1268000657271
 20
337.1242183638357
 11
1652.1268000657271
 21
-536.8085380155998
  0
LINE
  8
ValleyLine
  6
CONTINUOUS
 62
5
 10
1807.267391840317
 20
328.77328591858213
 11
1807.267391840317
 21
587.2167719683924
  0
LINE
  8
MountainLine
  6
CONTINUOUS
 62
1
 10
1807.267391840317
 20
328.77328591858213
 11
1807.267391840317
 21
-587.2167719683929
  0
LINE
  8
ValleyLine
  6
CONTINUOUS
 62
5
 10
1972.5086335635895
 20
303.2168331240609
 11
1972.5086335635895
 21
640.9069060342663
  0
LINE
  8
MountainLine
  6
CONTINUOUS
 62
1
 10
1972.5086335635895
 20
303.2168331240609
 11
1972.5086335635895
 21
-640.9069060342667
  0
LINE
  8
ValleyLine
  6
CONTINUOUS
 62
5
 10
2143.096642479016
 20
266.44998463454954
 11
2143.096642479016
 21
696.334310072043
  0
LINE
  8
MountainLine
  6
CONTINUOUS
 62
1
 10
2143.096642479016
 20
266.44998463454954
 11
2143.096642479016
 21
-696.3343100720435
  0
LINE
  8
ValleyLine
  6
CONTINUOUS
 62
5
 10
2306.4815380133095
 20
224.4678651043253
 11
2306.4815380133095
 21
749.4212806980909
  0
LINE
  8
MountainLine
  6
CONTINUOUS
 62
1
 10
2306.4815380133095
 20
224.4678651043253
 11
2306.4815380133095
 21
-749.4212806980914
  0
LINE
  8
ValleyLine
  6
CONTINUOUS
 62
5
 10
2447.790946351409
 20
183.26559918766566
 11
2447.790946351409
 21
795.3354907301576
  0
LINE
  8
MountainLine
  6
CONTINUOUS
 62
1
 10
2447.790946351409
 20
183.26559918766566
 11
2447.790946351409
 21
-795.3354907301582
  0
LINE
  8
ValleyLine
  6
CONTINUOUS
 62
5
 10
2573.907661546603
 20
143.80175695124356
 11
2573.907661546603
 21
836.3132955212722
  0
LINE
  8
MountainLine
  6
CONTINUOUS
 62
1
 10
2573.907661546603
 20
143.80175695124356
 11
2573.907661546603
 21
-836.3132955212727
  0
LINE
  8
ValleyLine
  6
CONTINUOUS
 62
5
 10
2688.031582404786
 20
107.03490846173223
 11
2688.031582404786
 21
873.3944052194213
  0
LINE
  8
MountainLine
  6
CONTINUOUS
 62
1
 10
2688.031582404786
 20
107.03490846173223
 11
2688.031582404786
 21
-873.3944052194219
  0
LINE
  8
ValleyLine
  6
CONTINUOUS
 62
5
 10
3091.550433478001
 20
-23.91551081597948
 11
3091.550433478001
 21
1004.5056277343814
  0
LINE
  8
MountainLine
  6
CONTINUOUS
 62
1
 10
3091.550433478001
 20
-23.91551081597948
 11
3091.550433478001
 21
-1004.5056277343823
  0
LINE
  8
ValleyLine
  6
CONTINUOUS
 62
5
 10
3091.550433478001
 20
-23.91551081597948
 11
3091.550433478001
 21
1004.5056277343814
  0
LINE
  8
MountainLine
  6
CONTINUOUS
 62
1
 10
3091.550433478001
 20
-23.91551081597948
 11
3091.550433478001
 21
-1004.5056277343823
  0
LINE
  8
ValleyLine
  6
CONTINUOUS
 62
5
 10
0.0
 20
0.0
 11
0.0
 21
0.0
  0
LINE
  8
ValleyLine
  6
CONTINUOUS
 62
5
 10
0.0
 20
0.0
 11
55.52364943402856
 21
55.52253786600026
  0
LINE
  8
ValleyLine
  6
CONTINUOUS
 62
5
 10
55.52364943402856
 20
55.52253786600026
 11
222.09459773611434
 21
222.09015146400114
  0
LINE
  8
ValleyLine
  6
CONTINUOUS
 62
5
 10
222.09459773611434
 20
222.09015146400114
 11
425.9822033143077
 21
430.9923134881652
  0
LINE
  8
ValleyLine
  6
CONTINUOUS
 62
5
 10
425.9822033143077
 20
430.9923134881652
 11
595.221284359484
 21
614.8011782463608
  0
LINE
  8
ValleyLine
  6
CONTINUOUS
 62
5
 10
595.221284359484
 20
614.8011782463608
 11
719.8619366946266
 21
766.3278818743597
  0
LINE
  8
ValleyLine
  6
CONTINUOUS
 62
5
 10
719.8619366946266
 20
766.3278818743597
 11
814.1753973756015
 21
895.9812496904473
  0
LINE
  8
ValleyLine
  6
CONTINUOUS
 62
5
 10
814.1753973756015
 20
895.9812496904473
 11
911.0160051911502
 21
1020.4217977976322
  0
LINE
  8
ValleyLine
  6
CONTINUOUS
 62
5
 10
911.0160051911502
 20
1020.4217977976322
 11
1019.781096243085
 21
1139.2675322673329
  0
LINE
  8
ValleyLine
  6
CONTINUOUS
 62
5
 10
1019.781096243085
 20
1139.2675322673329
 11
1138.442014370584
 21
1243.8349898675035
  0
LINE
  8
ValleyLine
  6
CONTINUOUS
 62
5
 10
1138.442014370584
 20
1243.8349898675035
 11
1268.8619445678246
 21
1328.268295477447
  0
LINE
  8
ValleyLine
  6
CONTINUOUS
 62
5
 10
1268.8619445678246
 20
1328.268295477447
 11
1417.5666233470988
 21
1404.7190558061734
  0
LINE
  8
ValleyLine
  6
CONTINUOUS
 62
5
 10
1417.5666233470988
 20
1404.7190558061734
 11
1577.1862329116707
 21
1475.2431664069748
  0
LINE
  8
ValleyLine
  6
CONTINUOUS
 62
5
 10
1577.1862329116707
 20
1475.2431664069748
 11
1734.043860742935
 21
1537.3141502895473
  0
LINE
  8
ValleyLine
  6
CONTINUOUS
 62
5
 10
1734.043860742935
 20
1537.3141502895473
 11
1872.5836578203714
 21
1587.0404031875235
  0
LINE
  8
ValleyLine
  6
CONTINUOUS
 62
5
 10
1872.5836578203714
 20
1587.0404031875235
 11
1997.8104881533945
 21
1629.2430294142314
  0
LINE
  8
ValleyLine
  6
CONTINUOUS
 62
5
 10
1997.8104881533945
 20
1629.2430294142314
 11
2111.7496909077727
 21
1666.5783817708411
  0
LINE
  8
ValleyLine
  6
CONTINUOUS
 62
5
 10
2111.7496909077727
 20
1666.5783817708411
 11
2515.174024209612
 21
1797.8196968374862
  0
LINE
  8
ValleyLine
  6
CONTINUOUS
 62
5
 10
2515.174024209612
 20
1797.8196968374862
 11
2515.174024209612
 21
1797.8196968374862
  0
LINE
  8
ValleyLine
  6
CONTINUOUS
 62
5
 10
2515.174024209612
 20
1797.8196968374862
 11
2515.174024209612
 21
1797.8196968374862
  0
LINE
  8
ValleyLine
  6
CONTINUOUS
 62
5
 10
0.0
 20
0.0
 11
0.0
 21
0.0
  0
LINE
  8
MountainLine
  6
CONTINUOUS
 62
1
 10
0.0
 20
0.0
 11
0.0
 21
-0.0
  0
LINE
  8
ValleyLine
  6
CONTINUOUS
 62
5
 10
0.0
 20
0.0
 11
0.0
 21
0.0
  0
LINE
  8
MountainLine
  6
CONTINUOUS
 62
1
 10
0.0
 20
0.0
 11
0.0
 21
-0.0
  0
LINE
  8
MountainLine
  6
CONTINUOUS
 62
1
 10
55.52364943402856
 20
55.52253786600026
 11
47.93156722823289
 21
65.97214255278833
  0
LINE
  8
ValleyLine
  6
CONTINUOUS
 62
5
 10
55.52364943402856
 20
55.52253786600026
 11
77.5549049093314
 21
25.199116144511883
  0
LINE
  8
ValleyLine
  6
CONTINUOUS
 62
5
 10
222.09459773611434
 20
222.09015146400114
 11
191.72626891293163
 21
263.8885702111534
  0
LINE
  8
MountainLine
  6
CONTINUOUS
 62
1
 10
222.09459773611434
 20
222.09015146400114
 11
310.21961963732565
 21
100.79646457804759
  0
LINE
  8
ValleyLine
  6
CONTINUOUS
 62
5
 10
425.9822033143077
 20
430.9923134881652
 11
369.5582241534392
 21
508.6532582862269
  0
LINE
  8
MountainLine
  6
CONTINUOUS
 62
1
 10
425.9822033143077
 20
430.9923134881652
 11
597.9577675023169
 21
194.28825617695952
  0
LINE
  8
ValleyLine
  6
CONTINUOUS
 62
5
 10
595.221284359484
 20
614.8011782463608
 11
520.9502433116348
 21
717.0264963591928
  0
LINE
  8
MountainLine
  6
CONTINUOUS
 62
1
 10
595.221284359484
 20
614.8011782463608
 11
842.9152001257526
 21
273.8797507749589
  0
LINE
  8
ValleyLine
  6
CONTINUOUS
 62
5
 10
719.8619366946266
 20
766.3278818743597
 11
638.3158666363087
 21
878.566418388104
  0
LINE
  8
MountainLine
  6
CONTINUOUS
 62
1
 10
719.8619366946266
 20
766.3278818743597
 11
1032.8167677758925
 21
335.582510449995
  0
LINE
  8
ValleyLine
  6
CONTINUOUS
 62
5
 10
814.1753973756015
 20
895.9812496904473
 11
732.5719397855509
 21
1008.2987733653292
  0
LINE
  8
MountainLine
  6
CONTINUOUS
 62
1
 10
814.1753973756015
 20
895.9812496904473
 11
1185.3262977774625
 21
385.1358606107285
  0
LINE
  8
ValleyLine
  6
CONTINUOUS
 62
5
 10
911.0160051911502
 20
1020.4217977976322
 11
826.1979188974086
 21
1137.163878301302
  0
LINE
  8
MountainLine
  6
CONTINUOUS
 62
1
 10
911.0160051911502
 20
1020.4217977976322
 11
1336.816314210436
 21
434.3579507324482
  0
LINE
  8
ValleyLine
  6
CONTINUOUS
 62
5
 10
1019.781096243085
 20
1139.2675322673329
 11
923.7537046055112
 21
1271.4378979872943
  0
LINE
  8
MountainLine
  6
CONTINUOUS
 62
1
 10
1019.781096243085
 20
1139.2675322673329
 11
1494.6648912853473
 21
485.64606244642493
  0
LINE
  8
ValleyLine
  6
CONTINUOUS
 62
5
 10
1138.442014370584
 20
1243.8349898675035
 11
1021.0705161652214
 21
1405.3829979759798
  0
LINE
  8
MountainLine
  6
CONTINUOUS
 62
1
 10
1138.442014370584
 20
1243.8349898675035
 11
1652.1268000657271
 21
536.8085380155994
  0
LINE
  8
ValleyLine
  6
CONTINUOUS
 62
5
 10
1268.8619445678246
 20
1328.268295477447
 11
1116.9526749166905
 21
1537.3534677772486
  0
LINE
  8
MountainLine
  6
CONTINUOUS
 62
1
 10
1268.8619445678246
 20
1328.268295477447
 11
1807.267391840317
 21
587.2167719683925
  0
LINE
  8
ValleyLine
  6
CONTINUOUS
 62
5
 10
1417.5666233470988
 20
1404.7190558061734
 11
1219.0773786449101
 21
1677.916063622245
  0
LINE
  8
MountainLine
  6
CONTINUOUS
 62
1
 10
1417.5666233470988
 20
1404.7190558061734
 11
1972.5086335635895
 21
640.9069060342665
  0
LINE
  8
ValleyLine
  6
CONTINUOUS
 62
5
 10
1577.1862329116707
 20
1475.2431664069748
 11
1324.506566227814
 21
1823.0268913013174
  0
LINE
  8
MountainLine
  6
CONTINUOUS
 62
1
 10
1577.1862329116707
 20
1475.2431664069748
 11
2143.096642479016
 21
696.3343100720432
  0
LINE
  8
ValleyLine
  6
CONTINUOUS
 62
5
 10
1734.043860742935
 20
1537.3141502895473
 11
1425.4839849163582
 21
1962.0103847600778
  0
LINE
  8
MountainLine
  6
CONTINUOUS
 62
1
 10
1734.043860742935
 20
1537.3141502895473
 11
2306.4815380133095
 21
749.4212806980911
  0
LINE
  8
ValleyLine
  6
CONTINUOUS
 62
5
 10
1872.5836578203714
 20
1587.0404031875235
 11
1512.818002199441
 21
2082.2153471906304
  0
LINE
  8
MountainLine
  6
CONTINUOUS
 62
1
 10
1872.5836578203714
 20
1587.0404031875235
 11
2447.790946351409
 21
795.335490730158
  0
LINE
  8
ValleyLine
  6
CONTINUOUS
 62
5
 10
1997.8104881533945
 20
1629.2430294142314
 11
1590.7624187395616
 21
2189.4966329181266
  0
LINE
  8
MountainLine
  6
CONTINUOUS
 62
1
 10
1997.8104881533945
 20
1629.2430294142314
 11
2573.907661546603
 21
836.3132955212723
  0
LINE
  8
ValleyLine
  6
CONTINUOUS
 62
5
 10
2111.7496909077727
 20
1666.5783817708411
 11
1661.2948807593216
 21
2286.5762384484437
  0
LINE
  8
MountainLine
  6
CONTINUOUS
 62
1
 10
2111.7496909077727
 20
1666.5783817708411
 11
2688.031582404786
 21
873.3944052194213
  0
LINE
  8
ValleyLine
  6
CONTINUOUS
 62
5
 10
2515.174024209612
 20
1797.8196968374862
 11
1910.6832458238755
 21
2629.8298752991604
  0
LINE
  8
MountainLine
  6
CONTINUOUS
 62
1
 10
2515.174024209612
 20
1797.8196968374862
 11
3091.550433478001
 21
1004.5056277343816
  0
LINE
  8
ValleyLine
  6
CONTINUOUS
 62
5
 10
2515.174024209612
 20
1797.8196968374862
 11
1910.6832458238755
 21
2629.8298752991604
  0
LINE
  8
MountainLine
  6
CONTINUOUS
 62
1
 10
2515.174024209612
 20
1797.8196968374862
 11
3091.550433478001
 21
1004.5056277343816
  0
LINE
  8
ValleyLine
  6
CONTINUOUS
 62
5
 10
0.0
 20
0.0
 11
0.0
 21
0.0
  0
LINE
  8
ValleyLine
  6
CONTINUOUS
 62
5
 10
0.0
 20
0.0
 11
12.28424705436068
 21
77.55465899520006
  0
LINE
  8
ValleyLine
  6
CONTINUOUS
 62
5
 10
12.28424705436068
 20
77.55465899520006
 11
49.13698821744274
 21
310.2186359808003
  0
LINE
  8
ValleyLine
  6
CONTINUOUS
 62
5
 10
49.13698821744274
 20
310.2186359808003
 11
91.29591606280108
 21
599.0661629041045
  0
LINE
  8
ValleyLine
  6
CONTINUOUS
 62
5
 10
91.29591606280108
 20
599.0661629041045
 11
120.17306879525871
 21
847.2468941601363
  0
LINE
  8
ValleyLine
  6
CONTINUOUS
 62
5
 10
120.17306879525871
 20
847.2468941601363
 11
131.94431300333844
 21
1043.0965097755136
  0
LINE
  8
ValleyLine
  6
CONTINUOUS
 62
5
 10
131.94431300333844
 20
1043.0965097755136
 11
132.03716798021273
 21
1203.4243489976175
  0
LINE
  8
ValleyLine
  6
CONTINUOUS
 62
5
 10
132.03716798021273
 20
1203.4243489976175
 11
137.2385464839957
 21
1361.020348302682
  0
LINE
  8
ValleyLine
  6
CONTINUOUS
 62
5
 10
137.2385464839957
 20
1361.020348302682
 11
155.37558352059233
 21
1521.0990836822175
  0
LINE
  8
ValleyLine
  6
CONTINUOUS
 62
5
 10
155.37558352059233
 20
1521.0990836822175
 11
189.91107340677448
 21
1675.4430716381662
  0
LINE
  8
ValleyLine
  6
CONTINUOUS
 62
5
 10
189.91107340677448
 20
1675.4430716381662
 11
245.79436150170807
 21
1820.4099623428156
  0
LINE
  8
ValleyLine
  6
CONTINUOUS
 62
5
 10
245.79436150170807
 20
1820.4099623428156
 11
321.16234432943673
 21
1969.666343814988
  0
LINE
  8
ValleyLine
  6
CONTINUOUS
 62
5
 10
321.16234432943673
 20
1969.666343814988
 11
408.844288960475
 21
2120.5436002829524
  0
LINE
  8
ValleyLine
  6
CONTINUOUS
 62
5
 10
408.844288960475
 20
2120.5436002829524
 11
499.260366651849
 21
2262.958681450326
  0
LINE
  8
ValleyLine
  6
CONTINUOUS
 62
5
 10
499.260366651849
 20
2262.958681450326
 11
582.1130587795553
 21
2384.619714689084
  0
LINE
  8
ValleyLine
  6
CONTINUOUS
 62
5
 10
582.1130587795553
 20
2384.619714689084
 11
658.6176113666088
 21
2492.3688405748276
  0
LINE
  8
ValleyLine
  6
CONTINUOUS
 62
5
 10
658.6176113666088
 20
2492.3688405748276
 11
728.851193216075
 21
2589.545558159287
  0
LINE
  8
ValleyLine
  6
CONTINUOUS
 62
5
 10
728.851193216075
 20
2589.545558159287
 11
978.0866253140024
 21
2932.8488859430645
  0
LINE
  8
ValleyLine
  6
CONTINUOUS
 62
5
 10
978.0866253140024
 20
2932.8488859430645
 11
978.0866253140024
 21
2932.8488859430645
  0
LINE
  8
ValleyLine
  6
CONTINUOUS
 62
5
 10
978.0866253140024
 20
2932.8488859430645
 11
978.0866253140024
 21
2932.8488859430645
  0
LINE
  8
ValleyLine
  6
CONTINUOUS
 62
5
 10
0.0
 20
0.0
 11
0.0
 21
0.0
  0
LINE
  8
MountainLine
  6
CONTINUOUS
 62
1
 10
0.0
 20
0.0
 11
0.0
 21
-0.0
  0
LINE
  8
ValleyLine
  6
CONTINUOUS
 62
5
 10
0.0
 20
0.0
 11
0.0
 21
0.0
  0
LINE
  8
MountainLine
  6
CONTINUOUS
 62
1
 10
0.0
 20
0.0
 11
0.0
 21
-0.0
  0
LINE
  8
MountainLine
  6
CONTINUOUS
 62
1
 10
12.28424705436068
 20
77.55465899520006
 11
1.7931677874071928E-14
 21
81.54605281655289
  0
LINE
  8
ValleyLine
  6
CONTINUOUS
 62
5
 10
12.28424705436068
 20
77.55465899520006
 11
47.93156722823289
 21
65.97214255278834
  0
LINE
  8
ValleyLine
  6
CONTINUOUS
 62
5
 10
49.13698821744274
 20
310.2186359808003
 11
5.379503362221578E-14
 21
326.18421126621166
  0
LINE
  8
MountainLine
  6
CONTINUOUS
 62
1
 10
49.13698821744274
 20
310.2186359808003
 11
191.72626891293163
 21
263.8885702111534
  0
LINE
  8
ValleyLine
  6
CONTINUOUS
 62
5
 10
91.29591606280108
 20
599.0661629041045
 11
7.172671149628771E-14
 21
628.7300042185348
  0
LINE
  8
MountainLine
  6
CONTINUOUS
 62
1
 10
91.29591606280108
 20
599.0661629041045
 11
369.5582241534392
 21
508.6532582862269
  0
LINE
  8
ValleyLine
  6
CONTINUOUS
 62
5
 10
120.17306879525871
 20
847.2468941601363
 11
1.7931677874071929E-13
 21
886.2934911684679
  0
LINE
  8
MountainLine
  6
CONTINUOUS
 62
1
 10
120.17306879525871
 20
847.2468941601363
 11
520.9502433116348
 21
717.0264963591928
  0
LINE
  8
ValleyLine
  6
CONTINUOUS
 62
5
 10
131.94431300333844
 20
1043.0965097755136
 11
1.7931677874071929E-13
 21
1085.9678158762179
  0
LINE
  8
MountainLine
  6
CONTINUOUS
 62
1
 10
131.94431300333844
 20
1043.0965097755136
 11
638.3158666363089
 21
878.566418388104
  0
LINE
  8
ValleyLine
  6
CONTINUOUS
 62
5
 10
132.03716798021273
 20
1203.4243489976175
 11
2.1518013448886312E-13
 21
1246.3258255092014
  0
LINE
  8
MountainLine
  6
CONTINUOUS
 62
1
 10
132.03716798021273
 20
1203.4243489976175
 11
732.5719397855511
 21
1008.2987733653292
  0
LINE
  8
ValleyLine
  6
CONTINUOUS
 62
5
 10
137.2385464839957
 20
1361.020348302682
 11
2.1518013448886312E-13
 21
1405.6118551377074
  0
LINE
  8
MountainLine
  6
CONTINUOUS
 62
1
 10
137.2385464839957
 20
1361.020348302682
 11
826.1979188974086
 21
1137.163878301302
  0
LINE
  8
ValleyLine
  6
CONTINUOUS
 62
5
 10
155.37558352059233
 20
1521.0990836822175
 11
2.8690684598515085E-13
 21
1571.5836710817389
  0
LINE
  8
MountainLine
  6
CONTINUOUS
 62
1
 10
155.37558352059233
 20
1521.0990836822175
 11
923.7537046055112
 21
1271.4378979872943
  0
LINE
  8
ValleyLine
  6
CONTINUOUS
 62
5
 10
189.91107340677448
 20
1675.4430716381662
 11
2.8690684598515085E-13
 21
1737.1489199207604
  0
LINE
  8
MountainLine
  6
CONTINUOUS
 62
1
 10
189.91107340677448
 20
1675.4430716381662
 11
1021.0705161652215
 21
1405.3829979759798
  0
LINE
  8
ValleyLine
  6
CONTINUOUS
 62
5
 10
245.79436150170807
 20
1820.4099623428156
 11
3.5863355748143857E-13
 21
1900.2733916177117
  0
LINE
  8
MountainLine
  6
CONTINUOUS
 62
1
 10
245.79436150170807
 20
1820.4099623428156
 11
1116.9526749166905
 21
1537.3534677772486
  0
LINE
  8
ValleyLine
  6
CONTINUOUS
 62
5
 10
321.16234432943673
 20
1969.666343814988
 11
3.5863355748143857E-13
 21
2074.0183151759566
  0
LINE
  8
MountainLine
  6
CONTINUOUS
 62
1
 10
321.16234432943673
 20
1969.666343814988
 11
1219.0773786449101
 21
1677.916063622245
  0
LINE
  8
ValleyLine
  6
CONTINUOUS
 62
5
 10
408.844288960475
 20
2120.5436002829524
 11
4.3036026897772625E-13
 21
2253.3851624585486
  0
LINE
  8
MountainLine
  6
CONTINUOUS
 62
1
 10
408.844288960475
 20
2120.5436002829524
 11
1324.5065662278137
 21
1823.0268913013174
  0
LINE
  8
ValleyLine
  6
CONTINUOUS
 62
5
 10
499.260366651849
 20
2262.958681450326
 11
4.3036026897772625E-13
 21
2425.178208123974
  0
LINE
  8
MountainLine
  6
CONTINUOUS
 62
1
 10
499.260366651849
 20
2262.958681450326
 11
1425.4839849163584
 21
1962.010384760078
  0
LINE
  8
ValleyLine
  6
CONTINUOUS
 62
5
 10
582.1130587795553
 20
2384.619714689084
 11
4.3036026897772625E-13
 21
2573.7597129209453
  0
LINE
  8
MountainLine
  6
CONTINUOUS
 62
1
 10
582.1130587795553
 20
2384.619714689084
 11
1512.818002199441
 21
2082.2153471906304
  0
LINE
  8
ValleyLine
  6
CONTINUOUS
 62
5
 10
658.6176113666088
 20
2492.3688405748276
 11
5.738136919703017E-13
 21
2706.366674793708
  0
LINE
  8
MountainLine
  6
CONTINUOUS
 62
1
 10
658.6176113666088
 20
2492.3688405748276
 11
1590.7624187395616
 21
2189.4966329181266
  0
LINE
  8
ValleyLine
  6
CONTINUOUS
 62
5
 10
728.851193216075
 20
2589.545558159287
 11
4.3036026897772625E-13
 21
2826.3636664580454
  0
LINE
  8
MountainLine
  6
CONTINUOUS
 62
1
 10
728.851193216075
 20
2589.545558159287
 11
1661.2948807593216
 21
2286.576238448444
  0
LINE
  8
ValleyLine
  6
CONTINUOUS
 62
5
 10
978.0866253140024
 20
2932.8488859430645
 11
5.738136919703017E-13
 21
3250.648495129559
  0
LINE
  8
MountainLine
  6
CONTINUOUS
 62
1
 10
978.0866253140024
 20
2932.8488859430645
 11
1910.683245823876
 21
2629.829875299161
  0
LINE
  8
ValleyLine
  6
CONTINUOUS
 62
5
 10
978.0866253140024
 20
2932.8488859430645
 11
5.738136919703017E-13
 21
3250.648495129559
  0
LINE
  8
MountainLine
  6
CONTINUOUS
 62
1
 10
978.0866253140024
 20
2932.8488859430645
 11
1910.683245823876
 21
2629.829875299161
  0
LINE
  8
ValleyLine
  6
CONTINUOUS
 62
5
 10
0.0
 20
-0.0
 11
0.0
 21
-0.0
  0
LINE
  8
ValleyLine
  6
CONTINUOUS
 62
5
 10
0.0
 20
-0.0
 11
-35.6473201738722
 21
69.9635363741412
  0
LINE
  8
ValleyLine
  6
CONTINUOUS
 62
5
 10
-35.6473201738722
 20
69.9635363741412
 11
-142.58928069548884
 21
279.85414549656485
  0
LINE
  8
ValleyLine
  6
CONTINUOUS
 62
5
 10
-142.58928069548884
 20
279.85414549656485
 11
-278.26230809063804
 21
538.3170996006572
  0
LINE
  8
ValleyLine
  6
CONTINUOUS
 62
5
 10
-278.26230809063804
 20
538.3170996006572
 11
-400.77717451637596
 21
756.0730933675246
  0
LINE
  8
ValleyLine
  6
CONTINUOUS
 62
5
 10
-400.77717451637596
 20
756.0730933675246
 11
-506.37155363297023
 21
921.4377244888084
  0
LINE
  8
ValleyLine
  6
CONTINUOUS
 62
5
 10
-506.37155363297023
 20
921.4377244888084
 11
-600.5347718053381
 21
1051.2002498769134
  0
LINE
  8
ValleyLine
  6
CONTINUOUS
 62
5
 10
-600.5347718053381
 20
1051.2002498769134
 11
-688.9593724134127
 21
1181.7553851363277
  0
LINE
  8
ValleyLine
  6
CONTINUOUS
 62
5
 10
-688.9593724134127
 20
1181.7553851363277
 11
-768.3781210849187
 21
1321.9224853868159
  0
LINE
  8
ValleyLine
  6
CONTINUOUS
 62
5
 10
-768.3781210849187
 20
1321.9224853868159
 11
-831.1594427584467
 21
1467.088846258574
  0
LINE
  8
ValleyLine
  6
CONTINUOUS
 62
5
 10
-831.1594427584467
 20
1467.088846258574
 11
-871.1583134149822
 21
1617.2168970521448
  0
LINE
  8
ValleyLine
  6
CONTINUOUS
 62
5
 10
-871.1583134149822
 20
1617.2168970521448
 11
-897.915034315473
 21
1782.268034983214
  0
LINE
  8
ValleyLine
  6
CONTINUOUS
 62
5
 10
-897.915034315473
 20
1782.268034983214
 11
-915.6622772673386
 21
1955.8684534769138
  0
LINE
  8
ValleyLine
  6
CONTINUOUS
 62
5
 10
-915.6622772673386
 20
1955.8684534769138
 11
-926.223618264509
 21
2124.2299114337266
  0
LINE
  8
ValleyLine
  6
CONTINUOUS
 62
5
 10
-926.223618264509
 20
2124.2299114337266
 11
-930.7049434198856
 21
2271.3553454224916
  0
LINE
  8
ValleyLine
  6
CONTINUOUS
 62
5
 10
-930.7049434198856
 20
2271.3553454224916
 11
-932.1448073729526
 21
2403.4944671370076
  0
LINE
  8
ValleyLine
  6
CONTINUOUS
 62
5
 10
-932.1448073729526
 20
2403.4944671370076
 11
-932.4436875432464
 21
2523.3943467472027
  0
LINE
  8
ValleyLine
  6
CONTINUOUS
 62
5
 10
-932.4436875432464
 20
2523.3943467472027
 11
-932.5966205098729
 21
2947.629484485655
  0
LINE
  8
ValleyLine
  6
CONTINUOUS
 62
5
 10
-932.5966205098729
 20
2947.629484485655
 11
-932.5966205098729
 21
2947.629484485655
  0
LINE
  8
ValleyLine
  6
CONTINUOUS
 62
5
 10
-932.5966205098729
 20
2947.629484485655
 11
-932.5966205098729
 21
2947.629484485655
  0
LINE
  8
ValleyLine
  6
CONTINUOUS
 62
5
 10
0.0
 20
-0.0
 11
0.0
 21
-0.0
  0
LINE
  8
MountainLine
  6
CONTINUOUS
 62
1
 10
0.0
 20
-0.0
 11
0.0
 21
0.0
  0
LINE
  8
ValleyLine
  6
CONTINUOUS
 62
5
 10
0.0
 20
-0.0
 11
0.0
 21
-0.0
  0
LINE
  8
MountainLine
  6
CONTINUOUS
 62
1
 10
0.0
 20
-0.0
 11
0.0
 21
0.0
  0
LINE
  8
MountainLine
  6
CONTINUOUS
 62
1
 10
-35.6473201738722
 20
69.9635363741412
 11
-47.93156722823287
 21
65.97214255278836
  0
LINE
  8
ValleyLine
  6
CONTINUOUS
 62
5
 10
-35.6473201738722
 20
69.9635363741412
 11
1.3448758405553945E-14
 21
81.54605281655289
  0
LINE
  8
ValleyLine
  6
CONTINUOUS
 62
5
 10
-142.58928069548884
 20
279.85414549656485
 11
-191.72626891293152
 21
263.8885702111535
  0
LINE
  8
MountainLine
  6
CONTINUOUS
 62
1
 10
-142.58928069548884
 20
279.85414549656485
 11
7.172671149628771E-14
 21
326.1842112662117
  0
LINE
  8
ValleyLine
  6
CONTINUOUS
 62
5
 10
-278.26230809063804
 20
538.3170996006572
 11
-369.558224153439
 21
508.653258286227
  0
LINE
  8
MountainLine
  6
CONTINUOUS
 62
1
 10
-278.26230809063804
 20
538.3170996006572
 11
1.0759006724443156E-13
 21
628.7300042185348
  0
LINE
  8
ValleyLine
  6
CONTINUOUS
 62
5
 10
-400.77717451637596
 20
756.0730933675246
 11
-520.9502433116345
 21
717.0264963591932
  0
LINE
  8
MountainLine
  6
CONTINUOUS
 62
1
 10
-400.77717451637596
 20
756.0730933675246
 11
1.4345342299257542E-13
 21
886.2934911684679
  0
LINE
  8
ValleyLine
  6
CONTINUOUS
 62
5
 10
-506.37155363297023
 20
921.4377244888084
 11
-638.3158666363084
 21
878.5664183881041
  0
LINE
  8
MountainLine
  6
CONTINUOUS
 62
1
 10
-506.37155363297023
 20
921.4377244888084
 11
2.1518013448886312E-13
 21
1085.9678158762179
  0
LINE
  8
ValleyLine
  6
CONTINUOUS
 62
5
 10
-600.5347718053381
 20
1051.2002498769134
 11
-732.5719397855506
 21
1008.2987733653295
  0
LINE
  8
MountainLine
  6
CONTINUOUS
 62
1
 10
-600.5347718053381
 20
1051.2002498769134
 11
2.8690684598515085E-13
 21
1246.3258255092014
  0
LINE
  8
ValleyLine
  6
CONTINUOUS
 62
5
 10
-688.9593724134127
 20
1181.7553851363277
 11
-826.1979188974084
 21
1137.1638783013022
  0
LINE
  8
MountainLine
  6
CONTINUOUS
 62
1
 10
-688.9593724134127
 20
1181.7553851363277
 11
2.1518013448886312E-13
 21
1405.6118551377074
  0
LINE
  8
ValleyLine
  6
CONTINUOUS
 62
5
 10
-768.3781210849187
 20
1321.9224853868159
 11
-923.7537046055107
 21
1271.4378979872947
  0
LINE
  8
MountainLine
  6
CONTINUOUS
 62
1
 10
-768.3781210849187
 20
1321.9224853868159
 11
2.1518013448886312E-13
 21
1571.5836710817389
  0
LINE
  8
ValleyLine
  6
CONTINUOUS
 62
5
 10
-831.1594427584467
 20
1467.088846258574
 11
-1021.070516165221
 21
1405.3829979759798
  0
LINE
  8
MountainLine
  6
CONTINUOUS
 62
1
 10
-831.1594427584467
 20
1467.088846258574
 11
2.8690684598515085E-13
 21
1737.1489199207604
  0
LINE
  8
ValleyLine
  6
CONTINUOUS
 62
5
 10
-871.1583134149822
 20
1617.2168970521448
 11
-1116.95267491669
 21
1537.3534677772489
  0
LINE
  8
MountainLine
  6
CONTINUOUS
 62
1
 10
-871.1583134149822
 20
1617.2168970521448
 11
3.5863355748143857E-13
 21
1900.2733916177115
  0
LINE
  8
ValleyLine
  6
CONTINUOUS
 62
5
 10
-897.915034315473
 20
1782.268034983214
 11
-1219.0773786449095
 21
1677.9160636222452
  0
LINE
  8
MountainLine
  6
CONTINUOUS
 62
1
 10
-897.915034315473
 20
1782.268034983214
 11
4.3036026897772625E-13
 21
2074.018315175957
  0
LINE
  8
ValleyLine
  6
CONTINUOUS
 62
5
 10
-915.6622772673386
 20
1955.8684534769138
 11
-1324.5065662278132
 21
1823.0268913013178
  0
LINE
  8
MountainLine
  6
CONTINUOUS
 62
1
 10
-915.6622772673386
 20
1955.8684534769138
 11
2.8690684598515085E-13
 21
2253.3851624585486
  0
LINE
  8
ValleyLine
  6
CONTINUOUS
 62
5
 10
-926.223618264509
 20
2124.2299114337266
 11
-1425.4839849163573
 21
1962.0103847600788
  0
LINE
  8
MountainLine
  6
CONTINUOUS
 62
1
 10
-926.223618264509
 20
2124.2299114337266
 11
4.3036026897772625E-13
 21
2425.178208123974
  0
LINE
  8
ValleyLine
  6
CONTINUOUS
 62
5
 10
-930.7049434198856
 20
2271.3553454224916
 11
-1512.8180021994403
 21
2082.215347190631
  0
LINE
  8
MountainLine
  6
CONTINUOUS
 62
1
 10
-930.7049434198856
 20
2271.3553454224916
 11
4.3036026897772625E-13
 21
2573.7597129209453
  0
LINE
  8
ValleyLine
  6
CONTINUOUS
 62
5
 10
-932.1448073729526
 20
2403.4944671370076
 11
-1590.7624187395606
 21
2189.496632918127
  0
LINE
  8
MountainLine
  6
CONTINUOUS
 62
1
 10
-932.1448073729526
 20
2403.4944671370076
 11
4.3036026897772625E-13
 21
2706.366674793708
  0
LINE
  8
ValleyLine
  6
CONTINUOUS
 62
5
 10
-932.4436875432464
 20
2523.3943467472027
 11
-1661.2948807593211
 21
2286.5762384484447
  0
LINE
  8
MountainLine
  6
CONTINUOUS
 62
1
 10
-932.4436875432464
 20
2523.3943467472027
 11
5.738136919703017E-13
 21
2826.3636664580454
  0
LINE
  8
ValleyLine
  6
CONTINUOUS
 62
5
 10
-932.5966205098729
 20
2947.629484485655
 11
-1910.6832458238748
 21
2629.8298752991614
  0
LINE
  8
MountainLine
  6
CONTINUOUS
 62
1
 10
-932.5966205098729
 20
2947.629484485655
 11
5.738136919703017E-13
 21
3250.648495129558
  0
LINE
  8
ValleyLine
  6
CONTINUOUS
 62
5
 10
-932.5966205098729
 20
2947.629484485655
 11
-1910.6832458238748
 21
2629.8298752991614
  0
LINE
  8
MountainLine
  6
CONTINUOUS
 62
1
 10
-932.5966205098729
 20
2947.629484485655
 11
5.738136919703017E-13
 21
3250.648495129558
  0
LINE
  8
ValleyLine
  6
CONTINUOUS
 62
5
 10
0.0
 20
-0.0
 11
0.0
 21
-0.0
  0
LINE
  8
ValleyLine
  6
CONTINUOUS
 62
5
 10
0.0
 20
-0.0
 11
-69.96282270353572
 21
35.648720831299975
  0
LINE
  8
ValleyLine
  6
CONTINUOUS
 62
5
 10
-69.96282270353572
 20
35.648720831299975
 11
-279.85129081414294
 21
142.59488332519996
  0
LINE
  8
ValleyLine
  6
CONTINUOUS
 62
5
 10
-279.85129081414294
 20
142.59488332519996
 11
-541.5337883414484
 21
271.9492009750214
  0
LINE
  8
ValleyLine
  6
CONTINUOUS
 62
5
 10
-541.5337883414484
 20
271.9492009750214
 11
-768.6441590779034
 21
376.1050688877912
  0
LINE
  8
ValleyLine
  6
CONTINUOUS
 62
5
 10
-768.6441590779034
 20
376.1050688877912
 11
-951.2706977175746
 21
447.82104696373966
  0
LINE
  8
ValleyLine
  6
CONTINUOUS
 62
5
 10
-951.2706977175746
 20
447.82104696373966
 11
-1103.722840187412
 21
497.4533842856108
  0
LINE
  8
ValleyLine
  6
CONTINUOUS
 62
5
 10
-1103.722840187412
 20
497.4533842856108
 11
-1251.9982279166945
 21
551.1000312361184
  0
LINE
  8
ValleyLine
  6
CONTINUOUS
 62
5
 10
-1251.9982279166945
 20
551.1000312361184
 11
-1398.637499647773
 21
617.8164281663869
  0
LINE
  8
ValleyLine
  6
CONTINUOUS
 62
5
 10
-1398.637499647773
 20
617.8164281663869
 11
-1534.7553018603642
 21
698.3565461240761
  0
LINE
  8
ValleyLine
  6
CONTINUOUS
 62
5
 10
-1534.7553018603642
 20
698.3565461240761
 11
-1655.358122189183
 21
796.3019442681943
  0
LINE
  8
ValleyLine
  6
CONTINUOUS
 62
5
 10
-1655.358122189183
 20
796.3019442681943
 11
-1774.0193888614006
 21
914.1039138503384
  0
LINE
  8
ValleyLine
  6
CONTINUOUS
 62
5
 10
-1774.0193888614006
 20
914.1039138503384
 11
-1890.416975795159
 21
1044.1180349663866
  0
LINE
  8
ValleyLine
  6
CONTINUOUS
 62
5
 10
-1890.416975795159
 20
1044.1180349663866
 11
-1997.9216621867324
 21
1174.1175151686227
  0
LINE
  8
ValleyLine
  6
CONTINUOUS
 62
5
 10
-1997.9216621867324
 20
1174.1175151686227
 11
-2088.025290730478
 21
1290.5104347332656
  0
LINE
  8
ValleyLine
  6
CONTINUOUS
 62
5
 10
-2088.025290730478
 20
1290.5104347332656
 11
-2166.8595921327696
 21
1396.5668990251684
  0
LINE
  8
ValleyLine
  6
CONTINUOUS
 62
5
 10
-2166.8595921327696
 20
1396.5668990251684
 11
-2237.576772256335
 21
1493.3922618970253
  0
LINE
  8
ValleyLine
  6
CONTINUOUS
 62
5
 10
-2237.576772256335
 20
1493.3922618970253
 11
-2487.0596550922646
 21
1836.5158061960572
  0
LINE
  8
ValleyLine
  6
CONTINUOUS
 62
5
 10
-2487.0596550922646
 20
1836.5158061960572
 11
-2487.0596550922646
 21
1836.5158061960572
  0
LINE
  8
ValleyLine
  6
CONTINUOUS
 62
5
 10
-2487.0596550922646
 20
1836.5158061960572
 11
-2487.0596550922646
 21
1836.5158061960572
  0
LINE
  8
ValleyLine
  6
CONTINUOUS
 62
5
 10
0.0
 20
-0.0
 11
0.0
 21
-0.0
  0
LINE
  8
MountainLine
  6
CONTINUOUS
 62
1
 10
0.0
 20
-0.0
 11
0.0
 21
0.0
  0
LINE
  8
ValleyLine
  6
CONTINUOUS
 62
5
 10
0.0
 20
-0.0
 11
0.0
 21
-0.0
  0
LINE
  8
MountainLine
  6
CONTINUOUS
 62
1
 10
0.0
 20
-0.0
 11
0.0
 21
0.0
  0
LINE
  8
MountainLine
  6
CONTINUOUS
 62
1
 10
-69.96282270353572
 20
35.648720831299975
 11
-77.5549049093314
 21
25.199116144511915
  0
LINE
  8
ValleyLine
  6
CONTINUOUS
 62
5
 10
-69.96282270353572
 20
35.648720831299975
 11
-47.93156722823287
 21
65.97214255278836
  0
LINE
  8
ValleyLine
  6
CONTINUOUS
 62
5
 10
-279.85129081414294
 20
142.59488332519996
 11
-310.21961963732565
 21
100.79646457804766
  0
LINE
  8
MountainLine
  6
CONTINUOUS
 62
1
 10
-279.85129081414294
 20
142.59488332519996
 11
-191.72626891293157
 21
263.8885702111535
  0
LINE
  8
ValleyLine
  6
CONTINUOUS
 62
5
 10
-541.5337883414484
 20
271.9492009750214
 11
-597.9577675023169
 21
194.28825617695975
  0
LINE
  8
MountainLine
  6
CONTINUOUS
 62
1
 10
-541.5337883414484
 20
271.9492009750214
 11
-369.558224153439
 21
508.6532582862271
  0
LINE
  8
ValleyLine
  6
CONTINUOUS
 62
5
 10
-768.6441590779034
 20
376.1050688877912
 11
-842.9152001257526
 21
273.87975077495923
  0
LINE
  8
MountainLine
  6
CONTINUOUS
 62
1
 10
-768.6441590779034
 20
376.1050688877912
 11
-520.9502433116346
 21
717.0264963591932
  0
LINE
  8
ValleyLine
  6
CONTINUOUS
 62
5
 10
-951.2706977175746
 20
447.82104696373966
 11
-1032.8167677758925
 21
335.5825104499954
  0
LINE
  8
MountainLine
  6
CONTINUOUS
 62
1
 10
-951.2706977175746
 20
447.82104696373966
 11
-638.3158666363084
 21
878.5664183881041
  0
LINE
  8
ValleyLine
  6
CONTINUOUS
 62
5
 10
-1103.722840187412
 20
497.4533842856108
 11
-1185.3262977774625
 21
385.13586061072897
  0
LINE
  8
MountainLine
  6
CONTINUOUS
 62
1
 10
-1103.722840187412
 20
497.4533842856108
 11
-732.5719397855506
 21
1008.2987733653296
  0
LINE
  8
ValleyLine
  6
CONTINUOUS
 62
5
 10
-1251.9982279166945
 20
551.1000312361184
 11
-1336.816314210436
 21
434.3579507324487
  0
LINE
  8
MountainLine
  6
CONTINUOUS
 62
1
 10
-1251.9982279166945
 20
551.1000312361184
 11
-826.1979188974084
 21
1137.1638783013022
  0
LINE
  8
ValleyLine
  6
CONTINUOUS
 62
5
 10
-1398.637499647773
 20
617.8164281663869
 11
-1494.6648912853473
 21
485.6460624464254
  0
LINE
  8
MountainLine
  6
CONTINUOUS
 62
1
 10
-1398.637499647773
 20
617.8164281663869
 11
-923.7537046055107
 21
1271.4378979872947
  0
LINE
  8
ValleyLine
  6
CONTINUOUS
 62
5
 10
-1534.7553018603642
 20
698.3565461240761
 11
-1652.1268000657267
 21
536.8085380156001
  0
LINE
  8
MountainLine
  6
CONTINUOUS
 62
1
 10
-1534.7553018603642
 20
698.3565461240761
 11
-1021.070516165221
 21
1405.38299797598
  0
LINE
  8
ValleyLine
  6
CONTINUOUS
 62
5
 10
-1655.358122189183
 20
796.3019442681943
 11
-1807.267391840317
 21
587.2167719683931
  0
LINE
  8
MountainLine
  6
CONTINUOUS
 62
1
 10
-1655.358122189183
 20
796.3019442681943
 11
-1116.95267491669
 21
1537.3534677772489
  0
LINE
  8
ValleyLine
  6
CONTINUOUS
 62
5
 10
-1774.0193888614006
 20
914.1039138503384
 11
-1972.5086335635895
 21
640.9069060342671
  0
LINE
  8
MountainLine
  6
CONTINUOUS
 62
1
 10
-1774.0193888614006
 20
914.1039138503384
 11
-1219.0773786449097
 21
1677.9160636222452
  0
LINE
  8
ValleyLine
  6
CONTINUOUS
 62
5
 10
-1890.416975795159
 20
1044.1180349663866
 11
-2143.096642479016
 21
696.334310072044
  0
LINE
  8
MountainLine
  6
CONTINUOUS
 62
1
 10
-1890.416975795159
 20
1044.1180349663866
 11
-1324.5065662278134
 21
1823.0268913013178
  0
LINE
  8
ValleyLine
  6
CONTINUOUS
 62
5
 10
-1997.9216621867324
 20
1174.1175151686227
 11
-2306.4815380133095
 21
749.421280698092
  0
LINE
  8
MountainLine
  6
CONTINUOUS
 62
1
 10
-1997.9216621867324
 20
1174.1175151686227
 11
-1425.4839849163577
 21
1962.0103847600788
  0
LINE
  8
ValleyLine
  6
CONTINUOUS
 62
5
 10
-2088.025290730478
 20
1290.5104347332656
 11
-2447.790946351409
 21
795.3354907301588
  0
LINE
  8
MountainLine
  6
CONTINUOUS
 62
1
 10
-2088.025290730478
 20
1290.5104347332656
 11
-1512.8180021994403
 21
2082.2153471906313
  0
LINE
  8
ValleyLine
  6
CONTINUOUS
 62
5
 10
-2166.8595921327696
 20
1396.5668990251684
 11
-2573.907661546603
 21
836.3132955212733
  0
LINE
  8
MountainLine
  6
CONTINUOUS
 62
1
 10
-2166.8595921327696
 20
1396.5668990251684
 11
-1590.762418739561
 21
2189.496632918127
  0
LINE
  8
ValleyLine
  6
CONTINUOUS
 62
5
 10
-2237.576772256335
 20
1493.3922618970253
 11
-2688.031582404786
 21
873.3944052194225
  0
LINE
  8
MountainLine
  6
CONTINUOUS
 62
1
 10
-2237.576772256335
 20
1493.3922618970253
 11
-1661.2948807593211
 21
2286.5762384484447
  0
LINE
  8
ValleyLine
  6
CONTINUOUS
 62
5
 10
-2487.0596550922646
 20
1836.5158061960572
 11
-3091.550433478001
 21
1004.5056277343829
  0
LINE
  8
MountainLine
  6
CONTINUOUS
 62
1
 10
-2487.0596550922646
 20
1836.5158061960572
 11
-1910.683245823875
 21
2629.8298752991614
  0
LINE
  8
ValleyLine
  6
CONTINUOUS
 62
5
 10
-2487.0596550922646
 20
1836.5158061960572
 11
-3091.550433478001
 21
1004.5056277343829
  0
LINE
  8
MountainLine
  6
CONTINUOUS
 62
1
 10
-2487.0596550922646
 20
1836.5158061960572
 11
-1910.683245823875
 21
2629.8298752991614
  0
ENDSEC
  0
EOF
