  0
SECTION
  2
HEADER
  9
$ACADVER
  1
AC1009
  0
ENDSEC
  0
SECTION
  2
ENTITIES
  0
LINE
  8
reference 10mm
  6
CONTINUOUS
 62
250
 10
-2666.4617423843906
 20
2649.393870935379
 11
-2656.4617423843906
 21
2649.393870935379
  0
LINE
  8
reference 10mm
  6
CONTINUOUS
 62
250
 10
-2656.4617423843906
 20
2649.393870935379
 11
-2656.4617423843906
 21
2659.393870935379
  0
LINE
  8
reference 10mm
  6
CONTINUOUS
 62
250
 10
-2656.4617423843906
 20
2659.393870935379
 11
-2666.4617423843906
 21
2659.393870935379
  0
LINE
  8
reference 10mm
  6
CONTINUOUS
 62
250
 10
-2666.4617423843906
 20
2659.393870935379
 11
-2666.4617423843906
 21
2649.393870935379
  0
LINE
  8
ValleyLine
  6
CONTINUOUS
 62
5
 10
0.0
 20
-0.0
 11
-48.86363636363635
 21
91.24228711884464
  0
LINE
  8
MountainLine
  6
CONTINUOUS
 62
1
 10
0.0
 20
-0.0
 11
-50.77119769658922
 21
91.24228711884464
  0
LINE
  8
ValleyLine
  6
CONTINUOUS
 62
5
 10
0.0
 20
-0.0
 11
48.86363636363635
 21
91.24228711884464
  0
LINE
  8
MountainLine
  6
CONTINUOUS
 62
1
 10
0.0
 20
-0.0
 11
50.77119769658922
 21
91.24228711884464
  0
LINE
  8
MountainLine
  6
CONTINUOUS
 62
1
 10
-48.86363636363635
 20
91.24228711884464
 11
48.86363636363635
 21
91.24228711884464
  0
LINE
  8
ValleyLine
  6
CONTINUOUS
 62
5
 10
-48.86363636363635
 20
91.24228711884464
 11
-50.77119769658922
 21
91.24228711884464
  0
LINE
  8
MountainLine
  6
CONTINUOUS
 62
1
 10
-50.77119769658922
 20
91.24228711884464
 11
-52.20186869630386
 21
90.41628883203761
  0
LINE
  8
ValleyLine
  6
CONTINUOUS
 62
5
 10
48.86363636363635
 20
91.24228711884464
 11
50.77119769658922
 21
91.24228711884464
  0
LINE
  8
MountainLine
  6
CONTINUOUS
 62
1
 10
50.77119769658922
 20
91.24228711884464
 11
52.20186869630386
 21
90.41628883203761
  0
LINE
  8
ValleyLine
  6
CONTINUOUS
 62
5
 10
-48.86363636363635
 20
91.24228711884464
 11
-36.36363636363635
 21
171.49080349245304
  0
LINE
  8
MountainLine
  6
CONTINUOUS
 62
1
 10
-50.77119769658922
 20
91.24228711884464
 11
-67.68694896177466
 21
171.49080349245304
  0
LINE
  8
ValleyLine
  6
CONTINUOUS
 62
5
 10
48.86363636363635
 20
91.24228711884464
 11
36.36363636363635
 21
171.49080349245304
  0
LINE
  8
MountainLine
  6
CONTINUOUS
 62
1
 10
50.77119769658922
 20
91.24228711884464
 11
67.68694896177466
 21
171.49080349245304
  0
LINE
  8
ValleyLine
  6
CONTINUOUS
 62
5
 10
-36.36363636363635
 20
171.49080349245304
 11
36.36363636363635
 21
171.49080349245304
  0
LINE
  8
MountainLine
  6
CONTINUOUS
 62
1
 10
-36.36363636363635
 20
171.49080349245304
 11
-67.68694896177466
 21
171.49080349245304
  0
LINE
  8
ValleyLine
  6
CONTINUOUS
 62
5
 10
-67.68694896177466
 20
171.49080349245304
 11
-91.1794334103784
 21
157.92741127211858
  0
LINE
  8
MountainLine
  6
CONTINUOUS
 62
1
 10
36.36363636363635
 20
171.49080349245304
 11
67.68694896177466
 21
171.49080349245304
  0
LINE
  8
ValleyLine
  6
CONTINUOUS
 62
5
 10
67.68694896177466
 20
171.49080349245304
 11
91.1794334103784
 21
157.92741127211858
  0
LINE
  8
ValleyLine
  6
CONTINUOUS
 62
5
 10
-36.36363636363635
 20
171.49080349245304
 11
-104.54545454545453
 21
291.34350234186405
  0
LINE
  8
MountainLine
  6
CONTINUOUS
 62
1
 10
-67.68694896177466
 20
171.49080349245304
 11
-136.37635202458904
 21
291.34350234186405
  0
LINE
  8
ValleyLine
  6
CONTINUOUS
 62
5
 10
36.36363636363635
 20
171.49080349245304
 11
104.54545454545453
 21
291.34350234186405
  0
LINE
  8
MountainLine
  6
CONTINUOUS
 62
1
 10
67.68694896177466
 20
171.49080349245304
 11
136.37635202458904
 21
291.34350234186405
  0
LINE
  8
MountainLine
  6
CONTINUOUS
 62
1
 10
-104.54545454545453
 20
291.34350234186405
 11
104.54545454545453
 21
291.34350234186405
  0
LINE
  8
ValleyLine
  6
CONTINUOUS
 62
5
 10
-104.54545454545453
 20
291.34350234186405
 11
-136.37635202458904
 21
291.34350234186405
  0
LINE
  8
MountainLine
  6
CONTINUOUS
 62
1
 10
-136.37635202458904
 20
291.34350234186405
 11
-160.24952513393993
 21
277.56031942076976
  0
LINE
  8
ValleyLine
  6
CONTINUOUS
 62
5
 10
104.54545454545453
 20
291.34350234186405
 11
136.37635202458904
 21
291.34350234186405
  0
LINE
  8
MountainLine
  6
CONTINUOUS
 62
1
 10
136.37635202458904
 20
291.34350234186405
 11
160.24952513393993
 21
277.56031942076976
  0
LINE
  8
ValleyLine
  6
CONTINUOUS
 62
5
 10
-104.54545454545453
 20
291.34350234186405
 11
-92.04545454545452
 21
445.14770732688504
  0
LINE
  8
MountainLine
  6
CONTINUOUS
 62
1
 10
-136.37635202458904
 20
291.34350234186405
 11
-174.52580159988818
 21
445.14770732688504
  0
LINE
  8
ValleyLine
  6
CONTINUOUS
 62
5
 10
104.54545454545453
 20
291.34350234186405
 11
92.04545454545452
 21
445.14770732688504
  0
LINE
  8
MountainLine
  6
CONTINUOUS
 62
1
 10
136.37635202458904
 20
291.34350234186405
 11
174.52580159988818
 21
445.14770732688504
  0
LINE
  8
ValleyLine
  6
CONTINUOUS
 62
5
 10
-92.04545454545452
 20
445.14770732688504
 11
92.04545454545452
 21
445.14770732688504
  0
LINE
  8
MountainLine
  6
CONTINUOUS
 62
1
 10
-92.04545454545452
 20
445.14770732688504
 11
-174.52580159988818
 21
445.14770732688504
  0
LINE
  8
ValleyLine
  6
CONTINUOUS
 62
5
 10
-174.52580159988818
 20
445.14770732688504
 11
-236.38606189071342
 21
409.4326693958368
  0
LINE
  8
MountainLine
  6
CONTINUOUS
 62
1
 10
92.04545454545452
 20
445.14770732688504
 11
174.52580159988818
 21
445.14770732688504
  0
LINE
  8
ValleyLine
  6
CONTINUOUS
 62
5
 10
174.52580159988818
 20
445.14770732688504
 11
236.38606189071342
 21
409.4326693958368
  0
LINE
  8
ValleyLine
  6
CONTINUOUS
 62
5
 10
-92.04545454545452
 20
445.14770732688504
 11
-161.36363636363632
 21
565.7468914996666
  0
LINE
  8
MountainLine
  6
CONTINUOUS
 62
1
 10
-174.52580159988818
 20
445.14770732688504
 11
-243.99887823208144
 21
565.7468914996666
  0
LINE
  8
ValleyLine
  6
CONTINUOUS
 62
5
 10
92.04545454545452
 20
445.14770732688504
 11
161.36363636363632
 21
565.7468914996666
  0
LINE
  8
MountainLine
  6
CONTINUOUS
 62
1
 10
174.52580159988818
 20
445.14770732688504
 11
243.99887823208144
 21
565.7468914996666
  0
LINE
  8
MountainLine
  6
CONTINUOUS
 62
1
 10
-161.36363636363632
 20
565.7468914996666
 11
161.36363636363632
 21
565.7468914996666
  0
LINE
  8
ValleyLine
  6
CONTINUOUS
 62
5
 10
-161.36363636363632
 20
565.7468914996666
 11
-243.99887823208144
 21
565.7468914996666
  0
LINE
  8
MountainLine
  6
CONTINUOUS
 62
1
 10
-243.99887823208144
 20
565.7468914996666
 11
-305.97530963341524
 21
529.9647821466942
  0
LINE
  8
ValleyLine
  6
CONTINUOUS
 62
5
 10
161.36363636363632
 20
565.7468914996666
 11
243.99887823208144
 21
565.7468914996666
  0
LINE
  8
MountainLine
  6
CONTINUOUS
 62
1
 10
243.99887823208144
 20
565.7468914996666
 11
305.97530963341524
 21
529.9647821466942
  0
LINE
  8
ValleyLine
  6
CONTINUOUS
 62
5
 10
-161.36363636363632
 20
565.7468914996666
 11
-106.81818181818178
 21
717.0497731096051
  0
LINE
  8
MountainLine
  6
CONTINUOUS
 62
1
 10
-243.99887823208144
 20
565.7468914996666
 11
-260.4035306726862
 21
717.0497731096051
  0
LINE
  8
ValleyLine
  6
CONTINUOUS
 62
5
 10
161.36363636363632
 20
565.7468914996666
 11
106.81818181818178
 21
717.0497731096051
  0
LINE
  8
MountainLine
  6
CONTINUOUS
 62
1
 10
243.99887823208144
 20
565.7468914996666
 11
260.4035306726862
 21
717.0497731096051
  0
LINE
  8
ValleyLine
  6
CONTINUOUS
 62
5
 10
-106.81818181818178
 20
717.0497731096051
 11
106.81818181818178
 21
717.0497731096051
  0
LINE
  8
MountainLine
  6
CONTINUOUS
 62
1
 10
-106.81818181818178
 20
717.0497731096051
 11
-260.4035306726862
 21
717.0497731096051
  0
LINE
  8
ValleyLine
  6
CONTINUOUS
 62
5
 10
-260.4035306726862
 20
717.0497731096051
 11
-375.59254231356454
 21
650.5453662310572
  0
LINE
  8
MountainLine
  6
CONTINUOUS
 62
1
 10
106.81818181818178
 20
717.0497731096051
 11
260.4035306726862
 21
717.0497731096051
  0
LINE
  8
ValleyLine
  6
CONTINUOUS
 62
5
 10
260.4035306726862
 20
717.0497731096051
 11
375.59254231356454
 21
650.5453662310572
  0
LINE
  8
ValleyLine
  6
CONTINUOUS
 62
5
 10
-106.81818181818178
 20
717.0497731096051
 11
-205.68181818181813
 21
891.6471553000853
  0
LINE
  8
MountainLine
  6
CONTINUOUS
 62
1
 10
-260.4035306726862
 20
717.0497731096051
 11
-360.23727165824323
 21
891.6471553000853
  0
LINE
  8
ValleyLine
  6
CONTINUOUS
 62
5
 10
106.81818181818178
 20
717.0497731096051
 11
205.68181818181813
 21
891.6471553000853
  0
LINE
  8
MountainLine
  6
CONTINUOUS
 62
1
 10
260.4035306726862
 20
717.0497731096051
 11
360.23727165824323
 21
891.6471553000853
  0
LINE
  8
MountainLine
  6
CONTINUOUS
 62
1
 10
-205.68181818181813
 20
891.6471553000853
 11
205.68181818181813
 21
891.6471553000853
  0
LINE
  8
ValleyLine
  6
CONTINUOUS
 62
5
 10
-205.68181818181813
 20
891.6471553000853
 11
-360.23727165824323
 21
891.6471553000853
  0
LINE
  8
MountainLine
  6
CONTINUOUS
 62
1
 10
-360.23727165824323
 20
891.6471553000853
 11
-476.15386176556206
 21
824.7226807980812
  0
LINE
  8
ValleyLine
  6
CONTINUOUS
 62
5
 10
205.68181818181813
 20
891.6471553000853
 11
360.23727165824323
 21
891.6471553000853
  0
LINE
  8
MountainLine
  6
CONTINUOUS
 62
1
 10
360.23727165824323
 20
891.6471553000853
 11
476.15386176556206
 21
824.7226807980812
  0
LINE
  8
ValleyLine
  6
CONTINUOUS
 62
5
 10
-205.68181818181813
 20
891.6471553000853
 11
-148.86363636363632
 21
1045.4387659429685
  0
LINE
  8
MountainLine
  6
CONTINUOUS
 62
1
 10
-360.23727165824323
 20
891.6471553000853
 11
-376.2239946510397
 21
1045.4387659429685
  0
LINE
  8
ValleyLine
  6
CONTINUOUS
 62
5
 10
205.68181818181813
 20
891.6471553000853
 11
148.86363636363632
 21
1045.4387659429685
  0
LINE
  8
MountainLine
  6
CONTINUOUS
 62
1
 10
360.23727165824323
 20
891.6471553000853
 11
376.2239946510397
 21
1045.4387659429685
  0
LINE
  8
ValleyLine
  6
CONTINUOUS
 62
5
 10
-148.86363636363632
 20
1045.4387659429685
 11
148.86363636363632
 21
1045.4387659429685
  0
LINE
  8
MountainLine
  6
CONTINUOUS
 62
1
 10
-148.86363636363632
 20
1045.4387659429685
 11
-376.2239946510397
 21
1045.4387659429685
  0
LINE
  8
ValleyLine
  6
CONTINUOUS
 62
5
 10
-376.2239946510397
 20
1045.4387659429685
 11
-546.7442633665922
 21
946.9888428977571
  0
LINE
  8
MountainLine
  6
CONTINUOUS
 62
1
 10
148.86363636363632
 20
1045.4387659429685
 11
376.2239946510397
 21
1045.4387659429685
  0
LINE
  8
ValleyLine
  6
CONTINUOUS
 62
5
 10
376.2239946510397
 20
1045.4387659429685
 11
546.7442633665922
 21
946.9888428977571
  0
LINE
  8
ValleyLine
  6
CONTINUOUS
 62
5
 10
-148.86363636363632
 20
1045.4387659429685
 11
-246.590909090909
 21
1218.5692761187288
  0
LINE
  8
MountainLine
  6
CONTINUOUS
 62
1
 10
-376.2239946510397
 20
1045.4387659429685
 11
-475.06610434213223
 21
1218.5692761187288
  0
LINE
  8
ValleyLine
  6
CONTINUOUS
 62
5
 10
148.86363636363632
 20
1045.4387659429685
 11
246.590909090909
 21
1218.5692761187288
  0
LINE
  8
MountainLine
  6
CONTINUOUS
 62
1
 10
376.2239946510397
 20
1045.4387659429685
 11
475.06610434213223
 21
1218.5692761187288
  0
LINE
  8
MountainLine
  6
CONTINUOUS
 62
1
 10
-246.590909090909
 20
1218.5692761187288
 11
246.590909090909
 21
1218.5692761187288
  0
LINE
  8
ValleyLine
  6
CONTINUOUS
 62
5
 10
-246.590909090909
 20
1218.5692761187288
 11
-475.06610434213223
 21
1218.5692761187288
  0
LINE
  8
MountainLine
  6
CONTINUOUS
 62
1
 10
-475.06610434213223
 20
1218.5692761187288
 11
-646.4225007805496
 21
1119.6366145076443
  0
LINE
  8
ValleyLine
  6
CONTINUOUS
 62
5
 10
246.590909090909
 20
1218.5692761187288
 11
475.06610434213223
 21
1218.5692761187288
  0
LINE
  8
MountainLine
  6
CONTINUOUS
 62
1
 10
475.06610434213223
 20
1218.5692761187288
 11
646.4225007805496
 21
1119.6366145076443
  0
LINE
  8
ValleyLine
  6
CONTINUOUS
 62
5
 10
-246.590909090909
 20
1218.5692761187288
 11
-171.59090909090907
 21
1385.316846014412
  0
LINE
  8
MountainLine
  6
CONTINUOUS
 62
1
 10
-475.06610434213223
 20
1218.5692761187288
 11
-485.7019815251264
 21
1385.316846014412
  0
LINE
  8
ValleyLine
  6
CONTINUOUS
 62
5
 10
246.590909090909
 20
1218.5692761187288
 11
171.59090909090907
 21
1385.316846014412
  0
LINE
  8
MountainLine
  6
CONTINUOUS
 62
1
 10
475.06610434213223
 20
1218.5692761187288
 11
485.7019815251264
 21
1385.316846014412
  0
LINE
  8
ValleyLine
  6
CONTINUOUS
 62
5
 10
-171.59090909090907
 20
1385.316846014412
 11
171.59090909090907
 21
1385.316846014412
  0
LINE
  8
MountainLine
  6
CONTINUOUS
 62
1
 10
-171.59090909090907
 20
1385.316846014412
 11
-485.7019815251264
 21
1385.316846014412
  0
LINE
  8
ValleyLine
  6
CONTINUOUS
 62
5
 10
-485.7019815251264
 20
1385.316846014412
 11
-721.2852858507896
 21
1249.302761845409
  0
LINE
  8
MountainLine
  6
CONTINUOUS
 62
1
 10
171.59090909090907
 20
1385.316846014412
 11
485.7019815251264
 21
1385.316846014412
  0
LINE
  8
ValleyLine
  6
CONTINUOUS
 62
5
 10
485.7019815251264
 20
1385.316846014412
 11
721.2852858507896
 21
1249.302761845409
  0
LINE
  8
ValleyLine
  6
CONTINUOUS
 62
5
 10
-171.59090909090907
 20
1385.316846014412
 11
-328.4090909090908
 21
1673.9800516381833
  0
LINE
  8
MountainLine
  6
CONTINUOUS
 62
1
 10
-485.7019815251264
 20
1385.316846014412
 11
-647.4409621702297
 21
1673.9800516381833
  0
LINE
  8
ValleyLine
  6
CONTINUOUS
 62
5
 10
171.59090909090907
 20
1385.316846014412
 11
328.4090909090908
 21
1673.9800516381833
  0
LINE
  8
MountainLine
  6
CONTINUOUS
 62
1
 10
485.7019815251264
 20
1385.316846014412
 11
647.4409621702297
 21
1673.9800516381833
  0
LINE
  8
ValleyLine
  6
CONTINUOUS
 62
5
 10
-328.4090909090908
 20
1673.9800516381833
 11
328.4090909090908
 21
1673.9800516381833
  0
LINE
  8
MountainLine
  6
CONTINUOUS
 62
1
 10
-328.4090909090908
 20
1673.9800516381833
 11
-647.4409621702297
 21
1673.9800516381833
  0
LINE
  8
ValleyLine
  6
CONTINUOUS
 62
5
 10
-647.4409621702297
 20
1673.9800516381833
 11
-886.714865616084
 21
1535.835199073667
  0
LINE
  8
MountainLine
  6
CONTINUOUS
 62
1
 10
328.4090909090908
 20
1673.9800516381833
 11
647.4409621702297
 21
1673.9800516381833
  0
LINE
  8
ValleyLine
  6
CONTINUOUS
 62
5
 10
647.4409621702297
 20
1673.9800516381833
 11
886.714865616084
 21
1535.835199073667
  0
LINE
  8
ValleyLine
  6
CONTINUOUS
 62
5
 10
-328.4090909090908
 20
1673.9800516381833
 11
-328.4090909090908
 21
1673.9800516381833
  0
LINE
  8
MountainLine
  6
CONTINUOUS
 62
1
 10
-647.4409621702297
 20
1673.9800516381833
 11
-647.4409621702297
 21
1673.9800516381833
  0
LINE
  8
ValleyLine
  6
CONTINUOUS
 62
5
 10
328.4090909090908
 20
1673.9800516381833
 11
328.4090909090908
 21
1673.9800516381833
  0
LINE
  8
MountainLine
  6
CONTINUOUS
 62
1
 10
647.4409621702297
 20
1673.9800516381833
 11
647.4409621702297
 21
1673.9800516381833
  0
LINE
  8
ValleyLine
  6
CONTINUOUS
 62
5
 10
-328.4090909090908
 20
1673.9800516381833
 11
328.4090909090908
 21
1673.9800516381833
  0
LINE
  8
MountainLine
  6
CONTINUOUS
 62
1
 10
-328.4090909090908
 20
1673.9800516381833
 11
-647.4409621702297
 21
1673.9800516381833
  0
LINE
  8
ValleyLine
  6
CONTINUOUS
 62
5
 10
-647.4409621702297
 20
1673.9800516381833
 11
-886.714865616084
 21
1535.835199073667
  0
LINE
  8
MountainLine
  6
CONTINUOUS
 62
1
 10
328.4090909090908
 20
1673.9800516381833
 11
647.4409621702297
 21
1673.9800516381833
  0
LINE
  8
ValleyLine
  6
CONTINUOUS
 62
5
 10
647.4409621702297
 20
1673.9800516381833
 11
886.714865616084
 21
1535.835199073667
  0
LINE
  8
ValleyLine
  6
CONTINUOUS
 62
5
 10
-328.4090909090908
 20
1673.9800516381833
 11
-209.09090909090907
 21
1894.619032594304
  0
LINE
  8
MountainLine
  6
CONTINUOUS
 62
1
 10
-647.4409621702297
 20
1673.9800516381833
 11
-651.4748587855095
 21
1894.619032594304
  0
LINE
  8
ValleyLine
  6
CONTINUOUS
 62
5
 10
328.4090909090908
 20
1673.9800516381833
 11
209.09090909090907
 21
1894.619032594304
  0
LINE
  8
MountainLine
  6
CONTINUOUS
 62
1
 10
647.4409621702297
 20
1673.9800516381833
 11
651.4748587855095
 21
1894.619032594304
  0
LINE
  8
ValleyLine
  6
CONTINUOUS
 62
5
 10
-209.09090909090907
 20
1894.619032594304
 11
209.09090909090907
 21
1894.619032594304
  0
LINE
  8
MountainLine
  6
CONTINUOUS
 62
1
 10
-209.09090909090907
 20
1894.619032594304
 11
-651.4748587855095
 21
1894.619032594304
  0
LINE
  8
ValleyLine
  6
CONTINUOUS
 62
5
 10
-651.4748587855095
 20
1894.619032594304
 11
-983.2628210564599
 21
1703.0611632632933
  0
LINE
  8
MountainLine
  6
CONTINUOUS
 62
1
 10
209.09090909090907
 20
1894.619032594304
 11
651.4748587855095
 21
1894.619032594304
  0
LINE
  8
ValleyLine
  6
CONTINUOUS
 62
5
 10
651.4748587855095
 20
1894.619032594304
 11
983.2628210564599
 21
1703.0611632632933
  0
LINE
  8
ValleyLine
  6
CONTINUOUS
 62
5
 10
-209.09090909090907
 20
1894.619032594304
 11
-209.09090909090907
 21
1894.619032594304
  0
LINE
  8
MountainLine
  6
CONTINUOUS
 62
1
 10
-651.4748587855095
 20
1894.619032594304
 11
-651.4748587855095
 21
1894.619032594304
  0
LINE
  8
ValleyLine
  6
CONTINUOUS
 62
5
 10
209.09090909090907
 20
1894.619032594304
 11
209.09090909090907
 21
1894.619032594304
  0
LINE
  8
MountainLine
  6
CONTINUOUS
 62
1
 10
651.4748587855095
 20
1894.619032594304
 11
651.4748587855095
 21
1894.619032594304
  0
LINE
  8
ValleyLine
  6
CONTINUOUS
 62
5
 10
-209.09090909090907
 20
1894.619032594304
 11
209.09090909090907
 21
1894.619032594304
  0
LINE
  8
MountainLine
  6
CONTINUOUS
 62
1
 10
-209.09090909090907
 20
1894.619032594304
 11
-651.4748587855095
 21
1894.619032594304
  0
LINE
  8
ValleyLine
  6
CONTINUOUS
 62
5
 10
-651.4748587855095
 20
1894.619032594304
 11
-983.2628210564599
 21
1703.0611632632933
  0
LINE
  8
MountainLine
  6
CONTINUOUS
 62
1
 10
209.09090909090907
 20
1894.619032594304
 11
651.4748587855095
 21
1894.619032594304
  0
LINE
  8
ValleyLine
  6
CONTINUOUS
 62
5
 10
651.4748587855095
 20
1894.619032594304
 11
983.2628210564599
 21
1703.0611632632933
  0
LINE
  8
ValleyLine
  6
CONTINUOUS
 62
5
 10
-209.09090909090907
 20
1894.619032594304
 11
-311.36363636363626
 21
2086.983614135202
  0
LINE
  8
MountainLine
  6
CONTINUOUS
 62
1
 10
-651.4748587855095
 20
1894.619032594304
 11
-758.1420938894665
 21
2086.983614135202
  0
LINE
  8
ValleyLine
  6
CONTINUOUS
 62
5
 10
209.09090909090907
 20
1894.619032594304
 11
311.36363636363626
 21
2086.983614135202
  0
LINE
  8
MountainLine
  6
CONTINUOUS
 62
1
 10
651.4748587855095
 20
1894.619032594304
 11
758.1420938894665
 21
2086.983614135202
  0
LINE
  8
MountainLine
  6
CONTINUOUS
 62
1
 10
-311.36363636363626
 20
2086.983614135202
 11
311.36363636363626
 21
2086.983614135202
  0
LINE
  8
ValleyLine
  6
CONTINUOUS
 62
5
 10
-311.36363636363626
 20
2086.983614135202
 11
-758.1420938894665
 21
2086.983614135202
  0
LINE
  8
MountainLine
  6
CONTINUOUS
 62
1
 10
-758.1420938894665
 20
2086.983614135202
 11
-1093.2259370338393
 21
1893.522867094704
  0
LINE
  8
ValleyLine
  6
CONTINUOUS
 62
5
 10
311.36363636363626
 20
2086.983614135202
 11
758.1420938894665
 21
2086.983614135202
  0
LINE
  8
MountainLine
  6
CONTINUOUS
 62
1
 10
758.1420938894665
 20
2086.983614135202
 11
1093.2259370338393
 21
1893.522867094704
  0
LINE
  8
ValleyLine
  6
CONTINUOUS
 62
5
 10
-311.36363636363626
 20
2086.983614135202
 11
-189.77272727272722
 21
2308.3471338290296
  0
LINE
  8
MountainLine
  6
CONTINUOUS
 62
1
 10
-758.1420938894665
 20
2086.983614135202
 11
-761.2487831860093
 21
2308.3471338290296
  0
LINE
  8
ValleyLine
  6
CONTINUOUS
 62
5
 10
311.36363636363626
 20
2086.983614135202
 11
189.77272727272722
 21
2308.3471338290296
  0
LINE
  8
MountainLine
  6
CONTINUOUS
 62
1
 10
758.1420938894665
 20
2086.983614135202
 11
761.2487831860093
 21
2308.3471338290296
  0
LINE
  8
MountainLine
  6
CONTINUOUS
 62
1
 10
-189.77272727272722
 20
2308.3471338290296
 11
189.77272727272722
 21
2308.3471338290296
  0
LINE
  8
ValleyLine
  6
CONTINUOUS
 62
5
 10
-189.77272727272722
 20
2308.3471338290296
 11
-761.2487831860093
 21
2308.3471338290296
  0
LINE
  8
MountainLine
  6
CONTINUOUS
 62
1
 10
-761.2487831860093
 20
2308.3471338290296
 11
-1189.855825120971
 21
2060.8907427913105
  0
LINE
  8
ValleyLine
  6
CONTINUOUS
 62
5
 10
189.77272727272722
 20
2308.3471338290296
 11
761.2487831860093
 21
2308.3471338290296
  0
LINE
  8
MountainLine
  6
CONTINUOUS
 62
1
 10
761.2487831860093
 20
2308.3471338290296
 11
1189.855825120971
 21
2060.8907427913105
  0
LINE
  8
ValleyLine
  6
CONTINUOUS
 62
5
 10
-189.77272727272722
 20
2308.3471338290296
 11
1.136363636363636
 21
2639.393870935379
  0
LINE
  8
MountainLine
  6
CONTINUOUS
 62
1
 10
-761.2487831860093
 20
2308.3471338290296
 11
-761.3591991228128
 21
2639.393870935379
  0
LINE
  8
ValleyLine
  6
CONTINUOUS
 62
5
 10
189.77272727272722
 20
2308.3471338290296
 11
-1.136363636363636
 21
2639.393870935379
  0
LINE
  8
MountainLine
  6
CONTINUOUS
 62
1
 10
761.2487831860093
 20
2308.3471338290296
 11
761.3591991228128
 21
2639.393870935379
  0
LINE
  8
CutLine
  6
CONTINUOUS
 62
250
 10
1.136363636363636
 20
2639.393870935379
 11
-1.136363636363636
 21
2639.393870935379
  0
LINE
  8
CutLine
  6
CONTINUOUS
 62
250
 10
1.136363636363636
 20
2639.393870935379
 11
-761.3591991228128
 21
2639.393870935379
  0
LINE
  8
CutLine
  6
CONTINUOUS
 62
250
 10
-761.3591991228128
 20
2639.393870935379
 11
-1333.2308711921953
 21
2309.2236071241996
  0
LINE
  8
CutLine
  6
CONTINUOUS
 62
250
 10
-1.136363636363636
 20
2639.393870935379
 11
761.3591991228128
 21
2639.393870935379
  0
LINE
  8
CutLine
  6
CONTINUOUS
 62
250
 10
761.3591991228128
 20
2639.393870935379
 11
1333.2308711921953
 21
2309.2236071241996
  0
LINE
  8
ValleyLine
  6
CONTINUOUS
 62
5
 10
0.0
 20
-0.0
 11
54.58632036249494
 21
87.93829397161649
  0
LINE
  8
MountainLine
  6
CONTINUOUS
 62
1
 10
0.0
 20
-0.0
 11
53.632539696018505
 21
89.59029054523057
  0
LINE
  8
ValleyLine
  6
CONTINUOUS
 62
5
 10
0.0
 20
-0.0
 11
103.4499567261313
 21
3.303993147228185
  0
LINE
  8
MountainLine
  6
CONTINUOUS
 62
1
 10
0.0
 20
-0.0
 11
104.40373739260772
 21
1.6519965736140985
  0
LINE
  8
MountainLine
  6
CONTINUOUS
 62
1
 10
54.58632036249494
 20
87.93829397161649
 11
103.4499567261313
 21
3.303993147228185
  0
LINE
  8
ValleyLine
  6
CONTINUOUS
 62
5
 10
54.58632036249494
 20
87.93829397161649
 11
53.632539696018505
 21
89.59029054523057
  0
LINE
  8
MountainLine
  6
CONTINUOUS
 62
1
 10
53.632539696018505
 20
89.59029054523057
 11
52.20186869630386
 21
90.41628883203762
  0
LINE
  8
ValleyLine
  6
CONTINUOUS
 62
5
 10
103.4499567261313
 20
3.303993147228185
 11
104.40373739260772
 21
1.6519965736140985
  0
LINE
  8
MountainLine
  6
CONTINUOUS
 62
1
 10
104.40373739260772
 20
1.6519965736140985
 11
104.40373739260772
 21
1.2111523905001706E-14
  0
LINE
  8
ValleyLine
  6
CONTINUOUS
 62
5
 10
54.58632036249494
 20
87.93829397161649
 11
130.33357415805125
 21
117.23723461111521
  0
LINE
  8
MountainLine
  6
CONTINUOUS
 62
1
 10
53.632539696018505
 20
89.59029054523057
 11
114.67191785898211
 21
144.36401905178414
  0
LINE
  8
ValleyLine
  6
CONTINUOUS
 62
5
 10
103.4499567261313
 20
3.303993147228185
 11
166.69721052168762
 21
54.25356888133788
  0
LINE
  8
MountainLine
  6
CONTINUOUS
 62
1
 10
104.40373739260772
 20
1.6519965736140985
 11
182.3588668207568
 21
27.12678444066896
  0
LINE
  8
ValleyLine
  6
CONTINUOUS
 62
5
 10
130.33357415805125
 20
117.23723461111521
 11
166.69721052168762
 21
54.25356888133788
  0
LINE
  8
MountainLine
  6
CONTINUOUS
 62
1
 10
130.33357415805125
 20
117.23723461111521
 11
114.67191785898211
 21
144.36401905178414
  0
LINE
  8
ValleyLine
  6
CONTINUOUS
 62
5
 10
114.67191785898211
 20
144.36401905178414
 11
91.1794334103784
 21
157.92741127211858
  0
LINE
  8
MountainLine
  6
CONTINUOUS
 62
1
 10
166.69721052168762
 20
54.25356888133788
 11
182.3588668207568
 21
27.12678444066896
  0
LINE
  8
ValleyLine
  6
CONTINUOUS
 62
5
 10
182.3588668207568
 20
27.12678444066896
 11
182.35886682075682
 21
2.4223047810003413E-14
  0
LINE
  8
ValleyLine
  6
CONTINUOUS
 62
5
 10
130.33357415805125
 20
117.23723461111521
 11
200.03814698285808
 21
236.21077065748696
  0
LINE
  8
MountainLine
  6
CONTINUOUS
 62
1
 10
114.67191785898211
 20
144.36401905178414
 11
184.12269824329084
 21
263.7771364996755
  0
LINE
  8
ValleyLine
  6
CONTINUOUS
 62
5
 10
166.69721052168762
 20
54.25356888133788
 11
304.5836015283126
 21
55.13273168437712
  0
LINE
  8
MountainLine
  6
CONTINUOUS
 62
1
 10
182.3588668207568
 20
27.12678444066896
 11
320.49905026787985
 21
27.566365842188596
  0
LINE
  8
MountainLine
  6
CONTINUOUS
 62
1
 10
200.03814698285808
 20
236.21077065748696
 11
304.5836015283126
 21
55.13273168437712
  0
LINE
  8
ValleyLine
  6
CONTINUOUS
 62
5
 10
200.03814698285808
 20
236.21077065748696
 11
184.12269824329084
 21
263.7771364996755
  0
LINE
  8
MountainLine
  6
CONTINUOUS
 62
1
 10
184.12269824329084
 20
263.7771364996755
 11
160.2495251339399
 21
277.56031942076976
  0
LINE
  8
ValleyLine
  6
CONTINUOUS
 62
5
 10
304.5836015283126
 20
55.13273168437712
 11
320.49905026787985
 21
27.566365842188596
  0
LINE
  8
MountainLine
  6
CONTINUOUS
 62
1
 10
320.49905026787985
 20
27.566365842188596
 11
320.49905026787985
 21
4.8446095620006826E-14
  0
LINE
  8
ValleyLine
  6
CONTINUOUS
 62
5
 10
200.03814698285808
 20
236.21077065748696
 11
339.48649570875546
 21
302.28755560269207
  0
LINE
  8
MountainLine
  6
CONTINUOUS
 62
1
 10
184.12269824329084
 20
263.7771364996755
 11
298.2463221815386
 21
373.71763146478855
  0
LINE
  8
ValleyLine
  6
CONTINUOUS
 62
5
 10
304.5836015283126
 20
55.13273168437712
 11
431.53195025421
 21
142.86015172419312
  0
LINE
  8
MountainLine
  6
CONTINUOUS
 62
1
 10
320.49905026787985
 20
27.566365842188596
 11
472.77212378142684
 21
71.43007586209661
  0
LINE
  8
ValleyLine
  6
CONTINUOUS
 62
5
 10
339.48649570875546
 20
302.28755560269207
 11
431.53195025421
 21
142.86015172419312
  0
LINE
  8
MountainLine
  6
CONTINUOUS
 62
1
 10
339.48649570875546
 20
302.28755560269207
 11
298.2463221815386
 21
373.71763146478855
  0
LINE
  8
ValleyLine
  6
CONTINUOUS
 62
5
 10
298.2463221815386
 20
373.71763146478855
 11
236.3860618907134
 21
409.43266939583685
  0
LINE
  8
MountainLine
  6
CONTINUOUS
 62
1
 10
431.53195025421
 20
142.86015172419312
 11
472.77212378142684
 21
71.43007586209661
  0
LINE
  8
ValleyLine
  6
CONTINUOUS
 62
5
 10
472.77212378142684
 20
71.43007586209661
 11
472.77212378142684
 21
4.8446095620006826E-14
  0
LINE
  8
ValleyLine
  6
CONTINUOUS
 62
5
 10
339.48649570875546
 20
302.28755560269207
 11
409.26936196897157
 21
422.6184540877768
  0
LINE
  8
MountainLine
  6
CONTINUOUS
 62
1
 10
298.2463221815386
 20
373.71763146478855
 11
367.95174103474903
 21
494.18267279372174
  0
LINE
  8
ValleyLine
  6
CONTINUOUS
 62
5
 10
431.53195025421
 20
142.86015172419312
 11
570.6329983326079
 21
143.1284374118899
  0
LINE
  8
MountainLine
  6
CONTINUOUS
 62
1
 10
472.77212378142684
 20
71.43007586209661
 11
611.9506192668306
 21
71.56421870594498
  0
LINE
  8
MountainLine
  6
CONTINUOUS
 62
1
 10
409.26936196897157
 20
422.6184540877768
 11
570.6329983326079
 21
143.1284374118899
  0
LINE
  8
ValleyLine
  6
CONTINUOUS
 62
5
 10
409.26936196897157
 20
422.6184540877768
 11
367.95174103474903
 21
494.18267279372174
  0
LINE
  8
MountainLine
  6
CONTINUOUS
 62
1
 10
367.95174103474903
 20
494.18267279372174
 11
305.97530963341524
 21
529.9647821466942
  0
LINE
  8
ValleyLine
  6
CONTINUOUS
 62
5
 10
570.6329983326079
 20
143.1284374118899
 11
611.9506192668306
 21
71.56421870594498
  0
LINE
  8
MountainLine
  6
CONTINUOUS
 62
1
 10
611.9506192668306
 20
71.56421870594498
 11
611.9506192668306
 21
9.689219124001365E-14
  0
LINE
  8
ValleyLine
  6
CONTINUOUS
 62
5
 10
409.26936196897157
 20
422.6184540877768
 11
567.5742283816951
 21
451.03214559541317
  0
LINE
  8
MountainLine
  6
CONTINUOUS
 62
1
 10
367.95174103474903
 20
494.18267279372174
 11
490.78155395444276
 21
584.0409593525092
  0
LINE
  8
ValleyLine
  6
CONTINUOUS
 62
5
 10
570.6329983326079
 20
143.1284374118899
 11
674.3924101998768
 21
266.0176275141922
  0
LINE
  8
MountainLine
  6
CONTINUOUS
 62
1
 10
611.9506192668306
 20
71.56421870594498
 11
751.1850846271291
 21
133.00881375709616
  0
LINE
  8
ValleyLine
  6
CONTINUOUS
 62
5
 10
567.5742283816951
 20
451.03214559541317
 11
674.3924101998768
 21
266.0176275141922
  0
LINE
  8
MountainLine
  6
CONTINUOUS
 62
1
 10
567.5742283816951
 20
451.03214559541317
 11
490.78155395444276
 21
584.0409593525092
  0
LINE
  8
ValleyLine
  6
CONTINUOUS
 62
5
 10
490.78155395444276
 20
584.0409593525092
 11
375.5925423135644
 21
650.5453662310572
  0
LINE
  8
MountainLine
  6
CONTINUOUS
 62
1
 10
674.3924101998768
 20
266.0176275141922
 11
751.1850846271291
 21
133.00881375709616
  0
LINE
  8
ValleyLine
  6
CONTINUOUS
 62
5
 10
751.1850846271291
 20
133.00881375709616
 11
751.1850846271291
 21
4.8446095620006826E-14
  0
LINE
  8
ValleyLine
  6
CONTINUOUS
 62
5
 10
567.5742283816951
 20
451.03214559541317
 11
669.3481786110932
 21
623.9492572920692
  0
LINE
  8
MountainLine
  6
CONTINUOUS
 62
1
 10
490.78155395444276
 20
584.0409593525092
 11
592.0704518728807
 21
757.7982062960773
  0
LINE
  8
ValleyLine
  6
CONTINUOUS
 62
5
 10
674.3924101998768
 20
266.0176275141922
 11
875.0299967929114
 21
267.69789800801624
  0
LINE
  8
MountainLine
  6
CONTINUOUS
 62
1
 10
751.1850846271291
 20
133.00881375709616
 11
952.3077235311241
 21
133.84894900400815
  0
LINE
  8
MountainLine
  6
CONTINUOUS
 62
1
 10
669.3481786110932
 20
623.9492572920692
 11
875.0299967929114
 21
267.69789800801624
  0
LINE
  8
ValleyLine
  6
CONTINUOUS
 62
5
 10
669.3481786110932
 20
623.9492572920692
 11
592.0704518728807
 21
757.7982062960773
  0
LINE
  8
MountainLine
  6
CONTINUOUS
 62
1
 10
592.0704518728807
 20
757.7982062960773
 11
476.1538617655619
 21
824.7226807980813
  0
LINE
  8
ValleyLine
  6
CONTINUOUS
 62
5
 10
875.0299967929114
 20
267.69789800801624
 11
952.3077235311241
 21
133.84894900400815
  0
LINE
  8
MountainLine
  6
CONTINUOUS
 62
1
 10
952.3077235311241
 20
133.84894900400815
 11
952.3077235311241
 21
9.689219124001365E-14
  0
LINE
  8
ValleyLine
  6
CONTINUOUS
 62
5
 10
669.3481786110932
 20
623.9492572920692
 11
830.9447112258464
 21
651.6390737621224
  0
LINE
  8
MountainLine
  6
CONTINUOUS
 62
1
 10
592.0704518728807
 20
757.7982062960773
 11
717.2645320821447
 21
848.5389198525455
  0
LINE
  8
ValleyLine
  6
CONTINUOUS
 62
5
 10
875.0299967929114
 20
267.69789800801624
 11
979.8083475894828
 21
393.79969218084636
  0
LINE
  8
MountainLine
  6
CONTINUOUS
 62
1
 10
952.3077235311241
 20
133.84894900400815
 11
1093.4885267331845
 21
196.89984609042327
  0
LINE
  8
ValleyLine
  6
CONTINUOUS
 62
5
 10
830.9447112258464
 20
651.6390737621224
 11
979.8083475894828
 21
393.79969218084636
  0
LINE
  8
MountainLine
  6
CONTINUOUS
 62
1
 10
830.9447112258464
 20
651.6390737621224
 11
717.2645320821447
 21
848.5389198525455
  0
LINE
  8
ValleyLine
  6
CONTINUOUS
 62
5
 10
717.2645320821447
 20
848.5389198525455
 11
546.7442633665922
 21
946.9888428977571
  0
LINE
  8
MountainLine
  6
CONTINUOUS
 62
1
 10
979.8083475894828
 20
393.79969218084636
 11
1093.4885267331845
 21
196.89984609042327
  0
LINE
  8
ValleyLine
  6
CONTINUOUS
 62
5
 10
1093.4885267331845
 20
196.89984609042327
 11
1093.4885267331845
 21
1.937843824800273E-13
  0
LINE
  8
ValleyLine
  6
CONTINUOUS
 62
5
 10
830.9447112258464
 20
651.6390737621224
 11
932.0164948445786
 21
822.8386296743909
  0
LINE
  8
MountainLine
  6
CONTINUOUS
 62
1
 10
717.2645320821447
 20
848.5389198525455
 11
817.778897218967
 21
1020.7039528965598
  0
LINE
  8
ValleyLine
  6
CONTINUOUS
 62
5
 10
979.8083475894828
 20
393.79969218084636
 11
1178.6074039354878
 21
395.7306464443382
  0
LINE
  8
MountainLine
  6
CONTINUOUS
 62
1
 10
1093.4885267331845
 20
196.89984609042327
 11
1292.8450015610993
 21
197.86532322216922
  0
LINE
  8
MountainLine
  6
CONTINUOUS
 62
1
 10
932.0164948445786
 20
822.8386296743909
 11
1178.6074039354878
 21
395.7306464443382
  0
LINE
  8
ValleyLine
  6
CONTINUOUS
 62
5
 10
932.0164948445786
 20
822.8386296743909
 11
817.778897218967
 21
1020.7039528965598
  0
LINE
  8
MountainLine
  6
CONTINUOUS
 62
1
 10
817.778897218967
 20
1020.7039528965598
 11
646.4225007805495
 21
1119.6366145076445
  0
LINE
  8
ValleyLine
  6
CONTINUOUS
 62
5
 10
1178.6074039354878
 20
395.7306464443382
 11
1292.8450015610993
 21
197.86532322216922
  0
LINE
  8
MountainLine
  6
CONTINUOUS
 62
1
 10
1292.8450015610993
 20
197.86532322216922
 11
1292.8450015610993
 21
9.689219124001365E-14
  0
LINE
  8
ValleyLine
  6
CONTINUOUS
 62
5
 10
932.0164948445786
 20
822.8386296743909
 11
1113.9241263935614
 21
841.2605093383995
  0
LINE
  8
MountainLine
  6
CONTINUOUS
 62
1
 10
817.778897218967
 20
1020.7039528965598
 11
956.8685901764528
 21
1113.2886776764058
  0
LINE
  8
ValleyLine
  6
CONTINUOUS
 62
5
 10
1178.6074039354878
 20
395.7306464443382
 11
1285.5150354844707
 21
544.0563366760128
  0
LINE
  8
MountainLine
  6
CONTINUOUS
 62
1
 10
1292.8450015610993
 20
197.86532322216922
 11
1442.5705717015794
 21
272.0281683380066
  0
LINE
  8
ValleyLine
  6
CONTINUOUS
 62
5
 10
1113.9241263935614
 20
841.2605093383995
 11
1285.5150354844707
 21
544.0563366760128
  0
LINE
  8
MountainLine
  6
CONTINUOUS
 62
1
 10
1113.9241263935614
 20
841.2605093383995
 11
956.8685901764528
 21
1113.2886776764058
  0
LINE
  8
ValleyLine
  6
CONTINUOUS
 62
5
 10
956.8685901764528
 20
1113.2886776764058
 11
721.2852858507898
 21
1249.302761845409
  0
LINE
  8
MountainLine
  6
CONTINUOUS
 62
1
 10
1285.5150354844707
 20
544.0563366760128
 11
1442.5705717015794
 21
272.0281683380066
  0
LINE
  8
ValleyLine
  6
CONTINUOUS
 62
5
 10
1442.5705717015794
 20
272.0281683380066
 11
1442.5705717015794
 21
2.9067657372004097E-13
  0
LINE
  8
ValleyLine
  6
CONTINUOUS
 62
5
 10
1113.9241263935614
 20
841.2605093383995
 11
1285.5047046925076
 21
1121.4006413801176
  0
LINE
  8
MountainLine
  6
CONTINUOUS
 62
1
 10
956.8685901764528
 20
1113.2886776764058
 11
1125.9887690619382
 21
1397.6903465091505
  0
LINE
  8
ValleyLine
  6
CONTINUOUS
 62
5
 10
1285.5150354844707
 20
544.0563366760128
 11
1613.9137956015986
 21
552.579410258066
  0
LINE
  8
MountainLine
  6
CONTINUOUS
 62
1
 10
1442.5705717015794
 20
272.0281683380066
 11
1773.429731232168
 21
276.2897051290332
  0
LINE
  8
ValleyLine
  6
CONTINUOUS
 62
5
 10
1285.5047046925076
 20
1121.4006413801176
 11
1613.9137956015986
 21
552.579410258066
  0
LINE
  8
MountainLine
  6
CONTINUOUS
 62
1
 10
1285.5047046925076
 20
1121.4006413801176
 11
1125.9887690619382
 21
1397.6903465091505
  0
LINE
  8
ValleyLine
  6
CONTINUOUS
 62
5
 10
1125.9887690619382
 20
1397.6903465091505
 11
886.714865616084
 21
1535.8351990736671
  0
LINE
  8
MountainLine
  6
CONTINUOUS
 62
1
 10
1613.9137956015986
 20
552.579410258066
 11
1773.429731232168
 21
276.2897051290332
  0
LINE
  8
ValleyLine
  6
CONTINUOUS
 62
5
 10
1773.429731232168
 20
276.2897051290332
 11
1773.4297312321683
 21
2.9067657372004097E-13
  0
LINE
  8
ValleyLine
  6
CONTINUOUS
 62
5
 10
1285.5047046925076
 20
1121.4006413801176
 11
1285.5047046925076
 21
1121.4006413801176
  0
LINE
  8
MountainLine
  6
CONTINUOUS
 62
1
 10
1125.9887690619382
 20
1397.6903465091505
 11
1125.9887690619382
 21
1397.6903465091505
  0
LINE
  8
ValleyLine
  6
CONTINUOUS
 62
5
 10
1613.9137956015986
 20
552.579410258066
 11
1613.9137956015986
 21
552.579410258066
  0
LINE
  8
MountainLine
  6
CONTINUOUS
 62
1
 10
1773.429731232168
 20
276.2897051290332
 11
1773.429731232168
 21
276.2897051290332
  0
LINE
  8
ValleyLine
  6
CONTINUOUS
 62
5
 10
1285.5047046925076
 20
1121.4006413801176
 11
1613.9137956015986
 21
552.579410258066
  0
LINE
  8
MountainLine
  6
CONTINUOUS
 62
1
 10
1285.5047046925076
 20
1121.4006413801176
 11
1125.9887690619382
 21
1397.6903465091505
  0
LINE
  8
ValleyLine
  6
CONTINUOUS
 62
5
 10
1125.9887690619382
 20
1397.6903465091505
 11
886.714865616084
 21
1535.8351990736671
  0
LINE
  8
MountainLine
  6
CONTINUOUS
 62
1
 10
1613.9137956015986
 20
552.579410258066
 11
1773.429731232168
 21
276.2897051290332
  0
LINE
  8
ValleyLine
  6
CONTINUOUS
 62
5
 10
1773.429731232168
 20
276.2897051290332
 11
1773.4297312321683
 21
2.9067657372004097E-13
  0
LINE
  8
ValleyLine
  6
CONTINUOUS
 62
5
 10
1285.5047046925076
 20
1121.4006413801176
 11
1536.2427581747097
 21
1128.387555270262
  0
LINE
  8
MountainLine
  6
CONTINUOUS
 62
1
 10
1125.9887690619382
 20
1397.6903465091505
 11
1315.0507833274096
 21
1511.5032939322832
  0
LINE
  8
ValleyLine
  6
CONTINUOUS
 62
5
 10
1613.9137956015986
 20
552.579410258066
 11
1745.333667265619
 21
766.2314773240423
  0
LINE
  8
MountainLine
  6
CONTINUOUS
 62
1
 10
1773.429731232168
 20
276.2897051290332
 11
1966.5256421129193
 21
383.1157386620212
  0
LINE
  8
ValleyLine
  6
CONTINUOUS
 62
5
 10
1536.2427581747097
 20
1128.387555270262
 11
1745.333667265619
 21
766.2314773240423
  0
LINE
  8
MountainLine
  6
CONTINUOUS
 62
1
 10
1536.2427581747097
 20
1128.387555270262
 11
1315.0507833274096
 21
1511.5032939322832
  0
LINE
  8
ValleyLine
  6
CONTINUOUS
 62
5
 10
1315.0507833274096
 20
1511.5032939322832
 11
983.2628210564594
 21
1703.0611632632938
  0
LINE
  8
MountainLine
  6
CONTINUOUS
 62
1
 10
1745.333667265619
 20
766.2314773240423
 11
1966.5256421129193
 21
383.1157386620212
  0
LINE
  8
ValleyLine
  6
CONTINUOUS
 62
5
 10
1966.5256421129193
 20
383.1157386620212
 11
1966.5256421129193
 21
-0.0
  0
LINE
  8
ValleyLine
  6
CONTINUOUS
 62
5
 10
1536.2427581747097
 20
1128.387555270262
 11
1536.2427581747097
 21
1128.387555270262
  0
LINE
  8
MountainLine
  6
CONTINUOUS
 62
1
 10
1315.0507833274096
 20
1511.5032939322832
 11
1315.0507833274096
 21
1511.5032939322832
  0
LINE
  8
ValleyLine
  6
CONTINUOUS
 62
5
 10
1745.333667265619
 20
766.2314773240423
 11
1745.333667265619
 21
766.2314773240423
  0
LINE
  8
MountainLine
  6
CONTINUOUS
 62
1
 10
1966.5256421129193
 20
383.1157386620212
 11
1966.5256421129193
 21
383.1157386620212
  0
LINE
  8
ValleyLine
  6
CONTINUOUS
 62
5
 10
1536.2427581747097
 20
1128.387555270262
 11
1745.333667265619
 21
766.2314773240423
  0
LINE
  8
MountainLine
  6
CONTINUOUS
 62
1
 10
1536.2427581747097
 20
1128.387555270262
 11
1315.0507833274096
 21
1511.5032939322832
  0
LINE
  8
ValleyLine
  6
CONTINUOUS
 62
5
 10
1315.0507833274096
 20
1511.5032939322832
 11
983.2628210564594
 21
1703.0611632632938
  0
LINE
  8
MountainLine
  6
CONTINUOUS
 62
1
 10
1745.333667265619
 20
766.2314773240423
 11
1966.5256421129193
 21
383.1157386620212
  0
LINE
  8
ValleyLine
  6
CONTINUOUS
 62
5
 10
1966.5256421129193
 20
383.1157386620212
 11
1966.5256421129193
 21
-0.0
  0
LINE
  8
ValleyLine
  6
CONTINUOUS
 62
5
 10
1536.2427581747097
 20
1128.387555270262
 11
1651.699008941127
 21
1313.1406259732105
  0
LINE
  8
MountainLine
  6
CONTINUOUS
 62
1
 10
1315.0507833274096
 20
1511.5032939322832
 11
1428.309780178212
 21
1700.0621200542064
  0
LINE
  8
ValleyLine
  6
CONTINUOUS
 62
5
 10
1745.333667265619
 20
766.2314773240423
 11
1963.0626453047632
 21
773.842988161992
  0
LINE
  8
MountainLine
  6
CONTINUOUS
 62
1
 10
1966.5256421129193
 20
383.1157386620212
 11
2186.4518740676785
 21
386.9214940809962
  0
LINE
  8
MountainLine
  6
CONTINUOUS
 62
1
 10
1651.699008941127
 20
1313.1406259732105
 11
1963.0626453047632
 21
773.842988161992
  0
LINE
  8
ValleyLine
  6
CONTINUOUS
 62
5
 10
1651.699008941127
 20
1313.1406259732105
 11
1428.309780178212
 21
1700.0621200542064
  0
LINE
  8
MountainLine
  6
CONTINUOUS
 62
1
 10
1428.309780178212
 20
1700.0621200542064
 11
1093.2259370338393
 21
1893.522867094704
  0
LINE
  8
ValleyLine
  6
CONTINUOUS
 62
5
 10
1963.0626453047632
 20
773.842988161992
 11
2186.4518740676785
 21
386.9214940809962
  0
LINE
  8
MountainLine
  6
CONTINUOUS
 62
1
 10
2186.4518740676785
 20
386.9214940809962
 11
2186.451874067679
 21
3.875687649600546E-13
  0
LINE
  8
ValleyLine
  6
CONTINUOUS
 62
5
 10
1651.699008941127
 20
1313.1406259732105
 11
1904.2008950125733
 21
1318.521569678153
  0
LINE
  8
MountainLine
  6
CONTINUOUS
 62
1
 10
1428.309780178212
 20
1700.0621200542064
 11
1618.4628670559323
 21
1813.434351753591
  0
LINE
  8
ValleyLine
  6
CONTINUOUS
 62
5
 10
1963.0626453047632
 20
773.842988161992
 11
2093.9736222853007
 21
989.8255641508772
  0
LINE
  8
MountainLine
  6
CONTINUOUS
 62
1
 10
2186.4518740676785
 20
386.9214940809962
 11
2379.7116502419417
 21
494.9127820754387
  0
LINE
  8
MountainLine
  6
CONTINUOUS
 62
1
 10
1904.2008950125733
 20
1318.521569678153
 11
2093.9736222853007
 21
989.8255641508772
  0
LINE
  8
ValleyLine
  6
CONTINUOUS
 62
5
 10
1904.2008950125733
 20
1318.521569678153
 11
1618.4628670559323
 21
1813.434351753591
  0
LINE
  8
MountainLine
  6
CONTINUOUS
 62
1
 10
1618.4628670559323
 20
1813.434351753591
 11
1189.8558251209704
 21
2060.8907427913105
  0
LINE
  8
ValleyLine
  6
CONTINUOUS
 62
5
 10
2093.9736222853007
 20
989.8255641508772
 11
2379.7116502419417
 21
494.9127820754387
  0
LINE
  8
MountainLine
  6
CONTINUOUS
 62
1
 10
2379.7116502419417
 20
494.9127820754387
 11
2379.7116502419417
 21
1.937843824800273E-13
  0
LINE
  8
ValleyLine
  6
CONTINUOUS
 62
5
 10
1904.2008950125733
 20
1318.521569678153
 11
2286.350324641166
 21
1318.7128156906622
  0
LINE
  8
MountainLine
  6
CONTINUOUS
 62
1
 10
1618.4628670559323
 20
1813.434351753591
 11
1905.1025432615775
 21
1979.0533433130206
  0
LINE
  8
ValleyLine
  6
CONTINUOUS
 62
5
 10
2093.9736222853007
 20
989.8255641508772
 11
2285.2139610048025
 21
1320.6810552447178
  0
LINE
  8
MountainLine
  6
CONTINUOUS
 62
1
 10
2379.7116502419417
 20
494.9127820754387
 11
2666.4617423843906
 21
660.3405276223591
  0
LINE
  8
CutLine
  6
CONTINUOUS
 62
250
 10
2286.350324641166
 20
1318.7128156906622
 11
2285.2139610048025
 21
1320.6810552447178
  0
LINE
  8
CutLine
  6
CONTINUOUS
 62
250
 10
2286.350324641166
 20
1318.7128156906622
 11
1905.1025432615775
 21
1979.0533433130206
  0
LINE
  8
CutLine
  6
CONTINUOUS
 62
250
 10
1905.1025432615775
 20
1979.0533433130206
 11
1333.2308711921949
 21
2309.2236071241996
  0
LINE
  8
CutLine
  6
CONTINUOUS
 62
250
 10
2285.2139610048025
 20
1320.6810552447178
 11
2666.4617423843906
 21
660.3405276223591
  0
LINE
  8
CutLine
  6
CONTINUOUS
 62
250
 10
2666.4617423843906
 20
660.3405276223591
 11
2666.4617423843906
 21
3.875687649600546E-13
  0
LINE
  8
ValleyLine
  6
CONTINUOUS
 62
5
 10
0.0
 20
-0.0
 11
103.44995672613129
 21
-3.3039931472281485
  0
LINE
  8
MountainLine
  6
CONTINUOUS
 62
1
 10
0.0
 20
-0.0
 11
104.40373739260772
 21
-1.651996573614062
  0
LINE
  8
ValleyLine
  6
CONTINUOUS
 62
5
 10
0.0
 20
0.0
 11
54.58632036249495
 21
-87.93829397161646
  0
LINE
  8
MountainLine
  6
CONTINUOUS
 62
1
 10
0.0
 20
0.0
 11
53.632539696018526
 21
-89.59029054523056
  0
LINE
  8
MountainLine
  6
CONTINUOUS
 62
1
 10
103.44995672613129
 20
-3.3039931472281485
 11
54.58632036249495
 21
-87.93829397161646
  0
LINE
  8
ValleyLine
  6
CONTINUOUS
 62
5
 10
103.44995672613129
 20
-3.3039931472281485
 11
104.40373739260772
 21
-1.651996573614062
  0
LINE
  8
MountainLine
  6
CONTINUOUS
 62
1
 10
104.40373739260772
 20
-1.651996573614062
 11
104.40373739260772
 21
1.816728585750256E-14
  0
LINE
  8
ValleyLine
  6
CONTINUOUS
 62
5
 10
54.58632036249495
 20
-87.93829397161646
 11
53.632539696018526
 21
-89.59029054523056
  0
LINE
  8
MountainLine
  6
CONTINUOUS
 62
1
 10
53.632539696018526
 20
-89.59029054523056
 11
52.201868696303876
 21
-90.41628883203758
  0
LINE
  8
ValleyLine
  6
CONTINUOUS
 62
5
 10
103.44995672613129
 20
-3.3039931472281485
 11
166.69721052168762
 21
-54.25356888133781
  0
LINE
  8
MountainLine
  6
CONTINUOUS
 62
1
 10
104.40373739260772
 20
-1.651996573614062
 11
182.3588668207568
 21
-27.1267844406689
  0
LINE
  8
ValleyLine
  6
CONTINUOUS
 62
5
 10
54.58632036249495
 20
-87.93829397161646
 11
130.3335741580513
 21
-117.23723461111517
  0
LINE
  8
MountainLine
  6
CONTINUOUS
 62
1
 10
53.632539696018526
 20
-89.59029054523056
 11
114.67191785898216
 21
-144.36401905178408
  0
LINE
  8
ValleyLine
  6
CONTINUOUS
 62
5
 10
166.69721052168762
 20
-54.25356888133781
 11
130.3335741580513
 21
-117.23723461111517
  0
LINE
  8
MountainLine
  6
CONTINUOUS
 62
1
 10
166.69721052168762
 20
-54.25356888133781
 11
182.3588668207568
 21
-27.1267844406689
  0
LINE
  8
ValleyLine
  6
CONTINUOUS
 62
5
 10
182.3588668207568
 20
-27.1267844406689
 11
182.35886682075682
 21
3.633457171500512E-14
  0
LINE
  8
MountainLine
  6
CONTINUOUS
 62
1
 10
130.3335741580513
 20
-117.23723461111517
 11
114.67191785898216
 21
-144.36401905178408
  0
LINE
  8
ValleyLine
  6
CONTINUOUS
 62
5
 10
114.67191785898216
 20
-144.36401905178408
 11
91.17943341037844
 21
-157.92741127211855
  0
LINE
  8
ValleyLine
  6
CONTINUOUS
 62
5
 10
166.69721052168762
 20
-54.25356888133781
 11
304.58360152831267
 21
-55.13273168437701
  0
LINE
  8
MountainLine
  6
CONTINUOUS
 62
1
 10
182.3588668207568
 20
-27.1267844406689
 11
320.49905026787985
 21
-27.566365842188475
  0
LINE
  8
ValleyLine
  6
CONTINUOUS
 62
5
 10
130.3335741580513
 20
-117.23723461111517
 11
200.03814698285817
 21
-236.2107706574869
  0
LINE
  8
MountainLine
  6
CONTINUOUS
 62
1
 10
114.67191785898216
 20
-144.36401905178408
 11
184.12269824329093
 21
-263.7771364996754
  0
LINE
  8
MountainLine
  6
CONTINUOUS
 62
1
 10
304.58360152831267
 20
-55.13273168437701
 11
200.03814698285817
 21
-236.2107706574869
  0
LINE
  8
ValleyLine
  6
CONTINUOUS
 62
5
 10
304.58360152831267
 20
-55.13273168437701
 11
320.49905026787985
 21
-27.566365842188475
  0
LINE
  8
MountainLine
  6
CONTINUOUS
 62
1
 10
320.49905026787985
 20
-27.566365842188475
 11
320.49905026787985
 21
7.266914343001024E-14
  0
LINE
  8
ValleyLine
  6
CONTINUOUS
 62
5
 10
200.03814698285817
 20
-236.2107706574869
 11
184.12269824329093
 21
-263.7771364996754
  0
LINE
  8
MountainLine
  6
CONTINUOUS
 62
1
 10
184.12269824329093
 20
-263.7771364996754
 11
160.24952513393998
 21
-277.56031942076976
  0
LINE
  8
ValleyLine
  6
CONTINUOUS
 62
5
 10
304.58360152831267
 20
-55.13273168437701
 11
431.53195025421
 21
-142.86015172419297
  0
LINE
  8
MountainLine
  6
CONTINUOUS
 62
1
 10
320.49905026787985
 20
-27.566365842188475
 11
472.77212378142684
 21
-71.43007586209644
  0
LINE
  8
ValleyLine
  6
CONTINUOUS
 62
5
 10
200.03814698285817
 20
-236.2107706574869
 11
339.48649570875557
 21
-302.2875556026919
  0
LINE
  8
MountainLine
  6
CONTINUOUS
 62
1
 10
184.12269824329093
 20
-263.7771364996754
 11
298.24632218153874
 21
-373.71763146478844
  0
LINE
  8
ValleyLine
  6
CONTINUOUS
 62
5
 10
431.53195025421
 20
-142.86015172419297
 11
339.48649570875557
 21
-302.2875556026919
  0
LINE
  8
MountainLine
  6
CONTINUOUS
 62
1
 10
431.53195025421
 20
-142.86015172419297
 11
472.77212378142684
 21
-71.43007586209644
  0
LINE
  8
ValleyLine
  6
CONTINUOUS
 62
5
 10
472.77212378142684
 20
-71.43007586209644
 11
472.77212378142684
 21
1.2111523905001706E-13
  0
LINE
  8
MountainLine
  6
CONTINUOUS
 62
1
 10
339.48649570875557
 20
-302.2875556026919
 11
298.24632218153874
 21
-373.71763146478844
  0
LINE
  8
ValleyLine
  6
CONTINUOUS
 62
5
 10
298.24632218153874
 20
-373.71763146478844
 11
236.38606189071348
 21
-409.43266939583674
  0
LINE
  8
ValleyLine
  6
CONTINUOUS
 62
5
 10
431.53195025421
 20
-142.86015172419297
 11
570.6329983326079
 21
-143.12843741188968
  0
LINE
  8
MountainLine
  6
CONTINUOUS
 62
1
 10
472.77212378142684
 20
-71.43007586209644
 11
611.9506192668305
 21
-71.56421870594475
  0
LINE
  8
ValleyLine
  6
CONTINUOUS
 62
5
 10
339.48649570875557
 20
-302.2875556026919
 11
409.2693619689716
 21
-422.6184540877766
  0
LINE
  8
MountainLine
  6
CONTINUOUS
 62
1
 10
298.24632218153874
 20
-373.71763146478844
 11
367.9517410347491
 21
-494.1826727937216
  0
LINE
  8
MountainLine
  6
CONTINUOUS
 62
1
 10
570.6329983326079
 20
-143.12843741188968
 11
409.2693619689716
 21
-422.6184540877766
  0
LINE
  8
ValleyLine
  6
CONTINUOUS
 62
5
 10
570.6329983326079
 20
-143.12843741188968
 11
611.9506192668305
 21
-71.56421870594475
  0
LINE
  8
MountainLine
  6
CONTINUOUS
 62
1
 10
611.9506192668305
 20
-71.56421870594475
 11
611.9506192668306
 21
4.8446095620006826E-14
  0
LINE
  8
ValleyLine
  6
CONTINUOUS
 62
5
 10
409.2693619689716
 20
-422.6184540877766
 11
367.9517410347491
 21
-494.1826727937216
  0
LINE
  8
MountainLine
  6
CONTINUOUS
 62
1
 10
367.9517410347491
 20
-494.1826727937216
 11
305.9753096334154
 21
-529.964782146694
  0
LINE
  8
ValleyLine
  6
CONTINUOUS
 62
5
 10
570.6329983326079
 20
-143.12843741188968
 11
674.3924101998768
 21
-266.017627514192
  0
LINE
  8
MountainLine
  6
CONTINUOUS
 62
1
 10
611.9506192668305
 20
-71.56421870594475
 11
751.185084627129
 21
-133.00881375709588
  0
LINE
  8
ValleyLine
  6
CONTINUOUS
 62
5
 10
409.2693619689716
 20
-422.6184540877766
 11
567.5742283816951
 21
-451.0321455954129
  0
LINE
  8
MountainLine
  6
CONTINUOUS
 62
1
 10
367.9517410347491
 20
-494.1826727937216
 11
490.78155395444287
 21
-584.0409593525089
  0
LINE
  8
ValleyLine
  6
CONTINUOUS
 62
5
 10
674.3924101998768
 20
-266.017627514192
 11
567.5742283816951
 21
-451.0321455954129
  0
LINE
  8
MountainLine
  6
CONTINUOUS
 62
1
 10
674.3924101998768
 20
-266.017627514192
 11
751.185084627129
 21
-133.00881375709588
  0
LINE
  8
ValleyLine
  6
CONTINUOUS
 62
5
 10
751.185084627129
 20
-133.00881375709588
 11
751.185084627129
 21
1.4533828686002048E-13
  0
LINE
  8
MountainLine
  6
CONTINUOUS
 62
1
 10
567.5742283816951
 20
-451.0321455954129
 11
490.78155395444287
 21
-584.0409593525089
  0
LINE
  8
ValleyLine
  6
CONTINUOUS
 62
5
 10
490.78155395444287
 20
-584.0409593525089
 11
375.59254231356465
 21
-650.545366231057
  0
LINE
  8
ValleyLine
  6
CONTINUOUS
 62
5
 10
674.3924101998768
 20
-266.017627514192
 11
875.0299967929114
 21
-267.6978980080159
  0
LINE
  8
MountainLine
  6
CONTINUOUS
 62
1
 10
751.185084627129
 20
-133.00881375709588
 11
952.3077235311239
 21
-133.8489490040078
  0
LINE
  8
ValleyLine
  6
CONTINUOUS
 62
5
 10
567.5742283816951
 20
-451.0321455954129
 11
669.3481786110934
 21
-623.949257292069
  0
LINE
  8
MountainLine
  6
CONTINUOUS
 62
1
 10
490.78155395444287
 20
-584.0409593525089
 11
592.0704518728809
 21
-757.7982062960771
  0
LINE
  8
MountainLine
  6
CONTINUOUS
 62
1
 10
875.0299967929114
 20
-267.6978980080159
 11
669.3481786110934
 21
-623.949257292069
  0
LINE
  8
ValleyLine
  6
CONTINUOUS
 62
5
 10
875.0299967929114
 20
-267.6978980080159
 11
952.3077235311239
 21
-133.8489490040078
  0
LINE
  8
MountainLine
  6
CONTINUOUS
 62
1
 10
952.3077235311239
 20
-133.8489490040078
 11
952.3077235311241
 21
2.422304781000341E-13
  0
LINE
  8
ValleyLine
  6
CONTINUOUS
 62
5
 10
669.3481786110934
 20
-623.949257292069
 11
592.0704518728809
 21
-757.7982062960771
  0
LINE
  8
MountainLine
  6
CONTINUOUS
 62
1
 10
592.0704518728809
 20
-757.7982062960771
 11
476.15386176556217
 21
-824.7226807980812
  0
LINE
  8
ValleyLine
  6
CONTINUOUS
 62
5
 10
875.0299967929114
 20
-267.6978980080159
 11
979.8083475894828
 21
-393.7996921808461
  0
LINE
  8
MountainLine
  6
CONTINUOUS
 62
1
 10
952.3077235311239
 20
-133.8489490040078
 11
1093.4885267331845
 21
-196.89984609042293
  0
LINE
  8
ValleyLine
  6
CONTINUOUS
 62
5
 10
669.3481786110934
 20
-623.949257292069
 11
830.9447112258465
 21
-651.639073762122
  0
LINE
  8
MountainLine
  6
CONTINUOUS
 62
1
 10
592.0704518728809
 20
-757.7982062960771
 11
717.2645320821448
 21
-848.5389198525452
  0
LINE
  8
ValleyLine
  6
CONTINUOUS
 62
5
 10
979.8083475894828
 20
-393.7996921808461
 11
830.9447112258465
 21
-651.639073762122
  0
LINE
  8
MountainLine
  6
CONTINUOUS
 62
1
 10
979.8083475894828
 20
-393.7996921808461
 11
1093.4885267331845
 21
-196.89984609042293
  0
LINE
  8
ValleyLine
  6
CONTINUOUS
 62
5
 10
1093.4885267331845
 20
-196.89984609042293
 11
1093.4885267331845
 21
1.937843824800273E-13
  0
LINE
  8
MountainLine
  6
CONTINUOUS
 62
1
 10
830.9447112258465
 20
-651.639073762122
 11
717.2645320821448
 21
-848.5389198525452
  0
LINE
  8
ValleyLine
  6
CONTINUOUS
 62
5
 10
717.2645320821448
 20
-848.5389198525452
 11
546.7442633665926
 21
-946.9888428977569
  0
LINE
  8
ValleyLine
  6
CONTINUOUS
 62
5
 10
979.8083475894828
 20
-393.7996921808461
 11
1178.6074039354878
 21
-395.7306464443379
  0
LINE
  8
MountainLine
  6
CONTINUOUS
 62
1
 10
1093.4885267331845
 20
-196.89984609042293
 11
1292.8450015610993
 21
-197.8653232221688
  0
LINE
  8
ValleyLine
  6
CONTINUOUS
 62
5
 10
830.9447112258465
 20
-651.639073762122
 11
932.0164948445789
 21
-822.8386296743904
  0
LINE
  8
MountainLine
  6
CONTINUOUS
 62
1
 10
717.2645320821448
 20
-848.5389198525452
 11
817.7788972189674
 21
-1020.7039528965595
  0
LINE
  8
MountainLine
  6
CONTINUOUS
 62
1
 10
1178.6074039354878
 20
-395.7306464443379
 11
932.0164948445789
 21
-822.8386296743904
  0
LINE
  8
ValleyLine
  6
CONTINUOUS
 62
5
 10
1178.6074039354878
 20
-395.7306464443379
 11
1292.8450015610993
 21
-197.8653232221688
  0
LINE
  8
MountainLine
  6
CONTINUOUS
 62
1
 10
1292.8450015610993
 20
-197.8653232221688
 11
1292.8450015610993
 21
2.9067657372004097E-13
  0
LINE
  8
ValleyLine
  6
CONTINUOUS
 62
5
 10
932.0164948445789
 20
-822.8386296743904
 11
817.7788972189674
 21
-1020.7039528965595
  0
LINE
  8
MountainLine
  6
CONTINUOUS
 62
1
 10
817.7788972189674
 20
-1020.7039528965595
 11
646.42250078055
 21
-1119.636614507644
  0
LINE
  8
ValleyLine
  6
CONTINUOUS
 62
5
 10
1178.6074039354878
 20
-395.7306464443379
 11
1285.5150354844704
 21
-544.0563366760123
  0
LINE
  8
MountainLine
  6
CONTINUOUS
 62
1
 10
1292.8450015610993
 20
-197.8653232221688
 11
1442.5705717015792
 21
-272.0281683380061
  0
LINE
  8
ValleyLine
  6
CONTINUOUS
 62
5
 10
932.0164948445789
 20
-822.8386296743904
 11
1113.9241263935617
 21
-841.2605093383992
  0
LINE
  8
MountainLine
  6
CONTINUOUS
 62
1
 10
817.7788972189674
 20
-1020.7039528965595
 11
956.868590176453
 21
-1113.2886776764053
  0
LINE
  8
ValleyLine
  6
CONTINUOUS
 62
5
 10
1285.5150354844704
 20
-544.0563366760123
 11
1113.9241263935617
 21
-841.2605093383992
  0
LINE
  8
MountainLine
  6
CONTINUOUS
 62
1
 10
1285.5150354844704
 20
-544.0563366760123
 11
1442.5705717015792
 21
-272.0281683380061
  0
LINE
  8
ValleyLine
  6
CONTINUOUS
 62
5
 10
1442.5705717015792
 20
-272.0281683380061
 11
1442.5705717015792
 21
1.937843824800273E-13
  0
LINE
  8
MountainLine
  6
CONTINUOUS
 62
1
 10
1113.9241263935617
 20
-841.2605093383992
 11
956.868590176453
 21
-1113.2886776764053
  0
LINE
  8
ValleyLine
  6
CONTINUOUS
 62
5
 10
956.868590176453
 20
-1113.2886776764053
 11
721.28528585079
 21
-1249.3027618454084
  0
LINE
  8
ValleyLine
  6
CONTINUOUS
 62
5
 10
1285.5150354844704
 20
-544.0563366760123
 11
1613.9137956015986
 21
-552.5794102580654
  0
LINE
  8
MountainLine
  6
CONTINUOUS
 62
1
 10
1442.5705717015792
 20
-272.0281683380061
 11
1773.429731232168
 21
-276.28970512903254
  0
LINE
  8
ValleyLine
  6
CONTINUOUS
 62
5
 10
1113.9241263935617
 20
-841.2605093383992
 11
1285.5047046925079
 21
-1121.4006413801171
  0
LINE
  8
MountainLine
  6
CONTINUOUS
 62
1
 10
956.868590176453
 20
-1113.2886776764053
 11
1125.9887690619387
 21
-1397.69034650915
  0
LINE
  8
ValleyLine
  6
CONTINUOUS
 62
5
 10
1613.9137956015986
 20
-552.5794102580654
 11
1285.5047046925079
 21
-1121.4006413801171
  0
LINE
  8
MountainLine
  6
CONTINUOUS
 62
1
 10
1613.9137956015986
 20
-552.5794102580654
 11
1773.429731232168
 21
-276.28970512903254
  0
LINE
  8
ValleyLine
  6
CONTINUOUS
 62
5
 10
1773.429731232168
 20
-276.28970512903254
 11
1773.429731232168
 21
3.875687649600546E-13
  0
LINE
  8
MountainLine
  6
CONTINUOUS
 62
1
 10
1285.5047046925079
 20
-1121.4006413801171
 11
1125.9887690619387
 21
-1397.69034650915
  0
LINE
  8
ValleyLine
  6
CONTINUOUS
 62
5
 10
1125.9887690619387
 20
-1397.69034650915
 11
886.7148656160846
 21
-1535.8351990736664
  0
LINE
  8
ValleyLine
  6
CONTINUOUS
 62
5
 10
1613.9137956015986
 20
-552.5794102580654
 11
1613.9137956015986
 21
-552.5794102580654
  0
LINE
  8
MountainLine
  6
CONTINUOUS
 62
1
 10
1773.429731232168
 20
-276.28970512903254
 11
1773.429731232168
 21
-276.28970512903254
  0
LINE
  8
ValleyLine
  6
CONTINUOUS
 62
5
 10
1285.5047046925079
 20
-1121.4006413801171
 11
1285.5047046925079
 21
-1121.4006413801171
  0
LINE
  8
MountainLine
  6
CONTINUOUS
 62
1
 10
1125.9887690619387
 20
-1397.69034650915
 11
1125.9887690619387
 21
-1397.69034650915
  0
LINE
  8
ValleyLine
  6
CONTINUOUS
 62
5
 10
1613.9137956015986
 20
-552.5794102580654
 11
1285.5047046925079
 21
-1121.4006413801171
  0
LINE
  8
MountainLine
  6
CONTINUOUS
 62
1
 10
1613.9137956015986
 20
-552.5794102580654
 11
1773.429731232168
 21
-276.28970512903254
  0
LINE
  8
ValleyLine
  6
CONTINUOUS
 62
5
 10
1773.429731232168
 20
-276.28970512903254
 11
1773.429731232168
 21
3.875687649600546E-13
  0
LINE
  8
MountainLine
  6
CONTINUOUS
 62
1
 10
1285.5047046925079
 20
-1121.4006413801171
 11
1125.9887690619387
 21
-1397.69034650915
  0
LINE
  8
ValleyLine
  6
CONTINUOUS
 62
5
 10
1125.9887690619387
 20
-1397.69034650915
 11
886.7148656160846
 21
-1535.8351990736664
  0
LINE
  8
ValleyLine
  6
CONTINUOUS
 62
5
 10
1613.9137956015986
 20
-552.5794102580654
 11
1745.3336672656192
 21
-766.2314773240417
  0
LINE
  8
MountainLine
  6
CONTINUOUS
 62
1
 10
1773.429731232168
 20
-276.28970512903254
 11
1966.5256421129193
 21
-383.11573866202053
  0
LINE
  8
ValleyLine
  6
CONTINUOUS
 62
5
 10
1285.5047046925079
 20
-1121.4006413801171
 11
1536.2427581747104
 21
-1128.3875552702614
  0
LINE
  8
MountainLine
  6
CONTINUOUS
 62
1
 10
1125.9887690619387
 20
-1397.69034650915
 11
1315.0507833274103
 21
-1511.5032939322825
  0
LINE
  8
ValleyLine
  6
CONTINUOUS
 62
5
 10
1745.3336672656192
 20
-766.2314773240417
 11
1536.2427581747104
 21
-1128.3875552702614
  0
LINE
  8
MountainLine
  6
CONTINUOUS
 62
1
 10
1745.3336672656192
 20
-766.2314773240417
 11
1966.5256421129193
 21
-383.11573866202053
  0
LINE
  8
ValleyLine
  6
CONTINUOUS
 62
5
 10
1966.5256421129193
 20
-383.11573866202053
 11
1966.5256421129193
 21
6.782453386800955E-13
  0
LINE
  8
MountainLine
  6
CONTINUOUS
 62
1
 10
1536.2427581747104
 20
-1128.3875552702614
 11
1315.0507833274103
 21
-1511.5032939322825
  0
LINE
  8
ValleyLine
  6
CONTINUOUS
 62
5
 10
1315.0507833274103
 20
-1511.5032939322825
 11
983.2628210564599
 21
-1703.0611632632933
  0
LINE
  8
ValleyLine
  6
CONTINUOUS
 62
5
 10
1745.3336672656192
 20
-766.2314773240417
 11
1745.3336672656192
 21
-766.2314773240417
  0
LINE
  8
MountainLine
  6
CONTINUOUS
 62
1
 10
1966.5256421129193
 20
-383.11573866202053
 11
1966.5256421129193
 21
-383.11573866202053
  0
LINE
  8
ValleyLine
  6
CONTINUOUS
 62
5
 10
1536.2427581747104
 20
-1128.3875552702614
 11
1536.2427581747104
 21
-1128.3875552702614
  0
LINE
  8
MountainLine
  6
CONTINUOUS
 62
1
 10
1315.0507833274103
 20
-1511.5032939322825
 11
1315.0507833274103
 21
-1511.5032939322825
  0
LINE
  8
ValleyLine
  6
CONTINUOUS
 62
5
 10
1745.3336672656192
 20
-766.2314773240417
 11
1536.2427581747104
 21
-1128.3875552702614
  0
LINE
  8
MountainLine
  6
CONTINUOUS
 62
1
 10
1745.3336672656192
 20
-766.2314773240417
 11
1966.5256421129193
 21
-383.11573866202053
  0
LINE
  8
ValleyLine
  6
CONTINUOUS
 62
5
 10
1966.5256421129193
 20
-383.11573866202053
 11
1966.5256421129193
 21
6.782453386800955E-13
  0
LINE
  8
MountainLine
  6
CONTINUOUS
 62
1
 10
1536.2427581747104
 20
-1128.3875552702614
 11
1315.0507833274103
 21
-1511.5032939322825
  0
LINE
  8
ValleyLine
  6
CONTINUOUS
 62
5
 10
1315.0507833274103
 20
-1511.5032939322825
 11
983.2628210564599
 21
-1703.0611632632933
  0
LINE
  8
ValleyLine
  6
CONTINUOUS
 62
5
 10
1745.3336672656192
 20
-766.2314773240417
 11
1963.0626453047637
 21
-773.8429881619915
  0
LINE
  8
MountainLine
  6
CONTINUOUS
 62
1
 10
1966.5256421129193
 20
-383.11573866202053
 11
2186.451874067679
 21
-386.9214940809955
  0
LINE
  8
ValleyLine
  6
CONTINUOUS
 62
5
 10
1536.2427581747104
 20
-1128.3875552702614
 11
1651.6990089411277
 21
-1313.14062597321
  0
LINE
  8
MountainLine
  6
CONTINUOUS
 62
1
 10
1315.0507833274103
 20
-1511.5032939322825
 11
1428.3097801782126
 21
-1700.0621200542057
  0
LINE
  8
MountainLine
  6
CONTINUOUS
 62
1
 10
1963.0626453047637
 20
-773.8429881619915
 11
1651.6990089411277
 21
-1313.14062597321
  0
LINE
  8
ValleyLine
  6
CONTINUOUS
 62
5
 10
1963.0626453047637
 20
-773.8429881619915
 11
2186.451874067679
 21
-386.9214940809955
  0
LINE
  8
MountainLine
  6
CONTINUOUS
 62
1
 10
2186.451874067679
 20
-386.9214940809955
 11
2186.4518740676785
 21
3.875687649600546E-13
  0
LINE
  8
ValleyLine
  6
CONTINUOUS
 62
5
 10
1651.6990089411277
 20
-1313.14062597321
 11
1428.3097801782126
 21
-1700.0621200542057
  0
LINE
  8
MountainLine
  6
CONTINUOUS
 62
1
 10
1428.3097801782126
 20
-1700.0621200542057
 11
1093.22593703384
 21
-1893.5228670947038
  0
LINE
  8
ValleyLine
  6
CONTINUOUS
 62
5
 10
1963.0626453047637
 20
-773.8429881619915
 11
2093.973622285301
 21
-989.8255641508764
  0
LINE
  8
MountainLine
  6
CONTINUOUS
 62
1
 10
2186.451874067679
 20
-386.9214940809955
 11
2379.7116502419417
 21
-494.9127820754379
  0
LINE
  8
ValleyLine
  6
CONTINUOUS
 62
5
 10
1651.6990089411277
 20
-1313.14062597321
 11
1904.2008950125735
 21
-1318.521569678152
  0
LINE
  8
MountainLine
  6
CONTINUOUS
 62
1
 10
1428.3097801782126
 20
-1700.0621200542057
 11
1618.4628670559327
 21
-1813.4343517535904
  0
LINE
  8
MountainLine
  6
CONTINUOUS
 62
1
 10
2093.973622285301
 20
-989.8255641508764
 11
1904.2008950125735
 21
-1318.521569678152
  0
LINE
  8
ValleyLine
  6
CONTINUOUS
 62
5
 10
2093.973622285301
 20
-989.8255641508764
 11
2379.7116502419417
 21
-494.9127820754379
  0
LINE
  8
MountainLine
  6
CONTINUOUS
 62
1
 10
2379.7116502419417
 20
-494.9127820754379
 11
2379.7116502419417
 21
5.813531474400819E-13
  0
LINE
  8
ValleyLine
  6
CONTINUOUS
 62
5
 10
1904.2008950125735
 20
-1318.521569678152
 11
1618.4628670559327
 21
-1813.4343517535904
  0
LINE
  8
MountainLine
  6
CONTINUOUS
 62
1
 10
1618.4628670559327
 20
-1813.4343517535904
 11
1189.8558251209713
 21
-2060.8907427913105
  0
LINE
  8
ValleyLine
  6
CONTINUOUS
 62
5
 10
2093.973622285301
 20
-989.8255641508764
 11
2285.2139610048025
 21
-1320.6810552447168
  0
LINE
  8
MountainLine
  6
CONTINUOUS
 62
1
 10
2379.7116502419417
 20
-494.9127820754379
 11
2666.4617423843906
 21
-660.3405276223581
  0
LINE
  8
ValleyLine
  6
CONTINUOUS
 62
5
 10
1904.2008950125735
 20
-1318.521569678152
 11
2286.350324641166
 21
-1318.712815690661
  0
LINE
  8
MountainLine
  6
CONTINUOUS
 62
1
 10
1618.4628670559327
 20
-1813.4343517535904
 11
1905.102543261578
 21
-1979.05334331302
  0
LINE
  8
CutLine
  6
CONTINUOUS
 62
250
 10
2285.2139610048025
 20
-1320.6810552447168
 11
2286.350324641166
 21
-1318.712815690661
  0
LINE
  8
CutLine
  6
CONTINUOUS
 62
250
 10
2285.2139610048025
 20
-1320.6810552447168
 11
2666.4617423843906
 21
-660.3405276223581
  0
LINE
  8
CutLine
  6
CONTINUOUS
 62
250
 10
2666.4617423843906
 20
-660.3405276223581
 11
2666.4617423843906
 21
5.813531474400819E-13
  0
LINE
  8
CutLine
  6
CONTINUOUS
 62
250
 10
2286.350324641166
 20
-1318.712815690661
 11
1905.102543261578
 21
-1979.05334331302
  0
LINE
  8
CutLine
  6
CONTINUOUS
 62
250
 10
1905.102543261578
 20
-1979.05334331302
 11
1333.2308711921955
 21
-2309.223607124199
  0
LINE
  8
ValleyLine
  6
CONTINUOUS
 62
5
 10
0.0
 20
-0.0
 11
48.86363636363637
 21
-91.24228711884464
  0
LINE
  8
MountainLine
  6
CONTINUOUS
 62
1
 10
0.0
 20
-0.0
 11
50.77119769658923
 21
-91.24228711884463
  0
LINE
  8
ValleyLine
  6
CONTINUOUS
 62
5
 10
0.0
 20
0.0
 11
-48.863636363636346
 21
-91.24228711884464
  0
LINE
  8
MountainLine
  6
CONTINUOUS
 62
1
 10
0.0
 20
0.0
 11
-50.771197696589205
 21
-91.24228711884466
  0
LINE
  8
MountainLine
  6
CONTINUOUS
 62
1
 10
48.86363636363637
 20
-91.24228711884464
 11
-48.863636363636346
 21
-91.24228711884464
  0
LINE
  8
ValleyLine
  6
CONTINUOUS
 62
5
 10
48.86363636363637
 20
-91.24228711884464
 11
50.77119769658923
 21
-91.24228711884463
  0
LINE
  8
MountainLine
  6
CONTINUOUS
 62
1
 10
50.77119769658923
 20
-91.24228711884463
 11
52.201868696303876
 21
-90.4162888320376
  0
LINE
  8
ValleyLine
  6
CONTINUOUS
 62
5
 10
-48.863636363636346
 20
-91.24228711884464
 11
-50.771197696589205
 21
-91.24228711884466
  0
LINE
  8
MountainLine
  6
CONTINUOUS
 62
1
 10
-50.771197696589205
 20
-91.24228711884466
 11
-52.201868696303855
 21
-90.41628883203762
  0
LINE
  8
ValleyLine
  6
CONTINUOUS
 62
5
 10
48.86363636363637
 20
-91.24228711884464
 11
36.36363636363637
 21
-171.49080349245304
  0
LINE
  8
MountainLine
  6
CONTINUOUS
 62
1
 10
50.77119769658923
 20
-91.24228711884463
 11
67.68694896177468
 21
-171.49080349245304
  0
LINE
  8
ValleyLine
  6
CONTINUOUS
 62
5
 10
-48.863636363636346
 20
-91.24228711884464
 11
-36.36363636363633
 21
-171.49080349245304
  0
LINE
  8
MountainLine
  6
CONTINUOUS
 62
1
 10
-50.771197696589205
 20
-91.24228711884466
 11
-67.68694896177463
 21
-171.49080349245304
  0
LINE
  8
ValleyLine
  6
CONTINUOUS
 62
5
 10
36.36363636363637
 20
-171.49080349245304
 11
-36.36363636363633
 21
-171.49080349245304
  0
LINE
  8
MountainLine
  6
CONTINUOUS
 62
1
 10
36.36363636363637
 20
-171.49080349245304
 11
67.68694896177468
 21
-171.49080349245304
  0
LINE
  8
ValleyLine
  6
CONTINUOUS
 62
5
 10
67.68694896177468
 20
-171.49080349245304
 11
91.17943341037842
 21
-157.92741127211858
  0
LINE
  8
MountainLine
  6
CONTINUOUS
 62
1
 10
-36.36363636363633
 20
-171.49080349245304
 11
-67.68694896177463
 21
-171.49080349245304
  0
LINE
  8
ValleyLine
  6
CONTINUOUS
 62
5
 10
-67.68694896177463
 20
-171.49080349245304
 11
-91.17943341037837
 21
-157.92741127211858
  0
LINE
  8
ValleyLine
  6
CONTINUOUS
 62
5
 10
36.36363636363637
 20
-171.49080349245304
 11
104.54545454545456
 21
-291.34350234186405
  0
LINE
  8
MountainLine
  6
CONTINUOUS
 62
1
 10
67.68694896177468
 20
-171.49080349245304
 11
136.37635202458907
 21
-291.34350234186405
  0
LINE
  8
ValleyLine
  6
CONTINUOUS
 62
5
 10
-36.36363636363633
 20
-171.49080349245304
 11
-104.54545454545449
 21
-291.34350234186405
  0
LINE
  8
MountainLine
  6
CONTINUOUS
 62
1
 10
-67.68694896177463
 20
-171.49080349245304
 11
-136.376352024589
 21
-291.34350234186405
  0
LINE
  8
MountainLine
  6
CONTINUOUS
 62
1
 10
104.54545454545456
 20
-291.34350234186405
 11
-104.54545454545449
 21
-291.34350234186405
  0
LINE
  8
ValleyLine
  6
CONTINUOUS
 62
5
 10
104.54545454545456
 20
-291.34350234186405
 11
136.37635202458907
 21
-291.34350234186405
  0
LINE
  8
MountainLine
  6
CONTINUOUS
 62
1
 10
136.37635202458907
 20
-291.34350234186405
 11
160.24952513393995
 21
-277.56031942076976
  0
LINE
  8
ValleyLine
  6
CONTINUOUS
 62
5
 10
-104.54545454545449
 20
-291.34350234186405
 11
-136.376352024589
 21
-291.34350234186405
  0
LINE
  8
MountainLine
  6
CONTINUOUS
 62
1
 10
-136.376352024589
 20
-291.34350234186405
 11
-160.24952513393993
 21
-277.56031942076976
  0
LINE
  8
ValleyLine
  6
CONTINUOUS
 62
5
 10
104.54545454545456
 20
-291.34350234186405
 11
92.04545454545459
 21
-445.14770732688504
  0
LINE
  8
MountainLine
  6
CONTINUOUS
 62
1
 10
136.37635202458907
 20
-291.34350234186405
 11
174.52580159988824
 21
-445.14770732688504
  0
LINE
  8
ValleyLine
  6
CONTINUOUS
 62
5
 10
-104.54545454545449
 20
-291.34350234186405
 11
-92.04545454545446
 21
-445.14770732688504
  0
LINE
  8
MountainLine
  6
CONTINUOUS
 62
1
 10
-136.376352024589
 20
-291.34350234186405
 11
-174.52580159988813
 21
-445.14770732688504
  0
LINE
  8
ValleyLine
  6
CONTINUOUS
 62
5
 10
92.04545454545459
 20
-445.14770732688504
 11
-92.04545454545446
 21
-445.14770732688504
  0
LINE
  8
MountainLine
  6
CONTINUOUS
 62
1
 10
92.04545454545459
 20
-445.14770732688504
 11
174.52580159988824
 21
-445.14770732688504
  0
LINE
  8
ValleyLine
  6
CONTINUOUS
 62
5
 10
174.52580159988824
 20
-445.14770732688504
 11
236.38606189071348
 21
-409.43266939583674
  0
LINE
  8
MountainLine
  6
CONTINUOUS
 62
1
 10
-92.04545454545446
 20
-445.14770732688504
 11
-174.52580159988813
 21
-445.14770732688504
  0
LINE
  8
ValleyLine
  6
CONTINUOUS
 62
5
 10
-174.52580159988813
 20
-445.14770732688504
 11
-236.3860618907134
 21
-409.43266939583685
  0
LINE
  8
ValleyLine
  6
CONTINUOUS
 62
5
 10
92.04545454545459
 20
-445.14770732688504
 11
161.3636363636364
 21
-565.7468914996666
  0
LINE
  8
MountainLine
  6
CONTINUOUS
 62
1
 10
174.52580159988824
 20
-445.14770732688504
 11
243.9988782320815
 21
-565.7468914996666
  0
LINE
  8
ValleyLine
  6
CONTINUOUS
 62
5
 10
-92.04545454545446
 20
-445.14770732688504
 11
-161.36363636363626
 21
-565.7468914996666
  0
LINE
  8
MountainLine
  6
CONTINUOUS
 62
1
 10
-174.52580159988813
 20
-445.14770732688504
 11
-243.99887823208138
 21
-565.7468914996666
  0
LINE
  8
MountainLine
  6
CONTINUOUS
 62
1
 10
161.3636363636364
 20
-565.7468914996666
 11
-161.36363636363626
 21
-565.7468914996666
  0
LINE
  8
ValleyLine
  6
CONTINUOUS
 62
5
 10
161.3636363636364
 20
-565.7468914996666
 11
243.9988782320815
 21
-565.7468914996666
  0
LINE
  8
MountainLine
  6
CONTINUOUS
 62
1
 10
243.9988782320815
 20
-565.7468914996666
 11
305.9753096334153
 21
-529.9647821466942
  0
LINE
  8
ValleyLine
  6
CONTINUOUS
 62
5
 10
-161.36363636363626
 20
-565.7468914996666
 11
-243.99887823208138
 21
-565.7468914996666
  0
LINE
  8
MountainLine
  6
CONTINUOUS
 62
1
 10
-243.99887823208138
 20
-565.7468914996666
 11
-305.9753096334152
 21
-529.9647821466942
  0
LINE
  8
ValleyLine
  6
CONTINUOUS
 62
5
 10
161.3636363636364
 20
-565.7468914996666
 11
106.81818181818187
 21
-717.0497731096051
  0
LINE
  8
MountainLine
  6
CONTINUOUS
 62
1
 10
243.9988782320815
 20
-565.7468914996666
 11
260.4035306726863
 21
-717.0497731096051
  0
LINE
  8
ValleyLine
  6
CONTINUOUS
 62
5
 10
-161.36363636363626
 20
-565.7468914996666
 11
-106.8181818181817
 21
-717.0497731096051
  0
LINE
  8
MountainLine
  6
CONTINUOUS
 62
1
 10
-243.99887823208138
 20
-565.7468914996666
 11
-260.4035306726861
 21
-717.0497731096051
  0
LINE
  8
ValleyLine
  6
CONTINUOUS
 62
5
 10
106.81818181818187
 20
-717.0497731096051
 11
-106.8181818181817
 21
-717.0497731096051
  0
LINE
  8
MountainLine
  6
CONTINUOUS
 62
1
 10
106.81818181818187
 20
-717.0497731096051
 11
260.4035306726863
 21
-717.0497731096051
  0
LINE
  8
ValleyLine
  6
CONTINUOUS
 62
5
 10
260.4035306726863
 20
-717.0497731096051
 11
375.59254231356465
 21
-650.5453662310572
  0
LINE
  8
MountainLine
  6
CONTINUOUS
 62
1
 10
-106.8181818181817
 20
-717.0497731096051
 11
-260.4035306726861
 21
-717.0497731096051
  0
LINE
  8
ValleyLine
  6
CONTINUOUS
 62
5
 10
-260.4035306726861
 20
-717.0497731096051
 11
-375.5925423135644
 21
-650.5453662310572
  0
LINE
  8
ValleyLine
  6
CONTINUOUS
 62
5
 10
106.81818181818187
 20
-717.0497731096051
 11
205.68181818181827
 21
-891.6471553000853
  0
LINE
  8
MountainLine
  6
CONTINUOUS
 62
1
 10
260.4035306726863
 20
-717.0497731096051
 11
360.23727165824334
 21
-891.6471553000853
  0
LINE
  8
ValleyLine
  6
CONTINUOUS
 62
5
 10
-106.8181818181817
 20
-717.0497731096051
 11
-205.68181818181802
 21
-891.6471553000853
  0
LINE
  8
MountainLine
  6
CONTINUOUS
 62
1
 10
-260.4035306726861
 20
-717.0497731096051
 11
-360.2372716582431
 21
-891.6471553000853
  0
LINE
  8
MountainLine
  6
CONTINUOUS
 62
1
 10
205.68181818181827
 20
-891.6471553000853
 11
-205.68181818181802
 21
-891.6471553000853
  0
LINE
  8
ValleyLine
  6
CONTINUOUS
 62
5
 10
205.68181818181827
 20
-891.6471553000853
 11
360.23727165824334
 21
-891.6471553000853
  0
LINE
  8
MountainLine
  6
CONTINUOUS
 62
1
 10
360.23727165824334
 20
-891.6471553000853
 11
476.15386176556217
 21
-824.7226807980812
  0
LINE
  8
ValleyLine
  6
CONTINUOUS
 62
5
 10
-205.68181818181802
 20
-891.6471553000853
 11
-360.2372716582431
 21
-891.6471553000853
  0
LINE
  8
MountainLine
  6
CONTINUOUS
 62
1
 10
-360.2372716582431
 20
-891.6471553000853
 11
-476.15386176556194
 21
-824.7226807980813
  0
LINE
  8
ValleyLine
  6
CONTINUOUS
 62
5
 10
205.68181818181827
 20
-891.6471553000853
 11
148.86363636363643
 21
-1045.4387659429685
  0
LINE
  8
MountainLine
  6
CONTINUOUS
 62
1
 10
360.23727165824334
 20
-891.6471553000853
 11
376.22399465103985
 21
-1045.4387659429685
  0
LINE
  8
ValleyLine
  6
CONTINUOUS
 62
5
 10
-205.68181818181802
 20
-891.6471553000853
 11
-148.8636363636362
 21
-1045.4387659429685
  0
LINE
  8
MountainLine
  6
CONTINUOUS
 62
1
 10
-360.2372716582431
 20
-891.6471553000853
 11
-376.22399465103956
 21
-1045.4387659429685
  0
LINE
  8
ValleyLine
  6
CONTINUOUS
 62
5
 10
148.86363636363643
 20
-1045.4387659429685
 11
-148.8636363636362
 21
-1045.4387659429685
  0
LINE
  8
MountainLine
  6
CONTINUOUS
 62
1
 10
148.86363636363643
 20
-1045.4387659429685
 11
376.22399465103985
 21
-1045.4387659429685
  0
LINE
  8
ValleyLine
  6
CONTINUOUS
 62
5
 10
376.22399465103985
 20
-1045.4387659429685
 11
546.7442633665923
 21
-946.9888428977571
  0
LINE
  8
MountainLine
  6
CONTINUOUS
 62
1
 10
-148.8636363636362
 20
-1045.4387659429685
 11
-376.22399465103956
 21
-1045.4387659429685
  0
LINE
  8
ValleyLine
  6
CONTINUOUS
 62
5
 10
-376.22399465103956
 20
-1045.4387659429685
 11
-546.7442633665921
 21
-946.9888428977571
  0
LINE
  8
ValleyLine
  6
CONTINUOUS
 62
5
 10
148.86363636363643
 20
-1045.4387659429685
 11
246.59090909090915
 21
-1218.5692761187288
  0
LINE
  8
MountainLine
  6
CONTINUOUS
 62
1
 10
376.22399465103985
 20
-1045.4387659429685
 11
475.0661043421324
 21
-1218.5692761187288
  0
LINE
  8
ValleyLine
  6
CONTINUOUS
 62
5
 10
-148.8636363636362
 20
-1045.4387659429685
 11
-246.59090909090887
 21
-1218.5692761187288
  0
LINE
  8
MountainLine
  6
CONTINUOUS
 62
1
 10
-376.22399465103956
 20
-1045.4387659429685
 11
-475.066104342132
 21
-1218.5692761187288
  0
LINE
  8
MountainLine
  6
CONTINUOUS
 62
1
 10
246.59090909090915
 20
-1218.5692761187288
 11
-246.59090909090887
 21
-1218.5692761187288
  0
LINE
  8
ValleyLine
  6
CONTINUOUS
 62
5
 10
246.59090909090915
 20
-1218.5692761187288
 11
475.0661043421324
 21
-1218.5692761187288
  0
LINE
  8
MountainLine
  6
CONTINUOUS
 62
1
 10
475.0661043421324
 20
-1218.5692761187288
 11
646.4225007805497
 21
-1119.6366145076443
  0
LINE
  8
ValleyLine
  6
CONTINUOUS
 62
5
 10
-246.59090909090887
 20
-1218.5692761187288
 11
-475.066104342132
 21
-1218.5692761187288
  0
LINE
  8
MountainLine
  6
CONTINUOUS
 62
1
 10
-475.066104342132
 20
-1218.5692761187288
 11
-646.4225007805495
 21
-1119.6366145076443
  0
LINE
  8
ValleyLine
  6
CONTINUOUS
 62
5
 10
246.59090909090915
 20
-1218.5692761187288
 11
171.59090909090924
 21
-1385.316846014412
  0
LINE
  8
MountainLine
  6
CONTINUOUS
 62
1
 10
475.0661043421324
 20
-1218.5692761187288
 11
485.70198152512666
 21
-1385.316846014412
  0
LINE
  8
ValleyLine
  6
CONTINUOUS
 62
5
 10
-246.59090909090887
 20
-1218.5692761187288
 11
-171.5909090909089
 21
-1385.316846014412
  0
LINE
  8
MountainLine
  6
CONTINUOUS
 62
1
 10
-475.066104342132
 20
-1218.5692761187288
 11
-485.70198152512626
 21
-1385.316846014412
  0
LINE
  8
ValleyLine
  6
CONTINUOUS
 62
5
 10
171.59090909090924
 20
-1385.316846014412
 11
-171.5909090909089
 21
-1385.316846014412
  0
LINE
  8
MountainLine
  6
CONTINUOUS
 62
1
 10
171.59090909090924
 20
-1385.316846014412
 11
485.70198152512666
 21
-1385.316846014412
  0
LINE
  8
ValleyLine
  6
CONTINUOUS
 62
5
 10
485.70198152512666
 20
-1385.316846014412
 11
721.2852858507897
 21
-1249.302761845409
  0
LINE
  8
MountainLine
  6
CONTINUOUS
 62
1
 10
-171.5909090909089
 20
-1385.316846014412
 11
-485.70198152512626
 21
-1385.316846014412
  0
LINE
  8
ValleyLine
  6
CONTINUOUS
 62
5
 10
-485.70198152512626
 20
-1385.316846014412
 11
-721.2852858507894
 21
-1249.302761845409
  0
LINE
  8
ValleyLine
  6
CONTINUOUS
 62
5
 10
171.59090909090924
 20
-1385.316846014412
 11
328.409090909091
 21
-1673.9800516381833
  0
LINE
  8
MountainLine
  6
CONTINUOUS
 62
1
 10
485.70198152512666
 20
-1385.316846014412
 11
647.4409621702299
 21
-1673.9800516381833
  0
LINE
  8
ValleyLine
  6
CONTINUOUS
 62
5
 10
-171.5909090909089
 20
-1385.316846014412
 11
-328.4090909090906
 21
-1673.9800516381833
  0
LINE
  8
MountainLine
  6
CONTINUOUS
 62
1
 10
-485.70198152512626
 20
-1385.316846014412
 11
-647.4409621702296
 21
-1673.9800516381833
  0
LINE
  8
ValleyLine
  6
CONTINUOUS
 62
5
 10
328.409090909091
 20
-1673.9800516381833
 11
-328.4090909090906
 21
-1673.9800516381833
  0
LINE
  8
MountainLine
  6
CONTINUOUS
 62
1
 10
328.409090909091
 20
-1673.9800516381833
 11
647.4409621702299
 21
-1673.9800516381833
  0
LINE
  8
ValleyLine
  6
CONTINUOUS
 62
5
 10
647.4409621702299
 20
-1673.9800516381833
 11
886.7148656160841
 21
-1535.8351990736667
  0
LINE
  8
MountainLine
  6
CONTINUOUS
 62
1
 10
-328.4090909090906
 20
-1673.9800516381833
 11
-647.4409621702296
 21
-1673.9800516381833
  0
LINE
  8
ValleyLine
  6
CONTINUOUS
 62
5
 10
-647.4409621702296
 20
-1673.9800516381833
 11
-886.7148656160838
 21
-1535.8351990736671
  0
LINE
  8
ValleyLine
  6
CONTINUOUS
 62
5
 10
328.409090909091
 20
-1673.9800516381833
 11
328.409090909091
 21
-1673.9800516381833
  0
LINE
  8
MountainLine
  6
CONTINUOUS
 62
1
 10
647.4409621702299
 20
-1673.9800516381833
 11
647.4409621702299
 21
-1673.9800516381833
  0
LINE
  8
ValleyLine
  6
CONTINUOUS
 62
5
 10
-328.4090909090906
 20
-1673.9800516381833
 11
-328.4090909090906
 21
-1673.9800516381833
  0
LINE
  8
MountainLine
  6
CONTINUOUS
 62
1
 10
-647.4409621702296
 20
-1673.9800516381833
 11
-647.4409621702296
 21
-1673.9800516381833
  0
LINE
  8
ValleyLine
  6
CONTINUOUS
 62
5
 10
328.409090909091
 20
-1673.9800516381833
 11
-328.4090909090906
 21
-1673.9800516381833
  0
LINE
  8
MountainLine
  6
CONTINUOUS
 62
1
 10
328.409090909091
 20
-1673.9800516381833
 11
647.4409621702299
 21
-1673.9800516381833
  0
LINE
  8
ValleyLine
  6
CONTINUOUS
 62
5
 10
647.4409621702299
 20
-1673.9800516381833
 11
886.7148656160841
 21
-1535.8351990736667
  0
LINE
  8
MountainLine
  6
CONTINUOUS
 62
1
 10
-328.4090909090906
 20
-1673.9800516381833
 11
-647.4409621702296
 21
-1673.9800516381833
  0
LINE
  8
ValleyLine
  6
CONTINUOUS
 62
5
 10
-647.4409621702296
 20
-1673.9800516381833
 11
-886.7148656160838
 21
-1535.8351990736671
  0
LINE
  8
ValleyLine
  6
CONTINUOUS
 62
5
 10
328.409090909091
 20
-1673.9800516381833
 11
209.0909090909093
 21
-1894.619032594304
  0
LINE
  8
MountainLine
  6
CONTINUOUS
 62
1
 10
647.4409621702299
 20
-1673.9800516381833
 11
651.4748587855097
 21
-1894.619032594304
  0
LINE
  8
ValleyLine
  6
CONTINUOUS
 62
5
 10
-328.4090909090906
 20
-1673.9800516381833
 11
-209.0909090909088
 21
-1894.619032594304
  0
LINE
  8
MountainLine
  6
CONTINUOUS
 62
1
 10
-647.4409621702296
 20
-1673.9800516381833
 11
-651.4748587855092
 21
-1894.619032594304
  0
LINE
  8
ValleyLine
  6
CONTINUOUS
 62
5
 10
209.0909090909093
 20
-1894.619032594304
 11
-209.0909090909088
 21
-1894.619032594304
  0
LINE
  8
MountainLine
  6
CONTINUOUS
 62
1
 10
209.0909090909093
 20
-1894.619032594304
 11
651.4748587855097
 21
-1894.619032594304
  0
LINE
  8
ValleyLine
  6
CONTINUOUS
 62
5
 10
651.4748587855097
 20
-1894.619032594304
 11
983.26282105646
 21
-1703.061163263293
  0
LINE
  8
MountainLine
  6
CONTINUOUS
 62
1
 10
-209.0909090909088
 20
-1894.619032594304
 11
-651.4748587855092
 21
-1894.619032594304
  0
LINE
  8
ValleyLine
  6
CONTINUOUS
 62
5
 10
-651.4748587855092
 20
-1894.619032594304
 11
-983.2628210564596
 21
-1703.0611632632936
  0
LINE
  8
ValleyLine
  6
CONTINUOUS
 62
5
 10
209.0909090909093
 20
-1894.619032594304
 11
209.0909090909093
 21
-1894.619032594304
  0
LINE
  8
MountainLine
  6
CONTINUOUS
 62
1
 10
651.4748587855097
 20
-1894.619032594304
 11
651.4748587855097
 21
-1894.619032594304
  0
LINE
  8
ValleyLine
  6
CONTINUOUS
 62
5
 10
-209.0909090909088
 20
-1894.619032594304
 11
-209.0909090909088
 21
-1894.619032594304
  0
LINE
  8
MountainLine
  6
CONTINUOUS
 62
1
 10
-651.4748587855092
 20
-1894.619032594304
 11
-651.4748587855092
 21
-1894.619032594304
  0
LINE
  8
ValleyLine
  6
CONTINUOUS
 62
5
 10
209.0909090909093
 20
-1894.619032594304
 11
-209.0909090909088
 21
-1894.619032594304
  0
LINE
  8
MountainLine
  6
CONTINUOUS
 62
1
 10
209.0909090909093
 20
-1894.619032594304
 11
651.4748587855097
 21
-1894.619032594304
  0
LINE
  8
ValleyLine
  6
CONTINUOUS
 62
5
 10
651.4748587855097
 20
-1894.619032594304
 11
983.26282105646
 21
-1703.061163263293
  0
LINE
  8
MountainLine
  6
CONTINUOUS
 62
1
 10
-209.0909090909088
 20
-1894.619032594304
 11
-651.4748587855092
 21
-1894.619032594304
  0
LINE
  8
ValleyLine
  6
CONTINUOUS
 62
5
 10
-651.4748587855092
 20
-1894.619032594304
 11
-983.2628210564596
 21
-1703.0611632632936
  0
LINE
  8
ValleyLine
  6
CONTINUOUS
 62
5
 10
209.0909090909093
 20
-1894.619032594304
 11
311.3636363636365
 21
-2086.983614135202
  0
LINE
  8
MountainLine
  6
CONTINUOUS
 62
1
 10
651.4748587855097
 20
-1894.619032594304
 11
758.1420938894669
 21
-2086.983614135202
  0
LINE
  8
ValleyLine
  6
CONTINUOUS
 62
5
 10
-209.0909090909088
 20
-1894.619032594304
 11
-311.36363636363603
 21
-2086.983614135202
  0
LINE
  8
MountainLine
  6
CONTINUOUS
 62
1
 10
-651.4748587855092
 20
-1894.619032594304
 11
-758.1420938894663
 21
-2086.983614135202
  0
LINE
  8
MountainLine
  6
CONTINUOUS
 62
1
 10
311.3636363636365
 20
-2086.983614135202
 11
-311.36363636363603
 21
-2086.983614135202
  0
LINE
  8
ValleyLine
  6
CONTINUOUS
 62
5
 10
311.3636363636365
 20
-2086.983614135202
 11
758.1420938894669
 21
-2086.983614135202
  0
LINE
  8
MountainLine
  6
CONTINUOUS
 62
1
 10
758.1420938894669
 20
-2086.983614135202
 11
1093.2259370338395
 21
-1893.522867094704
  0
LINE
  8
ValleyLine
  6
CONTINUOUS
 62
5
 10
-311.36363636363603
 20
-2086.983614135202
 11
-758.1420938894663
 21
-2086.983614135202
  0
LINE
  8
MountainLine
  6
CONTINUOUS
 62
1
 10
-758.1420938894663
 20
-2086.983614135202
 11
-1093.225937033839
 21
-1893.522867094704
  0
LINE
  8
ValleyLine
  6
CONTINUOUS
 62
5
 10
311.3636363636365
 20
-2086.983614135202
 11
189.7727272727275
 21
-2308.3471338290296
  0
LINE
  8
MountainLine
  6
CONTINUOUS
 62
1
 10
758.1420938894669
 20
-2086.983614135202
 11
761.2487831860096
 21
-2308.3471338290296
  0
LINE
  8
ValleyLine
  6
CONTINUOUS
 62
5
 10
-311.36363636363603
 20
-2086.983614135202
 11
-189.77272727272694
 21
-2308.3471338290296
  0
LINE
  8
MountainLine
  6
CONTINUOUS
 62
1
 10
-758.1420938894663
 20
-2086.983614135202
 11
-761.2487831860091
 21
-2308.3471338290296
  0
LINE
  8
MountainLine
  6
CONTINUOUS
 62
1
 10
189.7727272727275
 20
-2308.3471338290296
 11
-189.77272727272694
 21
-2308.3471338290296
  0
LINE
  8
ValleyLine
  6
CONTINUOUS
 62
5
 10
189.7727272727275
 20
-2308.3471338290296
 11
761.2487831860096
 21
-2308.3471338290296
  0
LINE
  8
MountainLine
  6
CONTINUOUS
 62
1
 10
761.2487831860096
 20
-2308.3471338290296
 11
1189.8558251209713
 21
-2060.8907427913105
  0
LINE
  8
ValleyLine
  6
CONTINUOUS
 62
5
 10
-189.77272727272694
 20
-2308.3471338290296
 11
-761.2487831860091
 21
-2308.3471338290296
  0
LINE
  8
MountainLine
  6
CONTINUOUS
 62
1
 10
-761.2487831860091
 20
-2308.3471338290296
 11
-1189.8558251209708
 21
-2060.8907427913105
  0
LINE
  8
ValleyLine
  6
CONTINUOUS
 62
5
 10
189.7727272727275
 20
-2308.3471338290296
 11
-1.1363636363633127
 21
-2639.393870935379
  0
LINE
  8
MountainLine
  6
CONTINUOUS
 62
1
 10
761.2487831860096
 20
-2308.3471338290296
 11
761.3591991228132
 21
-2639.393870935379
  0
LINE
  8
ValleyLine
  6
CONTINUOUS
 62
5
 10
-189.77272727272694
 20
-2308.3471338290296
 11
1.1363636363639593
 21
-2639.393870935379
  0
LINE
  8
MountainLine
  6
CONTINUOUS
 62
1
 10
-761.2487831860091
 20
-2308.3471338290296
 11
-761.3591991228125
 21
-2639.393870935379
  0
LINE
  8
CutLine
  6
CONTINUOUS
 62
250
 10
-1.1363636363633127
 20
-2639.393870935379
 11
1.1363636363639593
 21
-2639.393870935379
  0
LINE
  8
CutLine
  6
CONTINUOUS
 62
250
 10
-1.1363636363633127
 20
-2639.393870935379
 11
761.3591991228132
 21
-2639.393870935379
  0
LINE
  8
CutLine
  6
CONTINUOUS
 62
250
 10
761.3591991228132
 20
-2639.393870935379
 11
1333.2308711921953
 21
-2309.2236071241996
  0
LINE
  8
CutLine
  6
CONTINUOUS
 62
250
 10
1.1363636363639593
 20
-2639.393870935379
 11
-761.3591991228125
 21
-2639.393870935379
  0
LINE
  8
CutLine
  6
CONTINUOUS
 62
250
 10
-761.3591991228125
 20
-2639.393870935379
 11
-1333.230871192195
 21
-2309.2236071241996
  0
LINE
  8
ValleyLine
  6
CONTINUOUS
 62
5
 10
0.0
 20
0.0
 11
-54.58632036249492
 21
-87.93829397161652
  0
LINE
  8
MountainLine
  6
CONTINUOUS
 62
1
 10
0.0
 20
0.0
 11
-53.632539696018476
 21
-89.5902905452306
  0
LINE
  8
ValleyLine
  6
CONTINUOUS
 62
5
 10
0.0
 20
-0.0
 11
-103.4499567261313
 21
-3.3039931472282213
  0
LINE
  8
MountainLine
  6
CONTINUOUS
 62
1
 10
0.0
 20
-0.0
 11
-104.40373739260774
 21
-1.6519965736141349
  0
LINE
  8
MountainLine
  6
CONTINUOUS
 62
1
 10
-54.58632036249492
 20
-87.93829397161652
 11
-103.4499567261313
 21
-3.3039931472282213
  0
LINE
  8
ValleyLine
  6
CONTINUOUS
 62
5
 10
-54.58632036249492
 20
-87.93829397161652
 11
-53.632539696018476
 21
-89.5902905452306
  0
LINE
  8
MountainLine
  6
CONTINUOUS
 62
1
 10
-53.632539696018476
 20
-89.5902905452306
 11
-52.201868696303826
 21
-90.41628883203764
  0
LINE
  8
ValleyLine
  6
CONTINUOUS
 62
5
 10
-103.4499567261313
 20
-3.3039931472282213
 11
-104.40373739260774
 21
-1.6519965736141349
  0
LINE
  8
MountainLine
  6
CONTINUOUS
 62
1
 10
-104.40373739260774
 20
-1.6519965736141349
 11
-104.40373739260774
 21
-4.8446095620006826E-14
  0
LINE
  8
ValleyLine
  6
CONTINUOUS
 62
5
 10
-54.58632036249492
 20
-87.93829397161652
 11
-130.33357415805125
 21
-117.23723461111527
  0
LINE
  8
MountainLine
  6
CONTINUOUS
 62
1
 10
-53.632539696018476
 20
-89.5902905452306
 11
-114.67191785898208
 21
-144.36401905178417
  0
LINE
  8
ValleyLine
  6
CONTINUOUS
 62
5
 10
-103.4499567261313
 20
-3.3039931472282213
 11
-166.69721052168762
 21
-54.253568881337934
  0
LINE
  8
MountainLine
  6
CONTINUOUS
 62
1
 10
-104.40373739260774
 20
-1.6519965736141349
 11
-182.35886682075682
 21
-27.12678444066902
  0
LINE
  8
ValleyLine
  6
CONTINUOUS
 62
5
 10
-130.33357415805125
 20
-117.23723461111527
 11
-166.69721052168762
 21
-54.253568881337934
  0
LINE
  8
MountainLine
  6
CONTINUOUS
 62
1
 10
-130.33357415805125
 20
-117.23723461111527
 11
-114.67191785898208
 21
-144.36401905178417
  0
LINE
  8
ValleyLine
  6
CONTINUOUS
 62
5
 10
-114.67191785898208
 20
-144.36401905178417
 11
-91.17943341037835
 21
-157.92741127211863
  0
LINE
  8
MountainLine
  6
CONTINUOUS
 62
1
 10
-166.69721052168762
 20
-54.253568881337934
 11
-182.35886682075682
 21
-27.12678444066902
  0
LINE
  8
ValleyLine
  6
CONTINUOUS
 62
5
 10
-182.35886682075682
 20
-27.12678444066902
 11
-182.35886682075682
 21
-9.689219124001365E-14
  0
LINE
  8
ValleyLine
  6
CONTINUOUS
 62
5
 10
-130.33357415805125
 20
-117.23723461111527
 11
-200.038146982858
 21
-236.21077065748705
  0
LINE
  8
MountainLine
  6
CONTINUOUS
 62
1
 10
-114.67191785898208
 20
-144.36401905178417
 11
-184.12269824329073
 21
-263.7771364996756
  0
LINE
  8
ValleyLine
  6
CONTINUOUS
 62
5
 10
-166.69721052168762
 20
-54.253568881337934
 11
-304.5836015283126
 21
-55.13273168437723
  0
LINE
  8
MountainLine
  6
CONTINUOUS
 62
1
 10
-182.35886682075682
 20
-27.12678444066902
 11
-320.49905026787985
 21
-27.566365842188695
  0
LINE
  8
MountainLine
  6
CONTINUOUS
 62
1
 10
-200.038146982858
 20
-236.21077065748705
 11
-304.5836015283126
 21
-55.13273168437723
  0
LINE
  8
ValleyLine
  6
CONTINUOUS
 62
5
 10
-200.038146982858
 20
-236.21077065748705
 11
-184.12269824329073
 21
-263.7771364996756
  0
LINE
  8
MountainLine
  6
CONTINUOUS
 62
1
 10
-184.12269824329073
 20
-263.7771364996756
 11
-160.24952513393984
 21
-277.5603194207699
  0
LINE
  8
ValleyLine
  6
CONTINUOUS
 62
5
 10
-304.5836015283126
 20
-55.13273168437723
 11
-320.49905026787985
 21
-27.566365842188695
  0
LINE
  8
MountainLine
  6
CONTINUOUS
 62
1
 10
-320.49905026787985
 20
-27.566365842188695
 11
-320.4990502678799
 21
-1.4533828686002048E-13
  0
LINE
  8
ValleyLine
  6
CONTINUOUS
 62
5
 10
-200.038146982858
 20
-236.21077065748705
 11
-339.48649570875534
 21
-302.2875556026921
  0
LINE
  8
MountainLine
  6
CONTINUOUS
 62
1
 10
-184.12269824329073
 20
-263.7771364996756
 11
-298.2463221815385
 21
-373.7176314647887
  0
LINE
  8
ValleyLine
  6
CONTINUOUS
 62
5
 10
-304.5836015283126
 20
-55.13273168437723
 11
-431.53195025421
 21
-142.8601517241933
  0
LINE
  8
MountainLine
  6
CONTINUOUS
 62
1
 10
-320.49905026787985
 20
-27.566365842188695
 11
-472.77212378142684
 21
-71.43007586209676
  0
LINE
  8
ValleyLine
  6
CONTINUOUS
 62
5
 10
-339.48649570875534
 20
-302.2875556026921
 11
-431.53195025421
 21
-142.8601517241933
  0
LINE
  8
MountainLine
  6
CONTINUOUS
 62
1
 10
-339.48649570875534
 20
-302.2875556026921
 11
-298.2463221815385
 21
-373.7176314647887
  0
LINE
  8
ValleyLine
  6
CONTINUOUS
 62
5
 10
-298.2463221815385
 20
-373.7176314647887
 11
-236.38606189071328
 21
-409.43266939583697
  0
LINE
  8
MountainLine
  6
CONTINUOUS
 62
1
 10
-431.53195025421
 20
-142.8601517241933
 11
-472.77212378142684
 21
-71.43007586209676
  0
LINE
  8
ValleyLine
  6
CONTINUOUS
 62
5
 10
-472.77212378142684
 20
-71.43007586209676
 11
-472.77212378142684
 21
-2.1800743029003073E-13
  0
LINE
  8
ValleyLine
  6
CONTINUOUS
 62
5
 10
-339.48649570875534
 20
-302.2875556026921
 11
-409.26936196897145
 21
-422.618454087777
  0
LINE
  8
MountainLine
  6
CONTINUOUS
 62
1
 10
-298.2463221815385
 20
-373.7176314647887
 11
-367.95174103474886
 21
-494.1826727937219
  0
LINE
  8
ValleyLine
  6
CONTINUOUS
 62
5
 10
-431.53195025421
 20
-142.8601517241933
 11
-570.6329983326079
 21
-143.1284374118901
  0
LINE
  8
MountainLine
  6
CONTINUOUS
 62
1
 10
-472.77212378142684
 20
-71.43007586209676
 11
-611.9506192668305
 21
-71.5642187059452
  0
LINE
  8
MountainLine
  6
CONTINUOUS
 62
1
 10
-409.26936196897145
 20
-422.618454087777
 11
-570.6329983326079
 21
-143.1284374118901
  0
LINE
  8
ValleyLine
  6
CONTINUOUS
 62
5
 10
-409.26936196897145
 20
-422.618454087777
 11
-367.95174103474886
 21
-494.1826727937219
  0
LINE
  8
MountainLine
  6
CONTINUOUS
 62
1
 10
-367.95174103474886
 20
-494.1826727937219
 11
-305.9753096334151
 21
-529.9647821466945
  0
LINE
  8
ValleyLine
  6
CONTINUOUS
 62
5
 10
-570.6329983326079
 20
-143.1284374118901
 11
-611.9506192668305
 21
-71.5642187059452
  0
LINE
  8
MountainLine
  6
CONTINUOUS
 62
1
 10
-611.9506192668305
 20
-71.5642187059452
 11
-611.9506192668307
 21
-3.3912266934004776E-13
  0
LINE
  8
ValleyLine
  6
CONTINUOUS
 62
5
 10
-409.26936196897145
 20
-422.618454087777
 11
-567.5742283816949
 21
-451.0321455954134
  0
LINE
  8
MountainLine
  6
CONTINUOUS
 62
1
 10
-367.95174103474886
 20
-494.1826727937219
 11
-490.7815539544426
 21
-584.0409593525094
  0
LINE
  8
ValleyLine
  6
CONTINUOUS
 62
5
 10
-570.6329983326079
 20
-143.1284374118901
 11
-674.3924101998768
 21
-266.01762751419244
  0
LINE
  8
MountainLine
  6
CONTINUOUS
 62
1
 10
-611.9506192668305
 20
-71.5642187059452
 11
-751.1850846271291
 21
-133.00881375709642
  0
LINE
  8
ValleyLine
  6
CONTINUOUS
 62
5
 10
-567.5742283816949
 20
-451.0321455954134
 11
-674.3924101998768
 21
-266.01762751419244
  0
LINE
  8
MountainLine
  6
CONTINUOUS
 62
1
 10
-567.5742283816949
 20
-451.0321455954134
 11
-490.7815539544426
 21
-584.0409593525094
  0
LINE
  8
ValleyLine
  6
CONTINUOUS
 62
5
 10
-490.7815539544426
 20
-584.0409593525094
 11
-375.5925423135643
 21
-650.5453662310574
  0
LINE
  8
MountainLine
  6
CONTINUOUS
 62
1
 10
-674.3924101998768
 20
-266.01762751419244
 11
-751.1850846271291
 21
-133.00881375709642
  0
LINE
  8
ValleyLine
  6
CONTINUOUS
 62
5
 10
-751.1850846271291
 20
-133.00881375709642
 11
-751.1850846271292
 21
-3.3912266934004776E-13
  0
LINE
  8
ValleyLine
  6
CONTINUOUS
 62
5
 10
-567.5742283816949
 20
-451.0321455954134
 11
-669.3481786110931
 21
-623.9492572920695
  0
LINE
  8
MountainLine
  6
CONTINUOUS
 62
1
 10
-490.7815539544426
 20
-584.0409593525094
 11
-592.0704518728805
 21
-757.7982062960775
  0
LINE
  8
ValleyLine
  6
CONTINUOUS
 62
5
 10
-674.3924101998768
 20
-266.01762751419244
 11
-875.0299967929114
 21
-267.6978980080165
  0
LINE
  8
MountainLine
  6
CONTINUOUS
 62
1
 10
-751.1850846271291
 20
-133.00881375709642
 11
-952.3077235311241
 21
-133.8489490040085
  0
LINE
  8
MountainLine
  6
CONTINUOUS
 62
1
 10
-669.3481786110931
 20
-623.9492572920695
 11
-875.0299967929114
 21
-267.6978980080165
  0
LINE
  8
ValleyLine
  6
CONTINUOUS
 62
5
 10
-669.3481786110931
 20
-623.9492572920695
 11
-592.0704518728805
 21
-757.7982062960775
  0
LINE
  8
MountainLine
  6
CONTINUOUS
 62
1
 10
-592.0704518728805
 20
-757.7982062960775
 11
-476.15386176556166
 21
-824.7226807980816
  0
LINE
  8
ValleyLine
  6
CONTINUOUS
 62
5
 10
-875.0299967929114
 20
-267.6978980080165
 11
-952.3077235311241
 21
-133.8489490040085
  0
LINE
  8
MountainLine
  6
CONTINUOUS
 62
1
 10
-952.3077235311241
 20
-133.8489490040085
 11
-952.3077235311241
 21
-4.3601486058006145E-13
  0
LINE
  8
ValleyLine
  6
CONTINUOUS
 62
5
 10
-669.3481786110931
 20
-623.9492572920695
 11
-830.9447112258462
 21
-651.6390737621227
  0
LINE
  8
MountainLine
  6
CONTINUOUS
 62
1
 10
-592.0704518728805
 20
-757.7982062960775
 11
-717.2645320821445
 21
-848.5389198525457
  0
LINE
  8
ValleyLine
  6
CONTINUOUS
 62
5
 10
-875.0299967929114
 20
-267.6978980080165
 11
-979.8083475894828
 21
-393.7996921808468
  0
LINE
  8
MountainLine
  6
CONTINUOUS
 62
1
 10
-952.3077235311241
 20
-133.8489490040085
 11
-1093.4885267331845
 21
-196.8998460904237
  0
LINE
  8
ValleyLine
  6
CONTINUOUS
 62
5
 10
-830.9447112258462
 20
-651.6390737621227
 11
-979.8083475894828
 21
-393.7996921808468
  0
LINE
  8
MountainLine
  6
CONTINUOUS
 62
1
 10
-830.9447112258462
 20
-651.6390737621227
 11
-717.2645320821445
 21
-848.5389198525457
  0
LINE
  8
ValleyLine
  6
CONTINUOUS
 62
5
 10
-717.2645320821445
 20
-848.5389198525457
 11
-546.7442633665918
 21
-946.9888428977574
  0
LINE
  8
MountainLine
  6
CONTINUOUS
 62
1
 10
-979.8083475894828
 20
-393.7996921808468
 11
-1093.4885267331845
 21
-196.8998460904237
  0
LINE
  8
ValleyLine
  6
CONTINUOUS
 62
5
 10
-1093.4885267331845
 20
-196.8998460904237
 11
-1093.4885267331847
 21
-4.844609562000682E-13
  0
LINE
  8
ValleyLine
  6
CONTINUOUS
 62
5
 10
-830.9447112258462
 20
-651.6390737621227
 11
-932.0164948445786
 21
-822.8386296743912
  0
LINE
  8
MountainLine
  6
CONTINUOUS
 62
1
 10
-717.2645320821445
 20
-848.5389198525457
 11
-817.7788972189668
 21
-1020.7039528965602
  0
LINE
  8
ValleyLine
  6
CONTINUOUS
 62
5
 10
-979.8083475894828
 20
-393.7996921808468
 11
-1178.6074039354878
 21
-395.7306464443388
  0
LINE
  8
MountainLine
  6
CONTINUOUS
 62
1
 10
-1093.4885267331845
 20
-196.8998460904237
 11
-1292.8450015610995
 21
-197.86532322216976
  0
LINE
  8
MountainLine
  6
CONTINUOUS
 62
1
 10
-932.0164948445786
 20
-822.8386296743912
 11
-1178.6074039354878
 21
-395.7306464443388
  0
LINE
  8
ValleyLine
  6
CONTINUOUS
 62
5
 10
-932.0164948445786
 20
-822.8386296743912
 11
-817.7788972189668
 21
-1020.7039528965602
  0
LINE
  8
MountainLine
  6
CONTINUOUS
 62
1
 10
-817.7788972189668
 20
-1020.7039528965602
 11
-646.4225007805492
 21
-1119.6366145076447
  0
LINE
  8
ValleyLine
  6
CONTINUOUS
 62
5
 10
-1178.6074039354878
 20
-395.7306464443388
 11
-1292.8450015610995
 21
-197.86532322216976
  0
LINE
  8
MountainLine
  6
CONTINUOUS
 62
1
 10
-1292.8450015610995
 20
-197.86532322216976
 11
-1292.8450015610993
 21
-5.813531474400819E-13
  0
LINE
  8
ValleyLine
  6
CONTINUOUS
 62
5
 10
-932.0164948445786
 20
-822.8386296743912
 11
-1113.9241263935614
 21
-841.2605093384
  0
LINE
  8
MountainLine
  6
CONTINUOUS
 62
1
 10
-817.7788972189668
 20
-1020.7039528965602
 11
-956.8685901764526
 21
-1113.288677676406
  0
LINE
  8
ValleyLine
  6
CONTINUOUS
 62
5
 10
-1178.6074039354878
 20
-395.7306464443388
 11
-1285.5150354844704
 21
-544.0563366760132
  0
LINE
  8
MountainLine
  6
CONTINUOUS
 62
1
 10
-1292.8450015610995
 20
-197.86532322216976
 11
-1442.5705717015792
 21
-272.02816833800705
  0
LINE
  8
ValleyLine
  6
CONTINUOUS
 62
5
 10
-1113.9241263935614
 20
-841.2605093384
 11
-1285.5150354844704
 21
-544.0563366760132
  0
LINE
  8
MountainLine
  6
CONTINUOUS
 62
1
 10
-1113.9241263935614
 20
-841.2605093384
 11
-956.8685901764526
 21
-1113.288677676406
  0
LINE
  8
ValleyLine
  6
CONTINUOUS
 62
5
 10
-956.8685901764526
 20
-1113.288677676406
 11
-721.2852858507894
 21
-1249.3027618454093
  0
LINE
  8
MountainLine
  6
CONTINUOUS
 62
1
 10
-1285.5150354844704
 20
-544.0563366760132
 11
-1442.5705717015792
 21
-272.02816833800705
  0
LINE
  8
ValleyLine
  6
CONTINUOUS
 62
5
 10
-1442.5705717015792
 20
-272.02816833800705
 11
-1442.5705717015796
 21
-8.720297211601229E-13
  0
LINE
  8
ValleyLine
  6
CONTINUOUS
 62
5
 10
-1113.9241263935614
 20
-841.2605093384
 11
-1285.5047046925074
 21
-1121.4006413801183
  0
LINE
  8
MountainLine
  6
CONTINUOUS
 62
1
 10
-956.8685901764526
 20
-1113.288677676406
 11
-1125.9887690619378
 21
-1397.690346509151
  0
LINE
  8
ValleyLine
  6
CONTINUOUS
 62
5
 10
-1285.5150354844704
 20
-544.0563366760132
 11
-1613.9137956015984
 21
-552.5794102580667
  0
LINE
  8
MountainLine
  6
CONTINUOUS
 62
1
 10
-1442.5705717015792
 20
-272.02816833800705
 11
-1773.429731232168
 21
-276.2897051290339
  0
LINE
  8
ValleyLine
  6
CONTINUOUS
 62
5
 10
-1285.5047046925074
 20
-1121.4006413801183
 11
-1613.9137956015984
 21
-552.5794102580667
  0
LINE
  8
MountainLine
  6
CONTINUOUS
 62
1
 10
-1285.5047046925074
 20
-1121.4006413801183
 11
-1125.9887690619378
 21
-1397.690346509151
  0
LINE
  8
ValleyLine
  6
CONTINUOUS
 62
5
 10
-1125.9887690619378
 20
-1397.690346509151
 11
-886.7148656160834
 21
-1535.8351990736676
  0
LINE
  8
MountainLine
  6
CONTINUOUS
 62
1
 10
-1613.9137956015984
 20
-552.5794102580667
 11
-1773.429731232168
 21
-276.2897051290339
  0
LINE
  8
ValleyLine
  6
CONTINUOUS
 62
5
 10
-1773.429731232168
 20
-276.2897051290339
 11
-1773.4297312321683
 21
-8.720297211601229E-13
  0
LINE
  8
ValleyLine
  6
CONTINUOUS
 62
5
 10
-1285.5047046925074
 20
-1121.4006413801183
 11
-1285.5047046925074
 21
-1121.4006413801183
  0
LINE
  8
MountainLine
  6
CONTINUOUS
 62
1
 10
-1125.9887690619378
 20
-1397.690346509151
 11
-1125.9887690619378
 21
-1397.690346509151
  0
LINE
  8
ValleyLine
  6
CONTINUOUS
 62
5
 10
-1613.9137956015984
 20
-552.5794102580667
 11
-1613.9137956015984
 21
-552.5794102580667
  0
LINE
  8
MountainLine
  6
CONTINUOUS
 62
1
 10
-1773.429731232168
 20
-276.2897051290339
 11
-1773.429731232168
 21
-276.2897051290339
  0
LINE
  8
ValleyLine
  6
CONTINUOUS
 62
5
 10
-1285.5047046925074
 20
-1121.4006413801183
 11
-1613.9137956015984
 21
-552.5794102580667
  0
LINE
  8
MountainLine
  6
CONTINUOUS
 62
1
 10
-1285.5047046925074
 20
-1121.4006413801183
 11
-1125.9887690619378
 21
-1397.690346509151
  0
LINE
  8
ValleyLine
  6
CONTINUOUS
 62
5
 10
-1125.9887690619378
 20
-1397.690346509151
 11
-886.7148656160834
 21
-1535.8351990736676
  0
LINE
  8
MountainLine
  6
CONTINUOUS
 62
1
 10
-1613.9137956015984
 20
-552.5794102580667
 11
-1773.429731232168
 21
-276.2897051290339
  0
LINE
  8
ValleyLine
  6
CONTINUOUS
 62
5
 10
-1773.429731232168
 20
-276.2897051290339
 11
-1773.4297312321683
 21
-8.720297211601229E-13
  0
LINE
  8
ValleyLine
  6
CONTINUOUS
 62
5
 10
-1285.5047046925074
 20
-1121.4006413801183
 11
-1536.2427581747095
 21
-1128.3875552702625
  0
LINE
  8
MountainLine
  6
CONTINUOUS
 62
1
 10
-1125.9887690619378
 20
-1397.690346509151
 11
-1315.0507833274091
 21
-1511.5032939322834
  0
LINE
  8
ValleyLine
  6
CONTINUOUS
 62
5
 10
-1613.9137956015984
 20
-552.5794102580667
 11
-1745.3336672656187
 21
-766.2314773240429
  0
LINE
  8
MountainLine
  6
CONTINUOUS
 62
1
 10
-1773.429731232168
 20
-276.2897051290339
 11
-1966.5256421129193
 21
-383.11573866202184
  0
LINE
  8
ValleyLine
  6
CONTINUOUS
 62
5
 10
-1536.2427581747095
 20
-1128.3875552702625
 11
-1745.3336672656187
 21
-766.2314773240429
  0
LINE
  8
MountainLine
  6
CONTINUOUS
 62
1
 10
-1536.2427581747095
 20
-1128.3875552702625
 11
-1315.0507833274091
 21
-1511.5032939322834
  0
LINE
  8
ValleyLine
  6
CONTINUOUS
 62
5
 10
-1315.0507833274091
 20
-1511.5032939322834
 11
-983.2628210564587
 21
-1703.061163263294
  0
LINE
  8
MountainLine
  6
CONTINUOUS
 62
1
 10
-1745.3336672656187
 20
-766.2314773240429
 11
-1966.5256421129193
 21
-383.11573866202184
  0
LINE
  8
ValleyLine
  6
CONTINUOUS
 62
5
 10
-1966.5256421129193
 20
-383.11573866202184
 11
-1966.5256421129197
 21
-6.782453386800955E-13
  0
LINE
  8
ValleyLine
  6
CONTINUOUS
 62
5
 10
-1536.2427581747095
 20
-1128.3875552702625
 11
-1536.2427581747095
 21
-1128.3875552702625
  0
LINE
  8
MountainLine
  6
CONTINUOUS
 62
1
 10
-1315.0507833274091
 20
-1511.5032939322834
 11
-1315.0507833274091
 21
-1511.5032939322834
  0
LINE
  8
ValleyLine
  6
CONTINUOUS
 62
5
 10
-1745.3336672656187
 20
-766.2314773240429
 11
-1745.3336672656187
 21
-766.2314773240429
  0
LINE
  8
MountainLine
  6
CONTINUOUS
 62
1
 10
-1966.5256421129193
 20
-383.11573866202184
 11
-1966.5256421129193
 21
-383.11573866202184
  0
LINE
  8
ValleyLine
  6
CONTINUOUS
 62
5
 10
-1536.2427581747095
 20
-1128.3875552702625
 11
-1745.3336672656187
 21
-766.2314773240429
  0
LINE
  8
MountainLine
  6
CONTINUOUS
 62
1
 10
-1536.2427581747095
 20
-1128.3875552702625
 11
-1315.0507833274091
 21
-1511.5032939322834
  0
LINE
  8
ValleyLine
  6
CONTINUOUS
 62
5
 10
-1315.0507833274091
 20
-1511.5032939322834
 11
-983.2628210564587
 21
-1703.061163263294
  0
LINE
  8
MountainLine
  6
CONTINUOUS
 62
1
 10
-1745.3336672656187
 20
-766.2314773240429
 11
-1966.5256421129193
 21
-383.11573866202184
  0
LINE
  8
ValleyLine
  6
CONTINUOUS
 62
5
 10
-1966.5256421129193
 20
-383.11573866202184
 11
-1966.5256421129197
 21
-6.782453386800955E-13
  0
LINE
  8
ValleyLine
  6
CONTINUOUS
 62
5
 10
-1536.2427581747095
 20
-1128.3875552702625
 11
-1651.699008941127
 21
-1313.1406259732112
  0
LINE
  8
MountainLine
  6
CONTINUOUS
 62
1
 10
-1315.0507833274091
 20
-1511.5032939322834
 11
-1428.3097801782114
 21
-1700.0621200542068
  0
LINE
  8
ValleyLine
  6
CONTINUOUS
 62
5
 10
-1745.3336672656187
 20
-766.2314773240429
 11
-1963.0626453047637
 21
-773.8429881619928
  0
LINE
  8
MountainLine
  6
CONTINUOUS
 62
1
 10
-1966.5256421129193
 20
-383.11573866202184
 11
-2186.451874067679
 21
-386.92149408099704
  0
LINE
  8
MountainLine
  6
CONTINUOUS
 62
1
 10
-1651.699008941127
 20
-1313.1406259732112
 11
-1963.0626453047637
 21
-773.8429881619928
  0
LINE
  8
ValleyLine
  6
CONTINUOUS
 62
5
 10
-1651.699008941127
 20
-1313.1406259732112
 11
-1428.3097801782114
 21
-1700.0621200542068
  0
LINE
  8
MountainLine
  6
CONTINUOUS
 62
1
 10
-1428.3097801782114
 20
-1700.0621200542068
 11
-1093.2259370338384
 21
-1893.5228670947045
  0
LINE
  8
ValleyLine
  6
CONTINUOUS
 62
5
 10
-1963.0626453047637
 20
-773.8429881619928
 11
-2186.451874067679
 21
-386.92149408099704
  0
LINE
  8
MountainLine
  6
CONTINUOUS
 62
1
 10
-2186.451874067679
 20
-386.92149408099704
 11
-2186.451874067679
 21
-1.1627062948801639E-12
  0
LINE
  8
ValleyLine
  6
CONTINUOUS
 62
5
 10
-1651.699008941127
 20
-1313.1406259732112
 11
-1904.2008950125728
 21
-1318.5215696781536
  0
LINE
  8
MountainLine
  6
CONTINUOUS
 62
1
 10
-1428.3097801782114
 20
-1700.0621200542068
 11
-1618.4628670559314
 21
-1813.434351753592
  0
LINE
  8
ValleyLine
  6
CONTINUOUS
 62
5
 10
-1963.0626453047637
 20
-773.8429881619928
 11
-2093.9736222853003
 21
-989.825564150878
  0
LINE
  8
MountainLine
  6
CONTINUOUS
 62
1
 10
-2186.451874067679
 20
-386.92149408099704
 11
-2379.7116502419417
 21
-494.91278207543957
  0
LINE
  8
MountainLine
  6
CONTINUOUS
 62
1
 10
-1904.2008950125728
 20
-1318.5215696781536
 11
-2093.9736222853003
 21
-989.825564150878
  0
LINE
  8
ValleyLine
  6
CONTINUOUS
 62
5
 10
-1904.2008950125728
 20
-1318.5215696781536
 11
-1618.4628670559314
 21
-1813.434351753592
  0
LINE
  8
MountainLine
  6
CONTINUOUS
 62
1
 10
-1618.4628670559314
 20
-1813.434351753592
 11
-1189.85582512097
 21
-2060.890742791311
  0
LINE
  8
ValleyLine
  6
CONTINUOUS
 62
5
 10
-2093.9736222853003
 20
-989.825564150878
 11
-2379.7116502419417
 21
-494.91278207543957
  0
LINE
  8
MountainLine
  6
CONTINUOUS
 62
1
 10
-2379.7116502419417
 20
-494.91278207543957
 11
-2379.711650241942
 21
-9.689219124001365E-13
  0
LINE
  8
ValleyLine
  6
CONTINUOUS
 62
5
 10
-1904.2008950125728
 20
-1318.5215696781536
 11
-2286.3503246411656
 21
-1318.7128156906629
  0
LINE
  8
MountainLine
  6
CONTINUOUS
 62
1
 10
-1618.4628670559314
 20
-1813.434351753592
 11
-1905.1025432615772
 21
-1979.0533433130215
  0
LINE
  8
ValleyLine
  6
CONTINUOUS
 62
5
 10
-2093.9736222853003
 20
-989.825564150878
 11
-2285.213961004802
 21
-1320.6810552447184
  0
LINE
  8
MountainLine
  6
CONTINUOUS
 62
1
 10
-2379.7116502419417
 20
-494.91278207543957
 11
-2666.4617423843906
 21
-660.34052762236
  0
LINE
  8
CutLine
  6
CONTINUOUS
 62
250
 10
-2286.3503246411656
 20
-1318.7128156906629
 11
-2285.213961004802
 21
-1320.6810552447184
  0
LINE
  8
CutLine
  6
CONTINUOUS
 62
250
 10
-2286.3503246411656
 20
-1318.7128156906629
 11
-1905.1025432615772
 21
-1979.0533433130215
  0
LINE
  8
CutLine
  6
CONTINUOUS
 62
250
 10
-1905.1025432615772
 20
-1979.0533433130215
 11
-1333.2308711921944
 21
-2309.2236071242005
  0
LINE
  8
CutLine
  6
CONTINUOUS
 62
250
 10
-2285.213961004802
 20
-1320.6810552447184
 11
-2666.4617423843906
 21
-660.34052762236
  0
LINE
  8
CutLine
  6
CONTINUOUS
 62
250
 10
-2666.4617423843906
 20
-660.34052762236
 11
-2666.4617423843906
 21
-1.1627062948801639E-12
  0
LINE
  8
ValleyLine
  6
CONTINUOUS
 62
5
 10
0.0
 20
-0.0
 11
-103.4499567261313
 21
3.303993147228185
  0
LINE
  8
MountainLine
  6
CONTINUOUS
 62
1
 10
0.0
 20
-0.0
 11
-104.40373739260772
 21
1.6519965736140985
  0
LINE
  8
ValleyLine
  6
CONTINUOUS
 62
5
 10
0.0
 20
-0.0
 11
-54.58632036249494
 21
87.93829397161649
  0
LINE
  8
MountainLine
  6
CONTINUOUS
 62
1
 10
0.0
 20
-0.0
 11
-53.632539696018505
 21
89.59029054523057
  0
LINE
  8
MountainLine
  6
CONTINUOUS
 62
1
 10
-103.4499567261313
 20
3.303993147228185
 11
-54.58632036249494
 21
87.93829397161649
  0
LINE
  8
ValleyLine
  6
CONTINUOUS
 62
5
 10
-103.4499567261313
 20
3.303993147228185
 11
-104.40373739260772
 21
1.6519965736140985
  0
LINE
  8
MountainLine
  6
CONTINUOUS
 62
1
 10
-104.40373739260772
 20
1.6519965736140985
 11
-104.40373739260772
 21
1.2111523905001706E-14
  0
LINE
  8
ValleyLine
  6
CONTINUOUS
 62
5
 10
-54.58632036249494
 20
87.93829397161649
 11
-53.632539696018505
 21
89.59029054523057
  0
LINE
  8
MountainLine
  6
CONTINUOUS
 62
1
 10
-53.632539696018505
 20
89.59029054523057
 11
-52.20186869630386
 21
90.41628883203762
  0
LINE
  8
ValleyLine
  6
CONTINUOUS
 62
5
 10
-103.4499567261313
 20
3.303993147228185
 11
-166.69721052168762
 21
54.25356888133788
  0
LINE
  8
MountainLine
  6
CONTINUOUS
 62
1
 10
-104.40373739260772
 20
1.6519965736140985
 11
-182.3588668207568
 21
27.12678444066896
  0
LINE
  8
ValleyLine
  6
CONTINUOUS
 62
5
 10
-54.58632036249494
 20
87.93829397161649
 11
-130.33357415805125
 21
117.23723461111521
  0
LINE
  8
MountainLine
  6
CONTINUOUS
 62
1
 10
-53.632539696018505
 20
89.59029054523057
 11
-114.67191785898211
 21
144.36401905178414
  0
LINE
  8
ValleyLine
  6
CONTINUOUS
 62
5
 10
-166.69721052168762
 20
54.25356888133788
 11
-130.33357415805125
 21
117.23723461111521
  0
LINE
  8
MountainLine
  6
CONTINUOUS
 62
1
 10
-166.69721052168762
 20
54.25356888133788
 11
-182.3588668207568
 21
27.12678444066896
  0
LINE
  8
ValleyLine
  6
CONTINUOUS
 62
5
 10
-182.3588668207568
 20
27.12678444066896
 11
-182.35886682075682
 21
2.4223047810003413E-14
  0
LINE
  8
MountainLine
  6
CONTINUOUS
 62
1
 10
-130.33357415805125
 20
117.23723461111521
 11
-114.67191785898211
 21
144.36401905178414
  0
LINE
  8
ValleyLine
  6
CONTINUOUS
 62
5
 10
-114.67191785898211
 20
144.36401905178414
 11
-91.1794334103784
 21
157.92741127211858
  0
LINE
  8
ValleyLine
  6
CONTINUOUS
 62
5
 10
-166.69721052168762
 20
54.25356888133788
 11
-304.5836015283126
 21
55.13273168437712
  0
LINE
  8
MountainLine
  6
CONTINUOUS
 62
1
 10
-182.3588668207568
 20
27.12678444066896
 11
-320.49905026787985
 21
27.566365842188596
  0
LINE
  8
ValleyLine
  6
CONTINUOUS
 62
5
 10
-130.33357415805125
 20
117.23723461111521
 11
-200.03814698285808
 21
236.21077065748696
  0
LINE
  8
MountainLine
  6
CONTINUOUS
 62
1
 10
-114.67191785898211
 20
144.36401905178414
 11
-184.12269824329084
 21
263.7771364996755
  0
LINE
  8
MountainLine
  6
CONTINUOUS
 62
1
 10
-304.5836015283126
 20
55.13273168437712
 11
-200.03814698285808
 21
236.21077065748696
  0
LINE
  8
ValleyLine
  6
CONTINUOUS
 62
5
 10
-304.5836015283126
 20
55.13273168437712
 11
-320.49905026787985
 21
27.566365842188596
  0
LINE
  8
MountainLine
  6
CONTINUOUS
 62
1
 10
-320.49905026787985
 20
27.566365842188596
 11
-320.49905026787985
 21
4.8446095620006826E-14
  0
LINE
  8
ValleyLine
  6
CONTINUOUS
 62
5
 10
-200.03814698285808
 20
236.21077065748696
 11
-184.12269824329084
 21
263.7771364996755
  0
LINE
  8
MountainLine
  6
CONTINUOUS
 62
1
 10
-184.12269824329084
 20
263.7771364996755
 11
-160.2495251339399
 21
277.56031942076976
  0
LINE
  8
ValleyLine
  6
CONTINUOUS
 62
5
 10
-304.5836015283126
 20
55.13273168437712
 11
-431.53195025421
 21
142.86015172419312
  0
LINE
  8
MountainLine
  6
CONTINUOUS
 62
1
 10
-320.49905026787985
 20
27.566365842188596
 11
-472.77212378142684
 21
71.43007586209661
  0
LINE
  8
ValleyLine
  6
CONTINUOUS
 62
5
 10
-200.03814698285808
 20
236.21077065748696
 11
-339.48649570875546
 21
302.28755560269207
  0
LINE
  8
MountainLine
  6
CONTINUOUS
 62
1
 10
-184.12269824329084
 20
263.7771364996755
 11
-298.2463221815386
 21
373.71763146478855
  0
LINE
  8
ValleyLine
  6
CONTINUOUS
 62
5
 10
-431.53195025421
 20
142.86015172419312
 11
-339.48649570875546
 21
302.28755560269207
  0
LINE
  8
MountainLine
  6
CONTINUOUS
 62
1
 10
-431.53195025421
 20
142.86015172419312
 11
-472.77212378142684
 21
71.43007586209661
  0
LINE
  8
ValleyLine
  6
CONTINUOUS
 62
5
 10
-472.77212378142684
 20
71.43007586209661
 11
-472.77212378142684
 21
4.8446095620006826E-14
  0
LINE
  8
MountainLine
  6
CONTINUOUS
 62
1
 10
-339.48649570875546
 20
302.28755560269207
 11
-298.2463221815386
 21
373.71763146478855
  0
LINE
  8
ValleyLine
  6
CONTINUOUS
 62
5
 10
-298.2463221815386
 20
373.71763146478855
 11
-236.3860618907134
 21
409.43266939583685
  0
LINE
  8
ValleyLine
  6
CONTINUOUS
 62
5
 10
-431.53195025421
 20
142.86015172419312
 11
-570.6329983326079
 21
143.1284374118899
  0
LINE
  8
MountainLine
  6
CONTINUOUS
 62
1
 10
-472.77212378142684
 20
71.43007586209661
 11
-611.9506192668306
 21
71.56421870594498
  0
LINE
  8
ValleyLine
  6
CONTINUOUS
 62
5
 10
-339.48649570875546
 20
302.28755560269207
 11
-409.26936196897157
 21
422.6184540877768
  0
LINE
  8
MountainLine
  6
CONTINUOUS
 62
1
 10
-298.2463221815386
 20
373.71763146478855
 11
-367.95174103474903
 21
494.18267279372174
  0
LINE
  8
MountainLine
  6
CONTINUOUS
 62
1
 10
-570.6329983326079
 20
143.1284374118899
 11
-409.26936196897157
 21
422.6184540877768
  0
LINE
  8
ValleyLine
  6
CONTINUOUS
 62
5
 10
-570.6329983326079
 20
143.1284374118899
 11
-611.9506192668306
 21
71.56421870594498
  0
LINE
  8
MountainLine
  6
CONTINUOUS
 62
1
 10
-611.9506192668306
 20
71.56421870594498
 11
-611.9506192668306
 21
9.689219124001365E-14
  0
LINE
  8
ValleyLine
  6
CONTINUOUS
 62
5
 10
-409.26936196897157
 20
422.6184540877768
 11
-367.95174103474903
 21
494.18267279372174
  0
LINE
  8
MountainLine
  6
CONTINUOUS
 62
1
 10
-367.95174103474903
 20
494.18267279372174
 11
-305.97530963341524
 21
529.9647821466942
  0
LINE
  8
ValleyLine
  6
CONTINUOUS
 62
5
 10
-570.6329983326079
 20
143.1284374118899
 11
-674.3924101998768
 21
266.0176275141922
  0
LINE
  8
MountainLine
  6
CONTINUOUS
 62
1
 10
-611.9506192668306
 20
71.56421870594498
 11
-751.1850846271291
 21
133.00881375709616
  0
LINE
  8
ValleyLine
  6
CONTINUOUS
 62
5
 10
-409.26936196897157
 20
422.6184540877768
 11
-567.5742283816951
 21
451.03214559541317
  0
LINE
  8
MountainLine
  6
CONTINUOUS
 62
1
 10
-367.95174103474903
 20
494.18267279372174
 11
-490.78155395444276
 21
584.0409593525092
  0
LINE
  8
ValleyLine
  6
CONTINUOUS
 62
5
 10
-674.3924101998768
 20
266.0176275141922
 11
-567.5742283816951
 21
451.03214559541317
  0
LINE
  8
MountainLine
  6
CONTINUOUS
 62
1
 10
-674.3924101998768
 20
266.0176275141922
 11
-751.1850846271291
 21
133.00881375709616
  0
LINE
  8
ValleyLine
  6
CONTINUOUS
 62
5
 10
-751.1850846271291
 20
133.00881375709616
 11
-751.1850846271291
 21
4.8446095620006826E-14
  0
LINE
  8
MountainLine
  6
CONTINUOUS
 62
1
 10
-567.5742283816951
 20
451.03214559541317
 11
-490.78155395444276
 21
584.0409593525092
  0
LINE
  8
ValleyLine
  6
CONTINUOUS
 62
5
 10
-490.78155395444276
 20
584.0409593525092
 11
-375.5925423135644
 21
650.5453662310572
  0
LINE
  8
ValleyLine
  6
CONTINUOUS
 62
5
 10
-674.3924101998768
 20
266.0176275141922
 11
-875.0299967929114
 21
267.69789800801624
  0
LINE
  8
MountainLine
  6
CONTINUOUS
 62
1
 10
-751.1850846271291
 20
133.00881375709616
 11
-952.3077235311241
 21
133.84894900400815
  0
LINE
  8
ValleyLine
  6
CONTINUOUS
 62
5
 10
-567.5742283816951
 20
451.03214559541317
 11
-669.3481786110932
 21
623.9492572920692
  0
LINE
  8
MountainLine
  6
CONTINUOUS
 62
1
 10
-490.78155395444276
 20
584.0409593525092
 11
-592.0704518728807
 21
757.7982062960773
  0
LINE
  8
MountainLine
  6
CONTINUOUS
 62
1
 10
-875.0299967929114
 20
267.69789800801624
 11
-669.3481786110932
 21
623.9492572920692
  0
LINE
  8
ValleyLine
  6
CONTINUOUS
 62
5
 10
-875.0299967929114
 20
267.69789800801624
 11
-952.3077235311241
 21
133.84894900400815
  0
LINE
  8
MountainLine
  6
CONTINUOUS
 62
1
 10
-952.3077235311241
 20
133.84894900400815
 11
-952.3077235311241
 21
9.689219124001365E-14
  0
LINE
  8
ValleyLine
  6
CONTINUOUS
 62
5
 10
-669.3481786110932
 20
623.9492572920692
 11
-592.0704518728807
 21
757.7982062960773
  0
LINE
  8
MountainLine
  6
CONTINUOUS
 62
1
 10
-592.0704518728807
 20
757.7982062960773
 11
-476.1538617655619
 21
824.7226807980813
  0
LINE
  8
ValleyLine
  6
CONTINUOUS
 62
5
 10
-875.0299967929114
 20
267.69789800801624
 11
-979.8083475894828
 21
393.79969218084636
  0
LINE
  8
MountainLine
  6
CONTINUOUS
 62
1
 10
-952.3077235311241
 20
133.84894900400815
 11
-1093.4885267331845
 21
196.89984609042327
  0
LINE
  8
ValleyLine
  6
CONTINUOUS
 62
5
 10
-669.3481786110932
 20
623.9492572920692
 11
-830.9447112258464
 21
651.6390737621224
  0
LINE
  8
MountainLine
  6
CONTINUOUS
 62
1
 10
-592.0704518728807
 20
757.7982062960773
 11
-717.2645320821447
 21
848.5389198525455
  0
LINE
  8
ValleyLine
  6
CONTINUOUS
 62
5
 10
-979.8083475894828
 20
393.79969218084636
 11
-830.9447112258464
 21
651.6390737621224
  0
LINE
  8
MountainLine
  6
CONTINUOUS
 62
1
 10
-979.8083475894828
 20
393.79969218084636
 11
-1093.4885267331845
 21
196.89984609042327
  0
LINE
  8
ValleyLine
  6
CONTINUOUS
 62
5
 10
-1093.4885267331845
 20
196.89984609042327
 11
-1093.4885267331845
 21
1.937843824800273E-13
  0
LINE
  8
MountainLine
  6
CONTINUOUS
 62
1
 10
-830.9447112258464
 20
651.6390737621224
 11
-717.2645320821447
 21
848.5389198525455
  0
LINE
  8
ValleyLine
  6
CONTINUOUS
 62
5
 10
-717.2645320821447
 20
848.5389198525455
 11
-546.7442633665922
 21
946.9888428977571
  0
LINE
  8
ValleyLine
  6
CONTINUOUS
 62
5
 10
-979.8083475894828
 20
393.79969218084636
 11
-1178.6074039354878
 21
395.7306464443382
  0
LINE
  8
MountainLine
  6
CONTINUOUS
 62
1
 10
-1093.4885267331845
 20
196.89984609042327
 11
-1292.8450015610993
 21
197.86532322216922
  0
LINE
  8
ValleyLine
  6
CONTINUOUS
 62
5
 10
-830.9447112258464
 20
651.6390737621224
 11
-932.0164948445786
 21
822.8386296743909
  0
LINE
  8
MountainLine
  6
CONTINUOUS
 62
1
 10
-717.2645320821447
 20
848.5389198525455
 11
-817.778897218967
 21
1020.7039528965598
  0
LINE
  8
MountainLine
  6
CONTINUOUS
 62
1
 10
-1178.6074039354878
 20
395.7306464443382
 11
-932.0164948445786
 21
822.8386296743909
  0
LINE
  8
ValleyLine
  6
CONTINUOUS
 62
5
 10
-1178.6074039354878
 20
395.7306464443382
 11
-1292.8450015610993
 21
197.86532322216922
  0
LINE
  8
MountainLine
  6
CONTINUOUS
 62
1
 10
-1292.8450015610993
 20
197.86532322216922
 11
-1292.8450015610993
 21
9.689219124001365E-14
  0
LINE
  8
ValleyLine
  6
CONTINUOUS
 62
5
 10
-932.0164948445786
 20
822.8386296743909
 11
-817.778897218967
 21
1020.7039528965598
  0
LINE
  8
MountainLine
  6
CONTINUOUS
 62
1
 10
-817.778897218967
 20
1020.7039528965598
 11
-646.4225007805495
 21
1119.6366145076445
  0
LINE
  8
ValleyLine
  6
CONTINUOUS
 62
5
 10
-1178.6074039354878
 20
395.7306464443382
 11
-1285.5150354844707
 21
544.0563366760128
  0
LINE
  8
MountainLine
  6
CONTINUOUS
 62
1
 10
-1292.8450015610993
 20
197.86532322216922
 11
-1442.5705717015794
 21
272.0281683380066
  0
LINE
  8
ValleyLine
  6
CONTINUOUS
 62
5
 10
-932.0164948445786
 20
822.8386296743909
 11
-1113.9241263935614
 21
841.2605093383995
  0
LINE
  8
MountainLine
  6
CONTINUOUS
 62
1
 10
-817.778897218967
 20
1020.7039528965598
 11
-956.8685901764528
 21
1113.2886776764058
  0
LINE
  8
ValleyLine
  6
CONTINUOUS
 62
5
 10
-1285.5150354844707
 20
544.0563366760128
 11
-1113.9241263935614
 21
841.2605093383995
  0
LINE
  8
MountainLine
  6
CONTINUOUS
 62
1
 10
-1285.5150354844707
 20
544.0563366760128
 11
-1442.5705717015794
 21
272.0281683380066
  0
LINE
  8
ValleyLine
  6
CONTINUOUS
 62
5
 10
-1442.5705717015794
 20
272.0281683380066
 11
-1442.5705717015794
 21
2.9067657372004097E-13
  0
LINE
  8
MountainLine
  6
CONTINUOUS
 62
1
 10
-1113.9241263935614
 20
841.2605093383995
 11
-956.8685901764528
 21
1113.2886776764058
  0
LINE
  8
ValleyLine
  6
CONTINUOUS
 62
5
 10
-956.8685901764528
 20
1113.2886776764058
 11
-721.2852858507898
 21
1249.302761845409
  0
LINE
  8
ValleyLine
  6
CONTINUOUS
 62
5
 10
-1285.5150354844707
 20
544.0563366760128
 11
-1613.9137956015986
 21
552.579410258066
  0
LINE
  8
MountainLine
  6
CONTINUOUS
 62
1
 10
-1442.5705717015794
 20
272.0281683380066
 11
-1773.429731232168
 21
276.2897051290332
  0
LINE
  8
ValleyLine
  6
CONTINUOUS
 62
5
 10
-1113.9241263935614
 20
841.2605093383995
 11
-1285.5047046925076
 21
1121.4006413801176
  0
LINE
  8
MountainLine
  6
CONTINUOUS
 62
1
 10
-956.8685901764528
 20
1113.2886776764058
 11
-1125.9887690619382
 21
1397.6903465091505
  0
LINE
  8
ValleyLine
  6
CONTINUOUS
 62
5
 10
-1613.9137956015986
 20
552.579410258066
 11
-1285.5047046925076
 21
1121.4006413801176
  0
LINE
  8
MountainLine
  6
CONTINUOUS
 62
1
 10
-1613.9137956015986
 20
552.579410258066
 11
-1773.429731232168
 21
276.2897051290332
  0
LINE
  8
ValleyLine
  6
CONTINUOUS
 62
5
 10
-1773.429731232168
 20
276.2897051290332
 11
-1773.4297312321683
 21
2.9067657372004097E-13
  0
LINE
  8
MountainLine
  6
CONTINUOUS
 62
1
 10
-1285.5047046925076
 20
1121.4006413801176
 11
-1125.9887690619382
 21
1397.6903465091505
  0
LINE
  8
ValleyLine
  6
CONTINUOUS
 62
5
 10
-1125.9887690619382
 20
1397.6903465091505
 11
-886.714865616084
 21
1535.8351990736671
  0
LINE
  8
ValleyLine
  6
CONTINUOUS
 62
5
 10
-1613.9137956015986
 20
552.579410258066
 11
-1613.9137956015986
 21
552.579410258066
  0
LINE
  8
MountainLine
  6
CONTINUOUS
 62
1
 10
-1773.429731232168
 20
276.2897051290332
 11
-1773.429731232168
 21
276.2897051290332
  0
LINE
  8
ValleyLine
  6
CONTINUOUS
 62
5
 10
-1285.5047046925076
 20
1121.4006413801176
 11
-1285.5047046925076
 21
1121.4006413801176
  0
LINE
  8
MountainLine
  6
CONTINUOUS
 62
1
 10
-1125.9887690619382
 20
1397.6903465091505
 11
-1125.9887690619382
 21
1397.6903465091505
  0
LINE
  8
ValleyLine
  6
CONTINUOUS
 62
5
 10
-1613.9137956015986
 20
552.579410258066
 11
-1285.5047046925076
 21
1121.4006413801176
  0
LINE
  8
MountainLine
  6
CONTINUOUS
 62
1
 10
-1613.9137956015986
 20
552.579410258066
 11
-1773.429731232168
 21
276.2897051290332
  0
LINE
  8
ValleyLine
  6
CONTINUOUS
 62
5
 10
-1773.429731232168
 20
276.2897051290332
 11
-1773.4297312321683
 21
2.9067657372004097E-13
  0
LINE
  8
MountainLine
  6
CONTINUOUS
 62
1
 10
-1285.5047046925076
 20
1121.4006413801176
 11
-1125.9887690619382
 21
1397.6903465091505
  0
LINE
  8
ValleyLine
  6
CONTINUOUS
 62
5
 10
-1125.9887690619382
 20
1397.6903465091505
 11
-886.714865616084
 21
1535.8351990736671
  0
LINE
  8
ValleyLine
  6
CONTINUOUS
 62
5
 10
-1613.9137956015986
 20
552.579410258066
 11
-1745.333667265619
 21
766.2314773240423
  0
LINE
  8
MountainLine
  6
CONTINUOUS
 62
1
 10
-1773.429731232168
 20
276.2897051290332
 11
-1966.5256421129193
 21
383.1157386620212
  0
LINE
  8
ValleyLine
  6
CONTINUOUS
 62
5
 10
-1285.5047046925076
 20
1121.4006413801176
 11
-1536.2427581747097
 21
1128.387555270262
  0
LINE
  8
MountainLine
  6
CONTINUOUS
 62
1
 10
-1125.9887690619382
 20
1397.6903465091505
 11
-1315.0507833274096
 21
1511.5032939322832
  0
LINE
  8
ValleyLine
  6
CONTINUOUS
 62
5
 10
-1745.333667265619
 20
766.2314773240423
 11
-1536.2427581747097
 21
1128.387555270262
  0
LINE
  8
MountainLine
  6
CONTINUOUS
 62
1
 10
-1745.333667265619
 20
766.2314773240423
 11
-1966.5256421129193
 21
383.1157386620212
  0
LINE
  8
ValleyLine
  6
CONTINUOUS
 62
5
 10
-1966.5256421129193
 20
383.1157386620212
 11
-1966.5256421129193
 21
-0.0
  0
LINE
  8
MountainLine
  6
CONTINUOUS
 62
1
 10
-1536.2427581747097
 20
1128.387555270262
 11
-1315.0507833274096
 21
1511.5032939322832
  0
LINE
  8
ValleyLine
  6
CONTINUOUS
 62
5
 10
-1315.0507833274096
 20
1511.5032939322832
 11
-983.2628210564594
 21
1703.0611632632938
  0
LINE
  8
ValleyLine
  6
CONTINUOUS
 62
5
 10
-1745.333667265619
 20
766.2314773240423
 11
-1745.333667265619
 21
766.2314773240423
  0
LINE
  8
MountainLine
  6
CONTINUOUS
 62
1
 10
-1966.5256421129193
 20
383.1157386620212
 11
-1966.5256421129193
 21
383.1157386620212
  0
LINE
  8
ValleyLine
  6
CONTINUOUS
 62
5
 10
-1536.2427581747097
 20
1128.387555270262
 11
-1536.2427581747097
 21
1128.387555270262
  0
LINE
  8
MountainLine
  6
CONTINUOUS
 62
1
 10
-1315.0507833274096
 20
1511.5032939322832
 11
-1315.0507833274096
 21
1511.5032939322832
  0
LINE
  8
ValleyLine
  6
CONTINUOUS
 62
5
 10
-1745.333667265619
 20
766.2314773240423
 11
-1536.2427581747097
 21
1128.387555270262
  0
LINE
  8
MountainLine
  6
CONTINUOUS
 62
1
 10
-1745.333667265619
 20
766.2314773240423
 11
-1966.5256421129193
 21
383.1157386620212
  0
LINE
  8
ValleyLine
  6
CONTINUOUS
 62
5
 10
-1966.5256421129193
 20
383.1157386620212
 11
-1966.5256421129193
 21
-0.0
  0
LINE
  8
MountainLine
  6
CONTINUOUS
 62
1
 10
-1536.2427581747097
 20
1128.387555270262
 11
-1315.0507833274096
 21
1511.5032939322832
  0
LINE
  8
ValleyLine
  6
CONTINUOUS
 62
5
 10
-1315.0507833274096
 20
1511.5032939322832
 11
-983.2628210564594
 21
1703.0611632632938
  0
LINE
  8
ValleyLine
  6
CONTINUOUS
 62
5
 10
-1745.333667265619
 20
766.2314773240423
 11
-1963.0626453047632
 21
773.842988161992
  0
LINE
  8
MountainLine
  6
CONTINUOUS
 62
1
 10
-1966.5256421129193
 20
383.1157386620212
 11
-2186.4518740676785
 21
386.9214940809962
  0
LINE
  8
ValleyLine
  6
CONTINUOUS
 62
5
 10
-1536.2427581747097
 20
1128.387555270262
 11
-1651.699008941127
 21
1313.1406259732105
  0
LINE
  8
MountainLine
  6
CONTINUOUS
 62
1
 10
-1315.0507833274096
 20
1511.5032939322832
 11
-1428.309780178212
 21
1700.0621200542064
  0
LINE
  8
MountainLine
  6
CONTINUOUS
 62
1
 10
-1963.0626453047632
 20
773.842988161992
 11
-1651.699008941127
 21
1313.1406259732105
  0
LINE
  8
ValleyLine
  6
CONTINUOUS
 62
5
 10
-1963.0626453047632
 20
773.842988161992
 11
-2186.4518740676785
 21
386.9214940809962
  0
LINE
  8
MountainLine
  6
CONTINUOUS
 62
1
 10
-2186.4518740676785
 20
386.9214940809962
 11
-2186.451874067679
 21
3.875687649600546E-13
  0
LINE
  8
ValleyLine
  6
CONTINUOUS
 62
5
 10
-1651.699008941127
 20
1313.1406259732105
 11
-1428.309780178212
 21
1700.0621200542064
  0
LINE
  8
MountainLine
  6
CONTINUOUS
 62
1
 10
-1428.309780178212
 20
1700.0621200542064
 11
-1093.2259370338393
 21
1893.522867094704
  0
LINE
  8
ValleyLine
  6
CONTINUOUS
 62
5
 10
-1963.0626453047632
 20
773.842988161992
 11
-2093.9736222853007
 21
989.8255641508772
  0
LINE
  8
MountainLine
  6
CONTINUOUS
 62
1
 10
-2186.4518740676785
 20
386.9214940809962
 11
-2379.7116502419417
 21
494.9127820754387
  0
LINE
  8
ValleyLine
  6
CONTINUOUS
 62
5
 10
-1651.699008941127
 20
1313.1406259732105
 11
-1904.2008950125733
 21
1318.521569678153
  0
LINE
  8
MountainLine
  6
CONTINUOUS
 62
1
 10
-1428.309780178212
 20
1700.0621200542064
 11
-1618.4628670559323
 21
1813.434351753591
  0
LINE
  8
MountainLine
  6
CONTINUOUS
 62
1
 10
-2093.9736222853007
 20
989.8255641508772
 11
-1904.2008950125733
 21
1318.521569678153
  0
LINE
  8
ValleyLine
  6
CONTINUOUS
 62
5
 10
-2093.9736222853007
 20
989.8255641508772
 11
-2379.7116502419417
 21
494.9127820754387
  0
LINE
  8
MountainLine
  6
CONTINUOUS
 62
1
 10
-2379.7116502419417
 20
494.9127820754387
 11
-2379.7116502419417
 21
1.937843824800273E-13
  0
LINE
  8
ValleyLine
  6
CONTINUOUS
 62
5
 10
-1904.2008950125733
 20
1318.521569678153
 11
-1618.4628670559323
 21
1813.434351753591
  0
LINE
  8
MountainLine
  6
CONTINUOUS
 62
1
 10
-1618.4628670559323
 20
1813.434351753591
 11
-1189.8558251209704
 21
2060.8907427913105
  0
LINE
  8
ValleyLine
  6
CONTINUOUS
 62
5
 10
-2093.9736222853007
 20
989.8255641508772
 11
-2285.2139610048025
 21
1320.6810552447178
  0
LINE
  8
MountainLine
  6
CONTINUOUS
 62
1
 10
-2379.7116502419417
 20
494.9127820754387
 11
-2666.4617423843906
 21
660.3405276223591
  0
LINE
  8
ValleyLine
  6
CONTINUOUS
 62
5
 10
-1904.2008950125733
 20
1318.521569678153
 11
-2286.350324641166
 21
1318.7128156906622
  0
LINE
  8
MountainLine
  6
CONTINUOUS
 62
1
 10
-1618.4628670559323
 20
1813.434351753591
 11
-1905.1025432615775
 21
1979.0533433130206
  0
LINE
  8
CutLine
  6
CONTINUOUS
 62
250
 10
-2285.2139610048025
 20
1320.6810552447178
 11
-2286.350324641166
 21
1318.7128156906622
  0
LINE
  8
CutLine
  6
CONTINUOUS
 62
250
 10
-2285.2139610048025
 20
1320.6810552447178
 11
-2666.4617423843906
 21
660.3405276223591
  0
LINE
  8
CutLine
  6
CONTINUOUS
 62
250
 10
-2666.4617423843906
 20
660.3405276223591
 11
-2666.4617423843906
 21
3.875687649600546E-13
  0
LINE
  8
CutLine
  6
CONTINUOUS
 62
250
 10
-2286.350324641166
 20
1318.7128156906622
 11
-1905.1025432615775
 21
1979.0533433130206
  0
LINE
  8
CutLine
  6
CONTINUOUS
 62
250
 10
-1905.1025432615775
 20
1979.0533433130206
 11
-1333.2308711921949
 21
2309.2236071241996
  0
ENDSEC
  0
EOF
