<?xml version="1.0" encoding="UTF-8" standalone="no"?>
<!DOCTYPE svg PUBLIC "-//W3C//DTD SVG 1.1//EN" "http://www.w3.org/Graphics/SVG/1.1/DTD/svg11.dtd">
<svg width="100%" height="100%" viewBox="0 0 1000 1000" version="1.1" xmlns="http://www.w3.org/2000/svg" xmlns:xlink="http://www.w3.org/1999/xlink" xml:space="preserve" xmlns:serif="http://www.serif.com/" style="fill-rule:evenodd;clip-rule:evenodd;stroke-linejoin:round;stroke-miterlimit:2;">
    <path d="M580.823,537.566C586.84,539.087 987.094,705.066 994.722,708.438" style="fill:rgb(0,0,255);"/>
    <path d="M580.7,538.05C586.717,539.571 986.893,705.524 994.52,708.895C994.772,709.007 995.068,708.892 995.179,708.64C995.291,708.387 995.176,708.092 994.924,707.98C987.295,704.609 586.964,538.602 580.945,537.081C580.678,537.013 580.406,537.176 580.338,537.443C580.27,537.711 580.433,537.983 580.7,538.05Z" style="fill:rgb(255,0,0);"/>
    <path d="M532.319,580.519C535.504,585.847 701.559,986.069 704.577,993.844" style="fill:rgb(0,0,255);"/>
    <path d="M531.89,580.776C535.074,586.102 701.093,986.252 704.11,994.025C704.21,994.282 704.5,994.41 704.757,994.31C705.015,994.21 705.143,993.92 705.043,993.663C702.024,985.887 535.934,585.591 532.748,580.263C532.607,580.026 532.299,579.949 532.062,580.09C531.826,580.232 531.748,580.539 531.89,580.776Z" style="fill:rgb(255,0,0);"/>
    <path d="M580.338,468.772C585.692,465.632 987.312,302.986 995.112,300.035" style="fill:rgb(0,0,255);"/>
    <path d="M580.59,469.203C585.944,466.064 987.49,303.453 995.289,300.502C995.547,300.405 995.677,300.116 995.579,299.858C995.482,299.6 995.193,299.469 994.935,299.567C987.133,302.519 585.44,465.2 580.085,468.34C579.847,468.48 579.767,468.787 579.906,469.025C580.046,469.263 580.352,469.343 580.59,469.203Z" style="fill:rgb(255,0,0);"/>
    <path d="M532.342,423.48C533.876,417.466 700.762,17.589 704.15,9.968" style="fill:rgb(0,0,255);"/>
    <path d="M532.826,423.603C534.361,417.59 701.219,17.79 704.607,10.171C704.719,9.919 704.605,9.624 704.353,9.511C704.101,9.399 703.805,9.513 703.693,9.765C700.304,17.387 533.392,417.341 531.857,423.356C531.789,423.624 531.951,423.896 532.218,423.964C532.486,424.033 532.758,423.871 532.826,423.603Z" style="fill:rgb(255,0,0);"/>
    <path d="M466.091,422.534C462.952,417.179 300.343,15.544 297.393,7.744" style="fill:rgb(0,0,255);"/>
    <path d="M466.522,422.281C463.383,416.927 300.81,15.366 297.86,7.567C297.763,7.309 297.474,7.179 297.216,7.276C296.957,7.374 296.827,7.663 296.925,7.921C299.876,15.722 462.52,417.431 465.659,422.787C465.799,423.025 466.105,423.105 466.344,422.965C466.582,422.826 466.662,422.519 466.522,422.281Z" style="fill:rgb(255,0,0);"/>
    <path d="M421.859,470.441C415.835,468.945 14.9,304.618 7.258,301.278" style="fill:rgb(0,0,255);"/>
    <path d="M421.979,469.956C415.957,468.46 15.099,304.159 7.458,300.82C7.206,300.709 6.911,300.825 6.8,301.078C6.69,301.331 6.805,301.626 7.058,301.736C14.701,305.077 415.713,469.43 421.738,470.926C422.006,470.993 422.278,470.829 422.344,470.562C422.411,470.294 422.247,470.022 421.979,469.956Z" style="fill:rgb(255,0,0);"/>
    <path d="M421.704,535.3C416.375,538.482 16.051,704.293 8.275,707.306" style="fill:rgb(0,0,255);"/>
    <path d="M421.448,534.871C416.12,538.052 15.869,703.827 8.094,706.84C7.837,706.939 7.709,707.229 7.809,707.487C7.908,707.744 8.198,707.872 8.456,707.772C16.233,704.758 416.63,538.912 421.961,535.729C422.197,535.588 422.275,535.281 422.134,535.044C421.992,534.807 421.685,534.729 421.448,534.871Z" style="fill:rgb(255,0,0);"/>
    <path d="M467.285,581.443C465.744,587.455 298.422,987.15 295.026,994.766" style="fill:rgb(0,0,255);"/>
    <path d="M466.801,581.318C465.26,587.33 297.965,986.947 294.569,994.563C294.457,994.815 294.57,995.111 294.822,995.223C295.074,995.335 295.37,995.222 295.482,994.97C298.88,987.352 466.228,587.58 467.769,581.567C467.838,581.299 467.676,581.027 467.409,580.958C467.142,580.89 466.869,581.051 466.801,581.318Z" style="fill:rgb(255,0,0);"/>
    <path d="M578.621,539.204C599.643,551.283 622.395,563.958 641.934,579.737C655.098,590.368 666.803,602.407 675.533,616.628C684.346,630.982 704.592,675.865 728.059,730.292C772.736,833.91 829.081,972.116 840.396,1000.17C840.423,1000.23 840.501,1000.27 840.57,1000.24C840.638,1000.21 840.671,1000.13 840.644,1000.06C829.329,972.015 772.99,833.803 728.309,730.185C704.833,675.742 684.573,630.848 675.757,616.491C667.009,602.246 655.284,590.184 642.095,579.538C622.542,563.755 599.773,551.083 578.736,539.005C578.681,538.973 578.611,538.992 578.579,539.047C578.547,539.102 578.566,539.173 578.621,539.204Z" style="fill:rgb(0,0,255);"/>
    <path d="M529.603,580.124C535.95,603.524 543.101,628.567 545.784,653.538C547.592,670.361 547.373,687.151 543.507,703.384C539.605,719.769 522.229,765.84 500.392,820.942C458.819,925.843 401.072,1063.47 389.266,1091.31C389.237,1091.38 389.269,1091.46 389.337,1091.49C389.405,1091.52 389.484,1091.49 389.512,1091.42C401.318,1063.57 459.074,925.947 500.645,821.042C522.487,765.923 539.86,719.835 543.761,703.445C547.632,687.183 547.853,670.363 546.039,653.511C543.348,628.527 536.184,603.473 529.825,580.064C529.809,580.003 529.745,579.966 529.684,579.983C529.623,580 529.587,580.063 529.603,580.124Z" style="fill:rgb(0,0,255);"/>
    <path d="M579.919,471.484C603.372,465.336 628.475,458.398 653.468,455.928C670.306,454.263 687.094,454.625 703.293,458.629C719.645,462.67 765.566,480.437 820.48,502.742C925.024,545.206 1062.15,604.121 1089.9,616.163C1089.97,616.192 1090.04,616.161 1090.07,616.093C1090.1,616.025 1090.07,615.947 1090,615.917C1062.26,603.875 925.13,544.951 820.582,502.49C765.651,480.18 719.713,462.416 703.356,458.375C687.128,454.366 670.31,454.002 653.443,455.673C628.438,458.151 603.324,465.102 579.861,471.261C579.8,471.278 579.763,471.34 579.779,471.402C579.795,471.463 579.858,471.5 579.919,471.484Z" style="fill:rgb(0,0,255);"/>
    <path d="M533.976,425.685C546.102,404.69 558.828,381.967 574.652,362.464C585.312,349.325 597.378,337.647 611.618,328.948C625.992,320.168 670.921,300.024 725.401,276.68C829.12,232.237 967.453,176.205 995.527,164.954C995.595,164.927 995.629,164.849 995.601,164.78C995.574,164.712 995.496,164.679 995.427,164.706C967.352,175.957 829.014,231.983 725.294,276.43C670.798,299.782 625.859,319.941 611.482,328.725C597.217,337.44 585.129,349.138 574.453,362.303C558.626,381.82 545.902,404.56 533.777,425.57C533.745,425.625 533.764,425.695 533.819,425.727C533.874,425.759 533.944,425.74 533.976,425.685Z" style="fill:rgb(0,0,255);"/>
    <path d="M468.803,422.952C462.657,399.499 455.722,374.395 453.253,349.402C451.59,332.564 451.954,315.776 455.96,299.577C460.002,283.226 477.773,237.307 500.083,182.395C542.557,77.855 601.485,-59.269 613.529,-87.013C613.559,-87.08 613.527,-87.159 613.46,-87.189C613.392,-87.218 613.313,-87.187 613.284,-87.119C601.239,-59.376 542.302,77.749 499.831,182.293C477.516,237.221 459.748,283.158 455.705,299.515C451.695,315.743 451.329,332.56 452.999,349.427C455.475,374.433 462.424,399.547 468.58,423.011C468.596,423.072 468.659,423.109 468.721,423.093C468.782,423.077 468.819,423.014 468.803,422.952Z" style="fill:rgb(0,0,255);"/>
    <path d="M424.053,468.793C402.982,456.801 380.178,444.221 360.574,428.522C347.367,417.946 335.612,405.955 326.823,391.77C317.951,377.453 297.52,332.653 273.828,278.324C228.724,174.891 171.81,36.919 160.38,8.917C160.352,8.849 160.274,8.816 160.205,8.844C160.137,8.872 160.104,8.95 160.132,9.018C171.562,37.021 228.471,174.999 273.579,278.432C297.279,332.778 317.724,377.587 326.6,391.908C335.407,406.117 347.181,418.13 360.414,428.722C380.032,444.424 402.853,457.002 423.94,468.993C423.995,469.025 424.065,469.005 424.096,468.95C424.128,468.895 424.109,468.825 424.053,468.793Z" style="fill:rgb(0,0,255);"/>
    <path d="M422.101,532.585C398.698,538.917 373.65,546.053 348.677,548.721C331.853,550.518 315.063,550.289 298.833,546.413C282.45,542.501 236.39,525.097 181.301,503.227C76.425,461.589 -61.165,403.759 -89.004,391.936C-89.072,391.907 -89.15,391.939 -89.179,392.007C-89.208,392.075 -89.176,392.153 -89.108,392.182C-61.269,404.005 76.321,461.845 181.201,503.479C236.307,525.355 282.384,542.756 298.772,546.668C315.031,550.548 331.851,550.78 348.704,548.975C373.689,546.3 398.748,539.151 422.161,532.807C422.222,532.79 422.259,532.727 422.242,532.666C422.225,532.604 422.162,532.568 422.101,532.585Z" style="fill:rgb(0,0,255);"/>
    <path d="M465.653,579.236C453.504,600.217 440.753,622.927 424.909,642.412C414.234,655.54 402.156,667.205 387.906,675.888C373.522,684.652 328.571,704.747 274.066,728.032C170.298,772.361 31.905,828.242 3.818,839.462C3.75,839.49 3.716,839.568 3.743,839.636C3.771,839.705 3.849,839.738 3.917,839.711C32.005,828.491 170.404,772.616 274.172,728.282C328.694,704.989 373.655,684.88 388.042,676.111C402.316,667.411 414.417,655.727 425.107,642.574C440.956,623.074 453.704,600.347 465.853,579.351C465.884,579.296 465.866,579.226 465.811,579.194C465.756,579.162 465.685,579.181 465.653,579.236Z" style="fill:rgb(0,0,255);"/>
    <g id="Layer1">
        <path d="M1.868,300.128C15.253,286.79 36.525,265.466 61.818,240.059C142.406,159.105 263.829,36.718 301.219,-0.609C301.262,-0.652 301.262,-0.721 301.219,-0.763C301.177,-0.806 301.108,-0.806 301.065,-0.763C263.671,36.56 142.223,158.922 61.64,239.883C36.35,265.291 15.087,286.624 1.705,299.965C1.661,300.01 1.66,300.083 1.705,300.128C1.75,300.173 1.823,300.173 1.868,300.128Z" style="fill:rgb(0,0,0);"/>
        <path d="M287.438,6.828C291.052,6.626 324.803,6.534 371.866,6.493C486.525,6.394 680.194,6.617 709.61,6.557C709.676,6.557 709.73,6.503 709.73,6.437C709.73,6.371 709.676,6.317 709.61,6.317C680.193,6.377 486.525,6.131 371.866,6.242C324.796,6.288 291.04,6.396 287.425,6.598C287.362,6.602 287.314,6.656 287.317,6.719C287.321,6.783 287.375,6.831 287.438,6.828Z" style="fill:rgb(0,0,0);"/>
        <path d="M705.501,5.018C707.087,6.692 711.148,10.847 717.197,16.977C727.748,27.669 744.346,44.369 764.331,64.46C819.976,120.397 901.92,202.578 953.195,254.06C969.482,270.412 982.673,283.669 990.945,292.002C996.346,297.442 999.651,300.781 1000.34,301.522C1000.41,301.594 1000.52,301.598 1000.59,301.531C1000.66,301.464 1000.67,301.352 1000.6,301.279C999.913,300.536 996.622,297.177 991.226,291.723C982.967,283.377 969.779,270.118 953.491,253.765C902.217,202.283 820.219,120.155 764.55,64.242C744.556,44.16 727.963,27.456 717.395,16.782C711.337,10.664 707.258,6.528 705.667,4.86C705.624,4.814 705.551,4.812 705.505,4.856C705.459,4.899 705.457,4.972 705.501,5.018Z" style="fill:rgb(0,0,0);"/>
        <path d="M996.192,726.228C996.202,726.246 996.207,726.266 996.207,726.287C996.201,727.565 995.961,727.602 995.932,726.16C995.911,725.103 995.909,722.398 995.904,718.258C995.891,706.748 995.931,684.145 995.958,655.055C995.963,649.977 995.96,644.702 995.965,639.254C996.081,518.194 996.594,311.635 996.818,288.125C996.818,288.061 996.87,288.01 996.934,288.011C996.997,288.011 997.048,288.063 997.048,288.127C996.94,299.468 996.776,353.408 996.621,419.799C996.396,516.691 996.189,640.101 996.163,696.312C996.157,709.891 996.164,719.549 996.179,723.963C996.182,725.032 996.188,725.793 996.192,726.228Z" style="fill:rgb(0,0,0);"/>
        <path d="M696.561,1009.38C729.901,976.131 804.701,900.926 876.737,829.279C916.302,789.928 955.032,751.65 985.607,721.992C988.964,718.736 992.229,715.591 995.372,712.545C996.193,711.75 997.002,710.958 997.806,710.176C997.851,710.133 997.853,710.061 997.809,710.015C997.766,709.97 997.694,709.969 997.648,710.012C996.837,710.786 996.015,711.566 995.19,712.357C992.032,715.387 988.78,718.546 985.423,721.802C954.843,751.457 916.108,789.732 876.545,829.086C804.513,900.737 729.733,975.963 696.398,1009.22C696.353,1009.26 696.353,1009.34 696.398,1009.38C696.443,1009.43 696.516,1009.43 696.561,1009.38Z" style="fill:rgb(0,0,0);"/>
        <path d="M275.799,999.375C279.259,999.303 286.989,999.253 298.044,999.203C337.13,999.027 417.779,998.927 498.279,998.948C579.41,998.969 660.388,999.091 698.515,999.3C708.165,999.353 715.069,999.429 718.536,999.476C719.619,999.49 720.367,999.498 720.756,999.515C720.824,999.519 720.881,999.467 720.885,999.4C720.888,999.333 720.837,999.276 720.77,999.272C720.379,999.247 719.629,999.213 718.542,999.188C715.075,999.106 708.169,999.064 698.517,999.011C660.39,998.8 579.411,998.676 498.28,998.657C417.778,998.638 337.128,998.701 298.042,998.923C286.985,998.985 279.254,999.066 275.794,999.145C275.73,999.146 275.68,999.199 275.681,999.262C275.682,999.326 275.735,999.376 275.799,999.375Z" style="fill:rgb(0,0,0);"/>
        <path d="M-6.811,700.382C-6.618,700.589 -6.426,700.8 -6.226,701.009C-4.576,702.732 -2.746,704.545 -0.811,706.503C12.361,719.833 31.434,738.92 53.69,761.103C139.061,846.193 271.257,976.843 296.756,1002.92C296.821,1002.98 296.927,1002.99 296.993,1002.92C297.06,1002.86 297.061,1002.75 296.996,1002.68C271.494,976.611 139.289,845.966 53.901,760.891C31.641,738.713 12.562,719.633 -0.614,706.308C-2.55,704.351 -4.337,702.496 -6.031,700.816C-6.236,700.613 -6.444,700.417 -6.647,700.221C-6.692,700.175 -6.765,700.175 -6.81,700.219C-6.855,700.264 -6.856,700.337 -6.811,700.382Z" style="fill:rgb(0,0,0);"/>
        <path d="M5.186,275.575C3.892,317.558 3.363,363.076 3.196,409.74C2.811,517.833 4.364,632.08 2.791,722.822C2.79,722.882 2.837,722.931 2.897,722.932C2.956,722.933 3.005,722.885 3.006,722.826C4.585,632.083 3.045,517.834 3.432,409.741C3.599,363.079 4.123,317.564 5.416,275.582C5.418,275.518 5.368,275.465 5.305,275.463C5.241,275.461 5.188,275.511 5.186,275.575Z" style="fill:rgb(0,0,0);"/>
    </g>
</svg>
