<?xml version="1.0" encoding="UTF-8" standalone="no"?>
<!DOCTYPE svg PUBLIC "-//W3C//DTD SVG 1.1//EN" "http://www.w3.org/Graphics/SVG/1.1/DTD/svg11.dtd">
<svg width="100%" height="100%" viewBox="0 0 1000 1000" version="1.1" xmlns="http://www.w3.org/2000/svg" xmlns:xlink="http://www.w3.org/1999/xlink" xml:space="preserve" xmlns:serif="http://www.serif.com/" style="fill-rule:evenodd;clip-rule:evenodd;stroke-linecap:round;stroke-linejoin:round;stroke-miterlimit:1.5;">
    <g id="Layer1">
        <path d="M500.744,503.272L500.744,503.272C500.744,503.272 500.657,503.455 500.533,503.719C499.262,506.43 492.844,520.23 491.302,523.862C486.474,535.238 482.704,543.825 476.755,556.56C467.193,577.027 453.335,603.103 435.924,617.77C423.691,628.075 412.27,634.939 397.897,642.125C389.364,646.392 357.679,659.744 349.283,663.942C309.781,683.693 294.733,679.35 261.961,713.442C241.416,734.814 223.538,784.828 208.767,809.966C199.425,825.865 204.513,822.245 184.849,835.728C183.11,836.92 162.083,849.348 147.518,854.432C147.257,854.523 146.972,854.385 146.881,854.125C146.79,853.864 146.928,853.579 147.188,853.488C161.661,848.436 182.556,836.088 184.283,834.904C203.704,821.587 198.678,825.162 207.905,809.46C222.707,784.269 240.652,734.166 261.24,712.749C294.122,678.543 309.201,682.865 348.835,663.048C357.232,658.849 388.917,645.497 397.45,641.231C411.748,634.082 423.11,627.256 435.28,617.005C452.589,602.424 466.343,576.484 475.849,556.137C481.793,543.415 485.558,534.836 490.382,523.471C491.926,519.834 498.355,506.01 499.628,503.294C499.759,503.016 499.836,502.851 499.851,502.822C500.146,502.236 500.783,502.91 500.79,502.943C500.814,503.059 500.795,503.174 500.744,503.272ZM500.6,503.443C500.542,503.486 500.474,503.517 500.399,503.533C500.29,503.555 500.181,503.539 500.087,503.495L500.093,503.498C500.202,503.547 500.389,503.604 500.6,503.443ZM499.817,503.17C499.863,503.354 499.978,503.444 500.085,503.494C499.956,503.432 499.855,503.317 499.817,503.17ZM500.616,503.43L500.61,503.435L500.615,503.43L500.616,503.43Z" style="fill:rgb(13,40,242);"/>
        <path d="M502.292,503.994L502.292,503.993C502.292,503.993 502.359,504.185 502.456,504.459C503.461,507.28 508.61,521.602 510.07,525.268C514.643,536.749 518.007,545.503 522.74,558.738C530.346,580.009 538.847,608.29 536.795,630.961C535.353,646.892 532.067,659.805 526.91,675.025C523.849,684.061 510.729,715.842 507.717,724.733C493.545,766.561 479.796,774.064 480.496,821.347C480.935,850.991 503.423,899.109 510.614,927.364C515.162,945.235 516.231,939.083 511.745,962.5C511.348,964.57 505.151,988.196 498.378,1002.06C498.257,1002.31 497.958,1002.41 497.71,1002.29C497.462,1002.17 497.359,1001.87 497.48,1001.62C504.21,987.845 510.369,964.368 510.763,962.311C515.193,939.184 514.137,945.261 509.645,927.611C502.438,899.296 479.936,851.068 479.496,821.362C478.794,773.92 492.55,766.381 506.769,724.412C509.782,715.521 522.902,683.74 525.963,674.704C531.093,659.564 534.364,646.719 535.799,630.871C537.839,608.332 529.36,580.222 521.799,559.075C517.07,545.853 513.71,537.108 509.141,525.638C507.679,521.966 502.521,507.62 501.514,504.795C501.411,504.505 501.351,504.333 501.341,504.302C501.138,503.679 502.065,503.709 502.093,503.728C502.192,503.794 502.259,503.889 502.292,503.994ZM501.561,504.574C501.723,504.672 501.868,504.654 501.98,504.615C501.845,504.662 501.692,504.651 501.561,504.574ZM502.309,504.217C502.299,504.288 502.273,504.358 502.23,504.421C502.168,504.514 502.08,504.58 501.982,504.614L501.988,504.612C502.1,504.571 502.273,504.479 502.309,504.217ZM502.312,504.196L502.311,504.203L502.312,504.197L502.312,504.196Z" style="fill:rgb(13,40,242);"/>
        <path d="M502.018,501.907L502.018,501.907C502.018,501.907 502.201,501.996 502.464,502.121C505.166,503.409 518.925,509.917 522.547,511.483C533.891,516.385 542.454,520.21 555.15,526.243C575.553,535.937 601.539,549.965 616.092,567.47C626.318,579.771 633.107,591.236 640.2,605.655C644.411,614.216 657.556,645.987 661.7,654.41C681.193,694.039 676.753,709.059 710.631,742.052C731.869,762.736 781.766,780.939 806.807,795.873C822.645,805.318 819.058,800.207 832.413,819.958C833.594,821.704 845.885,842.812 850.874,857.41C850.963,857.671 850.823,857.956 850.562,858.045C850.301,858.134 850.017,857.995 849.928,857.733C844.97,843.228 832.758,822.253 831.585,820.518C818.395,801.011 821.937,806.06 806.295,796.732C781.201,781.766 731.216,763.496 709.933,742.768C675.941,709.665 680.361,694.614 660.803,654.852C656.659,646.428 643.514,614.657 639.303,606.097C632.247,591.752 625.495,580.346 615.323,568.109C600.855,550.706 575.005,536.784 554.72,527.146C542.037,521.119 533.483,517.298 522.15,512.401C518.522,510.833 504.741,504.314 502.034,503.024C501.756,502.891 501.591,502.812 501.563,502.797C500.979,502.499 501.657,501.866 501.69,501.859C501.806,501.836 501.921,501.856 502.018,501.907ZM502.236,502.568C502.174,502.696 502.057,502.797 501.91,502.834C502.094,502.789 502.185,502.674 502.236,502.568ZM502.188,502.053C502.231,502.111 502.262,502.179 502.277,502.254C502.298,502.364 502.282,502.472 502.237,502.565L502.24,502.56C502.29,502.452 502.348,502.264 502.188,502.053ZM502.176,502.037L502.18,502.042L502.176,502.037L502.176,502.037Z" style="fill:rgb(13,40,242);"/>
        <path d="M500.903,503.999L500.902,503.999C500.902,503.999 501.093,503.931 501.367,503.831C504.179,502.803 518.46,497.538 522.113,496.049C533.557,491.383 542.283,487.948 555.48,483.108C576.689,475.33 604.899,466.601 627.587,468.47C643.529,469.783 656.468,472.964 671.729,477.997C680.789,480.985 712.676,493.847 721.591,496.788C763.532,510.621 771.146,524.308 818.423,523.225C848.061,522.546 895.996,499.67 924.192,492.25C942.026,487.557 935.865,486.539 959.317,490.835C961.39,491.215 985.066,497.221 998.981,503.881C999.23,504 999.335,504.299 999.216,504.548C999.097,504.797 998.798,504.902 998.549,504.783C984.722,498.165 961.197,492.196 959.137,491.819C935.975,487.576 942.059,488.583 924.447,493.217C896.191,500.653 848.146,523.544 818.445,524.225C771.01,525.312 763.36,511.617 721.278,497.737C712.363,494.797 680.476,481.935 671.416,478.947C656.234,473.94 643.364,470.772 627.505,469.466C604.95,467.608 576.909,476.315 555.825,484.047C542.641,488.882 533.923,492.313 522.491,496.975C518.831,498.467 504.527,503.741 501.71,504.77C501.421,504.876 501.25,504.937 501.219,504.948C500.597,505.155 500.62,504.228 500.638,504.2C500.704,504.101 500.798,504.033 500.903,503.999ZM501.526,504.306C501.575,504.441 501.565,504.594 501.489,504.725C501.585,504.562 501.567,504.417 501.526,504.306ZM501.125,503.98C501.197,503.99 501.267,504.015 501.331,504.057C501.424,504.119 501.49,504.206 501.526,504.304L501.523,504.298C501.481,504.186 501.388,504.014 501.125,503.98ZM501.105,503.977L501.112,503.978L501.106,503.977L501.105,503.977Z" style="fill:rgb(13,40,242);"/>
        <path d="M497.735,503.513L497.735,503.513C497.735,503.513 497.822,503.33 497.947,503.066C499.225,500.359 505.682,486.576 507.234,482.949C512.095,471.587 515.888,463.01 521.873,450.292C531.492,429.852 545.423,403.814 562.874,389.197C575.137,378.926 586.576,372.094 600.97,364.947C609.515,360.705 641.237,347.441 649.645,343.267C689.201,323.627 704.238,328.011 737.104,294.011C757.709,272.696 775.727,222.732 790.568,197.636C799.955,181.763 794.857,185.369 814.558,171.941C816.3,170.754 837.362,158.385 851.941,153.341C852.202,153.251 852.487,153.39 852.577,153.65C852.668,153.911 852.529,154.196 852.268,154.286C837.781,159.298 816.852,171.588 815.122,172.767C795.664,186.029 800.699,182.469 791.429,198.145C776.556,223.294 758.472,273.346 737.823,294.706C704.846,328.82 689.779,324.456 650.089,344.162C641.681,348.337 609.959,361.6 601.414,365.843C587.096,372.952 575.715,379.746 563.516,389.963C546.167,404.495 532.341,430.397 522.778,450.717C516.798,463.423 513.009,471.991 508.153,483.342C506.599,486.976 500.132,500.782 498.851,503.493C498.72,503.772 498.641,503.936 498.627,503.965C498.33,504.55 497.695,503.874 497.688,503.841C497.665,503.725 497.684,503.61 497.735,503.513ZM498.394,503.293C498.523,503.354 498.624,503.47 498.662,503.617C498.617,503.434 498.501,503.343 498.394,503.293ZM497.864,503.355L497.864,503.355L497.869,503.35L497.864,503.355ZM498.392,503.292L498.386,503.289C498.278,503.239 498.09,503.182 497.88,503.342C497.937,503.299 498.005,503.268 498.081,503.253C498.19,503.231 498.298,503.247 498.392,503.292Z" style="fill:rgb(13,40,242);"/>
        <path d="M499.928,503.446L499.928,503.446C499.928,503.446 499.859,503.256 499.759,502.982C498.728,500.171 493.444,485.898 491.949,482.246C487.269,470.808 483.822,462.087 478.965,448.896C471.16,427.698 462.393,399.499 464.232,376.809C465.524,360.865 468.688,347.922 473.701,332.654C476.678,323.59 489.498,291.686 492.427,282.767C506.204,240.808 519.882,233.176 518.737,185.901C518.019,156.264 495.08,108.359 487.623,80.173C482.907,62.345 481.897,68.508 486.162,45.049C486.539,42.976 492.514,19.292 499.156,5.368C499.274,5.119 499.573,5.013 499.822,5.132C500.071,5.251 500.177,5.55 500.058,5.799C493.458,19.634 487.52,43.168 487.146,45.228C482.933,68.396 483.932,62.31 488.59,79.917C496.063,108.163 519.017,156.177 519.737,185.877C520.886,233.311 507.201,240.979 493.377,283.079C490.448,291.998 477.628,323.902 474.651,332.966C469.664,348.154 466.514,361.029 465.229,376.889C463.401,399.447 472.144,427.476 479.904,448.551C484.756,461.728 488.199,470.441 492.875,481.867C494.372,485.525 499.665,499.822 500.698,502.638C500.804,502.927 500.866,503.098 500.876,503.129C501.084,503.75 500.157,503.729 500.129,503.71C500.03,503.645 499.961,503.551 499.928,503.446ZM499.906,503.243L499.906,503.244L499.907,503.237L499.906,503.243ZM500.232,502.823L500.226,502.825C500.114,502.867 499.942,502.961 499.908,503.223C499.918,503.152 499.943,503.082 499.985,503.018C500.047,502.924 500.134,502.858 500.232,502.823ZM500.653,502.859C500.49,502.763 500.345,502.781 500.234,502.822C500.368,502.774 500.522,502.783 500.653,502.859Z" style="fill:rgb(13,40,242);"/>
        <path d="M500.013,503.836L500.013,503.836C500.013,503.836 499.829,503.749 499.565,503.627C496.85,502.366 483.025,495.999 479.388,494.471C467.994,489.684 459.392,485.947 446.635,480.045C426.134,470.56 400.006,456.799 385.275,439.443C374.924,427.248 368.018,415.853 360.777,401.506C356.479,392.989 343.009,361.354 338.78,352.974C318.882,313.546 323.169,298.482 288.956,265.837C267.507,245.371 217.426,227.68 192.234,213.003C176.3,203.72 179.939,208.794 166.383,189.18C165.184,187.447 152.678,166.465 147.54,151.919C147.448,151.659 147.585,151.373 147.845,151.281C148.105,151.189 148.391,151.326 148.483,151.586C153.588,166.04 166.014,186.889 167.205,188.612C180.594,207.983 177.001,202.97 192.737,212.139C217.983,226.847 268.152,244.605 289.646,265.114C323.974,297.868 319.708,312.963 339.673,352.523C343.902,360.904 357.372,392.539 361.67,401.056C368.872,415.327 375.74,426.664 386.037,438.796C400.682,456.05 426.673,469.707 447.055,479.138C459.8,485.034 468.392,488.767 479.775,493.549C483.418,495.08 497.266,501.457 499.986,502.72C500.266,502.849 500.43,502.927 500.459,502.941C501.046,503.234 500.375,503.874 500.342,503.881C500.226,503.904 500.111,503.886 500.013,503.836ZM499.854,503.708L499.854,503.708L499.85,503.702L499.854,503.708ZM499.787,503.18L499.785,503.186C499.736,503.294 499.68,503.482 499.841,503.692C499.798,503.635 499.766,503.567 499.751,503.492C499.728,503.382 499.744,503.274 499.787,503.18ZM500.111,502.908C499.928,502.955 499.838,503.07 499.789,503.178C499.85,503.049 499.965,502.947 500.111,502.908Z" style="fill:rgb(13,40,242);"/>
        <path d="M499.593,503.953L499.594,503.953C499.594,503.953 499.402,504.02 499.128,504.119C496.311,505.133 482.006,510.332 478.346,511.804C466.88,516.416 458.138,519.81 444.919,524.588C423.674,532.267 395.423,540.864 372.744,538.889C356.809,537.502 343.885,534.26 328.647,529.156C319.601,526.125 287.775,513.114 278.874,510.132C236.997,496.103 229.448,482.38 182.167,483.242C152.525,483.782 104.485,506.434 76.254,513.722C58.398,518.331 64.555,519.378 41.122,514.973C39.051,514.583 15.404,508.467 1.52,501.741C1.271,501.621 1.167,501.322 1.288,501.073C1.408,500.825 1.707,500.721 1.956,500.841C15.752,507.524 39.249,513.603 41.307,513.99C64.45,518.341 58.369,517.306 76.004,512.753C104.294,505.45 152.445,482.784 182.149,482.242C229.588,481.377 237.174,495.108 279.191,509.184C288.093,512.166 319.919,525.177 328.965,528.207C344.123,533.285 356.979,536.513 372.831,537.893C395.377,539.856 423.458,531.281 444.579,523.648C457.785,518.874 466.519,515.484 477.973,510.876C481.639,509.401 495.968,504.194 498.79,503.178C499.079,503.074 499.251,503.013 499.281,503.003C499.904,502.798 499.877,503.725 499.859,503.753C499.793,503.852 499.698,503.92 499.593,503.953ZM499.39,503.973L499.391,503.973L499.384,503.973L499.39,503.973ZM498.972,503.645L498.974,503.651C499.016,503.763 499.108,503.936 499.371,503.971C499.299,503.961 499.229,503.935 499.165,503.892C499.072,503.831 499.007,503.743 498.972,503.645ZM499.011,503.224C498.913,503.386 498.931,503.531 498.971,503.643C498.924,503.508 498.934,503.355 499.011,503.224Z" style="fill:rgb(13,40,242);"/>
        <path d="M296.195,997.907C296.186,997.982 296.159,998.055 296.115,998.122C296.004,998.288 295.873,998.321 295.826,998.334C295.676,998.376 295.549,998.347 295.442,998.285C295.358,998.237 295.275,998.162 295.225,998.033C295.216,998.009 295.156,997.856 295.241,997.604C295.473,996.923 297.337,992.307 300.539,984.472C332.492,906.29 497.833,506.963 499.737,502.859C499.854,502.609 500.151,502.5 500.401,502.616C500.652,502.732 500.761,503.03 500.645,503.28C498.741,507.383 333.415,906.675 301.465,984.85C298.304,992.584 296.451,997.168 296.195,997.907ZM295.642,997.348C295.535,997.353 295.396,997.398 295.283,997.567C295.368,997.44 295.501,997.364 295.642,997.348Z" style="fill:rgb(242,13,13);"/>
        <path d="M704.977,999.395C705.023,999.455 705.056,999.526 705.071,999.605C705.109,999.8 705.039,999.916 705.015,999.958C704.938,1000.09 704.828,1000.16 704.708,1000.19C704.615,1000.22 704.502,1000.22 704.376,1000.17C704.353,1000.16 704.202,1000.09 704.086,999.851C703.771,999.205 701.848,994.612 698.611,986.792C666.305,908.755 502.82,508.664 501.286,504.409C501.192,504.149 501.327,503.862 501.587,503.769C501.846,503.675 502.133,503.81 502.227,504.069C503.761,508.325 667.232,908.379 699.535,986.41C702.73,994.129 704.639,998.69 704.977,999.395ZM704.191,999.387C704.118,999.466 704.051,999.596 704.089,999.795C704.06,999.645 704.102,999.498 704.191,999.387Z" style="fill:rgb(242,13,13);"/>
        <path d="M995.313,709.669C995.387,709.679 995.461,709.706 995.527,709.751C995.692,709.862 995.724,709.993 995.737,710.041C995.778,710.191 995.749,710.318 995.686,710.424C995.637,710.508 995.561,710.59 995.432,710.64C995.409,710.649 995.254,710.708 995.003,710.62C994.324,710.385 989.72,708.49 981.906,705.237C903.933,672.777 505.69,504.842 501.599,502.911C501.35,502.793 501.243,502.495 501.36,502.246C501.478,501.996 501.776,501.889 502.026,502.007C506.117,503.937 904.325,671.857 982.291,704.314C990.003,707.525 994.575,709.408 995.313,709.669ZM994.75,710.218C994.754,710.326 994.798,710.465 994.967,710.579C994.84,710.493 994.765,710.359 994.75,710.218Z" style="fill:rgb(242,13,13);"/>
        <path d="M994.648,297.311C994.707,297.264 994.777,297.231 994.856,297.215C995.051,297.175 995.167,297.244 995.21,297.268C995.346,297.344 995.416,297.454 995.448,297.573C995.474,297.666 995.48,297.778 995.424,297.905C995.414,297.928 995.348,298.079 995.11,298.198C994.467,298.517 989.89,300.478 982.096,303.779C904.323,336.715 505.569,503.433 501.326,505.001C501.067,505.097 500.779,504.965 500.683,504.706C500.588,504.447 500.72,504.159 500.979,504.063C505.222,502.495 903.94,335.791 981.706,302.858C989.399,299.6 993.945,297.655 994.648,297.311ZM994.645,298.097C994.725,298.169 994.855,298.235 995.055,298.195C994.905,298.225 994.757,298.185 994.645,298.097Z" style="fill:rgb(242,13,13);"/>
        <path d="M703.666,9.451C703.675,9.377 703.702,9.303 703.747,9.236C703.858,9.071 703.989,9.039 704.036,9.026C704.186,8.984 704.313,9.013 704.42,9.075C704.503,9.123 704.586,9.199 704.636,9.328C704.645,9.352 704.705,9.506 704.618,9.757C704.385,10.437 702.508,15.048 699.284,22.874C667.113,100.967 500.656,499.83 498.74,503.928C498.623,504.178 498.326,504.286 498.076,504.169C497.826,504.053 497.718,503.755 497.834,503.505C499.75,499.407 666.191,100.579 698.359,22.493C701.542,14.769 703.408,10.19 703.666,9.451ZM704.217,10.012C704.325,10.007 704.463,9.963 704.577,9.794C704.492,9.921 704.358,9.996 704.217,10.012Z" style="fill:rgb(242,13,13);"/>
        <path d="M292.591,9.973C292.545,9.914 292.511,9.843 292.495,9.765C292.455,9.569 292.524,9.453 292.548,9.411C292.624,9.275 292.733,9.205 292.853,9.172C292.946,9.146 293.058,9.14 293.185,9.195C293.208,9.206 293.359,9.271 293.478,9.509C293.798,10.152 295.765,14.727 299.076,22.516C332.114,100.246 499.355,498.781 500.929,503.022C501.026,503.281 500.893,503.569 500.635,503.665C500.376,503.761 500.088,503.629 499.992,503.37C498.418,499.129 331.191,100.63 298.155,22.907C294.888,15.218 292.936,10.675 292.591,9.973ZM293.377,9.974C293.45,9.894 293.516,9.764 293.475,9.565C293.505,9.715 293.465,9.863 293.377,9.974Z" style="fill:rgb(242,13,13);"/>
        <path d="M4.62,301.13C4.545,301.121 4.471,301.095 4.404,301.05C4.238,300.94 4.205,300.81 4.191,300.763C4.149,300.613 4.177,300.486 4.238,300.378C4.286,300.294 4.361,300.211 4.49,300.16C4.514,300.151 4.667,300.091 4.919,300.175C5.601,300.404 10.224,302.251 18.071,305.424C96.371,337.085 496.311,500.939 500.422,502.828C500.673,502.943 500.783,503.24 500.667,503.491C500.552,503.741 500.255,503.852 500.004,503.736C495.894,501.848 95.989,338.01 17.696,306.351C9.951,303.219 5.36,301.383 4.62,301.13ZM5.177,300.575C5.171,300.468 5.126,300.329 4.956,300.217C5.084,300.301 5.16,300.434 5.177,300.575Z" style="fill:rgb(242,13,13);"/>
        <path d="M4.887,708.33C4.828,708.376 4.757,708.409 4.678,708.425C4.483,708.463 4.367,708.394 4.325,708.37C4.189,708.293 4.12,708.183 4.088,708.064C4.063,707.97 4.057,707.858 4.113,707.732C4.123,707.708 4.19,707.557 4.429,707.44C5.074,707.124 9.66,705.184 17.469,701.92C95.395,669.348 494.924,504.497 499.175,502.948C499.434,502.854 499.722,502.988 499.816,503.247C499.911,503.506 499.777,503.794 499.517,503.888C495.267,505.437 95.774,670.274 17.854,702.843C10.146,706.065 5.591,707.989 4.887,708.33ZM4.893,707.544C4.813,707.471 4.684,707.404 4.484,707.444C4.634,707.414 4.782,707.455 4.893,707.544Z" style="fill:rgb(242,13,13);"/>
        <path d="M297.001,2.314L710.704,6.446L1000.26,301.844L996.05,715.467L700.542,1005.02L286.839,1000.89L-2.716,705.492L1.493,291.868L297.001,2.314Z" style="fill:none;stroke:black;stroke-width:1px;"/>
    </g>
</svg>
