  0
SECTION
  2
HEADER
  9
$ACADVER
  1
AC1009
  0
ENDSEC
  0
SECTION
  2
ENTITIES
  0
LINE
  8
reference 10mm
  6
CONTINUOUS
 62
250
 10
-1617.434294531439
 20
1627.434294531439
 11
-1607.434294531439
 21
1627.434294531439
  0
LINE
  8
reference 10mm
  6
CONTINUOUS
 62
250
 10
-1607.434294531439
 20
1627.434294531439
 11
-1607.434294531439
 21
1637.434294531439
  0
LINE
  8
reference 10mm
  6
CONTINUOUS
 62
250
 10
-1607.434294531439
 20
1637.434294531439
 11
-1617.434294531439
 21
1637.434294531439
  0
LINE
  8
reference 10mm
  6
CONTINUOUS
 62
250
 10
-1617.434294531439
 20
1637.434294531439
 11
-1617.434294531439
 21
1627.434294531439
  0
LINE
  8
MountainLine
  6
CONTINUOUS
 62
1
 10
0.0
 20
-0.0
 11
-1617.434294531439
 21
-669.9632210422812
  0
LINE
  8
CutLine
  6
CONTINUOUS
 62
250
 10
-669.9632210422814
 20
-1617.434294531439
 11
-1617.434294531439
 21
-669.9632210422812
  0
LINE
  8
MountainLine
  6
CONTINUOUS
 62
1
 10
0.0
 20
-0.0
 11
-669.9632210422814
 21
-1617.434294531439
  0
LINE
  8
CutLine
  6
CONTINUOUS
 62
250
 10
669.9632210422812
 20
-1617.434294531439
 11
-669.9632210422814
 21
-1617.434294531439
  0
LINE
  8
MountainLine
  6
CONTINUOUS
 62
1
 10
0.0
 20
-0.0
 11
669.9632210422812
 21
-1617.434294531439
  0
LINE
  8
CutLine
  6
CONTINUOUS
 62
250
 10
1617.434294531439
 20
-669.9632210422815
 11
669.9632210422812
 21
-1617.434294531439
  0
LINE
  8
MountainLine
  6
CONTINUOUS
 62
1
 10
0.0
 20
-0.0
 11
1617.434294531439
 21
-669.9632210422815
  0
LINE
  8
CutLine
  6
CONTINUOUS
 62
250
 10
1617.4342945314395
 20
669.9632210422811
 11
1617.434294531439
 21
-669.9632210422815
  0
LINE
  8
MountainLine
  6
CONTINUOUS
 62
1
 10
0.0
 20
0.0
 11
1617.4342945314395
 21
669.9632210422811
  0
LINE
  8
CutLine
  6
CONTINUOUS
 62
250
 10
669.9632210422823
 20
1617.4342945314388
 11
1617.4342945314395
 21
669.9632210422811
  0
LINE
  8
MountainLine
  6
CONTINUOUS
 62
1
 10
0.0
 20
0.0
 11
669.9632210422823
 21
1617.4342945314388
  0
LINE
  8
CutLine
  6
CONTINUOUS
 62
250
 10
-669.9632210422817
 20
1617.4342945314388
 11
669.9632210422823
 21
1617.4342945314388
  0
LINE
  8
MountainLine
  6
CONTINUOUS
 62
1
 10
0.0
 20
0.0
 11
-669.9632210422817
 21
1617.4342945314388
  0
LINE
  8
CutLine
  6
CONTINUOUS
 62
250
 10
-1617.4342945314388
 20
669.9632210422824
 11
-669.9632210422817
 21
1617.4342945314388
  0
LINE
  8
MountainLine
  6
CONTINUOUS
 62
1
 10
0.0
 20
0.0
 11
-1617.4342945314388
 21
669.9632210422824
  0
LINE
  8
CutLine
  6
CONTINUOUS
 62
250
 10
-1617.434294531439
 20
-669.9632210422815
 11
-1617.4342945314388
 21
669.9632210422824
  0
LINE
  8
ValleyLine
  6
CONTINUOUS
 62
5
 10
0.0
 20
-0.0
 11
-108.56318865561403
 21
-41.87613317126403
  0
LINE
  8
ValleyLine
  6
CONTINUOUS
 62
5
 10
-108.56318865561403
 20
-41.87613317126403
 11
-204.54329939670623
 21
-77.39031534150912
  0
LINE
  8
ValleyLine
  6
CONTINUOUS
 62
5
 10
-204.54329939670623
 20
-77.39031534150912
 11
-279.087345990808
 21
-100.18059550971626
  0
LINE
  8
ValleyLine
  6
CONTINUOUS
 62
5
 10
-279.087345990808
 20
-100.18059550971626
 11
-341.2729791746439
 21
-112.58237341043676
  0
LINE
  8
ValleyLine
  6
CONTINUOUS
 62
5
 10
-341.2729791746439
 20
-112.58237341043676
 11
-398.01861564911997
 21
-116.93104877822188
  0
LINE
  8
ValleyLine
  6
CONTINUOUS
 62
5
 10
-398.01861564911997
 20
-116.93104877822188
 11
-450.72731507278377
 21
-112.82396648642481
  0
LINE
  8
ValleyLine
  6
CONTINUOUS
 62
5
 10
-450.72731507278377
 20
-112.82396648642481
 11
-503.5169716109216
 21
-99.85847140839884
  0
LINE
  8
ValleyLine
  6
CONTINUOUS
 62
5
 10
-503.5169716109216
 20
-99.85847140839884
 11
-561.5537980641931
 21
-80.5310253293539
  0
LINE
  8
ValleyLine
  6
CONTINUOUS
 62
5
 10
-561.5537980641931
 20
-80.5310253293539
 11
-624.0580960993348
 21
-57.338090034499984
  0
LINE
  8
ValleyLine
  6
CONTINUOUS
 62
5
 10
-624.0580960993348
 20
-57.338090034499984
 11
-690.6564207985072
 21
-31.165506802459962
  0
LINE
  8
ValleyLine
  6
CONTINUOUS
 62
5
 10
-690.6564207985072
 20
-31.165506802459962
 11
-760.3817198944087
 21
-2.8991169118567433
  0
LINE
  8
ValleyLine
  6
CONTINUOUS
 62
5
 10
-760.3817198944087
 20
-2.8991169118567433
 11
-825.5092426601256
 21
23.273466320183278
  0
LINE
  8
ValleyLine
  6
CONTINUOUS
 62
5
 10
-825.5092426601256
 20
23.273466320183278
 11
-879.8638973997374
 21
43.16462957653369
  0
LINE
  8
ValleyLine
  6
CONTINUOUS
 62
5
 10
-879.8638973997374
 20
43.16462957653369
 11
-928.7481465060516
 21
56.77437285719451
  0
LINE
  8
ValleyLine
  6
CONTINUOUS
 62
5
 10
-928.7481465060516
 20
56.77437285719451
 11
-979.8859284675029
 21
64.10269616216571
  0
LINE
  8
ValleyLine
  6
CONTINUOUS
 62
5
 10
-979.8859284675029
 20
64.10269616216571
 11
-1035.8789009307675
 21
64.66641333947119
  0
LINE
  8
ValleyLine
  6
CONTINUOUS
 62
5
 10
-1035.8789009307675
 20
64.66641333947119
 11
-1098.189833665674
 21
57.98233823713482
  0
LINE
  8
ValleyLine
  6
CONTINUOUS
 62
5
 10
-1098.189833665674
 20
57.98233823713482
 11
-1164.997780202687
 21
41.15135394329985
  0
LINE
  8
ValleyLine
  6
CONTINUOUS
 62
5
 10
-1164.997780202687
 20
41.15135394329985
 11
-1244.958556146908
 21
11.274343546109547
  0
LINE
  8
ValleyLine
  6
CONTINUOUS
 62
5
 10
-1244.958556146908
 20
11.274343546109547
 11
-1326.8126965183849
 21
-19.971694281679767
  0
LINE
  8
ValleyLine
  6
CONTINUOUS
 62
5
 10
-1326.8126965183849
 20
-19.971694281679767
 11
-1394.37244747869
 21
-40.90976086731178
  0
LINE
  8
ValleyLine
  6
CONTINUOUS
 62
5
 10
-1394.37244747869
 20
-40.90976086731178
 11
-1444.3099109059426
 21
-49.848704678870064
  0
LINE
  8
ValleyLine
  6
CONTINUOUS
 62
5
 10
-1444.3099109059426
 20
-49.848704678870064
 11
-1478.6874853076188
 21
-45.09737418443818
  0
LINE
  8
ValleyLine
  6
CONTINUOUS
 62
5
 10
-1478.6874853076188
 20
-45.09737418443818
 11
-1519.8584039933444
 21
-32.05134808108285
  0
LINE
  8
ValleyLine
  6
CONTINUOUS
 62
5
 10
-1519.8584039933444
 20
-32.05134808108285
 11
-1567.084071081281
 21
-16.106205065870782
  0
LINE
  8
ValleyLine
  6
CONTINUOUS
 62
5
 10
-1567.084071081281
 20
-16.106205065870782
 11
-1617.434294531439
 21
1.2884964052696624
  0
LINE
  8
ValleyLine
  6
CONTINUOUS
 62
5
 10
-1617.434294531439
 20
1.2884964052696624
 11
-1617.434294531439
 21
1.2884964052696624
  0
LINE
  8
ValleyLine
  6
CONTINUOUS
 62
5
 10
0.0
 20
-0.0
 11
0.0
 21
-0.0
  0
LINE
  8
MountainLine
  6
CONTINUOUS
 62
1
 10
0.0
 20
-0.0
 11
0.0
 21
-0.0
  0
LINE
  8
ValleyLine
  6
CONTINUOUS
 62
5
 10
-108.56318865561403
 20
-41.87613317126403
 11
-108.56318865561403
 21
-44.96834511562427
  0
LINE
  8
MountainLine
  6
CONTINUOUS
 62
1
 10
-108.56318865561403
 20
-41.87613317126403
 11
-108.56318865561403
 21
44.96834511562427
  0
LINE
  8
ValleyLine
  6
CONTINUOUS
 62
5
 10
-204.54329939670623
 20
-77.39031534150912
 11
-204.54329939670623
 21
-84.72460870265623
  0
LINE
  8
MountainLine
  6
CONTINUOUS
 62
1
 10
-204.54329939670623
 20
-77.39031534150912
 11
-204.54329939670623
 21
84.72460870265623
  0
LINE
  8
ValleyLine
  6
CONTINUOUS
 62
5
 10
-279.087345990808
 20
-100.18059550971626
 11
-279.087345990808
 21
-115.60176379610512
  0
LINE
  8
MountainLine
  6
CONTINUOUS
 62
1
 10
-279.087345990808
 20
-100.18059550971626
 11
-279.087345990808
 21
115.60176379610512
  0
LINE
  8
ValleyLine
  6
CONTINUOUS
 62
5
 10
-341.2729791746439
 20
-112.58237341043676
 11
-341.2729791746439
 21
-141.3598964456083
  0
LINE
  8
MountainLine
  6
CONTINUOUS
 62
1
 10
-341.2729791746439
 20
-112.58237341043676
 11
-341.2729791746439
 21
141.3598964456083
  0
LINE
  8
ValleyLine
  6
CONTINUOUS
 62
5
 10
-398.01861564911997
 20
-116.93104877822188
 11
-398.01861564911997
 21
-164.8647086788297
  0
LINE
  8
MountainLine
  6
CONTINUOUS
 62
1
 10
-398.01861564911997
 20
-116.93104877822188
 11
-398.01861564911997
 21
164.8647086788297
  0
LINE
  8
ValleyLine
  6
CONTINUOUS
 62
5
 10
-450.72731507278377
 20
-112.82396648642481
 11
-450.72731507278377
 21
-186.69736683515816
  0
LINE
  8
MountainLine
  6
CONTINUOUS
 62
1
 10
-450.72731507278377
 20
-112.82396648642481
 11
-450.72731507278377
 21
186.69736683515816
  0
LINE
  8
ValleyLine
  6
CONTINUOUS
 62
5
 10
-503.5169716109216
 20
-99.85847140839884
 11
-503.5169716109216
 21
-208.56355852627237
  0
LINE
  8
MountainLine
  6
CONTINUOUS
 62
1
 10
-503.5169716109216
 20
-99.85847140839884
 11
-503.5169716109216
 21
208.56355852627237
  0
LINE
  8
ValleyLine
  6
CONTINUOUS
 62
5
 10
-561.5537980641931
 20
-80.5310253293539
 11
-561.5537980641931
 21
-232.60319916031108
  0
LINE
  8
MountainLine
  6
CONTINUOUS
 62
1
 10
-561.5537980641931
 20
-80.5310253293539
 11
-561.5537980641931
 21
232.60319916031108
  0
LINE
  8
ValleyLine
  6
CONTINUOUS
 62
5
 10
-624.0580960993348
 20
-57.338090034499984
 11
-624.0580960993348
 21
-258.49332711307676
  0
LINE
  8
MountainLine
  6
CONTINUOUS
 62
1
 10
-624.0580960993348
 20
-57.338090034499984
 11
-624.0580960993348
 21
258.49332711307676
  0
LINE
  8
ValleyLine
  6
CONTINUOUS
 62
5
 10
-690.6564207985072
 20
-31.165506802459962
 11
-690.6564207985072
 21
-286.079256434801
  0
LINE
  8
MountainLine
  6
CONTINUOUS
 62
1
 10
-690.6564207985072
 20
-31.165506802459962
 11
-690.6564207985072
 21
286.079256434801
  0
LINE
  8
MountainLine
  6
CONTINUOUS
 62
1
 10
-760.3817198944087
 20
-2.8991169118567433
 11
-760.3817198944087
 21
-314.96042096084386
  0
LINE
  8
ValleyLine
  6
CONTINUOUS
 62
5
 10
-760.3817198944087
 20
-2.8991169118567433
 11
-760.3817198944087
 21
314.96042096084386
  0
LINE
  8
MountainLine
  6
CONTINUOUS
 62
1
 10
-825.5092426601256
 20
23.273466320183278
 11
-825.5092426601256
 21
-341.9371241741664
  0
LINE
  8
ValleyLine
  6
CONTINUOUS
 62
5
 10
-825.5092426601256
 20
23.273466320183278
 11
-825.5092426601256
 21
341.9371241741664
  0
LINE
  8
MountainLine
  6
CONTINUOUS
 62
1
 10
-879.8638973997374
 20
43.16462957653369
 11
-879.8638973997374
 21
-364.45155934542066
  0
LINE
  8
ValleyLine
  6
CONTINUOUS
 62
5
 10
-879.8638973997374
 20
43.16462957653369
 11
-879.8638973997374
 21
364.45155934542066
  0
LINE
  8
MountainLine
  6
CONTINUOUS
 62
1
 10
-928.7481465060516
 20
56.77437285719451
 11
-928.7481465060516
 21
-384.70007831168084
  0
LINE
  8
ValleyLine
  6
CONTINUOUS
 62
5
 10
-928.7481465060516
 20
56.77437285719451
 11
-928.7481465060516
 21
384.70007831168084
  0
LINE
  8
MountainLine
  6
CONTINUOUS
 62
1
 10
-979.8859284675029
 20
64.10269616216571
 11
-979.8859284675029
 21
-405.88204114979214
  0
LINE
  8
ValleyLine
  6
CONTINUOUS
 62
5
 10
-979.8859284675029
 20
64.10269616216571
 11
-979.8859284675029
 21
405.88204114979214
  0
LINE
  8
MountainLine
  6
CONTINUOUS
 62
1
 10
-1035.8789009307675
 20
64.66641333947119
 11
-1035.8789009307675
 21
-429.07508974165955
  0
LINE
  8
ValleyLine
  6
CONTINUOUS
 62
5
 10
-1035.8789009307675
 20
64.66641333947119
 11
-1035.8789009307675
 21
429.07508974165955
  0
LINE
  8
MountainLine
  6
CONTINUOUS
 62
1
 10
-1098.189833665674
 20
57.98233823713482
 11
-1098.189833665674
 21
-454.8851231645756
  0
LINE
  8
ValleyLine
  6
CONTINUOUS
 62
5
 10
-1098.189833665674
 20
57.98233823713482
 11
-1098.189833665674
 21
454.8851231645756
  0
LINE
  8
MountainLine
  6
CONTINUOUS
 62
1
 10
-1164.997780202687
 20
41.15135394329985
 11
-1164.997780202687
 21
-482.5578806945029
  0
LINE
  8
ValleyLine
  6
CONTINUOUS
 62
5
 10
-1164.997780202687
 20
41.15135394329985
 11
-1164.997780202687
 21
482.5578806945029
  0
LINE
  8
MountainLine
  6
CONTINUOUS
 62
1
 10
-1244.958556146908
 20
11.274343546109547
 11
-1244.958556146908
 21
-515.6787185484756
  0
LINE
  8
ValleyLine
  6
CONTINUOUS
 62
5
 10
-1244.958556146908
 20
11.274343546109547
 11
-1244.958556146908
 21
515.6787185484756
  0
LINE
  8
ValleyLine
  6
CONTINUOUS
 62
5
 10
-1326.8126965183849
 20
-19.971694281679767
 11
-1326.8126965183849
 21
-549.5838136267324
  0
LINE
  8
MountainLine
  6
CONTINUOUS
 62
1
 10
-1326.8126965183849
 20
-19.971694281679767
 11
-1326.8126965183849
 21
549.5838136267324
  0
LINE
  8
ValleyLine
  6
CONTINUOUS
 62
5
 10
-1394.37244747869
 20
-40.90976086731178
 11
-1394.37244747869
 21
-577.5679787450395
  0
LINE
  8
MountainLine
  6
CONTINUOUS
 62
1
 10
-1394.37244747869
 20
-40.90976086731178
 11
-1394.37244747869
 21
577.5679787450395
  0
LINE
  8
ValleyLine
  6
CONTINUOUS
 62
5
 10
-1444.3099109059426
 20
-49.848704678870064
 11
-1444.3099109059426
 21
-598.252753367118
  0
LINE
  8
MountainLine
  6
CONTINUOUS
 62
1
 10
-1444.3099109059426
 20
-49.848704678870064
 11
-1444.3099109059426
 21
598.252753367118
  0
LINE
  8
ValleyLine
  6
CONTINUOUS
 62
5
 10
-1478.6874853076188
 20
-45.09737418443818
 11
-1478.6874853076188
 21
-612.4924109257825
  0
LINE
  8
MountainLine
  6
CONTINUOUS
 62
1
 10
-1478.6874853076188
 20
-45.09737418443818
 11
-1478.6874853076188
 21
612.4924109257825
  0
LINE
  8
ValleyLine
  6
CONTINUOUS
 62
5
 10
-1519.8584039933444
 20
-32.05134808108285
 11
-1519.8584039933444
 21
-629.5459638207699
  0
LINE
  8
MountainLine
  6
CONTINUOUS
 62
1
 10
-1519.8584039933444
 20
-32.05134808108285
 11
-1519.8584039933444
 21
629.5459638207699
  0
LINE
  8
ValleyLine
  6
CONTINUOUS
 62
5
 10
-1567.084071081281
 20
-16.106205065870782
 11
-1567.084071081281
 21
-649.1074756207099
  0
LINE
  8
MountainLine
  6
CONTINUOUS
 62
1
 10
-1567.084071081281
 20
-16.106205065870782
 11
-1567.084071081281
 21
649.1074756207099
  0
LINE
  8
ValleyLine
  6
CONTINUOUS
 62
5
 10
-1617.434294531439
 20
1.2884964052696624
 11
-1617.434294531439
 21
-669.9632210422812
  0
LINE
  8
MountainLine
  6
CONTINUOUS
 62
1
 10
-1617.434294531439
 20
1.2884964052696624
 11
-1617.434294531439
 21
669.9632210422812
  0
LINE
  8
ValleyLine
  6
CONTINUOUS
 62
5
 10
0.0
 20
-0.0
 11
-47.15486915034743
 21
-106.37666462089088
  0
LINE
  8
ValleyLine
  6
CONTINUOUS
 62
5
 10
-47.15486915034743
 20
-106.37666462089088
 11
-89.91073727353483
 21
-199.3571708258276
  0
LINE
  8
ValleyLine
  6
CONTINUOUS
 62
5
 10
-89.91073727353483
 20
-199.3571708258276
 11
-126.50617646522961
 21
-268.1829333216835
  0
LINE
  8
ValleyLine
  6
CONTINUOUS
 62
5
 10
-126.50617646522961
 20
-268.1829333216835
 11
-161.70867812953028
 21
-320.924197490722
  0
LINE
  8
ValleyLine
  6
CONTINUOUS
 62
5
 10
-161.70867812953028
 20
-320.924197490722
 11
-198.7589246416392
 21
-364.1243996863104
  0
LINE
  8
ValleyLine
  6
CONTINUOUS
 62
5
 10
-198.7589246416392
 20
-364.1243996863104
 11
-238.93374917105626
 21
-398.49093273688567
  0
LINE
  8
ValleyLine
  6
CONTINUOUS
 62
5
 10
-238.93374917105626
 20
-398.49093273688567
 11
-285.42966277679517
 21
-426.65086736039876
  0
LINE
  8
ValleyLine
  6
CONTINUOUS
 62
5
 10
-285.42966277679517
 20
-426.65086736039876
 11
-340.13446450596035
 21
-454.0225327185438
  0
LINE
  8
ValleyLine
  6
CONTINUOUS
 62
5
 10
-340.13446450596035
 20
-454.0225327185438
 11
-400.73155932252604
 21
-481.8198638898854
  0
LINE
  8
ValleyLine
  6
CONTINUOUS
 62
5
 10
-400.73155932252604
 20
-481.8198638898854
 11
-466.33049741751927
 21
-510.405179815789
  0
LINE
  8
ValleyLine
  6
CONTINUOUS
 62
5
 10
-466.33049741751927
 20
-510.405179815789
 11
-535.6210851997997
 21
-539.7210556554527
  0
LINE
  8
ValleyLine
  6
CONTINUOUS
 62
5
 10
-535.6210851997997
 20
-539.7210556554527
 11
-600.1800092738644
 21
-567.2663575604277
  0
LINE
  8
ValleyLine
  6
CONTINUOUS
 62
5
 10
-600.1800092738644
 20
-567.2663575604277
 11
-652.6797306535515
 21
-591.6357260916066
  0
LINE
  8
ValleyLine
  6
CONTINUOUS
 62
5
 10
-652.6797306535515
 20
-591.6357260916066
 11
-696.869656453802
 21
-616.5785683639306
  0
LINE
  8
ValleyLine
  6
CONTINUOUS
 62
5
 10
-696.869656453802
 20
-616.5785683639306
 11
-738.2114359572558
 21
-647.5565336600392
  0
LINE
  8
ValleyLine
  6
CONTINUOUS
 62
5
 10
-738.2114359572558
 20
-647.5565336600392
 11
-778.2030547235657
 21
-686.7509359488612
  0
LINE
  8
ValleyLine
  6
CONTINUOUS
 62
5
 10
-778.2030547235657
 20
-686.7509359488612
 11
-817.537182971655
 21
-735.5377738585947
  0
LINE
  8
ValleyLine
  6
CONTINUOUS
 62
5
 10
-817.537182971655
 20
-735.5377738585947
 11
-852.8762318769101
 21
-794.6794290202797
  0
LINE
  8
ValleyLine
  6
CONTINUOUS
 62
5
 10
-852.8762318769101
 20
-794.6794290202797
 11
-888.2908021225728
 21
-872.3464725728109
  0
LINE
  8
ValleyLine
  6
CONTINUOUS
 62
5
 10
-888.2908021225728
 20
-872.3464725728109
 11
-924.0761346141983
 21
-952.3203755309188
  0
LINE
  8
ValleyLine
  6
CONTINUOUS
 62
5
 10
-924.0761346141983
 20
-952.3203755309188
 11
-957.0426437858687
 21
-1014.8977824378609
  0
LINE
  8
ValleyLine
  6
CONTINUOUS
 62
5
 10
-957.0426437858687
 20
-1014.8977824378609
 11
-986.0329750247358
 21
-1056.529689248325
  0
LINE
  8
ValleyLine
  6
CONTINUOUS
 62
5
 10
-986.0329750247358
 20
-1056.529689248325
 11
-1013.7012890171773
 21
-1077.478607216224
  0
LINE
  8
ValleyLine
  6
CONTINUOUS
 62
5
 10
-1013.7012890171773
 20
-1077.478607216224
 11
-1052.0384583327532
 21
-1097.3659094813613
  0
LINE
  8
ValleyLine
  6
CONTINUOUS
 62
5
 10
-1052.0384583327532
 20
-1097.3659094813613
 11
-1096.7069665297374
 21
-1119.4845801722538
  0
LINE
  8
ValleyLine
  6
CONTINUOUS
 62
5
 10
-1096.7069665297374
 20
-1119.4845801722538
 11
-1144.6098623325609
 21
-1142.7876532411594
  0
LINE
  8
ValleyLine
  6
CONTINUOUS
 62
5
 10
-1144.6098623325609
 20
-1142.7876532411594
 11
-1144.6098623325609
 21
-1142.7876532411594
  0
LINE
  8
ValleyLine
  6
CONTINUOUS
 62
5
 10
0.0
 20
-0.0
 11
0.0
 21
-0.0
  0
LINE
  8
MountainLine
  6
CONTINUOUS
 62
1
 10
0.0
 20
-0.0
 11
0.0
 21
-0.0
  0
LINE
  8
ValleyLine
  6
CONTINUOUS
 62
5
 10
-47.15486915034743
 20
-106.37666462089088
 11
-44.96834511562428
 21
-108.56318865561403
  0
LINE
  8
MountainLine
  6
CONTINUOUS
 62
1
 10
-47.15486915034743
 20
-106.37666462089088
 11
-108.56318865561403
 21
-44.96834511562426
  0
LINE
  8
ValleyLine
  6
CONTINUOUS
 62
5
 10
-89.91073727353483
 20
-199.3571708258276
 11
-84.72460870265627
 21
-204.54329939670623
  0
LINE
  8
MountainLine
  6
CONTINUOUS
 62
1
 10
-89.91073727353483
 20
-199.3571708258276
 11
-204.54329939670623
 21
-84.72460870265621
  0
LINE
  8
ValleyLine
  6
CONTINUOUS
 62
5
 10
-126.50617646522961
 20
-268.1829333216835
 11
-115.60176379610513
 21
-279.087345990808
  0
LINE
  8
MountainLine
  6
CONTINUOUS
 62
1
 10
-126.50617646522961
 20
-268.1829333216835
 11
-279.087345990808
 21
-115.60176379610512
  0
LINE
  8
ValleyLine
  6
CONTINUOUS
 62
5
 10
-161.70867812953028
 20
-320.924197490722
 11
-141.35989644560837
 21
-341.2729791746439
  0
LINE
  8
MountainLine
  6
CONTINUOUS
 62
1
 10
-161.70867812953028
 20
-320.924197490722
 11
-341.2729791746439
 21
-141.3598964456083
  0
LINE
  8
ValleyLine
  6
CONTINUOUS
 62
5
 10
-198.7589246416392
 20
-364.1243996863104
 11
-164.86470867882971
 21
-398.01861564911997
  0
LINE
  8
MountainLine
  6
CONTINUOUS
 62
1
 10
-198.7589246416392
 20
-364.1243996863104
 11
-398.01861564911997
 21
-164.86470867882966
  0
LINE
  8
ValleyLine
  6
CONTINUOUS
 62
5
 10
-238.93374917105626
 20
-398.49093273688567
 11
-186.69736683515825
 21
-450.72731507278377
  0
LINE
  8
MountainLine
  6
CONTINUOUS
 62
1
 10
-238.93374917105626
 20
-398.49093273688567
 11
-450.72731507278377
 21
-186.69736683515814
  0
LINE
  8
ValleyLine
  6
CONTINUOUS
 62
5
 10
-285.42966277679517
 20
-426.65086736039876
 11
-208.5635585262724
 21
-503.5169716109216
  0
LINE
  8
MountainLine
  6
CONTINUOUS
 62
1
 10
-285.42966277679517
 20
-426.65086736039876
 11
-503.5169716109216
 21
-208.56355852627237
  0
LINE
  8
ValleyLine
  6
CONTINUOUS
 62
5
 10
-340.13446450596035
 20
-454.0225327185438
 11
-232.60319916031108
 21
-561.5537980641931
  0
LINE
  8
MountainLine
  6
CONTINUOUS
 62
1
 10
-340.13446450596035
 20
-454.0225327185438
 11
-561.5537980641931
 21
-232.60319916031096
  0
LINE
  8
ValleyLine
  6
CONTINUOUS
 62
5
 10
-400.73155932252604
 20
-481.8198638898854
 11
-258.49332711307676
 21
-624.0580960993346
  0
LINE
  8
MountainLine
  6
CONTINUOUS
 62
1
 10
-400.73155932252604
 20
-481.8198638898854
 11
-624.0580960993348
 21
-258.49332711307665
  0
LINE
  8
ValleyLine
  6
CONTINUOUS
 62
5
 10
-466.33049741751927
 20
-510.405179815789
 11
-286.0792564348011
 21
-690.6564207985072
  0
LINE
  8
MountainLine
  6
CONTINUOUS
 62
1
 10
-466.33049741751927
 20
-510.405179815789
 11
-690.6564207985072
 21
-286.079256434801
  0
LINE
  8
MountainLine
  6
CONTINUOUS
 62
1
 10
-535.6210851997997
 20
-539.7210556554527
 11
-314.960420960844
 21
-760.3817198944084
  0
LINE
  8
ValleyLine
  6
CONTINUOUS
 62
5
 10
-535.6210851997997
 20
-539.7210556554527
 11
-760.3817198944087
 21
-314.96042096084386
  0
LINE
  8
MountainLine
  6
CONTINUOUS
 62
1
 10
-600.1800092738644
 20
-567.2663575604277
 11
-341.93712417416646
 21
-825.5092426601256
  0
LINE
  8
ValleyLine
  6
CONTINUOUS
 62
5
 10
-600.1800092738644
 20
-567.2663575604277
 11
-825.5092426601256
 21
-341.93712417416634
  0
LINE
  8
MountainLine
  6
CONTINUOUS
 62
1
 10
-652.6797306535515
 20
-591.6357260916066
 11
-364.4515593454208
 21
-879.8638973997373
  0
LINE
  8
ValleyLine
  6
CONTINUOUS
 62
5
 10
-652.6797306535515
 20
-591.6357260916066
 11
-879.8638973997374
 21
-364.45155934542055
  0
LINE
  8
MountainLine
  6
CONTINUOUS
 62
1
 10
-696.869656453802
 20
-616.5785683639306
 11
-384.70007831168084
 21
-928.7481465060516
  0
LINE
  8
ValleyLine
  6
CONTINUOUS
 62
5
 10
-696.869656453802
 20
-616.5785683639306
 11
-928.7481465060516
 21
-384.70007831168084
  0
LINE
  8
MountainLine
  6
CONTINUOUS
 62
1
 10
-738.2114359572558
 20
-647.5565336600392
 11
-405.8820411497922
 21
-979.8859284675029
  0
LINE
  8
ValleyLine
  6
CONTINUOUS
 62
5
 10
-738.2114359572558
 20
-647.5565336600392
 11
-979.8859284675029
 21
-405.88204114979214
  0
LINE
  8
MountainLine
  6
CONTINUOUS
 62
1
 10
-778.2030547235657
 20
-686.7509359488612
 11
-429.0750897416596
 21
-1035.8789009307673
  0
LINE
  8
ValleyLine
  6
CONTINUOUS
 62
5
 10
-778.2030547235657
 20
-686.7509359488612
 11
-1035.8789009307675
 21
-429.0750897416595
  0
LINE
  8
MountainLine
  6
CONTINUOUS
 62
1
 10
-817.537182971655
 20
-735.5377738585947
 11
-454.8851231645757
 21
-1098.189833665674
  0
LINE
  8
ValleyLine
  6
CONTINUOUS
 62
5
 10
-817.537182971655
 20
-735.5377738585947
 11
-1098.189833665674
 21
-454.88512316457553
  0
LINE
  8
MountainLine
  6
CONTINUOUS
 62
1
 10
-852.8762318769101
 20
-794.6794290202797
 11
-482.557880694503
 21
-1164.997780202687
  0
LINE
  8
ValleyLine
  6
CONTINUOUS
 62
5
 10
-852.8762318769101
 20
-794.6794290202797
 11
-1164.997780202687
 21
-482.55788069450284
  0
LINE
  8
MountainLine
  6
CONTINUOUS
 62
1
 10
-888.2908021225728
 20
-872.3464725728109
 11
-515.6787185484758
 21
-1244.958556146908
  0
LINE
  8
ValleyLine
  6
CONTINUOUS
 62
5
 10
-888.2908021225728
 20
-872.3464725728109
 11
-1244.958556146908
 21
-515.6787185484756
  0
LINE
  8
ValleyLine
  6
CONTINUOUS
 62
5
 10
-924.0761346141983
 20
-952.3203755309188
 11
-549.5838136267324
 21
-1326.8126965183844
  0
LINE
  8
MountainLine
  6
CONTINUOUS
 62
1
 10
-924.0761346141983
 20
-952.3203755309188
 11
-1326.8126965183849
 21
-549.5838136267323
  0
LINE
  8
ValleyLine
  6
CONTINUOUS
 62
5
 10
-957.0426437858687
 20
-1014.8977824378609
 11
-577.5679787450397
 21
-1394.37244747869
  0
LINE
  8
MountainLine
  6
CONTINUOUS
 62
1
 10
-957.0426437858687
 20
-1014.8977824378609
 11
-1394.37244747869
 21
-577.5679787450395
  0
LINE
  8
ValleyLine
  6
CONTINUOUS
 62
5
 10
-986.0329750247358
 20
-1056.529689248325
 11
-598.2527533671182
 21
-1444.3099109059426
  0
LINE
  8
MountainLine
  6
CONTINUOUS
 62
1
 10
-986.0329750247358
 20
-1056.529689248325
 11
-1444.3099109059426
 21
-598.252753367118
  0
LINE
  8
ValleyLine
  6
CONTINUOUS
 62
5
 10
-1013.7012890171773
 20
-1077.478607216224
 11
-612.4924109257826
 21
-1478.6874853076188
  0
LINE
  8
MountainLine
  6
CONTINUOUS
 62
1
 10
-1013.7012890171773
 20
-1077.478607216224
 11
-1478.6874853076188
 21
-612.4924109257823
  0
LINE
  8
ValleyLine
  6
CONTINUOUS
 62
5
 10
-1052.0384583327532
 20
-1097.3659094813613
 11
-629.54596382077
 21
-1519.8584039933444
  0
LINE
  8
MountainLine
  6
CONTINUOUS
 62
1
 10
-1052.0384583327532
 20
-1097.3659094813613
 11
-1519.8584039933444
 21
-629.5459638207699
  0
LINE
  8
ValleyLine
  6
CONTINUOUS
 62
5
 10
-1096.7069665297374
 20
-1119.4845801722538
 11
-649.1074756207101
 21
-1567.084071081281
  0
LINE
  8
MountainLine
  6
CONTINUOUS
 62
1
 10
-1096.7069665297374
 20
-1119.4845801722538
 11
-1567.084071081281
 21
-649.1074756207099
  0
LINE
  8
ValleyLine
  6
CONTINUOUS
 62
5
 10
-1144.6098623325609
 20
-1142.7876532411594
 11
-669.9632210422814
 21
-1617.434294531439
  0
LINE
  8
MountainLine
  6
CONTINUOUS
 62
1
 10
-1144.6098623325609
 20
-1142.7876532411594
 11
-1617.434294531439
 21
-669.9632210422811
  0
LINE
  8
ValleyLine
  6
CONTINUOUS
 62
5
 10
0.0
 20
-0.0
 11
41.87613317126402
 21
-108.56318865561403
  0
LINE
  8
ValleyLine
  6
CONTINUOUS
 62
5
 10
41.87613317126402
 20
-108.56318865561403
 11
77.39031534150911
 21
-204.54329939670623
  0
LINE
  8
ValleyLine
  6
CONTINUOUS
 62
5
 10
77.39031534150911
 20
-204.54329939670623
 11
100.18059550971624
 21
-279.087345990808
  0
LINE
  8
ValleyLine
  6
CONTINUOUS
 62
5
 10
100.18059550971624
 20
-279.087345990808
 11
112.58237341043674
 21
-341.2729791746439
  0
LINE
  8
ValleyLine
  6
CONTINUOUS
 62
5
 10
112.58237341043674
 20
-341.2729791746439
 11
116.93104877822186
 21
-398.01861564911997
  0
LINE
  8
ValleyLine
  6
CONTINUOUS
 62
5
 10
116.93104877822186
 20
-398.01861564911997
 11
112.82396648642477
 21
-450.72731507278377
  0
LINE
  8
ValleyLine
  6
CONTINUOUS
 62
5
 10
112.82396648642477
 20
-450.72731507278377
 11
99.8584714083988
 21
-503.5169716109216
  0
LINE
  8
ValleyLine
  6
CONTINUOUS
 62
5
 10
99.8584714083988
 20
-503.5169716109216
 11
80.53102532935387
 21
-561.5537980641931
  0
LINE
  8
ValleyLine
  6
CONTINUOUS
 62
5
 10
80.53102532935387
 20
-561.5537980641931
 11
57.33809003449995
 21
-624.0580960993348
  0
LINE
  8
ValleyLine
  6
CONTINUOUS
 62
5
 10
57.33809003449995
 20
-624.0580960993348
 11
31.165506802459923
 21
-690.6564207985072
  0
LINE
  8
ValleyLine
  6
CONTINUOUS
 62
5
 10
31.165506802459923
 20
-690.6564207985072
 11
2.8991169118566966
 21
-760.3817198944087
  0
LINE
  8
ValleyLine
  6
CONTINUOUS
 62
5
 10
2.8991169118566966
 20
-760.3817198944087
 11
-23.273466320183328
 21
-825.5092426601256
  0
LINE
  8
ValleyLine
  6
CONTINUOUS
 62
5
 10
-23.273466320183328
 20
-825.5092426601256
 11
-43.16462957653374
 21
-879.8638973997374
  0
LINE
  8
ValleyLine
  6
CONTINUOUS
 62
5
 10
-43.16462957653374
 20
-879.8638973997374
 11
-56.77437285719456
 21
-928.7481465060516
  0
LINE
  8
ValleyLine
  6
CONTINUOUS
 62
5
 10
-56.77437285719456
 20
-928.7481465060516
 11
-64.10269616216577
 21
-979.8859284675029
  0
LINE
  8
ValleyLine
  6
CONTINUOUS
 62
5
 10
-64.10269616216577
 20
-979.8859284675029
 11
-64.66641333947125
 21
-1035.8789009307675
  0
LINE
  8
ValleyLine
  6
CONTINUOUS
 62
5
 10
-64.66641333947125
 20
-1035.8789009307675
 11
-57.98233823713488
 21
-1098.189833665674
  0
LINE
  8
ValleyLine
  6
CONTINUOUS
 62
5
 10
-57.98233823713488
 20
-1098.189833665674
 11
-41.151353943299924
 21
-1164.997780202687
  0
LINE
  8
ValleyLine
  6
CONTINUOUS
 62
5
 10
-41.151353943299924
 20
-1164.997780202687
 11
-11.274343546109623
 21
-1244.958556146908
  0
LINE
  8
ValleyLine
  6
CONTINUOUS
 62
5
 10
-11.274343546109623
 20
-1244.958556146908
 11
19.971694281679685
 21
-1326.8126965183849
  0
LINE
  8
ValleyLine
  6
CONTINUOUS
 62
5
 10
19.971694281679685
 20
-1326.8126965183849
 11
40.90976086731169
 21
-1394.37244747869
  0
LINE
  8
ValleyLine
  6
CONTINUOUS
 62
5
 10
40.90976086731169
 20
-1394.37244747869
 11
49.84870467886997
 21
-1444.3099109059426
  0
LINE
  8
ValleyLine
  6
CONTINUOUS
 62
5
 10
49.84870467886997
 20
-1444.3099109059426
 11
45.097374184438095
 21
-1478.6874853076188
  0
LINE
  8
ValleyLine
  6
CONTINUOUS
 62
5
 10
45.097374184438095
 20
-1478.6874853076188
 11
32.05134808108276
 21
-1519.8584039933444
  0
LINE
  8
ValleyLine
  6
CONTINUOUS
 62
5
 10
32.05134808108276
 20
-1519.8584039933444
 11
16.106205065870686
 21
-1567.084071081281
  0
LINE
  8
ValleyLine
  6
CONTINUOUS
 62
5
 10
16.106205065870686
 20
-1567.084071081281
 11
-1.2884964052697614
 21
-1617.434294531439
  0
LINE
  8
ValleyLine
  6
CONTINUOUS
 62
5
 10
-1.2884964052697614
 20
-1617.434294531439
 11
-1.2884964052697614
 21
-1617.434294531439
  0
LINE
  8
ValleyLine
  6
CONTINUOUS
 62
5
 10
0.0
 20
-0.0
 11
0.0
 21
-0.0
  0
LINE
  8
MountainLine
  6
CONTINUOUS
 62
1
 10
0.0
 20
-0.0
 11
0.0
 21
-0.0
  0
LINE
  8
ValleyLine
  6
CONTINUOUS
 62
5
 10
41.87613317126402
 20
-108.56318865561403
 11
44.96834511562426
 21
-108.56318865561403
  0
LINE
  8
MountainLine
  6
CONTINUOUS
 62
1
 10
41.87613317126402
 20
-108.56318865561403
 11
-44.96834511562428
 21
-108.56318865561403
  0
LINE
  8
ValleyLine
  6
CONTINUOUS
 62
5
 10
77.39031534150911
 20
-204.54329939670623
 11
84.72460870265621
 21
-204.54329939670623
  0
LINE
  8
MountainLine
  6
CONTINUOUS
 62
1
 10
77.39031534150911
 20
-204.54329939670623
 11
-84.72460870265624
 21
-204.54329939670623
  0
LINE
  8
ValleyLine
  6
CONTINUOUS
 62
5
 10
100.18059550971624
 20
-279.087345990808
 11
115.60176379610509
 21
-279.087345990808
  0
LINE
  8
MountainLine
  6
CONTINUOUS
 62
1
 10
100.18059550971624
 20
-279.087345990808
 11
-115.60176379610513
 21
-279.087345990808
  0
LINE
  8
ValleyLine
  6
CONTINUOUS
 62
5
 10
112.58237341043674
 20
-341.2729791746439
 11
141.3598964456083
 21
-341.2729791746439
  0
LINE
  8
MountainLine
  6
CONTINUOUS
 62
1
 10
112.58237341043674
 20
-341.2729791746439
 11
-141.35989644560834
 21
-341.2729791746439
  0
LINE
  8
ValleyLine
  6
CONTINUOUS
 62
5
 10
116.93104877822186
 20
-398.01861564911997
 11
164.86470867882966
 21
-398.01861564911997
  0
LINE
  8
MountainLine
  6
CONTINUOUS
 62
1
 10
116.93104877822186
 20
-398.01861564911997
 11
-164.86470867882971
 21
-398.01861564911997
  0
LINE
  8
ValleyLine
  6
CONTINUOUS
 62
5
 10
112.82396648642477
 20
-450.72731507278377
 11
186.69736683515814
 21
-450.72731507278377
  0
LINE
  8
MountainLine
  6
CONTINUOUS
 62
1
 10
112.82396648642477
 20
-450.72731507278377
 11
-186.69736683515822
 21
-450.72731507278377
  0
LINE
  8
ValleyLine
  6
CONTINUOUS
 62
5
 10
99.8584714083988
 20
-503.5169716109216
 11
208.56355852627235
 21
-503.5169716109216
  0
LINE
  8
MountainLine
  6
CONTINUOUS
 62
1
 10
99.8584714083988
 20
-503.5169716109216
 11
-208.5635585262724
 21
-503.5169716109216
  0
LINE
  8
ValleyLine
  6
CONTINUOUS
 62
5
 10
80.53102532935387
 20
-561.5537980641931
 11
232.60319916031105
 21
-561.5537980641931
  0
LINE
  8
MountainLine
  6
CONTINUOUS
 62
1
 10
80.53102532935387
 20
-561.5537980641931
 11
-232.60319916031114
 21
-561.5537980641931
  0
LINE
  8
ValleyLine
  6
CONTINUOUS
 62
5
 10
57.33809003449995
 20
-624.0580960993348
 11
258.4933271130767
 21
-624.0580960993348
  0
LINE
  8
MountainLine
  6
CONTINUOUS
 62
1
 10
57.33809003449995
 20
-624.0580960993348
 11
-258.49332711307676
 21
-624.0580960993348
  0
LINE
  8
ValleyLine
  6
CONTINUOUS
 62
5
 10
31.165506802459923
 20
-690.6564207985072
 11
286.079256434801
 21
-690.6564207985072
  0
LINE
  8
MountainLine
  6
CONTINUOUS
 62
1
 10
31.165506802459923
 20
-690.6564207985072
 11
-286.07925643480104
 21
-690.6564207985072
  0
LINE
  8
MountainLine
  6
CONTINUOUS
 62
1
 10
2.8991169118566966
 20
-760.3817198944087
 11
314.96042096084386
 21
-760.3817198944087
  0
LINE
  8
ValleyLine
  6
CONTINUOUS
 62
5
 10
2.8991169118566966
 20
-760.3817198944087
 11
-314.9604209608439
 21
-760.3817198944087
  0
LINE
  8
MountainLine
  6
CONTINUOUS
 62
1
 10
-23.273466320183328
 20
-825.5092426601256
 11
341.93712417416634
 21
-825.5092426601256
  0
LINE
  8
ValleyLine
  6
CONTINUOUS
 62
5
 10
-23.273466320183328
 20
-825.5092426601256
 11
-341.93712417416646
 21
-825.5092426601256
  0
LINE
  8
MountainLine
  6
CONTINUOUS
 62
1
 10
-43.16462957653374
 20
-879.8638973997374
 11
364.45155934542055
 21
-879.8638973997374
  0
LINE
  8
ValleyLine
  6
CONTINUOUS
 62
5
 10
-43.16462957653374
 20
-879.8638973997374
 11
-364.4515593454207
 21
-879.8638973997374
  0
LINE
  8
MountainLine
  6
CONTINUOUS
 62
1
 10
-56.77437285719456
 20
-928.7481465060516
 11
384.7000783116808
 21
-928.7481465060516
  0
LINE
  8
ValleyLine
  6
CONTINUOUS
 62
5
 10
-56.77437285719456
 20
-928.7481465060516
 11
-384.70007831168095
 21
-928.7481465060516
  0
LINE
  8
MountainLine
  6
CONTINUOUS
 62
1
 10
-64.10269616216577
 20
-979.8859284675029
 11
405.8820411497921
 21
-979.8859284675029
  0
LINE
  8
ValleyLine
  6
CONTINUOUS
 62
5
 10
-64.10269616216577
 20
-979.8859284675029
 11
-405.8820411497922
 21
-979.8859284675029
  0
LINE
  8
MountainLine
  6
CONTINUOUS
 62
1
 10
-64.66641333947125
 20
-1035.8789009307675
 11
429.0750897416595
 21
-1035.8789009307675
  0
LINE
  8
ValleyLine
  6
CONTINUOUS
 62
5
 10
-64.66641333947125
 20
-1035.8789009307675
 11
-429.0750897416596
 21
-1035.8789009307675
  0
LINE
  8
MountainLine
  6
CONTINUOUS
 62
1
 10
-57.98233823713488
 20
-1098.189833665674
 11
454.88512316457553
 21
-1098.189833665674
  0
LINE
  8
ValleyLine
  6
CONTINUOUS
 62
5
 10
-57.98233823713488
 20
-1098.189833665674
 11
-454.88512316457565
 21
-1098.189833665674
  0
LINE
  8
MountainLine
  6
CONTINUOUS
 62
1
 10
-41.151353943299924
 20
-1164.997780202687
 11
482.55788069450284
 21
-1164.997780202687
  0
LINE
  8
ValleyLine
  6
CONTINUOUS
 62
5
 10
-41.151353943299924
 20
-1164.997780202687
 11
-482.55788069450296
 21
-1164.997780202687
  0
LINE
  8
MountainLine
  6
CONTINUOUS
 62
1
 10
-11.274343546109623
 20
-1244.958556146908
 11
515.6787185484756
 21
-1244.958556146908
  0
LINE
  8
ValleyLine
  6
CONTINUOUS
 62
5
 10
-11.274343546109623
 20
-1244.958556146908
 11
-515.6787185484757
 21
-1244.958556146908
  0
LINE
  8
ValleyLine
  6
CONTINUOUS
 62
5
 10
19.971694281679685
 20
-1326.8126965183849
 11
549.5838136267323
 21
-1326.8126965183849
  0
LINE
  8
MountainLine
  6
CONTINUOUS
 62
1
 10
19.971694281679685
 20
-1326.8126965183849
 11
-549.5838136267324
 21
-1326.8126965183849
  0
LINE
  8
ValleyLine
  6
CONTINUOUS
 62
5
 10
40.90976086731169
 20
-1394.37244747869
 11
577.5679787450395
 21
-1394.37244747869
  0
LINE
  8
MountainLine
  6
CONTINUOUS
 62
1
 10
40.90976086731169
 20
-1394.37244747869
 11
-577.5679787450396
 21
-1394.37244747869
  0
LINE
  8
ValleyLine
  6
CONTINUOUS
 62
5
 10
49.84870467886997
 20
-1444.3099109059426
 11
598.2527533671179
 21
-1444.3099109059426
  0
LINE
  8
MountainLine
  6
CONTINUOUS
 62
1
 10
49.84870467886997
 20
-1444.3099109059426
 11
-598.2527533671181
 21
-1444.3099109059426
  0
LINE
  8
ValleyLine
  6
CONTINUOUS
 62
5
 10
45.097374184438095
 20
-1478.6874853076188
 11
612.4924109257823
 21
-1478.6874853076188
  0
LINE
  8
MountainLine
  6
CONTINUOUS
 62
1
 10
45.097374184438095
 20
-1478.6874853076188
 11
-612.4924109257825
 21
-1478.6874853076188
  0
LINE
  8
ValleyLine
  6
CONTINUOUS
 62
5
 10
32.05134808108276
 20
-1519.8584039933444
 11
629.5459638207698
 21
-1519.8584039933444
  0
LINE
  8
MountainLine
  6
CONTINUOUS
 62
1
 10
32.05134808108276
 20
-1519.8584039933444
 11
-629.5459638207699
 21
-1519.8584039933444
  0
LINE
  8
ValleyLine
  6
CONTINUOUS
 62
5
 10
16.106205065870686
 20
-1567.084071081281
 11
649.1074756207098
 21
-1567.084071081281
  0
LINE
  8
MountainLine
  6
CONTINUOUS
 62
1
 10
16.106205065870686
 20
-1567.084071081281
 11
-649.10747562071
 21
-1567.084071081281
  0
LINE
  8
ValleyLine
  6
CONTINUOUS
 62
5
 10
-1.2884964052697614
 20
-1617.434294531439
 11
669.9632210422811
 21
-1617.434294531439
  0
LINE
  8
MountainLine
  6
CONTINUOUS
 62
1
 10
-1.2884964052697614
 20
-1617.434294531439
 11
-669.9632210422814
 21
-1617.434294531439
  0
LINE
  8
ValleyLine
  6
CONTINUOUS
 62
5
 10
0.0
 20
-0.0
 11
106.37666462089088
 21
-47.15486915034743
  0
LINE
  8
ValleyLine
  6
CONTINUOUS
 62
5
 10
106.37666462089088
 20
-47.15486915034743
 11
199.3571708258276
 21
-89.91073727353483
  0
LINE
  8
ValleyLine
  6
CONTINUOUS
 62
5
 10
199.3571708258276
 20
-89.91073727353483
 11
268.1829333216835
 21
-126.50617646522961
  0
LINE
  8
ValleyLine
  6
CONTINUOUS
 62
5
 10
268.1829333216835
 20
-126.50617646522961
 11
320.924197490722
 21
-161.70867812953028
  0
LINE
  8
ValleyLine
  6
CONTINUOUS
 62
5
 10
320.924197490722
 20
-161.70867812953028
 11
364.1243996863104
 21
-198.7589246416392
  0
LINE
  8
ValleyLine
  6
CONTINUOUS
 62
5
 10
364.1243996863104
 20
-198.7589246416392
 11
398.49093273688567
 21
-238.93374917105626
  0
LINE
  8
ValleyLine
  6
CONTINUOUS
 62
5
 10
398.49093273688567
 20
-238.93374917105626
 11
426.65086736039876
 21
-285.42966277679517
  0
LINE
  8
ValleyLine
  6
CONTINUOUS
 62
5
 10
426.65086736039876
 20
-285.42966277679517
 11
454.0225327185438
 21
-340.13446450596035
  0
LINE
  8
ValleyLine
  6
CONTINUOUS
 62
5
 10
454.0225327185438
 20
-340.13446450596035
 11
481.8198638898854
 21
-400.73155932252604
  0
LINE
  8
ValleyLine
  6
CONTINUOUS
 62
5
 10
481.8198638898854
 20
-400.73155932252604
 11
510.405179815789
 21
-466.33049741751927
  0
LINE
  8
ValleyLine
  6
CONTINUOUS
 62
5
 10
510.405179815789
 20
-466.33049741751927
 11
539.7210556554527
 21
-535.6210851997997
  0
LINE
  8
ValleyLine
  6
CONTINUOUS
 62
5
 10
539.7210556554527
 20
-535.6210851997997
 11
567.2663575604277
 21
-600.1800092738644
  0
LINE
  8
ValleyLine
  6
CONTINUOUS
 62
5
 10
567.2663575604277
 20
-600.1800092738644
 11
591.6357260916066
 21
-652.6797306535515
  0
LINE
  8
ValleyLine
  6
CONTINUOUS
 62
5
 10
591.6357260916066
 20
-652.6797306535515
 11
616.5785683639306
 21
-696.869656453802
  0
LINE
  8
ValleyLine
  6
CONTINUOUS
 62
5
 10
616.5785683639306
 20
-696.869656453802
 11
647.5565336600392
 21
-738.2114359572558
  0
LINE
  8
ValleyLine
  6
CONTINUOUS
 62
5
 10
647.5565336600392
 20
-738.2114359572558
 11
686.7509359488612
 21
-778.2030547235657
  0
LINE
  8
ValleyLine
  6
CONTINUOUS
 62
5
 10
686.7509359488612
 20
-778.2030547235657
 11
735.5377738585947
 21
-817.537182971655
  0
LINE
  8
ValleyLine
  6
CONTINUOUS
 62
5
 10
735.5377738585947
 20
-817.537182971655
 11
794.6794290202797
 21
-852.8762318769101
  0
LINE
  8
ValleyLine
  6
CONTINUOUS
 62
5
 10
794.6794290202797
 20
-852.8762318769101
 11
872.3464725728109
 21
-888.2908021225728
  0
LINE
  8
ValleyLine
  6
CONTINUOUS
 62
5
 10
872.3464725728109
 20
-888.2908021225728
 11
952.3203755309188
 21
-924.0761346141983
  0
LINE
  8
ValleyLine
  6
CONTINUOUS
 62
5
 10
952.3203755309188
 20
-924.0761346141983
 11
1014.8977824378609
 21
-957.0426437858687
  0
LINE
  8
ValleyLine
  6
CONTINUOUS
 62
5
 10
1014.8977824378609
 20
-957.0426437858687
 11
1056.529689248325
 21
-986.0329750247358
  0
LINE
  8
ValleyLine
  6
CONTINUOUS
 62
5
 10
1056.529689248325
 20
-986.0329750247358
 11
1077.478607216224
 21
-1013.7012890171773
  0
LINE
  8
ValleyLine
  6
CONTINUOUS
 62
5
 10
1077.478607216224
 20
-1013.7012890171773
 11
1097.3659094813613
 21
-1052.0384583327532
  0
LINE
  8
ValleyLine
  6
CONTINUOUS
 62
5
 10
1097.3659094813613
 20
-1052.0384583327532
 11
1119.4845801722538
 21
-1096.7069665297374
  0
LINE
  8
ValleyLine
  6
CONTINUOUS
 62
5
 10
1119.4845801722538
 20
-1096.7069665297374
 11
1142.7876532411594
 21
-1144.6098623325609
  0
LINE
  8
ValleyLine
  6
CONTINUOUS
 62
5
 10
1142.7876532411594
 20
-1144.6098623325609
 11
1142.7876532411594
 21
-1144.6098623325609
  0
LINE
  8
ValleyLine
  6
CONTINUOUS
 62
5
 10
0.0
 20
-0.0
 11
0.0
 21
-0.0
  0
LINE
  8
MountainLine
  6
CONTINUOUS
 62
1
 10
0.0
 20
-0.0
 11
0.0
 21
-0.0
  0
LINE
  8
ValleyLine
  6
CONTINUOUS
 62
5
 10
106.37666462089088
 20
-47.15486915034743
 11
108.56318865561403
 21
-44.96834511562428
  0
LINE
  8
MountainLine
  6
CONTINUOUS
 62
1
 10
106.37666462089088
 20
-47.15486915034743
 11
44.96834511562426
 21
-108.56318865561403
  0
LINE
  8
ValleyLine
  6
CONTINUOUS
 62
5
 10
199.3571708258276
 20
-89.91073727353483
 11
204.54329939670623
 21
-84.72460870265627
  0
LINE
  8
MountainLine
  6
CONTINUOUS
 62
1
 10
199.3571708258276
 20
-89.91073727353483
 11
84.72460870265621
 21
-204.54329939670623
  0
LINE
  8
ValleyLine
  6
CONTINUOUS
 62
5
 10
268.1829333216835
 20
-126.50617646522961
 11
279.087345990808
 21
-115.60176379610513
  0
LINE
  8
MountainLine
  6
CONTINUOUS
 62
1
 10
268.1829333216835
 20
-126.50617646522961
 11
115.60176379610512
 21
-279.087345990808
  0
LINE
  8
ValleyLine
  6
CONTINUOUS
 62
5
 10
320.924197490722
 20
-161.70867812953028
 11
341.2729791746439
 21
-141.35989644560837
  0
LINE
  8
MountainLine
  6
CONTINUOUS
 62
1
 10
320.924197490722
 20
-161.70867812953028
 11
141.3598964456083
 21
-341.2729791746439
  0
LINE
  8
ValleyLine
  6
CONTINUOUS
 62
5
 10
364.1243996863104
 20
-198.7589246416392
 11
398.01861564911997
 21
-164.86470867882971
  0
LINE
  8
MountainLine
  6
CONTINUOUS
 62
1
 10
364.1243996863104
 20
-198.7589246416392
 11
164.86470867882966
 21
-398.01861564911997
  0
LINE
  8
ValleyLine
  6
CONTINUOUS
 62
5
 10
398.49093273688567
 20
-238.93374917105626
 11
450.72731507278377
 21
-186.69736683515825
  0
LINE
  8
MountainLine
  6
CONTINUOUS
 62
1
 10
398.49093273688567
 20
-238.93374917105626
 11
186.69736683515814
 21
-450.72731507278377
  0
LINE
  8
ValleyLine
  6
CONTINUOUS
 62
5
 10
426.65086736039876
 20
-285.42966277679517
 11
503.5169716109216
 21
-208.5635585262724
  0
LINE
  8
MountainLine
  6
CONTINUOUS
 62
1
 10
426.65086736039876
 20
-285.42966277679517
 11
208.56355852627237
 21
-503.5169716109216
  0
LINE
  8
ValleyLine
  6
CONTINUOUS
 62
5
 10
454.0225327185438
 20
-340.13446450596035
 11
561.5537980641931
 21
-232.60319916031108
  0
LINE
  8
MountainLine
  6
CONTINUOUS
 62
1
 10
454.0225327185438
 20
-340.13446450596035
 11
232.60319916031096
 21
-561.5537980641931
  0
LINE
  8
ValleyLine
  6
CONTINUOUS
 62
5
 10
481.8198638898854
 20
-400.73155932252604
 11
624.0580960993346
 21
-258.49332711307676
  0
LINE
  8
MountainLine
  6
CONTINUOUS
 62
1
 10
481.8198638898854
 20
-400.73155932252604
 11
258.49332711307665
 21
-624.0580960993348
  0
LINE
  8
ValleyLine
  6
CONTINUOUS
 62
5
 10
510.405179815789
 20
-466.33049741751927
 11
690.6564207985072
 21
-286.0792564348011
  0
LINE
  8
MountainLine
  6
CONTINUOUS
 62
1
 10
510.405179815789
 20
-466.33049741751927
 11
286.079256434801
 21
-690.6564207985072
  0
LINE
  8
MountainLine
  6
CONTINUOUS
 62
1
 10
539.7210556554527
 20
-535.6210851997997
 11
760.3817198944084
 21
-314.960420960844
  0
LINE
  8
ValleyLine
  6
CONTINUOUS
 62
5
 10
539.7210556554527
 20
-535.6210851997997
 11
314.96042096084386
 21
-760.3817198944087
  0
LINE
  8
MountainLine
  6
CONTINUOUS
 62
1
 10
567.2663575604277
 20
-600.1800092738644
 11
825.5092426601256
 21
-341.93712417416646
  0
LINE
  8
ValleyLine
  6
CONTINUOUS
 62
5
 10
567.2663575604277
 20
-600.1800092738644
 11
341.93712417416634
 21
-825.5092426601256
  0
LINE
  8
MountainLine
  6
CONTINUOUS
 62
1
 10
591.6357260916066
 20
-652.6797306535515
 11
879.8638973997373
 21
-364.4515593454208
  0
LINE
  8
ValleyLine
  6
CONTINUOUS
 62
5
 10
591.6357260916066
 20
-652.6797306535515
 11
364.45155934542055
 21
-879.8638973997374
  0
LINE
  8
MountainLine
  6
CONTINUOUS
 62
1
 10
616.5785683639306
 20
-696.869656453802
 11
928.7481465060516
 21
-384.70007831168084
  0
LINE
  8
ValleyLine
  6
CONTINUOUS
 62
5
 10
616.5785683639306
 20
-696.869656453802
 11
384.70007831168084
 21
-928.7481465060516
  0
LINE
  8
MountainLine
  6
CONTINUOUS
 62
1
 10
647.5565336600392
 20
-738.2114359572558
 11
979.8859284675029
 21
-405.8820411497922
  0
LINE
  8
ValleyLine
  6
CONTINUOUS
 62
5
 10
647.5565336600392
 20
-738.2114359572558
 11
405.88204114979214
 21
-979.8859284675029
  0
LINE
  8
MountainLine
  6
CONTINUOUS
 62
1
 10
686.7509359488612
 20
-778.2030547235657
 11
1035.8789009307673
 21
-429.0750897416596
  0
LINE
  8
ValleyLine
  6
CONTINUOUS
 62
5
 10
686.7509359488612
 20
-778.2030547235657
 11
429.0750897416595
 21
-1035.8789009307675
  0
LINE
  8
MountainLine
  6
CONTINUOUS
 62
1
 10
735.5377738585947
 20
-817.537182971655
 11
1098.189833665674
 21
-454.8851231645757
  0
LINE
  8
ValleyLine
  6
CONTINUOUS
 62
5
 10
735.5377738585947
 20
-817.537182971655
 11
454.88512316457553
 21
-1098.189833665674
  0
LINE
  8
MountainLine
  6
CONTINUOUS
 62
1
 10
794.6794290202797
 20
-852.8762318769101
 11
1164.997780202687
 21
-482.557880694503
  0
LINE
  8
ValleyLine
  6
CONTINUOUS
 62
5
 10
794.6794290202797
 20
-852.8762318769101
 11
482.55788069450284
 21
-1164.997780202687
  0
LINE
  8
MountainLine
  6
CONTINUOUS
 62
1
 10
872.3464725728109
 20
-888.2908021225728
 11
1244.958556146908
 21
-515.6787185484758
  0
LINE
  8
ValleyLine
  6
CONTINUOUS
 62
5
 10
872.3464725728109
 20
-888.2908021225728
 11
515.6787185484756
 21
-1244.958556146908
  0
LINE
  8
ValleyLine
  6
CONTINUOUS
 62
5
 10
952.3203755309188
 20
-924.0761346141983
 11
1326.8126965183844
 21
-549.5838136267324
  0
LINE
  8
MountainLine
  6
CONTINUOUS
 62
1
 10
952.3203755309188
 20
-924.0761346141983
 11
549.5838136267323
 21
-1326.8126965183849
  0
LINE
  8
ValleyLine
  6
CONTINUOUS
 62
5
 10
1014.8977824378609
 20
-957.0426437858687
 11
1394.37244747869
 21
-577.5679787450397
  0
LINE
  8
MountainLine
  6
CONTINUOUS
 62
1
 10
1014.8977824378609
 20
-957.0426437858687
 11
577.5679787450395
 21
-1394.37244747869
  0
LINE
  8
ValleyLine
  6
CONTINUOUS
 62
5
 10
1056.529689248325
 20
-986.0329750247358
 11
1444.3099109059426
 21
-598.2527533671182
  0
LINE
  8
MountainLine
  6
CONTINUOUS
 62
1
 10
1056.529689248325
 20
-986.0329750247358
 11
598.252753367118
 21
-1444.3099109059426
  0
LINE
  8
ValleyLine
  6
CONTINUOUS
 62
5
 10
1077.478607216224
 20
-1013.7012890171773
 11
1478.6874853076188
 21
-612.4924109257826
  0
LINE
  8
MountainLine
  6
CONTINUOUS
 62
1
 10
1077.478607216224
 20
-1013.7012890171773
 11
612.4924109257823
 21
-1478.6874853076188
  0
LINE
  8
ValleyLine
  6
CONTINUOUS
 62
5
 10
1097.3659094813613
 20
-1052.0384583327532
 11
1519.8584039933444
 21
-629.54596382077
  0
LINE
  8
MountainLine
  6
CONTINUOUS
 62
1
 10
1097.3659094813613
 20
-1052.0384583327532
 11
629.5459638207699
 21
-1519.8584039933444
  0
LINE
  8
ValleyLine
  6
CONTINUOUS
 62
5
 10
1119.4845801722538
 20
-1096.7069665297374
 11
1567.084071081281
 21
-649.1074756207101
  0
LINE
  8
MountainLine
  6
CONTINUOUS
 62
1
 10
1119.4845801722538
 20
-1096.7069665297374
 11
649.1074756207099
 21
-1567.084071081281
  0
LINE
  8
ValleyLine
  6
CONTINUOUS
 62
5
 10
1142.7876532411594
 20
-1144.6098623325609
 11
1617.434294531439
 21
-669.9632210422814
  0
LINE
  8
MountainLine
  6
CONTINUOUS
 62
1
 10
1142.7876532411594
 20
-1144.6098623325609
 11
669.9632210422811
 21
-1617.434294531439
  0
LINE
  8
ValleyLine
  6
CONTINUOUS
 62
5
 10
0.0
 20
-0.0
 11
108.56318865561403
 21
41.87613317126402
  0
LINE
  8
ValleyLine
  6
CONTINUOUS
 62
5
 10
108.56318865561403
 20
41.87613317126402
 11
204.54329939670623
 21
77.3903153415091
  0
LINE
  8
ValleyLine
  6
CONTINUOUS
 62
5
 10
204.54329939670623
 20
77.3903153415091
 11
279.087345990808
 21
100.18059550971623
  0
LINE
  8
ValleyLine
  6
CONTINUOUS
 62
5
 10
279.087345990808
 20
100.18059550971623
 11
341.2729791746439
 21
112.58237341043672
  0
LINE
  8
ValleyLine
  6
CONTINUOUS
 62
5
 10
341.2729791746439
 20
112.58237341043672
 11
398.01861564911997
 21
116.93104877822182
  0
LINE
  8
ValleyLine
  6
CONTINUOUS
 62
5
 10
398.01861564911997
 20
116.93104877822182
 11
450.72731507278377
 21
112.82396648642475
  0
LINE
  8
ValleyLine
  6
CONTINUOUS
 62
5
 10
450.72731507278377
 20
112.82396648642475
 11
503.5169716109216
 21
99.85847140839878
  0
LINE
  8
ValleyLine
  6
CONTINUOUS
 62
5
 10
503.5169716109216
 20
99.85847140839878
 11
561.5537980641931
 21
80.53102532935382
  0
LINE
  8
ValleyLine
  6
CONTINUOUS
 62
5
 10
561.5537980641931
 20
80.53102532935382
 11
624.0580960993348
 21
57.338090034499906
  0
LINE
  8
ValleyLine
  6
CONTINUOUS
 62
5
 10
624.0580960993348
 20
57.338090034499906
 11
690.6564207985072
 21
31.165506802459877
  0
LINE
  8
ValleyLine
  6
CONTINUOUS
 62
5
 10
690.6564207985072
 20
31.165506802459877
 11
760.3817198944087
 21
2.89911691185665
  0
LINE
  8
ValleyLine
  6
CONTINUOUS
 62
5
 10
760.3817198944087
 20
2.89911691185665
 11
825.5092426601256
 21
-23.27346632018338
  0
LINE
  8
ValleyLine
  6
CONTINUOUS
 62
5
 10
825.5092426601256
 20
-23.27346632018338
 11
879.8638973997374
 21
-43.1646295765338
  0
LINE
  8
ValleyLine
  6
CONTINUOUS
 62
5
 10
879.8638973997374
 20
-43.1646295765338
 11
928.7481465060516
 21
-56.77437285719462
  0
LINE
  8
ValleyLine
  6
CONTINUOUS
 62
5
 10
928.7481465060516
 20
-56.77437285719462
 11
979.8859284675029
 21
-64.10269616216583
  0
LINE
  8
ValleyLine
  6
CONTINUOUS
 62
5
 10
979.8859284675029
 20
-64.10269616216583
 11
1035.8789009307675
 21
-64.66641333947132
  0
LINE
  8
ValleyLine
  6
CONTINUOUS
 62
5
 10
1035.8789009307675
 20
-64.66641333947132
 11
1098.189833665674
 21
-57.982338237134954
  0
LINE
  8
ValleyLine
  6
CONTINUOUS
 62
5
 10
1098.189833665674
 20
-57.982338237134954
 11
1164.997780202687
 21
-41.151353943299995
  0
LINE
  8
ValleyLine
  6
CONTINUOUS
 62
5
 10
1164.997780202687
 20
-41.151353943299995
 11
1244.958556146908
 21
-11.2743435461097
  0
LINE
  8
ValleyLine
  6
CONTINUOUS
 62
5
 10
1244.958556146908
 20
-11.2743435461097
 11
1326.8126965183849
 21
19.971694281679603
  0
LINE
  8
ValleyLine
  6
CONTINUOUS
 62
5
 10
1326.8126965183849
 20
19.971694281679603
 11
1394.37244747869
 21
40.90976086731161
  0
LINE
  8
ValleyLine
  6
CONTINUOUS
 62
5
 10
1394.37244747869
 20
40.90976086731161
 11
1444.3099109059426
 21
49.848704678869886
  0
LINE
  8
ValleyLine
  6
CONTINUOUS
 62
5
 10
1444.3099109059426
 20
49.848704678869886
 11
1478.6874853076188
 21
45.097374184438
  0
LINE
  8
ValleyLine
  6
CONTINUOUS
 62
5
 10
1478.6874853076188
 20
45.097374184438
 11
1519.8584039933444
 21
32.05134808108267
  0
LINE
  8
ValleyLine
  6
CONTINUOUS
 62
5
 10
1519.8584039933444
 20
32.05134808108267
 11
1567.084071081281
 21
16.10620506587059
  0
LINE
  8
ValleyLine
  6
CONTINUOUS
 62
5
 10
1567.084071081281
 20
16.10620506587059
 11
1617.434294531439
 21
-1.2884964052698606
  0
LINE
  8
ValleyLine
  6
CONTINUOUS
 62
5
 10
1617.434294531439
 20
-1.2884964052698606
 11
1617.434294531439
 21
-1.2884964052698606
  0
LINE
  8
ValleyLine
  6
CONTINUOUS
 62
5
 10
0.0
 20
-0.0
 11
0.0
 21
-0.0
  0
LINE
  8
MountainLine
  6
CONTINUOUS
 62
1
 10
0.0
 20
-0.0
 11
0.0
 21
-0.0
  0
LINE
  8
ValleyLine
  6
CONTINUOUS
 62
5
 10
108.56318865561403
 20
41.87613317126402
 11
108.56318865561403
 21
44.96834511562426
  0
LINE
  8
MountainLine
  6
CONTINUOUS
 62
1
 10
108.56318865561403
 20
41.87613317126402
 11
108.56318865561403
 21
-44.96834511562428
  0
LINE
  8
ValleyLine
  6
CONTINUOUS
 62
5
 10
204.54329939670623
 20
77.3903153415091
 11
204.54329939670623
 21
84.72460870265621
  0
LINE
  8
MountainLine
  6
CONTINUOUS
 62
1
 10
204.54329939670623
 20
77.3903153415091
 11
204.54329939670623
 21
-84.72460870265624
  0
LINE
  8
ValleyLine
  6
CONTINUOUS
 62
5
 10
279.087345990808
 20
100.18059550971623
 11
279.087345990808
 21
115.60176379610508
  0
LINE
  8
MountainLine
  6
CONTINUOUS
 62
1
 10
279.087345990808
 20
100.18059550971623
 11
279.087345990808
 21
-115.60176379610515
  0
LINE
  8
ValleyLine
  6
CONTINUOUS
 62
5
 10
341.2729791746439
 20
112.58237341043672
 11
341.2729791746439
 21
141.35989644560829
  0
LINE
  8
MountainLine
  6
CONTINUOUS
 62
1
 10
341.2729791746439
 20
112.58237341043672
 11
341.2729791746439
 21
-141.35989644560834
  0
LINE
  8
ValleyLine
  6
CONTINUOUS
 62
5
 10
398.01861564911997
 20
116.93104877822182
 11
398.01861564911997
 21
164.86470867882966
  0
LINE
  8
MountainLine
  6
CONTINUOUS
 62
1
 10
398.01861564911997
 20
116.93104877822182
 11
398.01861564911997
 21
-164.86470867882971
  0
LINE
  8
ValleyLine
  6
CONTINUOUS
 62
5
 10
450.72731507278377
 20
112.82396648642475
 11
450.72731507278377
 21
186.6973668351581
  0
LINE
  8
MountainLine
  6
CONTINUOUS
 62
1
 10
450.72731507278377
 20
112.82396648642475
 11
450.72731507278377
 21
-186.69736683515825
  0
LINE
  8
ValleyLine
  6
CONTINUOUS
 62
5
 10
503.5169716109216
 20
99.85847140839878
 11
503.5169716109216
 21
208.56355852627232
  0
LINE
  8
MountainLine
  6
CONTINUOUS
 62
1
 10
503.5169716109216
 20
99.85847140839878
 11
503.5169716109216
 21
-208.56355852627246
  0
LINE
  8
ValleyLine
  6
CONTINUOUS
 62
5
 10
561.5537980641931
 20
80.53102532935382
 11
561.5537980641931
 21
232.60319916031102
  0
LINE
  8
MountainLine
  6
CONTINUOUS
 62
1
 10
561.5537980641931
 20
80.53102532935382
 11
561.5537980641931
 21
-232.60319916031116
  0
LINE
  8
ValleyLine
  6
CONTINUOUS
 62
5
 10
624.0580960993348
 20
57.338090034499906
 11
624.0580960993348
 21
258.49332711307665
  0
LINE
  8
MountainLine
  6
CONTINUOUS
 62
1
 10
624.0580960993348
 20
57.338090034499906
 11
624.0580960993348
 21
-258.4933271130768
  0
LINE
  8
ValleyLine
  6
CONTINUOUS
 62
5
 10
690.6564207985072
 20
31.165506802459877
 11
690.6564207985072
 21
286.0792564348009
  0
LINE
  8
MountainLine
  6
CONTINUOUS
 62
1
 10
690.6564207985072
 20
31.165506802459877
 11
690.6564207985072
 21
-286.0792564348011
  0
LINE
  8
MountainLine
  6
CONTINUOUS
 62
1
 10
760.3817198944087
 20
2.89911691185665
 11
760.3817198944087
 21
314.9604209608438
  0
LINE
  8
ValleyLine
  6
CONTINUOUS
 62
5
 10
760.3817198944087
 20
2.89911691185665
 11
760.3817198944087
 21
-314.960420960844
  0
LINE
  8
MountainLine
  6
CONTINUOUS
 62
1
 10
825.5092426601256
 20
-23.27346632018338
 11
825.5092426601256
 21
341.93712417416634
  0
LINE
  8
ValleyLine
  6
CONTINUOUS
 62
5
 10
825.5092426601256
 20
-23.27346632018338
 11
825.5092426601256
 21
-341.93712417416646
  0
LINE
  8
MountainLine
  6
CONTINUOUS
 62
1
 10
879.8638973997374
 20
-43.1646295765338
 11
879.8638973997374
 21
364.4515593454205
  0
LINE
  8
ValleyLine
  6
CONTINUOUS
 62
5
 10
879.8638973997374
 20
-43.1646295765338
 11
879.8638973997374
 21
-364.4515593454208
  0
LINE
  8
MountainLine
  6
CONTINUOUS
 62
1
 10
928.7481465060516
 20
-56.77437285719462
 11
928.7481465060516
 21
384.7000783116807
  0
LINE
  8
ValleyLine
  6
CONTINUOUS
 62
5
 10
928.7481465060516
 20
-56.77437285719462
 11
928.7481465060516
 21
-384.700078311681
  0
LINE
  8
MountainLine
  6
CONTINUOUS
 62
1
 10
979.8859284675029
 20
-64.10269616216583
 11
979.8859284675029
 21
405.88204114979203
  0
LINE
  8
ValleyLine
  6
CONTINUOUS
 62
5
 10
979.8859284675029
 20
-64.10269616216583
 11
979.8859284675029
 21
-405.8820411497923
  0
LINE
  8
MountainLine
  6
CONTINUOUS
 62
1
 10
1035.8789009307675
 20
-64.66641333947132
 11
1035.8789009307675
 21
429.0750897416594
  0
LINE
  8
ValleyLine
  6
CONTINUOUS
 62
5
 10
1035.8789009307675
 20
-64.66641333947132
 11
1035.8789009307675
 21
-429.07508974165967
  0
LINE
  8
MountainLine
  6
CONTINUOUS
 62
1
 10
1098.189833665674
 20
-57.982338237134954
 11
1098.189833665674
 21
454.8851231645754
  0
LINE
  8
ValleyLine
  6
CONTINUOUS
 62
5
 10
1098.189833665674
 20
-57.982338237134954
 11
1098.189833665674
 21
-454.8851231645757
  0
LINE
  8
MountainLine
  6
CONTINUOUS
 62
1
 10
1164.997780202687
 20
-41.151353943299995
 11
1164.997780202687
 21
482.5578806945027
  0
LINE
  8
ValleyLine
  6
CONTINUOUS
 62
5
 10
1164.997780202687
 20
-41.151353943299995
 11
1164.997780202687
 21
-482.557880694503
  0
LINE
  8
MountainLine
  6
CONTINUOUS
 62
1
 10
1244.958556146908
 20
-11.2743435461097
 11
1244.958556146908
 21
515.6787185484754
  0
LINE
  8
ValleyLine
  6
CONTINUOUS
 62
5
 10
1244.958556146908
 20
-11.2743435461097
 11
1244.958556146908
 21
-515.6787185484758
  0
LINE
  8
ValleyLine
  6
CONTINUOUS
 62
5
 10
1326.8126965183849
 20
19.971694281679603
 11
1326.8126965183849
 21
549.5838136267323
  0
LINE
  8
MountainLine
  6
CONTINUOUS
 62
1
 10
1326.8126965183849
 20
19.971694281679603
 11
1326.8126965183849
 21
-549.5838136267325
  0
LINE
  8
ValleyLine
  6
CONTINUOUS
 62
5
 10
1394.37244747869
 20
40.90976086731161
 11
1394.37244747869
 21
577.5679787450393
  0
LINE
  8
MountainLine
  6
CONTINUOUS
 62
1
 10
1394.37244747869
 20
40.90976086731161
 11
1394.37244747869
 21
-577.5679787450397
  0
LINE
  8
ValleyLine
  6
CONTINUOUS
 62
5
 10
1444.3099109059426
 20
49.848704678869886
 11
1444.3099109059426
 21
598.2527533671179
  0
LINE
  8
MountainLine
  6
CONTINUOUS
 62
1
 10
1444.3099109059426
 20
49.848704678869886
 11
1444.3099109059426
 21
-598.2527533671181
  0
LINE
  8
ValleyLine
  6
CONTINUOUS
 62
5
 10
1478.6874853076188
 20
45.097374184438
 11
1478.6874853076188
 21
612.4924109257822
  0
LINE
  8
MountainLine
  6
CONTINUOUS
 62
1
 10
1478.6874853076188
 20
45.097374184438
 11
1478.6874853076188
 21
-612.4924109257827
  0
LINE
  8
ValleyLine
  6
CONTINUOUS
 62
5
 10
1519.8584039933444
 20
32.05134808108267
 11
1519.8584039933444
 21
629.5459638207697
  0
LINE
  8
MountainLine
  6
CONTINUOUS
 62
1
 10
1519.8584039933444
 20
32.05134808108267
 11
1519.8584039933444
 21
-629.54596382077
  0
LINE
  8
ValleyLine
  6
CONTINUOUS
 62
5
 10
1567.084071081281
 20
16.10620506587059
 11
1567.084071081281
 21
649.1074756207098
  0
LINE
  8
MountainLine
  6
CONTINUOUS
 62
1
 10
1567.084071081281
 20
16.10620506587059
 11
1567.084071081281
 21
-649.10747562071
  0
LINE
  8
ValleyLine
  6
CONTINUOUS
 62
5
 10
1617.434294531439
 20
-1.2884964052698606
 11
1617.434294531439
 21
669.9632210422811
  0
LINE
  8
MountainLine
  6
CONTINUOUS
 62
1
 10
1617.434294531439
 20
-1.2884964052698606
 11
1617.434294531439
 21
-669.9632210422814
  0
LINE
  8
ValleyLine
  6
CONTINUOUS
 62
5
 10
0.0
 20
0.0
 11
47.15486915034745
 21
106.37666462089088
  0
LINE
  8
ValleyLine
  6
CONTINUOUS
 62
5
 10
47.15486915034745
 20
106.37666462089088
 11
89.91073727353488
 21
199.3571708258276
  0
LINE
  8
ValleyLine
  6
CONTINUOUS
 62
5
 10
89.91073727353488
 20
199.3571708258276
 11
126.50617646522966
 21
268.18293332168355
  0
LINE
  8
ValleyLine
  6
CONTINUOUS
 62
5
 10
126.50617646522966
 20
268.18293332168355
 11
161.70867812953028
 21
320.924197490722
  0
LINE
  8
ValleyLine
  6
CONTINUOUS
 62
5
 10
161.70867812953028
 20
320.924197490722
 11
198.75892464163925
 21
364.12439968631054
  0
LINE
  8
ValleyLine
  6
CONTINUOUS
 62
5
 10
198.75892464163925
 20
364.12439968631054
 11
238.93374917105626
 21
398.4909327368857
  0
LINE
  8
ValleyLine
  6
CONTINUOUS
 62
5
 10
238.93374917105626
 20
398.4909327368857
 11
285.4296627767953
 21
426.65086736039876
  0
LINE
  8
ValleyLine
  6
CONTINUOUS
 62
5
 10
285.4296627767953
 20
426.65086736039876
 11
340.1344645059604
 21
454.0225327185438
  0
LINE
  8
ValleyLine
  6
CONTINUOUS
 62
5
 10
340.1344645059604
 20
454.0225327185438
 11
400.7315593225261
 21
481.8198638898854
  0
LINE
  8
ValleyLine
  6
CONTINUOUS
 62
5
 10
400.7315593225261
 20
481.8198638898854
 11
466.3304974175193
 21
510.405179815789
  0
LINE
  8
ValleyLine
  6
CONTINUOUS
 62
5
 10
466.3304974175193
 20
510.405179815789
 11
535.6210851998
 21
539.7210556554527
  0
LINE
  8
ValleyLine
  6
CONTINUOUS
 62
5
 10
535.6210851998
 20
539.7210556554527
 11
600.1800092738645
 21
567.2663575604277
  0
LINE
  8
ValleyLine
  6
CONTINUOUS
 62
5
 10
600.1800092738645
 20
567.2663575604277
 11
652.6797306535515
 21
591.6357260916066
  0
LINE
  8
ValleyLine
  6
CONTINUOUS
 62
5
 10
652.6797306535515
 20
591.6357260916066
 11
696.8696564538021
 21
616.5785683639306
  0
LINE
  8
ValleyLine
  6
CONTINUOUS
 62
5
 10
696.8696564538021
 20
616.5785683639306
 11
738.211435957256
 21
647.5565336600392
  0
LINE
  8
ValleyLine
  6
CONTINUOUS
 62
5
 10
738.211435957256
 20
647.5565336600392
 11
778.203054723566
 21
686.7509359488612
  0
LINE
  8
ValleyLine
  6
CONTINUOUS
 62
5
 10
778.203054723566
 20
686.7509359488612
 11
817.5371829716552
 21
735.5377738585947
  0
LINE
  8
ValleyLine
  6
CONTINUOUS
 62
5
 10
817.5371829716552
 20
735.5377738585947
 11
852.8762318769102
 21
794.6794290202797
  0
LINE
  8
ValleyLine
  6
CONTINUOUS
 62
5
 10
852.8762318769102
 20
794.6794290202797
 11
888.2908021225729
 21
872.3464725728109
  0
LINE
  8
ValleyLine
  6
CONTINUOUS
 62
5
 10
888.2908021225729
 20
872.3464725728109
 11
924.0761346141985
 21
952.3203755309188
  0
LINE
  8
ValleyLine
  6
CONTINUOUS
 62
5
 10
924.0761346141985
 20
952.3203755309188
 11
957.0426437858688
 21
1014.8977824378609
  0
LINE
  8
ValleyLine
  6
CONTINUOUS
 62
5
 10
957.0426437858688
 20
1014.8977824378609
 11
986.032975024736
 21
1056.529689248325
  0
LINE
  8
ValleyLine
  6
CONTINUOUS
 62
5
 10
986.032975024736
 20
1056.529689248325
 11
1013.7012890171774
 21
1077.478607216224
  0
LINE
  8
ValleyLine
  6
CONTINUOUS
 62
5
 10
1013.7012890171774
 20
1077.478607216224
 11
1052.0384583327532
 21
1097.3659094813613
  0
LINE
  8
ValleyLine
  6
CONTINUOUS
 62
5
 10
1052.0384583327532
 20
1097.3659094813613
 11
1096.7069665297374
 21
1119.4845801722538
  0
LINE
  8
ValleyLine
  6
CONTINUOUS
 62
5
 10
1096.7069665297374
 20
1119.4845801722538
 11
1144.609862332561
 21
1142.7876532411594
  0
LINE
  8
ValleyLine
  6
CONTINUOUS
 62
5
 10
1144.609862332561
 20
1142.7876532411594
 11
1144.609862332561
 21
1142.7876532411594
  0
LINE
  8
ValleyLine
  6
CONTINUOUS
 62
5
 10
0.0
 20
0.0
 11
0.0
 21
0.0
  0
LINE
  8
MountainLine
  6
CONTINUOUS
 62
1
 10
0.0
 20
0.0
 11
0.0
 21
-0.0
  0
LINE
  8
ValleyLine
  6
CONTINUOUS
 62
5
 10
47.15486915034745
 20
106.37666462089088
 11
44.96834511562428
 21
108.56318865561403
  0
LINE
  8
MountainLine
  6
CONTINUOUS
 62
1
 10
47.15486915034745
 20
106.37666462089088
 11
108.56318865561406
 21
44.96834511562426
  0
LINE
  8
ValleyLine
  6
CONTINUOUS
 62
5
 10
89.91073727353488
 20
199.3571708258276
 11
84.72460870265627
 21
204.54329939670623
  0
LINE
  8
MountainLine
  6
CONTINUOUS
 62
1
 10
89.91073727353488
 20
199.3571708258276
 11
204.54329939670626
 21
84.7246087026562
  0
LINE
  8
ValleyLine
  6
CONTINUOUS
 62
5
 10
126.50617646522966
 20
268.18293332168355
 11
115.60176379610516
 21
279.08734599080805
  0
LINE
  8
MountainLine
  6
CONTINUOUS
 62
1
 10
126.50617646522966
 20
268.18293332168355
 11
279.08734599080805
 21
115.60176379610509
  0
LINE
  8
ValleyLine
  6
CONTINUOUS
 62
5
 10
161.70867812953028
 20
320.924197490722
 11
141.3598964456084
 21
341.2729791746439
  0
LINE
  8
MountainLine
  6
CONTINUOUS
 62
1
 10
161.70867812953028
 20
320.924197490722
 11
341.272979174644
 21
141.3598964456083
  0
LINE
  8
ValleyLine
  6
CONTINUOUS
 62
5
 10
198.75892464163925
 20
364.12439968631054
 11
164.86470867882977
 21
398.01861564911997
  0
LINE
  8
MountainLine
  6
CONTINUOUS
 62
1
 10
198.75892464163925
 20
364.12439968631054
 11
398.01861564911997
 21
164.86470867882966
  0
LINE
  8
ValleyLine
  6
CONTINUOUS
 62
5
 10
238.93374917105626
 20
398.4909327368857
 11
186.69736683515825
 21
450.72731507278377
  0
LINE
  8
MountainLine
  6
CONTINUOUS
 62
1
 10
238.93374917105626
 20
398.4909327368857
 11
450.7273150727838
 21
186.6973668351581
  0
LINE
  8
ValleyLine
  6
CONTINUOUS
 62
5
 10
285.4296627767953
 20
426.65086736039876
 11
208.5635585262725
 21
503.5169716109216
  0
LINE
  8
MountainLine
  6
CONTINUOUS
 62
1
 10
285.4296627767953
 20
426.65086736039876
 11
503.5169716109216
 21
208.56355852627237
  0
LINE
  8
ValleyLine
  6
CONTINUOUS
 62
5
 10
340.1344645059604
 20
454.0225327185438
 11
232.60319916031116
 21
561.5537980641931
  0
LINE
  8
MountainLine
  6
CONTINUOUS
 62
1
 10
340.1344645059604
 20
454.0225327185438
 11
561.5537980641932
 21
232.60319916031096
  0
LINE
  8
ValleyLine
  6
CONTINUOUS
 62
5
 10
400.7315593225261
 20
481.8198638898854
 11
258.4933271130769
 21
624.0580960993348
  0
LINE
  8
MountainLine
  6
CONTINUOUS
 62
1
 10
400.7315593225261
 20
481.8198638898854
 11
624.0580960993349
 21
258.49332711307665
  0
LINE
  8
ValleyLine
  6
CONTINUOUS
 62
5
 10
466.3304974175193
 20
510.405179815789
 11
286.0792564348012
 21
690.6564207985072
  0
LINE
  8
MountainLine
  6
CONTINUOUS
 62
1
 10
466.3304974175193
 20
510.405179815789
 11
690.6564207985072
 21
286.079256434801
  0
LINE
  8
MountainLine
  6
CONTINUOUS
 62
1
 10
535.6210851998
 20
539.7210556554527
 11
314.9604209608441
 21
760.3817198944087
  0
LINE
  8
ValleyLine
  6
CONTINUOUS
 62
5
 10
535.6210851998
 20
539.7210556554527
 11
760.3817198944088
 21
314.9604209608438
  0
LINE
  8
MountainLine
  6
CONTINUOUS
 62
1
 10
600.1800092738645
 20
567.2663575604277
 11
341.93712417416646
 21
825.5092426601256
  0
LINE
  8
ValleyLine
  6
CONTINUOUS
 62
5
 10
600.1800092738645
 20
567.2663575604277
 11
825.5092426601258
 21
341.93712417416634
  0
LINE
  8
MountainLine
  6
CONTINUOUS
 62
1
 10
652.6797306535515
 20
591.6357260916066
 11
364.4515593454208
 21
879.8638973997374
  0
LINE
  8
ValleyLine
  6
CONTINUOUS
 62
5
 10
652.6797306535515
 20
591.6357260916066
 11
879.8638973997377
 21
364.4515593454205
  0
LINE
  8
MountainLine
  6
CONTINUOUS
 62
1
 10
696.8696564538021
 20
616.5785683639306
 11
384.700078311681
 21
928.7481465060516
  0
LINE
  8
ValleyLine
  6
CONTINUOUS
 62
5
 10
696.8696564538021
 20
616.5785683639306
 11
928.7481465060519
 21
384.7000783116808
  0
LINE
  8
MountainLine
  6
CONTINUOUS
 62
1
 10
738.211435957256
 20
647.5565336600392
 11
405.88204114979237
 21
979.8859284675029
  0
LINE
  8
ValleyLine
  6
CONTINUOUS
 62
5
 10
738.211435957256
 20
647.5565336600392
 11
979.8859284675029
 21
405.88204114979214
  0
LINE
  8
MountainLine
  6
CONTINUOUS
 62
1
 10
778.203054723566
 20
686.7509359488612
 11
429.0750897416598
 21
1035.8789009307675
  0
LINE
  8
ValleyLine
  6
CONTINUOUS
 62
5
 10
778.203054723566
 20
686.7509359488612
 11
1035.8789009307675
 21
429.0750897416594
  0
LINE
  8
MountainLine
  6
CONTINUOUS
 62
1
 10
817.5371829716552
 20
735.5377738585947
 11
454.8851231645759
 21
1098.189833665674
  0
LINE
  8
ValleyLine
  6
CONTINUOUS
 62
5
 10
817.5371829716552
 20
735.5377738585947
 11
1098.1898336656743
 21
454.8851231645754
  0
LINE
  8
MountainLine
  6
CONTINUOUS
 62
1
 10
852.8762318769102
 20
794.6794290202797
 11
482.5578806945032
 21
1164.997780202687
  0
LINE
  8
ValleyLine
  6
CONTINUOUS
 62
5
 10
852.8762318769102
 20
794.6794290202797
 11
1164.997780202687
 21
482.5578806945027
  0
LINE
  8
MountainLine
  6
CONTINUOUS
 62
1
 10
888.2908021225729
 20
872.3464725728109
 11
515.6787185484759
 21
1244.958556146908
  0
LINE
  8
ValleyLine
  6
CONTINUOUS
 62
5
 10
888.2908021225729
 20
872.3464725728109
 11
1244.9585561469082
 21
515.6787185484756
  0
LINE
  8
ValleyLine
  6
CONTINUOUS
 62
5
 10
924.0761346141985
 20
952.3203755309188
 11
549.5838136267328
 21
1326.8126965183849
  0
LINE
  8
MountainLine
  6
CONTINUOUS
 62
1
 10
924.0761346141985
 20
952.3203755309188
 11
1326.812696518385
 21
549.5838136267322
  0
LINE
  8
ValleyLine
  6
CONTINUOUS
 62
5
 10
957.0426437858688
 20
1014.8977824378609
 11
577.5679787450399
 21
1394.37244747869
  0
LINE
  8
MountainLine
  6
CONTINUOUS
 62
1
 10
957.0426437858688
 20
1014.8977824378609
 11
1394.3724474786902
 21
577.5679787450395
  0
LINE
  8
ValleyLine
  6
CONTINUOUS
 62
5
 10
986.032975024736
 20
1056.529689248325
 11
598.2527533671183
 21
1444.3099109059426
  0
LINE
  8
MountainLine
  6
CONTINUOUS
 62
1
 10
986.032975024736
 20
1056.529689248325
 11
1444.3099109059426
 21
598.2527533671179
  0
LINE
  8
ValleyLine
  6
CONTINUOUS
 62
5
 10
1013.7012890171774
 20
1077.478607216224
 11
612.4924109257827
 21
1478.6874853076188
  0
LINE
  8
MountainLine
  6
CONTINUOUS
 62
1
 10
1013.7012890171774
 20
1077.478607216224
 11
1478.6874853076188
 21
612.4924109257822
  0
LINE
  8
ValleyLine
  6
CONTINUOUS
 62
5
 10
1052.0384583327532
 20
1097.3659094813613
 11
629.5459638207702
 21
1519.8584039933444
  0
LINE
  8
MountainLine
  6
CONTINUOUS
 62
1
 10
1052.0384583327532
 20
1097.3659094813613
 11
1519.8584039933444
 21
629.5459638207698
  0
LINE
  8
ValleyLine
  6
CONTINUOUS
 62
5
 10
1096.7069665297374
 20
1119.4845801722538
 11
649.1074756207104
 21
1567.084071081281
  0
LINE
  8
MountainLine
  6
CONTINUOUS
 62
1
 10
1096.7069665297374
 20
1119.4845801722538
 11
1567.084071081281
 21
649.1074756207099
  0
LINE
  8
ValleyLine
  6
CONTINUOUS
 62
5
 10
1144.609862332561
 20
1142.7876532411594
 11
669.9632210422815
 21
1617.434294531439
  0
LINE
  8
MountainLine
  6
CONTINUOUS
 62
1
 10
1144.609862332561
 20
1142.7876532411594
 11
1617.4342945314395
 21
669.9632210422811
  0
LINE
  8
ValleyLine
  6
CONTINUOUS
 62
5
 10
0.0
 20
0.0
 11
-41.876133171264016
 21
108.56318865561403
  0
LINE
  8
ValleyLine
  6
CONTINUOUS
 62
5
 10
-41.876133171264016
 20
108.56318865561403
 11
-77.39031534150908
 21
204.54329939670623
  0
LINE
  8
ValleyLine
  6
CONTINUOUS
 62
5
 10
-77.39031534150908
 20
204.54329939670623
 11
-100.18059550971621
 21
279.08734599080805
  0
LINE
  8
ValleyLine
  6
CONTINUOUS
 62
5
 10
-100.18059550971621
 20
279.08734599080805
 11
-112.5823734104367
 21
341.2729791746439
  0
LINE
  8
ValleyLine
  6
CONTINUOUS
 62
5
 10
-112.5823734104367
 20
341.2729791746439
 11
-116.93104877822181
 21
398.01861564911997
  0
LINE
  8
ValleyLine
  6
CONTINUOUS
 62
5
 10
-116.93104877822181
 20
398.01861564911997
 11
-112.82396648642472
 21
450.72731507278377
  0
LINE
  8
ValleyLine
  6
CONTINUOUS
 62
5
 10
-112.82396648642472
 20
450.72731507278377
 11
-99.85847140839874
 21
503.5169716109216
  0
LINE
  8
ValleyLine
  6
CONTINUOUS
 62
5
 10
-99.85847140839874
 20
503.5169716109216
 11
-80.5310253293538
 21
561.5537980641931
  0
LINE
  8
ValleyLine
  6
CONTINUOUS
 62
5
 10
-80.5310253293538
 20
561.5537980641931
 11
-57.33809003449987
 21
624.0580960993348
  0
LINE
  8
ValleyLine
  6
CONTINUOUS
 62
5
 10
-57.33809003449987
 20
624.0580960993348
 11
-31.165506802459838
 21
690.6564207985072
  0
LINE
  8
ValleyLine
  6
CONTINUOUS
 62
5
 10
-31.165506802459838
 20
690.6564207985072
 11
-2.899116911856604
 21
760.3817198944087
  0
LINE
  8
ValleyLine
  6
CONTINUOUS
 62
5
 10
-2.899116911856604
 20
760.3817198944087
 11
23.27346632018343
 21
825.5092426601256
  0
LINE
  8
ValleyLine
  6
CONTINUOUS
 62
5
 10
23.27346632018343
 20
825.5092426601256
 11
43.16462957653385
 21
879.8638973997374
  0
LINE
  8
ValleyLine
  6
CONTINUOUS
 62
5
 10
43.16462957653385
 20
879.8638973997374
 11
56.77437285719468
 21
928.7481465060516
  0
LINE
  8
ValleyLine
  6
CONTINUOUS
 62
5
 10
56.77437285719468
 20
928.7481465060516
 11
64.1026961621659
 21
979.8859284675029
  0
LINE
  8
ValleyLine
  6
CONTINUOUS
 62
5
 10
64.1026961621659
 20
979.8859284675029
 11
64.66641333947138
 21
1035.8789009307675
  0
LINE
  8
ValleyLine
  6
CONTINUOUS
 62
5
 10
64.66641333947138
 20
1035.8789009307675
 11
57.98233823713502
 21
1098.189833665674
  0
LINE
  8
ValleyLine
  6
CONTINUOUS
 62
5
 10
57.98233823713502
 20
1098.189833665674
 11
41.151353943300066
 21
1164.997780202687
  0
LINE
  8
ValleyLine
  6
CONTINUOUS
 62
5
 10
41.151353943300066
 20
1164.997780202687
 11
11.274343546109776
 21
1244.958556146908
  0
LINE
  8
ValleyLine
  6
CONTINUOUS
 62
5
 10
11.274343546109776
 20
1244.958556146908
 11
-19.97169428167952
 21
1326.8126965183849
  0
LINE
  8
ValleyLine
  6
CONTINUOUS
 62
5
 10
-19.97169428167952
 20
1326.8126965183849
 11
-40.90976086731152
 21
1394.37244747869
  0
LINE
  8
ValleyLine
  6
CONTINUOUS
 62
5
 10
-40.90976086731152
 20
1394.37244747869
 11
-49.848704678869794
 21
1444.3099109059426
  0
LINE
  8
ValleyLine
  6
CONTINUOUS
 62
5
 10
-49.848704678869794
 20
1444.3099109059426
 11
-45.09737418443791
 21
1478.6874853076188
  0
LINE
  8
ValleyLine
  6
CONTINUOUS
 62
5
 10
-45.09737418443791
 20
1478.6874853076188
 11
-32.05134808108257
 21
1519.8584039933444
  0
LINE
  8
ValleyLine
  6
CONTINUOUS
 62
5
 10
-32.05134808108257
 20
1519.8584039933444
 11
-16.106205065870494
 21
1567.084071081281
  0
LINE
  8
ValleyLine
  6
CONTINUOUS
 62
5
 10
-16.106205065870494
 20
1567.084071081281
 11
1.2884964052699595
 21
1617.434294531439
  0
LINE
  8
ValleyLine
  6
CONTINUOUS
 62
5
 10
1.2884964052699595
 20
1617.434294531439
 11
1.2884964052699595
 21
1617.434294531439
  0
LINE
  8
ValleyLine
  6
CONTINUOUS
 62
5
 10
0.0
 20
0.0
 11
0.0
 21
0.0
  0
LINE
  8
MountainLine
  6
CONTINUOUS
 62
1
 10
0.0
 20
0.0
 11
0.0
 21
-0.0
  0
LINE
  8
ValleyLine
  6
CONTINUOUS
 62
5
 10
-41.876133171264016
 20
108.56318865561403
 11
-44.96834511562425
 21
108.56318865561403
  0
LINE
  8
MountainLine
  6
CONTINUOUS
 62
1
 10
-41.876133171264016
 20
108.56318865561403
 11
44.96834511562429
 21
108.56318865561403
  0
LINE
  8
ValleyLine
  6
CONTINUOUS
 62
5
 10
-77.39031534150908
 20
204.54329939670623
 11
-84.7246087026562
 21
204.54329939670623
  0
LINE
  8
MountainLine
  6
CONTINUOUS
 62
1
 10
-77.39031534150908
 20
204.54329939670623
 11
84.72460870265627
 21
204.54329939670623
  0
LINE
  8
ValleyLine
  6
CONTINUOUS
 62
5
 10
-100.18059550971621
 20
279.08734599080805
 11
-115.60176379610506
 21
279.08734599080805
  0
LINE
  8
MountainLine
  6
CONTINUOUS
 62
1
 10
-100.18059550971621
 20
279.08734599080805
 11
115.60176379610516
 21
279.087345990808
  0
LINE
  8
ValleyLine
  6
CONTINUOUS
 62
5
 10
-112.5823734104367
 20
341.2729791746439
 11
-141.35989644560826
 21
341.2729791746439
  0
LINE
  8
MountainLine
  6
CONTINUOUS
 62
1
 10
-112.5823734104367
 20
341.2729791746439
 11
141.35989644560837
 21
341.2729791746439
  0
LINE
  8
ValleyLine
  6
CONTINUOUS
 62
5
 10
-116.93104877822181
 20
398.01861564911997
 11
-164.86470867882963
 21
398.01861564911997
  0
LINE
  8
MountainLine
  6
CONTINUOUS
 62
1
 10
-116.93104877822181
 20
398.01861564911997
 11
164.86470867882977
 21
398.01861564911997
  0
LINE
  8
ValleyLine
  6
CONTINUOUS
 62
5
 10
-112.82396648642472
 20
450.72731507278377
 11
-186.6973668351581
 21
450.72731507278377
  0
LINE
  8
MountainLine
  6
CONTINUOUS
 62
1
 10
-112.82396648642472
 20
450.72731507278377
 11
186.69736683515825
 21
450.72731507278377
  0
LINE
  8
ValleyLine
  6
CONTINUOUS
 62
5
 10
-99.85847140839874
 20
503.5169716109216
 11
-208.56355852627226
 21
503.51697161092164
  0
LINE
  8
MountainLine
  6
CONTINUOUS
 62
1
 10
-99.85847140839874
 20
503.5169716109216
 11
208.5635585262725
 21
503.51697161092153
  0
LINE
  8
ValleyLine
  6
CONTINUOUS
 62
5
 10
-80.5310253293538
 20
561.5537980641931
 11
-232.60319916031096
 21
561.5537980641932
  0
LINE
  8
MountainLine
  6
CONTINUOUS
 62
1
 10
-80.5310253293538
 20
561.5537980641931
 11
232.6031991603112
 21
561.5537980641931
  0
LINE
  8
ValleyLine
  6
CONTINUOUS
 62
5
 10
-57.33809003449987
 20
624.0580960993348
 11
-258.49332711307665
 21
624.0580960993349
  0
LINE
  8
MountainLine
  6
CONTINUOUS
 62
1
 10
-57.33809003449987
 20
624.0580960993348
 11
258.4933271130769
 21
624.0580960993346
  0
LINE
  8
ValleyLine
  6
CONTINUOUS
 62
5
 10
-31.165506802459838
 20
690.6564207985072
 11
-286.07925643480087
 21
690.6564207985072
  0
LINE
  8
MountainLine
  6
CONTINUOUS
 62
1
 10
-31.165506802459838
 20
690.6564207985072
 11
286.07925643480115
 21
690.6564207985072
  0
LINE
  8
MountainLine
  6
CONTINUOUS
 62
1
 10
-2.899116911856604
 20
760.3817198944087
 11
-314.96042096084375
 21
760.3817198944087
  0
LINE
  8
ValleyLine
  6
CONTINUOUS
 62
5
 10
-2.899116911856604
 20
760.3817198944087
 11
314.96042096084403
 21
760.3817198944087
  0
LINE
  8
MountainLine
  6
CONTINUOUS
 62
1
 10
23.27346632018343
 20
825.5092426601256
 11
-341.93712417416623
 21
825.5092426601256
  0
LINE
  8
ValleyLine
  6
CONTINUOUS
 62
5
 10
23.27346632018343
 20
825.5092426601256
 11
341.9371241741665
 21
825.5092426601256
  0
LINE
  8
MountainLine
  6
CONTINUOUS
 62
1
 10
43.16462957653385
 20
879.8638973997374
 11
-364.4515593454205
 21
879.8638973997374
  0
LINE
  8
ValleyLine
  6
CONTINUOUS
 62
5
 10
43.16462957653385
 20
879.8638973997374
 11
364.4515593454208
 21
879.8638973997374
  0
LINE
  8
MountainLine
  6
CONTINUOUS
 62
1
 10
56.77437285719468
 20
928.7481465060516
 11
-384.7000783116807
 21
928.7481465060516
  0
LINE
  8
ValleyLine
  6
CONTINUOUS
 62
5
 10
56.77437285719468
 20
928.7481465060516
 11
384.700078311681
 21
928.7481465060516
  0
LINE
  8
MountainLine
  6
CONTINUOUS
 62
1
 10
64.1026961621659
 20
979.8859284675029
 11
-405.8820411497919
 21
979.885928467503
  0
LINE
  8
ValleyLine
  6
CONTINUOUS
 62
5
 10
64.1026961621659
 20
979.8859284675029
 11
405.88204114979237
 21
979.8859284675028
  0
LINE
  8
MountainLine
  6
CONTINUOUS
 62
1
 10
64.66641333947138
 20
1035.8789009307675
 11
-429.0750897416593
 21
1035.8789009307675
  0
LINE
  8
ValleyLine
  6
CONTINUOUS
 62
5
 10
64.66641333947138
 20
1035.8789009307675
 11
429.0750897416598
 21
1035.8789009307673
  0
LINE
  8
MountainLine
  6
CONTINUOUS
 62
1
 10
57.98233823713502
 20
1098.189833665674
 11
-454.88512316457536
 21
1098.1898336656743
  0
LINE
  8
ValleyLine
  6
CONTINUOUS
 62
5
 10
57.98233823713502
 20
1098.189833665674
 11
454.8851231645758
 21
1098.189833665674
  0
LINE
  8
MountainLine
  6
CONTINUOUS
 62
1
 10
41.151353943300066
 20
1164.997780202687
 11
-482.55788069450267
 21
1164.997780202687
  0
LINE
  8
ValleyLine
  6
CONTINUOUS
 62
5
 10
41.151353943300066
 20
1164.997780202687
 11
482.5578806945031
 21
1164.9977802026867
  0
LINE
  8
MountainLine
  6
CONTINUOUS
 62
1
 10
11.274343546109776
 20
1244.958556146908
 11
-515.6787185484754
 21
1244.9585561469082
  0
LINE
  8
ValleyLine
  6
CONTINUOUS
 62
5
 10
11.274343546109776
 20
1244.958556146908
 11
515.6787185484758
 21
1244.9585561469078
  0
LINE
  8
ValleyLine
  6
CONTINUOUS
 62
5
 10
-19.97169428167952
 20
1326.8126965183849
 11
-549.5838136267322
 21
1326.8126965183849
  0
LINE
  8
MountainLine
  6
CONTINUOUS
 62
1
 10
-19.97169428167952
 20
1326.8126965183849
 11
549.5838136267326
 21
1326.8126965183849
  0
LINE
  8
ValleyLine
  6
CONTINUOUS
 62
5
 10
-40.90976086731152
 20
1394.37244747869
 11
-577.5679787450392
 21
1394.37244747869
  0
LINE
  8
MountainLine
  6
CONTINUOUS
 62
1
 10
-40.90976086731152
 20
1394.37244747869
 11
577.5679787450398
 21
1394.37244747869
  0
LINE
  8
ValleyLine
  6
CONTINUOUS
 62
5
 10
-49.848704678869794
 20
1444.3099109059426
 11
-598.2527533671177
 21
1444.3099109059426
  0
LINE
  8
MountainLine
  6
CONTINUOUS
 62
1
 10
-49.848704678869794
 20
1444.3099109059426
 11
598.2527533671183
 21
1444.3099109059426
  0
LINE
  8
ValleyLine
  6
CONTINUOUS
 62
5
 10
-45.09737418443791
 20
1478.6874853076188
 11
-612.4924109257821
 21
1478.6874853076188
  0
LINE
  8
MountainLine
  6
CONTINUOUS
 62
1
 10
-45.09737418443791
 20
1478.6874853076188
 11
612.4924109257827
 21
1478.6874853076188
  0
LINE
  8
ValleyLine
  6
CONTINUOUS
 62
5
 10
-32.05134808108257
 20
1519.8584039933444
 11
-629.5459638207695
 21
1519.8584039933444
  0
LINE
  8
MountainLine
  6
CONTINUOUS
 62
1
 10
-32.05134808108257
 20
1519.8584039933444
 11
629.5459638207701
 21
1519.8584039933444
  0
LINE
  8
ValleyLine
  6
CONTINUOUS
 62
5
 10
-16.106205065870494
 20
1567.084071081281
 11
-649.1074756207096
 21
1567.084071081281
  0
LINE
  8
MountainLine
  6
CONTINUOUS
 62
1
 10
-16.106205065870494
 20
1567.084071081281
 11
649.1074756207101
 21
1567.084071081281
  0
LINE
  8
ValleyLine
  6
CONTINUOUS
 62
5
 10
1.2884964052699595
 20
1617.434294531439
 11
-669.9632210422809
 21
1617.434294531439
  0
LINE
  8
MountainLine
  6
CONTINUOUS
 62
1
 10
1.2884964052699595
 20
1617.434294531439
 11
669.9632210422815
 21
1617.434294531439
  0
LINE
  8
ValleyLine
  6
CONTINUOUS
 62
5
 10
0.0
 20
-0.0
 11
-106.37666462089086
 21
47.15486915034745
  0
LINE
  8
ValleyLine
  6
CONTINUOUS
 62
5
 10
-106.37666462089086
 20
47.15486915034745
 11
-199.3571708258276
 21
89.91073727353488
  0
LINE
  8
ValleyLine
  6
CONTINUOUS
 62
5
 10
-199.3571708258276
 20
89.91073727353488
 11
-268.1829333216835
 21
126.50617646522966
  0
LINE
  8
ValleyLine
  6
CONTINUOUS
 62
5
 10
-268.1829333216835
 20
126.50617646522966
 11
-320.92419749072195
 21
161.7086781295303
  0
LINE
  8
ValleyLine
  6
CONTINUOUS
 62
5
 10
-320.92419749072195
 20
161.7086781295303
 11
-364.1243996863104
 21
198.75892464163925
  0
LINE
  8
ValleyLine
  6
CONTINUOUS
 62
5
 10
-364.1243996863104
 20
198.75892464163925
 11
-398.49093273688567
 21
238.9337491710563
  0
LINE
  8
ValleyLine
  6
CONTINUOUS
 62
5
 10
-398.49093273688567
 20
238.9337491710563
 11
-426.6508673603987
 21
285.4296627767953
  0
LINE
  8
ValleyLine
  6
CONTINUOUS
 62
5
 10
-426.6508673603987
 20
285.4296627767953
 11
-454.0225327185438
 21
340.1344645059604
  0
LINE
  8
ValleyLine
  6
CONTINUOUS
 62
5
 10
-454.0225327185438
 20
340.1344645059604
 11
-481.81986388988537
 21
400.7315593225261
  0
LINE
  8
ValleyLine
  6
CONTINUOUS
 62
5
 10
-481.81986388988537
 20
400.7315593225261
 11
-510.40517981578887
 21
466.3304974175193
  0
LINE
  8
ValleyLine
  6
CONTINUOUS
 62
5
 10
-510.40517981578887
 20
466.3304974175193
 11
-539.7210556554527
 21
535.6210851998
  0
LINE
  8
ValleyLine
  6
CONTINUOUS
 62
5
 10
-539.7210556554527
 20
535.6210851998
 11
-567.2663575604275
 21
600.1800092738645
  0
LINE
  8
ValleyLine
  6
CONTINUOUS
 62
5
 10
-567.2663575604275
 20
600.1800092738645
 11
-591.6357260916066
 21
652.6797306535515
  0
LINE
  8
ValleyLine
  6
CONTINUOUS
 62
5
 10
-591.6357260916066
 20
652.6797306535515
 11
-616.5785683639305
 21
696.8696564538021
  0
LINE
  8
ValleyLine
  6
CONTINUOUS
 62
5
 10
-616.5785683639305
 20
696.8696564538021
 11
-647.5565336600391
 21
738.211435957256
  0
LINE
  8
ValleyLine
  6
CONTINUOUS
 62
5
 10
-647.5565336600391
 20
738.211435957256
 11
-686.7509359488612
 21
778.203054723566
  0
LINE
  8
ValleyLine
  6
CONTINUOUS
 62
5
 10
-686.7509359488612
 20
778.203054723566
 11
-735.5377738585945
 21
817.5371829716552
  0
LINE
  8
ValleyLine
  6
CONTINUOUS
 62
5
 10
-735.5377738585945
 20
817.5371829716552
 11
-794.6794290202795
 21
852.8762318769102
  0
LINE
  8
ValleyLine
  6
CONTINUOUS
 62
5
 10
-794.6794290202795
 20
852.8762318769102
 11
-872.3464725728107
 21
888.2908021225729
  0
LINE
  8
ValleyLine
  6
CONTINUOUS
 62
5
 10
-872.3464725728107
 20
888.2908021225729
 11
-952.3203755309187
 21
924.0761346141985
  0
LINE
  8
ValleyLine
  6
CONTINUOUS
 62
5
 10
-952.3203755309187
 20
924.0761346141985
 11
-1014.8977824378608
 21
957.0426437858688
  0
LINE
  8
ValleyLine
  6
CONTINUOUS
 62
5
 10
-1014.8977824378608
 20
957.0426437858688
 11
-1056.5296892483248
 21
986.032975024736
  0
LINE
  8
ValleyLine
  6
CONTINUOUS
 62
5
 10
-1056.5296892483248
 20
986.032975024736
 11
-1077.4786072162237
 21
1013.7012890171774
  0
LINE
  8
ValleyLine
  6
CONTINUOUS
 62
5
 10
-1077.4786072162237
 20
1013.7012890171774
 11
-1097.365909481361
 21
1052.0384583327532
  0
LINE
  8
ValleyLine
  6
CONTINUOUS
 62
5
 10
-1097.365909481361
 20
1052.0384583327532
 11
-1119.4845801722536
 21
1096.7069665297374
  0
LINE
  8
ValleyLine
  6
CONTINUOUS
 62
5
 10
-1119.4845801722536
 20
1096.7069665297374
 11
-1142.7876532411592
 21
1144.609862332561
  0
LINE
  8
ValleyLine
  6
CONTINUOUS
 62
5
 10
-1142.7876532411592
 20
1144.609862332561
 11
-1142.7876532411592
 21
1144.609862332561
  0
LINE
  8
ValleyLine
  6
CONTINUOUS
 62
5
 10
0.0
 20
-0.0
 11
0.0
 21
-0.0
  0
LINE
  8
MountainLine
  6
CONTINUOUS
 62
1
 10
0.0
 20
-0.0
 11
0.0
 21
0.0
  0
LINE
  8
ValleyLine
  6
CONTINUOUS
 62
5
 10
-106.37666462089086
 20
47.15486915034745
 11
-108.56318865561401
 21
44.96834511562429
  0
LINE
  8
MountainLine
  6
CONTINUOUS
 62
1
 10
-106.37666462089086
 20
47.15486915034745
 11
-44.96834511562424
 21
108.56318865561403
  0
LINE
  8
ValleyLine
  6
CONTINUOUS
 62
5
 10
-199.3571708258276
 20
89.91073727353488
 11
-204.5432993967062
 21
84.72460870265628
  0
LINE
  8
MountainLine
  6
CONTINUOUS
 62
1
 10
-199.3571708258276
 20
89.91073727353488
 11
-84.7246087026562
 21
204.54329939670623
  0
LINE
  8
ValleyLine
  6
CONTINUOUS
 62
5
 10
-268.1829333216835
 20
126.50617646522966
 11
-279.087345990808
 21
115.60176379610516
  0
LINE
  8
MountainLine
  6
CONTINUOUS
 62
1
 10
-268.1829333216835
 20
126.50617646522966
 11
-115.60176379610506
 21
279.08734599080805
  0
LINE
  8
ValleyLine
  6
CONTINUOUS
 62
5
 10
-320.92419749072195
 20
161.7086781295303
 11
-341.27297917464387
 21
141.35989644560843
  0
LINE
  8
MountainLine
  6
CONTINUOUS
 62
1
 10
-320.92419749072195
 20
161.7086781295303
 11
-141.35989644560826
 21
341.2729791746439
  0
LINE
  8
ValleyLine
  6
CONTINUOUS
 62
5
 10
-364.1243996863104
 20
198.75892464163925
 11
-398.01861564911997
 21
164.8647086788298
  0
LINE
  8
MountainLine
  6
CONTINUOUS
 62
1
 10
-364.1243996863104
 20
198.75892464163925
 11
-164.86470867882963
 21
398.01861564911997
  0
LINE
  8
ValleyLine
  6
CONTINUOUS
 62
5
 10
-398.49093273688567
 20
238.9337491710563
 11
-450.72731507278365
 21
186.69736683515828
  0
LINE
  8
MountainLine
  6
CONTINUOUS
 62
1
 10
-398.49093273688567
 20
238.9337491710563
 11
-186.6973668351581
 21
450.72731507278377
  0
LINE
  8
ValleyLine
  6
CONTINUOUS
 62
5
 10
-426.6508673603987
 20
285.4296627767953
 11
-503.51697161092153
 21
208.56355852627252
  0
LINE
  8
MountainLine
  6
CONTINUOUS
 62
1
 10
-426.6508673603987
 20
285.4296627767953
 11
-208.56355852627232
 21
503.5169716109216
  0
LINE
  8
ValleyLine
  6
CONTINUOUS
 62
5
 10
-454.0225327185438
 20
340.1344645059604
 11
-561.5537980641931
 21
232.6031991603112
  0
LINE
  8
MountainLine
  6
CONTINUOUS
 62
1
 10
-454.0225327185438
 20
340.1344645059604
 11
-232.60319916031096
 21
561.5537980641931
  0
LINE
  8
ValleyLine
  6
CONTINUOUS
 62
5
 10
-481.81986388988537
 20
400.7315593225261
 11
-624.0580960993346
 21
258.4933271130769
  0
LINE
  8
MountainLine
  6
CONTINUOUS
 62
1
 10
-481.81986388988537
 20
400.7315593225261
 11
-258.49332711307653
 21
624.0580960993349
  0
LINE
  8
ValleyLine
  6
CONTINUOUS
 62
5
 10
-510.40517981578887
 20
466.3304974175193
 11
-690.6564207985072
 21
286.0792564348012
  0
LINE
  8
MountainLine
  6
CONTINUOUS
 62
1
 10
-510.40517981578887
 20
466.3304974175193
 11
-286.0792564348009
 21
690.6564207985072
  0
LINE
  8
MountainLine
  6
CONTINUOUS
 62
1
 10
-539.7210556554527
 20
535.6210851998
 11
-760.3817198944084
 21
314.96042096084415
  0
LINE
  8
ValleyLine
  6
CONTINUOUS
 62
5
 10
-539.7210556554527
 20
535.6210851998
 11
-314.96042096084375
 21
760.3817198944088
  0
LINE
  8
MountainLine
  6
CONTINUOUS
 62
1
 10
-567.2663575604275
 20
600.1800092738645
 11
-825.5092426601254
 21
341.9371241741665
  0
LINE
  8
ValleyLine
  6
CONTINUOUS
 62
5
 10
-567.2663575604275
 20
600.1800092738645
 11
-341.9371241741662
 21
825.5092426601256
  0
LINE
  8
MountainLine
  6
CONTINUOUS
 62
1
 10
-591.6357260916066
 20
652.6797306535515
 11
-879.8638973997373
 21
364.45155934542083
  0
LINE
  8
ValleyLine
  6
CONTINUOUS
 62
5
 10
-591.6357260916066
 20
652.6797306535515
 11
-364.4515593454205
 21
879.8638973997377
  0
LINE
  8
MountainLine
  6
CONTINUOUS
 62
1
 10
-616.5785683639305
 20
696.8696564538021
 11
-928.7481465060516
 21
384.700078311681
  0
LINE
  8
ValleyLine
  6
CONTINUOUS
 62
5
 10
-616.5785683639305
 20
696.8696564538021
 11
-384.70007831168067
 21
928.7481465060519
  0
LINE
  8
MountainLine
  6
CONTINUOUS
 62
1
 10
-647.5565336600391
 20
738.211435957256
 11
-979.8859284675028
 21
405.8820411497924
  0
LINE
  8
ValleyLine
  6
CONTINUOUS
 62
5
 10
-647.5565336600391
 20
738.211435957256
 11
-405.88204114979203
 21
979.8859284675029
  0
LINE
  8
MountainLine
  6
CONTINUOUS
 62
1
 10
-686.7509359488612
 20
778.203054723566
 11
-1035.8789009307675
 21
429.07508974165984
  0
LINE
  8
ValleyLine
  6
CONTINUOUS
 62
5
 10
-686.7509359488612
 20
778.203054723566
 11
-429.0750897416594
 21
1035.8789009307675
  0
LINE
  8
MountainLine
  6
CONTINUOUS
 62
1
 10
-735.5377738585945
 20
817.5371829716552
 11
-1098.189833665674
 21
454.8851231645759
  0
LINE
  8
ValleyLine
  6
CONTINUOUS
 62
5
 10
-735.5377738585945
 20
817.5371829716552
 11
-454.8851231645753
 21
1098.1898336656743
  0
LINE
  8
MountainLine
  6
CONTINUOUS
 62
1
 10
-794.6794290202795
 20
852.8762318769102
 11
-1164.9977802026867
 21
482.55788069450324
  0
LINE
  8
ValleyLine
  6
CONTINUOUS
 62
5
 10
-794.6794290202795
 20
852.8762318769102
 11
-482.5578806945026
 21
1164.997780202687
  0
LINE
  8
MountainLine
  6
CONTINUOUS
 62
1
 10
-872.3464725728107
 20
888.2908021225729
 11
-1244.9585561469078
 21
515.678718548476
  0
LINE
  8
ValleyLine
  6
CONTINUOUS
 62
5
 10
-872.3464725728107
 20
888.2908021225729
 11
-515.6787185484754
 21
1244.9585561469082
  0
LINE
  8
ValleyLine
  6
CONTINUOUS
 62
5
 10
-952.3203755309187
 20
924.0761346141985
 11
-1326.8126965183844
 21
549.5838136267328
  0
LINE
  8
MountainLine
  6
CONTINUOUS
 62
1
 10
-952.3203755309187
 20
924.0761346141985
 11
-549.5838136267321
 21
1326.812696518385
  0
LINE
  8
ValleyLine
  6
CONTINUOUS
 62
5
 10
-1014.8977824378608
 20
957.0426437858688
 11
-1394.3724474786898
 21
577.5679787450399
  0
LINE
  8
MountainLine
  6
CONTINUOUS
 62
1
 10
-1014.8977824378608
 20
957.0426437858688
 11
-577.5679787450393
 21
1394.3724474786902
  0
LINE
  8
ValleyLine
  6
CONTINUOUS
 62
5
 10
-1056.5296892483248
 20
986.032975024736
 11
-1444.3099109059426
 21
598.2527533671184
  0
LINE
  8
MountainLine
  6
CONTINUOUS
 62
1
 10
-1056.5296892483248
 20
986.032975024736
 11
-598.2527533671177
 21
1444.3099109059426
  0
LINE
  8
ValleyLine
  6
CONTINUOUS
 62
5
 10
-1077.4786072162237
 20
1013.7012890171774
 11
-1478.6874853076188
 21
612.4924109257828
  0
LINE
  8
MountainLine
  6
CONTINUOUS
 62
1
 10
-1077.4786072162237
 20
1013.7012890171774
 11
-612.4924109257821
 21
1478.6874853076188
  0
LINE
  8
ValleyLine
  6
CONTINUOUS
 62
5
 10
-1097.365909481361
 20
1052.0384583327532
 11
-1519.8584039933444
 21
629.5459638207702
  0
LINE
  8
MountainLine
  6
CONTINUOUS
 62
1
 10
-1097.365909481361
 20
1052.0384583327532
 11
-629.5459638207697
 21
1519.8584039933444
  0
LINE
  8
ValleyLine
  6
CONTINUOUS
 62
5
 10
-1119.4845801722536
 20
1096.7069665297374
 11
-1567.0840710812809
 21
649.1074756207105
  0
LINE
  8
MountainLine
  6
CONTINUOUS
 62
1
 10
-1119.4845801722536
 20
1096.7069665297374
 11
-649.1074756207096
 21
1567.084071081281
  0
LINE
  8
ValleyLine
  6
CONTINUOUS
 62
5
 10
-1142.7876532411592
 20
1144.609862332561
 11
-1617.4342945314388
 21
669.9632210422817
  0
LINE
  8
MountainLine
  6
CONTINUOUS
 62
1
 10
-1142.7876532411592
 20
1144.609862332561
 11
-669.9632210422809
 21
1617.434294531439
  0
ENDSEC
  0
EOF
