<?xml version="1.0" encoding="UTF-8" standalone="no"?>
<!DOCTYPE svg PUBLIC "-//W3C//DTD SVG 1.1//EN" "http://www.w3.org/Graphics/SVG/1.1/DTD/svg11.dtd">
<svg width="100%" height="100%" viewBox="0 0 1000 1000" version="1.1" xmlns="http://www.w3.org/2000/svg" xmlns:xlink="http://www.w3.org/1999/xlink" xml:space="preserve" xmlns:serif="http://www.serif.com/" style="fill-rule:evenodd;clip-rule:evenodd;stroke-linejoin:round;stroke-miterlimit:2;">
    <path d="M580.823,537.566C586.84,539.087 987.094,705.066 994.722,708.438" style="fill:rgb(10,255,0);"/>
    <path d="M580.823,537.566C586.84,539.087 987.094,705.066 994.722,708.438" style="fill:none;stroke:rgb(242,13,13);stroke-width:2px;stroke-linecap:round;stroke-miterlimit:1.5;"/>
    <path d="M532.319,580.519C535.504,585.847 701.559,986.069 704.577,993.844" style="fill:rgb(10,255,0);"/>
    <path d="M531.461,581.032C534.645,586.358 700.628,986.434 703.644,994.206C703.844,994.72 704.424,994.976 704.938,994.776C705.453,994.576 705.708,993.996 705.509,993.482C702.49,985.704 536.364,585.336 533.177,580.006C532.894,579.532 532.28,579.378 531.806,579.661C531.332,579.944 531.177,580.559 531.461,581.032Z" style="fill:rgb(242,13,13);"/>
    <path d="M580.338,468.772C585.692,465.632 987.312,302.986 995.112,300.035" style="fill:rgb(10,255,0);"/>
    <path d="M580.843,469.634C586.196,466.496 987.669,303.92 995.466,300.97C995.982,300.775 996.242,300.197 996.047,299.681C995.852,299.165 995.274,298.904 994.758,299.099C986.955,302.052 585.188,464.768 579.832,467.909C579.356,468.188 579.196,468.801 579.475,469.278C579.754,469.754 580.367,469.914 580.843,469.634Z" style="fill:rgb(242,13,13);"/>
    <path d="M532.342,423.48C533.876,417.466 700.762,17.589 704.15,9.968" style="fill:rgb(10,255,0);"/>
    <path d="M533.311,423.727C534.845,417.715 701.677,17.992 705.064,10.375C705.288,9.87 705.061,9.279 704.556,9.055C704.052,8.83 703.461,9.058 703.236,9.562C699.847,17.185 532.908,417.216 531.373,423.233C531.237,423.767 531.56,424.312 532.095,424.449C532.629,424.585 533.174,424.262 533.311,423.727Z" style="fill:rgb(242,13,13);"/>
    <path d="M466.091,422.534C462.952,417.179 300.343,15.544 297.393,7.744" style="fill:rgb(10,255,0);"/>
    <path d="M466.953,422.028C463.815,416.675 301.278,15.187 298.328,7.39C298.133,6.874 297.555,6.613 297.039,6.809C296.522,7.004 296.262,7.581 296.457,8.098C299.409,15.901 462.088,417.683 465.228,423.04C465.507,423.516 466.12,423.676 466.596,423.397C467.073,423.117 467.232,422.504 466.953,422.028Z" style="fill:rgb(242,13,13);"/>
    <path d="M421.859,470.441C415.835,468.945 14.9,304.618 7.258,301.278" style="fill:rgb(10,255,0);"/>
    <path d="M422.1,469.471C416.078,467.975 15.298,303.7 7.659,300.362C7.153,300.141 6.563,300.372 6.342,300.878C6.121,301.383 6.352,301.973 6.858,302.194C14.502,305.535 415.592,469.915 421.618,471.412C422.153,471.545 422.696,471.218 422.829,470.682C422.962,470.146 422.636,469.604 422.1,469.471Z" style="fill:rgb(242,13,13);"/>
    <path d="M421.704,535.3C416.375,538.482 16.051,704.293 8.275,707.306" style="fill:rgb(10,255,0);"/>
    <path d="M421.192,534.441C415.864,537.622 15.687,703.361 7.914,706.373C7.399,706.573 7.143,707.153 7.342,707.667C7.542,708.182 8.122,708.438 8.636,708.238C16.416,705.224 416.885,539.342 422.217,536.159C422.691,535.876 422.846,535.261 422.563,534.787C422.28,534.314 421.665,534.159 421.192,534.441Z" style="fill:rgb(242,13,13);"/>
    <path d="M467.285,581.443C465.744,587.455 298.422,987.15 295.026,994.766" style="fill:rgb(10,255,0);"/>
    <path d="M466.316,581.194C464.776,587.205 297.508,986.745 294.112,994.359C293.888,994.863 294.114,995.455 294.618,995.68C295.122,995.904 295.714,995.678 295.939,995.174C299.337,987.554 466.712,587.706 468.254,581.691C468.391,581.156 468.068,580.611 467.533,580.474C466.999,580.337 466.453,580.66 466.316,581.194Z" style="fill:rgb(242,13,13);"/>
    <path d="M578.45,539.504C599.449,551.584 622.175,564.262 641.693,580.036C654.818,590.643 666.494,602.648 675.199,616.833C684.006,631.182 704.231,676.05 727.685,730.454C772.355,834.071 828.709,972.267 840.023,1000.32C840.134,1000.59 840.446,1000.72 840.72,1000.61C840.993,1000.5 841.126,1000.19 841.016,999.914C829.702,971.864 773.372,833.643 728.684,730.023C705.194,675.557 684.914,630.648 676.091,616.285C667.318,602.005 655.563,589.909 642.336,579.24C622.763,563.451 599.967,550.782 578.908,538.706C578.688,538.579 578.406,538.655 578.28,538.876C578.153,539.096 578.229,539.377 578.45,539.504Z" style="fill:rgb(13,40,242);"/>
    <path d="M529.27,580.215C535.6,603.599 542.73,628.627 545.403,653.579C547.2,670.358 546.983,687.104 543.125,703.293C539.222,719.67 521.843,765.716 500.013,820.791C458.436,925.687 400.701,1063.31 388.897,1091.16C388.782,1091.43 388.909,1091.74 389.18,1091.86C389.452,1091.97 389.766,1091.85 389.882,1091.58C401.689,1063.73 459.457,926.103 501.024,821.192C522.873,766.047 540.242,719.934 544.143,703.536C548.021,687.23 548.245,670.366 546.42,653.47C543.719,628.468 536.533,603.398 530.158,579.974C530.092,579.729 529.839,579.584 529.594,579.65C529.349,579.717 529.204,579.97 529.27,580.215Z" style="fill:rgb(13,40,242);"/>
    <path d="M580.007,471.818C603.444,465.687 628.532,458.77 653.506,456.309C670.3,454.655 687.043,455.014 703.199,459.01C719.542,463.052 765.438,480.822 820.326,503.12C924.865,545.587 1061.99,604.49 1089.74,616.53C1090.01,616.648 1090.32,616.524 1090.44,616.253C1090.56,615.982 1090.43,615.667 1090.16,615.549C1062.42,603.506 925.289,544.569 820.736,502.112C765.779,479.795 719.815,462.035 703.45,457.994C687.178,453.977 670.316,453.61 653.405,455.291C628.381,457.78 603.251,464.752 579.774,470.928C579.528,470.992 579.381,471.244 579.445,471.489C579.51,471.735 579.761,471.882 580.007,471.818Z" style="fill:rgb(13,40,242);"/>
    <path d="M534.275,425.857C546.402,404.885 559.132,382.188 574.95,362.705C585.586,349.605 597.618,337.956 611.823,329.283C626.191,320.509 671.105,300.385 725.562,277.055C829.279,232.619 967.603,176.578 995.676,165.327C995.95,165.217 996.083,164.905 995.974,164.631C995.864,164.357 995.552,164.224 995.278,164.334C967.202,175.584 828.854,231.601 725.133,276.054C670.614,299.421 625.66,319.6 611.277,328.39C596.976,337.131 584.855,348.858 574.155,362.061C558.322,381.599 545.602,404.365 533.478,425.397C533.351,425.617 533.426,425.899 533.646,426.026C533.866,426.153 534.148,426.077 534.275,425.857Z" style="fill:rgb(13,40,242);"/>
    <path d="M469.137,422.865C463.008,399.427 456.093,374.339 453.635,349.364C451.982,332.57 452.343,315.827 456.341,299.672C460.384,283.328 478.159,237.434 500.461,182.548C542.939,78.014 601.854,-59.11 613.897,-86.853C614.015,-87.124 613.89,-87.439 613.619,-87.557C613.349,-87.674 613.033,-87.55 612.916,-87.279C600.87,-59.535 541.92,77.589 499.453,182.139C477.131,237.094 459.367,283.056 455.324,299.42C451.306,315.692 450.937,332.554 452.617,349.465C455.103,374.489 462.073,399.62 468.247,423.098C468.311,423.344 468.563,423.491 468.808,423.426C469.054,423.362 469.201,423.11 469.137,422.865Z" style="fill:rgb(13,40,242);"/>
    <path d="M424.224,468.493C403.175,456.5 380.397,443.916 360.813,428.223C347.645,417.67 335.92,405.712 327.157,391.564C318.29,377.252 297.881,332.467 274.202,278.16C229.105,174.729 172.181,36.766 160.751,8.765C160.639,8.492 160.327,8.361 160.054,8.472C159.78,8.584 159.649,8.896 159.761,9.17C171.19,37.174 228.09,175.161 273.205,278.595C296.919,332.964 317.385,377.789 326.266,392.115C335.099,406.36 346.903,418.406 360.174,429.021C379.813,444.729 402.66,457.303 423.769,469.293C423.99,469.419 424.271,469.341 424.396,469.121C424.522,468.9 424.445,468.619 424.224,468.493Z" style="fill:rgb(13,40,242);"/>
    <path d="M422.011,532.252C398.622,538.567 373.591,545.682 348.636,548.34C331.856,550.126 315.111,549.899 298.924,546.031C282.549,542.119 236.514,524.711 181.452,502.847C76.581,461.206 -61.009,403.388 -88.847,391.567C-89.119,391.452 -89.433,391.578 -89.548,391.85C-89.664,392.122 -89.537,392.436 -89.265,392.552C-61.425,404.376 76.165,462.228 181.051,503.859C236.182,525.741 282.285,543.138 298.681,547.05C314.984,550.937 331.848,551.172 348.745,549.357C373.749,546.671 398.823,539.501 422.251,533.14C422.496,533.073 422.641,532.82 422.575,532.575C422.509,532.33 422.256,532.185 422.011,532.252Z" style="fill:rgb(13,40,242);"/>
    <path d="M465.355,579.063C453.204,600.022 440.45,622.705 424.611,642.17C413.96,655.26 401.915,666.895 387.701,675.552C373.323,684.311 328.387,704.385 273.905,727.657C170.139,771.979 31.755,827.869 3.669,839.09C3.395,839.199 3.261,839.511 3.371,839.785C3.48,840.059 3.792,840.193 4.066,840.083C32.155,828.864 170.564,772.997 274.333,728.657C328.877,705.351 373.854,685.221 388.246,676.447C402.556,667.721 414.691,656.007 425.405,642.816C441.259,623.295 454.004,600.543 466.151,579.524C466.278,579.304 466.203,579.022 465.984,578.895C465.764,578.768 465.482,578.843 465.355,579.063Z" style="fill:rgb(13,40,242);"/>
    <g id="Layer1">
        <path d="M2.111,300.372C15.501,287.039 36.788,265.729 62.084,240.324C142.681,159.379 264.065,36.954 301.45,-0.379C301.62,-0.548 301.62,-0.824 301.45,-0.994C301.281,-1.164 301.005,-1.164 300.835,-0.994C293.642,6.169 283.336,16.461 270.826,29.007C197.79,102.258 49.291,252.042 1.462,299.721C1.282,299.9 1.282,300.192 1.461,300.371C1.64,300.551 1.932,300.552 2.111,300.372Z"/>
        <path d="M287.458,7.172C291.07,6.972 324.814,6.902 371.867,6.869C486.526,6.788 680.194,6.978 709.611,6.916C709.875,6.916 710.09,6.701 710.089,6.436C710.089,6.172 709.873,5.957 709.609,5.958C680.192,6.016 486.525,5.737 371.866,5.866C324.785,5.919 291.021,6.05 287.406,6.253C287.153,6.268 286.958,6.485 286.973,6.738C286.987,6.992 287.204,7.186 287.458,7.172Z"/>
        <path d="M705.251,5.256C706.831,6.937 710.865,11.122 716.901,17.27C727.426,27.988 744.03,44.682 764.003,64.786C819.611,120.76 901.475,203.022 952.75,254.503C969.037,270.854 982.231,284.108 990.524,292.419C995.931,297.838 999.257,301.148 999.948,301.885C1000.22,302.173 1000.67,302.19 1000.95,301.923C1001.24,301.656 1001.26,301.205 1000.99,300.916C999.669,299.481 988.7,288.297 971.632,271.108C914.215,213.284 788.046,87.158 732.42,31.326C718.207,17.06 708.58,7.405 705.917,4.622C705.742,4.438 705.451,4.43 705.267,4.605C705.083,4.78 705.076,5.072 705.251,5.256Z"/>
        <path d="M996.498,726.783C996.287,727.335 995.603,727.008 995.573,726.616C995.551,726.317 995.534,724.958 995.521,722.648C995.485,716.186 995.524,702.241 995.548,683.144C995.678,577.626 996.217,314.822 996.473,288.121C996.475,287.868 996.683,287.663 996.937,287.666C997.191,287.668 997.395,287.876 997.393,288.13C997.142,314.831 996.586,577.629 996.538,683.145C996.53,702.24 996.566,716.185 996.566,722.645C996.566,724.935 996.567,726.281 996.568,726.578C996.568,726.65 996.542,726.721 996.498,726.783Z"/>
        <path d="M696.804,1009.62C730.153,976.384 804.983,901.209 877.025,829.569C916.592,790.222 955.316,751.94 985.883,722.277C989.239,719.02 992.526,715.898 995.644,712.828C996.459,712.026 997.25,711.216 998.043,710.422C998.223,710.248 998.229,709.96 998.055,709.779C997.881,709.598 997.593,709.593 997.412,709.767C996.588,710.528 995.749,711.289 994.918,712.074C991.736,715.08 988.505,718.262 985.146,721.517C954.56,751.166 915.818,789.437 876.256,828.796C804.23,900.453 729.481,975.71 696.155,1008.97C695.975,1009.15 695.974,1009.44 696.154,1009.62C696.333,1009.8 696.625,1009.8 696.804,1009.62Z"/>
        <path d="M275.806,999.72C279.266,999.66 286.994,999.654 298.046,999.623C337.132,999.515 417.78,999.362 498.279,999.385C579.409,999.409 660.386,999.527 698.513,999.734C708.16,999.786 715.061,999.913 718.528,999.907C719.607,999.906 720.348,999.874 720.737,999.88C721.005,999.894 721.235,999.688 721.249,999.42C721.264,999.152 721.058,998.922 720.789,998.908C720.396,998.871 719.645,998.798 718.55,998.756C715.083,998.623 708.174,998.631 698.52,998.577C660.392,998.364 579.412,998.236 498.28,998.219C417.778,998.203 337.126,998.213 298.04,998.502C286.98,998.584 279.247,998.709 275.786,998.8C275.532,998.805 275.331,999.016 275.336,999.27C275.342,999.524 275.552,999.725 275.806,999.72Z"/>
        <path d="M-7.057,700.624C-6.879,700.847 -6.713,701.079 -6.52,701.297C-4.937,703.083 -3.041,704.836 -1.106,706.796C12.059,720.132 31.123,739.23 53.373,761.421C138.718,846.534 270.902,977.192 296.396,1003.27C296.655,1003.53 297.081,1003.54 297.346,1003.28C297.611,1003.02 297.615,1002.6 297.356,1002.33C271.849,976.262 139.632,845.625 54.217,760.574C31.952,738.403 12.864,719.334 -0.318,706.016C-2.255,704.06 -3.98,702.14 -5.738,700.528C-5.952,700.331 -6.181,700.161 -6.401,699.979C-6.579,699.798 -6.87,699.795 -7.052,699.973C-7.233,700.151 -7.235,700.442 -7.057,700.624Z"/>
        <path d="M4.841,275.564C3.544,317.551 3.008,363.071 2.843,409.739C2.459,517.83 4.032,632.076 2.469,722.817C2.464,723.054 2.654,723.25 2.891,723.254C3.128,723.258 3.324,723.069 3.328,722.832C4.916,632.088 3.397,517.837 3.786,409.742C3.953,363.083 4.471,317.571 5.761,275.592C5.769,275.339 5.569,275.126 5.315,275.118C5.061,275.111 4.849,275.31 4.841,275.564Z"/>
    </g>
</svg>
