<?xml version="1.0" encoding="UTF-8" standalone="no"?>
<!DOCTYPE svg PUBLIC "-//W3C//DTD SVG 1.1//EN" "http://www.w3.org/Graphics/SVG/1.1/DTD/svg11.dtd">
<svg width="100%" height="100%" viewBox="0 0 1000 1000" version="1.1" xmlns="http://www.w3.org/2000/svg" xmlns:xlink="http://www.w3.org/1999/xlink" xml:space="preserve" xmlns:serif="http://www.serif.com/" style="fill-rule:evenodd;clip-rule:evenodd;stroke-linecap:round;stroke-linejoin:round;stroke-miterlimit:1.5;">
    <g id="Layer1">
    </g>
    <g id="Layer2">
        <path d="M558.315,481.19C567.933,478.247 580.613,474.617 589.599,473.178C597.699,471.88 606.661,471.706 614.848,472.207C624.359,472.789 636.348,474.73 646.606,477.172C656.504,479.529 665.631,484.064 675.373,486.996C685.161,489.942 694.074,493.991 703.964,496.765C714.332,499.673 729.317,502.898 741.579,505.147C753.487,507.33 777.536,510.255 777.536,510.255L830.465,519.268L883.845,525.374L935.281,531.787L996.844,537.301" style="fill:none;stroke:rgb(13,40,242);stroke-width:1px;"/>
        <path d="M524.27,446.052C528.991,437.171 535.392,425.639 540.73,418.268C545.541,411.624 551.756,405.165 557.901,399.731C565.039,393.419 574.891,386.316 583.872,380.791C592.538,375.46 602.199,372.215 611.163,367.401C620.167,362.565 629.333,359.128 638.289,354.097C647.678,348.823 660.556,340.511 670.818,333.432C680.783,326.558 699.86,311.625 699.86,311.625L743.665,280.58L785.735,247.16L826.646,215.332L874.084,175.708" style="fill:none;stroke:rgb(13,40,242);stroke-width:1px;"/>
        <path d="M475.912,445.208C473,435.581 469.411,422.889 468.001,413.898C466.73,405.795 466.585,396.832 467.112,388.646C467.726,379.138 469.706,367.154 472.182,356.905C474.57,347.014 479.135,337.903 482.099,328.17C485.077,318.392 489.155,309.492 491.961,299.611C494.903,289.252 498.177,274.278 500.465,262.023C502.688,250.123 505.691,226.084 505.691,226.084L514.877,173.184L521.157,119.824L527.737,68.41L533.452,6.865" style="fill:none;stroke:rgb(13,40,242);stroke-width:1px;"/>
        <path d="M441.018,478.699C432.166,473.924 420.674,467.451 413.336,462.068C406.722,457.216 400.3,450.962 394.905,444.784C388.637,437.607 381.594,427.712 376.124,418.697C370.846,409.998 367.661,400.318 362.902,391.325C358.122,382.29 354.741,373.103 349.765,364.117C344.549,354.696 336.316,341.767 329.3,331.462C322.488,321.455 307.672,302.287 307.672,302.287L276.896,258.292L243.735,216.017L212.159,174.912L172.828,127.231" style="fill:none;stroke:rgb(13,40,242);stroke-width:1px;"/>
        <path d="M439.877,527.051C430.233,529.904 417.519,533.414 408.519,534.769C400.408,535.99 391.445,536.081 383.262,535.503C373.758,534.831 361.787,532.777 351.552,530.239C341.677,527.789 332.594,523.169 322.879,520.145C313.12,517.107 304.245,512.974 294.381,510.108C284.041,507.103 269.087,503.736 256.846,501.373C244.96,499.077 220.94,495.926 220.94,495.926L168.098,486.416L114.777,479.808L63.404,472.912L1.896,466.82" style="fill:none;stroke:rgb(13,40,242);stroke-width:1px;"/>
        <path d="M473.153,562.15C468.323,570.972 461.781,582.425 456.352,589.729C451.46,596.314 445.167,602.696 438.955,608.054C431.74,614.278 421.802,621.26 412.754,626.674C404.023,631.898 394.323,635.024 385.3,639.727C376.237,644.452 367.029,647.777 358.012,652.697C348.56,657.855 335.58,666.009 325.232,672.961C315.184,679.712 295.925,694.41 295.925,694.41L251.742,724.914L209.264,757.815L167.966,789.138L120.045,828.176" style="fill:none;stroke:rgb(13,40,242);stroke-width:1px;"/>
        <path d="M516.99,549.989C518.764,554.998 520.461,560.005 521.497,563.588C524.291,573.25 527.723,585.985 529.023,594.992C530.194,603.111 530.229,612.075 529.601,620.253C528.871,629.754 526.743,641.712 524.142,651.93C521.632,661.79 516.956,670.845 513.872,680.541C510.774,690.282 506.587,699.131 503.66,708.977C500.592,719.299 497.134,734.232 494.695,746.457C492.327,758.329 489.028,782.33 489.028,782.33L479.193,835.112L472.258,888.392L465.047,939.721L458.577,1001.19" style="fill:none;stroke:rgb(13,40,242);stroke-width:1px;"/>
        <path d="M556.8,530.528C565.592,535.412 577.004,542.025 584.276,547.498C590.829,552.43 597.173,558.763 602.493,565.007C608.672,572.26 615.593,582.241 620.951,591.323C626.122,600.086 629.188,609.805 633.836,618.855C638.505,627.948 641.773,637.175 646.638,646.223C651.738,655.707 659.812,668.736 666.7,679.127C673.389,689.216 687.969,708.565 687.969,708.565L718.201,752.935L750.84,795.614L781.909,837.104L820.652,885.264" style="fill:none;stroke:rgb(13,40,242);stroke-width:1px;"/>
        <path d="M558.648,479.833L995.356,297.905" style="fill:none;stroke:rgb(242,13,13);stroke-width:1px;"/>
        <path d="M523.4,445.208L703.786,7.449" style="fill:none;stroke:rgb(242,13,13);stroke-width:1px;"/>
        <path d="M473.153,441.474L294.053,7.572" style="fill:none;stroke:rgb(242,13,13);stroke-width:1px;"/>
        <path d="M450.385,483.847L3.526,296.492" style="fill:none;stroke:rgb(242,13,13);stroke-width:1px;"/>
        <path d="M450.385,524.003L1.132,706.218" style="fill:none;stroke:rgb(242,13,13);stroke-width:1px;"/>
        <path d="M477.21,555.505L288.263,998.514" style="fill:none;stroke:rgb(242,13,13);stroke-width:1px;"/>
        <path d="M517.29,549.989L697.966,1003.43" style="fill:none;stroke:rgb(242,13,13);stroke-width:1px;"/>
        <path d="M553.59,527.909L992.02,718.095" style="fill:none;stroke:rgb(242,13,13);stroke-width:1px;"/>
    </g>
    <g id="Layer3">
        <path d="M704.326,4.184L995.795,294.176L996.839,705.232L706.847,996.56L295.692,997.505L4.223,707.513L3.179,296.458L293.171,5.129L704.326,4.184Z" style="fill:none;stroke:black;stroke-width:1px;"/>
        <path d="M568.06,340.191L664.866,436.504L665.215,573.022L568.902,669.775L432.347,670.087L335.542,573.775L335.193,437.257L431.505,340.503L568.06,340.191Z" style="fill:none;stroke:rgb(242,13,13);stroke-width:1px;"/>
    </g>
</svg>
