  0
SECTION
  2
HEADER
  9
$ACADVER
  1
AC1009
  0
ENDSEC
  0
SECTION
  2
ENTITIES
  0
LINE
  8
reference 10mm
  6
CONTINUOUS
 62
250
 10
-1572.7319020744358
 20
1663.6681838856666
 11
-1562.7319020744358
 21
1663.6681838856666
  0
LINE
  8
reference 10mm
  6
CONTINUOUS
 62
250
 10
-1562.7319020744358
 20
1663.6681838856666
 11
-1562.7319020744358
 21
1673.6681838856666
  0
LINE
  8
reference 10mm
  6
CONTINUOUS
 62
250
 10
-1562.7319020744358
 20
1673.6681838856666
 11
-1572.7319020744358
 21
1673.6681838856666
  0
LINE
  8
reference 10mm
  6
CONTINUOUS
 62
250
 10
-1572.7319020744358
 20
1673.6681838856666
 11
-1572.7319020744358
 21
1663.6681838856666
  0
LINE
  8
MountainLine
  6
CONTINUOUS
 62
1
 10
0.0
 20
-0.0
 11
-1572.7319020744355
 21
-511.0115718778265
  0
LINE
  8
CutLine
  6
CONTINUOUS
 62
250
 10
-972.0017706732724
 20
-1337.8456638206599
 11
-1572.7319020744355
 21
-511.0115718778265
  0
LINE
  8
MountainLine
  6
CONTINUOUS
 62
1
 10
0.0
 20
-0.0
 11
-972.0017706732724
 21
-1337.8456638206599
  0
LINE
  8
CutLine
  6
CONTINUOUS
 62
250
 10
-1.0125797241236991E-13
 20
-1653.6681838856666
 11
-972.0017706732724
 21
-1337.8456638206599
  0
LINE
  8
MountainLine
  6
CONTINUOUS
 62
1
 10
0.0
 20
-0.0
 11
-1.0125797241236991E-13
 21
-1653.6681838856666
  0
LINE
  8
CutLine
  6
CONTINUOUS
 62
250
 10
972.0017706732722
 20
-1337.8456638206599
 11
-1.0125797241236991E-13
 21
-1653.6681838856666
  0
LINE
  8
MountainLine
  6
CONTINUOUS
 62
1
 10
0.0
 20
-0.0
 11
972.0017706732722
 21
-1337.8456638206599
  0
LINE
  8
CutLine
  6
CONTINUOUS
 62
250
 10
1572.7319020744355
 20
-511.01157187782667
 11
972.0017706732722
 21
-1337.8456638206599
  0
LINE
  8
MountainLine
  6
CONTINUOUS
 62
1
 10
0.0
 20
-0.0
 11
1572.7319020744355
 21
-511.01157187782667
  0
LINE
  8
CutLine
  6
CONTINUOUS
 62
250
 10
1572.7319020744358
 20
511.01157187782627
 11
1572.7319020744355
 21
-511.01157187782667
  0
LINE
  8
MountainLine
  6
CONTINUOUS
 62
1
 10
0.0
 20
0.0
 11
1572.7319020744358
 21
511.01157187782627
  0
LINE
  8
CutLine
  6
CONTINUOUS
 62
250
 10
972.0017706732725
 20
1337.8456638206599
 11
1572.7319020744358
 21
511.01157187782627
  0
LINE
  8
MountainLine
  6
CONTINUOUS
 62
1
 10
0.0
 20
0.0
 11
972.0017706732725
 21
1337.8456638206599
  0
LINE
  8
CutLine
  6
CONTINUOUS
 62
250
 10
3.037739172371097E-13
 20
1653.6681838856666
 11
972.0017706732725
 21
1337.8456638206599
  0
LINE
  8
MountainLine
  6
CONTINUOUS
 62
1
 10
0.0
 20
0.0
 11
3.037739172371097E-13
 21
1653.6681838856666
  0
LINE
  8
CutLine
  6
CONTINUOUS
 62
250
 10
-972.001770673272
 20
1337.8456638206599
 11
3.037739172371097E-13
 21
1653.6681838856666
  0
LINE
  8
MountainLine
  6
CONTINUOUS
 62
1
 10
0.0
 20
0.0
 11
-972.001770673272
 21
1337.8456638206599
  0
LINE
  8
CutLine
  6
CONTINUOUS
 62
250
 10
-1572.7319020744355
 20
511.0115718778269
 11
-972.001770673272
 21
1337.8456638206599
  0
LINE
  8
MountainLine
  6
CONTINUOUS
 62
1
 10
0.0
 20
0.0
 11
-1572.7319020744355
 21
511.0115718778269
  0
LINE
  8
CutLine
  6
CONTINUOUS
 62
250
 10
-1572.7319020744358
 20
-511.01157187782616
 11
-1572.7319020744355
 21
511.0115718778269
  0
LINE
  8
ValleyLine
  6
CONTINUOUS
 62
5
 10
0.0
 20
-0.0
 11
0.0
 21
-0.0
  0
LINE
  8
ValleyLine
  6
CONTINUOUS
 62
5
 10
0.0
 20
-0.0
 11
-19.362843891297437
 21
-6.289726434180346
  0
LINE
  8
ValleyLine
  6
CONTINUOUS
 62
5
 10
-19.362843891297437
 20
-6.289726434180346
 11
-77.45137556518975
 21
-25.158905736721383
  0
LINE
  8
ValleyLine
  6
CONTINUOUS
 62
5
 10
-77.45137556518975
 20
-25.158905736721383
 11
-150.7485380925375
 21
-48.97326850381725
  0
LINE
  8
ValleyLine
  6
CONTINUOUS
 62
5
 10
-150.7485380925375
 20
-48.97326850381725
 11
-216.02925696149381
 21
-70.09854533166211
  0
LINE
  8
ValleyLine
  6
CONTINUOUS
 62
5
 10
-216.02925696149381
 20
-70.09854533166211
 11
-270.3355443865704
 21
-87.19019325063043
  0
LINE
  8
ValleyLine
  6
CONTINUOUS
 62
5
 10
-270.3355443865704
 20
-87.19019325063043
 11
-313.46349062612694
 21
-98.90366929109672
  0
LINE
  8
ValleyLine
  6
CONTINUOUS
 62
5
 10
-313.46349062612694
 20
-98.90366929109672
 11
-346.90772902817343
 21
-104.156502418193
  0
LINE
  8
ValleyLine
  6
CONTINUOUS
 62
5
 10
-346.90772902817343
 20
-104.156502418193
 11
-378.0262929067331
 21
-101.86622159705124
  0
LINE
  8
ValleyLine
  6
CONTINUOUS
 62
5
 10
-378.0262929067331
 20
-101.86622159705124
 11
-420.983145558271
 21
-90.95035579280345
  0
LINE
  8
ValleyLine
  6
CONTINUOUS
 62
5
 10
-420.983145558271
 20
-90.95035579280345
 11
-487.1424284489092
 21
-70.32643397058168
  0
LINE
  8
ValleyLine
  6
CONTINUOUS
 62
5
 10
-487.1424284489092
 20
-70.32643397058168
 11
-566.234494439292
 21
-45.019400618562564
  0
LINE
  8
ValleyLine
  6
CONTINUOUS
 62
5
 10
-566.234494439292
 20
-45.019400618562564
 11
-644.0098051258312
 21
-20.05420022492284
  0
LINE
  8
ValleyLine
  6
CONTINUOUS
 62
5
 10
-644.0098051258312
 20
-20.05420022492284
 11
-716.9736626668027
 21
3.646218222713244
  0
LINE
  8
ValleyLine
  6
CONTINUOUS
 62
5
 10
-716.9736626668027
 20
3.646218222713244
 11
-750.916889658717
 21
8.750923734511783
  0
LINE
  8
ValleyLine
  6
CONTINUOUS
 62
5
 10
-750.916889658717
 20
8.750923734511783
 11
-774.9566465384831
 21
10.414510798624702
  0
LINE
  8
ValleyLine
  6
CONTINUOUS
 62
5
 10
-774.9566465384831
 20
10.414510798624702
 11
-805.5786962936321
 21
7.383591900994317
  0
LINE
  8
ValleyLine
  6
CONTINUOUS
 62
5
 10
-805.5786962936321
 20
7.383591900994317
 11
-843.9596578579723
 21
2.506775028115355
  0
LINE
  8
ValleyLine
  6
CONTINUOUS
 62
5
 10
-843.9596578579723
 20
2.506775028115355
 11
-887.5824124271217
 21
-1.3673318335174665
  0
LINE
  8
ValleyLine
  6
CONTINUOUS
 62
5
 10
-887.5824124271217
 20
-1.3673318335174665
 11
-933.6790416600583
 21
-4.045023340822505
  0
LINE
  8
ValleyLine
  6
CONTINUOUS
 62
5
 10
-933.6790416600583
 20
-4.045023340822505
 11
-979.3527484615113
 21
-5.332594150718119
  0
LINE
  8
ValleyLine
  6
CONTINUOUS
 62
5
 10
-979.3527484615113
 20
-5.332594150718119
 11
-1021.7666797345312
 21
-5.036338920122667
  0
LINE
  8
ValleyLine
  6
CONTINUOUS
 62
5
 10
-1021.7666797345312
 20
-5.036338920122667
 11
-1058.389074471924
 21
-2.9625523059545102
  0
LINE
  8
ValleyLine
  6
CONTINUOUS
 62
5
 10
-1058.389074471924
 20
-2.9625523059545102
 11
-1091.1489416410852
 21
0.25067750281153556
  0
LINE
  8
ValleyLine
  6
CONTINUOUS
 62
5
 10
-1091.1489416410852
 20
0.25067750281153556
 11
-1121.3123677977567
 21
3.965262317200653
  0
LINE
  8
ValleyLine
  6
CONTINUOUS
 62
5
 10
-1121.3123677977567
 20
3.965262317200653
 11
-1149.6458537240437
 21
7.543113948238022
  0
LINE
  8
ValleyLine
  6
CONTINUOUS
 62
5
 10
-1149.6458537240437
 20
7.543113948238022
 11
-1176.8605722146306
 21
10.346144206948829
  0
LINE
  8
ValleyLine
  6
CONTINUOUS
 62
5
 10
-1176.8605722146306
 20
10.346144206948829
 11
-1203.4346987199435
 21
12.021125703007725
  0
LINE
  8
ValleyLine
  6
CONTINUOUS
 62
5
 10
-1203.4346987199435
 20
12.021125703007725
 11
-1230.321839821706
 21
12.214831046089367
  0
LINE
  8
ValleyLine
  6
CONTINUOUS
 62
5
 10
-1230.321839821706
 20
12.214831046089367
 11
-1259.0145553057741
 21
10.574032845868407
  0
LINE
  8
ValleyLine
  6
CONTINUOUS
 62
5
 10
-1259.0145553057741
 20
10.574032845868407
 11
-1291.396648356055
 21
6.745503712019501
  0
LINE
  8
ValleyLine
  6
CONTINUOUS
 62
5
 10
-1291.396648356055
 20
6.745503712019501
 11
-1326.9073894004703
 21
1.9256589988704318
  0
LINE
  8
ValleyLine
  6
CONTINUOUS
 62
5
 10
-1326.9073894004703
 20
1.9256589988704318
 11
-1364.2628451690173
 21
-2.689085939251018
  0
LINE
  8
ValleyLine
  6
CONTINUOUS
 62
5
 10
-1364.2628451690173
 20
-2.689085939251018
 11
-1402.5815976689098
 21
-5.902315748017064
  0
LINE
  8
ValleyLine
  6
CONTINUOUS
 62
5
 10
-1402.5815976689098
 20
-5.902315748017064
 11
-1442.3022808765413
 21
-6.517615073099923
  0
LINE
  8
ValleyLine
  6
CONTINUOUS
 62
5
 10
-1442.3022808765413
 20
-6.517615073099923
 11
-1484.1704764011233
 21
-5.184466535420393
  0
LINE
  8
ValleyLine
  6
CONTINUOUS
 62
5
 10
-1484.1704764011233
 20
-5.184466535420393
 11
-1527.9210859447783
 21
-2.5523527558992707
  0
LINE
  8
ValleyLine
  6
CONTINUOUS
 62
5
 10
-1527.9210859447783
 20
-2.5523527558992707
 11
-1561.529198042021
 21
-0.09115545556783104
  0
LINE
  8
ValleyLine
  6
CONTINUOUS
 62
5
 10
-1561.529198042021
 20
-0.09115545556783104
 11
-1572.7319020744355
 21
0.7292436445426488
  0
LINE
  8
ValleyLine
  6
CONTINUOUS
 62
5
 10
-1572.7319020744355
 20
0.7292436445426488
 11
-1572.7319020744355
 21
0.7292436445426488
  0
LINE
  8
ValleyLine
  6
CONTINUOUS
 62
5
 10
-1572.7319020744355
 20
0.7292436445426488
 11
-1572.7319020744355
 21
0.7292436445426488
  0
LINE
  8
ValleyLine
  6
CONTINUOUS
 62
5
 10
0.0
 20
-0.0
 11
0.0
 21
-0.0
  0
LINE
  8
MountainLine
  6
CONTINUOUS
 62
1
 10
0.0
 20
-0.0
 11
0.0
 21
-0.0
  0
LINE
  8
ValleyLine
  6
CONTINUOUS
 62
5
 10
0.0
 20
-0.0
 11
0.0
 21
-0.0
  0
LINE
  8
MountainLine
  6
CONTINUOUS
 62
1
 10
0.0
 20
-0.0
 11
0.0
 21
-0.0
  0
LINE
  8
ValleyLine
  6
CONTINUOUS
 62
5
 10
-19.362843891297437
 20
-6.289726434180346
 11
-19.362843891297437
 21
-6.291369355365549
  0
LINE
  8
MountainLine
  6
CONTINUOUS
 62
1
 10
-19.362843891297437
 20
-6.289726434180346
 11
-19.362843891297437
 21
6.291369355365549
  0
LINE
  8
ValleyLine
  6
CONTINUOUS
 62
5
 10
-77.45137556518975
 20
-25.158905736721383
 11
-77.45137556518975
 21
-25.165477421462196
  0
LINE
  8
MountainLine
  6
CONTINUOUS
 62
1
 10
-77.45137556518975
 20
-25.158905736721383
 11
-77.45137556518975
 21
25.165477421462196
  0
LINE
  8
ValleyLine
  6
CONTINUOUS
 62
5
 10
-150.7485380925375
 20
-48.97326850381725
 11
-150.7485380925375
 21
-48.98116920458198
  0
LINE
  8
MountainLine
  6
CONTINUOUS
 62
1
 10
-150.7485380925375
 20
-48.97326850381725
 11
-150.7485380925375
 21
48.98116920458198
  0
LINE
  8
ValleyLine
  6
CONTINUOUS
 62
5
 10
-216.02925696149381
 20
-70.09854533166211
 11
-216.02925696149381
 21
-70.19216054934903
  0
LINE
  8
MountainLine
  6
CONTINUOUS
 62
1
 10
-216.02925696149381
 20
-70.09854533166211
 11
-216.02925696149381
 21
70.19216054934903
  0
LINE
  8
ValleyLine
  6
CONTINUOUS
 62
5
 10
-270.3355443865704
 20
-87.19019325063043
 11
-270.3355443865704
 21
-87.8373429630418
  0
LINE
  8
MountainLine
  6
CONTINUOUS
 62
1
 10
-270.3355443865704
 20
-87.19019325063043
 11
-270.3355443865704
 21
87.8373429630418
  0
LINE
  8
ValleyLine
  6
CONTINUOUS
 62
5
 10
-313.46349062612694
 20
-98.90366929109672
 11
-313.46349062612694
 21
-101.85046215434764
  0
LINE
  8
MountainLine
  6
CONTINUOUS
 62
1
 10
-313.46349062612694
 20
-98.90366929109672
 11
-313.46349062612694
 21
101.85046215434764
  0
LINE
  8
ValleyLine
  6
CONTINUOUS
 62
5
 10
-346.90772902817343
 20
-104.156502418193
 11
-346.90772902817343
 21
-112.71715393668148
  0
LINE
  8
MountainLine
  6
CONTINUOUS
 62
1
 10
-346.90772902817343
 20
-104.156502418193
 11
-346.90772902817343
 21
112.71715393668148
  0
LINE
  8
ValleyLine
  6
CONTINUOUS
 62
5
 10
-378.0262929067331
 20
-101.86622159705124
 11
-378.0262929067331
 21
-122.82818825930738
  0
LINE
  8
MountainLine
  6
CONTINUOUS
 62
1
 10
-378.0262929067331
 20
-101.86622159705124
 11
-378.0262929067331
 21
122.82818825930738
  0
LINE
  8
ValleyLine
  6
CONTINUOUS
 62
5
 10
-420.983145558271
 20
-90.95035579280345
 11
-420.983145558271
 21
-136.78571577396679
  0
LINE
  8
MountainLine
  6
CONTINUOUS
 62
1
 10
-420.983145558271
 20
-90.95035579280345
 11
-420.983145558271
 21
136.78571577396679
  0
LINE
  8
ValleyLine
  6
CONTINUOUS
 62
5
 10
-487.1424284489092
 20
-70.32643397058168
 11
-487.1424284489092
 21
-158.28216987377985
  0
LINE
  8
MountainLine
  6
CONTINUOUS
 62
1
 10
-487.1424284489092
 20
-70.32643397058168
 11
-487.1424284489092
 21
158.28216987377985
  0
LINE
  8
ValleyLine
  6
CONTINUOUS
 62
5
 10
-566.234494439292
 20
-45.019400618562564
 11
-566.234494439292
 21
-183.98073992980804
  0
LINE
  8
MountainLine
  6
CONTINUOUS
 62
1
 10
-566.234494439292
 20
-45.019400618562564
 11
-566.234494439292
 21
183.98073992980804
  0
LINE
  8
ValleyLine
  6
CONTINUOUS
 62
5
 10
-644.0098051258312
 20
-20.05420022492284
 11
-644.0098051258312
 21
-209.25147025249825
  0
LINE
  8
MountainLine
  6
CONTINUOUS
 62
1
 10
-644.0098051258312
 20
-20.05420022492284
 11
-644.0098051258312
 21
209.25147025249825
  0
LINE
  8
MountainLine
  6
CONTINUOUS
 62
1
 10
-716.9736626668027
 20
3.646218222713244
 11
-716.9736626668027
 21
-232.95886468069173
  0
LINE
  8
ValleyLine
  6
CONTINUOUS
 62
5
 10
-716.9736626668027
 20
3.646218222713244
 11
-716.9736626668027
 21
232.95886468069173
  0
LINE
  8
MountainLine
  6
CONTINUOUS
 62
1
 10
-750.916889658717
 20
8.750923734511783
 11
-750.916889658717
 21
-243.9876876840691
  0
LINE
  8
ValleyLine
  6
CONTINUOUS
 62
5
 10
-750.916889658717
 20
8.750923734511783
 11
-750.916889658717
 21
243.9876876840691
  0
LINE
  8
MountainLine
  6
CONTINUOUS
 62
1
 10
-774.9566465384831
 20
10.414510798624702
 11
-774.9566465384831
 21
-251.79867818695567
  0
LINE
  8
ValleyLine
  6
CONTINUOUS
 62
5
 10
-774.9566465384831
 20
10.414510798624702
 11
-774.9566465384831
 21
251.79867818695567
  0
LINE
  8
MountainLine
  6
CONTINUOUS
 62
1
 10
-805.5786962936321
 20
7.383591900994317
 11
-805.5786962936321
 21
-261.7483852914276
  0
LINE
  8
ValleyLine
  6
CONTINUOUS
 62
5
 10
-805.5786962936321
 20
7.383591900994317
 11
-805.5786962936321
 21
261.7483852914276
  0
LINE
  8
ValleyLine
  6
CONTINUOUS
 62
5
 10
-843.9596578579723
 20
2.506775028115355
 11
-843.9596578579723
 21
-274.21911566403986
  0
LINE
  8
MountainLine
  6
CONTINUOUS
 62
1
 10
-843.9596578579723
 20
2.506775028115355
 11
-843.9596578579723
 21
274.21911566403986
  0
LINE
  8
ValleyLine
  6
CONTINUOUS
 62
5
 10
-887.5824124271217
 20
-1.3673318335174665
 11
-887.5824124271217
 21
-288.3930078274905
  0
LINE
  8
MountainLine
  6
CONTINUOUS
 62
1
 10
-887.5824124271217
 20
-1.3673318335174665
 11
-887.5824124271217
 21
288.3930078274905
  0
LINE
  8
ValleyLine
  6
CONTINUOUS
 62
5
 10
-933.6790416600583
 20
-4.045023340822505
 11
-933.6790416600583
 21
-303.3707105952172
  0
LINE
  8
MountainLine
  6
CONTINUOUS
 62
1
 10
-933.6790416600583
 20
-4.045023340822505
 11
-933.6790416600583
 21
303.3707105952172
  0
LINE
  8
ValleyLine
  6
CONTINUOUS
 62
5
 10
-979.3527484615113
 20
-5.332594150718119
 11
-979.3527484615113
 21
-318.2109975349761
  0
LINE
  8
MountainLine
  6
CONTINUOUS
 62
1
 10
-979.3527484615113
 20
-5.332594150718119
 11
-979.3527484615113
 21
318.2109975349761
  0
LINE
  8
ValleyLine
  6
CONTINUOUS
 62
5
 10
-1021.7666797345312
 20
-5.036338920122667
 11
-1021.7666797345312
 21
-331.9921192002491
  0
LINE
  8
MountainLine
  6
CONTINUOUS
 62
1
 10
-1021.7666797345312
 20
-5.036338920122667
 11
-1021.7666797345312
 21
331.9921192002491
  0
LINE
  8
ValleyLine
  6
CONTINUOUS
 62
5
 10
-1058.389074471924
 20
-2.9625523059545102
 11
-1058.389074471924
 21
-343.8914565736444
  0
LINE
  8
MountainLine
  6
CONTINUOUS
 62
1
 10
-1058.389074471924
 20
-2.9625523059545102
 11
-1058.389074471924
 21
343.8914565736444
  0
LINE
  8
ValleyLine
  6
CONTINUOUS
 62
5
 10
-1091.1489416410852
 20
0.25067750281153556
 11
-1091.1489416410852
 21
-354.5357826628786
  0
LINE
  8
MountainLine
  6
CONTINUOUS
 62
1
 10
-1091.1489416410852
 20
0.25067750281153556
 11
-1091.1489416410852
 21
354.5357826628786
  0
LINE
  8
ValleyLine
  6
CONTINUOUS
 62
5
 10
-1121.3123677977567
 20
3.965262317200653
 11
-1121.3123677977567
 21
-364.33647392704796
  0
LINE
  8
MountainLine
  6
CONTINUOUS
 62
1
 10
-1121.3123677977567
 20
3.965262317200653
 11
-1121.3123677977567
 21
364.33647392704796
  0
LINE
  8
MountainLine
  6
CONTINUOUS
 62
1
 10
-1149.6458537240437
 20
7.543113948238022
 11
-1149.6458537240437
 21
-373.5425815674365
  0
LINE
  8
ValleyLine
  6
CONTINUOUS
 62
5
 10
-1149.6458537240437
 20
7.543113948238022
 11
-1149.6458537240437
 21
373.5425815674365
  0
LINE
  8
MountainLine
  6
CONTINUOUS
 62
1
 10
-1176.8605722146306
 20
10.346144206948829
 11
-1176.8605722146306
 21
-382.385179632462
  0
LINE
  8
ValleyLine
  6
CONTINUOUS
 62
5
 10
-1176.8605722146306
 20
10.346144206948829
 11
-1176.8605722146306
 21
382.385179632462
  0
LINE
  8
MountainLine
  6
CONTINUOUS
 62
1
 10
-1203.4346987199435
 20
12.021125703007725
 11
-1203.4346987199435
 21
-391.01963674422313
  0
LINE
  8
ValleyLine
  6
CONTINUOUS
 62
5
 10
-1203.4346987199435
 20
12.021125703007725
 11
-1203.4346987199435
 21
391.01963674422313
  0
LINE
  8
MountainLine
  6
CONTINUOUS
 62
1
 10
-1230.321839821706
 20
12.214831046089367
 11
-1230.321839821706
 21
-399.7557984635791
  0
LINE
  8
ValleyLine
  6
CONTINUOUS
 62
5
 10
-1230.321839821706
 20
12.214831046089367
 11
-1230.321839821706
 21
399.7557984635791
  0
LINE
  8
MountainLine
  6
CONTINUOUS
 62
1
 10
-1259.0145553057741
 20
10.574032845868407
 11
-1259.0145553057741
 21
-409.0786268627597
  0
LINE
  8
ValleyLine
  6
CONTINUOUS
 62
5
 10
-1259.0145553057741
 20
10.574032845868407
 11
-1259.0145553057741
 21
409.0786268627597
  0
LINE
  8
MountainLine
  6
CONTINUOUS
 62
1
 10
-1291.396648356055
 20
6.745503712019501
 11
-1291.396648356055
 21
-419.60020670004275
  0
LINE
  8
ValleyLine
  6
CONTINUOUS
 62
5
 10
-1291.396648356055
 20
6.745503712019501
 11
-1291.396648356055
 21
419.60020670004275
  0
LINE
  8
ValleyLine
  6
CONTINUOUS
 62
5
 10
-1326.9073894004703
 20
1.9256589988704318
 11
-1326.9073894004703
 21
-431.1383458931995
  0
LINE
  8
MountainLine
  6
CONTINUOUS
 62
1
 10
-1326.9073894004703
 20
1.9256589988704318
 11
-1326.9073894004703
 21
431.1383458931995
  0
LINE
  8
ValleyLine
  6
CONTINUOUS
 62
5
 10
-1364.2628451690173
 20
-2.689085939251018
 11
-1364.2628451690173
 21
-443.27586923415754
  0
LINE
  8
MountainLine
  6
CONTINUOUS
 62
1
 10
-1364.2628451690173
 20
-2.689085939251018
 11
-1364.2628451690173
 21
443.27586923415754
  0
LINE
  8
ValleyLine
  6
CONTINUOUS
 62
5
 10
-1402.5815976689098
 20
-5.902315748017064
 11
-1402.5815976689098
 21
-455.72638665644655
  0
LINE
  8
MountainLine
  6
CONTINUOUS
 62
1
 10
-1402.5815976689098
 20
-5.902315748017064
 11
-1402.5815976689098
 21
455.72638665644655
  0
LINE
  8
ValleyLine
  6
CONTINUOUS
 62
5
 10
-1442.3022808765413
 20
-6.517615073099923
 11
-1442.3022808765413
 21
-468.63241897843363
  0
LINE
  8
MountainLine
  6
CONTINUOUS
 62
1
 10
-1442.3022808765413
 20
-6.517615073099923
 11
-1442.3022808765413
 21
468.63241897843363
  0
LINE
  8
ValleyLine
  6
CONTINUOUS
 62
5
 10
-1484.1704764011233
 20
-5.184466535420393
 11
-1484.1704764011233
 21
-482.23622035010084
  0
LINE
  8
MountainLine
  6
CONTINUOUS
 62
1
 10
-1484.1704764011233
 20
-5.184466535420393
 11
-1484.1704764011233
 21
482.23622035010084
  0
LINE
  8
ValleyLine
  6
CONTINUOUS
 62
5
 10
-1527.9210859447783
 20
-2.5523527558992707
 11
-1527.9210859447783
 21
-496.4516551130296
  0
LINE
  8
MountainLine
  6
CONTINUOUS
 62
1
 10
-1527.9210859447783
 20
-2.5523527558992707
 11
-1527.9210859447783
 21
496.4516551130296
  0
LINE
  8
ValleyLine
  6
CONTINUOUS
 62
5
 10
-1561.529198042021
 20
-0.09115545556783104
 11
-1561.529198042021
 21
-507.3715926866273
  0
LINE
  8
MountainLine
  6
CONTINUOUS
 62
1
 10
-1561.529198042021
 20
-0.09115545556783104
 11
-1561.529198042021
 21
507.3715926866273
  0
LINE
  8
ValleyLine
  6
CONTINUOUS
 62
5
 10
-1572.7319020744355
 20
0.7292436445426488
 11
-1572.7319020744355
 21
-511.0115718778265
  0
LINE
  8
MountainLine
  6
CONTINUOUS
 62
1
 10
-1572.7319020744355
 20
0.7292436445426488
 11
-1572.7319020744355
 21
511.0115718778265
  0
LINE
  8
ValleyLine
  6
CONTINUOUS
 62
5
 10
-1572.7319020744355
 20
0.7292436445426488
 11
-1572.7319020744355
 21
-511.0115718778265
  0
LINE
  8
MountainLine
  6
CONTINUOUS
 62
1
 10
-1572.7319020744355
 20
0.7292436445426488
 11
-1572.7319020744355
 21
511.0115718778265
  0
LINE
  8
ValleyLine
  6
CONTINUOUS
 62
5
 10
0.0
 20
-0.0
 11
0.0
 21
-0.0
  0
LINE
  8
ValleyLine
  6
CONTINUOUS
 62
5
 10
0.0
 20
-0.0
 11
-11.967861328523433
 21
-16.46968965696728
  0
LINE
  8
ValleyLine
  6
CONTINUOUS
 62
5
 10
-11.967861328523433
 20
-16.46968965696728
 11
-47.871445314093734
 21
-65.87875862786912
  0
LINE
  8
ValleyLine
  6
CONTINUOUS
 62
5
 10
-47.871445314093734
 20
-65.87875862786912
 11
-93.17236421093871
 21
-128.22797398511918
  0
LINE
  8
ValleyLine
  6
CONTINUOUS
 62
5
 10
-93.17236421093871
 20
-128.22797398511918
 11
-133.56844901093456
 21
-183.68972575994442
  0
LINE
  8
ValleyLine
  6
CONTINUOUS
 62
5
 10
-133.56844901093456
 20
-183.68972575994442
 11
-167.45693985508709
 21
-229.43759424347917
  0
LINE
  8
ValleyLine
  6
CONTINUOUS
 62
5
 10
-167.45693985508709
 20
-229.43759424347917
 11
-195.46317282571013
 21
-264.26396618469414
  0
LINE
  8
ValleyLine
  6
CONTINUOUS
 62
5
 10
-195.46317282571013
 20
-264.26396618469414
 11
-219.43259221203243
 21
-288.17162756000727
  0
LINE
  8
ValleyLine
  6
CONTINUOUS
 62
5
 10
-219.43259221203243
 20
-288.17162756000727
 11
-245.95423252060496
 21
-304.6097843741512
  0
LINE
  8
ValleyLine
  6
CONTINUOUS
 62
5
 10
-245.95423252060496
 20
-304.6097843741512
 11
-287.12324127630023
 21
-321.0280679036732
  0
LINE
  8
ValleyLine
  6
CONTINUOUS
 62
5
 10
-287.12324127630023
 20
-321.0280679036732
 11
-352.7696625620211
 21
-343.2304154441983
  0
LINE
  8
ValleyLine
  6
CONTINUOUS
 62
5
 10
-352.7696625620211
 20
-343.2304154441983
 11
-431.63158905205614
 21
-369.2457453476914
  0
LINE
  8
ValleyLine
  6
CONTINUOUS
 62
5
 10
-431.63158905205614
 20
-369.2457453476914
 11
-509.2273137521655
 21
-394.7636545752736
  0
LINE
  8
ValleyLine
  6
CONTINUOUS
 62
5
 10
-509.2273137521655
 20
-394.7636545752736
 11
-582.187070914645
 21
-418.4766926902905
  0
LINE
  8
ValleyLine
  6
CONTINUOUS
 62
5
 10
-582.187070914645
 20
-418.4766926902905
 11
-612.6481890121615
 21
-434.298227421029
  0
LINE
  8
ValleyLine
  6
CONTINUOUS
 62
5
 10
-612.6481890121615
 20
-434.298227421029
 11
-633.0745928107244
 21
-447.08257177716246
  0
LINE
  8
ValleyLine
  6
CONTINUOUS
 62
5
 10
-633.0745928107244
 20
-447.08257177716246
 11
-656.0668220363135
 21
-467.5338259149605
  0
LINE
  8
ValleyLine
  6
CONTINUOUS
 62
5
 10
-656.0668220363135
 20
-467.5338259149605
 11
-684.2511511663071
 21
-494.0390168198975
  0
LINE
  8
ValleyLine
  6
CONTINUOUS
 62
5
 10
-684.2511511663071
 20
-494.0390168198975
 11
-717.2655580751234
 21
-522.8140469091031
  0
LINE
  8
ValleyLine
  6
CONTINUOUS
 62
5
 10
-717.2655580751234
 20
-522.8140469091031
 11
-752.9846069297873
 21
-552.0752636877205
  0
LINE
  8
ValleyLine
  6
CONTINUOUS
 62
5
 10
-752.9846069297873
 20
-552.0752636877205
 11
-789.1785967949226
 21
-579.9632616298118
  0
LINE
  8
ValleyLine
  6
CONTINUOUS
 62
5
 10
-789.1785967949226
 20
-579.9632616298118
 11
-823.6663224485053
 21
-604.6538694076152
  0
LINE
  8
ValleyLine
  6
CONTINUOUS
 62
5
 10
-823.6663224485053
 20
-604.6538694076152
 11
-854.5134033539733
 21
-624.5022443243189
  0
LINE
  8
ValleyLine
  6
CONTINUOUS
 62
5
 10
-854.5134033539733
 20
-624.5022443243189
 11
-882.9053817211098
 21
-641.1584535912883
  0
LINE
  8
ValleyLine
  6
CONTINUOUS
 62
5
 10
-882.9053817211098
 20
-641.1584535912883
 11
-909.4914842627181
 21
-655.882908402905
  0
LINE
  8
ValleyLine
  6
CONTINUOUS
 62
5
 10
-909.4914842627181
 20
-655.882908402905
 11
-934.5167643105822
 21
-669.6423708035514
  0
LINE
  8
ValleyLine
  6
CONTINUOUS
 62
5
 10
-934.5167643105822
 20
-669.6423708035514
 11
-958.1815139143969
 21
-683.3710818625653
  0
LINE
  8
ValleyLine
  6
CONTINUOUS
 62
5
 10
-958.1815139143969
 20
-683.3710818625653
 11
-980.6649632891111
 21
-697.6358730193676
  0
LINE
  8
ValleyLine
  6
CONTINUOUS
 62
5
 10
-980.6649632891111
 20
-697.6358730193676
 11
-1002.5309745145477
 21
-713.2830271208362
  0
LINE
  8
ValleyLine
  6
CONTINUOUS
 62
5
 10
-1002.5309745145477
 20
-713.2830271208362
 11
-1024.779431971846
 21
-731.4756157589139
  0
LINE
  8
ValleyLine
  6
CONTINUOUS
 62
5
 10
-1024.779431971846
 20
-731.4756157589139
 11
-1048.7267426001058
 21
-753.6066776249751
  0
LINE
  8
ValleyLine
  6
CONTINUOUS
 62
5
 10
-1048.7267426001058
 20
-753.6066776249751
 11
-1074.6225019471567
 21
-778.3787037920451
  0
LINE
  8
ValleyLine
  6
CONTINUOUS
 62
5
 10
-1074.6225019471567
 20
-778.3787037920451
 11
-1102.1312214788138
 21
-804.0690968651068
  0
LINE
  8
ValleyLine
  6
CONTINUOUS
 62
5
 10
-1102.1312214788138
 20
-804.0690968651068
 11
-1131.2430543606554
 21
-829.191851992913
  0
LINE
  8
ValleyLine
  6
CONTINUOUS
 62
5
 10
-1131.2430543606554
 20
-829.191851992913
 11
-1163.0160982347832
 21
-853.0368714039594
  0
LINE
  8
ValleyLine
  6
CONTINUOUS
 62
5
 10
-1163.0160982347832
 20
-853.0368714039594
 11
-1197.671784987547
 21
-876.5678394503977
  0
LINE
  8
ValleyLine
  6
CONTINUOUS
 62
5
 10
-1197.671784987547
 20
-876.5678394503977
 11
-1234.6138892845845
 21
-900.1543777402032
  0
LINE
  8
ValleyLine
  6
CONTINUOUS
 62
5
 10
-1234.6138892845845
 20
-900.1543777402032
 11
-1263.250078596229
 21
-917.917579945877
  0
LINE
  8
ValleyLine
  6
CONTINUOUS
 62
5
 10
-1263.250078596229
 20
-917.917579945877
 11
-1272.795475033444
 21
-923.8386473477682
  0
LINE
  8
ValleyLine
  6
CONTINUOUS
 62
5
 10
-1272.795475033444
 20
-923.8386473477682
 11
-1272.795475033444
 21
-923.8386473477682
  0
LINE
  8
ValleyLine
  6
CONTINUOUS
 62
5
 10
-1272.795475033444
 20
-923.8386473477682
 11
-1272.795475033444
 21
-923.8386473477682
  0
LINE
  8
ValleyLine
  6
CONTINUOUS
 62
5
 10
0.0
 20
-0.0
 11
0.0
 21
-0.0
  0
LINE
  8
MountainLine
  6
CONTINUOUS
 62
1
 10
0.0
 20
-0.0
 11
0.0
 21
-0.0
  0
LINE
  8
ValleyLine
  6
CONTINUOUS
 62
5
 10
0.0
 20
-0.0
 11
0.0
 21
-0.0
  0
LINE
  8
MountainLine
  6
CONTINUOUS
 62
1
 10
0.0
 20
-0.0
 11
0.0
 21
-0.0
  0
LINE
  8
ValleyLine
  6
CONTINUOUS
 62
5
 10
-11.967861328523433
 20
-16.46968965696728
 11
-11.966895643680092
 21
-16.471018808126523
  0
LINE
  8
MountainLine
  6
CONTINUOUS
 62
1
 10
-11.967861328523433
 20
-16.46968965696728
 11
-19.362843891297437
 21
-6.291369355365551
  0
LINE
  8
ValleyLine
  6
CONTINUOUS
 62
5
 10
-47.871445314093734
 20
-65.87875862786912
 11
-47.867582574720366
 21
-65.88407523250609
  0
LINE
  8
MountainLine
  6
CONTINUOUS
 62
1
 10
-47.871445314093734
 20
-65.87875862786912
 11
-77.45137556518975
 21
-25.165477421462203
  0
LINE
  8
ValleyLine
  6
CONTINUOUS
 62
5
 10
-93.17236421093871
 20
-128.22797398511918
 11
-93.16772029554642
 21
-128.2343657863053
  0
LINE
  8
MountainLine
  6
CONTINUOUS
 62
1
 10
-93.17236421093871
 20
-128.22797398511918
 11
-150.7485380925375
 21
-48.981169204581995
  0
LINE
  8
ValleyLine
  6
CONTINUOUS
 62
5
 10
-133.56844901093456
 20
-183.68972575994442
 11
-133.51342336658803
 21
-183.76546206198526
  0
LINE
  8
MountainLine
  6
CONTINUOUS
 62
1
 10
-133.56844901093456
 20
-183.68972575994442
 11
-216.02925696149381
 21
-70.19216054934904
  0
LINE
  8
ValleyLine
  6
CONTINUOUS
 62
5
 10
-167.45693985508709
 20
-229.43759424347917
 11
-167.07655479810634
 21
-229.96114935872487
  0
LINE
  8
MountainLine
  6
CONTINUOUS
 62
1
 10
-167.45693985508709
 20
-229.43759424347917
 11
-270.3355443865704
 21
-87.83734296304182
  0
LINE
  8
ValleyLine
  6
CONTINUOUS
 62
5
 10
-195.46317282571013
 20
-264.26396618469414
 11
-193.73109143913055
 21
-266.647971689967
  0
LINE
  8
MountainLine
  6
CONTINUOUS
 62
1
 10
-195.46317282571013
 20
-264.26396618469414
 11
-313.46349062612694
 21
-101.85046215434765
  0
LINE
  8
ValleyLine
  6
CONTINUOUS
 62
5
 10
-219.43259221203243
 20
-288.17162756000727
 11
-214.40076749944976
 21
-295.09734012138614
  0
LINE
  8
MountainLine
  6
CONTINUOUS
 62
1
 10
-219.43259221203243
 20
-288.17162756000727
 11
-346.90772902817343
 21
-112.71715393668148
  0
LINE
  8
ValleyLine
  6
CONTINUOUS
 62
5
 10
-245.95423252060496
 20
-304.6097843741512
 11
-233.63309765748434
 21
-321.56837163943754
  0
LINE
  8
MountainLine
  6
CONTINUOUS
 62
1
 10
-245.95423252060496
 20
-304.6097843741512
 11
-378.0262929067331
 21
-122.82818825930741
  0
LINE
  8
ValleyLine
  6
CONTINUOUS
 62
5
 10
-287.12324127630023
 20
-321.0280679036732
 11
-260.18189264585584
 21
-358.10965307172773
  0
LINE
  8
MountainLine
  6
CONTINUOUS
 62
1
 10
-287.12324127630023
 20
-321.0280679036732
 11
-420.983145558271
 21
-136.78571577396684
  0
LINE
  8
ValleyLine
  6
CONTINUOUS
 62
5
 10
-352.7696625620211
 20
-343.2304154441983
 11
-301.0705781435896
 21
-414.38810054264036
  0
LINE
  8
MountainLine
  6
CONTINUOUS
 62
1
 10
-352.7696625620211
 20
-343.2304154441983
 11
-487.1424284489092
 21
-158.2821698737799
  0
LINE
  8
ValleyLine
  6
CONTINUOUS
 62
5
 10
-431.63158905205614
 20
-369.2457453476914
 11
-349.95216316609583
 21
-481.66783041159243
  0
LINE
  8
MountainLine
  6
CONTINUOUS
 62
1
 10
-431.63158905205614
 20
-369.2457453476914
 11
-566.234494439292
 21
-183.9807399298081
  0
LINE
  8
ValleyLine
  6
CONTINUOUS
 62
5
 10
-509.2273137521655
 20
-394.7636545752736
 11
-398.0199486559599
 21
-547.827461316928
  0
LINE
  8
MountainLine
  6
CONTINUOUS
 62
1
 10
-509.2273137521655
 20
-394.7636545752736
 11
-644.0098051258312
 21
-209.2514702524983
  0
LINE
  8
MountainLine
  6
CONTINUOUS
 62
1
 10
-582.187070914645
 20
-418.4766926902905
 11
-443.1140925665856
 21
-609.8942257146385
  0
LINE
  8
ValleyLine
  6
CONTINUOUS
 62
5
 10
-582.187070914645
 20
-418.4766926902905
 11
-716.9736626668027
 21
-232.95886468069182
  0
LINE
  8
MountainLine
  6
CONTINUOUS
 62
1
 10
-612.6481890121615
 20
-434.298227421029
 11
-464.0921605354415
 21
-638.7680591933871
  0
LINE
  8
ValleyLine
  6
CONTINUOUS
 62
5
 10
-612.6481890121615
 20
-434.298227421029
 11
-750.9168896587171
 21
-243.98768768406916
  0
LINE
  8
MountainLine
  6
CONTINUOUS
 62
1
 10
-633.0745928107244
 20
-447.08257177716246
 11
-478.94954736842124
 21
-659.2174978157467
  0
LINE
  8
ValleyLine
  6
CONTINUOUS
 62
5
 10
-633.0745928107244
 20
-447.08257177716246
 11
-774.956646538483
 21
-251.7986781869557
  0
LINE
  8
MountainLine
  6
CONTINUOUS
 62
1
 10
-656.0668220363135
 20
-467.5338259149605
 11
-497.8750149222937
 21
-685.2661691933606
  0
LINE
  8
ValleyLine
  6
CONTINUOUS
 62
5
 10
-656.0668220363135
 20
-467.5338259149605
 11
-805.5786962936321
 21
-261.74838529142767
  0
LINE
  8
ValleyLine
  6
CONTINUOUS
 62
5
 10
-684.2511511663071
 20
-494.0390168198975
 11
-521.5957536899592
 21
-717.9149651733951
  0
LINE
  8
MountainLine
  6
CONTINUOUS
 62
1
 10
-684.2511511663071
 20
-494.0390168198975
 11
-843.9596578579723
 21
-274.2191156640399
  0
LINE
  8
ValleyLine
  6
CONTINUOUS
 62
5
 10
-717.2655580751234
 20
-522.8140469091031
 11
-548.5560986965884
 21
-755.0226966101848
  0
LINE
  8
MountainLine
  6
CONTINUOUS
 62
1
 10
-717.2655580751234
 20
-522.8140469091031
 11
-887.5824124271217
 21
-288.3930078274905
  0
LINE
  8
ValleyLine
  6
CONTINUOUS
 62
5
 10
-752.9846069297873
 20
-552.0752636877205
 11
-577.045382329345
 21
-794.2348315294864
  0
LINE
  8
MountainLine
  6
CONTINUOUS
 62
1
 10
-752.9846069297873
 20
-552.0752636877205
 11
-933.6790416600583
 21
-303.3707105952172
  0
LINE
  8
ValleyLine
  6
CONTINUOUS
 62
5
 10
-789.1785967949226
 20
-579.9632616298118
 11
-605.2732855248403
 21
-833.0872071405765
  0
LINE
  8
MountainLine
  6
CONTINUOUS
 62
1
 10
-789.1785967949226
 20
-579.9632616298118
 11
-979.3527484615113
 21
-318.2109975349762
  0
LINE
  8
ValleyLine
  6
CONTINUOUS
 62
5
 10
-823.6663224485053
 20
-604.6538694076152
 11
-631.4865366480687
 21
-869.1666520633588
  0
LINE
  8
MountainLine
  6
CONTINUOUS
 62
1
 10
-823.6663224485053
 20
-604.6538694076152
 11
-1021.7666797345312
 21
-331.99211920024914
  0
LINE
  8
ValleyLine
  6
CONTINUOUS
 62
5
 10
-854.5134033539733
 20
-624.5022443243189
 11
-654.1204213451928
 21
-900.3195217505096
  0
LINE
  8
MountainLine
  6
CONTINUOUS
 62
1
 10
-854.5134033539733
 20
-624.5022443243189
 11
-1058.389074471924
 21
-343.89145657364446
  0
LINE
  8
ValleyLine
  6
CONTINUOUS
 62
5
 10
-882.9053817211098
 20
-641.1584535912883
 11
-674.3671327226662
 21
-928.186729239462
  0
LINE
  8
MountainLine
  6
CONTINUOUS
 62
1
 10
-882.9053817211098
 20
-641.1584535912883
 11
-1091.1489416410852
 21
-354.53578266287866
  0
LINE
  8
ValleyLine
  6
CONTINUOUS
 62
5
 10
-909.4914842627181
 20
-655.882908402905
 11
-693.0091553046367
 21
-953.8452720823017
  0
LINE
  8
MountainLine
  6
CONTINUOUS
 62
1
 10
-909.4914842627181
 20
-655.882908402905
 11
-1121.3123677977567
 21
-364.3364739270481
  0
LINE
  8
MountainLine
  6
CONTINUOUS
 62
1
 10
-934.5167643105822
 20
-669.6423708035514
 11
-710.5202126268489
 21
-977.9471747889288
  0
LINE
  8
ValleyLine
  6
CONTINUOUS
 62
5
 10
-934.5167643105822
 20
-669.6423708035514
 11
-1149.6458537240437
 21
-373.5425815674366
  0
LINE
  8
MountainLine
  6
CONTINUOUS
 62
1
 10
-958.1815139143969
 20
-683.3710818625653
 11
-727.3398336482919
 21
-1001.0973970720198
  0
LINE
  8
ValleyLine
  6
CONTINUOUS
 62
5
 10
-958.1815139143969
 20
-683.3710818625653
 11
-1176.8605722146306
 21
-382.3851796324621
  0
LINE
  8
MountainLine
  6
CONTINUOUS
 62
1
 10
-980.6649632891111
 20
-697.6358730193676
 11
-743.7635470499148
 21
-1023.7026992650137
  0
LINE
  8
ValleyLine
  6
CONTINUOUS
 62
5
 10
-980.6649632891111
 20
-697.6358730193676
 11
-1203.4346987199435
 21
-391.01963674422325
  0
LINE
  8
MountainLine
  6
CONTINUOUS
 62
1
 10
-1002.5309745145477
 20
-713.2830271208362
 11
-760.3807141111183
 21
-1046.5742675775032
  0
LINE
  8
ValleyLine
  6
CONTINUOUS
 62
5
 10
-1002.5309745145477
 20
-713.2830271208362
 11
-1230.321839821706
 21
-399.7557984635792
  0
LINE
  8
MountainLine
  6
CONTINUOUS
 62
1
 10
-1024.779431971846
 20
-731.4756157589139
 11
-778.1137875098027
 21
-1070.9817491978408
  0
LINE
  8
ValleyLine
  6
CONTINUOUS
 62
5
 10
-1024.779431971846
 20
-731.4756157589139
 11
-1259.0145553057741
 21
-409.0786268627598
  0
LINE
  8
MountainLine
  6
CONTINUOUS
 62
1
 10
-1048.7267426001058
 20
-753.6066776249751
 11
-798.127021641738
 21
-1098.5276028271933
  0
LINE
  8
ValleyLine
  6
CONTINUOUS
 62
5
 10
-1048.7267426001058
 20
-753.6066776249751
 11
-1291.396648356055
 21
-419.6002067000428
  0
LINE
  8
ValleyLine
  6
CONTINUOUS
 62
5
 10
-1074.6225019471567
 20
-778.3787037920451
 11
-820.0738665728827
 21
-1128.7348434018052
  0
LINE
  8
MountainLine
  6
CONTINUOUS
 62
1
 10
-1074.6225019471567
 20
-778.3787037920451
 11
-1326.9073894004703
 21
-431.13834589319964
  0
LINE
  8
ValleyLine
  6
CONTINUOUS
 62
5
 10
-1102.1312214788138
 20
-804.0690968651068
 11
-843.1608079030879
 21
-1160.5112920476784
  0
LINE
  8
MountainLine
  6
CONTINUOUS
 62
1
 10
-1102.1312214788138
 20
-804.0690968651068
 11
-1364.2628451690173
 21
-443.2758692341576
  0
LINE
  8
ValleyLine
  6
CONTINUOUS
 62
5
 10
-1131.2430543606554
 20
-829.191851992913
 11
-866.8430993545167
 21
-1193.1071698367539
  0
LINE
  8
MountainLine
  6
CONTINUOUS
 62
1
 10
-1131.2430543606554
 20
-829.191851992913
 11
-1402.5815976689098
 21
-455.72638665644666
  0
LINE
  8
ValleyLine
  6
CONTINUOUS
 62
5
 10
-1163.0160982347832
 20
-853.0368714039594
 11
-891.3918316332
 21
-1226.8956011156206
  0
LINE
  8
MountainLine
  6
CONTINUOUS
 62
1
 10
-1163.0160982347832
 20
-853.0368714039594
 11
-1442.3022808765413
 21
-468.63241897843375
  0
LINE
  8
ValleyLine
  6
CONTINUOUS
 62
5
 10
-1197.671784987547
 20
-876.5678394503977
 11
-917.2677995150182
 21
-1262.510815482848
  0
LINE
  8
MountainLine
  6
CONTINUOUS
 62
1
 10
-1197.671784987547
 20
-876.5678394503977
 11
-1484.1704764011233
 21
-482.23622035010095
  0
LINE
  8
ValleyLine
  6
CONTINUOUS
 62
5
 10
-1234.6138892845845
 20
-900.1543777402032
 11
-944.3071632415224
 21
-1299.7273068570523
  0
LINE
  8
MountainLine
  6
CONTINUOUS
 62
1
 10
-1234.6138892845845
 20
-900.1543777402032
 11
-1527.9210859447783
 21
-496.4516551130298
  0
LINE
  8
ValleyLine
  6
CONTINUOUS
 62
5
 10
-1263.250078596229
 20
-917.917579945877
 11
-965.0781188153348
 21
-1328.3160745797582
  0
LINE
  8
MountainLine
  6
CONTINUOUS
 62
1
 10
-1263.250078596229
 20
-917.917579945877
 11
-1561.529198042021
 21
-507.3715926866274
  0
LINE
  8
ValleyLine
  6
CONTINUOUS
 62
5
 10
-1272.795475033444
 20
-923.8386473477682
 11
-972.0017706732724
 21
-1337.8456638206599
  0
LINE
  8
MountainLine
  6
CONTINUOUS
 62
1
 10
-1272.795475033444
 20
-923.8386473477682
 11
-1572.7319020744355
 21
-511.0115718778266
  0
LINE
  8
ValleyLine
  6
CONTINUOUS
 62
5
 10
-1272.795475033444
 20
-923.8386473477682
 11
-972.0017706732724
 21
-1337.8456638206599
  0
LINE
  8
MountainLine
  6
CONTINUOUS
 62
1
 10
-1272.795475033444
 20
-923.8386473477682
 11
-1572.7319020744355
 21
-511.0115718778266
  0
LINE
  8
ValleyLine
  6
CONTINUOUS
 62
5
 10
0.0
 20
-0.0
 11
0.0
 21
-0.0
  0
LINE
  8
ValleyLine
  6
CONTINUOUS
 62
5
 10
0.0
 20
-0.0
 11
-0.0015625108989489938
 21
-20.358791214955303
  0
LINE
  8
ValleyLine
  6
CONTINUOUS
 62
5
 10
-0.0015625108989489938
 20
-20.358791214955303
 11
-0.006250043595795975
 21
-81.43516485982121
  0
LINE
  8
ValleyLine
  6
CONTINUOUS
 62
5
 10
-0.006250043595795975
 20
-81.43516485982121
 11
-0.0075140129456095885
 21
-158.50395171264284
  0
LINE
  8
ValleyLine
  6
CONTINUOUS
 62
5
 10
-0.0075140129456095885
 20
-158.50395171264284
 11
-0.08903336280555994
 21
-227.11767433207513
  0
LINE
  8
ValleyLine
  6
CONTINUOUS
 62
5
 10
-0.08903336280555994
 20
-227.11767433207513
 11
-0.6154759510074008
 21
-284.04763253232613
  0
LINE
  8
ValleyLine
  6
CONTINUOUS
 62
5
 10
-0.6154759510074008
 20
-284.04763253232613
 11
-2.8025665547668606
 21
-328.68440999759133
  0
LINE
  8
ValleyLine
  6
CONTINUOUS
 62
5
 10
-2.8025665547668606
 20
-328.68440999759133
 11
-8.141663410390493
 21
-362.1149855672747
  0
LINE
  8
ValleyLine
  6
CONTINUOUS
 62
5
 10
-8.141663410390493
 20
-362.1149855672747
 11
-19.93601498850052
 21
-391.002762826102
  0
LINE
  8
ValleyLine
  6
CONTINUOUS
 62
5
 10
-19.93601498850052
 20
-391.002762826102
 11
-43.59201778681952
 21
-428.483969418049
  0
LINE
  8
ValleyLine
  6
CONTINUOUS
 62
5
 10
-43.59201778681952
 20
-428.483969418049
 11
-83.65087577627226
 21
-485.03204419087797
  0
LINE
  8
ValleyLine
  6
CONTINUOUS
 62
5
 10
-83.65087577627226
 20
-485.03204419087797
 11
-132.16008726506192
 21
-552.4327655552904
  0
LINE
  8
ValleyLine
  6
CONTINUOUS
 62
5
 10
-132.16008726506192
 20
-552.4327655552904
 11
-179.9372965249794
 21
-618.6868104009928
  0
LINE
  8
ValleyLine
  6
CONTINUOUS
 62
5
 10
-179.9372965249794
 20
-618.6868104009928
 11
-225.02480588383838
 21
-680.7557304952479
  0
LINE
  8
ValleyLine
  6
CONTINUOUS
 62
5
 10
-225.02480588383838
 20
-680.7557304952479
 11
-240.3687033090301
 21
-711.4602169555684
  0
LINE
  8
ValleyLine
  6
CONTINUOUS
 62
5
 10
-240.3687033090301
 20
-711.4602169555684
 11
-249.37956204326886
 21
-733.809307711788
  0
LINE
  8
ValleyLine
  6
CONTINUOUS
 62
5
 10
-249.37956204326886
 20
-733.809307711788
 11
-255.95972065225155
 21
-763.8692131216768
  0
LINE
  8
ValleyLine
  6
CONTINUOUS
 62
5
 10
-255.95972065225155
 20
-763.8692131216768
 11
-263.18196157035464
 21
-801.8786960112903
  0
LINE
  8
ValleyLine
  6
CONTINUOUS
 62
5
 10
-263.18196157035464
 20
-801.8786960112903
 11
-272.97763949808956
 21
-844.5635658612933
  0
LINE
  8
ValleyLine
  6
CONTINUOUS
 62
5
 10
-272.97763949808956
 20
-844.5635658612933
 11
-284.6756453578173
 21
-889.23151765397
  0
LINE
  8
ValleyLine
  6
CONTINUOUS
 62
5
 10
-284.6756453578173
 20
-889.23151765397
 11
-297.56504434662224
 21
-933.0676753925651
  0
LINE
  8
ValleyLine
  6
CONTINUOUS
 62
5
 10
-297.56504434662224
 20
-933.0676753925651
 11
-310.9534253757808
 21
-973.3141732105388
  0
LINE
  8
ValleyLine
  6
CONTINUOUS
 62
5
 10
-310.9534253757808
 20
-973.3141732105388
 11
-324.2426559971531
 21
-1007.5033050613845
  0
LINE
  8
ValleyLine
  6
CONTINUOUS
 62
5
 10
-324.2426559971531
 20
-1007.5033050613845
 11
-337.4219748338706
 21
-1037.666847587838
  0
LINE
  8
ValleyLine
  6
CONTINUOUS
 62
5
 10
-337.4219748338706
 20
-1037.666847587838
 11
-350.2757662179117
 21
-1065.2061007532348
  0
LINE
  8
ValleyLine
  6
CONTINUOUS
 62
5
 10
-350.2757662179117
 20
-1065.2061007532348
 11
-362.4340339870531
 21
-1091.0472302154444
  0
LINE
  8
ValleyLine
  6
CONTINUOUS
 62
5
 10
-362.4340339870531
 20
-1091.0472302154444
 11
-373.5096846906939
 21
-1116.0637815893665
  0
LINE
  8
ValleyLine
  6
CONTINUOUS
 62
5
 10
-373.5096846906939
 20
-1116.0637815893665
 11
-383.314543458006
 21
-1140.8196800195503
  0
LINE
  8
ValleyLine
  6
CONTINUOUS
 62
5
 10
-383.314543458006
 20
-1140.8196800195503
 11
-391.8073517173867
 21
-1166.3310125260152
  0
LINE
  8
ValleyLine
  6
CONTINUOUS
 62
5
 10
-391.8073517173867
 20
-1166.3310125260152
 11
-399.1133965964835
 21
-1194.1264410855492
  0
LINE
  8
ValleyLine
  6
CONTINUOUS
 62
5
 10
-399.1133965964835
 20
-1194.1264410855492
 11
-405.4788660818784
 21
-1226.106722258114
  0
LINE
  8
ValleyLine
  6
CONTINUOUS
 62
5
 10
-405.4788660818784
 20
-1226.106722258114
 11
-411.8683438254794
 21
-1261.368857853486
  0
LINE
  8
ValleyLine
  6
CONTINUOUS
 62
5
 10
-411.8683438254794
 20
-1261.368857853486
 11
-419.02293124614164
 21
-1298.3220420919233
  0
LINE
  8
ValleyLine
  6
CONTINUOUS
 62
5
 10
-419.02293124614164
 20
-1298.3220420919233
 11
-427.80811382387515
 21
-1335.7582839709883
  0
LINE
  8
ValleyLine
  6
CONTINUOUS
 62
5
 10
-427.80811382387515
 20
-1335.7582839709883
 11
-439.49729553062485
 21
-1373.7250365153795
  0
LINE
  8
ValleyLine
  6
CONTINUOUS
 62
5
 10
-439.49729553062485
 20
-1373.7250365153795
 11
-453.7031790754833
 21
-1413.1320911403839
  0
LINE
  8
ValleyLine
  6
CONTINUOUS
 62
5
 10
-453.7031790754833
 20
-1413.1320911403839
 11
-469.72614990037926
 21
-1453.928025549761
  0
LINE
  8
ValleyLine
  6
CONTINUOUS
 62
5
 10
-469.72614990037926
 20
-1453.928025549761
 11
-482.4523654176538
 21
-1485.13068776791
  0
LINE
  8
ValleyLine
  6
CONTINUOUS
 62
5
 10
-482.4523654176538
 20
-1485.13068776791
 11
-486.6944372567454
 21
-1495.5315751739595
  0
LINE
  8
ValleyLine
  6
CONTINUOUS
 62
5
 10
-486.6944372567454
 20
-1495.5315751739595
 11
-486.6944372567454
 21
-1495.5315751739595
  0
LINE
  8
ValleyLine
  6
CONTINUOUS
 62
5
 10
-486.6944372567454
 20
-1495.5315751739595
 11
-486.6944372567454
 21
-1495.5315751739595
  0
LINE
  8
ValleyLine
  6
CONTINUOUS
 62
5
 10
0.0
 20
-0.0
 11
0.0
 21
-0.0
  0
LINE
  8
MountainLine
  6
CONTINUOUS
 62
1
 10
0.0
 20
-0.0
 11
0.0
 21
-0.0
  0
LINE
  8
ValleyLine
  6
CONTINUOUS
 62
5
 10
0.0
 20
-0.0
 11
0.0
 21
-0.0
  0
LINE
  8
MountainLine
  6
CONTINUOUS
 62
1
 10
0.0
 20
-0.0
 11
0.0
 21
-0.0
  0
LINE
  8
ValleyLine
  6
CONTINUOUS
 62
5
 10
-0.0015625108989489938
 20
-20.358791214955303
 11
-1.5719972030090713E-15
 21
-20.359298905521953
  0
LINE
  8
MountainLine
  6
CONTINUOUS
 62
1
 10
-0.0015625108989489938
 20
-20.358791214955303
 11
-11.966895643680092
 21
-16.471018808126523
  0
LINE
  8
ValleyLine
  6
CONTINUOUS
 62
5
 10
-0.006250043595795975
 20
-81.43516485982121
 11
-6.287988812036285E-15
 21
-81.43719562208781
  0
LINE
  8
MountainLine
  6
CONTINUOUS
 62
1
 10
-0.006250043595795975
 20
-81.43516485982121
 11
-47.867582574720366
 21
-65.88407523250609
  0
LINE
  8
ValleyLine
  6
CONTINUOUS
 62
5
 10
-0.0075140129456095885
 20
-158.50395171264284
 11
-1.257597762407257E-14
 21
-158.50639316344663
  0
LINE
  8
MountainLine
  6
CONTINUOUS
 62
1
 10
-0.0075140129456095885
 20
-158.50395171264284
 11
-93.16772029554642
 21
-128.2343657863053
  0
LINE
  8
ValleyLine
  6
CONTINUOUS
 62
5
 10
-0.08903336280555994
 20
-227.11767433207513
 11
-2.515195524814514E-14
 21
-227.14660302527247
  0
LINE
  8
MountainLine
  6
CONTINUOUS
 62
1
 10
-0.08903336280555994
 20
-227.11767433207513
 11
-133.51342336658803
 21
-183.76546206198526
  0
LINE
  8
ValleyLine
  6
CONTINUOUS
 62
5
 10
-0.6154759510074008
 20
-284.04763253232613
 11
-2.515195524814514E-14
 21
-284.2476127913661
  0
LINE
  8
MountainLine
  6
CONTINUOUS
 62
1
 10
-0.6154759510074008
 20
-284.04763253232613
 11
-167.07655479810634
 21
-229.96114935872487
  0
LINE
  8
ValleyLine
  6
CONTINUOUS
 62
5
 10
-2.8025665547668606
 20
-328.68440999759133
 11
-2.515195524814514E-14
 21
-329.59501907123865
  0
LINE
  8
MountainLine
  6
CONTINUOUS
 62
1
 10
-2.8025665547668606
 20
-328.68440999759133
 11
-193.73109143913052
 21
-266.647971689967
  0
LINE
  8
ValleyLine
  6
CONTINUOUS
 62
5
 10
-8.141663410390493
 20
-362.1149855672747
 11
-1.257597762407257E-14
 21
-364.76037236940937
  0
LINE
  8
MountainLine
  6
CONTINUOUS
 62
1
 10
-8.141663410390493
 20
-362.1149855672747
 11
-214.4007674994497
 21
-295.09734012138614
  0
LINE
  8
ValleyLine
  6
CONTINUOUS
 62
5
 10
-19.93601498850052
 20
-391.002762826102
 11
-2.515195524814514E-14
 21
-397.48036676026027
  0
LINE
  8
MountainLine
  6
CONTINUOUS
 62
1
 10
-19.93601498850052
 20
-391.002762826102
 11
-233.63309765748434
 21
-321.56837163943754
  0
LINE
  8
ValleyLine
  6
CONTINUOUS
 62
5
 10
-43.59201778681952
 20
-428.483969418049
 11
-2.515195524814514E-14
 21
-442.64787459552184
  0
LINE
  8
MountainLine
  6
CONTINUOUS
 62
1
 10
-43.59201778681952
 20
-428.483969418049
 11
-260.18189264585584
 21
-358.10965307172773
  0
LINE
  8
ValleyLine
  6
CONTINUOUS
 62
5
 10
-83.65087577627226
 20
-485.03204419087797
 11
-5.030391049629028E-14
 21
-512.211861337721
  0
LINE
  8
MountainLine
  6
CONTINUOUS
 62
1
 10
-83.65087577627226
 20
-485.03204419087797
 11
-301.0705781435896
 21
-414.38810054264036
  0
LINE
  8
ValleyLine
  6
CONTINUOUS
 62
5
 10
-132.16008726506192
 20
-552.4327655552904
 11
-5.030391049629028E-14
 21
-595.3741809635687
  0
LINE
  8
MountainLine
  6
CONTINUOUS
 62
1
 10
-132.16008726506192
 20
-552.4327655552904
 11
-349.95216316609583
 21
-481.66783041159243
  0
LINE
  8
ValleyLine
  6
CONTINUOUS
 62
5
 10
-179.9372965249794
 20
-618.6868104009928
 11
-5.030391049629028E-14
 21
-677.1519821288595
  0
LINE
  8
MountainLine
  6
CONTINUOUS
 62
1
 10
-179.9372965249794
 20
-618.6868104009928
 11
-398.0199486559599
 21
-547.8274613169281
  0
LINE
  8
MountainLine
  6
CONTINUOUS
 62
1
 10
-225.02480588383838
 20
-680.7557304952479
 11
-7.545586574443542E-14
 21
-753.8707220678934
  0
LINE
  8
ValleyLine
  6
CONTINUOUS
 62
5
 10
-225.02480588383838
 20
-680.7557304952479
 11
-443.1140925665856
 21
-609.8942257146385
  0
LINE
  8
MountainLine
  6
CONTINUOUS
 62
1
 10
-240.3687033090301
 20
-711.4602169555684
 11
-5.030391049629028E-14
 21
-789.560743018636
  0
LINE
  8
ValleyLine
  6
CONTINUOUS
 62
5
 10
-240.3687033090301
 20
-711.4602169555684
 11
-464.0921605354415
 21
-638.7680591933871
  0
LINE
  8
MountainLine
  6
CONTINUOUS
 62
1
 10
-249.37956204326886
 20
-733.809307711788
 11
-1.0060782099258056E-13
 21
-814.8376392575822
  0
LINE
  8
ValleyLine
  6
CONTINUOUS
 62
5
 10
-249.37956204326886
 20
-733.809307711788
 11
-478.9495473684211
 21
-659.2174978157467
  0
LINE
  8
MountainLine
  6
CONTINUOUS
 62
1
 10
-255.95972065225155
 20
-763.8692131216768
 11
-5.030391049629028E-14
 21
-847.0355678038659
  0
LINE
  8
ValleyLine
  6
CONTINUOUS
 62
5
 10
-255.95972065225155
 20
-763.8692131216768
 11
-497.8750149222936
 21
-685.2661691933606
  0
LINE
  8
ValleyLine
  6
CONTINUOUS
 62
5
 10
-263.18196157035464
 20
-801.8786960112903
 11
-1.0060782099258056E-13
 21
-887.3916990187105
  0
LINE
  8
MountainLine
  6
CONTINUOUS
 62
1
 10
-263.18196157035464
 20
-801.8786960112903
 11
-521.5957536899591
 21
-717.9149651733951
  0
LINE
  8
ValleyLine
  6
CONTINUOUS
 62
5
 10
-272.97763949808956
 20
-844.5635658612933
 11
-5.030391049629028E-14
 21
-933.2593775653884
  0
LINE
  8
MountainLine
  6
CONTINUOUS
 62
1
 10
-272.97763949808956
 20
-844.5635658612933
 11
-548.5560986965883
 21
-755.0226966101848
  0
LINE
  8
ValleyLine
  6
CONTINUOUS
 62
5
 10
-284.6756453578173
 20
-889.23151765397
 11
-5.030391049629028E-14
 21
-981.7282418685385
  0
LINE
  8
MountainLine
  6
CONTINUOUS
 62
1
 10
-284.6756453578173
 20
-889.23151765397
 11
-577.045382329345
 21
-794.2348315294864
  0
LINE
  8
ValleyLine
  6
CONTINUOUS
 62
5
 10
-297.56504434662224
 20
-933.0676753925651
 11
-1.0060782099258056E-13
 21
-1029.752419211201
  0
LINE
  8
MountainLine
  6
CONTINUOUS
 62
1
 10
-297.56504434662224
 20
-933.0676753925651
 11
-605.2732855248403
 21
-833.0872071405765
  0
LINE
  8
ValleyLine
  6
CONTINUOUS
 62
5
 10
-310.9534253757808
 20
-973.3141732105388
 11
-1.0060782099258056E-13
 21
-1074.3490657262191
  0
LINE
  8
MountainLine
  6
CONTINUOUS
 62
1
 10
-310.9534253757808
 20
-973.3141732105388
 11
-631.4865366480686
 21
-869.1666520633587
  0
LINE
  8
ValleyLine
  6
CONTINUOUS
 62
5
 10
-324.2426559971531
 20
-1007.5033050613845
 11
-1.0060782099258056E-13
 21
-1112.8561303537301
  0
LINE
  8
MountainLine
  6
CONTINUOUS
 62
1
 10
-324.2426559971531
 20
-1007.5033050613845
 11
-654.1204213451927
 21
-900.3195217505096
  0
LINE
  8
ValleyLine
  6
CONTINUOUS
 62
5
 10
-337.4219748338706
 20
-1037.666847587838
 11
-5.030391049629028E-14
 21
-1147.3018931531665
  0
LINE
  8
MountainLine
  6
CONTINUOUS
 62
1
 10
-337.4219748338706
 20
-1037.666847587838
 11
-674.367132722666
 21
-928.186729239462
  0
LINE
  8
ValleyLine
  6
CONTINUOUS
 62
5
 10
-350.2757662179117
 20
-1065.2061007532348
 11
-1.0060782099258056E-13
 21
-1179.017596310507
  0
LINE
  8
MountainLine
  6
CONTINUOUS
 62
1
 10
-350.2757662179117
 20
-1065.2061007532348
 11
-693.0091553046367
 21
-953.8452720823017
  0
LINE
  8
MountainLine
  6
CONTINUOUS
 62
1
 10
-362.4340339870531
 20
-1091.0472302154444
 11
-5.030391049629028E-14
 21
-1208.8091864429844
  0
LINE
  8
ValleyLine
  6
CONTINUOUS
 62
5
 10
-362.4340339870531
 20
-1091.0472302154444
 11
-710.5202126268489
 21
-977.9471747889288
  0
LINE
  8
MountainLine
  6
CONTINUOUS
 62
1
 10
-373.5096846906939
 20
-1116.0637815893665
 11
-1.0060782099258056E-13
 21
-1237.424434879115
  0
LINE
  8
ValleyLine
  6
CONTINUOUS
 62
5
 10
-373.5096846906939
 20
-1116.0637815893665
 11
-727.3398336482917
 21
-1001.0973970720198
  0
LINE
  8
MountainLine
  6
CONTINUOUS
 62
1
 10
-383.314543458006
 20
-1140.8196800195503
 11
-1.5091173148887084E-13
 21
-1265.3661250415807
  0
LINE
  8
ValleyLine
  6
CONTINUOUS
 62
5
 10
-383.314543458006
 20
-1140.8196800195503
 11
-743.7635470499146
 21
-1023.7026992650137
  0
LINE
  8
MountainLine
  6
CONTINUOUS
 62
1
 10
-391.8073517173867
 20
-1166.3310125260152
 11
-1.0060782099258056E-13
 21
-1293.636938227848
  0
LINE
  8
ValleyLine
  6
CONTINUOUS
 62
5
 10
-391.8073517173867
 20
-1166.3310125260152
 11
-760.3807141111181
 21
-1046.5742675775032
  0
LINE
  8
MountainLine
  6
CONTINUOUS
 62
1
 10
-399.1133965964835
 20
-1194.1264410855492
 11
-1.0060782099258056E-13
 21
-1323.806244670162
  0
LINE
  8
ValleyLine
  6
CONTINUOUS
 62
5
 10
-399.1133965964835
 20
-1194.1264410855492
 11
-778.1137875098026
 21
-1070.9817491978408
  0
LINE
  8
MountainLine
  6
CONTINUOUS
 62
1
 10
-405.4788660818784
 20
-1226.106722258114
 11
-1.0060782099258056E-13
 21
-1357.8547922543012
  0
LINE
  8
ValleyLine
  6
CONTINUOUS
 62
5
 10
-405.4788660818784
 20
-1226.106722258114
 11
-798.127021641738
 21
-1098.5276028271933
  0
LINE
  8
ValleyLine
  6
CONTINUOUS
 62
5
 10
-411.8683438254794
 20
-1261.368857853486
 11
-1.0060782099258056E-13
 21
-1395.192995017211
  0
LINE
  8
MountainLine
  6
CONTINUOUS
 62
1
 10
-411.8683438254794
 20
-1261.368857853486
 11
-820.0738665728826
 21
-1128.734843401805
  0
LINE
  8
ValleyLine
  6
CONTINUOUS
 62
5
 10
-419.02293124614164
 20
-1298.3220420919233
 11
-1.0060782099258056E-13
 21
-1434.4708456270414
  0
LINE
  8
MountainLine
  6
CONTINUOUS
 62
1
 10
-419.02293124614164
 20
-1298.3220420919233
 11
-843.1608079030879
 21
-1160.5112920476784
  0
LINE
  8
ValleyLine
  6
CONTINUOUS
 62
5
 10
-427.80811382387515
 20
-1335.7582839709883
 11
-1.0060782099258056E-13
 21
-1474.7615663606143
  0
LINE
  8
MountainLine
  6
CONTINUOUS
 62
1
 10
-427.80811382387515
 20
-1335.7582839709883
 11
-866.8430993545165
 21
-1193.1071698367539
  0
LINE
  8
ValleyLine
  6
CONTINUOUS
 62
5
 10
-439.49729553062485
 20
-1373.7250365153795
 11
-1.5091173148887084E-13
 21
-1516.526364274374
  0
LINE
  8
MountainLine
  6
CONTINUOUS
 62
1
 10
-439.49729553062485
 20
-1373.7250365153795
 11
-891.3918316332
 21
-1226.8956011156206
  0
LINE
  8
ValleyLine
  6
CONTINUOUS
 62
5
 10
-453.7031790754833
 20
-1413.1320911403839
 11
-1.0060782099258056E-13
 21
-1560.5491902654937
  0
LINE
  8
MountainLine
  6
CONTINUOUS
 62
1
 10
-453.7031790754833
 20
-1413.1320911403839
 11
-917.2677995150178
 21
-1262.5108154828479
  0
LINE
  8
ValleyLine
  6
CONTINUOUS
 62
5
 10
-469.72614990037926
 20
-1453.928025549761
 11
-2.0121564198516112E-13
 21
-1606.551303488045
  0
LINE
  8
MountainLine
  6
CONTINUOUS
 62
1
 10
-469.72614990037926
 20
-1453.928025549761
 11
-944.3071632415221
 21
-1299.727306857052
  0
LINE
  8
ValleyLine
  6
CONTINUOUS
 62
5
 10
-482.4523654176538
 20
-1485.13068776791
 11
-1.0060782099258056E-13
 21
-1641.8889637862612
  0
LINE
  8
MountainLine
  6
CONTINUOUS
 62
1
 10
-482.4523654176538
 20
-1485.13068776791
 11
-965.0781188153348
 21
-1328.3160745797582
  0
LINE
  8
ValleyLine
  6
CONTINUOUS
 62
5
 10
-486.6944372567454
 20
-1495.5315751739595
 11
-2.0121564198516112E-13
 21
-1653.6681838856664
  0
LINE
  8
MountainLine
  6
CONTINUOUS
 62
1
 10
-486.6944372567454
 20
-1495.5315751739595
 11
-972.0017706732724
 21
-1337.8456638206599
  0
LINE
  8
ValleyLine
  6
CONTINUOUS
 62
5
 10
-486.6944372567454
 20
-1495.5315751739595
 11
-2.0121564198516112E-13
 21
-1653.6681838856664
  0
LINE
  8
MountainLine
  6
CONTINUOUS
 62
1
 10
-486.6944372567454
 20
-1495.5315751739595
 11
-972.0017706732724
 21
-1337.8456638206599
  0
LINE
  8
ValleyLine
  6
CONTINUOUS
 62
5
 10
0.0
 20
-0.0
 11
0.0
 21
-0.0
  0
LINE
  8
ValleyLine
  6
CONTINUOUS
 62
5
 10
0.0
 20
-0.0
 11
11.965333132781142
 21
-16.471526498693173
  0
LINE
  8
ValleyLine
  6
CONTINUOUS
 62
5
 10
11.965333132781142
 20
-16.471526498693173
 11
47.86133253112457
 21
-65.88610599477269
  0
LINE
  8
ValleyLine
  6
CONTINUOUS
 62
5
 10
47.86133253112457
 20
-65.88610599477269
 11
93.1602062826008
 21
-128.23680723710908
  0
LINE
  8
ValleyLine
  6
CONTINUOUS
 62
5
 10
93.1602062826008
 20
-128.23680723710908
 11
133.42439000378246
 21
-183.79439075518266
  0
LINE
  8
ValleyLine
  6
CONTINUOUS
 62
5
 10
133.42439000378246
 20
-183.79439075518266
 11
166.46107884709892
 21
-230.16112961776486
  0
LINE
  8
ValleyLine
  6
CONTINUOUS
 62
5
 10
166.46107884709892
 20
-230.16112961776486
 11
190.92852488436367
 21
-267.5585807636143
  0
LINE
  8
ValleyLine
  6
CONTINUOUS
 62
5
 10
190.92852488436367
 20
-267.5585807636143
 11
206.2591040890592
 21
-297.7427269235208
  0
LINE
  8
ValleyLine
  6
CONTINUOUS
 62
5
 10
206.2591040890592
 20
-297.7427269235208
 11
213.69708266898382
 21
-328.04597557359585
  0
LINE
  8
ValleyLine
  6
CONTINUOUS
 62
5
 10
213.69708266898382
 20
-328.04597557359585
 11
216.58987485903629
 21
-372.2735582492006
  0
LINE
  8
ValleyLine
  6
CONTINUOUS
 62
5
 10
216.58987485903629
 20
-372.2735582492006
 11
217.41970236731729
 21
-441.5679176894834
  0
LINE
  8
ValleyLine
  6
CONTINUOUS
 62
5
 10
217.41970236731729
 20
-441.5679176894834
 11
217.79207590103383
 21
-524.6092458198708
  0
LINE
  8
ValleyLine
  6
CONTINUOUS
 62
5
 10
217.79207590103383
 20
-524.6092458198708
 11
218.0826521309805
 21
-606.2926330447948
  0
LINE
  8
ValleyLine
  6
CONTINUOUS
 62
5
 10
218.0826521309805
 20
-606.2926330447948
 11
218.0892866827472
 21
-683.0092172872841
  0
LINE
  8
ValleyLine
  6
CONTINUOUS
 62
5
 10
218.0892866827472
 20
-683.0092172872841
 11
223.72345722641134
 21
-716.8685852564547
  0
LINE
  8
ValleyLine
  6
CONTINUOUS
 62
5
 10
223.72345722641134
 20
-716.8685852564547
 11
229.56998532515226
 21
-740.2458293615409
  0
LINE
  8
ValleyLine
  6
CONTINUOUS
 62
5
 10
229.56998532515226
 20
-740.2458293615409
 11
241.91529427004198
 21
-768.4325238755498
  0
LINE
  8
ValleyLine
  6
CONTINUOUS
 62
5
 10
241.91529427004198
 20
-768.4325238755498
 11
258.4137921196044
 21
-803.4279681808152
  0
LINE
  8
ValleyLine
  6
CONTINUOUS
 62
5
 10
258.4137921196044
 20
-803.4279681808152
 11
275.5784591984986
 21
-843.7185083142799
  0
LINE
  8
ValleyLine
  6
CONTINUOUS
 62
5
 10
275.5784591984986
 20
-843.7185083142799
 11
292.36973697152763
 21
-886.7315557440551
  0
LINE
  8
ValleyLine
  6
CONTINUOUS
 62
5
 10
292.36973697152763
 20
-886.7315557440551
 11
307.708241178218
 21
-929.7719509592125
  0
LINE
  8
ValleyLine
  6
CONTINUOUS
 62
5
 10
307.708241178218
 20
-929.7719509592125
 11
320.5331112722878
 21
-970.2015445790394
  0
LINE
  8
ValleyLine
  6
CONTINUOUS
 62
5
 10
320.5331112722878
 20
-970.2015445790394
 11
329.8777653480396
 21
-1005.6723470428556
  0
LINE
  8
ValleyLine
  6
CONTINUOUS
 62
5
 10
329.8777653480396
 20
-1005.6723470428556
 11
336.94515788879545
 21
-1037.8217748047905
  0
LINE
  8
ValleyLine
  6
CONTINUOUS
 62
5
 10
336.94515788879545
 20
-1037.8217748047905
 11
342.7333890867249
 21
-1067.656767639574
  0
LINE
  8
ValleyLine
  6
CONTINUOUS
 62
5
 10
342.7333890867249
 20
-1067.656767639574
 11
348.0861786397957
 21
-1095.709131016469
  0
LINE
  8
ValleyLine
  6
CONTINUOUS
 62
5
 10
348.0861786397957
 20
-1095.709131016469
 11
353.8301489575977
 21
-1122.4580503617688
  0
LINE
  8
ValleyLine
  6
CONTINUOUS
 62
5
 10
353.8301489575977
 20
-1122.4580503617688
 11
360.4490035919086
 21
-1148.2491442870441
  0
LINE
  8
ValleyLine
  6
CONTINUOUS
 62
5
 10
360.4490035919086
 20
-1148.2491442870441
 11
368.5733623937314
 21
-1173.880193279336
  0
LINE
  8
ValleyLine
  6
CONTINUOUS
 62
5
 10
368.5733623937314
 20
-1173.880193279336
 11
379.000390913319
 21
-1200.6615527824538
  0
LINE
  8
ValleyLine
  6
CONTINUOUS
 62
5
 10
379.000390913319
 20
-1200.6615527824538
 11
392.6481555598596
 21
-1230.2756728233808
  0
LINE
  8
ValleyLine
  6
CONTINUOUS
 62
5
 10
392.6481555598596
 20
-1230.2756728233808
 11
408.20552274740305
 21
-1262.55898056553
  0
LINE
  8
ValleyLine
  6
CONTINUOUS
 62
5
 10
408.20552274740305
 20
-1262.55898056553
 11
424.13787665694616
 21
-1296.6600955827969
  0
LINE
  8
ValleyLine
  6
CONTINUOUS
 62
5
 10
424.13787665694616
 20
-1296.6600955827969
 11
439.03498553064134
 21
-1332.11045222638
  0
LINE
  8
ValleyLine
  6
CONTINUOUS
 62
5
 10
439.03498553064134
 20
-1332.11045222638
 11
451.894536102575
 21
-1369.6969288746152
  0
LINE
  8
ValleyLine
  6
CONTINUOUS
 62
5
 10
451.894536102575
 20
-1369.6969288746152
 11
463.5646204395346
 21
-1409.927914607958
  0
LINE
  8
ValleyLine
  6
CONTINUOUS
 62
5
 10
463.5646204395346
 20
-1409.927914607958
 11
474.58101334114275
 21
-1452.3505847953363
  0
LINE
  8
ValleyLine
  6
CONTINUOUS
 62
5
 10
474.58101334114275
 20
-1452.3505847953363
 11
482.62575339768097
 21
-1485.0743505981093
  0
LINE
  8
ValleyLine
  6
CONTINUOUS
 62
5
 10
482.62575339768097
 20
-1485.0743505981093
 11
485.307333416527
 21
-1495.9822725323668
  0
LINE
  8
ValleyLine
  6
CONTINUOUS
 62
5
 10
485.307333416527
 20
-1495.9822725323668
 11
485.307333416527
 21
-1495.9822725323668
  0
LINE
  8
ValleyLine
  6
CONTINUOUS
 62
5
 10
485.307333416527
 20
-1495.9822725323668
 11
485.307333416527
 21
-1495.9822725323668
  0
LINE
  8
ValleyLine
  6
CONTINUOUS
 62
5
 10
0.0
 20
-0.0
 11
0.0
 21
-0.0
  0
LINE
  8
MountainLine
  6
CONTINUOUS
 62
1
 10
0.0
 20
-0.0
 11
0.0
 21
-0.0
  0
LINE
  8
ValleyLine
  6
CONTINUOUS
 62
5
 10
0.0
 20
-0.0
 11
0.0
 21
-0.0
  0
LINE
  8
MountainLine
  6
CONTINUOUS
 62
1
 10
0.0
 20
-0.0
 11
0.0
 21
-0.0
  0
LINE
  8
ValleyLine
  6
CONTINUOUS
 62
5
 10
11.965333132781142
 20
-16.471526498693173
 11
11.966895643680088
 21
-16.471018808126527
  0
LINE
  8
MountainLine
  6
CONTINUOUS
 62
1
 10
11.965333132781142
 20
-16.471526498693173
 11
-7.859986015045356E-16
 21
-20.35929890552195
  0
LINE
  8
ValleyLine
  6
CONTINUOUS
 62
5
 10
47.86133253112457
 20
-65.88610599477269
 11
47.86758257472035
 21
-65.8840752325061
  0
LINE
  8
MountainLine
  6
CONTINUOUS
 62
1
 10
47.86133253112457
 20
-65.88610599477269
 11
-3.1439944060181426E-15
 21
-81.4371956220878
  0
LINE
  8
ValleyLine
  6
CONTINUOUS
 62
5
 10
93.1602062826008
 20
-128.23680723710908
 11
93.1677202955464
 21
-128.2343657863053
  0
LINE
  8
MountainLine
  6
CONTINUOUS
 62
1
 10
93.1602062826008
 20
-128.23680723710908
 11
-1.257597762407257E-14
 21
-158.50639316344663
  0
LINE
  8
ValleyLine
  6
CONTINUOUS
 62
5
 10
133.42439000378246
 20
-183.79439075518266
 11
133.51342336658803
 21
-183.7654620619853
  0
LINE
  8
MountainLine
  6
CONTINUOUS
 62
1
 10
133.42439000378246
 20
-183.79439075518266
 11
-1.257597762407257E-14
 21
-227.14660302527247
  0
LINE
  8
ValleyLine
  6
CONTINUOUS
 62
5
 10
166.46107884709892
 20
-230.16112961776486
 11
167.07655479810632
 21
-229.96114935872487
  0
LINE
  8
MountainLine
  6
CONTINUOUS
 62
1
 10
166.46107884709892
 20
-230.16112961776486
 11
-2.515195524814514E-14
 21
-284.2476127913661
  0
LINE
  8
ValleyLine
  6
CONTINUOUS
 62
5
 10
190.92852488436367
 20
-267.5585807636143
 11
193.7310914391305
 21
-266.647971689967
  0
LINE
  8
MountainLine
  6
CONTINUOUS
 62
1
 10
190.92852488436367
 20
-267.5585807636143
 11
-2.515195524814514E-14
 21
-329.59501907123865
  0
LINE
  8
ValleyLine
  6
CONTINUOUS
 62
5
 10
206.2591040890592
 20
-297.7427269235208
 11
214.4007674994497
 21
-295.09734012138614
  0
LINE
  8
MountainLine
  6
CONTINUOUS
 62
1
 10
206.2591040890592
 20
-297.7427269235208
 11
-3.772793287221771E-14
 21
-364.76037236940937
  0
LINE
  8
ValleyLine
  6
CONTINUOUS
 62
5
 10
213.69708266898382
 20
-328.04597557359585
 11
233.63309765748434
 21
-321.56837163943754
  0
LINE
  8
MountainLine
  6
CONTINUOUS
 62
1
 10
213.69708266898382
 20
-328.04597557359585
 11
-2.515195524814514E-14
 21
-397.4803667602603
  0
LINE
  8
ValleyLine
  6
CONTINUOUS
 62
5
 10
216.58987485903629
 20
-372.2735582492006
 11
260.1818926458558
 21
-358.1096530717278
  0
LINE
  8
MountainLine
  6
CONTINUOUS
 62
1
 10
216.58987485903629
 20
-372.2735582492006
 11
0.0
 21
-442.6478745955219
  0
LINE
  8
ValleyLine
  6
CONTINUOUS
 62
5
 10
217.41970236731729
 20
-441.5679176894834
 11
301.07057814358956
 21
-414.3881005426404
  0
LINE
  8
MountainLine
  6
CONTINUOUS
 62
1
 10
217.41970236731729
 20
-441.5679176894834
 11
-5.030391049629028E-14
 21
-512.211861337721
  0
LINE
  8
ValleyLine
  6
CONTINUOUS
 62
5
 10
217.79207590103383
 20
-524.6092458198708
 11
349.9521631660958
 21
-481.66783041159255
  0
LINE
  8
MountainLine
  6
CONTINUOUS
 62
1
 10
217.79207590103383
 20
-524.6092458198708
 11
-5.030391049629028E-14
 21
-595.3741809635688
  0
LINE
  8
ValleyLine
  6
CONTINUOUS
 62
5
 10
218.0826521309805
 20
-606.2926330447948
 11
398.01994865595987
 21
-547.8274613169281
  0
LINE
  8
MountainLine
  6
CONTINUOUS
 62
1
 10
218.0826521309805
 20
-606.2926330447948
 11
-5.030391049629028E-14
 21
-677.1519821288595
  0
LINE
  8
MountainLine
  6
CONTINUOUS
 62
1
 10
218.0892866827472
 20
-683.0092172872841
 11
443.11409256658555
 21
-609.8942257146385
  0
LINE
  8
ValleyLine
  6
CONTINUOUS
 62
5
 10
218.0892866827472
 20
-683.0092172872841
 11
-2.515195524814514E-14
 21
-753.8707220678936
  0
LINE
  8
MountainLine
  6
CONTINUOUS
 62
1
 10
223.72345722641134
 20
-716.8685852564547
 11
464.0921605354414
 21
-638.7680591933871
  0
LINE
  8
ValleyLine
  6
CONTINUOUS
 62
5
 10
223.72345722641134
 20
-716.8685852564547
 11
0.0
 21
-789.560743018636
  0
LINE
  8
MountainLine
  6
CONTINUOUS
 62
1
 10
229.56998532515226
 20
-740.2458293615409
 11
478.949547368421
 21
-659.2174978157468
  0
LINE
  8
ValleyLine
  6
CONTINUOUS
 62
5
 10
229.56998532515226
 20
-740.2458293615409
 11
-5.030391049629028E-14
 21
-814.8376392575823
  0
LINE
  8
MountainLine
  6
CONTINUOUS
 62
1
 10
241.91529427004198
 20
-768.4325238755498
 11
497.8750149222935
 21
-685.2661691933607
  0
LINE
  8
ValleyLine
  6
CONTINUOUS
 62
5
 10
241.91529427004198
 20
-768.4325238755498
 11
0.0
 21
-847.0355678038659
  0
LINE
  8
ValleyLine
  6
CONTINUOUS
 62
5
 10
258.4137921196044
 20
-803.4279681808152
 11
521.5957536899591
 21
-717.9149651733951
  0
LINE
  8
MountainLine
  6
CONTINUOUS
 62
1
 10
258.4137921196044
 20
-803.4279681808152
 11
-5.030391049629028E-14
 21
-887.3916990187105
  0
LINE
  8
ValleyLine
  6
CONTINUOUS
 62
5
 10
275.5784591984986
 20
-843.7185083142799
 11
548.5560986965882
 21
-755.0226966101849
  0
LINE
  8
MountainLine
  6
CONTINUOUS
 62
1
 10
275.5784591984986
 20
-843.7185083142799
 11
-1.0060782099258056E-13
 21
-933.2593775653884
  0
LINE
  8
ValleyLine
  6
CONTINUOUS
 62
5
 10
292.36973697152763
 20
-886.7315557440551
 11
577.0453823293449
 21
-794.2348315294865
  0
LINE
  8
MountainLine
  6
CONTINUOUS
 62
1
 10
292.36973697152763
 20
-886.7315557440551
 11
-1.0060782099258056E-13
 21
-981.7282418685385
  0
LINE
  8
ValleyLine
  6
CONTINUOUS
 62
5
 10
307.708241178218
 20
-929.7719509592125
 11
605.2732855248403
 21
-833.0872071405768
  0
LINE
  8
MountainLine
  6
CONTINUOUS
 62
1
 10
307.708241178218
 20
-929.7719509592125
 11
-5.030391049629028E-14
 21
-1029.752419211201
  0
LINE
  8
ValleyLine
  6
CONTINUOUS
 62
5
 10
320.5331112722878
 20
-970.2015445790394
 11
631.4865366480685
 21
-869.1666520633589
  0
LINE
  8
MountainLine
  6
CONTINUOUS
 62
1
 10
320.5331112722878
 20
-970.2015445790394
 11
-1.0060782099258056E-13
 21
-1074.3490657262194
  0
LINE
  8
ValleyLine
  6
CONTINUOUS
 62
5
 10
329.8777653480396
 20
-1005.6723470428556
 11
654.1204213451927
 21
-900.3195217505098
  0
LINE
  8
MountainLine
  6
CONTINUOUS
 62
1
 10
329.8777653480396
 20
-1005.6723470428556
 11
-5.030391049629028E-14
 21
-1112.8561303537304
  0
LINE
  8
ValleyLine
  6
CONTINUOUS
 62
5
 10
336.94515788879545
 20
-1037.8217748047905
 11
674.367132722666
 21
-928.186729239462
  0
LINE
  8
MountainLine
  6
CONTINUOUS
 62
1
 10
336.94515788879545
 20
-1037.8217748047905
 11
-1.0060782099258056E-13
 21
-1147.3018931531665
  0
LINE
  8
ValleyLine
  6
CONTINUOUS
 62
5
 10
342.7333890867249
 20
-1067.656767639574
 11
693.0091553046366
 21
-953.8452720823017
  0
LINE
  8
MountainLine
  6
CONTINUOUS
 62
1
 10
342.7333890867249
 20
-1067.656767639574
 11
-1.0060782099258056E-13
 21
-1179.017596310507
  0
LINE
  8
MountainLine
  6
CONTINUOUS
 62
1
 10
348.0861786397957
 20
-1095.709131016469
 11
710.5202126268487
 21
-977.947174788929
  0
LINE
  8
ValleyLine
  6
CONTINUOUS
 62
5
 10
348.0861786397957
 20
-1095.709131016469
 11
-5.030391049629028E-14
 21
-1208.8091864429846
  0
LINE
  8
MountainLine
  6
CONTINUOUS
 62
1
 10
353.8301489575977
 20
-1122.4580503617688
 11
727.3398336482917
 21
-1001.0973970720199
  0
LINE
  8
ValleyLine
  6
CONTINUOUS
 62
5
 10
353.8301489575977
 20
-1122.4580503617688
 11
-5.030391049629028E-14
 21
-1237.4244348791153
  0
LINE
  8
MountainLine
  6
CONTINUOUS
 62
1
 10
360.4490035919086
 20
-1148.2491442870441
 11
743.7635470499146
 21
-1023.7026992650137
  0
LINE
  8
ValleyLine
  6
CONTINUOUS
 62
5
 10
360.4490035919086
 20
-1148.2491442870441
 11
-5.030391049629028E-14
 21
-1265.3661250415807
  0
LINE
  8
MountainLine
  6
CONTINUOUS
 62
1
 10
368.5733623937314
 20
-1173.880193279336
 11
760.3807141111181
 21
-1046.5742675775032
  0
LINE
  8
ValleyLine
  6
CONTINUOUS
 62
5
 10
368.5733623937314
 20
-1173.880193279336
 11
-5.030391049629028E-14
 21
-1293.636938227848
  0
LINE
  8
MountainLine
  6
CONTINUOUS
 62
1
 10
379.000390913319
 20
-1200.6615527824538
 11
778.1137875098025
 21
-1070.9817491978408
  0
LINE
  8
ValleyLine
  6
CONTINUOUS
 62
5
 10
379.000390913319
 20
-1200.6615527824538
 11
-1.0060782099258056E-13
 21
-1323.806244670162
  0
LINE
  8
MountainLine
  6
CONTINUOUS
 62
1
 10
392.6481555598596
 20
-1230.2756728233808
 11
798.127021641738
 21
-1098.5276028271935
  0
LINE
  8
ValleyLine
  6
CONTINUOUS
 62
5
 10
392.6481555598596
 20
-1230.2756728233808
 11
-1.0060782099258056E-13
 21
-1357.8547922543012
  0
LINE
  8
ValleyLine
  6
CONTINUOUS
 62
5
 10
408.20552274740305
 20
-1262.55898056553
 11
820.0738665728825
 21
-1128.7348434018052
  0
LINE
  8
MountainLine
  6
CONTINUOUS
 62
1
 10
408.20552274740305
 20
-1262.55898056553
 11
-1.0060782099258056E-13
 21
-1395.192995017211
  0
LINE
  8
ValleyLine
  6
CONTINUOUS
 62
5
 10
424.13787665694616
 20
-1296.6600955827969
 11
843.1608079030877
 21
-1160.5112920476786
  0
LINE
  8
MountainLine
  6
CONTINUOUS
 62
1
 10
424.13787665694616
 20
-1296.6600955827969
 11
-1.0060782099258056E-13
 21
-1434.4708456270416
  0
LINE
  8
ValleyLine
  6
CONTINUOUS
 62
5
 10
439.03498553064134
 20
-1332.11045222638
 11
866.8430993545164
 21
-1193.1071698367539
  0
LINE
  8
MountainLine
  6
CONTINUOUS
 62
1
 10
439.03498553064134
 20
-1332.11045222638
 11
-1.0060782099258056E-13
 21
-1474.7615663606143
  0
LINE
  8
ValleyLine
  6
CONTINUOUS
 62
5
 10
451.894536102575
 20
-1369.6969288746152
 11
891.3918316331998
 21
-1226.8956011156208
  0
LINE
  8
MountainLine
  6
CONTINUOUS
 62
1
 10
451.894536102575
 20
-1369.6969288746152
 11
-1.0060782099258056E-13
 21
-1516.5263642743741
  0
LINE
  8
ValleyLine
  6
CONTINUOUS
 62
5
 10
463.5646204395346
 20
-1409.927914607958
 11
917.2677995150178
 21
-1262.510815482848
  0
LINE
  8
MountainLine
  6
CONTINUOUS
 62
1
 10
463.5646204395346
 20
-1409.927914607958
 11
-1.0060782099258056E-13
 21
-1560.549190265494
  0
LINE
  8
ValleyLine
  6
CONTINUOUS
 62
5
 10
474.58101334114275
 20
-1452.3505847953363
 11
944.3071632415218
 21
-1299.7273068570523
  0
LINE
  8
MountainLine
  6
CONTINUOUS
 62
1
 10
474.58101334114275
 20
-1452.3505847953363
 11
-1.0060782099258056E-13
 21
-1606.5513034880453
  0
LINE
  8
ValleyLine
  6
CONTINUOUS
 62
5
 10
482.62575339768097
 20
-1485.0743505981093
 11
965.0781188153348
 21
-1328.3160745797582
  0
LINE
  8
MountainLine
  6
CONTINUOUS
 62
1
 10
482.62575339768097
 20
-1485.0743505981093
 11
-1.0060782099258056E-13
 21
-1641.8889637862612
  0
LINE
  8
ValleyLine
  6
CONTINUOUS
 62
5
 10
485.307333416527
 20
-1495.9822725323668
 11
972.0017706732724
 21
-1337.8456638206599
  0
LINE
  8
MountainLine
  6
CONTINUOUS
 62
1
 10
485.307333416527
 20
-1495.9822725323668
 11
-1.0060782099258056E-13
 21
-1653.6681838856666
  0
LINE
  8
ValleyLine
  6
CONTINUOUS
 62
5
 10
485.307333416527
 20
-1495.9822725323668
 11
972.0017706732724
 21
-1337.8456638206599
  0
LINE
  8
MountainLine
  6
CONTINUOUS
 62
1
 10
485.307333416527
 20
-1495.9822725323668
 11
-1.0060782099258056E-13
 21
-1653.6681838856666
  0
LINE
  8
ValleyLine
  6
CONTINUOUS
 62
5
 10
0.0
 20
-0.0
 11
0.0
 21
-0.0
  0
LINE
  8
ValleyLine
  6
CONTINUOUS
 62
5
 10
0.0
 20
-0.0
 11
19.361878206454094
 21
-6.2926985065248005
  0
LINE
  8
ValleyLine
  6
CONTINUOUS
 62
5
 10
19.361878206454094
 20
-6.2926985065248005
 11
77.44751282581637
 21
-25.170794026099202
  0
LINE
  8
ValleyLine
  6
CONTINUOUS
 62
5
 10
77.44751282581637
 20
-25.170794026099202
 11
150.74389417714517
 21
-48.98756100576815
  0
LINE
  8
ValleyLine
  6
CONTINUOUS
 62
5
 10
150.74389417714517
 20
-48.98756100576815
 11
215.9742313171473
 21
-70.2678968513899
  0
LINE
  8
ValleyLine
  6
CONTINUOUS
 62
5
 10
215.9742313171473
 20
-70.2678968513899
 11
269.95515932958966
 21
-88.36089807828753
  0
LINE
  8
ValleyLine
  6
CONTINUOUS
 62
5
 10
269.95515932958966
 20
-88.36089807828753
 11
311.73140923954736
 21
-104.23446765962049
  0
LINE
  8
ValleyLine
  6
CONTINUOUS
 62
5
 10
311.73140923954736
 20
-104.23446765962049
 11
341.87590431559073
 21
-119.64286649806044
  0
LINE
  8
ValleyLine
  6
CONTINUOUS
 62
5
 10
341.87590431559073
 20
-119.64286649806044
 11
365.70515804361247
 21
-139.78677552459376
  0
LINE
  8
ValleyLine
  6
CONTINUOUS
 62
5
 10
365.70515804361247
 20
-139.78677552459376
 11
394.04179692782657
 21
-173.8673009420214
  0
LINE
  8
ValleyLine
  6
CONTINUOUS
 62
5
 10
394.04179692782657
 20
-173.8673009420214
 11
435.44334403047765
 21
-229.439854972222
  0
LINE
  8
ValleyLine
  6
CONTINUOUS
 62
5
 10
435.44334403047765
 20
-229.439854972222
 11
484.5550685533316
 21
-296.40282499370915
  0
LINE
  8
ValleyLine
  6
CONTINUOUS
 62
5
 10
484.5550685533316
 20
-296.40282499370915
 11
532.8024400296256
 21
-362.3152769941528
  0
LINE
  8
ValleyLine
  6
CONTINUOUS
 62
5
 10
532.8024400296256
 20
-362.3152769941528
 11
577.9006843187432
 21
-424.37639770503984
  0
LINE
  8
ValleyLine
  6
CONTINUOUS
 62
5
 10
577.9006843187432
 20
-424.37639770503984
 11
602.3608611819969
 21
-448.45751945642735
  0
LINE
  8
ValleyLine
  6
CONTINUOUS
 62
5
 10
602.3608611819969
 20
-448.45751945642735
 11
620.8316010961798
 21
-463.93360422554014
  0
LINE
  8
ValleyLine
  6
CONTINUOUS
 62
5
 10
620.8316010961798
 20
-463.93360422554014
 11
647.3868891796121
 21
-479.4807285698279
  0
LINE
  8
ValleyLine
  6
CONTINUOUS
 62
5
 10
647.3868891796121
 20
-479.4807285698279
 11
681.3042603816243
 21
-498.09506401753765
  0
LINE
  8
ValleyLine
  6
CONTINUOUS
 62
5
 10
681.3042603816243
 20
-498.09506401753765
 11
718.8729530485865
 21
-520.6016575285722
  0
LINE
  8
ValleyLine
  6
CONTINUOUS
 62
5
 10
718.8729530485865
 20
-520.6016575285722
 11
757.7398170596158
 21
-545.5302784369833
  0
LINE
  8
ValleyLine
  6
CONTINUOUS
 62
5
 10
757.7398170596158
 20
-545.5302784369833
 11
795.4474371914289
 21
-571.334943045741
  0
LINE
  8
ValleyLine
  6
CONTINUOUS
 62
5
 10
795.4474371914289
 20
-571.334943045741
 11
829.5868939340945
 21
-596.504901855993
  0
LINE
  8
ValleyLine
  6
CONTINUOUS
 62
5
 10
829.5868939340945
 20
-596.504901855993
 11
857.9960924631434
 21
-619.7087339998353
  0
LINE
  8
ValleyLine
  6
CONTINUOUS
 62
5
 10
857.9960924631434
 20
-619.7087339998353
 11
882.6106926426414
 21
-641.5640583110523
  0
LINE
  8
ValleyLine
  6
CONTINUOUS
 62
5
 10
882.6106926426414
 20
-641.5640583110523
 11
904.830038839675
 21
-662.2988376064449
  0
LINE
  8
ValleyLine
  6
CONTINUOUS
 62
5
 10
904.830038839675
 20
-662.2988376064449
 11
925.6493020403102
 21
-681.8473855528141
  0
LINE
  8
ValleyLine
  6
CONTINUOUS
 62
5
 10
925.6493020403102
 20
-681.8473855528141
 11
946.0188919485253
 21
-700.1114948419165
  0
LINE
  8
ValleyLine
  6
CONTINUOUS
 62
5
 10
946.0188919485253
 20
-700.1114948419165
 11
966.533282480747
 21
-717.0864629898693
  0
LINE
  8
ValleyLine
  6
CONTINUOUS
 62
5
 10
966.533282480747
 20
-717.0864629898693
 11
988.1715794182765
 21
-733.0470389202462
  0
LINE
  8
ValleyLine
  6
CONTINUOUS
 62
5
 10
988.1715794182765
 20
-733.0470389202462
 11
1012.3489108437307
 21
-748.5847603016867
  0
LINE
  8
ValleyLine
  6
CONTINUOUS
 62
5
 10
1012.3489108437307
 20
-748.5847603016867
 11
1040.796927397687
 21
-764.5211319022612
  0
LINE
  8
ValleyLine
  6
CONTINUOUS
 62
5
 10
1040.796927397687
 20
-764.5211319022612
 11
1072.358754026196
 21
-781.4944855029596
  0
LINE
  8
ValleyLine
  6
CONTINUOUS
 62
5
 10
1072.358754026196
 20
-781.4944855029596
 11
1105.2924315932912
 21
-799.7180644167294
  0
LINE
  8
ValleyLine
  6
CONTINUOUS
 62
5
 10
1105.2924315932912
 20
-799.7180644167294
 11
1138.181642662771
 21
-819.6417045002877
  0
LINE
  8
ValleyLine
  6
CONTINUOUS
 62
5
 10
1138.181642662771
 20
-819.6417045002877
 11
1170.6780142749578
 21
-842.4911486900952
  0
LINE
  8
ValleyLine
  6
CONTINUOUS
 62
5
 10
1170.6780142749578
 20
-842.4911486900952
 11
1203.7664909285945
 21
-868.1791963825511
  0
LINE
  8
ValleyLine
  6
CONTINUOUS
 62
5
 10
1203.7664909285945
 20
-868.1791963825511
 11
1237.614359901716
 21
-896.0245842298789
  0
LINE
  8
ValleyLine
  6
CONTINUOUS
 62
5
 10
1237.614359901716
 20
-896.0245842298789
 11
1263.3572382611267
 21
-917.7700873205087
  0
LINE
  8
ValleyLine
  6
CONTINUOUS
 62
5
 10
1263.3572382611267
 20
-917.7700873205087
 11
1271.9381977142637
 21
-925.0185883507183
  0
LINE
  8
ValleyLine
  6
CONTINUOUS
 62
5
 10
1271.9381977142637
 20
-925.0185883507183
 11
1271.9381977142637
 21
-925.0185883507183
  0
LINE
  8
ValleyLine
  6
CONTINUOUS
 62
5
 10
1271.9381977142637
 20
-925.0185883507183
 11
1271.9381977142637
 21
-925.0185883507183
  0
LINE
  8
ValleyLine
  6
CONTINUOUS
 62
5
 10
0.0
 20
-0.0
 11
0.0
 21
-0.0
  0
LINE
  8
MountainLine
  6
CONTINUOUS
 62
1
 10
0.0
 20
-0.0
 11
0.0
 21
-0.0
  0
LINE
  8
ValleyLine
  6
CONTINUOUS
 62
5
 10
0.0
 20
-0.0
 11
0.0
 21
-0.0
  0
LINE
  8
MountainLine
  6
CONTINUOUS
 62
1
 10
0.0
 20
-0.0
 11
0.0
 21
-0.0
  0
LINE
  8
ValleyLine
  6
CONTINUOUS
 62
5
 10
19.361878206454094
 20
-6.2926985065248005
 11
19.362843891297437
 21
-6.2913693553655525
  0
LINE
  8
MountainLine
  6
CONTINUOUS
 62
1
 10
19.361878206454094
 20
-6.2926985065248005
 11
11.966895643680088
 21
-16.471018808126523
  0
LINE
  8
ValleyLine
  6
CONTINUOUS
 62
5
 10
77.44751282581637
 20
-25.170794026099202
 11
77.45137556518975
 21
-25.16547742146221
  0
LINE
  8
MountainLine
  6
CONTINUOUS
 62
1
 10
77.44751282581637
 20
-25.170794026099202
 11
47.86758257472035
 21
-65.88407523250609
  0
LINE
  8
ValleyLine
  6
CONTINUOUS
 62
5
 10
150.74389417714517
 20
-48.98756100576815
 11
150.74853809253747
 21
-48.98116920458202
  0
LINE
  8
MountainLine
  6
CONTINUOUS
 62
1
 10
150.74389417714517
 20
-48.98756100576815
 11
93.1677202955464
 21
-128.2343657863053
  0
LINE
  8
ValleyLine
  6
CONTINUOUS
 62
5
 10
215.9742313171473
 20
-70.2678968513899
 11
216.02925696149381
 21
-70.19216054934908
  0
LINE
  8
MountainLine
  6
CONTINUOUS
 62
1
 10
215.9742313171473
 20
-70.2678968513899
 11
133.513423366588
 21
-183.76546206198526
  0
LINE
  8
ValleyLine
  6
CONTINUOUS
 62
5
 10
269.95515932958966
 20
-88.36089807828753
 11
270.33554438657035
 21
-87.83734296304186
  0
LINE
  8
MountainLine
  6
CONTINUOUS
 62
1
 10
269.95515932958966
 20
-88.36089807828753
 11
167.07655479810632
 21
-229.96114935872487
  0
LINE
  8
ValleyLine
  6
CONTINUOUS
 62
5
 10
311.73140923954736
 20
-104.23446765962049
 11
313.46349062612694
 21
-101.8504621543477
  0
LINE
  8
MountainLine
  6
CONTINUOUS
 62
1
 10
311.73140923954736
 20
-104.23446765962049
 11
193.73109143913047
 21
-266.647971689967
  0
LINE
  8
ValleyLine
  6
CONTINUOUS
 62
5
 10
341.87590431559073
 20
-119.64286649806044
 11
346.90772902817343
 21
-112.71715393668154
  0
LINE
  8
MountainLine
  6
CONTINUOUS
 62
1
 10
341.87590431559073
 20
-119.64286649806044
 11
214.40076749944967
 21
-295.0973401213862
  0
LINE
  8
ValleyLine
  6
CONTINUOUS
 62
5
 10
365.70515804361247
 20
-139.78677552459376
 11
378.0262929067331
 21
-122.82818825930744
  0
LINE
  8
MountainLine
  6
CONTINUOUS
 62
1
 10
365.70515804361247
 20
-139.78677552459376
 11
233.63309765748434
 21
-321.56837163943754
  0
LINE
  8
ValleyLine
  6
CONTINUOUS
 62
5
 10
394.04179692782657
 20
-173.8673009420214
 11
420.98314555827096
 21
-136.78571577396687
  0
LINE
  8
MountainLine
  6
CONTINUOUS
 62
1
 10
394.04179692782657
 20
-173.8673009420214
 11
260.1818926458558
 21
-358.1096530717278
  0
LINE
  8
ValleyLine
  6
CONTINUOUS
 62
5
 10
435.44334403047765
 20
-229.439854972222
 11
487.1424284489092
 21
-158.28216987377996
  0
LINE
  8
MountainLine
  6
CONTINUOUS
 62
1
 10
435.44334403047765
 20
-229.439854972222
 11
301.07057814358956
 21
-414.38810054264036
  0
LINE
  8
ValleyLine
  6
CONTINUOUS
 62
5
 10
484.5550685533316
 20
-296.40282499370915
 11
566.234494439292
 21
-183.98073992980815
  0
LINE
  8
MountainLine
  6
CONTINUOUS
 62
1
 10
484.5550685533316
 20
-296.40282499370915
 11
349.9521631660958
 21
-481.66783041159243
  0
LINE
  8
ValleyLine
  6
CONTINUOUS
 62
5
 10
532.8024400296256
 20
-362.3152769941528
 11
644.0098051258312
 21
-209.2514702524984
  0
LINE
  8
MountainLine
  6
CONTINUOUS
 62
1
 10
532.8024400296256
 20
-362.3152769941528
 11
398.0199486559599
 21
-547.8274613169281
  0
LINE
  8
MountainLine
  6
CONTINUOUS
 62
1
 10
577.9006843187432
 20
-424.37639770503984
 11
716.9736626668026
 21
-232.95886468069193
  0
LINE
  8
ValleyLine
  6
CONTINUOUS
 62
5
 10
577.9006843187432
 20
-424.37639770503984
 11
443.11409256658555
 21
-609.8942257146385
  0
LINE
  8
MountainLine
  6
CONTINUOUS
 62
1
 10
602.3608611819969
 20
-448.45751945642735
 11
750.916889658717
 21
-243.9876876840693
  0
LINE
  8
ValleyLine
  6
CONTINUOUS
 62
5
 10
602.3608611819969
 20
-448.45751945642735
 11
464.0921605354414
 21
-638.7680591933871
  0
LINE
  8
MountainLine
  6
CONTINUOUS
 62
1
 10
620.8316010961798
 20
-463.93360422554014
 11
774.9566465384831
 21
-251.7986781869558
  0
LINE
  8
ValleyLine
  6
CONTINUOUS
 62
5
 10
620.8316010961798
 20
-463.93360422554014
 11
478.9495473684211
 21
-659.2174978157468
  0
LINE
  8
MountainLine
  6
CONTINUOUS
 62
1
 10
647.3868891796121
 20
-479.4807285698279
 11
805.578696293632
 21
-261.74838529142784
  0
LINE
  8
ValleyLine
  6
CONTINUOUS
 62
5
 10
647.3868891796121
 20
-479.4807285698279
 11
497.8750149222936
 21
-685.2661691933606
  0
LINE
  8
ValleyLine
  6
CONTINUOUS
 62
5
 10
681.3042603816243
 20
-498.09506401753765
 11
843.9596578579722
 21
-274.21911566404003
  0
LINE
  8
MountainLine
  6
CONTINUOUS
 62
1
 10
681.3042603816243
 20
-498.09506401753765
 11
521.5957536899591
 21
-717.9149651733951
  0
LINE
  8
ValleyLine
  6
CONTINUOUS
 62
5
 10
718.8729530485865
 20
-520.6016575285722
 11
887.5824124271217
 21
-288.3930078274907
  0
LINE
  8
MountainLine
  6
CONTINUOUS
 62
1
 10
718.8729530485865
 20
-520.6016575285722
 11
548.5560986965882
 21
-755.0226966101848
  0
LINE
  8
ValleyLine
  6
CONTINUOUS
 62
5
 10
757.7398170596158
 20
-545.5302784369833
 11
933.6790416600583
 21
-303.37071059521736
  0
LINE
  8
MountainLine
  6
CONTINUOUS
 62
1
 10
757.7398170596158
 20
-545.5302784369833
 11
577.0453823293449
 21
-794.2348315294864
  0
LINE
  8
ValleyLine
  6
CONTINUOUS
 62
5
 10
795.4474371914289
 20
-571.334943045741
 11
979.352748461511
 21
-318.2109975349763
  0
LINE
  8
MountainLine
  6
CONTINUOUS
 62
1
 10
795.4474371914289
 20
-571.334943045741
 11
605.2732855248402
 21
-833.0872071405767
  0
LINE
  8
ValleyLine
  6
CONTINUOUS
 62
5
 10
829.5868939340945
 20
-596.504901855993
 11
1021.7666797345312
 21
-331.99211920024936
  0
LINE
  8
MountainLine
  6
CONTINUOUS
 62
1
 10
829.5868939340945
 20
-596.504901855993
 11
631.4865366480685
 21
-869.1666520633589
  0
LINE
  8
ValleyLine
  6
CONTINUOUS
 62
5
 10
857.9960924631434
 20
-619.7087339998353
 11
1058.389074471924
 21
-343.8914565736447
  0
LINE
  8
MountainLine
  6
CONTINUOUS
 62
1
 10
857.9960924631434
 20
-619.7087339998353
 11
654.1204213451927
 21
-900.3195217505097
  0
LINE
  8
ValleyLine
  6
CONTINUOUS
 62
5
 10
882.6106926426414
 20
-641.5640583110523
 11
1091.1489416410852
 21
-354.5357826628788
  0
LINE
  8
MountainLine
  6
CONTINUOUS
 62
1
 10
882.6106926426414
 20
-641.5640583110523
 11
674.367132722666
 21
-928.186729239462
  0
LINE
  8
ValleyLine
  6
CONTINUOUS
 62
5
 10
904.830038839675
 20
-662.2988376064449
 11
1121.3123677977567
 21
-364.33647392704825
  0
LINE
  8
MountainLine
  6
CONTINUOUS
 62
1
 10
904.830038839675
 20
-662.2988376064449
 11
693.0091553046366
 21
-953.8452720823017
  0
LINE
  8
MountainLine
  6
CONTINUOUS
 62
1
 10
925.6493020403102
 20
-681.8473855528141
 11
1149.6458537240435
 21
-373.54258156743674
  0
LINE
  8
ValleyLine
  6
CONTINUOUS
 62
5
 10
925.6493020403102
 20
-681.8473855528141
 11
710.5202126268487
 21
-977.9471747889288
  0
LINE
  8
MountainLine
  6
CONTINUOUS
 62
1
 10
946.0188919485253
 20
-700.1114948419165
 11
1176.8605722146303
 21
-382.3851796324622
  0
LINE
  8
ValleyLine
  6
CONTINUOUS
 62
5
 10
946.0188919485253
 20
-700.1114948419165
 11
727.3398336482917
 21
-1001.0973970720198
  0
LINE
  8
MountainLine
  6
CONTINUOUS
 62
1
 10
966.533282480747
 20
-717.0864629898693
 11
1203.4346987199433
 21
-391.0196367442234
  0
LINE
  8
ValleyLine
  6
CONTINUOUS
 62
5
 10
966.533282480747
 20
-717.0864629898693
 11
743.7635470499146
 21
-1023.7026992650137
  0
LINE
  8
MountainLine
  6
CONTINUOUS
 62
1
 10
988.1715794182765
 20
-733.0470389202462
 11
1230.321839821706
 21
-399.75579846357937
  0
LINE
  8
ValleyLine
  6
CONTINUOUS
 62
5
 10
988.1715794182765
 20
-733.0470389202462
 11
760.380714111118
 21
-1046.5742675775032
  0
LINE
  8
MountainLine
  6
CONTINUOUS
 62
1
 10
1012.3489108437307
 20
-748.5847603016867
 11
1259.0145553057741
 21
-409.07862686275996
  0
LINE
  8
ValleyLine
  6
CONTINUOUS
 62
5
 10
1012.3489108437307
 20
-748.5847603016867
 11
778.1137875098025
 21
-1070.9817491978408
  0
LINE
  8
MountainLine
  6
CONTINUOUS
 62
1
 10
1040.796927397687
 20
-764.5211319022612
 11
1291.3966483560548
 21
-419.600206700043
  0
LINE
  8
ValleyLine
  6
CONTINUOUS
 62
5
 10
1040.796927397687
 20
-764.5211319022612
 11
798.1270216417379
 21
-1098.5276028271935
  0
LINE
  8
ValleyLine
  6
CONTINUOUS
 62
5
 10
1072.358754026196
 20
-781.4944855029596
 11
1326.90738940047
 21
-431.13834589319976
  0
LINE
  8
MountainLine
  6
CONTINUOUS
 62
1
 10
1072.358754026196
 20
-781.4944855029596
 11
820.0738665728825
 21
-1128.7348434018052
  0
LINE
  8
ValleyLine
  6
CONTINUOUS
 62
5
 10
1105.2924315932912
 20
-799.7180644167294
 11
1364.2628451690173
 21
-443.2758692341578
  0
LINE
  8
MountainLine
  6
CONTINUOUS
 62
1
 10
1105.2924315932912
 20
-799.7180644167294
 11
843.1608079030879
 21
-1160.5112920476786
  0
LINE
  8
ValleyLine
  6
CONTINUOUS
 62
5
 10
1138.181642662771
 20
-819.6417045002877
 11
1402.5815976689096
 21
-455.7263866564469
  0
LINE
  8
MountainLine
  6
CONTINUOUS
 62
1
 10
1138.181642662771
 20
-819.6417045002877
 11
866.8430993545164
 21
-1193.1071698367539
  0
LINE
  8
ValleyLine
  6
CONTINUOUS
 62
5
 10
1170.6780142749578
 20
-842.4911486900952
 11
1442.302280876541
 21
-468.6324189784339
  0
LINE
  8
MountainLine
  6
CONTINUOUS
 62
1
 10
1170.6780142749578
 20
-842.4911486900952
 11
891.3918316331998
 21
-1226.8956011156208
  0
LINE
  8
ValleyLine
  6
CONTINUOUS
 62
5
 10
1203.7664909285945
 20
-868.1791963825511
 11
1484.1704764011233
 21
-482.23622035010106
  0
LINE
  8
MountainLine
  6
CONTINUOUS
 62
1
 10
1203.7664909285945
 20
-868.1791963825511
 11
917.2677995150178
 21
-1262.510815482848
  0
LINE
  8
ValleyLine
  6
CONTINUOUS
 62
5
 10
1237.614359901716
 20
-896.0245842298789
 11
1527.921085944778
 21
-496.4516551130301
  0
LINE
  8
MountainLine
  6
CONTINUOUS
 62
1
 10
1237.614359901716
 20
-896.0245842298789
 11
944.3071632415222
 21
-1299.7273068570523
  0
LINE
  8
ValleyLine
  6
CONTINUOUS
 62
5
 10
1263.3572382611267
 20
-917.7700873205087
 11
1561.529198042021
 21
-507.3715926866277
  0
LINE
  8
MountainLine
  6
CONTINUOUS
 62
1
 10
1263.3572382611267
 20
-917.7700873205087
 11
965.0781188153346
 21
-1328.3160745797582
  0
LINE
  8
ValleyLine
  6
CONTINUOUS
 62
5
 10
1271.9381977142637
 20
-925.0185883507183
 11
1572.7319020744353
 21
-511.0115718778268
  0
LINE
  8
MountainLine
  6
CONTINUOUS
 62
1
 10
1271.9381977142637
 20
-925.0185883507183
 11
972.0017706732722
 21
-1337.8456638206599
  0
LINE
  8
ValleyLine
  6
CONTINUOUS
 62
5
 10
1271.9381977142637
 20
-925.0185883507183
 11
1572.7319020744353
 21
-511.0115718778268
  0
LINE
  8
MountainLine
  6
CONTINUOUS
 62
1
 10
1271.9381977142637
 20
-925.0185883507183
 11
972.0017706732722
 21
-1337.8456638206599
  0
LINE
  8
ValleyLine
  6
CONTINUOUS
 62
5
 10
0.0
 20
-0.0
 11
0.0
 21
-0.0
  0
LINE
  8
ValleyLine
  6
CONTINUOUS
 62
5
 10
0.0
 20
-0.0
 11
19.362843891297437
 21
6.289726434180343
  0
LINE
  8
ValleyLine
  6
CONTINUOUS
 62
5
 10
19.362843891297437
 20
6.289726434180343
 11
77.45137556518975
 21
25.158905736721373
  0
LINE
  8
ValleyLine
  6
CONTINUOUS
 62
5
 10
77.45137556518975
 20
25.158905736721373
 11
150.7485380925375
 21
48.97326850381724
  0
LINE
  8
ValleyLine
  6
CONTINUOUS
 62
5
 10
150.7485380925375
 20
48.97326850381724
 11
216.02925696149381
 21
70.09854533166208
  0
LINE
  8
ValleyLine
  6
CONTINUOUS
 62
5
 10
216.02925696149381
 20
70.09854533166208
 11
270.3355443865704
 21
87.19019325063039
  0
LINE
  8
ValleyLine
  6
CONTINUOUS
 62
5
 10
270.3355443865704
 20
87.19019325063039
 11
313.46349062612694
 21
98.90366929109669
  0
LINE
  8
ValleyLine
  6
CONTINUOUS
 62
5
 10
313.46349062612694
 20
98.90366929109669
 11
346.90772902817343
 21
104.15650241819296
  0
LINE
  8
ValleyLine
  6
CONTINUOUS
 62
5
 10
346.90772902817343
 20
104.15650241819296
 11
378.0262929067331
 21
101.86622159705118
  0
LINE
  8
ValleyLine
  6
CONTINUOUS
 62
5
 10
378.0262929067331
 20
101.86622159705118
 11
420.983145558271
 21
90.9503557928034
  0
LINE
  8
ValleyLine
  6
CONTINUOUS
 62
5
 10
420.983145558271
 20
90.9503557928034
 11
487.1424284489092
 21
70.32643397058162
  0
LINE
  8
ValleyLine
  6
CONTINUOUS
 62
5
 10
487.1424284489092
 20
70.32643397058162
 11
566.234494439292
 21
45.01940061856249
  0
LINE
  8
ValleyLine
  6
CONTINUOUS
 62
5
 10
566.234494439292
 20
45.01940061856249
 11
644.0098051258312
 21
20.054200224922763
  0
LINE
  8
ValleyLine
  6
CONTINUOUS
 62
5
 10
644.0098051258312
 20
20.054200224922763
 11
716.9736626668027
 21
-3.6462182227133324
  0
LINE
  8
ValleyLine
  6
CONTINUOUS
 62
5
 10
716.9736626668027
 20
-3.6462182227133324
 11
750.916889658717
 21
-8.750923734511876
  0
LINE
  8
ValleyLine
  6
CONTINUOUS
 62
5
 10
750.916889658717
 20
-8.750923734511876
 11
774.9566465384831
 21
-10.414510798624796
  0
LINE
  8
ValleyLine
  6
CONTINUOUS
 62
5
 10
774.9566465384831
 20
-10.414510798624796
 11
805.5786962936321
 21
-7.383591900994417
  0
LINE
  8
ValleyLine
  6
CONTINUOUS
 62
5
 10
805.5786962936321
 20
-7.383591900994417
 11
843.9596578579723
 21
-2.5067750281154586
  0
LINE
  8
ValleyLine
  6
CONTINUOUS
 62
5
 10
843.9596578579723
 20
-2.5067750281154586
 11
887.5824124271217
 21
1.3673318335173579
  0
LINE
  8
ValleyLine
  6
CONTINUOUS
 62
5
 10
887.5824124271217
 20
1.3673318335173579
 11
933.6790416600583
 21
4.04502334082239
  0
LINE
  8
ValleyLine
  6
CONTINUOUS
 62
5
 10
933.6790416600583
 20
4.04502334082239
 11
979.3527484615113
 21
5.332594150717998
  0
LINE
  8
ValleyLine
  6
CONTINUOUS
 62
5
 10
979.3527484615113
 20
5.332594150717998
 11
1021.7666797345312
 21
5.036338920122542
  0
LINE
  8
ValleyLine
  6
CONTINUOUS
 62
5
 10
1021.7666797345312
 20
5.036338920122542
 11
1058.389074471924
 21
2.9625523059543806
  0
LINE
  8
ValleyLine
  6
CONTINUOUS
 62
5
 10
1058.389074471924
 20
2.9625523059543806
 11
1091.1489416410852
 21
-0.2506775028116692
  0
LINE
  8
ValleyLine
  6
CONTINUOUS
 62
5
 10
1091.1489416410852
 20
-0.2506775028116692
 11
1121.3123677977567
 21
-3.9652623172007906
  0
LINE
  8
ValleyLine
  6
CONTINUOUS
 62
5
 10
1121.3123677977567
 20
-3.9652623172007906
 11
1149.6458537240437
 21
-7.5431139482381635
  0
LINE
  8
ValleyLine
  6
CONTINUOUS
 62
5
 10
1149.6458537240437
 20
-7.5431139482381635
 11
1176.8605722146306
 21
-10.346144206948972
  0
LINE
  8
ValleyLine
  6
CONTINUOUS
 62
5
 10
1176.8605722146306
 20
-10.346144206948972
 11
1203.4346987199435
 21
-12.021125703007872
  0
LINE
  8
ValleyLine
  6
CONTINUOUS
 62
5
 10
1203.4346987199435
 20
-12.021125703007872
 11
1230.321839821706
 21
-12.214831046089518
  0
LINE
  8
ValleyLine
  6
CONTINUOUS
 62
5
 10
1230.321839821706
 20
-12.214831046089518
 11
1259.0145553057741
 21
-10.57403284586856
  0
LINE
  8
ValleyLine
  6
CONTINUOUS
 62
5
 10
1259.0145553057741
 20
-10.57403284586856
 11
1291.396648356055
 21
-6.7455037120196595
  0
LINE
  8
ValleyLine
  6
CONTINUOUS
 62
5
 10
1291.396648356055
 20
-6.7455037120196595
 11
1326.9073894004703
 21
-1.925658998870594
  0
LINE
  8
ValleyLine
  6
CONTINUOUS
 62
5
 10
1326.9073894004703
 20
-1.925658998870594
 11
1364.2628451690173
 21
2.689085939250851
  0
LINE
  8
ValleyLine
  6
CONTINUOUS
 62
5
 10
1364.2628451690173
 20
2.689085939250851
 11
1402.5815976689098
 21
5.902315748016892
  0
LINE
  8
ValleyLine
  6
CONTINUOUS
 62
5
 10
1402.5815976689098
 20
5.902315748016892
 11
1442.3022808765413
 21
6.517615073099746
  0
LINE
  8
ValleyLine
  6
CONTINUOUS
 62
5
 10
1442.3022808765413
 20
6.517615073099746
 11
1484.1704764011233
 21
5.184466535420212
  0
LINE
  8
ValleyLine
  6
CONTINUOUS
 62
5
 10
1484.1704764011233
 20
5.184466535420212
 11
1527.9210859447783
 21
2.5523527558990837
  0
LINE
  8
ValleyLine
  6
CONTINUOUS
 62
5
 10
1527.9210859447783
 20
2.5523527558990837
 11
1561.529198042021
 21
0.09115545556763982
  0
LINE
  8
ValleyLine
  6
CONTINUOUS
 62
5
 10
1561.529198042021
 20
0.09115545556763982
 11
1572.7319020744355
 21
-0.7292436445428413
  0
LINE
  8
ValleyLine
  6
CONTINUOUS
 62
5
 10
1572.7319020744355
 20
-0.7292436445428413
 11
1572.7319020744355
 21
-0.7292436445428413
  0
LINE
  8
ValleyLine
  6
CONTINUOUS
 62
5
 10
1572.7319020744355
 20
-0.7292436445428413
 11
1572.7319020744355
 21
-0.7292436445428413
  0
LINE
  8
ValleyLine
  6
CONTINUOUS
 62
5
 10
0.0
 20
-0.0
 11
0.0
 21
-0.0
  0
LINE
  8
MountainLine
  6
CONTINUOUS
 62
1
 10
0.0
 20
-0.0
 11
0.0
 21
-0.0
  0
LINE
  8
ValleyLine
  6
CONTINUOUS
 62
5
 10
0.0
 20
-0.0
 11
0.0
 21
-0.0
  0
LINE
  8
MountainLine
  6
CONTINUOUS
 62
1
 10
0.0
 20
-0.0
 11
0.0
 21
-0.0
  0
LINE
  8
ValleyLine
  6
CONTINUOUS
 62
5
 10
19.362843891297437
 20
6.289726434180343
 11
19.362843891297437
 21
6.291369355365546
  0
LINE
  8
MountainLine
  6
CONTINUOUS
 62
1
 10
19.362843891297437
 20
6.289726434180343
 11
19.362843891297437
 21
-6.291369355365552
  0
LINE
  8
ValleyLine
  6
CONTINUOUS
 62
5
 10
77.45137556518975
 20
25.158905736721373
 11
77.45137556518975
 21
25.165477421462185
  0
LINE
  8
MountainLine
  6
CONTINUOUS
 62
1
 10
77.45137556518975
 20
25.158905736721373
 11
77.45137556518975
 21
-25.165477421462207
  0
LINE
  8
ValleyLine
  6
CONTINUOUS
 62
5
 10
150.7485380925375
 20
48.97326850381724
 11
150.7485380925375
 21
48.98116920458197
  0
LINE
  8
MountainLine
  6
CONTINUOUS
 62
1
 10
150.7485380925375
 20
48.97326850381724
 11
150.7485380925375
 21
-48.981169204582
  0
LINE
  8
ValleyLine
  6
CONTINUOUS
 62
5
 10
216.02925696149381
 20
70.09854533166208
 11
216.02925696149381
 21
70.19216054934901
  0
LINE
  8
MountainLine
  6
CONTINUOUS
 62
1
 10
216.02925696149381
 20
70.09854533166208
 11
216.02925696149381
 21
-70.19216054934905
  0
LINE
  8
ValleyLine
  6
CONTINUOUS
 62
5
 10
270.3355443865704
 20
87.19019325063039
 11
270.3355443865704
 21
87.83734296304178
  0
LINE
  8
MountainLine
  6
CONTINUOUS
 62
1
 10
270.3355443865704
 20
87.19019325063039
 11
270.3355443865704
 21
-87.83734296304185
  0
LINE
  8
ValleyLine
  6
CONTINUOUS
 62
5
 10
313.46349062612694
 20
98.90366929109669
 11
313.46349062612694
 21
101.85046215434761
  0
LINE
  8
MountainLine
  6
CONTINUOUS
 62
1
 10
313.46349062612694
 20
98.90366929109669
 11
313.46349062612694
 21
-101.85046215434768
  0
LINE
  8
ValleyLine
  6
CONTINUOUS
 62
5
 10
346.90772902817343
 20
104.15650241819296
 11
346.90772902817343
 21
112.71715393668144
  0
LINE
  8
MountainLine
  6
CONTINUOUS
 62
1
 10
346.90772902817343
 20
104.15650241819296
 11
346.90772902817343
 21
-112.71715393668153
  0
LINE
  8
ValleyLine
  6
CONTINUOUS
 62
5
 10
378.0262929067331
 20
101.86622159705118
 11
378.0262929067331
 21
122.82818825930734
  0
LINE
  8
MountainLine
  6
CONTINUOUS
 62
1
 10
378.0262929067331
 20
101.86622159705118
 11
378.0262929067331
 21
-122.82818825930744
  0
LINE
  8
ValleyLine
  6
CONTINUOUS
 62
5
 10
420.983145558271
 20
90.9503557928034
 11
420.983145558271
 21
136.78571577396673
  0
LINE
  8
MountainLine
  6
CONTINUOUS
 62
1
 10
420.983145558271
 20
90.9503557928034
 11
420.983145558271
 21
-136.78571577396684
  0
LINE
  8
ValleyLine
  6
CONTINUOUS
 62
5
 10
487.1424284489092
 20
70.32643397058162
 11
487.1424284489092
 21
158.2821698737798
  0
LINE
  8
MountainLine
  6
CONTINUOUS
 62
1
 10
487.1424284489092
 20
70.32643397058162
 11
487.1424284489092
 21
-158.2821698737799
  0
LINE
  8
ValleyLine
  6
CONTINUOUS
 62
5
 10
566.234494439292
 20
45.01940061856249
 11
566.234494439292
 21
183.98073992980795
  0
LINE
  8
MountainLine
  6
CONTINUOUS
 62
1
 10
566.234494439292
 20
45.01940061856249
 11
566.234494439292
 21
-183.9807399298081
  0
LINE
  8
ValleyLine
  6
CONTINUOUS
 62
5
 10
644.0098051258312
 20
20.054200224922763
 11
644.0098051258312
 21
209.25147025249817
  0
LINE
  8
MountainLine
  6
CONTINUOUS
 62
1
 10
644.0098051258312
 20
20.054200224922763
 11
644.0098051258312
 21
-209.2514702524983
  0
LINE
  8
MountainLine
  6
CONTINUOUS
 62
1
 10
716.9736626668027
 20
-3.6462182227133324
 11
716.9736626668027
 21
232.95886468069162
  0
LINE
  8
ValleyLine
  6
CONTINUOUS
 62
5
 10
716.9736626668027
 20
-3.6462182227133324
 11
716.9736626668027
 21
-232.95886468069182
  0
LINE
  8
MountainLine
  6
CONTINUOUS
 62
1
 10
750.916889658717
 20
-8.750923734511876
 11
750.916889658717
 21
243.987687684069
  0
LINE
  8
ValleyLine
  6
CONTINUOUS
 62
5
 10
750.916889658717
 20
-8.750923734511876
 11
750.916889658717
 21
-243.9876876840692
  0
LINE
  8
MountainLine
  6
CONTINUOUS
 62
1
 10
774.9566465384831
 20
-10.414510798624796
 11
774.9566465384831
 21
251.79867818695556
  0
LINE
  8
ValleyLine
  6
CONTINUOUS
 62
5
 10
774.9566465384831
 20
-10.414510798624796
 11
774.9566465384831
 21
-251.79867818695575
  0
LINE
  8
MountainLine
  6
CONTINUOUS
 62
1
 10
805.5786962936321
 20
-7.383591900994417
 11
805.5786962936321
 21
261.7483852914275
  0
LINE
  8
ValleyLine
  6
CONTINUOUS
 62
5
 10
805.5786962936321
 20
-7.383591900994417
 11
805.5786962936321
 21
-261.74838529142767
  0
LINE
  8
ValleyLine
  6
CONTINUOUS
 62
5
 10
843.9596578579723
 20
-2.5067750281154586
 11
843.9596578579723
 21
274.21911566403975
  0
LINE
  8
MountainLine
  6
CONTINUOUS
 62
1
 10
843.9596578579723
 20
-2.5067750281154586
 11
843.9596578579723
 21
-274.21911566404
  0
LINE
  8
ValleyLine
  6
CONTINUOUS
 62
5
 10
887.5824124271217
 20
1.3673318335173579
 11
887.5824124271217
 21
288.3930078274904
  0
LINE
  8
MountainLine
  6
CONTINUOUS
 62
1
 10
887.5824124271217
 20
1.3673318335173579
 11
887.5824124271217
 21
-288.39300782749064
  0
LINE
  8
ValleyLine
  6
CONTINUOUS
 62
5
 10
933.6790416600583
 20
4.04502334082239
 11
933.6790416600583
 21
303.3707105952171
  0
LINE
  8
MountainLine
  6
CONTINUOUS
 62
1
 10
933.6790416600583
 20
4.04502334082239
 11
933.6790416600583
 21
-303.37071059521725
  0
LINE
  8
ValleyLine
  6
CONTINUOUS
 62
5
 10
979.3527484615113
 20
5.332594150717998
 11
979.3527484615113
 21
318.210997534976
  0
LINE
  8
MountainLine
  6
CONTINUOUS
 62
1
 10
979.3527484615113
 20
5.332594150717998
 11
979.3527484615113
 21
-318.21099753497623
  0
LINE
  8
ValleyLine
  6
CONTINUOUS
 62
5
 10
1021.7666797345312
 20
5.036338920122542
 11
1021.7666797345312
 21
331.992119200249
  0
LINE
  8
MountainLine
  6
CONTINUOUS
 62
1
 10
1021.7666797345312
 20
5.036338920122542
 11
1021.7666797345312
 21
-331.9921192002492
  0
LINE
  8
ValleyLine
  6
CONTINUOUS
 62
5
 10
1058.389074471924
 20
2.9625523059543806
 11
1058.389074471924
 21
343.89145657364423
  0
LINE
  8
MountainLine
  6
CONTINUOUS
 62
1
 10
1058.389074471924
 20
2.9625523059543806
 11
1058.389074471924
 21
-343.8914565736445
  0
LINE
  8
ValleyLine
  6
CONTINUOUS
 62
5
 10
1091.1489416410852
 20
-0.2506775028116692
 11
1091.1489416410852
 21
354.53578266287843
  0
LINE
  8
MountainLine
  6
CONTINUOUS
 62
1
 10
1091.1489416410852
 20
-0.2506775028116692
 11
1091.1489416410852
 21
-354.5357826628787
  0
LINE
  8
ValleyLine
  6
CONTINUOUS
 62
5
 10
1121.3123677977567
 20
-3.9652623172007906
 11
1121.3123677977567
 21
364.33647392704785
  0
LINE
  8
MountainLine
  6
CONTINUOUS
 62
1
 10
1121.3123677977567
 20
-3.9652623172007906
 11
1121.3123677977567
 21
-364.33647392704813
  0
LINE
  8
MountainLine
  6
CONTINUOUS
 62
1
 10
1149.6458537240437
 20
-7.5431139482381635
 11
1149.6458537240437
 21
373.54258156743634
  0
LINE
  8
ValleyLine
  6
CONTINUOUS
 62
5
 10
1149.6458537240437
 20
-7.5431139482381635
 11
1149.6458537240437
 21
-373.5425815674366
  0
LINE
  8
MountainLine
  6
CONTINUOUS
 62
1
 10
1176.8605722146306
 20
-10.346144206948972
 11
1176.8605722146306
 21
382.3851796324618
  0
LINE
  8
ValleyLine
  6
CONTINUOUS
 62
5
 10
1176.8605722146306
 20
-10.346144206948972
 11
1176.8605722146306
 21
-382.38517963246215
  0
LINE
  8
MountainLine
  6
CONTINUOUS
 62
1
 10
1203.4346987199435
 20
-12.021125703007872
 11
1203.4346987199435
 21
391.01963674422296
  0
LINE
  8
ValleyLine
  6
CONTINUOUS
 62
5
 10
1203.4346987199435
 20
-12.021125703007872
 11
1203.4346987199435
 21
-391.01963674422325
  0
LINE
  8
MountainLine
  6
CONTINUOUS
 62
1
 10
1230.321839821706
 20
-12.214831046089518
 11
1230.321839821706
 21
399.7557984635789
  0
LINE
  8
ValleyLine
  6
CONTINUOUS
 62
5
 10
1230.321839821706
 20
-12.214831046089518
 11
1230.321839821706
 21
-399.7557984635792
  0
LINE
  8
MountainLine
  6
CONTINUOUS
 62
1
 10
1259.0145553057741
 20
-10.57403284586856
 11
1259.0145553057741
 21
409.07862686275956
  0
LINE
  8
ValleyLine
  6
CONTINUOUS
 62
5
 10
1259.0145553057741
 20
-10.57403284586856
 11
1259.0145553057741
 21
-409.07862686275985
  0
LINE
  8
MountainLine
  6
CONTINUOUS
 62
1
 10
1291.396648356055
 20
-6.7455037120196595
 11
1291.396648356055
 21
419.6002067000426
  0
LINE
  8
ValleyLine
  6
CONTINUOUS
 62
5
 10
1291.396648356055
 20
-6.7455037120196595
 11
1291.396648356055
 21
-419.60020670004286
  0
LINE
  8
ValleyLine
  6
CONTINUOUS
 62
5
 10
1326.9073894004703
 20
-1.925658998870594
 11
1326.9073894004703
 21
431.13834589319936
  0
LINE
  8
MountainLine
  6
CONTINUOUS
 62
1
 10
1326.9073894004703
 20
-1.925658998870594
 11
1326.9073894004703
 21
-431.1383458931997
  0
LINE
  8
ValleyLine
  6
CONTINUOUS
 62
5
 10
1364.2628451690173
 20
2.689085939250851
 11
1364.2628451690173
 21
443.27586923415737
  0
LINE
  8
MountainLine
  6
CONTINUOUS
 62
1
 10
1364.2628451690173
 20
2.689085939250851
 11
1364.2628451690173
 21
-443.2758692341577
  0
LINE
  8
ValleyLine
  6
CONTINUOUS
 62
5
 10
1402.5815976689098
 20
5.902315748016892
 11
1402.5815976689098
 21
455.7263866564464
  0
LINE
  8
MountainLine
  6
CONTINUOUS
 62
1
 10
1402.5815976689098
 20
5.902315748016892
 11
1402.5815976689098
 21
-455.7263866564468
  0
LINE
  8
ValleyLine
  6
CONTINUOUS
 62
5
 10
1442.3022808765413
 20
6.517615073099746
 11
1442.3022808765413
 21
468.6324189784334
  0
LINE
  8
MountainLine
  6
CONTINUOUS
 62
1
 10
1442.3022808765413
 20
6.517615073099746
 11
1442.3022808765413
 21
-468.6324189784338
  0
LINE
  8
ValleyLine
  6
CONTINUOUS
 62
5
 10
1484.1704764011233
 20
5.184466535420212
 11
1484.1704764011233
 21
482.23622035010067
  0
LINE
  8
MountainLine
  6
CONTINUOUS
 62
1
 10
1484.1704764011233
 20
5.184466535420212
 11
1484.1704764011233
 21
-482.23622035010106
  0
LINE
  8
ValleyLine
  6
CONTINUOUS
 62
5
 10
1527.9210859447783
 20
2.5523527558990837
 11
1527.9210859447783
 21
496.4516551130294
  0
LINE
  8
MountainLine
  6
CONTINUOUS
 62
1
 10
1527.9210859447783
 20
2.5523527558990837
 11
1527.9210859447783
 21
-496.4516551130298
  0
LINE
  8
ValleyLine
  6
CONTINUOUS
 62
5
 10
1561.529198042021
 20
0.09115545556763982
 11
1561.529198042021
 21
507.3715926866271
  0
LINE
  8
MountainLine
  6
CONTINUOUS
 62
1
 10
1561.529198042021
 20
0.09115545556763982
 11
1561.529198042021
 21
-507.37159268662754
  0
LINE
  8
ValleyLine
  6
CONTINUOUS
 62
5
 10
1572.7319020744355
 20
-0.7292436445428413
 11
1572.7319020744355
 21
511.01157187782627
  0
LINE
  8
MountainLine
  6
CONTINUOUS
 62
1
 10
1572.7319020744355
 20
-0.7292436445428413
 11
1572.7319020744355
 21
-511.01157187782667
  0
LINE
  8
ValleyLine
  6
CONTINUOUS
 62
5
 10
1572.7319020744355
 20
-0.7292436445428413
 11
1572.7319020744355
 21
511.01157187782627
  0
LINE
  8
MountainLine
  6
CONTINUOUS
 62
1
 10
1572.7319020744355
 20
-0.7292436445428413
 11
1572.7319020744355
 21
-511.01157187782667
  0
LINE
  8
ValleyLine
  6
CONTINUOUS
 62
5
 10
0.0
 20
0.0
 11
0.0
 21
0.0
  0
LINE
  8
ValleyLine
  6
CONTINUOUS
 62
5
 10
0.0
 20
0.0
 11
11.967861328523433
 21
16.469689656967276
  0
LINE
  8
ValleyLine
  6
CONTINUOUS
 62
5
 10
11.967861328523433
 20
16.469689656967276
 11
47.871445314093734
 21
65.8787586278691
  0
LINE
  8
ValleyLine
  6
CONTINUOUS
 62
5
 10
47.871445314093734
 20
65.8787586278691
 11
93.17236421093872
 21
128.22797398511915
  0
LINE
  8
ValleyLine
  6
CONTINUOUS
 62
5
 10
93.17236421093872
 20
128.22797398511915
 11
133.56844901093456
 21
183.6897257599444
  0
LINE
  8
ValleyLine
  6
CONTINUOUS
 62
5
 10
133.56844901093456
 20
183.6897257599444
 11
167.45693985508709
 21
229.43759424347917
  0
LINE
  8
ValleyLine
  6
CONTINUOUS
 62
5
 10
167.45693985508709
 20
229.43759424347917
 11
195.46317282571013
 21
264.26396618469414
  0
LINE
  8
ValleyLine
  6
CONTINUOUS
 62
5
 10
195.46317282571013
 20
264.26396618469414
 11
219.43259221203246
 21
288.17162756000727
  0
LINE
  8
ValleyLine
  6
CONTINUOUS
 62
5
 10
219.43259221203246
 20
288.17162756000727
 11
245.95423252060502
 21
304.60978437415116
  0
LINE
  8
ValleyLine
  6
CONTINUOUS
 62
5
 10
245.95423252060502
 20
304.60978437415116
 11
287.12324127630023
 21
321.02806790367316
  0
LINE
  8
ValleyLine
  6
CONTINUOUS
 62
5
 10
287.12324127630023
 20
321.02806790367316
 11
352.7696625620211
 21
343.23041544419823
  0
LINE
  8
ValleyLine
  6
CONTINUOUS
 62
5
 10
352.7696625620211
 20
343.23041544419823
 11
431.63158905205614
 21
369.2457453476913
  0
LINE
  8
ValleyLine
  6
CONTINUOUS
 62
5
 10
431.63158905205614
 20
369.2457453476913
 11
509.2273137521655
 21
394.7636545752735
  0
LINE
  8
ValleyLine
  6
CONTINUOUS
 62
5
 10
509.2273137521655
 20
394.7636545752735
 11
582.187070914645
 21
418.47669269029046
  0
LINE
  8
ValleyLine
  6
CONTINUOUS
 62
5
 10
582.187070914645
 20
418.47669269029046
 11
612.6481890121614
 21
434.2982274210289
  0
LINE
  8
ValleyLine
  6
CONTINUOUS
 62
5
 10
612.6481890121614
 20
434.2982274210289
 11
633.0745928107244
 21
447.08257177716234
  0
LINE
  8
ValleyLine
  6
CONTINUOUS
 62
5
 10
633.0745928107244
 20
447.08257177716234
 11
656.0668220363135
 21
467.5338259149604
  0
LINE
  8
ValleyLine
  6
CONTINUOUS
 62
5
 10
656.0668220363135
 20
467.5338259149604
 11
684.2511511663071
 21
494.03901681989737
  0
LINE
  8
ValleyLine
  6
CONTINUOUS
 62
5
 10
684.2511511663071
 20
494.03901681989737
 11
717.2655580751234
 21
522.814046909103
  0
LINE
  8
ValleyLine
  6
CONTINUOUS
 62
5
 10
717.2655580751234
 20
522.814046909103
 11
752.9846069297873
 21
552.0752636877204
  0
LINE
  8
ValleyLine
  6
CONTINUOUS
 62
5
 10
752.9846069297873
 20
552.0752636877204
 11
789.1785967949226
 21
579.9632616298117
  0
LINE
  8
ValleyLine
  6
CONTINUOUS
 62
5
 10
789.1785967949226
 20
579.9632616298117
 11
823.6663224485053
 21
604.653869407615
  0
LINE
  8
ValleyLine
  6
CONTINUOUS
 62
5
 10
823.6663224485053
 20
604.653869407615
 11
854.5134033539733
 21
624.5022443243188
  0
LINE
  8
ValleyLine
  6
CONTINUOUS
 62
5
 10
854.5134033539733
 20
624.5022443243188
 11
882.9053817211098
 21
641.1584535912882
  0
LINE
  8
ValleyLine
  6
CONTINUOUS
 62
5
 10
882.9053817211098
 20
641.1584535912882
 11
909.4914842627181
 21
655.8829084029047
  0
LINE
  8
ValleyLine
  6
CONTINUOUS
 62
5
 10
909.4914842627181
 20
655.8829084029047
 11
934.5167643105822
 21
669.6423708035512
  0
LINE
  8
ValleyLine
  6
CONTINUOUS
 62
5
 10
934.5167643105822
 20
669.6423708035512
 11
958.1815139143969
 21
683.3710818625652
  0
LINE
  8
ValleyLine
  6
CONTINUOUS
 62
5
 10
958.1815139143969
 20
683.3710818625652
 11
980.6649632891111
 21
697.6358730193675
  0
LINE
  8
ValleyLine
  6
CONTINUOUS
 62
5
 10
980.6649632891111
 20
697.6358730193675
 11
1002.5309745145477
 21
713.283027120836
  0
LINE
  8
ValleyLine
  6
CONTINUOUS
 62
5
 10
1002.5309745145477
 20
713.283027120836
 11
1024.779431971846
 21
731.4756157589137
  0
LINE
  8
ValleyLine
  6
CONTINUOUS
 62
5
 10
1024.779431971846
 20
731.4756157589137
 11
1048.7267426001058
 21
753.6066776249749
  0
LINE
  8
ValleyLine
  6
CONTINUOUS
 62
5
 10
1048.7267426001058
 20
753.6066776249749
 11
1074.6225019471567
 21
778.3787037920449
  0
LINE
  8
ValleyLine
  6
CONTINUOUS
 62
5
 10
1074.6225019471567
 20
778.3787037920449
 11
1102.1312214788138
 21
804.0690968651066
  0
LINE
  8
ValleyLine
  6
CONTINUOUS
 62
5
 10
1102.1312214788138
 20
804.0690968651066
 11
1131.2430543606554
 21
829.1918519929128
  0
LINE
  8
ValleyLine
  6
CONTINUOUS
 62
5
 10
1131.2430543606554
 20
829.1918519929128
 11
1163.0160982347832
 21
853.0368714039593
  0
LINE
  8
ValleyLine
  6
CONTINUOUS
 62
5
 10
1163.0160982347832
 20
853.0368714039593
 11
1197.671784987547
 21
876.5678394503975
  0
LINE
  8
ValleyLine
  6
CONTINUOUS
 62
5
 10
1197.671784987547
 20
876.5678394503975
 11
1234.6138892845845
 21
900.154377740203
  0
LINE
  8
ValleyLine
  6
CONTINUOUS
 62
5
 10
1234.6138892845845
 20
900.154377740203
 11
1263.250078596229
 21
917.9175799458768
  0
LINE
  8
ValleyLine
  6
CONTINUOUS
 62
5
 10
1263.250078596229
 20
917.9175799458768
 11
1272.795475033444
 21
923.838647347768
  0
LINE
  8
ValleyLine
  6
CONTINUOUS
 62
5
 10
1272.795475033444
 20
923.838647347768
 11
1272.795475033444
 21
923.838647347768
  0
LINE
  8
ValleyLine
  6
CONTINUOUS
 62
5
 10
1272.795475033444
 20
923.838647347768
 11
1272.795475033444
 21
923.838647347768
  0
LINE
  8
ValleyLine
  6
CONTINUOUS
 62
5
 10
0.0
 20
0.0
 11
0.0
 21
0.0
  0
LINE
  8
MountainLine
  6
CONTINUOUS
 62
1
 10
0.0
 20
0.0
 11
0.0
 21
-0.0
  0
LINE
  8
ValleyLine
  6
CONTINUOUS
 62
5
 10
0.0
 20
0.0
 11
0.0
 21
0.0
  0
LINE
  8
MountainLine
  6
CONTINUOUS
 62
1
 10
0.0
 20
0.0
 11
0.0
 21
-0.0
  0
LINE
  8
ValleyLine
  6
CONTINUOUS
 62
5
 10
11.967861328523433
 20
16.469689656967276
 11
11.966895643680092
 21
16.471018808126523
  0
LINE
  8
MountainLine
  6
CONTINUOUS
 62
1
 10
11.967861328523433
 20
16.469689656967276
 11
19.362843891297437
 21
6.291369355365549
  0
LINE
  8
ValleyLine
  6
CONTINUOUS
 62
5
 10
47.871445314093734
 20
65.8787586278691
 11
47.867582574720366
 21
65.88407523250609
  0
LINE
  8
MountainLine
  6
CONTINUOUS
 62
1
 10
47.871445314093734
 20
65.8787586278691
 11
77.45137556518975
 21
25.165477421462196
  0
LINE
  8
ValleyLine
  6
CONTINUOUS
 62
5
 10
93.17236421093872
 20
128.22797398511915
 11
93.16772029554642
 21
128.23436578630526
  0
LINE
  8
MountainLine
  6
CONTINUOUS
 62
1
 10
93.17236421093872
 20
128.22797398511915
 11
150.7485380925375
 21
48.98116920458198
  0
LINE
  8
ValleyLine
  6
CONTINUOUS
 62
5
 10
133.56844901093456
 20
183.6897257599444
 11
133.51342336658803
 21
183.76546206198526
  0
LINE
  8
MountainLine
  6
CONTINUOUS
 62
1
 10
133.56844901093456
 20
183.6897257599444
 11
216.02925696149381
 21
70.19216054934901
  0
LINE
  8
ValleyLine
  6
CONTINUOUS
 62
5
 10
167.45693985508709
 20
229.43759424347917
 11
167.07655479810637
 21
229.96114935872487
  0
LINE
  8
MountainLine
  6
CONTINUOUS
 62
1
 10
167.45693985508709
 20
229.43759424347917
 11
270.3355443865704
 21
87.83734296304179
  0
LINE
  8
ValleyLine
  6
CONTINUOUS
 62
5
 10
195.46317282571013
 20
264.26396618469414
 11
193.73109143913055
 21
266.64797168996694
  0
LINE
  8
MountainLine
  6
CONTINUOUS
 62
1
 10
195.46317282571013
 20
264.26396618469414
 11
313.46349062612694
 21
101.85046215434764
  0
LINE
  8
ValleyLine
  6
CONTINUOUS
 62
5
 10
219.43259221203246
 20
288.17162756000727
 11
214.40076749944976
 21
295.09734012138614
  0
LINE
  8
MountainLine
  6
CONTINUOUS
 62
1
 10
219.43259221203246
 20
288.17162756000727
 11
346.90772902817343
 21
112.71715393668146
  0
LINE
  8
ValleyLine
  6
CONTINUOUS
 62
5
 10
245.95423252060502
 20
304.60978437415116
 11
233.63309765748434
 21
321.56837163943754
  0
LINE
  8
MountainLine
  6
CONTINUOUS
 62
1
 10
245.95423252060502
 20
304.60978437415116
 11
378.0262929067331
 21
122.82818825930737
  0
LINE
  8
ValleyLine
  6
CONTINUOUS
 62
5
 10
287.12324127630023
 20
321.02806790367316
 11
260.18189264585584
 21
358.1096530717277
  0
LINE
  8
MountainLine
  6
CONTINUOUS
 62
1
 10
287.12324127630023
 20
321.02806790367316
 11
420.983145558271
 21
136.78571577396679
  0
LINE
  8
ValleyLine
  6
CONTINUOUS
 62
5
 10
352.7696625620211
 20
343.23041544419823
 11
301.0705781435896
 21
414.3881005426403
  0
LINE
  8
MountainLine
  6
CONTINUOUS
 62
1
 10
352.7696625620211
 20
343.23041544419823
 11
487.1424284489092
 21
158.28216987377985
  0
LINE
  8
ValleyLine
  6
CONTINUOUS
 62
5
 10
431.63158905205614
 20
369.2457453476913
 11
349.95216316609583
 21
481.6678304115923
  0
LINE
  8
MountainLine
  6
CONTINUOUS
 62
1
 10
431.63158905205614
 20
369.2457453476913
 11
566.234494439292
 21
183.98073992980798
  0
LINE
  8
ValleyLine
  6
CONTINUOUS
 62
5
 10
509.2273137521655
 20
394.7636545752735
 11
398.01994865596
 21
547.8274613169278
  0
LINE
  8
MountainLine
  6
CONTINUOUS
 62
1
 10
509.2273137521655
 20
394.7636545752735
 11
644.0098051258311
 21
209.25147025249822
  0
LINE
  8
MountainLine
  6
CONTINUOUS
 62
1
 10
582.187070914645
 20
418.47669269029046
 11
443.11409256658567
 21
609.8942257146384
  0
LINE
  8
ValleyLine
  6
CONTINUOUS
 62
5
 10
582.187070914645
 20
418.47669269029046
 11
716.9736626668027
 21
232.95886468069173
  0
LINE
  8
MountainLine
  6
CONTINUOUS
 62
1
 10
612.6481890121614
 20
434.2982274210289
 11
464.0921605354416
 21
638.7680591933871
  0
LINE
  8
ValleyLine
  6
CONTINUOUS
 62
5
 10
612.6481890121614
 20
434.2982274210289
 11
750.916889658717
 21
243.98768768406904
  0
LINE
  8
MountainLine
  6
CONTINUOUS
 62
1
 10
633.0745928107244
 20
447.08257177716234
 11
478.94954736842124
 21
659.2174978157466
  0
LINE
  8
ValleyLine
  6
CONTINUOUS
 62
5
 10
633.0745928107244
 20
447.08257177716234
 11
774.956646538483
 21
251.7986781869556
  0
LINE
  8
MountainLine
  6
CONTINUOUS
 62
1
 10
656.0668220363135
 20
467.5338259149604
 11
497.8750149222937
 21
685.2661691933605
  0
LINE
  8
ValleyLine
  6
CONTINUOUS
 62
5
 10
656.0668220363135
 20
467.5338259149604
 11
805.5786962936321
 21
261.7483852914276
  0
LINE
  8
ValleyLine
  6
CONTINUOUS
 62
5
 10
684.2511511663071
 20
494.03901681989737
 11
521.5957536899592
 21
717.914965173395
  0
LINE
  8
MountainLine
  6
CONTINUOUS
 62
1
 10
684.2511511663071
 20
494.03901681989737
 11
843.9596578579723
 21
274.2191156640398
  0
LINE
  8
ValleyLine
  6
CONTINUOUS
 62
5
 10
717.2655580751234
 20
522.814046909103
 11
548.5560986965884
 21
755.0226966101847
  0
LINE
  8
MountainLine
  6
CONTINUOUS
 62
1
 10
717.2655580751234
 20
522.814046909103
 11
887.5824124271217
 21
288.3930078274904
  0
LINE
  8
ValleyLine
  6
CONTINUOUS
 62
5
 10
752.9846069297873
 20
552.0752636877204
 11
577.045382329345
 21
794.2348315294863
  0
LINE
  8
MountainLine
  6
CONTINUOUS
 62
1
 10
752.9846069297873
 20
552.0752636877204
 11
933.6790416600583
 21
303.37071059521713
  0
LINE
  8
ValleyLine
  6
CONTINUOUS
 62
5
 10
789.1785967949226
 20
579.9632616298117
 11
605.2732855248404
 21
833.0872071405765
  0
LINE
  8
MountainLine
  6
CONTINUOUS
 62
1
 10
789.1785967949226
 20
579.9632616298117
 11
979.3527484615113
 21
318.21099753497606
  0
LINE
  8
ValleyLine
  6
CONTINUOUS
 62
5
 10
823.6663224485053
 20
604.653869407615
 11
631.4865366480687
 21
869.1666520633586
  0
LINE
  8
MountainLine
  6
CONTINUOUS
 62
1
 10
823.6663224485053
 20
604.653869407615
 11
1021.7666797345312
 21
331.992119200249
  0
LINE
  8
ValleyLine
  6
CONTINUOUS
 62
5
 10
854.5134033539733
 20
624.5022443243188
 11
654.1204213451928
 21
900.3195217505095
  0
LINE
  8
MountainLine
  6
CONTINUOUS
 62
1
 10
854.5134033539733
 20
624.5022443243188
 11
1058.389074471924
 21
343.89145657364435
  0
LINE
  8
ValleyLine
  6
CONTINUOUS
 62
5
 10
882.9053817211098
 20
641.1584535912882
 11
674.3671327226662
 21
928.1867292394618
  0
LINE
  8
MountainLine
  6
CONTINUOUS
 62
1
 10
882.9053817211098
 20
641.1584535912882
 11
1091.1489416410852
 21
354.53578266287855
  0
LINE
  8
ValleyLine
  6
CONTINUOUS
 62
5
 10
909.4914842627181
 20
655.8829084029047
 11
693.0091553046367
 21
953.8452720823013
  0
LINE
  8
MountainLine
  6
CONTINUOUS
 62
1
 10
909.4914842627181
 20
655.8829084029047
 11
1121.3123677977565
 21
364.33647392704785
  0
LINE
  8
MountainLine
  6
CONTINUOUS
 62
1
 10
934.5167643105822
 20
669.6423708035512
 11
710.5202126268489
 21
977.9471747889287
  0
LINE
  8
ValleyLine
  6
CONTINUOUS
 62
5
 10
934.5167643105822
 20
669.6423708035512
 11
1149.6458537240437
 21
373.5425815674364
  0
LINE
  8
MountainLine
  6
CONTINUOUS
 62
1
 10
958.1815139143969
 20
683.3710818625652
 11
727.3398336482919
 21
1001.0973970720196
  0
LINE
  8
ValleyLine
  6
CONTINUOUS
 62
5
 10
958.1815139143969
 20
683.3710818625652
 11
1176.8605722146306
 21
382.385179632462
  0
LINE
  8
MountainLine
  6
CONTINUOUS
 62
1
 10
980.6649632891111
 20
697.6358730193675
 11
743.7635470499148
 21
1023.7026992650133
  0
LINE
  8
ValleyLine
  6
CONTINUOUS
 62
5
 10
980.6649632891111
 20
697.6358730193675
 11
1203.4346987199435
 21
391.0196367442231
  0
LINE
  8
MountainLine
  6
CONTINUOUS
 62
1
 10
1002.5309745145477
 20
713.283027120836
 11
760.3807141111183
 21
1046.574267577503
  0
LINE
  8
ValleyLine
  6
CONTINUOUS
 62
5
 10
1002.5309745145477
 20
713.283027120836
 11
1230.321839821706
 21
399.755798463579
  0
LINE
  8
MountainLine
  6
CONTINUOUS
 62
1
 10
1024.779431971846
 20
731.4756157589137
 11
778.1137875098027
 21
1070.9817491978404
  0
LINE
  8
ValleyLine
  6
CONTINUOUS
 62
5
 10
1024.779431971846
 20
731.4756157589137
 11
1259.0145553057741
 21
409.07862686275956
  0
LINE
  8
MountainLine
  6
CONTINUOUS
 62
1
 10
1048.7267426001058
 20
753.6066776249749
 11
798.127021641738
 21
1098.527602827193
  0
LINE
  8
ValleyLine
  6
CONTINUOUS
 62
5
 10
1048.7267426001058
 20
753.6066776249749
 11
1291.396648356055
 21
419.60020670004263
  0
LINE
  8
ValleyLine
  6
CONTINUOUS
 62
5
 10
1074.6225019471567
 20
778.3787037920449
 11
820.0738665728827
 21
1128.734843401805
  0
LINE
  8
MountainLine
  6
CONTINUOUS
 62
1
 10
1074.6225019471567
 20
778.3787037920449
 11
1326.9073894004703
 21
431.1383458931994
  0
LINE
  8
ValleyLine
  6
CONTINUOUS
 62
5
 10
1102.1312214788138
 20
804.0690968651066
 11
843.160807903088
 21
1160.5112920476784
  0
LINE
  8
MountainLine
  6
CONTINUOUS
 62
1
 10
1102.1312214788138
 20
804.0690968651066
 11
1364.2628451690173
 21
443.2758692341575
  0
LINE
  8
ValleyLine
  6
CONTINUOUS
 62
5
 10
1131.2430543606554
 20
829.1918519929128
 11
866.8430993545167
 21
1193.1071698367537
  0
LINE
  8
MountainLine
  6
CONTINUOUS
 62
1
 10
1131.2430543606554
 20
829.1918519929128
 11
1402.5815976689098
 21
455.7263866564465
  0
LINE
  8
ValleyLine
  6
CONTINUOUS
 62
5
 10
1163.0160982347832
 20
853.0368714039593
 11
891.3918316332
 21
1226.8956011156206
  0
LINE
  8
MountainLine
  6
CONTINUOUS
 62
1
 10
1163.0160982347832
 20
853.0368714039593
 11
1442.302280876541
 21
468.63241897843363
  0
LINE
  8
ValleyLine
  6
CONTINUOUS
 62
5
 10
1197.671784987547
 20
876.5678394503975
 11
917.2677995150182
 21
1262.5108154828476
  0
LINE
  8
MountainLine
  6
CONTINUOUS
 62
1
 10
1197.671784987547
 20
876.5678394503975
 11
1484.1704764011233
 21
482.2362203501007
  0
LINE
  8
ValleyLine
  6
CONTINUOUS
 62
5
 10
1234.6138892845845
 20
900.154377740203
 11
944.3071632415224
 21
1299.7273068570519
  0
LINE
  8
MountainLine
  6
CONTINUOUS
 62
1
 10
1234.6138892845845
 20
900.154377740203
 11
1527.9210859447783
 21
496.4516551130296
  0
LINE
  8
ValleyLine
  6
CONTINUOUS
 62
5
 10
1263.250078596229
 20
917.9175799458768
 11
965.0781188153348
 21
1328.3160745797577
  0
LINE
  8
MountainLine
  6
CONTINUOUS
 62
1
 10
1263.250078596229
 20
917.9175799458768
 11
1561.529198042021
 21
507.3715926866272
  0
LINE
  8
ValleyLine
  6
CONTINUOUS
 62
5
 10
1272.795475033444
 20
923.838647347768
 11
972.0017706732724
 21
1337.8456638206596
  0
LINE
  8
MountainLine
  6
CONTINUOUS
 62
1
 10
1272.795475033444
 20
923.838647347768
 11
1572.7319020744355
 21
511.0115718778264
  0
LINE
  8
ValleyLine
  6
CONTINUOUS
 62
5
 10
1272.795475033444
 20
923.838647347768
 11
972.0017706732724
 21
1337.8456638206596
  0
LINE
  8
MountainLine
  6
CONTINUOUS
 62
1
 10
1272.795475033444
 20
923.838647347768
 11
1572.7319020744355
 21
511.0115718778264
  0
LINE
  8
ValleyLine
  6
CONTINUOUS
 62
5
 10
0.0
 20
0.0
 11
0.0
 21
0.0
  0
LINE
  8
ValleyLine
  6
CONTINUOUS
 62
5
 10
0.0
 20
0.0
 11
0.0015625108989505657
 21
20.358791214955303
  0
LINE
  8
ValleyLine
  6
CONTINUOUS
 62
5
 10
0.0015625108989505657
 20
20.358791214955303
 11
0.006250043595802263
 21
81.43516485982121
  0
LINE
  8
ValleyLine
  6
CONTINUOUS
 62
5
 10
0.006250043595802263
 20
81.43516485982121
 11
0.007514012945622164
 21
158.50395171264284
  0
LINE
  8
ValleyLine
  6
CONTINUOUS
 62
5
 10
0.007514012945622164
 20
158.50395171264284
 11
0.08903336280557253
 21
227.11767433207513
  0
LINE
  8
ValleyLine
  6
CONTINUOUS
 62
5
 10
0.08903336280557253
 20
227.11767433207513
 11
0.615475951007426
 21
284.04763253232613
  0
LINE
  8
ValleyLine
  6
CONTINUOUS
 62
5
 10
0.615475951007426
 20
284.04763253232613
 11
2.802566554766886
 21
328.68440999759133
  0
LINE
  8
ValleyLine
  6
CONTINUOUS
 62
5
 10
2.802566554766886
 20
328.68440999759133
 11
8.14166341039053
 21
362.1149855672747
  0
LINE
  8
ValleyLine
  6
CONTINUOUS
 62
5
 10
8.14166341039053
 20
362.1149855672747
 11
19.936014988500546
 21
391.00276282610207
  0
LINE
  8
ValleyLine
  6
CONTINUOUS
 62
5
 10
19.936014988500546
 20
391.00276282610207
 11
43.59201778681957
 21
428.483969418049
  0
LINE
  8
ValleyLine
  6
CONTINUOUS
 62
5
 10
43.59201778681957
 20
428.483969418049
 11
83.65087577627231
 21
485.03204419087797
  0
LINE
  8
ValleyLine
  6
CONTINUOUS
 62
5
 10
83.65087577627231
 20
485.03204419087797
 11
132.16008726506197
 21
552.4327655552904
  0
LINE
  8
ValleyLine
  6
CONTINUOUS
 62
5
 10
132.16008726506197
 20
552.4327655552904
 11
179.93729652497947
 21
618.6868104009928
  0
LINE
  8
ValleyLine
  6
CONTINUOUS
 62
5
 10
179.93729652497947
 20
618.6868104009928
 11
225.02480588383847
 21
680.7557304952479
  0
LINE
  8
ValleyLine
  6
CONTINUOUS
 62
5
 10
225.02480588383847
 20
680.7557304952479
 11
240.36870330903022
 21
711.4602169555684
  0
LINE
  8
ValleyLine
  6
CONTINUOUS
 62
5
 10
240.36870330903022
 20
711.4602169555684
 11
249.3795620432689
 21
733.809307711788
  0
LINE
  8
ValleyLine
  6
CONTINUOUS
 62
5
 10
249.3795620432689
 20
733.809307711788
 11
255.95972065225166
 21
763.8692131216768
  0
LINE
  8
ValleyLine
  6
CONTINUOUS
 62
5
 10
255.95972065225166
 20
763.8692131216768
 11
263.1819615703547
 21
801.8786960112903
  0
LINE
  8
ValleyLine
  6
CONTINUOUS
 62
5
 10
263.1819615703547
 20
801.8786960112903
 11
272.9776394980896
 21
844.5635658612933
  0
LINE
  8
ValleyLine
  6
CONTINUOUS
 62
5
 10
272.9776394980896
 20
844.5635658612933
 11
284.6756453578174
 21
889.23151765397
  0
LINE
  8
ValleyLine
  6
CONTINUOUS
 62
5
 10
284.6756453578174
 20
889.23151765397
 11
297.56504434662236
 21
933.0676753925651
  0
LINE
  8
ValleyLine
  6
CONTINUOUS
 62
5
 10
297.56504434662236
 20
933.0676753925651
 11
310.9534253757809
 21
973.3141732105388
  0
LINE
  8
ValleyLine
  6
CONTINUOUS
 62
5
 10
310.9534253757809
 20
973.3141732105388
 11
324.24265599715324
 21
1007.5033050613845
  0
LINE
  8
ValleyLine
  6
CONTINUOUS
 62
5
 10
324.24265599715324
 20
1007.5033050613845
 11
337.4219748338707
 21
1037.666847587838
  0
LINE
  8
ValleyLine
  6
CONTINUOUS
 62
5
 10
337.4219748338707
 20
1037.666847587838
 11
350.2757662179118
 21
1065.2061007532348
  0
LINE
  8
ValleyLine
  6
CONTINUOUS
 62
5
 10
350.2757662179118
 20
1065.2061007532348
 11
362.4340339870532
 21
1091.0472302154444
  0
LINE
  8
ValleyLine
  6
CONTINUOUS
 62
5
 10
362.4340339870532
 20
1091.0472302154444
 11
373.5096846906941
 21
1116.0637815893665
  0
LINE
  8
ValleyLine
  6
CONTINUOUS
 62
5
 10
373.5096846906941
 20
1116.0637815893665
 11
383.31454345800614
 21
1140.8196800195503
  0
LINE
  8
ValleyLine
  6
CONTINUOUS
 62
5
 10
383.31454345800614
 20
1140.8196800195503
 11
391.8073517173869
 21
1166.3310125260152
  0
LINE
  8
ValleyLine
  6
CONTINUOUS
 62
5
 10
391.8073517173869
 20
1166.3310125260152
 11
399.11339659648365
 21
1194.1264410855492
  0
LINE
  8
ValleyLine
  6
CONTINUOUS
 62
5
 10
399.11339659648365
 20
1194.1264410855492
 11
405.4788660818785
 21
1226.106722258114
  0
LINE
  8
ValleyLine
  6
CONTINUOUS
 62
5
 10
405.4788660818785
 20
1226.106722258114
 11
411.8683438254796
 21
1261.368857853486
  0
LINE
  8
ValleyLine
  6
CONTINUOUS
 62
5
 10
411.8683438254796
 20
1261.368857853486
 11
419.0229312461418
 21
1298.3220420919233
  0
LINE
  8
ValleyLine
  6
CONTINUOUS
 62
5
 10
419.0229312461418
 20
1298.3220420919233
 11
427.8081138238753
 21
1335.7582839709883
  0
LINE
  8
ValleyLine
  6
CONTINUOUS
 62
5
 10
427.8081138238753
 20
1335.7582839709883
 11
439.497295530625
 21
1373.7250365153795
  0
LINE
  8
ValleyLine
  6
CONTINUOUS
 62
5
 10
439.497295530625
 20
1373.7250365153795
 11
453.7031790754835
 21
1413.1320911403839
  0
LINE
  8
ValleyLine
  6
CONTINUOUS
 62
5
 10
453.7031790754835
 20
1413.1320911403839
 11
469.7261499003795
 21
1453.928025549761
  0
LINE
  8
ValleyLine
  6
CONTINUOUS
 62
5
 10
469.7261499003795
 20
1453.928025549761
 11
482.45236541765394
 21
1485.13068776791
  0
LINE
  8
ValleyLine
  6
CONTINUOUS
 62
5
 10
482.45236541765394
 20
1485.13068776791
 11
486.69443725674546
 21
1495.5315751739595
  0
LINE
  8
ValleyLine
  6
CONTINUOUS
 62
5
 10
486.69443725674546
 20
1495.5315751739595
 11
486.69443725674546
 21
1495.5315751739595
  0
LINE
  8
ValleyLine
  6
CONTINUOUS
 62
5
 10
486.69443725674546
 20
1495.5315751739595
 11
486.69443725674546
 21
1495.5315751739595
  0
LINE
  8
ValleyLine
  6
CONTINUOUS
 62
5
 10
0.0
 20
0.0
 11
0.0
 21
0.0
  0
LINE
  8
MountainLine
  6
CONTINUOUS
 62
1
 10
0.0
 20
0.0
 11
0.0
 21
-0.0
  0
LINE
  8
ValleyLine
  6
CONTINUOUS
 62
5
 10
0.0
 20
0.0
 11
0.0
 21
0.0
  0
LINE
  8
MountainLine
  6
CONTINUOUS
 62
1
 10
0.0
 20
0.0
 11
0.0
 21
-0.0
  0
LINE
  8
ValleyLine
  6
CONTINUOUS
 62
5
 10
0.0015625108989505657
 20
20.358791214955303
 11
3.1439944060181426E-15
 21
20.359298905521953
  0
LINE
  8
MountainLine
  6
CONTINUOUS
 62
1
 10
0.0015625108989505657
 20
20.358791214955303
 11
11.966895643680093
 21
16.471018808126523
  0
LINE
  8
ValleyLine
  6
CONTINUOUS
 62
5
 10
0.006250043595802263
 20
81.43516485982121
 11
1.257597762407257E-14
 21
81.43719562208781
  0
LINE
  8
MountainLine
  6
CONTINUOUS
 62
1
 10
0.006250043595802263
 20
81.43516485982121
 11
47.86758257472037
 21
65.88407523250609
  0
LINE
  8
ValleyLine
  6
CONTINUOUS
 62
5
 10
0.007514012945622164
 20
158.50395171264284
 11
2.515195524814514E-14
 21
158.50639316344663
  0
LINE
  8
MountainLine
  6
CONTINUOUS
 62
1
 10
0.007514012945622164
 20
158.50395171264284
 11
93.16772029554642
 21
128.2343657863053
  0
LINE
  8
ValleyLine
  6
CONTINUOUS
 62
5
 10
0.08903336280557253
 20
227.11767433207513
 11
3.772793287221771E-14
 21
227.14660302527247
  0
LINE
  8
MountainLine
  6
CONTINUOUS
 62
1
 10
0.08903336280557253
 20
227.11767433207513
 11
133.51342336658803
 21
183.76546206198526
  0
LINE
  8
ValleyLine
  6
CONTINUOUS
 62
5
 10
0.615475951007426
 20
284.04763253232613
 11
5.030391049629028E-14
 21
284.2476127913661
  0
LINE
  8
MountainLine
  6
CONTINUOUS
 62
1
 10
0.615475951007426
 20
284.04763253232613
 11
167.07655479810637
 21
229.96114935872487
  0
LINE
  8
ValleyLine
  6
CONTINUOUS
 62
5
 10
2.802566554766886
 20
328.68440999759133
 11
5.030391049629028E-14
 21
329.5950190712387
  0
LINE
  8
MountainLine
  6
CONTINUOUS
 62
1
 10
2.802566554766886
 20
328.68440999759133
 11
193.73109143913055
 21
266.64797168996694
  0
LINE
  8
ValleyLine
  6
CONTINUOUS
 62
5
 10
8.14166341039053
 20
362.1149855672747
 11
5.030391049629028E-14
 21
364.76037236940937
  0
LINE
  8
MountainLine
  6
CONTINUOUS
 62
1
 10
8.14166341039053
 20
362.1149855672747
 11
214.40076749944976
 21
295.09734012138614
  0
LINE
  8
ValleyLine
  6
CONTINUOUS
 62
5
 10
19.936014988500546
 20
391.00276282610207
 11
5.030391049629028E-14
 21
397.48036676026027
  0
LINE
  8
MountainLine
  6
CONTINUOUS
 62
1
 10
19.936014988500546
 20
391.00276282610207
 11
233.63309765748437
 21
321.56837163943754
  0
LINE
  8
ValleyLine
  6
CONTINUOUS
 62
5
 10
43.59201778681957
 20
428.483969418049
 11
7.545586574443542E-14
 21
442.64787459552184
  0
LINE
  8
MountainLine
  6
CONTINUOUS
 62
1
 10
43.59201778681957
 20
428.483969418049
 11
260.18189264585584
 21
358.10965307172773
  0
LINE
  8
ValleyLine
  6
CONTINUOUS
 62
5
 10
83.65087577627231
 20
485.03204419087797
 11
1.0060782099258056E-13
 21
512.211861337721
  0
LINE
  8
MountainLine
  6
CONTINUOUS
 62
1
 10
83.65087577627231
 20
485.03204419087797
 11
301.0705781435896
 21
414.38810054264036
  0
LINE
  8
ValleyLine
  6
CONTINUOUS
 62
5
 10
132.16008726506197
 20
552.4327655552904
 11
1.0060782099258056E-13
 21
595.3741809635687
  0
LINE
  8
MountainLine
  6
CONTINUOUS
 62
1
 10
132.16008726506197
 20
552.4327655552904
 11
349.9521631660959
 21
481.66783041159243
  0
LINE
  8
ValleyLine
  6
CONTINUOUS
 62
5
 10
179.93729652497947
 20
618.6868104009928
 11
1.2575977624072572E-13
 21
677.1519821288596
  0
LINE
  8
MountainLine
  6
CONTINUOUS
 62
1
 10
179.93729652497947
 20
618.6868104009928
 11
398.01994865596004
 21
547.827461316928
  0
LINE
  8
MountainLine
  6
CONTINUOUS
 62
1
 10
225.02480588383847
 20
680.7557304952479
 11
1.5091173148887084E-13
 21
753.8707220678934
  0
LINE
  8
ValleyLine
  6
CONTINUOUS
 62
5
 10
225.02480588383847
 20
680.7557304952479
 11
443.11409256658567
 21
609.8942257146385
  0
LINE
  8
MountainLine
  6
CONTINUOUS
 62
1
 10
240.36870330903022
 20
711.4602169555684
 11
1.5091173148887084E-13
 21
789.560743018636
  0
LINE
  8
ValleyLine
  6
CONTINUOUS
 62
5
 10
240.36870330903022
 20
711.4602169555684
 11
464.0921605354415
 21
638.7680591933871
  0
LINE
  8
MountainLine
  6
CONTINUOUS
 62
1
 10
249.3795620432689
 20
733.809307711788
 11
1.5091173148887084E-13
 21
814.8376392575822
  0
LINE
  8
ValleyLine
  6
CONTINUOUS
 62
5
 10
249.3795620432689
 20
733.809307711788
 11
478.94954736842124
 21
659.2174978157467
  0
LINE
  8
MountainLine
  6
CONTINUOUS
 62
1
 10
255.95972065225166
 20
763.8692131216768
 11
1.5091173148887084E-13
 21
847.0355678038659
  0
LINE
  8
ValleyLine
  6
CONTINUOUS
 62
5
 10
255.95972065225166
 20
763.8692131216768
 11
497.8750149222936
 21
685.2661691933605
  0
LINE
  8
ValleyLine
  6
CONTINUOUS
 62
5
 10
263.1819615703547
 20
801.8786960112903
 11
1.5091173148887084E-13
 21
887.3916990187105
  0
LINE
  8
MountainLine
  6
CONTINUOUS
 62
1
 10
263.1819615703547
 20
801.8786960112903
 11
521.5957536899591
 21
717.9149651733951
  0
LINE
  8
ValleyLine
  6
CONTINUOUS
 62
5
 10
272.9776394980896
 20
844.5635658612933
 11
1.5091173148887084E-13
 21
933.2593775653884
  0
LINE
  8
MountainLine
  6
CONTINUOUS
 62
1
 10
272.9776394980896
 20
844.5635658612933
 11
548.5560986965883
 21
755.0226966101848
  0
LINE
  8
ValleyLine
  6
CONTINUOUS
 62
5
 10
284.6756453578174
 20
889.23151765397
 11
2.0121564198516112E-13
 21
981.7282418685385
  0
LINE
  8
MountainLine
  6
CONTINUOUS
 62
1
 10
284.6756453578174
 20
889.23151765397
 11
577.0453823293451
 21
794.2348315294864
  0
LINE
  8
ValleyLine
  6
CONTINUOUS
 62
5
 10
297.56504434662236
 20
933.0676753925651
 11
2.0121564198516112E-13
 21
1029.752419211201
  0
LINE
  8
MountainLine
  6
CONTINUOUS
 62
1
 10
297.56504434662236
 20
933.0676753925651
 11
605.2732855248404
 21
833.0872071405765
  0
LINE
  8
ValleyLine
  6
CONTINUOUS
 62
5
 10
310.9534253757809
 20
973.3141732105388
 11
2.0121564198516112E-13
 21
1074.3490657262194
  0
LINE
  8
MountainLine
  6
CONTINUOUS
 62
1
 10
310.9534253757809
 20
973.3141732105388
 11
631.4865366480687
 21
869.1666520633587
  0
LINE
  8
ValleyLine
  6
CONTINUOUS
 62
5
 10
324.24265599715324
 20
1007.5033050613845
 11
2.0121564198516112E-13
 21
1112.8561303537301
  0
LINE
  8
MountainLine
  6
CONTINUOUS
 62
1
 10
324.24265599715324
 20
1007.5033050613845
 11
654.1204213451928
 21
900.3195217505095
  0
LINE
  8
ValleyLine
  6
CONTINUOUS
 62
5
 10
337.4219748338707
 20
1037.666847587838
 11
2.0121564198516112E-13
 21
1147.3018931531665
  0
LINE
  8
MountainLine
  6
CONTINUOUS
 62
1
 10
337.4219748338707
 20
1037.666847587838
 11
674.3671327226662
 21
928.186729239462
  0
LINE
  8
ValleyLine
  6
CONTINUOUS
 62
5
 10
350.2757662179118
 20
1065.2061007532348
 11
2.0121564198516112E-13
 21
1179.0175963105073
  0
LINE
  8
MountainLine
  6
CONTINUOUS
 62
1
 10
350.2757662179118
 20
1065.2061007532348
 11
693.0091553046368
 21
953.8452720823014
  0
LINE
  8
MountainLine
  6
CONTINUOUS
 62
1
 10
362.4340339870532
 20
1091.0472302154444
 11
2.0121564198516112E-13
 21
1208.8091864429846
  0
LINE
  8
ValleyLine
  6
CONTINUOUS
 62
5
 10
362.4340339870532
 20
1091.0472302154444
 11
710.520212626849
 21
977.9471747889287
  0
LINE
  8
MountainLine
  6
CONTINUOUS
 62
1
 10
373.5096846906941
 20
1116.0637815893665
 11
2.5151955248145143E-13
 21
1237.4244348791153
  0
LINE
  8
ValleyLine
  6
CONTINUOUS
 62
5
 10
373.5096846906941
 20
1116.0637815893665
 11
727.3398336482919
 21
1001.0973970720196
  0
LINE
  8
MountainLine
  6
CONTINUOUS
 62
1
 10
383.31454345800614
 20
1140.8196800195503
 11
2.5151955248145143E-13
 21
1265.366125041581
  0
LINE
  8
ValleyLine
  6
CONTINUOUS
 62
5
 10
383.31454345800614
 20
1140.8196800195503
 11
743.7635470499148
 21
1023.7026992650135
  0
LINE
  8
MountainLine
  6
CONTINUOUS
 62
1
 10
391.8073517173869
 20
1166.3310125260152
 11
2.5151955248145143E-13
 21
1293.636938227848
  0
LINE
  8
ValleyLine
  6
CONTINUOUS
 62
5
 10
391.8073517173869
 20
1166.3310125260152
 11
760.3807141111183
 21
1046.5742675775032
  0
LINE
  8
MountainLine
  6
CONTINUOUS
 62
1
 10
399.11339659648365
 20
1194.1264410855492
 11
2.5151955248145143E-13
 21
1323.8062446701622
  0
LINE
  8
ValleyLine
  6
CONTINUOUS
 62
5
 10
399.11339659648365
 20
1194.1264410855492
 11
778.1137875098027
 21
1070.9817491978406
  0
LINE
  8
MountainLine
  6
CONTINUOUS
 62
1
 10
405.4788660818785
 20
1226.106722258114
 11
2.5151955248145143E-13
 21
1357.8547922543012
  0
LINE
  8
ValleyLine
  6
CONTINUOUS
 62
5
 10
405.4788660818785
 20
1226.106722258114
 11
798.1270216417382
 21
1098.5276028271933
  0
LINE
  8
ValleyLine
  6
CONTINUOUS
 62
5
 10
411.8683438254796
 20
1261.368857853486
 11
2.5151955248145143E-13
 21
1395.192995017211
  0
LINE
  8
MountainLine
  6
CONTINUOUS
 62
1
 10
411.8683438254796
 20
1261.368857853486
 11
820.0738665728827
 21
1128.734843401805
  0
LINE
  8
ValleyLine
  6
CONTINUOUS
 62
5
 10
419.0229312461418
 20
1298.3220420919233
 11
2.5151955248145143E-13
 21
1434.4708456270414
  0
LINE
  8
MountainLine
  6
CONTINUOUS
 62
1
 10
419.0229312461418
 20
1298.3220420919233
 11
843.1608079030881
 21
1160.5112920476784
  0
LINE
  8
ValleyLine
  6
CONTINUOUS
 62
5
 10
427.8081138238753
 20
1335.7582839709883
 11
2.5151955248145143E-13
 21
1474.7615663606143
  0
LINE
  8
MountainLine
  6
CONTINUOUS
 62
1
 10
427.8081138238753
 20
1335.7582839709883
 11
866.8430993545167
 21
1193.1071698367539
  0
LINE
  8
ValleyLine
  6
CONTINUOUS
 62
5
 10
439.497295530625
 20
1373.7250365153795
 11
3.018234629777417E-13
 21
1516.526364274374
  0
LINE
  8
MountainLine
  6
CONTINUOUS
 62
1
 10
439.497295530625
 20
1373.7250365153795
 11
891.3918316332
 21
1226.8956011156206
  0
LINE
  8
ValleyLine
  6
CONTINUOUS
 62
5
 10
453.7031790754835
 20
1413.1320911403839
 11
3.018234629777417E-13
 21
1560.549190265494
  0
LINE
  8
MountainLine
  6
CONTINUOUS
 62
1
 10
453.7031790754835
 20
1413.1320911403839
 11
917.2677995150182
 21
1262.5108154828476
  0
LINE
  8
ValleyLine
  6
CONTINUOUS
 62
5
 10
469.7261499003795
 20
1453.928025549761
 11
4.0243128397032225E-13
 21
1606.551303488045
  0
LINE
  8
MountainLine
  6
CONTINUOUS
 62
1
 10
469.7261499003795
 20
1453.928025549761
 11
944.3071632415222
 21
1299.727306857052
  0
LINE
  8
ValleyLine
  6
CONTINUOUS
 62
5
 10
482.45236541765394
 20
1485.13068776791
 11
2.0121564198516112E-13
 21
1641.8889637862615
  0
LINE
  8
MountainLine
  6
CONTINUOUS
 62
1
 10
482.45236541765394
 20
1485.13068776791
 11
965.0781188153351
 21
1328.316074579758
  0
LINE
  8
ValleyLine
  6
CONTINUOUS
 62
5
 10
486.69443725674546
 20
1495.5315751739595
 11
3.018234629777417E-13
 21
1653.6681838856666
  0
LINE
  8
MountainLine
  6
CONTINUOUS
 62
1
 10
486.69443725674546
 20
1495.5315751739595
 11
972.0017706732724
 21
1337.8456638206596
  0
LINE
  8
ValleyLine
  6
CONTINUOUS
 62
5
 10
486.69443725674546
 20
1495.5315751739595
 11
3.018234629777417E-13
 21
1653.6681838856666
  0
LINE
  8
MountainLine
  6
CONTINUOUS
 62
1
 10
486.69443725674546
 20
1495.5315751739595
 11
972.0017706732724
 21
1337.8456638206596
  0
LINE
  8
ValleyLine
  6
CONTINUOUS
 62
5
 10
0.0
 20
-0.0
 11
0.0
 21
-0.0
  0
LINE
  8
ValleyLine
  6
CONTINUOUS
 62
5
 10
0.0
 20
-0.0
 11
-11.96533313278114
 21
16.471526498693173
  0
LINE
  8
ValleyLine
  6
CONTINUOUS
 62
5
 10
-11.96533313278114
 20
16.471526498693173
 11
-47.86133253112456
 21
65.88610599477269
  0
LINE
  8
ValleyLine
  6
CONTINUOUS
 62
5
 10
-47.86133253112456
 20
65.88610599477269
 11
-93.1602062826008
 21
128.23680723710908
  0
LINE
  8
ValleyLine
  6
CONTINUOUS
 62
5
 10
-93.1602062826008
 20
128.23680723710908
 11
-133.42439000378243
 21
183.79439075518266
  0
LINE
  8
ValleyLine
  6
CONTINUOUS
 62
5
 10
-133.42439000378243
 20
183.79439075518266
 11
-166.4610788470989
 21
230.16112961776489
  0
LINE
  8
ValleyLine
  6
CONTINUOUS
 62
5
 10
-166.4610788470989
 20
230.16112961776489
 11
-190.9285248843636
 21
267.5585807636143
  0
LINE
  8
ValleyLine
  6
CONTINUOUS
 62
5
 10
-190.9285248843636
 20
267.5585807636143
 11
-206.25910408905918
 21
297.7427269235208
  0
LINE
  8
ValleyLine
  6
CONTINUOUS
 62
5
 10
-206.25910408905918
 20
297.7427269235208
 11
-213.69708266898377
 21
328.04597557359585
  0
LINE
  8
ValleyLine
  6
CONTINUOUS
 62
5
 10
-213.69708266898377
 20
328.04597557359585
 11
-216.58987485903626
 21
372.2735582492007
  0
LINE
  8
ValleyLine
  6
CONTINUOUS
 62
5
 10
-216.58987485903626
 20
372.2735582492007
 11
-217.41970236731726
 21
441.5679176894834
  0
LINE
  8
ValleyLine
  6
CONTINUOUS
 62
5
 10
-217.41970236731726
 20
441.5679176894834
 11
-217.7920759010338
 21
524.6092458198708
  0
LINE
  8
ValleyLine
  6
CONTINUOUS
 62
5
 10
-217.7920759010338
 20
524.6092458198708
 11
-218.08265213098045
 21
606.2926330447948
  0
LINE
  8
ValleyLine
  6
CONTINUOUS
 62
5
 10
-218.08265213098045
 20
606.2926330447948
 11
-218.08928668274714
 21
683.0092172872841
  0
LINE
  8
ValleyLine
  6
CONTINUOUS
 62
5
 10
-218.08928668274714
 20
683.0092172872841
 11
-223.72345722641126
 21
716.8685852564547
  0
LINE
  8
ValleyLine
  6
CONTINUOUS
 62
5
 10
-223.72345722641126
 20
716.8685852564547
 11
-229.56998532515215
 21
740.2458293615409
  0
LINE
  8
ValleyLine
  6
CONTINUOUS
 62
5
 10
-229.56998532515215
 20
740.2458293615409
 11
-241.91529427004187
 21
768.4325238755498
  0
LINE
  8
ValleyLine
  6
CONTINUOUS
 62
5
 10
-241.91529427004187
 20
768.4325238755498
 11
-258.41379211960435
 21
803.4279681808152
  0
LINE
  8
ValleyLine
  6
CONTINUOUS
 62
5
 10
-258.41379211960435
 20
803.4279681808152
 11
-275.57845919849854
 21
843.7185083142799
  0
LINE
  8
ValleyLine
  6
CONTINUOUS
 62
5
 10
-275.57845919849854
 20
843.7185083142799
 11
-292.3697369715275
 21
886.7315557440551
  0
LINE
  8
ValleyLine
  6
CONTINUOUS
 62
5
 10
-292.3697369715275
 20
886.7315557440551
 11
-307.70824117821786
 21
929.7719509592125
  0
LINE
  8
ValleyLine
  6
CONTINUOUS
 62
5
 10
-307.70824117821786
 20
929.7719509592125
 11
-320.53311127228767
 21
970.2015445790394
  0
LINE
  8
ValleyLine
  6
CONTINUOUS
 62
5
 10
-320.53311127228767
 20
970.2015445790394
 11
-329.8777653480394
 21
1005.6723470428556
  0
LINE
  8
ValleyLine
  6
CONTINUOUS
 62
5
 10
-329.8777653480394
 20
1005.6723470428556
 11
-336.94515788879534
 21
1037.8217748047905
  0
LINE
  8
ValleyLine
  6
CONTINUOUS
 62
5
 10
-336.94515788879534
 20
1037.8217748047905
 11
-342.7333890867248
 21
1067.656767639574
  0
LINE
  8
ValleyLine
  6
CONTINUOUS
 62
5
 10
-342.7333890867248
 20
1067.656767639574
 11
-348.08617863979555
 21
1095.709131016469
  0
LINE
  8
ValleyLine
  6
CONTINUOUS
 62
5
 10
-348.08617863979555
 20
1095.709131016469
 11
-353.8301489575976
 21
1122.4580503617688
  0
LINE
  8
ValleyLine
  6
CONTINUOUS
 62
5
 10
-353.8301489575976
 20
1122.4580503617688
 11
-360.4490035919084
 21
1148.2491442870441
  0
LINE
  8
ValleyLine
  6
CONTINUOUS
 62
5
 10
-360.4490035919084
 20
1148.2491442870441
 11
-368.5733623937312
 21
1173.880193279336
  0
LINE
  8
ValleyLine
  6
CONTINUOUS
 62
5
 10
-368.5733623937312
 20
1173.880193279336
 11
-379.00039091331894
 21
1200.6615527824538
  0
LINE
  8
ValleyLine
  6
CONTINUOUS
 62
5
 10
-379.00039091331894
 20
1200.6615527824538
 11
-392.6481555598595
 21
1230.2756728233808
  0
LINE
  8
ValleyLine
  6
CONTINUOUS
 62
5
 10
-392.6481555598595
 20
1230.2756728233808
 11
-408.2055227474029
 21
1262.55898056553
  0
LINE
  8
ValleyLine
  6
CONTINUOUS
 62
5
 10
-408.2055227474029
 20
1262.55898056553
 11
-424.13787665694605
 21
1296.6600955827969
  0
LINE
  8
ValleyLine
  6
CONTINUOUS
 62
5
 10
-424.13787665694605
 20
1296.6600955827969
 11
-439.03498553064117
 21
1332.11045222638
  0
LINE
  8
ValleyLine
  6
CONTINUOUS
 62
5
 10
-439.03498553064117
 20
1332.11045222638
 11
-451.8945361025749
 21
1369.6969288746152
  0
LINE
  8
ValleyLine
  6
CONTINUOUS
 62
5
 10
-451.8945361025749
 20
1369.6969288746152
 11
-463.5646204395344
 21
1409.927914607958
  0
LINE
  8
ValleyLine
  6
CONTINUOUS
 62
5
 10
-463.5646204395344
 20
1409.927914607958
 11
-474.5810133411427
 21
1452.3505847953363
  0
LINE
  8
ValleyLine
  6
CONTINUOUS
 62
5
 10
-474.5810133411427
 20
1452.3505847953363
 11
-482.6257533976808
 21
1485.0743505981093
  0
LINE
  8
ValleyLine
  6
CONTINUOUS
 62
5
 10
-482.6257533976808
 20
1485.0743505981093
 11
-485.3073334165268
 21
1495.9822725323668
  0
LINE
  8
ValleyLine
  6
CONTINUOUS
 62
5
 10
-485.3073334165268
 20
1495.9822725323668
 11
-485.3073334165268
 21
1495.9822725323668
  0
LINE
  8
ValleyLine
  6
CONTINUOUS
 62
5
 10
-485.3073334165268
 20
1495.9822725323668
 11
-485.3073334165268
 21
1495.9822725323668
  0
LINE
  8
ValleyLine
  6
CONTINUOUS
 62
5
 10
0.0
 20
-0.0
 11
0.0
 21
-0.0
  0
LINE
  8
MountainLine
  6
CONTINUOUS
 62
1
 10
0.0
 20
-0.0
 11
0.0
 21
0.0
  0
LINE
  8
ValleyLine
  6
CONTINUOUS
 62
5
 10
0.0
 20
-0.0
 11
0.0
 21
-0.0
  0
LINE
  8
MountainLine
  6
CONTINUOUS
 62
1
 10
0.0
 20
-0.0
 11
0.0
 21
0.0
  0
LINE
  8
ValleyLine
  6
CONTINUOUS
 62
5
 10
-11.96533313278114
 20
16.471526498693173
 11
-11.966895643680088
 21
16.471018808126527
  0
LINE
  8
MountainLine
  6
CONTINUOUS
 62
1
 10
-11.96533313278114
 20
16.471526498693173
 11
3.1439944060181426E-15
 21
20.35929890552195
  0
LINE
  8
ValleyLine
  6
CONTINUOUS
 62
5
 10
-47.86133253112456
 20
65.88610599477269
 11
-47.86758257472035
 21
65.8840752325061
  0
LINE
  8
MountainLine
  6
CONTINUOUS
 62
1
 10
-47.86133253112456
 20
65.88610599477269
 11
1.257597762407257E-14
 21
81.4371956220878
  0
LINE
  8
ValleyLine
  6
CONTINUOUS
 62
5
 10
-93.1602062826008
 20
128.23680723710908
 11
-93.16772029554639
 21
128.23436578630532
  0
LINE
  8
MountainLine
  6
CONTINUOUS
 62
1
 10
-93.1602062826008
 20
128.23680723710908
 11
2.515195524814514E-14
 21
158.5063931634466
  0
LINE
  8
ValleyLine
  6
CONTINUOUS
 62
5
 10
-133.42439000378243
 20
183.79439075518266
 11
-133.51342336658797
 21
183.7654620619853
  0
LINE
  8
MountainLine
  6
CONTINUOUS
 62
1
 10
-133.42439000378243
 20
183.79439075518266
 11
3.772793287221771E-14
 21
227.14660302527247
  0
LINE
  8
ValleyLine
  6
CONTINUOUS
 62
5
 10
-166.4610788470989
 20
230.16112961776489
 11
-167.0765547981063
 21
229.96114935872487
  0
LINE
  8
MountainLine
  6
CONTINUOUS
 62
1
 10
-166.4610788470989
 20
230.16112961776489
 11
5.030391049629028E-14
 21
284.2476127913661
  0
LINE
  8
ValleyLine
  6
CONTINUOUS
 62
5
 10
-190.9285248843636
 20
267.5585807636143
 11
-193.73109143913044
 21
266.647971689967
  0
LINE
  8
MountainLine
  6
CONTINUOUS
 62
1
 10
-190.9285248843636
 20
267.5585807636143
 11
6.287988812036286E-14
 21
329.59501907123865
  0
LINE
  8
ValleyLine
  6
CONTINUOUS
 62
5
 10
-206.25910408905918
 20
297.7427269235208
 11
-214.40076749944964
 21
295.0973401213862
  0
LINE
  8
MountainLine
  6
CONTINUOUS
 62
1
 10
-206.25910408905918
 20
297.7427269235208
 11
7.545586574443542E-14
 21
364.7603723694093
  0
LINE
  8
ValleyLine
  6
CONTINUOUS
 62
5
 10
-213.69708266898377
 20
328.04597557359585
 11
-233.63309765748423
 21
321.56837163943754
  0
LINE
  8
MountainLine
  6
CONTINUOUS
 62
1
 10
-213.69708266898377
 20
328.04597557359585
 11
7.545586574443542E-14
 21
397.4803667602603
  0
LINE
  8
ValleyLine
  6
CONTINUOUS
 62
5
 10
-216.58987485903626
 20
372.2735582492007
 11
-260.1818926458557
 21
358.10965307172785
  0
LINE
  8
MountainLine
  6
CONTINUOUS
 62
1
 10
-216.58987485903626
 20
372.2735582492007
 11
5.030391049629028E-14
 21
442.64787459552184
  0
LINE
  8
ValleyLine
  6
CONTINUOUS
 62
5
 10
-217.41970236731726
 20
441.5679176894834
 11
-301.0705781435895
 21
414.3881005426405
  0
LINE
  8
MountainLine
  6
CONTINUOUS
 62
1
 10
-217.41970236731726
 20
441.5679176894834
 11
1.0060782099258056E-13
 21
512.211861337721
  0
LINE
  8
ValleyLine
  6
CONTINUOUS
 62
5
 10
-217.7920759010338
 20
524.6092458198708
 11
-349.9521631660957
 21
481.66783041159255
  0
LINE
  8
MountainLine
  6
CONTINUOUS
 62
1
 10
-217.7920759010338
 20
524.6092458198708
 11
1.0060782099258056E-13
 21
595.3741809635688
  0
LINE
  8
ValleyLine
  6
CONTINUOUS
 62
5
 10
-218.08265213098045
 20
606.2926330447948
 11
-398.0199486559598
 21
547.8274613169281
  0
LINE
  8
MountainLine
  6
CONTINUOUS
 62
1
 10
-218.08265213098045
 20
606.2926330447948
 11
1.0060782099258056E-13
 21
677.1519821288595
  0
LINE
  8
MountainLine
  6
CONTINUOUS
 62
1
 10
-218.08928668274714
 20
683.0092172872841
 11
-443.1140925665855
 21
609.8942257146387
  0
LINE
  8
ValleyLine
  6
CONTINUOUS
 62
5
 10
-218.08928668274714
 20
683.0092172872841
 11
1.0060782099258056E-13
 21
753.8707220678934
  0
LINE
  8
MountainLine
  6
CONTINUOUS
 62
1
 10
-223.72345722641126
 20
716.8685852564547
 11
-464.09216053544134
 21
638.7680591933872
  0
LINE
  8
ValleyLine
  6
CONTINUOUS
 62
5
 10
-223.72345722641126
 20
716.8685852564547
 11
1.0060782099258056E-13
 21
789.5607430186359
  0
LINE
  8
MountainLine
  6
CONTINUOUS
 62
1
 10
-229.56998532515215
 20
740.2458293615409
 11
-478.949547368421
 21
659.2174978157469
  0
LINE
  8
ValleyLine
  6
CONTINUOUS
 62
5
 10
-229.56998532515215
 20
740.2458293615409
 11
1.5091173148887084E-13
 21
814.8376392575822
  0
LINE
  8
MountainLine
  6
CONTINUOUS
 62
1
 10
-241.91529427004187
 20
768.4325238755498
 11
-497.87501492229336
 21
685.2661691933607
  0
LINE
  8
ValleyLine
  6
CONTINUOUS
 62
5
 10
-241.91529427004187
 20
768.4325238755498
 11
1.0060782099258056E-13
 21
847.0355678038659
  0
LINE
  8
ValleyLine
  6
CONTINUOUS
 62
5
 10
-258.41379211960435
 20
803.4279681808152
 11
-521.5957536899589
 21
717.9149651733952
  0
LINE
  8
MountainLine
  6
CONTINUOUS
 62
1
 10
-258.41379211960435
 20
803.4279681808152
 11
1.5091173148887084E-13
 21
887.3916990187104
  0
LINE
  8
ValleyLine
  6
CONTINUOUS
 62
5
 10
-275.57845919849854
 20
843.7185083142799
 11
-548.556098696588
 21
755.0226966101849
  0
LINE
  8
MountainLine
  6
CONTINUOUS
 62
1
 10
-275.57845919849854
 20
843.7185083142799
 11
2.0121564198516112E-13
 21
933.2593775653884
  0
LINE
  8
ValleyLine
  6
CONTINUOUS
 62
5
 10
-292.3697369715275
 20
886.7315557440551
 11
-577.0453823293449
 21
794.2348315294867
  0
LINE
  8
MountainLine
  6
CONTINUOUS
 62
1
 10
-292.3697369715275
 20
886.7315557440551
 11
2.0121564198516112E-13
 21
981.7282418685385
  0
LINE
  8
ValleyLine
  6
CONTINUOUS
 62
5
 10
-307.70824117821786
 20
929.7719509592125
 11
-605.27328552484
 21
833.0872071405769
  0
LINE
  8
MountainLine
  6
CONTINUOUS
 62
1
 10
-307.70824117821786
 20
929.7719509592125
 11
2.0121564198516112E-13
 21
1029.752419211201
  0
LINE
  8
ValleyLine
  6
CONTINUOUS
 62
5
 10
-320.53311127228767
 20
970.2015445790394
 11
-631.4865366480684
 21
869.1666520633589
  0
LINE
  8
MountainLine
  6
CONTINUOUS
 62
1
 10
-320.53311127228767
 20
970.2015445790394
 11
2.0121564198516112E-13
 21
1074.3490657262194
  0
LINE
  8
ValleyLine
  6
CONTINUOUS
 62
5
 10
-329.8777653480394
 20
1005.6723470428556
 11
-654.1204213451925
 21
900.3195217505098
  0
LINE
  8
MountainLine
  6
CONTINUOUS
 62
1
 10
-329.8777653480394
 20
1005.6723470428556
 11
2.0121564198516112E-13
 21
1112.8561303537304
  0
LINE
  8
ValleyLine
  6
CONTINUOUS
 62
5
 10
-336.94515788879534
 20
1037.8217748047905
 11
-674.3671327226659
 21
928.186729239462
  0
LINE
  8
MountainLine
  6
CONTINUOUS
 62
1
 10
-336.94515788879534
 20
1037.8217748047905
 11
2.0121564198516112E-13
 21
1147.3018931531665
  0
LINE
  8
ValleyLine
  6
CONTINUOUS
 62
5
 10
-342.7333890867248
 20
1067.656767639574
 11
-693.0091553046365
 21
953.8452720823017
  0
LINE
  8
MountainLine
  6
CONTINUOUS
 62
1
 10
-342.7333890867248
 20
1067.656767639574
 11
2.0121564198516112E-13
 21
1179.017596310507
  0
LINE
  8
MountainLine
  6
CONTINUOUS
 62
1
 10
-348.08617863979555
 20
1095.709131016469
 11
-710.5202126268487
 21
977.947174788929
  0
LINE
  8
ValleyLine
  6
CONTINUOUS
 62
5
 10
-348.08617863979555
 20
1095.709131016469
 11
2.0121564198516112E-13
 21
1208.8091864429846
  0
LINE
  8
MountainLine
  6
CONTINUOUS
 62
1
 10
-353.8301489575976
 20
1122.4580503617688
 11
-727.3398336482915
 21
1001.0973970720199
  0
LINE
  8
ValleyLine
  6
CONTINUOUS
 62
5
 10
-353.8301489575976
 20
1122.4580503617688
 11
2.0121564198516112E-13
 21
1237.4244348791153
  0
LINE
  8
MountainLine
  6
CONTINUOUS
 62
1
 10
-360.4490035919084
 20
1148.2491442870441
 11
-743.7635470499143
 21
1023.7026992650137
  0
LINE
  8
ValleyLine
  6
CONTINUOUS
 62
5
 10
-360.4490035919084
 20
1148.2491442870441
 11
2.0121564198516112E-13
 21
1265.3661250415807
  0
LINE
  8
MountainLine
  6
CONTINUOUS
 62
1
 10
-368.5733623937312
 20
1173.880193279336
 11
-760.3807141111179
 21
1046.5742675775032
  0
LINE
  8
ValleyLine
  6
CONTINUOUS
 62
5
 10
-368.5733623937312
 20
1173.880193279336
 11
2.0121564198516112E-13
 21
1293.636938227848
  0
LINE
  8
MountainLine
  6
CONTINUOUS
 62
1
 10
-379.00039091331894
 20
1200.6615527824538
 11
-778.1137875098024
 21
1070.9817491978408
  0
LINE
  8
ValleyLine
  6
CONTINUOUS
 62
5
 10
-379.00039091331894
 20
1200.6615527824538
 11
2.0121564198516112E-13
 21
1323.806244670162
  0
LINE
  8
MountainLine
  6
CONTINUOUS
 62
1
 10
-392.6481555598595
 20
1230.2756728233808
 11
-798.1270216417379
 21
1098.5276028271935
  0
LINE
  8
ValleyLine
  6
CONTINUOUS
 62
5
 10
-392.6481555598595
 20
1230.2756728233808
 11
2.5151955248145143E-13
 21
1357.8547922543012
  0
LINE
  8
ValleyLine
  6
CONTINUOUS
 62
5
 10
-408.2055227474029
 20
1262.55898056553
 11
-820.0738665728823
 21
1128.7348434018052
  0
LINE
  8
MountainLine
  6
CONTINUOUS
 62
1
 10
-408.2055227474029
 20
1262.55898056553
 11
2.5151955248145143E-13
 21
1395.192995017211
  0
LINE
  8
ValleyLine
  6
CONTINUOUS
 62
5
 10
-424.13787665694605
 20
1296.6600955827969
 11
-843.1608079030876
 21
1160.5112920476786
  0
LINE
  8
MountainLine
  6
CONTINUOUS
 62
1
 10
-424.13787665694605
 20
1296.6600955827969
 11
2.5151955248145143E-13
 21
1434.4708456270416
  0
LINE
  8
ValleyLine
  6
CONTINUOUS
 62
5
 10
-439.03498553064117
 20
1332.11045222638
 11
-866.8430993545162
 21
1193.1071698367539
  0
LINE
  8
MountainLine
  6
CONTINUOUS
 62
1
 10
-439.03498553064117
 20
1332.11045222638
 11
2.5151955248145143E-13
 21
1474.7615663606143
  0
LINE
  8
ValleyLine
  6
CONTINUOUS
 62
5
 10
-451.8945361025749
 20
1369.6969288746152
 11
-891.3918316331996
 21
1226.8956011156208
  0
LINE
  8
MountainLine
  6
CONTINUOUS
 62
1
 10
-451.8945361025749
 20
1369.6969288746152
 11
2.5151955248145143E-13
 21
1516.5263642743741
  0
LINE
  8
ValleyLine
  6
CONTINUOUS
 62
5
 10
-463.5646204395344
 20
1409.927914607958
 11
-917.2677995150178
 21
1262.510815482848
  0
LINE
  8
MountainLine
  6
CONTINUOUS
 62
1
 10
-463.5646204395344
 20
1409.927914607958
 11
3.018234629777417E-13
 21
1560.549190265494
  0
LINE
  8
ValleyLine
  6
CONTINUOUS
 62
5
 10
-474.5810133411427
 20
1452.3505847953363
 11
-944.3071632415218
 21
1299.7273068570526
  0
LINE
  8
MountainLine
  6
CONTINUOUS
 62
1
 10
-474.5810133411427
 20
1452.3505847953363
 11
2.0121564198516112E-13
 21
1606.551303488045
  0
LINE
  8
ValleyLine
  6
CONTINUOUS
 62
5
 10
-482.6257533976808
 20
1485.0743505981093
 11
-965.0781188153344
 21
1328.3160745797582
  0
LINE
  8
MountainLine
  6
CONTINUOUS
 62
1
 10
-482.6257533976808
 20
1485.0743505981093
 11
3.018234629777417E-13
 21
1641.8889637862612
  0
LINE
  8
ValleyLine
  6
CONTINUOUS
 62
5
 10
-485.3073334165268
 20
1495.9822725323668
 11
-972.001770673272
 21
1337.8456638206599
  0
LINE
  8
MountainLine
  6
CONTINUOUS
 62
1
 10
-485.3073334165268
 20
1495.9822725323668
 11
3.018234629777417E-13
 21
1653.6681838856666
  0
LINE
  8
ValleyLine
  6
CONTINUOUS
 62
5
 10
-485.3073334165268
 20
1495.9822725323668
 11
-972.001770673272
 21
1337.8456638206599
  0
LINE
  8
MountainLine
  6
CONTINUOUS
 62
1
 10
-485.3073334165268
 20
1495.9822725323668
 11
3.018234629777417E-13
 21
1653.6681838856666
  0
LINE
  8
ValleyLine
  6
CONTINUOUS
 62
5
 10
0.0
 20
-0.0
 11
0.0
 21
-0.0
  0
LINE
  8
ValleyLine
  6
CONTINUOUS
 62
5
 10
0.0
 20
-0.0
 11
-19.361878206454097
 21
6.292698506524804
  0
LINE
  8
ValleyLine
  6
CONTINUOUS
 62
5
 10
-19.361878206454097
 20
6.292698506524804
 11
-77.44751282581639
 21
25.170794026099216
  0
LINE
  8
ValleyLine
  6
CONTINUOUS
 62
5
 10
-77.44751282581639
 20
25.170794026099216
 11
-150.7438941771452
 21
48.98756100576818
  0
LINE
  8
ValleyLine
  6
CONTINUOUS
 62
5
 10
-150.7438941771452
 20
48.98756100576818
 11
-215.9742313171473
 21
70.26789685138993
  0
LINE
  8
ValleyLine
  6
CONTINUOUS
 62
5
 10
-215.9742313171473
 20
70.26789685138993
 11
-269.95515932958966
 21
88.36089807828756
  0
LINE
  8
ValleyLine
  6
CONTINUOUS
 62
5
 10
-269.95515932958966
 20
88.36089807828756
 11
-311.73140923954736
 21
104.23446765962055
  0
LINE
  8
ValleyLine
  6
CONTINUOUS
 62
5
 10
-311.73140923954736
 20
104.23446765962055
 11
-341.87590431559073
 21
119.64286649806046
  0
LINE
  8
ValleyLine
  6
CONTINUOUS
 62
5
 10
-341.87590431559073
 20
119.64286649806046
 11
-365.70515804361247
 21
139.78677552459382
  0
LINE
  8
ValleyLine
  6
CONTINUOUS
 62
5
 10
-365.70515804361247
 20
139.78677552459382
 11
-394.04179692782657
 21
173.86730094202144
  0
LINE
  8
ValleyLine
  6
CONTINUOUS
 62
5
 10
-394.04179692782657
 20
173.86730094202144
 11
-435.44334403047765
 21
229.43985497222207
  0
LINE
  8
ValleyLine
  6
CONTINUOUS
 62
5
 10
-435.44334403047765
 20
229.43985497222207
 11
-484.5550685533316
 21
296.4028249937092
  0
LINE
  8
ValleyLine
  6
CONTINUOUS
 62
5
 10
-484.5550685533316
 20
296.4028249937092
 11
-532.8024400296256
 21
362.31527699415284
  0
LINE
  8
ValleyLine
  6
CONTINUOUS
 62
5
 10
-532.8024400296256
 20
362.31527699415284
 11
-577.9006843187432
 21
424.37639770503995
  0
LINE
  8
ValleyLine
  6
CONTINUOUS
 62
5
 10
-577.9006843187432
 20
424.37639770503995
 11
-602.3608611819969
 21
448.4575194564274
  0
LINE
  8
ValleyLine
  6
CONTINUOUS
 62
5
 10
-602.3608611819969
 20
448.4575194564274
 11
-620.8316010961798
 21
463.93360422554025
  0
LINE
  8
ValleyLine
  6
CONTINUOUS
 62
5
 10
-620.8316010961798
 20
463.93360422554025
 11
-647.3868891796121
 21
479.480728569828
  0
LINE
  8
ValleyLine
  6
CONTINUOUS
 62
5
 10
-647.3868891796121
 20
479.480728569828
 11
-681.3042603816243
 21
498.09506401753777
  0
LINE
  8
ValleyLine
  6
CONTINUOUS
 62
5
 10
-681.3042603816243
 20
498.09506401753777
 11
-718.8729530485865
 21
520.6016575285723
  0
LINE
  8
ValleyLine
  6
CONTINUOUS
 62
5
 10
-718.8729530485865
 20
520.6016575285723
 11
-757.7398170596158
 21
545.5302784369834
  0
LINE
  8
ValleyLine
  6
CONTINUOUS
 62
5
 10
-757.7398170596158
 20
545.5302784369834
 11
-795.4474371914289
 21
571.3349430457413
  0
LINE
  8
ValleyLine
  6
CONTINUOUS
 62
5
 10
-795.4474371914289
 20
571.3349430457413
 11
-829.5868939340945
 21
596.504901855993
  0
LINE
  8
ValleyLine
  6
CONTINUOUS
 62
5
 10
-829.5868939340945
 20
596.504901855993
 11
-857.9960924631434
 21
619.7087339998354
  0
LINE
  8
ValleyLine
  6
CONTINUOUS
 62
5
 10
-857.9960924631434
 20
619.7087339998354
 11
-882.6106926426414
 21
641.5640583110525
  0
LINE
  8
ValleyLine
  6
CONTINUOUS
 62
5
 10
-882.6106926426414
 20
641.5640583110525
 11
-904.830038839675
 21
662.298837606445
  0
LINE
  8
ValleyLine
  6
CONTINUOUS
 62
5
 10
-904.830038839675
 20
662.298837606445
 11
-925.6493020403102
 21
681.8473855528142
  0
LINE
  8
ValleyLine
  6
CONTINUOUS
 62
5
 10
-925.6493020403102
 20
681.8473855528142
 11
-946.0188919485253
 21
700.1114948419167
  0
LINE
  8
ValleyLine
  6
CONTINUOUS
 62
5
 10
-946.0188919485253
 20
700.1114948419167
 11
-966.533282480747
 21
717.0864629898695
  0
LINE
  8
ValleyLine
  6
CONTINUOUS
 62
5
 10
-966.533282480747
 20
717.0864629898695
 11
-988.1715794182765
 21
733.0470389202463
  0
LINE
  8
ValleyLine
  6
CONTINUOUS
 62
5
 10
-988.1715794182765
 20
733.0470389202463
 11
-1012.3489108437307
 21
748.584760301687
  0
LINE
  8
ValleyLine
  6
CONTINUOUS
 62
5
 10
-1012.3489108437307
 20
748.584760301687
 11
-1040.796927397687
 21
764.5211319022613
  0
LINE
  8
ValleyLine
  6
CONTINUOUS
 62
5
 10
-1040.796927397687
 20
764.5211319022613
 11
-1072.358754026196
 21
781.4944855029598
  0
LINE
  8
ValleyLine
  6
CONTINUOUS
 62
5
 10
-1072.358754026196
 20
781.4944855029598
 11
-1105.2924315932912
 21
799.7180644167295
  0
LINE
  8
ValleyLine
  6
CONTINUOUS
 62
5
 10
-1105.2924315932912
 20
799.7180644167295
 11
-1138.181642662771
 21
819.6417045002878
  0
LINE
  8
ValleyLine
  6
CONTINUOUS
 62
5
 10
-1138.181642662771
 20
819.6417045002878
 11
-1170.6780142749578
 21
842.4911486900954
  0
LINE
  8
ValleyLine
  6
CONTINUOUS
 62
5
 10
-1170.6780142749578
 20
842.4911486900954
 11
-1203.7664909285945
 21
868.1791963825514
  0
LINE
  8
ValleyLine
  6
CONTINUOUS
 62
5
 10
-1203.7664909285945
 20
868.1791963825514
 11
-1237.614359901716
 21
896.024584229879
  0
LINE
  8
ValleyLine
  6
CONTINUOUS
 62
5
 10
-1237.614359901716
 20
896.024584229879
 11
-1263.3572382611267
 21
917.7700873205088
  0
LINE
  8
ValleyLine
  6
CONTINUOUS
 62
5
 10
-1263.3572382611267
 20
917.7700873205088
 11
-1271.9381977142637
 21
925.0185883507186
  0
LINE
  8
ValleyLine
  6
CONTINUOUS
 62
5
 10
-1271.9381977142637
 20
925.0185883507186
 11
-1271.9381977142637
 21
925.0185883507186
  0
LINE
  8
ValleyLine
  6
CONTINUOUS
 62
5
 10
-1271.9381977142637
 20
925.0185883507186
 11
-1271.9381977142637
 21
925.0185883507186
  0
LINE
  8
ValleyLine
  6
CONTINUOUS
 62
5
 10
0.0
 20
-0.0
 11
0.0
 21
-0.0
  0
LINE
  8
MountainLine
  6
CONTINUOUS
 62
1
 10
0.0
 20
-0.0
 11
0.0
 21
0.0
  0
LINE
  8
ValleyLine
  6
CONTINUOUS
 62
5
 10
0.0
 20
-0.0
 11
0.0
 21
-0.0
  0
LINE
  8
MountainLine
  6
CONTINUOUS
 62
1
 10
0.0
 20
-0.0
 11
0.0
 21
0.0
  0
LINE
  8
ValleyLine
  6
CONTINUOUS
 62
5
 10
-19.361878206454097
 20
6.292698506524804
 11
-19.362843891297437
 21
6.291369355365556
  0
LINE
  8
MountainLine
  6
CONTINUOUS
 62
1
 10
-19.361878206454097
 20
6.292698506524804
 11
-11.966895643680088
 21
16.471018808126527
  0
LINE
  8
ValleyLine
  6
CONTINUOUS
 62
5
 10
-77.44751282581639
 20
25.170794026099216
 11
-77.45137556518975
 21
25.165477421462224
  0
LINE
  8
MountainLine
  6
CONTINUOUS
 62
1
 10
-77.44751282581639
 20
25.170794026099216
 11
-47.86758257472035
 21
65.8840752325061
  0
LINE
  8
ValleyLine
  6
CONTINUOUS
 62
5
 10
-150.7438941771452
 20
48.98756100576818
 11
-150.74853809253747
 21
48.98116920458204
  0
LINE
  8
MountainLine
  6
CONTINUOUS
 62
1
 10
-150.7438941771452
 20
48.98756100576818
 11
-93.16772029554639
 21
128.23436578630532
  0
LINE
  8
ValleyLine
  6
CONTINUOUS
 62
5
 10
-215.9742313171473
 20
70.26789685138993
 11
-216.02925696149381
 21
70.19216054934911
  0
LINE
  8
MountainLine
  6
CONTINUOUS
 62
1
 10
-215.9742313171473
 20
70.26789685138993
 11
-133.51342336658797
 21
183.76546206198532
  0
LINE
  8
ValleyLine
  6
CONTINUOUS
 62
5
 10
-269.95515932958966
 20
88.36089807828756
 11
-270.3355443865704
 21
87.83734296304189
  0
LINE
  8
MountainLine
  6
CONTINUOUS
 62
1
 10
-269.95515932958966
 20
88.36089807828756
 11
-167.0765547981063
 21
229.96114935872492
  0
LINE
  8
ValleyLine
  6
CONTINUOUS
 62
5
 10
-311.73140923954736
 20
104.23446765962055
 11
-313.46349062612694
 21
101.85046215434774
  0
LINE
  8
MountainLine
  6
CONTINUOUS
 62
1
 10
-311.73140923954736
 20
104.23446765962055
 11
-193.73109143913047
 21
266.64797168996705
  0
LINE
  8
ValleyLine
  6
CONTINUOUS
 62
5
 10
-341.87590431559073
 20
119.64286649806046
 11
-346.90772902817343
 21
112.71715393668157
  0
LINE
  8
MountainLine
  6
CONTINUOUS
 62
1
 10
-341.87590431559073
 20
119.64286649806046
 11
-214.40076749944964
 21
295.0973401213862
  0
LINE
  8
ValleyLine
  6
CONTINUOUS
 62
5
 10
-365.70515804361247
 20
139.78677552459382
 11
-378.0262929067331
 21
122.82818825930748
  0
LINE
  8
MountainLine
  6
CONTINUOUS
 62
1
 10
-365.70515804361247
 20
139.78677552459382
 11
-233.63309765748434
 21
321.5683716394376
  0
LINE
  8
ValleyLine
  6
CONTINUOUS
 62
5
 10
-394.04179692782657
 20
173.86730094202144
 11
-420.98314555827096
 21
136.78571577396693
  0
LINE
  8
MountainLine
  6
CONTINUOUS
 62
1
 10
-394.04179692782657
 20
173.86730094202144
 11
-260.1818926458558
 21
358.10965307172785
  0
LINE
  8
ValleyLine
  6
CONTINUOUS
 62
5
 10
-435.44334403047765
 20
229.43985497222207
 11
-487.1424284489092
 21
158.28216987378002
  0
LINE
  8
MountainLine
  6
CONTINUOUS
 62
1
 10
-435.44334403047765
 20
229.43985497222207
 11
-301.0705781435895
 21
414.3881005426405
  0
LINE
  8
ValleyLine
  6
CONTINUOUS
 62
5
 10
-484.5550685533316
 20
296.4028249937092
 11
-566.234494439292
 21
183.9807399298082
  0
LINE
  8
MountainLine
  6
CONTINUOUS
 62
1
 10
-484.5550685533316
 20
296.4028249937092
 11
-349.9521631660958
 21
481.66783041159255
  0
LINE
  8
ValleyLine
  6
CONTINUOUS
 62
5
 10
-532.8024400296256
 20
362.31527699415284
 11
-644.0098051258312
 21
209.2514702524985
  0
LINE
  8
MountainLine
  6
CONTINUOUS
 62
1
 10
-532.8024400296256
 20
362.31527699415284
 11
-398.0199486559599
 21
547.8274613169281
  0
LINE
  8
MountainLine
  6
CONTINUOUS
 62
1
 10
-577.9006843187432
 20
424.37639770503995
 11
-716.9736626668026
 21
232.95886468069202
  0
LINE
  8
ValleyLine
  6
CONTINUOUS
 62
5
 10
-577.9006843187432
 20
424.37639770503995
 11
-443.11409256658555
 21
609.8942257146385
  0
LINE
  8
MountainLine
  6
CONTINUOUS
 62
1
 10
-602.3608611819969
 20
448.4575194564274
 11
-750.916889658717
 21
243.98768768406936
  0
LINE
  8
ValleyLine
  6
CONTINUOUS
 62
5
 10
-602.3608611819969
 20
448.4575194564274
 11
-464.0921605354414
 21
638.7680591933872
  0
LINE
  8
MountainLine
  6
CONTINUOUS
 62
1
 10
-620.8316010961798
 20
463.93360422554025
 11
-774.9566465384831
 21
251.79867818695593
  0
LINE
  8
ValleyLine
  6
CONTINUOUS
 62
5
 10
-620.8316010961798
 20
463.93360422554025
 11
-478.9495473684211
 21
659.2174978157469
  0
LINE
  8
MountainLine
  6
CONTINUOUS
 62
1
 10
-647.3868891796121
 20
479.480728569828
 11
-805.5786962936321
 21
261.74838529142795
  0
LINE
  8
ValleyLine
  6
CONTINUOUS
 62
5
 10
-647.3868891796121
 20
479.480728569828
 11
-497.8750149222935
 21
685.2661691933608
  0
LINE
  8
ValleyLine
  6
CONTINUOUS
 62
5
 10
-681.3042603816243
 20
498.09506401753777
 11
-843.9596578579723
 21
274.21911566404015
  0
LINE
  8
MountainLine
  6
CONTINUOUS
 62
1
 10
-681.3042603816243
 20
498.09506401753777
 11
-521.595753689959
 21
717.9149651733953
  0
LINE
  8
ValleyLine
  6
CONTINUOUS
 62
5
 10
-718.8729530485865
 20
520.6016575285723
 11
-887.5824124271217
 21
288.39300782749075
  0
LINE
  8
MountainLine
  6
CONTINUOUS
 62
1
 10
-718.8729530485865
 20
520.6016575285723
 11
-548.5560986965882
 21
755.0226966101849
  0
LINE
  8
ValleyLine
  6
CONTINUOUS
 62
5
 10
-757.7398170596158
 20
545.5302784369834
 11
-933.6790416600583
 21
303.3707105952175
  0
LINE
  8
MountainLine
  6
CONTINUOUS
 62
1
 10
-757.7398170596158
 20
545.5302784369834
 11
-577.0453823293449
 21
794.2348315294867
  0
LINE
  8
ValleyLine
  6
CONTINUOUS
 62
5
 10
-795.4474371914289
 20
571.3349430457413
 11
-979.3527484615113
 21
318.21099753497646
  0
LINE
  8
MountainLine
  6
CONTINUOUS
 62
1
 10
-795.4474371914289
 20
571.3349430457413
 11
-605.27328552484
 21
833.0872071405769
  0
LINE
  8
ValleyLine
  6
CONTINUOUS
 62
5
 10
-829.5868939340945
 20
596.504901855993
 11
-1021.7666797345312
 21
331.9921192002495
  0
LINE
  8
MountainLine
  6
CONTINUOUS
 62
1
 10
-829.5868939340945
 20
596.504901855993
 11
-631.4865366480685
 21
869.1666520633589
  0
LINE
  8
ValleyLine
  6
CONTINUOUS
 62
5
 10
-857.9960924631434
 20
619.7087339998354
 11
-1058.389074471924
 21
343.8914565736448
  0
LINE
  8
MountainLine
  6
CONTINUOUS
 62
1
 10
-857.9960924631434
 20
619.7087339998354
 11
-654.1204213451927
 21
900.3195217505098
  0
LINE
  8
ValleyLine
  6
CONTINUOUS
 62
5
 10
-882.6106926426414
 20
641.5640583110525
 11
-1091.1489416410852
 21
354.5357826628789
  0
LINE
  8
MountainLine
  6
CONTINUOUS
 62
1
 10
-882.6106926426414
 20
641.5640583110525
 11
-674.367132722666
 21
928.1867292394622
  0
LINE
  8
ValleyLine
  6
CONTINUOUS
 62
5
 10
-904.830038839675
 20
662.298837606445
 11
-1121.3123677977567
 21
364.3364739270483
  0
LINE
  8
MountainLine
  6
CONTINUOUS
 62
1
 10
-904.830038839675
 20
662.298837606445
 11
-693.0091553046366
 21
953.8452720823017
  0
LINE
  8
MountainLine
  6
CONTINUOUS
 62
1
 10
-925.6493020403102
 20
681.8473855528142
 11
-1149.6458537240435
 21
373.54258156743686
  0
LINE
  8
ValleyLine
  6
CONTINUOUS
 62
5
 10
-925.6493020403102
 20
681.8473855528142
 11
-710.5202126268487
 21
977.947174788929
  0
LINE
  8
MountainLine
  6
CONTINUOUS
 62
1
 10
-946.0188919485253
 20
700.1114948419167
 11
-1176.8605722146306
 21
382.38517963246244
  0
LINE
  8
ValleyLine
  6
CONTINUOUS
 62
5
 10
-946.0188919485253
 20
700.1114948419167
 11
-727.3398336482916
 21
1001.0973970720199
  0
LINE
  8
MountainLine
  6
CONTINUOUS
 62
1
 10
-966.533282480747
 20
717.0864629898695
 11
-1203.4346987199433
 21
391.01963674422353
  0
LINE
  8
ValleyLine
  6
CONTINUOUS
 62
5
 10
-966.533282480747
 20
717.0864629898695
 11
-743.7635470499145
 21
1023.7026992650137
  0
LINE
  8
MountainLine
  6
CONTINUOUS
 62
1
 10
-988.1715794182765
 20
733.0470389202463
 11
-1230.321839821706
 21
399.7557984635795
  0
LINE
  8
ValleyLine
  6
CONTINUOUS
 62
5
 10
-988.1715794182765
 20
733.0470389202463
 11
-760.380714111118
 21
1046.5742675775032
  0
LINE
  8
MountainLine
  6
CONTINUOUS
 62
1
 10
-1012.3489108437307
 20
748.584760301687
 11
-1259.0145553057741
 21
409.07862686276013
  0
LINE
  8
ValleyLine
  6
CONTINUOUS
 62
5
 10
-1012.3489108437307
 20
748.584760301687
 11
-778.1137875098024
 21
1070.981749197841
  0
LINE
  8
MountainLine
  6
CONTINUOUS
 62
1
 10
-1040.796927397687
 20
764.5211319022613
 11
-1291.3966483560548
 21
419.6002067000431
  0
LINE
  8
ValleyLine
  6
CONTINUOUS
 62
5
 10
-1040.796927397687
 20
764.5211319022613
 11
-798.1270216417379
 21
1098.5276028271935
  0
LINE
  8
ValleyLine
  6
CONTINUOUS
 62
5
 10
-1072.358754026196
 20
781.4944855029598
 11
-1326.9073894004703
 21
431.1383458932
  0
LINE
  8
MountainLine
  6
CONTINUOUS
 62
1
 10
-1072.358754026196
 20
781.4944855029598
 11
-820.0738665728824
 21
1128.7348434018054
  0
LINE
  8
ValleyLine
  6
CONTINUOUS
 62
5
 10
-1105.2924315932912
 20
799.7180644167295
 11
-1364.2628451690173
 21
443.27586923415794
  0
LINE
  8
MountainLine
  6
CONTINUOUS
 62
1
 10
-1105.2924315932912
 20
799.7180644167295
 11
-843.1608079030879
 21
1160.5112920476786
  0
LINE
  8
ValleyLine
  6
CONTINUOUS
 62
5
 10
-1138.181642662771
 20
819.6417045002878
 11
-1402.5815976689098
 21
455.72638665644706
  0
LINE
  8
MountainLine
  6
CONTINUOUS
 62
1
 10
-1138.181642662771
 20
819.6417045002878
 11
-866.8430993545163
 21
1193.107169836754
  0
LINE
  8
ValleyLine
  6
CONTINUOUS
 62
5
 10
-1170.6780142749578
 20
842.4911486900954
 11
-1442.302280876541
 21
468.63241897843415
  0
LINE
  8
MountainLine
  6
CONTINUOUS
 62
1
 10
-1170.6780142749578
 20
842.4911486900954
 11
-891.3918316331998
 21
1226.895601115621
  0
LINE
  8
ValleyLine
  6
CONTINUOUS
 62
5
 10
-1203.7664909285945
 20
868.1791963825514
 11
-1484.1704764011233
 21
482.23622035010123
  0
LINE
  8
MountainLine
  6
CONTINUOUS
 62
1
 10
-1203.7664909285945
 20
868.1791963825514
 11
-917.2677995150178
 21
1262.510815482848
  0
LINE
  8
ValleyLine
  6
CONTINUOUS
 62
5
 10
-1237.614359901716
 20
896.024584229879
 11
-1527.9210859447783
 21
496.4516551130301
  0
LINE
  8
MountainLine
  6
CONTINUOUS
 62
1
 10
-1237.614359901716
 20
896.024584229879
 11
-944.3071632415221
 21
1299.7273068570526
  0
LINE
  8
ValleyLine
  6
CONTINUOUS
 62
5
 10
-1263.3572382611267
 20
917.7700873205088
 11
-1561.529198042021
 21
507.37159268662793
  0
LINE
  8
MountainLine
  6
CONTINUOUS
 62
1
 10
-1263.3572382611267
 20
917.7700873205088
 11
-965.0781188153344
 21
1328.3160745797584
  0
LINE
  8
ValleyLine
  6
CONTINUOUS
 62
5
 10
-1271.9381977142637
 20
925.0185883507186
 11
-1572.7319020744353
 21
511.011571877827
  0
LINE
  8
MountainLine
  6
CONTINUOUS
 62
1
 10
-1271.9381977142637
 20
925.0185883507186
 11
-972.0017706732722
 21
1337.84566382066
  0
LINE
  8
ValleyLine
  6
CONTINUOUS
 62
5
 10
-1271.9381977142637
 20
925.0185883507186
 11
-1572.7319020744353
 21
511.011571877827
  0
LINE
  8
MountainLine
  6
CONTINUOUS
 62
1
 10
-1271.9381977142637
 20
925.0185883507186
 11
-972.0017706732722
 21
1337.84566382066
  0
ENDSEC
  0
EOF
