<?xml version="1.0" encoding="UTF-8" standalone="no"?>
<!DOCTYPE svg PUBLIC "-//W3C//DTD SVG 1.1//EN" "http://www.w3.org/Graphics/SVG/1.1/DTD/svg11.dtd">
<svg width="100%" height="100%" viewBox="0 0 1000 1000" version="1.1" xmlns="http://www.w3.org/2000/svg" xmlns:xlink="http://www.w3.org/1999/xlink" xml:space="preserve" xmlns:serif="http://www.serif.com/" style="fill-rule:evenodd;clip-rule:evenodd;stroke-linejoin:round;stroke-miterlimit:2;">
    <g id="Layer1">
        <path d="M499.6,503.457C499.743,503.198 499.837,503.061 499.873,503.025C499.944,502.952 500.012,502.92 500.058,502.902C500.198,502.848 500.318,502.863 500.416,502.899C500.53,502.941 500.636,503.019 500.701,503.166C500.724,503.217 500.754,503.302 500.744,503.424C500.738,503.49 500.669,503.733 500.519,504.11C499.46,506.786 494.33,518.3 493.35,521.205C490.388,529.978 484.163,544.176 477.935,557.575C474.192,565.626 470.635,575.91 464.51,591.316C461.507,598.871 458.706,606.457 454.818,614.235C446.074,631.721 436.847,647.673 423.042,662.678C419.056,667.011 410.688,672.671 405.705,675.661C401.174,678.38 339.244,709.04 313.746,721.745C285.898,735.622 266.386,745.563 245.628,758.078C243.68,761.231 241.695,764.391 239.665,767.581C234.475,775.738 229.27,784 223.873,792.095C210.363,812.36 172.493,840.236 169.308,842.359C166.718,844.086 154.262,851.163 151.583,852.667C151.293,852.83 151.074,852.76 150.943,852.677C150.807,852.591 150.613,852.355 150.704,851.92C150.828,851.329 151.596,849.728 152.697,847.688C155.197,843.057 159.393,836.076 161.116,833.676C175.539,813.584 195.056,790.133 214.618,776.841C225.597,769.38 235.386,763.09 244.905,757.346C256.192,739.069 266.207,721.127 276.365,699.812C283.611,684.61 295.51,662.656 302.896,647.114C308.525,635.268 327.915,595.93 336.168,585.528C355.23,561.503 366.699,558.23 384.972,550.723C400.251,544.445 401.506,544.162 410.845,540.16C429.188,532.299 448.581,524.718 467.096,517.072C479.432,511.978 472.136,515.156 499.6,503.457ZM243.745,759.218C234.765,764.68 225.499,770.656 215.18,777.668C195.706,790.901 176.286,814.257 161.929,834.259C159.76,837.28 153.641,847.621 152.028,851.217L151.998,851.285C155.848,849.11 166.398,843.097 168.753,841.527C171.921,839.415 209.602,811.698 223.041,791.541C228.434,783.451 233.635,775.195 238.822,767.044C240.492,764.419 242.132,761.814 243.745,759.218ZM499.189,504.719C472.662,516.018 479.695,512.951 467.478,517.996C448.967,525.64 429.577,533.219 411.239,541.079C401.895,545.083 400.639,545.366 385.352,551.648C367.233,559.092 355.853,562.326 336.952,586.149C328.725,596.518 309.41,635.736 303.799,647.543C296.413,663.086 284.513,685.04 277.268,700.242C267.397,720.954 257.663,738.485 246.769,756.226C266.941,744.159 286.168,734.37 313.3,720.85C338.778,708.154 400.663,677.52 405.19,674.804C410.108,671.853 418.373,666.277 422.306,662.001C436.045,647.069 445.222,631.19 453.923,613.787C457.798,606.037 460.588,598.475 463.581,590.947C469.716,575.516 473.28,565.217 477.028,557.153C483.239,543.792 489.449,529.634 492.402,520.885C493.293,518.246 497.597,508.52 499.189,504.719Z" style="fill:rgb(13,40,242);"/>
        <path d="M140.273,502.508C161.201,497.662 180.995,492.147 203.286,484.361C219.185,478.808 243.155,471.809 259.394,466.117C271.771,461.778 313.363,447.864 326.561,446.405C357.044,443.035 367.441,448.88 385.635,456.575C400.849,463.011 401.933,463.703 411.349,467.52C429.843,475.017 448.879,483.458 467.341,491.228C479.642,496.406 472.25,493.46 499.89,504.735C500.175,504.654 500.339,504.625 500.39,504.625C500.491,504.625 500.562,504.65 500.607,504.67C500.744,504.731 500.818,504.827 500.861,504.922C500.911,505.032 500.93,505.163 500.872,505.313C500.852,505.365 500.813,505.446 500.719,505.525C500.668,505.567 500.447,505.688 500.073,505.848C497.427,506.979 485.637,511.439 482.884,512.787C474.568,516.858 460.1,522.429 446.198,527.435C437.845,530.444 428.036,535.155 412.781,541.648C405.301,544.832 397.941,548.182 389.679,550.893C371.103,556.99 353.277,561.663 332.902,562.418C327.018,562.636 317.108,560.676 311.476,559.24C306.357,557.935 240.988,535.522 214.017,526.352C184.558,516.337 163.763,509.474 140.262,503.536C136.651,504.372 133.01,505.186 129.315,505.989C119.868,508.043 110.335,510.161 100.786,512.025C76.882,516.692 30.425,509.41 26.676,508.642C23.627,508.018 9.832,504.151 6.878,503.306C6.557,503.215 6.454,503.01 6.42,502.859C6.386,502.702 6.416,502.397 6.789,502.156C7.297,501.828 8.975,501.247 11.199,500.594C16.248,499.11 24.16,497.177 27.078,496.711C51.502,492.815 81.897,490.174 105.108,494.714C118.135,497.262 129.493,499.789 140.273,502.508ZM498.704,505.331C472.008,494.44 479.136,497.278 466.953,492.15C448.495,484.381 429.464,475.942 410.973,468.447C401.552,464.628 400.467,463.935 385.245,457.496C367.205,449.865 356.897,444.058 326.671,447.399C313.515,448.853 272.062,462.736 259.725,467.06C243.486,472.753 219.515,479.752 203.616,485.305C181.956,492.871 162.651,498.295 142.381,503.043C165.151,508.879 185.638,515.648 214.339,525.405C241.289,534.568 306.608,556.967 311.723,558.271C317.28,559.688 327.059,561.634 332.865,561.419C353.142,560.668 370.881,556.011 389.367,549.943C397.6,547.241 404.935,543.901 412.39,540.728C427.669,534.225 437.493,529.508 445.86,526.495C459.723,521.502 474.151,515.949 482.444,511.889C484.946,510.664 494.884,506.876 498.704,505.331ZM138.127,503.001C127.927,500.466 117.16,498.09 104.916,495.695C81.809,491.176 51.55,493.82 27.236,497.699C23.564,498.285 11.91,501.217 8.221,502.602L8.152,502.629C12.406,503.832 24.103,507.095 26.876,507.663C30.606,508.427 76.817,515.685 100.594,511.044C110.136,509.181 119.662,507.064 129.103,505.012C132.143,504.351 135.148,503.682 138.127,503.001Z" style="fill:rgb(13,40,242);"/>
        <path d="M246.076,250.369C242.921,248.425 239.758,246.444 236.566,244.419C228.403,239.238 220.134,234.043 212.032,228.657C191.75,215.172 163.827,177.337 161.7,174.154C159.97,171.567 152.878,159.12 151.37,156.442C151.207,156.152 151.276,155.934 151.359,155.802C151.445,155.667 151.681,155.471 152.116,155.562C152.707,155.685 154.31,156.452 156.35,157.55C160.984,160.045 167.971,164.232 170.373,165.952C190.483,180.349 213.958,199.837 227.275,219.383C234.749,230.352 241.051,240.134 246.807,249.645C265.098,260.91 283.053,270.902 304.381,281.034C319.592,288.26 341.56,300.133 357.111,307.499C368.964,313.113 408.327,332.454 418.739,340.694C442.788,359.726 446.075,371.191 453.605,389.454C459.902,404.726 460.186,405.98 464.2,415.314C472.085,433.647 479.69,453.032 487.358,471.536C492.468,483.866 489.281,476.574 501.014,504.024C501.274,504.166 501.41,504.26 501.447,504.296C501.519,504.367 501.551,504.435 501.569,504.48C501.624,504.62 501.609,504.741 501.573,504.839C501.531,504.953 501.453,505.059 501.306,505.124C501.255,505.147 501.171,505.178 501.048,505.167C500.982,505.162 500.74,505.092 500.362,504.943C497.684,503.888 486.164,498.772 483.258,497.795C474.482,494.845 460.276,488.637 446.869,482.426C438.813,478.693 428.525,475.149 413.111,469.044C405.553,466.05 397.963,463.258 390.181,459.379C372.683,450.658 356.719,441.45 341.697,427.664C337.36,423.683 331.689,415.323 328.693,410.343C325.969,405.816 295.232,343.924 282.495,318.442C268.583,290.611 258.617,271.112 246.076,250.369ZM247.93,251.508C260.022,271.665 269.835,290.88 283.389,317.995C296.116,343.457 326.828,405.304 329.549,409.828C332.506,414.742 338.093,422.999 342.374,426.928C357.323,440.647 373.213,449.805 390.627,458.484C398.382,462.35 405.947,465.13 413.479,468.114C428.917,474.229 439.221,477.78 447.289,481.518C460.659,487.713 474.825,493.905 483.577,496.848C486.217,497.735 495.948,502.027 499.751,503.614C488.42,477.101 491.495,484.13 486.434,471.919C478.768,453.418 471.164,434.038 463.282,415.709C459.266,406.37 458.981,405.115 452.681,389.835C445.214,371.726 441.965,360.35 418.119,341.479C407.74,333.265 368.498,313.999 356.683,308.403C341.132,301.036 319.163,289.164 303.952,281.937C283.228,272.092 265.684,262.379 247.93,251.508ZM152.753,156.856C154.932,160.703 160.958,171.245 162.531,173.599C164.647,176.764 192.411,214.411 212.586,227.824C220.682,233.207 228.945,238.397 237.102,243.574C239.729,245.241 242.336,246.878 244.934,248.488C239.461,239.515 233.473,230.256 226.449,219.946C213.191,200.488 189.811,181.098 169.791,166.765C166.768,164.6 156.418,158.494 152.82,156.886L152.753,156.856Z" style="fill:rgb(13,40,242);"/>
        <path d="M498.962,143.232C498.099,139.628 497.256,135.993 496.424,132.305C494.297,122.873 492.105,113.357 490.167,103.823C485.315,79.956 492.235,33.444 492.974,29.689C493.574,26.635 497.334,12.811 498.155,9.85C498.244,9.529 498.448,9.423 498.6,9.389C498.756,9.353 499.061,9.382 499.305,9.753C499.637,10.257 500.231,11.931 500.902,14.15C502.425,19.187 504.419,27.085 504.907,29.999C508.993,54.391 511.87,84.765 507.511,108.01C505.064,121.057 502.626,132.435 499.991,143.235C504.999,164.125 510.667,183.875 518.627,206.106C524.303,221.96 531.488,245.876 537.306,262.07C541.741,274.413 555.978,315.895 557.54,329.081C561.146,359.537 555.383,369.979 547.829,388.232C541.512,403.496 540.828,404.585 537.084,414.031C529.731,432.583 521.438,451.683 513.811,470.205C508.73,482.546 511.618,475.131 500.558,502.859C500.641,503.143 500.672,503.306 500.672,503.358C500.673,503.459 500.649,503.529 500.629,503.574C500.569,503.712 500.474,503.787 500.379,503.831C500.269,503.882 500.139,503.902 499.988,503.845C499.936,503.825 499.855,503.787 499.775,503.693C499.732,503.643 499.609,503.422 499.447,503.05C498.295,500.413 493.744,488.658 492.374,485.915C488.239,477.631 482.556,463.207 477.441,449.345C474.368,441.015 469.581,431.243 462.969,416.039C459.728,408.584 456.321,401.25 453.545,393.009C447.304,374.481 442.492,356.692 441.579,336.324C441.316,330.442 443.199,320.516 444.59,314.874C445.856,309.744 467.76,244.203 476.72,217.162C486.506,187.626 493.208,166.778 498.962,143.232ZM499.471,145.347C493.813,168.161 487.204,188.701 477.669,217.476C468.716,244.497 446.825,309.988 445.561,315.113C444.188,320.681 442.318,330.475 442.578,336.279C443.487,356.549 448.281,374.251 454.493,392.69C457.259,400.902 460.656,408.211 463.886,415.64C470.508,430.868 475.302,440.656 478.379,448.999C483.48,462.823 489.145,477.207 493.269,485.468C494.513,487.961 498.378,497.869 499.953,501.677C510.636,474.897 507.854,482.047 512.887,469.825C520.512,451.307 528.803,432.21 536.154,413.662C539.9,404.212 540.584,403.122 546.905,387.85C554.395,369.751 560.123,359.398 556.547,329.199C554.99,316.055 540.786,274.711 536.365,262.408C530.547,246.214 523.362,222.298 517.685,206.443C509.951,184.842 504.377,165.579 499.471,145.347ZM498.843,11.119C497.672,15.382 494.501,27.104 493.955,29.882C493.22,33.618 486.32,79.883 491.147,103.624C493.083,113.151 495.274,122.66 497.4,132.085C498.084,135.12 498.776,138.12 499.48,141.093C501.936,130.874 504.228,120.088 506.528,107.826C510.868,84.685 507.988,54.447 503.921,30.164C503.307,26.497 500.284,14.866 498.87,11.188L498.843,11.119Z" style="fill:rgb(13,40,242);"/>
        <path d="M754.01,249.115C755.954,245.959 757.934,242.796 759.96,239.604C765.14,231.441 770.334,223.171 775.72,215.069C789.203,194.786 827.036,166.861 830.218,164.733C832.806,163.003 845.253,155.91 847.93,154.402C848.22,154.238 848.438,154.308 848.57,154.391C848.706,154.477 848.901,154.713 848.81,155.148C848.687,155.739 847.92,157.341 846.822,159.382C844.328,164.016 840.141,171.003 838.422,173.406C824.026,193.516 804.539,216.993 784.995,230.311C774.026,237.786 764.245,244.089 754.734,249.846C743.471,268.138 733.48,286.093 723.349,307.422C716.124,322.633 704.253,344.603 696.888,360.154C691.274,372.008 671.936,411.371 663.697,421.784C644.667,445.835 633.202,449.123 614.94,456.654C599.669,462.952 598.414,463.236 589.081,467.251C570.748,475.136 551.364,482.743 532.86,490.413C520.531,495.523 527.822,492.336 500.374,504.071C500.231,504.331 500.137,504.467 500.101,504.504C500.03,504.576 499.963,504.608 499.917,504.626C499.777,504.681 499.657,504.666 499.559,504.63C499.445,504.588 499.339,504.51 499.273,504.363C499.25,504.312 499.22,504.228 499.23,504.105C499.235,504.039 499.305,503.797 499.454,503.419C500.509,500.741 505.624,489.221 506.601,486.315C509.55,477.538 515.757,463.332 521.968,449.924C525.699,441.868 529.243,431.58 535.348,416.165C538.341,408.607 541.132,401.017 545.01,393.234C553.73,375.736 562.937,359.772 576.721,344.749C580.702,340.411 589.062,334.739 594.042,331.743C598.569,329.018 660.459,298.277 685.939,285.538C713.77,271.625 733.268,261.657 754.01,249.115ZM752.871,250.968C732.715,263.062 713.501,272.877 686.386,286.433C660.925,299.162 599.081,329.877 594.557,332.6C589.644,335.557 581.386,341.144 577.458,345.425C563.74,360.376 554.583,376.266 545.905,393.68C542.04,401.436 539.26,409.001 536.277,416.533C530.163,431.972 526.613,442.276 522.875,450.345C516.682,463.715 510.49,477.881 507.549,486.633C506.661,489.273 502.37,499.005 500.784,502.808C527.295,491.475 520.266,494.55 532.477,489.489C550.977,481.821 570.357,474.216 588.685,466.332C598.024,462.316 599.279,462.031 614.559,455.73C632.667,448.262 644.043,445.012 662.913,421.164C671.126,410.784 690.389,371.541 695.984,359.726C703.35,344.174 715.221,322.205 722.446,306.993C732.29,286.268 742.001,268.724 752.871,250.968ZM847.516,155.785C843.67,157.964 833.128,163.991 830.774,165.565C827.609,167.681 789.965,195.447 776.553,215.623C771.171,223.719 765.98,231.982 760.804,240.14C759.137,242.767 757.501,245.375 755.891,247.972C764.864,242.499 774.122,236.51 784.432,229.485C803.889,216.226 823.277,192.844 837.609,172.824C839.773,169.8 845.879,159.45 847.487,155.852L847.516,155.785Z" style="fill:rgb(13,40,242);"/>
        <path d="M500.439,504.581C500.155,504.664 499.992,504.694 499.94,504.694C499.839,504.695 499.769,504.67 499.724,504.65C499.586,504.59 499.512,504.494 499.468,504.399C499.417,504.289 499.398,504.159 499.455,504.009C499.475,503.956 499.513,503.875 499.608,503.796C499.658,503.753 499.879,503.631 500.251,503.47C502.892,502.326 514.661,497.811 517.408,496.45C525.705,492.341 540.147,486.702 554.025,481.631C562.364,478.584 572.151,473.827 587.376,467.263C594.841,464.045 602.186,460.66 610.435,457.91C628.982,451.727 646.786,446.971 667.157,446.121C673.04,445.876 682.96,447.79 688.598,449.199C693.723,450.48 759.196,472.588 786.209,481.632C815.714,491.511 836.541,498.277 860.069,504.104C863.676,503.252 867.314,502.421 871.005,501.6C880.443,499.503 889.965,497.34 899.506,495.432C923.388,490.654 969.877,497.719 973.631,498.469C976.683,499.079 990.495,502.882 993.454,503.713C993.774,503.803 993.879,504.007 993.913,504.158C993.948,504.315 993.919,504.62 993.547,504.863C993.041,505.193 991.365,505.782 989.145,506.446C984.103,507.953 976.199,509.923 973.284,510.402C948.879,514.412 918.496,517.195 895.264,512.763C882.225,510.275 870.855,507.802 860.063,505.133C839.158,510.077 819.39,515.683 797.135,523.573C781.263,529.2 757.325,536.311 741.113,542.079C728.756,546.475 687.23,560.583 674.039,562.103C643.572,565.615 633.148,559.819 614.918,552.208C599.674,545.844 598.587,545.157 589.154,541.384C570.624,533.973 551.55,525.621 533.051,517.936C520.726,512.816 528.132,515.728 500.439,504.581ZM857.953,504.607C835.156,498.878 814.638,492.205 785.892,482.581C758.899,473.544 693.477,451.449 688.355,450.169C682.791,448.778 673.004,446.878 667.199,447.12C646.926,447.966 629.209,452.705 610.751,458.859C602.53,461.6 595.211,464.974 587.772,468.181C572.523,474.755 562.72,479.519 554.368,482.57C540.528,487.628 526.126,493.248 517.852,497.346C515.356,498.583 505.436,502.417 501.623,503.98C528.37,514.746 521.228,511.942 533.435,517.013C551.929,524.696 571,533.046 589.525,540.455C598.964,544.23 600.052,544.918 615.303,551.286C633.379,558.832 643.714,564.592 673.924,561.11C687.073,559.594 728.461,545.519 740.778,541.137C756.99,535.368 780.928,528.258 796.801,522.631C818.426,514.964 837.705,509.45 857.953,504.607ZM992.182,504.396C987.923,503.213 976.211,500.005 973.435,499.45C969.701,498.703 923.458,491.66 899.702,496.412C890.169,498.319 880.653,500.48 871.222,502.577C868.184,503.252 865.183,503.934 862.207,504.629C872.418,507.117 883.197,509.443 895.452,511.78C918.579,516.192 948.826,513.407 973.122,509.415C976.791,508.812 988.43,505.826 992.114,504.423L992.182,504.396Z" style="fill:rgb(13,40,242);"/>
        <path d="M497.34,502.608C497.079,502.467 496.942,502.373 496.905,502.337C496.832,502.267 496.8,502.2 496.781,502.154C496.726,502.015 496.74,501.894 496.775,501.796C496.816,501.682 496.894,501.575 497.04,501.509C497.091,501.485 497.175,501.455 497.298,501.464C497.364,501.469 497.607,501.537 497.986,501.684C500.67,502.722 512.222,507.765 515.134,508.724C523.929,511.618 538.174,517.736 551.62,523.863C559.699,527.544 570.009,531.023 585.462,537.032C593.038,539.978 600.646,542.721 608.453,546.551C626.005,555.162 642.026,564.268 657.135,577.959C661.498,581.913 667.222,590.237 670.249,595.198C673.002,599.708 704.129,661.405 717.026,686.805C731.114,714.548 741.202,733.984 753.874,754.647C757.042,756.571 760.217,758.532 763.421,760.538C771.617,765.666 779.919,770.809 788.055,776.144C808.421,789.5 836.582,827.159 838.73,830.327C840.476,832.904 847.647,845.306 849.172,847.974C849.337,848.263 849.268,848.482 849.186,848.614C849.101,848.75 848.866,848.947 848.431,848.859C847.839,848.74 846.232,847.983 844.184,846.897C839.534,844.433 832.522,840.289 830.109,838.585C809.908,824.315 786.311,804.975 772.871,785.514C765.327,774.592 758.963,764.851 753.148,755.376C734.786,744.227 716.769,734.348 695.377,724.351C680.12,717.221 658.078,705.488 642.48,698.22C630.592,692.68 591.108,673.588 580.644,665.414C556.475,646.535 553.116,635.09 545.471,616.875C539.077,601.644 538.785,600.391 534.712,591.083C526.713,572.8 518.985,553.464 511.2,535.008C506.013,522.711 509.246,529.982 497.34,502.608ZM755.028,756.521C760.557,765.46 766.604,774.681 773.693,784.946C787.073,804.32 810.576,823.562 830.686,837.768C833.722,839.913 844.11,845.954 847.718,847.54L847.786,847.569C845.582,843.736 839.49,833.232 837.902,830.888C835.766,827.737 807.765,790.266 787.506,776.98C779.376,771.649 771.081,766.51 762.891,761.385C760.253,759.735 757.636,758.115 755.028,756.521ZM498.605,503.009C510.103,529.45 506.984,522.44 512.121,534.619C519.905,553.071 527.631,572.403 535.629,590.682C539.704,599.995 539.996,601.248 546.393,616.488C553.974,634.55 557.294,645.906 581.26,664.626C591.69,672.774 631.053,691.791 642.903,697.313C658.5,704.581 680.543,716.315 695.8,723.445C716.586,733.159 734.191,742.761 752.013,753.52C739.794,733.44 729.86,714.287 716.135,687.258C703.247,661.877 672.146,600.225 669.396,595.719C666.408,590.824 660.769,582.602 656.464,578.7C641.428,565.075 625.48,556.018 608.012,547.449C600.232,543.632 592.65,540.9 585.1,537.964C569.623,531.946 559.297,528.46 551.205,524.773C537.797,518.663 523.592,512.56 514.822,509.673C512.176,508.802 502.418,504.572 498.605,503.009Z" style="fill:rgb(13,40,242);"/>
        <path d="M499.748,505.262C499.665,504.978 499.635,504.815 499.635,504.763C499.633,504.662 499.658,504.592 499.678,504.547C499.738,504.409 499.833,504.334 499.928,504.29C500.038,504.239 500.168,504.219 500.318,504.276C500.371,504.296 500.452,504.334 500.532,504.428C500.575,504.478 500.697,504.699 500.86,505.071C502.011,507.709 506.559,519.464 507.928,522.208C512.062,530.493 517.742,544.918 522.853,558.782C525.924,567.112 530.709,576.885 537.317,592.091C540.556,599.546 543.962,606.882 546.736,615.123C552.973,633.652 557.78,651.442 558.688,671.811C558.95,677.693 557.065,687.618 555.672,693.26C554.405,698.39 532.485,763.925 523.519,790.965C513.726,820.498 507.02,841.344 501.26,864.889C502.122,868.494 502.964,872.129 503.795,875.817C505.92,885.249 508.11,894.766 510.046,904.3C514.892,928.169 507.961,974.679 507.222,978.434C506.62,981.488 502.857,995.311 502.035,998.272C501.946,998.593 501.742,998.698 501.591,998.732C501.434,998.768 501.129,998.74 500.885,998.369C500.553,997.864 499.96,996.19 499.29,993.971C497.768,988.933 495.775,981.036 495.288,978.121C491.208,953.728 488.338,923.353 492.703,900.109C495.153,887.063 497.593,875.686 500.231,864.886C495.227,843.995 489.564,824.244 481.61,802.011C475.937,786.155 468.758,762.238 462.943,746.043C458.511,733.699 444.284,692.213 442.726,679.026C439.127,648.57 444.892,638.129 452.451,619.877C458.771,604.616 459.456,603.526 463.202,594.082C470.559,575.531 478.856,556.433 486.487,537.912C491.572,525.573 488.682,532.987 499.748,505.262ZM500.741,867.028C498.283,877.247 495.988,888.032 493.685,900.293C489.34,923.434 492.212,953.672 496.274,977.957C496.888,981.624 499.908,993.255 501.321,996.934L501.348,997.003C502.519,992.74 505.693,981.019 506.24,978.241C506.976,974.505 513.887,928.242 509.066,904.499C507.131,894.972 504.943,885.462 502.82,876.037C502.136,873.002 501.444,870.002 500.741,867.028ZM500.353,506.444C489.664,533.221 492.448,526.072 487.412,538.293C479.782,556.81 471.487,575.904 464.131,594.45C460.383,603.9 459.699,604.99 453.375,620.26C445.88,638.358 440.15,648.709 443.719,678.909C445.272,692.053 459.467,733.401 463.884,745.705C469.699,761.9 476.879,785.818 482.552,801.674C490.28,823.277 495.85,842.541 500.751,862.774C506.415,839.961 513.029,819.424 522.57,790.65C531.529,763.631 553.436,698.146 554.701,693.021C556.076,687.453 557.948,677.66 557.689,671.856C556.785,651.585 551.995,633.882 545.788,615.442C543.024,607.229 539.628,599.919 536.4,592.489C529.782,577.26 524.99,567.471 521.914,559.128C516.817,545.302 511.156,530.916 507.033,522.654C505.79,520.162 501.927,510.252 500.353,506.444Z" style="fill:rgb(13,40,242);"/>
    </g>
    <g id="Layer2">
        <path d="M77.247,781.717C77.19,781.86 77.069,781.975 76.909,782.016C76.341,782.165 76.166,781.718 76.151,781.602C76.14,781.51 76.142,781.37 76.256,781.218C76.298,781.162 76.42,781.048 76.636,780.908C79.234,779.231 100.451,768.647 102.809,767.188C114.466,759.975 150.154,739.159 168.526,724.395C179.786,715.347 185.05,711.042 193.716,703.821C204.398,694.919 222.251,678.12 233.09,669.158C239.438,663.91 254.634,648.678 259.434,644.678C270.112,635.78 281.019,625.321 290.758,615.583C293.038,613.303 312.234,595.593 318.706,590.2C336.536,575.342 348.399,567.136 368.637,557.712C374.256,555.096 387.015,550.081 392.638,547.611C414.614,537.961 436.657,529.278 459.064,520.315C468.399,516.581 478.483,512.679 487.146,508.841C493.223,506.15 496.394,504.979 500.025,503.163C500.189,503.081 500.33,503.101 500.44,503.144C500.538,503.182 500.627,503.248 500.693,503.36C500.725,503.415 500.79,503.547 500.753,503.762C500.728,503.906 500.615,504.262 500.419,504.797C498.162,510.943 484.525,543.02 482.343,547.486C480.45,551.362 467.417,584.986 463.283,595.568C457.792,609.623 436.368,650.646 432.053,658.413C428.016,665.678 414.214,684.452 410.216,689.251C404.088,696.604 368.894,732.311 364.628,737.188C358.245,744.482 322.778,782.382 303.658,804.284C293.534,815.882 271.429,844.084 264.359,854.003C257.186,864.066 247.558,881.194 241.917,890.744C240.6,892.974 222.005,926.927 222.005,926.927C221.872,927.169 221.568,927.258 221.326,927.125C221.084,926.993 220.995,926.688 221.128,926.446C221.128,926.446 239.738,892.468 241.056,890.236C246.708,880.666 256.358,863.506 263.545,853.422C270.625,843.488 292.765,815.242 302.905,803.626C322.025,781.724 357.492,743.823 363.875,736.529C368.14,731.654 403.322,695.962 409.448,688.61C413.426,683.836 427.162,665.157 431.179,657.927C435.486,650.175 456.871,609.232 462.352,595.204C466.492,584.605 479.549,550.929 481.445,547.047C483.608,542.617 497.069,510.961 499.439,504.563C496.196,506.117 493.066,507.313 487.551,509.756C478.877,513.598 468.782,517.505 459.435,521.243C437.038,530.202 415.006,538.881 393.04,548.527C387.421,550.994 374.674,556.004 369.059,558.619C348.909,568.001 337.099,576.175 319.346,590.969C312.89,596.348 293.739,614.016 291.465,616.29C281.706,626.049 270.774,636.53 260.074,645.447C255.274,649.447 240.076,664.68 233.727,669.929C222.889,678.89 205.037,695.688 194.356,704.589C185.685,711.815 180.419,716.121 169.153,725.175C150.752,739.961 115.01,760.814 103.335,768.038C101.238,769.336 84.231,777.849 78.651,780.903C78.047,781.234 77.528,781.545 77.247,781.717Z" style="fill:rgb(249,56,34);"/>
        <path d="M3.407,401.987C3.266,402.047 3.099,402.043 2.956,401.96C2.449,401.664 2.641,401.223 2.713,401.131C2.77,401.057 2.87,400.961 3.058,400.933C3.127,400.923 3.294,400.929 3.546,400.983C6.569,401.631 29.063,409.129 31.763,409.762C45.108,412.893 85.072,423.372 108.505,425.903C122.867,427.454 129.633,428.126 140.868,429.137C154.717,430.383 179.221,431.107 193.223,432.421C201.424,433.191 222.94,433.147 229.162,433.707C243.005,434.953 258.114,435.256 271.886,435.244C275.111,435.241 301.209,436.269 309.599,437.024C332.714,439.104 346.908,441.677 367.888,449.305C373.714,451.423 386.287,456.887 392.012,459.112C414.382,467.808 436.117,477.235 458.308,486.721C467.553,490.673 477.446,495.036 486.289,498.44C492.491,500.828 495.563,502.24 499.415,503.52C499.59,503.578 499.675,503.691 499.723,503.799C499.765,503.895 499.781,504.006 499.749,504.131C499.733,504.193 499.686,504.332 499.508,504.457C499.388,504.542 499.057,504.714 498.54,504.954C492.601,507.71 460.288,520.777 455.589,522.397C451.511,523.803 418.532,538.393 408.13,542.962C394.314,549.03 350.171,562.928 341.63,565.377C333.64,567.668 310.608,571.204 304.389,571.775C294.856,572.65 244.723,573.059 238.258,573.496C228.587,574.149 176.71,575.916 147.706,577.91C132.346,578.966 96.778,583.309 84.767,585.335C72.581,587.39 53.666,592.71 42.927,595.484C40.42,596.132 3.273,607.025 3.273,607.025C3.008,607.102 2.73,606.95 2.652,606.686C2.575,606.421 2.727,606.143 2.991,606.065C2.991,606.065 40.168,595.165 42.677,594.516C53.438,591.736 72.391,586.408 84.601,584.349C96.63,582.32 132.254,577.97 147.637,576.912C176.642,574.918 228.52,573.151 238.19,572.498C244.653,572.061 294.768,571.654 304.297,570.779C310.486,570.211 333.404,566.695 341.354,564.416C349.879,561.972 393.939,548.103 407.728,542.046C418.147,537.47 451.178,522.86 455.263,521.452C459.924,519.845 491.814,506.95 498.011,504.096C494.618,502.905 491.559,501.54 485.93,499.373C477.076,495.965 467.171,491.598 457.915,487.641C435.735,478.158 414.01,468.736 391.649,460.045C385.93,457.821 373.368,452.361 367.547,450.245C346.657,442.65 332.525,440.091 309.509,438.02C301.139,437.267 275.104,436.241 271.887,436.244C258.086,436.256 242.945,435.951 229.072,434.703C222.849,434.143 201.331,434.187 193.13,433.417C179.128,432.102 154.626,431.379 140.778,430.133C129.537,429.121 122.768,428.449 108.398,426.897C84.928,424.363 44.9,413.871 31.534,410.736C29.133,410.173 11.082,404.183 4.976,402.402C4.314,402.21 3.727,402.063 3.407,401.987Z" style="fill:rgb(249,56,34);"/>
        <path d="M221.57,81.055C221.427,80.998 221.312,80.877 221.269,80.717C221.119,80.15 221.566,79.973 221.682,79.958C221.774,79.947 221.914,79.949 222.066,80.062C222.122,80.104 222.237,80.226 222.377,80.442C224.06,83.036 234.696,104.226 236.161,106.581C243.402,118.22 264.305,153.858 279.113,172.194C288.189,183.432 292.506,188.685 299.749,197.334C308.676,207.994 325.519,225.807 334.507,236.624C339.771,242.959 355.039,258.118 359.05,262.908C367.974,273.564 378.46,284.446 388.222,294.161C390.507,296.435 408.264,315.589 413.672,322.047C428.574,339.841 436.809,351.684 446.281,371.899C448.912,377.512 453.958,390.259 456.441,395.876C466.144,417.828 474.881,439.85 483.898,462.235C487.655,471.562 491.581,481.635 495.44,490.29C498.147,496.36 499.325,499.528 501.149,503.154C501.232,503.319 501.213,503.46 501.17,503.57C501.132,503.667 501.066,503.757 500.954,503.823C500.899,503.855 500.767,503.921 500.553,503.884C500.409,503.859 500.053,503.747 499.517,503.552C493.366,501.311 461.256,487.751 456.784,485.581C452.904,483.697 419.248,470.746 408.656,466.637C394.587,461.18 353.513,439.856 345.735,435.56C338.46,431.541 319.653,417.785 314.845,413.798C307.476,407.687 271.684,372.581 266.797,368.326C259.487,361.961 221.501,326.586 199.553,307.52C187.93,297.423 159.674,275.387 149.739,268.342C139.658,261.193 122.507,251.606 112.943,245.989C110.709,244.678 76.712,226.165 76.712,226.165C76.47,226.033 76.38,225.729 76.512,225.486C76.644,225.244 76.948,225.154 77.19,225.286C77.19,225.286 111.214,243.814 113.449,245.127C123.032,250.755 140.216,260.363 150.317,267.526C160.268,274.582 188.568,296.653 200.209,306.765C222.157,325.831 260.144,361.207 267.454,367.572C272.339,371.825 308.117,406.92 315.483,413.028C320.267,416.995 338.979,430.686 346.219,434.684C353.982,438.973 394.976,460.258 409.018,465.705C419.626,469.82 453.334,482.794 457.221,484.681C461.656,486.834 493.344,500.217 499.748,502.571C498.186,499.333 496.983,496.206 494.527,490.697C490.663,482.032 486.732,471.946 482.971,462.609C473.958,440.234 465.225,418.223 455.526,396.28C453.045,390.668 448.004,377.932 445.376,372.323C435.944,352.196 427.743,340.406 412.906,322.689C407.51,316.247 389.797,297.139 387.516,294.87C377.734,285.134 367.227,274.229 358.284,263.55C354.272,258.76 339.002,243.599 333.738,237.263C324.75,226.447 307.909,208.635 298.982,197.976C291.735,189.323 287.416,184.067 278.335,172.823C263.504,154.458 242.564,118.767 235.312,107.109C234.009,105.015 225.454,88.029 222.387,82.457C222.055,81.853 221.742,81.335 221.57,81.055Z" style="fill:rgb(249,56,34);"/>
        <path d="M601.426,5.244C601.365,5.104 601.369,4.937 601.451,4.794C601.745,4.286 602.187,4.475 602.279,4.546C602.353,4.603 602.45,4.703 602.478,4.891C602.489,4.961 602.484,5.128 602.431,5.38C601.789,8.414 594.341,31 593.715,33.709C590.617,47.101 580.231,87.212 577.763,110.708C576.251,125.108 575.597,131.892 574.616,143.156C573.407,157.04 572.753,181.598 571.476,195.637C570.728,203.859 570.835,225.418 570.292,231.656C569.083,245.536 568.823,260.677 568.875,274.477C568.887,277.707 567.933,303.864 567.2,312.276C565.183,335.451 562.645,349.69 555.063,370.76C552.957,376.611 547.519,389.243 545.306,394.993C536.657,417.463 527.275,439.301 517.833,461.595C513.9,470.884 509.557,480.824 506.172,489.706C503.797,495.936 502.391,499.023 501.12,502.89C501.062,503.065 500.95,503.151 500.842,503.199C500.746,503.241 500.636,503.258 500.51,503.226C500.448,503.211 500.309,503.164 500.182,502.986C500.098,502.867 499.924,502.536 499.682,502.02C496.904,496.086 483.717,463.789 482.08,459.091C480.659,455.013 465.945,422.06 461.337,411.665C455.217,397.859 441.164,353.714 438.685,345.17C436.367,337.179 432.757,314.123 432.167,307.894C431.263,298.348 430.709,248.116 430.252,241.641C429.57,231.955 427.649,179.984 425.568,150.934C424.466,135.55 420.011,99.937 417.947,87.914C415.852,75.717 410.467,56.797 407.656,46.054C407,43.545 395.978,6.391 395.978,6.391C395.9,6.127 396.051,5.848 396.315,5.77C396.58,5.691 396.859,5.842 396.937,6.107C396.937,6.107 407.967,43.29 408.624,45.8C411.44,56.565 416.834,75.523 418.932,87.745C420.999,99.786 425.461,135.454 426.565,150.862C428.647,179.913 430.567,231.885 431.25,241.571C431.706,248.043 432.258,298.257 433.163,307.8C433.75,313.998 437.339,336.94 439.646,344.892C442.119,353.419 456.143,397.481 462.252,411.26C466.867,421.671 481.602,454.678 483.024,458.762C484.648,463.422 497.66,495.296 500.538,501.489C501.722,498.08 503.081,495.006 505.237,489.35C508.627,480.457 512.974,470.505 516.912,461.205C526.349,438.921 535.728,417.093 544.372,394.634C546.584,388.888 552.018,376.267 554.122,370.421C561.672,349.442 564.195,335.264 566.204,312.189C566.935,303.798 567.887,277.703 567.875,274.48C567.823,260.651 568.085,245.478 569.296,231.57C569.839,225.33 569.732,203.769 570.48,195.547C571.757,181.509 572.411,156.953 573.62,143.069C574.601,131.799 575.256,125.011 576.769,110.603C579.241,87.07 589.638,46.896 592.74,33.483C593.298,31.074 599.248,12.949 601.014,6.819C601.205,6.155 601.35,5.565 601.426,5.244Z" style="fill:rgb(249,56,34);"/>
        <path d="M924.821,224.497C924.878,224.354 924.999,224.239 925.159,224.197C925.726,224.048 925.903,224.495 925.918,224.61C925.93,224.702 925.927,224.842 925.813,224.995C925.771,225.051 925.649,225.165 925.433,225.305C922.828,226.988 901.554,237.617 899.19,239.081C887.504,246.319 851.724,267.213 833.313,282.018C822.029,291.091 816.755,295.407 808.071,302.648C797.367,311.574 779.48,328.414 768.619,337.4C762.258,342.662 747.035,357.929 742.225,361.939C731.526,370.861 720.598,381.345 710.843,391.106C708.559,393.391 689.326,411.145 682.841,416.552C664.974,431.45 653.083,439.682 632.79,449.148C627.154,451.777 614.358,456.819 608.719,459.3C586.681,468.996 564.574,477.726 542.101,486.736C532.738,490.489 522.625,494.412 513.937,498.268C507.844,500.973 504.663,502.15 501.022,503.973C500.858,504.055 500.718,504.036 500.608,503.994C500.51,503.955 500.42,503.889 500.354,503.778C500.322,503.723 500.256,503.591 500.294,503.376C500.319,503.232 500.431,502.875 500.627,502.34C502.88,496.187 516.505,464.073 518.686,459.601C520.578,455.72 533.594,422.059 537.723,411.465C543.207,397.395 564.629,356.316 568.945,348.538C572.982,341.262 586.799,322.455 590.803,317.647C596.939,310.279 632.193,274.491 636.466,269.605C642.858,262.295 678.382,224.313 697.529,202.367C707.669,190.745 729.8,162.49 736.876,152.554C744.056,142.473 753.687,125.321 759.329,115.756C760.647,113.522 779.245,79.522 779.245,79.522C779.377,79.28 779.681,79.191 779.923,79.324C780.165,79.456 780.254,79.76 780.122,80.002C780.122,80.002 761.509,114.029 760.191,116.264C754.537,125.848 744.885,143.033 737.691,153.134C730.604,163.085 708.438,191.384 698.283,203.024C679.135,224.971 643.61,262.954 637.218,270.263C632.947,275.148 597.705,310.921 591.571,318.287C587.587,323.071 573.837,341.783 569.82,349.023C565.512,356.787 544.128,397.785 538.654,411.828C534.519,422.439 521.48,456.152 519.585,460.039C517.422,464.475 503.974,496.167 501.607,502.573C504.86,501.011 507.999,499.809 513.532,497.354C522.23,493.493 532.355,489.566 541.729,485.807C564.191,476.802 586.288,468.076 608.316,458.385C613.951,455.905 626.736,450.868 632.367,448.242C652.573,438.817 664.411,430.618 682.2,415.784C688.67,410.389 707.857,392.679 710.135,390.399C719.912,380.618 730.863,370.112 741.585,361.171C746.395,357.16 761.62,341.892 767.981,336.629C778.842,327.644 796.727,310.805 807.431,301.88C816.119,294.635 821.396,290.317 832.687,281.238C851.127,266.411 886.959,245.481 898.663,238.231C900.766,236.929 917.819,228.38 923.413,225.314C924.02,224.982 924.54,224.669 924.821,224.497Z" style="fill:rgb(249,56,34);"/>
        <path d="M998.395,604.956C998.535,604.895 998.702,604.898 998.845,604.981C999.354,605.274 999.165,605.716 999.094,605.809C999.037,605.882 998.937,605.98 998.749,606.008C998.68,606.018 998.512,606.014 998.26,605.961C995.225,605.324 972.63,597.906 969.92,597.283C956.524,594.202 916.399,583.87 892.9,581.433C878.498,579.94 871.713,579.295 860.448,578.329C846.562,577.138 822.003,576.517 807.962,575.258C799.74,574.522 778.181,574.657 771.941,574.122C758.061,572.932 742.919,572.691 729.119,572.762C725.889,572.778 699.73,571.858 691.318,571.137C668.14,569.15 653.898,566.632 632.818,559.077C626.964,556.979 614.325,551.557 608.572,549.352C586.091,540.733 564.24,531.379 541.933,521.968C532.64,518.046 522.694,513.717 513.807,510.343C507.574,507.977 504.486,506.575 500.616,505.309C500.442,505.252 500.356,505.139 500.308,505.032C500.265,504.936 500.248,504.826 500.279,504.7C500.295,504.638 500.341,504.498 500.519,504.371C500.638,504.287 500.969,504.112 501.485,503.87C507.415,501.083 539.694,487.854 544.39,486.211C548.466,484.785 581.4,470.027 591.789,465.406C605.586,459.267 649.713,445.155 658.254,442.666C666.242,440.337 689.293,436.696 695.521,436.098C705.066,435.181 755.297,434.56 761.772,434.095C771.457,433.4 823.425,431.411 852.473,429.291C867.855,428.168 903.462,423.666 915.482,421.586C927.677,419.476 946.589,414.066 957.329,411.24C959.837,410.581 996.976,399.51 996.976,399.51C997.24,399.431 997.519,399.582 997.598,399.846C997.677,400.111 997.526,400.39 997.262,400.468C997.262,400.468 960.093,411.547 957.583,412.208C946.822,415.039 927.871,420.457 915.652,422.572C903.614,424.655 867.952,429.164 852.545,430.288C823.497,432.408 771.528,434.397 761.843,435.093C755.371,435.558 705.158,436.177 695.617,437.093C689.419,437.689 666.482,441.308 658.533,443.626C650.01,446.111 605.966,460.193 592.195,466.319C581.79,470.948 548.803,485.727 544.721,487.155C540.063,488.784 508.206,501.839 502.017,504.725C505.427,505.905 508.503,507.26 514.162,509.408C523.059,512.786 533.017,517.12 542.322,521.046C564.619,530.454 586.459,539.803 608.93,548.418C614.678,550.622 627.307,556.039 633.156,558.136C654.145,565.658 668.325,568.162 691.403,570.141C699.796,570.86 725.891,571.778 729.114,571.762C742.944,571.691 758.117,571.933 772.027,573.125C778.267,573.66 799.828,573.525 808.051,574.262C822.091,575.521 846.648,576.142 860.533,577.333C871.805,578.299 878.593,578.944 893.003,580.438C916.539,582.879 956.727,593.223 970.144,596.308C972.554,596.862 990.687,602.788 996.819,604.546C997.484,604.737 998.073,604.881 998.395,604.956Z" style="fill:rgb(249,56,34);"/>
        <path d="M782.224,923.552C782.368,923.607 782.484,923.727 782.528,923.886C782.684,924.452 782.239,924.634 782.123,924.65C782.031,924.663 781.891,924.662 781.738,924.55C781.681,924.509 781.565,924.388 781.423,924.173C779.71,921.588 768.837,900.437 767.346,898.09C759.974,886.489 738.67,850.951 723.655,832.711C714.452,821.533 710.076,816.308 702.736,807.708C693.688,797.107 676.643,779.415 667.533,768.658C662.198,762.358 646.757,747.311 642.692,742.548C633.647,731.952 623.038,721.146 613.166,711.503C610.855,709.246 592.882,690.218 587.4,683.795C572.298,666.101 563.929,654.306 554.231,634.122C551.537,628.517 546.349,615.78 543.803,610.17C533.854,588.245 524.871,566.239 515.603,543.872C511.742,534.553 507.703,524.486 503.748,515.842C500.973,509.78 499.759,506.613 497.894,502.994C497.81,502.831 497.828,502.69 497.869,502.58C497.906,502.482 497.971,502.391 498.082,502.324C498.137,502.291 498.268,502.224 498.483,502.258C498.628,502.282 498.985,502.39 499.523,502.58C505.701,504.762 537.97,518.017 542.467,520.146C546.37,521.994 580.178,534.621 590.818,538.628C604.951,543.95 646.273,564.899 654.1,569.125C661.422,573.079 680.387,586.678 685.24,590.626C692.679,596.678 728.869,631.518 733.804,635.734C741.187,642.042 779.575,677.127 801.74,696.021C813.478,706.026 841.985,727.831 852.002,734.793C862.164,741.856 879.426,751.289 889.055,756.821C891.304,758.113 925.515,776.319 925.515,776.319C925.759,776.448 925.852,776.751 925.722,776.995C925.592,777.239 925.289,777.331 925.046,777.202C925.046,777.202 890.807,758.981 888.557,757.688C878.909,752.145 861.614,742.691 851.431,735.614C841.399,728.641 812.847,706.803 801.091,696.782C778.926,677.888 740.537,642.802 733.155,636.495C728.221,632.279 692.045,597.451 684.609,591.402C679.78,587.473 660.911,573.939 653.625,570.005C645.813,565.787 604.571,544.876 590.466,539.564C579.809,535.551 545.948,522.901 542.039,521.05C537.579,518.938 505.734,505.855 499.301,503.562C500.9,506.798 502.138,509.923 504.657,515.426C508.617,524.08 512.661,534.159 516.527,543.489C525.79,565.846 534.769,587.841 544.713,609.757C547.257,615.363 552.441,628.089 555.132,633.689C564.789,653.786 573.123,665.529 588.161,683.146C593.629,689.553 611.559,708.536 613.865,710.788C623.758,720.451 634.389,731.28 643.452,741.899C647.518,746.663 662.96,761.711 668.296,768.011C677.406,778.768 694.449,796.459 703.496,807.059C710.841,815.663 715.219,820.891 724.427,832.076C739.466,850.344 760.806,885.934 768.19,897.554C769.516,899.642 778.261,916.595 781.391,922.154C781.73,922.756 782.048,923.273 782.224,923.552Z" style="fill:rgb(249,56,34);"/>
        <path d="M396.256,1001.21C396.316,1001.35 396.311,1001.51 396.228,1001.66C395.931,1002.16 395.49,1001.97 395.398,1001.9C395.325,1001.84 395.228,1001.74 395.202,1001.55C395.192,1001.48 395.198,1001.32 395.252,1001.06C395.913,998.034 403.506,975.496 404.15,972.791C407.334,959.419 417.977,919.376 420.595,895.896C422.2,881.506 422.898,874.726 423.951,863.469C425.249,849.592 426.06,825.039 427.427,811.009C428.228,802.792 428.26,781.233 428.843,774.998C430.14,761.127 430.498,745.988 430.534,732.188C430.543,728.957 431.665,702.807 432.452,694.4C434.618,671.238 437.247,657.016 444.964,635.996C447.107,630.158 452.627,617.561 454.877,611.825C463.669,589.411 473.192,567.634 482.776,545.401C486.769,536.137 491.176,526.225 494.618,517.365C497.033,511.151 498.458,508.073 499.754,504.214C499.813,504.04 499.926,503.954 500.034,503.907C500.13,503.865 500.241,503.849 500.366,503.881C500.428,503.898 500.567,503.945 500.693,504.124C500.776,504.243 500.948,504.575 501.187,505.094C503.927,511.045 516.906,543.426 518.513,548.134C519.907,552.221 534.41,585.269 538.95,595.692C544.982,609.537 558.752,653.772 561.175,662.331C563.442,670.337 566.904,693.416 567.454,699.648C568.297,709.2 568.529,759.435 568.944,765.913C569.564,775.603 571.151,827.585 573.046,856.648C574.049,872.039 578.275,907.68 580.262,919.715C582.278,931.926 587.542,950.88 590.284,961.641C590.924,964.154 601.707,1001.38 601.707,1001.38C601.784,1001.64 601.631,1001.92 601.366,1002C601.101,1002.07 600.823,1001.92 600.746,1001.66C600.746,1001.66 589.956,964.403 589.315,961.888C586.567,951.105 581.296,932.113 579.276,919.878C577.286,907.824 573.053,872.128 572.048,856.713C570.153,827.649 568.566,775.667 567.946,765.977C567.531,759.501 567.301,709.285 566.458,699.736C565.911,693.535 562.469,670.57 560.213,662.604C557.794,654.061 544.053,609.91 538.034,596.092C533.486,585.651 518.963,552.551 517.566,548.457C515.973,543.787 503.165,511.83 500.327,505.619C499.121,509.02 497.742,512.086 495.55,517.727C492.103,526.598 487.693,536.522 483.695,545.796C474.115,568.02 464.596,589.787 455.808,612.191C453.56,617.921 448.044,630.508 445.903,636.34C438.219,657.27 435.605,671.431 433.447,694.493C432.663,702.88 431.543,728.967 431.534,732.191C431.498,746.02 431.139,761.191 429.839,775.091C429.255,781.327 429.223,802.888 428.423,811.106C427.056,825.135 426.244,849.687 424.946,863.562C423.893,874.826 423.195,881.609 421.589,896.007C418.966,919.524 408.312,959.63 405.123,973.023C404.55,975.429 398.484,993.515 396.678,999.633C396.483,1000.3 396.334,1000.88 396.256,1001.21Z" style="fill:rgb(249,56,34);"/>
    </g>
    <g id="Layer3">
        <path d="M75.377,225.032C75.331,225.078 75.294,225.133 75.268,225.194L2.296,400.536C2.271,400.597 2.258,400.663 2.258,400.729L2.436,605.517C2.436,605.583 2.449,605.648 2.474,605.709L75.72,781.688C75.745,781.748 75.781,781.802 75.827,781.849L221.812,928.112C221.859,928.159 221.915,928.196 221.976,928.221L399.962,1001.18C400.022,1001.2 400.087,1001.22 400.152,1001.22L602.682,1000.77C602.748,1000.77 602.812,1000.76 602.872,1000.74L781.311,926.967C781.373,926.941 781.429,926.903 781.476,926.855L926.222,779.692C926.268,779.645 926.304,779.59 926.329,779.529C938.837,748.608 974.432,662.111 997.315,607.824L997.354,607.63L997.364,401.053C997.364,400.987 997.351,400.922 997.326,400.861L924.182,224.624C924.157,224.564 924.12,224.509 924.074,224.463L779.094,78.768C779.047,78.721 778.991,78.684 778.93,78.658L602.836,6.206C602.775,6.181 602.71,6.168 602.644,6.168L396.621,6.675C396.555,6.675 396.49,6.688 396.43,6.714L221.647,79.614C221.587,79.639 221.532,79.675 221.487,79.721L75.377,225.032ZM996.354,607.529L996.364,401.153L923.296,225.098L778.456,79.545L602.547,7.168L396.723,7.675L222.122,80.499L76.153,225.67L3.258,400.828L3.436,605.417L76.605,781.212L222.449,927.334L400.249,1000.22L602.582,999.775L780.835,926.081L925.439,779.062C937.974,748.077 973.489,661.777 996.354,607.529Z"/>
    </g>
</svg>
