<?xml version="1.0" encoding="UTF-8" standalone="no"?>
<!DOCTYPE svg PUBLIC "-//W3C//DTD SVG 1.1//EN" "http://www.w3.org/Graphics/SVG/1.1/DTD/svg11.dtd">
<svg width="100%" height="100%" viewBox="0 0 1000 1000" version="1.1" xmlns="http://www.w3.org/2000/svg" xmlns:xlink="http://www.w3.org/1999/xlink" xml:space="preserve" xmlns:serif="http://www.serif.com/" style="fill-rule:evenodd;clip-rule:evenodd;stroke-linecap:round;stroke-linejoin:round;stroke-miterlimit:1.5;">
    <path d="M497.198,-1.788L794.458,94.104L978.175,345.154L978.175,655.468L794.458,906.518L497.198,1002.41L199.938,906.518L16.221,655.468L16.221,345.154L199.938,94.104L497.198,-1.788Z" style="fill:none;stroke:black;stroke-width:1px;"/>
    <g id="Layer1">
        <path d="M353.299,954.124C353.394,954.215 353.453,954.343 353.453,954.484C353.453,954.76 353.229,954.984 352.953,954.984C352.697,954.984 352.506,954.87 352.383,954.638C352.29,954.461 352.251,954.088 352.354,953.576C352.758,951.548 355.043,946.356 355.439,945.17C358.489,936.019 362.361,930.586 365.503,921.161C367.984,913.716 371.533,902.458 373.17,894.868C377.345,875.499 375.991,875.179 380.364,860.273C382.293,853.698 386.345,839.035 388.582,834.576C395.364,821.059 401.467,808.056 405.554,796.761C409.987,784.508 413.3,771.541 416.447,758.956C417.305,755.524 421.417,738.656 422.11,735.192C424.97,720.89 424.217,718.495 432.489,706.087C437.121,699.139 445.219,688.079 450.463,681.524C459.84,669.803 462.033,666.239 470.671,653.851C479.561,641.101 491.312,629.155 496.472,611.55C500.657,597.268 500.811,552.457 500.487,536.088C500.328,528.046 501.67,509.075 500.41,502.627C500.357,502.356 500.534,502.094 500.805,502.041C501.076,501.988 501.339,502.165 501.392,502.436C502.657,508.917 501.327,527.985 501.487,536.068C501.812,552.503 501.634,597.492 497.431,611.831C492.238,629.55 480.439,641.59 471.491,654.423C462.837,666.835 460.639,670.405 451.244,682.149C446.015,688.685 437.94,699.713 433.321,706.642C425.153,718.894 425.915,721.266 423.091,735.388C422.397,738.859 418.276,755.76 417.417,759.198C414.262,771.816 410.939,784.816 406.494,797.101C402.396,808.428 396.277,821.469 389.476,835.025C387.254,839.454 383.24,854.023 381.323,860.555C376.96,875.43 378.314,875.75 374.147,895.078C372.504,902.699 368.943,914.003 366.451,921.477C363.31,930.902 359.438,936.336 356.387,945.487C356.044,946.515 354.262,950.582 353.554,952.929C353.413,953.396 353.329,953.916 353.299,954.124ZM352.971,953.985C352.965,953.985 352.959,953.984 352.953,953.984L352.971,953.985Z" style="fill:rgb(13,40,242);"/>
        <path d="M649.709,955.479C649.839,955.496 649.962,955.564 650.046,955.678C650.21,955.9 650.163,956.213 649.941,956.377C649.735,956.529 649.513,956.551 649.277,956.437C649.096,956.35 648.844,956.073 648.622,955.6C647.743,953.728 646.499,948.194 646.113,947.005C643.134,937.83 643.023,931.159 639.954,921.71C637.531,914.247 633.701,903.081 630.511,896.002C622.37,877.938 621.09,878.485 615.757,863.895C613.405,857.458 607.959,843.254 607.111,838.338C604.542,823.435 601.731,809.348 598.313,797.833C594.604,785.342 589.57,772.941 584.629,760.947C583.281,757.676 576.574,741.662 575.075,738.463C568.884,725.257 566.856,723.777 566.144,708.882C565.745,700.54 565.693,686.833 566.02,678.445C566.605,663.446 566.254,659.277 565.848,644.18C565.43,628.642 567.792,612.052 561.49,594.823C556.377,580.847 529.892,544.699 519.912,531.721C515.009,525.344 504.823,509.284 499.981,504.843C499.778,504.657 499.764,504.34 499.951,504.137C500.137,503.934 500.454,503.92 500.657,504.106C505.524,508.57 515.776,524.702 520.704,531.111C530.725,544.142 557.296,580.447 562.429,594.48C568.772,611.82 566.427,628.514 566.848,644.153C567.254,659.279 567.606,663.456 567.02,678.484C566.694,686.848 566.745,700.516 567.143,708.834C567.846,723.543 569.867,724.999 575.98,738.039C577.483,741.244 584.203,757.289 585.553,760.566C590.507,772.591 595.553,785.025 599.271,797.549C602.7,809.097 605.52,823.223 608.097,838.168C608.939,843.052 614.36,857.158 616.697,863.551C622.018,878.111 623.298,877.564 631.422,895.591C634.625,902.698 638.472,913.908 640.905,921.401C643.974,930.85 644.085,937.521 647.064,946.696C647.399,947.727 648.38,952.057 649.204,954.367C649.367,954.826 649.609,955.294 649.709,955.479ZM649.362,955.562C649.357,955.565 649.352,955.569 649.347,955.573L649.362,955.562Z" style="fill:rgb(13,40,242);"/>
        <path d="M886.912,781.403C887.028,781.34 887.167,781.323 887.302,781.366C887.565,781.45 887.71,781.731 887.627,781.994C887.549,782.238 887.382,782.385 887.124,782.432C886.927,782.467 886.56,782.39 886.103,782.138C884.293,781.137 880.04,777.384 879.03,776.647C871.236,770.964 867.234,765.625 859.207,759.771C852.867,755.148 843.216,748.349 836.481,744.487C819.293,734.63 818.577,735.823 805.701,727.133C800.021,723.3 787.28,714.989 783.71,711.504C772.888,700.94 762.351,691.178 752.828,683.856C742.499,675.914 731.149,668.822 720.112,662.005C717.102,660.145 702.278,651.108 699.188,649.396C686.429,642.331 683.918,642.322 674.605,630.674C669.39,624.152 661.309,613.079 656.655,606.094C648.332,593.602 645.602,590.431 636.42,578.441C626.969,566.1 619.152,551.279 603.943,541.019C591.606,532.697 548.954,518.952 533.259,514.292C525.548,512.003 507.879,504.968 501.353,504.211C501.079,504.179 500.882,503.931 500.914,503.657C500.946,503.383 501.194,503.186 501.468,503.218C508.028,503.979 525.793,511.033 533.544,513.334C549.302,518.012 592.116,531.835 604.503,540.19C619.81,550.516 627.702,565.413 637.214,577.833C646.414,589.846 649.149,593.023 657.487,605.539C662.128,612.505 670.186,623.546 675.386,630.05C684.582,641.551 687.073,641.545 699.672,648.522C702.769,650.236 717.622,659.291 720.637,661.154C731.703,667.988 743.081,675.1 753.438,683.063C762.987,690.406 773.556,700.194 784.409,710.788C787.955,714.25 800.618,722.496 806.26,726.304C819.11,734.976 819.826,733.783 836.978,743.619C843.74,747.497 853.431,754.321 859.796,758.963C867.823,764.817 871.825,770.156 879.619,775.839C880.495,776.478 883.829,779.41 885.851,780.798C886.252,781.073 886.723,781.311 886.912,781.403ZM886.68,781.673C886.678,781.679 886.676,781.685 886.674,781.691L886.68,781.673Z" style="fill:rgb(13,40,242);"/>
        <path d="M976.95,501.293C977.007,501.175 977.11,501.079 977.244,501.035C977.506,500.948 977.789,501.091 977.875,501.353C977.955,501.596 977.906,501.813 977.725,502.002C977.586,502.147 977.244,502.3 976.725,502.363C974.672,502.614 969.026,502.068 967.776,502.064C958.13,502.031 951.758,500.054 941.823,500.021C933.976,499.994 922.172,500.147 914.451,500.969C894.749,503.065 894.869,504.452 879.343,504.964C872.495,505.19 857.301,505.931 852.365,505.202C837.405,502.992 823.145,501.265 811.137,500.919C798.113,500.544 784.76,501.456 771.823,502.407C768.295,502.667 750.987,504.04 747.48,504.467C733.002,506.226 730.963,507.692 716.589,503.719C708.54,501.494 695.501,497.265 687.635,494.337C673.567,489.1 669.497,488.132 655.027,483.806C640.135,479.353 625.111,471.932 606.776,472.542C591.902,473.037 549.294,486.917 533.849,492.348C526.261,495.016 507.823,499.68 502.093,502.894C501.853,503.029 501.548,502.944 501.413,502.703C501.278,502.462 501.364,502.157 501.604,502.022C507.364,498.791 525.89,494.087 533.517,491.405C549.024,485.952 591.809,472.039 606.742,471.543C625.197,470.929 640.325,478.366 655.314,482.848C669.811,487.183 673.889,488.152 687.984,493.4C695.828,496.32 708.83,500.537 716.856,502.755C731.049,506.678 733.063,505.212 747.36,503.474C750.874,503.047 768.215,501.67 771.75,501.41C784.72,500.456 798.108,499.544 811.166,499.92C823.207,500.267 837.508,501.996 852.511,504.213C857.414,504.937 872.507,504.189 879.31,503.965C894.804,503.453 894.684,502.067 914.345,499.974C922.097,499.15 933.948,498.994 941.826,499.021C951.761,499.054 958.134,501.031 967.78,501.064C968.864,501.068 973.284,501.488 975.735,501.426C976.222,501.413 976.742,501.33 976.95,501.293ZM976.92,501.649C976.922,501.654 976.924,501.66 976.925,501.666L976.92,501.649Z" style="fill:rgb(13,40,242);"/>
        <path d="M885.602,221.608C885.578,221.479 885.606,221.341 885.688,221.226C885.85,221.003 886.163,220.952 886.387,221.114C886.594,221.264 886.682,221.468 886.645,221.728C886.617,221.927 886.43,222.251 886.047,222.607C884.532,224.014 879.639,226.883 878.624,227.613C870.791,233.243 864.47,235.379 856.404,241.178C850.032,245.759 840.562,252.805 834.79,257.999C820.061,271.252 820.971,272.304 808.696,281.825C803.282,286.025 791.409,295.535 786.984,297.839C773.57,304.823 761.008,311.788 751.079,318.549C740.31,325.884 730.029,334.454 720.108,342.811C717.403,345.09 704.19,356.353 701.599,358.755C690.904,368.672 690.112,371.054 676.14,376.266C668.316,379.185 655.274,383.407 647.185,385.648C632.72,389.656 628.855,391.26 614.598,396.242C599.924,401.369 583.403,404.169 568.91,415.416C557.152,424.54 530.782,460.771 521.457,474.228C516.875,480.84 504.677,495.43 501.921,501.394C501.805,501.644 501.508,501.754 501.257,501.638C501.007,501.522 500.897,501.225 501.013,500.974C503.783,494.98 516.03,480.304 520.635,473.659C529.997,460.148 556.492,423.787 568.297,414.626C582.884,403.306 599.5,400.458 614.268,395.298C628.553,390.307 632.425,388.7 646.918,384.684C654.984,382.449 667.989,378.24 675.79,375.329C689.587,370.183 690.359,367.814 700.919,358.022C703.515,355.615 716.753,344.33 719.464,342.046C729.411,333.667 739.719,325.077 750.516,317.723C760.473,310.942 773.071,303.956 786.523,296.952C790.918,294.664 802.705,285.206 808.084,281.035C820.333,271.534 819.422,270.481 834.121,257.256C839.916,252.041 849.423,244.965 855.82,240.366C863.887,234.567 870.208,232.431 878.04,226.801C878.92,226.168 882.747,223.915 884.696,222.428C885.083,222.132 885.455,221.76 885.602,221.608ZM885.786,221.913C885.791,221.917 885.796,221.921 885.801,221.924L885.786,221.913Z" style="fill:rgb(13,40,242);"/>
        <path d="M647.586,48.644C647.491,48.553 647.432,48.425 647.432,48.284C647.432,48.008 647.656,47.784 647.932,47.784C648.187,47.783 648.378,47.897 648.501,48.129C648.595,48.307 648.634,48.679 648.532,49.192C648.13,51.22 645.849,56.414 645.455,57.6C642.413,66.754 638.546,72.191 635.414,81.619C632.939,89.066 629.401,100.328 627.772,107.919C623.614,127.292 624.969,127.61 620.61,142.52C618.687,149.098 614.649,163.764 612.416,168.225C605.647,181.749 599.556,194.758 595.48,206.057C591.058,218.314 587.757,231.284 584.623,243.872C583.768,247.305 579.671,264.176 578.982,267.641C576.135,281.945 576.89,284.34 568.63,296.756C564.004,303.709 555.917,314.776 550.68,321.336C541.314,333.066 539.124,336.631 530.498,349.028C521.62,361.786 509.88,373.744 504.737,391.354C500.565,405.639 500.454,450.45 500.793,466.819C500.959,474.861 499.636,493.833 500.901,500.28C500.954,500.55 500.778,500.813 500.507,500.867C500.236,500.92 499.973,500.743 499.92,500.472C498.648,493.992 499.96,474.923 499.793,466.84C499.452,450.405 499.588,405.416 503.777,391.073C508.954,373.349 520.741,361.298 529.677,348.457C538.32,336.036 540.514,332.465 549.898,320.712C555.121,314.171 563.185,303.135 567.797,296.202C575.954,283.942 575.19,281.571 578.001,267.446C578.692,263.974 582.796,247.07 583.652,243.63C586.795,231.01 590.106,218.007 594.539,205.718C598.627,194.386 604.733,181.34 611.522,167.778C613.74,163.346 617.74,148.773 619.65,142.24C624,127.361 622.645,127.042 626.794,107.71C628.43,100.087 631.98,88.78 634.465,81.304C637.597,71.876 641.464,66.439 644.506,57.285C644.848,56.256 646.626,52.187 647.333,49.839C647.473,49.373 647.556,48.853 647.586,48.644ZM647.914,48.783C647.92,48.783 647.926,48.784 647.933,48.784L647.914,48.783Z" style="fill:rgb(13,40,242);"/>
        <path d="M353.362,48.137C353.232,48.119 353.109,48.05 353.026,47.936C352.864,47.712 352.914,47.399 353.137,47.237C353.344,47.087 353.566,47.068 353.801,47.183C353.981,47.272 354.231,47.551 354.449,48.026C355.313,49.905 356.512,55.449 356.888,56.641C359.793,65.839 359.849,72.511 362.841,81.985C365.204,89.467 368.943,100.664 372.076,107.769C380.07,125.899 381.354,125.362 386.567,139.995C388.868,146.45 394.198,160.698 395.006,165.621C397.454,180.544 400.15,194.653 403.475,206.196C407.082,218.717 412.015,231.158 416.858,243.192C418.179,246.474 424.756,262.542 426.229,265.753C432.312,279.008 434.329,280.505 434.92,295.406C435.251,303.75 435.191,317.458 434.796,325.842C434.089,340.836 434.406,345.008 434.69,360.108C434.981,375.649 432.485,392.219 438.647,409.499C443.645,423.516 469.836,459.877 479.71,472.937C484.562,479.353 494.616,495.496 499.422,499.975C499.623,500.163 499.635,500.48 499.446,500.682C499.258,500.884 498.942,500.895 498.74,500.707C493.909,496.204 483.789,479.989 478.913,473.54C468.999,460.428 442.723,423.908 437.705,409.834C431.503,392.443 433.983,375.768 433.69,360.127C433.406,344.998 433.089,340.818 433.797,325.795C434.191,317.434 434.25,303.766 433.92,295.445C433.337,280.731 431.327,279.259 425.32,266.17C423.844,262.953 417.254,246.854 415.931,243.566C411.075,231.5 406.13,219.026 402.514,206.473C399.179,194.897 396.474,180.749 394.019,165.783C393.216,160.892 387.91,146.743 385.626,140.331C380.422,125.728 379.138,126.265 371.161,108.172C368.016,101.039 364.26,89.798 361.888,82.286C358.896,72.812 358.839,66.14 355.935,56.942C355.608,55.908 354.663,51.57 353.857,49.254C353.698,48.794 353.46,48.324 353.362,48.137ZM353.709,48.057C353.714,48.054 353.719,48.05 353.724,48.047L353.709,48.057Z" style="fill:rgb(13,40,242);"/>
        <path d="M111.994,219.031C111.878,219.093 111.739,219.109 111.604,219.065C111.342,218.979 111.199,218.697 111.285,218.434C111.364,218.191 111.532,218.046 111.791,218.001C111.989,217.967 112.355,218.047 112.81,218.303C114.611,219.319 118.834,223.106 119.838,223.851C127.585,229.598 131.544,234.969 139.523,240.888C145.825,245.562 155.42,252.439 162.124,256.356C179.232,266.353 179.957,265.165 192.762,273.959C198.41,277.839 211.084,286.253 214.625,289.767C225.36,300.419 235.818,310.265 245.281,317.665C255.546,325.691 266.838,332.875 277.819,339.781C280.813,341.665 295.563,350.823 298.64,352.559C311.341,359.728 313.852,359.758 323.069,371.481C328.231,378.045 336.222,389.183 340.819,396.206C349.04,408.765 351.744,411.958 360.829,424.022C370.179,436.439 377.875,451.324 393,461.707C405.27,470.129 447.808,484.221 463.465,489.007C471.157,491.359 488.768,498.538 495.288,499.348C495.562,499.382 495.756,499.632 495.722,499.905C495.688,500.179 495.438,500.374 495.164,500.34C488.611,499.526 470.904,492.327 463.173,489.964C447.453,485.158 404.753,470.987 392.434,462.531C377.211,452.081 369.441,437.121 360.03,424.624C350.928,412.537 348.219,409.337 339.982,396.754C335.398,389.751 327.43,378.645 322.283,372.099C313.181,360.523 310.69,360.509 298.148,353.43C295.066,351.69 280.287,342.515 277.286,340.628C266.277,333.703 254.956,326.499 244.665,318.452C235.175,311.032 224.686,301.159 213.921,290.477C210.403,286.986 197.807,278.637 192.196,274.784C179.417,266.007 178.692,267.195 161.62,257.22C154.889,253.287 145.255,246.384 138.927,241.691C130.948,235.772 126.989,230.401 119.242,224.654C118.371,224.008 115.061,221.049 113.05,219.645C112.651,219.366 112.183,219.125 111.994,219.031ZM112.229,218.763C112.231,218.757 112.233,218.751 112.235,218.746L112.229,218.763Z" style="fill:rgb(13,40,242);"/>
        <path d="M24.436,500.728C24.378,500.846 24.274,500.941 24.14,500.984C23.877,501.069 23.595,500.924 23.511,500.661C23.433,500.417 23.483,500.201 23.667,500.013C23.807,499.87 24.15,499.72 24.669,499.66C26.724,499.426 32.365,500.018 33.615,500.032C43.261,500.143 49.617,502.172 59.551,502.286C67.398,502.377 79.202,502.319 86.93,501.561C106.649,499.624 106.539,498.237 122.069,497.851C128.919,497.68 144.119,497.063 149.048,497.832C163.99,500.164 178.236,502.006 190.24,502.45C203.261,502.931 216.62,502.127 229.565,501.281C233.095,501.051 250.413,499.818 253.923,499.42C268.415,497.778 270.466,496.329 284.807,500.419C292.838,502.709 305.842,507.044 313.685,510.036C327.709,515.387 331.772,516.388 346.206,520.831C361.061,525.405 376.024,532.948 394.364,532.487C409.242,532.113 451.961,518.58 467.45,513.274C475.059,510.668 493.534,506.154 499.29,502.986C499.531,502.853 499.836,502.942 499.969,503.183C500.102,503.425 500.013,503.729 499.772,503.863C493.986,507.046 475.422,511.6 467.774,514.22C452.223,519.547 409.326,533.111 394.389,533.487C375.931,533.95 360.863,526.39 345.911,521.787C331.45,517.335 327.38,516.332 313.328,510.97C305.508,507.986 292.541,503.664 284.533,501.38C270.372,497.342 268.346,498.792 254.036,500.414C250.519,500.812 233.167,502.048 229.63,502.279C216.652,503.127 203.258,503.931 190.203,503.449C178.165,503.004 163.879,501.159 148.894,498.82C143.997,498.056 128.899,498.681 122.094,498.85C106.596,499.236 106.706,500.624 87.027,502.556C79.269,503.318 67.418,503.377 59.54,503.286C49.606,503.172 43.249,501.143 33.604,501.032C32.52,501.02 28.103,500.564 25.651,500.606C25.164,500.614 24.644,500.693 24.436,500.728ZM24.468,500.373C24.467,500.367 24.465,500.362 24.463,500.356L24.468,500.373Z" style="fill:rgb(13,40,242);"/>
        <path d="M113.017,781.737C113.04,781.866 113.012,782.004 112.929,782.118C112.766,782.341 112.453,782.39 112.23,782.228C112.023,782.077 111.937,781.872 111.974,781.613C112.003,781.414 112.191,781.09 112.576,780.736C114.097,779.335 119.002,776.486 120.02,775.761C127.875,770.162 134.204,768.052 142.295,762.286C148.685,757.731 158.184,750.723 163.977,745.553C178.76,732.361 177.854,731.305 190.167,721.834C195.599,717.657 207.51,708.194 211.945,705.909C225.387,698.98 237.978,692.066 247.934,685.345C258.734,678.054 269.049,669.527 279.004,661.21C281.719,658.942 294.977,647.733 297.578,645.341C308.313,635.469 309.115,633.089 323.108,627.934C330.944,625.048 344.003,620.879 352.101,618.671C366.583,614.722 370.454,613.134 384.731,608.21C399.426,603.143 415.958,600.41 430.497,589.222C442.292,580.146 468.81,544.023 478.19,530.604C482.798,524.012 495.056,509.471 497.836,503.519C497.953,503.269 498.251,503.161 498.501,503.277C498.751,503.394 498.859,503.692 498.742,503.942C495.948,509.925 483.641,524.551 479.01,531.177C469.592,544.65 442.949,580.902 431.107,590.015C416.474,601.275 399.847,604.056 385.057,609.156C370.752,614.088 366.874,615.679 352.364,619.636C344.289,621.838 331.268,625.994 323.454,628.873C309.636,633.963 308.855,636.329 298.254,646.078C295.649,648.474 282.365,659.705 279.645,661.977C269.664,670.316 259.321,678.864 248.493,686.174C238.509,692.914 225.883,699.849 212.403,706.797C207.998,709.068 196.173,718.477 190.777,722.627C178.489,732.078 179.396,733.134 164.643,746.3C158.827,751.49 149.291,758.528 142.875,763.1C134.785,768.866 128.455,770.976 120.6,776.575C119.717,777.204 115.882,779.441 113.926,780.921C113.538,781.215 113.164,781.586 113.017,781.737ZM112.834,781.431C112.829,781.427 112.824,781.423 112.819,781.419L112.834,781.431Z" style="fill:rgb(13,40,242);"/>
        <path d="M501.173,1000.44C501.192,1000.46 501.208,1000.49 501.222,1000.51C501.345,1000.76 501.245,1001.06 500.998,1001.19C500.834,1001.27 500.669,1001.27 500.506,1001.17C500.432,1001.13 500.304,1001.03 500.231,1000.8C500.174,1000.63 500.112,1000.21 500.059,999.567C499.436,992.026 499.077,950.113 498.935,893.57C498.604,761.681 499.448,550.171 500.838,509.777C500.935,506.934 501.036,504.935 501.139,503.865C501.19,503.332 501.255,503 501.307,502.871C501.393,502.66 501.533,502.58 501.62,502.546C501.759,502.49 501.898,502.493 502.037,502.561C502.286,502.681 502.39,502.98 502.27,503.228C502.256,503.256 502.241,503.283 502.223,503.307C502.203,503.418 502.162,503.676 502.135,503.961C502.033,505.02 501.934,506.998 501.837,509.811C500.447,550.202 499.605,761.691 499.935,893.567C500.077,950.067 500.433,991.949 501.056,999.485C501.09,999.9 501.149,1000.29 501.173,1000.44ZM500.828,1000.24C500.744,1000.23 500.66,1000.24 500.575,1000.28C500.657,1000.25 500.744,1000.23 500.828,1000.24ZM501.808,503.511C501.739,503.509 501.669,503.493 501.602,503.461C501.671,503.494 501.739,503.51 501.808,503.511Z" style="fill:rgb(242,13,13);"/>
        <path d="M796.191,904.937C796.22,904.946 796.249,904.957 796.277,904.971C796.523,905.096 796.62,905.398 796.495,905.644C796.411,905.808 796.278,905.903 796.09,905.925C796.006,905.935 795.844,905.931 795.651,905.792C795.5,905.683 795.204,905.386 794.778,904.899C789.799,899.201 764.622,865.69 730.934,820.279C652.352,714.355 527.438,543.669 504.57,510.342C502.961,507.997 501.855,506.328 501.303,505.406C501.028,504.947 500.882,504.642 500.848,504.507C500.791,504.286 500.857,504.139 500.906,504.059C500.985,503.932 501.099,503.852 501.251,503.823C501.522,503.773 501.784,503.951 501.835,504.223C501.84,504.253 501.843,504.284 501.843,504.314C501.894,504.415 502.014,504.647 502.161,504.892C502.707,505.805 503.803,507.456 505.395,509.776C528.261,543.1 653.163,713.769 731.737,819.683C765.4,865.06 790.556,898.547 795.531,904.241C795.805,904.554 796.084,904.833 796.191,904.937ZM795.798,904.985C795.722,905.025 795.662,905.086 795.617,905.167C795.661,905.089 795.725,905.027 795.798,904.985ZM501.63,504.724C501.574,504.764 501.508,504.793 501.436,504.806C501.51,504.792 501.575,504.765 501.63,504.724Z" style="fill:rgb(242,13,13);"/>
        <path d="M975.917,654.558C975.946,654.547 975.976,654.54 976.007,654.535C976.279,654.492 976.535,654.679 976.578,654.952C976.606,655.134 976.554,655.289 976.415,655.417C976.352,655.474 976.219,655.566 975.981,655.567C975.795,655.567 975.381,655.5 974.75,655.355C967.376,653.66 927.33,641.282 873.411,624.258C747.641,584.548 546.363,519.556 508.295,505.974C505.616,505.018 503.742,504.315 502.753,503.892C502.261,503.682 501.964,503.52 501.858,503.431C501.682,503.284 501.649,503.127 501.642,503.034C501.632,502.884 501.677,502.753 501.783,502.64C501.973,502.44 502.29,502.432 502.49,502.621C502.513,502.643 502.533,502.666 502.551,502.69C502.651,502.742 502.884,502.86 503.147,502.973C504.125,503.391 505.98,504.086 508.631,505.032C546.695,518.613 747.955,583.599 873.712,623.305C927.59,640.316 967.605,652.687 974.974,654.381C975.38,654.474 975.77,654.536 975.917,654.558ZM975.627,654.827C975.589,654.904 975.576,654.988 975.587,655.08C975.577,654.991 975.592,654.904 975.627,654.827ZM502.619,503.147C502.597,503.213 502.56,503.275 502.509,503.328C502.562,503.273 502.598,503.213 502.619,503.147Z" style="fill:rgb(242,13,13);"/>
        <path d="M974.651,346.353C974.668,346.328 974.687,346.305 974.709,346.283C974.905,346.088 975.222,346.089 975.417,346.285C975.546,346.416 975.595,346.573 975.557,346.758C975.54,346.841 975.486,346.994 975.294,347.133C975.143,347.243 974.769,347.432 974.173,347.684C967.206,350.636 927.511,364.096 873.854,381.929C748.695,423.525 547.55,488.927 508.75,500.251C506.02,501.048 504.089,501.578 503.041,501.815C502.519,501.933 502.183,501.976 502.045,501.966C501.816,501.951 501.697,501.843 501.637,501.771C501.541,501.656 501.5,501.523 501.521,501.37C501.557,501.096 501.809,500.904 502.082,500.94C502.113,500.944 502.143,500.951 502.172,500.96C502.283,500.944 502.541,500.902 502.82,500.839C503.858,500.605 505.768,500.079 508.47,499.291C547.266,487.968 748.392,422.572 873.538,380.98C927.155,363.16 966.821,349.713 973.783,346.763C974.166,346.601 974.518,346.422 974.651,346.353ZM502.495,501.291C502.515,501.357 502.522,501.428 502.512,501.501C502.522,501.426 502.516,501.356 502.495,501.291ZM974.573,346.742C974.588,346.826 974.627,346.902 974.689,346.971C974.629,346.904 974.59,346.825 974.573,346.742Z" style="fill:rgb(242,13,13);"/>
        <path d="M792.872,97.46C792.871,97.43 792.873,97.399 792.878,97.368C792.923,97.096 793.18,96.911 793.452,96.955C793.634,96.985 793.766,97.084 793.844,97.255C793.879,97.333 793.924,97.488 793.851,97.714C793.793,97.891 793.6,98.264 793.266,98.818C789.354,105.295 765.095,139.477 732.093,185.389C655.113,292.482 530.548,463.422 505.762,495.349C504.018,497.595 502.765,499.157 502.055,499.964C501.701,500.366 501.455,500.598 501.337,500.671C501.143,500.792 500.983,500.774 500.893,500.752C500.748,500.715 500.636,500.631 500.563,500.495C500.432,500.252 500.523,499.948 500.766,499.817C500.793,499.803 500.821,499.791 500.85,499.781C500.931,499.702 501.115,499.518 501.304,499.303C502.007,498.505 503.246,496.959 504.972,494.736C529.755,462.812 654.309,291.888 731.281,184.805C764.259,138.928 788.501,104.773 792.41,98.301C792.625,97.944 792.805,97.593 792.872,97.46ZM501.305,499.859C501.361,499.901 501.408,499.955 501.443,500.02C501.407,499.953 501.361,499.9 501.305,499.859ZM793.037,97.82C793.098,97.88 793.175,97.918 793.265,97.937C793.178,97.918 793.1,97.877 793.037,97.82Z" style="fill:rgb(242,13,13);"/>
        <path d="M499.668,2.471C499.65,2.447 499.633,2.421 499.619,2.393C499.496,2.146 499.596,1.845 499.842,1.722C500.007,1.639 500.172,1.642 500.335,1.735C500.409,1.778 500.537,1.877 500.61,2.103C500.667,2.28 500.729,2.695 500.783,3.34C501.413,10.88 501.812,52.793 502.007,109.336C502.462,241.225 501.819,452.735 500.467,493.131C500.372,495.973 500.273,497.973 500.171,499.043C500.12,499.576 500.056,499.908 500.004,500.036C499.918,500.248 499.778,500.328 499.692,500.362C499.553,500.418 499.413,500.415 499.274,500.348C499.025,500.228 498.921,499.929 499.041,499.68C499.054,499.652 499.07,499.626 499.088,499.602C499.107,499.49 499.148,499.233 499.175,498.948C499.276,497.889 499.373,495.91 499.468,493.097C500.819,452.705 501.462,241.215 501.007,109.339C500.812,52.839 500.416,10.958 499.787,3.423C499.752,3.008 499.692,2.618 499.668,2.471ZM499.503,499.398C499.572,499.399 499.642,499.415 499.708,499.447C499.64,499.414 499.571,499.398 499.503,499.398ZM500.267,2.627C500.185,2.663 500.097,2.675 500.013,2.666C500.098,2.678 500.182,2.665 500.267,2.627Z" style="fill:rgb(242,13,13);"/>
        <path d="M206.473,97.487C206.444,97.479 206.416,97.467 206.388,97.453C206.143,97.325 206.048,97.023 206.175,96.778C206.26,96.615 206.395,96.521 206.582,96.5C206.667,96.491 206.829,96.496 207.02,96.637C207.17,96.747 207.464,97.047 207.886,97.537C212.819,103.275 237.722,136.99 271.041,182.673C348.758,289.232 472.281,460.927 494.877,494.439C496.467,496.797 497.56,498.475 498.105,499.402C498.376,499.863 498.52,500.17 498.553,500.304C498.607,500.526 498.54,500.673 498.49,500.752C498.41,500.878 498.296,500.957 498.144,500.985C497.872,501.033 497.612,500.852 497.563,500.581C497.558,500.55 497.555,500.52 497.556,500.489C497.506,500.388 497.388,500.155 497.243,499.909C496.704,498.992 495.622,497.332 494.048,494.998C471.454,461.489 347.943,289.811 270.233,183.263C236.939,137.614 212.057,103.923 207.128,98.189C206.856,97.873 206.579,97.593 206.473,97.487ZM497.772,500.081C497.829,500.042 497.895,500.013 497.967,500C497.892,500.014 497.827,500.041 497.772,500.081ZM207.05,97.263C207.004,97.34 206.941,97.401 206.867,97.443C206.943,97.403 207.003,97.343 207.05,97.263Z" style="fill:rgb(242,13,13);"/>
        <path d="M26.061,347.848C26.033,347.858 26.003,347.866 25.972,347.87C25.699,347.911 25.445,347.722 25.404,347.449C25.377,347.267 25.431,347.111 25.571,346.985C25.634,346.928 25.768,346.837 26.006,346.839C26.192,346.84 26.606,346.91 27.235,347.06C34.595,348.815 74.539,361.518 128.318,378.98C253.761,419.71 454.504,486.336 492.461,500.228C495.131,501.205 497,501.924 497.985,502.354C498.475,502.569 498.771,502.733 498.877,502.823C499.051,502.971 499.083,503.129 499.089,503.222C499.098,503.371 499.052,503.502 498.945,503.614C498.754,503.813 498.437,503.819 498.238,503.627C498.215,503.605 498.195,503.582 498.178,503.558C498.078,503.505 497.846,503.385 497.584,503.271C496.61,502.844 494.76,502.134 492.117,501.167C454.164,487.276 253.44,420.658 128.009,379.931C74.271,362.482 34.358,349.787 27.003,348.033C26.598,347.936 26.209,347.872 26.061,347.848ZM498.114,503.1C498.136,503.035 498.174,502.973 498.225,502.92C498.172,502.975 498.135,503.035 498.114,503.1ZM26.396,347.328C26.405,347.418 26.389,347.504 26.354,347.581C26.392,347.505 26.406,347.421 26.396,347.328Z" style="fill:rgb(242,13,13);"/>
        <path d="M25.476,655.682C25.459,655.707 25.439,655.73 25.416,655.752C25.219,655.945 24.902,655.941 24.709,655.744C24.58,655.612 24.533,655.455 24.572,655.27C24.59,655.187 24.646,655.035 24.839,654.897C24.99,654.788 25.367,654.603 25.964,654.355C32.955,651.46 72.758,638.323 126.558,620.927C252.051,580.349 453.721,516.584 492.612,505.576C495.348,504.801 497.283,504.287 498.334,504.058C498.857,503.945 499.193,503.904 499.331,503.915C499.559,503.932 499.677,504.041 499.737,504.113C499.832,504.229 499.871,504.362 499.85,504.516C499.811,504.789 499.558,504.979 499.285,504.941C499.254,504.937 499.224,504.929 499.196,504.92C499.084,504.936 498.826,504.975 498.546,505.035C497.507,505.262 495.592,505.772 492.884,506.538C453.997,517.545 252.346,581.305 126.866,621.878C73.107,639.261 33.333,652.386 26.347,655.279C25.962,655.438 25.609,655.614 25.476,655.682ZM25.442,655.064C25.502,655.131 25.54,655.211 25.556,655.294C25.543,655.21 25.504,655.133 25.442,655.064ZM498.875,504.587C498.855,504.521 498.849,504.449 498.86,504.376C498.849,504.451 498.854,504.522 498.875,504.587Z" style="fill:rgb(242,13,13);"/>
        <path d="M205.239,906.262C205.24,906.293 205.238,906.323 205.233,906.354C205.187,906.626 204.929,906.81 204.657,906.764C204.475,906.734 204.344,906.635 204.267,906.463C204.232,906.385 204.187,906.229 204.262,906.004C204.32,905.827 204.515,905.455 204.851,904.903C208.79,898.442 233.187,864.359 266.376,818.582C343.793,711.804 469.055,541.374 493.971,509.548C495.724,507.309 496.983,505.752 497.697,504.948C498.052,504.548 498.299,504.317 498.417,504.244C498.612,504.124 498.772,504.142 498.862,504.165C499.007,504.202 499.118,504.287 499.191,504.423C499.321,504.667 499.229,504.97 498.985,505.1C498.958,505.115 498.93,505.127 498.901,505.136C498.82,505.214 498.634,505.398 498.445,505.612C497.738,506.408 496.493,507.948 494.758,510.165C469.845,541.987 344.595,712.401 267.186,819.169C234.022,864.911 209.641,898.967 205.705,905.423C205.488,905.779 205.307,906.129 205.239,906.262ZM204.848,905.783C204.936,905.803 205.013,905.844 205.076,905.901C205.015,905.842 204.939,905.802 204.848,905.783ZM498.446,505.056C498.391,505.014 498.343,504.96 498.309,504.895C498.345,504.962 498.39,505.015 498.446,505.056Z" style="fill:rgb(242,13,13);"/>
    </g>
</svg>
