  0
SECTION
  2
HEADER
  9
$ACADVER
  1
AC1009
  0
ENDSEC
  0
SECTION
  2
ENTITIES
  0
LINE
  8
reference 10mm
  6
CONTINUOUS
 62
250
 10
-1679.2822350429171
 20
1775.701833982034
 11
-1669.2822350429171
 21
1775.701833982034
  0
LINE
  8
reference 10mm
  6
CONTINUOUS
 62
250
 10
-1669.2822350429171
 20
1775.701833982034
 11
-1669.2822350429171
 21
1785.701833982034
  0
LINE
  8
reference 10mm
  6
CONTINUOUS
 62
250
 10
-1669.2822350429171
 20
1785.701833982034
 11
-1679.2822350429171
 21
1785.701833982034
  0
LINE
  8
reference 10mm
  6
CONTINUOUS
 62
250
 10
-1679.2822350429171
 20
1785.701833982034
 11
-1679.2822350429171
 21
1775.701833982034
  0
LINE
  8
MountainLine
  6
CONTINUOUS
 62
1
 10
0.0
 20
-0.0
 11
-1679.282235042917
 21
-545.6318736994605
  0
LINE
  8
CutLine
  6
CONTINUOUS
 62
250
 10
-1037.8534979604124
 20
-1428.4827906904775
 11
-1679.282235042917
 21
-545.6318736994605
  0
LINE
  8
MountainLine
  6
CONTINUOUS
 62
1
 10
0.0
 20
-0.0
 11
-1037.8534979604124
 21
-1428.4827906904775
  0
LINE
  8
CutLine
  6
CONTINUOUS
 62
250
 10
-1.0811805496173545E-13
 20
-1765.701833982034
 11
-1037.8534979604124
 21
-1428.4827906904775
  0
LINE
  8
MountainLine
  6
CONTINUOUS
 62
1
 10
0.0
 20
-0.0
 11
-1.0811805496173545E-13
 21
-1765.701833982034
  0
LINE
  8
CutLine
  6
CONTINUOUS
 62
250
 10
1037.8534979604121
 20
-1428.4827906904775
 11
-1.0811805496173545E-13
 21
-1765.701833982034
  0
LINE
  8
MountainLine
  6
CONTINUOUS
 62
1
 10
0.0
 20
-0.0
 11
1037.8534979604121
 21
-1428.4827906904775
  0
LINE
  8
CutLine
  6
CONTINUOUS
 62
250
 10
1679.282235042917
 20
-545.6318736994607
 11
1037.8534979604121
 21
-1428.4827906904775
  0
LINE
  8
MountainLine
  6
CONTINUOUS
 62
1
 10
0.0
 20
-0.0
 11
1679.282235042917
 21
-545.6318736994607
  0
LINE
  8
CutLine
  6
CONTINUOUS
 62
250
 10
1679.2822350429171
 20
545.6318736994602
 11
1679.282235042917
 21
-545.6318736994607
  0
LINE
  8
MountainLine
  6
CONTINUOUS
 62
1
 10
0.0
 20
0.0
 11
1679.2822350429171
 21
545.6318736994602
  0
LINE
  8
CutLine
  6
CONTINUOUS
 62
250
 10
1037.8534979604126
 20
1428.4827906904775
 11
1679.2822350429171
 21
545.6318736994602
  0
LINE
  8
MountainLine
  6
CONTINUOUS
 62
1
 10
0.0
 20
0.0
 11
1037.8534979604126
 21
1428.4827906904775
  0
LINE
  8
CutLine
  6
CONTINUOUS
 62
250
 10
3.2435416488520635E-13
 20
1765.701833982034
 11
1037.8534979604126
 21
1428.4827906904775
  0
LINE
  8
MountainLine
  6
CONTINUOUS
 62
1
 10
0.0
 20
0.0
 11
3.2435416488520635E-13
 21
1765.701833982034
  0
LINE
  8
CutLine
  6
CONTINUOUS
 62
250
 10
-1037.8534979604121
 20
1428.4827906904777
 11
3.2435416488520635E-13
 21
1765.701833982034
  0
LINE
  8
MountainLine
  6
CONTINUOUS
 62
1
 10
0.0
 20
0.0
 11
-1037.8534979604121
 21
1428.4827906904777
  0
LINE
  8
CutLine
  6
CONTINUOUS
 62
250
 10
-1679.282235042917
 20
545.6318736994609
 11
-1037.8534979604121
 21
1428.4827906904777
  0
LINE
  8
MountainLine
  6
CONTINUOUS
 62
1
 10
0.0
 20
0.0
 11
-1679.282235042917
 21
545.6318736994609
  0
LINE
  8
CutLine
  6
CONTINUOUS
 62
250
 10
-1679.2822350429171
 20
-545.6318736994601
 11
-1679.282235042917
 21
545.6318736994609
  0
LINE
  8
ValleyLine
  6
CONTINUOUS
 62
5
 10
0.0
 20
-0.0
 11
0.0
 21
-0.0
  0
LINE
  8
ValleyLine
  6
CONTINUOUS
 62
5
 10
0.0
 20
-0.0
 11
-19.362843891297437
 21
-6.289726434180346
  0
LINE
  8
ValleyLine
  6
CONTINUOUS
 62
5
 10
-19.362843891297437
 20
-6.289726434180346
 11
-77.45137556518975
 21
-25.158905736721383
  0
LINE
  8
ValleyLine
  6
CONTINUOUS
 62
5
 10
-77.45137556518975
 20
-25.158905736721383
 11
-150.7485380925375
 21
-48.97326850381725
  0
LINE
  8
ValleyLine
  6
CONTINUOUS
 62
5
 10
-150.7485380925375
 20
-48.97326850381725
 11
-216.02925696149381
 21
-70.09854533166211
  0
LINE
  8
ValleyLine
  6
CONTINUOUS
 62
5
 10
-216.02925696149381
 20
-70.09854533166211
 11
-270.3355443865704
 21
-87.19019325063043
  0
LINE
  8
ValleyLine
  6
CONTINUOUS
 62
5
 10
-270.3355443865704
 20
-87.19019325063043
 11
-313.46349062612694
 21
-98.90366929109672
  0
LINE
  8
ValleyLine
  6
CONTINUOUS
 62
5
 10
-313.46349062612694
 20
-98.90366929109672
 11
-346.90772902817343
 21
-104.156502418193
  0
LINE
  8
ValleyLine
  6
CONTINUOUS
 62
5
 10
-346.90772902817343
 20
-104.156502418193
 11
-378.0262929067331
 21
-101.86622159705124
  0
LINE
  8
ValleyLine
  6
CONTINUOUS
 62
5
 10
-378.0262929067331
 20
-101.86622159705124
 11
-420.983145558271
 21
-90.95035579280345
  0
LINE
  8
ValleyLine
  6
CONTINUOUS
 62
5
 10
-420.983145558271
 20
-90.95035579280345
 11
-487.1424284489092
 21
-70.32643397058168
  0
LINE
  8
ValleyLine
  6
CONTINUOUS
 62
5
 10
-487.1424284489092
 20
-70.32643397058168
 11
-566.234494439292
 21
-45.019400618562564
  0
LINE
  8
ValleyLine
  6
CONTINUOUS
 62
5
 10
-566.234494439292
 20
-45.019400618562564
 11
-644.0098051258312
 21
-20.05420022492284
  0
LINE
  8
ValleyLine
  6
CONTINUOUS
 62
5
 10
-644.0098051258312
 20
-20.05420022492284
 11
-716.9736626668027
 21
3.646218222713244
  0
LINE
  8
ValleyLine
  6
CONTINUOUS
 62
5
 10
-716.9736626668027
 20
3.646218222713244
 11
-771.1731706185324
 21
20.418822047194165
  0
LINE
  8
ValleyLine
  6
CONTINUOUS
 62
5
 10
-771.1731706185324
 20
20.418822047194165
 11
-804.5150576554327
 21
18.960334758108868
  0
LINE
  8
ValleyLine
  6
CONTINUOUS
 62
5
 10
-804.5150576554327
 20
18.960334758108868
 11
-853.2055590003422
 21
7.383591900994317
  0
LINE
  8
ValleyLine
  6
CONTINUOUS
 62
5
 10
-853.2055590003422
 20
7.383591900994317
 11
-891.5865205646824
 21
2.506775028115355
  0
LINE
  8
ValleyLine
  6
CONTINUOUS
 62
5
 10
-891.5865205646824
 20
2.506775028115355
 11
-1494.369834699151
 21
-44.483862317101575
  0
LINE
  8
ValleyLine
  6
CONTINUOUS
 62
5
 10
-1494.369834699151
 20
-44.483862317101575
 11
-1546.7419072004427
 21
-33.54520764896185
  0
LINE
  8
ValleyLine
  6
CONTINUOUS
 62
5
 10
-1546.7419072004427
 20
-33.54520764896185
 11
-1612.1189444676227
 21
-16.772603824480925
  0
LINE
  8
ValleyLine
  6
CONTINUOUS
 62
5
 10
-1612.1189444676227
 20
-16.772603824480925
 11
-1612.1189444676227
 21
-16.772603824480925
  0
LINE
  8
ValleyLine
  6
CONTINUOUS
 62
5
 10
-1612.1189444676227
 20
-16.772603824480925
 11
-1679.282235042917
 21
0.7292436445426488
  0
LINE
  8
ValleyLine
  6
CONTINUOUS
 62
5
 10
0.0
 20
-0.0
 11
0.0
 21
-0.0
  0
LINE
  8
MountainLine
  6
CONTINUOUS
 62
1
 10
0.0
 20
-0.0
 11
0.0
 21
-0.0
  0
LINE
  8
ValleyLine
  6
CONTINUOUS
 62
5
 10
0.0
 20
-0.0
 11
0.0
 21
-0.0
  0
LINE
  8
MountainLine
  6
CONTINUOUS
 62
1
 10
0.0
 20
-0.0
 11
0.0
 21
-0.0
  0
LINE
  8
ValleyLine
  6
CONTINUOUS
 62
5
 10
-19.362843891297437
 20
-6.289726434180346
 11
-19.362843891297437
 21
-6.291369355365549
  0
LINE
  8
MountainLine
  6
CONTINUOUS
 62
1
 10
-19.362843891297437
 20
-6.289726434180346
 11
-19.362843891297437
 21
6.291369355365549
  0
LINE
  8
ValleyLine
  6
CONTINUOUS
 62
5
 10
-77.45137556518975
 20
-25.158905736721383
 11
-77.45137556518975
 21
-25.165477421462196
  0
LINE
  8
MountainLine
  6
CONTINUOUS
 62
1
 10
-77.45137556518975
 20
-25.158905736721383
 11
-77.45137556518975
 21
25.165477421462196
  0
LINE
  8
ValleyLine
  6
CONTINUOUS
 62
5
 10
-150.7485380925375
 20
-48.97326850381725
 11
-150.7485380925375
 21
-48.98116920458198
  0
LINE
  8
MountainLine
  6
CONTINUOUS
 62
1
 10
-150.7485380925375
 20
-48.97326850381725
 11
-150.7485380925375
 21
48.98116920458198
  0
LINE
  8
ValleyLine
  6
CONTINUOUS
 62
5
 10
-216.02925696149381
 20
-70.09854533166211
 11
-216.02925696149381
 21
-70.19216054934903
  0
LINE
  8
MountainLine
  6
CONTINUOUS
 62
1
 10
-216.02925696149381
 20
-70.09854533166211
 11
-216.02925696149381
 21
70.19216054934903
  0
LINE
  8
ValleyLine
  6
CONTINUOUS
 62
5
 10
-270.3355443865704
 20
-87.19019325063043
 11
-270.3355443865704
 21
-87.8373429630418
  0
LINE
  8
MountainLine
  6
CONTINUOUS
 62
1
 10
-270.3355443865704
 20
-87.19019325063043
 11
-270.3355443865704
 21
87.8373429630418
  0
LINE
  8
ValleyLine
  6
CONTINUOUS
 62
5
 10
-313.46349062612694
 20
-98.90366929109672
 11
-313.46349062612694
 21
-101.85046215434764
  0
LINE
  8
MountainLine
  6
CONTINUOUS
 62
1
 10
-313.46349062612694
 20
-98.90366929109672
 11
-313.46349062612694
 21
101.85046215434764
  0
LINE
  8
ValleyLine
  6
CONTINUOUS
 62
5
 10
-346.90772902817343
 20
-104.156502418193
 11
-346.90772902817343
 21
-112.71715393668148
  0
LINE
  8
MountainLine
  6
CONTINUOUS
 62
1
 10
-346.90772902817343
 20
-104.156502418193
 11
-346.90772902817343
 21
112.71715393668148
  0
LINE
  8
ValleyLine
  6
CONTINUOUS
 62
5
 10
-378.0262929067331
 20
-101.86622159705124
 11
-378.0262929067331
 21
-122.82818825930738
  0
LINE
  8
MountainLine
  6
CONTINUOUS
 62
1
 10
-378.0262929067331
 20
-101.86622159705124
 11
-378.0262929067331
 21
122.82818825930738
  0
LINE
  8
ValleyLine
  6
CONTINUOUS
 62
5
 10
-420.983145558271
 20
-90.95035579280345
 11
-420.983145558271
 21
-136.78571577396679
  0
LINE
  8
MountainLine
  6
CONTINUOUS
 62
1
 10
-420.983145558271
 20
-90.95035579280345
 11
-420.983145558271
 21
136.78571577396679
  0
LINE
  8
ValleyLine
  6
CONTINUOUS
 62
5
 10
-487.1424284489092
 20
-70.32643397058168
 11
-487.1424284489092
 21
-158.28216987377985
  0
LINE
  8
MountainLine
  6
CONTINUOUS
 62
1
 10
-487.1424284489092
 20
-70.32643397058168
 11
-487.1424284489092
 21
158.28216987377985
  0
LINE
  8
ValleyLine
  6
CONTINUOUS
 62
5
 10
-566.234494439292
 20
-45.019400618562564
 11
-566.234494439292
 21
-183.98073992980804
  0
LINE
  8
MountainLine
  6
CONTINUOUS
 62
1
 10
-566.234494439292
 20
-45.019400618562564
 11
-566.234494439292
 21
183.98073992980804
  0
LINE
  8
ValleyLine
  6
CONTINUOUS
 62
5
 10
-644.0098051258312
 20
-20.05420022492284
 11
-644.0098051258312
 21
-209.25147025249825
  0
LINE
  8
MountainLine
  6
CONTINUOUS
 62
1
 10
-644.0098051258312
 20
-20.05420022492284
 11
-644.0098051258312
 21
209.25147025249825
  0
LINE
  8
MountainLine
  6
CONTINUOUS
 62
1
 10
-716.9736626668027
 20
3.646218222713244
 11
-716.9736626668027
 21
-232.95886468069173
  0
LINE
  8
ValleyLine
  6
CONTINUOUS
 62
5
 10
-716.9736626668027
 20
3.646218222713244
 11
-716.9736626668027
 21
232.95886468069173
  0
LINE
  8
MountainLine
  6
CONTINUOUS
 62
1
 10
-771.1731706185324
 20
20.418822047194165
 11
-771.1731706185324
 21
-250.56935234034077
  0
LINE
  8
ValleyLine
  6
CONTINUOUS
 62
5
 10
-771.1731706185324
 20
20.418822047194165
 11
-771.1731706185324
 21
250.56935234034077
  0
LINE
  8
MountainLine
  6
CONTINUOUS
 62
1
 10
-804.5150576554327
 20
18.960334758108868
 11
-804.5150576554327
 21
-261.4027881482023
  0
LINE
  8
ValleyLine
  6
CONTINUOUS
 62
5
 10
-804.5150576554327
 20
18.960334758108868
 11
-804.5150576554327
 21
261.4027881482023
  0
LINE
  8
ValleyLine
  6
CONTINUOUS
 62
5
 10
-853.2055590003422
 20
7.383591900994317
 11
-853.2055590003422
 21
-277.2232910546182
  0
LINE
  8
MountainLine
  6
CONTINUOUS
 62
1
 10
-853.2055590003422
 20
7.383591900994317
 11
-853.2055590003422
 21
277.2232910546182
  0
LINE
  8
ValleyLine
  6
CONTINUOUS
 62
5
 10
-891.5865205646824
 20
2.506775028115355
 11
-891.5865205646824
 21
-289.69402142723044
  0
LINE
  8
MountainLine
  6
CONTINUOUS
 62
1
 10
-891.5865205646824
 20
2.506775028115355
 11
-891.5865205646824
 21
289.69402142723044
  0
LINE
  8
ValleyLine
  6
CONTINUOUS
 62
5
 10
-1494.369834699151
 20
-44.483862317101575
 11
-1494.369834699151
 21
-485.55019275006657
  0
LINE
  8
MountainLine
  6
CONTINUOUS
 62
1
 10
-1494.369834699151
 20
-44.483862317101575
 11
-1494.369834699151
 21
485.55019275006657
  0
LINE
  8
ValleyLine
  6
CONTINUOUS
 62
5
 10
-1546.7419072004427
 20
-33.54520764896185
 11
-1546.7419072004427
 21
-502.566910638274
  0
LINE
  8
MountainLine
  6
CONTINUOUS
 62
1
 10
-1546.7419072004427
 20
-33.54520764896185
 11
-1546.7419072004427
 21
502.566910638274
  0
LINE
  8
ValleyLine
  6
CONTINUOUS
 62
5
 10
-1612.1189444676227
 20
-16.772603824480925
 11
-1612.1189444676227
 21
-523.8091977277335
  0
LINE
  8
MountainLine
  6
CONTINUOUS
 62
1
 10
-1612.1189444676227
 20
-16.772603824480925
 11
-1612.1189444676227
 21
523.8091977277335
  0
LINE
  8
ValleyLine
  6
CONTINUOUS
 62
5
 10
-1612.1189444676227
 20
-16.772603824480925
 11
-1612.1189444676227
 21
-523.8091977277335
  0
LINE
  8
MountainLine
  6
CONTINUOUS
 62
1
 10
-1612.1189444676227
 20
-16.772603824480925
 11
-1612.1189444676227
 21
523.8091977277335
  0
LINE
  8
ValleyLine
  6
CONTINUOUS
 62
5
 10
0.0
 20
-0.0
 11
0.0
 21
-0.0
  0
LINE
  8
ValleyLine
  6
CONTINUOUS
 62
5
 10
0.0
 20
-0.0
 11
-11.967861328523433
 21
-16.46968965696728
  0
LINE
  8
ValleyLine
  6
CONTINUOUS
 62
5
 10
-11.967861328523433
 20
-16.46968965696728
 11
-47.871445314093734
 21
-65.87875862786912
  0
LINE
  8
ValleyLine
  6
CONTINUOUS
 62
5
 10
-47.871445314093734
 20
-65.87875862786912
 11
-93.17236421093871
 21
-128.22797398511918
  0
LINE
  8
ValleyLine
  6
CONTINUOUS
 62
5
 10
-93.17236421093871
 20
-128.22797398511918
 11
-133.56844901093456
 21
-183.68972575994442
  0
LINE
  8
ValleyLine
  6
CONTINUOUS
 62
5
 10
-133.56844901093456
 20
-183.68972575994442
 11
-167.45693985508709
 21
-229.43759424347917
  0
LINE
  8
ValleyLine
  6
CONTINUOUS
 62
5
 10
-167.45693985508709
 20
-229.43759424347917
 11
-195.46317282571013
 21
-264.26396618469414
  0
LINE
  8
ValleyLine
  6
CONTINUOUS
 62
5
 10
-195.46317282571013
 20
-264.26396618469414
 11
-219.43259221203243
 21
-288.17162756000727
  0
LINE
  8
ValleyLine
  6
CONTINUOUS
 62
5
 10
-219.43259221203243
 20
-288.17162756000727
 11
-245.95423252060496
 21
-304.6097843741512
  0
LINE
  8
ValleyLine
  6
CONTINUOUS
 62
5
 10
-245.95423252060496
 20
-304.6097843741512
 11
-287.12324127630023
 21
-321.0280679036732
  0
LINE
  8
ValleyLine
  6
CONTINUOUS
 62
5
 10
-287.12324127630023
 20
-321.0280679036732
 11
-352.7696625620211
 21
-343.2304154441983
  0
LINE
  8
ValleyLine
  6
CONTINUOUS
 62
5
 10
-352.7696625620211
 20
-343.2304154441983
 11
-431.63158905205614
 21
-369.2457453476914
  0
LINE
  8
ValleyLine
  6
CONTINUOUS
 62
5
 10
-431.63158905205614
 20
-369.2457453476914
 11
-509.2273137521655
 21
-394.7636545752736
  0
LINE
  8
ValleyLine
  6
CONTINUOUS
 62
5
 10
-509.2273137521655
 20
-394.7636545752736
 11
-582.187070914645
 21
-418.4766926902905
  0
LINE
  8
ValleyLine
  6
CONTINUOUS
 62
5
 10
-582.187070914645
 20
-418.4766926902905
 11
-635.8940831049288
 21
-436.7650426119026
  0
LINE
  8
ValleyLine
  6
CONTINUOUS
 62
5
 10
-635.8940831049288
 20
-436.7650426119026
 11
-662.0109590231305
 21
-457.542853098744
  0
LINE
  8
ValleyLine
  6
CONTINUOUS
 62
5
 10
-662.0109590231305
 20
-457.542853098744
 11
-694.5977633548043
 21
-495.52819342692305
  0
LINE
  8
ValleyLine
  6
CONTINUOUS
 62
5
 10
-694.5977633548043
 20
-495.52819342692305
 11
-722.7820924847979
 21
-522.03338433186
  0
LINE
  8
ValleyLine
  6
CONTINUOUS
 62
5
 10
-722.7820924847979
 20
-522.03338433186
 11
-1182.823633917893
 21
-914.3567508968724
  0
LINE
  8
ValleyLine
  6
CONTINUOUS
 62
5
 10
-1182.823633917893
 20
-914.3567508968724
 11
-1231.6231104959277
 21
-936.290725223
  0
LINE
  8
ValleyLine
  6
CONTINUOUS
 62
5
 10
-1231.6231104959277
 20
-936.290725223
 11
-1294.3729338575347
 21
-961.1490620333003
  0
LINE
  8
ValleyLine
  6
CONTINUOUS
 62
5
 10
-1294.3729338575347
 20
-961.1490620333003
 11
-1294.3729338575347
 21
-961.1490620333003
  0
LINE
  8
ValleyLine
  6
CONTINUOUS
 62
5
 10
-1294.3729338575347
 20
-961.1490620333003
 11
-1358.9965051612546
 21
-986.467361693494
  0
LINE
  8
ValleyLine
  6
CONTINUOUS
 62
5
 10
0.0
 20
-0.0
 11
0.0
 21
-0.0
  0
LINE
  8
MountainLine
  6
CONTINUOUS
 62
1
 10
0.0
 20
-0.0
 11
0.0
 21
-0.0
  0
LINE
  8
ValleyLine
  6
CONTINUOUS
 62
5
 10
0.0
 20
-0.0
 11
0.0
 21
-0.0
  0
LINE
  8
MountainLine
  6
CONTINUOUS
 62
1
 10
0.0
 20
-0.0
 11
0.0
 21
-0.0
  0
LINE
  8
ValleyLine
  6
CONTINUOUS
 62
5
 10
-11.967861328523433
 20
-16.46968965696728
 11
-11.966895643680092
 21
-16.471018808126523
  0
LINE
  8
MountainLine
  6
CONTINUOUS
 62
1
 10
-11.967861328523433
 20
-16.46968965696728
 11
-19.362843891297437
 21
-6.291369355365551
  0
LINE
  8
ValleyLine
  6
CONTINUOUS
 62
5
 10
-47.871445314093734
 20
-65.87875862786912
 11
-47.867582574720366
 21
-65.88407523250609
  0
LINE
  8
MountainLine
  6
CONTINUOUS
 62
1
 10
-47.871445314093734
 20
-65.87875862786912
 11
-77.45137556518975
 21
-25.165477421462203
  0
LINE
  8
ValleyLine
  6
CONTINUOUS
 62
5
 10
-93.17236421093871
 20
-128.22797398511918
 11
-93.16772029554642
 21
-128.2343657863053
  0
LINE
  8
MountainLine
  6
CONTINUOUS
 62
1
 10
-93.17236421093871
 20
-128.22797398511918
 11
-150.7485380925375
 21
-48.981169204581995
  0
LINE
  8
ValleyLine
  6
CONTINUOUS
 62
5
 10
-133.56844901093456
 20
-183.68972575994442
 11
-133.51342336658803
 21
-183.76546206198526
  0
LINE
  8
MountainLine
  6
CONTINUOUS
 62
1
 10
-133.56844901093456
 20
-183.68972575994442
 11
-216.02925696149381
 21
-70.19216054934904
  0
LINE
  8
ValleyLine
  6
CONTINUOUS
 62
5
 10
-167.45693985508709
 20
-229.43759424347917
 11
-167.07655479810634
 21
-229.96114935872487
  0
LINE
  8
MountainLine
  6
CONTINUOUS
 62
1
 10
-167.45693985508709
 20
-229.43759424347917
 11
-270.3355443865704
 21
-87.83734296304182
  0
LINE
  8
ValleyLine
  6
CONTINUOUS
 62
5
 10
-195.46317282571013
 20
-264.26396618469414
 11
-193.73109143913055
 21
-266.647971689967
  0
LINE
  8
MountainLine
  6
CONTINUOUS
 62
1
 10
-195.46317282571013
 20
-264.26396618469414
 11
-313.46349062612694
 21
-101.85046215434765
  0
LINE
  8
ValleyLine
  6
CONTINUOUS
 62
5
 10
-219.43259221203243
 20
-288.17162756000727
 11
-214.40076749944976
 21
-295.09734012138614
  0
LINE
  8
MountainLine
  6
CONTINUOUS
 62
1
 10
-219.43259221203243
 20
-288.17162756000727
 11
-346.90772902817343
 21
-112.71715393668148
  0
LINE
  8
ValleyLine
  6
CONTINUOUS
 62
5
 10
-245.95423252060496
 20
-304.6097843741512
 11
-233.63309765748434
 21
-321.56837163943754
  0
LINE
  8
MountainLine
  6
CONTINUOUS
 62
1
 10
-245.95423252060496
 20
-304.6097843741512
 11
-378.0262929067331
 21
-122.82818825930741
  0
LINE
  8
ValleyLine
  6
CONTINUOUS
 62
5
 10
-287.12324127630023
 20
-321.0280679036732
 11
-260.18189264585584
 21
-358.10965307172773
  0
LINE
  8
MountainLine
  6
CONTINUOUS
 62
1
 10
-287.12324127630023
 20
-321.0280679036732
 11
-420.983145558271
 21
-136.78571577396684
  0
LINE
  8
ValleyLine
  6
CONTINUOUS
 62
5
 10
-352.7696625620211
 20
-343.2304154441983
 11
-301.0705781435896
 21
-414.38810054264036
  0
LINE
  8
MountainLine
  6
CONTINUOUS
 62
1
 10
-352.7696625620211
 20
-343.2304154441983
 11
-487.1424284489092
 21
-158.2821698737799
  0
LINE
  8
ValleyLine
  6
CONTINUOUS
 62
5
 10
-431.63158905205614
 20
-369.2457453476914
 11
-349.95216316609583
 21
-481.66783041159243
  0
LINE
  8
MountainLine
  6
CONTINUOUS
 62
1
 10
-431.63158905205614
 20
-369.2457453476914
 11
-566.234494439292
 21
-183.9807399298081
  0
LINE
  8
ValleyLine
  6
CONTINUOUS
 62
5
 10
-509.2273137521655
 20
-394.7636545752736
 11
-398.0199486559599
 21
-547.827461316928
  0
LINE
  8
MountainLine
  6
CONTINUOUS
 62
1
 10
-509.2273137521655
 20
-394.7636545752736
 11
-644.0098051258312
 21
-209.2514702524983
  0
LINE
  8
MountainLine
  6
CONTINUOUS
 62
1
 10
-582.187070914645
 20
-418.4766926902905
 11
-443.1140925665856
 21
-609.8942257146385
  0
LINE
  8
ValleyLine
  6
CONTINUOUS
 62
5
 10
-582.187070914645
 20
-418.4766926902905
 11
-716.9736626668027
 21
-232.95886468069182
  0
LINE
  8
MountainLine
  6
CONTINUOUS
 62
1
 10
-635.8940831049288
 20
-436.7650426119026
 11
-476.6112306542748
 21
-655.9990809660602
  0
LINE
  8
ValleyLine
  6
CONTINUOUS
 62
5
 10
-635.8940831049288
 20
-436.7650426119026
 11
-771.1731706185324
 21
-250.56935234034083
  0
LINE
  8
MountainLine
  6
CONTINUOUS
 62
1
 10
-662.0109590231305
 20
-457.542853098744
 11
-497.21765009213874
 21
-684.3613841259819
  0
LINE
  8
ValleyLine
  6
CONTINUOUS
 62
5
 10
-662.0109590231305
 20
-457.542853098744
 11
-804.5150576554327
 21
-261.4027881482023
  0
LINE
  8
ValleyLine
  6
CONTINUOUS
 62
5
 10
-694.5977633548043
 20
-495.52819342692305
 11
-527.3100348525652
 21
-725.7799984540951
  0
LINE
  8
MountainLine
  6
CONTINUOUS
 62
1
 10
-694.5977633548043
 20
-495.52819342692305
 11
-853.2055590003422
 21
-277.2232910546182
  0
LINE
  8
ValleyLine
  6
CONTINUOUS
 62
5
 10
-722.7820924847979
 20
-522.03338433186
 11
-551.0307736202308
 21
-758.4287944341296
  0
LINE
  8
MountainLine
  6
CONTINUOUS
 62
1
 10
-722.7820924847979
 20
-522.03338433186
 11
-891.5865205646824
 21
-289.6940214272305
  0
LINE
  8
ValleyLine
  6
CONTINUOUS
 62
5
 10
-1182.823633917893
 20
-914.3567508968724
 11
-923.5713496066372
 21
-1271.1869078637371
  0
LINE
  8
MountainLine
  6
CONTINUOUS
 62
1
 10
-1182.823633917893
 20
-914.3567508968724
 11
-1494.369834699151
 21
-485.5501927500667
  0
LINE
  8
ValleyLine
  6
CONTINUOUS
 62
5
 10
-1231.6231104959277
 20
-936.290725223
 11
-955.9390704737094
 21
-1315.7372536720325
  0
LINE
  8
MountainLine
  6
CONTINUOUS
 62
1
 10
-1231.6231104959277
 20
-936.290725223
 11
-1546.7419072004427
 21
-502.56691063827407
  0
LINE
  8
ValleyLine
  6
CONTINUOUS
 62
5
 10
-1294.3729338575347
 20
-961.1490620333003
 11
-996.3443015885953
 21
-1371.3502832710205
  0
LINE
  8
MountainLine
  6
CONTINUOUS
 62
1
 10
-1294.3729338575347
 20
-961.1490620333003
 11
-1612.1189444676227
 21
-523.8091977277335
  0
LINE
  8
ValleyLine
  6
CONTINUOUS
 62
5
 10
-1294.3729338575347
 20
-961.1490620333003
 11
-996.3443015885953
 21
-1371.3502832710205
  0
LINE
  8
MountainLine
  6
CONTINUOUS
 62
1
 10
-1294.3729338575347
 20
-961.1490620333003
 11
-1612.1189444676227
 21
-523.8091977277335
  0
LINE
  8
ValleyLine
  6
CONTINUOUS
 62
5
 10
0.0
 20
-0.0
 11
0.0
 21
-0.0
  0
LINE
  8
ValleyLine
  6
CONTINUOUS
 62
5
 10
0.0
 20
-0.0
 11
-0.0015625108989489938
 21
-20.358791214955303
  0
LINE
  8
ValleyLine
  6
CONTINUOUS
 62
5
 10
-0.0015625108989489938
 20
-20.358791214955303
 11
-0.006250043595795975
 21
-81.43516485982121
  0
LINE
  8
ValleyLine
  6
CONTINUOUS
 62
5
 10
-0.006250043595795975
 20
-81.43516485982121
 11
-0.0075140129456095885
 21
-158.50395171264284
  0
LINE
  8
ValleyLine
  6
CONTINUOUS
 62
5
 10
-0.0075140129456095885
 20
-158.50395171264284
 11
-0.08903336280555994
 21
-227.11767433207513
  0
LINE
  8
ValleyLine
  6
CONTINUOUS
 62
5
 10
-0.08903336280555994
 20
-227.11767433207513
 11
-0.6154759510074008
 21
-284.04763253232613
  0
LINE
  8
ValleyLine
  6
CONTINUOUS
 62
5
 10
-0.6154759510074008
 20
-284.04763253232613
 11
-2.8025665547668606
 21
-328.68440999759133
  0
LINE
  8
ValleyLine
  6
CONTINUOUS
 62
5
 10
-2.8025665547668606
 20
-328.68440999759133
 11
-8.141663410390493
 21
-362.1149855672747
  0
LINE
  8
ValleyLine
  6
CONTINUOUS
 62
5
 10
-8.141663410390493
 20
-362.1149855672747
 11
-19.93601498850052
 21
-391.002762826102
  0
LINE
  8
ValleyLine
  6
CONTINUOUS
 62
5
 10
-19.93601498850052
 20
-391.002762826102
 11
-43.59201778681952
 21
-428.483969418049
  0
LINE
  8
ValleyLine
  6
CONTINUOUS
 62
5
 10
-43.59201778681952
 20
-428.483969418049
 11
-83.65087577627226
 21
-485.03204419087797
  0
LINE
  8
ValleyLine
  6
CONTINUOUS
 62
5
 10
-83.65087577627226
 20
-485.03204419087797
 11
-132.16008726506192
 21
-552.4327655552904
  0
LINE
  8
ValleyLine
  6
CONTINUOUS
 62
5
 10
-132.16008726506192
 20
-552.4327655552904
 11
-179.9372965249794
 21
-618.6868104009928
  0
LINE
  8
ValleyLine
  6
CONTINUOUS
 62
5
 10
-179.9372965249794
 20
-618.6868104009928
 11
-225.02480588383838
 21
-680.7557304952479
  0
LINE
  8
ValleyLine
  6
CONTINUOUS
 62
5
 10
-225.02480588383838
 20
-680.7557304952479
 11
-257.7250690901926
 21
-727.1195060910485
  0
LINE
  8
ValleyLine
  6
CONTINUOUS
 62
5
 10
-257.7250690901926
 20
-727.1195060910485
 11
-266.6411749689063
 21
-759.2802223814766
  0
LINE
  8
ValleyLine
  6
CONTINUOUS
 62
5
 10
-266.6411749689063
 20
-759.2802223814766
 11
-270.6772306173874
 21
-809.1650512495881
  0
LINE
  8
ValleyLine
  6
CONTINUOUS
 62
5
 10
-270.6772306173874
 20
-809.1650512495881
 11
-277.8994715354905
 21
-847.1745341392017
  0
LINE
  8
ValleyLine
  6
CONTINUOUS
 62
5
 10
-277.8994715354905
 20
-847.1745341392017
 11
-419.47900767666283
 21
-1434.9764384769587
  0
LINE
  8
ValleyLine
  6
CONTINUOUS
 62
5
 10
-419.47900767666283
 20
-1434.9764384769587
 11
-446.0661469118355
 21
-1481.4050091131405
  0
LINE
  8
ValleyLine
  6
CONTINUOUS
 62
5
 10
-446.0661469118355
 20
-1481.4050091131405
 11
-482.2204566317879
 21
-1538.3992468004801
  0
LINE
  8
ValleyLine
  6
CONTINUOUS
 62
5
 10
-482.2204566317879
 20
-1538.3992468004801
 11
-482.2204566317879
 21
-1538.3992468004801
  0
LINE
  8
ValleyLine
  6
CONTINUOUS
 62
5
 10
-482.2204566317879
 20
-1538.3992468004801
 11
-519.6203009003153
 21
-1596.866963657052
  0
LINE
  8
ValleyLine
  6
CONTINUOUS
 62
5
 10
0.0
 20
-0.0
 11
0.0
 21
-0.0
  0
LINE
  8
MountainLine
  6
CONTINUOUS
 62
1
 10
0.0
 20
-0.0
 11
0.0
 21
-0.0
  0
LINE
  8
ValleyLine
  6
CONTINUOUS
 62
5
 10
0.0
 20
-0.0
 11
0.0
 21
-0.0
  0
LINE
  8
MountainLine
  6
CONTINUOUS
 62
1
 10
0.0
 20
-0.0
 11
0.0
 21
-0.0
  0
LINE
  8
ValleyLine
  6
CONTINUOUS
 62
5
 10
-0.0015625108989489938
 20
-20.358791214955303
 11
-1.5719972030090713E-15
 21
-20.359298905521953
  0
LINE
  8
MountainLine
  6
CONTINUOUS
 62
1
 10
-0.0015625108989489938
 20
-20.358791214955303
 11
-11.966895643680092
 21
-16.471018808126523
  0
LINE
  8
ValleyLine
  6
CONTINUOUS
 62
5
 10
-0.006250043595795975
 20
-81.43516485982121
 11
-6.287988812036285E-15
 21
-81.43719562208781
  0
LINE
  8
MountainLine
  6
CONTINUOUS
 62
1
 10
-0.006250043595795975
 20
-81.43516485982121
 11
-47.867582574720366
 21
-65.88407523250609
  0
LINE
  8
ValleyLine
  6
CONTINUOUS
 62
5
 10
-0.0075140129456095885
 20
-158.50395171264284
 11
-1.257597762407257E-14
 21
-158.50639316344663
  0
LINE
  8
MountainLine
  6
CONTINUOUS
 62
1
 10
-0.0075140129456095885
 20
-158.50395171264284
 11
-93.16772029554642
 21
-128.2343657863053
  0
LINE
  8
ValleyLine
  6
CONTINUOUS
 62
5
 10
-0.08903336280555994
 20
-227.11767433207513
 11
-2.515195524814514E-14
 21
-227.14660302527247
  0
LINE
  8
MountainLine
  6
CONTINUOUS
 62
1
 10
-0.08903336280555994
 20
-227.11767433207513
 11
-133.51342336658803
 21
-183.76546206198526
  0
LINE
  8
ValleyLine
  6
CONTINUOUS
 62
5
 10
-0.6154759510074008
 20
-284.04763253232613
 11
-2.515195524814514E-14
 21
-284.2476127913661
  0
LINE
  8
MountainLine
  6
CONTINUOUS
 62
1
 10
-0.6154759510074008
 20
-284.04763253232613
 11
-167.07655479810634
 21
-229.96114935872487
  0
LINE
  8
ValleyLine
  6
CONTINUOUS
 62
5
 10
-2.8025665547668606
 20
-328.68440999759133
 11
-2.515195524814514E-14
 21
-329.59501907123865
  0
LINE
  8
MountainLine
  6
CONTINUOUS
 62
1
 10
-2.8025665547668606
 20
-328.68440999759133
 11
-193.73109143913052
 21
-266.647971689967
  0
LINE
  8
ValleyLine
  6
CONTINUOUS
 62
5
 10
-8.141663410390493
 20
-362.1149855672747
 11
-1.257597762407257E-14
 21
-364.76037236940937
  0
LINE
  8
MountainLine
  6
CONTINUOUS
 62
1
 10
-8.141663410390493
 20
-362.1149855672747
 11
-214.4007674994497
 21
-295.09734012138614
  0
LINE
  8
ValleyLine
  6
CONTINUOUS
 62
5
 10
-19.93601498850052
 20
-391.002762826102
 11
-2.515195524814514E-14
 21
-397.48036676026027
  0
LINE
  8
MountainLine
  6
CONTINUOUS
 62
1
 10
-19.93601498850052
 20
-391.002762826102
 11
-233.63309765748434
 21
-321.56837163943754
  0
LINE
  8
ValleyLine
  6
CONTINUOUS
 62
5
 10
-43.59201778681952
 20
-428.483969418049
 11
-2.515195524814514E-14
 21
-442.64787459552184
  0
LINE
  8
MountainLine
  6
CONTINUOUS
 62
1
 10
-43.59201778681952
 20
-428.483969418049
 11
-260.18189264585584
 21
-358.10965307172773
  0
LINE
  8
ValleyLine
  6
CONTINUOUS
 62
5
 10
-83.65087577627226
 20
-485.03204419087797
 11
-5.030391049629028E-14
 21
-512.211861337721
  0
LINE
  8
MountainLine
  6
CONTINUOUS
 62
1
 10
-83.65087577627226
 20
-485.03204419087797
 11
-301.0705781435896
 21
-414.38810054264036
  0
LINE
  8
ValleyLine
  6
CONTINUOUS
 62
5
 10
-132.16008726506192
 20
-552.4327655552904
 11
-5.030391049629028E-14
 21
-595.3741809635687
  0
LINE
  8
MountainLine
  6
CONTINUOUS
 62
1
 10
-132.16008726506192
 20
-552.4327655552904
 11
-349.95216316609583
 21
-481.66783041159243
  0
LINE
  8
ValleyLine
  6
CONTINUOUS
 62
5
 10
-179.9372965249794
 20
-618.6868104009928
 11
-5.030391049629028E-14
 21
-677.1519821288595
  0
LINE
  8
MountainLine
  6
CONTINUOUS
 62
1
 10
-179.9372965249794
 20
-618.6868104009928
 11
-398.0199486559599
 21
-547.8274613169281
  0
LINE
  8
MountainLine
  6
CONTINUOUS
 62
1
 10
-225.02480588383838
 20
-680.7557304952479
 11
-7.545586574443542E-14
 21
-753.8707220678934
  0
LINE
  8
ValleyLine
  6
CONTINUOUS
 62
5
 10
-225.02480588383838
 20
-680.7557304952479
 11
-443.1140925665856
 21
-609.8942257146385
  0
LINE
  8
MountainLine
  6
CONTINUOUS
 62
1
 10
-257.7250690901926
 20
-727.1195060910485
 11
-5.030391049629028E-14
 21
-810.8594572514387
  0
LINE
  8
ValleyLine
  6
CONTINUOUS
 62
5
 10
-257.7250690901926
 20
-727.1195060910485
 11
-476.6112306542748
 21
-655.9990809660601
  0
LINE
  8
MountainLine
  6
CONTINUOUS
 62
1
 10
-266.6411749689063
 20
-759.2802223814766
 11
-5.030391049629028E-14
 21
-845.9171919555589
  0
LINE
  8
ValleyLine
  6
CONTINUOUS
 62
5
 10
-266.6411749689063
 20
-759.2802223814766
 11
-497.21765009213874
 21
-684.3613841259818
  0
LINE
  8
ValleyLine
  6
CONTINUOUS
 62
5
 10
-270.6772306173874
 20
-809.1650512495881
 11
-5.030391049629028E-14
 21
-897.113414798954
  0
LINE
  8
MountainLine
  6
CONTINUOUS
 62
1
 10
-270.6772306173874
 20
-809.1650512495881
 11
-527.3100348525652
 21
-725.7799984540951
  0
LINE
  8
ValleyLine
  6
CONTINUOUS
 62
5
 10
-277.8994715354905
 20
-847.1745341392017
 11
-1.0060782099258056E-13
 21
-937.4695460137985
  0
LINE
  8
MountainLine
  6
CONTINUOUS
 62
1
 10
-277.8994715354905
 20
-847.1745341392017
 11
-551.0307736202308
 21
-758.4287944341297
  0
LINE
  8
ValleyLine
  6
CONTINUOUS
 62
5
 10
-419.47900767666283
 20
-1434.9764384769587
 11
-1.0060782099258056E-13
 21
-1571.273430227341
  0
LINE
  8
MountainLine
  6
CONTINUOUS
 62
1
 10
-419.47900767666283
 20
-1434.9764384769587
 11
-923.5713496066372
 21
-1271.1869078637371
  0
LINE
  8
ValleyLine
  6
CONTINUOUS
 62
5
 10
-446.0661469118355
 20
-1481.4050091131405
 11
-1.0060782099258056E-13
 21
-1626.3406860675173
  0
LINE
  8
MountainLine
  6
CONTINUOUS
 62
1
 10
-446.0661469118355
 20
-1481.4050091131405
 11
-955.9390704737092
 21
-1315.7372536720325
  0
LINE
  8
ValleyLine
  6
CONTINUOUS
 62
5
 10
-482.2204566317879
 20
-1538.3992468004801
 11
-1.0060782099258056E-13
 21
-1695.082171086574
  0
LINE
  8
MountainLine
  6
CONTINUOUS
 62
1
 10
-482.2204566317879
 20
-1538.3992468004801
 11
-996.3443015885948
 21
-1371.3502832710205
  0
LINE
  8
ValleyLine
  6
CONTINUOUS
 62
5
 10
-482.2204566317879
 20
-1538.3992468004801
 11
-1.0060782099258056E-13
 21
-1695.082171086574
  0
LINE
  8
MountainLine
  6
CONTINUOUS
 62
1
 10
-482.2204566317879
 20
-1538.3992468004801
 11
-996.3443015885948
 21
-1371.3502832710205
  0
LINE
  8
ValleyLine
  6
CONTINUOUS
 62
5
 10
0.0
 20
-0.0
 11
0.0
 21
-0.0
  0
LINE
  8
ValleyLine
  6
CONTINUOUS
 62
5
 10
0.0
 20
-0.0
 11
11.965333132781142
 21
-16.471526498693173
  0
LINE
  8
ValleyLine
  6
CONTINUOUS
 62
5
 10
11.965333132781142
 20
-16.471526498693173
 11
47.86133253112457
 21
-65.88610599477269
  0
LINE
  8
ValleyLine
  6
CONTINUOUS
 62
5
 10
47.86133253112457
 20
-65.88610599477269
 11
93.1602062826008
 21
-128.23680723710908
  0
LINE
  8
ValleyLine
  6
CONTINUOUS
 62
5
 10
93.1602062826008
 20
-128.23680723710908
 11
133.42439000378246
 21
-183.79439075518266
  0
LINE
  8
ValleyLine
  6
CONTINUOUS
 62
5
 10
133.42439000378246
 20
-183.79439075518266
 11
166.46107884709892
 21
-230.16112961776486
  0
LINE
  8
ValleyLine
  6
CONTINUOUS
 62
5
 10
166.46107884709892
 20
-230.16112961776486
 11
190.92852488436367
 21
-267.5585807636143
  0
LINE
  8
ValleyLine
  6
CONTINUOUS
 62
5
 10
190.92852488436367
 20
-267.5585807636143
 11
206.2591040890592
 21
-297.7427269235208
  0
LINE
  8
ValleyLine
  6
CONTINUOUS
 62
5
 10
206.2591040890592
 20
-297.7427269235208
 11
213.69708266898382
 21
-328.04597557359585
  0
LINE
  8
ValleyLine
  6
CONTINUOUS
 62
5
 10
213.69708266898382
 20
-328.04597557359585
 11
216.58987485903629
 21
-372.2735582492006
  0
LINE
  8
ValleyLine
  6
CONTINUOUS
 62
5
 10
216.58987485903629
 20
-372.2735582492006
 11
217.41970236731729
 21
-441.5679176894834
  0
LINE
  8
ValleyLine
  6
CONTINUOUS
 62
5
 10
217.41970236731729
 20
-441.5679176894834
 11
217.79207590103383
 21
-524.6092458198708
  0
LINE
  8
ValleyLine
  6
CONTINUOUS
 62
5
 10
217.79207590103383
 20
-524.6092458198708
 11
218.0826521309805
 21
-606.2926330447948
  0
LINE
  8
ValleyLine
  6
CONTINUOUS
 62
5
 10
218.0826521309805
 20
-606.2926330447948
 11
218.0892866827472
 21
-683.0092172872841
  0
LINE
  8
ValleyLine
  6
CONTINUOUS
 62
5
 10
218.0892866827472
 20
-683.0092172872841
 11
218.88616156408216
 21
-739.7390321264504
  0
LINE
  8
ValleyLine
  6
CONTINUOUS
 62
5
 10
218.88616156408216
 20
-739.7390321264504
 11
230.57647512323237
 21
-770.9983537000642
  0
LINE
  8
ValleyLine
  6
CONTINUOUS
 62
5
 10
230.57647512323237
 20
-770.9983537000642
 11
256.6328042351778
 21
-813.7283620034611
  0
LINE
  8
ValleyLine
  6
CONTINUOUS
 62
5
 10
256.6328042351778
 20
-813.7283620034611
 11
273.13130208474024
 21
-848.7238063087266
  0
LINE
  8
ValleyLine
  6
CONTINUOUS
 62
5
 10
273.13130208474024
 20
-848.7238063087266
 11
504.09234192997434
 21
-1407.4838996141193
  0
LINE
  8
ValleyLine
  6
CONTINUOUS
 62
5
 10
504.09234192997434
 20
-1407.4838996141193
 11
509.87292356187373
 21
-1460.6729306264094
  0
LINE
  8
ValleyLine
  6
CONTINUOUS
 62
5
 10
509.87292356187373
 20
-1460.6729306264094
 11
514.123844956807
 21
-1528.0332075571146
  0
LINE
  8
ValleyLine
  6
CONTINUOUS
 62
5
 10
514.123844956807
 20
-1528.0332075571146
 11
514.123844956807
 21
-1528.0332075571146
  0
LINE
  8
ValleyLine
  6
CONTINUOUS
 62
5
 10
514.123844956807
 20
-1528.0332075571146
 11
518.2331970600969
 21
-1597.3176610154594
  0
LINE
  8
ValleyLine
  6
CONTINUOUS
 62
5
 10
0.0
 20
-0.0
 11
0.0
 21
-0.0
  0
LINE
  8
MountainLine
  6
CONTINUOUS
 62
1
 10
0.0
 20
-0.0
 11
0.0
 21
-0.0
  0
LINE
  8
ValleyLine
  6
CONTINUOUS
 62
5
 10
0.0
 20
-0.0
 11
0.0
 21
-0.0
  0
LINE
  8
MountainLine
  6
CONTINUOUS
 62
1
 10
0.0
 20
-0.0
 11
0.0
 21
-0.0
  0
LINE
  8
ValleyLine
  6
CONTINUOUS
 62
5
 10
11.965333132781142
 20
-16.471526498693173
 11
11.966895643680088
 21
-16.471018808126527
  0
LINE
  8
MountainLine
  6
CONTINUOUS
 62
1
 10
11.965333132781142
 20
-16.471526498693173
 11
-7.859986015045356E-16
 21
-20.35929890552195
  0
LINE
  8
ValleyLine
  6
CONTINUOUS
 62
5
 10
47.86133253112457
 20
-65.88610599477269
 11
47.86758257472035
 21
-65.8840752325061
  0
LINE
  8
MountainLine
  6
CONTINUOUS
 62
1
 10
47.86133253112457
 20
-65.88610599477269
 11
-3.1439944060181426E-15
 21
-81.4371956220878
  0
LINE
  8
ValleyLine
  6
CONTINUOUS
 62
5
 10
93.1602062826008
 20
-128.23680723710908
 11
93.1677202955464
 21
-128.2343657863053
  0
LINE
  8
MountainLine
  6
CONTINUOUS
 62
1
 10
93.1602062826008
 20
-128.23680723710908
 11
-1.257597762407257E-14
 21
-158.50639316344663
  0
LINE
  8
ValleyLine
  6
CONTINUOUS
 62
5
 10
133.42439000378246
 20
-183.79439075518266
 11
133.51342336658803
 21
-183.7654620619853
  0
LINE
  8
MountainLine
  6
CONTINUOUS
 62
1
 10
133.42439000378246
 20
-183.79439075518266
 11
-1.257597762407257E-14
 21
-227.14660302527247
  0
LINE
  8
ValleyLine
  6
CONTINUOUS
 62
5
 10
166.46107884709892
 20
-230.16112961776486
 11
167.07655479810632
 21
-229.96114935872487
  0
LINE
  8
MountainLine
  6
CONTINUOUS
 62
1
 10
166.46107884709892
 20
-230.16112961776486
 11
-2.515195524814514E-14
 21
-284.2476127913661
  0
LINE
  8
ValleyLine
  6
CONTINUOUS
 62
5
 10
190.92852488436367
 20
-267.5585807636143
 11
193.7310914391305
 21
-266.647971689967
  0
LINE
  8
MountainLine
  6
CONTINUOUS
 62
1
 10
190.92852488436367
 20
-267.5585807636143
 11
-2.515195524814514E-14
 21
-329.59501907123865
  0
LINE
  8
ValleyLine
  6
CONTINUOUS
 62
5
 10
206.2591040890592
 20
-297.7427269235208
 11
214.4007674994497
 21
-295.09734012138614
  0
LINE
  8
MountainLine
  6
CONTINUOUS
 62
1
 10
206.2591040890592
 20
-297.7427269235208
 11
-3.772793287221771E-14
 21
-364.76037236940937
  0
LINE
  8
ValleyLine
  6
CONTINUOUS
 62
5
 10
213.69708266898382
 20
-328.04597557359585
 11
233.63309765748434
 21
-321.56837163943754
  0
LINE
  8
MountainLine
  6
CONTINUOUS
 62
1
 10
213.69708266898382
 20
-328.04597557359585
 11
-2.515195524814514E-14
 21
-397.4803667602603
  0
LINE
  8
ValleyLine
  6
CONTINUOUS
 62
5
 10
216.58987485903629
 20
-372.2735582492006
 11
260.1818926458558
 21
-358.1096530717278
  0
LINE
  8
MountainLine
  6
CONTINUOUS
 62
1
 10
216.58987485903629
 20
-372.2735582492006
 11
0.0
 21
-442.6478745955219
  0
LINE
  8
ValleyLine
  6
CONTINUOUS
 62
5
 10
217.41970236731729
 20
-441.5679176894834
 11
301.07057814358956
 21
-414.3881005426404
  0
LINE
  8
MountainLine
  6
CONTINUOUS
 62
1
 10
217.41970236731729
 20
-441.5679176894834
 11
-5.030391049629028E-14
 21
-512.211861337721
  0
LINE
  8
ValleyLine
  6
CONTINUOUS
 62
5
 10
217.79207590103383
 20
-524.6092458198708
 11
349.9521631660958
 21
-481.66783041159255
  0
LINE
  8
MountainLine
  6
CONTINUOUS
 62
1
 10
217.79207590103383
 20
-524.6092458198708
 11
-5.030391049629028E-14
 21
-595.3741809635688
  0
LINE
  8
ValleyLine
  6
CONTINUOUS
 62
5
 10
218.0826521309805
 20
-606.2926330447948
 11
398.01994865595987
 21
-547.8274613169281
  0
LINE
  8
MountainLine
  6
CONTINUOUS
 62
1
 10
218.0826521309805
 20
-606.2926330447948
 11
-5.030391049629028E-14
 21
-677.1519821288595
  0
LINE
  8
MountainLine
  6
CONTINUOUS
 62
1
 10
218.0892866827472
 20
-683.0092172872841
 11
443.11409256658555
 21
-609.8942257146385
  0
LINE
  8
ValleyLine
  6
CONTINUOUS
 62
5
 10
218.0892866827472
 20
-683.0092172872841
 11
-2.515195524814514E-14
 21
-753.8707220678936
  0
LINE
  8
MountainLine
  6
CONTINUOUS
 62
1
 10
218.88616156408216
 20
-739.7390321264504
 11
476.6112306542748
 21
-655.9990809660602
  0
LINE
  8
ValleyLine
  6
CONTINUOUS
 62
5
 10
218.88616156408216
 20
-739.7390321264504
 11
-5.030391049629028E-14
 21
-810.8594572514388
  0
LINE
  8
MountainLine
  6
CONTINUOUS
 62
1
 10
230.57647512323237
 20
-770.9983537000642
 11
497.21765009213857
 21
-684.3613841259819
  0
LINE
  8
ValleyLine
  6
CONTINUOUS
 62
5
 10
230.57647512323237
 20
-770.9983537000642
 11
-5.030391049629028E-14
 21
-845.917191955559
  0
LINE
  8
ValleyLine
  6
CONTINUOUS
 62
5
 10
256.6328042351778
 20
-813.7283620034611
 11
527.3100348525652
 21
-725.7799984540953
  0
LINE
  8
MountainLine
  6
CONTINUOUS
 62
1
 10
256.6328042351778
 20
-813.7283620034611
 11
-5.030391049629028E-14
 21
-897.113414798954
  0
LINE
  8
ValleyLine
  6
CONTINUOUS
 62
5
 10
273.13130208474024
 20
-848.7238063087266
 11
551.0307736202308
 21
-758.4287944341298
  0
LINE
  8
MountainLine
  6
CONTINUOUS
 62
1
 10
273.13130208474024
 20
-848.7238063087266
 11
-5.030391049629028E-14
 21
-937.4695460137985
  0
LINE
  8
ValleyLine
  6
CONTINUOUS
 62
5
 10
504.09234192997434
 20
-1407.4838996141193
 11
923.5713496066372
 21
-1271.1869078637371
  0
LINE
  8
MountainLine
  6
CONTINUOUS
 62
1
 10
504.09234192997434
 20
-1407.4838996141193
 11
-2.0121564198516112E-13
 21
-1571.2734302273411
  0
LINE
  8
ValleyLine
  6
CONTINUOUS
 62
5
 10
509.87292356187373
 20
-1460.6729306264094
 11
955.9390704737092
 21
-1315.737253672033
  0
LINE
  8
MountainLine
  6
CONTINUOUS
 62
1
 10
509.87292356187373
 20
-1460.6729306264094
 11
-1.0060782099258056E-13
 21
-1626.3406860675173
  0
LINE
  8
ValleyLine
  6
CONTINUOUS
 62
5
 10
514.123844956807
 20
-1528.0332075571146
 11
996.3443015885948
 21
-1371.3502832710208
  0
LINE
  8
MountainLine
  6
CONTINUOUS
 62
1
 10
514.123844956807
 20
-1528.0332075571146
 11
-1.0060782099258056E-13
 21
-1695.0821710865741
  0
LINE
  8
ValleyLine
  6
CONTINUOUS
 62
5
 10
514.123844956807
 20
-1528.0332075571146
 11
996.3443015885948
 21
-1371.3502832710208
  0
LINE
  8
MountainLine
  6
CONTINUOUS
 62
1
 10
514.123844956807
 20
-1528.0332075571146
 11
-1.0060782099258056E-13
 21
-1695.0821710865741
  0
LINE
  8
ValleyLine
  6
CONTINUOUS
 62
5
 10
0.0
 20
-0.0
 11
0.0
 21
-0.0
  0
LINE
  8
ValleyLine
  6
CONTINUOUS
 62
5
 10
0.0
 20
-0.0
 11
19.361878206454094
 21
-6.2926985065248005
  0
LINE
  8
ValleyLine
  6
CONTINUOUS
 62
5
 10
19.361878206454094
 20
-6.2926985065248005
 11
77.44751282581637
 21
-25.170794026099202
  0
LINE
  8
ValleyLine
  6
CONTINUOUS
 62
5
 10
77.44751282581637
 20
-25.170794026099202
 11
150.74389417714517
 21
-48.98756100576815
  0
LINE
  8
ValleyLine
  6
CONTINUOUS
 62
5
 10
150.74389417714517
 20
-48.98756100576815
 11
215.9742313171473
 21
-70.2678968513899
  0
LINE
  8
ValleyLine
  6
CONTINUOUS
 62
5
 10
215.9742313171473
 20
-70.2678968513899
 11
269.95515932958966
 21
-88.36089807828753
  0
LINE
  8
ValleyLine
  6
CONTINUOUS
 62
5
 10
269.95515932958966
 20
-88.36089807828753
 11
311.73140923954736
 21
-104.23446765962049
  0
LINE
  8
ValleyLine
  6
CONTINUOUS
 62
5
 10
311.73140923954736
 20
-104.23446765962049
 11
341.87590431559073
 21
-119.64286649806044
  0
LINE
  8
ValleyLine
  6
CONTINUOUS
 62
5
 10
341.87590431559073
 20
-119.64286649806044
 11
365.70515804361247
 21
-139.78677552459376
  0
LINE
  8
ValleyLine
  6
CONTINUOUS
 62
5
 10
365.70515804361247
 20
-139.78677552459376
 11
394.04179692782657
 21
-173.8673009420214
  0
LINE
  8
ValleyLine
  6
CONTINUOUS
 62
5
 10
394.04179692782657
 20
-173.8673009420214
 11
435.44334403047765
 21
-229.439854972222
  0
LINE
  8
ValleyLine
  6
CONTINUOUS
 62
5
 10
435.44334403047765
 20
-229.439854972222
 11
484.5550685533316
 21
-296.40282499370915
  0
LINE
  8
ValleyLine
  6
CONTINUOUS
 62
5
 10
484.5550685533316
 20
-296.40282499370915
 11
532.8024400296256
 21
-362.3152769941528
  0
LINE
  8
ValleyLine
  6
CONTINUOUS
 62
5
 10
532.8024400296256
 20
-362.3152769941528
 11
577.9006843187432
 21
-424.37639770503984
  0
LINE
  8
ValleyLine
  6
CONTINUOUS
 62
5
 10
577.9006843187432
 20
-424.37639770503984
 11
611.8903181678784
 21
-469.80339069449855
  0
LINE
  8
ValleyLine
  6
CONTINUOUS
 62
5
 10
611.8903181678784
 20
-469.80339069449855
 11
639.7217487244408
 21
-488.2213191754402
  0
LINE
  8
ValleyLine
  6
CONTINUOUS
 62
5
 10
639.7217487244408
 20
-488.2213191754402
 11
685.9178304981031
 21
-507.4750960817904
  0
LINE
  8
ValleyLine
  6
CONTINUOUS
 62
5
 10
685.9178304981031
 20
-507.4750960817904
 11
719.8352017001151
 21
-526.0894315295002
  0
LINE
  8
ValleyLine
  6
CONTINUOUS
 62
5
 10
719.8352017001151
 20
-526.0894315295002
 11
1235.1175503878953
 21
-842.3803497169316
  0
LINE
  8
ValleyLine
  6
CONTINUOUS
 62
5
 10
1235.1175503878953
 20
-842.3803497169316
 11
1271.0578671782243
 21
-882.0134390873069
  0
LINE
  8
ValleyLine
  6
CONTINUOUS
 62
5
 10
1271.0578671782243
 20
-882.0134390873069
 11
1314.0903121986828
 21
-934.0104189654539
  0
LINE
  8
ValleyLine
  6
CONTINUOUS
 62
5
 10
1314.0903121986828
 20
-934.0104189654539
 11
1314.0903121986828
 21
-934.0104189654539
  0
LINE
  8
ValleyLine
  6
CONTINUOUS
 62
5
 10
1314.0903121986828
 20
-934.0104189654539
 11
1358.1392278420742
 21
-987.6473026964443
  0
LINE
  8
ValleyLine
  6
CONTINUOUS
 62
5
 10
0.0
 20
-0.0
 11
0.0
 21
-0.0
  0
LINE
  8
MountainLine
  6
CONTINUOUS
 62
1
 10
0.0
 20
-0.0
 11
0.0
 21
-0.0
  0
LINE
  8
ValleyLine
  6
CONTINUOUS
 62
5
 10
0.0
 20
-0.0
 11
0.0
 21
-0.0
  0
LINE
  8
MountainLine
  6
CONTINUOUS
 62
1
 10
0.0
 20
-0.0
 11
0.0
 21
-0.0
  0
LINE
  8
ValleyLine
  6
CONTINUOUS
 62
5
 10
19.361878206454094
 20
-6.2926985065248005
 11
19.362843891297437
 21
-6.2913693553655525
  0
LINE
  8
MountainLine
  6
CONTINUOUS
 62
1
 10
19.361878206454094
 20
-6.2926985065248005
 11
11.966895643680088
 21
-16.471018808126523
  0
LINE
  8
ValleyLine
  6
CONTINUOUS
 62
5
 10
77.44751282581637
 20
-25.170794026099202
 11
77.45137556518975
 21
-25.16547742146221
  0
LINE
  8
MountainLine
  6
CONTINUOUS
 62
1
 10
77.44751282581637
 20
-25.170794026099202
 11
47.86758257472035
 21
-65.88407523250609
  0
LINE
  8
ValleyLine
  6
CONTINUOUS
 62
5
 10
150.74389417714517
 20
-48.98756100576815
 11
150.74853809253747
 21
-48.98116920458202
  0
LINE
  8
MountainLine
  6
CONTINUOUS
 62
1
 10
150.74389417714517
 20
-48.98756100576815
 11
93.1677202955464
 21
-128.2343657863053
  0
LINE
  8
ValleyLine
  6
CONTINUOUS
 62
5
 10
215.9742313171473
 20
-70.2678968513899
 11
216.02925696149381
 21
-70.19216054934908
  0
LINE
  8
MountainLine
  6
CONTINUOUS
 62
1
 10
215.9742313171473
 20
-70.2678968513899
 11
133.513423366588
 21
-183.76546206198526
  0
LINE
  8
ValleyLine
  6
CONTINUOUS
 62
5
 10
269.95515932958966
 20
-88.36089807828753
 11
270.33554438657035
 21
-87.83734296304186
  0
LINE
  8
MountainLine
  6
CONTINUOUS
 62
1
 10
269.95515932958966
 20
-88.36089807828753
 11
167.07655479810632
 21
-229.96114935872487
  0
LINE
  8
ValleyLine
  6
CONTINUOUS
 62
5
 10
311.73140923954736
 20
-104.23446765962049
 11
313.46349062612694
 21
-101.8504621543477
  0
LINE
  8
MountainLine
  6
CONTINUOUS
 62
1
 10
311.73140923954736
 20
-104.23446765962049
 11
193.73109143913047
 21
-266.647971689967
  0
LINE
  8
ValleyLine
  6
CONTINUOUS
 62
5
 10
341.87590431559073
 20
-119.64286649806044
 11
346.90772902817343
 21
-112.71715393668154
  0
LINE
  8
MountainLine
  6
CONTINUOUS
 62
1
 10
341.87590431559073
 20
-119.64286649806044
 11
214.40076749944967
 21
-295.0973401213862
  0
LINE
  8
ValleyLine
  6
CONTINUOUS
 62
5
 10
365.70515804361247
 20
-139.78677552459376
 11
378.0262929067331
 21
-122.82818825930744
  0
LINE
  8
MountainLine
  6
CONTINUOUS
 62
1
 10
365.70515804361247
 20
-139.78677552459376
 11
233.63309765748434
 21
-321.56837163943754
  0
LINE
  8
ValleyLine
  6
CONTINUOUS
 62
5
 10
394.04179692782657
 20
-173.8673009420214
 11
420.98314555827096
 21
-136.78571577396687
  0
LINE
  8
MountainLine
  6
CONTINUOUS
 62
1
 10
394.04179692782657
 20
-173.8673009420214
 11
260.1818926458558
 21
-358.1096530717278
  0
LINE
  8
ValleyLine
  6
CONTINUOUS
 62
5
 10
435.44334403047765
 20
-229.439854972222
 11
487.1424284489092
 21
-158.28216987377996
  0
LINE
  8
MountainLine
  6
CONTINUOUS
 62
1
 10
435.44334403047765
 20
-229.439854972222
 11
301.07057814358956
 21
-414.38810054264036
  0
LINE
  8
ValleyLine
  6
CONTINUOUS
 62
5
 10
484.5550685533316
 20
-296.40282499370915
 11
566.234494439292
 21
-183.98073992980815
  0
LINE
  8
MountainLine
  6
CONTINUOUS
 62
1
 10
484.5550685533316
 20
-296.40282499370915
 11
349.9521631660958
 21
-481.66783041159243
  0
LINE
  8
ValleyLine
  6
CONTINUOUS
 62
5
 10
532.8024400296256
 20
-362.3152769941528
 11
644.0098051258312
 21
-209.2514702524984
  0
LINE
  8
MountainLine
  6
CONTINUOUS
 62
1
 10
532.8024400296256
 20
-362.3152769941528
 11
398.0199486559599
 21
-547.8274613169281
  0
LINE
  8
MountainLine
  6
CONTINUOUS
 62
1
 10
577.9006843187432
 20
-424.37639770503984
 11
716.9736626668026
 21
-232.95886468069193
  0
LINE
  8
ValleyLine
  6
CONTINUOUS
 62
5
 10
577.9006843187432
 20
-424.37639770503984
 11
443.11409256658555
 21
-609.8942257146385
  0
LINE
  8
MountainLine
  6
CONTINUOUS
 62
1
 10
611.8903181678784
 20
-469.80339069449855
 11
771.1731706185324
 21
-250.56935234034097
  0
LINE
  8
ValleyLine
  6
CONTINUOUS
 62
5
 10
611.8903181678784
 20
-469.80339069449855
 11
476.6112306542748
 21
-655.9990809660602
  0
LINE
  8
MountainLine
  6
CONTINUOUS
 62
1
 10
639.7217487244408
 20
-488.2213191754402
 11
804.5150576554327
 21
-261.4027881482023
  0
LINE
  8
ValleyLine
  6
CONTINUOUS
 62
5
 10
639.7217487244408
 20
-488.2213191754402
 11
497.21765009213857
 21
-684.3613841259819
  0
LINE
  8
ValleyLine
  6
CONTINUOUS
 62
5
 10
685.9178304981031
 20
-507.4750960817904
 11
853.2055590003421
 21
-277.2232910546183
  0
LINE
  8
MountainLine
  6
CONTINUOUS
 62
1
 10
685.9178304981031
 20
-507.4750960817904
 11
527.3100348525652
 21
-725.7799984540952
  0
LINE
  8
ValleyLine
  6
CONTINUOUS
 62
5
 10
719.8352017001151
 20
-526.0894315295002
 11
891.5865205646822
 21
-289.6940214272306
  0
LINE
  8
MountainLine
  6
CONTINUOUS
 62
1
 10
719.8352017001151
 20
-526.0894315295002
 11
551.0307736202307
 21
-758.4287944341297
  0
LINE
  8
ValleyLine
  6
CONTINUOUS
 62
5
 10
1235.1175503878953
 20
-842.3803497169316
 11
1494.369834699151
 21
-485.55019275006686
  0
LINE
  8
MountainLine
  6
CONTINUOUS
 62
1
 10
1235.1175503878953
 20
-842.3803497169316
 11
923.5713496066372
 21
-1271.1869078637371
  0
LINE
  8
ValleyLine
  6
CONTINUOUS
 62
5
 10
1271.0578671782243
 20
-882.0134390873069
 11
1546.7419072004425
 21
-502.5669106382743
  0
LINE
  8
MountainLine
  6
CONTINUOUS
 62
1
 10
1271.0578671782243
 20
-882.0134390873069
 11
955.9390704737092
 21
-1315.7372536720327
  0
LINE
  8
ValleyLine
  6
CONTINUOUS
 62
5
 10
1314.0903121986828
 20
-934.0104189654539
 11
1612.1189444676227
 21
-523.8091977277338
  0
LINE
  8
MountainLine
  6
CONTINUOUS
 62
1
 10
1314.0903121986828
 20
-934.0104189654539
 11
996.3443015885948
 21
-1371.3502832710208
  0
LINE
  8
ValleyLine
  6
CONTINUOUS
 62
5
 10
1314.0903121986828
 20
-934.0104189654539
 11
1612.1189444676227
 21
-523.8091977277338
  0
LINE
  8
MountainLine
  6
CONTINUOUS
 62
1
 10
1314.0903121986828
 20
-934.0104189654539
 11
996.3443015885948
 21
-1371.3502832710208
  0
LINE
  8
ValleyLine
  6
CONTINUOUS
 62
5
 10
0.0
 20
-0.0
 11
0.0
 21
-0.0
  0
LINE
  8
ValleyLine
  6
CONTINUOUS
 62
5
 10
0.0
 20
-0.0
 11
19.362843891297437
 21
6.289726434180343
  0
LINE
  8
ValleyLine
  6
CONTINUOUS
 62
5
 10
19.362843891297437
 20
6.289726434180343
 11
77.45137556518975
 21
25.158905736721373
  0
LINE
  8
ValleyLine
  6
CONTINUOUS
 62
5
 10
77.45137556518975
 20
25.158905736721373
 11
150.7485380925375
 21
48.97326850381724
  0
LINE
  8
ValleyLine
  6
CONTINUOUS
 62
5
 10
150.7485380925375
 20
48.97326850381724
 11
216.02925696149381
 21
70.09854533166208
  0
LINE
  8
ValleyLine
  6
CONTINUOUS
 62
5
 10
216.02925696149381
 20
70.09854533166208
 11
270.3355443865704
 21
87.19019325063039
  0
LINE
  8
ValleyLine
  6
CONTINUOUS
 62
5
 10
270.3355443865704
 20
87.19019325063039
 11
313.46349062612694
 21
98.90366929109669
  0
LINE
  8
ValleyLine
  6
CONTINUOUS
 62
5
 10
313.46349062612694
 20
98.90366929109669
 11
346.90772902817343
 21
104.15650241819296
  0
LINE
  8
ValleyLine
  6
CONTINUOUS
 62
5
 10
346.90772902817343
 20
104.15650241819296
 11
378.0262929067331
 21
101.86622159705118
  0
LINE
  8
ValleyLine
  6
CONTINUOUS
 62
5
 10
378.0262929067331
 20
101.86622159705118
 11
420.983145558271
 21
90.9503557928034
  0
LINE
  8
ValleyLine
  6
CONTINUOUS
 62
5
 10
420.983145558271
 20
90.9503557928034
 11
487.1424284489092
 21
70.32643397058162
  0
LINE
  8
ValleyLine
  6
CONTINUOUS
 62
5
 10
487.1424284489092
 20
70.32643397058162
 11
566.234494439292
 21
45.01940061856249
  0
LINE
  8
ValleyLine
  6
CONTINUOUS
 62
5
 10
566.234494439292
 20
45.01940061856249
 11
644.0098051258312
 21
20.054200224922763
  0
LINE
  8
ValleyLine
  6
CONTINUOUS
 62
5
 10
644.0098051258312
 20
20.054200224922763
 11
716.9736626668027
 21
-3.6462182227133324
  0
LINE
  8
ValleyLine
  6
CONTINUOUS
 62
5
 10
716.9736626668027
 20
-3.6462182227133324
 11
771.1731706185324
 21
-20.41882204719426
  0
LINE
  8
ValleyLine
  6
CONTINUOUS
 62
5
 10
771.1731706185324
 20
-20.41882204719426
 11
804.5150576554327
 21
-18.960334758108964
  0
LINE
  8
ValleyLine
  6
CONTINUOUS
 62
5
 10
804.5150576554327
 20
-18.960334758108964
 11
853.2055590003422
 21
-7.383591900994421
  0
LINE
  8
ValleyLine
  6
CONTINUOUS
 62
5
 10
853.2055590003422
 20
-7.383591900994421
 11
891.5865205646824
 21
-2.5067750281154644
  0
LINE
  8
ValleyLine
  6
CONTINUOUS
 62
5
 10
891.5865205646824
 20
-2.5067750281154644
 11
1494.369834699151
 21
44.48386231710139
  0
LINE
  8
ValleyLine
  6
CONTINUOUS
 62
5
 10
1494.369834699151
 20
44.48386231710139
 11
1546.7419072004427
 21
33.54520764896166
  0
LINE
  8
ValleyLine
  6
CONTINUOUS
 62
5
 10
1546.7419072004427
 20
33.54520764896166
 11
1612.1189444676227
 21
16.772603824480726
  0
LINE
  8
ValleyLine
  6
CONTINUOUS
 62
5
 10
1612.1189444676227
 20
16.772603824480726
 11
1612.1189444676227
 21
16.772603824480726
  0
LINE
  8
ValleyLine
  6
CONTINUOUS
 62
5
 10
1612.1189444676227
 20
16.772603824480726
 11
1679.282235042917
 21
-0.7292436445428544
  0
LINE
  8
ValleyLine
  6
CONTINUOUS
 62
5
 10
0.0
 20
-0.0
 11
0.0
 21
-0.0
  0
LINE
  8
MountainLine
  6
CONTINUOUS
 62
1
 10
0.0
 20
-0.0
 11
0.0
 21
-0.0
  0
LINE
  8
ValleyLine
  6
CONTINUOUS
 62
5
 10
0.0
 20
-0.0
 11
0.0
 21
-0.0
  0
LINE
  8
MountainLine
  6
CONTINUOUS
 62
1
 10
0.0
 20
-0.0
 11
0.0
 21
-0.0
  0
LINE
  8
ValleyLine
  6
CONTINUOUS
 62
5
 10
19.362843891297437
 20
6.289726434180343
 11
19.362843891297437
 21
6.291369355365546
  0
LINE
  8
MountainLine
  6
CONTINUOUS
 62
1
 10
19.362843891297437
 20
6.289726434180343
 11
19.362843891297437
 21
-6.291369355365552
  0
LINE
  8
ValleyLine
  6
CONTINUOUS
 62
5
 10
77.45137556518975
 20
25.158905736721373
 11
77.45137556518975
 21
25.165477421462185
  0
LINE
  8
MountainLine
  6
CONTINUOUS
 62
1
 10
77.45137556518975
 20
25.158905736721373
 11
77.45137556518975
 21
-25.165477421462207
  0
LINE
  8
ValleyLine
  6
CONTINUOUS
 62
5
 10
150.7485380925375
 20
48.97326850381724
 11
150.7485380925375
 21
48.98116920458197
  0
LINE
  8
MountainLine
  6
CONTINUOUS
 62
1
 10
150.7485380925375
 20
48.97326850381724
 11
150.7485380925375
 21
-48.981169204582
  0
LINE
  8
ValleyLine
  6
CONTINUOUS
 62
5
 10
216.02925696149381
 20
70.09854533166208
 11
216.02925696149381
 21
70.19216054934901
  0
LINE
  8
MountainLine
  6
CONTINUOUS
 62
1
 10
216.02925696149381
 20
70.09854533166208
 11
216.02925696149381
 21
-70.19216054934905
  0
LINE
  8
ValleyLine
  6
CONTINUOUS
 62
5
 10
270.3355443865704
 20
87.19019325063039
 11
270.3355443865704
 21
87.83734296304178
  0
LINE
  8
MountainLine
  6
CONTINUOUS
 62
1
 10
270.3355443865704
 20
87.19019325063039
 11
270.3355443865704
 21
-87.83734296304185
  0
LINE
  8
ValleyLine
  6
CONTINUOUS
 62
5
 10
313.46349062612694
 20
98.90366929109669
 11
313.46349062612694
 21
101.85046215434761
  0
LINE
  8
MountainLine
  6
CONTINUOUS
 62
1
 10
313.46349062612694
 20
98.90366929109669
 11
313.46349062612694
 21
-101.85046215434768
  0
LINE
  8
ValleyLine
  6
CONTINUOUS
 62
5
 10
346.90772902817343
 20
104.15650241819296
 11
346.90772902817343
 21
112.71715393668144
  0
LINE
  8
MountainLine
  6
CONTINUOUS
 62
1
 10
346.90772902817343
 20
104.15650241819296
 11
346.90772902817343
 21
-112.71715393668153
  0
LINE
  8
ValleyLine
  6
CONTINUOUS
 62
5
 10
378.0262929067331
 20
101.86622159705118
 11
378.0262929067331
 21
122.82818825930734
  0
LINE
  8
MountainLine
  6
CONTINUOUS
 62
1
 10
378.0262929067331
 20
101.86622159705118
 11
378.0262929067331
 21
-122.82818825930744
  0
LINE
  8
ValleyLine
  6
CONTINUOUS
 62
5
 10
420.983145558271
 20
90.9503557928034
 11
420.983145558271
 21
136.78571577396673
  0
LINE
  8
MountainLine
  6
CONTINUOUS
 62
1
 10
420.983145558271
 20
90.9503557928034
 11
420.983145558271
 21
-136.78571577396684
  0
LINE
  8
ValleyLine
  6
CONTINUOUS
 62
5
 10
487.1424284489092
 20
70.32643397058162
 11
487.1424284489092
 21
158.2821698737798
  0
LINE
  8
MountainLine
  6
CONTINUOUS
 62
1
 10
487.1424284489092
 20
70.32643397058162
 11
487.1424284489092
 21
-158.2821698737799
  0
LINE
  8
ValleyLine
  6
CONTINUOUS
 62
5
 10
566.234494439292
 20
45.01940061856249
 11
566.234494439292
 21
183.98073992980795
  0
LINE
  8
MountainLine
  6
CONTINUOUS
 62
1
 10
566.234494439292
 20
45.01940061856249
 11
566.234494439292
 21
-183.9807399298081
  0
LINE
  8
ValleyLine
  6
CONTINUOUS
 62
5
 10
644.0098051258312
 20
20.054200224922763
 11
644.0098051258312
 21
209.25147025249817
  0
LINE
  8
MountainLine
  6
CONTINUOUS
 62
1
 10
644.0098051258312
 20
20.054200224922763
 11
644.0098051258312
 21
-209.2514702524983
  0
LINE
  8
MountainLine
  6
CONTINUOUS
 62
1
 10
716.9736626668027
 20
-3.6462182227133324
 11
716.9736626668027
 21
232.95886468069162
  0
LINE
  8
ValleyLine
  6
CONTINUOUS
 62
5
 10
716.9736626668027
 20
-3.6462182227133324
 11
716.9736626668027
 21
-232.95886468069182
  0
LINE
  8
MountainLine
  6
CONTINUOUS
 62
1
 10
771.1731706185324
 20
-20.41882204719426
 11
771.1731706185324
 21
250.56935234034066
  0
LINE
  8
ValleyLine
  6
CONTINUOUS
 62
5
 10
771.1731706185324
 20
-20.41882204719426
 11
771.1731706185324
 21
-250.56935234034086
  0
LINE
  8
MountainLine
  6
CONTINUOUS
 62
1
 10
804.5150576554327
 20
-18.960334758108964
 11
804.5150576554327
 21
261.4027881482022
  0
LINE
  8
ValleyLine
  6
CONTINUOUS
 62
5
 10
804.5150576554327
 20
-18.960334758108964
 11
804.5150576554327
 21
-261.4027881482024
  0
LINE
  8
ValleyLine
  6
CONTINUOUS
 62
5
 10
853.2055590003422
 20
-7.383591900994421
 11
853.2055590003422
 21
277.22329105461813
  0
LINE
  8
MountainLine
  6
CONTINUOUS
 62
1
 10
853.2055590003422
 20
-7.383591900994421
 11
853.2055590003422
 21
-277.2232910546183
  0
LINE
  8
ValleyLine
  6
CONTINUOUS
 62
5
 10
891.5865205646824
 20
-2.5067750281154644
 11
891.5865205646824
 21
289.6940214272303
  0
LINE
  8
MountainLine
  6
CONTINUOUS
 62
1
 10
891.5865205646824
 20
-2.5067750281154644
 11
891.5865205646824
 21
-289.69402142723055
  0
LINE
  8
ValleyLine
  6
CONTINUOUS
 62
5
 10
1494.369834699151
 20
44.48386231710139
 11
1494.369834699151
 21
485.55019275006634
  0
LINE
  8
MountainLine
  6
CONTINUOUS
 62
1
 10
1494.369834699151
 20
44.48386231710139
 11
1494.369834699151
 21
-485.55019275006674
  0
LINE
  8
ValleyLine
  6
CONTINUOUS
 62
5
 10
1546.7419072004427
 20
33.54520764896166
 11
1546.7419072004427
 21
502.5669106382738
  0
LINE
  8
MountainLine
  6
CONTINUOUS
 62
1
 10
1546.7419072004427
 20
33.54520764896166
 11
1546.7419072004427
 21
-502.5669106382742
  0
LINE
  8
ValleyLine
  6
CONTINUOUS
 62
5
 10
1612.1189444676227
 20
16.772603824480726
 11
1612.1189444676227
 21
523.8091977277332
  0
LINE
  8
MountainLine
  6
CONTINUOUS
 62
1
 10
1612.1189444676227
 20
16.772603824480726
 11
1612.1189444676227
 21
-523.8091977277337
  0
LINE
  8
ValleyLine
  6
CONTINUOUS
 62
5
 10
1612.1189444676227
 20
16.772603824480726
 11
1612.1189444676227
 21
523.8091977277332
  0
LINE
  8
MountainLine
  6
CONTINUOUS
 62
1
 10
1612.1189444676227
 20
16.772603824480726
 11
1612.1189444676227
 21
-523.8091977277337
  0
LINE
  8
ValleyLine
  6
CONTINUOUS
 62
5
 10
0.0
 20
0.0
 11
0.0
 21
0.0
  0
LINE
  8
ValleyLine
  6
CONTINUOUS
 62
5
 10
0.0
 20
0.0
 11
11.967861328523433
 21
16.469689656967276
  0
LINE
  8
ValleyLine
  6
CONTINUOUS
 62
5
 10
11.967861328523433
 20
16.469689656967276
 11
47.871445314093734
 21
65.8787586278691
  0
LINE
  8
ValleyLine
  6
CONTINUOUS
 62
5
 10
47.871445314093734
 20
65.8787586278691
 11
93.17236421093872
 21
128.22797398511915
  0
LINE
  8
ValleyLine
  6
CONTINUOUS
 62
5
 10
93.17236421093872
 20
128.22797398511915
 11
133.56844901093456
 21
183.6897257599444
  0
LINE
  8
ValleyLine
  6
CONTINUOUS
 62
5
 10
133.56844901093456
 20
183.6897257599444
 11
167.45693985508709
 21
229.43759424347917
  0
LINE
  8
ValleyLine
  6
CONTINUOUS
 62
5
 10
167.45693985508709
 20
229.43759424347917
 11
195.46317282571013
 21
264.26396618469414
  0
LINE
  8
ValleyLine
  6
CONTINUOUS
 62
5
 10
195.46317282571013
 20
264.26396618469414
 11
219.43259221203246
 21
288.17162756000727
  0
LINE
  8
ValleyLine
  6
CONTINUOUS
 62
5
 10
219.43259221203246
 20
288.17162756000727
 11
245.95423252060502
 21
304.60978437415116
  0
LINE
  8
ValleyLine
  6
CONTINUOUS
 62
5
 10
245.95423252060502
 20
304.60978437415116
 11
287.12324127630023
 21
321.02806790367316
  0
LINE
  8
ValleyLine
  6
CONTINUOUS
 62
5
 10
287.12324127630023
 20
321.02806790367316
 11
352.7696625620211
 21
343.23041544419823
  0
LINE
  8
ValleyLine
  6
CONTINUOUS
 62
5
 10
352.7696625620211
 20
343.23041544419823
 11
431.63158905205614
 21
369.2457453476913
  0
LINE
  8
ValleyLine
  6
CONTINUOUS
 62
5
 10
431.63158905205614
 20
369.2457453476913
 11
509.2273137521655
 21
394.7636545752735
  0
LINE
  8
ValleyLine
  6
CONTINUOUS
 62
5
 10
509.2273137521655
 20
394.7636545752735
 11
582.187070914645
 21
418.47669269029046
  0
LINE
  8
ValleyLine
  6
CONTINUOUS
 62
5
 10
582.187070914645
 20
418.47669269029046
 11
635.8940831049288
 21
436.76504261190246
  0
LINE
  8
ValleyLine
  6
CONTINUOUS
 62
5
 10
635.8940831049288
 20
436.76504261190246
 11
662.0109590231305
 21
457.5428530987439
  0
LINE
  8
ValleyLine
  6
CONTINUOUS
 62
5
 10
662.0109590231305
 20
457.5428530987439
 11
694.5977633548043
 21
495.52819342692294
  0
LINE
  8
ValleyLine
  6
CONTINUOUS
 62
5
 10
694.5977633548043
 20
495.52819342692294
 11
722.7820924847979
 21
522.0333843318599
  0
LINE
  8
ValleyLine
  6
CONTINUOUS
 62
5
 10
722.7820924847979
 20
522.0333843318599
 11
1182.823633917893
 21
914.3567508968722
  0
LINE
  8
ValleyLine
  6
CONTINUOUS
 62
5
 10
1182.823633917893
 20
914.3567508968722
 11
1231.6231104959277
 21
936.2907252229998
  0
LINE
  8
ValleyLine
  6
CONTINUOUS
 62
5
 10
1231.6231104959277
 20
936.2907252229998
 11
1294.3729338575347
 21
961.1490620333001
  0
LINE
  8
ValleyLine
  6
CONTINUOUS
 62
5
 10
1294.3729338575347
 20
961.1490620333001
 11
1294.3729338575347
 21
961.1490620333001
  0
LINE
  8
ValleyLine
  6
CONTINUOUS
 62
5
 10
1294.3729338575347
 20
961.1490620333001
 11
1358.9965051612546
 21
986.4673616934939
  0
LINE
  8
ValleyLine
  6
CONTINUOUS
 62
5
 10
0.0
 20
0.0
 11
0.0
 21
0.0
  0
LINE
  8
MountainLine
  6
CONTINUOUS
 62
1
 10
0.0
 20
0.0
 11
0.0
 21
-0.0
  0
LINE
  8
ValleyLine
  6
CONTINUOUS
 62
5
 10
0.0
 20
0.0
 11
0.0
 21
0.0
  0
LINE
  8
MountainLine
  6
CONTINUOUS
 62
1
 10
0.0
 20
0.0
 11
0.0
 21
-0.0
  0
LINE
  8
ValleyLine
  6
CONTINUOUS
 62
5
 10
11.967861328523433
 20
16.469689656967276
 11
11.966895643680092
 21
16.471018808126523
  0
LINE
  8
MountainLine
  6
CONTINUOUS
 62
1
 10
11.967861328523433
 20
16.469689656967276
 11
19.362843891297437
 21
6.291369355365549
  0
LINE
  8
ValleyLine
  6
CONTINUOUS
 62
5
 10
47.871445314093734
 20
65.8787586278691
 11
47.867582574720366
 21
65.88407523250609
  0
LINE
  8
MountainLine
  6
CONTINUOUS
 62
1
 10
47.871445314093734
 20
65.8787586278691
 11
77.45137556518975
 21
25.165477421462196
  0
LINE
  8
ValleyLine
  6
CONTINUOUS
 62
5
 10
93.17236421093872
 20
128.22797398511915
 11
93.16772029554642
 21
128.23436578630526
  0
LINE
  8
MountainLine
  6
CONTINUOUS
 62
1
 10
93.17236421093872
 20
128.22797398511915
 11
150.7485380925375
 21
48.98116920458198
  0
LINE
  8
ValleyLine
  6
CONTINUOUS
 62
5
 10
133.56844901093456
 20
183.6897257599444
 11
133.51342336658803
 21
183.76546206198526
  0
LINE
  8
MountainLine
  6
CONTINUOUS
 62
1
 10
133.56844901093456
 20
183.6897257599444
 11
216.02925696149381
 21
70.19216054934901
  0
LINE
  8
ValleyLine
  6
CONTINUOUS
 62
5
 10
167.45693985508709
 20
229.43759424347917
 11
167.07655479810637
 21
229.96114935872487
  0
LINE
  8
MountainLine
  6
CONTINUOUS
 62
1
 10
167.45693985508709
 20
229.43759424347917
 11
270.3355443865704
 21
87.83734296304179
  0
LINE
  8
ValleyLine
  6
CONTINUOUS
 62
5
 10
195.46317282571013
 20
264.26396618469414
 11
193.73109143913055
 21
266.64797168996694
  0
LINE
  8
MountainLine
  6
CONTINUOUS
 62
1
 10
195.46317282571013
 20
264.26396618469414
 11
313.46349062612694
 21
101.85046215434764
  0
LINE
  8
ValleyLine
  6
CONTINUOUS
 62
5
 10
219.43259221203246
 20
288.17162756000727
 11
214.40076749944976
 21
295.09734012138614
  0
LINE
  8
MountainLine
  6
CONTINUOUS
 62
1
 10
219.43259221203246
 20
288.17162756000727
 11
346.90772902817343
 21
112.71715393668146
  0
LINE
  8
ValleyLine
  6
CONTINUOUS
 62
5
 10
245.95423252060502
 20
304.60978437415116
 11
233.63309765748434
 21
321.56837163943754
  0
LINE
  8
MountainLine
  6
CONTINUOUS
 62
1
 10
245.95423252060502
 20
304.60978437415116
 11
378.0262929067331
 21
122.82818825930737
  0
LINE
  8
ValleyLine
  6
CONTINUOUS
 62
5
 10
287.12324127630023
 20
321.02806790367316
 11
260.18189264585584
 21
358.1096530717277
  0
LINE
  8
MountainLine
  6
CONTINUOUS
 62
1
 10
287.12324127630023
 20
321.02806790367316
 11
420.983145558271
 21
136.78571577396679
  0
LINE
  8
ValleyLine
  6
CONTINUOUS
 62
5
 10
352.7696625620211
 20
343.23041544419823
 11
301.0705781435896
 21
414.3881005426403
  0
LINE
  8
MountainLine
  6
CONTINUOUS
 62
1
 10
352.7696625620211
 20
343.23041544419823
 11
487.1424284489092
 21
158.28216987377985
  0
LINE
  8
ValleyLine
  6
CONTINUOUS
 62
5
 10
431.63158905205614
 20
369.2457453476913
 11
349.95216316609583
 21
481.6678304115923
  0
LINE
  8
MountainLine
  6
CONTINUOUS
 62
1
 10
431.63158905205614
 20
369.2457453476913
 11
566.234494439292
 21
183.98073992980798
  0
LINE
  8
ValleyLine
  6
CONTINUOUS
 62
5
 10
509.2273137521655
 20
394.7636545752735
 11
398.01994865596
 21
547.8274613169278
  0
LINE
  8
MountainLine
  6
CONTINUOUS
 62
1
 10
509.2273137521655
 20
394.7636545752735
 11
644.0098051258311
 21
209.25147025249822
  0
LINE
  8
MountainLine
  6
CONTINUOUS
 62
1
 10
582.187070914645
 20
418.47669269029046
 11
443.11409256658567
 21
609.8942257146384
  0
LINE
  8
ValleyLine
  6
CONTINUOUS
 62
5
 10
582.187070914645
 20
418.47669269029046
 11
716.9736626668027
 21
232.95886468069173
  0
LINE
  8
MountainLine
  6
CONTINUOUS
 62
1
 10
635.8940831049288
 20
436.76504261190246
 11
476.6112306542748
 21
655.9990809660601
  0
LINE
  8
ValleyLine
  6
CONTINUOUS
 62
5
 10
635.8940831049288
 20
436.76504261190246
 11
771.1731706185324
 21
250.5693523403407
  0
LINE
  8
MountainLine
  6
CONTINUOUS
 62
1
 10
662.0109590231305
 20
457.5428530987439
 11
497.21765009213874
 21
684.3613841259818
  0
LINE
  8
ValleyLine
  6
CONTINUOUS
 62
5
 10
662.0109590231305
 20
457.5428530987439
 11
804.5150576554327
 21
261.40278814820226
  0
LINE
  8
ValleyLine
  6
CONTINUOUS
 62
5
 10
694.5977633548043
 20
495.52819342692294
 11
527.3100348525652
 21
725.7799984540951
  0
LINE
  8
MountainLine
  6
CONTINUOUS
 62
1
 10
694.5977633548043
 20
495.52819342692294
 11
853.2055590003422
 21
277.22329105461813
  0
LINE
  8
ValleyLine
  6
CONTINUOUS
 62
5
 10
722.7820924847979
 20
522.0333843318599
 11
551.0307736202309
 21
758.4287944341296
  0
LINE
  8
MountainLine
  6
CONTINUOUS
 62
1
 10
722.7820924847979
 20
522.0333843318599
 11
891.5865205646822
 21
289.6940214272304
  0
LINE
  8
ValleyLine
  6
CONTINUOUS
 62
5
 10
1182.823633917893
 20
914.3567508968722
 11
923.5713496066372
 21
1271.186907863737
  0
LINE
  8
MountainLine
  6
CONTINUOUS
 62
1
 10
1182.823633917893
 20
914.3567508968722
 11
1494.369834699151
 21
485.55019275006646
  0
LINE
  8
ValleyLine
  6
CONTINUOUS
 62
5
 10
1231.6231104959277
 20
936.2907252229998
 11
955.9390704737094
 21
1315.7372536720322
  0
LINE
  8
MountainLine
  6
CONTINUOUS
 62
1
 10
1231.6231104959277
 20
936.2907252229998
 11
1546.7419072004427
 21
502.5669106382739
  0
LINE
  8
ValleyLine
  6
CONTINUOUS
 62
5
 10
1294.3729338575347
 20
961.1490620333001
 11
996.3443015885953
 21
1371.3502832710203
  0
LINE
  8
MountainLine
  6
CONTINUOUS
 62
1
 10
1294.3729338575347
 20
961.1490620333001
 11
1612.1189444676227
 21
523.8091977277332
  0
LINE
  8
ValleyLine
  6
CONTINUOUS
 62
5
 10
1294.3729338575347
 20
961.1490620333001
 11
996.3443015885953
 21
1371.3502832710203
  0
LINE
  8
MountainLine
  6
CONTINUOUS
 62
1
 10
1294.3729338575347
 20
961.1490620333001
 11
1612.1189444676227
 21
523.8091977277332
  0
LINE
  8
ValleyLine
  6
CONTINUOUS
 62
5
 10
0.0
 20
0.0
 11
0.0
 21
0.0
  0
LINE
  8
ValleyLine
  6
CONTINUOUS
 62
5
 10
0.0
 20
0.0
 11
0.0015625108989505657
 21
20.358791214955303
  0
LINE
  8
ValleyLine
  6
CONTINUOUS
 62
5
 10
0.0015625108989505657
 20
20.358791214955303
 11
0.006250043595802263
 21
81.43516485982121
  0
LINE
  8
ValleyLine
  6
CONTINUOUS
 62
5
 10
0.006250043595802263
 20
81.43516485982121
 11
0.007514012945622164
 21
158.50395171264284
  0
LINE
  8
ValleyLine
  6
CONTINUOUS
 62
5
 10
0.007514012945622164
 20
158.50395171264284
 11
0.08903336280557253
 21
227.11767433207513
  0
LINE
  8
ValleyLine
  6
CONTINUOUS
 62
5
 10
0.08903336280557253
 20
227.11767433207513
 11
0.615475951007426
 21
284.04763253232613
  0
LINE
  8
ValleyLine
  6
CONTINUOUS
 62
5
 10
0.615475951007426
 20
284.04763253232613
 11
2.802566554766886
 21
328.68440999759133
  0
LINE
  8
ValleyLine
  6
CONTINUOUS
 62
5
 10
2.802566554766886
 20
328.68440999759133
 11
8.14166341039053
 21
362.1149855672747
  0
LINE
  8
ValleyLine
  6
CONTINUOUS
 62
5
 10
8.14166341039053
 20
362.1149855672747
 11
19.936014988500546
 21
391.00276282610207
  0
LINE
  8
ValleyLine
  6
CONTINUOUS
 62
5
 10
19.936014988500546
 20
391.00276282610207
 11
43.59201778681957
 21
428.483969418049
  0
LINE
  8
ValleyLine
  6
CONTINUOUS
 62
5
 10
43.59201778681957
 20
428.483969418049
 11
83.65087577627231
 21
485.03204419087797
  0
LINE
  8
ValleyLine
  6
CONTINUOUS
 62
5
 10
83.65087577627231
 20
485.03204419087797
 11
132.16008726506197
 21
552.4327655552904
  0
LINE
  8
ValleyLine
  6
CONTINUOUS
 62
5
 10
132.16008726506197
 20
552.4327655552904
 11
179.93729652497947
 21
618.6868104009928
  0
LINE
  8
ValleyLine
  6
CONTINUOUS
 62
5
 10
179.93729652497947
 20
618.6868104009928
 11
225.02480588383847
 21
680.7557304952479
  0
LINE
  8
ValleyLine
  6
CONTINUOUS
 62
5
 10
225.02480588383847
 20
680.7557304952479
 11
257.7250690901927
 21
727.1195060910485
  0
LINE
  8
ValleyLine
  6
CONTINUOUS
 62
5
 10
257.7250690901927
 20
727.1195060910485
 11
266.64117496890634
 21
759.2802223814766
  0
LINE
  8
ValleyLine
  6
CONTINUOUS
 62
5
 10
266.64117496890634
 20
759.2802223814766
 11
270.67723061738747
 21
809.1650512495881
  0
LINE
  8
ValleyLine
  6
CONTINUOUS
 62
5
 10
270.67723061738747
 20
809.1650512495881
 11
277.8994715354906
 21
847.1745341392017
  0
LINE
  8
ValleyLine
  6
CONTINUOUS
 62
5
 10
277.8994715354906
 20
847.1745341392017
 11
419.479007676663
 21
1434.9764384769587
  0
LINE
  8
ValleyLine
  6
CONTINUOUS
 62
5
 10
419.479007676663
 20
1434.9764384769587
 11
446.06614691183574
 21
1481.4050091131405
  0
LINE
  8
ValleyLine
  6
CONTINUOUS
 62
5
 10
446.06614691183574
 20
1481.4050091131405
 11
482.2204566317881
 21
1538.3992468004801
  0
LINE
  8
ValleyLine
  6
CONTINUOUS
 62
5
 10
482.2204566317881
 20
1538.3992468004801
 11
482.2204566317881
 21
1538.3992468004801
  0
LINE
  8
ValleyLine
  6
CONTINUOUS
 62
5
 10
482.2204566317881
 20
1538.3992468004801
 11
519.6203009003156
 21
1596.866963657052
  0
LINE
  8
ValleyLine
  6
CONTINUOUS
 62
5
 10
0.0
 20
0.0
 11
0.0
 21
0.0
  0
LINE
  8
MountainLine
  6
CONTINUOUS
 62
1
 10
0.0
 20
0.0
 11
0.0
 21
-0.0
  0
LINE
  8
ValleyLine
  6
CONTINUOUS
 62
5
 10
0.0
 20
0.0
 11
0.0
 21
0.0
  0
LINE
  8
MountainLine
  6
CONTINUOUS
 62
1
 10
0.0
 20
0.0
 11
0.0
 21
-0.0
  0
LINE
  8
ValleyLine
  6
CONTINUOUS
 62
5
 10
0.0015625108989505657
 20
20.358791214955303
 11
3.1439944060181426E-15
 21
20.359298905521953
  0
LINE
  8
MountainLine
  6
CONTINUOUS
 62
1
 10
0.0015625108989505657
 20
20.358791214955303
 11
11.966895643680093
 21
16.471018808126523
  0
LINE
  8
ValleyLine
  6
CONTINUOUS
 62
5
 10
0.006250043595802263
 20
81.43516485982121
 11
1.257597762407257E-14
 21
81.43719562208781
  0
LINE
  8
MountainLine
  6
CONTINUOUS
 62
1
 10
0.006250043595802263
 20
81.43516485982121
 11
47.86758257472037
 21
65.88407523250609
  0
LINE
  8
ValleyLine
  6
CONTINUOUS
 62
5
 10
0.007514012945622164
 20
158.50395171264284
 11
2.515195524814514E-14
 21
158.50639316344663
  0
LINE
  8
MountainLine
  6
CONTINUOUS
 62
1
 10
0.007514012945622164
 20
158.50395171264284
 11
93.16772029554642
 21
128.2343657863053
  0
LINE
  8
ValleyLine
  6
CONTINUOUS
 62
5
 10
0.08903336280557253
 20
227.11767433207513
 11
3.772793287221771E-14
 21
227.14660302527247
  0
LINE
  8
MountainLine
  6
CONTINUOUS
 62
1
 10
0.08903336280557253
 20
227.11767433207513
 11
133.51342336658803
 21
183.76546206198526
  0
LINE
  8
ValleyLine
  6
CONTINUOUS
 62
5
 10
0.615475951007426
 20
284.04763253232613
 11
5.030391049629028E-14
 21
284.2476127913661
  0
LINE
  8
MountainLine
  6
CONTINUOUS
 62
1
 10
0.615475951007426
 20
284.04763253232613
 11
167.07655479810637
 21
229.96114935872487
  0
LINE
  8
ValleyLine
  6
CONTINUOUS
 62
5
 10
2.802566554766886
 20
328.68440999759133
 11
5.030391049629028E-14
 21
329.5950190712387
  0
LINE
  8
MountainLine
  6
CONTINUOUS
 62
1
 10
2.802566554766886
 20
328.68440999759133
 11
193.73109143913055
 21
266.64797168996694
  0
LINE
  8
ValleyLine
  6
CONTINUOUS
 62
5
 10
8.14166341039053
 20
362.1149855672747
 11
5.030391049629028E-14
 21
364.76037236940937
  0
LINE
  8
MountainLine
  6
CONTINUOUS
 62
1
 10
8.14166341039053
 20
362.1149855672747
 11
214.40076749944976
 21
295.09734012138614
  0
LINE
  8
ValleyLine
  6
CONTINUOUS
 62
5
 10
19.936014988500546
 20
391.00276282610207
 11
5.030391049629028E-14
 21
397.48036676026027
  0
LINE
  8
MountainLine
  6
CONTINUOUS
 62
1
 10
19.936014988500546
 20
391.00276282610207
 11
233.63309765748437
 21
321.56837163943754
  0
LINE
  8
ValleyLine
  6
CONTINUOUS
 62
5
 10
43.59201778681957
 20
428.483969418049
 11
7.545586574443542E-14
 21
442.64787459552184
  0
LINE
  8
MountainLine
  6
CONTINUOUS
 62
1
 10
43.59201778681957
 20
428.483969418049
 11
260.18189264585584
 21
358.10965307172773
  0
LINE
  8
ValleyLine
  6
CONTINUOUS
 62
5
 10
83.65087577627231
 20
485.03204419087797
 11
1.0060782099258056E-13
 21
512.211861337721
  0
LINE
  8
MountainLine
  6
CONTINUOUS
 62
1
 10
83.65087577627231
 20
485.03204419087797
 11
301.0705781435896
 21
414.38810054264036
  0
LINE
  8
ValleyLine
  6
CONTINUOUS
 62
5
 10
132.16008726506197
 20
552.4327655552904
 11
1.0060782099258056E-13
 21
595.3741809635687
  0
LINE
  8
MountainLine
  6
CONTINUOUS
 62
1
 10
132.16008726506197
 20
552.4327655552904
 11
349.9521631660959
 21
481.66783041159243
  0
LINE
  8
ValleyLine
  6
CONTINUOUS
 62
5
 10
179.93729652497947
 20
618.6868104009928
 11
1.2575977624072572E-13
 21
677.1519821288596
  0
LINE
  8
MountainLine
  6
CONTINUOUS
 62
1
 10
179.93729652497947
 20
618.6868104009928
 11
398.01994865596004
 21
547.827461316928
  0
LINE
  8
MountainLine
  6
CONTINUOUS
 62
1
 10
225.02480588383847
 20
680.7557304952479
 11
1.5091173148887084E-13
 21
753.8707220678934
  0
LINE
  8
ValleyLine
  6
CONTINUOUS
 62
5
 10
225.02480588383847
 20
680.7557304952479
 11
443.11409256658567
 21
609.8942257146385
  0
LINE
  8
MountainLine
  6
CONTINUOUS
 62
1
 10
257.7250690901927
 20
727.1195060910485
 11
1.5091173148887084E-13
 21
810.8594572514387
  0
LINE
  8
ValleyLine
  6
CONTINUOUS
 62
5
 10
257.7250690901927
 20
727.1195060910485
 11
476.61123065427495
 21
655.9990809660601
  0
LINE
  8
MountainLine
  6
CONTINUOUS
 62
1
 10
266.64117496890634
 20
759.2802223814766
 11
1.0060782099258056E-13
 21
845.917191955559
  0
LINE
  8
ValleyLine
  6
CONTINUOUS
 62
5
 10
266.64117496890634
 20
759.2802223814766
 11
497.21765009213874
 21
684.3613841259817
  0
LINE
  8
ValleyLine
  6
CONTINUOUS
 62
5
 10
270.67723061738747
 20
809.1650512495881
 11
1.5091173148887084E-13
 21
897.113414798954
  0
LINE
  8
MountainLine
  6
CONTINUOUS
 62
1
 10
270.67723061738747
 20
809.1650512495881
 11
527.3100348525652
 21
725.7799984540951
  0
LINE
  8
ValleyLine
  6
CONTINUOUS
 62
5
 10
277.8994715354906
 20
847.1745341392017
 11
2.0121564198516112E-13
 21
937.4695460137985
  0
LINE
  8
MountainLine
  6
CONTINUOUS
 62
1
 10
277.8994715354906
 20
847.1745341392017
 11
551.0307736202309
 21
758.4287944341297
  0
LINE
  8
ValleyLine
  6
CONTINUOUS
 62
5
 10
419.479007676663
 20
1434.9764384769587
 11
3.018234629777417E-13
 21
1571.273430227341
  0
LINE
  8
MountainLine
  6
CONTINUOUS
 62
1
 10
419.479007676663
 20
1434.9764384769587
 11
923.5713496066376
 21
1271.1869078637371
  0
LINE
  8
ValleyLine
  6
CONTINUOUS
 62
5
 10
446.06614691183574
 20
1481.4050091131405
 11
3.018234629777417E-13
 21
1626.3406860675173
  0
LINE
  8
MountainLine
  6
CONTINUOUS
 62
1
 10
446.06614691183574
 20
1481.4050091131405
 11
955.9390704737096
 21
1315.7372536720325
  0
LINE
  8
ValleyLine
  6
CONTINUOUS
 62
5
 10
482.2204566317881
 20
1538.3992468004801
 11
3.018234629777417E-13
 21
1695.0821710865741
  0
LINE
  8
MountainLine
  6
CONTINUOUS
 62
1
 10
482.2204566317881
 20
1538.3992468004801
 11
996.3443015885953
 21
1371.3502832710203
  0
LINE
  8
ValleyLine
  6
CONTINUOUS
 62
5
 10
482.2204566317881
 20
1538.3992468004801
 11
3.018234629777417E-13
 21
1695.0821710865741
  0
LINE
  8
MountainLine
  6
CONTINUOUS
 62
1
 10
482.2204566317881
 20
1538.3992468004801
 11
996.3443015885953
 21
1371.3502832710203
  0
LINE
  8
ValleyLine
  6
CONTINUOUS
 62
5
 10
0.0
 20
-0.0
 11
0.0
 21
-0.0
  0
LINE
  8
ValleyLine
  6
CONTINUOUS
 62
5
 10
0.0
 20
-0.0
 11
-11.96533313278114
 21
16.471526498693173
  0
LINE
  8
ValleyLine
  6
CONTINUOUS
 62
5
 10
-11.96533313278114
 20
16.471526498693173
 11
-47.86133253112456
 21
65.88610599477269
  0
LINE
  8
ValleyLine
  6
CONTINUOUS
 62
5
 10
-47.86133253112456
 20
65.88610599477269
 11
-93.1602062826008
 21
128.23680723710908
  0
LINE
  8
ValleyLine
  6
CONTINUOUS
 62
5
 10
-93.1602062826008
 20
128.23680723710908
 11
-133.42439000378243
 21
183.79439075518266
  0
LINE
  8
ValleyLine
  6
CONTINUOUS
 62
5
 10
-133.42439000378243
 20
183.79439075518266
 11
-166.4610788470989
 21
230.16112961776489
  0
LINE
  8
ValleyLine
  6
CONTINUOUS
 62
5
 10
-166.4610788470989
 20
230.16112961776489
 11
-190.9285248843636
 21
267.5585807636143
  0
LINE
  8
ValleyLine
  6
CONTINUOUS
 62
5
 10
-190.9285248843636
 20
267.5585807636143
 11
-206.25910408905918
 21
297.7427269235208
  0
LINE
  8
ValleyLine
  6
CONTINUOUS
 62
5
 10
-206.25910408905918
 20
297.7427269235208
 11
-213.69708266898377
 21
328.04597557359585
  0
LINE
  8
ValleyLine
  6
CONTINUOUS
 62
5
 10
-213.69708266898377
 20
328.04597557359585
 11
-216.58987485903626
 21
372.2735582492007
  0
LINE
  8
ValleyLine
  6
CONTINUOUS
 62
5
 10
-216.58987485903626
 20
372.2735582492007
 11
-217.41970236731726
 21
441.5679176894834
  0
LINE
  8
ValleyLine
  6
CONTINUOUS
 62
5
 10
-217.41970236731726
 20
441.5679176894834
 11
-217.7920759010338
 21
524.6092458198708
  0
LINE
  8
ValleyLine
  6
CONTINUOUS
 62
5
 10
-217.7920759010338
 20
524.6092458198708
 11
-218.08265213098045
 21
606.2926330447948
  0
LINE
  8
ValleyLine
  6
CONTINUOUS
 62
5
 10
-218.08265213098045
 20
606.2926330447948
 11
-218.08928668274714
 21
683.0092172872841
  0
LINE
  8
ValleyLine
  6
CONTINUOUS
 62
5
 10
-218.08928668274714
 20
683.0092172872841
 11
-218.88616156408207
 21
739.7390321264504
  0
LINE
  8
ValleyLine
  6
CONTINUOUS
 62
5
 10
-218.88616156408207
 20
739.7390321264504
 11
-230.57647512323226
 21
770.9983537000642
  0
LINE
  8
ValleyLine
  6
CONTINUOUS
 62
5
 10
-230.57647512323226
 20
770.9983537000642
 11
-256.63280423517773
 21
813.7283620034611
  0
LINE
  8
ValleyLine
  6
CONTINUOUS
 62
5
 10
-256.63280423517773
 20
813.7283620034611
 11
-273.1313020847402
 21
848.7238063087266
  0
LINE
  8
ValleyLine
  6
CONTINUOUS
 62
5
 10
-273.1313020847402
 20
848.7238063087266
 11
-504.0923419299742
 21
1407.4838996141193
  0
LINE
  8
ValleyLine
  6
CONTINUOUS
 62
5
 10
-504.0923419299742
 20
1407.4838996141193
 11
-509.8729235618736
 21
1460.6729306264094
  0
LINE
  8
ValleyLine
  6
CONTINUOUS
 62
5
 10
-509.8729235618736
 20
1460.6729306264094
 11
-514.1238449568068
 21
1528.0332075571146
  0
LINE
  8
ValleyLine
  6
CONTINUOUS
 62
5
 10
-514.1238449568068
 20
1528.0332075571146
 11
-514.1238449568068
 21
1528.0332075571146
  0
LINE
  8
ValleyLine
  6
CONTINUOUS
 62
5
 10
-514.1238449568068
 20
1528.0332075571146
 11
-518.2331970600967
 21
1597.3176610154594
  0
LINE
  8
ValleyLine
  6
CONTINUOUS
 62
5
 10
0.0
 20
-0.0
 11
0.0
 21
-0.0
  0
LINE
  8
MountainLine
  6
CONTINUOUS
 62
1
 10
0.0
 20
-0.0
 11
0.0
 21
0.0
  0
LINE
  8
ValleyLine
  6
CONTINUOUS
 62
5
 10
0.0
 20
-0.0
 11
0.0
 21
-0.0
  0
LINE
  8
MountainLine
  6
CONTINUOUS
 62
1
 10
0.0
 20
-0.0
 11
0.0
 21
0.0
  0
LINE
  8
ValleyLine
  6
CONTINUOUS
 62
5
 10
-11.96533313278114
 20
16.471526498693173
 11
-11.966895643680088
 21
16.471018808126527
  0
LINE
  8
MountainLine
  6
CONTINUOUS
 62
1
 10
-11.96533313278114
 20
16.471526498693173
 11
3.1439944060181426E-15
 21
20.35929890552195
  0
LINE
  8
ValleyLine
  6
CONTINUOUS
 62
5
 10
-47.86133253112456
 20
65.88610599477269
 11
-47.86758257472035
 21
65.8840752325061
  0
LINE
  8
MountainLine
  6
CONTINUOUS
 62
1
 10
-47.86133253112456
 20
65.88610599477269
 11
1.257597762407257E-14
 21
81.4371956220878
  0
LINE
  8
ValleyLine
  6
CONTINUOUS
 62
5
 10
-93.1602062826008
 20
128.23680723710908
 11
-93.16772029554639
 21
128.23436578630532
  0
LINE
  8
MountainLine
  6
CONTINUOUS
 62
1
 10
-93.1602062826008
 20
128.23680723710908
 11
2.515195524814514E-14
 21
158.5063931634466
  0
LINE
  8
ValleyLine
  6
CONTINUOUS
 62
5
 10
-133.42439000378243
 20
183.79439075518266
 11
-133.51342336658797
 21
183.7654620619853
  0
LINE
  8
MountainLine
  6
CONTINUOUS
 62
1
 10
-133.42439000378243
 20
183.79439075518266
 11
3.772793287221771E-14
 21
227.14660302527247
  0
LINE
  8
ValleyLine
  6
CONTINUOUS
 62
5
 10
-166.4610788470989
 20
230.16112961776489
 11
-167.0765547981063
 21
229.96114935872487
  0
LINE
  8
MountainLine
  6
CONTINUOUS
 62
1
 10
-166.4610788470989
 20
230.16112961776489
 11
5.030391049629028E-14
 21
284.2476127913661
  0
LINE
  8
ValleyLine
  6
CONTINUOUS
 62
5
 10
-190.9285248843636
 20
267.5585807636143
 11
-193.73109143913044
 21
266.647971689967
  0
LINE
  8
MountainLine
  6
CONTINUOUS
 62
1
 10
-190.9285248843636
 20
267.5585807636143
 11
6.287988812036286E-14
 21
329.59501907123865
  0
LINE
  8
ValleyLine
  6
CONTINUOUS
 62
5
 10
-206.25910408905918
 20
297.7427269235208
 11
-214.40076749944964
 21
295.0973401213862
  0
LINE
  8
MountainLine
  6
CONTINUOUS
 62
1
 10
-206.25910408905918
 20
297.7427269235208
 11
7.545586574443542E-14
 21
364.7603723694093
  0
LINE
  8
ValleyLine
  6
CONTINUOUS
 62
5
 10
-213.69708266898377
 20
328.04597557359585
 11
-233.63309765748423
 21
321.56837163943754
  0
LINE
  8
MountainLine
  6
CONTINUOUS
 62
1
 10
-213.69708266898377
 20
328.04597557359585
 11
7.545586574443542E-14
 21
397.4803667602603
  0
LINE
  8
ValleyLine
  6
CONTINUOUS
 62
5
 10
-216.58987485903626
 20
372.2735582492007
 11
-260.1818926458557
 21
358.10965307172785
  0
LINE
  8
MountainLine
  6
CONTINUOUS
 62
1
 10
-216.58987485903626
 20
372.2735582492007
 11
5.030391049629028E-14
 21
442.64787459552184
  0
LINE
  8
ValleyLine
  6
CONTINUOUS
 62
5
 10
-217.41970236731726
 20
441.5679176894834
 11
-301.0705781435895
 21
414.3881005426405
  0
LINE
  8
MountainLine
  6
CONTINUOUS
 62
1
 10
-217.41970236731726
 20
441.5679176894834
 11
1.0060782099258056E-13
 21
512.211861337721
  0
LINE
  8
ValleyLine
  6
CONTINUOUS
 62
5
 10
-217.7920759010338
 20
524.6092458198708
 11
-349.9521631660957
 21
481.66783041159255
  0
LINE
  8
MountainLine
  6
CONTINUOUS
 62
1
 10
-217.7920759010338
 20
524.6092458198708
 11
1.0060782099258056E-13
 21
595.3741809635688
  0
LINE
  8
ValleyLine
  6
CONTINUOUS
 62
5
 10
-218.08265213098045
 20
606.2926330447948
 11
-398.0199486559598
 21
547.8274613169281
  0
LINE
  8
MountainLine
  6
CONTINUOUS
 62
1
 10
-218.08265213098045
 20
606.2926330447948
 11
1.0060782099258056E-13
 21
677.1519821288595
  0
LINE
  8
MountainLine
  6
CONTINUOUS
 62
1
 10
-218.08928668274714
 20
683.0092172872841
 11
-443.1140925665855
 21
609.8942257146387
  0
LINE
  8
ValleyLine
  6
CONTINUOUS
 62
5
 10
-218.08928668274714
 20
683.0092172872841
 11
1.0060782099258056E-13
 21
753.8707220678934
  0
LINE
  8
MountainLine
  6
CONTINUOUS
 62
1
 10
-218.88616156408207
 20
739.7390321264504
 11
-476.61123065427455
 21
655.9990809660602
  0
LINE
  8
ValleyLine
  6
CONTINUOUS
 62
5
 10
-218.88616156408207
 20
739.7390321264504
 11
1.5091173148887084E-13
 21
810.8594572514388
  0
LINE
  8
MountainLine
  6
CONTINUOUS
 62
1
 10
-230.57647512323226
 20
770.9983537000642
 11
-497.21765009213857
 21
684.3613841259819
  0
LINE
  8
ValleyLine
  6
CONTINUOUS
 62
5
 10
-230.57647512323226
 20
770.9983537000642
 11
1.5091173148887084E-13
 21
845.917191955559
  0
LINE
  8
ValleyLine
  6
CONTINUOUS
 62
5
 10
-256.63280423517773
 20
813.7283620034611
 11
-527.3100348525651
 21
725.7799984540953
  0
LINE
  8
MountainLine
  6
CONTINUOUS
 62
1
 10
-256.63280423517773
 20
813.7283620034611
 11
1.5091173148887084E-13
 21
897.113414798954
  0
LINE
  8
ValleyLine
  6
CONTINUOUS
 62
5
 10
-273.1313020847402
 20
848.7238063087266
 11
-551.0307736202305
 21
758.4287944341299
  0
LINE
  8
MountainLine
  6
CONTINUOUS
 62
1
 10
-273.1313020847402
 20
848.7238063087266
 11
1.5091173148887084E-13
 21
937.4695460137985
  0
LINE
  8
ValleyLine
  6
CONTINUOUS
 62
5
 10
-504.0923419299742
 20
1407.4838996141193
 11
-923.5713496066372
 21
1271.1869078637371
  0
LINE
  8
MountainLine
  6
CONTINUOUS
 62
1
 10
-504.0923419299742
 20
1407.4838996141193
 11
3.018234629777417E-13
 21
1571.2734302273411
  0
LINE
  8
ValleyLine
  6
CONTINUOUS
 62
5
 10
-509.8729235618736
 20
1460.6729306264094
 11
-955.939070473709
 21
1315.737253672033
  0
LINE
  8
MountainLine
  6
CONTINUOUS
 62
1
 10
-509.8729235618736
 20
1460.6729306264094
 11
2.0121564198516112E-13
 21
1626.3406860675173
  0
LINE
  8
ValleyLine
  6
CONTINUOUS
 62
5
 10
-514.1238449568068
 20
1528.0332075571146
 11
-996.3443015885948
 21
1371.3502832710208
  0
LINE
  8
MountainLine
  6
CONTINUOUS
 62
1
 10
-514.1238449568068
 20
1528.0332075571146
 11
3.018234629777417E-13
 21
1695.0821710865741
  0
LINE
  8
ValleyLine
  6
CONTINUOUS
 62
5
 10
-514.1238449568068
 20
1528.0332075571146
 11
-996.3443015885948
 21
1371.3502832710208
  0
LINE
  8
MountainLine
  6
CONTINUOUS
 62
1
 10
-514.1238449568068
 20
1528.0332075571146
 11
3.018234629777417E-13
 21
1695.0821710865741
  0
LINE
  8
ValleyLine
  6
CONTINUOUS
 62
5
 10
0.0
 20
-0.0
 11
0.0
 21
-0.0
  0
LINE
  8
ValleyLine
  6
CONTINUOUS
 62
5
 10
0.0
 20
-0.0
 11
-19.361878206454097
 21
6.292698506524804
  0
LINE
  8
ValleyLine
  6
CONTINUOUS
 62
5
 10
-19.361878206454097
 20
6.292698506524804
 11
-77.44751282581639
 21
25.170794026099216
  0
LINE
  8
ValleyLine
  6
CONTINUOUS
 62
5
 10
-77.44751282581639
 20
25.170794026099216
 11
-150.7438941771452
 21
48.98756100576818
  0
LINE
  8
ValleyLine
  6
CONTINUOUS
 62
5
 10
-150.7438941771452
 20
48.98756100576818
 11
-215.9742313171473
 21
70.26789685138993
  0
LINE
  8
ValleyLine
  6
CONTINUOUS
 62
5
 10
-215.9742313171473
 20
70.26789685138993
 11
-269.95515932958966
 21
88.36089807828756
  0
LINE
  8
ValleyLine
  6
CONTINUOUS
 62
5
 10
-269.95515932958966
 20
88.36089807828756
 11
-311.73140923954736
 21
104.23446765962055
  0
LINE
  8
ValleyLine
  6
CONTINUOUS
 62
5
 10
-311.73140923954736
 20
104.23446765962055
 11
-341.87590431559073
 21
119.64286649806046
  0
LINE
  8
ValleyLine
  6
CONTINUOUS
 62
5
 10
-341.87590431559073
 20
119.64286649806046
 11
-365.70515804361247
 21
139.78677552459382
  0
LINE
  8
ValleyLine
  6
CONTINUOUS
 62
5
 10
-365.70515804361247
 20
139.78677552459382
 11
-394.04179692782657
 21
173.86730094202144
  0
LINE
  8
ValleyLine
  6
CONTINUOUS
 62
5
 10
-394.04179692782657
 20
173.86730094202144
 11
-435.44334403047765
 21
229.43985497222207
  0
LINE
  8
ValleyLine
  6
CONTINUOUS
 62
5
 10
-435.44334403047765
 20
229.43985497222207
 11
-484.5550685533316
 21
296.4028249937092
  0
LINE
  8
ValleyLine
  6
CONTINUOUS
 62
5
 10
-484.5550685533316
 20
296.4028249937092
 11
-532.8024400296256
 21
362.31527699415284
  0
LINE
  8
ValleyLine
  6
CONTINUOUS
 62
5
 10
-532.8024400296256
 20
362.31527699415284
 11
-577.9006843187432
 21
424.37639770503995
  0
LINE
  8
ValleyLine
  6
CONTINUOUS
 62
5
 10
-577.9006843187432
 20
424.37639770503995
 11
-611.8903181678784
 21
469.80339069449855
  0
LINE
  8
ValleyLine
  6
CONTINUOUS
 62
5
 10
-611.8903181678784
 20
469.80339069449855
 11
-639.7217487244408
 21
488.2213191754403
  0
LINE
  8
ValleyLine
  6
CONTINUOUS
 62
5
 10
-639.7217487244408
 20
488.2213191754403
 11
-685.9178304981031
 21
507.4750960817905
  0
LINE
  8
ValleyLine
  6
CONTINUOUS
 62
5
 10
-685.9178304981031
 20
507.4750960817905
 11
-719.8352017001151
 21
526.0894315295003
  0
LINE
  8
ValleyLine
  6
CONTINUOUS
 62
5
 10
-719.8352017001151
 20
526.0894315295003
 11
-1235.1175503878953
 21
842.3803497169317
  0
LINE
  8
ValleyLine
  6
CONTINUOUS
 62
5
 10
-1235.1175503878953
 20
842.3803497169317
 11
-1271.0578671782243
 21
882.0134390873071
  0
LINE
  8
ValleyLine
  6
CONTINUOUS
 62
5
 10
-1271.0578671782243
 20
882.0134390873071
 11
-1314.0903121986828
 21
934.0104189654542
  0
LINE
  8
ValleyLine
  6
CONTINUOUS
 62
5
 10
-1314.0903121986828
 20
934.0104189654542
 11
-1314.0903121986828
 21
934.0104189654542
  0
LINE
  8
ValleyLine
  6
CONTINUOUS
 62
5
 10
-1314.0903121986828
 20
934.0104189654542
 11
-1358.1392278420742
 21
987.6473026964444
  0
LINE
  8
ValleyLine
  6
CONTINUOUS
 62
5
 10
0.0
 20
-0.0
 11
0.0
 21
-0.0
  0
LINE
  8
MountainLine
  6
CONTINUOUS
 62
1
 10
0.0
 20
-0.0
 11
0.0
 21
0.0
  0
LINE
  8
ValleyLine
  6
CONTINUOUS
 62
5
 10
0.0
 20
-0.0
 11
0.0
 21
-0.0
  0
LINE
  8
MountainLine
  6
CONTINUOUS
 62
1
 10
0.0
 20
-0.0
 11
0.0
 21
0.0
  0
LINE
  8
ValleyLine
  6
CONTINUOUS
 62
5
 10
-19.361878206454097
 20
6.292698506524804
 11
-19.362843891297437
 21
6.291369355365556
  0
LINE
  8
MountainLine
  6
CONTINUOUS
 62
1
 10
-19.361878206454097
 20
6.292698506524804
 11
-11.966895643680088
 21
16.471018808126527
  0
LINE
  8
ValleyLine
  6
CONTINUOUS
 62
5
 10
-77.44751282581639
 20
25.170794026099216
 11
-77.45137556518975
 21
25.165477421462224
  0
LINE
  8
MountainLine
  6
CONTINUOUS
 62
1
 10
-77.44751282581639
 20
25.170794026099216
 11
-47.86758257472035
 21
65.8840752325061
  0
LINE
  8
ValleyLine
  6
CONTINUOUS
 62
5
 10
-150.7438941771452
 20
48.98756100576818
 11
-150.74853809253747
 21
48.98116920458204
  0
LINE
  8
MountainLine
  6
CONTINUOUS
 62
1
 10
-150.7438941771452
 20
48.98756100576818
 11
-93.16772029554639
 21
128.23436578630532
  0
LINE
  8
ValleyLine
  6
CONTINUOUS
 62
5
 10
-215.9742313171473
 20
70.26789685138993
 11
-216.02925696149381
 21
70.19216054934911
  0
LINE
  8
MountainLine
  6
CONTINUOUS
 62
1
 10
-215.9742313171473
 20
70.26789685138993
 11
-133.51342336658797
 21
183.76546206198532
  0
LINE
  8
ValleyLine
  6
CONTINUOUS
 62
5
 10
-269.95515932958966
 20
88.36089807828756
 11
-270.3355443865704
 21
87.83734296304189
  0
LINE
  8
MountainLine
  6
CONTINUOUS
 62
1
 10
-269.95515932958966
 20
88.36089807828756
 11
-167.0765547981063
 21
229.96114935872492
  0
LINE
  8
ValleyLine
  6
CONTINUOUS
 62
5
 10
-311.73140923954736
 20
104.23446765962055
 11
-313.46349062612694
 21
101.85046215434774
  0
LINE
  8
MountainLine
  6
CONTINUOUS
 62
1
 10
-311.73140923954736
 20
104.23446765962055
 11
-193.73109143913047
 21
266.64797168996705
  0
LINE
  8
ValleyLine
  6
CONTINUOUS
 62
5
 10
-341.87590431559073
 20
119.64286649806046
 11
-346.90772902817343
 21
112.71715393668157
  0
LINE
  8
MountainLine
  6
CONTINUOUS
 62
1
 10
-341.87590431559073
 20
119.64286649806046
 11
-214.40076749944964
 21
295.0973401213862
  0
LINE
  8
ValleyLine
  6
CONTINUOUS
 62
5
 10
-365.70515804361247
 20
139.78677552459382
 11
-378.0262929067331
 21
122.82818825930748
  0
LINE
  8
MountainLine
  6
CONTINUOUS
 62
1
 10
-365.70515804361247
 20
139.78677552459382
 11
-233.63309765748434
 21
321.5683716394376
  0
LINE
  8
ValleyLine
  6
CONTINUOUS
 62
5
 10
-394.04179692782657
 20
173.86730094202144
 11
-420.98314555827096
 21
136.78571577396693
  0
LINE
  8
MountainLine
  6
CONTINUOUS
 62
1
 10
-394.04179692782657
 20
173.86730094202144
 11
-260.1818926458558
 21
358.10965307172785
  0
LINE
  8
ValleyLine
  6
CONTINUOUS
 62
5
 10
-435.44334403047765
 20
229.43985497222207
 11
-487.1424284489092
 21
158.28216987378002
  0
LINE
  8
MountainLine
  6
CONTINUOUS
 62
1
 10
-435.44334403047765
 20
229.43985497222207
 11
-301.0705781435895
 21
414.3881005426405
  0
LINE
  8
ValleyLine
  6
CONTINUOUS
 62
5
 10
-484.5550685533316
 20
296.4028249937092
 11
-566.234494439292
 21
183.9807399298082
  0
LINE
  8
MountainLine
  6
CONTINUOUS
 62
1
 10
-484.5550685533316
 20
296.4028249937092
 11
-349.9521631660958
 21
481.66783041159255
  0
LINE
  8
ValleyLine
  6
CONTINUOUS
 62
5
 10
-532.8024400296256
 20
362.31527699415284
 11
-644.0098051258312
 21
209.2514702524985
  0
LINE
  8
MountainLine
  6
CONTINUOUS
 62
1
 10
-532.8024400296256
 20
362.31527699415284
 11
-398.0199486559599
 21
547.8274613169281
  0
LINE
  8
MountainLine
  6
CONTINUOUS
 62
1
 10
-577.9006843187432
 20
424.37639770503995
 11
-716.9736626668026
 21
232.95886468069202
  0
LINE
  8
ValleyLine
  6
CONTINUOUS
 62
5
 10
-577.9006843187432
 20
424.37639770503995
 11
-443.11409256658555
 21
609.8942257146385
  0
LINE
  8
MountainLine
  6
CONTINUOUS
 62
1
 10
-611.8903181678784
 20
469.80339069449855
 11
-771.1731706185324
 21
250.56935234034097
  0
LINE
  8
ValleyLine
  6
CONTINUOUS
 62
5
 10
-611.8903181678784
 20
469.80339069449855
 11
-476.6112306542748
 21
655.9990809660602
  0
LINE
  8
MountainLine
  6
CONTINUOUS
 62
1
 10
-639.7217487244408
 20
488.2213191754403
 11
-804.5150576554327
 21
261.40278814820243
  0
LINE
  8
ValleyLine
  6
CONTINUOUS
 62
5
 10
-639.7217487244408
 20
488.2213191754403
 11
-497.21765009213857
 21
684.361384125982
  0
LINE
  8
ValleyLine
  6
CONTINUOUS
 62
5
 10
-685.9178304981031
 20
507.4750960817905
 11
-853.2055590003422
 21
277.2232910546184
  0
LINE
  8
MountainLine
  6
CONTINUOUS
 62
1
 10
-685.9178304981031
 20
507.4750960817905
 11
-527.3100348525651
 21
725.7799984540953
  0
LINE
  8
ValleyLine
  6
CONTINUOUS
 62
5
 10
-719.8352017001151
 20
526.0894315295003
 11
-891.5865205646822
 21
289.6940214272307
  0
LINE
  8
MountainLine
  6
CONTINUOUS
 62
1
 10
-719.8352017001151
 20
526.0894315295003
 11
-551.0307736202307
 21
758.4287944341298
  0
LINE
  8
ValleyLine
  6
CONTINUOUS
 62
5
 10
-1235.1175503878953
 20
842.3803497169317
 11
-1494.369834699151
 21
485.55019275006697
  0
LINE
  8
MountainLine
  6
CONTINUOUS
 62
1
 10
-1235.1175503878953
 20
842.3803497169317
 11
-923.5713496066372
 21
1271.1869078637371
  0
LINE
  8
ValleyLine
  6
CONTINUOUS
 62
5
 10
-1271.0578671782243
 20
882.0134390873071
 11
-1546.7419072004425
 21
502.56691063827446
  0
LINE
  8
MountainLine
  6
CONTINUOUS
 62
1
 10
-1271.0578671782243
 20
882.0134390873071
 11
-955.9390704737092
 21
1315.737253672033
  0
LINE
  8
ValleyLine
  6
CONTINUOUS
 62
5
 10
-1314.0903121986828
 20
934.0104189654542
 11
-1612.1189444676227
 21
523.8091977277339
  0
LINE
  8
MountainLine
  6
CONTINUOUS
 62
1
 10
-1314.0903121986828
 20
934.0104189654542
 11
-996.3443015885948
 21
1371.3502832710208
  0
LINE
  8
ValleyLine
  6
CONTINUOUS
 62
5
 10
-1314.0903121986828
 20
934.0104189654542
 11
-1612.1189444676227
 21
523.8091977277339
  0
LINE
  8
MountainLine
  6
CONTINUOUS
 62
1
 10
-1314.0903121986828
 20
934.0104189654542
 11
-996.3443015885948
 21
1371.3502832710208
  0
ENDSEC
  0
EOF
