<svg viewBox="0 0 1000 1000" xmlns="http://www.w3.org/2000/svg" fill-rule="evenodd" clip-rule="evenodd" stroke-linecap="round" stroke-linejoin="round" stroke-miterlimit="1.5">
  <path d="M497.198-1.788l297.26 95.892 183.717 251.05v310.314l-183.717 251.05-297.26 95.892-297.26-95.892-183.717-251.05V345.154l183.717-251.05 297.26-95.892z" fill="none" stroke="#000"/>
  <path d="M353.299 954.124c.095.091.154.219.154.36 0 .276-.224.5-.5.5-.256 0-.447-.114-.57-.346-.093-.177-.132-.55-.029-1.062.404-2.028 2.689-7.22 3.085-8.406 3.05-9.151 6.922-14.584 10.064-24.009 2.481-7.445 6.03-18.703 7.667-26.293 4.175-19.369 2.821-19.689 7.194-34.595 1.929-6.575 5.981-21.238 8.218-25.697 6.782-13.517 12.885-26.52 16.972-37.815 4.433-12.253 7.746-25.22 10.893-37.805.858-3.432 4.97-20.3 5.663-23.764 2.86-14.302 2.107-16.697 10.379-29.105 4.632-6.948 12.73-18.008 17.974-24.563 9.377-11.721 11.57-15.285 20.208-27.673 8.89-12.75 20.641-24.696 25.801-42.301 4.185-14.282 4.339-59.093 4.015-75.462-.159-8.042 1.183-27.013-.077-33.461-.053-.271.124-.533.395-.586.271-.053.534.124.587.395 1.265 6.481-.065 25.549.095 33.632.325 16.435.147 61.424-4.056 75.763-5.193 17.719-16.992 29.759-25.94 42.592-8.654 12.412-10.852 15.982-20.247 27.726-5.229 6.536-13.304 17.564-17.923 24.493-8.168 12.252-7.406 14.624-10.23 28.746-.694 3.471-4.815 20.372-5.674 23.81-3.155 12.618-6.478 25.618-10.923 37.903-4.098 11.327-10.217 24.368-17.018 37.924-2.222 4.429-6.236 18.998-8.153 25.53-4.363 14.875-3.009 15.195-7.176 34.523-1.643 7.621-5.204 18.925-7.696 26.399-3.141 9.425-7.013 14.859-10.064 24.01-.343 1.028-2.125 5.095-2.833 7.442-.141.467-.225.987-.255 1.195zm-.328-.139c-.006 0-.012-.001-.018-.001l.018.001z" fill="#0d28f2"/>
  <path d="M649.709 955.479c.13.017.253.085.337.199.164.222.117.535-.105.699-.206.152-.428.174-.664.06-.181-.087-.433-.364-.655-.837-.879-1.872-2.123-7.406-2.509-8.595-2.979-9.175-3.09-15.846-6.159-25.295-2.423-7.463-6.253-18.629-9.443-25.708-8.141-18.064-9.421-17.517-14.754-32.107-2.352-6.437-7.798-20.641-8.646-25.557-2.569-14.903-5.38-28.99-8.798-40.505-3.709-12.491-8.743-24.892-13.684-36.886-1.348-3.271-8.055-19.285-9.554-22.484-6.191-13.206-8.219-14.686-8.931-29.581-.399-8.342-.451-22.049-.124-30.437.585-14.999.234-19.168-.172-34.265-.418-15.538 1.944-32.128-4.358-49.357-5.113-13.976-31.598-50.124-41.578-63.102-4.903-6.377-15.089-22.437-19.931-26.878-.203-.186-.217-.503-.03-.706.186-.203.503-.217.706-.031 4.867 4.464 15.119 20.596 20.047 27.005 10.021 13.031 36.592 49.336 41.725 63.369 6.343 17.34 3.998 34.034 4.419 49.673.406 15.126.758 19.303.172 34.331-.326 8.364-.275 22.032.123 30.35.703 14.709 2.724 16.165 8.837 29.205 1.503 3.205 8.223 19.25 9.573 22.527 4.954 12.025 10 24.459 13.718 36.983 3.429 11.548 6.249 25.674 8.826 40.619.842 4.884 6.263 18.99 8.6 25.383 5.321 14.56 6.601 14.013 14.725 32.04 3.203 7.107 7.05 18.317 9.483 25.81 3.069 9.449 3.18 16.12 6.159 25.295.335 1.031 1.316 5.361 2.14 7.671.163.459.405.927.505 1.112zm-.347.083c-.005.003-.01.007-.015.011l.015-.011zM886.912 781.403c.116-.063.255-.08.39-.037.263.084.408.365.325.628-.078.244-.245.391-.503.438-.197.035-.564-.042-1.021-.294-1.81-1.001-6.063-4.754-7.073-5.491-7.794-5.683-11.796-11.022-19.823-16.876-6.34-4.623-15.991-11.422-22.726-15.284-17.188-9.857-17.904-8.664-30.78-17.354-5.68-3.833-18.421-12.144-21.991-15.629-10.822-10.564-21.359-20.326-30.882-27.648-10.329-7.942-21.679-15.034-32.716-21.851-3.01-1.86-17.834-10.897-20.924-12.609-12.759-7.065-15.27-7.074-24.583-18.722-5.215-6.522-13.296-17.595-17.95-24.58-8.323-12.492-11.053-15.663-20.235-27.653-9.451-12.341-17.268-27.162-32.477-37.422-12.337-8.322-54.989-22.067-70.684-26.727-7.711-2.289-25.38-9.324-31.906-10.081-.274-.032-.471-.28-.439-.554.032-.274.28-.471.554-.439 6.56.761 24.325 7.815 32.076 10.116 15.758 4.678 58.572 18.501 70.959 26.856 15.307 10.326 23.199 25.223 32.711 37.643 9.2 12.013 11.935 15.19 20.273 27.706 4.641 6.966 12.699 18.007 17.899 24.511 9.196 11.501 11.687 11.495 24.286 18.472 3.097 1.714 17.95 10.769 20.965 12.632 11.066 6.834 22.444 13.946 32.801 21.909 9.549 7.343 20.118 17.131 30.971 27.725 3.546 3.462 16.209 11.708 21.851 15.516 12.85 8.672 13.566 7.479 30.718 17.315 6.762 3.878 16.453 10.702 22.818 15.344 8.027 5.854 12.029 11.193 19.823 16.876.876.639 4.21 3.571 6.232 4.959.401.275.872.513 1.061.605zm-.232.27l-.006.018.006-.018zM976.95 501.293c.057-.118.16-.214.294-.258.262-.087.545.056.631.318.08.243.031.46-.15.649-.139.145-.481.298-1 .361-2.053.251-7.699-.295-8.949-.299-9.646-.033-16.018-2.01-25.953-2.043-7.847-.027-19.651.126-27.372.948-19.702 2.096-19.582 3.483-35.108 3.995-6.848.226-22.042.967-26.978.238-14.96-2.21-29.22-3.937-41.228-4.283-13.024-.375-26.377.537-39.314 1.488-3.528.26-20.836 1.633-24.343 2.06-14.478 1.759-16.517 3.225-30.891-.748-8.049-2.225-21.088-6.454-28.954-9.382-14.068-5.237-18.138-6.205-32.608-10.531-14.892-4.453-29.916-11.874-48.251-11.264-14.874.495-57.482 14.375-72.927 19.806-7.588 2.668-26.026 7.332-31.756 10.546-.24.135-.545.05-.68-.191s-.049-.546.191-.681c5.76-3.231 24.286-7.935 31.913-10.617 15.507-5.453 58.292-19.366 73.225-19.862 18.455-.614 33.583 6.823 48.572 11.305 14.497 4.335 18.575 5.304 32.67 10.552 7.844 2.92 20.846 7.137 28.872 9.355 14.193 3.923 16.207 2.457 30.504.719 3.514-.427 20.855-1.804 24.39-2.064 12.97-.954 26.358-1.866 39.416-1.49 12.041.347 26.342 2.076 41.345 4.293 4.903.724 19.996-.024 26.799-.248 15.494-.512 15.374-1.898 35.035-3.991 7.752-.824 19.603-.98 27.481-.953 9.935.033 16.308 2.01 25.954 2.043 1.084.004 5.504.424 7.955.362.487-.013 1.007-.096 1.215-.133zm-.03.356c.002.005.004.011.005.017l-.005-.017zM885.602 221.608c-.024-.129.004-.267.086-.382.162-.223.475-.274.699-.112.207.15.295.354.258.614-.028.199-.215.523-.598.879-1.515 1.407-6.408 4.276-7.423 5.006-7.833 5.63-14.154 7.766-22.22 13.565-6.372 4.581-15.842 11.627-21.614 16.821-14.729 13.253-13.819 14.305-26.094 23.826-5.414 4.2-17.287 13.71-21.712 16.014-13.414 6.984-25.976 13.949-35.905 20.71-10.769 7.335-21.05 15.905-30.971 24.262-2.705 2.279-15.918 13.542-18.509 15.944-10.695 9.917-11.487 12.299-25.459 17.511-7.824 2.919-20.866 7.141-28.955 9.382-14.465 4.008-18.33 5.612-32.587 10.594-14.674 5.127-31.195 7.927-45.688 19.174-11.758 9.124-38.128 45.355-47.453 58.812-4.582 6.612-16.78 21.202-19.536 27.166-.116.25-.413.36-.664.244-.25-.116-.36-.413-.244-.664 2.77-5.994 15.017-20.67 19.622-27.315 9.362-13.511 35.857-49.872 47.662-59.033 14.587-11.32 31.203-14.168 45.971-19.328 14.285-4.991 18.157-6.598 32.65-10.614 8.066-2.235 21.071-6.444 28.872-9.355 13.797-5.146 14.569-7.515 25.129-17.307 2.596-2.407 15.834-13.692 18.545-15.976 9.947-8.379 20.255-16.969 31.052-24.323 9.957-6.781 22.555-13.767 36.007-20.771 4.395-2.288 16.182-11.746 21.561-15.917 12.249-9.501 11.338-10.554 26.037-23.779 5.795-5.215 15.302-12.291 21.699-16.89 8.067-5.799 14.388-7.935 22.22-13.565.88-.633 4.707-2.886 6.656-4.373.387-.296.759-.668.906-.82zm.184.305c.005.004.01.008.015.011l-.015-.011zM647.586 48.644c-.095-.091-.154-.219-.154-.36 0-.276.224-.5.5-.5.255-.001.446.113.569.345.094.178.133.55.031 1.063-.402 2.028-2.683 7.222-3.077 8.408-3.042 9.154-6.909 14.591-10.041 24.019-2.475 7.447-6.013 18.709-7.642 26.3-4.158 19.373-2.803 19.691-7.162 34.601-1.923 6.578-5.961 21.244-8.194 25.705-6.769 13.524-12.86 26.533-16.936 37.832-4.422 12.257-7.723 25.227-10.857 37.815-.855 3.433-4.952 20.304-5.641 23.769-2.847 14.304-2.092 16.699-10.352 29.115-4.626 6.953-12.713 18.02-17.95 24.58-9.366 11.73-11.556 15.295-20.182 27.692-8.878 12.758-20.618 24.716-25.761 42.326-4.172 14.285-4.283 59.096-3.944 75.465.166 8.042-1.157 27.014.108 33.461.053.27-.123.533-.394.587-.271.053-.534-.124-.587-.395-1.272-6.48.04-25.549-.127-33.632-.341-16.435-.205-61.424 3.984-75.767 5.177-17.724 16.964-29.775 25.9-42.616 8.643-12.421 10.837-15.992 20.221-27.745 5.223-6.541 13.287-17.577 17.899-24.51 8.157-12.26 7.393-14.631 10.204-28.756.691-3.472 4.795-20.376 5.651-23.816 3.143-12.62 6.454-25.623 10.887-37.912 4.088-11.332 10.194-24.378 16.983-37.94 2.218-4.432 6.218-19.005 8.128-25.538 4.35-14.879 2.995-15.198 7.144-34.53 1.636-7.623 5.186-18.93 7.671-26.406 3.132-9.428 6.999-14.865 10.041-24.019.342-1.029 2.12-5.098 2.827-7.446.14-.466.223-.986.253-1.195zm.328.139c.006 0 .012.001.019.001l-.019-.001zM353.362 48.137c-.13-.018-.253-.087-.336-.201-.162-.224-.112-.537.111-.699.207-.15.429-.169.664-.054.18.089.43.368.648.843.864 1.879 2.063 7.423 2.439 8.615 2.905 9.198 2.961 15.87 5.953 25.344 2.363 7.482 6.102 18.679 9.235 25.784 7.994 18.13 9.278 17.593 14.491 32.226 2.301 6.455 7.631 20.703 8.439 25.626 2.448 14.923 5.144 29.032 8.469 40.575 3.607 12.521 8.54 24.962 13.383 36.996 1.321 3.282 7.898 19.35 9.371 22.561 6.083 13.255 8.1 14.752 8.691 29.653.331 8.344.271 22.052-.124 30.436-.707 14.994-.39 19.166-.106 34.266.291 15.541-2.205 32.111 3.957 49.391 4.998 14.017 31.189 50.378 41.063 63.438 4.852 6.416 14.906 22.559 19.712 27.038.201.188.213.505.024.707-.188.202-.504.213-.706.025-4.831-4.503-14.951-20.718-19.827-27.167-9.914-13.112-36.19-49.632-41.208-63.706-6.202-17.391-3.722-34.066-4.015-49.707-.284-15.129-.601-19.309.107-34.332.394-8.361.453-22.029.123-30.35-.583-14.714-2.593-16.186-8.6-29.275-1.476-3.217-8.066-19.316-9.389-22.604-4.856-12.066-9.801-24.54-13.417-37.093-3.335-11.576-6.04-25.724-8.495-40.69-.803-4.891-6.109-19.04-8.393-25.452-5.204-14.603-6.488-14.066-14.465-32.159-3.145-7.133-6.901-18.374-9.273-25.886-2.992-9.474-3.049-16.146-5.953-25.344-.327-1.034-1.272-5.372-2.078-7.688-.159-.46-.397-.93-.495-1.117zm.347-.08c.005-.003.01-.007.015-.01l-.015.01zM111.994 219.031c-.116.062-.255.078-.39.034-.262-.086-.405-.368-.319-.631.079-.243.247-.388.506-.433.198-.034.564.046 1.019.302 1.801 1.016 6.024 4.803 7.028 5.548 7.747 5.747 11.706 11.118 19.685 17.037 6.302 4.674 15.897 11.551 22.601 15.468 17.108 9.997 17.833 8.809 30.638 17.603 5.648 3.88 18.322 12.294 21.863 15.808 10.735 10.652 21.193 20.498 30.656 27.898 10.265 8.026 21.557 15.21 32.538 22.116 2.994 1.884 17.744 11.042 20.821 12.778 12.701 7.169 15.212 7.199 24.429 18.922 5.162 6.564 13.153 17.702 17.75 24.725 8.221 12.559 10.925 15.752 20.01 27.816 9.35 12.417 17.046 27.302 32.171 37.685 12.27 8.422 54.808 22.514 70.465 27.3 7.692 2.352 25.303 9.531 31.823 10.341.274.034.468.284.434.557-.034.274-.284.469-.558.435-6.553-.814-24.26-8.013-31.991-10.376-15.72-4.806-58.42-18.977-70.739-27.433-15.223-10.45-22.993-25.41-32.404-37.907-9.102-12.087-11.811-15.287-20.048-27.87-4.584-7.003-12.552-18.109-17.699-24.655-9.102-11.576-11.593-11.59-24.135-18.669-3.082-1.74-17.861-10.915-20.862-12.802-11.009-6.925-22.33-14.129-32.621-22.176-9.49-7.42-19.979-17.293-30.744-27.975-3.518-3.491-16.114-11.84-21.725-15.693-12.779-8.777-13.504-7.589-30.576-17.564-6.731-3.933-16.365-10.836-22.693-15.529-7.979-5.919-11.938-11.29-19.685-17.037-.871-.646-4.181-3.605-6.192-5.009-.399-.279-.867-.52-1.056-.614zm.235-.268c.002-.006.004-.012.006-.017l-.006.017zM24.436 500.728c-.058.118-.162.213-.296.256-.263.085-.545-.06-.629-.323-.078-.244-.028-.46.156-.648.14-.143.483-.293 1.002-.353 2.055-.234 7.696.358 8.946.372 9.646.111 16.002 2.14 25.936 2.254 7.847.091 19.651.033 27.379-.725 19.719-1.937 19.609-3.324 35.139-3.71 6.85-.171 22.05-.788 26.979-.019 14.942 2.332 29.188 4.174 41.192 4.618 13.021.481 26.38-.323 39.325-1.169 3.53-.23 20.848-1.463 24.358-1.861 14.492-1.642 16.543-3.091 30.884.999 8.031 2.29 21.035 6.625 28.878 9.617 14.024 5.351 18.087 6.352 32.521 10.795 14.855 4.574 29.818 12.117 48.158 11.656 14.878-.374 57.597-13.907 73.086-19.213 7.609-2.606 26.084-7.12 31.84-10.288.241-.133.546-.044.679.197.133.242.044.546-.197.68-5.786 3.183-24.35 7.737-31.998 10.357-15.551 5.327-58.448 18.891-73.385 19.267-18.458.463-33.526-7.097-48.478-11.7-14.461-4.452-18.531-5.455-32.583-10.817-7.82-2.984-20.787-7.306-28.795-9.59-14.161-4.038-16.187-2.588-30.497-.966-3.517.398-20.869 1.634-24.406 1.865-12.978.848-26.372 1.652-39.427 1.17-12.038-.445-26.324-2.29-41.309-4.629-4.897-.764-19.995-.139-26.8.03-15.498.386-15.388 1.774-35.067 3.706-7.758.762-19.609.821-27.487.73-9.934-.114-16.291-2.143-25.936-2.254-1.084-.012-5.501-.468-7.953-.426-.487.008-1.007.087-1.215.122zm.032-.355c-.001-.006-.003-.011-.005-.017l.005.017z" fill="#0d28f2"/>
  <path d="M113.017 781.737c.023.129-.005.267-.088.381-.163.223-.476.272-.699.11-.207-.151-.293-.356-.256-.615.029-.199.217-.523.602-.877 1.521-1.401 6.426-4.25 7.444-4.975 7.855-5.599 14.184-7.709 22.275-13.475 6.39-4.555 15.889-11.563 21.682-16.733 14.783-13.192 13.877-14.248 26.19-23.719 5.432-4.177 17.343-13.64 21.778-15.925 13.442-6.929 26.033-13.843 35.989-20.564 10.8-7.291 21.115-15.818 31.07-24.135 2.715-2.268 15.973-13.477 18.574-15.869 10.735-9.872 11.537-12.252 25.53-17.407 7.836-2.886 20.895-7.055 28.993-9.263 14.482-3.949 18.353-5.537 32.63-10.461 14.695-5.067 31.227-7.8 45.766-18.988 11.795-9.076 38.313-45.199 47.693-58.618 4.608-6.592 16.866-21.133 19.646-27.085.117-.25.415-.358.665-.242.25.117.358.415.241.665-2.794 5.983-15.101 20.609-19.732 27.235-9.418 13.473-36.061 49.725-47.903 58.838-14.633 11.26-31.26 14.041-46.05 19.141-14.305 4.932-18.183 6.523-32.693 10.48-8.075 2.202-21.096 6.358-28.91 9.237-13.818 5.09-14.599 7.456-25.2 17.205-2.605 2.396-15.889 13.627-18.609 15.899-9.981 8.339-20.324 16.887-31.152 24.197-9.984 6.74-22.61 13.675-36.09 20.623-4.405 2.271-16.23 11.68-21.626 15.83-12.288 9.451-11.381 10.507-26.134 23.673-5.816 5.19-15.352 12.228-21.768 16.8-8.09 5.766-14.42 7.876-22.275 13.475-.883.629-4.718 2.866-6.674 4.346-.388.294-.762.665-.909.816zm-.183-.306l-.015-.012.015.012z" fill="#0d28f2"/>
  <path d="M501.173 1000.44c.019.02.035.05.049.07.123.25.023.55-.224.68-.164.08-.329.08-.492-.02-.074-.04-.202-.14-.275-.37-.057-.17-.119-.59-.172-1.233-.623-7.541-.982-49.454-1.124-105.997-.331-131.889.513-343.399 1.903-383.793.097-2.843.198-4.842.301-5.912.051-.533.116-.865.168-.994.086-.211.226-.291.313-.325.139-.056.278-.053.417.015.249.12.353.419.233.667-.014.028-.029.055-.047.079-.02.111-.061.369-.088.654-.102 1.059-.201 3.037-.298 5.85-1.39 40.391-2.232 251.88-1.902 383.756.142 56.5.498 98.382 1.121 105.918.034.415.093.805.117.955zm-.345-.2c-.084-.01-.168 0-.253.04.082-.03.169-.05.253-.04zm.98-496.729c-.069-.002-.139-.018-.206-.05.069.033.137.049.206.05z" fill="#f20d0d"/>
  <path d="M796.191 904.937c.029.009.058.02.086.034.246.125.343.427.218.673-.084.164-.217.259-.405.281-.084.01-.246.006-.439-.133-.151-.109-.447-.406-.873-.893-4.979-5.698-30.156-39.209-63.844-84.62-78.582-105.924-203.496-276.61-226.364-309.937-1.609-2.345-2.715-4.014-3.267-4.936-.275-.459-.421-.764-.455-.899-.057-.221.009-.368.058-.448.079-.127.193-.207.345-.236.271-.05.533.128.584.4.005.03.008.061.008.091.051.101.171.333.318.578.546.913 1.642 2.564 3.234 4.884 22.866 33.324 147.768 203.993 226.342 309.907 33.663 45.377 58.819 78.864 63.794 84.558.274.313.553.592.66.696zm-.393.048c-.076.04-.136.101-.181.182.044-.078.108-.14.181-.182zM501.63 504.724c-.056.04-.122.069-.194.082.074-.014.139-.041.194-.082zM975.917 654.558c.029-.011.059-.018.09-.023.272-.043.528.144.571.417.028.182-.024.337-.163.465-.063.057-.196.149-.434.15-.186 0-.6-.067-1.231-.212-7.374-1.695-47.42-14.073-101.339-31.097-125.77-39.71-327.048-104.702-365.116-118.284-2.679-.956-4.553-1.659-5.542-2.082-.492-.21-.789-.372-.895-.461-.176-.147-.209-.304-.216-.397-.01-.15.035-.281.141-.394.19-.2.507-.208.707-.019.023.022.043.045.061.069.1.052.333.17.596.283.978.418 2.833 1.113 5.484 2.059 38.064 13.581 239.324 78.567 365.081 118.273 53.878 17.011 93.893 29.382 101.262 31.076.406.093.796.155.943.177zm-.29.269c-.038.077-.051.161-.04.253-.01-.089.005-.176.04-.253zm-473.008-151.68c-.022.066-.059.128-.11.181.053-.055.089-.115.11-.181zM974.651 346.353c.017-.025.036-.048.058-.07.196-.195.513-.194.708.002.129.131.178.288.14.473-.017.083-.071.236-.263.375-.151.11-.525.299-1.121.551-6.967 2.952-46.662 16.412-100.319 34.245C748.695 423.525 547.55 488.927 508.75 500.251c-2.73.797-4.661 1.327-5.709 1.564-.522.118-.858.161-.996.151-.229-.015-.348-.123-.408-.195-.096-.115-.137-.248-.116-.401.036-.274.288-.466.561-.43.031.004.061.011.09.02.111-.016.369-.058.648-.121 1.038-.234 2.948-.76 5.65-1.548 38.796-11.323 239.922-76.719 365.068-118.311 53.617-17.82 93.283-31.267 100.245-34.217.383-.162.735-.341.868-.41zM502.495 501.291c.02.066.027.137.017.21.01-.075.004-.145-.017-.21zm472.078-154.549c.015.084.054.16.116.229-.06-.067-.099-.146-.116-.229zM792.872 97.46c-.001-.03.001-.061.006-.092.045-.272.302-.457.574-.413.182.03.314.129.392.3.035.078.08.233.007.459-.058.177-.251.55-.585 1.104-3.912 6.477-28.171 40.659-61.173 86.571-76.98 107.093-201.545 278.033-226.331 309.96-1.744 2.246-2.997 3.808-3.707 4.615-.354.402-.6.634-.718.707-.194.121-.354.103-.444.081-.145-.037-.257-.121-.33-.257-.131-.243-.04-.547.203-.678.027-.014.055-.026.084-.036.081-.079.265-.263.454-.478.703-.798 1.942-2.344 3.668-4.567 24.783-31.924 149.337-202.848 226.309-309.931 32.978-45.877 57.22-80.032 61.129-86.504.215-.357.395-.708.462-.841zM501.305 499.859c.056.042.103.096.138.161-.036-.067-.082-.12-.138-.161zM793.037 97.82c.061.06.138.098.228.117-.087-.019-.165-.06-.228-.117zM499.668 2.471c-.018-.024-.035-.05-.049-.078-.123-.247-.023-.548.223-.671.165-.083.33-.08.493.013.074.043.202.142.275.368.057.177.119.592.173 1.237.63 7.54 1.029 49.453 1.224 105.996.455 131.889-.188 343.399-1.54 383.795-.095 2.842-.194 4.842-.296 5.912-.051.533-.115.865-.167.993-.086.212-.226.292-.312.326-.139.056-.279.053-.418-.014-.249-.12-.353-.419-.233-.668.013-.028.029-.054.047-.078.019-.112.06-.369.087-.654.101-1.059.198-3.038.293-5.851 1.351-40.392 1.994-251.882 1.539-383.758-.195-56.5-.591-98.381-1.22-105.916-.035-.415-.095-.805-.119-.952zm-.165 496.927c.069.001.139.017.205.049-.068-.033-.137-.049-.205-.049zm.764-496.771c-.082.036-.17.048-.254.039.085.012.169-.001.254-.039zM206.473 97.487c-.029-.008-.057-.02-.085-.034-.245-.128-.34-.43-.213-.675.085-.163.22-.257.407-.278.085-.009.247-.004.438.137.15.11.444.41.866.9 4.933 5.738 29.836 39.453 63.155 85.136 77.717 106.559 201.24 278.254 223.836 311.766 1.59 2.358 2.683 4.036 3.228 4.963.271.461.415.768.448.902.054.222-.013.369-.063.448-.08.126-.194.205-.346.233-.272.048-.532-.133-.581-.404-.005-.031-.008-.061-.007-.092-.05-.101-.168-.334-.313-.58-.539-.917-1.621-2.577-3.195-4.911-22.594-33.509-146.105-205.187-223.815-311.735-33.294-45.649-58.176-79.34-63.105-85.074-.272-.316-.549-.596-.655-.702zm291.299 402.594c.057-.039.123-.068.195-.081-.075.014-.14.041-.195.081zM207.05 97.263c-.046.077-.109.138-.183.18.076-.04.136-.1.183-.18zM26.061 347.848c-.028.01-.058.018-.089.022-.273.041-.527-.148-.568-.421-.027-.182.027-.338.167-.464.063-.057.197-.148.435-.146.186.001.6.071 1.229.221 7.36 1.755 47.304 14.458 101.083 31.92 125.443 40.73 326.186 107.356 364.143 121.248 2.67.977 4.539 1.696 5.524 2.126.49.215.786.379.892.469.174.148.206.306.212.399.009.149-.037.28-.144.392-.191.199-.508.205-.707.013-.023-.022-.043-.045-.06-.069-.1-.053-.332-.173-.594-.287-.974-.427-2.824-1.137-5.467-2.104-37.953-13.891-238.677-80.509-364.108-121.236-53.738-17.449-93.651-30.144-101.006-31.898-.405-.097-.794-.161-.942-.185zM498.114 503.1c.022-.065.06-.127.111-.18-.053.055-.09.115-.111.18zM26.396 347.328c.009.09-.007.176-.042.253.038-.076.052-.16.042-.253zM25.476 655.682c-.017.025-.037.048-.06.07-.197.193-.514.189-.707-.008-.129-.132-.176-.289-.137-.474.018-.083.074-.235.267-.373.151-.109.528-.294 1.125-.542 6.991-2.895 46.794-16.032 100.594-33.428 125.493-40.578 327.163-104.343 366.054-115.351 2.736-.775 4.671-1.289 5.722-1.518.523-.113.859-.154.997-.143.228.017.346.126.406.198.095.116.134.249.113.403-.039.273-.292.463-.565.425-.031-.004-.061-.012-.089-.021-.112.016-.37.055-.65.115-1.039.227-2.954.737-5.662 1.503-38.887 11.007-240.538 74.767-366.018 115.34-53.759 17.383-93.533 30.508-100.519 33.401-.385.159-.738.335-.871.403zm-.034-.618c.06.067.098.147.114.23-.013-.084-.052-.161-.114-.23zm473.433-150.477c-.02-.066-.026-.138-.015-.211-.011.075-.006.146.015.211z" fill="#f20d0d"/>
  <path d="M205.239 906.262c.001.031-.001.061-.006.092-.046.272-.304.456-.576.41-.182-.03-.313-.129-.39-.301-.035-.078-.08-.234-.005-.459.058-.177.253-.549.589-1.101 3.939-6.461 28.336-40.544 61.525-86.321 77.417-106.778 202.679-277.208 227.595-309.034 1.753-2.239 3.012-3.796 3.726-4.6.355-.4.602-.631.72-.704.195-.12.355-.102.445-.079.145.037.256.122.329.258.13.244.038.547-.206.677-.027.015-.055.027-.084.036-.081.078-.267.262-.456.476-.707.796-1.952 2.336-3.687 4.553-24.913 31.822-150.163 202.236-227.572 309.004-33.164 45.742-57.545 79.798-61.481 86.254-.217.356-.398.706-.466.839zm-.391-.479c.088.02.165.061.228.118-.061-.059-.137-.099-.228-.118zm293.598-400.727c-.055-.042-.103-.096-.137-.161.036.067.081.12.137.161z" fill="#f20d0d"/>
</svg>
