<?xml version="1.0" encoding="UTF-8" standalone="no"?>
<!DOCTYPE svg PUBLIC "-//W3C//DTD SVG 1.1//EN" "http://www.w3.org/Graphics/SVG/1.1/DTD/svg11.dtd">
<svg width="100%" height="100%" viewBox="0 0 1000 1000" version="1.1" xmlns="http://www.w3.org/2000/svg" xmlns:xlink="http://www.w3.org/1999/xlink" xml:space="preserve" xmlns:serif="http://www.serif.com/" style="fill-rule:evenodd;clip-rule:evenodd;stroke-linejoin:round;stroke-miterlimit:2;">
    <path d="M429.51,9.525C433.476,9.353 555.511,10.949 567.489,10.284" style="fill:none;stroke:black;stroke-width:3px;stroke-linecap:round;stroke-miterlimit:1.5;"/>
    <path d="M570.636,10.74C574.827,11.998 793.698,102.298 801.271,106.625" style="fill:none;stroke:black;stroke-width:3px;stroke-linecap:round;stroke-miterlimit:1.5;"/>
    <path d="M802.87,105.651C809.195,110.772 893.286,196.657 900.057,205.121" style="fill:none;stroke:black;stroke-width:3px;stroke-linecap:round;stroke-miterlimit:1.5;"/>
    <path d="M898.134,203.827C900.158,211.587 988.317,419.949 995.535,437.995" style="fill:none;stroke:black;stroke-width:3px;stroke-linecap:round;stroke-miterlimit:1.5;"/>
    <path d="M995.902,433.163C992.612,438.277 994.619,575.358 994.619,575.358" style="fill:none;stroke:black;stroke-width:3px;stroke-linecap:round;stroke-miterlimit:1.5;"/>
    <path d="M993.849,577.332C985.375,596.59 904.844,791.269 900.598,805.423" style="fill:none;stroke:black;stroke-width:3px;stroke-linecap:round;stroke-miterlimit:1.5;"/>
    <path d="M900.583,805.363C893.625,811.973 805.701,902.171 798.336,908.308" style="fill:none;stroke:black;stroke-width:3px;stroke-linecap:round;stroke-miterlimit:1.5;"/>
    <path d="M566.336,1000.81C578.789,993.546 785.828,910.011 799.663,905.399" style="fill:none;stroke:black;stroke-width:3px;stroke-linecap:round;stroke-miterlimit:1.5;"/>
    <path d="M429.536,1000.38C462.999,999.516 511.755,998.997 570.345,999.485" style="fill:none;stroke:black;stroke-width:3px;stroke-linecap:round;stroke-miterlimit:1.5;"/>
    <path d="M197.924,905.19C244.344,924.08 428.915,998.72 428.915,998.72" style="fill:none;stroke:black;stroke-width:3px;stroke-linecap:round;stroke-miterlimit:1.5;"/>
    <path d="M92.149,808.686C108.135,812.972 183.911,893.527 196.42,903.828" style="fill:none;stroke:black;stroke-width:3px;stroke-linecap:round;stroke-miterlimit:1.5;"/>
    <path d="M2.702,436.17C2.702,436.17 -4.797,555.681 2.434,572.774C12.661,596.945 98.186,809.964 98.186,809.964" style="fill:none;stroke:black;stroke-width:3px;stroke-linecap:round;stroke-miterlimit:1.5;"/>
    <path d="M2.911,433.274C8.283,415.142 96.217,208.855 97.783,206.036" style="fill:none;stroke:black;stroke-width:3px;stroke-linecap:round;stroke-miterlimit:1.5;"/>
    <path d="M97.254,206.392C112.803,187.309 189.795,113.272 197.152,105.915" style="fill:none;stroke:black;stroke-width:3px;stroke-linecap:round;stroke-miterlimit:1.5;"/>
    <path d="M195.779,105.372C216.709,102.039 417.976,15.281 430.328,9.105C434.004,7.267 420.676,11.695 424.674,11.695" style="fill:none;stroke:black;stroke-width:3px;stroke-linecap:round;stroke-miterlimit:1.5;"/>
    <g id="Layer2">
        <path d="M475.982,551.939C468.015,575.477 455.906,595.004 441.572,615.448C433.227,627.351 418.83,645.155 407.61,654.561C400.306,660.684 380.586,671.395 371.815,675.51C330.167,695.053 329.699,693.365 287.655,711.465C226.907,737.619 222.446,740.312 163.203,769.689C145.631,778.403 115.318,793.506 98.472,803.614" style="fill:none;stroke:rgb(0,0,255);stroke-width:3px;stroke-linecap:round;stroke-miterlimit:1.5;"/>
        <path d="M525.87,459.087C533.81,435.539 545.895,415.998 560.204,395.537C568.535,383.625 582.911,365.803 594.12,356.384C601.417,350.252 621.123,339.518 629.889,335.392C671.515,315.8 671.984,317.488 714.007,299.337C774.724,273.111 779.182,270.412 838.389,240.965C855.951,232.231 886.247,217.091 903.08,206.963" style="fill:none;stroke:rgb(0,0,255);stroke-width:3px;stroke-linecap:round;stroke-miterlimit:1.5;"/>
        <path d="M480.811,552.7C469.666,574.944 464.318,597.366 459.893,622.035C457.316,636.398 454.819,659.264 456.061,673.952C456.87,683.513 463.207,705.249 466.487,714.462C482.066,758.212 483.602,757.367 500.49,800.392C524.891,862.558 526.131,867.664 547.165,931.002C553.404,949.788 564.116,982.248 568.845,1001.49" style="fill:none;stroke:rgb(0,0,255);stroke-width:3px;stroke-linecap:round;stroke-miterlimit:1.5;"/>
        <path d="M521.04,458.332C532.159,436.075 537.48,413.647 541.876,388.972C544.435,374.606 546.906,351.737 545.645,337.051C544.825,327.49 538.463,305.762 535.171,296.553C519.54,252.822 518.005,253.669 501.066,210.664C476.591,148.527 475.345,143.422 454.236,80.11C447.974,61.33 437.224,28.884 432.472,9.65" style="fill:none;stroke:rgb(0,0,255);stroke-width:3px;stroke-linecap:round;stroke-miterlimit:1.5;"/>
        <g id="Layer1">
            <path d="M478.279,552.44C471.627,568.7 462.762,583.964 455.003,599.725C443.158,623.786 431.481,651.222 413.464,671.601C386.583,702.007 384.491,699.738 356.633,729.155C319.616,768.242 232.686,864.761 195.8,901.647" style="fill:none;stroke:rgb(255,0,0);stroke-width:3px;stroke-linecap:round;stroke-miterlimit:1.5;"/>
            <path d="M523.573,458.589C530.205,442.321 539.052,427.047 546.793,411.276C558.609,387.201 570.253,359.751 588.245,339.351C615.091,308.913 617.185,311.18 645.008,281.73C681.979,242.598 768.794,145.976 805.636,109.046" style="fill:none;stroke:rgb(255,0,0);stroke-width:3px;stroke-linecap:round;stroke-miterlimit:1.5;"/>
            <path d="M478.782,558.221C472.668,572.765 466.734,593.133 461.767,608.063C453.115,634.069 441.933,660.384 440.244,688.163C437.79,728.508 440.803,728.363 439.623,768.902C438.175,818.684 431.14,954.06 431.071,1004.2" style="fill:none;stroke:rgb(255,0,0);stroke-width:3px;stroke-linecap:round;stroke-miterlimit:1.5;"/>
            <path d="M523.063,452.809C529.159,438.257 535.069,417.882 540.018,402.946C548.639,376.93 559.79,350.602 561.446,322.821C563.852,282.473 560.839,282.621 561.97,242.081C563.359,192.297 570.233,56.914 570.242,6.778" style="fill:none;stroke:rgb(255,0,0);stroke-width:3px;stroke-linecap:round;stroke-miterlimit:1.5;"/>
        </g>
    </g>
    <g id="Layer21" serif:id="Layer2">
        <path d="M448.6,524.513C426.317,535.514 403.945,540.751 379.352,545.061C365.034,547.571 342.263,549.971 327.678,548.682C318.184,547.843 296.67,541.464 287.559,538.169C244.297,522.52 245.161,520.996 202.638,504.048C141.199,479.561 136.141,478.309 73.486,457.165C54.902,450.894 22.792,440.125 3.735,435.353" style="fill:none;stroke:rgb(0,0,255);stroke-width:3px;stroke-linecap:round;stroke-miterlimit:1.5;"/>
        <path d="M553.285,486.481C575.555,475.453 597.92,470.19 622.508,465.85C636.823,463.324 659.592,460.896 674.178,462.168C683.672,462.995 705.195,469.349 714.309,472.633C757.59,488.231 756.728,489.756 799.27,506.653C860.739,531.067 865.799,532.313 928.478,553.382C947.07,559.631 979.193,570.361 998.256,575.111" style="fill:none;stroke:rgb(0,0,255);stroke-width:3px;stroke-linecap:round;stroke-miterlimit:1.5;"/>
        <path d="M451.475,528.467C427.862,536.305 408.221,548.37 387.642,562.677C375.661,571.006 357.72,585.401 348.208,596.662C342.016,603.993 331.119,623.838 326.92,632.671C306.984,674.615 308.667,675.104 290.168,717.461C263.44,778.662 260.704,783.149 230.766,842.796C221.887,860.488 206.496,891.009 196.229,907.953" style="fill:none;stroke:rgb(0,0,255);stroke-width:3px;stroke-linecap:round;stroke-miterlimit:1.5;"/>
        <path d="M550.406,482.53C574.009,474.664 593.636,462.576 614.198,448.245C626.169,439.901 644.092,425.484 653.591,414.212C659.774,406.874 670.647,387.016 674.835,378.178C694.722,336.21 693.038,335.724 711.487,293.344C738.142,232.111 740.873,227.621 770.739,167.938C779.598,150.236 794.952,119.697 805.199,102.74" style="fill:none;stroke:rgb(0,0,255);stroke-width:3px;stroke-linecap:round;stroke-miterlimit:1.5;"/>
        <g id="Layer11" serif:id="Layer1">
            <path d="M449.868,526.492C433.665,533.279 416.601,537.797 399.967,543.448C374.575,552.076 346.913,563.208 319.763,564.868C279.253,567.344 279.38,564.26 238.88,565.345C185.065,566.788 55.344,573.516 3.18,573.494" style="fill:none;stroke:rgb(255,0,0);stroke-width:3px;stroke-linecap:round;stroke-miterlimit:1.5;"/>
            <path d="M552.014,484.503C568.209,477.697 585.268,473.159 601.895,467.488C627.277,458.83 654.926,447.664 682.074,445.973C722.581,443.449 722.457,446.532 762.956,445.399C816.769,443.892 946.482,437.01 998.646,436.969" style="fill:none;stroke:rgb(255,0,0);stroke-width:3px;stroke-linecap:round;stroke-miterlimit:1.5;"/>
            <path d="M446.135,530.933C431.525,536.889 412.922,547.088 398.85,554.127C374.339,566.388 347.82,577.078 326.975,595.518C296.701,622.299 298.933,624.327 269.422,652.147C233.183,686.309 132.446,777.019 96.932,812.407" style="fill:none;stroke:rgb(255,0,0);stroke-width:3px;stroke-linecap:round;stroke-miterlimit:1.5;"/>
            <path d="M555.742,480.057C570.345,474.084 588.935,463.863 602.999,456.808C627.496,444.517 654.002,433.796 674.825,415.331C705.067,388.514 702.833,386.488 732.311,358.634C768.509,324.428 869.137,233.599 904.609,198.169" style="fill:none;stroke:rgb(255,0,0);stroke-width:3px;stroke-linecap:round;stroke-miterlimit:1.5;"/>
        </g>
    </g>
    <g id="Layer22" serif:id="Layer2">
        <path d="M448.646,485.758C425.114,477.771 405.597,465.646 385.165,451.296C373.269,442.941 355.476,428.53 346.079,417.302C339.963,409.993 329.268,390.265 325.16,381.491C305.651,339.826 307.34,339.36 289.273,297.301C263.169,236.531 260.479,232.068 231.15,172.802C222.451,155.223 207.372,124.897 197.279,108.043" style="fill:none;stroke:rgb(0,0,255);stroke-width:3px;stroke-linecap:round;stroke-miterlimit:1.5;"/>
        <path d="M553.285,525.236C576.826,533.195 596.358,545.296 616.807,559.622C628.712,567.963 646.523,582.353 655.933,593.57C662.058,600.871 672.776,620.587 676.895,629.356C696.454,670.997 694.765,671.466 712.882,713.503C739.059,774.242 741.754,778.701 771.153,837.933C779.873,855.501 794.988,885.809 805.102,902.651" style="fill:none;stroke:rgb(0,0,255);stroke-width:3px;stroke-linecap:round;stroke-miterlimit:1.5;"/>
        <path d="M447.881,490.586C425.646,479.423 403.229,474.056 378.563,469.611C364.203,467.023 341.339,464.507 326.649,465.738C317.087,466.539 295.347,472.857 286.13,476.131C242.368,491.674 243.212,493.211 200.174,510.064C137.988,534.414 132.88,535.65 69.526,556.632C50.734,562.856 18.266,573.541 -0.977,578.255" style="fill:none;stroke:rgb(0,0,255);stroke-width:3px;stroke-linecap:round;stroke-miterlimit:1.5;"/>
        <path d="M554.044,520.407C576.292,531.544 598.716,536.883 623.387,541.299C637.751,543.87 660.618,546.359 675.305,545.111C684.866,544.298 706.6,537.954 715.812,534.67C759.556,519.074 758.71,517.538 801.728,500.634C863.885,476.21 868.991,474.968 932.321,453.91C951.105,447.664 983.56,436.94 1002.8,432.203" style="fill:none;stroke:rgb(0,0,255);stroke-width:3px;stroke-linecap:round;stroke-miterlimit:1.5;"/>
        <g id="Layer12" serif:id="Layer1">
            <path d="M448.143,488.054C431.889,481.389 416.632,472.511 400.877,464.739C376.826,452.875 349.399,441.176 329.035,423.143C298.651,396.236 300.922,394.147 271.528,366.264C232.47,329.216 136.022,242.207 99.166,205.291" style="fill:none;stroke:rgb(255,0,0);stroke-width:3px;stroke-linecap:round;stroke-miterlimit:1.5;"/>
            <path d="M553.785,522.939C570.047,529.585 585.314,538.444 601.079,546.198C625.144,558.033 652.585,569.7 672.97,587.709C703.387,614.579 701.118,616.671 730.546,644.519C769.647,681.521 866.199,768.414 903.099,805.286" style="fill:none;stroke:rgb(255,0,0);stroke-width:3px;stroke-linecap:round;stroke-miterlimit:1.5;"/>
            <path d="M442.362,488.552C427.822,482.427 407.46,476.476 392.534,471.497C366.535,462.824 340.229,451.621 312.451,449.909C272.108,447.422 272.251,450.435 231.713,449.223C181.932,447.734 46.562,440.588 -3.573,440.479" style="fill:none;stroke:rgb(255,0,0);stroke-width:3px;stroke-linecap:round;stroke-miterlimit:1.5;"/>
            <path d="M559.565,522.434C574.112,528.542 594.482,534.469 609.414,539.43C635.423,548.072 661.743,559.244 689.522,560.923C729.868,563.362 729.722,560.349 770.262,561.513C820.044,562.942 955.422,569.927 1005.56,569.976" style="fill:none;stroke:rgb(255,0,0);stroke-width:3px;stroke-linecap:round;stroke-miterlimit:1.5;"/>
        </g>
    </g>
    <g id="Layer23" serif:id="Layer2">
        <path d="M481.499,459.099C470.478,436.827 465.222,414.459 460.89,389.87C458.367,375.554 455.946,352.785 457.222,338.2C458.053,328.705 464.413,307.185 467.7,298.071C483.31,254.795 484.835,255.657 501.745,213.12C526.178,151.659 527.425,146.6 548.513,83.926C554.767,65.336 565.507,33.216 570.262,14.155" style="fill:none;stroke:rgb(0,0,255);stroke-width:3px;stroke-linecap:round;stroke-miterlimit:1.5;"/>
        <path d="M520.463,551.934C531.511,574.193 536.794,596.554 541.156,621.138C543.695,635.451 546.143,658.217 544.884,672.804C544.065,682.3 537.731,703.828 534.454,712.945C518.896,756.24 517.37,755.38 500.511,797.937C476.151,859.427 474.91,864.488 453.897,927.186C447.664,945.783 436.963,977.916 432.23,996.983" style="fill:none;stroke:rgb(0,0,255);stroke-width:3px;stroke-linecap:round;stroke-miterlimit:1.5;"/>
        <path d="M477.548,461.978C469.689,438.372 457.606,418.742 443.281,398.175C434.941,386.202 420.53,368.274 409.261,358.772C401.925,352.587 382.069,341.707 373.233,337.517C331.271,317.617 330.784,319.302 288.41,300.84C227.185,274.166 222.696,271.435 163.022,241.55C145.322,232.686 114.788,217.323 97.834,207.071" style="fill:none;stroke:rgb(0,0,255);stroke-width:3px;stroke-linecap:round;stroke-miterlimit:1.5;"/>
        <path d="M524.411,549.05C532.299,572.647 544.404,592.263 558.754,612.812C567.108,624.776 581.541,642.686 592.822,652.175C600.165,658.351 620.033,669.207 628.875,673.387C670.86,693.237 671.345,691.552 713.741,709.963C774.998,736.564 779.49,739.29 839.2,769.103C856.91,777.946 887.462,793.273 904.428,803.505" style="fill:none;stroke:rgb(0,0,255);stroke-width:3px;stroke-linecap:round;stroke-miterlimit:1.5;"/>
        <g id="Layer13" serif:id="Layer1">
            <path d="M479.522,460.37C472.72,444.172 468.187,427.113 462.521,410.484C453.87,385.099 442.713,357.447 441.03,330.298C438.518,289.791 441.601,289.915 440.48,249.416C438.99,195.603 432.146,65.888 432.121,13.723" style="fill:none;stroke:rgb(255,0,0);stroke-width:3px;stroke-linecap:round;stroke-miterlimit:1.5;"/>
            <path d="M522.439,550.661C529.26,566.85 533.813,583.904 539.5,600.526C548.18,625.901 559.37,653.54 561.086,680.686C563.646,721.191 560.563,721.07 561.732,761.568C563.287,815.379 570.285,945.086 570.372,997.25" style="fill:none;stroke:rgb(255,0,0);stroke-width:3px;stroke-linecap:round;stroke-miterlimit:1.5;"/>
            <path d="M475.077,456.64C469.108,442.035 458.893,423.442 451.841,409.376C439.558,384.876 428.844,358.366 410.386,337.538C383.578,307.288 381.551,309.521 353.706,280.036C319.511,243.827 228.712,143.172 193.292,107.689" style="fill:none;stroke:rgb(255,0,0);stroke-width:3px;stroke-linecap:round;stroke-miterlimit:1.5;"/>
            <path d="M526.889,554.385C532.875,568.983 543.112,587.564 550.181,601.621C562.493,626.107 573.238,652.604 591.721,673.41C618.565,703.628 620.589,701.392 648.47,730.845C682.708,767.013 773.627,867.56 809.089,903" style="fill:none;stroke:rgb(255,0,0);stroke-width:3px;stroke-linecap:round;stroke-miterlimit:1.5;"/>
        </g>
    </g>
</svg>
