<?xml version="1.0" encoding="UTF-8" standalone="no"?>
<!DOCTYPE svg PUBLIC "-//W3C//DTD SVG 1.1//EN" "http://www.w3.org/Graphics/SVG/1.1/DTD/svg11.dtd">
<svg width="100%" height="100%" viewBox="0 0 1000 1000" version="1.1" xmlns="http://www.w3.org/2000/svg" xmlns:xlink="http://www.w3.org/1999/xlink" xml:space="preserve" xmlns:serif="http://www.serif.com/" style="fill-rule:evenodd;clip-rule:evenodd;stroke-linecap:round;stroke-linejoin:round;stroke-miterlimit:1.5;">
    <path d="M497.198,-1.788L794.458,94.104L978.175,345.154L978.175,655.468L794.458,906.518L497.198,1002.41L199.938,906.518L16.221,655.468L16.221,345.154L199.938,94.104L497.198,-1.788Z" style="fill:none;stroke:black;stroke-width:1px;"/>
    <g id="Layer1">
        <path d="M500.987,536.078C501.311,552.48 501.145,597.38 496.951,611.69C491.775,629.352 480,641.346 471.081,654.137C462.435,666.537 460.239,670.104 450.853,681.837C445.617,688.382 437.531,699.426 432.905,706.364C424.685,718.695 425.443,721.078 422.6,735.29C421.907,738.758 417.791,755.642 416.932,759.077C413.781,771.678 410.463,784.662 406.024,796.931C401.932,808.242 395.821,821.264 389.029,834.801C386.799,839.245 382.766,853.861 380.844,860.414C376.475,875.305 377.83,875.624 373.658,894.973C372.019,902.578 368.464,913.86 365.977,921.319C362.835,930.744 358.963,936.177 355.913,945.328C355.422,946.801 351.99,954.484 352.953,954.484" style="fill:none;stroke:rgb(13,40,242);stroke-width:1px;"/>
        <path d="M520.308,531.416C530.308,544.421 556.837,580.647 561.959,594.651C568.282,611.936 565.929,628.578 566.348,644.166C566.754,659.278 567.106,663.451 566.52,678.465C566.193,686.84 566.245,700.528 566.643,708.858C567.351,723.66 569.376,725.128 575.528,738.251C577.029,741.453 583.742,757.482 585.091,760.756C590.039,772.766 595.078,785.183 598.792,797.691C602.216,809.223 605.031,823.329 607.604,838.253C608.449,843.153 613.882,857.308 616.227,863.723C621.554,878.298 622.834,877.751 630.966,895.796C634.163,902.889 638.001,914.077 640.43,921.556C643.499,931.005 643.609,937.676 646.589,946.85C647.068,948.326 648.869,956.546 649.644,955.975" style="fill:none;stroke:rgb(13,40,242);stroke-width:1px;"/>
        <path d="M533.401,513.813C549.128,518.482 591.861,532.266 604.223,540.605C619.481,550.897 627.336,565.757 636.817,578.137C646.008,590.138 648.74,593.313 657.071,605.817C661.719,612.792 669.788,623.849 674.996,630.362C684.25,641.936 686.751,641.938 699.43,648.959C702.523,650.672 717.362,659.718 720.375,661.579C731.426,668.405 742.79,675.507 753.133,683.46C762.669,690.792 773.222,700.567 784.059,711.146C787.617,714.619 800.32,722.898 805.981,726.719C818.843,735.4 819.559,734.206 836.729,744.053C843.478,747.923 853.149,754.734 859.501,759.367C867.528,765.221 871.531,770.56 879.324,776.243C880.578,777.158 886.858,782.759 887.15,781.842" style="fill:none;stroke:rgb(13,40,242);stroke-width:1px;"/>
        <path d="M533.683,491.877C549.159,486.435 591.855,472.538 606.759,472.042C625.154,471.431 640.23,478.86 655.17,483.327C669.654,487.657 673.728,488.626 687.809,493.868C695.664,496.792 708.685,501.016 716.722,503.237C731.006,507.185 733.033,505.719 747.42,503.97C750.93,503.544 768.255,502.168 771.786,501.909C784.74,500.956 798.11,500.044 811.152,500.42C823.176,500.766 837.456,502.494 852.438,504.707C857.357,505.434 872.501,504.69 879.327,504.465C894.837,503.952 894.716,502.566 914.398,500.472C922.135,499.648 933.962,499.494 941.825,499.521C951.759,499.554 958.132,501.531 967.778,501.564C969.33,501.569 977.702,502.424 977.4,501.51" style="fill:none;stroke:rgb(13,40,242);stroke-width:1px;"/>
        <path d="M521.046,473.944C530.39,460.459 556.822,424.164 568.603,415.021C583.144,403.738 599.712,400.914 614.433,395.77C628.704,390.783 632.572,389.178 647.052,385.166C655.129,382.928 668.152,378.712 675.965,375.798C689.85,370.619 690.632,368.243 701.259,358.389C703.852,355.984 717.078,344.71 719.786,342.429C729.72,334.06 740.014,325.48 750.798,318.136C760.74,311.365 773.32,304.389 786.753,297.396C791.164,295.1 802.993,285.615 808.39,281.43C820.652,271.919 819.741,270.866 834.455,257.627C840.239,252.423 849.728,245.362 856.112,240.772C864.178,234.973 870.5,232.837 878.332,227.207C879.592,226.301 886.874,222.083 886.094,221.519" style="fill:none;stroke:rgb(13,40,242);stroke-width:1px;"/>
        <path d="M500.293,466.83C499.953,450.428 500.076,405.527 504.257,391.213C509.417,373.546 521.18,361.542 530.087,348.742C538.722,336.334 540.914,332.765 550.289,321.024C555.519,314.474 563.595,303.422 568.214,296.479C576.422,284.141 575.662,281.758 578.491,267.544C579.182,264.075 583.282,247.187 584.138,243.751C587.276,231.147 590.582,218.16 595.009,205.887C599.091,194.572 605.19,181.544 611.969,168.001C614.194,163.555 618.214,148.936 620.13,142.38C624.484,127.485 623.129,127.167 627.283,107.814C628.915,100.208 632.46,88.923 634.939,81.461C638.072,72.034 641.939,66.596 644.981,57.442C645.47,55.97 648.895,48.283 647.932,48.284" style="fill:none;stroke:rgb(13,40,242);stroke-width:1px;"/>
        <path d="M479.312,473.238C469.417,460.153 443.184,423.712 438.176,409.666C431.994,392.331 434.482,375.708 434.19,360.117C433.906,345.003 433.589,340.827 434.296,325.819C434.691,317.446 434.75,303.758 434.42,295.426C433.833,280.618 431.82,279.134 425.775,265.961C424.3,262.747 417.717,246.664 416.395,243.379C411.545,231.329 406.606,218.872 402.994,206.334C399.665,194.775 396.964,180.646 394.512,165.702C393.707,160.795 388.389,146.596 386.096,140.163C380.888,125.545 379.604,126.082 371.618,107.971C368.479,100.852 364.732,89.633 362.364,82.135C359.373,72.662 359.316,65.99 356.411,56.791C355.944,55.312 354.21,47.077 353.431,47.642" style="fill:none;stroke:rgb(13,40,242);stroke-width:1px;"/>
        <path d="M466.623,492.027C450.934,487.231 408.315,473.1 396.021,464.661C380.847,454.245 373.114,439.322 363.733,426.865C354.64,414.789 351.933,411.593 343.704,399.022C339.114,392.009 331.134,380.887 325.98,374.332C316.82,362.682 314.319,362.661 301.698,355.537C298.618,353.798 283.854,344.632 280.856,342.747C269.861,335.831 258.555,328.637 248.277,320.6C238.801,313.191 228.327,303.331 217.577,292.664C214.047,289.162 201.412,280.78 195.782,276.913C182.991,268.128 182.265,269.316 165.176,259.33C158.458,255.405 148.844,248.515 142.529,243.831C134.55,237.912 130.591,232.541 122.844,226.795C121.597,225.87 115.363,220.217 115.064,221.132" style="fill:none;stroke:rgb(13,40,242);stroke-width:1px;"/>
        <path d="M467.612,513.747C452.092,519.063 409.284,532.612 394.377,532.987C375.977,533.449 360.962,525.898 346.059,521.309C331.611,516.861 327.544,515.86 313.506,510.503C305.675,507.515 292.69,503.186 284.67,500.9C270.419,496.836 268.381,498.285 253.98,499.917C250.466,500.315 233.131,501.55 229.598,501.78C216.636,502.627 203.259,503.431 190.221,502.949C178.2,502.505 163.934,500.661 148.971,498.326C144.058,497.56 128.909,498.181 122.081,498.351C106.568,498.737 106.677,500.124 86.978,502.058C79.236,502.819 67.408,502.877 59.546,502.786C49.611,502.672 43.255,500.643 33.61,500.532C32.058,500.514 23.693,499.592 23.987,500.508" style="fill:none;stroke:rgb(13,40,242);stroke-width:1px;"/>
        <path d="M478.6,530.891C469.201,544.337 442.62,580.524 430.802,589.618C416.216,600.843 399.636,603.599 384.894,608.683C370.603,613.611 366.728,615.2 352.233,619.153C344.146,621.359 331.106,625.521 323.281,628.404C309.376,633.526 308.584,635.899 297.916,645.709C295.313,648.103 282.042,659.323 279.324,661.594C269.356,669.921 259.027,678.459 248.214,685.76C238.244,692.49 225.635,699.414 212.174,706.353C207.754,708.631 195.886,718.067 190.472,722.231C178.171,731.691 179.078,732.747 164.31,745.927C158.505,751.107 148.988,758.129 142.585,762.693C134.495,768.459 128.165,770.569 120.31,776.168C119.046,777.069 111.747,781.257 112.525,781.824" style="fill:none;stroke:rgb(13,40,242);stroke-width:1px;"/>
        <path d="M501.397,536.449C499.011,535.296 498.249,1002 500.775,1000.74" style="fill:none;stroke:rgb(242,13,13);stroke-width:1px;"/>
        <path d="M520.729,531.079C518.125,531.568 794.767,907.933 796.05,905.417" style="fill:none;stroke:rgb(242,13,13);stroke-width:1px;"/>
        <path d="M533.771,513.622C531.948,515.546 976.521,657.819 976.084,655.029" style="fill:none;stroke:rgb(242,13,13);stroke-width:1px;"/>
        <path d="M533.881,491.658C533.533,494.285 977.052,348.641 975.062,346.638" style="fill:none;stroke:rgb(242,13,13);stroke-width:1px;"/>
        <path d="M520.747,473.934C522.006,476.266 796.159,97.905 793.372,97.449" style="fill:none;stroke:rgb(242,13,13);stroke-width:1px;"/>
        <path d="M500.152,467.155C502.54,468.306 502.592,0.903 500.066,2.169" style="fill:none;stroke:rgb(242,13,13);stroke-width:1px;"/>
        <path d="M479.449,473.453C482.058,472.985 207.922,94.503 206.619,97.009" style="fill:none;stroke:rgb(242,13,13);stroke-width:1px;"/>
        <path d="M466.765,492.197C468.603,490.289 25.484,344.582 25.899,347.376" style="fill:none;stroke:rgb(242,13,13);stroke-width:1px;"/>
        <path d="M468.138,514.03C468.508,511.406 23.093,653.374 25.067,655.394" style="fill:none;stroke:rgb(242,13,13);stroke-width:1px;"/>
        <path d="M479.205,530.816C477.956,528.479 201.954,905.804 204.74,906.271" style="fill:none;stroke:rgb(242,13,13);stroke-width:1px;"/>
    </g>
</svg>
